<?xml version="1.0" encoding="UTF-8" standalone="no"?>
<!DOCTYPE svg PUBLIC "-//W3C//DTD SVG 1.1//EN"
 "http://www.w3.org/Graphics/SVG/1.1/DTD/svg11.dtd">
<!-- Generated by graphviz version 2.30.1 (20200304.1809)
 -->
<!-- Title: mfem::MatrixCoefficient Pages: 1 -->
<svg width="492pt" height="116pt"
 viewBox="0.00 0.00 492.00 116.00" xmlns="http://www.w3.org/2000/svg" xmlns:xlink="http://www.w3.org/1999/xlink">
<g id="graph0" class="graph" transform="scale(1 1) rotate(0) translate(4 112)">
<title>mfem::MatrixCoefficient</title>
<polygon fill="white" stroke="white" points="-4,5 -4,-112 489,-112 489,5 -4,5"/>
<!-- Node1 -->
<g id="node1" class="node"><title>Node1</title>
<polygon fill="#bfbfbf" stroke="black" points="0,-42.5 0,-65.5 188,-65.5 188,-42.5 0,-42.5"/>
<text text-anchor="middle" x="94" y="-50.3" font-family="Helvetica,sans-Serif" font-size="14.00">mfem::MatrixCoefficient</text>
</g>
<!-- Node2 -->
<g id="node2" class="node"><title>Node2</title>
<g id="a_node2"><a xlink:href="classmfem_1_1MatrixArrayCoefficient.html" target="_top" xlink:title="mfem::MatrixArrayCoefficient">
<polygon fill="white" stroke="black" points="240.5,-84.5 240.5,-107.5 467.5,-107.5 467.5,-84.5 240.5,-84.5"/>
<text text-anchor="middle" x="354" y="-92.3" font-family="Helvetica,sans-Serif" font-size="14.00">mfem::MatrixArrayCoefficient</text>
</a>
</g>
</g>
<!-- Node1&#45;&gt;Node2 -->
<g id="edge1" class="edge"><title>Node1&#45;&gt;Node2</title>
<path fill="none" stroke="midnightblue" d="M175.788,-67.1515C209.934,-72.7102 249.345,-79.1259 282.317,-84.4935"/>
<polygon fill="midnightblue" stroke="midnightblue" points="176.273,-63.6846 165.841,-65.5322 175.149,-70.5936 176.273,-63.6846"/>
</g>
<!-- Node3 -->
<g id="node3" class="node"><title>Node3</title>
<g id="a_node3"><a xlink:href="classmfem_1_1MatrixFunctionCoefficient.html" target="_top" xlink:title="mfem::MatrixFunctionCoefficient">
<polygon fill="white" stroke="black" points="230,-42.5 230,-65.5 478,-65.5 478,-42.5 230,-42.5"/>
<text text-anchor="middle" x="354" y="-50.3" font-family="Helvetica,sans-Serif" font-size="14.00">mfem::MatrixFunctionCoefficient</text>
</a>
</g>
</g>
<!-- Node1&#45;&gt;Node3 -->
<g id="edge2" class="edge"><title>Node1&#45;&gt;Node3</title>
<path fill="none" stroke="midnightblue" d="M198.417,-54C208.777,-54 219.367,-54 229.903,-54"/>
<polygon fill="midnightblue" stroke="midnightblue" points="198.144,-50.5001 188.144,-54 198.144,-57.5001 198.144,-50.5001"/>
</g>
<!-- Node4 -->
<g id="node4" class="node"><title>Node4</title>
<g id="a_node4"><a xlink:href="classmfem_1_1MatrixRestrictedCoefficient.html" target="_top" xlink:title="MatrixCoefficient defined on a subset of domain or boundary attributes. ">
<polygon fill="white" stroke="black" points="224,-0.5 224,-23.5 484,-23.5 484,-0.5 224,-0.5"/>
<text text-anchor="middle" x="354" y="-8.3" font-family="Helvetica,sans-Serif" font-size="14.00">mfem::MatrixRestrictedCoefficient</text>
</a>
</g>
</g>
<!-- Node1&#45;&gt;Node4 -->
<g id="edge3" class="edge"><title>Node1&#45;&gt;Node4</title>
<path fill="none" stroke="midnightblue" d="M175.788,-40.8485C209.934,-35.2898 249.345,-28.8741 282.317,-23.5065"/>
<polygon fill="midnightblue" stroke="midnightblue" points="175.149,-37.4064 165.841,-42.4678 176.273,-44.3154 175.149,-37.4064"/>
</g>
</g>
</svg>
