<?xml version="1.0" encoding="UTF-8" standalone="no"?>
<!DOCTYPE svg PUBLIC "-//W3C//DTD SVG 1.1//EN"
 "http://www.w3.org/Graphics/SVG/1.1/DTD/svg11.dtd">
<!-- Generated by graphviz version 2.30.1 (20200304.1809)
 -->
<!-- Title: mfem::NeighborDofMessage Pages: 1 -->
<svg width="1262pt" height="284pt"
 viewBox="0.00 0.00 1262.00 284.00" xmlns="http://www.w3.org/2000/svg" xmlns:xlink="http://www.w3.org/1999/xlink">
<g id="graph0" class="graph" transform="scale(1 1) rotate(0) translate(4 280)">
<title>mfem::NeighborDofMessage</title>
<polygon fill="white" stroke="white" points="-4,5 -4,-280 1259,-280 1259,5 -4,5"/>
<!-- Node1 -->
<g id="node1" class="node"><title>Node1</title>
<polygon fill="#bfbfbf" stroke="black" points="1032,-142.5 1032,-165.5 1254,-165.5 1254,-142.5 1032,-142.5"/>
<text text-anchor="middle" x="1143" y="-150.3" font-family="Helvetica,sans-Serif" font-size="14.00">mfem::NeighborDofMessage</text>
</g>
<!-- Node2 -->
<g id="node2" class="node"><title>Node2</title>
<g id="a_node2"><a xlink:href="structmfem_1_1VarMessage.html" target="_top" xlink:title="mfem::VarMessage\&lt; 135 \&gt;">
<polygon fill="white" stroke="black" points="700.5,-228.5 700.5,-251.5 915.5,-251.5 915.5,-228.5 700.5,-228.5"/>
<text text-anchor="middle" x="808" y="-236.3" font-family="Helvetica,sans-Serif" font-size="14.00">mfem::VarMessage&lt; 135 &gt;</text>
</a>
</g>
</g>
<!-- Node2&#45;&gt;Node1 -->
<g id="edge1" class="edge"><title>Node2&#45;&gt;Node1</title>
<path fill="none" stroke="midnightblue" d="M863.262,-225.986C928.523,-209.132 1036.83,-181.161 1097.43,-165.51"/>
<polygon fill="midnightblue" stroke="midnightblue" points="862.371,-222.601 853.564,-228.491 864.122,-229.379 862.371,-222.601"/>
</g>
<!-- Node3 -->
<g id="node3" class="node"><title>Node3</title>
<g id="a_node3"><a xlink:title="STL class. ">
<polygon fill="white" stroke="#bfbfbf" points="357,-252.5 357,-275.5 445,-275.5 445,-252.5 357,-252.5"/>
<text text-anchor="middle" x="401" y="-260.3" font-family="Helvetica,sans-Serif" font-size="14.00">std::string</text>
</a>
</g>
</g>
<!-- Node3&#45;&gt;Node2 -->
<g id="edge2" class="edge"><title>Node3&#45;&gt;Node2</title>
<path fill="none" stroke="#9a32cd" stroke-dasharray="5,2" d="M455.697,-260.818C517.848,-257.135 621.737,-250.979 700.459,-246.314"/>
<polygon fill="#9a32cd" stroke="#9a32cd" points="455.118,-257.346 445.342,-261.432 455.532,-264.334 455.118,-257.346"/>
<text text-anchor="middle" x="595" y="-260.8" font-family="Helvetica,sans-Serif" font-size="14.00"> data</text>
</g>
<!-- Node4 -->
<g id="node4" class="node"><title>Node4</title>
<g id="a_node4"><a xlink:href="classmfem_1_1FiniteElementCollection.html" target="_top" xlink:title="mfem::FiniteElementCollection">
<polygon fill="white" stroke="black" points="690,-162.5 690,-185.5 926,-185.5 926,-162.5 690,-162.5"/>
<text text-anchor="middle" x="808" y="-170.3" font-family="Helvetica,sans-Serif" font-size="14.00">mfem::FiniteElementCollection</text>
</a>
</g>
</g>
<!-- Node4&#45;&gt;Node1 -->
<g id="edge3" class="edge"><title>Node4&#45;&gt;Node1</title>
<path fill="none" stroke="#9a32cd" stroke-dasharray="5,2" d="M936.524,-166.341C967.925,-164.455 1001.29,-162.451 1031.79,-160.619"/>
<polygon fill="#9a32cd" stroke="#9a32cd" points="936.175,-162.855 926.403,-166.949 936.595,-169.843 936.175,-162.855"/>
<text text-anchor="middle" x="979" y="-169.8" font-family="Helvetica,sans-Serif" font-size="14.00"> fec</text>
</g>
<!-- Node5 -->
<g id="node5" class="node"><title>Node5</title>
<g id="a_node5"><a xlink:href="classmfem_1_1ParNCMesh.html" target="_top" xlink:title="A parallel extension of the NCMesh class. ">
<polygon fill="white" stroke="red" points="733.5,-120.5 733.5,-143.5 882.5,-143.5 882.5,-120.5 733.5,-120.5"/>
<text text-anchor="middle" x="808" y="-128.3" font-family="Helvetica,sans-Serif" font-size="14.00">mfem::ParNCMesh</text>
</a>
</g>
</g>
<!-- Node5&#45;&gt;Node1 -->
<g id="edge4" class="edge"><title>Node5&#45;&gt;Node1</title>
<path fill="none" stroke="#9a32cd" stroke-dasharray="5,2" d="M892.832,-136.537C929.967,-138.642 974.173,-141.279 1014,-144 1019.78,-144.395 1025.71,-144.813 1031.69,-145.245"/>
<polygon fill="#9a32cd" stroke="#9a32cd" points="892.737,-133.026 882.555,-135.958 892.343,-140.015 892.737,-133.026"/>
<text text-anchor="middle" x="979" y="-147.8" font-family="Helvetica,sans-Serif" font-size="14.00"> pncmesh</text>
</g>
<!-- Node6 -->
<g id="node6" class="node"><title>Node6</title>
<g id="a_node6"><a xlink:href="classmfem_1_1NCMesh.html" target="_top" xlink:title="A class for non&#45;conforming AMR on higher&#45;order hexahedral, quadrilateral or triangular meshes...">
<polygon fill="white" stroke="red" points="338,-210.5 338,-233.5 464,-233.5 464,-210.5 338,-210.5"/>
<text text-anchor="middle" x="401" y="-218.3" font-family="Helvetica,sans-Serif" font-size="14.00">mfem::NCMesh</text>
</a>
</g>
</g>
<!-- Node6&#45;&gt;Node5 -->
<g id="edge5" class="edge"><title>Node6&#45;&gt;Node5</title>
<path fill="none" stroke="midnightblue" d="M456.724,-207.896C514.502,-193.239 608.345,-170.095 690,-153 705.755,-149.702 722.771,-146.464 738.817,-143.555"/>
<polygon fill="midnightblue" stroke="midnightblue" points="455.545,-204.584 446.717,-210.441 457.271,-211.368 455.545,-204.584"/>
</g>
<!-- Node7 -->
<g id="node7" class="node"><title>Node7</title>
<g id="a_node7"><a xlink:href="classmfem_1_1Array.html" target="_top" xlink:title="mfem::Array\&lt; int \&gt;">
<polygon fill="white" stroke="red" points="0,-150.5 0,-173.5 158,-173.5 158,-150.5 0,-150.5"/>
<text text-anchor="middle" x="79" y="-158.3" font-family="Helvetica,sans-Serif" font-size="14.00">mfem::Array&lt; int &gt;</text>
</a>
</g>
</g>
<!-- Node7&#45;&gt;Node6 -->
<g id="edge6" class="edge"><title>Node7&#45;&gt;Node6</title>
<path fill="none" stroke="#9a32cd" stroke-dasharray="5,2" d="M151.577,-175.421C207.739,-185.951 285.092,-200.455 338.49,-210.467"/>
<polygon fill="#9a32cd" stroke="#9a32cd" points="152.173,-171.972 141.699,-173.569 150.883,-178.852 152.173,-171.972"/>
<text text-anchor="middle" x="230" y="-203.8" font-family="Helvetica,sans-Serif" font-size="14.00"> vertex_nodeId</text>
</g>
<!-- Node7&#45;&gt;Node5 -->
<g id="edge8" class="edge"><title>Node7&#45;&gt;Node5</title>
<path fill="none" stroke="#9a32cd" stroke-dasharray="5,2" d="M168.378,-152.076C209.023,-147.914 257.904,-143.475 302,-141 455.212,-132.401 634.941,-131.353 733.338,-131.55"/>
<polygon fill="#9a32cd" stroke="#9a32cd" points="167.816,-148.615 158.23,-153.127 168.537,-155.578 167.816,-148.615"/>
<text text-anchor="middle" x="401" y="-189.8" font-family="Helvetica,sans-Serif" font-size="14.00"> face_owner</text>
<text text-anchor="middle" x="401" y="-174.8" font-family="Helvetica,sans-Serif" font-size="14.00">vertex_owner</text>
<text text-anchor="middle" x="401" y="-159.8" font-family="Helvetica,sans-Serif" font-size="14.00">edge_owner</text>
<text text-anchor="middle" x="401" y="-144.8" font-family="Helvetica,sans-Serif" font-size="14.00">old_index_or_rank</text>
</g>
<!-- Node8 -->
<g id="node8" class="node"><title>Node8</title>
<polygon fill="white" stroke="#bfbfbf" points="302.5,-57 302.5,-95 499.5,-95 499.5,-57 302.5,-57"/>
<text text-anchor="start" x="310.5" y="-79.8" font-family="Helvetica,sans-Serif" font-size="14.00">std::map&lt; int, Rebalance</text>
<text text-anchor="middle" x="401" y="-64.8" font-family="Helvetica,sans-Serif" font-size="14.00">DofMessage &gt;</text>
</g>
<!-- Node8&#45;&gt;Node5 -->
<g id="edge7" class="edge"><title>Node8&#45;&gt;Node5</title>
<path fill="none" stroke="#9a32cd" stroke-dasharray="5,2" d="M509.784,-61.0622C561.387,-58.705 622.551,-63.2079 672,-88 683.294,-93.6622 679.135,-103.554 690,-110 703.065,-117.751 718.272,-122.865 733.315,-126.217"/>
<polygon fill="#9a32cd" stroke="#9a32cd" points="509.39,-57.5785 499.597,-61.6211 509.774,-64.5679 509.39,-57.5785"/>
<text text-anchor="middle" x="595" y="-106.8" font-family="Helvetica,sans-Serif" font-size="14.00"> recv_rebalance_dofs</text>
<text text-anchor="middle" x="595" y="-91.8" font-family="Helvetica,sans-Serif" font-size="14.00">send_rebalance_dofs</text>
</g>
<!-- Node9 -->
<g id="node9" class="node"><title>Node9</title>
<g id="a_node9"><a xlink:href="classmfem_1_1Array.html" target="_top" xlink:title="mfem::Array\&lt; mfem::\lDenseMatrix * \&gt;">
<polygon fill="white" stroke="red" points="313,-0 313,-38 489,-38 489,-0 313,-0"/>
<text text-anchor="start" x="321" y="-22.8" font-family="Helvetica,sans-Serif" font-size="14.00">mfem::Array&lt; mfem::</text>
<text text-anchor="middle" x="401" y="-7.8" font-family="Helvetica,sans-Serif" font-size="14.00">DenseMatrix * &gt;</text>
</a>
</g>
</g>
<!-- Node9&#45;&gt;Node5 -->
<g id="edge9" class="edge"><title>Node9&#45;&gt;Node5</title>
<path fill="none" stroke="#9a32cd" stroke-dasharray="5,2" d="M499.253,-1.69009C555.826,2.67964 625.014,-2.544 672,-42 695.941,-62.1044 667.103,-88.714 690,-110 701.883,-121.047 717.48,-127.388 733.395,-130.87"/>
<polygon fill="#9a32cd" stroke="#9a32cd" points="498.86,1.789 489.206,-2.57561 499.475,-5.18397 498.86,1.789"/>
<text text-anchor="middle" x="595" y="-45.8" font-family="Helvetica,sans-Serif" font-size="14.00"> aux_pm_store</text>
</g>
<!-- Node10 -->
<g id="node10" class="node"><title>Node10</title>
<polygon fill="white" stroke="#bfbfbf" points="699,-63 699,-101 917,-101 917,-63 699,-63"/>
<text text-anchor="start" x="707" y="-85.8" font-family="Helvetica,sans-Serif" font-size="14.00">std::map&lt; NCMesh::MeshId,</text>
<text text-anchor="middle" x="808" y="-70.8" font-family="Helvetica,sans-Serif" font-size="14.00"> std::vector&lt; int &gt; &gt;</text>
</g>
<!-- Node10&#45;&gt;Node1 -->
<g id="edge10" class="edge"><title>Node10&#45;&gt;Node1</title>
<path fill="none" stroke="#9a32cd" stroke-dasharray="5,2" d="M926.283,-102.967C955.045,-108.479 985.695,-114.666 1014,-121 1042.89,-127.465 1075.17,-135.794 1100.08,-142.467"/>
<polygon fill="#9a32cd" stroke="#9a32cd" points="926.674,-99.4788 916.196,-101.047 925.365,-106.355 926.674,-99.4788"/>
<text text-anchor="middle" x="979" y="-124.8" font-family="Helvetica,sans-Serif" font-size="14.00"> id_dofs</text>
</g>
</g>
</svg>
