<?xml version="1.0" encoding="UTF-8" standalone="no"?>
<!DOCTYPE svg PUBLIC "-//W3C//DTD SVG 1.1//EN"
 "http://www.w3.org/Graphics/SVG/1.1/DTD/svg11.dtd">
<!-- Generated by graphviz version 2.30.1 (20200304.1809)
 -->
<!-- Title: mfem::miniapps::ParDiscreteInterpolationOperator Pages: 1 -->
<svg width="1808pt" height="214pt"
 viewBox="0.00 0.00 1808.00 214.00" xmlns="http://www.w3.org/2000/svg" xmlns:xlink="http://www.w3.org/1999/xlink">
<g id="graph0" class="graph" transform="scale(1 1) rotate(0) translate(4 210)">
<title>mfem::miniapps::ParDiscreteInterpolationOperator</title>
<polygon fill="white" stroke="white" points="-4,5 -4,-210 1805,-210 1805,5 -4,5"/>
<!-- Node1 -->
<g id="node1" class="node"><title>Node1</title>
<polygon fill="#bfbfbf" stroke="black" points="1576,-152 1576,-190 1800,-190 1800,-152 1576,-152"/>
<text text-anchor="start" x="1584" y="-174.8" font-family="Helvetica,sans-Serif" font-size="14.00">mfem::miniapps::ParDiscrete</text>
<text text-anchor="middle" x="1688" y="-159.8" font-family="Helvetica,sans-Serif" font-size="14.00">InterpolationOperator</text>
</g>
<!-- Node2 -->
<g id="node2" class="node"><title>Node2</title>
<g id="a_node2"><a xlink:href="classmfem_1_1HypreParMatrix.html" target="_top" xlink:title="Wrapper for hypre&#39;s ParCSR matrix class. ">
<polygon fill="white" stroke="black" points="494,-179.5 494,-202.5 672,-202.5 672,-179.5 494,-179.5"/>
<text text-anchor="middle" x="583" y="-187.3" font-family="Helvetica,sans-Serif" font-size="14.00">mfem::HypreParMatrix</text>
</a>
</g>
</g>
<!-- Node2&#45;&gt;Node1 -->
<g id="edge1" class="edge"><title>Node2&#45;&gt;Node1</title>
<path fill="none" stroke="#9a32cd" stroke-dasharray="5,2" d="M682.486,-191C753.956,-191 852.963,-191 940,-191 940,-191 940,-191 1367,-191 1436.44,-191 1514.19,-186.251 1575.67,-181.381"/>
<polygon fill="#9a32cd" stroke="#9a32cd" points="682.146,-187.5 672.146,-191 682.146,-194.5 682.146,-187.5"/>
<text text-anchor="middle" x="1079" y="-194.8" font-family="Helvetica,sans-Serif" font-size="14.00"> mat_</text>
</g>
<!-- Node3 -->
<g id="node3" class="node"><title>Node3</title>
<g id="a_node3"><a xlink:href="classmfem_1_1Operator.html" target="_top" xlink:title="Abstract operator. ">
<polygon fill="white" stroke="black" points="0.5,-164.5 0.5,-187.5 133.5,-187.5 133.5,-164.5 0.5,-164.5"/>
<text text-anchor="middle" x="67" y="-172.3" font-family="Helvetica,sans-Serif" font-size="14.00">mfem::Operator</text>
</a>
</g>
</g>
<!-- Node3&#45;&gt;Node2 -->
<g id="edge2" class="edge"><title>Node3&#45;&gt;Node2</title>
<path fill="none" stroke="midnightblue" d="M143.838,-178.213C237.178,-180.937 395.39,-185.554 493.991,-188.432"/>
<polygon fill="midnightblue" stroke="midnightblue" points="143.718,-174.708 133.621,-177.915 143.514,-181.705 143.718,-174.708"/>
</g>
<!-- Node7 -->
<g id="node7" class="node"><title>Node7</title>
<g id="a_node7"><a xlink:href="classmfem_1_1FiniteElementSpace.html" target="_top" xlink:title="mfem::FiniteElementSpace">
<polygon fill="white" stroke="red" points="266.5,-138.5 266.5,-161.5 475.5,-161.5 475.5,-138.5 266.5,-138.5"/>
<text text-anchor="middle" x="371" y="-146.3" font-family="Helvetica,sans-Serif" font-size="14.00">mfem::FiniteElementSpace</text>
</a>
</g>
</g>
<!-- Node3&#45;&gt;Node7 -->
<g id="edge8" class="edge"><title>Node3&#45;&gt;Node7</title>
<path fill="none" stroke="#9a32cd" stroke-dasharray="5,2" d="M143.19,-163.053C146.162,-162.673 149.107,-162.32 152,-162 189.204,-157.888 230.144,-155.163 266.401,-153.367"/>
<polygon fill="#9a32cd" stroke="#9a32cd" points="142.457,-159.62 133.02,-164.437 143.401,-166.557 142.457,-159.62"/>
<text text-anchor="middle" x="200" y="-165.8" font-family="Helvetica,sans-Serif" font-size="14.00"> T</text>
</g>
<!-- Node4 -->
<g id="node4" class="node"><title>Node4</title>
<g id="a_node4"><a xlink:href="classmfem_1_1ParDiscreteLinearOperator.html" target="_top" xlink:title="mfem::ParDiscreteLinearOperator">
<polygon fill="white" stroke="black" points="1236,-131.5 1236,-154.5 1496,-154.5 1496,-131.5 1236,-131.5"/>
<text text-anchor="middle" x="1366" y="-139.3" font-family="Helvetica,sans-Serif" font-size="14.00">mfem::ParDiscreteLinearOperator</text>
</a>
</g>
</g>
<!-- Node4&#45;&gt;Node1 -->
<g id="edge3" class="edge"><title>Node4&#45;&gt;Node1</title>
<path fill="none" stroke="#9a32cd" stroke-dasharray="5,2" d="M1506.48,-155.205C1529.67,-157.233 1553.43,-159.313 1575.8,-161.27"/>
<polygon fill="#9a32cd" stroke="#9a32cd" points="1506.5,-151.693 1496.23,-154.308 1505.89,-158.666 1506.5,-151.693"/>
<text text-anchor="middle" x="1536" y="-163.8" font-family="Helvetica,sans-Serif" font-size="14.00"> pdlo_</text>
</g>
<!-- Node5 -->
<g id="node5" class="node"><title>Node5</title>
<g id="a_node5"><a xlink:href="classmfem_1_1DiscreteLinearOperator.html" target="_top" xlink:title="mfem::DiscreteLinearOperator">
<polygon fill="white" stroke="black" points="960.5,-131.5 960.5,-154.5 1197.5,-154.5 1197.5,-131.5 960.5,-131.5"/>
<text text-anchor="middle" x="1079" y="-139.3" font-family="Helvetica,sans-Serif" font-size="14.00">mfem::DiscreteLinearOperator</text>
</a>
</g>
</g>
<!-- Node5&#45;&gt;Node4 -->
<g id="edge4" class="edge"><title>Node5&#45;&gt;Node4</title>
<path fill="none" stroke="midnightblue" d="M1207.63,-143C1216.95,-143 1226.35,-143 1235.68,-143"/>
<polygon fill="midnightblue" stroke="midnightblue" points="1207.57,-139.5 1197.57,-143 1207.57,-146.5 1207.57,-139.5"/>
</g>
<!-- Node6 -->
<g id="node6" class="node"><title>Node6</title>
<g id="a_node6"><a xlink:href="classmfem_1_1MixedBilinearForm.html" target="_top" xlink:title="mfem::MixedBilinearForm">
<polygon fill="white" stroke="red" points="706,-131.5 706,-154.5 906,-154.5 906,-131.5 706,-131.5"/>
<text text-anchor="middle" x="806" y="-139.3" font-family="Helvetica,sans-Serif" font-size="14.00">mfem::MixedBilinearForm</text>
</a>
</g>
</g>
<!-- Node6&#45;&gt;Node5 -->
<g id="edge5" class="edge"><title>Node6&#45;&gt;Node5</title>
<path fill="none" stroke="midnightblue" d="M916.729,-143C931.063,-143 945.797,-143 960.256,-143"/>
<polygon fill="midnightblue" stroke="midnightblue" points="916.372,-139.5 906.372,-143 916.372,-146.5 916.372,-139.5"/>
</g>
<!-- Node7&#45;&gt;Node6 -->
<g id="edge6" class="edge"><title>Node7&#45;&gt;Node6</title>
<path fill="none" stroke="#9a32cd" stroke-dasharray="5,2" d="M485.83,-140.37C488.579,-140.234 491.306,-140.11 494,-140 564.81,-137.103 644.76,-137.965 705.866,-139.493"/>
<polygon fill="#9a32cd" stroke="#9a32cd" points="485.59,-136.878 475.793,-140.912 485.967,-143.868 485.59,-136.878"/>
<text text-anchor="middle" x="583" y="-158.8" font-family="Helvetica,sans-Serif" font-size="14.00"> trial_fes</text>
<text text-anchor="middle" x="583" y="-143.8" font-family="Helvetica,sans-Serif" font-size="14.00">test_fes</text>
</g>
<!-- Node9 -->
<g id="node9" class="node"><title>Node9</title>
<g id="a_node9"><a xlink:href="classmfem_1_1ParFiniteElementSpace.html" target="_top" xlink:title="Abstract parallel finite element space. ">
<polygon fill="white" stroke="black" points="690,-65.5 690,-88.5 922,-88.5 922,-65.5 690,-65.5"/>
<text text-anchor="middle" x="806" y="-73.3" font-family="Helvetica,sans-Serif" font-size="14.00">mfem::ParFiniteElementSpace</text>
</a>
</g>
</g>
<!-- Node7&#45;&gt;Node9 -->
<g id="edge10" class="edge"><title>Node7&#45;&gt;Node9</title>
<path fill="none" stroke="midnightblue" d="M450.597,-136.749C532.34,-122.968 659.014,-101.612 736.711,-88.5129"/>
<polygon fill="midnightblue" stroke="midnightblue" points="449.889,-133.319 440.61,-138.433 451.053,-140.222 449.889,-133.319"/>
</g>
<!-- Node8 -->
<g id="node8" class="node"><title>Node8</title>
<g id="a_node8"><a xlink:href="classmfem_1_1Table.html" target="_top" xlink:title="mfem::Table">
<polygon fill="white" stroke="black" points="14,-80.5 14,-103.5 120,-103.5 120,-80.5 14,-80.5"/>
<text text-anchor="middle" x="67" y="-88.3" font-family="Helvetica,sans-Serif" font-size="14.00">mfem::Table</text>
</a>
</g>
</g>
<!-- Node8&#45;&gt;Node7 -->
<g id="edge7" class="edge"><title>Node8&#45;&gt;Node7</title>
<path fill="none" stroke="#9a32cd" stroke-dasharray="5,2" d="M130.18,-100.864C164.949,-106.109 209.009,-113.236 248,-121 273.622,-126.102 302.03,-132.793 324.982,-138.462"/>
<polygon fill="#9a32cd" stroke="#9a32cd" points="130.576,-97.3846 120.169,-99.3669 129.541,-104.308 130.576,-97.3846"/>
<text text-anchor="middle" x="200" y="-139.8" font-family="Helvetica,sans-Serif" font-size="14.00"> bdrElem_dof</text>
<text text-anchor="middle" x="200" y="-124.8" font-family="Helvetica,sans-Serif" font-size="14.00">elem_dof</text>
</g>
<!-- Node8&#45;&gt;Node9 -->
<g id="edge12" class="edge"><title>Node8&#45;&gt;Node9</title>
<path fill="none" stroke="#9a32cd" stroke-dasharray="5,2" d="M130.243,-89.0477C169.235,-87.3067 220.54,-85.2134 266,-84 412.173,-80.0986 580.706,-78.3519 689.849,-77.5831"/>
<polygon fill="#9a32cd" stroke="#9a32cd" points="129.929,-85.5581 120.097,-89.5051 130.245,-92.551 129.929,-85.5581"/>
<text text-anchor="middle" x="371" y="-117.8" font-family="Helvetica,sans-Serif" font-size="14.00"> face_nbr_ldof</text>
<text text-anchor="middle" x="371" y="-102.8" font-family="Helvetica,sans-Serif" font-size="14.00">send_face_nbr_ldof</text>
<text text-anchor="middle" x="371" y="-87.8" font-family="Helvetica,sans-Serif" font-size="14.00">face_nbr_element_dof</text>
</g>
<!-- Node9&#45;&gt;Node4 -->
<g id="edge9" class="edge"><title>Node9&#45;&gt;Node4</title>
<path fill="none" stroke="#9a32cd" stroke-dasharray="5,2" d="M932.245,-73.6332C1009.38,-73.5756 1110.02,-77.1352 1198,-92 1247.32,-100.333 1302.44,-119.11 1335.39,-131.407"/>
<polygon fill="#9a32cd" stroke="#9a32cd" points="931.99,-70.1338 922,-73.6621 932.01,-77.1338 931.99,-70.1338"/>
<text text-anchor="middle" x="1079" y="-110.8" font-family="Helvetica,sans-Serif" font-size="14.00"> range_fes</text>
<text text-anchor="middle" x="1079" y="-95.8" font-family="Helvetica,sans-Serif" font-size="14.00">domain_fes</text>
</g>
<!-- Node10 -->
<g id="node10" class="node"><title>Node10</title>
<g id="a_node10"><a xlink:href="classmfem_1_1Array.html" target="_top" xlink:title="mfem::Array\&lt; HYPRE\l_Int \&gt;">
<polygon fill="white" stroke="red" points="286,-0 286,-38 456,-38 456,-0 286,-0"/>
<text text-anchor="start" x="294" y="-22.8" font-family="Helvetica,sans-Serif" font-size="14.00">mfem::Array&lt; HYPRE</text>
<text text-anchor="middle" x="371" y="-7.8" font-family="Helvetica,sans-Serif" font-size="14.00">_Int &gt;</text>
</a>
</g>
</g>
<!-- Node10&#45;&gt;Node9 -->
<g id="edge11" class="edge"><title>Node10&#45;&gt;Node9</title>
<path fill="none" stroke="#9a32cd" stroke-dasharray="5,2" d="M466.221,-24.1035C525.534,-28.149 603.547,-34.997 672,-46 702.548,-50.9103 736.513,-58.8701 762.473,-65.4943"/>
<polygon fill="#9a32cd" stroke="#9a32cd" points="466.332,-20.6031 456.121,-23.4292 465.865,-27.5876 466.332,-20.6031"/>
<text text-anchor="middle" x="583" y="-49.8" font-family="Helvetica,sans-Serif" font-size="14.00"> face_nbr_glob_dof_map</text>
</g>
</g>
</svg>
