<?xml version="1.0" encoding="UTF-8" standalone="no"?>
<!DOCTYPE svg PUBLIC "-//W3C//DTD SVG 1.1//EN"
 "http://www.w3.org/Graphics/SVG/1.1/DTD/svg11.dtd">
<!-- Generated by graphviz version 2.30.1 (20200304.1809)
 -->
<!-- Title: mfem::NCMesh Pages: 1 -->
<svg width="854pt" height="465pt"
 viewBox="0.00 0.00 854.00 465.49" xmlns="http://www.w3.org/2000/svg" xmlns:xlink="http://www.w3.org/1999/xlink">
<g id="graph0" class="graph" transform="scale(1 1) rotate(0) translate(4 461.491)">
<title>mfem::NCMesh</title>
<polygon fill="white" stroke="white" points="-4,5 -4,-461.491 851,-461.491 851,5 -4,5"/>
<!-- Node1 -->
<g id="node1" class="node"><title>Node1</title>
<polygon fill="#bfbfbf" stroke="black" points="720,-223.991 720,-246.991 846,-246.991 846,-223.991 720,-223.991"/>
<text text-anchor="middle" x="783" y="-231.791" font-family="Helvetica,sans-Serif" font-size="14.00">mfem::NCMesh</text>
</g>
<!-- Node2 -->
<g id="node2" class="node"><title>Node2</title>
<g id="a_node2"><a xlink:href="classmfem_1_1Array.html" target="_top" xlink:title="mfem::Array\&lt; mfem::\lNCMesh::Face * \&gt;">
<polygon fill="white" stroke="red" points="336,-414.491 336,-452.491 512,-452.491 512,-414.491 336,-414.491"/>
<text text-anchor="start" x="344" y="-437.291" font-family="Helvetica,sans-Serif" font-size="14.00">mfem::Array&lt; mfem::</text>
<text text-anchor="middle" x="424" y="-422.291" font-family="Helvetica,sans-Serif" font-size="14.00">NCMesh::Face * &gt;</text>
</a>
</g>
</g>
<!-- Node2&#45;&gt;Node1 -->
<g id="edge1" class="edge"><title>Node2&#45;&gt;Node1</title>
<path fill="none" stroke="#9a32cd" stroke-dasharray="5,2" d="M522.433,-444.819C579.633,-446.4 650.553,-439.045 702,-402.491 756.248,-363.947 775.073,-278.547 780.292,-247.267"/>
<polygon fill="#9a32cd" stroke="#9a32cd" points="522.409,-441.316 512.286,-444.442 522.149,-448.311 522.409,-441.316"/>
<text text-anchor="middle" x="638" y="-446.291" font-family="Helvetica,sans-Serif" font-size="14.00"> boundary_faces</text>
</g>
<!-- Node3 -->
<g id="node3" class="node"><title>Node3</title>
<g id="a_node3"><a xlink:href="classmfem_1_1Array.html" target="_top" xlink:title="mfem::Array\&lt; int \&gt;">
<polygon fill="white" stroke="red" points="345,-371.991 345,-394.991 503,-394.991 503,-371.991 345,-371.991"/>
<text text-anchor="middle" x="424" y="-379.791" font-family="Helvetica,sans-Serif" font-size="14.00">mfem::Array&lt; int &gt;</text>
</a>
</g>
</g>
<!-- Node3&#45;&gt;Node1 -->
<g id="edge2" class="edge"><title>Node3&#45;&gt;Node1</title>
<path fill="none" stroke="#9a32cd" stroke-dasharray="5,2" d="M513.388,-388.61C570.885,-387.971 645.415,-379.346 702,-345.491 741.514,-321.85 767.248,-270.401 777.269,-247.225"/>
<polygon fill="#9a32cd" stroke="#9a32cd" points="513.212,-385.11 503.223,-388.642 513.235,-392.11 513.212,-385.11"/>
<text text-anchor="middle" x="638" y="-387.291" font-family="Helvetica,sans-Serif" font-size="14.00"> vertex_nodeId</text>
</g>
<!-- Node4 -->
<g id="node4" class="node"><title>Node4</title>
<g id="a_node4"><a xlink:href="classmfem_1_1HashTable.html" target="_top" xlink:title="mfem::HashTable\&lt; mfem\l::NCMesh::Node \&gt;">
<polygon fill="white" stroke="red" points="323.5,-314.491 323.5,-352.491 524.5,-352.491 524.5,-314.491 323.5,-314.491"/>
<text text-anchor="start" x="331.5" y="-337.291" font-family="Helvetica,sans-Serif" font-size="14.00">mfem::HashTable&lt; mfem</text>
<text text-anchor="middle" x="424" y="-322.291" font-family="Helvetica,sans-Serif" font-size="14.00">::NCMesh::Node &gt;</text>
</a>
</g>
</g>
<!-- Node4&#45;&gt;Node1 -->
<g id="edge3" class="edge"><title>Node4&#45;&gt;Node1</title>
<path fill="none" stroke="#9a32cd" stroke-dasharray="5,2" d="M534.521,-330.504C586.806,-325.997 649.307,-316.007 702,-294.491 729.321,-283.335 755.837,-260.758 770.434,-246.996"/>
<polygon fill="#9a32cd" stroke="#9a32cd" points="534.23,-327.016 524.544,-331.309 534.793,-333.993 534.23,-327.016"/>
<text text-anchor="middle" x="638" y="-330.291" font-family="Helvetica,sans-Serif" font-size="14.00"> nodes</text>
</g>
<!-- Node5 -->
<g id="node5" class="node"><title>Node5</title>
<g id="a_node5"><a xlink:href="classmfem_1_1Array.html" target="_top" xlink:title="mfem::Array\&lt; mfem::\lNCMesh::Node * \&gt;">
<polygon fill="white" stroke="red" points="0,-282.491 0,-320.491 176,-320.491 176,-282.491 0,-282.491"/>
<text text-anchor="start" x="8" y="-305.291" font-family="Helvetica,sans-Serif" font-size="14.00">mfem::Array&lt; mfem::</text>
<text text-anchor="middle" x="88" y="-290.291" font-family="Helvetica,sans-Serif" font-size="14.00">NCMesh::Node * &gt;</text>
</a>
</g>
</g>
<!-- Node5&#45;&gt;Node4 -->
<g id="edge4" class="edge"><title>Node5&#45;&gt;Node4</title>
<path fill="none" stroke="#9a32cd" stroke-dasharray="5,2" d="M186.505,-310.833C229.491,-314.951 279.953,-319.786 323.2,-323.929"/>
<polygon fill="#9a32cd" stroke="#9a32cd" points="186.607,-307.327 176.318,-309.857 185.939,-314.295 186.607,-307.327"/>
<text text-anchor="middle" x="234" y="-322.291" font-family="Helvetica,sans-Serif" font-size="14.00"> id_to_item</text>
</g>
<!-- Node5&#45;&gt;Node1 -->
<g id="edge6" class="edge"><title>Node5&#45;&gt;Node1</title>
<path fill="none" stroke="#9a32cd" stroke-dasharray="5,2" d="M186.61,-295.878C333.773,-287.096 605.514,-269.553 702,-254.491 714.13,-252.598 727.138,-249.832 739.066,-246.994"/>
<polygon fill="#9a32cd" stroke="#9a32cd" points="186.008,-292.407 176.234,-296.495 186.424,-299.395 186.008,-292.407"/>
<text text-anchor="middle" x="424" y="-293.291" font-family="Helvetica,sans-Serif" font-size="14.00"> boundary_edges</text>
</g>
<!-- Node6 -->
<g id="node6" class="node"><title>Node6</title>
<g id="a_node6"><a xlink:href="structmfem_1_1CoarseFineTransformations.html" target="_top" xlink:title="Defines the coarse&#45;fine transformations of all fine elements. ">
<polygon fill="white" stroke="red" points="292,-220.991 292,-243.991 556,-243.991 556,-220.991 292,-220.991"/>
<text text-anchor="middle" x="424" y="-228.791" font-family="Helvetica,sans-Serif" font-size="14.00">mfem::CoarseFineTransformations</text>
</a>
</g>
</g>
<!-- Node6&#45;&gt;Node1 -->
<g id="edge5" class="edge"><title>Node6&#45;&gt;Node1</title>
<path fill="none" stroke="#9a32cd" stroke-dasharray="5,2" d="M566.38,-233.679C619.565,-234.126 677.349,-234.612 719.7,-234.968"/>
<polygon fill="#9a32cd" stroke="#9a32cd" points="566.189,-230.178 556.16,-233.593 566.13,-237.177 566.189,-230.178"/>
<text text-anchor="middle" x="638" y="-239.291" font-family="Helvetica,sans-Serif" font-size="14.00"> transforms</text>
</g>
<!-- Node7 -->
<g id="node7" class="node"><title>Node7</title>
<g id="a_node7"><a xlink:href="structmfem_1_1NCMesh_1_1GeomInfo.html" target="_top" xlink:title="mfem::NCMesh::GeomInfo">
<polygon fill="white" stroke="black" points="321,-178.991 321,-201.991 527,-201.991 527,-178.991 321,-178.991"/>
<text text-anchor="middle" x="424" y="-186.791" font-family="Helvetica,sans-Serif" font-size="14.00">mfem::NCMesh::GeomInfo</text>
</a>
</g>
</g>
<!-- Node7&#45;&gt;Node1 -->
<g id="edge7" class="edge"><title>Node7&#45;&gt;Node1</title>
<path fill="none" stroke="#9a32cd" stroke-dasharray="5,2" d="M537.101,-196.643C587.709,-200.437 648.104,-206.379 702,-215.491 714.846,-217.663 728.667,-220.818 741.148,-223.983"/>
<polygon fill="#9a32cd" stroke="#9a32cd" points="537.344,-193.152 527.115,-195.913 536.833,-200.133 537.344,-193.152"/>
<text text-anchor="middle" x="638" y="-219.291" font-family="Helvetica,sans-Serif" font-size="14.00"> GI</text>
</g>
<!-- Node8 -->
<g id="node8" class="node"><title>Node8</title>
<g id="a_node8"><a xlink:href="classmfem_1_1Array.html" target="_top" xlink:title="mfem::Array\&lt; mfem::\lNCMesh::Element * \&gt;">
<polygon fill="white" stroke="red" points="336,-114.491 336,-152.491 512,-152.491 512,-114.491 336,-114.491"/>
<text text-anchor="start" x="344" y="-137.291" font-family="Helvetica,sans-Serif" font-size="14.00">mfem::Array&lt; mfem::</text>
<text text-anchor="middle" x="424" y="-122.291" font-family="Helvetica,sans-Serif" font-size="14.00">NCMesh::Element * &gt;</text>
</a>
</g>
</g>
<!-- Node8&#45;&gt;Node1 -->
<g id="edge8" class="edge"><title>Node8&#45;&gt;Node1</title>
<path fill="none" stroke="#9a32cd" stroke-dasharray="5,2" d="M522.16,-122.876C577.346,-120.897 646.312,-125.455 702,-151.491 736.115,-167.441 763.077,-204.91 775.133,-223.95"/>
<polygon fill="#9a32cd" stroke="#9a32cd" points="521.86,-119.386 512.022,-123.318 522.165,-126.379 521.86,-119.386"/>
<text text-anchor="middle" x="638" y="-185.291" font-family="Helvetica,sans-Serif" font-size="14.00"> coarse_elements</text>
<text text-anchor="middle" x="638" y="-170.291" font-family="Helvetica,sans-Serif" font-size="14.00">leaf_elements</text>
<text text-anchor="middle" x="638" y="-155.291" font-family="Helvetica,sans-Serif" font-size="14.00">root_elements</text>
</g>
<!-- Node9 -->
<g id="node9" class="node"><title>Node9</title>
<g id="a_node9"><a xlink:href="classmfem_1_1Array.html" target="_top" xlink:title="mfem::Array\&lt; mfem::\lNCMesh::ElemRefType \&gt;">
<polygon fill="white" stroke="red" points="328,-57.4911 328,-95.4911 520,-95.4911 520,-57.4911 328,-57.4911"/>
<text text-anchor="start" x="336" y="-80.2911" font-family="Helvetica,sans-Serif" font-size="14.00">mfem::Array&lt; mfem::</text>
<text text-anchor="middle" x="424" y="-65.2911" font-family="Helvetica,sans-Serif" font-size="14.00">NCMesh::ElemRefType &gt;</text>
</a>
</g>
</g>
<!-- Node9&#45;&gt;Node1 -->
<g id="edge9" class="edge"><title>Node9&#45;&gt;Node1</title>
<path fill="none" stroke="#9a32cd" stroke-dasharray="5,2" d="M530.432,-65.6765C585.422,-65.0867 651.548,-72.7444 702,-104.491 747.335,-133.018 770.798,-197.506 778.787,-223.9"/>
<polygon fill="#9a32cd" stroke="#9a32cd" points="530.228,-62.1798 520.3,-65.8787 530.368,-69.1784 530.228,-62.1798"/>
<text text-anchor="middle" x="638" y="-108.291" font-family="Helvetica,sans-Serif" font-size="14.00"> ref_stack</text>
</g>
<!-- Node10 -->
<g id="node10" class="node"><title>Node10</title>
<g id="a_node10"><a xlink:href="classmfem_1_1Table.html" target="_top" xlink:title="mfem::Table">
<polygon fill="white" stroke="black" points="371,-13.9911 371,-36.9911 477,-36.9911 477,-13.9911 371,-13.9911"/>
<text text-anchor="middle" x="424" y="-21.7911" font-family="Helvetica,sans-Serif" font-size="14.00">mfem::Table</text>
</a>
</g>
</g>
<!-- Node10&#45;&gt;Node1 -->
<g id="edge10" class="edge"><title>Node10&#45;&gt;Node1</title>
<path fill="none" stroke="#9a32cd" stroke-dasharray="5,2" d="M476.453,-11.6511C536.359,1.2286 635.558,12.1689 702,-34.4911 767.161,-80.2511 779.262,-188.065 781.497,-223.774"/>
<polygon fill="#9a32cd" stroke="#9a32cd" points="475.454,-8.28824 466.464,-13.8952 476.988,-15.118 475.454,-8.28824"/>
<text text-anchor="middle" x="638" y="-53.2911" font-family="Helvetica,sans-Serif" font-size="14.00"> element_vertex</text>
<text text-anchor="middle" x="638" y="-38.2911" font-family="Helvetica,sans-Serif" font-size="14.00">derefinements</text>
</g>
</g>
</svg>
