<?xml version="1.0" encoding="UTF-8" standalone="no"?>
<!DOCTYPE svg PUBLIC "-//W3C//DTD SVG 1.1//EN"
 "http://www.w3.org/Graphics/SVG/1.1/DTD/svg11.dtd">
<!-- Generated by graphviz version 2.30.1 (20200304.1809)
 -->
<!-- Title: mfem::FaceElementTransformations Pages: 1 -->
<svg width="432pt" height="366pt"
 viewBox="0.00 0.00 432.00 366.00" xmlns="http://www.w3.org/2000/svg" xmlns:xlink="http://www.w3.org/1999/xlink">
<g id="graph0" class="graph" transform="scale(1 1) rotate(0) translate(4 362)">
<title>mfem::FaceElementTransformations</title>
<polygon fill="white" stroke="white" points="-4,5 -4,-362 429,-362 429,5 -4,5"/>
<!-- Node1 -->
<g id="node1" class="node"><title>Node1</title>
<polygon fill="#bfbfbf" stroke="black" points="19,-0.5 19,-23.5 295,-23.5 295,-0.5 19,-0.5"/>
<text text-anchor="middle" x="157" y="-8.3" font-family="Helvetica,sans-Serif" font-size="14.00">mfem::FaceElementTransformations</text>
</g>
<!-- Node2 -->
<g id="node2" class="node"><title>Node2</title>
<g id="a_node2"><a xlink:href="classmfem_1_1ElementTransformation.html" target="_top" xlink:title="mfem::ElementTransformation">
<polygon fill="white" stroke="black" points="0,-258.5 0,-281.5 236,-281.5 236,-258.5 0,-258.5"/>
<text text-anchor="middle" x="118" y="-266.3" font-family="Helvetica,sans-Serif" font-size="14.00">mfem::ElementTransformation</text>
</a>
</g>
</g>
<!-- Node2&#45;&gt;Node1 -->
<g id="edge1" class="edge"><title>Node2&#45;&gt;Node1</title>
<path fill="none" stroke="#9a32cd" stroke-dasharray="5,2" d="M116.467,-248.341C114.491,-214.707 112.637,-146.216 125,-90 130.473,-65.116 143.545,-38.053 151.181,-23.5687"/>
<polygon fill="#9a32cd" stroke="#9a32cd" points="112.976,-248.593 117.122,-258.343 119.961,-248.136 112.976,-248.593"/>
<text text-anchor="middle" x="144" y="-166.3" font-family="Helvetica,sans-Serif" font-size="14.00"> Elem1</text>
<text text-anchor="middle" x="144" y="-151.3" font-family="Helvetica,sans-Serif" font-size="14.00">Elem2</text>
<text text-anchor="middle" x="144" y="-136.3" font-family="Helvetica,sans-Serif" font-size="14.00">Face</text>
</g>
<!-- Node5 -->
<g id="node5" class="node"><title>Node5</title>
<g id="a_node5"><a xlink:href="classmfem_1_1IsoparametricTransformation.html" target="_top" xlink:title="mfem::IsoparametricTransformation">
<polygon fill="white" stroke="black" points="137.5,-196.5 137.5,-219.5 414.5,-219.5 414.5,-196.5 137.5,-196.5"/>
<text text-anchor="middle" x="276" y="-204.3" font-family="Helvetica,sans-Serif" font-size="14.00">mfem::IsoparametricTransformation</text>
</a>
</g>
</g>
<!-- Node2&#45;&gt;Node5 -->
<g id="edge5" class="edge"><title>Node2&#45;&gt;Node5</title>
<path fill="none" stroke="midnightblue" d="M155.486,-254.765C183.921,-243.967 222.379,-229.362 248.13,-219.584"/>
<polygon fill="midnightblue" stroke="midnightblue" points="153.99,-251.589 145.884,-258.411 156.475,-258.133 153.99,-251.589"/>
</g>
<!-- Node3 -->
<g id="node3" class="node"><title>Node3</title>
<g id="a_node3"><a xlink:href="classmfem_1_1IntegrationPoint.html" target="_top" xlink:title="Class for integration point with weight. ">
<polygon fill="white" stroke="black" points="27,-334.5 27,-357.5 209,-357.5 209,-334.5 27,-334.5"/>
<text text-anchor="middle" x="118" y="-342.3" font-family="Helvetica,sans-Serif" font-size="14.00">mfem::IntegrationPoint</text>
</a>
</g>
</g>
<!-- Node3&#45;&gt;Node2 -->
<g id="edge2" class="edge"><title>Node3&#45;&gt;Node2</title>
<path fill="none" stroke="#9a32cd" stroke-dasharray="5,2" d="M118,-324.277C118,-310.387 118,-292.675 118,-281.583"/>
<polygon fill="#9a32cd" stroke="#9a32cd" points="114.5,-324.398 118,-334.398 121.5,-324.398 114.5,-324.398"/>
<text text-anchor="middle" x="147" y="-304.3" font-family="Helvetica,sans-Serif" font-size="14.00"> IntPoint</text>
</g>
<!-- Node4 -->
<g id="node4" class="node"><title>Node4</title>
<g id="a_node4"><a xlink:href="classmfem_1_1IntegrationPointTransformation.html" target="_top" xlink:title="mfem::IntegrationPointTransformation">
<polygon fill="white" stroke="black" points="134,-90.5 134,-113.5 424,-113.5 424,-90.5 134,-90.5"/>
<text text-anchor="middle" x="279" y="-98.3" font-family="Helvetica,sans-Serif" font-size="14.00">mfem::IntegrationPointTransformation</text>
</a>
</g>
</g>
<!-- Node4&#45;&gt;Node1 -->
<g id="edge3" class="edge"><title>Node4&#45;&gt;Node1</title>
<path fill="none" stroke="#9a32cd" stroke-dasharray="5,2" d="M255.913,-84.3471C231.163,-66.4948 192.616,-38.6901 171.701,-23.6039"/>
<polygon fill="#9a32cd" stroke="#9a32cd" points="253.883,-87.198 264.04,-90.2095 257.978,-81.5208 253.883,-87.198"/>
<text text-anchor="middle" x="255.5" y="-60.8" font-family="Helvetica,sans-Serif" font-size="14.00"> Loc1</text>
<text text-anchor="middle" x="255.5" y="-45.8" font-family="Helvetica,sans-Serif" font-size="14.00">Loc2</text>
</g>
<!-- Node5&#45;&gt;Node4 -->
<g id="edge4" class="edge"><title>Node5&#45;&gt;Node4</title>
<path fill="none" stroke="#9a32cd" stroke-dasharray="5,2" d="M276.606,-185.984C277.24,-164.019 278.208,-130.445 278.696,-113.525"/>
<polygon fill="#9a32cd" stroke="#9a32cd" points="273.1,-186.165 276.31,-196.262 280.097,-186.367 273.1,-186.165"/>
<text text-anchor="middle" x="302.5" y="-151.3" font-family="Helvetica,sans-Serif" font-size="14.00"> Transf</text>
</g>
</g>
</svg>
