<?xml version="1.0" encoding="UTF-8" standalone="no"?>
<!DOCTYPE svg PUBLIC "-//W3C//DTD SVG 1.1//EN"
 "http://www.w3.org/Graphics/SVG/1.1/DTD/svg11.dtd">
<!-- Generated by graphviz version 2.30.1 (20200304.1809)
 -->
<!-- Title: mfem::NeoHookeanModel Pages: 1 -->
<!--zoomable 290 -->
<svg id="main" version="1.1" xmlns="http://www.w3.org/2000/svg" xmlns:xlink="http://www.w3.org/1999/xlink" xml:space="preserve" onload="init(evt)">
<style type="text/css"><![CDATA[
.edge:hover path { stroke: red; }
.edge:hover polygon { stroke: red; fill: red; }
]]></style>
<script type="text/javascript"><![CDATA[
var edges = document.getElementsByTagName('g');
if (edges && edges.length) {
  for (var i=0;i<edges.length;i++) {
    if (edges[i].id.substr(0,4)=='edge') {
      edges[i].setAttribute('class','edge');
    }
  }
}
]]></script>
        <defs>
                <circle id="rim" cx="0" cy="0" r="7"/>
                <circle id="rim2" cx="0" cy="0" r="3.5"/>
                <g id="zoomPlus">
                        <use xlink:href="#rim" fill="#404040">
                                <set attributeName="fill" to="#808080" begin="zoomplus.mouseover" end="zoomplus.mouseout"/>
                        </use>
                        <path d="M-4,0h8M0,-4v8" fill="none" stroke="white" stroke-width="1.5" pointer-events="none"/>
                </g>
                <g id="zoomMin">
                        <use xlink:href="#rim" fill="#404040">
                                <set attributeName="fill" to="#808080" begin="zoomminus.mouseover" end="zoomminus.mouseout"/>
                        </use>
                        <path d="M-4,0h8" fill="none" stroke="white" stroke-width="1.5" pointer-events="none"/>
                </g>
                <g id="dirArrow">
                        <path fill="none" stroke="white" stroke-width="1.5" d="M0,-3.0v7 M-2.5,-0.5L0,-3.0L2.5,-0.5"/>
                </g>
               <g id="resetDef">
                       <use xlink:href="#rim2" fill="#404040">
                               <set attributeName="fill" to="#808080" begin="reset.mouseover" end="reset.mouseout"/>
                       </use>
               </g>
        </defs>

<script type="text/javascript">
var viewWidth = 564;
var viewHeight = 290;
var sectionId = 'dynsection-1';
</script>
<script xlink:href="svgpan.js"/>
<svg id="graph" class="graph">
<g id="viewport">
<title>mfem::NeoHookeanModel</title>
<polygon fill="white" stroke="white" points="-4,5 -4,-286 561,-286 561,5 -4,5"/>
<!-- Node1 -->
<g id="node1" class="node"><title>Node1</title>
<polygon fill="#bfbfbf" stroke="black" points="213.5,-0.5 213.5,-23.5 416.5,-23.5 416.5,-0.5 213.5,-0.5"/>
<text text-anchor="middle" x="315" y="-8.3" font-family="Helvetica,sans-Serif" font-size="14.00">mfem::NeoHookeanModel</text>
</g>
<!-- Node2 -->
<g id="node2" class="node"><title>Node2</title>
<g id="a_node2"><a xlink:href="classmfem_1_1HyperelasticModel.html" target="_top" xlink:title="Abstract class for hyperelastic models. ">
<polygon fill="white" stroke="black" points="18,-106.5 18,-129.5 218,-129.5 218,-106.5 18,-106.5"/>
<text text-anchor="middle" x="118" y="-114.3" font-family="Helvetica,sans-Serif" font-size="14.00">mfem::HyperelasticModel</text>
</a>
</g>
</g>
<!-- Node2&#45;&gt;Node1 -->
<g id="edge1" class="edge"><title>Node2&#45;&gt;Node1</title>
<path fill="none" stroke="midnightblue" d="M147.067,-101.655C187.58,-80.2672 259.98,-42.046 294.974,-23.5723"/>
<polygon fill="midnightblue" stroke="midnightblue" points="145.183,-98.6918 137.974,-106.456 148.451,-104.882 145.183,-98.6918"/>
</g>
<!-- Node3 -->
<g id="node3" class="node"><title>Node3</title>
<g id="a_node3"><a xlink:href="classmfem_1_1ElementTransformation.html" target="_top" xlink:title="mfem::ElementTransformation">
<polygon fill="white" stroke="black" points="0,-182.5 0,-205.5 236,-205.5 236,-182.5 0,-182.5"/>
<text text-anchor="middle" x="118" y="-190.3" font-family="Helvetica,sans-Serif" font-size="14.00">mfem::ElementTransformation</text>
</a>
</g>
</g>
<!-- Node3&#45;&gt;Node2 -->
<g id="edge2" class="edge"><title>Node3&#45;&gt;Node2</title>
<path fill="none" stroke="#9a32cd" stroke-dasharray="5,2" d="M118,-172.277C118,-158.387 118,-140.675 118,-129.583"/>
<polygon fill="#9a32cd" stroke="#9a32cd" points="114.5,-172.398 118,-182.398 121.5,-172.398 114.5,-172.398"/>
<text text-anchor="middle" x="125" y="-152.3" font-family="Helvetica,sans-Serif" font-size="14.00"> T</text>
</g>
<!-- Node4 -->
<g id="node4" class="node"><title>Node4</title>
<g id="a_node4"><a xlink:href="classmfem_1_1IntegrationPoint.html" target="_top" xlink:title="Class for integration point with weight. ">
<polygon fill="white" stroke="black" points="27,-258.5 27,-281.5 209,-281.5 209,-258.5 27,-258.5"/>
<text text-anchor="middle" x="118" y="-266.3" font-family="Helvetica,sans-Serif" font-size="14.00">mfem::IntegrationPoint</text>
</a>
</g>
</g>
<!-- Node4&#45;&gt;Node3 -->
<g id="edge3" class="edge"><title>Node4&#45;&gt;Node3</title>
<path fill="none" stroke="#9a32cd" stroke-dasharray="5,2" d="M118,-248.277C118,-234.387 118,-216.675 118,-205.583"/>
<polygon fill="#9a32cd" stroke="#9a32cd" points="114.5,-248.398 118,-258.398 121.5,-248.398 114.5,-248.398"/>
<text text-anchor="middle" x="147" y="-228.3" font-family="Helvetica,sans-Serif" font-size="14.00"> IntPoint</text>
</g>
<!-- Node5 -->
<g id="node5" class="node"><title>Node5</title>
<g id="a_node5"><a xlink:href="classmfem_1_1DenseMatrix.html" target="_top" xlink:title="Data type dense matrix using column&#45;major storage. ">
<polygon fill="white" stroke="black" points="236,-106.5 236,-129.5 394,-129.5 394,-106.5 236,-106.5"/>
<text text-anchor="middle" x="315" y="-114.3" font-family="Helvetica,sans-Serif" font-size="14.00">mfem::DenseMatrix</text>
</a>
</g>
</g>
<!-- Node5&#45;&gt;Node1 -->
<g id="edge4" class="edge"><title>Node5&#45;&gt;Node1</title>
<path fill="none" stroke="#9a32cd" stroke-dasharray="5,2" d="M315,-95.9835C315,-74.0186 315,-40.445 315,-23.5248"/>
<polygon fill="#9a32cd" stroke="#9a32cd" points="311.5,-96.2619 315,-106.262 318.5,-96.2619 311.5,-96.2619"/>
<text text-anchor="middle" x="323" y="-76.3" font-family="Helvetica,sans-Serif" font-size="14.00"> G</text>
<text text-anchor="middle" x="323" y="-61.3" font-family="Helvetica,sans-Serif" font-size="14.00">Z</text>
<text text-anchor="middle" x="323" y="-46.3" font-family="Helvetica,sans-Serif" font-size="14.00">C</text>
</g>
<!-- Node6 -->
<g id="node6" class="node"><title>Node6</title>
<g id="a_node6"><a xlink:href="classmfem_1_1Matrix.html" target="_top" xlink:title="Abstract data type matrix. ">
<polygon fill="white" stroke="black" points="258.5,-182.5 258.5,-205.5 371.5,-205.5 371.5,-182.5 258.5,-182.5"/>
<text text-anchor="middle" x="315" y="-190.3" font-family="Helvetica,sans-Serif" font-size="14.00">mfem::Matrix</text>
</a>
</g>
</g>
<!-- Node6&#45;&gt;Node5 -->
<g id="edge5" class="edge"><title>Node6&#45;&gt;Node5</title>
<path fill="none" stroke="midnightblue" d="M315,-172.277C315,-158.387 315,-140.675 315,-129.583"/>
<polygon fill="midnightblue" stroke="midnightblue" points="311.5,-172.398 315,-182.398 318.5,-172.398 311.5,-172.398"/>
</g>
<!-- Node7 -->
<g id="node7" class="node"><title>Node7</title>
<g id="a_node7"><a xlink:href="classmfem_1_1Operator.html" target="_top" xlink:title="Abstract operator. ">
<polygon fill="white" stroke="black" points="248.5,-258.5 248.5,-281.5 381.5,-281.5 381.5,-258.5 248.5,-258.5"/>
<text text-anchor="middle" x="315" y="-266.3" font-family="Helvetica,sans-Serif" font-size="14.00">mfem::Operator</text>
</a>
</g>
</g>
<!-- Node7&#45;&gt;Node6 -->
<g id="edge6" class="edge"><title>Node7&#45;&gt;Node6</title>
<path fill="none" stroke="midnightblue" d="M315,-248.277C315,-234.387 315,-216.675 315,-205.583"/>
<polygon fill="midnightblue" stroke="midnightblue" points="311.5,-248.398 315,-258.398 318.5,-248.398 311.5,-248.398"/>
</g>
<!-- Node8 -->
<g id="node8" class="node"><title>Node8</title>
<g id="a_node8"><a xlink:href="classmfem_1_1Coefficient.html" target="_top" xlink:title="Base class Coefficient that may optionally depend on time. ">
<polygon fill="white" stroke="black" points="412,-106.5 412,-129.5 556,-129.5 556,-106.5 412,-106.5"/>
<text text-anchor="middle" x="484" y="-114.3" font-family="Helvetica,sans-Serif" font-size="14.00">mfem::Coefficient</text>
</a>
</g>
</g>
<!-- Node8&#45;&gt;Node1 -->
<g id="edge7" class="edge"><title>Node8&#45;&gt;Node1</title>
<path fill="none" stroke="#9a32cd" stroke-dasharray="5,2" d="M458.179,-101.11C423.263,-79.6235 361.946,-41.8901 332.18,-23.5723"/>
<polygon fill="#9a32cd" stroke="#9a32cd" points="456.514,-104.195 466.865,-106.456 460.183,-98.2338 456.514,-104.195"/>
<text text-anchor="middle" x="456.5" y="-76.3" font-family="Helvetica,sans-Serif" font-size="14.00"> c_mu</text>
<text text-anchor="middle" x="456.5" y="-61.3" font-family="Helvetica,sans-Serif" font-size="14.00">c_g</text>
<text text-anchor="middle" x="456.5" y="-46.3" font-family="Helvetica,sans-Serif" font-size="14.00">c_K</text>
</g>
</g>
</svg>
        <g id="navigator" transform="translate(0 0)" fill="#404254">
                <rect fill="#f2f5e9" fill-opacity="0.5" stroke="#606060" stroke-width=".5" x="0" y="0" width="60" height="60"/>
                <use id="zoomplus" xlink:href="#zoomPlus" x="17" y="9" onmousedown="handleZoom(evt,'in')"/>
                <use id="zoomminus" xlink:href="#zoomMin" x="42" y="9" onmousedown="handleZoom(evt,'out')"/>
                <use id="reset" xlink:href="#resetDef" x="30" y="36" onmousedown="handleReset()"/>
                <g id="arrowUp" xlink:href="#dirArrow" transform="translate(30 24)" onmousedown="handlePan(0,-1)">
                  <use xlink:href="#rim" fill="#404040">
                        <set attributeName="fill" to="#808080" begin="arrowUp.mouseover" end="arrowUp.mouseout"/>
                  </use>
                  <path fill="none" stroke="white" stroke-width="1.5" d="M0,-3.0v7 M-2.5,-0.5L0,-3.0L2.5,-0.5"/>
                </g>
                <g id="arrowRight" xlink:href="#dirArrow" transform="rotate(90) translate(36 -43)" onmousedown="handlePan(1,0)">
                  <use xlink:href="#rim" fill="#404040">
                        <set attributeName="fill" to="#808080" begin="arrowRight.mouseover" end="arrowRight.mouseout"/>
                  </use>
                  <path fill="none" stroke="white" stroke-width="1.5" d="M0,-3.0v7 M-2.5,-0.5L0,-3.0L2.5,-0.5"/>
                </g>
                <g id="arrowDown" xlink:href="#dirArrow" transform="rotate(180) translate(-30 -48)" onmousedown="handlePan(0,1)">
                  <use xlink:href="#rim" fill="#404040">
                        <set attributeName="fill" to="#808080" begin="arrowDown.mouseover" end="arrowDown.mouseout"/>
                  </use>
                  <path fill="none" stroke="white" stroke-width="1.5" d="M0,-3.0v7 M-2.5,-0.5L0,-3.0L2.5,-0.5"/>
                </g>
                <g id="arrowLeft" xlink:href="#dirArrow" transform="rotate(270) translate(-36 17)" onmousedown="handlePan(-1,0)">
                  <use xlink:href="#rim" fill="#404040">
                        <set attributeName="fill" to="#808080" begin="arrowLeft.mouseover" end="arrowLeft.mouseout"/>
                  </use>
                  <path fill="none" stroke="white" stroke-width="1.5" d="M0,-3.0v7 M-2.5,-0.5L0,-3.0L2.5,-0.5"/>
                </g>
        </g>
        <svg viewBox="0 0 15 15" width="100%" height="30px" preserveAspectRatio="xMaxYMin meet">
         <g id="arrow_out" transform="scale(0.3 0.3)">
          <a xlink:href="classmfem_1_1NeoHookeanModel__coll__graph_org.svg" target="_base">
           <rect id="button" ry="5" rx="5" y="6" x="6" height="38" width="38"
                fill="#f2f5e9" fill-opacity="0.5" stroke="#606060" stroke-width="1.0"/>
           <path id="arrow"
             d="M 11.500037,31.436501 C 11.940474,20.09759 22.043105,11.32322 32.158766,21.979434 L 37.068811,17.246167 C 37.068811,17.246167 37.088388,32 37.088388,32 L 22.160133,31.978069 C 22.160133,31.978069 26.997745,27.140456 26.997745,27.140456 C 18.528582,18.264221 13.291696,25.230495 11.500037,31.436501 z"
             style="fill:#404040;"/>
          </a>
         </g>
        </svg>
</svg>
