<?xml version="1.0" encoding="UTF-8" standalone="no"?>
<!DOCTYPE svg PUBLIC "-//W3C//DTD SVG 1.1//EN"
 "http://www.w3.org/Graphics/SVG/1.1/DTD/svg11.dtd">
<!-- Generated by graphviz version 2.30.1 (20200304.1809)
 -->
<!-- Title: Graphical Class Hierarchy Pages: 1 -->
<svg width="1312pt" height="977pt"
 viewBox="0.00 0.00 1312.00 977.00" xmlns="http://www.w3.org/2000/svg" xmlns:xlink="http://www.w3.org/1999/xlink">
<g id="graph0" class="graph" transform="scale(1 1) rotate(0) translate(4 973)">
<title>Graphical Class Hierarchy</title>
<polygon fill="white" stroke="white" points="-4,5 -4,-973 1309,-973 1309,5 -4,5"/>
<!-- Node1 -->
<g id="node1" class="node"><title>Node1</title>
<g id="a_node1"><a xlink:href="classmfem_1_1Operator.html" target="_top" xlink:title="Abstract operator. ">
<polygon fill="white" stroke="black" points="0.5,-635.5 0.5,-658.5 133.5,-658.5 133.5,-635.5 0.5,-635.5"/>
<text text-anchor="middle" x="67" y="-643.3" font-family="Helvetica,sans-Serif" font-size="14.00">mfem::Operator</text>
</a>
</g>
</g>
<!-- Node2 -->
<g id="node2" class="node"><title>Node2</title>
<g id="a_node2"><a xlink:href="classmfem_1_1BlockOperator.html" target="_top" xlink:title="A class to handle Block systems in a matrix&#45;free implementation. ">
<polygon fill="white" stroke="black" points="211.5,-903.5 211.5,-926.5 382.5,-926.5 382.5,-903.5 211.5,-903.5"/>
<text text-anchor="middle" x="297" y="-911.3" font-family="Helvetica,sans-Serif" font-size="14.00">mfem::BlockOperator</text>
</a>
</g>
</g>
<!-- Node1&#45;&gt;Node2 -->
<g id="edge1" class="edge"><title>Node1&#45;&gt;Node2</title>
<path fill="none" stroke="midnightblue" d="M70.05,-668.707C75.8958,-717.503 97.2529,-836.11 170,-894 181.887,-903.459 196.433,-909.36 211.366,-912.929"/>
<polygon fill="midnightblue" stroke="midnightblue" points="73.5152,-668.197 68.9493,-658.636 66.5566,-668.957 73.5152,-668.197"/>
</g>
<!-- Node3 -->
<g id="node3" class="node"><title>Node3</title>
<g id="a_node3"><a xlink:href="classmfem_1_1HypreParMatrix.html" target="_top" xlink:title="Wrapper for hypre&#39;s ParCSR matrix class. ">
<polygon fill="white" stroke="black" points="208,-861.5 208,-884.5 386,-884.5 386,-861.5 208,-861.5"/>
<text text-anchor="middle" x="297" y="-869.3" font-family="Helvetica,sans-Serif" font-size="14.00">mfem::HypreParMatrix</text>
</a>
</g>
</g>
<!-- Node1&#45;&gt;Node3 -->
<g id="edge2" class="edge"><title>Node1&#45;&gt;Node3</title>
<path fill="none" stroke="midnightblue" d="M71.9975,-668.501C81.1175,-711.057 107.683,-805.88 170,-852 181.141,-860.245 194.352,-865.716 207.959,-869.276"/>
<polygon fill="midnightblue" stroke="midnightblue" points="75.4162,-667.749 70.0003,-658.643 68.5556,-669.139 75.4162,-667.749"/>
</g>
<!-- Node4 -->
<g id="node4" class="node"><title>Node4</title>
<g id="a_node4"><a xlink:href="classmfem_1_1IdentityOperator.html" target="_top" xlink:title="Operator I: x &#45;&gt; x. ">
<polygon fill="white" stroke="black" points="203.5,-819.5 203.5,-842.5 390.5,-842.5 390.5,-819.5 203.5,-819.5"/>
<text text-anchor="middle" x="297" y="-827.3" font-family="Helvetica,sans-Serif" font-size="14.00">mfem::IdentityOperator</text>
</a>
</g>
</g>
<!-- Node1&#45;&gt;Node4 -->
<g id="edge3" class="edge"><title>Node1&#45;&gt;Node4</title>
<path fill="none" stroke="midnightblue" d="M74.9821,-668.769C87.6842,-704.586 118.159,-775.41 170,-810 180.054,-816.708 191.537,-821.512 203.387,-824.918"/>
<polygon fill="midnightblue" stroke="midnightblue" points="78.1433,-667.195 71.6066,-658.857 71.517,-669.451 78.1433,-667.195"/>
</g>
<!-- Node5 -->
<g id="node5" class="node"><title>Node5</title>
<g id="a_node5"><a xlink:href="classmfem_1_1Matrix.html" target="_top" xlink:title="Abstract data type matrix. ">
<polygon fill="white" stroke="black" points="240.5,-777.5 240.5,-800.5 353.5,-800.5 353.5,-777.5 240.5,-777.5"/>
<text text-anchor="middle" x="297" y="-785.3" font-family="Helvetica,sans-Serif" font-size="14.00">mfem::Matrix</text>
</a>
</g>
</g>
<!-- Node1&#45;&gt;Node5 -->
<g id="edge4" class="edge"><title>Node1&#45;&gt;Node5</title>
<path fill="none" stroke="midnightblue" d="M79.1117,-667.31C95.2688,-694.74 127.963,-742.955 170,-767 191.203,-779.128 217.448,-784.896 240.488,-787.529"/>
<polygon fill="midnightblue" stroke="midnightblue" points="82.1025,-665.49 74.0981,-658.549 76.0268,-668.966 82.1025,-665.49"/>
</g>
<!-- Node16 -->
<g id="node16" class="node"><title>Node16</title>
<g id="a_node16"><a xlink:href="classmfem_1_1miniapps_1_1IrrotationalProjector.html" target="_top" xlink:title="mfem::miniapps::Irrotational\lProjector">
<polygon fill="white" stroke="black" points="186,-720 186,-758 408,-758 408,-720 186,-720"/>
<text text-anchor="start" x="194" y="-742.8" font-family="Helvetica,sans-Serif" font-size="14.00">mfem::miniapps::Irrotational</text>
<text text-anchor="middle" x="297" y="-727.8" font-family="Helvetica,sans-Serif" font-size="14.00">Projector</text>
</a>
</g>
</g>
<!-- Node1&#45;&gt;Node16 -->
<g id="edge15" class="edge"><title>Node1&#45;&gt;Node16</title>
<path fill="none" stroke="midnightblue" d="M91.1958,-664.406C111.134,-678.592 141.154,-698.151 170,-710 179.136,-713.753 188.854,-717.072 198.683,-719.996"/>
<polygon fill="midnightblue" stroke="midnightblue" points="93.1955,-661.533 83.0429,-658.504 89.0907,-667.203 93.1955,-661.533"/>
</g>
<!-- Node18 -->
<g id="node18" class="node"><title>Node18</title>
<g id="a_node18"><a xlink:href="classmfem_1_1NonlinearForm.html" target="_top" xlink:title="mfem::NonlinearForm">
<polygon fill="white" stroke="black" points="210,-677.5 210,-700.5 384,-700.5 384,-677.5 210,-677.5"/>
<text text-anchor="middle" x="297" y="-685.3" font-family="Helvetica,sans-Serif" font-size="14.00">mfem::NonlinearForm</text>
</a>
</g>
</g>
<!-- Node1&#45;&gt;Node18 -->
<g id="edge17" class="edge"><title>Node1&#45;&gt;Node18</title>
<path fill="none" stroke="midnightblue" d="M132.109,-660.585C144.656,-663.135 157.728,-665.715 170,-668 187.442,-671.248 206.287,-674.516 223.955,-677.476"/>
<polygon fill="midnightblue" stroke="midnightblue" points="132.683,-657.13 122.184,-658.553 131.279,-663.988 132.683,-657.13"/>
</g>
<!-- Node20 -->
<g id="node20" class="node"><title>Node20</title>
<g id="a_node20"><a xlink:href="classmfem_1_1RAPOperator.html" target="_top" xlink:title="The operator x &#45;&gt; R*A*P*x. ">
<polygon fill="white" stroke="black" points="217,-635.5 217,-658.5 377,-658.5 377,-635.5 217,-635.5"/>
<text text-anchor="middle" x="297" y="-643.3" font-family="Helvetica,sans-Serif" font-size="14.00">mfem::RAPOperator</text>
</a>
</g>
</g>
<!-- Node1&#45;&gt;Node20 -->
<g id="edge19" class="edge"><title>Node1&#45;&gt;Node20</title>
<path fill="none" stroke="midnightblue" d="M143.853,-647C167.246,-647 193.062,-647 216.682,-647"/>
<polygon fill="midnightblue" stroke="midnightblue" points="143.641,-643.5 133.641,-647 143.641,-650.5 143.641,-643.5"/>
</g>
<!-- Node21 -->
<g id="node21" class="node"><title>Node21</title>
<g id="a_node21"><a xlink:href="classmfem_1_1Solver.html" target="_top" xlink:title="Base class for solvers. ">
<polygon fill="white" stroke="black" points="240.5,-593.5 240.5,-616.5 353.5,-616.5 353.5,-593.5 240.5,-593.5"/>
<text text-anchor="middle" x="297" y="-601.3" font-family="Helvetica,sans-Serif" font-size="14.00">mfem::Solver</text>
</a>
</g>
</g>
<!-- Node1&#45;&gt;Node21 -->
<g id="edge20" class="edge"><title>Node1&#45;&gt;Node21</title>
<path fill="none" stroke="midnightblue" d="M132.109,-633.415C144.656,-630.865 157.728,-628.285 170,-626 193.001,-621.717 218.443,-617.398 240.408,-613.799"/>
<polygon fill="midnightblue" stroke="midnightblue" points="131.279,-630.012 122.184,-635.447 132.683,-636.87 131.279,-630.012"/>
</g>
<!-- Node50 -->
<g id="node50" class="node"><title>Node50</title>
<g id="a_node50"><a xlink:href="classmfem_1_1SuperLURowLocMatrix.html" target="_top" xlink:title="mfem::SuperLURowLocMatrix">
<polygon fill="white" stroke="black" points="183.5,-551.5 183.5,-574.5 410.5,-574.5 410.5,-551.5 183.5,-551.5"/>
<text text-anchor="middle" x="297" y="-559.3" font-family="Helvetica,sans-Serif" font-size="14.00">mfem::SuperLURowLocMatrix</text>
</a>
</g>
</g>
<!-- Node1&#45;&gt;Node50 -->
<g id="edge49" class="edge"><title>Node1&#45;&gt;Node50</title>
<path fill="none" stroke="midnightblue" d="M90.6712,-629.388C110.497,-614.903 140.636,-595.027 170,-584 180.069,-580.219 190.846,-577.117 201.7,-574.572"/>
<polygon fill="midnightblue" stroke="midnightblue" points="88.5079,-626.635 82.5831,-635.419 92.6921,-632.247 88.5079,-626.635"/>
</g>
<!-- Node51 -->
<g id="node51" class="node"><title>Node51</title>
<g id="a_node51"><a xlink:href="classmfem_1_1TBilinearForm.html" target="_top" xlink:title="mfem::TBilinearForm\l\&lt; meshType, solFESpace,\l IR, IntegratorType, solVecLayout\l_t, complex_t, real_t \&gt;">
<polygon fill="white" stroke="black" points="170.5,-464 170.5,-532 423.5,-532 423.5,-464 170.5,-464"/>
<text text-anchor="start" x="178.5" y="-516.8" font-family="Helvetica,sans-Serif" font-size="14.00">mfem::TBilinearForm</text>
<text text-anchor="start" x="178.5" y="-501.8" font-family="Helvetica,sans-Serif" font-size="14.00">&lt; meshType, solFESpace,</text>
<text text-anchor="start" x="178.5" y="-486.8" font-family="Helvetica,sans-Serif" font-size="14.00"> IR, IntegratorType, solVecLayout</text>
<text text-anchor="middle" x="297" y="-471.8" font-family="Helvetica,sans-Serif" font-size="14.00">_t, complex_t, real_t &gt;</text>
</a>
</g>
</g>
<!-- Node1&#45;&gt;Node51 -->
<g id="edge50" class="edge"><title>Node1&#45;&gt;Node51</title>
<path fill="none" stroke="midnightblue" d="M82.672,-627.017C100.797,-603.627 133.714,-565.152 170,-542 175.567,-538.448 181.456,-535.142 187.526,-532.07"/>
<polygon fill="midnightblue" stroke="midnightblue" points="79.7339,-625.099 76.4737,-635.18 85.3088,-629.332 79.7339,-625.099"/>
</g>
<!-- Node52 -->
<g id="node52" class="node"><title>Node52</title>
<g id="a_node52"><a xlink:href="classmfem_1_1TimeDependentOperator.html" target="_top" xlink:title="Base abstract class for time dependent operators: (x,t) &#45;&gt; f(x,t) ">
<polygon fill="white" stroke="black" points="173,-421.5 173,-444.5 421,-444.5 421,-421.5 173,-421.5"/>
<text text-anchor="middle" x="297" y="-429.3" font-family="Helvetica,sans-Serif" font-size="14.00">mfem::TimeDependentOperator</text>
</a>
</g>
</g>
<!-- Node1&#45;&gt;Node52 -->
<g id="edge51" class="edge"><title>Node1&#45;&gt;Node52</title>
<path fill="none" stroke="midnightblue" d="M72.7492,-625.318C82.8935,-584.55 110.747,-496.739 170,-454 175.126,-450.303 180.672,-447.168 186.482,-444.517"/>
<polygon fill="midnightblue" stroke="midnightblue" points="69.3421,-624.517 70.4442,-635.055 76.1539,-626.13 69.3421,-624.517"/>
</g>
<!-- Node53 -->
<g id="node53" class="node"><title>Node53</title>
<g id="a_node53"><a xlink:href="classmfem_1_1TransposeOperator.html" target="_top" xlink:title="The transpose of a given operator. ">
<polygon fill="white" stroke="black" points="194,-379.5 194,-402.5 400,-402.5 400,-379.5 194,-379.5"/>
<text text-anchor="middle" x="297" y="-387.3" font-family="Helvetica,sans-Serif" font-size="14.00">mfem::TransposeOperator</text>
</a>
</g>
</g>
<!-- Node1&#45;&gt;Node53 -->
<g id="edge52" class="edge"><title>Node1&#45;&gt;Node53</title>
<path fill="none" stroke="midnightblue" d="M70.541,-625.372C77.297,-578.315 100.24,-466.502 170,-412 177.165,-406.402 185.267,-402.059 193.822,-398.711"/>
<polygon fill="midnightblue" stroke="midnightblue" points="67.0592,-625.004 69.2125,-635.378 73.9983,-625.925 67.0592,-625.004"/>
</g>
<!-- Node54 -->
<g id="node54" class="node"><title>Node54</title>
<g id="a_node54"><a xlink:href="classmfem_1_1TripleProductOperator.html" target="_top" xlink:title="General triple product operator x &#45;&gt; A*B*C*x, with ownership of the factors. ">
<polygon fill="white" stroke="black" points="184.5,-337.5 184.5,-360.5 409.5,-360.5 409.5,-337.5 184.5,-337.5"/>
<text text-anchor="middle" x="297" y="-345.3" font-family="Helvetica,sans-Serif" font-size="14.00">mfem::TripleProductOperator</text>
</a>
</g>
</g>
<!-- Node1&#45;&gt;Node54 -->
<g id="edge53" class="edge"><title>Node1&#45;&gt;Node54</title>
<path fill="none" stroke="midnightblue" d="M68.9966,-624.906C72.6669,-571.779 89.831,-436.377 170,-370 174.441,-366.323 179.28,-363.176 184.39,-360.49"/>
<polygon fill="midnightblue" stroke="midnightblue" points="65.4836,-625.022 68.387,-635.211 72.4714,-625.436 65.4836,-625.022"/>
</g>
<!-- Node6 -->
<g id="node6" class="node"><title>Node6</title>
<g id="a_node6"><a xlink:href="classmfem_1_1AbstractSparseMatrix.html" target="_top" xlink:title="Abstract data type for sparse matrices. ">
<polygon fill="white" stroke="black" points="486.5,-903.5 486.5,-926.5 707.5,-926.5 707.5,-903.5 486.5,-903.5"/>
<text text-anchor="middle" x="597" y="-911.3" font-family="Helvetica,sans-Serif" font-size="14.00">mfem::AbstractSparseMatrix</text>
</a>
</g>
</g>
<!-- Node5&#45;&gt;Node6 -->
<g id="edge5" class="edge"><title>Node5&#45;&gt;Node6</title>
<path fill="none" stroke="midnightblue" d="M363.786,-787.859C384.841,-790.471 407.06,-796.702 424,-810 455.949,-835.08 427.901,-869.111 460,-894 467.93,-900.149 476.918,-904.845 486.404,-908.4"/>
<polygon fill="midnightblue" stroke="midnightblue" points="363.867,-784.35 353.572,-786.853 363.18,-791.317 363.867,-784.35"/>
</g>
<!-- Node9 -->
<g id="node9" class="node"><title>Node9</title>
<g id="a_node9"><a xlink:href="classmfem_1_1BilinearForm.html" target="_top" xlink:title="mfem::BilinearForm">
<polygon fill="white" stroke="black" points="517.5,-861.5 517.5,-884.5 676.5,-884.5 676.5,-861.5 517.5,-861.5"/>
<text text-anchor="middle" x="597" y="-869.3" font-family="Helvetica,sans-Serif" font-size="14.00">mfem::BilinearForm</text>
</a>
</g>
</g>
<!-- Node5&#45;&gt;Node9 -->
<g id="edge8" class="edge"><title>Node5&#45;&gt;Node9</title>
<path fill="none" stroke="midnightblue" d="M363.911,-791.31C384.184,-794.243 405.907,-799.792 424,-810 445.413,-822.08 438.515,-840.048 460,-852 477.328,-861.64 497.716,-867.237 517.359,-870.399"/>
<polygon fill="midnightblue" stroke="midnightblue" points="364.143,-787.812 353.784,-790.038 363.27,-794.757 364.143,-787.812"/>
</g>
<!-- Node11 -->
<g id="node11" class="node"><title>Node11</title>
<g id="a_node11"><a xlink:href="classmfem_1_1DenseMatrix.html" target="_top" xlink:title="Data type dense matrix using column&#45;major storage. ">
<polygon fill="white" stroke="black" points="518,-819.5 518,-842.5 676,-842.5 676,-819.5 518,-819.5"/>
<text text-anchor="middle" x="597" y="-827.3" font-family="Helvetica,sans-Serif" font-size="14.00">mfem::DenseMatrix</text>
</a>
</g>
</g>
<!-- Node5&#45;&gt;Node11 -->
<g id="edge10" class="edge"><title>Node5&#45;&gt;Node11</title>
<path fill="none" stroke="midnightblue" d="M363.742,-798.266C409.196,-804.672 469.874,-813.224 517.811,-819.98"/>
<polygon fill="midnightblue" stroke="midnightblue" points="364.093,-794.781 353.702,-796.851 363.116,-801.712 364.093,-794.781"/>
</g>
<!-- Node12 -->
<g id="node12" class="node"><title>Node12</title>
<g id="a_node12"><a xlink:href="classmfem_1_1MixedBilinearForm.html" target="_top" xlink:title="mfem::MixedBilinearForm">
<polygon fill="white" stroke="black" points="497,-777.5 497,-800.5 697,-800.5 697,-777.5 497,-777.5"/>
<text text-anchor="middle" x="597" y="-785.3" font-family="Helvetica,sans-Serif" font-size="14.00">mfem::MixedBilinearForm</text>
</a>
</g>
</g>
<!-- Node5&#45;&gt;Node12 -->
<g id="edge11" class="edge"><title>Node5&#45;&gt;Node12</title>
<path fill="none" stroke="midnightblue" d="M363.883,-789C402.905,-789 453.11,-789 496.842,-789"/>
<polygon fill="midnightblue" stroke="midnightblue" points="363.702,-785.5 353.702,-789 363.702,-792.5 363.702,-785.5"/>
</g>
<!-- Node7 -->
<g id="node7" class="node"><title>Node7</title>
<g id="a_node7"><a xlink:href="classmfem_1_1BlockMatrix.html" target="_top" xlink:title="mfem::BlockMatrix">
<polygon fill="white" stroke="black" points="813.5,-945.5 813.5,-968.5 964.5,-968.5 964.5,-945.5 813.5,-945.5"/>
<text text-anchor="middle" x="889" y="-953.3" font-family="Helvetica,sans-Serif" font-size="14.00">mfem::BlockMatrix</text>
</a>
</g>
</g>
<!-- Node6&#45;&gt;Node7 -->
<g id="edge6" class="edge"><title>Node6&#45;&gt;Node7</title>
<path fill="none" stroke="midnightblue" d="M687.693,-927.99C727.887,-933.811 774.75,-940.598 813.038,-946.143"/>
<polygon fill="midnightblue" stroke="midnightblue" points="688.026,-924.502 677.627,-926.532 687.022,-931.43 688.026,-924.502"/>
</g>
<!-- Node8 -->
<g id="node8" class="node"><title>Node8</title>
<g id="a_node8"><a xlink:href="classmfem_1_1SparseMatrix.html" target="_top" xlink:title="Data type sparse matrix. ">
<polygon fill="white" stroke="black" points="808,-903.5 808,-926.5 970,-926.5 970,-903.5 808,-903.5"/>
<text text-anchor="middle" x="889" y="-911.3" font-family="Helvetica,sans-Serif" font-size="14.00">mfem::SparseMatrix</text>
</a>
</g>
</g>
<!-- Node6&#45;&gt;Node8 -->
<g id="edge7" class="edge"><title>Node6&#45;&gt;Node8</title>
<path fill="none" stroke="midnightblue" d="M717.826,-915C748.067,-915 779.815,-915 807.589,-915"/>
<polygon fill="midnightblue" stroke="midnightblue" points="717.637,-911.5 707.637,-915 717.637,-918.5 717.637,-911.5"/>
</g>
<!-- Node10 -->
<g id="node10" class="node"><title>Node10</title>
<g id="a_node10"><a xlink:href="classmfem_1_1ParBilinearForm.html" target="_top" xlink:title="Class for parallel bilinear form. ">
<polygon fill="white" stroke="black" points="798,-861.5 798,-884.5 980,-884.5 980,-861.5 798,-861.5"/>
<text text-anchor="middle" x="889" y="-869.3" font-family="Helvetica,sans-Serif" font-size="14.00">mfem::ParBilinearForm</text>
</a>
</g>
</g>
<!-- Node9&#45;&gt;Node10 -->
<g id="edge9" class="edge"><title>Node9&#45;&gt;Node10</title>
<path fill="none" stroke="midnightblue" d="M687.113,-873C722.277,-873 762.619,-873 797.881,-873"/>
<polygon fill="midnightblue" stroke="midnightblue" points="686.861,-869.5 676.861,-873 686.861,-876.5 686.861,-869.5"/>
</g>
<!-- Node13 -->
<g id="node13" class="node"><title>Node13</title>
<g id="a_node13"><a xlink:href="classmfem_1_1DiscreteLinearOperator.html" target="_top" xlink:title="mfem::DiscreteLinearOperator">
<polygon fill="white" stroke="black" points="770.5,-819.5 770.5,-842.5 1007.5,-842.5 1007.5,-819.5 770.5,-819.5"/>
<text text-anchor="middle" x="889" y="-827.3" font-family="Helvetica,sans-Serif" font-size="14.00">mfem::DiscreteLinearOperator</text>
</a>
</g>
</g>
<!-- Node12&#45;&gt;Node13 -->
<g id="edge12" class="edge"><title>Node12&#45;&gt;Node13</title>
<path fill="none" stroke="midnightblue" d="M687.821,-802.009C726.428,-807.6 771.17,-814.08 808.55,-819.493"/>
<polygon fill="midnightblue" stroke="midnightblue" points="688.026,-798.502 677.627,-800.532 687.022,-805.43 688.026,-798.502"/>
</g>
<!-- Node15 -->
<g id="node15" class="node"><title>Node15</title>
<g id="a_node15"><a xlink:href="classmfem_1_1ParMixedBilinearForm.html" target="_top" xlink:title="Class for parallel bilinear form. ">
<polygon fill="white" stroke="black" points="777.5,-777.5 777.5,-800.5 1000.5,-800.5 1000.5,-777.5 777.5,-777.5"/>
<text text-anchor="middle" x="889" y="-785.3" font-family="Helvetica,sans-Serif" font-size="14.00">mfem::ParMixedBilinearForm</text>
</a>
</g>
</g>
<!-- Node12&#45;&gt;Node15 -->
<g id="edge14" class="edge"><title>Node12&#45;&gt;Node15</title>
<path fill="none" stroke="midnightblue" d="M707.449,-789C730.299,-789 754.403,-789 777.298,-789"/>
<polygon fill="midnightblue" stroke="midnightblue" points="707.396,-785.5 697.396,-789 707.396,-792.5 707.396,-785.5"/>
</g>
<!-- Node14 -->
<g id="node14" class="node"><title>Node14</title>
<g id="a_node14"><a xlink:href="classmfem_1_1ParDiscreteLinearOperator.html" target="_top" xlink:title="mfem::ParDiscreteLinearOperator">
<polygon fill="white" stroke="black" points="1044,-819.5 1044,-842.5 1304,-842.5 1304,-819.5 1044,-819.5"/>
<text text-anchor="middle" x="1174" y="-827.3" font-family="Helvetica,sans-Serif" font-size="14.00">mfem::ParDiscreteLinearOperator</text>
</a>
</g>
</g>
<!-- Node13&#45;&gt;Node14 -->
<g id="edge13" class="edge"><title>Node13&#45;&gt;Node14</title>
<path fill="none" stroke="midnightblue" d="M1017.73,-831C1026.43,-831 1035.2,-831 1043.9,-831"/>
<polygon fill="midnightblue" stroke="midnightblue" points="1017.56,-827.5 1007.56,-831 1017.56,-834.5 1017.56,-827.5"/>
</g>
<!-- Node17 -->
<g id="node17" class="node"><title>Node17</title>
<g id="a_node17"><a xlink:href="classmfem_1_1miniapps_1_1DivergenceFreeProjector.html" target="_top" xlink:title="mfem::miniapps::Divergence\lFreeProjector">
<polygon fill="white" stroke="black" points="485,-720 485,-758 709,-758 709,-720 485,-720"/>
<text text-anchor="start" x="493" y="-742.8" font-family="Helvetica,sans-Serif" font-size="14.00">mfem::miniapps::Divergence</text>
<text text-anchor="middle" x="597" y="-727.8" font-family="Helvetica,sans-Serif" font-size="14.00">FreeProjector</text>
</a>
</g>
</g>
<!-- Node16&#45;&gt;Node17 -->
<g id="edge16" class="edge"><title>Node16&#45;&gt;Node17</title>
<path fill="none" stroke="midnightblue" d="M418.169,-739C440.195,-739 463.094,-739 484.842,-739"/>
<polygon fill="midnightblue" stroke="midnightblue" points="418.118,-735.5 408.118,-739 418.118,-742.5 418.118,-735.5"/>
</g>
<!-- Node19 -->
<g id="node19" class="node"><title>Node19</title>
<g id="a_node19"><a xlink:href="classmfem_1_1ParNonlinearForm.html" target="_top" xlink:title="Parallel non&#45;linear operator on the true dofs. ">
<polygon fill="white" stroke="black" points="498.5,-677.5 498.5,-700.5 695.5,-700.5 695.5,-677.5 498.5,-677.5"/>
<text text-anchor="middle" x="597" y="-685.3" font-family="Helvetica,sans-Serif" font-size="14.00">mfem::ParNonlinearForm</text>
</a>
</g>
</g>
<!-- Node18&#45;&gt;Node19 -->
<g id="edge18" class="edge"><title>Node18&#45;&gt;Node19</title>
<path fill="none" stroke="midnightblue" d="M394.397,-689C427.717,-689 465.065,-689 498.475,-689"/>
<polygon fill="midnightblue" stroke="midnightblue" points="394.194,-685.5 384.194,-689 394.194,-692.5 394.194,-685.5"/>
</g>
<!-- Node22 -->
<g id="node22" class="node"><title>Node22</title>
<g id="a_node22"><a xlink:href="classmfem_1_1BlockDiagonalPreconditioner.html" target="_top" xlink:title="A class to handle Block diagonal preconditioners in a matrix&#45;free implementation. ...">
<polygon fill="white" stroke="black" points="460,-635.5 460,-658.5 734,-658.5 734,-635.5 460,-635.5"/>
<text text-anchor="middle" x="597" y="-643.3" font-family="Helvetica,sans-Serif" font-size="14.00">mfem::BlockDiagonalPreconditioner</text>
</a>
</g>
</g>
<!-- Node21&#45;&gt;Node22 -->
<g id="edge21" class="edge"><title>Node21&#45;&gt;Node22</title>
<path fill="none" stroke="midnightblue" d="M363.777,-614.271C408.069,-620.513 466.805,-628.791 514.124,-635.46"/>
<polygon fill="midnightblue" stroke="midnightblue" points="364.093,-610.781 353.702,-612.851 363.116,-617.712 364.093,-610.781"/>
</g>
<!-- Node23 -->
<g id="node23" class="node"><title>Node23</title>
<g id="a_node23"><a xlink:href="classmfem_1_1HypreSmoother.html" target="_top" xlink:title="Parallel smoothers in hypre. ">
<polygon fill="white" stroke="black" points="506,-593.5 506,-616.5 688,-616.5 688,-593.5 506,-593.5"/>
<text text-anchor="middle" x="597" y="-601.3" font-family="Helvetica,sans-Serif" font-size="14.00">mfem::HypreSmoother</text>
</a>
</g>
</g>
<!-- Node21&#45;&gt;Node23 -->
<g id="edge22" class="edge"><title>Node21&#45;&gt;Node23</title>
<path fill="none" stroke="midnightblue" d="M363.746,-605C405.459,-605 459.992,-605 505.734,-605"/>
<polygon fill="midnightblue" stroke="midnightblue" points="363.702,-601.5 353.702,-605 363.702,-608.5 363.702,-601.5"/>
</g>
<!-- Node24 -->
<g id="node24" class="node"><title>Node24</title>
<g id="a_node24"><a xlink:href="classmfem_1_1HypreSolver.html" target="_top" xlink:title="Abstract class for hypre&#39;s solvers and preconditioners. ">
<polygon fill="white" stroke="black" points="519,-551.5 519,-574.5 675,-574.5 675,-551.5 519,-551.5"/>
<text text-anchor="middle" x="597" y="-559.3" font-family="Helvetica,sans-Serif" font-size="14.00">mfem::HypreSolver</text>
</a>
</g>
</g>
<!-- Node21&#45;&gt;Node24 -->
<g id="edge23" class="edge"><title>Node21&#45;&gt;Node24</title>
<path fill="none" stroke="midnightblue" d="M363.817,-595.724C409.619,-589.268 470.852,-580.638 518.936,-573.861"/>
<polygon fill="midnightblue" stroke="midnightblue" points="363.116,-592.288 353.702,-597.149 364.093,-599.219 363.116,-592.288"/>
</g>
<!-- Node33 -->
<g id="node33" class="node"><title>Node33</title>
<g id="a_node33"><a xlink:href="classmfem_1_1IterativeSolver.html" target="_top" xlink:title="Abstract base class for iterative solver. ">
<polygon fill="white" stroke="black" points="510.5,-315.5 510.5,-338.5 683.5,-338.5 683.5,-315.5 510.5,-315.5"/>
<text text-anchor="middle" x="597" y="-323.3" font-family="Helvetica,sans-Serif" font-size="14.00">mfem::IterativeSolver</text>
</a>
</g>
</g>
<!-- Node21&#45;&gt;Node33 -->
<g id="edge32" class="edge"><title>Node21&#45;&gt;Node33</title>
<path fill="none" stroke="midnightblue" d="M363.565,-604.119C384.202,-601.308 406.225,-595.47 424,-584 449.037,-567.843 559.997,-386.441 589.029,-338.541"/>
<polygon fill="midnightblue" stroke="midnightblue" points="363.106,-600.648 353.57,-605.267 363.904,-607.603 363.106,-600.648"/>
</g>
<!-- Node42 -->
<g id="node42" class="node"><title>Node42</title>
<g id="a_node42"><a xlink:href="classmfem_1_1KLUSolver.html" target="_top" xlink:title="Direct sparse solver using KLU. ">
<polygon fill="white" stroke="black" points="527,-273.5 527,-296.5 667,-296.5 667,-273.5 527,-273.5"/>
<text text-anchor="middle" x="597" y="-281.3" font-family="Helvetica,sans-Serif" font-size="14.00">mfem::KLUSolver</text>
</a>
</g>
</g>
<!-- Node21&#45;&gt;Node42 -->
<g id="edge41" class="edge"><title>Node21&#45;&gt;Node42</title>
<path fill="none" stroke="midnightblue" d="M363.805,-608.933C385.744,-606.74 408.515,-600.059 424,-584 510.48,-494.316 372.986,-395.166 460,-306 477.186,-288.389 502.559,-281.549 526.748,-279.665"/>
<polygon fill="midnightblue" stroke="midnightblue" points="363.539,-605.443 353.812,-609.643 364.035,-612.425 363.539,-605.443"/>
</g>
<!-- Node43 -->
<g id="node43" class="node"><title>Node43</title>
<g id="a_node43"><a xlink:href="classmfem_1_1MatrixInverse.html" target="_top" xlink:title="Abstract data type for matrix inverse. ">
<polygon fill="white" stroke="black" points="514,-231.5 514,-254.5 680,-254.5 680,-231.5 514,-231.5"/>
<text text-anchor="middle" x="597" y="-239.3" font-family="Helvetica,sans-Serif" font-size="14.00">mfem::MatrixInverse</text>
</a>
</g>
</g>
<!-- Node21&#45;&gt;Node43 -->
<g id="edge42" class="edge"><title>Node21&#45;&gt;Node43</title>
<path fill="none" stroke="midnightblue" d="M363.67,-609.104C385.712,-606.954 408.584,-600.258 424,-584 522.477,-480.147 360.904,-367.262 460,-264 474.061,-249.348 493.778,-242.111 513.844,-238.98"/>
<polygon fill="midnightblue" stroke="midnightblue" points="363.369,-605.616 353.631,-609.789 363.846,-612.6 363.369,-605.616"/>
</g>
<!-- Node48 -->
<g id="node48" class="node"><title>Node48</title>
<g id="a_node48"><a xlink:href="classmfem_1_1SuperLUSolver.html" target="_top" xlink:title="mfem::SuperLUSolver">
<polygon fill="white" stroke="black" points="510.5,-189.5 510.5,-212.5 683.5,-212.5 683.5,-189.5 510.5,-189.5"/>
<text text-anchor="middle" x="597" y="-197.3" font-family="Helvetica,sans-Serif" font-size="14.00">mfem::SuperLUSolver</text>
</a>
</g>
</g>
<!-- Node21&#45;&gt;Node48 -->
<g id="edge47" class="edge"><title>Node21&#45;&gt;Node48</title>
<path fill="none" stroke="midnightblue" d="M363.786,-609.213C385.84,-607.074 408.689,-600.357 424,-584 479.245,-524.981 404.403,-280.688 460,-222 473.144,-208.125 491.355,-200.871 510.181,-197.455"/>
<polygon fill="midnightblue" stroke="midnightblue" points="363.481,-605.725 353.739,-609.891 363.952,-612.709 363.481,-605.725"/>
</g>
<!-- Node49 -->
<g id="node49" class="node"><title>Node49</title>
<g id="a_node49"><a xlink:href="classmfem_1_1UMFPackSolver.html" target="_top" xlink:title="Direct sparse solver using UMFPACK. ">
<polygon fill="white" stroke="black" points="509,-147.5 509,-170.5 685,-170.5 685,-147.5 509,-147.5"/>
<text text-anchor="middle" x="597" y="-155.3" font-family="Helvetica,sans-Serif" font-size="14.00">mfem::UMFPackSolver</text>
</a>
</g>
</g>
<!-- Node21&#45;&gt;Node49 -->
<g id="edge48" class="edge"><title>Node21&#45;&gt;Node49</title>
<path fill="none" stroke="midnightblue" d="M363.594,-609.326C385.745,-607.226 408.708,-600.505 424,-584 485.258,-517.882 398.349,-245.751 460,-180 472.746,-166.406 490.351,-159.147 508.67,-155.623"/>
<polygon fill="midnightblue" stroke="midnightblue" points="363.256,-605.84 353.505,-609.984 363.711,-612.826 363.256,-605.84"/>
</g>
<!-- Node25 -->
<g id="node25" class="node"><title>Node25</title>
<g id="a_node25"><a xlink:href="classmfem_1_1HypreADS.html" target="_top" xlink:title="The Auxiliary&#45;space Divergence Solver in hypre. ">
<polygon fill="white" stroke="black" points="818.5,-735.5 818.5,-758.5 959.5,-758.5 959.5,-735.5 818.5,-735.5"/>
<text text-anchor="middle" x="889" y="-743.3" font-family="Helvetica,sans-Serif" font-size="14.00">mfem::HypreADS</text>
</a>
</g>
</g>
<!-- Node24&#45;&gt;Node25 -->
<g id="edge24" class="edge"><title>Node24&#45;&gt;Node25</title>
<path fill="none" stroke="midnightblue" d="M685.276,-561.439C703.15,-564.984 720.576,-571.796 734,-584 782.174,-627.798 722.331,-681.653 770,-726 783.102,-738.189 800.718,-744.558 818.336,-747.643"/>
<polygon fill="midnightblue" stroke="midnightblue" points="685.76,-557.972 675.323,-559.793 684.618,-564.878 685.76,-557.972"/>
</g>
<!-- Node26 -->
<g id="node26" class="node"><title>Node26</title>
<g id="a_node26"><a xlink:href="classmfem_1_1HypreAMS.html" target="_top" xlink:title="The Auxiliary&#45;space Maxwell Solver in hypre. ">
<polygon fill="white" stroke="black" points="818,-693.5 818,-716.5 960,-716.5 960,-693.5 818,-693.5"/>
<text text-anchor="middle" x="889" y="-701.3" font-family="Helvetica,sans-Serif" font-size="14.00">mfem::HypreAMS</text>
</a>
</g>
</g>
<!-- Node24&#45;&gt;Node26 -->
<g id="edge25" class="edge"><title>Node24&#45;&gt;Node26</title>
<path fill="none" stroke="midnightblue" d="M685.508,-562.646C703.052,-566.189 720.283,-572.697 734,-584 770.455,-614.04 733.892,-653.545 770,-684 783.361,-695.269 800.658,-701.404 817.87,-704.56"/>
<polygon fill="midnightblue" stroke="midnightblue" points="685.612,-559.113 675.167,-560.888 684.439,-566.014 685.612,-559.113"/>
</g>
<!-- Node27 -->
<g id="node27" class="node"><title>Node27</title>
<g id="a_node27"><a xlink:href="classmfem_1_1HypreBoomerAMG.html" target="_top" xlink:title="The BoomerAMG solver in hypre. ">
<polygon fill="white" stroke="black" points="788.5,-651.5 788.5,-674.5 989.5,-674.5 989.5,-651.5 788.5,-651.5"/>
<text text-anchor="middle" x="889" y="-659.3" font-family="Helvetica,sans-Serif" font-size="14.00">mfem::HypreBoomerAMG</text>
</a>
</g>
</g>
<!-- Node24&#45;&gt;Node27 -->
<g id="edge26" class="edge"><title>Node24&#45;&gt;Node27</title>
<path fill="none" stroke="midnightblue" d="M685.321,-565.202C702.471,-568.65 719.59,-574.471 734,-584 759.307,-600.735 744.886,-624.976 770,-642 775.684,-645.853 781.863,-649.061 788.316,-651.728"/>
<polygon fill="midnightblue" stroke="midnightblue" points="685.695,-561.715 675.241,-563.436 684.487,-568.61 685.695,-561.715"/>
</g>
<!-- Node28 -->
<g id="node28" class="node"><title>Node28</title>
<g id="a_node28"><a xlink:href="classmfem_1_1HypreDiagScale.html" target="_top" xlink:title="Jacobi preconditioner in hypre. ">
<polygon fill="white" stroke="black" points="798,-609.5 798,-632.5 980,-632.5 980,-609.5 798,-609.5"/>
<text text-anchor="middle" x="889" y="-617.3" font-family="Helvetica,sans-Serif" font-size="14.00">mfem::HypreDiagScale</text>
</a>
</g>
</g>
<!-- Node24&#45;&gt;Node28 -->
<g id="edge27" class="edge"><title>Node24&#45;&gt;Node28</title>
<path fill="none" stroke="midnightblue" d="M685.16,-572.946C701.557,-575.803 718.434,-579.428 734,-584 750.799,-588.935 753.258,-594.873 770,-600 782.137,-603.717 795.189,-606.855 808.032,-609.478"/>
<polygon fill="midnightblue" stroke="midnightblue" points="685.466,-569.449 675.028,-571.264 684.32,-576.354 685.466,-569.449"/>
</g>
<!-- Node29 -->
<g id="node29" class="node"><title>Node29</title>
<g id="a_node29"><a xlink:href="classmfem_1_1HypreGMRES.html" target="_top" xlink:title="GMRES solver in hypre. ">
<polygon fill="white" stroke="black" points="808,-567.5 808,-590.5 970,-590.5 970,-567.5 808,-567.5"/>
<text text-anchor="middle" x="889" y="-575.3" font-family="Helvetica,sans-Serif" font-size="14.00">mfem::HypreGMRES</text>
</a>
</g>
</g>
<!-- Node24&#45;&gt;Node29 -->
<g id="edge28" class="edge"><title>Node24&#45;&gt;Node29</title>
<path fill="none" stroke="midnightblue" d="M685.586,-567.832C724.454,-569.977 769.885,-572.483 807.847,-574.578"/>
<polygon fill="midnightblue" stroke="midnightblue" points="685.511,-564.323 675.334,-567.267 685.126,-571.312 685.511,-564.323"/>
</g>
<!-- Node30 -->
<g id="node30" class="node"><title>Node30</title>
<g id="a_node30"><a xlink:href="classmfem_1_1HypreIdentity.html" target="_top" xlink:title="The identity operator as a hypre solver. ">
<polygon fill="white" stroke="black" points="806.5,-525.5 806.5,-548.5 971.5,-548.5 971.5,-525.5 806.5,-525.5"/>
<text text-anchor="middle" x="889" y="-533.3" font-family="Helvetica,sans-Serif" font-size="14.00">mfem::HypreIdentity</text>
</a>
</g>
</g>
<!-- Node24&#45;&gt;Node30 -->
<g id="edge29" class="edge"><title>Node24&#45;&gt;Node30</title>
<path fill="none" stroke="midnightblue" d="M685.458,-555.159C723.833,-551.718 768.627,-547.702 806.318,-544.323"/>
<polygon fill="midnightblue" stroke="midnightblue" points="684.981,-551.688 675.334,-556.067 685.606,-558.66 684.981,-551.688"/>
</g>
<!-- Node31 -->
<g id="node31" class="node"><title>Node31</title>
<g id="a_node31"><a xlink:href="classmfem_1_1HypreParaSails.html" target="_top" xlink:title="The ParaSails preconditioner in hypre. ">
<polygon fill="white" stroke="black" points="801,-483.5 801,-506.5 977,-506.5 977,-483.5 801,-483.5"/>
<text text-anchor="middle" x="889" y="-491.3" font-family="Helvetica,sans-Serif" font-size="14.00">mfem::HypreParaSails</text>
</a>
</g>
</g>
<!-- Node24&#45;&gt;Node31 -->
<g id="edge30" class="edge"><title>Node24&#45;&gt;Node31</title>
<path fill="none" stroke="midnightblue" d="M646.113,-548.596C680.441,-538.628 727.808,-525.499 770,-516 785.225,-512.572 801.657,-509.351 817.282,-506.509"/>
<polygon fill="midnightblue" stroke="midnightblue" points="644.963,-545.285 636.346,-551.449 646.926,-552.004 644.963,-545.285"/>
</g>
<!-- Node32 -->
<g id="node32" class="node"><title>Node32</title>
<g id="a_node32"><a xlink:href="classmfem_1_1HyprePCG.html" target="_top" xlink:title="PCG solver in hypre. ">
<polygon fill="white" stroke="black" points="819,-441.5 819,-464.5 959,-464.5 959,-441.5 819,-441.5"/>
<text text-anchor="middle" x="889" y="-449.3" font-family="Helvetica,sans-Serif" font-size="14.00">mfem::HyprePCG</text>
</a>
</g>
</g>
<!-- Node24&#45;&gt;Node32 -->
<g id="edge31" class="edge"><title>Node24&#45;&gt;Node32</title>
<path fill="none" stroke="midnightblue" d="M624.326,-546.16C657.146,-525.939 715.572,-492.449 770,-474 785.47,-468.756 802.547,-464.754 818.793,-461.724"/>
<polygon fill="midnightblue" stroke="midnightblue" points="622.41,-543.23 615.773,-551.487 626.111,-549.171 622.41,-543.23"/>
</g>
<!-- Node34 -->
<g id="node34" class="node"><title>Node34</title>
<g id="a_node34"><a xlink:href="classmfem_1_1BiCGSTABSolver.html" target="_top" xlink:title="BiCGSTAB method. ">
<polygon fill="white" stroke="black" points="796.5,-399.5 796.5,-422.5 981.5,-422.5 981.5,-399.5 796.5,-399.5"/>
<text text-anchor="middle" x="889" y="-407.3" font-family="Helvetica,sans-Serif" font-size="14.00">mfem::BiCGSTABSolver</text>
</a>
</g>
</g>
<!-- Node33&#45;&gt;Node34 -->
<g id="edge33" class="edge"><title>Node33&#45;&gt;Node34</title>
<path fill="none" stroke="midnightblue" d="M634.547,-342.51C668.96,-356.602 722.215,-377.103 770,-390 783.359,-393.606 797.74,-396.755 811.711,-399.442"/>
<polygon fill="midnightblue" stroke="midnightblue" points="635.509,-339.121 624.93,-338.538 632.836,-345.59 635.509,-339.121"/>
</g>
<!-- Node35 -->
<g id="node35" class="node"><title>Node35</title>
<g id="a_node35"><a xlink:href="classmfem_1_1CGSolver.html" target="_top" xlink:title="Conjugate gradient method. ">
<polygon fill="white" stroke="black" points="822,-357.5 822,-380.5 956,-380.5 956,-357.5 822,-357.5"/>
<text text-anchor="middle" x="889" y="-365.3" font-family="Helvetica,sans-Serif" font-size="14.00">mfem::CGSolver</text>
</a>
</g>
</g>
<!-- Node33&#45;&gt;Node35 -->
<g id="edge34" class="edge"><title>Node33&#45;&gt;Node35</title>
<path fill="none" stroke="midnightblue" d="M687.602,-339.977C730.929,-346.252 782.024,-353.652 821.776,-359.409"/>
<polygon fill="midnightblue" stroke="midnightblue" points="688.026,-336.502 677.627,-338.532 687.022,-343.43 688.026,-336.502"/>
</g>
<!-- Node36 -->
<g id="node36" class="node"><title>Node36</title>
<g id="a_node36"><a xlink:href="classmfem_1_1FGMRESSolver.html" target="_top" xlink:title="FGMRES method. ">
<polygon fill="white" stroke="black" points="802.5,-315.5 802.5,-338.5 975.5,-338.5 975.5,-315.5 802.5,-315.5"/>
<text text-anchor="middle" x="889" y="-323.3" font-family="Helvetica,sans-Serif" font-size="14.00">mfem::FGMRESSolver</text>
</a>
</g>
</g>
<!-- Node33&#45;&gt;Node36 -->
<g id="edge35" class="edge"><title>Node33&#45;&gt;Node36</title>
<path fill="none" stroke="midnightblue" d="M694.061,-327C729.056,-327 768.359,-327 802.388,-327"/>
<polygon fill="midnightblue" stroke="midnightblue" points="693.833,-323.5 683.832,-327 693.832,-330.5 693.833,-323.5"/>
</g>
<!-- Node37 -->
<g id="node37" class="node"><title>Node37</title>
<g id="a_node37"><a xlink:href="classmfem_1_1GMRESSolver.html" target="_top" xlink:title="GMRES method. ">
<polygon fill="white" stroke="black" points="807,-273.5 807,-296.5 971,-296.5 971,-273.5 807,-273.5"/>
<text text-anchor="middle" x="889" y="-281.3" font-family="Helvetica,sans-Serif" font-size="14.00">mfem::GMRESSolver</text>
</a>
</g>
</g>
<!-- Node33&#45;&gt;Node37 -->
<g id="edge36" class="edge"><title>Node33&#45;&gt;Node37</title>
<path fill="none" stroke="midnightblue" d="M687.821,-313.991C726.428,-308.4 771.17,-301.92 808.55,-296.507"/>
<polygon fill="midnightblue" stroke="midnightblue" points="687.022,-310.57 677.627,-315.468 688.026,-317.498 687.022,-310.57"/>
</g>
<!-- Node38 -->
<g id="node38" class="node"><title>Node38</title>
<g id="a_node38"><a xlink:href="classmfem_1_1MINRESSolver.html" target="_top" xlink:title="MINRES method. ">
<polygon fill="white" stroke="black" points="805,-231.5 805,-254.5 973,-254.5 973,-231.5 805,-231.5"/>
<text text-anchor="middle" x="889" y="-239.3" font-family="Helvetica,sans-Serif" font-size="14.00">mfem::MINRESSolver</text>
</a>
</g>
</g>
<!-- Node33&#45;&gt;Node38 -->
<g id="edge37" class="edge"><title>Node33&#45;&gt;Node38</title>
<path fill="none" stroke="midnightblue" d="M693.552,-321.059C707.671,-317.713 721.617,-312.889 734,-306 755.485,-294.048 748.654,-276.198 770,-264 780.659,-257.909 792.673,-253.51 804.85,-250.347"/>
<polygon fill="midnightblue" stroke="midnightblue" points="692.816,-317.637 683.767,-323.147 694.277,-324.483 692.816,-317.637"/>
</g>
<!-- Node39 -->
<g id="node39" class="node"><title>Node39</title>
<g id="a_node39"><a xlink:href="classmfem_1_1NewtonSolver.html" target="_top" xlink:title="mfem::NewtonSolver">
<polygon fill="white" stroke="black" points="805,-189.5 805,-212.5 973,-212.5 973,-189.5 805,-189.5"/>
<text text-anchor="middle" x="889" y="-197.3" font-family="Helvetica,sans-Serif" font-size="14.00">mfem::NewtonSolver</text>
</a>
</g>
</g>
<!-- Node33&#45;&gt;Node39 -->
<g id="edge38" class="edge"><title>Node33&#45;&gt;Node39</title>
<path fill="none" stroke="midnightblue" d="M693.656,-324.764C708.211,-321.018 722.265,-315.099 734,-306 766.099,-281.111 738.189,-247.255 770,-222 780.104,-213.978 792.235,-208.611 804.819,-205.082"/>
<polygon fill="midnightblue" stroke="midnightblue" points="692.521,-321.431 683.522,-327.023 694.044,-328.264 692.521,-321.431"/>
</g>
<!-- Node40 -->
<g id="node40" class="node"><title>Node40</title>
<g id="a_node40"><a xlink:href="classmfem_1_1SLBQPOptimizer.html" target="_top" xlink:title="mfem::SLBQPOptimizer">
<polygon fill="white" stroke="black" points="796.5,-147.5 796.5,-170.5 981.5,-170.5 981.5,-147.5 796.5,-147.5"/>
<text text-anchor="middle" x="889" y="-155.3" font-family="Helvetica,sans-Serif" font-size="14.00">mfem::SLBQPOptimizer</text>
</a>
</g>
</g>
<!-- Node33&#45;&gt;Node40 -->
<g id="edge39" class="edge"><title>Node33&#45;&gt;Node40</title>
<path fill="none" stroke="midnightblue" d="M693.411,-326.347C708.307,-322.482 722.536,-316.112 734,-306 777.676,-267.472 726.768,-219.026 770,-180 777.646,-173.098 786.746,-168.08 796.453,-164.476"/>
<polygon fill="midnightblue" stroke="midnightblue" points="692.55,-322.953 683.548,-328.54 694.07,-329.786 692.55,-322.953"/>
</g>
<!-- Node41 -->
<g id="node41" class="node"><title>Node41</title>
<g id="a_node41"><a xlink:href="classmfem_1_1SLISolver.html" target="_top" xlink:title="Stationary linear iteration: x &lt;&#45; x + B (b &#45; A x) ">
<polygon fill="white" stroke="black" points="821.5,-105.5 821.5,-128.5 956.5,-128.5 956.5,-105.5 821.5,-105.5"/>
<text text-anchor="middle" x="889" y="-113.3" font-family="Helvetica,sans-Serif" font-size="14.00">mfem::SLISolver</text>
</a>
</g>
</g>
<!-- Node33&#45;&gt;Node41 -->
<g id="edge40" class="edge"><title>Node33&#45;&gt;Node41</title>
<path fill="none" stroke="midnightblue" d="M693.71,-327.063C708.646,-323.135 722.811,-316.559 734,-306 789.536,-253.589 715.068,-191.044 770,-138 783.696,-124.775 802.676,-118.321 821.413,-115.487"/>
<polygon fill="midnightblue" stroke="midnightblue" points="692.803,-323.679 683.807,-329.277 694.33,-330.511 692.803,-323.679"/>
</g>
<!-- Node44 -->
<g id="node44" class="node"><title>Node44</title>
<g id="a_node44"><a xlink:href="classmfem_1_1DenseMatrixInverse.html" target="_top" xlink:title="mfem::DenseMatrixInverse">
<polygon fill="white" stroke="black" points="783,-63.5 783,-86.5 995,-86.5 995,-63.5 783,-63.5"/>
<text text-anchor="middle" x="889" y="-71.3" font-family="Helvetica,sans-Serif" font-size="14.00">mfem::DenseMatrixInverse</text>
</a>
</g>
</g>
<!-- Node43&#45;&gt;Node44 -->
<g id="edge43" class="edge"><title>Node43&#45;&gt;Node44</title>
<path fill="none" stroke="midnightblue" d="M690.084,-243.167C706.179,-239.407 721.685,-232.863 734,-222 777.676,-183.472 726.768,-135.026 770,-96 774.016,-92.3748 778.433,-89.2694 783.129,-86.6156"/>
<polygon fill="midnightblue" stroke="midnightblue" points="689.138,-239.786 680.009,-245.163 690.498,-246.653 689.138,-239.786"/>
</g>
<!-- Node45 -->
<g id="node45" class="node"><title>Node45</title>
<g id="a_node45"><a xlink:href="classmfem_1_1SparseSmoother.html" target="_top" xlink:title="mfem::SparseSmoother">
<polygon fill="white" stroke="black" points="795,-21.5 795,-44.5 983,-44.5 983,-21.5 795,-21.5"/>
<text text-anchor="middle" x="889" y="-29.3" font-family="Helvetica,sans-Serif" font-size="14.00">mfem::SparseSmoother</text>
</a>
</g>
</g>
<!-- Node43&#45;&gt;Node45 -->
<g id="edge44" class="edge"><title>Node43&#45;&gt;Node45</title>
<path fill="none" stroke="midnightblue" d="M690.391,-243.89C706.539,-240.084 721.985,-233.339 734,-222 789.536,-169.589 715.068,-107.044 770,-54 777.11,-47.1344 785.644,-42.0935 794.829,-38.4367"/>
<polygon fill="midnightblue" stroke="midnightblue" points="689.399,-240.519 680.27,-245.895 690.759,-247.385 689.399,-240.519"/>
</g>
<!-- Node46 -->
<g id="node46" class="node"><title>Node46</title>
<g id="a_node46"><a xlink:href="classmfem_1_1DSmoother.html" target="_top" xlink:title="Data type for scaled Jacobi&#45;type smoother of sparse matrix. ">
<polygon fill="white" stroke="black" points="1099,-42.5 1099,-65.5 1249,-65.5 1249,-42.5 1099,-42.5"/>
<text text-anchor="middle" x="1174" y="-50.3" font-family="Helvetica,sans-Serif" font-size="14.00">mfem::DSmoother</text>
</a>
</g>
</g>
<!-- Node45&#45;&gt;Node46 -->
<g id="edge45" class="edge"><title>Node45&#45;&gt;Node46</title>
<path fill="none" stroke="midnightblue" d="M993.29,-40.6646C1028.21,-43.2558 1066.48,-46.0959 1098.7,-48.4867"/>
<polygon fill="midnightblue" stroke="midnightblue" points="993.288,-37.155 983.057,-39.9053 992.77,-44.1358 993.288,-37.155"/>
</g>
<!-- Node47 -->
<g id="node47" class="node"><title>Node47</title>
<g id="a_node47"><a xlink:href="classmfem_1_1GSSmoother.html" target="_top" xlink:title="Data type for Gauss&#45;Seidel smoother of sparse matrix. ">
<polygon fill="white" stroke="black" points="1094.5,-0.5 1094.5,-23.5 1253.5,-23.5 1253.5,-0.5 1094.5,-0.5"/>
<text text-anchor="middle" x="1174" y="-8.3" font-family="Helvetica,sans-Serif" font-size="14.00">mfem::GSSmoother</text>
</a>
</g>
</g>
<!-- Node45&#45;&gt;Node47 -->
<g id="edge46" class="edge"><title>Node45&#45;&gt;Node47</title>
<path fill="none" stroke="midnightblue" d="M993.277,-25.3364C1026.55,-22.8672 1062.88,-20.1717 1094.1,-17.8544"/>
<polygon fill="midnightblue" stroke="midnightblue" points="992.77,-21.8642 983.057,-26.0947 993.288,-28.845 992.77,-21.8642"/>
</g>
</g>
</svg>
