<?xml version="1.0" encoding="UTF-8" standalone="no"?>
<!DOCTYPE svg PUBLIC "-//W3C//DTD SVG 1.1//EN"
 "http://www.w3.org/Graphics/SVG/1.1/DTD/svg11.dtd">
<!-- Generated by graphviz version 2.30.1 (20200304.1809)
 -->
<!-- Title: mfem::NCMesh::Slave Pages: 1 -->
<svg width="629pt" height="342pt"
 viewBox="0.00 0.00 629.00 342.00" xmlns="http://www.w3.org/2000/svg" xmlns:xlink="http://www.w3.org/1999/xlink">
<g id="graph0" class="graph" transform="scale(1 1) rotate(0) translate(4 338)">
<title>mfem::NCMesh::Slave</title>
<polygon fill="white" stroke="white" points="-4,5 -4,-338 626,-338 626,5 -4,5"/>
<!-- Node1 -->
<g id="node1" class="node"><title>Node1</title>
<polygon fill="#bfbfbf" stroke="black" points="302,-0.5 302,-23.5 476,-23.5 476,-0.5 302,-0.5"/>
<text text-anchor="middle" x="389" y="-8.3" font-family="Helvetica,sans-Serif" font-size="14.00">mfem::NCMesh::Slave</text>
</g>
<!-- Node2 -->
<g id="node2" class="node"><title>Node2</title>
<g id="a_node2"><a xlink:href="structmfem_1_1NCMesh_1_1MeshId.html" target="_top" xlink:title="Identifies a vertex/edge/face in both Mesh and NCMesh. ">
<polygon fill="white" stroke="black" points="171,-76.5 171,-99.5 357,-99.5 357,-76.5 171,-76.5"/>
<text text-anchor="middle" x="264" y="-84.3" font-family="Helvetica,sans-Serif" font-size="14.00">mfem::NCMesh::MeshId</text>
</a>
</g>
</g>
<!-- Node2&#45;&gt;Node1 -->
<g id="edge1" class="edge"><title>Node2&#45;&gt;Node1</title>
<path fill="none" stroke="midnightblue" d="M290.624,-71.2388C314.89,-56.8728 350.068,-36.0478 371.124,-23.5827"/>
<polygon fill="midnightblue" stroke="midnightblue" points="288.732,-68.2915 281.909,-76.3976 292.298,-74.3151 288.732,-68.2915"/>
</g>
<!-- Node3 -->
<g id="node3" class="node"><title>Node3</title>
<g id="a_node3"><a xlink:href="structmfem_1_1NCMesh_1_1Element.html" target="_top" xlink:title="mfem::NCMesh::Element">
<polygon fill="white" stroke="black" points="0,-155.5 0,-178.5 194,-178.5 194,-155.5 0,-155.5"/>
<text text-anchor="middle" x="97" y="-163.3" font-family="Helvetica,sans-Serif" font-size="14.00">mfem::NCMesh::Element</text>
</a>
</g>
</g>
<!-- Node3&#45;&gt;Node2 -->
<g id="edge2" class="edge"><title>Node3&#45;&gt;Node2</title>
<path fill="none" stroke="#9a32cd" stroke-dasharray="5,2" d="M129.049,-151.223C161.885,-136.083 212.117,-112.922 241.138,-99.541"/>
<polygon fill="#9a32cd" stroke="#9a32cd" points="127.486,-148.089 119.87,-155.455 130.417,-154.446 127.486,-148.089"/>
<text text-anchor="middle" x="233" y="-122.3" font-family="Helvetica,sans-Serif" font-size="14.00"> element</text>
</g>
<!-- Node3&#45;&gt;Node3 -->
<g id="edge3" class="edge"><title>Node3&#45;&gt;Node3</title>
<path fill="none" stroke="#9a32cd" stroke-dasharray="5,2" d="M204.283,-171.667C209.153,-170.482 212,-168.927 212,-167 212,-163.992 205.064,-161.889 194.321,-160.691"/>
<polygon fill="#9a32cd" stroke="#9a32cd" points="203.619,-168.229 194.321,-173.309 204.758,-175.136 203.619,-168.229"/>
<text text-anchor="middle" x="236" y="-170.8" font-family="Helvetica,sans-Serif" font-size="14.00"> child</text>
<text text-anchor="middle" x="236" y="-155.8" font-family="Helvetica,sans-Serif" font-size="14.00">parent</text>
</g>
<!-- Node4 -->
<g id="node4" class="node"><title>Node4</title>
<g id="a_node4"><a xlink:href="structmfem_1_1NCMesh_1_1Node.html" target="_top" xlink:title="mfem::NCMesh::Node">
<polygon fill="white" stroke="black" points="240.5,-234.5 240.5,-257.5 413.5,-257.5 413.5,-234.5 240.5,-234.5"/>
<text text-anchor="middle" x="327" y="-242.3" font-family="Helvetica,sans-Serif" font-size="14.00">mfem::NCMesh::Node</text>
</a>
</g>
</g>
<!-- Node4&#45;&gt;Node3 -->
<g id="edge4" class="edge"><title>Node4&#45;&gt;Node3</title>
<path fill="none" stroke="#9a32cd" stroke-dasharray="5,2" d="M285.739,-231.186C240.62,-216.081 169.313,-192.209 128.486,-178.541"/>
<polygon fill="#9a32cd" stroke="#9a32cd" points="284.908,-234.599 295.502,-234.455 287.13,-227.961 284.908,-234.599"/>
<text text-anchor="middle" x="260.5" y="-204.3" font-family="Helvetica,sans-Serif" font-size="14.00"> node</text>
</g>
<!-- Node5 -->
<g id="node5" class="node"><title>Node5</title>
<g id="a_node5"><a xlink:href="structmfem_1_1Hashed2.html" target="_top" xlink:title="mfem::Hashed2\&lt; Node \&gt;">
<polygon fill="white" stroke="black" points="278,-155.5 278,-178.5 480,-178.5 480,-155.5 278,-155.5"/>
<text text-anchor="middle" x="379" y="-163.3" font-family="Helvetica,sans-Serif" font-size="14.00">mfem::Hashed2&lt; Node &gt;</text>
</a>
</g>
</g>
<!-- Node4&#45;&gt;Node5 -->
<g id="edge6" class="edge"><title>Node4&#45;&gt;Node5</title>
<path fill="none" stroke="#9a32cd" stroke-dasharray="5,2" d="M320.892,-224.411C319.662,-216.329 319.82,-207.268 324,-200 329.453,-190.519 338.913,-183.586 348.466,-178.647"/>
<polygon fill="#9a32cd" stroke="#9a32cd" points="317.492,-225.243 323.088,-234.239 324.323,-223.717 317.492,-225.243"/>
<text text-anchor="middle" x="342.5" y="-204.3" font-family="Helvetica,sans-Serif" font-size="14.00"> next</text>
</g>
<!-- Node5&#45;&gt;Node4 -->
<g id="edge5" class="edge"><title>Node5&#45;&gt;Node4</title>
<path fill="none" stroke="midnightblue" d="M375.933,-188.789C373.887,-197.734 370.517,-207.96 365,-216 360.023,-223.254 352.653,-229.472 345.724,-234.269"/>
<polygon fill="midnightblue" stroke="midnightblue" points="379.414,-189.22 377.827,-178.745 372.535,-187.923 379.414,-189.22"/>
</g>
<!-- Node6 -->
<g id="node6" class="node"><title>Node6</title>
<g id="a_node6"><a xlink:href="structmfem_1_1NCMesh_1_1Edge.html" target="_top" xlink:title="mfem::NCMesh::Edge">
<polygon fill="white" stroke="red" points="144.5,-310.5 144.5,-333.5 315.5,-333.5 315.5,-310.5 144.5,-310.5"/>
<text text-anchor="middle" x="230" y="-318.3" font-family="Helvetica,sans-Serif" font-size="14.00">mfem::NCMesh::Edge</text>
</a>
</g>
</g>
<!-- Node6&#45;&gt;Node4 -->
<g id="edge7" class="edge"><title>Node6&#45;&gt;Node4</title>
<path fill="none" stroke="#9a32cd" stroke-dasharray="5,2" d="M251.916,-304.28C270.688,-289.959 297.149,-269.773 313.128,-257.583"/>
<polygon fill="#9a32cd" stroke="#9a32cd" points="249.725,-301.549 243.898,-310.398 253.971,-307.115 249.725,-301.549"/>
<text text-anchor="middle" x="308.5" y="-280.3" font-family="Helvetica,sans-Serif" font-size="14.00"> edge</text>
</g>
<!-- Node7 -->
<g id="node7" class="node"><title>Node7</title>
<g id="a_node7"><a xlink:href="structmfem_1_1NCMesh_1_1Vertex.html" target="_top" xlink:title="mfem::NCMesh::Vertex">
<polygon fill="white" stroke="red" points="334,-310.5 334,-333.5 516,-333.5 516,-310.5 334,-310.5"/>
<text text-anchor="middle" x="425" y="-318.3" font-family="Helvetica,sans-Serif" font-size="14.00">mfem::NCMesh::Vertex</text>
</a>
</g>
</g>
<!-- Node7&#45;&gt;Node4 -->
<g id="edge8" class="edge"><title>Node7&#45;&gt;Node4</title>
<path fill="none" stroke="#9a32cd" stroke-dasharray="5,2" d="M402.858,-304.28C383.892,-289.959 357.159,-269.773 341.015,-257.583"/>
<polygon fill="#9a32cd" stroke="#9a32cd" points="400.869,-307.165 410.959,-310.398 405.088,-301.578 400.869,-307.165"/>
<text text-anchor="middle" x="410.5" y="-280.3" font-family="Helvetica,sans-Serif" font-size="14.00"> vertex</text>
</g>
<!-- Node8 -->
<g id="node8" class="node"><title>Node8</title>
<g id="a_node8"><a xlink:href="classmfem_1_1DenseMatrix.html" target="_top" xlink:title="Data type dense matrix using column&#45;major storage. ">
<polygon fill="white" stroke="black" points="392,-76.5 392,-99.5 550,-99.5 550,-76.5 392,-76.5"/>
<text text-anchor="middle" x="471" y="-84.3" font-family="Helvetica,sans-Serif" font-size="14.00">mfem::DenseMatrix</text>
</a>
</g>
</g>
<!-- Node8&#45;&gt;Node1 -->
<g id="edge9" class="edge"><title>Node8&#45;&gt;Node1</title>
<path fill="none" stroke="#9a32cd" stroke-dasharray="5,2" d="M451.609,-69.5006C435.801,-55.2346 413.992,-35.5536 400.727,-23.5827"/>
<polygon fill="#9a32cd" stroke="#9a32cd" points="449.483,-72.2963 459.251,-76.3976 454.172,-67.0995 449.483,-72.2963"/>
<text text-anchor="middle" x="485.5" y="-46.3" font-family="Helvetica,sans-Serif" font-size="14.00"> point_matrix</text>
</g>
<!-- Node9 -->
<g id="node9" class="node"><title>Node9</title>
<g id="a_node9"><a xlink:href="classmfem_1_1Matrix.html" target="_top" xlink:title="Abstract data type matrix. ">
<polygon fill="white" stroke="black" points="498.5,-155.5 498.5,-178.5 611.5,-178.5 611.5,-155.5 498.5,-155.5"/>
<text text-anchor="middle" x="555" y="-163.3" font-family="Helvetica,sans-Serif" font-size="14.00">mfem::Matrix</text>
</a>
</g>
</g>
<!-- Node9&#45;&gt;Node8 -->
<g id="edge10" class="edge"><title>Node9&#45;&gt;Node8</title>
<path fill="none" stroke="midnightblue" d="M535.87,-148.464C519.452,-133.415 496.327,-112.217 482.581,-99.6156"/>
<polygon fill="midnightblue" stroke="midnightblue" points="533.584,-151.116 543.32,-155.293 538.314,-145.956 533.584,-151.116"/>
</g>
<!-- Node10 -->
<g id="node10" class="node"><title>Node10</title>
<g id="a_node10"><a xlink:href="classmfem_1_1Operator.html" target="_top" xlink:title="Abstract operator. ">
<polygon fill="white" stroke="black" points="488.5,-234.5 488.5,-257.5 621.5,-257.5 621.5,-234.5 488.5,-234.5"/>
<text text-anchor="middle" x="555" y="-242.3" font-family="Helvetica,sans-Serif" font-size="14.00">mfem::Operator</text>
</a>
</g>
</g>
<!-- Node10&#45;&gt;Node9 -->
<g id="edge11" class="edge"><title>Node10&#45;&gt;Node9</title>
<path fill="none" stroke="midnightblue" d="M555,-224.089C555,-209.377 555,-190.3 555,-178.616"/>
<polygon fill="midnightblue" stroke="midnightblue" points="551.5,-224.293 555,-234.293 558.5,-224.294 551.5,-224.293"/>
</g>
</g>
</svg>
