<?xml version="1.0" encoding="UTF-8" standalone="no"?>
<!DOCTYPE svg PUBLIC "-//W3C//DTD SVG 1.1//EN"
 "http://www.w3.org/Graphics/SVG/1.1/DTD/svg11.dtd">
<!-- Generated by graphviz version 2.30.1 (20200304.1809)
 -->
<!-- Title: mfem::NCMesh::Node Pages: 1 -->
<svg width="379pt" height="246pt"
 viewBox="0.00 0.00 379.00 246.00" xmlns="http://www.w3.org/2000/svg" xmlns:xlink="http://www.w3.org/1999/xlink">
<g id="graph0" class="graph" transform="scale(1 1) rotate(0) translate(4 242)">
<title>mfem::NCMesh::Node</title>
<polygon fill="white" stroke="white" points="-4,5 -4,-242 376,-242 376,5 -4,5"/>
<!-- Node1 -->
<g id="node1" class="node"><title>Node1</title>
<polygon fill="#bfbfbf" stroke="black" points="63.5,-76.5 63.5,-99.5 236.5,-99.5 236.5,-76.5 63.5,-76.5"/>
<text text-anchor="middle" x="150" y="-84.3" font-family="Helvetica,sans-Serif" font-size="14.00">mfem::NCMesh::Node</text>
</g>
<!-- Node2 -->
<g id="node2" class="node"><title>Node2</title>
<g id="a_node2"><a xlink:href="structmfem_1_1Hashed2.html" target="_top" xlink:title="mfem::Hashed2\&lt; Node \&gt;">
<polygon fill="white" stroke="black" points="49,-0.5 49,-23.5 251,-23.5 251,-0.5 49,-0.5"/>
<text text-anchor="middle" x="150" y="-8.3" font-family="Helvetica,sans-Serif" font-size="14.00">mfem::Hashed2&lt; Node &gt;</text>
</a>
</g>
</g>
<!-- Node1&#45;&gt;Node2 -->
<g id="edge2" class="edge"><title>Node1&#45;&gt;Node2</title>
<path fill="none" stroke="#9a32cd" stroke-dasharray="5,2" d="M128.013,-69.0981C125.158,-65.7289 122.655,-61.9962 121,-58 118.279,-51.4302 118.279,-48.5698 121,-42 123.943,-34.8956 129.564,-28.6241 135.08,-23.7473"/>
<polygon fill="#9a32cd" stroke="#9a32cd" points="125.562,-71.5978 135.08,-76.2527 130.543,-66.6786 125.562,-71.5978"/>
<text text-anchor="middle" x="139.5" y="-46.3" font-family="Helvetica,sans-Serif" font-size="14.00"> next</text>
</g>
<!-- Node2&#45;&gt;Node1 -->
<g id="edge1" class="edge"><title>Node2&#45;&gt;Node1</title>
<path fill="none" stroke="midnightblue" d="M159.478,-33.0736C160.519,-36.0115 161.413,-39.044 162,-42 163.386,-48.9747 163.386,-51.0253 162,-58 160.747,-64.3062 158.099,-70.9603 155.609,-76.3018"/>
<polygon fill="midnightblue" stroke="midnightblue" points="162.659,-31.6067 155.609,-23.6982 156.189,-34.2772 162.659,-31.6067"/>
</g>
<!-- Node3 -->
<g id="node3" class="node"><title>Node3</title>
<g id="a_node3"><a xlink:href="structmfem_1_1NCMesh_1_1Edge.html" target="_top" xlink:title="mfem::NCMesh::Edge">
<polygon fill="white" stroke="black" points="-0.5,-152.5 -0.5,-175.5 170.5,-175.5 170.5,-152.5 -0.5,-152.5"/>
<text text-anchor="middle" x="85" y="-160.3" font-family="Helvetica,sans-Serif" font-size="14.00">mfem::NCMesh::Edge</text>
</a>
</g>
</g>
<!-- Node3&#45;&gt;Node1 -->
<g id="edge3" class="edge"><title>Node3&#45;&gt;Node1</title>
<path fill="none" stroke="#9a32cd" stroke-dasharray="5,2" d="M101.066,-144.71C113.534,-130.515 130.382,-111.334 140.704,-99.5827"/>
<polygon fill="#9a32cd" stroke="#9a32cd" points="98.2827,-142.575 94.3129,-152.398 103.542,-147.194 98.2827,-142.575"/>
<text text-anchor="middle" x="144.5" y="-122.3" font-family="Helvetica,sans-Serif" font-size="14.00"> edge</text>
</g>
<!-- Node4 -->
<g id="node4" class="node"><title>Node4</title>
<g id="a_node4"><a xlink:href="structmfem_1_1NCMesh_1_1RefCount.html" target="_top" xlink:title="mfem::NCMesh::RefCount">
<polygon fill="white" stroke="black" points="103,-214.5 103,-237.5 303,-237.5 303,-214.5 103,-214.5"/>
<text text-anchor="middle" x="203" y="-222.3" font-family="Helvetica,sans-Serif" font-size="14.00">mfem::NCMesh::RefCount</text>
</a>
</g>
</g>
<!-- Node4&#45;&gt;Node3 -->
<g id="edge4" class="edge"><title>Node4&#45;&gt;Node3</title>
<path fill="none" stroke="midnightblue" d="M173.066,-209.779C152.121,-199.13 124.663,-185.167 106.013,-175.685"/>
<polygon fill="midnightblue" stroke="midnightblue" points="171.675,-212.999 182.176,-214.411 174.848,-206.759 171.675,-212.999"/>
</g>
<!-- Node5 -->
<g id="node5" class="node"><title>Node5</title>
<g id="a_node5"><a xlink:href="structmfem_1_1NCMesh_1_1Vertex.html" target="_top" xlink:title="mfem::NCMesh::Vertex">
<polygon fill="white" stroke="black" points="189,-152.5 189,-175.5 371,-175.5 371,-152.5 189,-152.5"/>
<text text-anchor="middle" x="280" y="-160.3" font-family="Helvetica,sans-Serif" font-size="14.00">mfem::NCMesh::Vertex</text>
</a>
</g>
</g>
<!-- Node4&#45;&gt;Node5 -->
<g id="edge6" class="edge"><title>Node4&#45;&gt;Node5</title>
<path fill="none" stroke="midnightblue" d="M224.968,-207.882C238.298,-197.495 254.891,-184.565 266.353,-175.634"/>
<polygon fill="midnightblue" stroke="midnightblue" points="222.503,-205.366 216.766,-214.273 226.805,-210.887 222.503,-205.366"/>
</g>
<!-- Node5&#45;&gt;Node1 -->
<g id="edge5" class="edge"><title>Node5&#45;&gt;Node1</title>
<path fill="none" stroke="#9a32cd" stroke-dasharray="5,2" d="M252.644,-147.428C227.397,-133.056 190.586,-112.103 168.591,-99.5827"/>
<polygon fill="#9a32cd" stroke="#9a32cd" points="250.952,-150.492 261.374,-152.398 254.415,-144.409 250.952,-150.492"/>
<text text-anchor="middle" x="251.5" y="-122.3" font-family="Helvetica,sans-Serif" font-size="14.00"> vertex</text>
</g>
</g>
</svg>
