<?xml version="1.0" encoding="UTF-8" standalone="no"?>
<!DOCTYPE svg PUBLIC "-//W3C//DTD SVG 1.1//EN"
 "http://www.w3.org/Graphics/SVG/1.1/DTD/svg11.dtd">
<!-- Generated by graphviz version 2.30.1 (20200304.1809)
 -->
<!-- Title: mfem::TMOP_Metric_332 Pages: 1 -->
<svg width="2488pt" height="192pt"
 viewBox="0.00 0.00 2488.00 192.00" xmlns="http://www.w3.org/2000/svg" xmlns:xlink="http://www.w3.org/1999/xlink">
<g id="graph0" class="graph" transform="scale(1 1) rotate(0) translate(4 188)">
<title>mfem::TMOP_Metric_332</title>
<polygon fill="white" stroke="white" points="-4,5 -4,-188 2485,-188 2485,5 -4,5"/>
<!-- Node1 -->
<g id="node1" class="node"><title>Node1</title>
<polygon fill="#bfbfbf" stroke="black" points="2286,-19.5 2286,-42.5 2480,-42.5 2480,-19.5 2286,-19.5"/>
<text text-anchor="middle" x="2383" y="-27.3" font-family="Helvetica,sans-Serif" font-size="14.00">mfem::TMOP_Metric_332</text>
</g>
<!-- Node2 -->
<g id="node2" class="node"><title>Node2</title>
<g id="a_node2"><a xlink:href="classmfem_1_1TMOP__Combo__QualityMetric.html" target="_top" xlink:title="Abstract class used to define combination of metrics with constant coefficients. ">
<polygon fill="white" stroke="black" points="2022.5,-82 2022.5,-120 2247.5,-120 2247.5,-82 2022.5,-82"/>
<text text-anchor="start" x="2030.5" y="-104.8" font-family="Helvetica,sans-Serif" font-size="14.00">mfem::TMOP_Combo_Quality</text>
<text text-anchor="middle" x="2135" y="-89.8" font-family="Helvetica,sans-Serif" font-size="14.00">Metric</text>
</a>
</g>
</g>
<!-- Node2&#45;&gt;Node1 -->
<g id="edge1" class="edge"><title>Node2&#45;&gt;Node1</title>
<path fill="none" stroke="midnightblue" d="M2212.67,-79.1834C2255.22,-67.0752 2306.44,-52.5016 2341.32,-42.5752"/>
<polygon fill="midnightblue" stroke="midnightblue" points="2211.56,-75.8613 2202.9,-81.9647 2213.47,-82.5941 2211.56,-75.8613"/>
</g>
<!-- Node3 -->
<g id="node3" class="node"><title>Node3</title>
<g id="a_node3"><a xlink:href="classmfem_1_1TMOP__QualityMetric.html" target="_top" xlink:title="Abstract class for local mesh quality metrics in the target&#45;matrix optimization paradigm (TMOP) by P...">
<polygon fill="white" stroke="black" points="1136,-56.5 1136,-79.5 1346,-79.5 1346,-56.5 1136,-56.5"/>
<text text-anchor="middle" x="1241" y="-64.3" font-family="Helvetica,sans-Serif" font-size="14.00">mfem::TMOP_QualityMetric</text>
</a>
</g>
</g>
<!-- Node3&#45;&gt;Node2 -->
<g id="edge2" class="edge"><title>Node3&#45;&gt;Node2</title>
<path fill="none" stroke="midnightblue" d="M1312.59,-81.286C1346.2,-86.9877 1387.04,-93.0164 1424,-96 1635.02,-113.033 1882.47,-109.462 2022.49,-105.266"/>
<polygon fill="midnightblue" stroke="midnightblue" points="1312.86,-77.78 1302.41,-79.5308 1311.67,-84.6783 1312.86,-77.78"/>
</g>
<!-- Node13 -->
<g id="node13" class="node"><title>Node13</title>
<g id="a_node13"><a xlink:href="classmfem_1_1Memory.html" target="_top" xlink:title="mfem::Memory\&lt; mfem\l::TMOP_QualityMetric * \&gt;">
<polygon fill="white" stroke="black" points="1431,-49 1431,-87 1627,-87 1627,-49 1431,-49"/>
<text text-anchor="start" x="1439" y="-71.8" font-family="Helvetica,sans-Serif" font-size="14.00">mfem::Memory&lt; mfem</text>
<text text-anchor="middle" x="1529" y="-56.8" font-family="Helvetica,sans-Serif" font-size="14.00">::TMOP_QualityMetric * &gt;</text>
</a>
</g>
</g>
<!-- Node3&#45;&gt;Node13 -->
<g id="edge14" class="edge"><title>Node3&#45;&gt;Node13</title>
<path fill="none" stroke="#9a32cd" stroke-dasharray="5,2" d="M1356.18,-68C1380.86,-68 1406.72,-68 1430.68,-68"/>
<polygon fill="#9a32cd" stroke="#9a32cd" points="1356.06,-64.5001 1346.06,-68 1356.06,-71.5001 1356.06,-64.5001"/>
<text text-anchor="middle" x="1385" y="-71.8" font-family="Helvetica,sans-Serif" font-size="14.00"> h_ptr</text>
</g>
<!-- Node3&#45;&gt;Node1 -->
<g id="edge15" class="edge"><title>Node3&#45;&gt;Node1</title>
<path fill="none" stroke="#9a32cd" stroke-dasharray="5,2" d="M1280.24,-52.8835C1334.46,-32.8478 1437.19,-0 1528,-0 1528,-0 1528,-0 2136,-0 2200.57,-0 2273.93,-10.643 2323.61,-19.4567"/>
<polygon fill="#9a32cd" stroke="#9a32cd" points="1278.83,-49.675 1270.69,-56.4647 1281.29,-56.2289 1278.83,-49.675"/>
<text text-anchor="middle" x="1803" y="-18.8" font-family="Helvetica,sans-Serif" font-size="14.00"> sh_metric</text>
<text text-anchor="middle" x="1803" y="-3.8" font-family="Helvetica,sans-Serif" font-size="14.00">sz_metric</text>
</g>
<!-- Node4 -->
<g id="node4" class="node"><title>Node4</title>
<g id="a_node4"><a xlink:href="classmfem_1_1HyperelasticModel.html" target="_top" xlink:title="Abstract class for hyperelastic models. ">
<polygon fill="white" stroke="black" points="898,-84.5 898,-107.5 1098,-107.5 1098,-84.5 898,-84.5"/>
<text text-anchor="middle" x="998" y="-92.3" font-family="Helvetica,sans-Serif" font-size="14.00">mfem::HyperelasticModel</text>
</a>
</g>
</g>
<!-- Node4&#45;&gt;Node3 -->
<g id="edge3" class="edge"><title>Node4&#45;&gt;Node3</title>
<path fill="none" stroke="midnightblue" d="M1108.07,-83.3275C1119.02,-82.0557 1130.09,-80.7692 1140.93,-79.5104"/>
<polygon fill="midnightblue" stroke="midnightblue" points="1107.6,-79.8593 1098.07,-84.4901 1108.4,-86.8126 1107.6,-79.8593"/>
</g>
<!-- Node5 -->
<g id="node5" class="node"><title>Node5</title>
<g id="a_node5"><a xlink:href="classmfem_1_1ElementTransformation.html" target="_top" xlink:title="mfem::ElementTransformation">
<polygon fill="white" stroke="black" points="600,-84.5 600,-107.5 836,-107.5 836,-84.5 600,-84.5"/>
<text text-anchor="middle" x="718" y="-92.3" font-family="Helvetica,sans-Serif" font-size="14.00">mfem::ElementTransformation</text>
</a>
</g>
</g>
<!-- Node5&#45;&gt;Node4 -->
<g id="edge4" class="edge"><title>Node5&#45;&gt;Node4</title>
<path fill="none" stroke="#9a32cd" stroke-dasharray="5,2" d="M846.215,-96C863.47,-96 880.969,-96 897.638,-96"/>
<polygon fill="#9a32cd" stroke="#9a32cd" points="846.091,-92.5001 836.091,-96 846.091,-99.5001 846.091,-92.5001"/>
<text text-anchor="middle" x="867" y="-99.8" font-family="Helvetica,sans-Serif" font-size="14.00"> Ttr</text>
</g>
<!-- Node6 -->
<g id="node6" class="node"><title>Node6</title>
<g id="a_node6"><a xlink:href="classmfem_1_1IntegrationPoint.html" target="_top" xlink:title="Class for integration point with weight. ">
<polygon fill="white" stroke="black" points="324,-160.5 324,-183.5 506,-183.5 506,-160.5 324,-160.5"/>
<text text-anchor="middle" x="415" y="-168.3" font-family="Helvetica,sans-Serif" font-size="14.00">mfem::IntegrationPoint</text>
</a>
</g>
</g>
<!-- Node6&#45;&gt;Node5 -->
<g id="edge5" class="edge"><title>Node6&#45;&gt;Node5</title>
<path fill="none" stroke="#9a32cd" stroke-dasharray="5,2" d="M516.344,-162.789C538.185,-159.652 561.026,-155.493 582,-150 622.292,-139.448 666.727,-120.066 693.226,-107.619"/>
<polygon fill="#9a32cd" stroke="#9a32cd" points="515.818,-159.328 506.389,-164.16 516.773,-166.263 515.818,-159.328"/>
<text text-anchor="middle" x="553" y="-164.8" font-family="Helvetica,sans-Serif" font-size="14.00"> IntPoint</text>
</g>
<!-- Node7 -->
<g id="node7" class="node"><title>Node7</title>
<g id="a_node7"><a xlink:href="classmfem_1_1DenseMatrix.html" target="_top" xlink:title="Data type dense matrix using column&#45;major storage. ">
<polygon fill="white" stroke="black" points="336,-61.5 336,-84.5 494,-84.5 494,-61.5 336,-61.5"/>
<text text-anchor="middle" x="415" y="-69.3" font-family="Helvetica,sans-Serif" font-size="14.00">mfem::DenseMatrix</text>
</a>
</g>
</g>
<!-- Node7&#45;&gt;Node5 -->
<g id="edge6" class="edge"><title>Node7&#45;&gt;Node5</title>
<path fill="none" stroke="#9a32cd" stroke-dasharray="5,2" d="M504.287,-79.7462C534.218,-82.0333 568.133,-84.6248 599.947,-87.0558"/>
<polygon fill="#9a32cd" stroke="#9a32cd" points="504.536,-76.2551 494.298,-78.9829 504.003,-83.2348 504.536,-76.2551"/>
<text text-anchor="middle" x="553" y="-134.8" font-family="Helvetica,sans-Serif" font-size="14.00"> adjJ</text>
<text text-anchor="middle" x="553" y="-119.8" font-family="Helvetica,sans-Serif" font-size="14.00">dFdx</text>
<text text-anchor="middle" x="553" y="-104.8" font-family="Helvetica,sans-Serif" font-size="14.00">d2Fdx2</text>
<text text-anchor="middle" x="553" y="-89.8" font-family="Helvetica,sans-Serif" font-size="14.00">invJ</text>
</g>
<!-- Node7&#45;&gt;Node3 -->
<g id="edge9" class="edge"><title>Node7&#45;&gt;Node3</title>
<path fill="none" stroke="#9a32cd" stroke-dasharray="5,2" d="M504.575,-72.4625C657.921,-71.532 972.105,-69.6256 1135.73,-68.6327"/>
<polygon fill="#9a32cd" stroke="#9a32cd" points="504.241,-68.9644 494.263,-72.5251 504.284,-75.9643 504.241,-68.9644"/>
<text text-anchor="middle" x="867" y="-74.8" font-family="Helvetica,sans-Serif" font-size="14.00"> Jtr</text>
</g>
<!-- Node8 -->
<g id="node8" class="node"><title>Node8</title>
<g id="a_node8"><a xlink:href="classmfem_1_1Matrix.html" target="_top" xlink:title="Abstract data type matrix. ">
<polygon fill="white" stroke="black" points="172.5,-61.5 172.5,-84.5 285.5,-84.5 285.5,-61.5 172.5,-61.5"/>
<text text-anchor="middle" x="229" y="-69.3" font-family="Helvetica,sans-Serif" font-size="14.00">mfem::Matrix</text>
</a>
</g>
</g>
<!-- Node8&#45;&gt;Node7 -->
<g id="edge7" class="edge"><title>Node8&#45;&gt;Node7</title>
<path fill="none" stroke="midnightblue" d="M295.883,-73C308.801,-73 322.467,-73 335.743,-73"/>
<polygon fill="midnightblue" stroke="midnightblue" points="295.705,-69.5001 285.705,-73 295.705,-76.5001 295.705,-69.5001"/>
</g>
<!-- Node9 -->
<g id="node9" class="node"><title>Node9</title>
<g id="a_node9"><a xlink:href="classmfem_1_1Operator.html" target="_top" xlink:title="Abstract operator. ">
<polygon fill="white" stroke="black" points="0.5,-61.5 0.5,-84.5 133.5,-84.5 133.5,-61.5 0.5,-61.5"/>
<text text-anchor="middle" x="67" y="-69.3" font-family="Helvetica,sans-Serif" font-size="14.00">mfem::Operator</text>
</a>
</g>
</g>
<!-- Node9&#45;&gt;Node8 -->
<g id="edge8" class="edge"><title>Node9&#45;&gt;Node8</title>
<path fill="none" stroke="midnightblue" d="M143.564,-73C153.237,-73 162.996,-73 172.274,-73"/>
<polygon fill="midnightblue" stroke="midnightblue" points="143.54,-69.5001 133.54,-73 143.54,-76.5001 143.54,-69.5001"/>
</g>
<!-- Node10 -->
<g id="node10" class="node"><title>Node10</title>
<g id="a_node10"><a xlink:href="classmfem_1_1Array.html" target="_top" xlink:title="mfem::Array\&lt; double \&gt;">
<polygon fill="white" stroke="black" points="1708.5,-144.5 1708.5,-167.5 1897.5,-167.5 1897.5,-144.5 1708.5,-144.5"/>
<text text-anchor="middle" x="1803" y="-152.3" font-family="Helvetica,sans-Serif" font-size="14.00">mfem::Array&lt; double &gt;</text>
</a>
</g>
</g>
<!-- Node10&#45;&gt;Node2 -->
<g id="edge10" class="edge"><title>Node10&#45;&gt;Node2</title>
<path fill="none" stroke="#9a32cd" stroke-dasharray="5,2" d="M1907.6,-144.339C1938.69,-140.353 1972.81,-135.495 2004,-130 2020.28,-127.131 2037.61,-123.603 2054.13,-120.007"/>
<polygon fill="#9a32cd" stroke="#9a32cd" points="1907.1,-140.873 1897.62,-145.601 1907.98,-147.818 1907.1,-140.873"/>
<text text-anchor="middle" x="1960" y="-147.8" font-family="Helvetica,sans-Serif" font-size="14.00"> wt_arr</text>
</g>
<!-- Node11 -->
<g id="node11" class="node"><title>Node11</title>
<g id="a_node11"><a xlink:href="classmfem_1_1Memory.html" target="_top" xlink:title="mfem::Memory\&lt; double \&gt;">
<polygon fill="white" stroke="black" points="1424.5,-144.5 1424.5,-167.5 1633.5,-167.5 1633.5,-144.5 1424.5,-144.5"/>
<text text-anchor="middle" x="1529" y="-152.3" font-family="Helvetica,sans-Serif" font-size="14.00">mfem::Memory&lt; double &gt;</text>
</a>
</g>
</g>
<!-- Node11&#45;&gt;Node10 -->
<g id="edge11" class="edge"><title>Node11&#45;&gt;Node10</title>
<path fill="none" stroke="#9a32cd" stroke-dasharray="5,2" d="M1643.78,-156C1665.34,-156 1687.65,-156 1708.49,-156"/>
<polygon fill="#9a32cd" stroke="#9a32cd" points="1643.61,-152.5 1633.61,-156 1643.61,-159.5 1643.61,-152.5"/>
<text text-anchor="middle" x="1671" y="-159.8" font-family="Helvetica,sans-Serif" font-size="14.00"> data</text>
</g>
<!-- Node12 -->
<g id="node12" class="node"><title>Node12</title>
<g id="a_node12"><a xlink:href="classmfem_1_1Array.html" target="_top" xlink:title="mfem::Array\&lt; mfem::\lTMOP_QualityMetric * \&gt;">
<polygon fill="white" stroke="black" points="1709.5,-49 1709.5,-87 1896.5,-87 1896.5,-49 1709.5,-49"/>
<text text-anchor="start" x="1717.5" y="-71.8" font-family="Helvetica,sans-Serif" font-size="14.00">mfem::Array&lt; mfem::</text>
<text text-anchor="middle" x="1803" y="-56.8" font-family="Helvetica,sans-Serif" font-size="14.00">TMOP_QualityMetric * &gt;</text>
</a>
</g>
</g>
<!-- Node12&#45;&gt;Node2 -->
<g id="edge12" class="edge"><title>Node12&#45;&gt;Node2</title>
<path fill="none" stroke="#9a32cd" stroke-dasharray="5,2" d="M1906.66,-77.5029C1937.92,-80.464 1972.37,-83.795 2004,-87 2009.98,-87.6065 2016.12,-88.2375 2022.32,-88.8813"/>
<polygon fill="#9a32cd" stroke="#9a32cd" points="1906.91,-74.0114 1896.63,-76.5551 1906.25,-80.9804 1906.91,-74.0114"/>
<text text-anchor="middle" x="1960" y="-90.8" font-family="Helvetica,sans-Serif" font-size="14.00"> tmop_q_arr</text>
</g>
<!-- Node13&#45;&gt;Node12 -->
<g id="edge13" class="edge"><title>Node13&#45;&gt;Node12</title>
<path fill="none" stroke="#9a32cd" stroke-dasharray="5,2" d="M1637.15,-68C1660.93,-68 1685.94,-68 1709.09,-68"/>
<polygon fill="#9a32cd" stroke="#9a32cd" points="1637.05,-64.5001 1627.05,-68 1637.05,-71.5001 1637.05,-64.5001"/>
<text text-anchor="middle" x="1671" y="-71.8" font-family="Helvetica,sans-Serif" font-size="14.00"> data</text>
</g>
</g>
</svg>
