<?xml version="1.0" encoding="UTF-8" standalone="no"?>
<!DOCTYPE svg PUBLIC "-//W3C//DTD SVG 1.1//EN"
 "http://www.w3.org/Graphics/SVG/1.1/DTD/svg11.dtd">
<!-- Generated by graphviz version 2.30.1 (20200304.1809)
 -->
<!-- Title: mfem::FiniteElement Pages: 1 -->
<svg width="589pt" height="658pt"
 viewBox="0.00 0.00 589.00 658.00" xmlns="http://www.w3.org/2000/svg" xmlns:xlink="http://www.w3.org/1999/xlink">
<g id="graph0" class="graph" transform="scale(1 1) rotate(0) translate(4 654)">
<title>mfem::FiniteElement</title>
<polygon fill="white" stroke="white" points="-4,5 -4,-654 586,-654 586,5 -4,5"/>
<!-- Node1 -->
<g id="node1" class="node"><title>Node1</title>
<polygon fill="#bfbfbf" stroke="black" points="74,-304.5 74,-327.5 240,-327.5 240,-304.5 74,-304.5"/>
<text text-anchor="middle" x="157" y="-312.3" font-family="Helvetica,sans-Serif" font-size="14.00">mfem::FiniteElement</text>
</g>
<!-- Node8 -->
<g id="node8" class="node"><title>Node8</title>
<g id="a_node8"><a xlink:href="classmfem_1_1DofToQuad.html" target="_top" xlink:title="Structure representing the matrices/tensors needed to evaluate (in reference space) the values...">
<polygon fill="white" stroke="black" points="216,-184.5 216,-207.5 364,-207.5 364,-184.5 216,-184.5"/>
<text text-anchor="middle" x="290" y="-192.3" font-family="Helvetica,sans-Serif" font-size="14.00">mfem::DofToQuad</text>
</a>
</g>
</g>
<!-- Node1&#45;&gt;Node8 -->
<g id="edge11" class="edge"><title>Node1&#45;&gt;Node8</title>
<path fill="none" stroke="#9a32cd" stroke-dasharray="5,2" d="M174.481,-297.243C192.933,-278.793 223.146,-249.401 251,-226 258.623,-219.596 267.505,-212.934 274.865,-207.613"/>
<polygon fill="#9a32cd" stroke="#9a32cd" points="171.904,-294.872 167.335,-304.431 176.868,-299.807 171.904,-294.872"/>
<text text-anchor="middle" x="262" y="-252.3" font-family="Helvetica,sans-Serif" font-size="14.00"> FE</text>
</g>
<!-- Node2 -->
<g id="node2" class="node"><title>Node2</title>
<g id="a_node2"><a xlink:href="classmfem_1_1IntegrationRule.html" target="_top" xlink:title="Class for an integration rule &#45; an Array of IntegrationPoint. ">
<polygon fill="white" stroke="black" points="176,-380.5 176,-403.5 354,-403.5 354,-380.5 176,-380.5"/>
<text text-anchor="middle" x="265" y="-388.3" font-family="Helvetica,sans-Serif" font-size="14.00">mfem::IntegrationRule</text>
</a>
</g>
</g>
<!-- Node2&#45;&gt;Node1 -->
<g id="edge1" class="edge"><title>Node2&#45;&gt;Node1</title>
<path fill="none" stroke="#9a32cd" stroke-dasharray="5,2" d="M241.161,-374.666C220.229,-360.324 190.397,-339.883 172.445,-327.583"/>
<polygon fill="#9a32cd" stroke="#9a32cd" points="239.299,-377.633 249.526,-380.398 243.255,-371.858 239.299,-377.633"/>
<text text-anchor="middle" x="246" y="-350.3" font-family="Helvetica,sans-Serif" font-size="14.00"> Nodes</text>
</g>
<!-- Node2&#45;&gt;Node8 -->
<g id="edge8" class="edge"><title>Node2&#45;&gt;Node8</title>
<path fill="none" stroke="#9a32cd" stroke-dasharray="5,2" d="M271.094,-370.563C271.812,-367.705 272.475,-364.791 273,-362 283.859,-304.266 288.207,-233.769 289.525,-207.512"/>
<polygon fill="#9a32cd" stroke="#9a32cd" points="267.677,-369.787 268.394,-380.357 274.425,-371.647 267.677,-369.787"/>
<text text-anchor="middle" x="308.5" y="-312.3" font-family="Helvetica,sans-Serif" font-size="14.00"> IntRule</text>
</g>
<!-- Node3 -->
<g id="node3" class="node"><title>Node3</title>
<g id="a_node3"><a xlink:href="classmfem_1_1Array.html" target="_top" xlink:title="mfem::Array\&lt; Integration\lPoint \&gt;">
<polygon fill="white" stroke="black" points="164.5,-443 164.5,-481 367.5,-481 367.5,-443 164.5,-443"/>
<text text-anchor="start" x="172.5" y="-465.8" font-family="Helvetica,sans-Serif" font-size="14.00">mfem::Array&lt; Integration</text>
<text text-anchor="middle" x="266" y="-450.8" font-family="Helvetica,sans-Serif" font-size="14.00">Point &gt;</text>
</a>
</g>
</g>
<!-- Node3&#45;&gt;Node2 -->
<g id="edge2" class="edge"><title>Node3&#45;&gt;Node2</title>
<path fill="none" stroke="midnightblue" d="M265.582,-432.599C265.433,-422.442 265.274,-411.6 265.159,-403.834"/>
<polygon fill="midnightblue" stroke="midnightblue" points="262.085,-432.83 265.732,-442.777 269.085,-432.727 262.085,-432.83"/>
</g>
<!-- Node4 -->
<g id="node4" class="node"><title>Node4</title>
<g id="a_node4"><a xlink:href="classmfem_1_1Memory.html" target="_top" xlink:title="mfem::Memory\&lt; Integration\lPoint \&gt;">
<polygon fill="white" stroke="black" points="161,-535 161,-573 383,-573 383,-535 161,-535"/>
<text text-anchor="start" x="169" y="-557.8" font-family="Helvetica,sans-Serif" font-size="14.00">mfem::Memory&lt; Integration</text>
<text text-anchor="middle" x="272" y="-542.8" font-family="Helvetica,sans-Serif" font-size="14.00">Point &gt;</text>
</a>
</g>
</g>
<!-- Node4&#45;&gt;Node3 -->
<g id="edge3" class="edge"><title>Node4&#45;&gt;Node3</title>
<path fill="none" stroke="#9a32cd" stroke-dasharray="5,2" d="M270.103,-524.548C269.157,-510.36 268.041,-493.622 267.212,-481.186"/>
<polygon fill="#9a32cd" stroke="#9a32cd" points="266.628,-525.042 270.786,-534.787 273.613,-524.576 266.628,-525.042"/>
<text text-anchor="middle" x="288.5" y="-504.3" font-family="Helvetica,sans-Serif" font-size="14.00"> data</text>
</g>
<!-- Node5 -->
<g id="node5" class="node"><title>Node5</title>
<g id="a_node5"><a xlink:href="classmfem_1_1IntegrationPoint.html" target="_top" xlink:title="Class for integration point with weight. ">
<polygon fill="white" stroke="black" points="181,-626.5 181,-649.5 363,-649.5 363,-626.5 181,-626.5"/>
<text text-anchor="middle" x="272" y="-634.3" font-family="Helvetica,sans-Serif" font-size="14.00">mfem::IntegrationPoint</text>
</a>
</g>
</g>
<!-- Node5&#45;&gt;Node4 -->
<g id="edge4" class="edge"><title>Node5&#45;&gt;Node4</title>
<path fill="none" stroke="#9a32cd" stroke-dasharray="5,2" d="M272,-616.213C272,-602.967 272,-585.968 272,-573.246"/>
<polygon fill="#9a32cd" stroke="#9a32cd" points="268.5,-616.28 272,-626.28 275.5,-616.28 268.5,-616.28"/>
<text text-anchor="middle" x="293" y="-596.3" font-family="Helvetica,sans-Serif" font-size="14.00"> h_ptr</text>
</g>
<!-- Node6 -->
<g id="node6" class="node"><title>Node6</title>
<g id="a_node6"><a xlink:href="classmfem_1_1Array.html" target="_top" xlink:title="mfem::Array\&lt; mfem::\lDofToQuad * \&gt;">
<polygon fill="white" stroke="black" points="104,-1 104,-39 280,-39 280,-1 104,-1"/>
<text text-anchor="start" x="112" y="-23.8" font-family="Helvetica,sans-Serif" font-size="14.00">mfem::Array&lt; mfem::</text>
<text text-anchor="middle" x="192" y="-8.8" font-family="Helvetica,sans-Serif" font-size="14.00">DofToQuad * &gt;</text>
</a>
</g>
</g>
<!-- Node6&#45;&gt;Node1 -->
<g id="edge5" class="edge"><title>Node6&#45;&gt;Node1</title>
<path fill="none" stroke="#9a32cd" stroke-dasharray="5,2" d="M183.78,-49.0481C176.586,-74.9832 166.59,-114.729 162,-150 154.493,-207.691 155.748,-277.64 156.589,-304.13"/>
<polygon fill="#9a32cd" stroke="#9a32cd" points="187.222,-49.7374 186.572,-39.1625 180.485,-47.8346 187.222,-49.7374"/>
<text text-anchor="middle" x="221.5" y="-154.3" font-family="Helvetica,sans-Serif" font-size="14.00"> dof2quad_array</text>
</g>
<!-- Node7 -->
<g id="node7" class="node"><title>Node7</title>
<g id="a_node7"><a xlink:href="classmfem_1_1Memory.html" target="_top" xlink:title="mfem::Memory\&lt; mfem\l::DofToQuad * \&gt;">
<polygon fill="white" stroke="black" points="189,-93 189,-131 375,-131 375,-93 189,-93"/>
<text text-anchor="start" x="197" y="-115.8" font-family="Helvetica,sans-Serif" font-size="14.00">mfem::Memory&lt; mfem</text>
<text text-anchor="middle" x="282" y="-100.8" font-family="Helvetica,sans-Serif" font-size="14.00">::DofToQuad * &gt;</text>
</a>
</g>
</g>
<!-- Node7&#45;&gt;Node6 -->
<g id="edge6" class="edge"><title>Node7&#45;&gt;Node6</title>
<path fill="none" stroke="#9a32cd" stroke-dasharray="5,2" d="M256.431,-85.4309C241.678,-70.6777 223.476,-52.4759 210.186,-39.1858"/>
<polygon fill="#9a32cd" stroke="#9a32cd" points="254.241,-88.1909 263.787,-92.7872 259.191,-83.2412 254.241,-88.1909"/>
<text text-anchor="middle" x="261.5" y="-62.3" font-family="Helvetica,sans-Serif" font-size="14.00"> data</text>
</g>
<!-- Node8&#45;&gt;Node7 -->
<g id="edge7" class="edge"><title>Node8&#45;&gt;Node7</title>
<path fill="none" stroke="#9a32cd" stroke-dasharray="5,2" d="M287.972,-174.213C286.68,-160.967 285.021,-143.968 283.78,-131.246"/>
<polygon fill="#9a32cd" stroke="#9a32cd" points="284.5,-174.667 288.954,-184.28 291.467,-173.987 284.5,-174.667"/>
<text text-anchor="middle" x="307" y="-154.3" font-family="Helvetica,sans-Serif" font-size="14.00"> h_ptr</text>
</g>
<!-- Node9 -->
<g id="node9" class="node"><title>Node9</title>
<g id="a_node9"><a xlink:href="classmfem_1_1Array.html" target="_top" xlink:title="mfem::Array\&lt; double \&gt;">
<polygon fill="white" stroke="black" points="371.5,-304.5 371.5,-327.5 560.5,-327.5 560.5,-304.5 371.5,-304.5"/>
<text text-anchor="middle" x="466" y="-312.3" font-family="Helvetica,sans-Serif" font-size="14.00">mfem::Array&lt; double &gt;</text>
</a>
</g>
</g>
<!-- Node9&#45;&gt;Node8 -->
<g id="edge9" class="edge"><title>Node9&#45;&gt;Node8</title>
<path fill="none" stroke="#9a32cd" stroke-dasharray="5,2" d="M441.455,-298.544C404.733,-273.923 336.525,-228.193 305.766,-207.571"/>
<polygon fill="#9a32cd" stroke="#9a32cd" points="439.816,-301.658 450.071,-304.32 443.714,-295.844 439.816,-301.658"/>
<text text-anchor="middle" x="426.5" y="-274.8" font-family="Helvetica,sans-Serif" font-size="14.00"> G</text>
<text text-anchor="middle" x="426.5" y="-259.8" font-family="Helvetica,sans-Serif" font-size="14.00">Gt</text>
<text text-anchor="middle" x="426.5" y="-244.8" font-family="Helvetica,sans-Serif" font-size="14.00">B</text>
<text text-anchor="middle" x="426.5" y="-229.8" font-family="Helvetica,sans-Serif" font-size="14.00">Bt</text>
</g>
<!-- Node10 -->
<g id="node10" class="node"><title>Node10</title>
<g id="a_node10"><a xlink:href="classmfem_1_1Memory.html" target="_top" xlink:title="mfem::Memory\&lt; double \&gt;">
<polygon fill="white" stroke="black" points="372.5,-380.5 372.5,-403.5 581.5,-403.5 581.5,-380.5 372.5,-380.5"/>
<text text-anchor="middle" x="477" y="-388.3" font-family="Helvetica,sans-Serif" font-size="14.00">mfem::Memory&lt; double &gt;</text>
</a>
</g>
</g>
<!-- Node10&#45;&gt;Node9 -->
<g id="edge10" class="edge"><title>Node10&#45;&gt;Node9</title>
<path fill="none" stroke="#9a32cd" stroke-dasharray="5,2" d="M473.92,-370.277C471.855,-356.387 469.222,-338.675 467.573,-327.583"/>
<polygon fill="#9a32cd" stroke="#9a32cd" points="470.492,-371.021 475.424,-380.398 477.416,-369.992 470.492,-371.021"/>
<text text-anchor="middle" x="490.5" y="-350.3" font-family="Helvetica,sans-Serif" font-size="14.00"> data</text>
</g>
<!-- Node11 -->
<g id="node11" class="node"><title>Node11</title>
<g id="a_node11"><a xlink:href="classmfem_1_1DenseMatrix.html" target="_top" xlink:title="Data type dense matrix using column&#45;major storage. ">
<polygon fill="white" stroke="black" points="0,-380.5 0,-403.5 158,-403.5 158,-380.5 0,-380.5"/>
<text text-anchor="middle" x="79" y="-388.3" font-family="Helvetica,sans-Serif" font-size="14.00">mfem::DenseMatrix</text>
</a>
</g>
</g>
<!-- Node11&#45;&gt;Node1 -->
<g id="edge12" class="edge"><title>Node11&#45;&gt;Node1</title>
<path fill="none" stroke="#9a32cd" stroke-dasharray="5,2" d="M97.4453,-373.501C112.482,-359.235 133.227,-339.554 145.845,-327.583"/>
<polygon fill="#9a32cd" stroke="#9a32cd" points="95.0212,-370.976 90.1755,-380.398 99.8391,-376.054 95.0212,-370.976"/>
<text text-anchor="middle" x="153.5" y="-350.3" font-family="Helvetica,sans-Serif" font-size="14.00"> vshape</text>
</g>
<!-- Node12 -->
<g id="node12" class="node"><title>Node12</title>
<g id="a_node12"><a xlink:href="classmfem_1_1Matrix.html" target="_top" xlink:title="Abstract data type matrix. ">
<polygon fill="white" stroke="black" points="21.5,-450.5 21.5,-473.5 134.5,-473.5 134.5,-450.5 21.5,-450.5"/>
<text text-anchor="middle" x="78" y="-458.3" font-family="Helvetica,sans-Serif" font-size="14.00">mfem::Matrix</text>
</a>
</g>
</g>
<!-- Node12&#45;&gt;Node11 -->
<g id="edge13" class="edge"><title>Node12&#45;&gt;Node11</title>
<path fill="none" stroke="midnightblue" d="M78.3048,-440.272C78.4819,-428.228 78.6978,-413.549 78.8415,-403.775"/>
<polygon fill="midnightblue" stroke="midnightblue" points="74.8038,-440.325 78.1562,-450.375 81.803,-440.428 74.8038,-440.325"/>
</g>
<!-- Node13 -->
<g id="node13" class="node"><title>Node13</title>
<g id="a_node13"><a xlink:href="classmfem_1_1Operator.html" target="_top" xlink:title="Abstract operator. ">
<polygon fill="white" stroke="black" points="9.5,-542.5 9.5,-565.5 142.5,-565.5 142.5,-542.5 9.5,-542.5"/>
<text text-anchor="middle" x="76" y="-550.3" font-family="Helvetica,sans-Serif" font-size="14.00">mfem::Operator</text>
</a>
</g>
</g>
<!-- Node13&#45;&gt;Node12 -->
<g id="edge14" class="edge"><title>Node13&#45;&gt;Node12</title>
<path fill="none" stroke="midnightblue" d="M76.4649,-532.08C76.8711,-513.799 77.4444,-488.001 77.763,-473.664"/>
<polygon fill="midnightblue" stroke="midnightblue" points="72.9604,-532.247 76.2373,-542.322 79.9587,-532.403 72.9604,-532.247"/>
</g>
</g>
</svg>
