<?xml version="1.0" encoding="UTF-8" standalone="no"?>
<!DOCTYPE svg PUBLIC "-//W3C//DTD SVG 1.1//EN"
 "http://www.w3.org/Graphics/SVG/1.1/DTD/svg11.dtd">
<!-- Generated by graphviz version 2.30.1 (20200304.1809)
 -->
<!-- Title: mfem::TMOP_Combo_QualityMetric Pages: 1 -->
<!--zoomable 214 -->
<svg id="main" version="1.1" xmlns="http://www.w3.org/2000/svg" xmlns:xlink="http://www.w3.org/1999/xlink" xml:space="preserve" onload="init(evt)">
<style type="text/css"><![CDATA[
.edge:hover path { stroke: red; }
.edge:hover polygon { stroke: red; fill: red; }
]]></style>
<script type="text/javascript"><![CDATA[
var edges = document.getElementsByTagName('g');
if (edges && edges.length) {
  for (var i=0;i<edges.length;i++) {
    if (edges[i].id.substr(0,4)=='edge') {
      edges[i].setAttribute('class','edge');
    }
  }
}
]]></script>
        <defs>
                <circle id="rim" cx="0" cy="0" r="7"/>
                <circle id="rim2" cx="0" cy="0" r="3.5"/>
                <g id="zoomPlus">
                        <use xlink:href="#rim" fill="#404040">
                                <set attributeName="fill" to="#808080" begin="zoomplus.mouseover" end="zoomplus.mouseout"/>
                        </use>
                        <path d="M-4,0h8M0,-4v8" fill="none" stroke="white" stroke-width="1.5" pointer-events="none"/>
                </g>
                <g id="zoomMin">
                        <use xlink:href="#rim" fill="#404040">
                                <set attributeName="fill" to="#808080" begin="zoomminus.mouseover" end="zoomminus.mouseout"/>
                        </use>
                        <path d="M-4,0h8" fill="none" stroke="white" stroke-width="1.5" pointer-events="none"/>
                </g>
                <g id="dirArrow">
                        <path fill="none" stroke="white" stroke-width="1.5" d="M0,-3.0v7 M-2.5,-0.5L0,-3.0L2.5,-0.5"/>
                </g>
               <g id="resetDef">
                       <use xlink:href="#rim2" fill="#404040">
                               <set attributeName="fill" to="#808080" begin="reset.mouseover" end="reset.mouseout"/>
                       </use>
               </g>
        </defs>

<script type="text/javascript">
var viewWidth = 2256;
var viewHeight = 214;
var sectionId = 'dynsection-1';
</script>
<script xlink:href="svgpan.js"/>
<svg id="graph" class="graph">
<g id="viewport">
<title>mfem::TMOP_Combo_QualityMetric</title>
<polygon fill="white" stroke="white" points="-4,5 -4,-210 2253,-210 2253,5 -4,5"/>
<!-- Node1 -->
<g id="node1" class="node"><title>Node1</title>
<polygon fill="#bfbfbf" stroke="black" points="2022.5,-43 2022.5,-81 2247.5,-81 2247.5,-43 2022.5,-43"/>
<text text-anchor="start" x="2030.5" y="-65.8" font-family="Helvetica,sans-Serif" font-size="14.00">mfem::TMOP_Combo_Quality</text>
<text text-anchor="middle" x="2135" y="-50.8" font-family="Helvetica,sans-Serif" font-size="14.00">Metric</text>
</g>
<!-- Node2 -->
<g id="node2" class="node"><title>Node2</title>
<g id="a_node2"><a xlink:href="classmfem_1_1TMOP__QualityMetric.html" target="_top" xlink:title="Abstract class for local mesh quality metrics in the target&#45;matrix optimization paradigm (TMOP) by P...">
<polygon fill="white" stroke="black" points="1136,-78.5 1136,-101.5 1346,-101.5 1346,-78.5 1136,-78.5"/>
<text text-anchor="middle" x="1241" y="-86.3" font-family="Helvetica,sans-Serif" font-size="14.00">mfem::TMOP_QualityMetric</text>
</a>
</g>
</g>
<!-- Node2&#45;&gt;Node1 -->
<g id="edge1" class="edge"><title>Node2&#45;&gt;Node1</title>
<path fill="none" stroke="midnightblue" d="M1356.27,-95.7907C1358.87,-95.8673 1361.45,-95.9373 1364,-96 1382.66,-96.4586 1387.33,-96.1138 1406,-96 1671.86,-94.379 1739.89,-111.484 2004,-81 2010,-80.3069 2016.16,-79.5538 2022.37,-78.7603"/>
<polygon fill="midnightblue" stroke="midnightblue" points="1356.25,-92.2885 1346.14,-95.4647 1356.03,-99.2849 1356.25,-92.2885"/>
</g>
<!-- Node12 -->
<g id="node12" class="node"><title>Node12</title>
<g id="a_node12"><a xlink:href="classmfem_1_1Memory.html" target="_top" xlink:title="mfem::Memory\&lt; mfem\l::TMOP_QualityMetric * \&gt;">
<polygon fill="white" stroke="black" points="1431,-43 1431,-81 1627,-81 1627,-43 1431,-43"/>
<text text-anchor="start" x="1439" y="-65.8" font-family="Helvetica,sans-Serif" font-size="14.00">mfem::Memory&lt; mfem</text>
<text text-anchor="middle" x="1529" y="-50.8" font-family="Helvetica,sans-Serif" font-size="14.00">::TMOP_QualityMetric * &gt;</text>
</a>
</g>
</g>
<!-- Node2&#45;&gt;Node12 -->
<g id="edge13" class="edge"><title>Node2&#45;&gt;Node12</title>
<path fill="none" stroke="#9a32cd" stroke-dasharray="5,2" d="M1356.18,-78.8212C1380.86,-76.4057 1406.72,-73.8732 1430.68,-71.5279"/>
<polygon fill="#9a32cd" stroke="#9a32cd" points="1355.67,-75.3544 1346.06,-79.8122 1356.36,-82.321 1355.67,-75.3544"/>
<text text-anchor="middle" x="1385" y="-81.8" font-family="Helvetica,sans-Serif" font-size="14.00"> h_ptr</text>
</g>
<!-- Node3 -->
<g id="node3" class="node"><title>Node3</title>
<g id="a_node3"><a xlink:href="classmfem_1_1HyperelasticModel.html" target="_top" xlink:title="Abstract class for hyperelastic models. ">
<polygon fill="white" stroke="black" points="898,-106.5 898,-129.5 1098,-129.5 1098,-106.5 898,-106.5"/>
<text text-anchor="middle" x="998" y="-114.3" font-family="Helvetica,sans-Serif" font-size="14.00">mfem::HyperelasticModel</text>
</a>
</g>
</g>
<!-- Node3&#45;&gt;Node2 -->
<g id="edge2" class="edge"><title>Node3&#45;&gt;Node2</title>
<path fill="none" stroke="midnightblue" d="M1108.07,-105.328C1119.02,-104.056 1130.09,-102.769 1140.93,-101.51"/>
<polygon fill="midnightblue" stroke="midnightblue" points="1107.6,-101.859 1098.07,-106.49 1108.4,-108.813 1107.6,-101.859"/>
</g>
<!-- Node4 -->
<g id="node4" class="node"><title>Node4</title>
<g id="a_node4"><a xlink:href="classmfem_1_1ElementTransformation.html" target="_top" xlink:title="mfem::ElementTransformation">
<polygon fill="white" stroke="black" points="600,-106.5 600,-129.5 836,-129.5 836,-106.5 600,-106.5"/>
<text text-anchor="middle" x="718" y="-114.3" font-family="Helvetica,sans-Serif" font-size="14.00">mfem::ElementTransformation</text>
</a>
</g>
</g>
<!-- Node4&#45;&gt;Node3 -->
<g id="edge3" class="edge"><title>Node4&#45;&gt;Node3</title>
<path fill="none" stroke="#9a32cd" stroke-dasharray="5,2" d="M846.215,-118C863.47,-118 880.969,-118 897.638,-118"/>
<polygon fill="#9a32cd" stroke="#9a32cd" points="846.091,-114.5 836.091,-118 846.091,-121.5 846.091,-114.5"/>
<text text-anchor="middle" x="867" y="-121.8" font-family="Helvetica,sans-Serif" font-size="14.00"> Ttr</text>
</g>
<!-- Node5 -->
<g id="node5" class="node"><title>Node5</title>
<g id="a_node5"><a xlink:href="classmfem_1_1IntegrationPoint.html" target="_top" xlink:title="Class for integration point with weight. ">
<polygon fill="white" stroke="black" points="324,-182.5 324,-205.5 506,-205.5 506,-182.5 324,-182.5"/>
<text text-anchor="middle" x="415" y="-190.3" font-family="Helvetica,sans-Serif" font-size="14.00">mfem::IntegrationPoint</text>
</a>
</g>
</g>
<!-- Node5&#45;&gt;Node4 -->
<g id="edge4" class="edge"><title>Node5&#45;&gt;Node4</title>
<path fill="none" stroke="#9a32cd" stroke-dasharray="5,2" d="M516.316,-183.993C538.159,-180.736 561.008,-176.492 582,-171 621.949,-160.548 666.117,-141.737 692.704,-129.566"/>
<polygon fill="#9a32cd" stroke="#9a32cd" points="515.763,-180.537 506.361,-185.421 516.757,-187.466 515.763,-180.537"/>
<text text-anchor="middle" x="553" y="-185.8" font-family="Helvetica,sans-Serif" font-size="14.00"> IntPoint</text>
</g>
<!-- Node6 -->
<g id="node6" class="node"><title>Node6</title>
<g id="a_node6"><a xlink:href="classmfem_1_1DenseMatrix.html" target="_top" xlink:title="Data type dense matrix using column&#45;major storage. ">
<polygon fill="white" stroke="black" points="336,-83.5 336,-106.5 494,-106.5 494,-83.5 336,-83.5"/>
<text text-anchor="middle" x="415" y="-91.3" font-family="Helvetica,sans-Serif" font-size="14.00">mfem::DenseMatrix</text>
</a>
</g>
</g>
<!-- Node6&#45;&gt;Node4 -->
<g id="edge5" class="edge"><title>Node6&#45;&gt;Node4</title>
<path fill="none" stroke="#9a32cd" stroke-dasharray="5,2" d="M504.287,-101.746C534.218,-104.033 568.133,-106.625 599.947,-109.056"/>
<polygon fill="#9a32cd" stroke="#9a32cd" points="504.536,-98.2551 494.298,-100.983 504.003,-105.235 504.536,-98.2551"/>
<text text-anchor="middle" x="553" y="-155.8" font-family="Helvetica,sans-Serif" font-size="14.00"> adjJ</text>
<text text-anchor="middle" x="553" y="-140.8" font-family="Helvetica,sans-Serif" font-size="14.00">dFdx</text>
<text text-anchor="middle" x="553" y="-125.8" font-family="Helvetica,sans-Serif" font-size="14.00">d2Fdx2</text>
<text text-anchor="middle" x="553" y="-110.8" font-family="Helvetica,sans-Serif" font-size="14.00">invJ</text>
</g>
<!-- Node6&#45;&gt;Node2 -->
<g id="edge8" class="edge"><title>Node6&#45;&gt;Node2</title>
<path fill="none" stroke="#9a32cd" stroke-dasharray="5,2" d="M504.575,-94.4625C657.921,-93.532 972.105,-91.6256 1135.73,-90.6327"/>
<polygon fill="#9a32cd" stroke="#9a32cd" points="504.241,-90.9644 494.263,-94.5251 504.284,-97.9643 504.241,-90.9644"/>
<text text-anchor="middle" x="867" y="-96.8" font-family="Helvetica,sans-Serif" font-size="14.00"> Jtr</text>
</g>
<!-- Node7 -->
<g id="node7" class="node"><title>Node7</title>
<g id="a_node7"><a xlink:href="classmfem_1_1Matrix.html" target="_top" xlink:title="Abstract data type matrix. ">
<polygon fill="white" stroke="black" points="172.5,-83.5 172.5,-106.5 285.5,-106.5 285.5,-83.5 172.5,-83.5"/>
<text text-anchor="middle" x="229" y="-91.3" font-family="Helvetica,sans-Serif" font-size="14.00">mfem::Matrix</text>
</a>
</g>
</g>
<!-- Node7&#45;&gt;Node6 -->
<g id="edge6" class="edge"><title>Node7&#45;&gt;Node6</title>
<path fill="none" stroke="midnightblue" d="M295.883,-95C308.801,-95 322.467,-95 335.743,-95"/>
<polygon fill="midnightblue" stroke="midnightblue" points="295.705,-91.5001 285.705,-95 295.705,-98.5001 295.705,-91.5001"/>
</g>
<!-- Node8 -->
<g id="node8" class="node"><title>Node8</title>
<g id="a_node8"><a xlink:href="classmfem_1_1Operator.html" target="_top" xlink:title="Abstract operator. ">
<polygon fill="white" stroke="black" points="0.5,-83.5 0.5,-106.5 133.5,-106.5 133.5,-83.5 0.5,-83.5"/>
<text text-anchor="middle" x="67" y="-91.3" font-family="Helvetica,sans-Serif" font-size="14.00">mfem::Operator</text>
</a>
</g>
</g>
<!-- Node8&#45;&gt;Node7 -->
<g id="edge7" class="edge"><title>Node8&#45;&gt;Node7</title>
<path fill="none" stroke="midnightblue" d="M143.564,-95C153.237,-95 162.996,-95 172.274,-95"/>
<polygon fill="midnightblue" stroke="midnightblue" points="143.54,-91.5001 133.54,-95 143.54,-98.5001 143.54,-91.5001"/>
</g>
<!-- Node9 -->
<g id="node9" class="node"><title>Node9</title>
<g id="a_node9"><a xlink:href="classmfem_1_1Array.html" target="_top" xlink:title="mfem::Array\&lt; double \&gt;">
<polygon fill="white" stroke="black" points="1708.5,-0.5 1708.5,-23.5 1897.5,-23.5 1897.5,-0.5 1708.5,-0.5"/>
<text text-anchor="middle" x="1803" y="-8.3" font-family="Helvetica,sans-Serif" font-size="14.00">mfem::Array&lt; double &gt;</text>
</a>
</g>
</g>
<!-- Node9&#45;&gt;Node1 -->
<g id="edge9" class="edge"><title>Node9&#45;&gt;Node1</title>
<path fill="none" stroke="#9a32cd" stroke-dasharray="5,2" d="M1890.2,-25.0604C1930.56,-31.1754 1979.14,-38.5359 2022.27,-45.0719"/>
<polygon fill="#9a32cd" stroke="#9a32cd" points="1890.53,-21.5714 1880.12,-23.5338 1889.49,-28.4924 1890.53,-21.5714"/>
<text text-anchor="middle" x="1960" y="-45.8" font-family="Helvetica,sans-Serif" font-size="14.00"> wt_arr</text>
</g>
<!-- Node10 -->
<g id="node10" class="node"><title>Node10</title>
<g id="a_node10"><a xlink:href="classmfem_1_1Memory.html" target="_top" xlink:title="mfem::Memory\&lt; double \&gt;">
<polygon fill="white" stroke="black" points="1424.5,-0.5 1424.5,-23.5 1633.5,-23.5 1633.5,-0.5 1424.5,-0.5"/>
<text text-anchor="middle" x="1529" y="-8.3" font-family="Helvetica,sans-Serif" font-size="14.00">mfem::Memory&lt; double &gt;</text>
</a>
</g>
</g>
<!-- Node10&#45;&gt;Node9 -->
<g id="edge10" class="edge"><title>Node10&#45;&gt;Node9</title>
<path fill="none" stroke="#9a32cd" stroke-dasharray="5,2" d="M1643.78,-12C1665.34,-12 1687.65,-12 1708.49,-12"/>
<polygon fill="#9a32cd" stroke="#9a32cd" points="1643.61,-8.5001 1633.61,-12 1643.61,-15.5001 1643.61,-8.5001"/>
<text text-anchor="middle" x="1671" y="-15.8" font-family="Helvetica,sans-Serif" font-size="14.00"> data</text>
</g>
<!-- Node11 -->
<g id="node11" class="node"><title>Node11</title>
<g id="a_node11"><a xlink:href="classmfem_1_1Array.html" target="_top" xlink:title="mfem::Array\&lt; mfem::\lTMOP_QualityMetric * \&gt;">
<polygon fill="white" stroke="black" points="1709.5,-43 1709.5,-81 1896.5,-81 1896.5,-43 1709.5,-43"/>
<text text-anchor="start" x="1717.5" y="-65.8" font-family="Helvetica,sans-Serif" font-size="14.00">mfem::Array&lt; mfem::</text>
<text text-anchor="middle" x="1803" y="-50.8" font-family="Helvetica,sans-Serif" font-size="14.00">TMOP_QualityMetric * &gt;</text>
</a>
</g>
</g>
<!-- Node11&#45;&gt;Node1 -->
<g id="edge11" class="edge"><title>Node11&#45;&gt;Node1</title>
<path fill="none" stroke="#9a32cd" stroke-dasharray="5,2" d="M1906.99,-62C1943.6,-62 1984.98,-62 2022.28,-62"/>
<polygon fill="#9a32cd" stroke="#9a32cd" points="1906.8,-58.5001 1896.8,-62 1906.8,-65.5001 1906.8,-58.5001"/>
<text text-anchor="middle" x="1960" y="-65.8" font-family="Helvetica,sans-Serif" font-size="14.00"> tmop_q_arr</text>
</g>
<!-- Node12&#45;&gt;Node11 -->
<g id="edge12" class="edge"><title>Node12&#45;&gt;Node11</title>
<path fill="none" stroke="#9a32cd" stroke-dasharray="5,2" d="M1637.15,-62C1660.93,-62 1685.94,-62 1709.09,-62"/>
<polygon fill="#9a32cd" stroke="#9a32cd" points="1637.05,-58.5001 1627.05,-62 1637.05,-65.5001 1637.05,-58.5001"/>
<text text-anchor="middle" x="1671" y="-65.8" font-family="Helvetica,sans-Serif" font-size="14.00"> data</text>
</g>
</g>
</svg>
        <g id="navigator" transform="translate(0 0)" fill="#404254">
                <rect fill="#f2f5e9" fill-opacity="0.5" stroke="#606060" stroke-width=".5" x="0" y="0" width="60" height="60"/>
                <use id="zoomplus" xlink:href="#zoomPlus" x="17" y="9" onmousedown="handleZoom(evt,'in')"/>
                <use id="zoomminus" xlink:href="#zoomMin" x="42" y="9" onmousedown="handleZoom(evt,'out')"/>
                <use id="reset" xlink:href="#resetDef" x="30" y="36" onmousedown="handleReset()"/>
                <g id="arrowUp" xlink:href="#dirArrow" transform="translate(30 24)" onmousedown="handlePan(0,-1)">
                  <use xlink:href="#rim" fill="#404040">
                        <set attributeName="fill" to="#808080" begin="arrowUp.mouseover" end="arrowUp.mouseout"/>
                  </use>
                  <path fill="none" stroke="white" stroke-width="1.5" d="M0,-3.0v7 M-2.5,-0.5L0,-3.0L2.5,-0.5"/>
                </g>
                <g id="arrowRight" xlink:href="#dirArrow" transform="rotate(90) translate(36 -43)" onmousedown="handlePan(1,0)">
                  <use xlink:href="#rim" fill="#404040">
                        <set attributeName="fill" to="#808080" begin="arrowRight.mouseover" end="arrowRight.mouseout"/>
                  </use>
                  <path fill="none" stroke="white" stroke-width="1.5" d="M0,-3.0v7 M-2.5,-0.5L0,-3.0L2.5,-0.5"/>
                </g>
                <g id="arrowDown" xlink:href="#dirArrow" transform="rotate(180) translate(-30 -48)" onmousedown="handlePan(0,1)">
                  <use xlink:href="#rim" fill="#404040">
                        <set attributeName="fill" to="#808080" begin="arrowDown.mouseover" end="arrowDown.mouseout"/>
                  </use>
                  <path fill="none" stroke="white" stroke-width="1.5" d="M0,-3.0v7 M-2.5,-0.5L0,-3.0L2.5,-0.5"/>
                </g>
                <g id="arrowLeft" xlink:href="#dirArrow" transform="rotate(270) translate(-36 17)" onmousedown="handlePan(-1,0)">
                  <use xlink:href="#rim" fill="#404040">
                        <set attributeName="fill" to="#808080" begin="arrowLeft.mouseover" end="arrowLeft.mouseout"/>
                  </use>
                  <path fill="none" stroke="white" stroke-width="1.5" d="M0,-3.0v7 M-2.5,-0.5L0,-3.0L2.5,-0.5"/>
                </g>
        </g>
        <svg viewBox="0 0 15 15" width="100%" height="30px" preserveAspectRatio="xMaxYMin meet">
         <g id="arrow_out" transform="scale(0.3 0.3)">
          <a xlink:href="classmfem_1_1TMOP__Combo__QualityMetric__coll__graph_org.svg" target="_base">
           <rect id="button" ry="5" rx="5" y="6" x="6" height="38" width="38"
                fill="#f2f5e9" fill-opacity="0.5" stroke="#606060" stroke-width="1.0"/>
           <path id="arrow"
             d="M 11.500037,31.436501 C 11.940474,20.09759 22.043105,11.32322 32.158766,21.979434 L 37.068811,17.246167 C 37.068811,17.246167 37.088388,32 37.088388,32 L 22.160133,31.978069 C 22.160133,31.978069 26.997745,27.140456 26.997745,27.140456 C 18.528582,18.264221 13.291696,25.230495 11.500037,31.436501 z"
             style="fill:#404040;"/>
          </a>
         </g>
        </svg>
</svg>
