<?xml version="1.0" encoding="UTF-8" standalone="no"?>
<!DOCTYPE svg PUBLIC "-//W3C//DTD SVG 1.1//EN"
 "http://www.w3.org/Graphics/SVG/1.1/DTD/svg11.dtd">
<!-- Generated by graphviz version 2.30.1 (20200304.1809)
 -->
<!-- Title: mfem::ND_Trace_FECollection Pages: 1 -->
<svg width="2342pt" height="307pt"
 viewBox="0.00 0.00 2342.00 307.08" xmlns="http://www.w3.org/2000/svg" xmlns:xlink="http://www.w3.org/1999/xlink">
<g id="graph0" class="graph" transform="scale(1 1) rotate(0) translate(4 303.078)">
<title>mfem::ND_Trace_FECollection</title>
<polygon fill="white" stroke="white" points="-4,5 -4,-303.078 2339,-303.078 2339,5 -4,5"/>
<!-- Node1 -->
<g id="node1" class="node"><title>Node1</title>
<polygon fill="#bfbfbf" stroke="black" points="1854,-181.578 1854,-204.578 2084,-204.578 2084,-181.578 1854,-181.578"/>
<text text-anchor="middle" x="1969" y="-189.378" font-family="Helvetica,sans-Serif" font-size="14.00">mfem::ND_Trace_FECollection</text>
</g>
<!-- Node2 -->
<g id="node2" class="node"><title>Node2</title>
<g id="a_node2"><a xlink:href="classmfem_1_1ND__FECollection.html" target="_top" xlink:title="Arbitrary order H(curl)&#45;conforming Nedelec finite elements. ">
<polygon fill="white" stroke="black" points="1494.5,-181.578 1494.5,-204.578 1679.5,-204.578 1679.5,-181.578 1494.5,-181.578"/>
<text text-anchor="middle" x="1587" y="-189.378" font-family="Helvetica,sans-Serif" font-size="14.00">mfem::ND_FECollection</text>
</a>
</g>
</g>
<!-- Node2&#45;&gt;Node1 -->
<g id="edge1" class="edge"><title>Node2&#45;&gt;Node1</title>
<path fill="none" stroke="midnightblue" d="M1689.8,-193.078C1740.37,-193.078 1801.66,-193.078 1853.82,-193.078"/>
<polygon fill="midnightblue" stroke="midnightblue" points="1689.5,-189.578 1679.5,-193.078 1689.5,-196.578 1689.5,-189.578"/>
</g>
<!-- Node3 -->
<g id="node3" class="node"><title>Node3</title>
<g id="a_node3"><a xlink:href="classmfem_1_1FiniteElementCollection.html" target="_top" xlink:title="Collection of finite elements from the same family in multiple dimensions. This class is used to matc...">
<polygon fill="white" stroke="black" points="1102,-234.578 1102,-257.578 1338,-257.578 1338,-234.578 1102,-234.578"/>
<text text-anchor="middle" x="1220" y="-242.378" font-family="Helvetica,sans-Serif" font-size="14.00">mfem::FiniteElementCollection</text>
</a>
</g>
</g>
<!-- Node3&#45;&gt;Node2 -->
<g id="edge2" class="edge"><title>Node3&#45;&gt;Node2</title>
<path fill="none" stroke="midnightblue" d="M1310.43,-233.093C1370.45,-224.376 1448.83,-212.996 1506.64,-204.601"/>
<polygon fill="midnightblue" stroke="midnightblue" points="1309.59,-229.677 1300.2,-234.578 1310.6,-236.604 1309.59,-229.677"/>
</g>
<!-- Node5 -->
<g id="node5" class="node"><title>Node5</title>
<g id="a_node5"><a xlink:href="classmfem_1_1Memory.html" target="_top" xlink:title="mfem::Memory\&lt; mfem\l::FiniteElementCollection * \&gt;">
<polygon fill="white" stroke="black" points="1476.5,-224.078 1476.5,-262.078 1697.5,-262.078 1697.5,-224.078 1476.5,-224.078"/>
<text text-anchor="start" x="1484.5" y="-246.878" font-family="Helvetica,sans-Serif" font-size="14.00">mfem::Memory&lt; mfem</text>
<text text-anchor="middle" x="1587" y="-231.878" font-family="Helvetica,sans-Serif" font-size="14.00">::FiniteElementCollection * &gt;</text>
</a>
</g>
</g>
<!-- Node3&#45;&gt;Node5 -->
<g id="edge5" class="edge"><title>Node3&#45;&gt;Node5</title>
<path fill="none" stroke="#9a32cd" stroke-dasharray="5,2" d="M1348.47,-245.03C1390.15,-244.687 1436.07,-244.31 1476.33,-243.979"/>
<polygon fill="#9a32cd" stroke="#9a32cd" points="1348.22,-241.532 1338.25,-245.114 1348.27,-248.532 1348.22,-241.532"/>
<text text-anchor="middle" x="1407" y="-248.878" font-family="Helvetica,sans-Serif" font-size="14.00"> h_ptr</text>
</g>
<!-- Node4 -->
<g id="node4" class="node"><title>Node4</title>
<g id="a_node4"><a xlink:href="classmfem_1_1Array.html" target="_top" xlink:title="mfem::Array\&lt; mfem::\lFiniteElementCollection * \&gt;">
<polygon fill="white" stroke="black" points="1863,-252.078 1863,-290.078 2075,-290.078 2075,-252.078 1863,-252.078"/>
<text text-anchor="start" x="1871" y="-274.878" font-family="Helvetica,sans-Serif" font-size="14.00">mfem::Array&lt; mfem::</text>
<text text-anchor="middle" x="1969" y="-259.878" font-family="Helvetica,sans-Serif" font-size="14.00">FiniteElementCollection * &gt;</text>
</a>
</g>
</g>
<!-- Node4&#45;&gt;Node3 -->
<g id="edge3" class="edge"><title>Node4&#45;&gt;Node3</title>
<path fill="none" stroke="#9a32cd" stroke-dasharray="5,2" d="M1852.67,-280.326C1847.03,-280.617 1841.45,-280.871 1836,-281.078 1622.69,-289.146 1568.5,-284.414 1356,-264.078 1337.76,-262.332 1318.19,-259.994 1299.77,-257.581"/>
<polygon fill="#9a32cd" stroke="#9a32cd" points="1853.06,-283.81 1862.85,-279.764 1852.67,-276.821 1853.06,-283.81"/>
<text text-anchor="middle" x="1587" y="-287.878" font-family="Helvetica,sans-Serif" font-size="14.00"> var_orders</text>
</g>
<!-- Node5&#45;&gt;Node4 -->
<g id="edge4" class="edge"><title>Node5&#45;&gt;Node4</title>
<path fill="none" stroke="#9a32cd" stroke-dasharray="5,2" d="M1707.82,-251.907C1757.53,-255.57 1814.71,-259.782 1862.77,-263.324"/>
<polygon fill="#9a32cd" stroke="#9a32cd" points="1707.89,-248.402 1697.66,-251.158 1707.37,-255.383 1707.89,-248.402"/>
<text text-anchor="middle" x="1776" y="-265.878" font-family="Helvetica,sans-Serif" font-size="14.00"> data</text>
</g>
<!-- Node6 -->
<g id="node6" class="node"><title>Node6</title>
<g id="a_node6"><a xlink:href="classmfem_1_1FiniteElement.html" target="_top" xlink:title="Abstract class for all finite elements. ">
<polygon fill="white" stroke="black" points="1137,-138.578 1137,-161.578 1303,-161.578 1303,-138.578 1137,-138.578"/>
<text text-anchor="middle" x="1220" y="-146.378" font-family="Helvetica,sans-Serif" font-size="14.00">mfem::FiniteElement</text>
</a>
</g>
</g>
<!-- Node6&#45;&gt;Node2 -->
<g id="edge6" class="edge"><title>Node6&#45;&gt;Node2</title>
<path fill="none" stroke="#9a32cd" stroke-dasharray="5,2" d="M1313.53,-160.979C1368.93,-167.505 1439.07,-175.768 1494.31,-182.276"/>
<polygon fill="#9a32cd" stroke="#9a32cd" points="1313.71,-157.476 1303.37,-159.781 1312.89,-164.427 1313.71,-157.476"/>
<text text-anchor="middle" x="1407" y="-181.878" font-family="Helvetica,sans-Serif" font-size="14.00"> ND_Elements</text>
</g>
<!-- Node13 -->
<g id="node13" class="node"><title>Node13</title>
<g id="a_node13"><a xlink:href="classmfem_1_1DofToQuad.html" target="_top" xlink:title="Structure representing the matrices/tensors needed to evaluate (in reference space) the values...">
<polygon fill="white" stroke="black" points="1513,-77.5777 1513,-100.578 1661,-100.578 1661,-77.5777 1513,-77.5777"/>
<text text-anchor="middle" x="1587" y="-85.3777" font-family="Helvetica,sans-Serif" font-size="14.00">mfem::DofToQuad</text>
</a>
</g>
</g>
<!-- Node6&#45;&gt;Node13 -->
<g id="edge17" class="edge"><title>Node6&#45;&gt;Node13</title>
<path fill="none" stroke="#9a32cd" stroke-dasharray="5,2" d="M1280.33,-136.348C1303.82,-131.171 1331.11,-125.476 1356,-121.078 1408.21,-111.852 1467.47,-103.66 1512.76,-97.8753"/>
<polygon fill="#9a32cd" stroke="#9a32cd" points="1279.52,-132.943 1270.52,-138.53 1281.04,-139.777 1279.52,-132.943"/>
<text text-anchor="middle" x="1407" y="-124.878" font-family="Helvetica,sans-Serif" font-size="14.00"> FE</text>
</g>
<!-- Node7 -->
<g id="node7" class="node"><title>Node7</title>
<g id="a_node7"><a xlink:href="classmfem_1_1IntegrationRule.html" target="_top" xlink:title="Class for an integration rule &#45; an Array of IntegrationPoint. ">
<polygon fill="white" stroke="black" points="814,-86.5777 814,-109.578 992,-109.578 992,-86.5777 814,-86.5777"/>
<text text-anchor="middle" x="903" y="-94.3777" font-family="Helvetica,sans-Serif" font-size="14.00">mfem::IntegrationRule</text>
</a>
</g>
</g>
<!-- Node7&#45;&gt;Node6 -->
<g id="edge7" class="edge"><title>Node7&#45;&gt;Node6</title>
<path fill="none" stroke="#9a32cd" stroke-dasharray="5,2" d="M983.908,-111.269C1034.91,-119.689 1100.39,-130.498 1149.29,-138.57"/>
<polygon fill="#9a32cd" stroke="#9a32cd" points="984.345,-107.794 973.909,-109.618 983.205,-114.7 984.345,-107.794"/>
<text text-anchor="middle" x="1055" y="-131.878" font-family="Helvetica,sans-Serif" font-size="14.00"> Nodes</text>
</g>
<!-- Node7&#45;&gt;Node13 -->
<g id="edge14" class="edge"><title>Node7&#45;&gt;Node13</title>
<path fill="none" stroke="#9a32cd" stroke-dasharray="5,2" d="M1002.29,-96.7807C1140.68,-94.9544 1389.8,-91.6668 1512.97,-90.0414"/>
<polygon fill="#9a32cd" stroke="#9a32cd" points="1002.06,-93.2832 992.112,-96.915 1002.16,-100.283 1002.06,-93.2832"/>
<text text-anchor="middle" x="1220" y="-99.8777" font-family="Helvetica,sans-Serif" font-size="14.00"> IntRule</text>
</g>
<!-- Node8 -->
<g id="node8" class="node"><title>Node8</title>
<g id="a_node8"><a xlink:href="classmfem_1_1Array.html" target="_top" xlink:title="mfem::Array\&lt; Integration\lPoint \&gt;">
<polygon fill="white" stroke="black" points="556.5,-79.0777 556.5,-117.078 759.5,-117.078 759.5,-79.0777 556.5,-79.0777"/>
<text text-anchor="start" x="564.5" y="-101.878" font-family="Helvetica,sans-Serif" font-size="14.00">mfem::Array&lt; Integration</text>
<text text-anchor="middle" x="658" y="-86.8777" font-family="Helvetica,sans-Serif" font-size="14.00">Point &gt;</text>
</a>
</g>
</g>
<!-- Node8&#45;&gt;Node7 -->
<g id="edge8" class="edge"><title>Node8&#45;&gt;Node7</title>
<path fill="none" stroke="midnightblue" d="M769.783,-98.0777C784.568,-98.0777 799.567,-98.0777 813.894,-98.0777"/>
<polygon fill="midnightblue" stroke="midnightblue" points="769.592,-94.5778 759.591,-98.0777 769.591,-101.578 769.592,-94.5778"/>
</g>
<!-- Node9 -->
<g id="node9" class="node"><title>Node9</title>
<g id="a_node9"><a xlink:href="classmfem_1_1Memory.html" target="_top" xlink:title="mfem::Memory\&lt; Integration\lPoint \&gt;">
<polygon fill="white" stroke="black" points="260,-79.0777 260,-117.078 482,-117.078 482,-79.0777 260,-79.0777"/>
<text text-anchor="start" x="268" y="-101.878" font-family="Helvetica,sans-Serif" font-size="14.00">mfem::Memory&lt; Integration</text>
<text text-anchor="middle" x="371" y="-86.8777" font-family="Helvetica,sans-Serif" font-size="14.00">Point &gt;</text>
</a>
</g>
</g>
<!-- Node9&#45;&gt;Node8 -->
<g id="edge9" class="edge"><title>Node9&#45;&gt;Node8</title>
<path fill="none" stroke="#9a32cd" stroke-dasharray="5,2" d="M492.278,-98.0777C513.639,-98.0777 535.683,-98.0777 556.426,-98.0777"/>
<polygon fill="#9a32cd" stroke="#9a32cd" points="492.188,-94.5778 482.188,-98.0777 492.188,-101.578 492.188,-94.5778"/>
<text text-anchor="middle" x="519" y="-101.878" font-family="Helvetica,sans-Serif" font-size="14.00"> data</text>
</g>
<!-- Node10 -->
<g id="node10" class="node"><title>Node10</title>
<g id="a_node10"><a xlink:href="classmfem_1_1IntegrationPoint.html" target="_top" xlink:title="Class for integration point with weight. ">
<polygon fill="white" stroke="black" points="0,-86.5777 0,-109.578 182,-109.578 182,-86.5777 0,-86.5777"/>
<text text-anchor="middle" x="91" y="-94.3777" font-family="Helvetica,sans-Serif" font-size="14.00">mfem::IntegrationPoint</text>
</a>
</g>
</g>
<!-- Node10&#45;&gt;Node9 -->
<g id="edge10" class="edge"><title>Node10&#45;&gt;Node9</title>
<path fill="none" stroke="#9a32cd" stroke-dasharray="5,2" d="M192.526,-98.0777C214.373,-98.0777 237.597,-98.0777 259.796,-98.0777"/>
<polygon fill="#9a32cd" stroke="#9a32cd" points="192.259,-94.5778 182.259,-98.0777 192.259,-101.578 192.259,-94.5778"/>
<text text-anchor="middle" x="221" y="-101.878" font-family="Helvetica,sans-Serif" font-size="14.00"> h_ptr</text>
</g>
<!-- Node11 -->
<g id="node11" class="node"><title>Node11</title>
<g id="a_node11"><a xlink:href="classmfem_1_1Array.html" target="_top" xlink:title="mfem::Array\&lt; mfem::\lDofToQuad * \&gt;">
<polygon fill="white" stroke="black" points="2158,-110.078 2158,-148.078 2334,-148.078 2334,-110.078 2158,-110.078"/>
<text text-anchor="start" x="2166" y="-132.878" font-family="Helvetica,sans-Serif" font-size="14.00">mfem::Array&lt; mfem::</text>
<text text-anchor="middle" x="2246" y="-117.878" font-family="Helvetica,sans-Serif" font-size="14.00">DofToQuad * &gt;</text>
</a>
</g>
</g>
<!-- Node11&#45;&gt;Node6 -->
<g id="edge11" class="edge"><title>Node11&#45;&gt;Node6</title>
<path fill="none" stroke="#9a32cd" stroke-dasharray="5,2" d="M2147.76,-135.737C2145.15,-135.859 2142.56,-135.973 2140,-136.078 1831.3,-148.711 1463.84,-150.243 1303.11,-150.239"/>
<polygon fill="#9a32cd" stroke="#9a32cd" points="2148.12,-139.223 2157.93,-135.228 2147.77,-132.232 2148.12,-139.223"/>
<text text-anchor="middle" x="1776" y="-151.878" font-family="Helvetica,sans-Serif" font-size="14.00"> dof2quad_array</text>
</g>
<!-- Node12 -->
<g id="node12" class="node"><title>Node12</title>
<g id="a_node12"><a xlink:href="classmfem_1_1Memory.html" target="_top" xlink:title="mfem::Memory\&lt; mfem\l::DofToQuad * \&gt;">
<polygon fill="white" stroke="black" points="1876,-79.0777 1876,-117.078 2062,-117.078 2062,-79.0777 1876,-79.0777"/>
<text text-anchor="start" x="1884" y="-101.878" font-family="Helvetica,sans-Serif" font-size="14.00">mfem::Memory&lt; mfem</text>
<text text-anchor="middle" x="1969" y="-86.8777" font-family="Helvetica,sans-Serif" font-size="14.00">::DofToQuad * &gt;</text>
</a>
</g>
</g>
<!-- Node12&#45;&gt;Node11 -->
<g id="edge12" class="edge"><title>Node12&#45;&gt;Node11</title>
<path fill="none" stroke="#9a32cd" stroke-dasharray="5,2" d="M2072.53,-109.636C2100.5,-112.788 2130.52,-116.173 2157.56,-119.221"/>
<polygon fill="#9a32cd" stroke="#9a32cd" points="2072.67,-106.129 2062.34,-108.487 2071.88,-113.085 2072.67,-106.129"/>
<text text-anchor="middle" x="2121" y="-120.878" font-family="Helvetica,sans-Serif" font-size="14.00"> data</text>
</g>
<!-- Node13&#45;&gt;Node12 -->
<g id="edge13" class="edge"><title>Node13&#45;&gt;Node12</title>
<path fill="none" stroke="#9a32cd" stroke-dasharray="5,2" d="M1671.53,-91.056C1731.91,-92.4862 1813.49,-94.4183 1875.79,-95.8937"/>
<polygon fill="#9a32cd" stroke="#9a32cd" points="1671.35,-87.5509 1661.27,-90.813 1671.18,-94.5489 1671.35,-87.5509"/>
<text text-anchor="middle" x="1776" y="-98.8777" font-family="Helvetica,sans-Serif" font-size="14.00"> h_ptr</text>
</g>
<!-- Node14 -->
<g id="node14" class="node"><title>Node14</title>
<g id="a_node14"><a xlink:href="classmfem_1_1Array.html" target="_top" xlink:title="mfem::Array\&lt; double \&gt;">
<polygon fill="white" stroke="black" points="1125.5,-0.577737 1125.5,-23.5777 1314.5,-23.5777 1314.5,-0.577737 1125.5,-0.577737"/>
<text text-anchor="middle" x="1220" y="-8.37774" font-family="Helvetica,sans-Serif" font-size="14.00">mfem::Array&lt; double &gt;</text>
</a>
</g>
</g>
<!-- Node14&#45;&gt;Node13 -->
<g id="edge15" class="edge"><title>Node14&#45;&gt;Node13</title>
<path fill="none" stroke="#9a32cd" stroke-dasharray="5,2" d="M1324.55,-0.791683C1366.64,0.791683 1415.32,-1.26558 1458,-13.0777 1503.83,-25.7624 1549.9,-59.4746 1572.2,-77.4343"/>
<polygon fill="#9a32cd" stroke="#9a32cd" points="1324.39,2.70489 1314.56,-1.23954 1324.7,-4.28809 1324.39,2.70489"/>
<text text-anchor="middle" x="1407" y="-61.8777" font-family="Helvetica,sans-Serif" font-size="14.00"> G</text>
<text text-anchor="middle" x="1407" y="-46.8777" font-family="Helvetica,sans-Serif" font-size="14.00">Gt</text>
<text text-anchor="middle" x="1407" y="-31.8777" font-family="Helvetica,sans-Serif" font-size="14.00">B</text>
<text text-anchor="middle" x="1407" y="-16.8777" font-family="Helvetica,sans-Serif" font-size="14.00">Bt</text>
</g>
<!-- Node15 -->
<g id="node15" class="node"><title>Node15</title>
<g id="a_node15"><a xlink:href="classmfem_1_1Memory.html" target="_top" xlink:title="mfem::Memory\&lt; double \&gt;">
<polygon fill="white" stroke="black" points="798.5,-0.577737 798.5,-23.5777 1007.5,-23.5777 1007.5,-0.577737 798.5,-0.577737"/>
<text text-anchor="middle" x="903" y="-8.37774" font-family="Helvetica,sans-Serif" font-size="14.00">mfem::Memory&lt; double &gt;</text>
</a>
</g>
</g>
<!-- Node15&#45;&gt;Node14 -->
<g id="edge16" class="edge"><title>Node15&#45;&gt;Node14</title>
<path fill="none" stroke="#9a32cd" stroke-dasharray="5,2" d="M1017.93,-12.0777C1053.24,-12.0777 1091.71,-12.0777 1125.46,-12.0777"/>
<polygon fill="#9a32cd" stroke="#9a32cd" points="1017.58,-8.57783 1007.58,-12.0777 1017.58,-15.5778 1017.58,-8.57783"/>
<text text-anchor="middle" x="1055" y="-15.8777" font-family="Helvetica,sans-Serif" font-size="14.00"> data</text>
</g>
<!-- Node16 -->
<g id="node16" class="node"><title>Node16</title>
<g id="a_node16"><a xlink:href="classmfem_1_1DenseMatrix.html" target="_top" xlink:title="Data type dense matrix using column&#45;major storage. ">
<polygon fill="white" stroke="black" points="824,-146.578 824,-169.578 982,-169.578 982,-146.578 824,-146.578"/>
<text text-anchor="middle" x="903" y="-154.378" font-family="Helvetica,sans-Serif" font-size="14.00">mfem::DenseMatrix</text>
</a>
</g>
</g>
<!-- Node16&#45;&gt;Node6 -->
<g id="edge18" class="edge"><title>Node16&#45;&gt;Node6</title>
<path fill="none" stroke="#9a32cd" stroke-dasharray="5,2" d="M992.366,-155.834C1037.62,-154.684 1092.38,-153.294 1136.73,-152.167"/>
<polygon fill="#9a32cd" stroke="#9a32cd" points="992.178,-152.337 982.27,-156.09 992.356,-159.335 992.178,-152.337"/>
<text text-anchor="middle" x="1055" y="-158.878" font-family="Helvetica,sans-Serif" font-size="14.00"> vshape</text>
</g>
<!-- Node17 -->
<g id="node17" class="node"><title>Node17</title>
<g id="a_node17"><a xlink:href="classmfem_1_1Matrix.html" target="_top" xlink:title="Abstract data type matrix. ">
<polygon fill="white" stroke="black" points="601.5,-146.578 601.5,-169.578 714.5,-169.578 714.5,-146.578 601.5,-146.578"/>
<text text-anchor="middle" x="658" y="-154.378" font-family="Helvetica,sans-Serif" font-size="14.00">mfem::Matrix</text>
</a>
</g>
</g>
<!-- Node17&#45;&gt;Node16 -->
<g id="edge19" class="edge"><title>Node17&#45;&gt;Node16</title>
<path fill="none" stroke="midnightblue" d="M724.872,-158.078C755.442,-158.078 792.005,-158.078 823.952,-158.078"/>
<polygon fill="midnightblue" stroke="midnightblue" points="724.749,-154.578 714.749,-158.078 724.749,-161.578 724.749,-154.578"/>
</g>
<!-- Node18 -->
<g id="node18" class="node"><title>Node18</title>
<g id="a_node18"><a xlink:href="classmfem_1_1Operator.html" target="_top" xlink:title="Abstract operator. ">
<polygon fill="white" stroke="black" points="304.5,-146.578 304.5,-169.578 437.5,-169.578 437.5,-146.578 304.5,-146.578"/>
<text text-anchor="middle" x="371" y="-154.378" font-family="Helvetica,sans-Serif" font-size="14.00">mfem::Operator</text>
</a>
</g>
</g>
<!-- Node18&#45;&gt;Node17 -->
<g id="edge20" class="edge"><title>Node18&#45;&gt;Node17</title>
<path fill="none" stroke="midnightblue" d="M447.822,-158.078C496.044,-158.078 557.418,-158.078 601.19,-158.078"/>
<polygon fill="midnightblue" stroke="midnightblue" points="447.743,-154.578 437.743,-158.078 447.743,-161.578 447.743,-154.578"/>
</g>
</g>
</svg>
