<?xml version="1.0" encoding="UTF-8" standalone="no"?>
<!DOCTYPE svg PUBLIC "-//W3C//DTD SVG 1.1//EN"
 "http://www.w3.org/Graphics/SVG/1.1/DTD/svg11.dtd">
<!-- Generated by graphviz version 2.30.1 (20200304.1809)
 -->
<!-- Title: mfem::ResidualBCMonitor Pages: 1 -->
<!--zoomable 184 -->
<svg id="main" version="1.1" xmlns="http://www.w3.org/2000/svg" xmlns:xlink="http://www.w3.org/1999/xlink" xml:space="preserve" onload="init(evt)">
<style type="text/css"><![CDATA[
.edge:hover path { stroke: red; }
.edge:hover polygon { stroke: red; fill: red; }
]]></style>
<script type="text/javascript"><![CDATA[
var edges = document.getElementsByTagName('g');
if (edges && edges.length) {
  for (var i=0;i<edges.length;i++) {
    if (edges[i].id.substr(0,4)=='edge') {
      edges[i].setAttribute('class','edge');
    }
  }
}
]]></script>
        <defs>
                <circle id="rim" cx="0" cy="0" r="7"/>
                <circle id="rim2" cx="0" cy="0" r="3.5"/>
                <g id="zoomPlus">
                        <use xlink:href="#rim" fill="#404040">
                                <set attributeName="fill" to="#808080" begin="zoomplus.mouseover" end="zoomplus.mouseout"/>
                        </use>
                        <path d="M-4,0h8M0,-4v8" fill="none" stroke="white" stroke-width="1.5" pointer-events="none"/>
                </g>
                <g id="zoomMin">
                        <use xlink:href="#rim" fill="#404040">
                                <set attributeName="fill" to="#808080" begin="zoomminus.mouseover" end="zoomminus.mouseout"/>
                        </use>
                        <path d="M-4,0h8" fill="none" stroke="white" stroke-width="1.5" pointer-events="none"/>
                </g>
                <g id="dirArrow">
                        <path fill="none" stroke="white" stroke-width="1.5" d="M0,-3.0v7 M-2.5,-0.5L0,-3.0L2.5,-0.5"/>
                </g>
               <g id="resetDef">
                       <use xlink:href="#rim2" fill="#404040">
                               <set attributeName="fill" to="#808080" begin="reset.mouseover" end="reset.mouseout"/>
                       </use>
               </g>
        </defs>

<script type="text/javascript">
var viewWidth = 640;
var viewHeight = 184;
var sectionId = 'dynsection-1';
</script>
<script xlink:href="svgpan.js"/>
<svg id="graph" class="graph">
<g id="viewport">
<title>mfem::ResidualBCMonitor</title>
<polygon fill="white" stroke="white" points="-4,5 -4,-180 637,-180 637,5 -4,5"/>
<!-- Node1 -->
<g id="node1" class="node"><title>Node1</title>
<polygon fill="#bfbfbf" stroke="black" points="392,-0.5 392,-23.5 594,-23.5 594,-0.5 392,-0.5"/>
<text text-anchor="middle" x="493" y="-8.3" font-family="Helvetica,sans-Serif" font-size="14.00">mfem::ResidualBCMonitor</text>
</g>
<!-- Node2 -->
<g id="node2" class="node"><title>Node2</title>
<g id="a_node2"><a xlink:href="classmfem_1_1IterativeSolverMonitor.html" target="_top" xlink:title="Abstract base class for an iterative solver monitor. ">
<polygon fill="white" stroke="black" points="218.5,-76.5 218.5,-99.5 445.5,-99.5 445.5,-76.5 218.5,-76.5"/>
<text text-anchor="middle" x="332" y="-84.3" font-family="Helvetica,sans-Serif" font-size="14.00">mfem::IterativeSolverMonitor</text>
</a>
</g>
</g>
<!-- Node2&#45;&gt;Node1 -->
<g id="edge1" class="edge"><title>Node2&#45;&gt;Node1</title>
<path fill="none" stroke="midnightblue" d="M368.072,-72.5923C379.033,-68.0706 391.068,-62.961 402,-58 426.556,-46.8568 454.264,-32.9595 472.586,-23.5804"/>
<polygon fill="midnightblue" stroke="midnightblue" points="366.702,-69.3712 358.771,-76.396 369.352,-75.8504 366.702,-69.3712"/>
</g>
<!-- Node3 -->
<g id="node3" class="node"><title>Node3</title>
<g id="a_node3"><a xlink:href="classmfem_1_1IterativeSolver.html" target="_top" xlink:title="Abstract base class for iterative solver. ">
<polygon fill="white" stroke="black" points="109.5,-0.5 109.5,-23.5 282.5,-23.5 282.5,-0.5 109.5,-0.5"/>
<text text-anchor="middle" x="196" y="-8.3" font-family="Helvetica,sans-Serif" font-size="14.00">mfem::IterativeSolver</text>
</a>
</g>
</g>
<!-- Node2&#45;&gt;Node3 -->
<g id="edge6" class="edge"><title>Node2&#45;&gt;Node3</title>
<path fill="none" stroke="#9a32cd" stroke-dasharray="5,2" d="M271.055,-73.2887C259.595,-69.3219 248.064,-64.3033 238,-58 223.69,-49.0373 211.045,-33.9966 203.461,-23.7944"/>
<polygon fill="#9a32cd" stroke="#9a32cd" points="270.038,-76.6383 280.63,-76.3785 272.188,-69.9765 270.038,-76.6383"/>
<text text-anchor="middle" x="268.5" y="-46.3" font-family="Helvetica,sans-Serif" font-size="14.00"> monitor</text>
</g>
<!-- Node3&#45;&gt;Node2 -->
<g id="edge2" class="edge"><title>Node3&#45;&gt;Node2</title>
<path fill="none" stroke="#9a32cd" stroke-dasharray="5,2" d="M274.011,-26.8159C284.326,-30.6896 294.318,-35.6495 303,-42 315.003,-50.7791 323.33,-66.1625 327.888,-76.4654"/>
<polygon fill="#9a32cd" stroke="#9a32cd" points="275.07,-23.4791 264.475,-23.555 272.805,-30.1025 275.07,-23.4791"/>
<text text-anchor="middle" x="358" y="-46.3" font-family="Helvetica,sans-Serif" font-size="14.00"> iter_solver</text>
</g>
<!-- Node4 -->
<g id="node4" class="node"><title>Node4</title>
<g id="a_node4"><a xlink:href="classmfem_1_1Solver.html" target="_top" xlink:title="Base class for solvers. ">
<polygon fill="white" stroke="black" points="87.5,-76.5 87.5,-99.5 200.5,-99.5 200.5,-76.5 87.5,-76.5"/>
<text text-anchor="middle" x="144" y="-84.3" font-family="Helvetica,sans-Serif" font-size="14.00">mfem::Solver</text>
</a>
</g>
</g>
<!-- Node4&#45;&gt;Node3 -->
<g id="edge3" class="edge"><title>Node4&#45;&gt;Node3</title>
<path fill="none" stroke="midnightblue" d="M170.246,-70.452C174.63,-66.7765 178.79,-62.5906 182,-58 189.221,-47.6744 192.821,-33.4873 194.543,-23.8212"/>
<polygon fill="midnightblue" stroke="midnightblue" points="168.126,-67.6669 162.267,-76.4939 172.352,-73.2476 168.126,-67.6669"/>
</g>
<!-- Node4&#45;&gt;Node3 -->
<g id="edge5" class="edge"><title>Node4&#45;&gt;Node3</title>
<path fill="none" stroke="#9a32cd" stroke-dasharray="5,2" d="M137.739,-66.3209C136.486,-58.2254 136.669,-49.179 141,-42 145.907,-33.866 153.939,-27.8974 162.368,-23.5666"/>
<polygon fill="#9a32cd" stroke="#9a32cd" points="134.351,-67.2056 139.985,-76.1785 141.176,-65.6509 134.351,-67.2056"/>
<text text-anchor="middle" x="159.5" y="-46.3" font-family="Helvetica,sans-Serif" font-size="14.00"> prec</text>
</g>
<!-- Node5 -->
<g id="node5" class="node"><title>Node5</title>
<g id="a_node5"><a xlink:href="classmfem_1_1Operator.html" target="_top" xlink:title="Abstract operator. ">
<polygon fill="white" stroke="black" points="-0.5,-152.5 -0.5,-175.5 132.5,-175.5 132.5,-152.5 -0.5,-152.5"/>
<text text-anchor="middle" x="66" y="-160.3" font-family="Helvetica,sans-Serif" font-size="14.00">mfem::Operator</text>
</a>
</g>
</g>
<!-- Node5&#45;&gt;Node4 -->
<g id="edge4" class="edge"><title>Node5&#45;&gt;Node4</title>
<path fill="none" stroke="midnightblue" d="M84.4453,-145.501C99.4824,-131.235 120.227,-111.554 132.845,-99.5827"/>
<polygon fill="midnightblue" stroke="midnightblue" points="82.0212,-142.976 77.1755,-152.398 86.8391,-148.054 82.0212,-142.976"/>
</g>
<!-- Node5&#45;&gt;Node3 -->
<g id="edge7" class="edge"><title>Node5&#45;&gt;Node3</title>
<path fill="none" stroke="#9a32cd" stroke-dasharray="5,2" d="M51.7866,-144.239C39.55,-125.61 25.9078,-96.8891 40,-76 59.0303,-47.7911 93.0471,-32.2096 124.469,-23.6046"/>
<polygon fill="#9a32cd" stroke="#9a32cd" points="48.9574,-146.301 57.553,-152.495 54.6962,-142.293 48.9574,-146.301"/>
<text text-anchor="middle" x="59" y="-84.3" font-family="Helvetica,sans-Serif" font-size="14.00"> oper</text>
</g>
<!-- Node6 -->
<g id="node6" class="node"><title>Node6</title>
<g id="a_node6"><a xlink:href="classmfem_1_1Array.html" target="_top" xlink:title="mfem::Array\&lt; int \&gt;">
<polygon fill="white" stroke="black" points="464,-76.5 464,-99.5 622,-99.5 622,-76.5 464,-76.5"/>
<text text-anchor="middle" x="543" y="-84.3" font-family="Helvetica,sans-Serif" font-size="14.00">mfem::Array&lt; int &gt;</text>
</a>
</g>
</g>
<!-- Node6&#45;&gt;Node1 -->
<g id="edge8" class="edge"><title>Node6&#45;&gt;Node1</title>
<path fill="none" stroke="#9a32cd" stroke-dasharray="5,2" d="M530.101,-67.9088C520.568,-53.8005 507.942,-35.1143 500.15,-23.5827"/>
<polygon fill="#9a32cd" stroke="#9a32cd" points="527.338,-70.0712 535.836,-76.3976 533.138,-66.1522 527.338,-70.0712"/>
<text text-anchor="middle" x="570.5" y="-46.3" font-family="Helvetica,sans-Serif" font-size="14.00"> ess_dofs_list</text>
</g>
<!-- Node7 -->
<g id="node7" class="node"><title>Node7</title>
<g id="a_node7"><a xlink:href="classmfem_1_1Memory.html" target="_top" xlink:title="mfem::Memory\&lt; int \&gt;">
<polygon fill="white" stroke="black" points="454,-152.5 454,-175.5 632,-175.5 632,-152.5 454,-152.5"/>
<text text-anchor="middle" x="543" y="-160.3" font-family="Helvetica,sans-Serif" font-size="14.00">mfem::Memory&lt; int &gt;</text>
</a>
</g>
</g>
<!-- Node7&#45;&gt;Node6 -->
<g id="edge9" class="edge"><title>Node7&#45;&gt;Node6</title>
<path fill="none" stroke="#9a32cd" stroke-dasharray="5,2" d="M543,-142.277C543,-128.387 543,-110.675 543,-99.5827"/>
<polygon fill="#9a32cd" stroke="#9a32cd" points="539.5,-142.398 543,-152.398 546.5,-142.398 539.5,-142.398"/>
<text text-anchor="middle" x="561.5" y="-122.3" font-family="Helvetica,sans-Serif" font-size="14.00"> data</text>
</g>
</g>
</svg>
        <g id="navigator" transform="translate(0 0)" fill="#404254">
                <rect fill="#f2f5e9" fill-opacity="0.5" stroke="#606060" stroke-width=".5" x="0" y="0" width="60" height="60"/>
                <use id="zoomplus" xlink:href="#zoomPlus" x="17" y="9" onmousedown="handleZoom(evt,'in')"/>
                <use id="zoomminus" xlink:href="#zoomMin" x="42" y="9" onmousedown="handleZoom(evt,'out')"/>
                <use id="reset" xlink:href="#resetDef" x="30" y="36" onmousedown="handleReset()"/>
                <g id="arrowUp" xlink:href="#dirArrow" transform="translate(30 24)" onmousedown="handlePan(0,-1)">
                  <use xlink:href="#rim" fill="#404040">
                        <set attributeName="fill" to="#808080" begin="arrowUp.mouseover" end="arrowUp.mouseout"/>
                  </use>
                  <path fill="none" stroke="white" stroke-width="1.5" d="M0,-3.0v7 M-2.5,-0.5L0,-3.0L2.5,-0.5"/>
                </g>
                <g id="arrowRight" xlink:href="#dirArrow" transform="rotate(90) translate(36 -43)" onmousedown="handlePan(1,0)">
                  <use xlink:href="#rim" fill="#404040">
                        <set attributeName="fill" to="#808080" begin="arrowRight.mouseover" end="arrowRight.mouseout"/>
                  </use>
                  <path fill="none" stroke="white" stroke-width="1.5" d="M0,-3.0v7 M-2.5,-0.5L0,-3.0L2.5,-0.5"/>
                </g>
                <g id="arrowDown" xlink:href="#dirArrow" transform="rotate(180) translate(-30 -48)" onmousedown="handlePan(0,1)">
                  <use xlink:href="#rim" fill="#404040">
                        <set attributeName="fill" to="#808080" begin="arrowDown.mouseover" end="arrowDown.mouseout"/>
                  </use>
                  <path fill="none" stroke="white" stroke-width="1.5" d="M0,-3.0v7 M-2.5,-0.5L0,-3.0L2.5,-0.5"/>
                </g>
                <g id="arrowLeft" xlink:href="#dirArrow" transform="rotate(270) translate(-36 17)" onmousedown="handlePan(-1,0)">
                  <use xlink:href="#rim" fill="#404040">
                        <set attributeName="fill" to="#808080" begin="arrowLeft.mouseover" end="arrowLeft.mouseout"/>
                  </use>
                  <path fill="none" stroke="white" stroke-width="1.5" d="M0,-3.0v7 M-2.5,-0.5L0,-3.0L2.5,-0.5"/>
                </g>
        </g>
        <svg viewBox="0 0 15 15" width="100%" height="30px" preserveAspectRatio="xMaxYMin meet">
         <g id="arrow_out" transform="scale(0.3 0.3)">
          <a xlink:href="classmfem_1_1ResidualBCMonitor__coll__graph_org.svg" target="_base">
           <rect id="button" ry="5" rx="5" y="6" x="6" height="38" width="38"
                fill="#f2f5e9" fill-opacity="0.5" stroke="#606060" stroke-width="1.0"/>
           <path id="arrow"
             d="M 11.500037,31.436501 C 11.940474,20.09759 22.043105,11.32322 32.158766,21.979434 L 37.068811,17.246167 C 37.068811,17.246167 37.088388,32 37.088388,32 L 22.160133,31.978069 C 22.160133,31.978069 26.997745,27.140456 26.997745,27.140456 C 18.528582,18.264221 13.291696,25.230495 11.500037,31.436501 z"
             style="fill:#404040;"/>
          </a>
         </g>
        </svg>
</svg>
