<?xml version="1.0" encoding="UTF-8" standalone="no"?>
<!DOCTYPE svg PUBLIC "-//W3C//DTD SVG 1.1//EN"
 "http://www.w3.org/Graphics/SVG/1.1/DTD/svg11.dtd">
<!-- Generated by graphviz version 2.30.1 (20200304.1809)
 -->
<!-- Title: mfem::ParL2FaceRestriction Pages: 1 -->
<svg width="222pt" height="212pt"
 viewBox="0.00 0.00 222.00 212.00" xmlns="http://www.w3.org/2000/svg" xmlns:xlink="http://www.w3.org/1999/xlink">
<g id="graph0" class="graph" transform="scale(1 1) rotate(0) translate(4 208)">
<title>mfem::ParL2FaceRestriction</title>
<polygon fill="white" stroke="white" points="-4,5 -4,-208 219,-208 219,5 -4,5"/>
<!-- Node1 -->
<g id="node1" class="node"><title>Node1</title>
<polygon fill="#bfbfbf" stroke="black" points="-0.5,-0.5 -0.5,-23.5 214.5,-23.5 214.5,-0.5 -0.5,-0.5"/>
<text text-anchor="middle" x="107" y="-8.3" font-family="Helvetica,sans-Serif" font-size="14.00">mfem::ParL2FaceRestriction</text>
</g>
<!-- Node2 -->
<g id="node2" class="node"><title>Node2</title>
<g id="a_node2"><a xlink:href="classmfem_1_1L2FaceRestriction.html" target="_top" xlink:title="Operator that extracts Face degrees of freedom on L2 FiniteElementSpaces. ">
<polygon fill="white" stroke="black" points="10.5,-60.5 10.5,-83.5 203.5,-83.5 203.5,-60.5 10.5,-60.5"/>
<text text-anchor="middle" x="107" y="-68.3" font-family="Helvetica,sans-Serif" font-size="14.00">mfem::L2FaceRestriction</text>
</a>
</g>
</g>
<!-- Node2&#45;&gt;Node1 -->
<g id="edge1" class="edge"><title>Node2&#45;&gt;Node1</title>
<path fill="none" stroke="midnightblue" d="M107,-50.1906C107,-41.1684 107,-30.9941 107,-23.5707"/>
<polygon fill="midnightblue" stroke="midnightblue" points="103.5,-50.3619 107,-60.3619 110.5,-50.3619 103.5,-50.3619"/>
</g>
<!-- Node3 -->
<g id="node3" class="node"><title>Node3</title>
<g id="a_node3"><a xlink:href="classmfem_1_1FaceRestriction.html" target="_top" xlink:title="Base class for operators that extracts Face degrees of freedom. ">
<polygon fill="white" stroke="black" points="19,-120.5 19,-143.5 195,-143.5 195,-120.5 19,-120.5"/>
<text text-anchor="middle" x="107" y="-128.3" font-family="Helvetica,sans-Serif" font-size="14.00">mfem::FaceRestriction</text>
</a>
</g>
</g>
<!-- Node3&#45;&gt;Node2 -->
<g id="edge2" class="edge"><title>Node3&#45;&gt;Node2</title>
<path fill="none" stroke="midnightblue" d="M107,-110.191C107,-101.168 107,-90.9941 107,-83.5707"/>
<polygon fill="midnightblue" stroke="midnightblue" points="103.5,-110.362 107,-120.362 110.5,-110.362 103.5,-110.362"/>
</g>
<!-- Node4 -->
<g id="node4" class="node"><title>Node4</title>
<g id="a_node4"><a xlink:href="classmfem_1_1Operator.html" target="_top" xlink:title="Abstract operator. ">
<polygon fill="white" stroke="black" points="40.5,-180.5 40.5,-203.5 173.5,-203.5 173.5,-180.5 40.5,-180.5"/>
<text text-anchor="middle" x="107" y="-188.3" font-family="Helvetica,sans-Serif" font-size="14.00">mfem::Operator</text>
</a>
</g>
</g>
<!-- Node4&#45;&gt;Node3 -->
<g id="edge3" class="edge"><title>Node4&#45;&gt;Node3</title>
<path fill="none" stroke="midnightblue" d="M107,-170.191C107,-161.168 107,-150.994 107,-143.571"/>
<polygon fill="midnightblue" stroke="midnightblue" points="103.5,-170.362 107,-180.362 110.5,-170.362 103.5,-170.362"/>
</g>
</g>
</svg>
