<?xml version="1.0" encoding="UTF-8" standalone="no"?>
<!DOCTYPE svg PUBLIC "-//W3C//DTD SVG 1.1//EN"
 "http://www.w3.org/Graphics/SVG/1.1/DTD/svg11.dtd">
<!-- Generated by graphviz version 2.30.1 (20200304.1809)
 -->
<!-- Title: mfem::H1Pos_WedgeElement Pages: 1 -->
<svg width="236pt" height="212pt"
 viewBox="0.00 0.00 236.00 212.00" xmlns="http://www.w3.org/2000/svg" xmlns:xlink="http://www.w3.org/1999/xlink">
<g id="graph0" class="graph" transform="scale(1 1) rotate(0) translate(4 208)">
<title>mfem::H1Pos_WedgeElement</title>
<polygon fill="white" stroke="white" points="-4,5 -4,-208 233,-208 233,5 -4,5"/>
<!-- Node1 -->
<g id="node1" class="node"><title>Node1</title>
<polygon fill="#bfbfbf" stroke="black" points="0,-0.5 0,-23.5 228,-23.5 228,-0.5 0,-0.5"/>
<text text-anchor="middle" x="114" y="-8.3" font-family="Helvetica,sans-Serif" font-size="14.00">mfem::H1Pos_WedgeElement</text>
</g>
<!-- Node2 -->
<g id="node2" class="node"><title>Node2</title>
<g id="a_node2"><a xlink:href="classmfem_1_1PositiveFiniteElement.html" target="_top" xlink:title="Class for finite elements utilizing the always positive Bernstein basis. ">
<polygon fill="white" stroke="black" points="4,-60.5 4,-83.5 224,-83.5 224,-60.5 4,-60.5"/>
<text text-anchor="middle" x="114" y="-68.3" font-family="Helvetica,sans-Serif" font-size="14.00">mfem::PositiveFiniteElement</text>
</a>
</g>
</g>
<!-- Node2&#45;&gt;Node1 -->
<g id="edge1" class="edge"><title>Node2&#45;&gt;Node1</title>
<path fill="none" stroke="midnightblue" d="M114,-50.1906C114,-41.1684 114,-30.9941 114,-23.5707"/>
<polygon fill="midnightblue" stroke="midnightblue" points="110.5,-50.3619 114,-60.3619 117.5,-50.3619 110.5,-50.3619"/>
</g>
<!-- Node3 -->
<g id="node3" class="node"><title>Node3</title>
<g id="a_node3"><a xlink:href="classmfem_1_1ScalarFiniteElement.html" target="_top" xlink:title="Class for finite elements with basis functions that return scalar values. ">
<polygon fill="white" stroke="black" points="9,-120.5 9,-143.5 219,-143.5 219,-120.5 9,-120.5"/>
<text text-anchor="middle" x="114" y="-128.3" font-family="Helvetica,sans-Serif" font-size="14.00">mfem::ScalarFiniteElement</text>
</a>
</g>
</g>
<!-- Node3&#45;&gt;Node2 -->
<g id="edge2" class="edge"><title>Node3&#45;&gt;Node2</title>
<path fill="none" stroke="midnightblue" d="M114,-110.191C114,-101.168 114,-90.9941 114,-83.5707"/>
<polygon fill="midnightblue" stroke="midnightblue" points="110.5,-110.362 114,-120.362 117.5,-110.362 110.5,-110.362"/>
</g>
<!-- Node4 -->
<g id="node4" class="node"><title>Node4</title>
<g id="a_node4"><a xlink:href="classmfem_1_1FiniteElement.html" target="_top" xlink:title="Abstract class for all finite elements. ">
<polygon fill="white" stroke="black" points="31,-180.5 31,-203.5 197,-203.5 197,-180.5 31,-180.5"/>
<text text-anchor="middle" x="114" y="-188.3" font-family="Helvetica,sans-Serif" font-size="14.00">mfem::FiniteElement</text>
</a>
</g>
</g>
<!-- Node4&#45;&gt;Node3 -->
<g id="edge3" class="edge"><title>Node4&#45;&gt;Node3</title>
<path fill="none" stroke="midnightblue" d="M114,-170.191C114,-161.168 114,-150.994 114,-143.571"/>
<polygon fill="midnightblue" stroke="midnightblue" points="110.5,-170.362 114,-180.362 117.5,-170.362 110.5,-170.362"/>
</g>
</g>
</svg>
