<?xml version="1.0" encoding="UTF-8" standalone="no"?>
<!DOCTYPE svg PUBLIC "-//W3C//DTD SVG 1.1//EN"
 "http://www.w3.org/Graphics/SVG/1.1/DTD/svg11.dtd">
<!-- Generated by graphviz version 2.30.1 (20200304.1809)
 -->
<!-- Title: mfem::InverseElementTransformation Pages: 1 -->
<svg width="385pt" height="352pt"
 viewBox="0.00 0.00 385.00 352.00" xmlns="http://www.w3.org/2000/svg" xmlns:xlink="http://www.w3.org/1999/xlink">
<g id="graph0" class="graph" transform="scale(1 1) rotate(0) translate(4 348)">
<title>mfem::InverseElementTransformation</title>
<polygon fill="white" stroke="white" points="-4,5 -4,-348 382,-348 382,5 -4,5"/>
<!-- Node1 -->
<g id="node1" class="node"><title>Node1</title>
<polygon fill="#bfbfbf" stroke="black" points="0,-0.5 0,-23.5 290,-23.5 290,-0.5 0,-0.5"/>
<text text-anchor="middle" x="145" y="-8.3" font-family="Helvetica,sans-Serif" font-size="14.00">mfem::InverseElementTransformation</text>
</g>
<!-- Node2 -->
<g id="node2" class="node"><title>Node2</title>
<g id="a_node2"><a xlink:href="classmfem_1_1IntegrationPoint.html" target="_top" xlink:title="Class for integration point with weight. ">
<polygon fill="white" stroke="black" points="5,-196.5 5,-219.5 187,-219.5 187,-196.5 5,-196.5"/>
<text text-anchor="middle" x="96" y="-204.3" font-family="Helvetica,sans-Serif" font-size="14.00">mfem::IntegrationPoint</text>
</a>
</g>
</g>
<!-- Node2&#45;&gt;Node1 -->
<g id="edge1" class="edge"><title>Node2&#45;&gt;Node1</title>
<path fill="none" stroke="#9a32cd" stroke-dasharray="5,2" d="M94.3332,-186.195C92.9135,-159.841 92.7381,-113.358 105,-76 111.626,-55.812 126.179,-35.6347 135.782,-23.7395"/>
<polygon fill="#9a32cd" stroke="#9a32cd" points="90.8606,-186.729 95.0089,-196.478 97.8456,-186.27 90.8606,-186.729"/>
<text text-anchor="middle" x="118.5" y="-84.3" font-family="Helvetica,sans-Serif" font-size="14.00"> ip0</text>
</g>
<!-- Node3 -->
<g id="node3" class="node"><title>Node3</title>
<g id="a_node3"><a xlink:href="classmfem_1_1ElementTransformation.html" target="_top" xlink:title="mfem::ElementTransformation">
<polygon fill="white" stroke="black" points="141,-76.5 141,-99.5 377,-99.5 377,-76.5 141,-76.5"/>
<text text-anchor="middle" x="259" y="-84.3" font-family="Helvetica,sans-Serif" font-size="14.00">mfem::ElementTransformation</text>
</a>
</g>
</g>
<!-- Node2&#45;&gt;Node3 -->
<g id="edge3" class="edge"><title>Node2&#45;&gt;Node3</title>
<path fill="none" stroke="#9a32cd" stroke-dasharray="5,2" d="M114.655,-189.338C135.269,-170.348 169.94,-139.936 203,-118 213.309,-111.16 225.428,-104.708 235.751,-99.6342"/>
<polygon fill="#9a32cd" stroke="#9a32cd" points="112.163,-186.875 107.226,-196.25 116.931,-192.001 112.163,-186.875"/>
<text text-anchor="middle" x="232" y="-144.3" font-family="Helvetica,sans-Serif" font-size="14.00"> IntPoint</text>
</g>
<!-- Node3&#45;&gt;Node1 -->
<g id="edge2" class="edge"><title>Node3&#45;&gt;Node1</title>
<path fill="none" stroke="#9a32cd" stroke-dasharray="5,2" d="M234.132,-70.8576C212.024,-56.5065 180.337,-35.9379 161.303,-23.5827"/>
<polygon fill="#9a32cd" stroke="#9a32cd" points="232.373,-73.8886 242.667,-76.3976 236.184,-68.0171 232.373,-73.8886"/>
<text text-anchor="middle" x="219" y="-46.3" font-family="Helvetica,sans-Serif" font-size="14.00"> T</text>
</g>
<!-- Node4 -->
<g id="node4" class="node"><title>Node4</title>
<g id="a_node4"><a xlink:href="classmfem_1_1DenseMatrix.html" target="_top" xlink:title="Data type dense matrix using column&#45;major storage. ">
<polygon fill="white" stroke="black" points="205,-196.5 205,-219.5 363,-219.5 363,-196.5 205,-196.5"/>
<text text-anchor="middle" x="284" y="-204.3" font-family="Helvetica,sans-Serif" font-size="14.00">mfem::DenseMatrix</text>
</a>
</g>
</g>
<!-- Node4&#45;&gt;Node3 -->
<g id="edge4" class="edge"><title>Node4&#45;&gt;Node3</title>
<path fill="none" stroke="#9a32cd" stroke-dasharray="5,2" d="M279.561,-186.047C274.185,-160.672 265.341,-118.927 261.23,-99.5236"/>
<polygon fill="#9a32cd" stroke="#9a32cd" points="276.196,-187.053 281.693,-196.11 283.044,-185.602 276.196,-187.053"/>
<text text-anchor="middle" x="303.5" y="-166.8" font-family="Helvetica,sans-Serif" font-size="14.00"> adjJ</text>
<text text-anchor="middle" x="303.5" y="-151.8" font-family="Helvetica,sans-Serif" font-size="14.00">dFdx</text>
<text text-anchor="middle" x="303.5" y="-136.8" font-family="Helvetica,sans-Serif" font-size="14.00">d2Fdx2</text>
<text text-anchor="middle" x="303.5" y="-121.8" font-family="Helvetica,sans-Serif" font-size="14.00">invJ</text>
</g>
<!-- Node5 -->
<g id="node5" class="node"><title>Node5</title>
<g id="a_node5"><a xlink:href="classmfem_1_1Matrix.html" target="_top" xlink:title="Abstract data type matrix. ">
<polygon fill="white" stroke="black" points="227.5,-258.5 227.5,-281.5 340.5,-281.5 340.5,-258.5 227.5,-258.5"/>
<text text-anchor="middle" x="284" y="-266.3" font-family="Helvetica,sans-Serif" font-size="14.00">mfem::Matrix</text>
</a>
</g>
</g>
<!-- Node5&#45;&gt;Node4 -->
<g id="edge5" class="edge"><title>Node5&#45;&gt;Node4</title>
<path fill="none" stroke="midnightblue" d="M284,-248.231C284,-238.592 284,-227.544 284,-219.634"/>
<polygon fill="midnightblue" stroke="midnightblue" points="280.5,-248.273 284,-258.273 287.5,-248.273 280.5,-248.273"/>
</g>
<!-- Node6 -->
<g id="node6" class="node"><title>Node6</title>
<g id="a_node6"><a xlink:href="classmfem_1_1Operator.html" target="_top" xlink:title="Abstract operator. ">
<polygon fill="white" stroke="black" points="217.5,-320.5 217.5,-343.5 350.5,-343.5 350.5,-320.5 217.5,-320.5"/>
<text text-anchor="middle" x="284" y="-328.3" font-family="Helvetica,sans-Serif" font-size="14.00">mfem::Operator</text>
</a>
</g>
</g>
<!-- Node6&#45;&gt;Node5 -->
<g id="edge6" class="edge"><title>Node6&#45;&gt;Node5</title>
<path fill="none" stroke="midnightblue" d="M284,-310.231C284,-300.592 284,-289.544 284,-281.634"/>
<polygon fill="midnightblue" stroke="midnightblue" points="280.5,-310.273 284,-320.273 287.5,-310.273 280.5,-310.273"/>
</g>
</g>
</svg>
