<?xml version="1.0" encoding="UTF-8" standalone="no"?>
<!DOCTYPE svg PUBLIC "-//W3C//DTD SVG 1.1//EN"
 "http://www.w3.org/Graphics/SVG/1.1/DTD/svg11.dtd">
<!-- Generated by graphviz version 2.30.1 (20170916.1124)
 -->
<!-- Title: mfem::igzstream Pages: 1 -->
<svg width="448pt" height="310pt"
 viewBox="0.00 0.00 448.00 310.00" xmlns="http://www.w3.org/2000/svg" xmlns:xlink="http://www.w3.org/1999/xlink">
<g id="graph0" class="graph" transform="scale(1 1) rotate(0) translate(4 306)">
<title>mfem::igzstream</title>
<polygon fill="white" stroke="white" points="-4,5 -4,-306 445,-306 445,5 -4,5"/>
<!-- Node1 -->
<g id="node1" class="node"><title>Node1</title>
<polygon fill="#bfbfbf" stroke="black" points="238.5,-0.5 238.5,-23.5 357.5,-23.5 357.5,-0.5 238.5,-0.5"/>
<text text-anchor="middle" x="298" y="-8.3" font-family="Helvetica,sans-Serif" font-size="14.00">mfem::igzstream</text>
</g>
<!-- Node2 -->
<g id="node2" class="node"><title>Node2</title>
<g id="a_node2"><a xlink:href="classmfem_1_1gzstreambase.html" target="_top" xlink:title="mfem::gzstreambase">
<polygon fill="white" stroke="black" points="143.5,-62.5 143.5,-85.5 288.5,-85.5 288.5,-62.5 143.5,-62.5"/>
<text text-anchor="middle" x="216" y="-70.3" font-family="Helvetica,sans-Serif" font-size="14.00">mfem::gzstreambase</text>
</a>
</g>
</g>
<!-- Node2&#45;&gt;Node1 -->
<g id="edge1" class="edge"><title>Node2&#45;&gt;Node1</title>
<path fill="none" stroke="midnightblue" d="M238.989,-56.1784C253.252,-45.7421 271.145,-32.6502 283.467,-23.6339"/>
<polygon fill="midnightblue" stroke="midnightblue" points="236.663,-53.5435 230.66,-62.2732 240.797,-59.1927 236.663,-53.5435"/>
</g>
<!-- Node3 -->
<g id="node3" class="node"><title>Node3</title>
<g id="a_node3"><a xlink:title="STL class. ">
<polygon fill="white" stroke="#bfbfbf" points="58.5,-146.5 58.5,-169.5 117.5,-169.5 117.5,-146.5 58.5,-146.5"/>
<text text-anchor="middle" x="88" y="-154.3" font-family="Helvetica,sans-Serif" font-size="14.00">std::ios</text>
</a>
</g>
</g>
<!-- Node3&#45;&gt;Node2 -->
<g id="edge2" class="edge"><title>Node3&#45;&gt;Node2</title>
<path fill="none" stroke="midnightblue" d="M112.913,-141.04C138.514,-124.639 177.639,-99.5751 199.592,-85.5117"/>
<polygon fill="midnightblue" stroke="midnightblue" points="111.004,-138.106 104.472,-146.448 114.78,-144.001 111.004,-138.106"/>
</g>
<!-- Node4 -->
<g id="node4" class="node"><title>Node4</title>
<g id="a_node4"><a xlink:title="STL class. ">
<polygon fill="white" stroke="#bfbfbf" points="-0.5,-216.5 -0.5,-239.5 148.5,-239.5 148.5,-216.5 -0.5,-216.5"/>
<text text-anchor="middle" x="74" y="-224.3" font-family="Helvetica,sans-Serif" font-size="14.00">std::basic_ios&lt; char &gt;</text>
</a>
</g>
</g>
<!-- Node4&#45;&gt;Node3 -->
<g id="edge3" class="edge"><title>Node4&#45;&gt;Node3</title>
<path fill="none" stroke="midnightblue" d="M78.2676,-206.272C80.7472,-194.228 83.7694,-179.549 85.7817,-169.775"/>
<polygon fill="midnightblue" stroke="midnightblue" points="74.776,-205.875 76.1875,-216.375 81.6322,-207.286 74.776,-205.875"/>
</g>
<!-- Node5 -->
<g id="node5" class="node"><title>Node5</title>
<g id="a_node5"><a xlink:title="STL class. ">
<polygon fill="white" stroke="#bfbfbf" points="203,-278.5 203,-301.5 299,-301.5 299,-278.5 203,-278.5"/>
<text text-anchor="middle" x="251" y="-286.3" font-family="Helvetica,sans-Serif" font-size="14.00">std::ios_base</text>
</a>
</g>
</g>
<!-- Node5&#45;&gt;Node4 -->
<g id="edge4" class="edge"><title>Node5&#45;&gt;Node4</title>
<path fill="none" stroke="midnightblue" d="M210.252,-275.187C178.283,-264.35 134.447,-249.491 105.222,-239.584"/>
<polygon fill="midnightblue" stroke="midnightblue" points="209.169,-278.516 219.763,-278.411 211.416,-271.886 209.169,-278.516"/>
</g>
<!-- Node10 -->
<g id="node10" class="node"><title>Node10</title>
<g id="a_node10"><a xlink:title="STL class. ">
<polygon fill="white" stroke="#bfbfbf" points="288,-216.5 288,-239.5 440,-239.5 440,-216.5 288,-216.5"/>
<text text-anchor="middle" x="364" y="-224.3" font-family="Helvetica,sans-Serif" font-size="14.00">std::basic_ios&lt; Char &gt;</text>
</a>
</g>
</g>
<!-- Node5&#45;&gt;Node10 -->
<g id="edge10" class="edge"><title>Node5&#45;&gt;Node10</title>
<path fill="none" stroke="midnightblue" d="M279.937,-273.635C299.959,-263.004 326.098,-249.125 343.877,-239.685"/>
<polygon fill="midnightblue" stroke="midnightblue" points="278.133,-270.63 270.942,-278.411 281.416,-276.813 278.133,-270.63"/>
</g>
<!-- Node6 -->
<g id="node6" class="node"><title>Node6</title>
<g id="a_node6"><a xlink:href="classmfem_1_1gzstreambuf.html" target="_top" xlink:title="mfem::gzstreambuf">
<polygon fill="white" stroke="black" points="149,-146.5 149,-169.5 283,-169.5 283,-146.5 149,-146.5"/>
<text text-anchor="middle" x="216" y="-154.3" font-family="Helvetica,sans-Serif" font-size="14.00">mfem::gzstreambuf</text>
</a>
</g>
</g>
<!-- Node6&#45;&gt;Node2 -->
<g id="edge5" class="edge"><title>Node6&#45;&gt;Node2</title>
<path fill="none" stroke="#9a32cd" stroke-dasharray="5,2" d="M216,-136.203C216,-120.114 216,-98.4925 216,-85.7227"/>
<polygon fill="#9a32cd" stroke="#9a32cd" points="212.5,-136.28 216,-146.28 219.5,-136.28 212.5,-136.28"/>
<text text-anchor="middle" x="227.5" y="-108.3" font-family="Helvetica,sans-Serif" font-size="14.00"> buf</text>
</g>
<!-- Node7 -->
<g id="node7" class="node"><title>Node7</title>
<polygon fill="white" stroke="#bfbfbf" points="166.5,-216.5 166.5,-239.5 269.5,-239.5 269.5,-216.5 166.5,-216.5"/>
<text text-anchor="middle" x="218" y="-224.3" font-family="Helvetica,sans-Serif" font-size="14.00">std::streambuf</text>
</g>
<!-- Node7&#45;&gt;Node6 -->
<g id="edge6" class="edge"><title>Node7&#45;&gt;Node6</title>
<path fill="none" stroke="midnightblue" d="M217.39,-206.272C217.036,-194.228 216.604,-179.549 216.317,-169.775"/>
<polygon fill="midnightblue" stroke="midnightblue" points="213.895,-206.482 217.688,-216.375 220.892,-206.276 213.895,-206.482"/>
</g>
<!-- Node8 -->
<g id="node8" class="node"><title>Node8</title>
<g id="a_node8"><a xlink:title="STL class. ">
<polygon fill="white" stroke="#bfbfbf" points="309.5,-62.5 309.5,-85.5 396.5,-85.5 396.5,-62.5 309.5,-62.5"/>
<text text-anchor="middle" x="353" y="-70.3" font-family="Helvetica,sans-Serif" font-size="14.00">std::istream</text>
</a>
</g>
</g>
<!-- Node8&#45;&gt;Node1 -->
<g id="edge7" class="edge"><title>Node8&#45;&gt;Node1</title>
<path fill="none" stroke="midnightblue" d="M336.211,-54.6846C326.89,-44.5161 315.623,-32.2249 307.748,-23.6339"/>
<polygon fill="midnightblue" stroke="midnightblue" points="333.83,-57.2667 343.167,-62.2732 338.99,-52.5366 333.83,-57.2667"/>
</g>
<!-- Node9 -->
<g id="node9" class="node"><title>Node9</title>
<g id="a_node9"><a xlink:title="STL class. ">
<polygon fill="white" stroke="#bfbfbf" points="301,-139 301,-177 427,-177 427,-139 301,-139"/>
<text text-anchor="start" x="309" y="-161.8" font-family="Helvetica,sans-Serif" font-size="14.00">std::basic_istream</text>
<text text-anchor="middle" x="364" y="-146.8" font-family="Helvetica,sans-Serif" font-size="14.00">&lt; char &gt;</text>
</a>
</g>
</g>
<!-- Node9&#45;&gt;Node8 -->
<g id="edge8" class="edge"><title>Node9&#45;&gt;Node8</title>
<path fill="none" stroke="midnightblue" d="M360.192,-128.616C358.214,-113.871 355.913,-96.7138 354.456,-85.8572"/>
<polygon fill="midnightblue" stroke="midnightblue" points="356.76,-129.356 361.559,-138.802 363.698,-128.425 356.76,-129.356"/>
</g>
<!-- Node10&#45;&gt;Node9 -->
<g id="edge9" class="edge"><title>Node10&#45;&gt;Node9</title>
<path fill="none" stroke="midnightblue" d="M364,-206.098C364,-196.869 364,-186.12 364,-177.223"/>
<polygon fill="midnightblue" stroke="midnightblue" points="360.5,-206.375 364,-216.375 367.5,-206.375 360.5,-206.375"/>
</g>
</g>
</svg>
