<?xml version="1.0" encoding="UTF-8" standalone="no"?>
<!DOCTYPE svg PUBLIC "-//W3C//DTD SVG 1.1//EN"
 "http://www.w3.org/Graphics/SVG/1.1/DTD/svg11.dtd">
<!-- Generated by graphviz version 2.30.1 (20200304.1809)
 -->
<!-- Title: mfem::SBM2DirichletIntegrator Pages: 1 -->
<svg width="2010pt" height="314pt"
 viewBox="0.00 0.00 2010.00 314.00" xmlns="http://www.w3.org/2000/svg" xmlns:xlink="http://www.w3.org/1999/xlink">
<g id="graph0" class="graph" transform="scale(1 1) rotate(0) translate(4 310)">
<title>mfem::SBM2DirichletIntegrator</title>
<polygon fill="white" stroke="white" points="-4,5 -4,-310 2007,-310 2007,5 -4,5"/>
<!-- Node1 -->
<g id="node1" class="node"><title>Node1</title>
<polygon fill="#bfbfbf" stroke="black" points="1762.5,-153.5 1762.5,-176.5 2001.5,-176.5 2001.5,-153.5 1762.5,-153.5"/>
<text text-anchor="middle" x="1882" y="-161.3" font-family="Helvetica,sans-Serif" font-size="14.00">mfem::SBM2DirichletIntegrator</text>
</g>
<!-- Node2 -->
<g id="node2" class="node"><title>Node2</title>
<g id="a_node2"><a xlink:href="classmfem_1_1BilinearFormIntegrator.html" target="_top" xlink:title="Abstract base class BilinearFormIntegrator. ">
<polygon fill="white" stroke="black" points="1388.5,-275.5 1388.5,-298.5 1619.5,-298.5 1619.5,-275.5 1388.5,-275.5"/>
<text text-anchor="middle" x="1504" y="-283.3" font-family="Helvetica,sans-Serif" font-size="14.00">mfem::BilinearFormIntegrator</text>
</a>
</g>
</g>
<!-- Node2&#45;&gt;Node1 -->
<g id="edge1" class="edge"><title>Node2&#45;&gt;Node1</title>
<path fill="none" stroke="midnightblue" d="M1629.59,-285.281C1667.27,-281.648 1708.14,-274.489 1744,-261 1795.92,-241.47 1846.63,-197.643 1869.03,-176.647"/>
<polygon fill="midnightblue" stroke="midnightblue" points="1629.22,-281.8 1619.57,-286.173 1629.84,-288.772 1629.22,-281.8"/>
</g>
<!-- Node3 -->
<g id="node3" class="node"><title>Node3</title>
<g id="a_node3"><a xlink:href="classmfem_1_1NonlinearFormIntegrator.html" target="_top" xlink:title="This class is used to express the local action of a general nonlinear finite element operator...">
<polygon fill="white" stroke="black" points="1068,-275.5 1068,-298.5 1314,-298.5 1314,-275.5 1068,-275.5"/>
<text text-anchor="middle" x="1191" y="-283.3" font-family="Helvetica,sans-Serif" font-size="14.00">mfem::NonlinearFormIntegrator</text>
</a>
</g>
</g>
<!-- Node3&#45;&gt;Node2 -->
<g id="edge2" class="edge"><title>Node3&#45;&gt;Node2</title>
<path fill="none" stroke="midnightblue" d="M1324.13,-287C1345.52,-287 1367.51,-287 1388.44,-287"/>
<polygon fill="midnightblue" stroke="midnightblue" points="1324.02,-283.5 1314.02,-287 1324.02,-290.5 1324.02,-283.5"/>
</g>
<!-- Node4 -->
<g id="node4" class="node"><title>Node4</title>
<g id="a_node4"><a xlink:href="classmfem_1_1IntegrationRule.html" target="_top" xlink:title="Class for an integration rule &#45; an Array of IntegrationPoint. ">
<polygon fill="white" stroke="black" points="798,-275.5 798,-298.5 976,-298.5 976,-275.5 798,-275.5"/>
<text text-anchor="middle" x="887" y="-283.3" font-family="Helvetica,sans-Serif" font-size="14.00">mfem::IntegrationRule</text>
</a>
</g>
</g>
<!-- Node4&#45;&gt;Node3 -->
<g id="edge3" class="edge"><title>Node4&#45;&gt;Node3</title>
<path fill="none" stroke="#9a32cd" stroke-dasharray="5,2" d="M986.374,-287C1012.35,-287 1040.71,-287 1067.78,-287"/>
<polygon fill="#9a32cd" stroke="#9a32cd" points="986.163,-283.5 976.163,-287 986.163,-290.5 986.163,-283.5"/>
<text text-anchor="middle" x="1022" y="-290.8" font-family="Helvetica,sans-Serif" font-size="14.00"> IntRule</text>
</g>
<!-- Node5 -->
<g id="node5" class="node"><title>Node5</title>
<g id="a_node5"><a xlink:href="classmfem_1_1Array.html" target="_top" xlink:title="mfem::Array\&lt; Integration\lPoint \&gt;">
<polygon fill="white" stroke="black" points="556.5,-268 556.5,-306 759.5,-306 759.5,-268 556.5,-268"/>
<text text-anchor="start" x="564.5" y="-290.8" font-family="Helvetica,sans-Serif" font-size="14.00">mfem::Array&lt; Integration</text>
<text text-anchor="middle" x="658" y="-275.8" font-family="Helvetica,sans-Serif" font-size="14.00">Point &gt;</text>
</a>
</g>
</g>
<!-- Node5&#45;&gt;Node4 -->
<g id="edge4" class="edge"><title>Node5&#45;&gt;Node4</title>
<path fill="none" stroke="midnightblue" d="M769.798,-287C779.256,-287 788.739,-287 797.985,-287"/>
<polygon fill="midnightblue" stroke="midnightblue" points="769.557,-283.5 759.557,-287 769.557,-290.5 769.557,-283.5"/>
</g>
<!-- Node6 -->
<g id="node6" class="node"><title>Node6</title>
<g id="a_node6"><a xlink:href="classmfem_1_1Memory.html" target="_top" xlink:title="mfem::Memory\&lt; Integration\lPoint \&gt;">
<polygon fill="white" stroke="black" points="260,-268 260,-306 482,-306 482,-268 260,-268"/>
<text text-anchor="start" x="268" y="-290.8" font-family="Helvetica,sans-Serif" font-size="14.00">mfem::Memory&lt; Integration</text>
<text text-anchor="middle" x="371" y="-275.8" font-family="Helvetica,sans-Serif" font-size="14.00">Point &gt;</text>
</a>
</g>
</g>
<!-- Node6&#45;&gt;Node5 -->
<g id="edge5" class="edge"><title>Node6&#45;&gt;Node5</title>
<path fill="none" stroke="#9a32cd" stroke-dasharray="5,2" d="M492.278,-287C513.639,-287 535.683,-287 556.426,-287"/>
<polygon fill="#9a32cd" stroke="#9a32cd" points="492.188,-283.5 482.188,-287 492.188,-290.5 492.188,-283.5"/>
<text text-anchor="middle" x="519" y="-290.8" font-family="Helvetica,sans-Serif" font-size="14.00"> data</text>
</g>
<!-- Node7 -->
<g id="node7" class="node"><title>Node7</title>
<g id="a_node7"><a xlink:href="classmfem_1_1IntegrationPoint.html" target="_top" xlink:title="Class for integration point with weight. ">
<polygon fill="white" stroke="black" points="0,-275.5 0,-298.5 182,-298.5 182,-275.5 0,-275.5"/>
<text text-anchor="middle" x="91" y="-283.3" font-family="Helvetica,sans-Serif" font-size="14.00">mfem::IntegrationPoint</text>
</a>
</g>
</g>
<!-- Node7&#45;&gt;Node6 -->
<g id="edge6" class="edge"><title>Node7&#45;&gt;Node6</title>
<path fill="none" stroke="#9a32cd" stroke-dasharray="5,2" d="M192.526,-287C214.373,-287 237.597,-287 259.796,-287"/>
<polygon fill="#9a32cd" stroke="#9a32cd" points="192.259,-283.5 182.259,-287 192.259,-290.5 192.259,-283.5"/>
<text text-anchor="middle" x="221" y="-290.8" font-family="Helvetica,sans-Serif" font-size="14.00"> h_ptr</text>
</g>
<!-- Node8 -->
<g id="node8" class="node"><title>Node8</title>
<g id="a_node8"><a xlink:href="classmfem_1_1Array.html" target="_top" xlink:title="mfem::Array\&lt; int \&gt;">
<polygon fill="white" stroke="black" points="1425,-233.5 1425,-256.5 1583,-256.5 1583,-233.5 1425,-233.5"/>
<text text-anchor="middle" x="1504" y="-241.3" font-family="Helvetica,sans-Serif" font-size="14.00">mfem::Array&lt; int &gt;</text>
</a>
</g>
</g>
<!-- Node8&#45;&gt;Node1 -->
<g id="edge7" class="edge"><title>Node8&#45;&gt;Node1</title>
<path fill="none" stroke="#9a32cd" stroke-dasharray="5,2" d="M1593.21,-245.095C1638.83,-243.367 1695.06,-238.451 1744,-226 1787.65,-214.895 1834.87,-190.942 1860.9,-176.577"/>
<polygon fill="#9a32cd" stroke="#9a32cd" points="1592.92,-241.602 1583.04,-245.434 1593.16,-248.598 1592.92,-241.602"/>
<text text-anchor="middle" x="1691" y="-245.8" font-family="Helvetica,sans-Serif" font-size="14.00"> elem_marker</text>
</g>
<!-- Node9 -->
<g id="node9" class="node"><title>Node9</title>
<g id="a_node9"><a xlink:href="classmfem_1_1Memory.html" target="_top" xlink:title="mfem::Memory\&lt; int \&gt;">
<polygon fill="white" stroke="black" points="1102,-233.5 1102,-256.5 1280,-256.5 1280,-233.5 1102,-233.5"/>
<text text-anchor="middle" x="1191" y="-241.3" font-family="Helvetica,sans-Serif" font-size="14.00">mfem::Memory&lt; int &gt;</text>
</a>
</g>
</g>
<!-- Node9&#45;&gt;Node8 -->
<g id="edge8" class="edge"><title>Node9&#45;&gt;Node8</title>
<path fill="none" stroke="#9a32cd" stroke-dasharray="5,2" d="M1290.3,-245C1333.71,-245 1384.03,-245 1424.83,-245"/>
<polygon fill="#9a32cd" stroke="#9a32cd" points="1290.29,-241.5 1280.29,-245 1290.29,-248.5 1290.29,-241.5"/>
<text text-anchor="middle" x="1351" y="-248.8" font-family="Helvetica,sans-Serif" font-size="14.00"> data</text>
</g>
<!-- Node10 -->
<g id="node10" class="node"><title>Node10</title>
<g id="a_node10"><a xlink:href="classmfem_1_1DenseMatrix.html" target="_top" xlink:title="Data type dense matrix using column&#45;major storage. ">
<polygon fill="white" stroke="black" points="1425,-153.5 1425,-176.5 1583,-176.5 1583,-153.5 1425,-153.5"/>
<text text-anchor="middle" x="1504" y="-161.3" font-family="Helvetica,sans-Serif" font-size="14.00">mfem::DenseMatrix</text>
</a>
</g>
</g>
<!-- Node10&#45;&gt;Node1 -->
<g id="edge9" class="edge"><title>Node10&#45;&gt;Node1</title>
<path fill="none" stroke="#9a32cd" stroke-dasharray="5,2" d="M1593.58,-165C1643.95,-165 1707.7,-165 1762.35,-165"/>
<polygon fill="#9a32cd" stroke="#9a32cd" points="1593.36,-161.5 1583.36,-165 1593.36,-168.5 1593.36,-161.5"/>
<text text-anchor="middle" x="1691" y="-213.8" font-family="Helvetica,sans-Serif" font-size="14.00"> adjJ</text>
<text text-anchor="middle" x="1691" y="-198.8" font-family="Helvetica,sans-Serif" font-size="14.00">jmat</text>
<text text-anchor="middle" x="1691" y="-183.8" font-family="Helvetica,sans-Serif" font-size="14.00">dshapephys</text>
<text text-anchor="middle" x="1691" y="-168.8" font-family="Helvetica,sans-Serif" font-size="14.00">dshape</text>
</g>
<!-- Node11 -->
<g id="node11" class="node"><title>Node11</title>
<g id="a_node11"><a xlink:href="classmfem_1_1Matrix.html" target="_top" xlink:title="Abstract data type matrix. ">
<polygon fill="white" stroke="black" points="1134.5,-153.5 1134.5,-176.5 1247.5,-176.5 1247.5,-153.5 1134.5,-153.5"/>
<text text-anchor="middle" x="1191" y="-161.3" font-family="Helvetica,sans-Serif" font-size="14.00">mfem::Matrix</text>
</a>
</g>
</g>
<!-- Node11&#45;&gt;Node10 -->
<g id="edge10" class="edge"><title>Node11&#45;&gt;Node10</title>
<path fill="none" stroke="midnightblue" d="M1257.73,-165C1306.53,-165 1373.27,-165 1424.81,-165"/>
<polygon fill="midnightblue" stroke="midnightblue" points="1257.6,-161.5 1247.6,-165 1257.6,-168.5 1257.6,-161.5"/>
</g>
<!-- Node12 -->
<g id="node12" class="node"><title>Node12</title>
<g id="a_node12"><a xlink:href="classmfem_1_1Operator.html" target="_top" xlink:title="Abstract operator. ">
<polygon fill="white" stroke="black" points="820.5,-153.5 820.5,-176.5 953.5,-176.5 953.5,-153.5 820.5,-153.5"/>
<text text-anchor="middle" x="887" y="-161.3" font-family="Helvetica,sans-Serif" font-size="14.00">mfem::Operator</text>
</a>
</g>
</g>
<!-- Node12&#45;&gt;Node11 -->
<g id="edge11" class="edge"><title>Node12&#45;&gt;Node11</title>
<path fill="none" stroke="midnightblue" d="M963.558,-165C1016.55,-165 1086.23,-165 1134.23,-165"/>
<polygon fill="midnightblue" stroke="midnightblue" points="963.53,-161.5 953.53,-165 963.529,-168.5 963.53,-161.5"/>
</g>
<!-- Node13 -->
<g id="node13" class="node"><title>Node13</title>
<g id="a_node13"><a xlink:href="classmfem_1_1Vector.html" target="_top" xlink:title="Vector data type. ">
<polygon fill="white" stroke="black" points="1447,-42.5 1447,-65.5 1561,-65.5 1561,-42.5 1447,-42.5"/>
<text text-anchor="middle" x="1504" y="-50.3" font-family="Helvetica,sans-Serif" font-size="14.00">mfem::Vector</text>
</a>
</g>
</g>
<!-- Node13&#45;&gt;Node1 -->
<g id="edge12" class="edge"><title>Node13&#45;&gt;Node1</title>
<path fill="none" stroke="#9a32cd" stroke-dasharray="5,2" d="M1571.41,-49.5274C1620.45,-48.3985 1688.09,-51.4627 1744,-71 1796.01,-89.1748 1846.67,-132.555 1869.05,-153.412"/>
<polygon fill="#9a32cd" stroke="#9a32cd" points="1571.14,-46.0339 1561.24,-49.8275 1571.34,-53.0309 1571.14,-46.0339"/>
<text text-anchor="middle" x="1691" y="-149.8" font-family="Helvetica,sans-Serif" font-size="14.00"> dshapedn</text>
<text text-anchor="middle" x="1691" y="-134.8" font-family="Helvetica,sans-Serif" font-size="14.00">dshapephysdn</text>
<text text-anchor="middle" x="1691" y="-119.8" font-family="Helvetica,sans-Serif" font-size="14.00">nh</text>
<text text-anchor="middle" x="1691" y="-104.8" font-family="Helvetica,sans-Serif" font-size="14.00">nor</text>
<text text-anchor="middle" x="1691" y="-89.8" font-family="Helvetica,sans-Serif" font-size="14.00">ni</text>
<text text-anchor="middle" x="1691" y="-74.8" font-family="Helvetica,sans-Serif" font-size="14.00">shape</text>
</g>
<!-- Node14 -->
<g id="node14" class="node"><title>Node14</title>
<g id="a_node14"><a xlink:href="classmfem_1_1Memory.html" target="_top" xlink:title="mfem::Memory\&lt; double \&gt;">
<polygon fill="white" stroke="black" points="1086.5,-42.5 1086.5,-65.5 1295.5,-65.5 1295.5,-42.5 1086.5,-42.5"/>
<text text-anchor="middle" x="1191" y="-50.3" font-family="Helvetica,sans-Serif" font-size="14.00">mfem::Memory&lt; double &gt;</text>
</a>
</g>
</g>
<!-- Node14&#45;&gt;Node13 -->
<g id="edge13" class="edge"><title>Node14&#45;&gt;Node13</title>
<path fill="none" stroke="#9a32cd" stroke-dasharray="5,2" d="M1305.73,-54C1353.83,-54 1407.69,-54 1446.97,-54"/>
<polygon fill="#9a32cd" stroke="#9a32cd" points="1305.56,-50.5001 1295.56,-54 1305.56,-57.5001 1305.56,-50.5001"/>
<text text-anchor="middle" x="1351" y="-57.8" font-family="Helvetica,sans-Serif" font-size="14.00"> data</text>
</g>
<!-- Node15 -->
<g id="node15" class="node"><title>Node15</title>
<g id="a_node15"><a xlink:href="classmfem_1_1VectorCoefficient.html" target="_top" xlink:title="Base class for vector Coefficients that optionally depend on time and space. ">
<polygon fill="white" stroke="black" points="1409,-0.5 1409,-23.5 1599,-23.5 1599,-0.5 1409,-0.5"/>
<text text-anchor="middle" x="1504" y="-8.3" font-family="Helvetica,sans-Serif" font-size="14.00">mfem::VectorCoefficient</text>
</a>
</g>
</g>
<!-- Node15&#45;&gt;Node1 -->
<g id="edge14" class="edge"><title>Node15&#45;&gt;Node1</title>
<path fill="none" stroke="#9a32cd" stroke-dasharray="5,2" d="M1609.2,-6.18608C1652.58,-7.50356 1702.41,-14.0663 1744,-33 1804.42,-60.5075 1854.42,-126.194 1873.11,-153.149"/>
<polygon fill="#9a32cd" stroke="#9a32cd" points="1609.26,-2.68668 1599.19,-5.97031 1609.11,-9.68506 1609.26,-2.68668"/>
<text text-anchor="middle" x="1691" y="-36.8" font-family="Helvetica,sans-Serif" font-size="14.00"> vD</text>
</g>
</g>
</svg>
