<?xml version="1.0" encoding="UTF-8" standalone="no"?>
<!DOCTYPE svg PUBLIC "-//W3C//DTD SVG 1.1//EN"
 "http://www.w3.org/Graphics/SVG/1.1/DTD/svg11.dtd">
<!-- Generated by graphviz version 2.30.1 (20200304.1809)
 -->
<!-- Title: mfem::HypreSolver Pages: 1 -->
<!--zoomable 494 -->
<svg id="main" version="1.1" xmlns="http://www.w3.org/2000/svg" xmlns:xlink="http://www.w3.org/1999/xlink" xml:space="preserve" onload="init(evt)">
<style type="text/css"><![CDATA[
.edge:hover path { stroke: red; }
.edge:hover polygon { stroke: red; fill: red; }
]]></style>
<script type="text/javascript"><![CDATA[
var edges = document.getElementsByTagName('g');
if (edges && edges.length) {
  for (var i=0;i<edges.length;i++) {
    if (edges[i].id.substr(0,4)=='edge') {
      edges[i].setAttribute('class','edge');
    }
  }
}
]]></script>
        <defs>
                <circle id="rim" cx="0" cy="0" r="7"/>
                <circle id="rim2" cx="0" cy="0" r="3.5"/>
                <g id="zoomPlus">
                        <use xlink:href="#rim" fill="#404040">
                                <set attributeName="fill" to="#808080" begin="zoomplus.mouseover" end="zoomplus.mouseout"/>
                        </use>
                        <path d="M-4,0h8M0,-4v8" fill="none" stroke="white" stroke-width="1.5" pointer-events="none"/>
                </g>
                <g id="zoomMin">
                        <use xlink:href="#rim" fill="#404040">
                                <set attributeName="fill" to="#808080" begin="zoomminus.mouseover" end="zoomminus.mouseout"/>
                        </use>
                        <path d="M-4,0h8" fill="none" stroke="white" stroke-width="1.5" pointer-events="none"/>
                </g>
                <g id="dirArrow">
                        <path fill="none" stroke="white" stroke-width="1.5" d="M0,-3.0v7 M-2.5,-0.5L0,-3.0L2.5,-0.5"/>
                </g>
               <g id="resetDef">
                       <use xlink:href="#rim2" fill="#404040">
                               <set attributeName="fill" to="#808080" begin="reset.mouseover" end="reset.mouseout"/>
                       </use>
               </g>
        </defs>

<script type="text/javascript">
var viewWidth = 722;
var viewHeight = 494;
var sectionId = 'dynsection-0';
</script>
<script xlink:href="svgpan.js"/>
<svg id="graph" class="graph">
<g id="viewport">
<title>mfem::HypreSolver</title>
<polygon fill="white" stroke="white" points="-4,5 -4,-490 719,-490 719,5 -4,5"/>
<!-- Node1 -->
<g id="node1" class="node"><title>Node1</title>
<polygon fill="#bfbfbf" stroke="black" points="320,-231.5 320,-254.5 476,-254.5 476,-231.5 320,-231.5"/>
<text text-anchor="middle" x="398" y="-239.3" font-family="Helvetica,sans-Serif" font-size="14.00">mfem::HypreSolver</text>
</g>
<!-- Node4 -->
<g id="node4" class="node"><title>Node4</title>
<g id="a_node4"><a xlink:href="classmfem_1_1HypreADS.html" target="_top" xlink:title="The Auxiliary&#45;space Divergence Solver in hypre. ">
<polygon fill="white" stroke="black" points="542.5,-462.5 542.5,-485.5 683.5,-485.5 683.5,-462.5 542.5,-462.5"/>
<text text-anchor="middle" x="613" y="-470.3" font-family="Helvetica,sans-Serif" font-size="14.00">mfem::HypreADS</text>
</a>
</g>
</g>
<!-- Node1&#45;&gt;Node4 -->
<g id="edge3" class="edge"><title>Node1&#45;&gt;Node4</title>
<path fill="none" stroke="midnightblue" d="M404.1,-264.562C415.481,-307.681 447.199,-404.545 512,-453 520.95,-459.693 531.552,-464.363 542.45,-467.602"/>
<polygon fill="midnightblue" stroke="midnightblue" points="407.482,-263.657 401.637,-254.82 400.695,-265.373 407.482,-263.657"/>
</g>
<!-- Node5 -->
<g id="node5" class="node"><title>Node5</title>
<g id="a_node5"><a xlink:href="classmfem_1_1HypreAMS.html" target="_top" xlink:title="The Auxiliary&#45;space Maxwell Solver in hypre. ">
<polygon fill="white" stroke="black" points="542,-420.5 542,-443.5 684,-443.5 684,-420.5 542,-420.5"/>
<text text-anchor="middle" x="613" y="-428.3" font-family="Helvetica,sans-Serif" font-size="14.00">mfem::HypreAMS</text>
</a>
</g>
</g>
<!-- Node1&#45;&gt;Node5 -->
<g id="edge4" class="edge"><title>Node1&#45;&gt;Node5</title>
<path fill="none" stroke="midnightblue" d="M406.987,-264.215C421.792,-300.468 457.076,-373.999 512,-411 520.975,-417.046 531.35,-421.403 541.949,-424.533"/>
<polygon fill="midnightblue" stroke="midnightblue" points="410.133,-262.654 403.202,-254.64 403.623,-265.227 410.133,-262.654"/>
</g>
<!-- Node6 -->
<g id="node6" class="node"><title>Node6</title>
<g id="a_node6"><a xlink:href="classmfem_1_1HypreBoomerAMG.html" target="_top" xlink:title="The BoomerAMG solver in hypre. ">
<polygon fill="white" stroke="black" points="512.5,-378.5 512.5,-401.5 713.5,-401.5 713.5,-378.5 512.5,-378.5"/>
<text text-anchor="middle" x="613" y="-386.3" font-family="Helvetica,sans-Serif" font-size="14.00">mfem::HypreBoomerAMG</text>
</a>
</g>
</g>
<!-- Node1&#45;&gt;Node6 -->
<g id="edge5" class="edge"><title>Node1&#45;&gt;Node6</title>
<path fill="none" stroke="midnightblue" d="M411.219,-263.306C429.436,-291.705 466.498,-342.743 512,-369 518.607,-372.813 525.816,-375.937 533.238,-378.496"/>
<polygon fill="midnightblue" stroke="midnightblue" points="414.051,-261.232 405.779,-254.611 408.117,-264.945 414.051,-261.232"/>
</g>
<!-- Node7 -->
<g id="node7" class="node"><title>Node7</title>
<g id="a_node7"><a xlink:href="classmfem_1_1HypreDiagScale.html" target="_top" xlink:title="Jacobi preconditioner in hypre. ">
<polygon fill="white" stroke="black" points="522,-336.5 522,-359.5 704,-359.5 704,-336.5 522,-336.5"/>
<text text-anchor="middle" x="613" y="-344.3" font-family="Helvetica,sans-Serif" font-size="14.00">mfem::HypreDiagScale</text>
</a>
</g>
</g>
<!-- Node1&#45;&gt;Node7 -->
<g id="edge6" class="edge"><title>Node1&#45;&gt;Node7</title>
<path fill="none" stroke="midnightblue" d="M418.113,-261.356C439.333,-280.68 475.436,-310.535 512,-327 520.411,-330.788 529.531,-333.903 538.725,-336.463"/>
<polygon fill="midnightblue" stroke="midnightblue" points="420.451,-258.75 410.739,-254.515 415.69,-263.882 420.451,-258.75"/>
</g>
<!-- Node8 -->
<g id="node8" class="node"><title>Node8</title>
<g id="a_node8"><a xlink:href="classmfem_1_1HypreEuclid.html" target="_top" xlink:title="mfem::HypreEuclid">
<polygon fill="white" stroke="black" points="536.5,-294.5 536.5,-317.5 689.5,-317.5 689.5,-294.5 536.5,-294.5"/>
<text text-anchor="middle" x="613" y="-302.3" font-family="Helvetica,sans-Serif" font-size="14.00">mfem::HypreEuclid</text>
</a>
</g>
</g>
<!-- Node1&#45;&gt;Node8 -->
<g id="edge7" class="edge"><title>Node1&#45;&gt;Node8</title>
<path fill="none" stroke="midnightblue" d="M436.023,-258.35C457.863,-267.003 486.195,-277.54 512,-285 524.185,-288.523 537.364,-291.716 550.032,-294.489"/>
<polygon fill="midnightblue" stroke="midnightblue" points="437.062,-254.996 426.477,-254.525 434.458,-261.494 437.062,-254.996"/>
</g>
<!-- Node9 -->
<g id="node9" class="node"><title>Node9</title>
<g id="a_node9"><a xlink:href="classmfem_1_1HypreFGMRES.html" target="_top" xlink:title="Flexible GMRES solver in hypre. ">
<polygon fill="white" stroke="black" points="528,-252.5 528,-275.5 698,-275.5 698,-252.5 528,-252.5"/>
<text text-anchor="middle" x="613" y="-260.3" font-family="Helvetica,sans-Serif" font-size="14.00">mfem::HypreFGMRES</text>
</a>
</g>
</g>
<!-- Node1&#45;&gt;Node9 -->
<g id="edge8" class="edge"><title>Node1&#45;&gt;Node9</title>
<path fill="none" stroke="midnightblue" d="M486.543,-251.631C500.201,-252.978 514.287,-254.366 527.866,-255.705"/>
<polygon fill="midnightblue" stroke="midnightblue" points="486.494,-248.109 476.199,-250.611 485.807,-255.076 486.494,-248.109"/>
</g>
<!-- Node10 -->
<g id="node10" class="node"><title>Node10</title>
<g id="a_node10"><a xlink:href="classmfem_1_1HypreGMRES.html" target="_top" xlink:title="GMRES solver in hypre. ">
<polygon fill="white" stroke="black" points="532,-210.5 532,-233.5 694,-233.5 694,-210.5 532,-210.5"/>
<text text-anchor="middle" x="613" y="-218.3" font-family="Helvetica,sans-Serif" font-size="14.00">mfem::HypreGMRES</text>
</a>
</g>
</g>
<!-- Node1&#45;&gt;Node10 -->
<g id="edge9" class="edge"><title>Node1&#45;&gt;Node10</title>
<path fill="none" stroke="midnightblue" d="M486.492,-234.374C501.502,-232.894 517.033,-231.363 531.839,-229.903"/>
<polygon fill="midnightblue" stroke="midnightblue" points="485.807,-230.924 476.199,-235.389 486.494,-237.891 485.807,-230.924"/>
</g>
<!-- Node11 -->
<g id="node11" class="node"><title>Node11</title>
<g id="a_node11"><a xlink:href="classmfem_1_1HypreIdentity.html" target="_top" xlink:title="The identity operator as a hypre solver. ">
<polygon fill="white" stroke="black" points="530.5,-168.5 530.5,-191.5 695.5,-191.5 695.5,-168.5 530.5,-168.5"/>
<text text-anchor="middle" x="613" y="-176.3" font-family="Helvetica,sans-Serif" font-size="14.00">mfem::HypreIdentity</text>
</a>
</g>
</g>
<!-- Node1&#45;&gt;Node11 -->
<g id="edge10" class="edge"><title>Node1&#45;&gt;Node11</title>
<path fill="none" stroke="midnightblue" d="M436.023,-227.65C457.863,-218.997 486.195,-208.46 512,-201 524.185,-197.477 537.364,-194.284 550.032,-191.511"/>
<polygon fill="midnightblue" stroke="midnightblue" points="434.458,-224.506 426.477,-231.475 437.062,-231.004 434.458,-224.506"/>
</g>
<!-- Node12 -->
<g id="node12" class="node"><title>Node12</title>
<g id="a_node12"><a xlink:href="classmfem_1_1HypreILU.html" target="_top" xlink:title="Wrapper for Hypre&#39;s native parallel ILU preconditioner. ">
<polygon fill="white" stroke="black" points="546,-126.5 546,-149.5 680,-149.5 680,-126.5 546,-126.5"/>
<text text-anchor="middle" x="613" y="-134.3" font-family="Helvetica,sans-Serif" font-size="14.00">mfem::HypreILU</text>
</a>
</g>
</g>
<!-- Node1&#45;&gt;Node12 -->
<g id="edge11" class="edge"><title>Node1&#45;&gt;Node12</title>
<path fill="none" stroke="midnightblue" d="M418.113,-224.644C439.333,-205.32 475.436,-175.465 512,-159 522.595,-154.229 534.315,-150.525 545.89,-147.653"/>
<polygon fill="midnightblue" stroke="midnightblue" points="415.69,-222.118 410.739,-231.485 420.451,-227.25 415.69,-222.118"/>
</g>
<!-- Node13 -->
<g id="node13" class="node"><title>Node13</title>
<g id="a_node13"><a xlink:href="classmfem_1_1HypreParaSails.html" target="_top" xlink:title="The ParaSails preconditioner in hypre. ">
<polygon fill="white" stroke="black" points="525,-84.5 525,-107.5 701,-107.5 701,-84.5 525,-84.5"/>
<text text-anchor="middle" x="613" y="-92.3" font-family="Helvetica,sans-Serif" font-size="14.00">mfem::HypreParaSails</text>
</a>
</g>
</g>
<!-- Node1&#45;&gt;Node13 -->
<g id="edge12" class="edge"><title>Node1&#45;&gt;Node13</title>
<path fill="none" stroke="midnightblue" d="M411.219,-222.694C429.436,-194.295 466.498,-143.257 512,-117 518.607,-113.187 525.816,-110.063 533.238,-107.504"/>
<polygon fill="midnightblue" stroke="midnightblue" points="408.117,-221.055 405.779,-231.389 414.051,-224.768 408.117,-221.055"/>
</g>
<!-- Node14 -->
<g id="node14" class="node"><title>Node14</title>
<g id="a_node14"><a xlink:href="classmfem_1_1HyprePCG.html" target="_top" xlink:title="PCG solver in hypre. ">
<polygon fill="white" stroke="black" points="543,-42.5 543,-65.5 683,-65.5 683,-42.5 543,-42.5"/>
<text text-anchor="middle" x="613" y="-50.3" font-family="Helvetica,sans-Serif" font-size="14.00">mfem::HyprePCG</text>
</a>
</g>
</g>
<!-- Node1&#45;&gt;Node14 -->
<g id="edge13" class="edge"><title>Node1&#45;&gt;Node14</title>
<path fill="none" stroke="midnightblue" d="M406.987,-221.785C421.792,-185.532 457.076,-112.001 512,-75 521.269,-68.7557 532.032,-64.313 542.993,-61.1633"/>
<polygon fill="midnightblue" stroke="midnightblue" points="403.623,-220.773 403.202,-231.36 410.133,-223.346 403.623,-220.773"/>
</g>
<!-- Node15 -->
<g id="node15" class="node"><title>Node15</title>
<g id="a_node15"><a xlink:href="classmfem_1_1HypreTriSolve.html" target="_top" xlink:title="mfem::HypreTriSolve">
<polygon fill="white" stroke="black" points="529.5,-0.5 529.5,-23.5 696.5,-23.5 696.5,-0.5 529.5,-0.5"/>
<text text-anchor="middle" x="613" y="-8.3" font-family="Helvetica,sans-Serif" font-size="14.00">mfem::HypreTriSolve</text>
</a>
</g>
</g>
<!-- Node1&#45;&gt;Node15 -->
<g id="edge14" class="edge"><title>Node1&#45;&gt;Node15</title>
<path fill="none" stroke="midnightblue" d="M404.1,-221.438C415.481,-178.319 447.199,-81.4554 512,-33 517.257,-29.0693 523.083,-25.8362 529.204,-23.181"/>
<polygon fill="midnightblue" stroke="midnightblue" points="400.695,-220.627 401.637,-231.18 407.482,-222.343 400.695,-220.627"/>
</g>
<!-- Node2 -->
<g id="node2" class="node"><title>Node2</title>
<g id="a_node2"><a xlink:href="classmfem_1_1Solver.html" target="_top" xlink:title="Base class for solvers. ">
<polygon fill="white" stroke="black" points="170.5,-231.5 170.5,-254.5 283.5,-254.5 283.5,-231.5 170.5,-231.5"/>
<text text-anchor="middle" x="227" y="-239.3" font-family="Helvetica,sans-Serif" font-size="14.00">mfem::Solver</text>
</a>
</g>
</g>
<!-- Node2&#45;&gt;Node1 -->
<g id="edge1" class="edge"><title>Node2&#45;&gt;Node1</title>
<path fill="none" stroke="midnightblue" d="M293.989,-243C302.464,-243 311.2,-243 319.833,-243"/>
<polygon fill="midnightblue" stroke="midnightblue" points="293.805,-239.5 283.805,-243 293.805,-246.5 293.805,-239.5"/>
</g>
<!-- Node3 -->
<g id="node3" class="node"><title>Node3</title>
<g id="a_node3"><a xlink:href="classmfem_1_1Operator.html" target="_top" xlink:title="Abstract operator. ">
<polygon fill="white" stroke="black" points="0.5,-231.5 0.5,-254.5 133.5,-254.5 133.5,-231.5 0.5,-231.5"/>
<text text-anchor="middle" x="67" y="-239.3" font-family="Helvetica,sans-Serif" font-size="14.00">mfem::Operator</text>
</a>
</g>
</g>
<!-- Node3&#45;&gt;Node2 -->
<g id="edge2" class="edge"><title>Node3&#45;&gt;Node2</title>
<path fill="none" stroke="midnightblue" d="M143.723,-243C152.702,-243 161.737,-243 170.365,-243"/>
<polygon fill="midnightblue" stroke="midnightblue" points="143.634,-239.5 133.634,-243 143.634,-246.5 143.634,-239.5"/>
</g>
</g>
</svg>
        <g id="navigator" transform="translate(0 0)" fill="#404254">
                <rect fill="#f2f5e9" fill-opacity="0.5" stroke="#606060" stroke-width=".5" x="0" y="0" width="60" height="60"/>
                <use id="zoomplus" xlink:href="#zoomPlus" x="17" y="9" onmousedown="handleZoom(evt,'in')"/>
                <use id="zoomminus" xlink:href="#zoomMin" x="42" y="9" onmousedown="handleZoom(evt,'out')"/>
                <use id="reset" xlink:href="#resetDef" x="30" y="36" onmousedown="handleReset()"/>
                <g id="arrowUp" xlink:href="#dirArrow" transform="translate(30 24)" onmousedown="handlePan(0,-1)">
                  <use xlink:href="#rim" fill="#404040">
                        <set attributeName="fill" to="#808080" begin="arrowUp.mouseover" end="arrowUp.mouseout"/>
                  </use>
                  <path fill="none" stroke="white" stroke-width="1.5" d="M0,-3.0v7 M-2.5,-0.5L0,-3.0L2.5,-0.5"/>
                </g>
                <g id="arrowRight" xlink:href="#dirArrow" transform="rotate(90) translate(36 -43)" onmousedown="handlePan(1,0)">
                  <use xlink:href="#rim" fill="#404040">
                        <set attributeName="fill" to="#808080" begin="arrowRight.mouseover" end="arrowRight.mouseout"/>
                  </use>
                  <path fill="none" stroke="white" stroke-width="1.5" d="M0,-3.0v7 M-2.5,-0.5L0,-3.0L2.5,-0.5"/>
                </g>
                <g id="arrowDown" xlink:href="#dirArrow" transform="rotate(180) translate(-30 -48)" onmousedown="handlePan(0,1)">
                  <use xlink:href="#rim" fill="#404040">
                        <set attributeName="fill" to="#808080" begin="arrowDown.mouseover" end="arrowDown.mouseout"/>
                  </use>
                  <path fill="none" stroke="white" stroke-width="1.5" d="M0,-3.0v7 M-2.5,-0.5L0,-3.0L2.5,-0.5"/>
                </g>
                <g id="arrowLeft" xlink:href="#dirArrow" transform="rotate(270) translate(-36 17)" onmousedown="handlePan(-1,0)">
                  <use xlink:href="#rim" fill="#404040">
                        <set attributeName="fill" to="#808080" begin="arrowLeft.mouseover" end="arrowLeft.mouseout"/>
                  </use>
                  <path fill="none" stroke="white" stroke-width="1.5" d="M0,-3.0v7 M-2.5,-0.5L0,-3.0L2.5,-0.5"/>
                </g>
        </g>
        <svg viewBox="0 0 15 15" width="100%" height="30px" preserveAspectRatio="xMaxYMin meet">
         <g id="arrow_out" transform="scale(0.3 0.3)">
          <a xlink:href="classmfem_1_1HypreSolver__inherit__graph_org.svg" target="_base">
           <rect id="button" ry="5" rx="5" y="6" x="6" height="38" width="38"
                fill="#f2f5e9" fill-opacity="0.5" stroke="#606060" stroke-width="1.0"/>
           <path id="arrow"
             d="M 11.500037,31.436501 C 11.940474,20.09759 22.043105,11.32322 32.158766,21.979434 L 37.068811,17.246167 C 37.068811,17.246167 37.088388,32 37.088388,32 L 22.160133,31.978069 C 22.160133,31.978069 26.997745,27.140456 26.997745,27.140456 C 18.528582,18.264221 13.291696,25.230495 11.500037,31.436501 z"
             style="fill:#404040;"/>
          </a>
         </g>
        </svg>
</svg>
