<?xml version="1.0" encoding="UTF-8" standalone="no"?>
<!DOCTYPE svg PUBLIC "-//W3C//DTD SVG 1.1//EN"
 "http://www.w3.org/Graphics/SVG/1.1/DTD/svg11.dtd">
<!-- Generated by graphviz version 2.30.1 (20200304.1809)
 -->
<!-- Title: mfem::CubicDiscont2DFECollection Pages: 1 -->
<svg width="614pt" height="216pt"
 viewBox="0.00 0.00 614.00 216.00" xmlns="http://www.w3.org/2000/svg" xmlns:xlink="http://www.w3.org/1999/xlink">
<g id="graph0" class="graph" transform="scale(1 1) rotate(0) translate(4 212)">
<title>mfem::CubicDiscont2DFECollection</title>
<polygon fill="white" stroke="white" points="-4,5 -4,-212 611,-212 611,5 -4,5"/>
<!-- Node1 -->
<g id="node1" class="node"><title>Node1</title>
<polygon fill="#bfbfbf" stroke="black" points="0,-100.5 0,-123.5 268,-123.5 268,-100.5 0,-100.5"/>
<text text-anchor="middle" x="134" y="-108.3" font-family="Helvetica,sans-Serif" font-size="14.00">mfem::CubicDiscont2DFECollection</text>
</g>
<!-- Node2 -->
<g id="node2" class="node"><title>Node2</title>
<g id="a_node2"><a xlink:href="classmfem_1_1FiniteElementCollection.html" target="_top" xlink:title="Collection of finite elements from the same family in multiple dimensions. This class is used to matc...">
<polygon fill="white" stroke="black" points="279,-184.5 279,-207.5 515,-207.5 515,-184.5 279,-184.5"/>
<text text-anchor="middle" x="397" y="-192.3" font-family="Helvetica,sans-Serif" font-size="14.00">mfem::FiniteElementCollection</text>
</a>
</g>
</g>
<!-- Node2&#45;&gt;Node1 -->
<g id="edge1" class="edge"><title>Node2&#45;&gt;Node1</title>
<path fill="none" stroke="midnightblue" d="M353.518,-181.443C301.372,-165.185 215.085,-138.281 167.714,-123.512"/>
<polygon fill="midnightblue" stroke="midnightblue" points="352.567,-184.813 363.156,-184.448 354.651,-178.13 352.567,-184.813"/>
</g>
<!-- Node4 -->
<g id="node4" class="node"><title>Node4</title>
<g id="a_node4"><a xlink:href="classmfem_1_1Memory.html" target="_top" xlink:title="mfem::Memory\&lt; mfem\l::FiniteElementCollection * \&gt;">
<polygon fill="white" stroke="black" points="286.5,-93 286.5,-131 507.5,-131 507.5,-93 286.5,-93"/>
<text text-anchor="start" x="294.5" y="-115.8" font-family="Helvetica,sans-Serif" font-size="14.00">mfem::Memory&lt; mfem</text>
<text text-anchor="middle" x="397" y="-100.8" font-family="Helvetica,sans-Serif" font-size="14.00">::FiniteElementCollection * &gt;</text>
</a>
</g>
</g>
<!-- Node2&#45;&gt;Node4 -->
<g id="edge4" class="edge"><title>Node2&#45;&gt;Node4</title>
<path fill="none" stroke="#9a32cd" stroke-dasharray="5,2" d="M397,-174.213C397,-160.967 397,-143.968 397,-131.246"/>
<polygon fill="#9a32cd" stroke="#9a32cd" points="393.5,-174.28 397,-184.28 400.5,-174.28 393.5,-174.28"/>
<text text-anchor="middle" x="418" y="-154.3" font-family="Helvetica,sans-Serif" font-size="14.00"> h_ptr</text>
</g>
<!-- Node3 -->
<g id="node3" class="node"><title>Node3</title>
<g id="a_node3"><a xlink:href="classmfem_1_1Array.html" target="_top" xlink:title="mfem::Array\&lt; mfem::\lFiniteElementCollection * \&gt;">
<polygon fill="white" stroke="black" points="388,-1 388,-39 600,-39 600,-1 388,-1"/>
<text text-anchor="start" x="396" y="-23.8" font-family="Helvetica,sans-Serif" font-size="14.00">mfem::Array&lt; mfem::</text>
<text text-anchor="middle" x="494" y="-8.8" font-family="Helvetica,sans-Serif" font-size="14.00">FiniteElementCollection * &gt;</text>
</a>
</g>
</g>
<!-- Node3&#45;&gt;Node2 -->
<g id="edge2" class="edge"><title>Node3&#45;&gt;Node2</title>
<path fill="none" stroke="#9a32cd" stroke-dasharray="5,2" d="M509.557,-48.3835C520.752,-72.0595 531.408,-106.409 516,-132 499.602,-159.236 467.042,-175.314 440.12,-184.403"/>
<polygon fill="#9a32cd" stroke="#9a32cd" points="512.587,-46.617 504.967,-39.2561 506.333,-49.7624 512.587,-46.617"/>
<text text-anchor="middle" x="565" y="-108.3" font-family="Helvetica,sans-Serif" font-size="14.00"> var_orders</text>
</g>
<!-- Node4&#45;&gt;Node3 -->
<g id="edge3" class="edge"><title>Node4&#45;&gt;Node3</title>
<path fill="none" stroke="#9a32cd" stroke-dasharray="5,2" d="M424.121,-85.836C440.098,-71.0121 459.945,-52.5978 474.4,-39.1858"/>
<polygon fill="#9a32cd" stroke="#9a32cd" points="421.579,-83.4198 416.629,-92.7872 426.341,-88.5512 421.579,-83.4198"/>
<text text-anchor="middle" x="470.5" y="-62.3" font-family="Helvetica,sans-Serif" font-size="14.00"> data</text>
</g>
</g>
</svg>
