<?xml version="1.0" encoding="UTF-8" standalone="no"?>
<!DOCTYPE svg PUBLIC "-//W3C//DTD SVG 1.1//EN"
 "http://www.w3.org/Graphics/SVG/1.1/DTD/svg11.dtd">
<!-- Generated by graphviz version 2.30.1 (20200304.1809)
 -->
<!-- Title: mfem::TMOP_QualityMetric Pages: 1 -->
<svg width="366pt" height="414pt"
 viewBox="0.00 0.00 366.00 414.00" xmlns="http://www.w3.org/2000/svg" xmlns:xlink="http://www.w3.org/1999/xlink">
<g id="graph0" class="graph" transform="scale(1 1) rotate(0) translate(4 410)">
<title>mfem::TMOP_QualityMetric</title>
<polygon fill="white" stroke="white" points="-4,5 -4,-410 363,-410 363,5 -4,5"/>
<!-- Node1 -->
<g id="node1" class="node"><title>Node1</title>
<polygon fill="#bfbfbf" stroke="black" points="135,-0.5 135,-23.5 345,-23.5 345,-0.5 135,-0.5"/>
<text text-anchor="middle" x="240" y="-8.3" font-family="Helvetica,sans-Serif" font-size="14.00">mfem::TMOP_QualityMetric</text>
</g>
<!-- Node2 -->
<g id="node2" class="node"><title>Node2</title>
<g id="a_node2"><a xlink:href="classmfem_1_1HyperelasticModel.html" target="_top" xlink:title="Abstract class for hyperelastic models. ">
<polygon fill="white" stroke="black" points="47,-62.5 47,-85.5 247,-85.5 247,-62.5 47,-62.5"/>
<text text-anchor="middle" x="147" y="-70.3" font-family="Helvetica,sans-Serif" font-size="14.00">mfem::HyperelasticModel</text>
</a>
</g>
</g>
<!-- Node2&#45;&gt;Node1 -->
<g id="edge1" class="edge"><title>Node2&#45;&gt;Node1</title>
<path fill="none" stroke="midnightblue" d="M172.162,-56.7663C188.482,-46.2376 209.279,-32.8203 223.517,-23.6339"/>
<polygon fill="midnightblue" stroke="midnightblue" points="170.132,-53.9108 163.627,-62.2732 173.927,-59.7929 170.132,-53.9108"/>
</g>
<!-- Node3 -->
<g id="node3" class="node"><title>Node3</title>
<g id="a_node3"><a xlink:href="classmfem_1_1ElementTransformation.html" target="_top" xlink:title="mfem::ElementTransformation">
<polygon fill="white" stroke="black" points="15,-138.5 15,-161.5 251,-161.5 251,-138.5 15,-138.5"/>
<text text-anchor="middle" x="133" y="-146.3" font-family="Helvetica,sans-Serif" font-size="14.00">mfem::ElementTransformation</text>
</a>
</g>
</g>
<!-- Node3&#45;&gt;Node2 -->
<g id="edge2" class="edge"><title>Node3&#45;&gt;Node2</title>
<path fill="none" stroke="#9a32cd" stroke-dasharray="5,2" d="M136.921,-128.277C139.548,-114.387 142.899,-96.675 144.998,-85.5827"/>
<polygon fill="#9a32cd" stroke="#9a32cd" points="133.426,-127.921 135.006,-138.398 140.304,-129.223 133.426,-127.921"/>
<text text-anchor="middle" x="153.5" y="-108.3" font-family="Helvetica,sans-Serif" font-size="14.00"> Ttr</text>
</g>
<!-- Node4 -->
<g id="node4" class="node"><title>Node4</title>
<g id="a_node4"><a xlink:href="classmfem_1_1IntegrationPoint.html" target="_top" xlink:title="Class for integration point with weight. ">
<polygon fill="white" stroke="black" points="0,-258.5 0,-281.5 182,-281.5 182,-258.5 0,-258.5"/>
<text text-anchor="middle" x="91" y="-266.3" font-family="Helvetica,sans-Serif" font-size="14.00">mfem::IntegrationPoint</text>
</a>
</g>
</g>
<!-- Node4&#45;&gt;Node3 -->
<g id="edge3" class="edge"><title>Node4&#45;&gt;Node3</title>
<path fill="none" stroke="#9a32cd" stroke-dasharray="5,2" d="M93.503,-248.433C96.2979,-229.896 101.83,-202.22 112,-180 115.001,-173.443 119.594,-166.874 123.72,-161.65"/>
<polygon fill="#9a32cd" stroke="#9a32cd" points="90.0243,-248.039 92.1294,-258.422 96.9591,-248.992 90.0243,-248.039"/>
<text text-anchor="middle" x="141" y="-206.3" font-family="Helvetica,sans-Serif" font-size="14.00"> IntPoint</text>
</g>
<!-- Node5 -->
<g id="node5" class="node"><title>Node5</title>
<g id="a_node5"><a xlink:href="classmfem_1_1DenseMatrix.html" target="_top" xlink:title="Data type dense matrix using column&#45;major storage. ">
<polygon fill="white" stroke="black" points="200,-258.5 200,-281.5 358,-281.5 358,-258.5 200,-258.5"/>
<text text-anchor="middle" x="279" y="-266.3" font-family="Helvetica,sans-Serif" font-size="14.00">mfem::DenseMatrix</text>
</a>
</g>
</g>
<!-- Node5&#45;&gt;Node3 -->
<g id="edge4" class="edge"><title>Node5&#45;&gt;Node3</title>
<path fill="none" stroke="#9a32cd" stroke-dasharray="5,2" d="M235.598,-254.4C227.279,-250.48 218.993,-245.705 212,-240 186.777,-219.424 192.387,-203.63 170,-180 163.601,-173.246 155.564,-166.756 148.617,-161.635"/>
<polygon fill="#9a32cd" stroke="#9a32cd" points="234.372,-257.684 244.937,-258.468 237.167,-251.266 234.372,-257.684"/>
<text text-anchor="middle" x="238.5" y="-228.8" font-family="Helvetica,sans-Serif" font-size="14.00"> adjJ</text>
<text text-anchor="middle" x="238.5" y="-213.8" font-family="Helvetica,sans-Serif" font-size="14.00">dFdx</text>
<text text-anchor="middle" x="238.5" y="-198.8" font-family="Helvetica,sans-Serif" font-size="14.00">d2Fdx2</text>
<text text-anchor="middle" x="238.5" y="-183.8" font-family="Helvetica,sans-Serif" font-size="14.00">invJ</text>
</g>
<!-- Node5&#45;&gt;Node1 -->
<g id="edge7" class="edge"><title>Node5&#45;&gt;Node1</title>
<path fill="none" stroke="#9a32cd" stroke-dasharray="5,2" d="M278.081,-247.854C276.127,-210.138 270.487,-128.937 256,-62 253.085,-48.5304 247.887,-33.5344 244.208,-23.7228"/>
<polygon fill="#9a32cd" stroke="#9a32cd" points="274.598,-248.279 278.575,-258.099 281.59,-247.942 274.598,-248.279"/>
<text text-anchor="middle" x="275.5" y="-108.3" font-family="Helvetica,sans-Serif" font-size="14.00"> Jtr</text>
</g>
<!-- Node6 -->
<g id="node6" class="node"><title>Node6</title>
<g id="a_node6"><a xlink:href="classmfem_1_1Matrix.html" target="_top" xlink:title="Abstract data type matrix. ">
<polygon fill="white" stroke="black" points="222.5,-320.5 222.5,-343.5 335.5,-343.5 335.5,-320.5 222.5,-320.5"/>
<text text-anchor="middle" x="279" y="-328.3" font-family="Helvetica,sans-Serif" font-size="14.00">mfem::Matrix</text>
</a>
</g>
</g>
<!-- Node6&#45;&gt;Node5 -->
<g id="edge5" class="edge"><title>Node6&#45;&gt;Node5</title>
<path fill="none" stroke="midnightblue" d="M279,-310.231C279,-300.592 279,-289.544 279,-281.634"/>
<polygon fill="midnightblue" stroke="midnightblue" points="275.5,-310.273 279,-320.273 282.5,-310.273 275.5,-310.273"/>
</g>
<!-- Node7 -->
<g id="node7" class="node"><title>Node7</title>
<g id="a_node7"><a xlink:href="classmfem_1_1Operator.html" target="_top" xlink:title="Abstract operator. ">
<polygon fill="white" stroke="black" points="212.5,-382.5 212.5,-405.5 345.5,-405.5 345.5,-382.5 212.5,-382.5"/>
<text text-anchor="middle" x="279" y="-390.3" font-family="Helvetica,sans-Serif" font-size="14.00">mfem::Operator</text>
</a>
</g>
</g>
<!-- Node7&#45;&gt;Node6 -->
<g id="edge6" class="edge"><title>Node7&#45;&gt;Node6</title>
<path fill="none" stroke="midnightblue" d="M279,-372.231C279,-362.592 279,-351.544 279,-343.634"/>
<polygon fill="midnightblue" stroke="midnightblue" points="275.5,-372.273 279,-382.273 282.5,-372.273 275.5,-372.273"/>
</g>
</g>
</svg>
