<?xml version="1.0" encoding="UTF-8" standalone="no"?>
<!DOCTYPE svg PUBLIC "-//W3C//DTD SVG 1.1//EN"
 "http://www.w3.org/Graphics/SVG/1.1/DTD/svg11.dtd">
<!-- Generated by graphviz version 12.0.0 (20240704.0754)
 -->
<!-- Title: mfem::ComplexUMFPackSolver Pages: 1 -->
<svg width="366pt" height="410pt"
 viewBox="0.00 0.00 365.88 410.00" xmlns="http://www.w3.org/2000/svg" xmlns:xlink="http://www.w3.org/1999/xlink">
<g id="graph0" class="graph" transform="scale(1 1) rotate(0) translate(4 406)">
<title>mfem::ComplexUMFPackSolver</title>
<!-- Node1 -->
<g id="Node000001" class="node">
<title>Node1</title>
<g id="a_Node000001"><a xlink:title="Interface with UMFPack solver specialized for ComplexSparseMatrix This approach avoids forming a mono...">
<polygon fill="#999999" stroke="#666666" points="211,-23 0,-23 0,0 211,0 211,-23"/>
<text text-anchor="middle" x="105.5" y="-5.7" font-family="Helvetica,sans-Serif" font-size="14.00">mfem::ComplexUMFPackSolver</text>
</a>
</g>
</g>
<!-- Node2 -->
<g id="Node000002" class="node">
<title>Node2</title>
<g id="a_Node000002"><a xlink:href="classmfem_1_1Solver.html" target="_top" xlink:title="Base class for solvers.">
<polygon fill="white" stroke="#666666" points="145,-138 48,-138 48,-115 145,-115 145,-138"/>
<text text-anchor="middle" x="96.5" y="-120.7" font-family="Helvetica,sans-Serif" font-size="14.00">mfem::Solver</text>
</a>
</g>
</g>
<!-- Node2&#45;&gt;Node1 -->
<g id="edge1_Node000001_Node000002" class="edge">
<title>Node2&#45;&gt;Node1</title>
<g id="a_edge1_Node000001_Node000002"><a xlink:title=" ">
<path fill="none" stroke="#63b8ff" d="M98.25,-103.5C100.17,-79.45 103.16,-41.91 104.63,-23.47"/>
<polygon fill="#63b8ff" stroke="#63b8ff" points="94.79,-102.91 97.48,-113.16 101.77,-103.47 94.79,-102.91"/>
</a>
</g>
</g>
<!-- Node3 -->
<g id="Node000003" class="node">
<title>Node3</title>
<g id="a_Node000003"><a xlink:href="classmfem_1_1Operator.html" target="_top" xlink:title="Abstract operator.">
<polygon fill="white" stroke="#666666" points="206.88,-328 94.12,-328 94.12,-305 206.88,-305 206.88,-328"/>
<text text-anchor="middle" x="150.5" y="-310.7" font-family="Helvetica,sans-Serif" font-size="14.00">mfem::Operator</text>
</a>
</g>
</g>
<!-- Node3&#45;&gt;Node2 -->
<g id="edge2_Node000002_Node000003" class="edge">
<title>Node3&#45;&gt;Node2</title>
<g id="a_edge2_Node000002_Node000003"><a xlink:title=" ">
<path fill="none" stroke="#63b8ff" d="M144.21,-293.59C132.62,-253.25 108.31,-168.6 99.65,-138.45"/>
<polygon fill="#63b8ff" stroke="#63b8ff" points="140.82,-294.48 146.95,-303.13 147.55,-292.55 140.82,-294.48"/>
</a>
</g>
</g>
<!-- Node5 -->
<g id="Node000005" class="node">
<title>Node5</title>
<g id="a_Node000005"><a xlink:href="classmfem_1_1ComplexOperator.html" target="_top" xlink:title="Mimic the action of a complex operator using two real operators.">
<polygon fill="white" stroke="#666666" points="295.88,-179 129.12,-179 129.12,-156 295.88,-156 295.88,-179"/>
<text text-anchor="middle" x="212.5" y="-161.7" font-family="Helvetica,sans-Serif" font-size="14.00">mfem::ComplexOperator</text>
</a>
</g>
</g>
<!-- Node3&#45;&gt;Node5 -->
<g id="edge5_Node000005_Node000003" class="edge">
<title>Node3&#45;&gt;Node5</title>
<g id="a_edge5_Node000005_Node000003"><a xlink:title=" ">
<path fill="none" stroke="#63b8ff" d="M147.59,-293.32C145.43,-267.93 145.57,-226.12 164.5,-197 169.36,-189.52 176.92,-183.74 184.62,-179.4"/>
<polygon fill="#63b8ff" stroke="#63b8ff" points="144.1,-293.56 148.64,-303.13 151.06,-292.81 144.1,-293.56"/>
</a>
</g>
</g>
<!-- Node3&#45;&gt;Node5 -->
<g id="edge6_Node000005_Node000003" class="edge">
<title>Node3&#45;&gt;Node5</title>
<g id="a_edge6_Node000005_Node000003"><a xlink:title=" ">
<path fill="none" stroke="#9a32cd" stroke-dasharray="5,2" d="M159.11,-294.02C159.96,-291.66 160.77,-289.29 161.5,-287 174.01,-247.68 163.95,-232.92 184.25,-197 187.95,-190.45 193.56,-184.35 198.8,-179.49"/>
<polygon fill="#9a32cd" stroke="#9a32cd" points="155.94,-292.51 155.64,-303.1 162.48,-295.01 155.94,-292.51"/>
</a>
</g>
<text text-anchor="middle" x="217.62" y="-243.7" font-family="Helvetica,sans-Serif" font-size="14.00" fill="grey"> Op_Imag_</text>
<text text-anchor="middle" x="217.62" y="-228.7" font-family="Helvetica,sans-Serif" font-size="14.00" fill="grey">Op_Real_</text>
</g>
<!-- Node4 -->
<g id="Node000004" class="node">
<title>Node4</title>
<g id="a_Node000004"><a xlink:href="classmfem_1_1ComplexSparseMatrix.html" target="_top" xlink:title="Specialization of the ComplexOperator built from a pair of Sparse Matrices.">
<polygon fill="white" stroke="#666666" points="311,-97 118,-97 118,-74 311,-74 311,-97"/>
<text text-anchor="middle" x="214.5" y="-79.7" font-family="Helvetica,sans-Serif" font-size="14.00">mfem::ComplexSparseMatrix</text>
</a>
</g>
</g>
<!-- Node4&#45;&gt;Node1 -->
<g id="edge3_Node000001_Node000004" class="edge">
<title>Node4&#45;&gt;Node1</title>
<g id="a_edge3_Node000001_Node000004"><a xlink:title=" ">
<path fill="none" stroke="#9a32cd" stroke-dasharray="5,2" d="M188.48,-67.31C167.79,-53.64 139.48,-34.95 121.85,-23.3"/>
<polygon fill="#9a32cd" stroke="#9a32cd" points="186.41,-70.14 196.68,-72.73 190.27,-64.3 186.41,-70.14"/>
</a>
</g>
<text text-anchor="middle" x="183" y="-42.7" font-family="Helvetica,sans-Serif" font-size="14.00" fill="grey"> mat</text>
</g>
<!-- Node5&#45;&gt;Node4 -->
<g id="edge4_Node000004_Node000005" class="edge">
<title>Node5&#45;&gt;Node4</title>
<g id="a_edge4_Node000004_Node000005"><a xlink:title=" ">
<path fill="none" stroke="#63b8ff" d="M213.05,-144.62C213.43,-129.29 213.93,-109.46 214.23,-97.37"/>
<polygon fill="#63b8ff" stroke="#63b8ff" points="209.56,-144.11 212.81,-154.2 216.56,-144.29 209.56,-144.11"/>
</a>
</g>
</g>
<!-- Node6 -->
<g id="Node000006" class="node">
<title>Node6</title>
<g id="a_Node000006"><a xlink:href="classmfem_1_1Vector.html" target="_top" xlink:title="Vector data type.">
<polygon fill="white" stroke="#666666" points="323.38,-328 225.62,-328 225.62,-305 323.38,-305 323.38,-328"/>
<text text-anchor="middle" x="274.5" y="-310.7" font-family="Helvetica,sans-Serif" font-size="14.00">mfem::Vector</text>
</a>
</g>
</g>
<!-- Node6&#45;&gt;Node5 -->
<g id="edge7_Node000005_Node000006" class="edge">
<title>Node6&#45;&gt;Node5</title>
<g id="a_edge7_Node000005_Node000006"><a xlink:title=" ">
<path fill="none" stroke="#9a32cd" stroke-dasharray="5,2" d="M275.19,-293.48C274.95,-268.25 271.36,-226.58 252.5,-197 247.92,-189.81 240.81,-183.89 233.85,-179.34"/>
<polygon fill="#9a32cd" stroke="#9a32cd" points="271.69,-293.17 275.09,-303.21 278.69,-293.24 271.69,-293.17"/>
</a>
</g>
<text text-anchor="middle" x="287.62" y="-273.7" font-family="Helvetica,sans-Serif" font-size="14.00" fill="grey"> u_</text>
<text text-anchor="middle" x="287.62" y="-258.7" font-family="Helvetica,sans-Serif" font-size="14.00" fill="grey">v_</text>
<text text-anchor="middle" x="287.62" y="-243.7" font-family="Helvetica,sans-Serif" font-size="14.00" fill="grey">x_i_</text>
<text text-anchor="middle" x="287.62" y="-228.7" font-family="Helvetica,sans-Serif" font-size="14.00" fill="grey">x_r_</text>
<text text-anchor="middle" x="287.62" y="-213.7" font-family="Helvetica,sans-Serif" font-size="14.00" fill="grey">y_i_</text>
<text text-anchor="middle" x="287.62" y="-198.7" font-family="Helvetica,sans-Serif" font-size="14.00" fill="grey">y_r_</text>
</g>
<!-- Node7 -->
<g id="Node000007" class="node">
<title>Node7</title>
<g id="a_Node000007"><a xlink:href="classmfem_1_1Memory.html" target="_top" xlink:title=" ">
<polygon fill="white" stroke="#666666" points="357.88,-402 191.12,-402 191.12,-379 357.88,-379 357.88,-402"/>
<text text-anchor="middle" x="274.5" y="-384.7" font-family="Helvetica,sans-Serif" font-size="14.00">mfem::Memory&lt; real_t &gt;</text>
</a>
</g>
</g>
<!-- Node7&#45;&gt;Node6 -->
<g id="edge8_Node000006_Node000007" class="edge">
<title>Node7&#45;&gt;Node6</title>
<g id="a_edge8_Node000006_Node000007"><a xlink:title=" ">
<path fill="none" stroke="#9a32cd" stroke-dasharray="5,2" d="M274.5,-367.2C274.5,-354.17 274.5,-338.31 274.5,-328.07"/>
<polygon fill="#9a32cd" stroke="#9a32cd" points="271,-367.05 274.5,-377.05 278,-367.05 271,-367.05"/>
</a>
</g>
<text text-anchor="middle" x="289.5" y="-347.7" font-family="Helvetica,sans-Serif" font-size="14.00" fill="grey"> data</text>
</g>
</g>
</svg>
