<?xml version="1.0" encoding="UTF-8" standalone="no"?>
<!DOCTYPE svg PUBLIC "-//W3C//DTD SVG 1.1//EN"
 "http://www.w3.org/Graphics/SVG/1.1/DTD/svg11.dtd">
<!-- Generated by graphviz version 12.0.0 (20240704.0754)
 -->
<!-- Title: mfem::GeneralAMS Pages: 1 -->
<svg width="146pt" height="149pt"
 viewBox="0.00 0.00 145.50 149.00" xmlns="http://www.w3.org/2000/svg" xmlns:xlink="http://www.w3.org/1999/xlink">
<g id="graph0" class="graph" transform="scale(1 1) rotate(0) translate(4 145)">
<title>mfem::GeneralAMS</title>
<!-- Node1 -->
<g id="Node000001" class="node">
<title>Node1</title>
<g id="a_Node000001"><a xlink:title="Perform AMS cycle with generic Operator objects.">
<polygon fill="#999999" stroke="#666666" points="137.5,-23 0,-23 0,0 137.5,0 137.5,-23"/>
<text text-anchor="middle" x="68.75" y="-5.7" font-family="Helvetica,sans-Serif" font-size="14.00">mfem::GeneralAMS</text>
</a>
</g>
</g>
<!-- Node2 -->
<g id="Node000002" class="node">
<title>Node2</title>
<g id="a_Node000002"><a xlink:href="classmfem_1_1Solver.html" target="_top" xlink:title="Base class for solvers.">
<polygon fill="white" stroke="#666666" points="117.25,-82 20.25,-82 20.25,-59 117.25,-59 117.25,-82"/>
<text text-anchor="middle" x="68.75" y="-64.7" font-family="Helvetica,sans-Serif" font-size="14.00">mfem::Solver</text>
</a>
</g>
</g>
<!-- Node2&#45;&gt;Node1 -->
<g id="edge1_Node000001_Node000002" class="edge">
<title>Node2&#45;&gt;Node1</title>
<g id="a_edge1_Node000001_Node000002"><a xlink:title=" ">
<path fill="none" stroke="#63b8ff" d="M68.75,-47.08C68.75,-38.96 68.75,-30.15 68.75,-23.46"/>
<polygon fill="#63b8ff" stroke="#63b8ff" points="65.25,-47 68.75,-57 72.25,-47 65.25,-47"/>
</a>
</g>
</g>
<!-- Node3 -->
<g id="Node000003" class="node">
<title>Node3</title>
<g id="a_Node000003"><a xlink:href="classmfem_1_1Operator.html" target="_top" xlink:title="Abstract operator.">
<polygon fill="white" stroke="#666666" points="125.12,-141 12.38,-141 12.38,-118 125.12,-118 125.12,-141"/>
<text text-anchor="middle" x="68.75" y="-123.7" font-family="Helvetica,sans-Serif" font-size="14.00">mfem::Operator</text>
</a>
</g>
</g>
<!-- Node3&#45;&gt;Node2 -->
<g id="edge2_Node000002_Node000003" class="edge">
<title>Node3&#45;&gt;Node2</title>
<g id="a_edge2_Node000002_Node000003"><a xlink:title=" ">
<path fill="none" stroke="#63b8ff" d="M68.75,-106.08C68.75,-97.96 68.75,-89.15 68.75,-82.46"/>
<polygon fill="#63b8ff" stroke="#63b8ff" points="65.25,-106 68.75,-116 72.25,-106 65.25,-106"/>
</a>
</g>
</g>
</g>
</svg>
