<?xml version="1.0" encoding="UTF-8" standalone="no"?>
<!DOCTYPE svg PUBLIC "-//W3C//DTD SVG 1.1//EN"
 "http://www.w3.org/Graphics/SVG/1.1/DTD/svg11.dtd">
<!-- Generated by graphviz version 8.0.5 (0)
 -->
<!-- Title: mfem::MixedBilinearForm Pages: 1 -->
<!--zoomable 152 -->
<svg id="main" version="1.1" xmlns="http://www.w3.org/2000/svg" xmlns:xlink="http://www.w3.org/1999/xlink" xml:space="preserve" onload="init(evt)">
<style type="text/css"><![CDATA[
.edge:hover path { stroke: red; }
.edge:hover polygon { stroke: red; fill: red; }
]]></style>
<script type="text/javascript"><![CDATA[
var edges = document.getElementsByTagName('g');
if (edges && edges.length) {
  for (var i=0;i<edges.length;i++) {
    if (edges[i].id.substr(0,4)=='edge') {
      edges[i].setAttribute('class','edge');
    }
  }
}
]]></script>
        <defs>
                <circle id="rim" cx="0" cy="0" r="7"/>
                <circle id="rim2" cx="0" cy="0" r="3.5"/>
                <g id="zoomPlus">
                        <use xlink:href="#rim" fill="#404040">
                                <set attributeName="fill" to="#808080" begin="zoomplus.mouseover" end="zoomplus.mouseout"/>
                        </use>
                        <path d="M-4,0h8M0,-4v8" fill="none" stroke="white" stroke-width="1.5" pointer-events="none"/>
                </g>
                <g id="zoomMin">
                        <use xlink:href="#rim" fill="#404040">
                                <set attributeName="fill" to="#808080" begin="zoomminus.mouseover" end="zoomminus.mouseout"/>
                        </use>
                        <path d="M-4,0h8" fill="none" stroke="white" stroke-width="1.5" pointer-events="none"/>
                </g>
                <g id="dirArrow">
                        <path fill="none" stroke="white" stroke-width="1.5" d="M0,-3.0v7 M-2.5,-0.5L0,-3.0L2.5,-0.5"/>
                </g>
               <g id="resetDef">
                       <use xlink:href="#rim2" fill="#404040">
                               <set attributeName="fill" to="#808080" begin="reset.mouseover" end="reset.mouseout"/>
                       </use>
               </g>
        </defs>

<script type="text/javascript">
var viewWidth = 1428;
var viewHeight = 152;
var sectionId = 'dynsection-0';
</script>
<script xlink:href="svgpan.js"/>
<svg id="graph" class="graph">
<g id="viewport">
<title>mfem::MixedBilinearForm</title>
<!-- Node1 -->
<g id="node1" class="node">
<title>Node1</title>
<g id="a_node1"><a xlink:title=" ">
<polygon fill="#999999" stroke="#666666" points="458.39,-63 282.92,-63 282.92,-41 458.39,-41 458.39,-63"/>
<text text-anchor="middle" x="370.65" y="-47.8" font-family="Helvetica,sans-Serif" font-size="14.00">mfem::MixedBilinearForm</text>
</a>
</g>
</g>
<!-- Node4 -->
<g id="node4" class="node">
<title>Node4</title>
<g id="a_node4"><a xlink:href="classmfem_1_1DiscreteLinearOperator.html" target="_top" xlink:title=" ">
<polygon fill="white" stroke="#666666" points="698.68,-83 494.39,-83 494.39,-61 698.68,-61 698.68,-83"/>
<text text-anchor="middle" x="596.54" y="-67.8" font-family="Helvetica,sans-Serif" font-size="14.00">mfem::DiscreteLinearOperator</text>
</a>
</g>
</g>
<!-- Node1&#45;&gt;Node4 -->
<g id="edge3" class="edge">
<title>Node1&#45;&gt;Node4</title>
<path fill="none" stroke="#63b8ff" d="M469.77,-60.76C477.82,-61.48 485.98,-62.21 494.06,-62.93"/>
<polygon fill="#63b8ff" stroke="#63b8ff" points="470.13,-57.19 459.85,-59.79 469.5,-64.17 470.13,-57.19"/>
</g>
<!-- Node10 -->
<g id="node10" class="node">
<title>Node10</title>
<g id="a_node10"><a xlink:href="classmfem_1_1ParMixedBilinearForm.html" target="_top" xlink:title="Class for parallel bilinear form using different test and trial FE spaces.">
<polygon fill="white" stroke="#666666" points="695.17,-43 497.91,-43 497.91,-21 695.17,-21 695.17,-43"/>
<text text-anchor="middle" x="596.54" y="-27.8" font-family="Helvetica,sans-Serif" font-size="14.00">mfem::ParMixedBilinearForm</text>
</a>
</g>
</g>
<!-- Node1&#45;&gt;Node10 -->
<g id="edge9" class="edge">
<title>Node1&#45;&gt;Node10</title>
<path fill="none" stroke="#63b8ff" d="M469.61,-43.25C478.84,-42.42 488.2,-41.59 497.43,-40.76"/>
<polygon fill="#63b8ff" stroke="#63b8ff" points="469.5,-39.83 459.85,-44.21 470.13,-46.81 469.5,-39.83"/>
</g>
<!-- Node2 -->
<g id="node2" class="node">
<title>Node2</title>
<g id="a_node2"><a xlink:href="classmfem_1_1Matrix.html" target="_top" xlink:title="Abstract data type matrix.">
<polygon fill="white" stroke="#666666" points="246.92,-63 150.03,-63 150.03,-41 246.92,-41 246.92,-63"/>
<text text-anchor="middle" x="198.47" y="-47.8" font-family="Helvetica,sans-Serif" font-size="14.00">mfem::Matrix</text>
</a>
</g>
</g>
<!-- Node2&#45;&gt;Node1 -->
<g id="edge1" class="edge">
<title>Node2&#45;&gt;Node1</title>
<path fill="none" stroke="#63b8ff" d="M258.2,-52C266.06,-52 274.27,-52 282.49,-52"/>
<polygon fill="#63b8ff" stroke="#63b8ff" points="258.33,-48.5 248.33,-52 258.33,-55.5 258.33,-48.5"/>
</g>
<!-- Node3 -->
<g id="node3" class="node">
<title>Node3</title>
<g id="a_node3"><a xlink:href="classmfem_1_1Operator.html" target="_top" xlink:title="Abstract operator.">
<polygon fill="white" stroke="#666666" points="114.03,-63 0,-63 0,-41 114.03,-41 114.03,-63"/>
<text text-anchor="middle" x="57.01" y="-47.8" font-family="Helvetica,sans-Serif" font-size="14.00">mfem::Operator</text>
</a>
</g>
</g>
<!-- Node3&#45;&gt;Node2 -->
<g id="edge2" class="edge">
<title>Node3&#45;&gt;Node2</title>
<path fill="none" stroke="#63b8ff" d="M125.22,-52C133.56,-52 141.94,-52 149.89,-52"/>
<polygon fill="#63b8ff" stroke="#63b8ff" points="125.33,-48.5 115.33,-52 125.33,-55.5 125.33,-48.5"/>
</g>
<!-- Node5 -->
<g id="node5" class="node">
<title>Node5</title>
<g id="a_node5"><a xlink:href="classmfem_1_1ParDiscreteLinearOperator.html" target="_top" xlink:title=" ">
<polygon fill="white" stroke="#666666" points="960.76,-83 734.68,-83 734.68,-61 960.76,-61 960.76,-83"/>
<text text-anchor="middle" x="847.72" y="-67.8" font-family="Helvetica,sans-Serif" font-size="14.00">mfem::ParDiscreteLinearOperator</text>
</a>
</g>
</g>
<!-- Node4&#45;&gt;Node5 -->
<g id="edge4" class="edge">
<title>Node4&#45;&gt;Node5</title>
<path fill="none" stroke="#63b8ff" d="M709.67,-72C717.91,-72 726.23,-72 734.47,-72"/>
<polygon fill="#63b8ff" stroke="#63b8ff" points="709.89,-68.5 699.89,-72 709.89,-75.5 709.89,-68.5"/>
</g>
<!-- Node6 -->
<g id="node6" class="node">
<title>Node6</title>
<g id="a_node6"><a xlink:href="classmfem_1_1common_1_1ParDiscreteInterpolationOperator.html" target="_top" xlink:title=" ">
<polygon fill="white" stroke="#666666" points="1190.13,-90 996.76,-90 996.76,-54 1190.13,-54 1190.13,-90"/>
<text text-anchor="start" x="1004.76" y="-74.8" font-family="Helvetica,sans-Serif" font-size="14.00">mfem::common::ParDiscrete</text>
<text text-anchor="middle" x="1093.44" y="-60.8" font-family="Helvetica,sans-Serif" font-size="14.00">InterpolationOperator</text>
</a>
</g>
</g>
<!-- Node5&#45;&gt;Node6 -->
<g id="edge5" class="edge">
<title>Node5&#45;&gt;Node6</title>
<path fill="none" stroke="#63b8ff" d="M971.82,-72C980.1,-72 988.36,-72 996.47,-72"/>
<polygon fill="#63b8ff" stroke="#63b8ff" points="971.95,-68.5 961.95,-72 971.95,-75.5 971.95,-68.5"/>
</g>
<!-- Node7 -->
<g id="node7" class="node">
<title>Node7</title>
<g id="a_node7"><a xlink:href="classmfem_1_1common_1_1ParDiscreteCurlOperator.html" target="_top" xlink:title=" ">
<polygon fill="white" stroke="#666666" points="1419.5,-144 1226.13,-144 1226.13,-108 1419.5,-108 1419.5,-144"/>
<text text-anchor="start" x="1234.13" y="-128.8" font-family="Helvetica,sans-Serif" font-size="14.00">mfem::common::ParDiscrete</text>
<text text-anchor="middle" x="1322.81" y="-114.8" font-family="Helvetica,sans-Serif" font-size="14.00">CurlOperator</text>
</a>
</g>
</g>
<!-- Node6&#45;&gt;Node7 -->
<g id="edge6" class="edge">
<title>Node6&#45;&gt;Node7</title>
<path fill="none" stroke="#63b8ff" d="M1182.56,-92.93C1202.87,-97.75 1224.34,-102.85 1244.17,-107.56"/>
<polygon fill="#63b8ff" stroke="#63b8ff" points="1183.59,-89.34 1173.06,-90.43 1181.98,-96.15 1183.59,-89.34"/>
</g>
<!-- Node8 -->
<g id="node8" class="node">
<title>Node8</title>
<g id="a_node8"><a xlink:href="classmfem_1_1common_1_1ParDiscreteDivOperator.html" target="_top" xlink:title=" ">
<polygon fill="white" stroke="#666666" points="1419.5,-90 1226.13,-90 1226.13,-54 1419.5,-54 1419.5,-90"/>
<text text-anchor="start" x="1234.13" y="-74.8" font-family="Helvetica,sans-Serif" font-size="14.00">mfem::common::ParDiscrete</text>
<text text-anchor="middle" x="1322.81" y="-60.8" font-family="Helvetica,sans-Serif" font-size="14.00">DivOperator</text>
</a>
</g>
</g>
<!-- Node6&#45;&gt;Node8 -->
<g id="edge7" class="edge">
<title>Node6&#45;&gt;Node8</title>
<path fill="none" stroke="#63b8ff" d="M1201.51,-72C1209.58,-72 1217.7,-72 1225.7,-72"/>
<polygon fill="#63b8ff" stroke="#63b8ff" points="1201.54,-68.5 1191.54,-72 1201.54,-75.5 1201.54,-68.5"/>
</g>
<!-- Node9 -->
<g id="node9" class="node">
<title>Node9</title>
<g id="a_node9"><a xlink:href="classmfem_1_1common_1_1ParDiscreteGradOperator.html" target="_top" xlink:title=" ">
<polygon fill="white" stroke="#666666" points="1419.5,-36 1226.13,-36 1226.13,0 1419.5,0 1419.5,-36"/>
<text text-anchor="start" x="1234.13" y="-20.8" font-family="Helvetica,sans-Serif" font-size="14.00">mfem::common::ParDiscrete</text>
<text text-anchor="middle" x="1322.81" y="-6.8" font-family="Helvetica,sans-Serif" font-size="14.00">GradOperator</text>
</a>
</g>
</g>
<!-- Node6&#45;&gt;Node9 -->
<g id="edge8" class="edge">
<title>Node6&#45;&gt;Node9</title>
<path fill="none" stroke="#63b8ff" d="M1182.56,-51.07C1202.87,-46.25 1224.34,-41.15 1244.17,-36.44"/>
<polygon fill="#63b8ff" stroke="#63b8ff" points="1181.98,-47.85 1173.06,-53.57 1183.59,-54.66 1181.98,-47.85"/>
</g>
</g>
</svg>
        <g id="navigator" transform="translate(0 0)" fill="#404254">
                <rect fill="#f2f5e9" fill-opacity="0.5" stroke="#606060" stroke-width=".5" x="0" y="0" width="60" height="60"/>
                <use id="zoomplus" xlink:href="#zoomPlus" x="17" y="9" onmousedown="handleZoom(evt,'in')"/>
                <use id="zoomminus" xlink:href="#zoomMin" x="42" y="9" onmousedown="handleZoom(evt,'out')"/>
                <use id="reset" xlink:href="#resetDef" x="30" y="36" onmousedown="handleReset()"/>
                <g id="arrowUp" xlink:href="#dirArrow" transform="translate(30 24)" onmousedown="handlePan(0,-1)">
                  <use xlink:href="#rim" fill="#404040">
                        <set attributeName="fill" to="#808080" begin="arrowUp.mouseover" end="arrowUp.mouseout"/>
                  </use>
                  <path fill="none" stroke="white" stroke-width="1.5" d="M0,-3.0v7 M-2.5,-0.5L0,-3.0L2.5,-0.5"/>
                </g>
                <g id="arrowRight" xlink:href="#dirArrow" transform="rotate(90) translate(36 -43)" onmousedown="handlePan(1,0)">
                  <use xlink:href="#rim" fill="#404040">
                        <set attributeName="fill" to="#808080" begin="arrowRight.mouseover" end="arrowRight.mouseout"/>
                  </use>
                  <path fill="none" stroke="white" stroke-width="1.5" d="M0,-3.0v7 M-2.5,-0.5L0,-3.0L2.5,-0.5"/>
                </g>
                <g id="arrowDown" xlink:href="#dirArrow" transform="rotate(180) translate(-30 -48)" onmousedown="handlePan(0,1)">
                  <use xlink:href="#rim" fill="#404040">
                        <set attributeName="fill" to="#808080" begin="arrowDown.mouseover" end="arrowDown.mouseout"/>
                  </use>
                  <path fill="none" stroke="white" stroke-width="1.5" d="M0,-3.0v7 M-2.5,-0.5L0,-3.0L2.5,-0.5"/>
                </g>
                <g id="arrowLeft" xlink:href="#dirArrow" transform="rotate(270) translate(-36 17)" onmousedown="handlePan(-1,0)">
                  <use xlink:href="#rim" fill="#404040">
                        <set attributeName="fill" to="#808080" begin="arrowLeft.mouseover" end="arrowLeft.mouseout"/>
                  </use>
                  <path fill="none" stroke="white" stroke-width="1.5" d="M0,-3.0v7 M-2.5,-0.5L0,-3.0L2.5,-0.5"/>
                </g>
        </g>
        <svg viewBox="0 0 15 15" width="100%" height="30px" preserveAspectRatio="xMaxYMin meet">
         <g id="arrow_out" transform="scale(0.3 0.3)">
          <a xlink:href="classmfem_1_1MixedBilinearForm__inherit__graph_org.svg" target="_base">
           <rect id="button" ry="5" rx="5" y="6" x="6" height="38" width="38"
                fill="#f2f5e9" fill-opacity="0.5" stroke="#606060" stroke-width="1.0"/>
           <path id="arrow"
             d="M 11.500037,31.436501 C 11.940474,20.09759 22.043105,11.32322 32.158766,21.979434 L 37.068811,17.246167 C 37.068811,17.246167 37.088388,32 37.088388,32 L 22.160133,31.978069 C 22.160133,31.978069 26.997745,27.140456 26.997745,27.140456 C 18.528582,18.264221 13.291696,25.230495 11.500037,31.436501 z"
             style="fill:#404040;"/>
          </a>
         </g>
        </svg>
</svg>
