<?xml version="1.0" encoding="UTF-8" standalone="no"?>
<!DOCTYPE svg PUBLIC "-//W3C//DTD SVG 1.1//EN"
 "http://www.w3.org/Graphics/SVG/1.1/DTD/svg11.dtd">
<!-- Generated by graphviz version 8.0.5 (0)
 -->
<!-- Title: mfem::BiCubic3DFiniteElement Pages: 1 -->
<svg width="219pt" height="262pt"
 viewBox="0.00 0.00 218.51 262.00" xmlns="http://www.w3.org/2000/svg" xmlns:xlink="http://www.w3.org/1999/xlink">
<g id="graph0" class="graph" transform="scale(1 1) rotate(0) translate(4 258)">
<title>mfem::BiCubic3DFiniteElement</title>
<!-- Node1 -->
<g id="node1" class="node">
<title>Node1</title>
<g id="a_node1"><a xlink:title="Class for cubic FE on wedge.">
<polygon fill="#999999" stroke="#666666" points="210.51,-22 0,-22 0,0 210.51,0 210.51,-22"/>
<text text-anchor="middle" x="105.25" y="-6.8" font-family="Helvetica,sans-Serif" font-size="14.00">mfem::BiCubic3DFiniteElement</text>
</a>
</g>
</g>
<!-- Node2 -->
<g id="node2" class="node">
<title>Node2</title>
<g id="a_node2"><a xlink:href="classmfem_1_1H1__WedgeElement.html" target="_top" xlink:title="Arbitrary order H1 elements in 3D on a wedge.">
<polygon fill="white" stroke="#666666" points="195.22,-80 15.29,-80 15.29,-58 195.22,-58 195.22,-80"/>
<text text-anchor="middle" x="105.25" y="-64.8" font-family="Helvetica,sans-Serif" font-size="14.00">mfem::H1_WedgeElement</text>
</a>
</g>
</g>
<!-- Node2&#45;&gt;Node1 -->
<g id="edge1" class="edge">
<title>Node2&#45;&gt;Node1</title>
<path fill="none" stroke="#63b8ff" d="M105.25,-46.75C105.25,-38.34 105.25,-29.06 105.25,-22.21"/>
<polygon fill="#63b8ff" stroke="#63b8ff" points="101.75,-46.73 105.25,-56.73 108.75,-46.73 101.75,-46.73"/>
</g>
<!-- Node3 -->
<g id="node3" class="node">
<title>Node3</title>
<g id="a_node3"><a xlink:href="classmfem_1_1NodalFiniteElement.html" target="_top" xlink:title="Class for standard nodal finite elements.">
<polygon fill="white" stroke="#666666" points="195.73,-138 14.78,-138 14.78,-116 195.73,-116 195.73,-138"/>
<text text-anchor="middle" x="105.25" y="-122.8" font-family="Helvetica,sans-Serif" font-size="14.00">mfem::NodalFiniteElement</text>
</a>
</g>
</g>
<!-- Node3&#45;&gt;Node2 -->
<g id="edge2" class="edge">
<title>Node3&#45;&gt;Node2</title>
<path fill="none" stroke="#63b8ff" d="M105.25,-104.75C105.25,-96.34 105.25,-87.06 105.25,-80.21"/>
<polygon fill="#63b8ff" stroke="#63b8ff" points="101.75,-104.73 105.25,-114.73 108.75,-104.73 101.75,-104.73"/>
</g>
<!-- Node4 -->
<g id="node4" class="node">
<title>Node4</title>
<g id="a_node4"><a xlink:href="classmfem_1_1ScalarFiniteElement.html" target="_top" xlink:title="Class for finite elements with basis functions that return scalar values.">
<polygon fill="white" stroke="#666666" points="197.28,-196 13.23,-196 13.23,-174 197.28,-174 197.28,-196"/>
<text text-anchor="middle" x="105.25" y="-180.8" font-family="Helvetica,sans-Serif" font-size="14.00">mfem::ScalarFiniteElement</text>
</a>
</g>
</g>
<!-- Node4&#45;&gt;Node3 -->
<g id="edge3" class="edge">
<title>Node4&#45;&gt;Node3</title>
<path fill="none" stroke="#63b8ff" d="M105.25,-162.75C105.25,-154.34 105.25,-145.06 105.25,-138.21"/>
<polygon fill="#63b8ff" stroke="#63b8ff" points="101.75,-162.73 105.25,-172.73 108.75,-162.73 101.75,-162.73"/>
</g>
<!-- Node5 -->
<g id="node5" class="node">
<title>Node5</title>
<g id="a_node5"><a xlink:href="classmfem_1_1FiniteElement.html" target="_top" xlink:title="Abstract class for all finite elements.">
<polygon fill="white" stroke="#666666" points="177.44,-254 33.07,-254 33.07,-232 177.44,-232 177.44,-254"/>
<text text-anchor="middle" x="105.25" y="-238.8" font-family="Helvetica,sans-Serif" font-size="14.00">mfem::FiniteElement</text>
</a>
</g>
</g>
<!-- Node5&#45;&gt;Node4 -->
<g id="edge4" class="edge">
<title>Node5&#45;&gt;Node4</title>
<path fill="none" stroke="#63b8ff" d="M105.25,-220.75C105.25,-212.34 105.25,-203.06 105.25,-196.21"/>
<polygon fill="#63b8ff" stroke="#63b8ff" points="101.75,-220.73 105.25,-230.73 108.75,-220.73 101.75,-220.73"/>
</g>
</g>
</svg>
