<?xml version="1.0" encoding="UTF-8" standalone="no"?>
<!DOCTYPE svg PUBLIC "-//W3C//DTD SVG 1.1//EN"
 "http://www.w3.org/Graphics/SVG/1.1/DTD/svg11.dtd">
<!-- Generated by graphviz version 8.0.5 (0)
 -->
<!-- Title: mfem::CartesianZCoefficient Pages: 1 -->
<svg width="201pt" height="146pt"
 viewBox="0.00 0.00 201.39 146.00" xmlns="http://www.w3.org/2000/svg" xmlns:xlink="http://www.w3.org/1999/xlink">
<g id="graph0" class="graph" transform="scale(1 1) rotate(0) translate(4 142)">
<title>mfem::CartesianZCoefficient</title>
<!-- Node1 -->
<g id="node1" class="node">
<title>Node1</title>
<g id="a_node1"><a xlink:title="Scalar coefficient which returns the z&#45;component of the evaluation point.">
<polygon fill="#999999" stroke="#666666" points="193.39,-22 0,-22 0,0 193.39,0 193.39,-22"/>
<text text-anchor="middle" x="96.7" y="-6.8" font-family="Helvetica,sans-Serif" font-size="14.00">mfem::CartesianZCoefficient</text>
</a>
</g>
</g>
<!-- Node2 -->
<g id="node2" class="node">
<title>Node2</title>
<g id="a_node2"><a xlink:href="classmfem_1_1CartesianCoefficient.html" target="_top" xlink:title=" ">
<polygon fill="white" stroke="#666666" points="189.12,-80 4.28,-80 4.28,-58 189.12,-58 189.12,-80"/>
<text text-anchor="middle" x="96.7" y="-64.8" font-family="Helvetica,sans-Serif" font-size="14.00">mfem::CartesianCoefficient</text>
</a>
</g>
</g>
<!-- Node2&#45;&gt;Node1 -->
<g id="edge1" class="edge">
<title>Node2&#45;&gt;Node1</title>
<path fill="none" stroke="#63b8ff" d="M96.7,-46.75C96.7,-38.34 96.7,-29.06 96.7,-22.21"/>
<polygon fill="#63b8ff" stroke="#63b8ff" points="93.2,-46.73 96.7,-56.73 100.2,-46.73 93.2,-46.73"/>
</g>
<!-- Node3 -->
<g id="node3" class="node">
<title>Node3</title>
<g id="a_node3"><a xlink:href="classmfem_1_1Coefficient.html" target="_top" xlink:title="Base class Coefficients that optionally depend on space and time. These are used by the BilinearFormI...">
<polygon fill="white" stroke="#666666" points="159.16,-138 34.23,-138 34.23,-116 159.16,-116 159.16,-138"/>
<text text-anchor="middle" x="96.7" y="-122.8" font-family="Helvetica,sans-Serif" font-size="14.00">mfem::Coefficient</text>
</a>
</g>
</g>
<!-- Node3&#45;&gt;Node2 -->
<g id="edge2" class="edge">
<title>Node3&#45;&gt;Node2</title>
<path fill="none" stroke="#63b8ff" d="M96.7,-104.75C96.7,-96.34 96.7,-87.06 96.7,-80.21"/>
<polygon fill="#63b8ff" stroke="#63b8ff" points="93.2,-104.73 96.7,-114.73 100.2,-104.73 93.2,-104.73"/>
</g>
</g>
</svg>
