<?xml version="1.0" encoding="UTF-8" standalone="no"?>
<!DOCTYPE svg PUBLIC "-//W3C//DTD SVG 1.1//EN"
 "http://www.w3.org/Graphics/SVG/1.1/DTD/svg11.dtd">
<!-- Generated by graphviz version 8.0.5 (0)
 -->
<!-- Title: mfem::BoundaryLFIntegrator Pages: 1 -->
<svg width="203pt" height="392pt"
 viewBox="0.00 0.00 202.97 392.00" xmlns="http://www.w3.org/2000/svg" xmlns:xlink="http://www.w3.org/1999/xlink">
<g id="graph0" class="graph" transform="scale(1 1) rotate(0) translate(4 388)">
<title>mfem::BoundaryLFIntegrator</title>
<!-- Node1 -->
<g id="node1" class="node">
<title>Node1</title>
<g id="a_node1"><a xlink:title="Class for boundary integration .">
<polygon fill="#999999" stroke="#666666" points="194.97,-22 0,-22 0,0 194.97,0 194.97,-22"/>
<text text-anchor="middle" x="97.49" y="-6.8" font-family="Helvetica,sans-Serif" font-size="14.00">mfem::BoundaryLFIntegrator</text>
</a>
</g>
</g>
<!-- Node2 -->
<g id="node2" class="node">
<title>Node2</title>
<g id="a_node2"><a xlink:href="classmfem_1_1LinearFormIntegrator.html" target="_top" xlink:title="Abstract base class LinearFormIntegrator.">
<polygon fill="white" stroke="#666666" points="192.63,-81 2.34,-81 2.34,-59 192.63,-59 192.63,-81"/>
<text text-anchor="middle" x="97.49" y="-65.8" font-family="Helvetica,sans-Serif" font-size="14.00">mfem::LinearFormIntegrator</text>
</a>
</g>
</g>
<!-- Node2&#45;&gt;Node1 -->
<g id="edge1" class="edge">
<title>Node2&#45;&gt;Node1</title>
<path fill="none" stroke="#63b8ff" d="M97.49,-47.67C97.49,-39.03 97.49,-29.44 97.49,-22.39"/>
<polygon fill="#63b8ff" stroke="#63b8ff" points="93.99,-47.55 97.49,-57.55 100.99,-47.55 93.99,-47.55"/>
</g>
<!-- Node3 -->
<g id="node3" class="node">
<title>Node3</title>
<g id="a_node3"><a xlink:href="classmfem_1_1IntegrationRule.html" target="_top" xlink:title="Class for an integration rule &#45; an Array of IntegrationPoint.">
<polygon fill="white" stroke="#666666" points="174.35,-153 20.62,-153 20.62,-131 174.35,-131 174.35,-153"/>
<text text-anchor="middle" x="97.49" y="-137.8" font-family="Helvetica,sans-Serif" font-size="14.00">mfem::IntegrationRule</text>
</a>
</g>
</g>
<!-- Node3&#45;&gt;Node2 -->
<g id="edge2" class="edge">
<title>Node3&#45;&gt;Node2</title>
<path fill="none" stroke="#9a32cd" stroke-dasharray="5,2" d="M97.49,-120.03C97.49,-107.27 97.49,-91.52 97.49,-81.37"/>
<polygon fill="#9a32cd" stroke="#9a32cd" points="93.99,-119.67 97.49,-129.67 100.99,-119.67 93.99,-119.67"/>
<text text-anchor="middle" x="121.61" y="-101.8" font-family="Helvetica,sans-Serif" font-size="14.00"> IntRule</text>
</g>
<!-- Node4 -->
<g id="node4" class="node">
<title>Node4</title>
<g id="a_node4"><a xlink:href="classmfem_1_1Array.html" target="_top" xlink:title=" ">
<polygon fill="white" stroke="#666666" points="182.71,-226 12.26,-226 12.26,-190 182.71,-190 182.71,-226"/>
<text text-anchor="start" x="20.26" y="-210.8" font-family="Helvetica,sans-Serif" font-size="14.00">mfem::Array&lt; Integration</text>
<text text-anchor="middle" x="97.49" y="-196.8" font-family="Helvetica,sans-Serif" font-size="14.00">Point &gt;</text>
</a>
</g>
</g>
<!-- Node4&#45;&gt;Node3 -->
<g id="edge3" class="edge">
<title>Node4&#45;&gt;Node3</title>
<path fill="none" stroke="#63b8ff" d="M97.49,-178.6C97.49,-169.65 97.49,-160.32 97.49,-153.46"/>
<polygon fill="#63b8ff" stroke="#63b8ff" points="93.99,-178.51 97.49,-188.51 100.99,-178.51 93.99,-178.51"/>
</g>
<!-- Node5 -->
<g id="node5" class="node">
<title>Node5</title>
<g id="a_node5"><a xlink:href="classmfem_1_1Memory.html" target="_top" xlink:title=" ">
<polygon fill="white" stroke="#666666" points="191.27,-312 3.71,-312 3.71,-276 191.27,-276 191.27,-312"/>
<text text-anchor="start" x="11.71" y="-296.8" font-family="Helvetica,sans-Serif" font-size="14.00">mfem::Memory&lt; Integration</text>
<text text-anchor="middle" x="97.49" y="-282.8" font-family="Helvetica,sans-Serif" font-size="14.00">Point &gt;</text>
</a>
</g>
</g>
<!-- Node5&#45;&gt;Node4 -->
<g id="edge4" class="edge">
<title>Node5&#45;&gt;Node4</title>
<path fill="none" stroke="#9a32cd" stroke-dasharray="5,2" d="M97.49,-264.63C97.49,-251.95 97.49,-237.42 97.49,-226.38"/>
<polygon fill="#9a32cd" stroke="#9a32cd" points="93.99,-264.6 97.49,-274.6 100.99,-264.6 93.99,-264.6"/>
<text text-anchor="middle" x="113.05" y="-246.8" font-family="Helvetica,sans-Serif" font-size="14.00"> data</text>
</g>
<!-- Node6 -->
<g id="node6" class="node">
<title>Node6</title>
<g id="a_node6"><a xlink:href="classmfem_1_1IntegrationPoint.html" target="_top" xlink:title="Class for integration point with weight.">
<polygon fill="white" stroke="#666666" points="175.91,-384 19.06,-384 19.06,-362 175.91,-362 175.91,-384"/>
<text text-anchor="middle" x="97.49" y="-368.8" font-family="Helvetica,sans-Serif" font-size="14.00">mfem::IntegrationPoint</text>
</a>
</g>
</g>
<!-- Node6&#45;&gt;Node5 -->
<g id="edge5" class="edge">
<title>Node6&#45;&gt;Node5</title>
<path fill="none" stroke="#9a32cd" stroke-dasharray="5,2" d="M97.49,-350.7C97.49,-338.6 97.49,-323.64 97.49,-312.28"/>
<polygon fill="#9a32cd" stroke="#9a32cd" points="93.99,-350.62 97.49,-360.62 100.99,-350.62 93.99,-350.62"/>
<text text-anchor="middle" x="115.39" y="-332.8" font-family="Helvetica,sans-Serif" font-size="14.00"> h_ptr</text>
</g>
</g>
</svg>
