<?xml version="1.0" encoding="UTF-8" standalone="no"?>
<!DOCTYPE svg PUBLIC "-//W3C//DTD SVG 1.1//EN"
 "http://www.w3.org/Graphics/SVG/1.1/DTD/svg11.dtd">
<!-- Generated by graphviz version 12.0.0 (20240704.0754)
 -->
<!-- Title: mfem::FGMRESSolver Pages: 1 -->
<svg width="164pt" height="208pt"
 viewBox="0.00 0.00 164.25 208.00" xmlns="http://www.w3.org/2000/svg" xmlns:xlink="http://www.w3.org/1999/xlink">

<svg id="main" version="1.1" xmlns="http://www.w3.org/2000/svg" xmlns:xlink="http://www.w3.org/1999/xlink" xml:space="preserve" onload="init(evt)">
<style type="text/css"><![CDATA[
.node, .edge {opacity: 0.7;}
.node.selected, .edge.selected {opacity: 1;}
.edge:hover path { stroke: red; }
.edge:hover polygon { stroke: red; fill: red; }
]]></style>
<script type="application/ecmascript" xlink:href="svg.min.js"/>
<svg id="graph" class="graph">
<g id="graph0" class="graph" transform="scale(1 1) rotate(0) translate(4 204)">
<title>mfem::FGMRESSolver</title>
<!-- Node1 -->
<g id="Node000001" class="node">
<title>Node1</title>
<g id="a_Node000001"><a xlink:title="FGMRES method.">
<polygon fill="#999999" stroke="#666666" points="156.25,-23 0,-23 0,0 156.25,0 156.25,-23"/>
<text text-anchor="middle" x="78.12" y="-5.7" font-family="Helvetica,sans-Serif" font-size="14.00">mfem::FGMRESSolver</text>
</a>
</g>
</g>
<!-- Node2 -->
<g id="Node000002" class="node">
<title>Node2</title>
<g id="a_Node000002"><a xlink:href="classmfem_1_1IterativeSolver.html" target="_top" xlink:title="Abstract base class for iterative solver.">
<polygon fill="white" stroke="#666666" points="150.62,-82 5.62,-82 5.62,-59 150.62,-59 150.62,-82"/>
<text text-anchor="middle" x="78.12" y="-64.7" font-family="Helvetica,sans-Serif" font-size="14.00">mfem::IterativeSolver</text>
</a>
</g>
</g>
<!-- Node2&#45;&gt;Node1 -->
<g id="edge1_Node000001_Node000002" class="edge">
<title>Node2&#45;&gt;Node1</title>
<g id="a_edge1_Node000001_Node000002"><a xlink:title=" ">
<path fill="none" stroke="#63b8ff" d="M78.12,-47.08C78.12,-38.96 78.12,-30.15 78.12,-23.46"/>
<polygon fill="#63b8ff" stroke="#63b8ff" points="74.63,-47 78.13,-57 81.63,-47 74.63,-47"/>
</a>
</g>
</g>
<!-- Node3 -->
<g id="Node000003" class="node">
<title>Node3</title>
<g id="a_Node000003"><a xlink:href="classmfem_1_1Solver.html" target="_top" xlink:title="Base class for solvers.">
<polygon fill="white" stroke="#666666" points="126.62,-141 29.62,-141 29.62,-118 126.62,-118 126.62,-141"/>
<text text-anchor="middle" x="78.12" y="-123.7" font-family="Helvetica,sans-Serif" font-size="14.00">mfem::Solver</text>
</a>
</g>
</g>
<!-- Node3&#45;&gt;Node2 -->
<g id="edge2_Node000002_Node000003" class="edge">
<title>Node3&#45;&gt;Node2</title>
<g id="a_edge2_Node000002_Node000003"><a xlink:title=" ">
<path fill="none" stroke="#63b8ff" d="M78.12,-106.08C78.12,-97.96 78.12,-89.15 78.12,-82.46"/>
<polygon fill="#63b8ff" stroke="#63b8ff" points="74.63,-106 78.13,-116 81.63,-106 74.63,-106"/>
</a>
</g>
</g>
<!-- Node4 -->
<g id="Node000004" class="node">
<title>Node4</title>
<g id="a_Node000004"><a xlink:href="classmfem_1_1Operator.html" target="_top" xlink:title="Abstract operator.">
<polygon fill="white" stroke="#666666" points="134.5,-200 21.75,-200 21.75,-177 134.5,-177 134.5,-200"/>
<text text-anchor="middle" x="78.12" y="-182.7" font-family="Helvetica,sans-Serif" font-size="14.00">mfem::Operator</text>
</a>
</g>
</g>
<!-- Node4&#45;&gt;Node3 -->
<g id="edge3_Node000003_Node000004" class="edge">
<title>Node4&#45;&gt;Node3</title>
<g id="a_edge3_Node000003_Node000004"><a xlink:title=" ">
<path fill="none" stroke="#63b8ff" d="M78.12,-165.08C78.12,-156.96 78.12,-148.15 78.12,-141.46"/>
<polygon fill="#63b8ff" stroke="#63b8ff" points="74.63,-165 78.13,-175 81.63,-165 74.63,-165"/>
</a>
</g>
</g>
</g>
</svg>
</svg>

<style type='text/css'>
<![CDATA[
[data-mouse-over-selected='false'] { opacity: 0.7; }
[data-mouse-over-selected='true']  { opacity: 1.0; }
]]>
</style>
<script type="application/ecmascript"><![CDATA[
document.addEventListener('DOMContentLoaded', (event) => {
  highlightEdges();
  highlightAdjacentNodes();
});
]]></script>
</svg>
