<?xml version="1.0" encoding="UTF-8" standalone="no"?>
<!DOCTYPE svg PUBLIC "-//W3C//DTD SVG 1.1//EN"
 "http://www.w3.org/Graphics/SVG/1.1/DTD/svg11.dtd">
<!-- Generated by graphviz version 8.0.5 (0)
 -->
<!-- Title: mfem::AbstractErrorEstimator Pages: 1 -->
<svg width="911pt" height="250pt"
 viewBox="0.00 0.00 911.26 250.00" xmlns="http://www.w3.org/2000/svg" xmlns:xlink="http://www.w3.org/1999/xlink">
<g id="graph0" class="graph" transform="scale(1 1) rotate(0) translate(4 246)">
<title>mfem::AbstractErrorEstimator</title>
<!-- Node1 -->
<g id="node1" class="node">
<title>Node1</title>
<g id="a_node1"><a xlink:title="Base class for all error estimators.">
<polygon fill="#999999" stroke="#666666" points="200.37,-122 0,-122 0,-100 200.37,-100 200.37,-122"/>
<text text-anchor="middle" x="100.18" y="-106.8" font-family="Helvetica,sans-Serif" font-size="14.00">mfem::AbstractErrorEstimator</text>
</a>
</g>
</g>
<!-- Node2 -->
<g id="node2" class="node">
<title>Node2</title>
<g id="a_node2"><a xlink:href="classmfem_1_1ErrorEstimator.html" target="_top" xlink:title="Base class for all element based error estimators.">
<polygon fill="white" stroke="#666666" points="385.38,-122 236.37,-122 236.37,-100 385.38,-100 385.38,-122"/>
<text text-anchor="middle" x="310.87" y="-106.8" font-family="Helvetica,sans-Serif" font-size="14.00">mfem::ErrorEstimator</text>
</a>
</g>
</g>
<!-- Node1&#45;&gt;Node2 -->
<g id="edge1" class="edge">
<title>Node1&#45;&gt;Node2</title>
<path fill="none" stroke="#63b8ff" d="M211.58,-111C219.9,-111 228.17,-111 236.17,-111"/>
<polygon fill="#63b8ff" stroke="#63b8ff" points="211.64,-107.5 201.64,-111 211.64,-114.5 211.64,-107.5"/>
</g>
<!-- Node3 -->
<g id="node3" class="node">
<title>Node3</title>
<g id="a_node3"><a xlink:href="classmfem_1_1AnisotropicErrorEstimator.html" target="_top" xlink:title="The AnisotropicErrorEstimator class is the base class for all error estimators that compute one non&#45;n...">
<polygon fill="white" stroke="#666666" points="646.26,-222 428,-222 428,-200 646.26,-200 646.26,-222"/>
<text text-anchor="middle" x="537.13" y="-206.8" font-family="Helvetica,sans-Serif" font-size="14.00">mfem::AnisotropicErrorEstimator</text>
</a>
</g>
</g>
<!-- Node2&#45;&gt;Node3 -->
<g id="edge2" class="edge">
<title>Node2&#45;&gt;Node3</title>
<path fill="none" stroke="#63b8ff" d="M331.51,-129.75C352.17,-148.36 386.49,-176.18 421.38,-191 429.38,-194.4 437.93,-197.22 446.63,-199.56"/>
<polygon fill="#63b8ff" stroke="#63b8ff" points="334.25,-127.6 324.52,-123.4 329.51,-132.75 334.25,-127.6"/>
</g>
<!-- Node6 -->
<g id="node6" class="node">
<title>Node6</title>
<g id="a_node6"><a xlink:href="classmfem_1_1KellyErrorEstimator.html" target="_top" xlink:title="The KellyErrorEstimator class provides a fast error indication strategy for smooth scalar parallel pr...">
<polygon fill="white" stroke="#666666" points="626.81,-182 447.45,-182 447.45,-160 626.81,-160 626.81,-182"/>
<text text-anchor="middle" x="537.13" y="-166.8" font-family="Helvetica,sans-Serif" font-size="14.00">mfem::KellyErrorEstimator</text>
</a>
</g>
</g>
<!-- Node2&#45;&gt;Node6 -->
<g id="edge5" class="edge">
<title>Node2&#45;&gt;Node6</title>
<path fill="none" stroke="#63b8ff" d="M348.97,-126.42C369.93,-134.65 396.79,-144.42 421.38,-151 433.49,-154.24 446.47,-157.08 459.18,-159.53"/>
<polygon fill="#63b8ff" stroke="#63b8ff" points="350.48,-122.85 339.89,-122.4 347.88,-129.35 350.48,-122.85"/>
</g>
<!-- Node7 -->
<g id="node7" class="node">
<title>Node7</title>
<g id="a_node7"><a xlink:href="classmfem_1_1L2ZienkiewiczZhuEstimator.html" target="_top" xlink:title="The L2ZienkiewiczZhuEstimator class implements the Zienkiewicz&#45;Zhu error estimation procedure where t...">
<polygon fill="white" stroke="#666666" points="652.11,-142 422.15,-142 422.15,-120 652.11,-120 652.11,-142"/>
<text text-anchor="middle" x="537.13" y="-126.8" font-family="Helvetica,sans-Serif" font-size="14.00">mfem::L2ZienkiewiczZhuEstimator</text>
</a>
</g>
</g>
<!-- Node2&#45;&gt;Node7 -->
<g id="edge6" class="edge">
<title>Node2&#45;&gt;Node7</title>
<path fill="none" stroke="#63b8ff" d="M396.39,-118.54C404.69,-119.28 413.21,-120.04 421.75,-120.8"/>
<polygon fill="#63b8ff" stroke="#63b8ff" points="396.88,-114.98 386.61,-117.58 396.26,-121.95 396.88,-114.98"/>
</g>
<!-- Node8 -->
<g id="node8" class="node">
<title>Node8</title>
<g id="a_node8"><a xlink:href="classmfem_1_1LSZienkiewiczZhuEstimator.html" target="_top" xlink:title="The LSZienkiewiczZhuEstimator class implements the Zienkiewicz&#45;Zhu error estimation procedure [1,...">
<polygon fill="white" stroke="#666666" points="652.88,-102 421.38,-102 421.38,-80 652.88,-80 652.88,-102"/>
<text text-anchor="middle" x="537.13" y="-86.8" font-family="Helvetica,sans-Serif" font-size="14.00">mfem::LSZienkiewiczZhuEstimator</text>
</a>
</g>
</g>
<!-- Node2&#45;&gt;Node8 -->
<g id="edge7" class="edge">
<title>Node2&#45;&gt;Node8</title>
<path fill="none" stroke="#63b8ff" d="M396.42,-103.46C404.45,-102.74 412.69,-102.01 420.94,-101.27"/>
<polygon fill="#63b8ff" stroke="#63b8ff" points="396.26,-100.05 386.61,-104.42 396.88,-107.02 396.26,-100.05"/>
</g>
<!-- Node9 -->
<g id="node9" class="node">
<title>Node9</title>
<g id="a_node9"><a xlink:href="classmfem_1_1LpErrorEstimator.html" target="_top" xlink:title="The LpErrorEstimator class compares the solution to a known coefficient.">
<polygon fill="white" stroke="#666666" points="619.42,-62 454.84,-62 454.84,-40 619.42,-40 619.42,-62"/>
<text text-anchor="middle" x="537.13" y="-46.8" font-family="Helvetica,sans-Serif" font-size="14.00">mfem::LpErrorEstimator</text>
</a>
</g>
</g>
<!-- Node2&#45;&gt;Node9 -->
<g id="edge8" class="edge">
<title>Node2&#45;&gt;Node9</title>
<path fill="none" stroke="#63b8ff" d="M348.97,-95.58C369.93,-87.35 396.79,-77.58 421.38,-71 433.49,-67.76 446.47,-64.92 459.18,-62.47"/>
<polygon fill="#63b8ff" stroke="#63b8ff" points="347.88,-92.65 339.89,-99.6 350.48,-99.15 347.88,-92.65"/>
</g>
<!-- Node10 -->
<g id="node10" class="node">
<title>Node10</title>
<g id="a_node10"><a xlink:href="classmfem_1_1TMOPDeRefinerEstimator.html" target="_top" xlink:title=" ">
<polygon fill="white" stroke="#666666" points="647.82,-22 426.44,-22 426.44,0 647.82,0 647.82,-22"/>
<text text-anchor="middle" x="537.13" y="-6.8" font-family="Helvetica,sans-Serif" font-size="14.00">mfem::TMOPDeRefinerEstimator</text>
</a>
</g>
</g>
<!-- Node2&#45;&gt;Node10 -->
<g id="edge9" class="edge">
<title>Node2&#45;&gt;Node10</title>
<path fill="none" stroke="#63b8ff" d="M331.51,-92.25C352.17,-73.64 386.49,-45.82 421.38,-31 429.38,-27.6 437.93,-24.78 446.63,-22.44"/>
<polygon fill="#63b8ff" stroke="#63b8ff" points="329.51,-89.25 324.52,-98.6 334.25,-94.4 329.51,-89.25"/>
</g>
<!-- Node4 -->
<g id="node4" class="node">
<title>Node4</title>
<g id="a_node4"><a xlink:href="classmfem_1_1TMOPRefinerEstimator.html" target="_top" xlink:title=" ">
<polygon fill="white" stroke="#666666" points="897.81,-242 694.33,-242 694.33,-220 897.81,-220 897.81,-242"/>
<text text-anchor="middle" x="796.07" y="-226.8" font-family="Helvetica,sans-Serif" font-size="14.00">mfem::TMOPRefinerEstimator</text>
</a>
</g>
</g>
<!-- Node3&#45;&gt;Node4 -->
<g id="edge3" class="edge">
<title>Node3&#45;&gt;Node4</title>
<path fill="none" stroke="#63b8ff" d="M657.48,-220.29C669.77,-221.25 682.17,-222.21 694.22,-223.15"/>
<polygon fill="#63b8ff" stroke="#63b8ff" points="657.97,-216.74 647.72,-219.45 657.42,-223.72 657.97,-216.74"/>
</g>
<!-- Node5 -->
<g id="node5" class="node">
<title>Node5</title>
<g id="a_node5"><a xlink:href="classmfem_1_1ZienkiewiczZhuEstimator.html" target="_top" xlink:title="The ZienkiewiczZhuEstimator class implements the Zienkiewicz&#45;Zhu error estimation procedure.">
<polygon fill="white" stroke="#666666" points="903.26,-202 688.88,-202 688.88,-180 903.26,-180 903.26,-202"/>
<text text-anchor="middle" x="796.07" y="-186.8" font-family="Helvetica,sans-Serif" font-size="14.00">mfem::ZienkiewiczZhuEstimator</text>
</a>
</g>
</g>
<!-- Node3&#45;&gt;Node5 -->
<g id="edge4" class="edge">
<title>Node3&#45;&gt;Node5</title>
<path fill="none" stroke="#63b8ff" d="M657.47,-201.71C667.83,-200.9 678.26,-200.09 688.51,-199.29"/>
<polygon fill="#63b8ff" stroke="#63b8ff" points="657.42,-198.28 647.72,-202.55 657.97,-205.26 657.42,-198.28"/>
</g>
</g>
</svg>
