<?xml version="1.0" encoding="UTF-8" standalone="no"?>
<!DOCTYPE svg PUBLIC "-//W3C//DTD SVG 1.1//EN"
 "http://www.w3.org/Graphics/SVG/1.1/DTD/svg11.dtd">
<!-- Generated by graphviz version 8.0.5 (0)
 -->
<!-- Title: mfem::ceed::MFDiffusionIntegrator Pages: 1 -->
<svg width="239pt" height="204pt"
 viewBox="0.00 0.00 239.28 204.00" xmlns="http://www.w3.org/2000/svg" xmlns:xlink="http://www.w3.org/1999/xlink">
<g id="graph0" class="graph" transform="scale(1 1) rotate(0) translate(4 200)">
<title>mfem::ceed::MFDiffusionIntegrator</title>
<!-- Node1 -->
<g id="node1" class="node">
<title>Node1</title>
<g id="a_node1"><a xlink:title="Represent a DiffusionIntegrator with AssemblyLevel::None using libCEED.">
<polygon fill="#999999" stroke="#666666" points="231.28,-22 0,-22 0,0 231.28,0 231.28,-22"/>
<text text-anchor="middle" x="115.64" y="-6.8" font-family="Helvetica,sans-Serif" font-size="14.00">mfem::ceed::MFDiffusionIntegrator</text>
</a>
</g>
</g>
<!-- Node2 -->
<g id="node2" class="node">
<title>Node2</title>
<g id="a_node2"><a xlink:href="classmfem_1_1ceed_1_1MFIntegrator.html" target="_top" xlink:title=" ">
<polygon fill="white" stroke="#666666" points="204.17,-80 27.11,-80 27.11,-58 204.17,-58 204.17,-80"/>
<text text-anchor="middle" x="115.64" y="-64.8" font-family="Helvetica,sans-Serif" font-size="14.00">mfem::ceed::MFIntegrator</text>
</a>
</g>
</g>
<!-- Node2&#45;&gt;Node1 -->
<g id="edge1" class="edge">
<title>Node2&#45;&gt;Node1</title>
<path fill="none" stroke="#63b8ff" d="M115.64,-46.75C115.64,-38.34 115.64,-29.06 115.64,-22.21"/>
<polygon fill="#63b8ff" stroke="#63b8ff" points="112.14,-46.73 115.64,-56.73 119.14,-46.73 112.14,-46.73"/>
</g>
<!-- Node3 -->
<g id="node3" class="node">
<title>Node3</title>
<g id="a_node3"><a xlink:href="classmfem_1_1ceed_1_1Operator.html" target="_top" xlink:title=" ">
<polygon fill="white" stroke="#666666" points="191.72,-138 39.56,-138 39.56,-116 191.72,-116 191.72,-138"/>
<text text-anchor="middle" x="115.64" y="-122.8" font-family="Helvetica,sans-Serif" font-size="14.00">mfem::ceed::Operator</text>
</a>
</g>
</g>
<!-- Node3&#45;&gt;Node2 -->
<g id="edge2" class="edge">
<title>Node3&#45;&gt;Node2</title>
<path fill="none" stroke="#63b8ff" d="M115.64,-104.75C115.64,-96.34 115.64,-87.06 115.64,-80.21"/>
<polygon fill="#63b8ff" stroke="#63b8ff" points="112.14,-104.73 115.64,-114.73 119.14,-104.73 112.14,-104.73"/>
</g>
<!-- Node4 -->
<g id="node4" class="node">
<title>Node4</title>
<g id="a_node4"><a xlink:href="classmfem_1_1Operator.html" target="_top" xlink:title="Abstract operator.">
<polygon fill="white" stroke="#666666" points="172.65,-196 58.62,-196 58.62,-174 172.65,-174 172.65,-196"/>
<text text-anchor="middle" x="115.64" y="-180.8" font-family="Helvetica,sans-Serif" font-size="14.00">mfem::Operator</text>
</a>
</g>
</g>
<!-- Node4&#45;&gt;Node3 -->
<g id="edge3" class="edge">
<title>Node4&#45;&gt;Node3</title>
<path fill="none" stroke="#63b8ff" d="M115.64,-162.75C115.64,-154.34 115.64,-145.06 115.64,-138.21"/>
<polygon fill="#63b8ff" stroke="#63b8ff" points="112.14,-162.73 115.64,-172.73 119.14,-162.73 112.14,-162.73"/>
</g>
</g>
</svg>
