<?xml version="1.0" encoding="UTF-8" standalone="no"?>
<!DOCTYPE svg PUBLIC "-//W3C//DTD SVG 1.1//EN"
 "http://www.w3.org/Graphics/SVG/1.1/DTD/svg11.dtd">
<!-- Generated by graphviz version 12.0.0 (20240704.0754)
 -->
<!-- Title: mfem::NamedFieldsMap&lt; T &gt; Pages: 1 -->
<svg width="206pt" height="269pt"
 viewBox="0.00 0.00 206.25 269.00" xmlns="http://www.w3.org/2000/svg" xmlns:xlink="http://www.w3.org/1999/xlink">

<svg id="main" version="1.1" xmlns="http://www.w3.org/2000/svg" xmlns:xlink="http://www.w3.org/1999/xlink" xml:space="preserve" onload="init(evt)">
<style type="text/css"><![CDATA[
.node, .edge {opacity: 0.7;}
.node.selected, .edge.selected {opacity: 1;}
.edge:hover path { stroke: red; }
.edge:hover polygon { stroke: red; fill: red; }
]]></style>
<script type="application/ecmascript" xlink:href="svg.min.js"/>
<svg id="graph" class="graph">
<g id="graph0" class="graph" transform="scale(1 1) rotate(0) translate(4 265)">
<title>mfem::NamedFieldsMap&lt; T &gt;</title>
<!-- Node1 -->
<g id="Node000001" class="node">
<title>Node1</title>
<g id="a_Node000001"><a xlink:title="Lightweight adaptor over an std::map from strings to pointer to T.">
<polygon fill="#999999" stroke="#666666" points="198.25,-23 0,-23 0,0 198.25,0 198.25,-23"/>
<text text-anchor="middle" x="99.12" y="-5.7" font-family="Helvetica,sans-Serif" font-size="14.00">mfem::NamedFieldsMap&lt; T &gt;</text>
</a>
</g>
</g>
<!-- Node2 -->
<g id="Node000002" class="node">
<title>Node2</title>
<g id="a_Node000002"><a xlink:title=" ">
<polygon fill="white" stroke="#666666" points="170.5,-112 27.75,-112 27.75,-74 170.5,-74 170.5,-112"/>
<text text-anchor="start" x="35.75" y="-94.7" font-family="Helvetica,sans-Serif" font-size="14.00">std::map&lt; std::string,</text>
<text text-anchor="middle" x="99.12" y="-79.7" font-family="Helvetica,sans-Serif" font-size="14.00"> T * &gt;</text>
</a>
</g>
</g>
<!-- Node2&#45;&gt;Node1 -->
<g id="edge1_Node000001_Node000002" class="edge">
<title>Node2&#45;&gt;Node1</title>
<g id="a_edge1_Node000001_Node000002"><a xlink:title=" ">
<path fill="none" stroke="#9a32cd" stroke-dasharray="5,2" d="M99.12,-62.18C99.12,-48.54 99.12,-33.24 99.12,-23.26"/>
<polygon fill="#9a32cd" stroke="#9a32cd" points="95.63,-62.05 99.13,-72.05 102.63,-62.05 95.63,-62.05"/>
</a>
</g>
<text text-anchor="middle" x="130.62" y="-42.7" font-family="Helvetica,sans-Serif" font-size="14.00" fill="grey"> field_map</text>
</g>
<!-- Node3 -->
<g id="Node000003" class="node">
<title>Node3</title>
<g id="a_Node000003"><a xlink:title=" ">
<polygon fill="white" stroke="#666666" points="101.38,-186 26.88,-186 26.88,-163 101.38,-163 101.38,-186"/>
<text text-anchor="middle" x="64.12" y="-168.7" font-family="Helvetica,sans-Serif" font-size="14.00">std::string</text>
</a>
</g>
</g>
<!-- Node3&#45;&gt;Node2 -->
<g id="edge2_Node000002_Node000003" class="edge">
<title>Node3&#45;&gt;Node2</title>
<g id="a_edge2_Node000002_Node000003"><a xlink:title=" ">
<path fill="none" stroke="#9a32cd" stroke-dasharray="5,2" d="M71.71,-152.06C74.37,-144.97 77.47,-137.08 80.62,-130 83.2,-124.22 86.25,-118.06 89.12,-112.49"/>
<polygon fill="#9a32cd" stroke="#9a32cd" points="68.51,-150.62 68.38,-161.22 75.09,-153.02 68.51,-150.62"/>
</a>
</g>
<text text-anchor="middle" x="95.88" y="-131.7" font-family="Helvetica,sans-Serif" font-size="14.00" fill="grey"> keys</text>
</g>
<!-- Node4 -->
<g id="Node000004" class="node">
<title>Node4</title>
<g id="a_Node000004"><a xlink:title=" ">
<polygon fill="white" stroke="#666666" points="125,-261 3.25,-261 3.25,-223 125,-223 125,-261"/>
<text text-anchor="start" x="11.25" y="-243.7" font-family="Helvetica,sans-Serif" font-size="14.00">std::basic_string&lt;</text>
<text text-anchor="middle" x="64.12" y="-228.7" font-family="Helvetica,sans-Serif" font-size="14.00"> Char &gt;</text>
</a>
</g>
</g>
<!-- Node4&#45;&gt;Node3 -->
<g id="edge3_Node000003_Node000004" class="edge">
<title>Node4&#45;&gt;Node3</title>
<g id="a_edge3_Node000003_Node000004"><a xlink:title=" ">
<path fill="none" stroke="#63b8ff" d="M64.12,-211.47C64.12,-202.57 64.12,-193.35 64.12,-186.47"/>
<polygon fill="#63b8ff" stroke="#63b8ff" points="60.63,-211.24 64.13,-221.24 67.63,-211.24 60.63,-211.24"/>
</a>
</g>
</g>
<!-- Node5 -->
<g id="Node000005" class="node">
<title>Node5</title>
<g id="a_Node000005"><a xlink:title=" ">
<polygon fill="white" stroke="#666666" points="148.53,-186 119.72,-186 119.72,-163 148.53,-163 148.53,-186"/>
<text text-anchor="middle" x="134.12" y="-168.7" font-family="Helvetica,sans-Serif" font-size="14.00">T</text>
</a>
</g>
</g>
<!-- Node5&#45;&gt;Node2 -->
<g id="edge4_Node000002_Node000005" class="edge">
<title>Node5&#45;&gt;Node2</title>
<g id="a_edge4_Node000002_Node000005"><a xlink:title=" ">
<path fill="none" stroke="#9a32cd" stroke-dasharray="5,2" d="M124.85,-152.44C119.38,-140 112.51,-124.4 107.25,-112.45"/>
<polygon fill="#9a32cd" stroke="#9a32cd" points="121.56,-153.65 128.79,-161.39 127.97,-150.83 121.56,-153.65"/>
</a>
</g>
<text text-anchor="middle" x="149.75" y="-131.7" font-family="Helvetica,sans-Serif" font-size="14.00" fill="grey"> elements</text>
</g>
</g>
</svg>
</svg>

<style type='text/css'>
<![CDATA[
[data-mouse-over-selected='false'] { opacity: 0.7; }
[data-mouse-over-selected='true']  { opacity: 1.0; }
]]>
</style>
<script type="application/ecmascript"><![CDATA[
document.addEventListener('DOMContentLoaded', (event) => {
  highlightEdges();
  highlightAdjacentNodes();
});
]]></script>
</svg>
