<?xml version="1.0" encoding="UTF-8" standalone="no"?>
<!DOCTYPE svg PUBLIC "-//W3C//DTD SVG 1.1//EN"
 "http://www.w3.org/Graphics/SVG/1.1/DTD/svg11.dtd">
<!-- Generated by graphviz version 8.0.5 (0)
 -->
<!-- Title: mfem::NonlinearFormIntegrator Pages: 1 -->
<svg width="545pt" height="333pt"
 viewBox="0.00 0.00 544.86 333.00" xmlns="http://www.w3.org/2000/svg" xmlns:xlink="http://www.w3.org/1999/xlink">
<g id="graph0" class="graph" transform="scale(1 1) rotate(0) translate(4 329)">
<title>mfem::NonlinearFormIntegrator</title>
<!-- Node1 -->
<g id="node1" class="node">
<title>Node1</title>
<g id="a_node1"><a xlink:title="This class is used to express the local action of a general nonlinear finite element operator....">
<polygon fill="#999999" stroke="#666666" points="383.43,-22 172.14,-22 172.14,0 383.43,0 383.43,-22"/>
<text text-anchor="middle" x="277.78" y="-6.8" font-family="Helvetica,sans-Serif" font-size="14.00">mfem::NonlinearFormIntegrator</text>
</a>
</g>
</g>
<!-- Node2 -->
<g id="node2" class="node">
<title>Node2</title>
<g id="a_node2"><a xlink:href="classmfem_1_1IntegrationRule.html" target="_top" xlink:title="Class for an integration rule &#45; an Array of IntegrationPoint.">
<polygon fill="white" stroke="#666666" points="170.65,-94 16.92,-94 16.92,-72 170.65,-72 170.65,-94"/>
<text text-anchor="middle" x="93.78" y="-78.8" font-family="Helvetica,sans-Serif" font-size="14.00">mfem::IntegrationRule</text>
</a>
</g>
</g>
<!-- Node2&#45;&gt;Node1 -->
<g id="edge1" class="edge">
<title>Node2&#45;&gt;Node1</title>
<path fill="none" stroke="#9a32cd" stroke-dasharray="5,2" d="M131.27,-67.74C166.61,-54.29 218.73,-34.46 250.35,-22.44"/>
<polygon fill="#9a32cd" stroke="#9a32cd" points="130.43,-64.69 122.33,-71.52 132.92,-71.24 130.43,-64.69"/>
<text text-anchor="middle" x="226.9" y="-42.8" font-family="Helvetica,sans-Serif" font-size="14.00"> IntRule</text>
</g>
<!-- Node3 -->
<g id="node3" class="node">
<title>Node3</title>
<g id="a_node3"><a xlink:href="classmfem_1_1Array.html" target="_top" xlink:title=" ">
<polygon fill="white" stroke="#666666" points="179.01,-167 8.56,-167 8.56,-131 179.01,-131 179.01,-167"/>
<text text-anchor="start" x="16.56" y="-151.8" font-family="Helvetica,sans-Serif" font-size="14.00">mfem::Array&lt; Integration</text>
<text text-anchor="middle" x="93.78" y="-137.8" font-family="Helvetica,sans-Serif" font-size="14.00">Point &gt;</text>
</a>
</g>
</g>
<!-- Node3&#45;&gt;Node2 -->
<g id="edge2" class="edge">
<title>Node3&#45;&gt;Node2</title>
<path fill="none" stroke="#63b8ff" d="M93.78,-119.6C93.78,-110.65 93.78,-101.32 93.78,-94.46"/>
<polygon fill="#63b8ff" stroke="#63b8ff" points="90.28,-119.51 93.78,-129.51 97.28,-119.51 90.28,-119.51"/>
</g>
<!-- Node4 -->
<g id="node4" class="node">
<title>Node4</title>
<g id="a_node4"><a xlink:href="classmfem_1_1Memory.html" target="_top" xlink:title=" ">
<polygon fill="white" stroke="#666666" points="187.56,-253 0,-253 0,-217 187.56,-217 187.56,-253"/>
<text text-anchor="start" x="8" y="-237.8" font-family="Helvetica,sans-Serif" font-size="14.00">mfem::Memory&lt; Integration</text>
<text text-anchor="middle" x="93.78" y="-223.8" font-family="Helvetica,sans-Serif" font-size="14.00">Point &gt;</text>
</a>
</g>
</g>
<!-- Node4&#45;&gt;Node3 -->
<g id="edge3" class="edge">
<title>Node4&#45;&gt;Node3</title>
<path fill="none" stroke="#9a32cd" stroke-dasharray="5,2" d="M93.78,-205.63C93.78,-192.95 93.78,-178.42 93.78,-167.38"/>
<polygon fill="#9a32cd" stroke="#9a32cd" points="90.28,-205.6 93.78,-215.6 97.28,-205.6 90.28,-205.6"/>
<text text-anchor="middle" x="109.35" y="-187.8" font-family="Helvetica,sans-Serif" font-size="14.00"> data</text>
</g>
<!-- Node5 -->
<g id="node5" class="node">
<title>Node5</title>
<g id="a_node5"><a xlink:href="classmfem_1_1IntegrationPoint.html" target="_top" xlink:title="Class for integration point with weight.">
<polygon fill="white" stroke="#666666" points="172.2,-325 15.36,-325 15.36,-303 172.2,-303 172.2,-325"/>
<text text-anchor="middle" x="93.78" y="-309.8" font-family="Helvetica,sans-Serif" font-size="14.00">mfem::IntegrationPoint</text>
</a>
</g>
</g>
<!-- Node5&#45;&gt;Node4 -->
<g id="edge4" class="edge">
<title>Node5&#45;&gt;Node4</title>
<path fill="none" stroke="#9a32cd" stroke-dasharray="5,2" d="M93.78,-291.7C93.78,-279.6 93.78,-264.64 93.78,-253.28"/>
<polygon fill="#9a32cd" stroke="#9a32cd" points="90.28,-291.62 93.78,-301.62 97.28,-291.62 90.28,-291.62"/>
<text text-anchor="middle" x="111.68" y="-273.8" font-family="Helvetica,sans-Serif" font-size="14.00"> h_ptr</text>
</g>
<!-- Node6 -->
<g id="node6" class="node">
<title>Node6</title>
<g id="a_node6"><a xlink:href="classmfem_1_1NURBSMeshRules.html" target="_top" xlink:title="Class for defining different integration rules on each NURBS patch.">
<polygon fill="white" stroke="#666666" points="366.69,-94 188.87,-94 188.87,-72 366.69,-72 366.69,-94"/>
<text text-anchor="middle" x="277.78" y="-78.8" font-family="Helvetica,sans-Serif" font-size="14.00">mfem::NURBSMeshRules</text>
</a>
</g>
</g>
<!-- Node6&#45;&gt;Node1 -->
<g id="edge5" class="edge">
<title>Node6&#45;&gt;Node1</title>
<path fill="none" stroke="#9a32cd" stroke-dasharray="5,2" d="M277.78,-61.03C277.78,-48.27 277.78,-32.52 277.78,-22.37"/>
<polygon fill="#9a32cd" stroke="#9a32cd" points="274.28,-60.67 277.78,-70.67 281.28,-60.67 274.28,-60.67"/>
<text text-anchor="middle" x="314.75" y="-42.8" font-family="Helvetica,sans-Serif" font-size="14.00"> patchRules</text>
</g>
<!-- Node7 -->
<g id="node7" class="node">
<title>Node7</title>
<g id="a_node7"><a xlink:href="classmfem_1_1ceed_1_1Operator.html" target="_top" xlink:title=" ">
<polygon fill="white" stroke="#666666" points="536.86,-94 384.7,-94 384.7,-72 536.86,-72 536.86,-94"/>
<text text-anchor="middle" x="460.78" y="-78.8" font-family="Helvetica,sans-Serif" font-size="14.00">mfem::ceed::Operator</text>
</a>
</g>
</g>
<!-- Node7&#45;&gt;Node1 -->
<g id="edge6" class="edge">
<title>Node7&#45;&gt;Node1</title>
<path fill="none" stroke="#9a32cd" stroke-dasharray="5,2" d="M425.37,-67.47C405.07,-59.23 379.07,-48.84 355.78,-40 339.91,-33.98 322.09,-27.56 307.5,-22.39"/>
<polygon fill="#9a32cd" stroke="#9a32cd" points="423.84,-71.03 434.42,-71.56 426.48,-64.55 423.84,-71.03"/>
<text text-anchor="middle" x="417.24" y="-42.8" font-family="Helvetica,sans-Serif" font-size="14.00"> ceedOp</text>
</g>
<!-- Node8 -->
<g id="node8" class="node">
<title>Node8</title>
<g id="a_node8"><a xlink:href="classmfem_1_1Operator.html" target="_top" xlink:title="Abstract operator.">
<polygon fill="white" stroke="#666666" points="517.79,-160 403.77,-160 403.77,-138 517.79,-138 517.79,-160"/>
<text text-anchor="middle" x="460.78" y="-144.8" font-family="Helvetica,sans-Serif" font-size="14.00">mfem::Operator</text>
</a>
</g>
</g>
<!-- Node8&#45;&gt;Node7 -->
<g id="edge7" class="edge">
<title>Node8&#45;&gt;Node7</title>
<path fill="none" stroke="#63b8ff" d="M460.78,-126.94C460.78,-116.05 460.78,-103.25 460.78,-94.47"/>
<polygon fill="#63b8ff" stroke="#63b8ff" points="457.28,-126.72 460.78,-136.72 464.28,-126.72 457.28,-126.72"/>
</g>
</g>
</svg>
