<?xml version="1.0" encoding="UTF-8" standalone="no"?>
<!DOCTYPE svg PUBLIC "-//W3C//DTD SVG 1.1//EN"
 "http://www.w3.org/Graphics/SVG/1.1/DTD/svg11.dtd">
<!-- Generated by graphviz version 12.0.0 (20240704.0754)
 -->
<!-- Title: mfem::Ginkgo::GinkgoIterativeSolver Pages: 1 -->
<!--zoomable 544 -->

<svg id="main" version="1.1" xmlns="http://www.w3.org/2000/svg" xmlns:xlink="http://www.w3.org/1999/xlink" xml:space="preserve" onload="init(evt)">
<style type="text/css"><![CDATA[
.node, .edge {opacity: 0.7;}
.node.selected, .edge.selected {opacity: 1;}
.edge:hover path { stroke: red; }
.edge:hover polygon { stroke: red; fill: red; }
]]></style>

<defs>
  <circle id="rim" cx="0" cy="0" r="7"/>
  <circle id="rim2" cx="0" cy="0" r="3.5"/>
  <g id="zoomPlus">
    <use xlink:href="#rim" fill="#404040"><set attributeName="fill" to="#808080" begin="zoomplus.mouseover" end="zoomplus.mouseout"/></use>
    <path d="M-4,0h8M0,-4v8" fill="none" stroke="white" stroke-width="1.5" pointer-events="none"/>
  </g>
  <g id="zoomMin">
    <use xlink:href="#rim" fill="#404040"><set attributeName="fill" to="#808080" begin="zoomminus.mouseover" end="zoomminus.mouseout"/></use>
    <path d="M-4,0h8" fill="none" stroke="white" stroke-width="1.5" pointer-events="none"/>
  </g>
  <g id="arrowUp" transform="translate(30 24)">
    <use xlink:href="#rim"/>
    <path pointer-events="none" fill="none" stroke="white" stroke-width="1.5" d="M0,-3.0v7 M-2.5,-0.5L0,-3.0L2.5,-0.5"/>
  </g>
  <g id="arrowRight" transform="rotate(90) translate(36 -43)">
    <use xlink:href="#rim"/>
    <path pointer-events="none" fill="none" stroke="white" stroke-width="1.5" d="M0,-3.0v7 M-2.5,-0.5L0,-3.0L2.5,-0.5"/>
  </g>
  <g id="arrowDown" transform="rotate(180) translate(-30 -48)">
    <use xlink:href="#rim"/>
    <path pointer-events="none" fill="none" stroke="white" stroke-width="1.5" d="M0,-3.0v7 M-2.5,-0.5L0,-3.0L2.5,-0.5"/>
  </g>
  <g id="arrowLeft" transform="rotate(270) translate(-36 17)">
    <use xlink:href="#rim"/>
    <path pointer-events="none" fill="none" stroke="white" stroke-width="1.5" d="M0,-3.0v7 M-2.5,-0.5L0,-3.0L2.5,-0.5"/>
  </g>
  <g id="resetDef">
    <use xlink:href="#rim2" fill="#404040"><set attributeName="fill" to="#808080" begin="reset.mouseover" end="reset.mouseout"/></use>
  </g>
</defs>
<script type="application/ecmascript">
var viewWidth = 979;
var viewHeight = 544;
var sectionId = 'dynsection-0';
</script>
<script type="application/ecmascript" xlink:href="svg.min.js"/>
<svg id="graph" class="graph">
<g id="viewport">
<title>mfem::Ginkgo::GinkgoIterativeSolver</title>
<!-- Node1 -->
<g id="Node000001" class="node">
<title>Node1</title>
<g id="a_Node000001"><a xlink:title=" ">
<polygon fill="#999999" stroke="#666666" points="483,-279 281.75,-279 281.75,-241 483,-241 483,-279"/>
<text text-anchor="start" x="289.75" y="-261.7" font-family="Helvetica,sans-Serif" font-size="14.00">mfem::Ginkgo::GinkgoIterative</text>
<text text-anchor="middle" x="382.38" y="-246.7" font-family="Helvetica,sans-Serif" font-size="14.00">Solver</text>
</a>
</g>
</g>
<!-- Node4 -->
<g id="Node000004" class="node">
<title>Node4</title>
<g id="a_Node000004"><a xlink:href="classmfem_1_1Ginkgo_1_1EnableGinkgoSolver.html" target="_top" xlink:title=" ">
<polygon fill="white" stroke="#666666" points="715.75,-535.5 520.5,-535.5 520.5,-482.5 715.75,-482.5 715.75,-535.5"/>
<text text-anchor="start" x="528.5" y="-518.2" font-family="Helvetica,sans-Serif" font-size="14.00">mfem::Ginkgo::EnableGinkgo</text>
<text text-anchor="start" x="528.5" y="-503.2" font-family="Helvetica,sans-Serif" font-size="14.00">Solver&lt; gko::solver::Bicgstab</text>
<text text-anchor="middle" x="618.12" y="-488.2" font-family="Helvetica,sans-Serif" font-size="14.00">&lt; real_t &gt; &gt;</text>
</a>
</g>
</g>
<!-- Node1&#45;&gt;Node4 -->
<g id="edge3_Node000001_Node000004" class="edge">
<title>Node1&#45;&gt;Node4</title>
<g id="a_edge3_Node000001_Node000004"><a xlink:title=" ">
<path fill="none" stroke="#63b8ff" d="M394.71,-289.73C413.66,-335.62 455.99,-423.64 519,-474 522.67,-476.94 526.61,-479.64 530.73,-482.12"/>
<polygon fill="#63b8ff" stroke="#63b8ff" points="398.05,-288.66 391.07,-280.69 391.56,-291.28 398.05,-288.66"/>
</a>
</g>
</g>
<!-- Node6 -->
<g id="Node000006" class="node">
<title>Node6</title>
<g id="a_Node000006"><a xlink:href="classmfem_1_1Ginkgo_1_1EnableGinkgoSolver.html" target="_top" xlink:title=" ">
<polygon fill="white" stroke="#666666" points="717.25,-464.5 519,-464.5 519,-411.5 717.25,-411.5 717.25,-464.5"/>
<text text-anchor="start" x="527" y="-447.2" font-family="Helvetica,sans-Serif" font-size="14.00">mfem::Ginkgo::EnableGinkgo</text>
<text text-anchor="start" x="527" y="-432.2" font-family="Helvetica,sans-Serif" font-size="14.00">Solver&lt; gko::solver::CbGmres</text>
<text text-anchor="middle" x="618.12" y="-417.2" font-family="Helvetica,sans-Serif" font-size="14.00">&lt; real_t &gt; &gt;</text>
</a>
</g>
</g>
<!-- Node1&#45;&gt;Node6 -->
<g id="edge5_Node000001_Node000006" class="edge">
<title>Node1&#45;&gt;Node6</title>
<g id="a_edge5_Node000001_Node000006"><a xlink:title=" ">
<path fill="none" stroke="#63b8ff" d="M403.59,-288.26C427.75,-320.18 470.98,-371.73 519,-403 523.55,-405.96 528.38,-408.71 533.36,-411.25"/>
<polygon fill="#63b8ff" stroke="#63b8ff" points="406.69,-286.56 397.91,-280.63 401.08,-290.74 406.69,-286.56"/>
</a>
</g>
</g>
<!-- Node8 -->
<g id="Node000008" class="node">
<title>Node8</title>
<g id="a_Node000008"><a xlink:href="classmfem_1_1Ginkgo_1_1EnableGinkgoSolver.html" target="_top" xlink:title=" ">
<polygon fill="white" stroke="#666666" points="715.75,-393.5 520.5,-393.5 520.5,-340.5 715.75,-340.5 715.75,-393.5"/>
<text text-anchor="start" x="528.5" y="-376.2" font-family="Helvetica,sans-Serif" font-size="14.00">mfem::Ginkgo::EnableGinkgo</text>
<text text-anchor="start" x="528.5" y="-361.2" font-family="Helvetica,sans-Serif" font-size="14.00">Solver&lt; gko::solver::Cgs</text>
<text text-anchor="middle" x="618.12" y="-346.2" font-family="Helvetica,sans-Serif" font-size="14.00">&lt; real_t &gt; &gt;</text>
</a>
</g>
</g>
<!-- Node1&#45;&gt;Node8 -->
<g id="edge7_Node000001_Node000008" class="edge">
<title>Node1&#45;&gt;Node8</title>
<g id="a_edge7_Node000001_Node000008"><a xlink:title=" ">
<path fill="none" stroke="#63b8ff" d="M426.69,-285.07C452.93,-299.73 487.35,-318.04 519,-332 525.21,-334.74 531.7,-337.42 538.26,-340.01"/>
<polygon fill="#63b8ff" stroke="#63b8ff" points="428.45,-282.04 418.02,-280.19 425.01,-288.14 428.45,-282.04"/>
</a>
</g>
</g>
<!-- Node10 -->
<g id="Node000010" class="node">
<title>Node10</title>
<g id="a_Node000010"><a xlink:href="classmfem_1_1Ginkgo_1_1EnableGinkgoSolver.html" target="_top" xlink:title=" ">
<polygon fill="white" stroke="#666666" points="715.75,-322.5 520.5,-322.5 520.5,-269.5 715.75,-269.5 715.75,-322.5"/>
<text text-anchor="start" x="528.5" y="-305.2" font-family="Helvetica,sans-Serif" font-size="14.00">mfem::Ginkgo::EnableGinkgo</text>
<text text-anchor="start" x="528.5" y="-290.2" font-family="Helvetica,sans-Serif" font-size="14.00">Solver&lt; gko::solver::Cg</text>
<text text-anchor="middle" x="618.12" y="-275.2" font-family="Helvetica,sans-Serif" font-size="14.00">&lt; real_t &gt; &gt;</text>
</a>
</g>
</g>
<!-- Node1&#45;&gt;Node10 -->
<g id="edge9_Node000001_Node000010" class="edge">
<title>Node1&#45;&gt;Node10</title>
<g id="a_edge9_Node000001_Node000010"><a xlink:title=" ">
<path fill="none" stroke="#63b8ff" d="M494.47,-277.11C503.08,-278.44 511.74,-279.77 520.25,-281.08"/>
<polygon fill="#63b8ff" stroke="#63b8ff" points="495.1,-273.67 484.68,-275.6 494.03,-280.58 495.1,-273.67"/>
</a>
</g>
</g>
<!-- Node12 -->
<g id="Node000012" class="node">
<title>Node12</title>
<g id="a_Node000012"><a xlink:href="classmfem_1_1Ginkgo_1_1EnableGinkgoSolver.html" target="_top" xlink:title=" ">
<polygon fill="white" stroke="#666666" points="715.75,-251.5 520.5,-251.5 520.5,-198.5 715.75,-198.5 715.75,-251.5"/>
<text text-anchor="start" x="528.5" y="-234.2" font-family="Helvetica,sans-Serif" font-size="14.00">mfem::Ginkgo::EnableGinkgo</text>
<text text-anchor="start" x="528.5" y="-219.2" font-family="Helvetica,sans-Serif" font-size="14.00">Solver&lt; gko::solver::Fcg</text>
<text text-anchor="middle" x="618.12" y="-204.2" font-family="Helvetica,sans-Serif" font-size="14.00">&lt; real_t &gt; &gt;</text>
</a>
</g>
</g>
<!-- Node1&#45;&gt;Node12 -->
<g id="edge11_Node000001_Node000012" class="edge">
<title>Node1&#45;&gt;Node12</title>
<g id="a_edge11_Node000001_Node000012"><a xlink:title=" ">
<path fill="none" stroke="#63b8ff" d="M494.47,-243.37C503.08,-242.08 511.74,-240.78 520.25,-239.51"/>
<polygon fill="#63b8ff" stroke="#63b8ff" points="494.05,-239.89 484.68,-244.83 495.09,-246.81 494.05,-239.89"/>
</a>
</g>
</g>
<!-- Node14 -->
<g id="Node000014" class="node">
<title>Node14</title>
<g id="a_Node000014"><a xlink:href="classmfem_1_1Ginkgo_1_1EnableGinkgoSolver.html" target="_top" xlink:title=" ">
<polygon fill="white" stroke="#666666" points="715.75,-180.5 520.5,-180.5 520.5,-127.5 715.75,-127.5 715.75,-180.5"/>
<text text-anchor="start" x="528.5" y="-163.2" font-family="Helvetica,sans-Serif" font-size="14.00">mfem::Ginkgo::EnableGinkgo</text>
<text text-anchor="start" x="528.5" y="-148.2" font-family="Helvetica,sans-Serif" font-size="14.00">Solver&lt; gko::solver::Gmres</text>
<text text-anchor="middle" x="618.12" y="-133.2" font-family="Helvetica,sans-Serif" font-size="14.00">&lt; real_t &gt; &gt;</text>
</a>
</g>
</g>
<!-- Node1&#45;&gt;Node14 -->
<g id="edge13_Node000001_Node000014" class="edge">
<title>Node1&#45;&gt;Node14</title>
<g id="a_edge13_Node000001_Node000014"><a xlink:title=" ">
<path fill="none" stroke="#63b8ff" d="M427.27,-235.03C453.46,-220.63 487.62,-202.73 519,-189 525.3,-186.24 531.89,-183.54 538.54,-180.92"/>
<polygon fill="#63b8ff" stroke="#63b8ff" points="425.66,-231.91 418.61,-239.82 429.05,-238.04 425.66,-231.91"/>
</a>
</g>
</g>
<!-- Node16 -->
<g id="Node000016" class="node">
<title>Node16</title>
<g id="a_Node000016"><a xlink:href="classmfem_1_1Ginkgo_1_1EnableGinkgoSolver.html" target="_top" xlink:title=" ">
<polygon fill="white" stroke="#666666" points="715.75,-109.5 520.5,-109.5 520.5,-56.5 715.75,-56.5 715.75,-109.5"/>
<text text-anchor="start" x="528.5" y="-92.2" font-family="Helvetica,sans-Serif" font-size="14.00">mfem::Ginkgo::EnableGinkgo</text>
<text text-anchor="start" x="528.5" y="-77.2" font-family="Helvetica,sans-Serif" font-size="14.00">Solver&lt; gko::solver::Ir</text>
<text text-anchor="middle" x="618.12" y="-62.2" font-family="Helvetica,sans-Serif" font-size="14.00">&lt; real_t &gt; &gt;</text>
</a>
</g>
</g>
<!-- Node1&#45;&gt;Node16 -->
<g id="edge15_Node000001_Node000016" class="edge">
<title>Node1&#45;&gt;Node16</title>
<g id="a_edge15_Node000001_Node000016"><a xlink:title=" ">
<path fill="none" stroke="#63b8ff" d="M403.95,-231.54C428.2,-199.82 471.31,-148.94 519,-118 523.55,-115.05 528.38,-112.31 533.37,-109.77"/>
<polygon fill="#63b8ff" stroke="#63b8ff" points="401.16,-229.42 397.95,-239.51 406.75,-233.62 401.16,-229.42"/>
</a>
</g>
</g>
<!-- Node18 -->
<g id="Node000018" class="node">
<title>Node18</title>
<g id="a_Node000018"><a xlink:href="classmfem_1_1Ginkgo_1_1EnableGinkgoSolver.html" target="_top" xlink:title=" ">
<polygon fill="white" stroke="#666666" points="715.75,-38 520.5,-38 520.5,0 715.75,0 715.75,-38"/>
<text text-anchor="start" x="528.5" y="-20.7" font-family="Helvetica,sans-Serif" font-size="14.00">mfem::Ginkgo::EnableGinkgo</text>
<text text-anchor="middle" x="618.12" y="-5.7" font-family="Helvetica,sans-Serif" font-size="14.00">Solver&lt; SolverType &gt;</text>
</a>
</g>
</g>
<!-- Node1&#45;&gt;Node18 -->
<g id="edge17_Node000001_Node000018" class="edge">
<title>Node1&#45;&gt;Node18</title>
<g id="a_edge17_Node000001_Node000018"><a xlink:title=" ">
<path fill="none" stroke="#63b8ff" d="M394.23,-230.26C412.64,-184.01 454.4,-95.19 519,-47 523.4,-43.72 528.18,-40.82 533.17,-38.26"/>
<polygon fill="#63b8ff" stroke="#63b8ff" points="391.05,-228.78 390.7,-239.37 397.57,-231.31 391.05,-228.78"/>
</a>
</g>
</g>
<!-- Node2 -->
<g id="Node000002" class="node">
<title>Node2</title>
<g id="a_Node000002"><a xlink:href="classmfem_1_1Solver.html" target="_top" xlink:title="Base class for solvers.">
<polygon fill="white" stroke="#666666" points="245.75,-271.5 148.75,-271.5 148.75,-248.5 245.75,-248.5 245.75,-271.5"/>
<text text-anchor="middle" x="197.25" y="-254.2" font-family="Helvetica,sans-Serif" font-size="14.00">mfem::Solver</text>
</a>
</g>
</g>
<!-- Node2&#45;&gt;Node1 -->
<g id="edge1_Node000001_Node000002" class="edge">
<title>Node2&#45;&gt;Node1</title>
<g id="a_edge1_Node000001_Node000002"><a xlink:title=" ">
<path fill="none" stroke="#63b8ff" d="M257.34,-260C265.08,-260 273.19,-260 281.38,-260"/>
<polygon fill="#63b8ff" stroke="#63b8ff" points="257.4,-256.5 247.4,-260 257.4,-263.5 257.4,-256.5"/>
</a>
</g>
</g>
<!-- Node3 -->
<g id="Node000003" class="node">
<title>Node3</title>
<g id="a_Node000003"><a xlink:href="classmfem_1_1Operator.html" target="_top" xlink:title="Abstract operator.">
<polygon fill="white" stroke="#666666" points="112.75,-271.5 0,-271.5 0,-248.5 112.75,-248.5 112.75,-271.5"/>
<text text-anchor="middle" x="56.38" y="-254.2" font-family="Helvetica,sans-Serif" font-size="14.00">mfem::Operator</text>
</a>
</g>
</g>
<!-- Node3&#45;&gt;Node2 -->
<g id="edge2_Node000002_Node000003" class="edge">
<title>Node3&#45;&gt;Node2</title>
<g id="a_edge2_Node000002_Node000003"><a xlink:title=" ">
<path fill="none" stroke="#63b8ff" d="M124.49,-260C132.64,-260 140.82,-260 148.6,-260"/>
<polygon fill="#63b8ff" stroke="#63b8ff" points="124.57,-256.5 114.57,-260 124.57,-263.5 124.57,-256.5"/>
</a>
</g>
</g>
<!-- Node5 -->
<g id="Node000005" class="node">
<title>Node5</title>
<g id="a_Node000005"><a xlink:href="classmfem_1_1Ginkgo_1_1BICGSTABSolver.html" target="_top" xlink:title=" ">
<polygon fill="white" stroke="#666666" points="970.62,-520.5 753.62,-520.5 753.62,-497.5 970.62,-497.5 970.62,-520.5"/>
<text text-anchor="middle" x="862.12" y="-503.2" font-family="Helvetica,sans-Serif" font-size="14.00">mfem::Ginkgo::BICGSTABSolver</text>
</a>
</g>
</g>
<!-- Node4&#45;&gt;Node5 -->
<g id="edge4_Node000004_Node000005" class="edge">
<title>Node4&#45;&gt;Node5</title>
<g id="a_edge4_Node000004_Node000005"><a xlink:title=" ">
<path fill="none" stroke="#63b8ff" d="M727.42,-509C736.03,-509 744.73,-509 753.34,-509"/>
<polygon fill="#63b8ff" stroke="#63b8ff" points="727.67,-505.5 717.67,-509 727.67,-512.5 727.67,-505.5"/>
</a>
</g>
</g>
<!-- Node7 -->
<g id="Node000007" class="node">
<title>Node7</title>
<g id="a_Node000007"><a xlink:href="classmfem_1_1Ginkgo_1_1CBGMRESSolver.html" target="_top" xlink:title=" ">
<polygon fill="white" stroke="#666666" points="971,-449.5 753.25,-449.5 753.25,-426.5 971,-426.5 971,-449.5"/>
<text text-anchor="middle" x="862.12" y="-432.2" font-family="Helvetica,sans-Serif" font-size="14.00">mfem::Ginkgo::CBGMRESSolver</text>
</a>
</g>
</g>
<!-- Node6&#45;&gt;Node7 -->
<g id="edge6_Node000006_Node000007" class="edge">
<title>Node6&#45;&gt;Node7</title>
<g id="a_edge6_Node000006_Node000007"><a xlink:title=" ">
<path fill="none" stroke="#63b8ff" d="M728.82,-438C736.83,-438 744.91,-438 752.91,-438"/>
<polygon fill="#63b8ff" stroke="#63b8ff" points="729.07,-434.5 719.07,-438 729.07,-441.5 729.07,-434.5"/>
</a>
</g>
</g>
<!-- Node9 -->
<g id="Node000009" class="node">
<title>Node9</title>
<g id="a_Node000009"><a xlink:href="classmfem_1_1Ginkgo_1_1CGSSolver.html" target="_top" xlink:title=" ">
<polygon fill="white" stroke="#666666" points="951.12,-378.5 773.12,-378.5 773.12,-355.5 951.12,-355.5 951.12,-378.5"/>
<text text-anchor="middle" x="862.12" y="-361.2" font-family="Helvetica,sans-Serif" font-size="14.00">mfem::Ginkgo::CGSSolver</text>
</a>
</g>
</g>
<!-- Node8&#45;&gt;Node9 -->
<g id="edge8_Node000008_Node000009" class="edge">
<title>Node8&#45;&gt;Node9</title>
<g id="a_edge8_Node000008_Node000009"><a xlink:title=" ">
<path fill="none" stroke="#63b8ff" d="M727.62,-367C742.7,-367 758.03,-367 772.68,-367"/>
<polygon fill="#63b8ff" stroke="#63b8ff" points="727.67,-363.5 717.67,-367 727.67,-370.5 727.67,-363.5"/>
</a>
</g>
</g>
<!-- Node11 -->
<g id="Node000011" class="node">
<title>Node11</title>
<g id="a_Node000011"><a xlink:href="classmfem_1_1Ginkgo_1_1CGSolver.html" target="_top" xlink:title=" ">
<polygon fill="white" stroke="#666666" points="946.62,-307.5 777.62,-307.5 777.62,-284.5 946.62,-284.5 946.62,-307.5"/>
<text text-anchor="middle" x="862.12" y="-290.2" font-family="Helvetica,sans-Serif" font-size="14.00">mfem::Ginkgo::CGSolver</text>
</a>
</g>
</g>
<!-- Node10&#45;&gt;Node11 -->
<g id="edge10_Node000010_Node000011" class="edge">
<title>Node10&#45;&gt;Node11</title>
<g id="a_edge10_Node000010_Node000011"><a xlink:title=" ">
<path fill="none" stroke="#63b8ff" d="M727.63,-296C744.3,-296 761.29,-296 777.32,-296"/>
<polygon fill="#63b8ff" stroke="#63b8ff" points="727.67,-292.5 717.67,-296 727.67,-299.5 727.67,-292.5"/>
</a>
</g>
</g>
<!-- Node13 -->
<g id="Node000013" class="node">
<title>Node13</title>
<g id="a_Node000013"><a xlink:href="classmfem_1_1Ginkgo_1_1FCGSolver.html" target="_top" xlink:title=" ">
<polygon fill="white" stroke="#666666" points="950.75,-236.5 773.5,-236.5 773.5,-213.5 950.75,-213.5 950.75,-236.5"/>
<text text-anchor="middle" x="862.12" y="-219.2" font-family="Helvetica,sans-Serif" font-size="14.00">mfem::Ginkgo::FCGSolver</text>
</a>
</g>
</g>
<!-- Node12&#45;&gt;Node13 -->
<g id="edge12_Node000012_Node000013" class="edge">
<title>Node12&#45;&gt;Node13</title>
<g id="a_edge12_Node000012_Node000013"><a xlink:title=" ">
<path fill="none" stroke="#63b8ff" d="M727.26,-225C742.58,-225 758.19,-225 773.07,-225"/>
<polygon fill="#63b8ff" stroke="#63b8ff" points="727.67,-221.5 717.67,-225 727.67,-228.5 727.67,-221.5"/>
</a>
</g>
</g>
<!-- Node15 -->
<g id="Node000015" class="node">
<title>Node15</title>
<g id="a_Node000015"><a xlink:href="classmfem_1_1Ginkgo_1_1GMRESSolver.html" target="_top" xlink:title=" ">
<polygon fill="white" stroke="#666666" points="961.62,-165.5 762.62,-165.5 762.62,-142.5 961.62,-142.5 961.62,-165.5"/>
<text text-anchor="middle" x="862.12" y="-148.2" font-family="Helvetica,sans-Serif" font-size="14.00">mfem::Ginkgo::GMRESSolver</text>
</a>
</g>
</g>
<!-- Node14&#45;&gt;Node15 -->
<g id="edge14_Node000014_Node000015" class="edge">
<title>Node14&#45;&gt;Node15</title>
<g id="a_edge14_Node000014_Node000015"><a xlink:title=" ">
<path fill="none" stroke="#63b8ff" d="M727.32,-154C739.03,-154 750.9,-154 762.49,-154"/>
<polygon fill="#63b8ff" stroke="#63b8ff" points="727.67,-150.5 717.67,-154 727.67,-157.5 727.67,-150.5"/>
</a>
</g>
</g>
<!-- Node17 -->
<g id="Node000017" class="node">
<title>Node17</title>
<g id="a_Node000017"><a xlink:href="classmfem_1_1Ginkgo_1_1IRSolver.html" target="_top" xlink:title=" ">
<polygon fill="white" stroke="#666666" points="942.88,-94.5 781.38,-94.5 781.38,-71.5 942.88,-71.5 942.88,-94.5"/>
<text text-anchor="middle" x="862.12" y="-77.2" font-family="Helvetica,sans-Serif" font-size="14.00">mfem::Ginkgo::IRSolver</text>
</a>
</g>
</g>
<!-- Node16&#45;&gt;Node17 -->
<g id="edge16_Node000016_Node000017" class="edge">
<title>Node16&#45;&gt;Node17</title>
<g id="a_edge16_Node000016_Node000017"><a xlink:title=" ">
<path fill="none" stroke="#63b8ff" d="M727.62,-83C745.62,-83 764,-83 781.14,-83"/>
<polygon fill="#63b8ff" stroke="#63b8ff" points="727.67,-79.5 717.67,-83 727.67,-86.5 727.67,-79.5"/>
</a>
</g>
</g>
</g>
</svg>

<g id="navigator" transform="translate(0 0)" fill="#404254">
  <rect fill="#f2f5e9" fill-opacity="0.5" stroke="#606060" stroke-width=".5" x="0" y="0" width="60" height="60"/>
  <use id="zoomplus" xlink:href="#zoomPlus" x="17" y="9" onmousedown="handleZoom(evt,'in')"/>
  <use id="zoomminus" xlink:href="#zoomMin" x="42" y="9" onmousedown="handleZoom(evt,'out')"/>
  <use id="reset" xlink:href="#resetDef" x="30" y="36" onmousedown="handleReset()"/>
   <use id="arrowup" xlink:href="#arrowUp" x="0" y="0" onmousedown="handlePan(0,-1)"/>
  <use id="arrowright" xlink:href="#arrowRight" x="0" y="0" onmousedown="handlePan(1,0)"/>
  <use id="arrowdown" xlink:href="#arrowDown" x="0" y="0" onmousedown="handlePan(0,1)"/>
  <use id="arrowleft" xlink:href="#arrowLeft" x="0" y="0" onmousedown="handlePan(-1,0)"/>
</g>
<svg viewBox="0 0 15 15" width="100%" height="30px" preserveAspectRatio="xMaxYMin meet">
 <g id="arrow_out" transform="scale(0.3 0.3)">
  <a xlink:href="classmfem_1_1Ginkgo_1_1GinkgoIterativeSolver__inherit__graph_org.svg" target="_base">
   <rect id="button" ry="5" rx="5" y="6" x="6" height="38" width="38"
        fill="#f2f5e9" fill-opacity="0.5" stroke="#606060" stroke-width="1.0"/>
   <path id="arrow"
     d="M 11.500037,31.436501 C 11.940474,20.09759 22.043105,11.32322 32.158766,21.979434 L 37.068811,17.246167 C 37.068811,17.246167 37.088388,32 37.088388,32 L 22.160133,31.978069 C 22.160133,31.978069 26.997745,27.140456 26.997745,27.140456 C 18.528582,18.264221 13.291696,25.230495 11.500037,31.436501 z"
     style="fill:#404040;"/>
  </a>
 </g>
</svg>

<style type='text/css'>
<![CDATA[
[data-mouse-over-selected='false'] { opacity: 0.7; }
[data-mouse-over-selected='true']  { opacity: 1.0; }
]]>
</style>
<script type="application/ecmascript"><![CDATA[
document.addEventListener('DOMContentLoaded', (event) => {
  highlightEdges();
  highlightAdjacentNodes();
});
]]></script>
</svg>
