<?xml version="1.0" encoding="UTF-8" standalone="no"?>
<!DOCTYPE svg PUBLIC "-//W3C//DTD SVG 1.1//EN"
 "http://www.w3.org/Graphics/SVG/1.1/DTD/svg11.dtd">
<!-- Generated by graphviz version 12.0.0 (20240704.0754)
 -->
<!-- Title: mfem::ShapeEvaluator_base&lt; FE, IR, false, real_t &gt; Pages: 1 -->
<!--zoomable 288 -->

<svg id="main" version="1.1" xmlns="http://www.w3.org/2000/svg" xmlns:xlink="http://www.w3.org/1999/xlink" xml:space="preserve" onload="init(evt)">
<style type="text/css"><![CDATA[
.node, .edge {opacity: 0.7;}
.node.selected, .edge.selected {opacity: 1;}
.edge:hover path { stroke: red; }
.edge:hover polygon { stroke: red; fill: red; }
]]></style>

<defs>
  <circle id="rim" cx="0" cy="0" r="7"/>
  <circle id="rim2" cx="0" cy="0" r="3.5"/>
  <g id="zoomPlus">
    <use xlink:href="#rim" fill="#404040"><set attributeName="fill" to="#808080" begin="zoomplus.mouseover" end="zoomplus.mouseout"/></use>
    <path d="M-4,0h8M0,-4v8" fill="none" stroke="white" stroke-width="1.5" pointer-events="none"/>
  </g>
  <g id="zoomMin">
    <use xlink:href="#rim" fill="#404040"><set attributeName="fill" to="#808080" begin="zoomminus.mouseover" end="zoomminus.mouseout"/></use>
    <path d="M-4,0h8" fill="none" stroke="white" stroke-width="1.5" pointer-events="none"/>
  </g>
  <g id="arrowUp" transform="translate(30 24)">
    <use xlink:href="#rim"/>
    <path pointer-events="none" fill="none" stroke="white" stroke-width="1.5" d="M0,-3.0v7 M-2.5,-0.5L0,-3.0L2.5,-0.5"/>
  </g>
  <g id="arrowRight" transform="rotate(90) translate(36 -43)">
    <use xlink:href="#rim"/>
    <path pointer-events="none" fill="none" stroke="white" stroke-width="1.5" d="M0,-3.0v7 M-2.5,-0.5L0,-3.0L2.5,-0.5"/>
  </g>
  <g id="arrowDown" transform="rotate(180) translate(-30 -48)">
    <use xlink:href="#rim"/>
    <path pointer-events="none" fill="none" stroke="white" stroke-width="1.5" d="M0,-3.0v7 M-2.5,-0.5L0,-3.0L2.5,-0.5"/>
  </g>
  <g id="arrowLeft" transform="rotate(270) translate(-36 17)">
    <use xlink:href="#rim"/>
    <path pointer-events="none" fill="none" stroke="white" stroke-width="1.5" d="M0,-3.0v7 M-2.5,-0.5L0,-3.0L2.5,-0.5"/>
  </g>
  <g id="resetDef">
    <use xlink:href="#rim2" fill="#404040"><set attributeName="fill" to="#808080" begin="reset.mouseover" end="reset.mouseout"/></use>
  </g>
</defs>
<script type="application/ecmascript">
var viewWidth = 881;
var viewHeight = 288;
var sectionId = 'dynsection-0';
</script>
<script type="application/ecmascript" xlink:href="svg.min.js"/>
<svg id="graph" class="graph">
<g id="viewport">
<title>mfem::ShapeEvaluator_base&lt; FE, IR, false, real_t &gt;</title>
<!-- Node1 -->
<g id="Node000001" class="node">
<title>Node1</title>
<g id="a_Node000001"><a xlink:title="ShapeEvaluator without tensor&#45;product structure.">
<polygon fill="#999999" stroke="#666666" points="873.25,-184 718.5,-184 718.5,-131 873.25,-131 873.25,-184"/>
<text text-anchor="start" x="726.5" y="-166.7" font-family="Helvetica,sans-Serif" font-size="14.00">mfem::ShapeEvaluator</text>
<text text-anchor="start" x="726.5" y="-151.7" font-family="Helvetica,sans-Serif" font-size="14.00">_base&lt; FE, IR, false,</text>
<text text-anchor="middle" x="795.88" y="-136.7" font-family="Helvetica,sans-Serif" font-size="14.00"> real_t &gt;</text>
</a>
</g>
</g>
<!-- Node2 -->
<g id="Node000002" class="node">
<title>Node2</title>
<g id="a_Node000002"><a xlink:href="structmfem_1_1TMatrix.html" target="_top" xlink:title=" ">
<polygon fill="white" stroke="#666666" points="652.12,-265.5 510.88,-265.5 510.88,-227.5 652.12,-227.5 652.12,-265.5"/>
<text text-anchor="start" x="518.88" y="-248.2" font-family="Helvetica,sans-Serif" font-size="14.00">mfem::TMatrix&lt; NIP,</text>
<text text-anchor="middle" x="581.5" y="-233.2" font-family="Helvetica,sans-Serif" font-size="14.00"> DOF, real_t, true &gt;</text>
</a>
</g>
</g>
<!-- Node2&#45;&gt;Node1 -->
<g id="edge1_Node000001_Node000002" class="edge">
<title>Node2&#45;&gt;Node1</title>
<g id="a_edge1_Node000001_Node000002"><a xlink:title=" ">
<path fill="none" stroke="#9a32cd" stroke-dasharray="5,2" d="M651.99,-223.09C655.98,-221.58 659.93,-220.04 663.75,-218.5 689.24,-208.21 716.92,-195.56 740.24,-184.46"/>
<polygon fill="#9a32cd" stroke="#9a32cd" points="650.93,-219.75 642.77,-226.5 653.36,-226.32 650.93,-219.75"/>
</a>
</g>
<text text-anchor="middle" x="691.12" y="-212.2" font-family="Helvetica,sans-Serif" font-size="14.00" fill="grey"> B</text>
</g>
<!-- Node3 -->
<g id="Node000003" class="node">
<title>Node3</title>
<g id="a_Node000003"><a xlink:href="structmfem_1_1TVector.html" target="_top" xlink:title=" ">
<polygon fill="white" stroke="#666666" points="411.88,-216.5 246.62,-216.5 246.62,-178.5 411.88,-178.5 411.88,-216.5"/>
<text text-anchor="start" x="254.62" y="-199.2" font-family="Helvetica,sans-Serif" font-size="14.00">mfem::TVector&lt; N1 *N2,</text>
<text text-anchor="middle" x="329.25" y="-184.2" font-family="Helvetica,sans-Serif" font-size="14.00"> real_t, align &gt;</text>
</a>
</g>
</g>
<!-- Node3&#45;&gt;Node2 -->
<g id="edge2_Node000002_Node000003" class="edge">
<title>Node3&#45;&gt;Node2</title>
<g id="a_edge2_Node000002_Node000003"><a xlink:title=" ">
<path fill="none" stroke="#63b8ff" d="M423.46,-212.69C442.61,-216.05 462.61,-219.74 481.25,-223.5 490.7,-225.41 500.62,-227.54 510.39,-229.73"/>
<polygon fill="#63b8ff" stroke="#63b8ff" points="424.25,-209.27 413.79,-211.01 423.05,-216.17 424.25,-209.27"/>
</a>
</g>
</g>
<!-- Node7 -->
<g id="Node000007" class="node">
<title>Node7</title>
<g id="a_Node000007"><a xlink:href="structmfem_1_1TMatrix.html" target="_top" xlink:title=" ">
<polygon fill="white" stroke="#666666" points="655.5,-209.5 507.5,-209.5 507.5,-171.5 655.5,-171.5 655.5,-209.5"/>
<text text-anchor="start" x="515.5" y="-192.2" font-family="Helvetica,sans-Serif" font-size="14.00">mfem::TMatrix&lt; DOF,</text>
<text text-anchor="middle" x="581.5" y="-177.2" font-family="Helvetica,sans-Serif" font-size="14.00"> NIP, real_t, true &gt;</text>
</a>
</g>
</g>
<!-- Node3&#45;&gt;Node7 -->
<g id="edge7_Node000007_Node000003" class="edge">
<title>Node3&#45;&gt;Node7</title>
<g id="a_edge7_Node000007_Node000003"><a xlink:title=" ">
<path fill="none" stroke="#63b8ff" d="M423.48,-194.89C451.15,-194.12 481.04,-193.28 507.24,-192.55"/>
<polygon fill="#63b8ff" stroke="#63b8ff" points="423.6,-191.39 413.7,-195.17 423.8,-198.38 423.6,-191.39"/>
</a>
</g>
</g>
<!-- Node4 -->
<g id="Node000004" class="node">
<title>Node4</title>
<g id="a_Node000004"><a xlink:href="structmfem_1_1StridedLayout1D.html" target="_top" xlink:title=" ">
<polygon fill="white" stroke="#666666" points="159.25,-160.5 0,-160.5 0,-122.5 159.25,-122.5 159.25,-160.5"/>
<text text-anchor="start" x="8" y="-143.2" font-family="Helvetica,sans-Serif" font-size="14.00">mfem::StridedLayout1D</text>
<text text-anchor="middle" x="79.62" y="-128.2" font-family="Helvetica,sans-Serif" font-size="14.00">&lt; N1, S1 &gt;</text>
</a>
</g>
</g>
<!-- Node4&#45;&gt;Node3 -->
<g id="edge3_Node000003_Node000004" class="edge">
<title>Node4&#45;&gt;Node3</title>
<g id="a_edge3_Node000003_Node000004"><a xlink:title=" ">
<path fill="none" stroke="#9a32cd" stroke-dasharray="5,2" d="M170.82,-161.9C195.44,-167.47 221.99,-173.47 246.13,-178.93"/>
<polygon fill="#9a32cd" stroke="#9a32cd" points="171.66,-158.5 161.13,-159.71 170.11,-165.33 171.66,-158.5"/>
</a>
</g>
<text text-anchor="middle" x="197.12" y="-172.2" font-family="Helvetica,sans-Serif" font-size="14.00" fill="grey"> layout</text>
</g>
<!-- Node9 -->
<g id="Node000009" class="node">
<title>Node9</title>
<g id="a_Node000009"><a xlink:href="structmfem_1_1TVector.html" target="_top" xlink:title=" ">
<polygon fill="white" stroke="#666666" points="410,-160.5 248.5,-160.5 248.5,-122.5 410,-122.5 410,-160.5"/>
<text text-anchor="start" x="256.5" y="-143.2" font-family="Helvetica,sans-Serif" font-size="14.00">mfem::TVector&lt; N1 *N2</text>
<text text-anchor="middle" x="329.25" y="-128.2" font-family="Helvetica,sans-Serif" font-size="14.00"> *N3, real_t, align &gt;</text>
</a>
</g>
</g>
<!-- Node4&#45;&gt;Node9 -->
<g id="edge11_Node000009_Node000004" class="edge">
<title>Node4&#45;&gt;Node9</title>
<g id="a_edge11_Node000009_Node000004"><a xlink:title=" ">
<path fill="none" stroke="#9a32cd" stroke-dasharray="5,2" d="M171.11,-141.5C196.38,-141.5 223.65,-141.5 248.27,-141.5"/>
<polygon fill="#9a32cd" stroke="#9a32cd" points="171.17,-138 161.17,-141.5 171.17,-145 171.17,-138"/>
</a>
</g>
<text text-anchor="middle" x="197.12" y="-143.2" font-family="Helvetica,sans-Serif" font-size="14.00" fill="grey"> layout</text>
</g>
<!-- Node13 -->
<g id="Node000013" class="node">
<title>Node13</title>
<g id="a_Node000013"><a xlink:href="structmfem_1_1TVector.html" target="_top" xlink:title=" ">
<polygon fill="white" stroke="#666666" points="410,-104.5 248.5,-104.5 248.5,-66.5 410,-66.5 410,-104.5"/>
<text text-anchor="start" x="256.5" y="-87.2" font-family="Helvetica,sans-Serif" font-size="14.00">mfem::TVector&lt; N1 *N2</text>
<text text-anchor="middle" x="329.25" y="-72.2" font-family="Helvetica,sans-Serif" font-size="14.00"> *N3, real_t, false &gt;</text>
</a>
</g>
</g>
<!-- Node4&#45;&gt;Node13 -->
<g id="edge16_Node000013_Node000004" class="edge">
<title>Node4&#45;&gt;Node13</title>
<g id="a_edge16_Node000013_Node000004"><a xlink:title=" ">
<path fill="none" stroke="#9a32cd" stroke-dasharray="5,2" d="M170.77,-121.11C196.13,-115.38 223.54,-109.18 248.27,-103.59"/>
<polygon fill="#9a32cd" stroke="#9a32cd" points="170.11,-117.67 161.13,-123.29 171.66,-124.5 170.11,-117.67"/>
</a>
</g>
<text text-anchor="middle" x="197.12" y="-120.2" font-family="Helvetica,sans-Serif" font-size="14.00" fill="grey"> layout</text>
</g>
<!-- Node5 -->
<g id="Node000005" class="node">
<title>Node5</title>
<g id="a_Node000005"><a xlink:href="structmfem_1_1ColumnMajorLayout2D.html" target="_top" xlink:title=" ">
<polygon fill="white" stroke="#666666" points="423.5,-279.5 235,-279.5 235,-241.5 423.5,-241.5 423.5,-279.5"/>
<text text-anchor="start" x="243" y="-262.2" font-family="Helvetica,sans-Serif" font-size="14.00">mfem::ColumnMajorLayout2</text>
<text text-anchor="middle" x="329.25" y="-247.2" font-family="Helvetica,sans-Serif" font-size="14.00">D&lt; N1, N2 &gt;</text>
</a>
</g>
</g>
<!-- Node5&#45;&gt;Node2 -->
<g id="edge4_Node000002_Node000005" class="edge">
<title>Node5&#45;&gt;Node2</title>
<g id="a_edge4_Node000002_Node000005"><a xlink:title=" ">
<path fill="none" stroke="#9a32cd" stroke-dasharray="5,2" d="M434.99,-260.56C450.51,-260.15 466.3,-259.5 481.25,-258.5 490.77,-257.86 500.79,-256.95 510.64,-255.9"/>
<polygon fill="#9a32cd" stroke="#9a32cd" points="435.18,-257.06 425.26,-260.79 435.34,-264.06 435.18,-257.06"/>
</a>
</g>
<text text-anchor="middle" x="461.38" y="-261.2" font-family="Helvetica,sans-Serif" font-size="14.00" fill="grey"> layout</text>
</g>
<!-- Node5&#45;&gt;Node7 -->
<g id="edge8_Node000007_Node000005" class="edge">
<title>Node5&#45;&gt;Node7</title>
<g id="a_edge8_Node000007_Node000005"><a xlink:title=" ">
<path fill="none" stroke="#9a32cd" stroke-dasharray="5,2" d="M410.74,-237.99C443.09,-228.94 480.03,-218.6 511.17,-209.89"/>
<polygon fill="#9a32cd" stroke="#9a32cd" points="410.1,-234.53 401.42,-240.59 411.99,-241.27 410.1,-234.53"/>
</a>
</g>
<text text-anchor="middle" x="461.38" y="-229.2" font-family="Helvetica,sans-Serif" font-size="14.00" fill="grey"> layout</text>
</g>
<!-- Node6 -->
<g id="Node000006" class="node">
<title>Node6</title>
<g id="a_Node000006"><a xlink:href="structmfem_1_1StridedLayout2D.html" target="_top" xlink:title=" ">
<polygon fill="white" stroke="#666666" points="159.25,-279.5 0,-279.5 0,-241.5 159.25,-241.5 159.25,-279.5"/>
<text text-anchor="start" x="8" y="-262.2" font-family="Helvetica,sans-Serif" font-size="14.00">mfem::StridedLayout2D</text>
<text text-anchor="middle" x="79.62" y="-247.2" font-family="Helvetica,sans-Serif" font-size="14.00">&lt; N1, 1, N2, N1 &gt;</text>
</a>
</g>
</g>
<!-- Node6&#45;&gt;Node5 -->
<g id="edge5_Node000005_Node000006" class="edge">
<title>Node6&#45;&gt;Node5</title>
<g id="a_edge5_Node000005_Node000006"><a xlink:title=" ">
<path fill="none" stroke="#63b8ff" d="M171.04,-260.5C191.81,-260.5 213.94,-260.5 234.84,-260.5"/>
<polygon fill="#63b8ff" stroke="#63b8ff" points="171.17,-257 161.17,-260.5 171.17,-264 171.17,-257"/>
</a>
</g>
</g>
<!-- Node7&#45;&gt;Node1 -->
<g id="edge6_Node000001_Node000007" class="edge">
<title>Node7&#45;&gt;Node1</title>
<g id="a_edge6_Node000001_Node000007"><a xlink:title=" ">
<path fill="none" stroke="#9a32cd" stroke-dasharray="5,2" d="M666.89,-177.39C683.84,-174.75 701.57,-172 718.24,-169.41"/>
<polygon fill="#9a32cd" stroke="#9a32cd" points="666.72,-173.87 657.38,-178.86 667.8,-180.79 666.72,-173.87"/>
</a>
</g>
<text text-anchor="middle" x="691.12" y="-176.2" font-family="Helvetica,sans-Serif" font-size="14.00" fill="grey"> Bt</text>
</g>
<!-- Node8 -->
<g id="Node000008" class="node">
<title>Node8</title>
<g id="a_Node000008"><a xlink:href="structmfem_1_1TTensor3.html" target="_top" xlink:title=" ">
<polygon fill="white" stroke="#666666" points="663.75,-153.5 499.25,-153.5 499.25,-115.5 663.75,-115.5 663.75,-153.5"/>
<text text-anchor="start" x="507.25" y="-136.2" font-family="Helvetica,sans-Serif" font-size="14.00">mfem::TTensor3&lt; NIP,</text>
<text text-anchor="middle" x="581.5" y="-121.2" font-family="Helvetica,sans-Serif" font-size="14.00"> DIM, DOF, real_t, true &gt;</text>
</a>
</g>
</g>
<!-- Node8&#45;&gt;Node1 -->
<g id="edge9_Node000001_Node000008" class="edge">
<title>Node8&#45;&gt;Node1</title>
<g id="a_edge9_Node000001_Node000008"><a xlink:title=" ">
<path fill="none" stroke="#9a32cd" stroke-dasharray="5,2" d="M675.36,-144.56C689.64,-146.1 704.25,-147.69 718.13,-149.19"/>
<polygon fill="#9a32cd" stroke="#9a32cd" points="675.83,-141.09 665.51,-143.49 675.07,-148.05 675.83,-141.09"/>
</a>
</g>
<text text-anchor="middle" x="691.12" y="-148.2" font-family="Helvetica,sans-Serif" font-size="14.00" fill="grey"> G</text>
</g>
<!-- Node9&#45;&gt;Node8 -->
<g id="edge10_Node000008_Node000009" class="edge">
<title>Node9&#45;&gt;Node8</title>
<g id="a_edge10_Node000008_Node000009"><a xlink:title=" ">
<path fill="none" stroke="#63b8ff" d="M421.91,-138.94C447.17,-138.23 474.39,-137.47 499.02,-136.78"/>
<polygon fill="#63b8ff" stroke="#63b8ff" points="421.87,-135.44 411.98,-139.21 422.07,-142.43 421.87,-135.44"/>
</a>
</g>
</g>
<!-- Node10 -->
<g id="Node000010" class="node">
<title>Node10</title>
<g id="a_Node000010"><a xlink:href="structmfem_1_1ColumnMajorLayout3D.html" target="_top" xlink:title=" ">
<polygon fill="white" stroke="#666666" points="423.5,-45.5 235,-45.5 235,-7.5 423.5,-7.5 423.5,-45.5"/>
<text text-anchor="start" x="243" y="-28.2" font-family="Helvetica,sans-Serif" font-size="14.00">mfem::ColumnMajorLayout3</text>
<text text-anchor="middle" x="329.25" y="-13.2" font-family="Helvetica,sans-Serif" font-size="14.00">D&lt; N1, N2, N3 &gt;</text>
</a>
</g>
</g>
<!-- Node10&#45;&gt;Node8 -->
<g id="edge12_Node000008_Node000010" class="edge">
<title>Node10&#45;&gt;Node8</title>
<g id="a_edge12_Node000008_Node000010"><a xlink:title=" ">
<path fill="none" stroke="#9a32cd" stroke-dasharray="5,2" d="M406.4,-50.02C412.26,-52.37 418.02,-54.87 423.5,-57.5 459.65,-74.85 463.2,-88.95 499.25,-106.5 505.56,-109.57 512.28,-112.46 519.07,-115.12"/>
<polygon fill="#9a32cd" stroke="#9a32cd" points="407.8,-46.81 397.21,-46.49 405.29,-53.34 407.8,-46.81"/>
</a>
</g>
<text text-anchor="middle" x="461.38" y="-97.2" font-family="Helvetica,sans-Serif" font-size="14.00" fill="grey"> layout</text>
</g>
<!-- Node12 -->
<g id="Node000012" class="node">
<title>Node12</title>
<g id="a_Node000012"><a xlink:href="structmfem_1_1TTensor3.html" target="_top" xlink:title=" ">
<polygon fill="white" stroke="#666666" points="660.75,-97.5 502.25,-97.5 502.25,-59.5 660.75,-59.5 660.75,-97.5"/>
<text text-anchor="start" x="510.25" y="-80.2" font-family="Helvetica,sans-Serif" font-size="14.00">mfem::TTensor3&lt; DOF,</text>
<text text-anchor="middle" x="581.5" y="-65.2" font-family="Helvetica,sans-Serif" font-size="14.00"> NIP, DIM, real_t &gt;</text>
</a>
</g>
</g>
<!-- Node10&#45;&gt;Node12 -->
<g id="edge17_Node000012_Node000010" class="edge">
<title>Node10&#45;&gt;Node12</title>
<g id="a_edge17_Node000012_Node000010"><a xlink:title=" ">
<path fill="none" stroke="#9a32cd" stroke-dasharray="5,2" d="M435.18,-15.12C450.8,-15.7 466.57,-17.58 481.25,-21.5 508.7,-28.82 536.46,-45.75 555.61,-59.27"/>
<polygon fill="#9a32cd" stroke="#9a32cd" points="435.43,-11.62 425.37,-14.95 435.31,-18.62 435.43,-11.62"/>
</a>
</g>
<text text-anchor="middle" x="461.38" y="-23.2" font-family="Helvetica,sans-Serif" font-size="14.00" fill="grey"> layout</text>
</g>
<!-- Node11 -->
<g id="Node000011" class="node">
<title>Node11</title>
<g id="a_Node000011"><a xlink:href="structmfem_1_1StridedLayout3D.html" target="_top" xlink:title=" ">
<polygon fill="white" stroke="#666666" points="159.25,-53 0,-53 0,0 159.25,0 159.25,-53"/>
<text text-anchor="start" x="8" y="-35.7" font-family="Helvetica,sans-Serif" font-size="14.00">mfem::StridedLayout3D</text>
<text text-anchor="start" x="8" y="-20.7" font-family="Helvetica,sans-Serif" font-size="14.00">&lt; N1, 1, N2, N1, N3,</text>
<text text-anchor="middle" x="79.62" y="-5.7" font-family="Helvetica,sans-Serif" font-size="14.00"> N1 *N2 &gt;</text>
</a>
</g>
</g>
<!-- Node11&#45;&gt;Node10 -->
<g id="edge13_Node000010_Node000011" class="edge">
<title>Node11&#45;&gt;Node10</title>
<g id="a_edge13_Node000010_Node000011"><a xlink:title=" ">
<path fill="none" stroke="#63b8ff" d="M171.04,-26.5C191.81,-26.5 213.94,-26.5 234.84,-26.5"/>
<polygon fill="#63b8ff" stroke="#63b8ff" points="171.17,-23 161.17,-26.5 171.17,-30 171.17,-23"/>
</a>
</g>
</g>
<!-- Node12&#45;&gt;Node1 -->
<g id="edge14_Node000001_Node000012" class="edge">
<title>Node12&#45;&gt;Node1</title>
<g id="a_edge14_Node000001_Node000012"><a xlink:title=" ">
<path fill="none" stroke="#9a32cd" stroke-dasharray="5,2" d="M650.43,-101.69C654.94,-103.3 659.42,-104.91 663.75,-106.5 684.39,-114.07 706.72,-122.62 727.01,-130.52"/>
<polygon fill="#9a32cd" stroke="#9a32cd" points="651.88,-98.49 641.29,-98.46 649.55,-105.09 651.88,-98.49"/>
</a>
</g>
<text text-anchor="middle" x="691.12" y="-121.2" font-family="Helvetica,sans-Serif" font-size="14.00" fill="grey"> Gt</text>
</g>
<!-- Node13&#45;&gt;Node12 -->
<g id="edge15_Node000012_Node000013" class="edge">
<title>Node13&#45;&gt;Node12</title>
<g id="a_edge15_Node000012_Node000013"><a xlink:title=" ">
<path fill="none" stroke="#63b8ff" d="M421.97,-82.93C448.24,-82.2 476.63,-81.41 502.02,-80.7"/>
<polygon fill="#63b8ff" stroke="#63b8ff" points="421.87,-79.44 411.98,-83.21 422.07,-86.43 421.87,-79.44"/>
</a>
</g>
</g>
</g>
</svg>

<g id="navigator" transform="translate(0 0)" fill="#404254">
  <rect fill="#f2f5e9" fill-opacity="0.5" stroke="#606060" stroke-width=".5" x="0" y="0" width="60" height="60"/>
  <use id="zoomplus" xlink:href="#zoomPlus" x="17" y="9" onmousedown="handleZoom(evt,'in')"/>
  <use id="zoomminus" xlink:href="#zoomMin" x="42" y="9" onmousedown="handleZoom(evt,'out')"/>
  <use id="reset" xlink:href="#resetDef" x="30" y="36" onmousedown="handleReset()"/>
   <use id="arrowup" xlink:href="#arrowUp" x="0" y="0" onmousedown="handlePan(0,-1)"/>
  <use id="arrowright" xlink:href="#arrowRight" x="0" y="0" onmousedown="handlePan(1,0)"/>
  <use id="arrowdown" xlink:href="#arrowDown" x="0" y="0" onmousedown="handlePan(0,1)"/>
  <use id="arrowleft" xlink:href="#arrowLeft" x="0" y="0" onmousedown="handlePan(-1,0)"/>
</g>
<svg viewBox="0 0 15 15" width="100%" height="30px" preserveAspectRatio="xMaxYMin meet">
 <g id="arrow_out" transform="scale(0.3 0.3)">
  <a xlink:href="classmfem_1_1ShapeEvaluator__base_3_01FE_00_01IR_00_01false_00_01real__t_01_4__coll__graph_org.svg" target="_base">
   <rect id="button" ry="5" rx="5" y="6" x="6" height="38" width="38"
        fill="#f2f5e9" fill-opacity="0.5" stroke="#606060" stroke-width="1.0"/>
   <path id="arrow"
     d="M 11.500037,31.436501 C 11.940474,20.09759 22.043105,11.32322 32.158766,21.979434 L 37.068811,17.246167 C 37.068811,17.246167 37.088388,32 37.088388,32 L 22.160133,31.978069 C 22.160133,31.978069 26.997745,27.140456 26.997745,27.140456 C 18.528582,18.264221 13.291696,25.230495 11.500037,31.436501 z"
     style="fill:#404040;"/>
  </a>
 </g>
</svg>

<style type='text/css'>
<![CDATA[
[data-mouse-over-selected='false'] { opacity: 0.7; }
[data-mouse-over-selected='true']  { opacity: 1.0; }
]]>
</style>
<script type="application/ecmascript"><![CDATA[
document.addEventListener('DOMContentLoaded', (event) => {
  highlightEdges();
  highlightAdjacentNodes();
});
]]></script>
</svg>
