<?xml version="1.0" encoding="UTF-8" standalone="no"?>
<!DOCTYPE svg PUBLIC "-//W3C//DTD SVG 1.1//EN"
 "http://www.w3.org/Graphics/SVG/1.1/DTD/svg11.dtd">
<!-- Generated by graphviz version 8.0.5 (0)
 -->
<!-- Title: mfem::VectorConvectionNLFIntegrator Pages: 1 -->
<svg width="784pt" height="98pt"
 viewBox="0.00 0.00 783.95 98.00" xmlns="http://www.w3.org/2000/svg" xmlns:xlink="http://www.w3.org/1999/xlink">
<g id="graph0" class="graph" transform="scale(1 1) rotate(0) translate(4 94)">
<title>mfem::VectorConvectionNLFIntegrator</title>
<!-- Node1 -->
<g id="node1" class="node">
<title>Node1</title>
<g id="a_node1"><a xlink:title=" ">
<polygon fill="#999999" stroke="#666666" points="502.18,-56 247.29,-56 247.29,-34 502.18,-34 502.18,-56"/>
<text text-anchor="middle" x="374.73" y="-40.8" font-family="Helvetica,sans-Serif" font-size="14.00">mfem::VectorConvectionNLFIntegrator</text>
</a>
</g>
</g>
<!-- Node3 -->
<g id="node3" class="node">
<title>Node3</title>
<g id="a_node3"><a xlink:href="classmfem_1_1ConvectiveVectorConvectionNLFIntegrator.html" target="_top" xlink:title=" ">
<polygon fill="white" stroke="#666666" points="775.95,-90 538.18,-90 538.18,-54 775.95,-54 775.95,-90"/>
<text text-anchor="start" x="546.18" y="-74.8" font-family="Helvetica,sans-Serif" font-size="14.00">mfem::ConvectiveVectorConvection</text>
<text text-anchor="middle" x="657.06" y="-60.8" font-family="Helvetica,sans-Serif" font-size="14.00">NLFIntegrator</text>
</a>
</g>
</g>
<!-- Node1&#45;&gt;Node3 -->
<g id="edge2" class="edge">
<title>Node1&#45;&gt;Node3</title>
<path fill="none" stroke="#63b8ff" d="M505.69,-57.52C516.39,-58.55 527.17,-59.59 537.77,-60.61"/>
<polygon fill="#63b8ff" stroke="#63b8ff" points="506.31,-53.96 496.03,-56.49 505.64,-60.93 506.31,-53.96"/>
</g>
<!-- Node4 -->
<g id="node4" class="node">
<title>Node4</title>
<g id="a_node4"><a xlink:href="classmfem_1_1SkewSymmetricVectorConvectionNLFIntegrator.html" target="_top" xlink:title=" ">
<polygon fill="white" stroke="#666666" points="756.47,-36 557.65,-36 557.65,0 756.47,0 756.47,-36"/>
<text text-anchor="start" x="565.65" y="-20.8" font-family="Helvetica,sans-Serif" font-size="14.00">mfem::SkewSymmetricVector</text>
<text text-anchor="middle" x="657.06" y="-6.8" font-family="Helvetica,sans-Serif" font-size="14.00">ConvectionNLFIntegrator</text>
</a>
</g>
</g>
<!-- Node1&#45;&gt;Node4 -->
<g id="edge3" class="edge">
<title>Node1&#45;&gt;Node4</title>
<path fill="none" stroke="#63b8ff" d="M505.75,-32.48C523.04,-30.81 540.53,-29.13 557.17,-27.53"/>
<polygon fill="#63b8ff" stroke="#63b8ff" points="505.64,-29.07 496.03,-33.51 506.31,-36.04 505.64,-29.07"/>
</g>
<!-- Node2 -->
<g id="node2" class="node">
<title>Node2</title>
<g id="a_node2"><a xlink:href="classmfem_1_1NonlinearFormIntegrator.html" target="_top" xlink:title="This class is used to express the local action of a general nonlinear finite element operator....">
<polygon fill="white" stroke="#666666" points="211.29,-56 0,-56 0,-34 211.29,-34 211.29,-56"/>
<text text-anchor="middle" x="105.64" y="-40.8" font-family="Helvetica,sans-Serif" font-size="14.00">mfem::NonlinearFormIntegrator</text>
</a>
</g>
</g>
<!-- Node2&#45;&gt;Node1 -->
<g id="edge1" class="edge">
<title>Node2&#45;&gt;Node1</title>
<path fill="none" stroke="#63b8ff" d="M222.2,-45C230.44,-45 238.76,-45 247.06,-45"/>
<polygon fill="#63b8ff" stroke="#63b8ff" points="222.44,-41.5 212.44,-45 222.44,-48.5 222.44,-41.5"/>
</g>
</g>
</svg>
