<?xml version="1.0" encoding="UTF-8" standalone="no"?>
<!DOCTYPE svg PUBLIC "-//W3C//DTD SVG 1.1//EN"
 "http://www.w3.org/Graphics/SVG/1.1/DTD/svg11.dtd">
<!-- Generated by graphviz version 8.0.5 (0)
 -->
<!-- Title: mfem::LORSolver&lt; HypreAMS &gt; Pages: 1 -->
<svg width="621pt" height="418pt"
 viewBox="0.00 0.00 621.20 418.00" xmlns="http://www.w3.org/2000/svg" xmlns:xlink="http://www.w3.org/1999/xlink">
<g id="graph0" class="graph" transform="scale(1 1) rotate(0) translate(4 414)">
<title>mfem::LORSolver&lt; HypreAMS &gt;</title>
<!-- Node1 -->
<g id="node1" class="node">
<title>Node1</title>
<g id="a_node1"><a xlink:title=" ">
<polygon fill="#999999" stroke="#666666" points="505.53,-22 286.47,-22 286.47,0 505.53,0 505.53,-22"/>
<text text-anchor="middle" x="396" y="-6.8" font-family="Helvetica,sans-Serif" font-size="14.00">mfem::LORSolver&lt; HypreAMS &gt;</text>
</a>
</g>
</g>
<!-- Node2 -->
<g id="node2" class="node">
<title>Node2</title>
<g id="a_node2"><a xlink:href="classmfem_1_1Solver.html" target="_top" xlink:title="Base class for solvers.">
<polygon fill="white" stroke="#666666" points="514.23,-252 415.77,-252 415.77,-230 514.23,-230 514.23,-252"/>
<text text-anchor="middle" x="465" y="-236.8" font-family="Helvetica,sans-Serif" font-size="14.00">mfem::Solver</text>
</a>
</g>
</g>
<!-- Node2&#45;&gt;Node1 -->
<g id="edge1" class="edge">
<title>Node2&#45;&gt;Node1</title>
<path fill="none" stroke="#63b8ff" d="M450.53,-220.73C448.82,-217.9 447.25,-214.94 446,-212 415.5,-140.1 435.68,-113.76 410,-40 407.89,-33.94 404.75,-27.52 401.98,-22.36"/>
<polygon fill="#63b8ff" stroke="#63b8ff" points="448.06,-222.33 456.56,-228.67 453.87,-218.42 448.06,-222.33"/>
</g>
<!-- Node8 -->
<g id="node8" class="node">
<title>Node8</title>
<g id="a_node8"><a xlink:href="classmfem_1_1HypreSolver.html" target="_top" xlink:title="Abstract class for hypre&#39;s solvers and preconditioners.">
<polygon fill="white" stroke="#666666" points="387.9,-166 252.1,-166 252.1,-144 387.9,-144 387.9,-166"/>
<text text-anchor="middle" x="320" y="-150.8" font-family="Helvetica,sans-Serif" font-size="14.00">mfem::HypreSolver</text>
</a>
</g>
</g>
<!-- Node2&#45;&gt;Node8 -->
<g id="edge9" class="edge">
<title>Node2&#45;&gt;Node8</title>
<path fill="none" stroke="#63b8ff" d="M433.79,-224.7C425.96,-220.7 417.61,-216.29 410,-212 383.39,-196.99 353.45,-177.9 335.68,-166.33"/>
<polygon fill="#63b8ff" stroke="#63b8ff" points="431.85,-228.14 442.36,-229.52 435,-221.89 431.85,-228.14"/>
</g>
<!-- Node3 -->
<g id="node3" class="node">
<title>Node3</title>
<g id="a_node3"><a xlink:href="classmfem_1_1Operator.html" target="_top" xlink:title="Abstract operator.">
<polygon fill="white" stroke="#666666" points="522.01,-338 407.99,-338 407.99,-316 522.01,-316 522.01,-338"/>
<text text-anchor="middle" x="465" y="-322.8" font-family="Helvetica,sans-Serif" font-size="14.00">mfem::Operator</text>
</a>
</g>
</g>
<!-- Node3&#45;&gt;Node2 -->
<g id="edge2" class="edge">
<title>Node3&#45;&gt;Node2</title>
<path fill="none" stroke="#63b8ff" d="M465,-304.77C465,-288.03 465,-265.4 465,-252.38"/>
<polygon fill="#63b8ff" stroke="#63b8ff" points="461.5,-304.7 465,-314.7 468.5,-304.7 461.5,-304.7"/>
</g>
<!-- Node4 -->
<g id="node4" class="node">
<title>Node4</title>
<g id="a_node4"><a xlink:href="classmfem_1_1OperatorHandle.html" target="_top" xlink:title="Pointer to an Operator of a specified type.">
<polygon fill="white" stroke="#666666" points="613.2,-209 454.8,-209 454.8,-187 613.2,-187 613.2,-209"/>
<text text-anchor="middle" x="534" y="-193.8" font-family="Helvetica,sans-Serif" font-size="14.00">mfem::OperatorHandle</text>
</a>
</g>
</g>
<!-- Node3&#45;&gt;Node4 -->
<g id="edge4" class="edge">
<title>Node3&#45;&gt;Node4</title>
<path fill="none" stroke="#9a32cd" stroke-dasharray="5,2" d="M483.33,-307.68C496.36,-293.62 513.21,-273.09 523,-252 529.49,-238.02 532.18,-220.2 533.27,-209.2"/>
<polygon fill="#9a32cd" stroke="#9a32cd" points="481.19,-304.9 476.82,-314.55 486.26,-309.74 481.19,-304.9"/>
<text text-anchor="middle" x="527.96" y="-279.8" font-family="Helvetica,sans-Serif" font-size="14.00"> oper</text>
</g>
<!-- Node9 -->
<g id="node9" class="node">
<title>Node9</title>
<g id="a_node9"><a xlink:href="classmfem_1_1HypreParMatrix.html" target="_top" xlink:title="Wrapper for hypre&#39;s ParCSR matrix class.">
<polygon fill="white" stroke="#666666" points="398.01,-252 241.99,-252 241.99,-230 398.01,-230 398.01,-252"/>
<text text-anchor="middle" x="320" y="-236.8" font-family="Helvetica,sans-Serif" font-size="14.00">mfem::HypreParMatrix</text>
</a>
</g>
</g>
<!-- Node3&#45;&gt;Node9 -->
<g id="edge11" class="edge">
<title>Node3&#45;&gt;Node9</title>
<path fill="none" stroke="#63b8ff" d="M437.68,-310.18C408.42,-293.22 362.82,-266.81 337.84,-252.34"/>
<polygon fill="#63b8ff" stroke="#63b8ff" points="435.52,-313.55 445.93,-315.53 439.03,-307.49 435.52,-313.55"/>
</g>
<!-- Node4&#45;&gt;Node1 -->
<g id="edge3" class="edge">
<title>Node4&#45;&gt;Node1</title>
<path fill="none" stroke="#9a32cd" stroke-dasharray="5,2" d="M525.22,-176.93C510.61,-145.13 478.81,-82.44 438,-40 431.44,-33.18 422.94,-27.13 415.3,-22.41"/>
<polygon fill="#9a32cd" stroke="#9a32cd" points="522.37,-178.12 529.66,-185.8 528.76,-175.25 522.37,-178.12"/>
<text text-anchor="middle" x="505.23" y="-114.8" font-family="Helvetica,sans-Serif" font-size="14.00"> A</text>
</g>
<!-- Node5 -->
<g id="node5" class="node">
<title>Node5</title>
<g id="a_node5"><a xlink:href="classmfem_1_1Vector.html" target="_top" xlink:title="Vector data type.">
<polygon fill="white" stroke="#666666" points="156.24,-338 57.76,-338 57.76,-316 156.24,-316 156.24,-338"/>
<text text-anchor="middle" x="107" y="-322.8" font-family="Helvetica,sans-Serif" font-size="14.00">mfem::Vector</text>
</a>
</g>
</g>
<!-- Node5&#45;&gt;Node1 -->
<g id="edge5" class="edge">
<title>Node5&#45;&gt;Node1</title>
<path fill="none" stroke="#9a32cd" stroke-dasharray="5,2" d="M63.88,-311.54C34.16,-298.54 0,-276.16 0,-242 0,-242 0,-242 0,-82 0,-52.81 169.02,-31.88 286.22,-20.88"/>
<polygon fill="#9a32cd" stroke="#9a32cd" points="62.15,-315.02 72.73,-315.59 64.81,-308.55 62.15,-315.02"/>
<text text-anchor="middle" x="12.44" y="-150.8" font-family="Helvetica,sans-Serif" font-size="14.00"> xyz</text>
</g>
<!-- Node10 -->
<g id="node10" class="node">
<title>Node10</title>
<g id="a_node10"><a xlink:href="classmfem_1_1HypreParVector.html" target="_top" xlink:title="Wrapper for hypre&#39;s parallel vector class.">
<polygon fill="white" stroke="#666666" points="185.8,-252 28.2,-252 28.2,-230 185.8,-230 185.8,-252"/>
<text text-anchor="middle" x="107" y="-236.8" font-family="Helvetica,sans-Serif" font-size="14.00">mfem::HypreParVector</text>
</a>
</g>
</g>
<!-- Node5&#45;&gt;Node10 -->
<g id="edge13" class="edge">
<title>Node5&#45;&gt;Node10</title>
<path fill="none" stroke="#63b8ff" d="M107,-304.77C107,-288.03 107,-265.4 107,-252.38"/>
<polygon fill="#63b8ff" stroke="#63b8ff" points="103.5,-304.7 107,-314.7 110.5,-304.7 103.5,-304.7"/>
</g>
<!-- Node6 -->
<g id="node6" class="node">
<title>Node6</title>
<g id="a_node6"><a xlink:href="classmfem_1_1Memory.html" target="_top" xlink:title=" ">
<polygon fill="white" stroke="#666666" points="245.24,-410 76.76,-410 76.76,-388 245.24,-388 245.24,-410"/>
<text text-anchor="middle" x="161" y="-394.8" font-family="Helvetica,sans-Serif" font-size="14.00">mfem::Memory&lt; real_t &gt;</text>
</a>
</g>
</g>
<!-- Node6&#45;&gt;Node5 -->
<g id="edge6" class="edge">
<title>Node6&#45;&gt;Node5</title>
<path fill="none" stroke="#9a32cd" stroke-dasharray="5,2" d="M146.31,-378.96C136.23,-365.89 123.23,-349.04 115,-338.37"/>
<polygon fill="#9a32cd" stroke="#9a32cd" points="144.15,-380.89 153.03,-386.67 149.7,-376.62 144.15,-380.89"/>
<text text-anchor="middle" x="154.57" y="-358.8" font-family="Helvetica,sans-Serif" font-size="14.00"> data</text>
</g>
<!-- Node6&#45;&gt;Node8 -->
<g id="edge14" class="edge">
<title>Node6&#45;&gt;Node8</title>
<path fill="none" stroke="#9a32cd" stroke-dasharray="5,2" d="M170.42,-377.93C171.64,-375.27 172.86,-372.57 174,-370 201.33,-308.26 193.09,-284.46 233,-230 252.81,-202.97 284.38,-179.38 303.55,-166.47"/>
<polygon fill="#9a32cd" stroke="#9a32cd" points="166.94,-376.12 165.9,-386.67 173.29,-379.07 166.94,-376.12"/>
<text text-anchor="middle" x="226.9" y="-286.8" font-family="Helvetica,sans-Serif" font-size="14.00"> auxB</text>
<text text-anchor="middle" x="226.9" y="-272.8" font-family="Helvetica,sans-Serif" font-size="14.00">auxX</text>
</g>
<!-- Node7 -->
<g id="node7" class="node">
<title>Node7</title>
<g id="a_node7"><a xlink:href="classmfem_1_1HypreAMS.html" target="_top" xlink:title="The Auxiliary&#45;space Maxwell Solver in hypre.">
<polygon fill="white" stroke="#666666" points="392.23,-94 265.77,-94 265.77,-72 392.23,-72 392.23,-94"/>
<text text-anchor="middle" x="329" y="-78.8" font-family="Helvetica,sans-Serif" font-size="14.00">mfem::HypreAMS</text>
</a>
</g>
</g>
<!-- Node7&#45;&gt;Node1 -->
<g id="edge7" class="edge">
<title>Node7&#45;&gt;Node1</title>
<path fill="none" stroke="#9a32cd" stroke-dasharray="5,2" d="M346.29,-63.63C353.25,-56.26 361.37,-47.71 368.77,-40 374.4,-34.13 380.74,-27.61 385.88,-22.34"/>
<polygon fill="#9a32cd" stroke="#9a32cd" points="344.08,-60.93 339.77,-70.61 349.17,-65.73 344.08,-60.93"/>
<text text-anchor="middle" x="389.62" y="-42.8" font-family="Helvetica,sans-Serif" font-size="14.00"> solver</text>
</g>
<!-- Node8&#45;&gt;Node7 -->
<g id="edge8" class="edge">
<title>Node8&#45;&gt;Node7</title>
<path fill="none" stroke="#63b8ff" d="M322.7,-133.03C324.34,-120.27 326.36,-104.52 327.67,-94.37"/>
<polygon fill="#63b8ff" stroke="#63b8ff" points="319.13,-132.31 321.33,-142.67 326.07,-133.2 319.13,-132.31"/>
</g>
<!-- Node9&#45;&gt;Node8 -->
<g id="edge10" class="edge">
<title>Node9&#45;&gt;Node8</title>
<path fill="none" stroke="#9a32cd" stroke-dasharray="5,2" d="M320,-218.77C320,-202.03 320,-179.4 320,-166.38"/>
<polygon fill="#9a32cd" stroke="#9a32cd" points="316.5,-218.7 320,-228.7 323.5,-218.7 316.5,-218.7"/>
<text text-anchor="middle" x="326.23" y="-193.8" font-family="Helvetica,sans-Serif" font-size="14.00"> A</text>
</g>
<!-- Node10&#45;&gt;Node8 -->
<g id="edge12" class="edge">
<title>Node10&#45;&gt;Node8</title>
<path fill="none" stroke="#9a32cd" stroke-dasharray="5,2" d="M126.68,-222.74C142.04,-210.16 164.46,-193.69 186.77,-184 207.04,-175.2 230.28,-169.09 251.61,-164.88"/>
<polygon fill="#9a32cd" stroke="#9a32cd" points="124.91,-220.5 119.51,-229.61 129.41,-225.86 124.91,-220.5"/>
<text text-anchor="middle" x="193.61" y="-200.8" font-family="Helvetica,sans-Serif" font-size="14.00"> B</text>
<text text-anchor="middle" x="193.61" y="-186.8" font-family="Helvetica,sans-Serif" font-size="14.00">X</text>
</g>
</g>
</svg>
