<?xml version="1.0" encoding="UTF-8" standalone="no"?>
<!DOCTYPE svg PUBLIC "-//W3C//DTD SVG 1.1//EN"
 "http://www.w3.org/Graphics/SVG/1.1/DTD/svg11.dtd">
<!-- Generated by graphviz version 8.0.5 (0)
 -->
<!-- Title: mfem::L2Pos_QuadrilateralElement Pages: 1 -->
<svg width="406pt" height="290pt"
 viewBox="0.00 0.00 405.89 290.00" xmlns="http://www.w3.org/2000/svg" xmlns:xlink="http://www.w3.org/1999/xlink">
<g id="graph0" class="graph" transform="scale(1 1) rotate(0) translate(4 286)">
<title>mfem::L2Pos_QuadrilateralElement</title>
<!-- Node1 -->
<g id="node1" class="node">
<title>Node1</title>
<g id="a_node1"><a xlink:title="Arbitrary order L2 elements in 2D utilizing the Bernstein basis on a square.">
<polygon fill="#999999" stroke="#666666" points="293.9,-36 107.49,-36 107.49,0 293.9,0 293.9,-36"/>
<text text-anchor="start" x="115.49" y="-20.8" font-family="Helvetica,sans-Serif" font-size="14.00">mfem::L2Pos_Quadrilateral</text>
<text text-anchor="middle" x="200.7" y="-6.8" font-family="Helvetica,sans-Serif" font-size="14.00">Element</text>
</a>
</g>
</g>
<!-- Node2 -->
<g id="node2" class="node">
<title>Node2</title>
<g id="a_node2"><a xlink:href="classmfem_1_1PositiveTensorFiniteElement.html" target="_top" xlink:title=" ">
<polygon fill="white" stroke="#666666" points="292.72,-108 108.67,-108 108.67,-72 292.72,-72 292.72,-108"/>
<text text-anchor="start" x="116.67" y="-92.8" font-family="Helvetica,sans-Serif" font-size="14.00">mfem::PositiveTensorFinite</text>
<text text-anchor="middle" x="200.7" y="-78.8" font-family="Helvetica,sans-Serif" font-size="14.00">Element</text>
</a>
</g>
</g>
<!-- Node2&#45;&gt;Node1 -->
<g id="edge1" class="edge">
<title>Node2&#45;&gt;Node1</title>
<path fill="none" stroke="#63b8ff" d="M200.7,-60.81C200.7,-52.44 200.7,-43.54 200.7,-36.1"/>
<polygon fill="#63b8ff" stroke="#63b8ff" points="197.2,-60.7 200.7,-70.7 204.2,-60.7 197.2,-60.7"/>
</g>
<!-- Node3 -->
<g id="node3" class="node">
<title>Node3</title>
<g id="a_node3"><a xlink:href="classmfem_1_1PositiveFiniteElement.html" target="_top" xlink:title="Class for finite elements utilizing the always positive Bernstein basis.">
<polygon fill="white" stroke="#666666" points="193.39,-166 0,-166 0,-144 193.39,-144 193.39,-166"/>
<text text-anchor="middle" x="96.7" y="-150.8" font-family="Helvetica,sans-Serif" font-size="14.00">mfem::PositiveFiniteElement</text>
</a>
</g>
</g>
<!-- Node3&#45;&gt;Node2 -->
<g id="edge2" class="edge">
<title>Node3&#45;&gt;Node2</title>
<path fill="none" stroke="#63b8ff" d="M123.09,-138.01C138.05,-128.95 156.79,-117.6 172.1,-108.32"/>
<polygon fill="#63b8ff" stroke="#63b8ff" points="121.61,-135.42 114.87,-143.6 125.24,-141.41 121.61,-135.42"/>
</g>
<!-- Node4 -->
<g id="node4" class="node">
<title>Node4</title>
<g id="a_node4"><a xlink:href="classmfem_1_1ScalarFiniteElement.html" target="_top" xlink:title="Class for finite elements with basis functions that return scalar values.">
<polygon fill="white" stroke="#666666" points="188.72,-224 4.67,-224 4.67,-202 188.72,-202 188.72,-224"/>
<text text-anchor="middle" x="96.7" y="-208.8" font-family="Helvetica,sans-Serif" font-size="14.00">mfem::ScalarFiniteElement</text>
</a>
</g>
</g>
<!-- Node4&#45;&gt;Node3 -->
<g id="edge3" class="edge">
<title>Node4&#45;&gt;Node3</title>
<path fill="none" stroke="#63b8ff" d="M96.7,-190.75C96.7,-182.34 96.7,-173.06 96.7,-166.21"/>
<polygon fill="#63b8ff" stroke="#63b8ff" points="93.2,-190.73 96.7,-200.73 100.2,-190.73 93.2,-190.73"/>
</g>
<!-- Node5 -->
<g id="node5" class="node">
<title>Node5</title>
<g id="a_node5"><a xlink:href="classmfem_1_1FiniteElement.html" target="_top" xlink:title="Abstract class for all finite elements.">
<polygon fill="white" stroke="#666666" points="168.88,-282 24.51,-282 24.51,-260 168.88,-260 168.88,-282"/>
<text text-anchor="middle" x="96.7" y="-266.8" font-family="Helvetica,sans-Serif" font-size="14.00">mfem::FiniteElement</text>
</a>
</g>
</g>
<!-- Node5&#45;&gt;Node4 -->
<g id="edge4" class="edge">
<title>Node5&#45;&gt;Node4</title>
<path fill="none" stroke="#63b8ff" d="M96.7,-248.75C96.7,-240.34 96.7,-231.06 96.7,-224.21"/>
<polygon fill="#63b8ff" stroke="#63b8ff" points="93.2,-248.73 96.7,-258.73 100.2,-248.73 93.2,-248.73"/>
</g>
<!-- Node6 -->
<g id="node6" class="node">
<title>Node6</title>
<g id="a_node6"><a xlink:href="classmfem_1_1TensorBasisElement.html" target="_top" xlink:title=" ">
<polygon fill="white" stroke="#666666" points="397.89,-166 211.5,-166 211.5,-144 397.89,-144 397.89,-166"/>
<text text-anchor="middle" x="304.7" y="-150.8" font-family="Helvetica,sans-Serif" font-size="14.00">mfem::TensorBasisElement</text>
</a>
</g>
</g>
<!-- Node6&#45;&gt;Node2 -->
<g id="edge5" class="edge">
<title>Node6&#45;&gt;Node2</title>
<path fill="none" stroke="#63b8ff" d="M278.31,-138.01C263.34,-128.95 244.61,-117.6 229.29,-108.32"/>
<polygon fill="#63b8ff" stroke="#63b8ff" points="276.16,-141.41 286.52,-143.6 279.78,-135.42 276.16,-141.41"/>
</g>
</g>
</svg>
