<?xml version="1.0" encoding="UTF-8" standalone="no"?>
<!DOCTYPE svg PUBLIC "-//W3C//DTD SVG 1.1//EN"
 "http://www.w3.org/Graphics/SVG/1.1/DTD/svg11.dtd">
<!-- Generated by graphviz version 8.0.5 (0)
 -->
<!-- Title: mfem::ComplexDenseMatrix Pages: 1 -->
<svg width="281pt" height="303pt"
 viewBox="0.00 0.00 280.54 303.00" xmlns="http://www.w3.org/2000/svg" xmlns:xlink="http://www.w3.org/1999/xlink">
<g id="graph0" class="graph" transform="scale(1 1) rotate(0) translate(4 299)">
<title>mfem::ComplexDenseMatrix</title>
<!-- Node1 -->
<g id="node1" class="node">
<title>Node1</title>
<g id="a_node1"><a xlink:title="Specialization of the ComplexOperator built from a pair of Dense Matrices. The purpose of this specia...">
<polygon fill="#999999" stroke="#666666" points="192.6,-22 0,-22 0,0 192.6,0 192.6,-22"/>
<text text-anchor="middle" x="96.3" y="-6.8" font-family="Helvetica,sans-Serif" font-size="14.00">mfem::ComplexDenseMatrix</text>
</a>
</g>
</g>
<!-- Node2 -->
<g id="node2" class="node">
<title>Node2</title>
<g id="a_node2"><a xlink:href="classmfem_1_1ComplexOperator.html" target="_top" xlink:title="Mimic the action of a complex operator using two real operators.">
<polygon fill="white" stroke="#666666" points="180.93,-81 11.67,-81 11.67,-59 180.93,-59 180.93,-81"/>
<text text-anchor="middle" x="96.3" y="-65.8" font-family="Helvetica,sans-Serif" font-size="14.00">mfem::ComplexOperator</text>
</a>
</g>
</g>
<!-- Node2&#45;&gt;Node1 -->
<g id="edge1" class="edge">
<title>Node2&#45;&gt;Node1</title>
<path fill="none" stroke="#63b8ff" d="M96.3,-47.67C96.3,-39.03 96.3,-29.44 96.3,-22.39"/>
<polygon fill="#63b8ff" stroke="#63b8ff" points="92.8,-47.55 96.3,-57.55 99.8,-47.55 92.8,-47.55"/>
</g>
<!-- Node3 -->
<g id="node3" class="node">
<title>Node3</title>
<g id="a_node3"><a xlink:href="classmfem_1_1Operator.html" target="_top" xlink:title="Abstract operator.">
<polygon fill="white" stroke="#666666" points="120.31,-223 6.29,-223 6.29,-201 120.31,-201 120.31,-223"/>
<text text-anchor="middle" x="63.3" y="-207.8" font-family="Helvetica,sans-Serif" font-size="14.00">mfem::Operator</text>
</a>
</g>
</g>
<!-- Node3&#45;&gt;Node2 -->
<g id="edge2" class="edge">
<title>Node3&#45;&gt;Node2</title>
<path fill="none" stroke="#63b8ff" d="M63.03,-189.84C63.4,-166.78 65.94,-129.16 77.3,-99 79.7,-92.62 83.83,-86.28 87.62,-81.24"/>
<polygon fill="#63b8ff" stroke="#63b8ff" points="59.53,-189.73 63.01,-199.73 66.53,-189.74 59.53,-189.73"/>
</g>
<!-- Node3&#45;&gt;Node2 -->
<g id="edge3" class="edge">
<title>Node3&#45;&gt;Node2</title>
<path fill="none" stroke="#9a32cd" stroke-dasharray="5,2" d="M71.9,-190.34C72.77,-187.89 73.6,-185.4 74.3,-183 85.02,-146.29 92.08,-101.27 94.91,-81.34"/>
<polygon fill="#9a32cd" stroke="#9a32cd" points="68.3,-188.93 67.94,-199.52 74.82,-191.47 68.3,-188.93"/>
<text text-anchor="middle" x="125.93" y="-143.8" font-family="Helvetica,sans-Serif" font-size="14.00"> Op_Imag_</text>
<text text-anchor="middle" x="125.93" y="-129.8" font-family="Helvetica,sans-Serif" font-size="14.00">Op_Real_</text>
</g>
<!-- Node4 -->
<g id="node4" class="node">
<title>Node4</title>
<g id="a_node4"><a xlink:href="classmfem_1_1Vector.html" target="_top" xlink:title="Vector data type.">
<polygon fill="white" stroke="#666666" points="237.54,-223 139.06,-223 139.06,-201 237.54,-201 237.54,-223"/>
<text text-anchor="middle" x="188.3" y="-207.8" font-family="Helvetica,sans-Serif" font-size="14.00">mfem::Vector</text>
</a>
</g>
</g>
<!-- Node4&#45;&gt;Node2 -->
<g id="edge4" class="edge">
<title>Node4&#45;&gt;Node2</title>
<path fill="none" stroke="#9a32cd" stroke-dasharray="5,2" d="M189.33,-189.72C189.38,-165.12 185.78,-124.73 164.3,-99 157.75,-91.16 148.66,-85.48 139.25,-81.39"/>
<polygon fill="#9a32cd" stroke="#9a32cd" points="185.81,-189.6 189.06,-199.69 192.81,-189.78 185.81,-189.6"/>
<text text-anchor="middle" x="201.92" y="-171.8" font-family="Helvetica,sans-Serif" font-size="14.00"> u_</text>
<text text-anchor="middle" x="201.92" y="-157.8" font-family="Helvetica,sans-Serif" font-size="14.00">v_</text>
<text text-anchor="middle" x="201.92" y="-143.8" font-family="Helvetica,sans-Serif" font-size="14.00">x_i_</text>
<text text-anchor="middle" x="201.92" y="-129.8" font-family="Helvetica,sans-Serif" font-size="14.00">x_r_</text>
<text text-anchor="middle" x="201.92" y="-115.8" font-family="Helvetica,sans-Serif" font-size="14.00">y_i_</text>
<text text-anchor="middle" x="201.92" y="-101.8" font-family="Helvetica,sans-Serif" font-size="14.00">y_r_</text>
</g>
<!-- Node5 -->
<g id="node5" class="node">
<title>Node5</title>
<g id="a_node5"><a xlink:href="classmfem_1_1Memory.html" target="_top" xlink:title=" ">
<polygon fill="white" stroke="#666666" points="272.54,-295 104.06,-295 104.06,-273 272.54,-273 272.54,-295"/>
<text text-anchor="middle" x="188.3" y="-279.8" font-family="Helvetica,sans-Serif" font-size="14.00">mfem::Memory&lt; real_t &gt;</text>
</a>
</g>
</g>
<!-- Node5&#45;&gt;Node4 -->
<g id="edge5" class="edge">
<title>Node5&#45;&gt;Node4</title>
<path fill="none" stroke="#9a32cd" stroke-dasharray="5,2" d="M188.3,-262.03C188.3,-249.27 188.3,-233.52 188.3,-223.37"/>
<polygon fill="#9a32cd" stroke="#9a32cd" points="184.8,-261.67 188.3,-271.67 191.8,-261.67 184.8,-261.67"/>
<text text-anchor="middle" x="203.87" y="-243.8" font-family="Helvetica,sans-Serif" font-size="14.00"> data</text>
</g>
</g>
</svg>
