<?xml version="1.0" encoding="UTF-8" standalone="no"?>
<!DOCTYPE svg PUBLIC "-//W3C//DTD SVG 1.1//EN"
 "http://www.w3.org/Graphics/SVG/1.1/DTD/svg11.dtd">
<!-- Generated by graphviz version 12.0.0 (20240704.0754)
 -->
<!-- Title: mfem::SuperLUSolver Pages: 1 -->
<svg width="472pt" height="179pt"
 viewBox="0.00 0.00 471.88 179.00" xmlns="http://www.w3.org/2000/svg" xmlns:xlink="http://www.w3.org/1999/xlink">

<svg id="main" version="1.1" xmlns="http://www.w3.org/2000/svg" xmlns:xlink="http://www.w3.org/1999/xlink" xml:space="preserve" onload="init(evt)">
<style type="text/css"><![CDATA[
.node, .edge {opacity: 0.7;}
.node.selected, .edge.selected {opacity: 1;}
.edge:hover path { stroke: red; }
.edge:hover polygon { stroke: red; fill: red; }
]]></style>
<script type="application/ecmascript" xlink:href="svg.min.js"/>
<svg id="graph" class="graph">
<g id="graph0" class="graph" transform="scale(1 1) rotate(0) translate(4 175)">
<title>mfem::SuperLUSolver</title>
<!-- Node1 -->
<g id="Node000001" class="node">
<title>Node1</title>
<g id="a_Node000001"><a xlink:title=" ">
<polygon fill="#999999" stroke="#666666" points="289.62,-23 139.38,-23 139.38,0 289.62,0 289.62,-23"/>
<text text-anchor="middle" x="214.5" y="-5.7" font-family="Helvetica,sans-Serif" font-size="14.00">mfem::SuperLUSolver</text>
</a>
</g>
</g>
<!-- Node2 -->
<g id="Node000002" class="node">
<title>Node2</title>
<g id="a_Node000002"><a xlink:href="classmfem_1_1Solver.html" target="_top" xlink:title="Base class for solvers.">
<polygon fill="white" stroke="#666666" points="97,-97 0,-97 0,-74 97,-74 97,-97"/>
<text text-anchor="middle" x="48.5" y="-79.7" font-family="Helvetica,sans-Serif" font-size="14.00">mfem::Solver</text>
</a>
</g>
</g>
<!-- Node2&#45;&gt;Node1 -->
<g id="edge1_Node000001_Node000002" class="edge">
<title>Node2&#45;&gt;Node1</title>
<g id="a_edge1_Node000001_Node000002"><a xlink:title=" ">
<path fill="none" stroke="#63b8ff" d="M83.87,-69.16C115.55,-55.42 161.22,-35.61 189.32,-23.42"/>
<polygon fill="#63b8ff" stroke="#63b8ff" points="82.88,-65.77 75.1,-72.96 85.67,-72.19 82.88,-65.77"/>
</a>
</g>
</g>
<!-- Node3 -->
<g id="Node000003" class="node">
<title>Node3</title>
<g id="a_Node000003"><a xlink:href="classmfem_1_1Operator.html" target="_top" xlink:title="Abstract operator.">
<polygon fill="white" stroke="#666666" points="188.88,-171 76.12,-171 76.12,-148 188.88,-148 188.88,-171"/>
<text text-anchor="middle" x="132.5" y="-153.7" font-family="Helvetica,sans-Serif" font-size="14.00">mfem::Operator</text>
</a>
</g>
</g>
<!-- Node3&#45;&gt;Node2 -->
<g id="edge2_Node000002_Node000003" class="edge">
<title>Node3&#45;&gt;Node2</title>
<g id="a_edge2_Node000002_Node000003"><a xlink:title=" ">
<path fill="none" stroke="#63b8ff" d="M111.13,-140.18C95.32,-126.63 74.32,-108.63 61.1,-97.3"/>
<polygon fill="#63b8ff" stroke="#63b8ff" points="108.72,-142.73 118.59,-146.58 113.28,-137.41 108.72,-142.73"/>
</a>
</g>
</g>
<!-- Node4 -->
<g id="Node000004" class="node">
<title>Node4</title>
<g id="a_Node000004"><a xlink:href="classmfem_1_1SuperLURowLocMatrix.html" target="_top" xlink:title=" ">
<polygon fill="white" stroke="#666666" points="313.62,-97 115.38,-97 115.38,-74 313.62,-74 313.62,-97"/>
<text text-anchor="middle" x="214.5" y="-79.7" font-family="Helvetica,sans-Serif" font-size="14.00">mfem::SuperLURowLocMatrix</text>
</a>
</g>
</g>
<!-- Node3&#45;&gt;Node4 -->
<g id="edge4_Node000004_Node000003" class="edge">
<title>Node3&#45;&gt;Node4</title>
<g id="a_edge4_Node000004_Node000003"><a xlink:title=" ">
<path fill="none" stroke="#63b8ff" d="M153.36,-140.18C168.8,-126.63 189.3,-108.63 202.2,-97.3"/>
<polygon fill="#63b8ff" stroke="#63b8ff" points="151.3,-137.34 146.09,-146.57 155.92,-142.6 151.3,-137.34"/>
</a>
</g>
</g>
<!-- Node4&#45;&gt;Node1 -->
<g id="edge3_Node000001_Node000004" class="edge">
<title>Node4&#45;&gt;Node1</title>
<g id="a_edge3_Node000001_Node000004"><a xlink:title=" ">
<path fill="none" stroke="#9a32cd" stroke-dasharray="5,2" d="M214.5,-62.2C214.5,-49.17 214.5,-33.31 214.5,-23.07"/>
<polygon fill="#9a32cd" stroke="#9a32cd" points="211,-62.05 214.5,-72.05 218,-62.05 211,-62.05"/>
</a>
</g>
<text text-anchor="middle" x="233.25" y="-42.7" font-family="Helvetica,sans-Serif" font-size="14.00" fill="grey"> APtr_</text>
</g>
<!-- Node5 -->
<g id="Node000005" class="node">
<title>Node5</title>
<g id="a_Node000005"><a xlink:href="classmfem_1_1Vector.html" target="_top" xlink:title="Vector data type.">
<polygon fill="white" stroke="#666666" points="429.38,-97 331.62,-97 331.62,-74 429.38,-74 429.38,-97"/>
<text text-anchor="middle" x="380.5" y="-79.7" font-family="Helvetica,sans-Serif" font-size="14.00">mfem::Vector</text>
</a>
</g>
</g>
<!-- Node5&#45;&gt;Node1 -->
<g id="edge5_Node000001_Node000005" class="edge">
<title>Node5&#45;&gt;Node1</title>
<g id="a_edge5_Node000001_Node000005"><a xlink:title=" ">
<path fill="none" stroke="#9a32cd" stroke-dasharray="5,2" d="M345.13,-69.16C313.45,-55.42 267.78,-35.61 239.68,-23.42"/>
<polygon fill="#9a32cd" stroke="#9a32cd" points="343.33,-72.19 353.9,-72.96 346.12,-65.77 343.33,-72.19"/>
</a>
</g>
<text text-anchor="middle" x="326.75" y="-42.7" font-family="Helvetica,sans-Serif" font-size="14.00" fill="grey"> sol_</text>
</g>
<!-- Node6 -->
<g id="Node000006" class="node">
<title>Node6</title>
<g id="a_Node000006"><a xlink:href="classmfem_1_1Memory.html" target="_top" xlink:title=" ">
<polygon fill="white" stroke="#666666" points="463.88,-171 297.12,-171 297.12,-148 463.88,-148 463.88,-171"/>
<text text-anchor="middle" x="380.5" y="-153.7" font-family="Helvetica,sans-Serif" font-size="14.00">mfem::Memory&lt; real_t &gt;</text>
</a>
</g>
</g>
<!-- Node6&#45;&gt;Node5 -->
<g id="edge6_Node000005_Node000006" class="edge">
<title>Node6&#45;&gt;Node5</title>
<g id="a_edge6_Node000005_Node000006"><a xlink:title=" ">
<path fill="none" stroke="#9a32cd" stroke-dasharray="5,2" d="M380.5,-136.2C380.5,-123.17 380.5,-107.31 380.5,-97.07"/>
<polygon fill="#9a32cd" stroke="#9a32cd" points="377,-136.05 380.5,-146.05 384,-136.05 377,-136.05"/>
</a>
</g>
<text text-anchor="middle" x="395.5" y="-116.7" font-family="Helvetica,sans-Serif" font-size="14.00" fill="grey"> data</text>
</g>
</g>
</svg>
</svg>

<style type='text/css'>
<![CDATA[
[data-mouse-over-selected='false'] { opacity: 0.7; }
[data-mouse-over-selected='true']  { opacity: 1.0; }
]]>
</style>
<script type="application/ecmascript"><![CDATA[
document.addEventListener('DOMContentLoaded', (event) => {
  highlightEdges();
  highlightAdjacentNodes();
});
]]></script>
</svg>
