<?xml version="1.0" encoding="UTF-8" standalone="no"?>
<!DOCTYPE svg PUBLIC "-//W3C//DTD SVG 1.1//EN"
 "http://www.w3.org/Graphics/SVG/1.1/DTD/svg11.dtd">
<!-- Generated by graphviz version 12.0.0 (20240704.0754)
 -->
<!-- Title: mfem::PetscPCGSolver Pages: 1 -->
<!--zoomable 388 -->

<svg id="main" version="1.1" xmlns="http://www.w3.org/2000/svg" xmlns:xlink="http://www.w3.org/1999/xlink" xml:space="preserve" onload="init(evt)">
<style type="text/css"><![CDATA[
.node, .edge {opacity: 0.7;}
.node.selected, .edge.selected {opacity: 1;}
.edge:hover path { stroke: red; }
.edge:hover polygon { stroke: red; fill: red; }
]]></style>

<defs>
  <circle id="rim" cx="0" cy="0" r="7"/>
  <circle id="rim2" cx="0" cy="0" r="3.5"/>
  <g id="zoomPlus">
    <use xlink:href="#rim" fill="#404040"><set attributeName="fill" to="#808080" begin="zoomplus.mouseover" end="zoomplus.mouseout"/></use>
    <path d="M-4,0h8M0,-4v8" fill="none" stroke="white" stroke-width="1.5" pointer-events="none"/>
  </g>
  <g id="zoomMin">
    <use xlink:href="#rim" fill="#404040"><set attributeName="fill" to="#808080" begin="zoomminus.mouseover" end="zoomminus.mouseout"/></use>
    <path d="M-4,0h8" fill="none" stroke="white" stroke-width="1.5" pointer-events="none"/>
  </g>
  <g id="arrowUp" transform="translate(30 24)">
    <use xlink:href="#rim"/>
    <path pointer-events="none" fill="none" stroke="white" stroke-width="1.5" d="M0,-3.0v7 M-2.5,-0.5L0,-3.0L2.5,-0.5"/>
  </g>
  <g id="arrowRight" transform="rotate(90) translate(36 -43)">
    <use xlink:href="#rim"/>
    <path pointer-events="none" fill="none" stroke="white" stroke-width="1.5" d="M0,-3.0v7 M-2.5,-0.5L0,-3.0L2.5,-0.5"/>
  </g>
  <g id="arrowDown" transform="rotate(180) translate(-30 -48)">
    <use xlink:href="#rim"/>
    <path pointer-events="none" fill="none" stroke="white" stroke-width="1.5" d="M0,-3.0v7 M-2.5,-0.5L0,-3.0L2.5,-0.5"/>
  </g>
  <g id="arrowLeft" transform="rotate(270) translate(-36 17)">
    <use xlink:href="#rim"/>
    <path pointer-events="none" fill="none" stroke="white" stroke-width="1.5" d="M0,-3.0v7 M-2.5,-0.5L0,-3.0L2.5,-0.5"/>
  </g>
  <g id="resetDef">
    <use xlink:href="#rim2" fill="#404040"><set attributeName="fill" to="#808080" begin="reset.mouseover" end="reset.mouseout"/></use>
  </g>
</defs>
<script type="application/ecmascript">
var viewWidth = 509;
var viewHeight = 388;
var sectionId = 'dynsection-1';
</script>
<script type="application/ecmascript" xlink:href="svg.min.js"/>
<svg id="graph" class="graph">
<g id="viewport">
<title>mfem::PetscPCGSolver</title>
<!-- Node1 -->
<g id="Node000001" class="node">
<title>Node1</title>
<g id="a_Node000001"><a xlink:title=" ">
<polygon fill="#999999" stroke="#666666" points="447.25,-23 286.5,-23 286.5,0 447.25,0 447.25,-23"/>
<text text-anchor="middle" x="366.88" y="-5.7" font-family="Helvetica,sans-Serif" font-size="14.00">mfem::PetscPCGSolver</text>
</a>
</g>
</g>
<!-- Node2 -->
<g id="Node000002" class="node">
<title>Node2</title>
<g id="a_Node000002"><a xlink:href="classmfem_1_1PetscLinearSolver.html" target="_top" xlink:title="Abstract class for PETSc&#39;s linear solvers.">
<polygon fill="white" stroke="#666666" points="451,-83 282.75,-83 282.75,-60 451,-60 451,-83"/>
<text text-anchor="middle" x="366.88" y="-65.7" font-family="Helvetica,sans-Serif" font-size="14.00">mfem::PetscLinearSolver</text>
</a>
</g>
</g>
<!-- Node2&#45;&gt;Node1 -->
<g id="edge1_Node000001_Node000002" class="edge">
<title>Node2&#45;&gt;Node1</title>
<g id="a_edge1_Node000001_Node000002"><a xlink:title=" ">
<path fill="none" stroke="#63b8ff" d="M366.88,-48.09C366.88,-39.6 366.88,-30.32 366.88,-23.36"/>
<polygon fill="#63b8ff" stroke="#63b8ff" points="363.38,-48.08 366.88,-58.08 370.38,-48.08 363.38,-48.08"/>
</a>
</g>
</g>
<!-- Node3 -->
<g id="Node000003" class="node">
<title>Node3</title>
<g id="a_Node000003"><a xlink:href="classmfem_1_1PetscSolver.html" target="_top" xlink:title="Abstract class for PETSc&#39;s solvers.">
<polygon fill="white" stroke="#666666" points="356.25,-143 225.5,-143 225.5,-120 356.25,-120 356.25,-143"/>
<text text-anchor="middle" x="290.88" y="-125.7" font-family="Helvetica,sans-Serif" font-size="14.00">mfem::PetscSolver</text>
</a>
</g>
</g>
<!-- Node3&#45;&gt;Node2 -->
<g id="edge2_Node000002_Node000003" class="edge">
<title>Node3&#45;&gt;Node2</title>
<g id="a_edge2_Node000002_Node000003"><a xlink:title=" ">
<path fill="none" stroke="#63b8ff" d="M314.17,-112.72C326.73,-103.13 341.83,-91.61 352.64,-83.36"/>
<polygon fill="#63b8ff" stroke="#63b8ff" points="312.2,-109.82 306.37,-118.67 316.45,-115.39 312.2,-109.82"/>
</a>
</g>
</g>
<!-- Node4 -->
<g id="Node000004" class="node">
<title>Node4</title>
<g id="a_Node000004"><a xlink:href="classmfem_1_1PetscParVector.html" target="_top" xlink:title=" ">
<polygon fill="white" stroke="#666666" points="193.12,-232 40.62,-232 40.62,-209 193.12,-209 193.12,-232"/>
<text text-anchor="middle" x="116.88" y="-214.7" font-family="Helvetica,sans-Serif" font-size="14.00">mfem::PetscParVector</text>
</a>
</g>
</g>
<!-- Node4&#45;&gt;Node3 -->
<g id="edge3_Node000003_Node000004" class="edge">
<title>Node4&#45;&gt;Node3</title>
<g id="a_edge3_Node000003_Node000004"><a xlink:title=" ">
<path fill="none" stroke="#9a32cd" stroke-dasharray="5,2" d="M148.68,-203.6C183.55,-186.16 238.55,-158.66 268.92,-143.48"/>
<polygon fill="#9a32cd" stroke="#9a32cd" points="147.29,-200.38 139.91,-207.98 150.42,-206.64 147.29,-200.38"/>
</a>
</g>
<text text-anchor="middle" x="236.25" y="-177.7" font-family="Helvetica,sans-Serif" font-size="14.00" fill="grey"> B</text>
<text text-anchor="middle" x="236.25" y="-162.7" font-family="Helvetica,sans-Serif" font-size="14.00" fill="grey">X</text>
</g>
<!-- Node5 -->
<g id="Node000005" class="node">
<title>Node5</title>
<g id="a_Node000005"><a xlink:href="classmfem_1_1Vector.html" target="_top" xlink:title="Vector data type.">
<polygon fill="white" stroke="#666666" points="97.75,-306 0,-306 0,-283 97.75,-283 97.75,-306"/>
<text text-anchor="middle" x="48.88" y="-288.7" font-family="Helvetica,sans-Serif" font-size="14.00">mfem::Vector</text>
</a>
</g>
</g>
<!-- Node5&#45;&gt;Node4 -->
<g id="edge4_Node000004_Node000005" class="edge">
<title>Node5&#45;&gt;Node4</title>
<g id="a_edge4_Node000004_Node000005"><a xlink:title=" ">
<path fill="none" stroke="#63b8ff" d="M66.94,-274.37C79.74,-260.82 96.42,-243.16 106.89,-232.07"/>
<polygon fill="#63b8ff" stroke="#63b8ff" points="64.56,-271.79 60.24,-281.46 69.65,-276.6 64.56,-271.79"/>
</a>
</g>
</g>
<!-- Node6 -->
<g id="Node000006" class="node">
<title>Node6</title>
<g id="a_Node000006"><a xlink:href="classmfem_1_1Memory.html" target="_top" xlink:title=" ">
<polygon fill="white" stroke="#666666" points="200.25,-380 33.5,-380 33.5,-357 200.25,-357 200.25,-380"/>
<text text-anchor="middle" x="116.88" y="-362.7" font-family="Helvetica,sans-Serif" font-size="14.00">mfem::Memory&lt; real_t &gt;</text>
</a>
</g>
</g>
<!-- Node6&#45;&gt;Node5 -->
<g id="edge5_Node000005_Node000006" class="edge">
<title>Node6&#45;&gt;Node5</title>
<g id="a_edge5_Node000005_Node000006"><a xlink:title=" ">
<path fill="none" stroke="#9a32cd" stroke-dasharray="5,2" d="M98.81,-348.37C86.01,-334.82 69.33,-317.16 58.86,-306.07"/>
<polygon fill="#9a32cd" stroke="#9a32cd" points="96.1,-350.6 105.51,-355.46 101.19,-345.79 96.1,-350.6"/>
</a>
</g>
<text text-anchor="middle" x="104.88" y="-325.7" font-family="Helvetica,sans-Serif" font-size="14.00" fill="grey"> data</text>
</g>
<!-- Node7 -->
<g id="Node000007" class="node">
<title>Node7</title>
<g id="a_Node000007"><a xlink:href="classmfem_1_1PetscMemory.html" target="_top" xlink:title="Wrapper for syncing PETSc&#39;s vector memory.">
<polygon fill="white" stroke="#666666" points="258.25,-306 115.5,-306 115.5,-283 258.25,-283 258.25,-306"/>
<text text-anchor="middle" x="186.88" y="-288.7" font-family="Helvetica,sans-Serif" font-size="14.00">mfem::PetscMemory</text>
</a>
</g>
</g>
<!-- Node6&#45;&gt;Node7 -->
<g id="edge7_Node000007_Node000006" class="edge">
<title>Node6&#45;&gt;Node7</title>
<g id="a_edge7_Node000007_Node000006"><a xlink:title=" ">
<path fill="none" stroke="#63b8ff" d="M135.48,-348.37C148.65,-334.82 165.82,-317.16 176.6,-306.07"/>
<polygon fill="#63b8ff" stroke="#63b8ff" points="133.02,-345.87 128.56,-355.48 138.04,-350.75 133.02,-345.87"/>
</a>
</g>
</g>
<!-- Node7&#45;&gt;Node4 -->
<g id="edge6_Node000004_Node000007" class="edge">
<title>Node7&#45;&gt;Node4</title>
<g id="a_edge6_Node000004_Node000007"><a xlink:title=" ">
<path fill="none" stroke="#9a32cd" stroke-dasharray="5,2" d="M168.27,-274.37C155.1,-260.82 137.93,-243.16 127.15,-232.07"/>
<polygon fill="#9a32cd" stroke="#9a32cd" points="165.71,-276.75 175.19,-281.48 170.73,-271.87 165.71,-276.75"/>
</a>
</g>
<text text-anchor="middle" x="177.62" y="-251.7" font-family="Helvetica,sans-Serif" font-size="14.00" fill="grey"> pdata</text>
</g>
<!-- Node8 -->
<g id="Node000008" class="node">
<title>Node8</title>
<g id="a_Node000008"><a xlink:href="classmfem_1_1PetscBCHandler.html" target="_top" xlink:title="Helper class for handling essential boundary conditions.">
<polygon fill="white" stroke="#666666" points="370.12,-232 211.62,-232 211.62,-209 370.12,-209 370.12,-232"/>
<text text-anchor="middle" x="290.88" y="-214.7" font-family="Helvetica,sans-Serif" font-size="14.00">mfem::PetscBCHandler</text>
</a>
</g>
</g>
<!-- Node8&#45;&gt;Node3 -->
<g id="edge8_Node000003_Node000008" class="edge">
<title>Node8&#45;&gt;Node3</title>
<g id="a_edge8_Node000003_Node000008"><a xlink:title=" ">
<path fill="none" stroke="#9a32cd" stroke-dasharray="5,2" d="M290.88,-197.51C290.88,-180.17 290.88,-156.73 290.88,-143.26"/>
<polygon fill="#9a32cd" stroke="#9a32cd" points="287.38,-197.32 290.88,-207.32 294.38,-197.32 287.38,-197.32"/>
</a>
</g>
<text text-anchor="middle" x="322.38" y="-170.2" font-family="Helvetica,sans-Serif" font-size="14.00" fill="grey"> bchandler</text>
</g>
<!-- Node9 -->
<g id="Node000009" class="node">
<title>Node9</title>
<g id="a_Node000009"><a xlink:href="classmfem_1_1Solver.html" target="_top" xlink:title="Base class for solvers.">
<polygon fill="white" stroke="#666666" points="482.38,-143 385.38,-143 385.38,-120 482.38,-120 482.38,-143"/>
<text text-anchor="middle" x="433.88" y="-125.7" font-family="Helvetica,sans-Serif" font-size="14.00">mfem::Solver</text>
</a>
</g>
</g>
<!-- Node9&#45;&gt;Node2 -->
<g id="edge9_Node000002_Node000009" class="edge">
<title>Node9&#45;&gt;Node2</title>
<g id="a_edge9_Node000002_Node000009"><a xlink:title=" ">
<path fill="none" stroke="#63b8ff" d="M412.68,-112.16C401.74,-102.68 388.76,-91.45 379.42,-83.36"/>
<polygon fill="#63b8ff" stroke="#63b8ff" points="410.28,-114.7 420.13,-118.6 414.86,-109.41 410.28,-114.7"/>
</a>
</g>
</g>
<!-- Node10 -->
<g id="Node000010" class="node">
<title>Node10</title>
<g id="a_Node000010"><a xlink:href="classmfem_1_1Operator.html" target="_top" xlink:title="Abstract operator.">
<polygon fill="white" stroke="#666666" points="501.25,-232 388.5,-232 388.5,-209 501.25,-209 501.25,-232"/>
<text text-anchor="middle" x="444.88" y="-214.7" font-family="Helvetica,sans-Serif" font-size="14.00">mfem::Operator</text>
</a>
</g>
</g>
<!-- Node10&#45;&gt;Node9 -->
<g id="edge10_Node000009_Node000010" class="edge">
<title>Node10&#45;&gt;Node9</title>
<g id="a_edge10_Node000009_Node000010"><a xlink:title=" ">
<path fill="none" stroke="#63b8ff" d="M442.09,-197.51C439.9,-180.17 436.94,-156.73 435.23,-143.26"/>
<polygon fill="#63b8ff" stroke="#63b8ff" points="438.61,-197.85 443.34,-207.33 445.55,-196.97 438.61,-197.85"/>
</a>
</g>
</g>
</g>
</svg>

<g id="navigator" transform="translate(0 0)" fill="#404254">
  <rect fill="#f2f5e9" fill-opacity="0.5" stroke="#606060" stroke-width=".5" x="0" y="0" width="60" height="60"/>
  <use id="zoomplus" xlink:href="#zoomPlus" x="17" y="9" onmousedown="handleZoom(evt,'in')"/>
  <use id="zoomminus" xlink:href="#zoomMin" x="42" y="9" onmousedown="handleZoom(evt,'out')"/>
  <use id="reset" xlink:href="#resetDef" x="30" y="36" onmousedown="handleReset()"/>
   <use id="arrowup" xlink:href="#arrowUp" x="0" y="0" onmousedown="handlePan(0,-1)"/>
  <use id="arrowright" xlink:href="#arrowRight" x="0" y="0" onmousedown="handlePan(1,0)"/>
  <use id="arrowdown" xlink:href="#arrowDown" x="0" y="0" onmousedown="handlePan(0,1)"/>
  <use id="arrowleft" xlink:href="#arrowLeft" x="0" y="0" onmousedown="handlePan(-1,0)"/>
</g>
<svg viewBox="0 0 15 15" width="100%" height="30px" preserveAspectRatio="xMaxYMin meet">
 <g id="arrow_out" transform="scale(0.3 0.3)">
  <a xlink:href="classmfem_1_1PetscPCGSolver__coll__graph_org.svg" target="_base">
   <rect id="button" ry="5" rx="5" y="6" x="6" height="38" width="38"
        fill="#f2f5e9" fill-opacity="0.5" stroke="#606060" stroke-width="1.0"/>
   <path id="arrow"
     d="M 11.500037,31.436501 C 11.940474,20.09759 22.043105,11.32322 32.158766,21.979434 L 37.068811,17.246167 C 37.068811,17.246167 37.088388,32 37.088388,32 L 22.160133,31.978069 C 22.160133,31.978069 26.997745,27.140456 26.997745,27.140456 C 18.528582,18.264221 13.291696,25.230495 11.500037,31.436501 z"
     style="fill:#404040;"/>
  </a>
 </g>
</svg>

<style type='text/css'>
<![CDATA[
[data-mouse-over-selected='false'] { opacity: 0.7; }
[data-mouse-over-selected='true']  { opacity: 1.0; }
]]>
</style>
<script type="application/ecmascript"><![CDATA[
document.addEventListener('DOMContentLoaded', (event) => {
  highlightEdges();
  highlightAdjacentNodes();
});
]]></script>
</svg>
