<?xml version="1.0" encoding="UTF-8" standalone="no"?>
<!DOCTYPE svg PUBLIC "-//W3C//DTD SVG 1.1//EN"
 "http://www.w3.org/Graphics/SVG/1.1/DTD/svg11.dtd">
<!-- Generated by graphviz version 12.0.0 (20240704.0754)
 -->
<!-- Title: mfem::PetscSolverMonitor Pages: 1 -->
<svg width="185pt" height="90pt"
 viewBox="0.00 0.00 184.50 90.00" xmlns="http://www.w3.org/2000/svg" xmlns:xlink="http://www.w3.org/1999/xlink">
<g id="graph0" class="graph" transform="scale(1 1) rotate(0) translate(4 86)">
<title>mfem::PetscSolverMonitor</title>
<!-- Node1 -->
<g id="Node000001" class="node">
<title>Node1</title>
<g id="a_Node000001"><a xlink:title="Abstract class for monitoring PETSc&#39;s solvers.">
<polygon fill="#999999" stroke="#666666" points="176.5,-82 0,-82 0,-59 176.5,-59 176.5,-82"/>
<text text-anchor="middle" x="88.25" y="-64.7" font-family="Helvetica,sans-Serif" font-size="14.00">mfem::PetscSolverMonitor</text>
</a>
</g>
</g>
<!-- Node2 -->
<g id="Node000002" class="node">
<title>Node2</title>
<g id="a_Node000002"><a xlink:title=" ">
<polygon fill="white" stroke="#666666" points="133.38,-23 43.12,-23 43.12,0 133.38,0 133.38,-23"/>
<text text-anchor="middle" x="88.25" y="-5.7" font-family="Helvetica,sans-Serif" font-size="14.00">UserMonitor</text>
</a>
</g>
</g>
<!-- Node1&#45;&gt;Node2 -->
<g id="edge1_Node000001_Node000002" class="edge">
<title>Node1&#45;&gt;Node2</title>
<g id="a_edge1_Node000001_Node000002"><a xlink:title=" ">
<path fill="none" stroke="#63b8ff" d="M81.64,-47.08C81.26,-38.96 81.65,-30.15 82.8,-23.46"/>
<polygon fill="#63b8ff" stroke="#63b8ff" points="78.15,-47.41 82.64,-57 85.12,-46.7 78.15,-47.41"/>
</a>
</g>
</g>
<!-- Node1&#45;&gt;Node2 -->
<g id="edge2_Node000001_Node000002" class="edge">
<title>Node1&#45;&gt;Node2</title>
<g id="a_edge2_Node000001_Node000002"><a xlink:title=" ">
<path fill="none" stroke="#63b8ff" d="M94.86,-47.08C95.24,-38.96 94.85,-30.15 93.7,-23.46"/>
<polygon fill="#63b8ff" stroke="#63b8ff" points="91.38,-46.7 93.86,-57 98.35,-47.41 91.38,-46.7"/>
</a>
</g>
</g>
</g>
</svg>
