<?xml version="1.0" encoding="UTF-8" standalone="no"?>
<!DOCTYPE svg PUBLIC "-//W3C//DTD SVG 1.1//EN"
 "http://www.w3.org/Graphics/SVG/1.1/DTD/svg11.dtd">
<!-- Generated by graphviz version 12.0.0 (20240704.0754)
 -->
<!-- Title: mfem::socketstream Pages: 1 -->
<svg width="487pt" height="283pt"
 viewBox="0.00 0.00 486.50 283.00" xmlns="http://www.w3.org/2000/svg" xmlns:xlink="http://www.w3.org/1999/xlink">

<svg id="main" version="1.1" xmlns="http://www.w3.org/2000/svg" xmlns:xlink="http://www.w3.org/1999/xlink" xml:space="preserve" onload="init(evt)">
<style type="text/css"><![CDATA[
.node, .edge {opacity: 0.7;}
.node.selected, .edge.selected {opacity: 1;}
.edge:hover path { stroke: red; }
.edge:hover polygon { stroke: red; fill: red; }
]]></style>
<script type="application/ecmascript" xlink:href="svg.min.js"/>
<svg id="graph" class="graph">
<g id="graph0" class="graph" transform="scale(1 1) rotate(0) translate(4 279)">
<title>mfem::socketstream</title>
<!-- Node1 -->
<g id="Node000001" class="node">
<title>Node1</title>
<g id="a_Node000001"><a xlink:title=" ">
<polygon fill="#999999" stroke="#666666" points="306.88,-23 167.12,-23 167.12,0 306.88,0 306.88,-23"/>
<text text-anchor="middle" x="237" y="-5.7" font-family="Helvetica,sans-Serif" font-size="14.00">mfem::socketstream</text>
</a>
</g>
</g>
<!-- Node2 -->
<g id="Node000002" class="node">
<title>Node2</title>
<g id="a_Node000002"><a xlink:title=" ">
<polygon fill="white" stroke="#666666" points="94,-104.5 0,-104.5 0,-81.5 94,-81.5 94,-104.5"/>
<text text-anchor="middle" x="47" y="-87.2" font-family="Helvetica,sans-Serif" font-size="14.00">std::iostream</text>
</a>
</g>
</g>
<!-- Node2&#45;&gt;Node1 -->
<g id="edge1_Node000001_Node000002" class="edge">
<title>Node2&#45;&gt;Node1</title>
<g id="a_edge1_Node000001_Node000002"><a xlink:title=" ">
<path fill="none" stroke="#63b8ff" d="M83.46,-76.74C120.82,-61.11 177.97,-37.2 210.99,-23.38"/>
<polygon fill="#63b8ff" stroke="#63b8ff" points="82.29,-73.44 74.42,-80.53 84.99,-79.9 82.29,-73.44"/>
</a>
</g>
</g>
<!-- Node3 -->
<g id="Node000003" class="node">
<title>Node3</title>
<g id="a_Node000003"><a xlink:href="classmfem_1_1socketbuf.html" target="_top" xlink:title=" ">
<polygon fill="white" stroke="#666666" points="228.25,-104.5 111.75,-104.5 111.75,-81.5 228.25,-81.5 228.25,-104.5"/>
<text text-anchor="middle" x="170" y="-87.2" font-family="Helvetica,sans-Serif" font-size="14.00">mfem::socketbuf</text>
</a>
</g>
</g>
<!-- Node3&#45;&gt;Node1 -->
<g id="edge2_Node000001_Node000003" class="edge">
<title>Node3&#45;&gt;Node1</title>
<g id="a_edge2_Node000001_Node000003"><a xlink:title=" ">
<path fill="none" stroke="#9a32cd" stroke-dasharray="5,2" d="M186.28,-72.32C194.16,-62.83 203.79,-51.29 212.5,-41 217.47,-35.12 223.07,-28.61 227.65,-23.29"/>
<polygon fill="#9a32cd" stroke="#9a32cd" points="183.73,-69.92 180.04,-79.85 189.11,-74.39 183.73,-69.92"/>
</a>
</g>
<text text-anchor="middle" x="230.75" y="-42.7" font-family="Helvetica,sans-Serif" font-size="14.00" fill="grey"> buf__</text>
</g>
<!-- Node4 -->
<g id="Node000004" class="node">
<title>Node4</title>
<g id="a_Node000004"><a xlink:title=" ">
<polygon fill="white" stroke="#666666" points="205.12,-193.5 102.88,-193.5 102.88,-170.5 205.12,-170.5 205.12,-193.5"/>
<text text-anchor="middle" x="154" y="-176.2" font-family="Helvetica,sans-Serif" font-size="14.00">std::streambuf</text>
</a>
</g>
</g>
<!-- Node4&#45;&gt;Node3 -->
<g id="edge3_Node000003_Node000004" class="edge">
<title>Node4&#45;&gt;Node3</title>
<g id="a_edge3_Node000003_Node000004"><a xlink:title=" ">
<path fill="none" stroke="#63b8ff" d="M158.04,-159.01C161.23,-141.67 165.54,-118.23 168.02,-104.76"/>
<polygon fill="#63b8ff" stroke="#63b8ff" points="154.6,-158.38 156.24,-168.84 161.49,-159.64 154.6,-158.38"/>
</a>
</g>
</g>
<!-- Node5 -->
<g id="Node000005" class="node">
<title>Node5</title>
<g id="a_Node000005"><a xlink:href="classmfem_1_1GnuTLS__global__state.html" target="_top" xlink:title=" ">
<polygon fill="white" stroke="#666666" points="376.62,-201 223.38,-201 223.38,-163 376.62,-163 376.62,-201"/>
<text text-anchor="start" x="231.38" y="-183.7" font-family="Helvetica,sans-Serif" font-size="14.00">mfem::GnuTLS_global</text>
<text text-anchor="middle" x="300" y="-168.7" font-family="Helvetica,sans-Serif" font-size="14.00">_state</text>
</a>
</g>
</g>
<!-- Node5&#45;&gt;Node1 -->
<g id="edge4_Node000001_Node000005" class="edge">
<title>Node5&#45;&gt;Node1</title>
<g id="a_edge4_Node000001_Node000005"><a xlink:title=" ">
<path fill="none" stroke="#9a32cd" stroke-dasharray="5,2" d="M288.83,-152.04C284.15,-139.73 278.72,-125.2 274,-112 262.79,-80.63 262.26,-71.97 250,-41 247.68,-35.13 244.79,-28.73 242.33,-23.49"/>
<polygon fill="#9a32cd" stroke="#9a32cd" points="285.5,-153.11 292.33,-161.2 292.03,-150.61 285.5,-153.11"/>
</a>
</g>
<text text-anchor="middle" x="290.5" y="-87.2" font-family="Helvetica,sans-Serif" font-size="14.00" fill="grey"> state</text>
</g>
<!-- Node7 -->
<g id="Node000007" class="node">
<title>Node7</title>
<g id="a_Node000007"><a xlink:href="classmfem_1_1GnuTLS__session__params.html" target="_top" xlink:title=" ">
<polygon fill="white" stroke="#666666" points="478.5,-112 315.5,-112 315.5,-74 478.5,-74 478.5,-112"/>
<text text-anchor="start" x="323.5" y="-94.7" font-family="Helvetica,sans-Serif" font-size="14.00">mfem::GnuTLS_session</text>
<text text-anchor="middle" x="397" y="-79.7" font-family="Helvetica,sans-Serif" font-size="14.00">_params</text>
</a>
</g>
</g>
<!-- Node5&#45;&gt;Node7 -->
<g id="edge7_Node000007_Node000005" class="edge">
<title>Node5&#45;&gt;Node7</title>
<g id="a_edge7_Node000007_Node000005"><a xlink:title=" ">
<path fill="none" stroke="#9a32cd" stroke-dasharray="5,2" d="M329.14,-154.86C344.39,-141.18 362.7,-124.76 376.46,-112.42"/>
<polygon fill="#9a32cd" stroke="#9a32cd" points="326.81,-152.26 321.7,-161.54 331.48,-157.47 326.81,-152.26"/>
</a>
</g>
<text text-anchor="middle" x="370.5" y="-131.7" font-family="Helvetica,sans-Serif" font-size="14.00" fill="grey"> state</text>
</g>
<!-- Node6 -->
<g id="Node000006" class="node">
<title>Node6</title>
<g id="a_Node000006"><a xlink:href="classmfem_1_1GnuTLS__status.html" target="_top" xlink:title=" ">
<polygon fill="white" stroke="#666666" points="432.62,-275 279.38,-275 279.38,-252 432.62,-252 432.62,-275"/>
<text text-anchor="middle" x="356" y="-257.7" font-family="Helvetica,sans-Serif" font-size="14.00">mfem::GnuTLS_status</text>
</a>
</g>
</g>
<!-- Node6&#45;&gt;Node5 -->
<g id="edge5_Node000005_Node000006" class="edge">
<title>Node6&#45;&gt;Node5</title>
<g id="a_edge5_Node000005_Node000006"><a xlink:title=" ">
<path fill="none" stroke="#9a32cd" stroke-dasharray="5,2" d="M341.96,-242.57C333.08,-229.96 321.67,-213.77 313,-201.45"/>
<polygon fill="#9a32cd" stroke="#9a32cd" points="338.96,-244.38 347.58,-250.54 344.68,-240.35 338.96,-244.38"/>
</a>
</g>
<text text-anchor="middle" x="353.88" y="-220.7" font-family="Helvetica,sans-Serif" font-size="14.00" fill="grey"> status</text>
</g>
<!-- Node6&#45;&gt;Node7 -->
<g id="edge8_Node000007_Node000006" class="edge">
<title>Node6&#45;&gt;Node7</title>
<g id="a_edge8_Node000007_Node000006"><a xlink:title=" ">
<path fill="none" stroke="#9a32cd" stroke-dasharray="5,2" d="M373.1,-242.43C374.93,-239.71 376.63,-236.86 378,-234 397.32,-193.76 398.77,-139.97 398,-112.24"/>
<polygon fill="#9a32cd" stroke="#9a32cd" points="370.33,-240.29 367.09,-250.38 375.91,-244.51 370.33,-240.29"/>
</a>
</g>
<text text-anchor="middle" x="415.88" y="-176.2" font-family="Helvetica,sans-Serif" font-size="14.00" fill="grey"> status</text>
</g>
<!-- Node7&#45;&gt;Node1 -->
<g id="edge6_Node000001_Node000007" class="edge">
<title>Node7&#45;&gt;Node1</title>
<g id="a_edge6_Node000001_Node000007"><a xlink:title=" ">
<path fill="none" stroke="#9a32cd" stroke-dasharray="5,2" d="M349.64,-68.47C319.69,-53.59 282.38,-35.05 259.12,-23.49"/>
<polygon fill="#9a32cd" stroke="#9a32cd" points="348.02,-71.57 358.54,-72.89 351.14,-65.3 348.02,-71.57"/>
</a>
</g>
<text text-anchor="middle" x="345.75" y="-42.7" font-family="Helvetica,sans-Serif" font-size="14.00" fill="grey"> params</text>
</g>
</g>
</svg>
</svg>

<style type='text/css'>
<![CDATA[
[data-mouse-over-selected='false'] { opacity: 0.7; }
[data-mouse-over-selected='true']  { opacity: 1.0; }
]]>
</style>
<script type="application/ecmascript"><![CDATA[
document.addEventListener('DOMContentLoaded', (event) => {
  highlightEdges();
  highlightAdjacentNodes();
});
]]></script>
</svg>
