<?xml version="1.0" encoding="UTF-8" standalone="no"?>
<!DOCTYPE svg PUBLIC "-//W3C//DTD SVG 1.1//EN"
 "http://www.w3.org/Graphics/SVG/1.1/DTD/svg11.dtd">
<!-- Generated by graphviz version 12.0.0 (20240704.0754)
 -->
<!-- Title: mfem::SBM2DirichletIntegrator Pages: 1 -->
<!--zoomable 351 -->

<svg id="main" version="1.1" xmlns="http://www.w3.org/2000/svg" xmlns:xlink="http://www.w3.org/1999/xlink" xml:space="preserve" onload="init(evt)">
<style type="text/css"><![CDATA[
.node, .edge {opacity: 0.7;}
.node.selected, .edge.selected {opacity: 1;}
.edge:hover path { stroke: red; }
.edge:hover polygon { stroke: red; fill: red; }
]]></style>

<defs>
  <circle id="rim" cx="0" cy="0" r="7"/>
  <circle id="rim2" cx="0" cy="0" r="3.5"/>
  <g id="zoomPlus">
    <use xlink:href="#rim" fill="#404040"><set attributeName="fill" to="#808080" begin="zoomplus.mouseover" end="zoomplus.mouseout"/></use>
    <path d="M-4,0h8M0,-4v8" fill="none" stroke="white" stroke-width="1.5" pointer-events="none"/>
  </g>
  <g id="zoomMin">
    <use xlink:href="#rim" fill="#404040"><set attributeName="fill" to="#808080" begin="zoomminus.mouseover" end="zoomminus.mouseout"/></use>
    <path d="M-4,0h8" fill="none" stroke="white" stroke-width="1.5" pointer-events="none"/>
  </g>
  <g id="arrowUp" transform="translate(30 24)">
    <use xlink:href="#rim"/>
    <path pointer-events="none" fill="none" stroke="white" stroke-width="1.5" d="M0,-3.0v7 M-2.5,-0.5L0,-3.0L2.5,-0.5"/>
  </g>
  <g id="arrowRight" transform="rotate(90) translate(36 -43)">
    <use xlink:href="#rim"/>
    <path pointer-events="none" fill="none" stroke="white" stroke-width="1.5" d="M0,-3.0v7 M-2.5,-0.5L0,-3.0L2.5,-0.5"/>
  </g>
  <g id="arrowDown" transform="rotate(180) translate(-30 -48)">
    <use xlink:href="#rim"/>
    <path pointer-events="none" fill="none" stroke="white" stroke-width="1.5" d="M0,-3.0v7 M-2.5,-0.5L0,-3.0L2.5,-0.5"/>
  </g>
  <g id="arrowLeft" transform="rotate(270) translate(-36 17)">
    <use xlink:href="#rim"/>
    <path pointer-events="none" fill="none" stroke="white" stroke-width="1.5" d="M0,-3.0v7 M-2.5,-0.5L0,-3.0L2.5,-0.5"/>
  </g>
  <g id="resetDef">
    <use xlink:href="#rim2" fill="#404040"><set attributeName="fill" to="#808080" begin="reset.mouseover" end="reset.mouseout"/></use>
  </g>
</defs>
<script type="application/ecmascript">
var viewWidth = 1858;
var viewHeight = 351;
var sectionId = 'dynsection-1';
</script>
<script type="application/ecmascript" xlink:href="svg.min.js"/>
<svg id="graph" class="graph">
<g id="viewport">
<title>mfem::SBM2DirichletIntegrator</title>
<!-- Node1 -->
<g id="Node000001" class="node">
<title>Node1</title>
<g id="a_Node000001"><a xlink:title=" ">
<polygon fill="#999999" stroke="#666666" points="1850.25,-174 1647.5,-174 1647.5,-151 1850.25,-151 1850.25,-174"/>
<text text-anchor="middle" x="1748.88" y="-156.7" font-family="Helvetica,sans-Serif" font-size="14.00">mfem::SBM2DirichletIntegrator</text>
</a>
</g>
</g>
<!-- Node2 -->
<g id="Node000002" class="node">
<title>Node2</title>
<g id="a_Node000002"><a xlink:href="classmfem_1_1BilinearFormIntegrator.html" target="_top" xlink:title="Abstract base class BilinearFormIntegrator.">
<polygon fill="white" stroke="#666666" points="1531.25,-293 1337.5,-293 1337.5,-270 1531.25,-270 1531.25,-293"/>
<text text-anchor="middle" x="1434.38" y="-275.7" font-family="Helvetica,sans-Serif" font-size="14.00">mfem::BilinearFormIntegrator</text>
</a>
</g>
</g>
<!-- Node2&#45;&gt;Node1 -->
<g id="edge1_Node000001_Node000002" class="edge">
<title>Node2&#45;&gt;Node1</title>
<g id="a_edge1_Node000001_Node000002"><a xlink:title=" ">
<path fill="none" stroke="#63b8ff" d="M1488.87,-266.47C1502.72,-262.42 1517.58,-257.93 1531.25,-253.5 1575.35,-239.22 1586.66,-236.21 1629.5,-218.5 1663.12,-204.6 1700.95,-186.2 1724.6,-174.36"/>
<polygon fill="#63b8ff" stroke="#63b8ff" points="1488.1,-263.05 1479.47,-269.2 1490.05,-269.78 1488.1,-263.05"/>
</a>
</g>
</g>
<!-- Node3 -->
<g id="Node000003" class="node">
<title>Node3</title>
<g id="a_Node000003"><a xlink:href="classmfem_1_1NonlinearFormIntegrator.html" target="_top" xlink:title="This class is used to express the local action of a general nonlinear finite element operator....">
<polygon fill="white" stroke="#666666" points="1166.25,-294 959.75,-294 959.75,-271 1166.25,-271 1166.25,-294"/>
<text text-anchor="middle" x="1063" y="-276.7" font-family="Helvetica,sans-Serif" font-size="14.00">mfem::NonlinearFormIntegrator</text>
</a>
</g>
</g>
<!-- Node3&#45;&gt;Node2 -->
<g id="edge2_Node000002_Node000003" class="edge">
<title>Node3&#45;&gt;Node2</title>
<g id="a_edge2_Node000002_Node000003"><a xlink:title=" ">
<path fill="none" stroke="#63b8ff" d="M1177.82,-282.19C1228.84,-282.05 1288.37,-281.89 1337.13,-281.76"/>
<polygon fill="#63b8ff" stroke="#63b8ff" points="1177.91,-278.69 1167.91,-282.22 1177.92,-285.69 1177.91,-278.69"/>
</a>
</g>
</g>
<!-- Node4 -->
<g id="Node000004" class="node">
<title>Node4</title>
<g id="a_Node000004"><a xlink:href="classmfem_1_1IntegrationRule.html" target="_top" xlink:title="Class for an integration rule &#45; an Array of IntegrationPoint.">
<polygon fill="white" stroke="#666666" points="840.5,-335 690.25,-335 690.25,-312 840.5,-312 840.5,-335"/>
<text text-anchor="middle" x="765.38" y="-317.7" font-family="Helvetica,sans-Serif" font-size="14.00">mfem::IntegrationRule</text>
</a>
</g>
</g>
<!-- Node4&#45;&gt;Node3 -->
<g id="edge3_Node000003_Node000004" class="edge">
<title>Node4&#45;&gt;Node3</title>
<g id="a_edge3_Node000003_Node000004"><a xlink:title=" ">
<path fill="none" stroke="#9a32cd" stroke-dasharray="5,2" d="M851.82,-311.88C880.41,-307.98 912.46,-303.57 941.75,-299.5 953.34,-297.89 965.56,-296.18 977.58,-294.48"/>
<polygon fill="#9a32cd" stroke="#9a32cd" points="851.56,-308.39 842.12,-313.21 852.51,-315.32 851.56,-308.39"/>
</a>
</g>
<text text-anchor="middle" x="906.12" y="-310.2" font-family="Helvetica,sans-Serif" font-size="14.00" fill="grey"> IntRule</text>
</g>
<!-- Node5 -->
<g id="Node000005" class="node">
<title>Node5</title>
<g id="a_Node000005"><a xlink:href="classmfem_1_1Array.html" target="_top" xlink:title=" ">
<polygon fill="white" stroke="#666666" points="641.25,-342.5 474.5,-342.5 474.5,-304.5 641.25,-304.5 641.25,-342.5"/>
<text text-anchor="start" x="482.5" y="-325.2" font-family="Helvetica,sans-Serif" font-size="14.00">mfem::Array&lt; Integration</text>
<text text-anchor="middle" x="557.88" y="-310.2" font-family="Helvetica,sans-Serif" font-size="14.00">Point &gt;</text>
</a>
</g>
</g>
<!-- Node5&#45;&gt;Node4 -->
<g id="edge4_Node000004_Node000005" class="edge">
<title>Node5&#45;&gt;Node4</title>
<g id="a_edge4_Node000004_Node000005"><a xlink:title=" ">
<path fill="none" stroke="#63b8ff" d="M652.88,-323.5C665.26,-323.5 677.81,-323.5 689.81,-323.5"/>
<polygon fill="#63b8ff" stroke="#63b8ff" points="653.08,-320 643.08,-323.5 653.08,-327 653.08,-320"/>
</a>
</g>
</g>
<!-- Node6 -->
<g id="Node000006" class="node">
<title>Node6</title>
<g id="a_Node000006"><a xlink:href="classmfem_1_1Memory.html" target="_top" xlink:title=" ">
<polygon fill="white" stroke="#666666" points="408.5,-342.5 223.75,-342.5 223.75,-304.5 408.5,-304.5 408.5,-342.5"/>
<text text-anchor="start" x="231.75" y="-325.2" font-family="Helvetica,sans-Serif" font-size="14.00">mfem::Memory&lt; Integration</text>
<text text-anchor="middle" x="316.12" y="-310.2" font-family="Helvetica,sans-Serif" font-size="14.00">Point &gt;</text>
</a>
</g>
</g>
<!-- Node6&#45;&gt;Node5 -->
<g id="edge5_Node000005_Node000006" class="edge">
<title>Node6&#45;&gt;Node5</title>
<g id="a_edge5_Node000005_Node000006"><a xlink:title=" ">
<path fill="none" stroke="#9a32cd" stroke-dasharray="5,2" d="M420.26,-323.5C438.31,-323.5 456.89,-323.5 474.3,-323.5"/>
<polygon fill="#9a32cd" stroke="#9a32cd" points="420.3,-320 410.3,-323.5 420.3,-327 420.3,-320"/>
</a>
</g>
<text text-anchor="middle" x="441.5" y="-325.2" font-family="Helvetica,sans-Serif" font-size="14.00" fill="grey"> data</text>
</g>
<!-- Node7 -->
<g id="Node000007" class="node">
<title>Node7</title>
<g id="a_Node000007"><a xlink:href="classmfem_1_1IntegrationPoint.html" target="_top" xlink:title="Class for integration point with weight.">
<polygon fill="white" stroke="#666666" points="153.25,-335 0,-335 0,-312 153.25,-312 153.25,-335"/>
<text text-anchor="middle" x="76.62" y="-317.7" font-family="Helvetica,sans-Serif" font-size="14.00">mfem::IntegrationPoint</text>
</a>
</g>
</g>
<!-- Node7&#45;&gt;Node6 -->
<g id="edge6_Node000006_Node000007" class="edge">
<title>Node7&#45;&gt;Node6</title>
<g id="a_edge6_Node000006_Node000007"><a xlink:title=" ">
<path fill="none" stroke="#9a32cd" stroke-dasharray="5,2" d="M164.82,-323.5C183.91,-323.5 204.17,-323.5 223.42,-323.5"/>
<polygon fill="#9a32cd" stroke="#9a32cd" points="164.94,-320 154.94,-323.5 164.94,-327 164.94,-320"/>
</a>
</g>
<text text-anchor="middle" x="188.5" y="-325.2" font-family="Helvetica,sans-Serif" font-size="14.00" fill="grey"> h_ptr</text>
</g>
<!-- Node8 -->
<g id="Node000008" class="node">
<title>Node8</title>
<g id="a_Node000008"><a xlink:href="classmfem_1_1NURBSMeshRules.html" target="_top" xlink:title="Class for defining different integration rules on each NURBS patch.">
<polygon fill="white" stroke="#666666" points="852.5,-294 678.25,-294 678.25,-271 852.5,-271 852.5,-294"/>
<text text-anchor="middle" x="765.38" y="-276.7" font-family="Helvetica,sans-Serif" font-size="14.00">mfem::NURBSMeshRules</text>
</a>
</g>
</g>
<!-- Node8&#45;&gt;Node3 -->
<g id="edge7_Node000003_Node000008" class="edge">
<title>Node8&#45;&gt;Node3</title>
<g id="a_edge7_Node000003_Node000008"><a xlink:title=" ">
<path fill="none" stroke="#9a32cd" stroke-dasharray="5,2" d="M863.81,-282.5C894.46,-282.5 928.39,-282.5 959.39,-282.5"/>
<polygon fill="#9a32cd" stroke="#9a32cd" points="864.19,-279 854.19,-282.5 864.19,-286 864.19,-279"/>
</a>
</g>
<text text-anchor="middle" x="906.12" y="-284.2" font-family="Helvetica,sans-Serif" font-size="14.00" fill="grey"> patchRules</text>
</g>
<!-- Node9 -->
<g id="Node000009" class="node">
<title>Node9</title>
<g id="a_Node000009"><a xlink:href="classmfem_1_1ceed_1_1Operator.html" target="_top" xlink:title=" ">
<polygon fill="white" stroke="#666666" points="840.12,-253 690.62,-253 690.62,-230 840.12,-230 840.12,-253"/>
<text text-anchor="middle" x="765.38" y="-235.7" font-family="Helvetica,sans-Serif" font-size="14.00">mfem::ceed::Operator</text>
</a>
</g>
</g>
<!-- Node9&#45;&gt;Node3 -->
<g id="edge8_Node000003_Node000009" class="edge">
<title>Node9&#45;&gt;Node3</title>
<g id="a_edge8_Node000003_Node000009"><a xlink:title=" ">
<path fill="none" stroke="#9a32cd" stroke-dasharray="5,2" d="M851.48,-251.62C880.18,-255.18 912.38,-259.34 941.75,-263.5 956.92,-265.65 973.14,-268.11 988.61,-270.52"/>
<polygon fill="#9a32cd" stroke="#9a32cd" points="852.11,-248.17 841.76,-250.42 851.25,-255.12 852.11,-248.17"/>
</a>
</g>
<text text-anchor="middle" x="906.12" y="-265.2" font-family="Helvetica,sans-Serif" font-size="14.00" fill="grey"> ceedOp</text>
</g>
<!-- Node10 -->
<g id="Node000010" class="node">
<title>Node10</title>
<g id="a_Node000010"><a xlink:href="classmfem_1_1Operator.html" target="_top" xlink:title="Abstract operator.">
<polygon fill="white" stroke="#666666" points="614.25,-231 501.5,-231 501.5,-208 614.25,-208 614.25,-231"/>
<text text-anchor="middle" x="557.88" y="-213.7" font-family="Helvetica,sans-Serif" font-size="14.00">mfem::Operator</text>
</a>
</g>
</g>
<!-- Node10&#45;&gt;Node9 -->
<g id="edge9_Node000009_Node000010" class="edge">
<title>Node10&#45;&gt;Node9</title>
<g id="a_edge9_Node000009_Node000010"><a xlink:title=" ">
<path fill="none" stroke="#63b8ff" d="M625.68,-226.65C646.29,-228.86 669.11,-231.3 690.19,-233.56"/>
<polygon fill="#63b8ff" stroke="#63b8ff" points="626.31,-223.2 615.99,-225.61 625.56,-230.16 626.31,-223.2"/>
</a>
</g>
</g>
<!-- Node17 -->
<g id="Node000017" class="node">
<title>Node17</title>
<g id="a_Node000017"><a xlink:href="classmfem_1_1Matrix.html" target="_top" xlink:title="Abstract data type matrix.">
<polygon fill="white" stroke="#666666" points="813.5,-212 717.25,-212 717.25,-189 813.5,-189 813.5,-212"/>
<text text-anchor="middle" x="765.38" y="-194.7" font-family="Helvetica,sans-Serif" font-size="14.00">mfem::Matrix</text>
</a>
</g>
</g>
<!-- Node10&#45;&gt;Node17 -->
<g id="edge17_Node000017_Node000010" class="edge">
<title>Node10&#45;&gt;Node17</title>
<g id="a_edge17_Node000017_Node000010"><a xlink:title=" ">
<path fill="none" stroke="#63b8ff" d="M625.67,-213.32C655.51,-210.57 689.97,-207.38 717.08,-204.87"/>
<polygon fill="#63b8ff" stroke="#63b8ff" points="625.63,-209.81 615.99,-214.22 626.27,-216.78 625.63,-209.81"/>
</a>
</g>
</g>
<!-- Node11 -->
<g id="Node000011" class="node">
<title>Node11</title>
<g id="a_Node000011"><a xlink:href="classmfem_1_1VectorCoefficient.html" target="_top" xlink:title="Base class for vector Coefficients that optionally depend on time and space.">
<polygon fill="white" stroke="#666666" points="1515.12,-168 1353.62,-168 1353.62,-145 1515.12,-145 1515.12,-168"/>
<text text-anchor="middle" x="1434.38" y="-150.7" font-family="Helvetica,sans-Serif" font-size="14.00">mfem::VectorCoefficient</text>
</a>
</g>
</g>
<!-- Node11&#45;&gt;Node1 -->
<g id="edge10_Node000001_Node000011" class="edge">
<title>Node11&#45;&gt;Node1</title>
<g id="a_edge10_Node000001_Node000011"><a xlink:title=" ">
<path fill="none" stroke="#9a32cd" stroke-dasharray="5,2" d="M1526.47,-158.25C1564.35,-158.98 1608.45,-159.82 1647.28,-160.57"/>
<polygon fill="#9a32cd" stroke="#9a32cd" points="1527.02,-154.76 1516.96,-158.07 1526.89,-161.76 1527.02,-154.76"/>
</a>
</g>
<text text-anchor="middle" x="1589.38" y="-161.2" font-family="Helvetica,sans-Serif" font-size="14.00" fill="grey"> vD</text>
</g>
<!-- Node12 -->
<g id="Node000012" class="node">
<title>Node12</title>
<g id="a_Node000012"><a xlink:href="classmfem_1_1Array.html" target="_top" xlink:title=" ">
<polygon fill="white" stroke="#666666" points="1499,-121 1369.75,-121 1369.75,-98 1499,-98 1499,-121"/>
<text text-anchor="middle" x="1434.38" y="-103.7" font-family="Helvetica,sans-Serif" font-size="14.00">mfem::Array&lt; int &gt;</text>
</a>
</g>
</g>
<!-- Node12&#45;&gt;Node1 -->
<g id="edge11_Node000001_Node000012" class="edge">
<title>Node12&#45;&gt;Node1</title>
<g id="a_edge11_Node000001_Node000012"><a xlink:title=" ">
<path fill="none" stroke="#9a32cd" stroke-dasharray="5,2" d="M1510.73,-111.23C1546.92,-113.1 1590.74,-116.89 1629.5,-124.5 1660.21,-130.53 1694.11,-141.92 1717.73,-150.66"/>
<polygon fill="#9a32cd" stroke="#9a32cd" points="1510.93,-107.74 1500.78,-110.76 1510.6,-114.73 1510.93,-107.74"/>
</a>
</g>
<text text-anchor="middle" x="1589.38" y="-141.2" font-family="Helvetica,sans-Serif" font-size="14.00" fill="grey"> cut_marker</text>
<text text-anchor="middle" x="1589.38" y="-126.2" font-family="Helvetica,sans-Serif" font-size="14.00" fill="grey">elem_marker</text>
</g>
<!-- Node13 -->
<g id="Node000013" class="node">
<title>Node13</title>
<g id="a_Node000013"><a xlink:href="classmfem_1_1Memory.html" target="_top" xlink:title=" ">
<polygon fill="white" stroke="#666666" points="1136.62,-121 989.38,-121 989.38,-98 1136.62,-98 1136.62,-121"/>
<text text-anchor="middle" x="1063" y="-103.7" font-family="Helvetica,sans-Serif" font-size="14.00">mfem::Memory&lt; int &gt;</text>
</a>
</g>
</g>
<!-- Node13&#45;&gt;Node12 -->
<g id="edge12_Node000012_Node000013" class="edge">
<title>Node13&#45;&gt;Node12</title>
<g id="a_edge12_Node000012_Node000013"><a xlink:title=" ">
<path fill="none" stroke="#9a32cd" stroke-dasharray="5,2" d="M1148.38,-109.5C1215.61,-109.5 1308.3,-109.5 1369.49,-109.5"/>
<polygon fill="#9a32cd" stroke="#9a32cd" points="1148.49,-106 1138.49,-109.5 1148.49,-113 1148.49,-106"/>
</a>
</g>
<text text-anchor="middle" x="1251.88" y="-111.2" font-family="Helvetica,sans-Serif" font-size="14.00" fill="grey"> data</text>
</g>
<!-- Node14 -->
<g id="Node000014" class="node">
<title>Node14</title>
<g id="a_Node000014"><a xlink:href="classmfem_1_1Vector.html" target="_top" xlink:title="Vector data type.">
<polygon fill="white" stroke="#666666" points="1483.25,-23 1385.5,-23 1385.5,0 1483.25,0 1483.25,-23"/>
<text text-anchor="middle" x="1434.38" y="-5.7" font-family="Helvetica,sans-Serif" font-size="14.00">mfem::Vector</text>
</a>
</g>
</g>
<!-- Node14&#45;&gt;Node1 -->
<g id="edge13_Node000001_Node000014" class="edge">
<title>Node14&#45;&gt;Node1</title>
<g id="a_edge13_Node000001_Node000014"><a xlink:title=" ">
<path fill="none" stroke="#9a32cd" stroke-dasharray="5,2" d="M1494.98,-8.11C1535.06,-8.26 1587.94,-13.33 1629.5,-34.5 1683.44,-61.98 1725.35,-124.65 1741.1,-150.75"/>
<polygon fill="#9a32cd" stroke="#9a32cd" points="1495,-4.61 1485.03,-8.18 1495.05,-11.61 1495,-4.61"/>
</a>
</g>
<text text-anchor="middle" x="1589.38" y="-96.2" font-family="Helvetica,sans-Serif" font-size="14.00" fill="grey"> dshapedn</text>
<text text-anchor="middle" x="1589.38" y="-81.2" font-family="Helvetica,sans-Serif" font-size="14.00" fill="grey">nh</text>
<text text-anchor="middle" x="1589.38" y="-66.2" font-family="Helvetica,sans-Serif" font-size="14.00" fill="grey">ni</text>
<text text-anchor="middle" x="1589.38" y="-51.2" font-family="Helvetica,sans-Serif" font-size="14.00" fill="grey">nor</text>
<text text-anchor="middle" x="1589.38" y="-36.2" font-family="Helvetica,sans-Serif" font-size="14.00" fill="grey">shape</text>
</g>
<!-- Node15 -->
<g id="Node000015" class="node">
<title>Node15</title>
<g id="a_Node000015"><a xlink:href="classmfem_1_1Memory.html" target="_top" xlink:title=" ">
<polygon fill="white" stroke="#666666" points="1146.38,-23 979.62,-23 979.62,0 1146.38,0 1146.38,-23"/>
<text text-anchor="middle" x="1063" y="-5.7" font-family="Helvetica,sans-Serif" font-size="14.00">mfem::Memory&lt; real_t &gt;</text>
</a>
</g>
</g>
<!-- Node15&#45;&gt;Node14 -->
<g id="edge14_Node000014_Node000015" class="edge">
<title>Node15&#45;&gt;Node14</title>
<g id="a_edge14_Node000014_Node000015"><a xlink:title=" ">
<path fill="none" stroke="#9a32cd" stroke-dasharray="5,2" d="M1157.84,-11.5C1230.32,-11.5 1327.65,-11.5 1385.12,-11.5"/>
<polygon fill="#9a32cd" stroke="#9a32cd" points="1157.95,-8 1147.95,-11.5 1157.95,-15 1157.95,-8"/>
</a>
</g>
<text text-anchor="middle" x="1251.88" y="-13.2" font-family="Helvetica,sans-Serif" font-size="14.00" fill="grey"> data</text>
</g>
<!-- Node16 -->
<g id="Node000016" class="node">
<title>Node16</title>
<g id="a_Node000016"><a xlink:href="classmfem_1_1DenseMatrix.html" target="_top" xlink:title="Data type dense matrix using column&#45;major storage.">
<polygon fill="white" stroke="#666666" points="1319.5,-213 1184.25,-213 1184.25,-190 1319.5,-190 1319.5,-213"/>
<text text-anchor="middle" x="1251.88" y="-195.7" font-family="Helvetica,sans-Serif" font-size="14.00">mfem::DenseMatrix</text>
</a>
</g>
</g>
<!-- Node16&#45;&gt;Node1 -->
<g id="edge15_Node000001_Node000016" class="edge">
<title>Node16&#45;&gt;Node1</title>
<g id="a_edge15_Node000001_Node000016"><a xlink:title=" ">
<path fill="none" stroke="#9a32cd" stroke-dasharray="5,2" d="M1331.06,-198.4C1407.33,-194.98 1526.56,-188.59 1629.5,-178.5 1641.06,-177.37 1653.22,-175.96 1665.18,-174.46"/>
<polygon fill="#9a32cd" stroke="#9a32cd" points="1331.01,-194.9 1321.18,-198.84 1331.32,-201.89 1331.01,-194.9"/>
</a>
</g>
<text text-anchor="middle" x="1434.38" y="-229.2" font-family="Helvetica,sans-Serif" font-size="14.00" fill="grey"> adjJ</text>
<text text-anchor="middle" x="1434.38" y="-214.2" font-family="Helvetica,sans-Serif" font-size="14.00" fill="grey">dshape</text>
<text text-anchor="middle" x="1434.38" y="-199.2" font-family="Helvetica,sans-Serif" font-size="14.00" fill="grey">dshapephys</text>
</g>
<!-- Node17&#45;&gt;Node16 -->
<g id="edge16_Node000016_Node000017" class="edge">
<title>Node17&#45;&gt;Node16</title>
<g id="a_edge16_Node000016_Node000017"><a xlink:title=" ">
<path fill="none" stroke="#63b8ff" d="M825.14,-200.62C915.72,-200.81 1088.95,-201.17 1184.14,-201.36"/>
<polygon fill="#63b8ff" stroke="#63b8ff" points="825.23,-197.12 815.23,-200.6 825.22,-204.12 825.23,-197.12"/>
</a>
</g>
</g>
</g>
</svg>

<g id="navigator" transform="translate(0 0)" fill="#404254">
  <rect fill="#f2f5e9" fill-opacity="0.5" stroke="#606060" stroke-width=".5" x="0" y="0" width="60" height="60"/>
  <use id="zoomplus" xlink:href="#zoomPlus" x="17" y="9" onmousedown="handleZoom(evt,'in')"/>
  <use id="zoomminus" xlink:href="#zoomMin" x="42" y="9" onmousedown="handleZoom(evt,'out')"/>
  <use id="reset" xlink:href="#resetDef" x="30" y="36" onmousedown="handleReset()"/>
   <use id="arrowup" xlink:href="#arrowUp" x="0" y="0" onmousedown="handlePan(0,-1)"/>
  <use id="arrowright" xlink:href="#arrowRight" x="0" y="0" onmousedown="handlePan(1,0)"/>
  <use id="arrowdown" xlink:href="#arrowDown" x="0" y="0" onmousedown="handlePan(0,1)"/>
  <use id="arrowleft" xlink:href="#arrowLeft" x="0" y="0" onmousedown="handlePan(-1,0)"/>
</g>
<svg viewBox="0 0 15 15" width="100%" height="30px" preserveAspectRatio="xMaxYMin meet">
 <g id="arrow_out" transform="scale(0.3 0.3)">
  <a xlink:href="classmfem_1_1SBM2DirichletIntegrator__coll__graph_org.svg" target="_base">
   <rect id="button" ry="5" rx="5" y="6" x="6" height="38" width="38"
        fill="#f2f5e9" fill-opacity="0.5" stroke="#606060" stroke-width="1.0"/>
   <path id="arrow"
     d="M 11.500037,31.436501 C 11.940474,20.09759 22.043105,11.32322 32.158766,21.979434 L 37.068811,17.246167 C 37.068811,17.246167 37.088388,32 37.088388,32 L 22.160133,31.978069 C 22.160133,31.978069 26.997745,27.140456 26.997745,27.140456 C 18.528582,18.264221 13.291696,25.230495 11.500037,31.436501 z"
     style="fill:#404040;"/>
  </a>
 </g>
</svg>

<style type='text/css'>
<![CDATA[
[data-mouse-over-selected='false'] { opacity: 0.7; }
[data-mouse-over-selected='true']  { opacity: 1.0; }
]]>
</style>
<script type="application/ecmascript"><![CDATA[
document.addEventListener('DOMContentLoaded', (event) => {
  highlightEdges();
  highlightAdjacentNodes();
});
]]></script>
</svg>
