<?xml version="1.0" encoding="UTF-8" standalone="no"?>
<!DOCTYPE svg PUBLIC "-//W3C//DTD SVG 1.1//EN"
 "http://www.w3.org/Graphics/SVG/1.1/DTD/svg11.dtd">
<!-- Generated by graphviz version 12.0.0 (20240704.0754)
 -->
<!-- Title: mfem::LinearDiscont2DFECollection Pages: 1 -->
<svg width="531pt" height="209pt"
 viewBox="0.00 0.00 530.75 209.00" xmlns="http://www.w3.org/2000/svg" xmlns:xlink="http://www.w3.org/1999/xlink">
<g id="graph0" class="graph" transform="scale(1 1) rotate(0) translate(4 205)">
<title>mfem::LinearDiscont2DFECollection</title>
<!-- Node1 -->
<g id="Node000001" class="node">
<title>Node1</title>
<g id="a_Node000001"><a xlink:title="Piecewise&#45;linear discontinuous finite elements in 2D. This class is kept only for backward compatibil...">
<polygon fill="#999999" stroke="#666666" points="235,-119.5 0,-119.5 0,-96.5 235,-96.5 235,-119.5"/>
<text text-anchor="middle" x="117.5" y="-102.2" font-family="Helvetica,sans-Serif" font-size="14.00">mfem::LinearDiscont2DFECollection</text>
</a>
</g>
</g>
<!-- Node2 -->
<g id="Node000002" class="node">
<title>Node2</title>
<g id="a_Node000002"><a xlink:href="classmfem_1_1FiniteElementCollection.html" target="_top" xlink:title="Collection of finite elements from the same family in multiple dimensions. This class is used to matc...">
<polygon fill="white" stroke="#666666" points="447.12,-201 245.88,-201 245.88,-178 447.12,-178 447.12,-201"/>
<text text-anchor="middle" x="346.5" y="-183.7" font-family="Helvetica,sans-Serif" font-size="14.00">mfem::FiniteElementCollection</text>
</a>
</g>
</g>
<!-- Node2&#45;&gt;Node1 -->
<g id="edge1_Node000001_Node000002" class="edge">
<title>Node2&#45;&gt;Node1</title>
<g id="a_edge1_Node000001_Node000002"><a xlink:title=" ">
<path fill="none" stroke="#63b8ff" d="M304.28,-173.84C259.3,-158.23 189.16,-133.88 148.85,-119.88"/>
<polygon fill="#63b8ff" stroke="#63b8ff" points="303.11,-177.14 313.71,-177.12 305.41,-170.53 303.11,-177.14"/>
</a>
</g>
</g>
<!-- Node4 -->
<g id="Node000004" class="node">
<title>Node4</title>
<g id="a_Node000004"><a xlink:href="classmfem_1_1Memory.html" target="_top" xlink:title=" ">
<polygon fill="white" stroke="#666666" points="440,-127 253,-127 253,-89 440,-89 440,-127"/>
<text text-anchor="start" x="261" y="-109.7" font-family="Helvetica,sans-Serif" font-size="14.00">mfem::Memory&lt; mfem</text>
<text text-anchor="middle" x="346.5" y="-94.7" font-family="Helvetica,sans-Serif" font-size="14.00">::FiniteElementCollection * &gt;</text>
</a>
</g>
</g>
<!-- Node2&#45;&gt;Node4 -->
<g id="edge4_Node000004_Node000002" class="edge">
<title>Node2&#45;&gt;Node4</title>
<g id="a_edge4_Node000004_Node000002"><a xlink:title=" ">
<path fill="none" stroke="#9a32cd" stroke-dasharray="5,2" d="M346.5,-166.29C346.5,-154.05 346.5,-139.04 346.5,-127.45"/>
<polygon fill="#9a32cd" stroke="#9a32cd" points="343,-166.26 346.5,-176.26 350,-166.26 343,-166.26"/>
</a>
</g>
<text text-anchor="middle" x="363.75" y="-146.7" font-family="Helvetica,sans-Serif" font-size="14.00" fill="grey"> h_ptr</text>
</g>
<!-- Node3 -->
<g id="Node000003" class="node">
<title>Node3</title>
<g id="a_Node000003"><a xlink:href="classmfem_1_1Array.html" target="_top" xlink:title=" ">
<polygon fill="white" stroke="#666666" points="501.25,-38 321.75,-38 321.75,0 501.25,0 501.25,-38"/>
<text text-anchor="start" x="329.75" y="-20.7" font-family="Helvetica,sans-Serif" font-size="14.00">mfem::Array&lt; mfem::</text>
<text text-anchor="middle" x="411.5" y="-5.7" font-family="Helvetica,sans-Serif" font-size="14.00">FiniteElementCollection * &gt;</text>
</a>
</g>
</g>
<!-- Node3&#45;&gt;Node2 -->
<g id="edge2_Node000002_Node000003" class="edge">
<title>Node3&#45;&gt;Node2</title>
<g id="a_edge2_Node000002_Node000003"><a xlink:title=" ">
<path fill="none" stroke="#9a32cd" stroke-dasharray="5,2" d="M433.75,-47.48C448.93,-69.79 463.91,-101.61 449.5,-127 435.16,-152.27 405.86,-168.26 382.17,-177.58"/>
<polygon fill="#9a32cd" stroke="#9a32cd" points="436.66,-45.53 427.97,-39.47 430.98,-49.63 436.66,-45.53"/>
</a>
</g>
<text text-anchor="middle" x="488.62" y="-102.2" font-family="Helvetica,sans-Serif" font-size="14.00" fill="grey"> var_orders</text>
</g>
<!-- Node4&#45;&gt;Node3 -->
<g id="edge3_Node000003_Node000004" class="edge">
<title>Node4&#45;&gt;Node3</title>
<g id="a_edge3_Node000003_Node000004"><a xlink:title=" ">
<path fill="none" stroke="#9a32cd" stroke-dasharray="5,2" d="M366.89,-79.71C376.93,-66.26 388.78,-50.41 397.74,-38.42"/>
<polygon fill="#9a32cd" stroke="#9a32cd" points="364.37,-77.23 361.19,-87.34 369.98,-81.42 364.37,-77.23"/>
</a>
</g>
<text text-anchor="middle" x="398.5" y="-57.7" font-family="Helvetica,sans-Serif" font-size="14.00" fill="grey"> data</text>
</g>
</g>
</svg>
