<?xml version="1.0" encoding="UTF-8" standalone="no"?>
<!DOCTYPE svg PUBLIC "-//W3C//DTD SVG 1.1//EN"
 "http://www.w3.org/Graphics/SVG/1.1/DTD/svg11.dtd">
<!-- Generated by graphviz version 12.0.0 (20240704.0754)
 -->
<!-- Title: mfem::LORSolver&lt; HypreAMS &gt; Pages: 1 -->
<svg width="613pt" height="431pt"
 viewBox="0.00 0.00 612.75 431.00" xmlns="http://www.w3.org/2000/svg" xmlns:xlink="http://www.w3.org/1999/xlink">
<g id="graph0" class="graph" transform="scale(1 1) rotate(0) translate(4 427)">
<title>mfem::LORSolver&lt; HypreAMS &gt;</title>
<!-- Node1 -->
<g id="Node000001" class="node">
<title>Node1</title>
<g id="a_Node000001"><a xlink:title=" ">
<polygon fill="#999999" stroke="#666666" points="497.75,-23 282.25,-23 282.25,0 497.75,0 497.75,-23"/>
<text text-anchor="middle" x="390" y="-5.7" font-family="Helvetica,sans-Serif" font-size="14.00">mfem::LORSolver&lt; HypreAMS &gt;</text>
</a>
</g>
</g>
<!-- Node2 -->
<g id="Node000002" class="node">
<title>Node2</title>
<g id="a_Node000002"><a xlink:href="classmfem_1_1Solver.html" target="_top" xlink:title="Base class for solvers.">
<polygon fill="white" stroke="#666666" points="506.5,-260 409.5,-260 409.5,-237 506.5,-237 506.5,-260"/>
<text text-anchor="middle" x="458" y="-242.7" font-family="Helvetica,sans-Serif" font-size="14.00">mfem::Solver</text>
</a>
</g>
</g>
<!-- Node2&#45;&gt;Node1 -->
<g id="edge1_Node000001_Node000002" class="edge">
<title>Node2&#45;&gt;Node1</title>
<g id="a_edge1_Node000001_Node000002"><a xlink:title=" ">
<path fill="none" stroke="#63b8ff" d="M443.9,-227.09C442.43,-224.44 441.09,-221.71 440,-219 409.95,-144.09 430.01,-117.41 404,-41 401.94,-34.95 398.87,-28.53 396.13,-23.32"/>
<polygon fill="#63b8ff" stroke="#63b8ff" points="440.78,-228.7 449.02,-235.35 446.72,-225.01 440.78,-228.7"/>
</a>
</g>
</g>
<!-- Node8 -->
<g id="Node000008" class="node">
<title>Node8</title>
<g id="a_Node000008"><a xlink:href="classmfem_1_1HypreSolver.html" target="_top" xlink:title="Abstract class for hypre&#39;s solvers and preconditioners.">
<polygon fill="white" stroke="#666666" points="381.5,-171 248.5,-171 248.5,-148 381.5,-148 381.5,-171"/>
<text text-anchor="middle" x="315" y="-153.7" font-family="Helvetica,sans-Serif" font-size="14.00">mfem::HypreSolver</text>
</a>
</g>
</g>
<!-- Node2&#45;&gt;Node8 -->
<g id="edge9_Node000008_Node000002" class="edge">
<title>Node2&#45;&gt;Node8</title>
<g id="a_edge9_Node000008_Node000002"><a xlink:title=" ">
<path fill="none" stroke="#63b8ff" d="M426.16,-231.35C418.81,-227.44 411.07,-223.18 404,-219 377.57,-203.39 348,-183.43 330.47,-171.32"/>
<polygon fill="#63b8ff" stroke="#63b8ff" points="424.37,-234.36 434.85,-235.89 427.61,-228.16 424.37,-234.36"/>
</a>
</g>
</g>
<!-- Node3 -->
<g id="Node000003" class="node">
<title>Node3</title>
<g id="a_Node000003"><a xlink:href="classmfem_1_1Operator.html" target="_top" xlink:title="Abstract operator.">
<polygon fill="white" stroke="#666666" points="514.38,-349 401.62,-349 401.62,-326 514.38,-326 514.38,-349"/>
<text text-anchor="middle" x="458" y="-331.7" font-family="Helvetica,sans-Serif" font-size="14.00">mfem::Operator</text>
</a>
</g>
</g>
<!-- Node3&#45;&gt;Node2 -->
<g id="edge2_Node000002_Node000003" class="edge">
<title>Node3&#45;&gt;Node2</title>
<g id="a_edge2_Node000002_Node000003"><a xlink:title=" ">
<path fill="none" stroke="#63b8ff" d="M458,-314.51C458,-297.17 458,-273.73 458,-260.26"/>
<polygon fill="#63b8ff" stroke="#63b8ff" points="454.5,-314.32 458,-324.32 461.5,-314.32 454.5,-314.32"/>
</a>
</g>
</g>
<!-- Node4 -->
<g id="Node000004" class="node">
<title>Node4</title>
<g id="a_Node000004"><a xlink:href="classmfem_1_1OperatorHandle.html" target="_top" xlink:title="Pointer to an Operator of a specified type.">
<polygon fill="white" stroke="#666666" points="604.75,-215.5 449.25,-215.5 449.25,-192.5 604.75,-192.5 604.75,-215.5"/>
<text text-anchor="middle" x="527" y="-198.2" font-family="Helvetica,sans-Serif" font-size="14.00">mfem::OperatorHandle</text>
</a>
</g>
</g>
<!-- Node3&#45;&gt;Node4 -->
<g id="edge4_Node000004_Node000003" class="edge">
<title>Node3&#45;&gt;Node4</title>
<g id="a_edge4_Node000004_Node000003"><a xlink:title=" ">
<path fill="none" stroke="#9a32cd" stroke-dasharray="5,2" d="M476.36,-317.47C489.4,-302.89 506.25,-281.65 516,-260 522.48,-245.62 525.16,-227.41 526.26,-215.98"/>
<polygon fill="#9a32cd" stroke="#9a32cd" points="474.06,-314.8 469.86,-324.53 479.21,-319.54 474.06,-314.8"/>
</a>
</g>
<text text-anchor="middle" x="521.38" y="-287.2" font-family="Helvetica,sans-Serif" font-size="14.00" fill="grey"> oper</text>
</g>
<!-- Node9 -->
<g id="Node000009" class="node">
<title>Node9</title>
<g id="a_Node000009"><a xlink:href="classmfem_1_1HypreParMatrix.html" target="_top" xlink:title="Wrapper for hypre&#39;s ParCSR matrix class.">
<polygon fill="white" stroke="#666666" points="391.62,-260 238.38,-260 238.38,-237 391.62,-237 391.62,-260"/>
<text text-anchor="middle" x="315" y="-242.7" font-family="Helvetica,sans-Serif" font-size="14.00">mfem::HypreParMatrix</text>
</a>
</g>
</g>
<!-- Node3&#45;&gt;Node9 -->
<g id="edge11_Node000009_Node000003" class="edge">
<title>Node3&#45;&gt;Node9</title>
<g id="a_edge11_Node000009_Node000003"><a xlink:title=" ">
<path fill="none" stroke="#63b8ff" d="M430.36,-319.69C401.65,-302.22 357.57,-275.4 333.05,-260.48"/>
<polygon fill="#63b8ff" stroke="#63b8ff" points="428.52,-322.66 438.89,-324.87 432.16,-316.68 428.52,-322.66"/>
</a>
</g>
</g>
<!-- Node4&#45;&gt;Node1 -->
<g id="edge3_Node000001_Node000004" class="edge">
<title>Node4&#45;&gt;Node1</title>
<g id="a_edge3_Node000001_Node000004"><a xlink:title=" ">
<path fill="none" stroke="#9a32cd" stroke-dasharray="5,2" d="M518.27,-181.82C503.93,-148.89 472.86,-84.65 432,-41 425.62,-34.18 417.32,-28.12 409.79,-23.36"/>
<polygon fill="#9a32cd" stroke="#9a32cd" points="514.9,-182.86 522.04,-190.69 521.35,-180.12 514.9,-182.86"/>
</a>
</g>
<text text-anchor="middle" x="498.38" y="-116.7" font-family="Helvetica,sans-Serif" font-size="14.00" fill="grey"> A</text>
</g>
<!-- Node5 -->
<g id="Node000005" class="node">
<title>Node5</title>
<g id="a_Node000005"><a xlink:href="classmfem_1_1Vector.html" target="_top" xlink:title="Vector data type.">
<polygon fill="white" stroke="#666666" points="153.88,-349 56.12,-349 56.12,-326 153.88,-326 153.88,-349"/>
<text text-anchor="middle" x="105" y="-331.7" font-family="Helvetica,sans-Serif" font-size="14.00">mfem::Vector</text>
</a>
</g>
</g>
<!-- Node5&#45;&gt;Node1 -->
<g id="edge5_Node000001_Node000005" class="edge">
<title>Node5&#45;&gt;Node1</title>
<g id="a_edge5_Node000001_Node000005"><a xlink:title=" ">
<path fill="none" stroke="#9a32cd" stroke-dasharray="5,2" d="M62.73,-320.9C33.56,-307.09 0,-283.76 0,-249.5 0,-249.5 0,-249.5 0,-84.5 0,-55.71 166.46,-33.81 281.88,-22.08"/>
<polygon fill="#9a32cd" stroke="#9a32cd" points="61.27,-324.08 71.83,-324.94 64.11,-317.68 61.27,-324.08"/>
</a>
</g>
<text text-anchor="middle" x="12" y="-153.7" font-family="Helvetica,sans-Serif" font-size="14.00" fill="grey"> xyz</text>
</g>
<!-- Node10 -->
<g id="Node000010" class="node">
<title>Node10</title>
<g id="a_Node000010"><a xlink:href="classmfem_1_1HypreParVector.html" target="_top" xlink:title="Wrapper for hypre&#39;s parallel vector class.">
<polygon fill="white" stroke="#666666" points="182.38,-260 27.62,-260 27.62,-237 182.38,-237 182.38,-260"/>
<text text-anchor="middle" x="105" y="-242.7" font-family="Helvetica,sans-Serif" font-size="14.00">mfem::HypreParVector</text>
</a>
</g>
</g>
<!-- Node5&#45;&gt;Node10 -->
<g id="edge13_Node000010_Node000005" class="edge">
<title>Node5&#45;&gt;Node10</title>
<g id="a_edge13_Node000010_Node000005"><a xlink:title=" ">
<path fill="none" stroke="#63b8ff" d="M105,-314.51C105,-297.17 105,-273.73 105,-260.26"/>
<polygon fill="#63b8ff" stroke="#63b8ff" points="101.5,-314.32 105,-324.32 108.5,-314.32 101.5,-314.32"/>
</a>
</g>
</g>
<!-- Node6 -->
<g id="Node000006" class="node">
<title>Node6</title>
<g id="a_Node000006"><a xlink:href="classmfem_1_1Memory.html" target="_top" xlink:title=" ">
<polygon fill="white" stroke="#666666" points="240.38,-423 73.62,-423 73.62,-400 240.38,-400 240.38,-423"/>
<text text-anchor="middle" x="157" y="-405.7" font-family="Helvetica,sans-Serif" font-size="14.00">mfem::Memory&lt; real_t &gt;</text>
</a>
</g>
</g>
<!-- Node6&#45;&gt;Node5 -->
<g id="edge6_Node000005_Node000006" class="edge">
<title>Node6&#45;&gt;Node5</title>
<g id="a_edge6_Node000005_Node000006"><a xlink:title=" ">
<path fill="none" stroke="#9a32cd" stroke-dasharray="5,2" d="M142.62,-390.59C132.91,-377.15 120.49,-359.94 112.63,-349.07"/>
<polygon fill="#9a32cd" stroke="#9a32cd" points="139.52,-392.28 148.22,-398.34 145.2,-388.18 139.52,-392.28"/>
</a>
</g>
<text text-anchor="middle" x="151" y="-368.7" font-family="Helvetica,sans-Serif" font-size="14.00" fill="grey"> data</text>
</g>
<!-- Node6&#45;&gt;Node8 -->
<g id="edge14_Node000008_Node000006" class="edge">
<title>Node6&#45;&gt;Node8</title>
<g id="a_edge14_Node000008_Node000006"><a xlink:title=" ">
<path fill="none" stroke="#9a32cd" stroke-dasharray="5,2" d="M166.76,-389.37C167.87,-386.89 168.97,-384.39 170,-382 197.55,-318.11 188.85,-293.82 229,-237 248.49,-209.42 279.72,-184.91 298.71,-171.44"/>
<polygon fill="#9a32cd" stroke="#9a32cd" points="163.63,-387.79 162.67,-398.34 170,-390.69 163.63,-387.79"/>
</a>
</g>
<text text-anchor="middle" x="223.25" y="-294.7" font-family="Helvetica,sans-Serif" font-size="14.00" fill="grey"> auxB</text>
<text text-anchor="middle" x="223.25" y="-279.7" font-family="Helvetica,sans-Serif" font-size="14.00" fill="grey">auxX</text>
</g>
<!-- Node7 -->
<g id="Node000007" class="node">
<title>Node7</title>
<g id="a_Node000007"><a xlink:href="classmfem_1_1HypreAMS.html" target="_top" xlink:title="The Auxiliary&#45;space Maxwell Solver in hypre.">
<polygon fill="white" stroke="#666666" points="386.38,-97 261.62,-97 261.62,-74 386.38,-74 386.38,-97"/>
<text text-anchor="middle" x="324" y="-79.7" font-family="Helvetica,sans-Serif" font-size="14.00">mfem::HypreAMS</text>
</a>
</g>
</g>
<!-- Node7&#45;&gt;Node1 -->
<g id="edge7_Node000001_Node000007" class="edge">
<title>Node7&#45;&gt;Node1</title>
<g id="a_edge7_Node000001_Node000007"><a xlink:title=" ">
<path fill="none" stroke="#9a32cd" stroke-dasharray="5,2" d="M341.54,-65.37C353.96,-51.82 370.15,-34.16 380.31,-23.07"/>
<polygon fill="#9a32cd" stroke="#9a32cd" points="339.22,-62.71 335.05,-72.45 344.38,-67.44 339.22,-62.71"/>
</a>
</g>
<text text-anchor="middle" x="382.88" y="-42.7" font-family="Helvetica,sans-Serif" font-size="14.00" fill="grey"> solver</text>
</g>
<!-- Node8&#45;&gt;Node7 -->
<g id="edge8_Node000007_Node000008" class="edge">
<title>Node8&#45;&gt;Node7</title>
<g id="a_edge8_Node000007_Node000008"><a xlink:title=" ">
<path fill="none" stroke="#63b8ff" d="M317.79,-136.2C319.42,-123.17 321.4,-107.31 322.68,-97.07"/>
<polygon fill="#63b8ff" stroke="#63b8ff" points="314.32,-135.71 316.55,-146.06 321.27,-136.57 314.32,-135.71"/>
</a>
</g>
</g>
<!-- Node9&#45;&gt;Node8 -->
<g id="edge10_Node000008_Node000009" class="edge">
<title>Node9&#45;&gt;Node8</title>
<g id="a_edge10_Node000008_Node000009"><a xlink:title=" ">
<path fill="none" stroke="#9a32cd" stroke-dasharray="5,2" d="M315,-225.51C315,-208.17 315,-184.73 315,-171.26"/>
<polygon fill="#9a32cd" stroke="#9a32cd" points="311.5,-225.32 315,-235.32 318.5,-225.32 311.5,-225.32"/>
</a>
</g>
<text text-anchor="middle" x="321.38" y="-198.2" font-family="Helvetica,sans-Serif" font-size="14.00" fill="grey"> A</text>
</g>
<!-- Node10&#45;&gt;Node8 -->
<g id="edge12_Node000008_Node000010" class="edge">
<title>Node10&#45;&gt;Node8</title>
<g id="a_edge12_Node000008_Node000010"><a xlink:title=" ">
<path fill="none" stroke="#9a32cd" stroke-dasharray="5,2" d="M124.55,-229.09C139.52,-216 161.26,-199.02 183.25,-189 203.48,-179.78 226.84,-173.48 248.22,-169.2"/>
<polygon fill="#9a32cd" stroke="#9a32cd" points="122.38,-226.34 117.3,-235.63 127.07,-231.54 122.38,-226.34"/>
</a>
</g>
<text text-anchor="middle" x="190.38" y="-205.7" font-family="Helvetica,sans-Serif" font-size="14.00" fill="grey"> B</text>
<text text-anchor="middle" x="190.38" y="-190.7" font-family="Helvetica,sans-Serif" font-size="14.00" fill="grey">X</text>
</g>
</g>
</svg>
