<?xml version="1.0" encoding="UTF-8" standalone="no"?>
<!DOCTYPE svg PUBLIC "-//W3C//DTD SVG 1.1//EN"
 "http://www.w3.org/Graphics/SVG/1.1/DTD/svg11.dtd">
<!-- Generated by graphviz version 8.0.5 (0)
 -->
<!-- Title: mfem::LinearFormIntegrator Pages: 1 -->
<!--zoomable 794 -->
<svg id="main" version="1.1" xmlns="http://www.w3.org/2000/svg" xmlns:xlink="http://www.w3.org/1999/xlink" xml:space="preserve" onload="init(evt)">
<style type="text/css"><![CDATA[
.edge:hover path { stroke: red; }
.edge:hover polygon { stroke: red; fill: red; }
]]></style>
<script type="text/javascript"><![CDATA[
var edges = document.getElementsByTagName('g');
if (edges && edges.length) {
  for (var i=0;i<edges.length;i++) {
    if (edges[i].id.substr(0,4)=='edge') {
      edges[i].setAttribute('class','edge');
    }
  }
}
]]></script>
        <defs>
                <circle id="rim" cx="0" cy="0" r="7"/>
                <circle id="rim2" cx="0" cy="0" r="3.5"/>
                <g id="zoomPlus">
                        <use xlink:href="#rim" fill="#404040">
                                <set attributeName="fill" to="#808080" begin="zoomplus.mouseover" end="zoomplus.mouseout"/>
                        </use>
                        <path d="M-4,0h8M0,-4v8" fill="none" stroke="white" stroke-width="1.5" pointer-events="none"/>
                </g>
                <g id="zoomMin">
                        <use xlink:href="#rim" fill="#404040">
                                <set attributeName="fill" to="#808080" begin="zoomminus.mouseover" end="zoomminus.mouseout"/>
                        </use>
                        <path d="M-4,0h8" fill="none" stroke="white" stroke-width="1.5" pointer-events="none"/>
                </g>
                <g id="dirArrow">
                        <path fill="none" stroke="white" stroke-width="1.5" d="M0,-3.0v7 M-2.5,-0.5L0,-3.0L2.5,-0.5"/>
                </g>
               <g id="resetDef">
                       <use xlink:href="#rim2" fill="#404040">
                               <set attributeName="fill" to="#808080" begin="reset.mouseover" end="reset.mouseout"/>
                       </use>
               </g>
        </defs>

<script type="text/javascript">
var viewWidth = 757;
var viewHeight = 794;
var sectionId = 'dynsection-0';
</script>
<script xlink:href="svgpan.js"/>
<svg id="graph" class="graph">
<g id="viewport">
<title>mfem::LinearFormIntegrator</title>
<!-- Node1 -->
<g id="node1" class="node">
<title>Node1</title>
<g id="a_node1"><a xlink:title="Abstract base class LinearFormIntegrator.">
<polygon fill="#999999" stroke="#666666" points="190.28,-418 0,-418 0,-396 190.28,-396 190.28,-418"/>
<text text-anchor="middle" x="95.14" y="-402.8" font-family="Helvetica,sans-Serif" font-size="14.00">mfem::LinearFormIntegrator</text>
</a>
</g>
</g>
<!-- Node2 -->
<g id="node2" class="node">
<title>Node2</title>
<g id="a_node2"><a xlink:title=" ">
<polygon fill="white" stroke="#666666" points="430.61,-786 267.52,-786 267.52,-764 430.61,-764 430.61,-786"/>
<text text-anchor="middle" x="349.06" y="-770.8" font-family="Helvetica,sans-Serif" font-size="14.00">SubdomainLFIntegrator</text>
</a>
</g>
</g>
<!-- Node1&#45;&gt;Node2 -->
<g id="edge1" class="edge">
<title>Node1&#45;&gt;Node2</title>
<path fill="none" stroke="#63b8ff" d="M97.15,-429.17C101.28,-491.52 122.09,-669.39 226.28,-755 237.95,-764.59 252.43,-770.41 267.29,-773.82"/>
<polygon fill="#63b8ff" stroke="#63b8ff" points="100.6,-429.09 96.53,-419.3 93.61,-429.49 100.6,-429.09"/>
</g>
<!-- Node3 -->
<g id="node3" class="node">
<title>Node3</title>
<g id="a_node3"><a xlink:title=" ">
<polygon fill="white" stroke="#666666" points="419.32,-746 278.81,-746 278.81,-724 419.32,-724 419.32,-746"/>
<text text-anchor="middle" x="349.06" y="-730.8" font-family="Helvetica,sans-Serif" font-size="14.00">SurfaceLFIntegrator</text>
</a>
</g>
</g>
<!-- Node1&#45;&gt;Node3 -->
<g id="edge2" class="edge">
<title>Node1&#45;&gt;Node3</title>
<path fill="none" stroke="#63b8ff" d="M98.31,-428.92C105.22,-486.18 132.17,-640.92 226.28,-715 241.01,-726.6 259.9,-732.6 278.38,-735.48"/>
<polygon fill="#63b8ff" stroke="#63b8ff" points="101.71,-428.8 97.12,-419.25 94.75,-429.57 101.71,-428.8"/>
</g>
<!-- Node4 -->
<g id="node4" class="node">
<title>Node4</title>
<g id="a_node4"><a xlink:href="classmfem_1_1BoundaryFlowIntegrator.html" target="_top" xlink:title=" ">
<polygon fill="white" stroke="#666666" points="453.16,-706 244.96,-706 244.96,-684 453.16,-684 453.16,-706"/>
<text text-anchor="middle" x="349.06" y="-690.8" font-family="Helvetica,sans-Serif" font-size="14.00">mfem::BoundaryFlowIntegrator</text>
</a>
</g>
</g>
<!-- Node1&#45;&gt;Node4 -->
<g id="edge3" class="edge">
<title>Node1&#45;&gt;Node4</title>
<path fill="none" stroke="#63b8ff" d="M99.78,-428.86C109.69,-480.87 142.23,-612.32 226.28,-675 231.95,-679.23 238.18,-682.7 244.73,-685.53"/>
<polygon fill="#63b8ff" stroke="#63b8ff" points="103.09,-428.44 97.87,-419.22 96.2,-429.68 103.09,-428.44"/>
</g>
<!-- Node5 -->
<g id="node5" class="node">
<title>Node5</title>
<g id="a_node5"><a xlink:href="classmfem_1_1BoundaryLFIntegrator.html" target="_top" xlink:title="Class for boundary integration .">
<polygon fill="white" stroke="#666666" points="446.55,-666 251.58,-666 251.58,-644 446.55,-644 446.55,-666"/>
<text text-anchor="middle" x="349.06" y="-650.8" font-family="Helvetica,sans-Serif" font-size="14.00">mfem::BoundaryLFIntegrator</text>
</a>
</g>
</g>
<!-- Node1&#45;&gt;Node5 -->
<g id="edge4" class="edge">
<title>Node1&#45;&gt;Node5</title>
<path fill="none" stroke="#63b8ff" d="M101.7,-428.73C114.78,-475.05 152.11,-583.44 226.28,-635 233.85,-640.26 242.31,-644.31 251.15,-647.42"/>
<polygon fill="#63b8ff" stroke="#63b8ff" points="104.89,-428.1 98.89,-419.37 98.13,-429.93 104.89,-428.1"/>
</g>
<!-- Node6 -->
<g id="node6" class="node">
<title>Node6</title>
<g id="a_node6"><a xlink:href="classmfem_1_1BoundaryNormalLFIntegrator.html" target="_top" xlink:title="Class for boundary integration .">
<polygon fill="white" stroke="#666666" points="469.11,-626 229.02,-626 229.02,-604 469.11,-604 469.11,-626"/>
<text text-anchor="middle" x="349.06" y="-610.8" font-family="Helvetica,sans-Serif" font-size="14.00">mfem::BoundaryNormalLFIntegrator</text>
</a>
</g>
</g>
<!-- Node1&#45;&gt;Node6 -->
<g id="edge5" class="edge">
<title>Node1&#45;&gt;Node6</title>
<path fill="none" stroke="#63b8ff" d="M104.28,-428.45C120.68,-468.47 161.72,-554.16 226.28,-595 231.53,-598.32 237.16,-601.15 243,-603.55"/>
<polygon fill="#63b8ff" stroke="#63b8ff" points="107.17,-427.24 100.23,-419.23 100.66,-429.82 107.17,-427.24"/>
</g>
<!-- Node7 -->
<g id="node7" class="node">
<title>Node7</title>
<g id="a_node7"><a xlink:href="classmfem_1_1BoundaryTangentialLFIntegrator.html" target="_top" xlink:title="Class for boundary integration &#160;in 2D.">
<polygon fill="white" stroke="#666666" points="440.33,-586 257.79,-586 257.79,-550 440.33,-550 440.33,-586"/>
<text text-anchor="start" x="265.79" y="-570.8" font-family="Helvetica,sans-Serif" font-size="14.00">mfem::BoundaryTangential</text>
<text text-anchor="middle" x="349.06" y="-556.8" font-family="Helvetica,sans-Serif" font-size="14.00">LFIntegrator</text>
</a>
</g>
</g>
<!-- Node1&#45;&gt;Node7 -->
<g id="edge6" class="edge">
<title>Node1&#45;&gt;Node7</title>
<path fill="none" stroke="#63b8ff" d="M109.78,-427.22C131.01,-457.03 174.92,-512.33 226.28,-541 235.93,-546.38 246.56,-550.69 257.41,-554.14"/>
<polygon fill="#63b8ff" stroke="#63b8ff" points="112.29,-425.7 103.7,-419.5 106.55,-429.7 112.29,-425.7"/>
</g>
<!-- Node8 -->
<g id="node8" class="node">
<title>Node8</title>
<g id="a_node8"><a xlink:href="classmfem_1_1DGDirichletLFIntegrator.html" target="_top" xlink:title=" ">
<polygon fill="white" stroke="#666666" points="452.36,-532 245.76,-532 245.76,-510 452.36,-510 452.36,-532"/>
<text text-anchor="middle" x="349.06" y="-516.8" font-family="Helvetica,sans-Serif" font-size="14.00">mfem::DGDirichletLFIntegrator</text>
</a>
</g>
</g>
<!-- Node1&#45;&gt;Node8 -->
<g id="edge7" class="edge">
<title>Node1&#45;&gt;Node8</title>
<path fill="none" stroke="#63b8ff" d="M115.85,-425.84C139.9,-447.65 182.74,-482.89 226.28,-501 234.39,-504.37 243.03,-507.18 251.82,-509.51"/>
<polygon fill="#63b8ff" stroke="#63b8ff" points="118.6,-423.69 108.88,-419.47 113.85,-428.83 118.6,-423.69"/>
</g>
<!-- Node9 -->
<g id="node9" class="node">
<title>Node9</title>
<g id="a_node9"><a xlink:href="classmfem_1_1DGElasticityDirichletLFIntegrator.html" target="_top" xlink:title=" ">
<polygon fill="white" stroke="#666666" points="441.85,-492 256.27,-492 256.27,-456 441.85,-456 441.85,-492"/>
<text text-anchor="start" x="264.27" y="-476.8" font-family="Helvetica,sans-Serif" font-size="14.00">mfem::DGElasticityDirichlet</text>
<text text-anchor="middle" x="349.06" y="-462.8" font-family="Helvetica,sans-Serif" font-size="14.00">LFIntegrator</text>
</a>
</g>
</g>
<!-- Node1&#45;&gt;Node9 -->
<g id="edge8" class="edge">
<title>Node1&#45;&gt;Node9</title>
<path fill="none" stroke="#63b8ff" d="M140.98,-421.75C165.95,-429.72 197.69,-439.45 226.28,-447 237.38,-449.93 249.1,-452.8 260.71,-455.52"/>
<polygon fill="#63b8ff" stroke="#63b8ff" points="142.31,-418.18 131.72,-418.46 140.17,-424.85 142.31,-418.18"/>
</g>
<!-- Node10 -->
<g id="node10" class="node">
<title>Node10</title>
<g id="a_node10"><a xlink:href="classmfem_1_1DeltaLFIntegrator.html" target="_top" xlink:title="Abstract class for integrators that support delta coefficients.">
<polygon fill="white" stroke="#666666" points="432.92,-438 265.2,-438 265.2,-416 432.92,-416 432.92,-438"/>
<text text-anchor="middle" x="349.06" y="-422.8" font-family="Helvetica,sans-Serif" font-size="14.00">mfem::DeltaLFIntegrator</text>
</a>
</g>
</g>
<!-- Node1&#45;&gt;Node10 -->
<g id="edge9" class="edge">
<title>Node1&#45;&gt;Node10</title>
<path fill="none" stroke="#63b8ff" d="M201.35,-415.35C222.6,-417.04 244.65,-418.79 265.01,-420.41"/>
<polygon fill="#63b8ff" stroke="#63b8ff" points="201.91,-411.81 191.66,-414.5 201.36,-418.78 201.91,-411.81"/>
</g>
<!-- Node18 -->
<g id="node18" class="node">
<title>Node18</title>
<g id="a_node18"><a xlink:href="classmfem_1_1QuadratureLFIntegrator.html" target="_top" xlink:title=" ">
<polygon fill="white" stroke="#666666" points="451.99,-398 246.13,-398 246.13,-376 451.99,-376 451.99,-398"/>
<text text-anchor="middle" x="349.06" y="-382.8" font-family="Helvetica,sans-Serif" font-size="14.00">mfem::QuadratureLFIntegrator</text>
</a>
</g>
</g>
<!-- Node1&#45;&gt;Node18 -->
<g id="edge17" class="edge">
<title>Node1&#45;&gt;Node18</title>
<path fill="none" stroke="#63b8ff" d="M201.31,-398.65C216.04,-397.48 231.16,-396.28 245.84,-395.12"/>
<polygon fill="#63b8ff" stroke="#63b8ff" points="201.36,-395.22 191.66,-399.5 201.91,-402.19 201.36,-395.22"/>
</g>
<!-- Node19 -->
<g id="node19" class="node">
<title>Node19</title>
<g id="a_node19"><a xlink:href="classmfem_1_1SBM2DirichletLFIntegrator.html" target="_top" xlink:title=" ">
<polygon fill="white" stroke="#666666" points="460.93,-358 237.2,-358 237.2,-336 460.93,-336 460.93,-358"/>
<text text-anchor="middle" x="349.06" y="-342.8" font-family="Helvetica,sans-Serif" font-size="14.00">mfem::SBM2DirichletLFIntegrator</text>
</a>
</g>
</g>
<!-- Node1&#45;&gt;Node19 -->
<g id="edge18" class="edge">
<title>Node1&#45;&gt;Node19</title>
<path fill="none" stroke="#63b8ff" d="M139.27,-392.14C164.42,-383.87 196.88,-373.9 226.28,-367 239.84,-363.82 254.36,-360.96 268.49,-358.47"/>
<polygon fill="#63b8ff" stroke="#63b8ff" points="138.35,-389.08 129.97,-395.56 140.56,-395.73 138.35,-389.08"/>
</g>
<!-- Node20 -->
<g id="node20" class="node">
<title>Node20</title>
<g id="a_node20"><a xlink:href="classmfem_1_1SBM2NeumannLFIntegrator.html" target="_top" xlink:title=" ">
<polygon fill="white" stroke="#666666" points="466,-318 232.13,-318 232.13,-296 466,-296 466,-318"/>
<text text-anchor="middle" x="349.06" y="-302.8" font-family="Helvetica,sans-Serif" font-size="14.00">mfem::SBM2NeumannLFIntegrator</text>
</a>
</g>
</g>
<!-- Node1&#45;&gt;Node20 -->
<g id="edge19" class="edge">
<title>Node1&#45;&gt;Node20</title>
<path fill="none" stroke="#63b8ff" d="M119.08,-389.03C144.01,-370.46 185.74,-342.12 226.28,-327 235.32,-323.63 244.94,-320.83 254.66,-318.5"/>
<polygon fill="#63b8ff" stroke="#63b8ff" points="117.24,-386.79 111.38,-395.62 121.47,-392.37 117.24,-386.79"/>
</g>
<!-- Node21 -->
<g id="node21" class="node">
<title>Node21</title>
<g id="a_node21"><a xlink:href="classmfem_1_1VectorBoundaryFluxLFIntegrator.html" target="_top" xlink:title=" ">
<polygon fill="white" stroke="#666666" points="441.49,-278 256.63,-278 256.63,-242 441.49,-242 441.49,-278"/>
<text text-anchor="start" x="264.63" y="-262.8" font-family="Helvetica,sans-Serif" font-size="14.00">mfem::VectorBoundaryFlux</text>
<text text-anchor="middle" x="349.06" y="-248.8" font-family="Helvetica,sans-Serif" font-size="14.00">LFIntegrator</text>
</a>
</g>
</g>
<!-- Node1&#45;&gt;Node21 -->
<g id="edge20" class="edge">
<title>Node1&#45;&gt;Node21</title>
<path fill="none" stroke="#63b8ff" d="M111.56,-387.37C133.87,-360.39 177.83,-312.32 226.28,-287 235.69,-282.09 245.95,-278.06 256.41,-274.77"/>
<polygon fill="#63b8ff" stroke="#63b8ff" points="108.43,-384.68 104.85,-394.65 113.87,-389.09 108.43,-384.68"/>
</g>
<!-- Node22 -->
<g id="node22" class="node">
<title>Node22</title>
<g id="a_node22"><a xlink:href="classmfem_1_1VectorBoundaryLFIntegrator.html" target="_top" xlink:title=" ">
<polygon fill="white" stroke="#666666" points="466.4,-224 231.73,-224 231.73,-202 466.4,-202 466.4,-224"/>
<text text-anchor="middle" x="349.06" y="-208.8" font-family="Helvetica,sans-Serif" font-size="14.00">mfem::VectorBoundaryLFIntegrator</text>
</a>
</g>
</g>
<!-- Node1&#45;&gt;Node22 -->
<g id="edge21" class="edge">
<title>Node1&#45;&gt;Node22</title>
<path fill="none" stroke="#63b8ff" d="M105.35,-385.82C122.91,-348.21 164.95,-270.24 226.28,-233 231.78,-229.66 237.66,-226.84 243.75,-224.44"/>
<polygon fill="#63b8ff" stroke="#63b8ff" points="101.82,-384.14 100.88,-394.7 108.19,-387.03 101.82,-384.14"/>
</g>
<!-- Node23 -->
<g id="node23" class="node">
<title>Node23</title>
<g id="a_node23"><a xlink:href="classmfem_1_1VectorFEBoundaryFluxLFIntegrator.html" target="_top" xlink:title=" ">
<polygon fill="white" stroke="#666666" points="450.43,-184 247.69,-184 247.69,-148 450.43,-148 450.43,-184"/>
<text text-anchor="start" x="255.69" y="-168.8" font-family="Helvetica,sans-Serif" font-size="14.00">mfem::VectorFEBoundaryFlux</text>
<text text-anchor="middle" x="349.06" y="-154.8" font-family="Helvetica,sans-Serif" font-size="14.00">LFIntegrator</text>
</a>
</g>
</g>
<!-- Node1&#45;&gt;Node23 -->
<g id="edge22" class="edge">
<title>Node1&#45;&gt;Node23</title>
<path fill="none" stroke="#63b8ff" d="M102.82,-385.41C117.52,-341.68 156.99,-242.61 226.28,-193 232.8,-188.34 239.97,-184.46 247.48,-181.23"/>
<polygon fill="#63b8ff" stroke="#63b8ff" points="99.23,-384.14 99.47,-394.73 105.89,-386.3 99.23,-384.14"/>
</g>
<!-- Node24 -->
<g id="node24" class="node">
<title>Node24</title>
<g id="a_node24"><a xlink:href="classmfem_1_1VectorFEBoundaryTangentLFIntegrator.html" target="_top" xlink:title="Class for boundary integration .">
<polygon fill="white" stroke="#666666" points="462.12,-130 236,-130 236,-94 462.12,-94 462.12,-130"/>
<text text-anchor="start" x="244" y="-114.8" font-family="Helvetica,sans-Serif" font-size="14.00">mfem::VectorFEBoundaryTangent</text>
<text text-anchor="middle" x="349.06" y="-100.8" font-family="Helvetica,sans-Serif" font-size="14.00">LFIntegrator</text>
</a>
</g>
</g>
<!-- Node1&#45;&gt;Node24 -->
<g id="edge23" class="edge">
<title>Node1&#45;&gt;Node24</title>
<path fill="none" stroke="#63b8ff" d="M100.09,-385.09C110.58,-333.5 144.19,-203.83 226.28,-139 230.36,-135.78 234.75,-132.92 239.34,-130.4"/>
<polygon fill="#63b8ff" stroke="#63b8ff" points="96.51,-384.17 98.04,-394.66 103.38,-385.5 96.51,-384.17"/>
</g>
<!-- Node25 -->
<g id="node25" class="node">
<title>Node25</title>
<g id="a_node25"><a xlink:href="classmfem_1_1VectorQuadratureLFIntegrator.html" target="_top" xlink:title=" ">
<polygon fill="white" stroke="#666666" points="471.84,-76 226.28,-76 226.28,-54 471.84,-54 471.84,-76"/>
<text text-anchor="middle" x="349.06" y="-60.8" font-family="Helvetica,sans-Serif" font-size="14.00">mfem::VectorQuadratureLFIntegrator</text>
</a>
</g>
</g>
<!-- Node1&#45;&gt;Node25 -->
<g id="edge24" class="edge">
<title>Node1&#45;&gt;Node25</title>
<path fill="none" stroke="#63b8ff" d="M97.89,-384.89C103.83,-325.73 128.71,-163.05 226.28,-85 230.38,-81.72 234.81,-78.89 239.47,-76.44"/>
<polygon fill="#63b8ff" stroke="#63b8ff" points="94.34,-384.3 96.91,-394.58 101.31,-384.94 94.34,-384.3"/>
</g>
<!-- Node26 -->
<g id="node26" class="node">
<title>Node26</title>
<g id="a_node26"><a xlink:href="classmfem_1_1WhiteGaussianNoiseDomainLFIntegrator.html" target="_top" xlink:title=" ">
<polygon fill="white" stroke="#666666" points="443.81,-36 254.31,-36 254.31,0 443.81,0 443.81,-36"/>
<text text-anchor="start" x="262.31" y="-20.8" font-family="Helvetica,sans-Serif" font-size="14.00">mfem::WhiteGaussianNoise</text>
<text text-anchor="middle" x="349.06" y="-6.8" font-family="Helvetica,sans-Serif" font-size="14.00">DomainLFIntegrator</text>
</a>
</g>
</g>
<!-- Node1&#45;&gt;Node26 -->
<g id="edge25" class="edge">
<title>Node1&#45;&gt;Node26</title>
<path fill="none" stroke="#63b8ff" d="M97.04,-385.08C100.89,-321.85 121.04,-137.67 226.28,-45 234.33,-37.92 243.81,-32.56 253.89,-28.53"/>
<polygon fill="#63b8ff" stroke="#63b8ff" points="93.51,-384.58 96.48,-394.75 100.5,-384.94 93.51,-384.58"/>
</g>
<!-- Node11 -->
<g id="node11" class="node">
<title>Node11</title>
<g id="a_node11"><a xlink:href="classmfem_1_1DomainLFGradIntegrator.html" target="_top" xlink:title="Class for domain integrator .">
<polygon fill="white" stroke="#666666" points="735.48,-572 521.07,-572 521.07,-550 735.48,-550 735.48,-572"/>
<text text-anchor="middle" x="628.27" y="-556.8" font-family="Helvetica,sans-Serif" font-size="14.00">mfem::DomainLFGradIntegrator</text>
</a>
</g>
</g>
<!-- Node10&#45;&gt;Node11 -->
<g id="edge10" class="edge">
<title>Node10&#45;&gt;Node11</title>
<path fill="none" stroke="#63b8ff" d="M443.66,-431.89C453.88,-435.37 463.56,-440.25 471.84,-447 506.52,-475.27 473.21,-512.68 507.84,-541 511.83,-544.26 516.15,-547.08 520.69,-549.51"/>
<polygon fill="#63b8ff" stroke="#63b8ff" points="444.88,-428.3 434.3,-428.85 442.92,-435.02 444.88,-428.3"/>
</g>
<!-- Node12 -->
<g id="node12" class="node">
<title>Node12</title>
<g id="a_node12"><a xlink:href="classmfem_1_1DomainLFIntegrator.html" target="_top" xlink:title="Class for domain integration .">
<polygon fill="white" stroke="#666666" points="719.92,-532 536.63,-532 536.63,-510 719.92,-510 719.92,-532"/>
<text text-anchor="middle" x="628.27" y="-516.8" font-family="Helvetica,sans-Serif" font-size="14.00">mfem::DomainLFIntegrator</text>
</a>
</g>
</g>
<!-- Node10&#45;&gt;Node12 -->
<g id="edge11" class="edge">
<title>Node10&#45;&gt;Node12</title>
<path fill="none" stroke="#63b8ff" d="M443.8,-434.21C453.72,-437.33 463.29,-441.48 471.84,-447 496.08,-462.63 483.62,-485.33 507.84,-501 516.49,-506.6 526.2,-510.78 536.26,-513.9"/>
<polygon fill="#63b8ff" stroke="#63b8ff" points="444.94,-430.62 434.37,-431.33 443.07,-437.37 444.94,-430.62"/>
</g>
<!-- Node13 -->
<g id="node13" class="node">
<title>Node13</title>
<g id="a_node13"><a xlink:href="classmfem_1_1VectorDomainLFGradIntegrator.html" target="_top" xlink:title=" ">
<polygon fill="white" stroke="#666666" points="725.36,-492 531.18,-492 531.18,-456 725.36,-456 725.36,-492"/>
<text text-anchor="start" x="539.18" y="-476.8" font-family="Helvetica,sans-Serif" font-size="14.00">mfem::VectorDomainLFGrad</text>
<text text-anchor="middle" x="628.27" y="-462.8" font-family="Helvetica,sans-Serif" font-size="14.00">Integrator</text>
</a>
</g>
</g>
<!-- Node10&#45;&gt;Node13 -->
<g id="edge12" class="edge">
<title>Node10&#45;&gt;Node13</title>
<path fill="none" stroke="#63b8ff" d="M431.34,-440.24C444.87,-442.48 458.75,-444.79 471.84,-447 490.88,-450.22 511.22,-453.71 530.7,-457.08"/>
<polygon fill="#63b8ff" stroke="#63b8ff" points="432.03,-436.64 421.59,-438.47 430.89,-443.55 432.03,-436.64"/>
</g>
<!-- Node14 -->
<g id="node14" class="node">
<title>Node14</title>
<g id="a_node14"><a xlink:href="classmfem_1_1VectorDomainLFIntegrator.html" target="_top" xlink:title=" ">
<polygon fill="white" stroke="#666666" points="739.76,-438 516.78,-438 516.78,-416 739.76,-416 739.76,-438"/>
<text text-anchor="middle" x="628.27" y="-422.8" font-family="Helvetica,sans-Serif" font-size="14.00">mfem::VectorDomainLFIntegrator</text>
</a>
</g>
</g>
<!-- Node10&#45;&gt;Node14 -->
<g id="edge13" class="edge">
<title>Node10&#45;&gt;Node14</title>
<path fill="none" stroke="#63b8ff" d="M444.13,-427C467.37,-427 492.49,-427 516.45,-427"/>
<polygon fill="#63b8ff" stroke="#63b8ff" points="444.23,-423.5 434.23,-427 444.23,-430.5 444.23,-423.5"/>
</g>
<!-- Node15 -->
<g id="node15" class="node">
<title>Node15</title>
<g id="a_node15"><a xlink:href="classmfem_1_1VectorFEDomainLFCurlIntegrator.html" target="_top" xlink:title="for Nedelec Elements">
<polygon fill="white" stroke="#666666" points="731.58,-398 524.97,-398 524.97,-362 731.58,-362 731.58,-398"/>
<text text-anchor="start" x="532.97" y="-382.8" font-family="Helvetica,sans-Serif" font-size="14.00">mfem::VectorFEDomainLFCurl</text>
<text text-anchor="middle" x="628.27" y="-368.8" font-family="Helvetica,sans-Serif" font-size="14.00">Integrator</text>
</a>
</g>
</g>
<!-- Node10&#45;&gt;Node15 -->
<g id="edge14" class="edge">
<title>Node10&#45;&gt;Node15</title>
<path fill="none" stroke="#63b8ff" d="M431.34,-413.76C444.87,-411.52 458.75,-409.21 471.84,-407 488.99,-404.1 507.19,-400.98 524.88,-397.93"/>
<polygon fill="#63b8ff" stroke="#63b8ff" points="430.89,-410.45 421.59,-415.53 432.03,-417.36 430.89,-410.45"/>
</g>
<!-- Node16 -->
<g id="node16" class="node">
<title>Node16</title>
<g id="a_node16"><a xlink:href="classmfem_1_1VectorFEDomainLFDivIntegrator.html" target="_top" xlink:title="for RT Elements">
<polygon fill="white" stroke="#666666" points="728.86,-344 527.69,-344 527.69,-308 728.86,-308 728.86,-344"/>
<text text-anchor="start" x="535.69" y="-328.8" font-family="Helvetica,sans-Serif" font-size="14.00">mfem::VectorFEDomainLFDiv</text>
<text text-anchor="middle" x="628.27" y="-314.8" font-family="Helvetica,sans-Serif" font-size="14.00">Integrator</text>
</a>
</g>
</g>
<!-- Node10&#45;&gt;Node16 -->
<g id="edge15" class="edge">
<title>Node10&#45;&gt;Node16</title>
<path fill="none" stroke="#63b8ff" d="M443.8,-419.79C453.72,-416.67 463.29,-412.52 471.84,-407 496.08,-391.37 484.08,-369.35 507.84,-353 513.88,-348.84 520.47,-345.32 527.33,-342.33"/>
<polygon fill="#63b8ff" stroke="#63b8ff" points="443.07,-416.63 434.37,-422.67 444.94,-423.38 443.07,-416.63"/>
</g>
<!-- Node17 -->
<g id="node17" class="node">
<title>Node17</title>
<g id="a_node17"><a xlink:href="classmfem_1_1VectorFEDomainLFIntegrator.html" target="_top" xlink:title="for VectorFiniteElements (Nedelec, Raviart&#45;Thomas)">
<polygon fill="white" stroke="#666666" points="748.71,-290 507.84,-290 507.84,-268 748.71,-268 748.71,-290"/>
<text text-anchor="middle" x="628.27" y="-274.8" font-family="Helvetica,sans-Serif" font-size="14.00">mfem::VectorFEDomainLFIntegrator</text>
</a>
</g>
</g>
<!-- Node10&#45;&gt;Node17 -->
<g id="edge16" class="edge">
<title>Node10&#45;&gt;Node17</title>
<path fill="none" stroke="#63b8ff" d="M443.73,-422.54C453.98,-419 463.65,-413.98 471.84,-407 510.34,-374.18 469.39,-331.88 507.84,-299 511.67,-295.72 515.84,-292.88 520.24,-290.43"/>
<polygon fill="#63b8ff" stroke="#63b8ff" points="442.92,-419.43 434.32,-425.62 444.9,-426.14 442.92,-419.43"/>
</g>
</g>
</svg>
        <g id="navigator" transform="translate(0 0)" fill="#404254">
                <rect fill="#f2f5e9" fill-opacity="0.5" stroke="#606060" stroke-width=".5" x="0" y="0" width="60" height="60"/>
                <use id="zoomplus" xlink:href="#zoomPlus" x="17" y="9" onmousedown="handleZoom(evt,'in')"/>
                <use id="zoomminus" xlink:href="#zoomMin" x="42" y="9" onmousedown="handleZoom(evt,'out')"/>
                <use id="reset" xlink:href="#resetDef" x="30" y="36" onmousedown="handleReset()"/>
                <g id="arrowUp" xlink:href="#dirArrow" transform="translate(30 24)" onmousedown="handlePan(0,-1)">
                  <use xlink:href="#rim" fill="#404040">
                        <set attributeName="fill" to="#808080" begin="arrowUp.mouseover" end="arrowUp.mouseout"/>
                  </use>
                  <path fill="none" stroke="white" stroke-width="1.5" d="M0,-3.0v7 M-2.5,-0.5L0,-3.0L2.5,-0.5"/>
                </g>
                <g id="arrowRight" xlink:href="#dirArrow" transform="rotate(90) translate(36 -43)" onmousedown="handlePan(1,0)">
                  <use xlink:href="#rim" fill="#404040">
                        <set attributeName="fill" to="#808080" begin="arrowRight.mouseover" end="arrowRight.mouseout"/>
                  </use>
                  <path fill="none" stroke="white" stroke-width="1.5" d="M0,-3.0v7 M-2.5,-0.5L0,-3.0L2.5,-0.5"/>
                </g>
                <g id="arrowDown" xlink:href="#dirArrow" transform="rotate(180) translate(-30 -48)" onmousedown="handlePan(0,1)">
                  <use xlink:href="#rim" fill="#404040">
                        <set attributeName="fill" to="#808080" begin="arrowDown.mouseover" end="arrowDown.mouseout"/>
                  </use>
                  <path fill="none" stroke="white" stroke-width="1.5" d="M0,-3.0v7 M-2.5,-0.5L0,-3.0L2.5,-0.5"/>
                </g>
                <g id="arrowLeft" xlink:href="#dirArrow" transform="rotate(270) translate(-36 17)" onmousedown="handlePan(-1,0)">
                  <use xlink:href="#rim" fill="#404040">
                        <set attributeName="fill" to="#808080" begin="arrowLeft.mouseover" end="arrowLeft.mouseout"/>
                  </use>
                  <path fill="none" stroke="white" stroke-width="1.5" d="M0,-3.0v7 M-2.5,-0.5L0,-3.0L2.5,-0.5"/>
                </g>
        </g>
        <svg viewBox="0 0 15 15" width="100%" height="30px" preserveAspectRatio="xMaxYMin meet">
         <g id="arrow_out" transform="scale(0.3 0.3)">
          <a xlink:href="classmfem_1_1LinearFormIntegrator__inherit__graph_org.svg" target="_base">
           <rect id="button" ry="5" rx="5" y="6" x="6" height="38" width="38"
                fill="#f2f5e9" fill-opacity="0.5" stroke="#606060" stroke-width="1.0"/>
           <path id="arrow"
             d="M 11.500037,31.436501 C 11.940474,20.09759 22.043105,11.32322 32.158766,21.979434 L 37.068811,17.246167 C 37.068811,17.246167 37.088388,32 37.088388,32 L 22.160133,31.978069 C 22.160133,31.978069 26.997745,27.140456 26.997745,27.140456 C 18.528582,18.264221 13.291696,25.230495 11.500037,31.436501 z"
             style="fill:#404040;"/>
          </a>
         </g>
        </svg>
</svg>
