<?xml version="1.0" encoding="UTF-8" standalone="no"?>
<!DOCTYPE svg PUBLIC "-//W3C//DTD SVG 1.1//EN"
 "http://www.w3.org/Graphics/SVG/1.1/DTD/svg11.dtd">
<!-- Generated by graphviz version 12.0.0 (20240704.0754)
 -->
<!-- Title: mfem::ExplicitRKSolver Pages: 1 -->
<svg width="272pt" height="149pt"
 viewBox="0.00 0.00 272.25 149.00" xmlns="http://www.w3.org/2000/svg" xmlns:xlink="http://www.w3.org/1999/xlink">
<g id="graph0" class="graph" transform="scale(1 1) rotate(0) translate(4 145)">
<title>mfem::ExplicitRKSolver</title>
<!-- Node1 -->
<g id="Node000001" class="node">
<title>Node1</title>
<g id="a_Node000001"><a xlink:title=" ">
<polygon fill="#999999" stroke="#666666" points="210.88,-82 52.38,-82 52.38,-59 210.88,-59 210.88,-82"/>
<text text-anchor="middle" x="131.62" y="-64.7" font-family="Helvetica,sans-Serif" font-size="14.00">mfem::ExplicitRKSolver</text>
</a>
</g>
</g>
<!-- Node3 -->
<g id="Node000003" class="node">
<title>Node3</title>
<g id="a_Node000003"><a xlink:href="classmfem_1_1RK6Solver.html" target="_top" xlink:title=" ">
<polygon fill="white" stroke="#666666" points="123.25,-23 0,-23 0,0 123.25,0 123.25,-23"/>
<text text-anchor="middle" x="61.62" y="-5.7" font-family="Helvetica,sans-Serif" font-size="14.00">mfem::RK6Solver</text>
</a>
</g>
</g>
<!-- Node1&#45;&gt;Node3 -->
<g id="edge2_Node000001_Node000003" class="edge">
<title>Node1&#45;&gt;Node3</title>
<g id="a_edge2_Node000001_Node000003"><a xlink:title=" ">
<path fill="none" stroke="#63b8ff" d="M109.27,-51.3C98.02,-42.14 84.75,-31.33 75.08,-23.46"/>
<polygon fill="#63b8ff" stroke="#63b8ff" points="106.99,-53.95 116.95,-57.55 111.41,-48.53 106.99,-53.95"/>
</a>
</g>
</g>
<!-- Node4 -->
<g id="Node000004" class="node">
<title>Node4</title>
<g id="a_Node000004"><a xlink:href="classmfem_1_1RK8Solver.html" target="_top" xlink:title=" ">
<polygon fill="white" stroke="#666666" points="264.25,-23 141,-23 141,0 264.25,0 264.25,-23"/>
<text text-anchor="middle" x="202.62" y="-5.7" font-family="Helvetica,sans-Serif" font-size="14.00">mfem::RK8Solver</text>
</a>
</g>
</g>
<!-- Node1&#45;&gt;Node4 -->
<g id="edge3_Node000001_Node000004" class="edge">
<title>Node1&#45;&gt;Node4</title>
<g id="a_edge3_Node000001_Node000004"><a xlink:title=" ">
<path fill="none" stroke="#63b8ff" d="M153.95,-51.57C165.44,-42.35 179.07,-31.41 188.98,-23.46"/>
<polygon fill="#63b8ff" stroke="#63b8ff" points="152.1,-48.57 146.49,-57.56 156.48,-54.03 152.1,-48.57"/>
</a>
</g>
</g>
<!-- Node2 -->
<g id="Node000002" class="node">
<title>Node2</title>
<g id="a_Node000002"><a xlink:href="classmfem_1_1ODESolver.html" target="_top" xlink:title="Abstract class for solving systems of ODEs: dx/dt = f(x,t)">
<polygon fill="white" stroke="#666666" points="195.12,-141 68.12,-141 68.12,-118 195.12,-118 195.12,-141"/>
<text text-anchor="middle" x="131.62" y="-123.7" font-family="Helvetica,sans-Serif" font-size="14.00">mfem::ODESolver</text>
</a>
</g>
</g>
<!-- Node2&#45;&gt;Node1 -->
<g id="edge1_Node000001_Node000002" class="edge">
<title>Node2&#45;&gt;Node1</title>
<g id="a_edge1_Node000001_Node000002"><a xlink:title=" ">
<path fill="none" stroke="#63b8ff" d="M131.62,-106.08C131.62,-97.96 131.62,-89.15 131.62,-82.46"/>
<polygon fill="#63b8ff" stroke="#63b8ff" points="128.13,-106 131.63,-116 135.13,-106 128.13,-106"/>
</a>
</g>
</g>
</g>
</svg>
