<?xml version="1.0" encoding="UTF-8" standalone="no"?>
<!DOCTYPE svg PUBLIC "-//W3C//DTD SVG 1.1//EN"
 "http://www.w3.org/Graphics/SVG/1.1/DTD/svg11.dtd">
<!-- Generated by graphviz version 8.0.5 (0)
 -->
<!-- Title: mfem::BackwardEulerSolver Pages: 1 -->
<svg width="408pt" height="233pt"
 viewBox="0.00 0.00 407.81 233.00" xmlns="http://www.w3.org/2000/svg" xmlns:xlink="http://www.w3.org/1999/xlink">
<g id="graph0" class="graph" transform="scale(1 1) rotate(0) translate(4 229)">
<title>mfem::BackwardEulerSolver</title>
<!-- Node1 -->
<g id="node1" class="node">
<title>Node1</title>
<g id="a_node1"><a xlink:title="Backward Euler ODE solver. L&#45;stable.">
<polygon fill="#999999" stroke="#666666" points="315.87,-22 123.26,-22 123.26,0 315.87,0 315.87,-22"/>
<text text-anchor="middle" x="219.56" y="-6.8" font-family="Helvetica,sans-Serif" font-size="14.00">mfem::BackwardEulerSolver</text>
</a>
</g>
</g>
<!-- Node2 -->
<g id="node2" class="node">
<title>Node2</title>
<g id="a_node2"><a xlink:href="classmfem_1_1ODESolver.html" target="_top" xlink:title="Abstract class for solving systems of ODEs: dx/dt = f(x,t)">
<polygon fill="white" stroke="#666666" points="218.96,-94 90.16,-94 90.16,-72 218.96,-72 218.96,-94"/>
<text text-anchor="middle" x="154.56" y="-78.8" font-family="Helvetica,sans-Serif" font-size="14.00">mfem::ODESolver</text>
</a>
</g>
</g>
<!-- Node2&#45;&gt;Node1 -->
<g id="edge1" class="edge">
<title>Node2&#45;&gt;Node1</title>
<path fill="none" stroke="#63b8ff" d="M171.54,-63.72C183.77,-50.55 199.84,-33.24 209.93,-22.37"/>
<polygon fill="#63b8ff" stroke="#63b8ff" points="169.39,-60.96 165.15,-70.67 174.52,-65.72 169.39,-60.96"/>
</g>
<!-- Node3 -->
<g id="node3" class="node">
<title>Node3</title>
<g id="a_node3"><a xlink:href="classmfem_1_1TimeDependentOperator.html" target="_top" xlink:title="Base abstract class for first order time dependent operators.">
<polygon fill="white" stroke="#666666" points="213.13,-166 0,-166 0,-144 213.13,-144 213.13,-166"/>
<text text-anchor="middle" x="106.56" y="-150.8" font-family="Helvetica,sans-Serif" font-size="14.00">mfem::TimeDependentOperator</text>
</a>
</g>
</g>
<!-- Node3&#45;&gt;Node2 -->
<g id="edge2" class="edge">
<title>Node3&#45;&gt;Node2</title>
<path fill="none" stroke="#9a32cd" stroke-dasharray="5,2" d="M119.62,-134.96C128.58,-121.89 140.14,-105.04 147.45,-94.37"/>
<polygon fill="#9a32cd" stroke="#9a32cd" points="116.42,-132.44 113.65,-142.67 122.19,-136.4 116.42,-132.44"/>
<text text-anchor="middle" x="139.45" y="-114.8" font-family="Helvetica,sans-Serif" font-size="14.00"> f</text>
</g>
<!-- Node4 -->
<g id="node4" class="node">
<title>Node4</title>
<g id="a_node4"><a xlink:href="classmfem_1_1Operator.html" target="_top" xlink:title="Abstract operator.">
<polygon fill="white" stroke="#666666" points="163.58,-225 49.55,-225 49.55,-203 163.58,-203 163.58,-225"/>
<text text-anchor="middle" x="106.56" y="-209.8" font-family="Helvetica,sans-Serif" font-size="14.00">mfem::Operator</text>
</a>
</g>
</g>
<!-- Node4&#45;&gt;Node3 -->
<g id="edge3" class="edge">
<title>Node4&#45;&gt;Node3</title>
<path fill="none" stroke="#63b8ff" d="M106.56,-191.67C106.56,-183.03 106.56,-173.44 106.56,-166.39"/>
<polygon fill="#63b8ff" stroke="#63b8ff" points="103.06,-191.55 106.56,-201.55 110.06,-191.55 103.06,-191.55"/>
</g>
<!-- Node5 -->
<g id="node5" class="node">
<title>Node5</title>
<g id="a_node5"><a xlink:href="classmfem_1_1Vector.html" target="_top" xlink:title="Vector data type.">
<polygon fill="white" stroke="#666666" points="354.8,-94 256.33,-94 256.33,-72 354.8,-72 354.8,-94"/>
<text text-anchor="middle" x="305.56" y="-78.8" font-family="Helvetica,sans-Serif" font-size="14.00">mfem::Vector</text>
</a>
</g>
</g>
<!-- Node5&#45;&gt;Node1 -->
<g id="edge4" class="edge">
<title>Node5&#45;&gt;Node1</title>
<path fill="none" stroke="#9a32cd" stroke-dasharray="5,2" d="M284.48,-64.84C268.14,-51.54 246.05,-33.56 232.31,-22.37"/>
<polygon fill="#9a32cd" stroke="#9a32cd" points="281.91,-68.07 291.87,-71.67 286.33,-62.64 281.91,-68.07"/>
<text text-anchor="middle" x="276.01" y="-42.8" font-family="Helvetica,sans-Serif" font-size="14.00"> k</text>
</g>
<!-- Node6 -->
<g id="node6" class="node">
<title>Node6</title>
<g id="a_node6"><a xlink:href="classmfem_1_1Memory.html" target="_top" xlink:title=" ">
<polygon fill="white" stroke="#666666" points="399.81,-166 231.32,-166 231.32,-144 399.81,-144 399.81,-166"/>
<text text-anchor="middle" x="315.56" y="-150.8" font-family="Helvetica,sans-Serif" font-size="14.00">mfem::Memory&lt; real_t &gt;</text>
</a>
</g>
</g>
<!-- Node6&#45;&gt;Node5 -->
<g id="edge5" class="edge">
<title>Node6&#45;&gt;Node5</title>
<path fill="none" stroke="#9a32cd" stroke-dasharray="5,2" d="M312.57,-133.03C310.75,-120.27 308.5,-104.52 307.05,-94.37"/>
<polygon fill="#9a32cd" stroke="#9a32cd" points="309.21,-133.27 314.09,-142.67 316.14,-132.28 309.21,-133.27"/>
<text text-anchor="middle" x="327.13" y="-114.8" font-family="Helvetica,sans-Serif" font-size="14.00"> data</text>
</g>
</g>
</svg>
