<?xml version="1.0" encoding="UTF-8" standalone="no"?>
<!DOCTYPE svg PUBLIC "-//W3C//DTD SVG 1.1//EN"
 "http://www.w3.org/Graphics/SVG/1.1/DTD/svg11.dtd">
<!-- Generated by graphviz version 8.0.5 (0)
 -->
<!-- Title: mfem::UMFPackSolver Pages: 1 -->
<svg width="168pt" height="146pt"
 viewBox="0.00 0.00 167.91 146.00" xmlns="http://www.w3.org/2000/svg" xmlns:xlink="http://www.w3.org/1999/xlink">
<g id="graph0" class="graph" transform="scale(1 1) rotate(0) translate(4 142)">
<title>mfem::UMFPackSolver</title>
<!-- Node1 -->
<g id="node1" class="node">
<title>Node1</title>
<g id="a_node1"><a xlink:title="Direct sparse solver using UMFPACK.">
<polygon fill="#999999" stroke="#666666" points="159.91,-22 0,-22 0,0 159.91,0 159.91,-22"/>
<text text-anchor="middle" x="79.96" y="-6.8" font-family="Helvetica,sans-Serif" font-size="14.00">mfem::UMFPackSolver</text>
</a>
</g>
</g>
<!-- Node2 -->
<g id="node2" class="node">
<title>Node2</title>
<g id="a_node2"><a xlink:href="classmfem_1_1Solver.html" target="_top" xlink:title="Base class for solvers.">
<polygon fill="white" stroke="#666666" points="129.19,-80 30.72,-80 30.72,-58 129.19,-58 129.19,-80"/>
<text text-anchor="middle" x="79.96" y="-64.8" font-family="Helvetica,sans-Serif" font-size="14.00">mfem::Solver</text>
</a>
</g>
</g>
<!-- Node2&#45;&gt;Node1 -->
<g id="edge1" class="edge">
<title>Node2&#45;&gt;Node1</title>
<path fill="none" stroke="#63b8ff" d="M79.96,-46.75C79.96,-38.34 79.96,-29.06 79.96,-22.21"/>
<polygon fill="#63b8ff" stroke="#63b8ff" points="76.46,-46.73 79.96,-56.73 83.46,-46.73 76.46,-46.73"/>
</g>
<!-- Node3 -->
<g id="node3" class="node">
<title>Node3</title>
<g id="a_node3"><a xlink:href="classmfem_1_1Operator.html" target="_top" xlink:title="Abstract operator.">
<polygon fill="white" stroke="#666666" points="136.97,-138 22.94,-138 22.94,-116 136.97,-116 136.97,-138"/>
<text text-anchor="middle" x="79.96" y="-122.8" font-family="Helvetica,sans-Serif" font-size="14.00">mfem::Operator</text>
</a>
</g>
</g>
<!-- Node3&#45;&gt;Node2 -->
<g id="edge2" class="edge">
<title>Node3&#45;&gt;Node2</title>
<path fill="none" stroke="#63b8ff" d="M79.96,-104.75C79.96,-96.34 79.96,-87.06 79.96,-80.21"/>
<polygon fill="#63b8ff" stroke="#63b8ff" points="76.46,-104.73 79.96,-114.73 83.46,-104.73 76.46,-104.73"/>
</g>
</g>
</svg>
