<?xml version="1.0" encoding="UTF-8" standalone="no"?>
<!DOCTYPE svg PUBLIC "-//W3C//DTD SVG 1.1//EN"
 "http://www.w3.org/Graphics/SVG/1.1/DTD/svg11.dtd">
<!-- Generated by graphviz version 8.0.5 (0)
 -->
<!-- Title: Gecko::Graph Pages: 1 -->
<svg width="541pt" height="220pt"
 viewBox="0.00 0.00 541.21 220.00" xmlns="http://www.w3.org/2000/svg" xmlns:xlink="http://www.w3.org/1999/xlink">
<g id="graph0" class="graph" transform="scale(1 1) rotate(0) translate(4 216)">
<title>Gecko::Graph</title>
<!-- Node1 -->
<g id="node1" class="node">
<title>Node1</title>
<g id="a_node1"><a xlink:title=" ">
<polygon fill="#999999" stroke="#666666" points="533.21,-121 430.06,-121 430.06,-99 533.21,-99 533.21,-121"/>
<text text-anchor="middle" x="481.64" y="-105.8" font-family="Helvetica,sans-Serif" font-size="14.00">Gecko::Graph</text>
</a>
</g>
</g>
<!-- Node2 -->
<g id="node2" class="node">
<title>Node2</title>
<g id="a_node2"><a xlink:href="classGecko_1_1Functional.html" target="_top" xlink:title=" ">
<polygon fill="white" stroke="#666666" points="326.74,-212 197.91,-212 197.91,-190 326.74,-190 326.74,-212"/>
<text text-anchor="middle" x="262.32" y="-196.8" font-family="Helvetica,sans-Serif" font-size="14.00">Gecko::Functional</text>
</a>
</g>
</g>
<!-- Node2&#45;&gt;Node1 -->
<g id="edge1" class="edge">
<title>Node2&#45;&gt;Node1</title>
<path fill="none" stroke="#9a32cd" stroke-dasharray="5,2" d="M337.86,-192.45C362.38,-187.71 389.19,-180.37 412.06,-169 435.97,-157.12 458.37,-135 470.71,-121.48"/>
<polygon fill="#9a32cd" stroke="#9a32cd" points="337.37,-189.16 328.15,-194.39 338.61,-196.05 337.37,-189.16"/>
<text text-anchor="middle" x="380.15" y="-192.8" font-family="Helvetica,sans-Serif" font-size="14.00"> functional</text>
</g>
<!-- Node3 -->
<g id="node3" class="node">
<title>Node3</title>
<g id="a_node3"><a xlink:href="classGecko_1_1Progress.html" target="_top" xlink:title=" ">
<polygon fill="white" stroke="#666666" points="322.45,-172 202.19,-172 202.19,-150 322.45,-150 322.45,-172"/>
<text text-anchor="middle" x="262.32" y="-156.8" font-family="Helvetica,sans-Serif" font-size="14.00">Gecko::Progress</text>
</a>
</g>
</g>
<!-- Node3&#45;&gt;Node1 -->
<g id="edge2" class="edge">
<title>Node3&#45;&gt;Node1</title>
<path fill="none" stroke="#9a32cd" stroke-dasharray="5,2" d="M333.57,-154.32C358.63,-150.97 386.88,-146.06 412.06,-139 427.74,-134.6 444.6,-127.51 457.68,-121.44"/>
<polygon fill="#9a32cd" stroke="#9a32cd" points="333.16,-150.97 323.68,-155.71 334.04,-157.92 333.16,-150.97"/>
<text text-anchor="middle" x="380.15" y="-153.8" font-family="Helvetica,sans-Serif" font-size="14.00"> progress</text>
</g>
<!-- Node4 -->
<g id="node4" class="node">
<title>Node4</title>
<g id="a_node4"><a xlink:title=" ">
<polygon fill="white" stroke="#666666" points="329.27,-130 195.38,-130 195.38,-94 329.27,-94 329.27,-130"/>
<text text-anchor="start" x="203.38" y="-114.8" font-family="Helvetica,sans-Serif" font-size="14.00">std::vector&lt; Node::</text>
<text text-anchor="middle" x="262.32" y="-100.8" font-family="Helvetica,sans-Serif" font-size="14.00">Index &gt;</text>
</a>
</g>
</g>
<!-- Node4&#45;&gt;Node1 -->
<g id="edge3" class="edge">
<title>Node4&#45;&gt;Node1</title>
<path fill="none" stroke="#9a32cd" stroke-dasharray="5,2" d="M340.48,-111.08C343.1,-111.05 345.69,-111.02 348.24,-111 375.13,-110.74 405.1,-110.51 429.71,-110.33"/>
<polygon fill="#9a32cd" stroke="#9a32cd" points="340.58,-107.59 330.61,-111.19 340.65,-114.59 340.58,-107.59"/>
<text text-anchor="middle" x="380.15" y="-127.8" font-family="Helvetica,sans-Serif" font-size="14.00"> adj</text>
<text text-anchor="middle" x="380.15" y="-113.8" font-family="Helvetica,sans-Serif" font-size="14.00">perm</text>
</g>
<!-- Node5 -->
<g id="node5" class="node">
<title>Node5</title>
<g id="a_node5"><a xlink:title=" ">
<polygon fill="white" stroke="#666666" points="328.88,-76 195.77,-76 195.77,-40 328.88,-40 328.88,-76"/>
<text text-anchor="start" x="203.77" y="-60.8" font-family="Helvetica,sans-Serif" font-size="14.00">std::vector&lt; Gecko</text>
<text text-anchor="middle" x="262.32" y="-46.8" font-family="Helvetica,sans-Serif" font-size="14.00">::Node &gt;</text>
</a>
</g>
</g>
<!-- Node5&#45;&gt;Node1 -->
<g id="edge4" class="edge">
<title>Node5&#45;&gt;Node1</title>
<path fill="none" stroke="#9a32cd" stroke-dasharray="5,2" d="M339.82,-74.99C363.06,-80.29 388.64,-86.25 412.06,-92 420.43,-94.05 429.35,-96.33 437.89,-98.55"/>
<polygon fill="#9a32cd" stroke="#9a32cd" points="340.85,-71.41 330.33,-72.61 339.31,-78.24 340.85,-71.41"/>
<text text-anchor="middle" x="380.15" y="-94.8" font-family="Helvetica,sans-Serif" font-size="14.00"> node</text>
</g>
<!-- Node6 -->
<g id="node6" class="node">
<title>Node6</title>
<g id="a_node6"><a xlink:href="classGecko_1_1Node.html" target="_top" xlink:title=" ">
<polygon fill="white" stroke="#666666" points="97.71,-69 0,-69 0,-47 97.71,-47 97.71,-69"/>
<text text-anchor="middle" x="48.85" y="-53.8" font-family="Helvetica,sans-Serif" font-size="14.00">Gecko::Node</text>
</a>
</g>
</g>
<!-- Node6&#45;&gt;Node5 -->
<g id="edge5" class="edge">
<title>Node6&#45;&gt;Node5</title>
<path fill="none" stroke="#9a32cd" stroke-dasharray="5,2" d="M108.94,-58C135.9,-58 167.93,-58 195.65,-58"/>
<polygon fill="#9a32cd" stroke="#9a32cd" points="109.11,-54.5 99.11,-58 109.1,-61.5 109.11,-54.5"/>
<text text-anchor="middle" x="146.06" y="-60.8" font-family="Helvetica,sans-Serif" font-size="14.00"> elements</text>
</g>
<!-- Node7 -->
<g id="node7" class="node">
<title>Node7</title>
<g id="a_node7"><a xlink:title=" ">
<polygon fill="white" stroke="#666666" points="330.24,-22 194.41,-22 194.41,0 330.24,0 330.24,-22"/>
<text text-anchor="middle" x="262.32" y="-6.8" font-family="Helvetica,sans-Serif" font-size="14.00">std::vector&lt; Float &gt;</text>
</a>
</g>
</g>
<!-- Node7&#45;&gt;Node1 -->
<g id="edge6" class="edge">
<title>Node7&#45;&gt;Node1</title>
<path fill="none" stroke="#9a32cd" stroke-dasharray="5,2" d="M341.18,-20.69C364.89,-25.74 390.39,-33.4 412.06,-45 437.37,-58.55 460.12,-83.95 471.99,-98.67"/>
<polygon fill="#9a32cd" stroke="#9a32cd" points="341.93,-17.07 331.44,-18.55 340.56,-23.93 341.93,-17.07"/>
<text text-anchor="middle" x="380.15" y="-61.8" font-family="Helvetica,sans-Serif" font-size="14.00"> bond</text>
<text text-anchor="middle" x="380.15" y="-47.8" font-family="Helvetica,sans-Serif" font-size="14.00">weight</text>
</g>
</g>
</svg>
