<?xml version="1.0" encoding="UTF-8" standalone="no"?>
<!DOCTYPE svg PUBLIC "-//W3C//DTD SVG 1.1//EN"
 "http://www.w3.org/Graphics/SVG/1.1/DTD/svg11.dtd">
<!-- Generated by graphviz version 8.0.5 (0)
 -->
<!-- Title: mfem::STRUMPACKMixedPrecisionSolver Pages: 1 -->
<svg width="791pt" height="72pt"
 viewBox="0.00 0.00 790.86 72.00" xmlns="http://www.w3.org/2000/svg" xmlns:xlink="http://www.w3.org/1999/xlink">
<g id="graph0" class="graph" transform="scale(1 1) rotate(0) translate(4 68)">
<title>mfem::STRUMPACKMixedPrecisionSolver</title>
<!-- Node1 -->
<g id="node1" class="node">
<title>Node1</title>
<g id="a_node1"><a xlink:title=" ">
<polygon fill="#999999" stroke="#666666" points="782.86,-50 542.29,-50 542.29,-14 782.86,-14 782.86,-50"/>
<text text-anchor="start" x="550.29" y="-34.8" font-family="Helvetica,sans-Serif" font-size="14.00">mfem::STRUMPACKMixedPrecision</text>
<text text-anchor="middle" x="662.58" y="-20.8" font-family="Helvetica,sans-Serif" font-size="14.00">Solver</text>
</a>
</g>
</g>
<!-- Node2 -->
<g id="node2" class="node">
<title>Node2</title>
<g id="a_node2"><a xlink:href="classmfem_1_1STRUMPACKSolverBase.html" target="_top" xlink:title=" ">
<polygon fill="white" stroke="#666666" points="506.29,-64 284.49,-64 284.49,0 506.29,0 506.29,-64"/>
<text text-anchor="start" x="292.49" y="-48.8" font-family="Helvetica,sans-Serif" font-size="14.00">mfem::STRUMPACKSolverBase</text>
<text text-anchor="start" x="292.49" y="-34.8" font-family="Helvetica,sans-Serif" font-size="14.00">&lt; strumpack::SparseSolverMixed</text>
<text text-anchor="start" x="292.49" y="-20.8" font-family="Helvetica,sans-Serif" font-size="14.00">PrecisionMPIDist&lt; float, double,</text>
<text text-anchor="middle" x="395.39" y="-6.8" font-family="Helvetica,sans-Serif" font-size="14.00"> HYPRE_BigInt &gt; &gt;</text>
</a>
</g>
</g>
<!-- Node2&#45;&gt;Node1 -->
<g id="edge1" class="edge">
<title>Node2&#45;&gt;Node1</title>
<path fill="none" stroke="#63b8ff" d="M517.55,-32C525.65,-32 533.8,-32 541.9,-32"/>
<polygon fill="#63b8ff" stroke="#63b8ff" points="517.55,-28.5 507.55,-32 517.55,-35.5 517.55,-28.5"/>
</g>
<!-- Node3 -->
<g id="node3" class="node">
<title>Node3</title>
<g id="a_node3"><a xlink:href="classmfem_1_1Solver.html" target="_top" xlink:title="Base class for solvers.">
<polygon fill="white" stroke="#666666" points="248.49,-43 150.03,-43 150.03,-21 248.49,-21 248.49,-43"/>
<text text-anchor="middle" x="199.26" y="-27.8" font-family="Helvetica,sans-Serif" font-size="14.00">mfem::Solver</text>
</a>
</g>
</g>
<!-- Node3&#45;&gt;Node2 -->
<g id="edge2" class="edge">
<title>Node3&#45;&gt;Node2</title>
<path fill="none" stroke="#63b8ff" d="M259.64,-32C267.55,-32 275.86,-32 284.3,-32"/>
<polygon fill="#63b8ff" stroke="#63b8ff" points="259.75,-28.5 249.75,-32 259.75,-35.5 259.75,-28.5"/>
</g>
<!-- Node4 -->
<g id="node4" class="node">
<title>Node4</title>
<g id="a_node4"><a xlink:href="classmfem_1_1Operator.html" target="_top" xlink:title="Abstract operator.">
<polygon fill="white" stroke="#666666" points="114.03,-43 0,-43 0,-21 114.03,-21 114.03,-43"/>
<text text-anchor="middle" x="57.01" y="-27.8" font-family="Helvetica,sans-Serif" font-size="14.00">mfem::Operator</text>
</a>
</g>
</g>
<!-- Node4&#45;&gt;Node3 -->
<g id="edge3" class="edge">
<title>Node4&#45;&gt;Node3</title>
<path fill="none" stroke="#63b8ff" d="M125.09,-32C133.39,-32 141.74,-32 149.69,-32"/>
<polygon fill="#63b8ff" stroke="#63b8ff" points="125.25,-28.5 115.25,-32 125.25,-35.5 125.25,-28.5"/>
</g>
</g>
</svg>
