<?xml version="1.0" encoding="UTF-8" standalone="no"?>
<!DOCTYPE svg PUBLIC "-//W3C//DTD SVG 1.1//EN"
 "http://www.w3.org/Graphics/SVG/1.1/DTD/svg11.dtd">
<!-- Generated by graphviz version 8.0.5 (0)
 -->
<!-- Title: mfem::VectorTensorFiniteElement Pages: 1 -->
<svg width="840pt" height="190pt"
 viewBox="0.00 0.00 839.79 190.00" xmlns="http://www.w3.org/2000/svg" xmlns:xlink="http://www.w3.org/1999/xlink">
<g id="graph0" class="graph" transform="scale(1 1) rotate(0) translate(4 186)">
<title>mfem::VectorTensorFiniteElement</title>
<!-- Node1 -->
<g id="node1" class="node">
<title>Node1</title>
<g id="a_node1"><a xlink:title=" ">
<polygon fill="#999999" stroke="#666666" points="577.5,-109 402.76,-109 402.76,-73 577.5,-73 577.5,-109"/>
<text text-anchor="start" x="410.76" y="-93.8" font-family="Helvetica,sans-Serif" font-size="14.00">mfem::VectorTensorFinite</text>
<text text-anchor="middle" x="490.13" y="-79.8" font-family="Helvetica,sans-Serif" font-size="14.00">Element</text>
</a>
</g>
</g>
<!-- Node5 -->
<g id="node5" class="node">
<title>Node5</title>
<g id="a_node5"><a xlink:href="classmfem_1_1ND__HexahedronElement.html" target="_top" xlink:title="Arbitrary order Nedelec elements in 3D on a cube.">
<polygon fill="white" stroke="#666666" points="829.85,-182 615.43,-182 615.43,-160 829.85,-160 829.85,-182"/>
<text text-anchor="middle" x="722.64" y="-166.8" font-family="Helvetica,sans-Serif" font-size="14.00">mfem::ND_HexahedronElement</text>
</a>
</g>
</g>
<!-- Node1&#45;&gt;Node5 -->
<g id="edge4" class="edge">
<title>Node1&#45;&gt;Node5</title>
<path fill="none" stroke="#63b8ff" d="M532.09,-114.59C555.31,-127.06 585.29,-141.67 613.5,-151 623.56,-154.33 634.34,-157.15 645.06,-159.54"/>
<polygon fill="#63b8ff" stroke="#63b8ff" points="534.03,-111.12 523.58,-109.4 530.68,-117.26 534.03,-111.12"/>
</g>
<!-- Node6 -->
<g id="node6" class="node">
<title>Node6</title>
<g id="a_node6"><a xlink:href="classmfem_1_1ND__QuadrilateralElement.html" target="_top" xlink:title="Arbitrary order Nedelec elements in 2D on a square.">
<polygon fill="white" stroke="#666666" points="831.79,-142 613.5,-142 613.5,-120 831.79,-120 831.79,-142"/>
<text text-anchor="middle" x="722.64" y="-126.8" font-family="Helvetica,sans-Serif" font-size="14.00">mfem::ND_QuadrilateralElement</text>
</a>
</g>
</g>
<!-- Node1&#45;&gt;Node6 -->
<g id="edge5" class="edge">
<title>Node1&#45;&gt;Node6</title>
<path fill="none" stroke="#63b8ff" d="M588.57,-107.91C611.1,-111.82 634.56,-115.89 655.39,-119.5"/>
<polygon fill="#63b8ff" stroke="#63b8ff" points="589.4,-104.33 578.95,-106.07 588.2,-111.22 589.4,-104.33"/>
</g>
<!-- Node7 -->
<g id="node7" class="node">
<title>Node7</title>
<g id="a_node7"><a xlink:href="classmfem_1_1ND__SegmentElement.html" target="_top" xlink:title="Arbitrary order Nedelec elements in 1D on a segment.">
<polygon fill="white" stroke="#666666" points="819.73,-102 625.55,-102 625.55,-80 819.73,-80 819.73,-102"/>
<text text-anchor="middle" x="722.64" y="-86.8" font-family="Helvetica,sans-Serif" font-size="14.00">mfem::ND_SegmentElement</text>
</a>
</g>
</g>
<!-- Node1&#45;&gt;Node7 -->
<g id="edge6" class="edge">
<title>Node1&#45;&gt;Node7</title>
<path fill="none" stroke="#63b8ff" d="M588.91,-91C600.94,-91 613.24,-91 625.25,-91"/>
<polygon fill="#63b8ff" stroke="#63b8ff" points="588.95,-87.5 578.95,-91 588.95,-94.5 588.95,-87.5"/>
</g>
<!-- Node8 -->
<g id="node8" class="node">
<title>Node8</title>
<g id="a_node8"><a xlink:href="classmfem_1_1RT__HexahedronElement.html" target="_top" xlink:title="Arbitrary order Raviart&#45;Thomas elements in 3D on a cube.">
<polygon fill="white" stroke="#666666" points="828.95,-62 616.34,-62 616.34,-40 828.95,-40 828.95,-62"/>
<text text-anchor="middle" x="722.64" y="-46.8" font-family="Helvetica,sans-Serif" font-size="14.00">mfem::RT_HexahedronElement</text>
</a>
</g>
</g>
<!-- Node1&#45;&gt;Node8 -->
<g id="edge7" class="edge">
<title>Node1&#45;&gt;Node8</title>
<path fill="none" stroke="#63b8ff" d="M588.57,-74.09C611.1,-70.18 634.56,-66.11 655.39,-62.5"/>
<polygon fill="#63b8ff" stroke="#63b8ff" points="588.2,-70.78 578.95,-75.93 589.4,-77.67 588.2,-70.78"/>
</g>
<!-- Node9 -->
<g id="node9" class="node">
<title>Node9</title>
<g id="a_node9"><a xlink:href="classmfem_1_1RT__QuadrilateralElement.html" target="_top" xlink:title="Arbitrary order Raviart&#45;Thomas elements in 2D on a square.">
<polygon fill="white" stroke="#666666" points="830.89,-22 614.4,-22 614.4,0 830.89,0 830.89,-22"/>
<text text-anchor="middle" x="722.64" y="-6.8" font-family="Helvetica,sans-Serif" font-size="14.00">mfem::RT_QuadrilateralElement</text>
</a>
</g>
</g>
<!-- Node1&#45;&gt;Node9 -->
<g id="edge8" class="edge">
<title>Node1&#45;&gt;Node9</title>
<path fill="none" stroke="#63b8ff" d="M532.09,-67.41C555.31,-54.94 585.29,-40.33 613.5,-31 623.56,-27.67 634.34,-24.85 645.06,-22.46"/>
<polygon fill="#63b8ff" stroke="#63b8ff" points="530.68,-64.74 523.58,-72.6 534.03,-70.88 530.68,-64.74"/>
</g>
<!-- Node2 -->
<g id="node2" class="node">
<title>Node2</title>
<g id="a_node2"><a xlink:href="classmfem_1_1VectorFiniteElement.html" target="_top" xlink:title="Intermediate class for finite elements whose basis functions return vector values.">
<polygon fill="white" stroke="#666666" points="365.6,-122 181.53,-122 181.53,-100 365.6,-100 365.6,-122"/>
<text text-anchor="middle" x="273.57" y="-106.8" font-family="Helvetica,sans-Serif" font-size="14.00">mfem::VectorFiniteElement</text>
</a>
</g>
</g>
<!-- Node2&#45;&gt;Node1 -->
<g id="edge1" class="edge">
<title>Node2&#45;&gt;Node1</title>
<path fill="none" stroke="#63b8ff" d="M376.7,-101.48C385.27,-100.68 393.9,-99.88 402.34,-99.09"/>
<polygon fill="#63b8ff" stroke="#63b8ff" points="376.5,-98.08 366.87,-102.49 377.15,-105.05 376.5,-98.08"/>
</g>
<!-- Node3 -->
<g id="node3" class="node">
<title>Node3</title>
<g id="a_node3"><a xlink:href="classmfem_1_1FiniteElement.html" target="_top" xlink:title="Abstract class for all finite elements.">
<polygon fill="white" stroke="#666666" points="144.37,-122 0,-122 0,-100 144.37,-100 144.37,-122"/>
<text text-anchor="middle" x="72.19" y="-106.8" font-family="Helvetica,sans-Serif" font-size="14.00">mfem::FiniteElement</text>
</a>
</g>
</g>
<!-- Node3&#45;&gt;Node2 -->
<g id="edge2" class="edge">
<title>Node3&#45;&gt;Node2</title>
<path fill="none" stroke="#63b8ff" d="M155.57,-111C164,-111 172.61,-111 181.13,-111"/>
<polygon fill="#63b8ff" stroke="#63b8ff" points="155.6,-107.5 145.6,-111 155.6,-114.5 155.6,-107.5"/>
</g>
<!-- Node4 -->
<g id="node4" class="node">
<title>Node4</title>
<g id="a_node4"><a xlink:href="classmfem_1_1TensorBasisElement.html" target="_top" xlink:title=" ">
<polygon fill="white" stroke="#666666" points="366.76,-82 180.37,-82 180.37,-60 366.76,-60 366.76,-82"/>
<text text-anchor="middle" x="273.57" y="-66.8" font-family="Helvetica,sans-Serif" font-size="14.00">mfem::TensorBasisElement</text>
</a>
</g>
</g>
<!-- Node4&#45;&gt;Node1 -->
<g id="edge3" class="edge">
<title>Node4&#45;&gt;Node1</title>
<path fill="none" stroke="#63b8ff" d="M377.85,-80.63C386.03,-81.39 394.25,-82.16 402.31,-82.91"/>
<polygon fill="#63b8ff" stroke="#63b8ff" points="378.4,-77.07 368.12,-79.63 377.75,-84.04 378.4,-77.07"/>
</g>
</g>
</svg>
