<?xml version="1.0" encoding="UTF-8" standalone="no"?>
<!DOCTYPE svg PUBLIC "-//W3C//DTD SVG 1.1//EN"
 "http://www.w3.org/Graphics/SVG/1.1/DTD/svg11.dtd">
<!-- Generated by graphviz version 8.0.5 (0)
 -->
<!-- Title: mfem::PositiveFiniteElement Pages: 1 -->
<!--zoomable 431 -->
<svg id="main" version="1.1" xmlns="http://www.w3.org/2000/svg" xmlns:xlink="http://www.w3.org/1999/xlink" xml:space="preserve" onload="init(evt)">
<style type="text/css"><![CDATA[
.edge:hover path { stroke: red; }
.edge:hover polygon { stroke: red; fill: red; }
]]></style>
<script type="text/javascript"><![CDATA[
var edges = document.getElementsByTagName('g');
if (edges && edges.length) {
  for (var i=0;i<edges.length;i++) {
    if (edges[i].id.substr(0,4)=='edge') {
      edges[i].setAttribute('class','edge');
    }
  }
}
]]></script>
        <defs>
                <circle id="rim" cx="0" cy="0" r="7"/>
                <circle id="rim2" cx="0" cy="0" r="3.5"/>
                <g id="zoomPlus">
                        <use xlink:href="#rim" fill="#404040">
                                <set attributeName="fill" to="#808080" begin="zoomplus.mouseover" end="zoomplus.mouseout"/>
                        </use>
                        <path d="M-4,0h8M0,-4v8" fill="none" stroke="white" stroke-width="1.5" pointer-events="none"/>
                </g>
                <g id="zoomMin">
                        <use xlink:href="#rim" fill="#404040">
                                <set attributeName="fill" to="#808080" begin="zoomminus.mouseover" end="zoomminus.mouseout"/>
                        </use>
                        <path d="M-4,0h8" fill="none" stroke="white" stroke-width="1.5" pointer-events="none"/>
                </g>
                <g id="dirArrow">
                        <path fill="none" stroke="white" stroke-width="1.5" d="M0,-3.0v7 M-2.5,-0.5L0,-3.0L2.5,-0.5"/>
                </g>
               <g id="resetDef">
                       <use xlink:href="#rim2" fill="#404040">
                               <set attributeName="fill" to="#808080" begin="reset.mouseover" end="reset.mouseout"/>
                       </use>
               </g>
        </defs>

<script type="text/javascript">
var viewWidth = 1145;
var viewHeight = 431;
var sectionId = 'dynsection-0';
</script>
<script xlink:href="svgpan.js"/>
<svg id="graph" class="graph">
<g id="viewport">
<title>mfem::PositiveFiniteElement</title>
<!-- Node1 -->
<g id="node1" class="node">
<title>Node1</title>
<g id="a_node1"><a xlink:title="Class for finite elements utilizing the always positive Bernstein basis.">
<polygon fill="#999999" stroke="#666666" points="593.82,-263 400.43,-263 400.43,-241 593.82,-241 593.82,-263"/>
<text text-anchor="middle" x="497.12" y="-247.8" font-family="Helvetica,sans-Serif" font-size="14.00">mfem::PositiveFiniteElement</text>
</a>
</g>
</g>
<!-- Node4 -->
<g id="node4" class="node">
<title>Node4</title>
<g id="a_node4"><a xlink:href="classmfem_1_1BiQuadPos2DFiniteElement.html" target="_top" xlink:title=" ">
<polygon fill="white" stroke="#666666" points="863.69,-423 630.61,-423 630.61,-401 863.69,-401 863.69,-423"/>
<text text-anchor="middle" x="747.15" y="-407.8" font-family="Helvetica,sans-Serif" font-size="14.00">mfem::BiQuadPos2DFiniteElement</text>
</a>
</g>
</g>
<!-- Node1&#45;&gt;Node4 -->
<g id="edge3" class="edge">
<title>Node1&#45;&gt;Node4</title>
<path fill="none" stroke="#63b8ff" d="M510.96,-272.52C531.76,-303.86 575.98,-363.07 629.82,-392 636.05,-395.35 642.71,-398.15 649.57,-400.51"/>
<polygon fill="#63b8ff" stroke="#63b8ff" points="513.42,-270.88 505.05,-264.39 507.55,-274.69 513.42,-270.88"/>
</g>
<!-- Node5 -->
<g id="node5" class="node">
<title>Node5</title>
<g id="a_node5"><a xlink:href="classmfem_1_1H1Pos__TetrahedronElement.html" target="_top" xlink:title=" ">
<polygon fill="white" stroke="#666666" points="864.48,-383 629.82,-383 629.82,-361 864.48,-361 864.48,-383"/>
<text text-anchor="middle" x="747.15" y="-367.8" font-family="Helvetica,sans-Serif" font-size="14.00">mfem::H1Pos_TetrahedronElement</text>
</a>
</g>
</g>
<!-- Node1&#45;&gt;Node5 -->
<g id="edge4" class="edge">
<title>Node1&#45;&gt;Node5</title>
<path fill="none" stroke="#63b8ff" d="M516.46,-270.62C540.32,-293.66 584.36,-332.25 629.82,-352 637.62,-355.39 645.95,-358.2 654.43,-360.54"/>
<polygon fill="#63b8ff" stroke="#63b8ff" points="519.48,-268.69 509.89,-264.18 514.57,-273.68 519.48,-268.69"/>
</g>
<!-- Node6 -->
<g id="node6" class="node">
<title>Node6</title>
<g id="a_node6"><a xlink:href="classmfem_1_1H1Pos__TriangleElement.html" target="_top" xlink:title="Arbitrary order H1 elements in 2D utilizing the Bernstein basis on a triangle.">
<polygon fill="white" stroke="#666666" points="852.16,-343 642.14,-343 642.14,-321 852.16,-321 852.16,-343"/>
<text text-anchor="middle" x="747.15" y="-327.8" font-family="Helvetica,sans-Serif" font-size="14.00">mfem::H1Pos_TriangleElement</text>
</a>
</g>
</g>
<!-- Node1&#45;&gt;Node6 -->
<g id="edge5" class="edge">
<title>Node1&#45;&gt;Node6</title>
<path fill="none" stroke="#63b8ff" d="M528.14,-268.37C554.28,-281.97 593.57,-300.83 629.82,-312 640.59,-315.32 652.1,-318.13 663.54,-320.51"/>
<polygon fill="#63b8ff" stroke="#63b8ff" points="529.94,-264.84 519.46,-263.27 526.67,-271.03 529.94,-264.84"/>
</g>
<!-- Node7 -->
<g id="node7" class="node">
<title>Node7</title>
<g id="a_node7"><a xlink:href="classmfem_1_1H1Pos__WedgeElement.html" target="_top" xlink:title="Arbitrary order H1 elements in 3D utilizing the Bernstein basis on a wedge.">
<polygon fill="white" stroke="#666666" points="849.18,-303 645.12,-303 645.12,-281 849.18,-281 849.18,-303"/>
<text text-anchor="middle" x="747.15" y="-287.8" font-family="Helvetica,sans-Serif" font-size="14.00">mfem::H1Pos_WedgeElement</text>
</a>
</g>
</g>
<!-- Node1&#45;&gt;Node7 -->
<g id="edge6" class="edge">
<title>Node1&#45;&gt;Node7</title>
<path fill="none" stroke="#63b8ff" d="M579.9,-265.19C610.66,-270.15 645.36,-275.74 675.06,-280.54"/>
<polygon fill="#63b8ff" stroke="#63b8ff" points="580.63,-261.6 570.2,-263.46 579.51,-268.51 580.63,-261.6"/>
</g>
<!-- Node8 -->
<g id="node8" class="node">
<title>Node8</title>
<g id="a_node8"><a xlink:href="classmfem_1_1L2Pos__TetrahedronElement.html" target="_top" xlink:title=" ">
<polygon fill="white" stroke="#666666" points="863.32,-263 630.98,-263 630.98,-241 863.32,-241 863.32,-263"/>
<text text-anchor="middle" x="747.15" y="-247.8" font-family="Helvetica,sans-Serif" font-size="14.00">mfem::L2Pos_TetrahedronElement</text>
</a>
</g>
</g>
<!-- Node1&#45;&gt;Node8 -->
<g id="edge7" class="edge">
<title>Node1&#45;&gt;Node8</title>
<path fill="none" stroke="#63b8ff" d="M604.79,-252C613.35,-252 622.02,-252 630.63,-252"/>
<polygon fill="#63b8ff" stroke="#63b8ff" points="605.02,-248.5 595.02,-252 605.02,-255.5 605.02,-248.5"/>
</g>
<!-- Node9 -->
<g id="node9" class="node">
<title>Node9</title>
<g id="a_node9"><a xlink:href="classmfem_1_1L2Pos__TriangleElement.html" target="_top" xlink:title="Arbitrary order L2 elements in 2D utilizing the Bernstein basis on a triangle.">
<polygon fill="white" stroke="#666666" points="850.99,-223 643.31,-223 643.31,-201 850.99,-201 850.99,-223"/>
<text text-anchor="middle" x="747.15" y="-207.8" font-family="Helvetica,sans-Serif" font-size="14.00">mfem::L2Pos_TriangleElement</text>
</a>
</g>
</g>
<!-- Node1&#45;&gt;Node9 -->
<g id="edge8" class="edge">
<title>Node1&#45;&gt;Node9</title>
<path fill="none" stroke="#63b8ff" d="M579.9,-238.81C610.66,-233.85 645.36,-228.26 675.06,-223.46"/>
<polygon fill="#63b8ff" stroke="#63b8ff" points="579.51,-235.49 570.2,-240.54 580.63,-242.4 579.51,-235.49"/>
</g>
<!-- Node10 -->
<g id="node10" class="node">
<title>Node10</title>
<g id="a_node10"><a xlink:href="classmfem_1_1L2Pos__WedgeElement.html" target="_top" xlink:title="Arbitrary order L2 elements in 3D utilizing the Bernstein basis on a wedge.">
<polygon fill="white" stroke="#666666" points="848.02,-183 646.28,-183 646.28,-161 848.02,-161 848.02,-183"/>
<text text-anchor="middle" x="747.15" y="-167.8" font-family="Helvetica,sans-Serif" font-size="14.00">mfem::L2Pos_WedgeElement</text>
</a>
</g>
</g>
<!-- Node1&#45;&gt;Node10 -->
<g id="edge9" class="edge">
<title>Node1&#45;&gt;Node10</title>
<path fill="none" stroke="#63b8ff" d="M528.14,-235.63C554.28,-222.03 593.57,-203.17 629.82,-192 640.59,-188.68 652.1,-185.87 663.54,-183.49"/>
<polygon fill="#63b8ff" stroke="#63b8ff" points="526.67,-232.97 519.46,-240.73 529.94,-239.16 526.67,-232.97"/>
</g>
<!-- Node11 -->
<g id="node11" class="node">
<title>Node11</title>
<g id="a_node11"><a xlink:href="classmfem_1_1PositiveTensorFiniteElement.html" target="_top" xlink:title=" ">
<polygon fill="white" stroke="#666666" points="839.18,-143 655.12,-143 655.12,-107 839.18,-107 839.18,-143"/>
<text text-anchor="start" x="663.12" y="-127.8" font-family="Helvetica,sans-Serif" font-size="14.00">mfem::PositiveTensorFinite</text>
<text text-anchor="middle" x="747.15" y="-113.8" font-family="Helvetica,sans-Serif" font-size="14.00">Element</text>
</a>
</g>
</g>
<!-- Node1&#45;&gt;Node11 -->
<g id="edge10" class="edge">
<title>Node1&#45;&gt;Node11</title>
<path fill="none" stroke="#63b8ff" d="M517.02,-233.44C541.16,-210.8 585.18,-172.95 629.82,-152 637.7,-148.3 646.13,-145.09 654.71,-142.3"/>
<polygon fill="#63b8ff" stroke="#63b8ff" points="515.17,-230.33 510.34,-239.77 520,-235.4 515.17,-230.33"/>
</g>
<!-- Node18 -->
<g id="node18" class="node">
<title>Node18</title>
<g id="a_node18"><a xlink:href="classmfem_1_1QuadPos1DFiniteElement.html" target="_top" xlink:title="A 1D quadratic positive element utilizing the 2nd order Bernstein basis.">
<polygon fill="white" stroke="#666666" points="857.47,-89 636.83,-89 636.83,-67 857.47,-67 857.47,-89"/>
<text text-anchor="middle" x="747.15" y="-73.8" font-family="Helvetica,sans-Serif" font-size="14.00">mfem::QuadPos1DFiniteElement</text>
</a>
</g>
</g>
<!-- Node1&#45;&gt;Node18 -->
<g id="edge17" class="edge">
<title>Node1&#45;&gt;Node18</title>
<path fill="none" stroke="#63b8ff" d="M509.3,-231.38C528.86,-197.47 572.72,-130.45 629.82,-98 635.7,-94.66 642,-91.85 648.5,-89.48"/>
<polygon fill="#63b8ff" stroke="#63b8ff" points="505.87,-229.34 504.02,-239.77 511.97,-232.77 505.87,-229.34"/>
</g>
<!-- Node2 -->
<g id="node2" class="node">
<title>Node2</title>
<g id="a_node2"><a xlink:href="classmfem_1_1ScalarFiniteElement.html" target="_top" xlink:title="Class for finite elements with basis functions that return scalar values.">
<polygon fill="white" stroke="#666666" points="364.43,-263 180.37,-263 180.37,-241 364.43,-241 364.43,-263"/>
<text text-anchor="middle" x="272.4" y="-247.8" font-family="Helvetica,sans-Serif" font-size="14.00">mfem::ScalarFiniteElement</text>
</a>
</g>
</g>
<!-- Node2&#45;&gt;Node1 -->
<g id="edge1" class="edge">
<title>Node2&#45;&gt;Node1</title>
<path fill="none" stroke="#63b8ff" d="M375.63,-252C383.74,-252 391.91,-252 399.97,-252"/>
<polygon fill="#63b8ff" stroke="#63b8ff" points="375.63,-248.5 365.63,-252 375.63,-255.5 375.63,-248.5"/>
</g>
<!-- Node3 -->
<g id="node3" class="node">
<title>Node3</title>
<g id="a_node3"><a xlink:href="classmfem_1_1FiniteElement.html" target="_top" xlink:title="Abstract class for all finite elements.">
<polygon fill="white" stroke="#666666" points="144.37,-263 0,-263 0,-241 144.37,-241 144.37,-263"/>
<text text-anchor="middle" x="72.19" y="-247.8" font-family="Helvetica,sans-Serif" font-size="14.00">mfem::FiniteElement</text>
</a>
</g>
</g>
<!-- Node3&#45;&gt;Node2 -->
<g id="edge2" class="edge">
<title>Node3&#45;&gt;Node2</title>
<path fill="none" stroke="#63b8ff" d="M155.59,-252C163.62,-252 171.81,-252 179.93,-252"/>
<polygon fill="#63b8ff" stroke="#63b8ff" points="155.75,-248.5 145.75,-252 155.75,-255.5 155.75,-248.5"/>
</g>
<!-- Node12 -->
<g id="node12" class="node">
<title>Node12</title>
<g id="a_node12"><a xlink:href="classmfem_1_1H1Pos__HexahedronElement.html" target="_top" xlink:title="Arbitrary order H1 elements in 3D utilizing the Bernstein basis on a cube.">
<polygon fill="white" stroke="#666666" points="1136.7,-250 900.48,-250 900.48,-228 1136.7,-228 1136.7,-250"/>
<text text-anchor="middle" x="1018.59" y="-234.8" font-family="Helvetica,sans-Serif" font-size="14.00">mfem::H1Pos_HexahedronElement</text>
</a>
</g>
</g>
<!-- Node11&#45;&gt;Node12 -->
<g id="edge11" class="edge">
<title>Node11&#45;&gt;Node12</title>
<path fill="none" stroke="#63b8ff" d="M849.39,-142.58C854.72,-145.3 859.8,-148.42 864.48,-152 891.33,-172.54 873.04,-199.26 900.48,-219 905.09,-222.31 910.05,-225.14 915.25,-227.56"/>
<polygon fill="#63b8ff" stroke="#63b8ff" points="851.12,-139.07 840.56,-138.12 848.22,-145.44 851.12,-139.07"/>
</g>
<!-- Node13 -->
<g id="node13" class="node">
<title>Node13</title>
<g id="a_node13"><a xlink:href="classmfem_1_1H1Pos__QuadrilateralElement.html" target="_top" xlink:title="Arbitrary order H1 elements in 2D utilizing the Bernstein basis on a square.">
<polygon fill="white" stroke="#666666" points="1112.96,-210 924.22,-210 924.22,-174 1112.96,-174 1112.96,-210"/>
<text text-anchor="start" x="932.22" y="-194.8" font-family="Helvetica,sans-Serif" font-size="14.00">mfem::H1Pos_Quadrilateral</text>
<text text-anchor="middle" x="1018.59" y="-180.8" font-family="Helvetica,sans-Serif" font-size="14.00">Element</text>
</a>
</g>
</g>
<!-- Node11&#45;&gt;Node13 -->
<g id="edge12" class="edge">
<title>Node11&#45;&gt;Node13</title>
<path fill="none" stroke="#63b8ff" d="M843.45,-146.15C850.59,-148.03 857.67,-149.99 864.48,-152 880.79,-156.82 884.16,-160.19 900.48,-165 910.69,-168.01 921.48,-170.89 932.21,-173.57"/>
<polygon fill="#63b8ff" stroke="#63b8ff" points="844.52,-142.55 833.96,-143.45 842.77,-149.33 844.52,-142.55"/>
</g>
<!-- Node14 -->
<g id="node14" class="node">
<title>Node14</title>
<g id="a_node14"><a xlink:href="classmfem_1_1H1Pos__SegmentElement.html" target="_top" xlink:title="Arbitrary order H1 elements in 1D utilizing the Bernstein basis.">
<polygon fill="white" stroke="#666666" points="1126.58,-156 910.6,-156 910.6,-134 1126.58,-134 1126.58,-156"/>
<text text-anchor="middle" x="1018.59" y="-140.8" font-family="Helvetica,sans-Serif" font-size="14.00">mfem::H1Pos_SegmentElement</text>
</a>
</g>
</g>
<!-- Node11&#45;&gt;Node14 -->
<g id="edge13" class="edge">
<title>Node11&#45;&gt;Node14</title>
<path fill="none" stroke="#63b8ff" d="M850.16,-132.57C869.78,-134.03 890.38,-135.56 910.17,-137.03"/>
<polygon fill="#63b8ff" stroke="#63b8ff" points="850.6,-129.02 840.37,-131.77 850.08,-136 850.6,-129.02"/>
</g>
<!-- Node15 -->
<g id="node15" class="node">
<title>Node15</title>
<g id="a_node15"><a xlink:href="classmfem_1_1L2Pos__HexahedronElement.html" target="_top" xlink:title="Arbitrary order L2 elements in 3D utilizing the Bernstein basis on a cube.">
<polygon fill="white" stroke="#666666" points="1135.54,-116 901.64,-116 901.64,-94 1135.54,-94 1135.54,-116"/>
<text text-anchor="middle" x="1018.59" y="-100.8" font-family="Helvetica,sans-Serif" font-size="14.00">mfem::L2Pos_HexahedronElement</text>
</a>
</g>
</g>
<!-- Node11&#45;&gt;Node15 -->
<g id="edge14" class="edge">
<title>Node11&#45;&gt;Node15</title>
<path fill="none" stroke="#63b8ff" d="M850.19,-117.43C866.84,-116.19 884.19,-114.9 901.15,-113.64"/>
<polygon fill="#63b8ff" stroke="#63b8ff" points="850.08,-114 840.37,-118.23 850.6,-120.98 850.08,-114"/>
</g>
<!-- Node16 -->
<g id="node16" class="node">
<title>Node16</title>
<g id="a_node16"><a xlink:href="classmfem_1_1L2Pos__QuadrilateralElement.html" target="_top" xlink:title="Arbitrary order L2 elements in 2D utilizing the Bernstein basis on a square.">
<polygon fill="white" stroke="#666666" points="1111.8,-76 925.38,-76 925.38,-40 1111.8,-40 1111.8,-76"/>
<text text-anchor="start" x="933.38" y="-60.8" font-family="Helvetica,sans-Serif" font-size="14.00">mfem::L2Pos_Quadrilateral</text>
<text text-anchor="middle" x="1018.59" y="-46.8" font-family="Helvetica,sans-Serif" font-size="14.00">Element</text>
</a>
</g>
</g>
<!-- Node11&#45;&gt;Node16 -->
<g id="edge15" class="edge">
<title>Node11&#45;&gt;Node16</title>
<path fill="none" stroke="#63b8ff" d="M843.45,-103.85C850.59,-101.97 857.67,-100.01 864.48,-98 880.79,-93.18 884.16,-89.81 900.48,-85 910.69,-81.99 921.48,-79.11 932.21,-76.43"/>
<polygon fill="#63b8ff" stroke="#63b8ff" points="842.77,-100.67 833.96,-106.55 844.52,-107.45 842.77,-100.67"/>
</g>
<!-- Node17 -->
<g id="node17" class="node">
<title>Node17</title>
<g id="a_node17"><a xlink:href="classmfem_1_1L2Pos__SegmentElement.html" target="_top" xlink:title="Arbitrary order L2 elements in 1D utilizing the Bernstein basis on a segment.">
<polygon fill="white" stroke="#666666" points="1125.42,-22 911.76,-22 911.76,0 1125.42,0 1125.42,-22"/>
<text text-anchor="middle" x="1018.59" y="-6.8" font-family="Helvetica,sans-Serif" font-size="14.00">mfem::L2Pos_SegmentElement</text>
</a>
</g>
</g>
<!-- Node11&#45;&gt;Node17 -->
<g id="edge16" class="edge">
<title>Node11&#45;&gt;Node17</title>
<path fill="none" stroke="#63b8ff" d="M849.39,-107.42C854.72,-104.7 859.8,-101.58 864.48,-98 891.33,-77.46 873.04,-50.74 900.48,-31 905.09,-27.69 910.05,-24.86 915.25,-22.44"/>
<polygon fill="#63b8ff" stroke="#63b8ff" points="848.22,-104.56 840.56,-111.88 851.12,-110.93 848.22,-104.56"/>
</g>
</g>
</svg>
        <g id="navigator" transform="translate(0 0)" fill="#404254">
                <rect fill="#f2f5e9" fill-opacity="0.5" stroke="#606060" stroke-width=".5" x="0" y="0" width="60" height="60"/>
                <use id="zoomplus" xlink:href="#zoomPlus" x="17" y="9" onmousedown="handleZoom(evt,'in')"/>
                <use id="zoomminus" xlink:href="#zoomMin" x="42" y="9" onmousedown="handleZoom(evt,'out')"/>
                <use id="reset" xlink:href="#resetDef" x="30" y="36" onmousedown="handleReset()"/>
                <g id="arrowUp" xlink:href="#dirArrow" transform="translate(30 24)" onmousedown="handlePan(0,-1)">
                  <use xlink:href="#rim" fill="#404040">
                        <set attributeName="fill" to="#808080" begin="arrowUp.mouseover" end="arrowUp.mouseout"/>
                  </use>
                  <path fill="none" stroke="white" stroke-width="1.5" d="M0,-3.0v7 M-2.5,-0.5L0,-3.0L2.5,-0.5"/>
                </g>
                <g id="arrowRight" xlink:href="#dirArrow" transform="rotate(90) translate(36 -43)" onmousedown="handlePan(1,0)">
                  <use xlink:href="#rim" fill="#404040">
                        <set attributeName="fill" to="#808080" begin="arrowRight.mouseover" end="arrowRight.mouseout"/>
                  </use>
                  <path fill="none" stroke="white" stroke-width="1.5" d="M0,-3.0v7 M-2.5,-0.5L0,-3.0L2.5,-0.5"/>
                </g>
                <g id="arrowDown" xlink:href="#dirArrow" transform="rotate(180) translate(-30 -48)" onmousedown="handlePan(0,1)">
                  <use xlink:href="#rim" fill="#404040">
                        <set attributeName="fill" to="#808080" begin="arrowDown.mouseover" end="arrowDown.mouseout"/>
                  </use>
                  <path fill="none" stroke="white" stroke-width="1.5" d="M0,-3.0v7 M-2.5,-0.5L0,-3.0L2.5,-0.5"/>
                </g>
                <g id="arrowLeft" xlink:href="#dirArrow" transform="rotate(270) translate(-36 17)" onmousedown="handlePan(-1,0)">
                  <use xlink:href="#rim" fill="#404040">
                        <set attributeName="fill" to="#808080" begin="arrowLeft.mouseover" end="arrowLeft.mouseout"/>
                  </use>
                  <path fill="none" stroke="white" stroke-width="1.5" d="M0,-3.0v7 M-2.5,-0.5L0,-3.0L2.5,-0.5"/>
                </g>
        </g>
        <svg viewBox="0 0 15 15" width="100%" height="30px" preserveAspectRatio="xMaxYMin meet">
         <g id="arrow_out" transform="scale(0.3 0.3)">
          <a xlink:href="classmfem_1_1PositiveFiniteElement__inherit__graph_org.svg" target="_base">
           <rect id="button" ry="5" rx="5" y="6" x="6" height="38" width="38"
                fill="#f2f5e9" fill-opacity="0.5" stroke="#606060" stroke-width="1.0"/>
           <path id="arrow"
             d="M 11.500037,31.436501 C 11.940474,20.09759 22.043105,11.32322 32.158766,21.979434 L 37.068811,17.246167 C 37.068811,17.246167 37.088388,32 37.088388,32 L 22.160133,31.978069 C 22.160133,31.978069 26.997745,27.140456 26.997745,27.140456 C 18.528582,18.264221 13.291696,25.230495 11.500037,31.436501 z"
             style="fill:#404040;"/>
          </a>
         </g>
        </svg>
</svg>
