<?xml version="1.0" encoding="UTF-8" standalone="no"?>
<!DOCTYPE svg PUBLIC "-//W3C//DTD SVG 1.1//EN"
 "http://www.w3.org/Graphics/SVG/1.1/DTD/svg11.dtd">
<!-- Generated by graphviz version 12.0.0 (20240704.0754)
 -->
<!-- Title: mfem::LinearNonConf3DFECollection Pages: 1 -->
<!--zoomable 209 -->

<svg id="main" version="1.1" xmlns="http://www.w3.org/2000/svg" xmlns:xlink="http://www.w3.org/1999/xlink" xml:space="preserve" onload="init(evt)">
<style type="text/css"><![CDATA[
.node, .edge {opacity: 0.7;}
.node.selected, .edge.selected {opacity: 1;}
.edge:hover path { stroke: red; }
.edge:hover polygon { stroke: red; fill: red; }
]]></style>

<defs>
  <circle id="rim" cx="0" cy="0" r="7"/>
  <circle id="rim2" cx="0" cy="0" r="3.5"/>
  <g id="zoomPlus">
    <use xlink:href="#rim" fill="#404040"><set attributeName="fill" to="#808080" begin="zoomplus.mouseover" end="zoomplus.mouseout"/></use>
    <path d="M-4,0h8M0,-4v8" fill="none" stroke="white" stroke-width="1.5" pointer-events="none"/>
  </g>
  <g id="zoomMin">
    <use xlink:href="#rim" fill="#404040"><set attributeName="fill" to="#808080" begin="zoomminus.mouseover" end="zoomminus.mouseout"/></use>
    <path d="M-4,0h8" fill="none" stroke="white" stroke-width="1.5" pointer-events="none"/>
  </g>
  <g id="arrowUp" transform="translate(30 24)">
    <use xlink:href="#rim"/>
    <path pointer-events="none" fill="none" stroke="white" stroke-width="1.5" d="M0,-3.0v7 M-2.5,-0.5L0,-3.0L2.5,-0.5"/>
  </g>
  <g id="arrowRight" transform="rotate(90) translate(36 -43)">
    <use xlink:href="#rim"/>
    <path pointer-events="none" fill="none" stroke="white" stroke-width="1.5" d="M0,-3.0v7 M-2.5,-0.5L0,-3.0L2.5,-0.5"/>
  </g>
  <g id="arrowDown" transform="rotate(180) translate(-30 -48)">
    <use xlink:href="#rim"/>
    <path pointer-events="none" fill="none" stroke="white" stroke-width="1.5" d="M0,-3.0v7 M-2.5,-0.5L0,-3.0L2.5,-0.5"/>
  </g>
  <g id="arrowLeft" transform="rotate(270) translate(-36 17)">
    <use xlink:href="#rim"/>
    <path pointer-events="none" fill="none" stroke="white" stroke-width="1.5" d="M0,-3.0v7 M-2.5,-0.5L0,-3.0L2.5,-0.5"/>
  </g>
  <g id="resetDef">
    <use xlink:href="#rim2" fill="#404040"><set attributeName="fill" to="#808080" begin="reset.mouseover" end="reset.mouseout"/></use>
  </g>
</defs>
<script type="application/ecmascript">
var viewWidth = 539;
var viewHeight = 209;
var sectionId = 'dynsection-1';
</script>
<script type="application/ecmascript" xlink:href="svg.min.js"/>
<svg id="graph" class="graph">
<g id="viewport">
<title>mfem::LinearNonConf3DFECollection</title>
<!-- Node1 -->
<g id="Node000001" class="node">
<title>Node1</title>
<g id="a_Node000001"><a xlink:title="Piecewise&#45;linear nonconforming finite elements in 3D.">
<polygon fill="#999999" stroke="#666666" points="243.25,-119.5 0,-119.5 0,-96.5 243.25,-96.5 243.25,-119.5"/>
<text text-anchor="middle" x="121.62" y="-102.2" font-family="Helvetica,sans-Serif" font-size="14.00">mfem::LinearNonConf3DFECollection</text>
</a>
</g>
</g>
<!-- Node2 -->
<g id="Node000002" class="node">
<title>Node2</title>
<g id="a_Node000002"><a xlink:href="classmfem_1_1FiniteElementCollection.html" target="_top" xlink:title="Collection of finite elements from the same family in multiple dimensions. This class is used to matc...">
<polygon fill="white" stroke="#666666" points="455.25,-201 254,-201 254,-178 455.25,-178 455.25,-201"/>
<text text-anchor="middle" x="354.62" y="-183.7" font-family="Helvetica,sans-Serif" font-size="14.00">mfem::FiniteElementCollection</text>
</a>
</g>
</g>
<!-- Node2&#45;&gt;Node1 -->
<g id="edge1_Node000001_Node000002" class="edge">
<title>Node2&#45;&gt;Node1</title>
<g id="a_edge1_Node000001_Node000002"><a xlink:title=" ">
<path fill="none" stroke="#63b8ff" d="M311.96,-173.94C266.21,-158.33 194.62,-133.91 153.52,-119.88"/>
<polygon fill="#63b8ff" stroke="#63b8ff" points="310.69,-177.21 321.28,-177.12 312.95,-170.58 310.69,-177.21"/>
</a>
</g>
</g>
<!-- Node4 -->
<g id="Node000004" class="node">
<title>Node4</title>
<g id="a_Node000004"><a xlink:href="classmfem_1_1Memory.html" target="_top" xlink:title=" ">
<polygon fill="white" stroke="#666666" points="448.12,-127 261.12,-127 261.12,-89 448.12,-89 448.12,-127"/>
<text text-anchor="start" x="269.12" y="-109.7" font-family="Helvetica,sans-Serif" font-size="14.00">mfem::Memory&lt; mfem</text>
<text text-anchor="middle" x="354.62" y="-94.7" font-family="Helvetica,sans-Serif" font-size="14.00">::FiniteElementCollection * &gt;</text>
</a>
</g>
</g>
<!-- Node2&#45;&gt;Node4 -->
<g id="edge4_Node000004_Node000002" class="edge">
<title>Node2&#45;&gt;Node4</title>
<g id="a_edge4_Node000004_Node000002"><a xlink:title=" ">
<path fill="none" stroke="#9a32cd" stroke-dasharray="5,2" d="M354.62,-166.29C354.62,-154.05 354.62,-139.04 354.62,-127.45"/>
<polygon fill="#9a32cd" stroke="#9a32cd" points="351.13,-166.26 354.63,-176.26 358.13,-166.26 351.13,-166.26"/>
</a>
</g>
<text text-anchor="middle" x="371.88" y="-146.7" font-family="Helvetica,sans-Serif" font-size="14.00" fill="grey"> h_ptr</text>
</g>
<!-- Node3 -->
<g id="Node000003" class="node">
<title>Node3</title>
<g id="a_Node000003"><a xlink:href="classmfem_1_1Array.html" target="_top" xlink:title=" ">
<polygon fill="white" stroke="#666666" points="509.38,-38 329.88,-38 329.88,0 509.38,0 509.38,-38"/>
<text text-anchor="start" x="337.88" y="-20.7" font-family="Helvetica,sans-Serif" font-size="14.00">mfem::Array&lt; mfem::</text>
<text text-anchor="middle" x="419.62" y="-5.7" font-family="Helvetica,sans-Serif" font-size="14.00">FiniteElementCollection * &gt;</text>
</a>
</g>
</g>
<!-- Node3&#45;&gt;Node2 -->
<g id="edge2_Node000002_Node000003" class="edge">
<title>Node3&#45;&gt;Node2</title>
<g id="a_edge2_Node000002_Node000003"><a xlink:title=" ">
<path fill="none" stroke="#9a32cd" stroke-dasharray="5,2" d="M441.87,-47.48C457.06,-69.79 472.04,-101.61 457.62,-127 443.28,-152.27 413.99,-168.26 390.29,-177.58"/>
<polygon fill="#9a32cd" stroke="#9a32cd" points="444.79,-45.53 436.1,-39.47 439.11,-49.63 444.79,-45.53"/>
</a>
</g>
<text text-anchor="middle" x="496.75" y="-102.2" font-family="Helvetica,sans-Serif" font-size="14.00" fill="grey"> var_orders</text>
</g>
<!-- Node4&#45;&gt;Node3 -->
<g id="edge3_Node000003_Node000004" class="edge">
<title>Node4&#45;&gt;Node3</title>
<g id="a_edge3_Node000003_Node000004"><a xlink:title=" ">
<path fill="none" stroke="#9a32cd" stroke-dasharray="5,2" d="M375.02,-79.71C385.06,-66.26 396.9,-50.41 405.86,-38.42"/>
<polygon fill="#9a32cd" stroke="#9a32cd" points="372.5,-77.23 369.32,-87.34 378.1,-81.42 372.5,-77.23"/>
</a>
</g>
<text text-anchor="middle" x="406.62" y="-57.7" font-family="Helvetica,sans-Serif" font-size="14.00" fill="grey"> data</text>
</g>
</g>
</svg>

<g id="navigator" transform="translate(0 0)" fill="#404254">
  <rect fill="#f2f5e9" fill-opacity="0.5" stroke="#606060" stroke-width=".5" x="0" y="0" width="60" height="60"/>
  <use id="zoomplus" xlink:href="#zoomPlus" x="17" y="9" onmousedown="handleZoom(evt,'in')"/>
  <use id="zoomminus" xlink:href="#zoomMin" x="42" y="9" onmousedown="handleZoom(evt,'out')"/>
  <use id="reset" xlink:href="#resetDef" x="30" y="36" onmousedown="handleReset()"/>
   <use id="arrowup" xlink:href="#arrowUp" x="0" y="0" onmousedown="handlePan(0,-1)"/>
  <use id="arrowright" xlink:href="#arrowRight" x="0" y="0" onmousedown="handlePan(1,0)"/>
  <use id="arrowdown" xlink:href="#arrowDown" x="0" y="0" onmousedown="handlePan(0,1)"/>
  <use id="arrowleft" xlink:href="#arrowLeft" x="0" y="0" onmousedown="handlePan(-1,0)"/>
</g>
<svg viewBox="0 0 15 15" width="100%" height="30px" preserveAspectRatio="xMaxYMin meet">
 <g id="arrow_out" transform="scale(0.3 0.3)">
  <a xlink:href="classmfem_1_1LinearNonConf3DFECollection__coll__graph_org.svg" target="_base">
   <rect id="button" ry="5" rx="5" y="6" x="6" height="38" width="38"
        fill="#f2f5e9" fill-opacity="0.5" stroke="#606060" stroke-width="1.0"/>
   <path id="arrow"
     d="M 11.500037,31.436501 C 11.940474,20.09759 22.043105,11.32322 32.158766,21.979434 L 37.068811,17.246167 C 37.068811,17.246167 37.088388,32 37.088388,32 L 22.160133,31.978069 C 22.160133,31.978069 26.997745,27.140456 26.997745,27.140456 C 18.528582,18.264221 13.291696,25.230495 11.500037,31.436501 z"
     style="fill:#404040;"/>
  </a>
 </g>
</svg>

<style type='text/css'>
<![CDATA[
[data-mouse-over-selected='false'] { opacity: 0.7; }
[data-mouse-over-selected='true']  { opacity: 1.0; }
]]>
</style>
<script type="application/ecmascript"><![CDATA[
document.addEventListener('DOMContentLoaded', (event) => {
  highlightEdges();
  highlightAdjacentNodes();
});
]]></script>
</svg>
