<?xml version="1.0" encoding="UTF-8" standalone="no"?>
<!DOCTYPE svg PUBLIC "-//W3C//DTD SVG 1.1//EN"
 "http://www.w3.org/Graphics/SVG/1.1/DTD/svg11.dtd">
<!-- Generated by graphviz version 12.0.0 (20240704.0754)
 -->
<!-- Title: mfem::SLISolver Pages: 1 -->
<svg width="879pt" height="165pt"
 viewBox="0.00 0.00 879.25 164.50" xmlns="http://www.w3.org/2000/svg" xmlns:xlink="http://www.w3.org/1999/xlink">
<g id="graph0" class="graph" transform="scale(1 1) rotate(0) translate(4 160.5)">
<title>mfem::SLISolver</title>
<!-- Node1 -->
<g id="Node000001" class="node">
<title>Node1</title>
<g id="a_Node000001"><a xlink:title="Stationary linear iteration: x &lt;&#45; x + B (b &#45; A x)">
<polygon fill="#999999" stroke="#666666" points="834.5,-56 717.25,-56 717.25,-33 834.5,-33 834.5,-56"/>
<text text-anchor="middle" x="775.88" y="-38.7" font-family="Helvetica,sans-Serif" font-size="14.00">mfem::SLISolver</text>
</a>
</g>
</g>
<!-- Node2 -->
<g id="Node000002" class="node">
<title>Node2</title>
<g id="a_Node000002"><a xlink:href="classmfem_1_1IterativeSolver.html" target="_top" xlink:title="Abstract base class for iterative solver.">
<polygon fill="white" stroke="#666666" points="578.5,-102 433.5,-102 433.5,-79 578.5,-79 578.5,-102"/>
<text text-anchor="middle" x="506" y="-84.7" font-family="Helvetica,sans-Serif" font-size="14.00">mfem::IterativeSolver</text>
</a>
</g>
</g>
<!-- Node2&#45;&gt;Node1 -->
<g id="edge1_Node000001_Node000002" class="edge">
<title>Node2&#45;&gt;Node1</title>
<g id="a_edge1_Node000001_Node000002"><a xlink:title=" ">
<path fill="none" stroke="#63b8ff" d="M587.89,-76.61C629.45,-69.47 679.14,-60.94 716.85,-54.46"/>
<polygon fill="#63b8ff" stroke="#63b8ff" points="587.44,-73.14 578.17,-78.28 588.62,-80.03 587.44,-73.14"/>
</a>
</g>
</g>
<!-- Node5 -->
<g id="Node000005" class="node">
<title>Node5</title>
<g id="a_Node000005"><a xlink:href="classmfem_1_1IterativeSolverMonitor.html" target="_top" xlink:title="Abstract base class for an iterative solver monitor.">
<polygon fill="white" stroke="#666666" points="871.25,-115 680.5,-115 680.5,-92 871.25,-92 871.25,-115"/>
<text text-anchor="middle" x="775.88" y="-97.7" font-family="Helvetica,sans-Serif" font-size="14.00">mfem::IterativeSolverMonitor</text>
</a>
</g>
</g>
<!-- Node2&#45;&gt;Node5 -->
<g id="edge7_Node000005_Node000002" class="edge">
<title>Node2&#45;&gt;Node5</title>
<g id="a_edge7_Node000005_Node000002"><a xlink:title=" ">
<path fill="none" stroke="#9a32cd" stroke-dasharray="5,2" d="M590.23,-87.62C592.34,-87.57 594.43,-87.53 596.5,-87.5 625.83,-87.01 633.24,-85.43 662.5,-87.5 675.08,-88.39 688.39,-89.84 701.29,-91.5"/>
<polygon fill="#9a32cd" stroke="#9a32cd" points="590.23,-84.12 580.32,-87.85 590.4,-91.11 590.23,-84.12"/>
</a>
</g>
<text text-anchor="middle" x="629.5" y="-89.2" font-family="Helvetica,sans-Serif" font-size="14.00" fill="grey"> iter_solver</text>
</g>
<!-- Node3 -->
<g id="Node000003" class="node">
<title>Node3</title>
<g id="a_Node000003"><a xlink:href="classmfem_1_1Solver.html" target="_top" xlink:title="Base class for solvers.">
<polygon fill="white" stroke="#666666" points="281.62,-121 184.62,-121 184.62,-98 281.62,-98 281.62,-121"/>
<text text-anchor="middle" x="233.12" y="-103.7" font-family="Helvetica,sans-Serif" font-size="14.00">mfem::Solver</text>
</a>
</g>
</g>
<!-- Node3&#45;&gt;Node2 -->
<g id="edge2_Node000002_Node000003" class="edge">
<title>Node3&#45;&gt;Node2</title>
<g id="a_edge2_Node000002_Node000003"><a xlink:title=" ">
<path fill="none" stroke="#63b8ff" d="M293.41,-105.34C334.56,-102.46 389.6,-98.59 433.23,-95.53"/>
<polygon fill="#63b8ff" stroke="#63b8ff" points="293.17,-101.85 283.44,-106.04 293.66,-108.83 293.17,-101.85"/>
</a>
</g>
</g>
<!-- Node3&#45;&gt;Node2 -->
<g id="edge5_Node000002_Node000003" class="edge">
<title>Node3&#45;&gt;Node2</title>
<g id="a_edge5_Node000002_Node000003"><a xlink:title=" ">
<path fill="none" stroke="#9a32cd" stroke-dasharray="5,2" d="M293.06,-108.07C328.58,-106.91 374.69,-104.9 415.5,-101.5 421.27,-101.02 427.25,-100.45 433.24,-99.82"/>
<polygon fill="#9a32cd" stroke="#9a32cd" points="293.32,-104.56 283.44,-108.36 293.54,-111.55 293.32,-104.56"/>
</a>
</g>
<text text-anchor="middle" x="375" y="-107.2" font-family="Helvetica,sans-Serif" font-size="14.00" fill="grey"> prec</text>
</g>
<!-- Node4 -->
<g id="Node000004" class="node">
<title>Node4</title>
<g id="a_Node000004"><a xlink:href="classmfem_1_1Operator.html" target="_top" xlink:title="Abstract operator.">
<polygon fill="white" stroke="#666666" points="112.75,-145 0,-145 0,-122 112.75,-122 112.75,-145"/>
<text text-anchor="middle" x="56.38" y="-127.7" font-family="Helvetica,sans-Serif" font-size="14.00">mfem::Operator</text>
</a>
</g>
</g>
<!-- Node4&#45;&gt;Node2 -->
<g id="edge4_Node000002_Node000004" class="edge">
<title>Node4&#45;&gt;Node2</title>
<g id="a_edge4_Node000002_Node000004"><a xlink:title=" ">
<path fill="none" stroke="#9a32cd" stroke-dasharray="5,2" d="M124.28,-139.16C196.88,-143.61 315.79,-145.94 415.5,-124.5 437.93,-119.68 462.18,-110.17 479.78,-102.44"/>
<polygon fill="#9a32cd" stroke="#9a32cd" points="124.75,-135.68 114.55,-138.53 124.3,-142.67 124.75,-135.68"/>
</a>
</g>
<text text-anchor="middle" x="233.12" y="-143.2" font-family="Helvetica,sans-Serif" font-size="14.00" fill="grey"> oper</text>
</g>
<!-- Node4&#45;&gt;Node3 -->
<g id="edge3_Node000003_Node000004" class="edge">
<title>Node4&#45;&gt;Node3</title>
<g id="a_edge3_Node000003_Node000004"><a xlink:title=" ">
<path fill="none" stroke="#63b8ff" d="M124.36,-124.3C144.31,-121.56 165.76,-118.61 184.22,-116.08"/>
<polygon fill="#63b8ff" stroke="#63b8ff" points="124.08,-120.81 114.65,-125.63 125.03,-127.74 124.08,-120.81"/>
</a>
</g>
</g>
<!-- Node5&#45;&gt;Node2 -->
<g id="edge6_Node000002_Node000005" class="edge">
<title>Node5&#45;&gt;Node2</title>
<g id="a_edge6_Node000002_Node000005"><a xlink:title=" ">
<path fill="none" stroke="#9a32cd" stroke-dasharray="5,2" d="M669.07,-108.95C645.17,-109.16 619.94,-108.58 596.5,-106.5 586.44,-105.61 575.81,-104.16 565.53,-102.49"/>
<polygon fill="#9a32cd" stroke="#9a32cd" points="668.85,-112.45 678.8,-108.81 668.76,-105.45 668.85,-112.45"/>
</a>
</g>
<text text-anchor="middle" x="629.5" y="-110.2" font-family="Helvetica,sans-Serif" font-size="14.00" fill="grey"> monitor</text>
</g>
<!-- Node6 -->
<g id="Node000006" class="node">
<title>Node6</title>
<g id="a_Node000006"><a xlink:href="structmfem_1_1IterativeSolver_1_1PrintLevel.html" target="_top" xlink:title="Settings for the output behavior of the IterativeSolver.">
<polygon fill="white" stroke="#666666" points="305.62,-79.5 160.62,-79.5 160.62,-41.5 305.62,-41.5 305.62,-79.5"/>
<text text-anchor="start" x="168.62" y="-62.2" font-family="Helvetica,sans-Serif" font-size="14.00">mfem::IterativeSolver</text>
<text text-anchor="middle" x="233.12" y="-47.2" font-family="Helvetica,sans-Serif" font-size="14.00">::PrintLevel</text>
</a>
</g>
</g>
<!-- Node6&#45;&gt;Node2 -->
<g id="edge8_Node000002_Node000006" class="edge">
<title>Node6&#45;&gt;Node2</title>
<g id="a_edge8_Node000002_Node000006"><a xlink:title=" ">
<path fill="none" stroke="#9a32cd" stroke-dasharray="5,2" d="M316.91,-67.37C347.88,-70.17 383.34,-73.66 415.5,-77.5 421.27,-78.19 427.24,-78.95 433.23,-79.75"/>
<polygon fill="#9a32cd" stroke="#9a32cd" points="317.49,-63.91 307.22,-66.5 316.87,-70.88 317.49,-63.91"/>
</a>
</g>
<text text-anchor="middle" x="375" y="-79.2" font-family="Helvetica,sans-Serif" font-size="14.00" fill="grey"> print_options</text>
</g>
<!-- Node7 -->
<g id="Node000007" class="node">
<title>Node7</title>
<g id="a_Node000007"><a xlink:href="classmfem_1_1Vector.html" target="_top" xlink:title="Vector data type.">
<polygon fill="white" stroke="#666666" points="554.88,-24 457.12,-24 457.12,-1 554.88,-1 554.88,-24"/>
<text text-anchor="middle" x="506" y="-6.7" font-family="Helvetica,sans-Serif" font-size="14.00">mfem::Vector</text>
</a>
</g>
</g>
<!-- Node7&#45;&gt;Node1 -->
<g id="edge9_Node000001_Node000007" class="edge">
<title>Node7&#45;&gt;Node1</title>
<g id="a_edge9_Node000001_Node000007"><a xlink:title=" ">
<path fill="none" stroke="#9a32cd" stroke-dasharray="5,2" d="M566.44,-9.24C595.53,-8.57 630.98,-9.13 662.5,-13.5 689.36,-17.23 718.89,-25.54 740.94,-32.63"/>
<polygon fill="#9a32cd" stroke="#9a32cd" points="566.63,-5.73 556.73,-9.52 566.83,-12.73 566.63,-5.73"/>
</a>
</g>
<text text-anchor="middle" x="629.5" y="-30.2" font-family="Helvetica,sans-Serif" font-size="14.00" fill="grey"> r</text>
<text text-anchor="middle" x="629.5" y="-15.2" font-family="Helvetica,sans-Serif" font-size="14.00" fill="grey">z</text>
</g>
<!-- Node8 -->
<g id="Node000008" class="node">
<title>Node8</title>
<g id="a_Node000008"><a xlink:href="classmfem_1_1Memory.html" target="_top" xlink:title=" ">
<polygon fill="white" stroke="#666666" points="316.5,-23 149.75,-23 149.75,0 316.5,0 316.5,-23"/>
<text text-anchor="middle" x="233.12" y="-5.7" font-family="Helvetica,sans-Serif" font-size="14.00">mfem::Memory&lt; real_t &gt;</text>
</a>
</g>
</g>
<!-- Node8&#45;&gt;Node7 -->
<g id="edge10_Node000007_Node000008" class="edge">
<title>Node8&#45;&gt;Node7</title>
<g id="a_edge10_Node000007_Node000008"><a xlink:title=" ">
<path fill="none" stroke="#9a32cd" stroke-dasharray="5,2" d="M328.34,-11.85C371.75,-12.01 421.41,-12.19 457,-12.32"/>
<polygon fill="#9a32cd" stroke="#9a32cd" points="328.39,-8.35 318.38,-11.81 328.37,-15.35 328.39,-8.35"/>
</a>
</g>
<text text-anchor="middle" x="375" y="-13.2" font-family="Helvetica,sans-Serif" font-size="14.00" fill="grey"> data</text>
</g>
</g>
</svg>
