<?xml version="1.0" encoding="UTF-8" standalone="no"?>
<!DOCTYPE svg PUBLIC "-//W3C//DTD SVG 1.1//EN"
 "http://www.w3.org/Graphics/SVG/1.1/DTD/svg11.dtd">
<!-- Generated by graphviz version 12.0.0 (20240704.0754)
 -->
<!-- Title: mfem::EliminationGMRESSolver Pages: 1 -->
<!--zoomable 494 -->

<svg id="main" version="1.1" xmlns="http://www.w3.org/2000/svg" xmlns:xlink="http://www.w3.org/1999/xlink" xml:space="preserve" onload="init(evt)">
<style type="text/css"><![CDATA[
.node, .edge {opacity: 0.7;}
.node.selected, .edge.selected {opacity: 1;}
.edge:hover path { stroke: red; }
.edge:hover polygon { stroke: red; fill: red; }
]]></style>

<defs>
  <circle id="rim" cx="0" cy="0" r="7"/>
  <circle id="rim2" cx="0" cy="0" r="3.5"/>
  <g id="zoomPlus">
    <use xlink:href="#rim" fill="#404040"><set attributeName="fill" to="#808080" begin="zoomplus.mouseover" end="zoomplus.mouseout"/></use>
    <path d="M-4,0h8M0,-4v8" fill="none" stroke="white" stroke-width="1.5" pointer-events="none"/>
  </g>
  <g id="zoomMin">
    <use xlink:href="#rim" fill="#404040"><set attributeName="fill" to="#808080" begin="zoomminus.mouseover" end="zoomminus.mouseout"/></use>
    <path d="M-4,0h8" fill="none" stroke="white" stroke-width="1.5" pointer-events="none"/>
  </g>
  <g id="arrowUp" transform="translate(30 24)">
    <use xlink:href="#rim"/>
    <path pointer-events="none" fill="none" stroke="white" stroke-width="1.5" d="M0,-3.0v7 M-2.5,-0.5L0,-3.0L2.5,-0.5"/>
  </g>
  <g id="arrowRight" transform="rotate(90) translate(36 -43)">
    <use xlink:href="#rim"/>
    <path pointer-events="none" fill="none" stroke="white" stroke-width="1.5" d="M0,-3.0v7 M-2.5,-0.5L0,-3.0L2.5,-0.5"/>
  </g>
  <g id="arrowDown" transform="rotate(180) translate(-30 -48)">
    <use xlink:href="#rim"/>
    <path pointer-events="none" fill="none" stroke="white" stroke-width="1.5" d="M0,-3.0v7 M-2.5,-0.5L0,-3.0L2.5,-0.5"/>
  </g>
  <g id="arrowLeft" transform="rotate(270) translate(-36 17)">
    <use xlink:href="#rim"/>
    <path pointer-events="none" fill="none" stroke="white" stroke-width="1.5" d="M0,-3.0v7 M-2.5,-0.5L0,-3.0L2.5,-0.5"/>
  </g>
  <g id="resetDef">
    <use xlink:href="#rim2" fill="#404040"><set attributeName="fill" to="#808080" begin="reset.mouseover" end="reset.mouseout"/></use>
  </g>
</defs>
<script type="application/ecmascript">
var viewWidth = 1604;
var viewHeight = 494;
var sectionId = 'dynsection-1';
</script>
<script type="application/ecmascript" xlink:href="svg.min.js"/>
<svg id="graph" class="graph">
<g id="viewport">
<title>mfem::EliminationGMRESSolver</title>
<!-- Node1 -->
<g id="Node000001" class="node">
<title>Node1</title>
<g id="a_Node000001"><a xlink:title=" ">
<polygon fill="#999999" stroke="#666666" points="1595.5,-218.71 1380.75,-218.71 1380.75,-195.71 1595.5,-195.71 1595.5,-218.71"/>
<text text-anchor="middle" x="1488.12" y="-201.41" font-family="Helvetica,sans-Serif" font-size="14.00">mfem::EliminationGMRESSolver</text>
</a>
</g>
</g>
<!-- Node2 -->
<g id="Node000002" class="node">
<title>Node2</title>
<g id="a_Node000002"><a xlink:href="classmfem_1_1EliminationSolver.html" target="_top" xlink:title="Solve constrained system by eliminating the constraint; see ConstrainedSolver.">
<polygon fill="white" stroke="#666666" points="1343.75,-218.71 1180,-218.71 1180,-195.71 1343.75,-195.71 1343.75,-218.71"/>
<text text-anchor="middle" x="1261.88" y="-201.41" font-family="Helvetica,sans-Serif" font-size="14.00">mfem::EliminationSolver</text>
</a>
</g>
</g>
<!-- Node2&#45;&gt;Node1 -->
<g id="edge1_Node000001_Node000002" class="edge">
<title>Node2&#45;&gt;Node1</title>
<g id="a_edge1_Node000001_Node000002"><a xlink:title=" ">
<path fill="none" stroke="#63b8ff" d="M1355.61,-207.21C1363.79,-207.21 1372.11,-207.21 1380.4,-207.21"/>
<polygon fill="#63b8ff" stroke="#63b8ff" points="1355.67,-203.71 1345.67,-207.21 1355.66,-210.71 1355.67,-203.71"/>
</a>
</g>
</g>
<!-- Node3 -->
<g id="Node000003" class="node">
<title>Node3</title>
<g id="a_Node000003"><a xlink:href="classmfem_1_1ConstrainedSolver.html" target="_top" xlink:title="An abstract class to solve the constrained system &#160;subject to the constraint .">
<polygon fill="white" stroke="#666666" points="1063.75,-266.71 894,-266.71 894,-243.71 1063.75,-243.71 1063.75,-266.71"/>
<text text-anchor="middle" x="978.88" y="-249.41" font-family="Helvetica,sans-Serif" font-size="14.00">mfem::ConstrainedSolver</text>
</a>
</g>
</g>
<!-- Node3&#45;&gt;Node2 -->
<g id="edge2_Node000002_Node000003" class="edge">
<title>Node3&#45;&gt;Node2</title>
<g id="a_edge2_Node000002_Node000003"><a xlink:title=" ">
<path fill="none" stroke="#63b8ff" d="M1061.15,-241.33C1102.28,-234.3 1151.71,-225.86 1191.1,-219.13"/>
<polygon fill="#63b8ff" stroke="#63b8ff" points="1060.82,-237.83 1051.55,-242.97 1062,-244.73 1060.82,-237.83"/>
</a>
</g>
</g>
<!-- Node4 -->
<g id="Node000004" class="node">
<title>Node4</title>
<g id="a_Node000004"><a xlink:href="classmfem_1_1IterativeSolver.html" target="_top" xlink:title="Abstract base class for iterative solver.">
<polygon fill="white" stroke="#666666" points="656.38,-365.71 511.38,-365.71 511.38,-342.71 656.38,-342.71 656.38,-365.71"/>
<text text-anchor="middle" x="583.88" y="-348.41" font-family="Helvetica,sans-Serif" font-size="14.00">mfem::IterativeSolver</text>
</a>
</g>
</g>
<!-- Node4&#45;&gt;Node2 -->
<g id="edge21_Node000002_Node000004" class="edge">
<title>Node4&#45;&gt;Node2</title>
<g id="a_edge21_Node000002_Node000004"><a xlink:title=" ">
<path fill="none" stroke="#9a32cd" stroke-dasharray="5,2" d="M668,-342.97C786.83,-326.56 999.17,-295.87 1074.25,-276.21 1132.56,-260.94 1198.09,-234.43 1233.9,-219.09"/>
<polygon fill="#9a32cd" stroke="#9a32cd" points="667.73,-339.48 658.3,-344.31 668.69,-346.41 667.73,-339.48"/>
</a>
</g>
<text text-anchor="middle" x="978.88" y="-311.91" font-family="Helvetica,sans-Serif" font-size="14.00" fill="grey"> krylov</text>
</g>
<!-- Node4&#45;&gt;Node3 -->
<g id="edge3_Node000003_Node000004" class="edge">
<title>Node4&#45;&gt;Node3</title>
<g id="a_edge3_Node000003_Node000004"><a xlink:title=" ">
<path fill="none" stroke="#63b8ff" d="M616.11,-337.03C634.26,-327.74 657.86,-316.86 680,-310.21 759.86,-286.25 783.67,-298.19 865.5,-282.21 887.46,-277.92 911.61,-272.25 931.87,-267.21"/>
<polygon fill="#63b8ff" stroke="#63b8ff" points="614.68,-333.82 607.44,-341.56 617.93,-340.02 614.68,-333.82"/>
</a>
</g>
</g>
<!-- Node7 -->
<g id="Node000007" class="node">
<title>Node7</title>
<g id="a_Node000007"><a xlink:href="classmfem_1_1IterativeSolverMonitor.html" target="_top" xlink:title="Abstract base class for an iterative solver monitor.">
<polygon fill="white" stroke="#666666" points="1074.25,-390.71 883.5,-390.71 883.5,-367.71 1074.25,-367.71 1074.25,-390.71"/>
<text text-anchor="middle" x="978.88" y="-373.41" font-family="Helvetica,sans-Serif" font-size="14.00">mfem::IterativeSolverMonitor</text>
</a>
</g>
</g>
<!-- Node4&#45;&gt;Node7 -->
<g id="edge9_Node000007_Node000004" class="edge">
<title>Node4&#45;&gt;Node7</title>
<g id="a_edge9_Node000007_Node000004"><a xlink:title=" ">
<path fill="none" stroke="#9a32cd" stroke-dasharray="5,2" d="M660.16,-367.84C666.86,-368.76 673.54,-369.57 680,-370.21 747.71,-376.9 824.45,-379.09 883.09,-379.64"/>
<polygon fill="#9a32cd" stroke="#9a32cd" points="660.83,-364.4 650.43,-366.43 659.82,-371.33 660.83,-364.4"/>
</a>
</g>
<text text-anchor="middle" x="772.75" y="-380.91" font-family="Helvetica,sans-Serif" font-size="14.00" fill="grey"> iter_solver</text>
</g>
<!-- Node5 -->
<g id="Node000005" class="node">
<title>Node5</title>
<g id="a_Node000005"><a xlink:href="classmfem_1_1Solver.html" target="_top" xlink:title="Base class for solvers.">
<polygon fill="white" stroke="#666666" points="281.62,-424.71 184.62,-424.71 184.62,-401.71 281.62,-401.71 281.62,-424.71"/>
<text text-anchor="middle" x="233.12" y="-407.41" font-family="Helvetica,sans-Serif" font-size="14.00">mfem::Solver</text>
</a>
</g>
</g>
<!-- Node5&#45;&gt;Node2 -->
<g id="edge22_Node000002_Node000005" class="edge">
<title>Node5&#45;&gt;Node2</title>
<g id="a_edge22_Node000002_Node000005"><a xlink:title=" ">
<path fill="none" stroke="#9a32cd" stroke-dasharray="5,2" d="M293,-427.46C434.98,-458.7 804.37,-521.23 1074.25,-400.21 1164.2,-359.87 1232.9,-254.45 1254.07,-219.02"/>
<polygon fill="#9a32cd" stroke="#9a32cd" points="293.98,-424.09 283.45,-425.33 292.45,-430.92 293.98,-424.09"/>
</a>
</g>
<text text-anchor="middle" x="772.75" y="-472.91" font-family="Helvetica,sans-Serif" font-size="14.00" fill="grey"> prec</text>
</g>
<!-- Node5&#45;&gt;Node4 -->
<g id="edge4_Node000004_Node000005" class="edge">
<title>Node5&#45;&gt;Node4</title>
<g id="a_edge4_Node000004_Node000005"><a xlink:title=" ">
<path fill="none" stroke="#63b8ff" d="M293.14,-418.02C345.23,-420.6 422.78,-420.32 487.75,-403.21 516.85,-395.55 547.21,-377.96 565.59,-366.08"/>
<polygon fill="#63b8ff" stroke="#63b8ff" points="293.46,-414.54 283.28,-417.48 293.08,-421.52 293.46,-414.54"/>
</a>
</g>
</g>
<!-- Node5&#45;&gt;Node4 -->
<g id="edge7_Node000004_Node000005" class="edge">
<title>Node5&#45;&gt;Node4</title>
<g id="a_edge7_Node000004_Node000005"><a xlink:title=" ">
<path fill="none" stroke="#9a32cd" stroke-dasharray="5,2" d="M280.68,-398.07C297.49,-393.05 316.71,-387.83 334.5,-384.21 343.15,-382.45 440.89,-370.84 511.14,-362.59"/>
<polygon fill="#9a32cd" stroke="#9a32cd" points="280.01,-394.61 271.46,-400.88 282.05,-401.31 280.01,-394.61"/>
</a>
</g>
<text text-anchor="middle" x="411.12" y="-385.91" font-family="Helvetica,sans-Serif" font-size="14.00" fill="grey"> prec</text>
</g>
<!-- Node6 -->
<g id="Node000006" class="node">
<title>Node6</title>
<g id="a_Node000006"><a xlink:href="classmfem_1_1Operator.html" target="_top" xlink:title="Abstract operator.">
<polygon fill="white" stroke="#666666" points="112.75,-272.71 0,-272.71 0,-249.71 112.75,-249.71 112.75,-272.71"/>
<text text-anchor="middle" x="56.38" y="-255.41" font-family="Helvetica,sans-Serif" font-size="14.00">mfem::Operator</text>
</a>
</g>
</g>
<!-- Node6&#45;&gt;Node3 -->
<g id="edge11_Node000003_Node000006" class="edge">
<title>Node6&#45;&gt;Node3</title>
<g id="a_edge11_Node000003_Node000006"><a xlink:title=" ">
<path fill="none" stroke="#9a32cd" stroke-dasharray="5,2" d="M124.45,-261.17C262.93,-261.02 590.54,-260.34 865.5,-257.21 874.57,-257.11 884.06,-256.98 893.5,-256.83"/>
<polygon fill="#9a32cd" stroke="#9a32cd" points="124.73,-257.67 114.74,-261.18 124.74,-264.67 124.73,-257.67"/>
</a>
</g>
<text text-anchor="middle" x="411.12" y="-276.91" font-family="Helvetica,sans-Serif" font-size="14.00" fill="grey"> A</text>
<text text-anchor="middle" x="411.12" y="-261.91" font-family="Helvetica,sans-Serif" font-size="14.00" fill="grey">B</text>
</g>
<!-- Node6&#45;&gt;Node4 -->
<g id="edge6_Node000004_Node000006" class="edge">
<title>Node6&#45;&gt;Node4</title>
<g id="a_edge6_Node000004_Node000006"><a xlink:title=" ">
<path fill="none" stroke="#9a32cd" stroke-dasharray="5,2" d="M74.72,-281.24C91.76,-299.32 119.53,-324.78 149.75,-336.21 213.8,-360.45 405.7,-359.32 511.28,-356.64"/>
<polygon fill="#9a32cd" stroke="#9a32cd" points="77.6,-279.2 68.27,-274.17 72.42,-283.92 77.6,-279.2"/>
</a>
</g>
<text text-anchor="middle" x="233.12" y="-357.91" font-family="Helvetica,sans-Serif" font-size="14.00" fill="grey"> oper</text>
</g>
<!-- Node6&#45;&gt;Node5 -->
<g id="edge5_Node000005_Node000006" class="edge">
<title>Node6&#45;&gt;Node5</title>
<g id="a_edge5_Node000005_Node000006"><a xlink:title=" ">
<path fill="none" stroke="#63b8ff" d="M65.96,-283.19C77.16,-309.14 99.12,-351.95 130.75,-377.21 146.15,-389.51 166.07,-397.78 184.17,-403.26"/>
<polygon fill="#63b8ff" stroke="#63b8ff" points="69.34,-282.19 62.28,-274.29 62.87,-284.87 69.34,-282.19"/>
</a>
</g>
</g>
<!-- Node11 -->
<g id="Node000011" class="node">
<title>Node11</title>
<g id="a_Node000011"><a xlink:href="classmfem_1_1HypreParMatrix.html" target="_top" xlink:title="Wrapper for hypre&#39;s ParCSR matrix class.">
<polygon fill="white" stroke="#666666" points="487.75,-157.71 334.5,-157.71 334.5,-134.71 487.75,-134.71 487.75,-157.71"/>
<text text-anchor="middle" x="411.12" y="-140.41" font-family="Helvetica,sans-Serif" font-size="14.00">mfem::HypreParMatrix</text>
</a>
</g>
</g>
<!-- Node6&#45;&gt;Node11 -->
<g id="edge15_Node000011_Node000006" class="edge">
<title>Node6&#45;&gt;Node11</title>
<g id="a_edge15_Node000011_Node000006"><a xlink:title=" ">
<path fill="none" stroke="#63b8ff" d="M73.05,-240.65C89.69,-220.51 117.93,-190.78 149.75,-176.21 207.78,-149.65 280.37,-143.19 334.16,-142.77"/>
<polygon fill="#63b8ff" stroke="#63b8ff" points="70.51,-238.23 67,-248.22 75.98,-242.6 70.51,-238.23"/>
</a>
</g>
</g>
<!-- Node15 -->
<g id="Node000015" class="node">
<title>Node15</title>
<g id="a_Node000015"><a xlink:href="classmfem_1_1EliminationProjection.html" target="_top" xlink:title=" ">
<polygon fill="white" stroke="#666666" points="865.5,-57.71 680,-57.71 680,-34.71 865.5,-34.71 865.5,-57.71"/>
<text text-anchor="middle" x="772.75" y="-40.41" font-family="Helvetica,sans-Serif" font-size="14.00">mfem::EliminationProjection</text>
</a>
</g>
</g>
<!-- Node6&#45;&gt;Node15 -->
<g id="edge20_Node000015_Node000006" class="edge">
<title>Node6&#45;&gt;Node15</title>
<g id="a_edge20_Node000015_Node000006"><a xlink:title=" ">
<path fill="none" stroke="#63b8ff" d="M61.2,-238.29C69.33,-197.61 92.53,-113.53 149.75,-76.21 333.8,43.83 617.68,-7.83 726.85,-34.22"/>
<polygon fill="#63b8ff" stroke="#63b8ff" points="57.79,-237.47 59.41,-247.94 64.67,-238.74 57.79,-237.47"/>
</a>
</g>
</g>
<!-- Node7&#45;&gt;Node4 -->
<g id="edge8_Node000004_Node000007" class="edge">
<title>Node7&#45;&gt;Node4</title>
<g id="a_edge8_Node000004_Node000007"><a xlink:title=" ">
<path fill="none" stroke="#9a32cd" stroke-dasharray="5,2" d="M921.26,-364.73C903.53,-360.85 883.81,-357.18 865.5,-355.21 794.78,-347.61 713.45,-348.36 656.61,-350.4"/>
<polygon fill="#9a32cd" stroke="#9a32cd" points="920.29,-368.1 930.82,-366.9 921.84,-361.28 920.29,-368.1"/>
</a>
</g>
<text text-anchor="middle" x="772.75" y="-356.91" font-family="Helvetica,sans-Serif" font-size="14.00" fill="grey"> monitor</text>
</g>
<!-- Node8 -->
<g id="Node000008" class="node">
<title>Node8</title>
<g id="a_Node000008"><a xlink:href="structmfem_1_1IterativeSolver_1_1PrintLevel.html" target="_top" xlink:title="Settings for the output behavior of the IterativeSolver.">
<polygon fill="white" stroke="#666666" points="305.62,-327.21 160.62,-327.21 160.62,-289.21 305.62,-289.21 305.62,-327.21"/>
<text text-anchor="start" x="168.62" y="-309.91" font-family="Helvetica,sans-Serif" font-size="14.00">mfem::IterativeSolver</text>
<text text-anchor="middle" x="233.12" y="-294.91" font-family="Helvetica,sans-Serif" font-size="14.00">::PrintLevel</text>
</a>
</g>
</g>
<!-- Node8&#45;&gt;Node4 -->
<g id="edge10_Node000004_Node000008" class="edge">
<title>Node8&#45;&gt;Node4</title>
<g id="a_edge10_Node000004_Node000008"><a xlink:title=" ">
<path fill="none" stroke="#9a32cd" stroke-dasharray="5,2" d="M317.36,-309C367.15,-310.66 431.47,-314.89 487.75,-325.21 508.98,-329.1 532.15,-336.11 550.32,-342.26"/>
<polygon fill="#9a32cd" stroke="#9a32cd" points="317.61,-305.51 307.51,-308.71 317.4,-312.5 317.61,-305.51"/>
</a>
</g>
<text text-anchor="middle" x="411.12" y="-326.91" font-family="Helvetica,sans-Serif" font-size="14.00" fill="grey"> print_options</text>
</g>
<!-- Node9 -->
<g id="Node000009" class="node">
<title>Node9</title>
<g id="a_Node000009"><a xlink:href="classmfem_1_1Vector.html" target="_top" xlink:title="Vector data type.">
<polygon fill="white" stroke="#666666" points="632.75,-207.71 535,-207.71 535,-184.71 632.75,-184.71 632.75,-207.71"/>
<text text-anchor="middle" x="583.88" y="-190.41" font-family="Helvetica,sans-Serif" font-size="14.00">mfem::Vector</text>
</a>
</g>
</g>
<!-- Node9&#45;&gt;Node3 -->
<g id="edge12_Node000003_Node000009" class="edge">
<title>Node9&#45;&gt;Node3</title>
<g id="a_edge12_Node000003_Node000009"><a xlink:title=" ">
<path fill="none" stroke="#9a32cd" stroke-dasharray="5,2" d="M644.54,-188.43C702.03,-182.79 791.01,-178.98 865.5,-197.21 901.97,-206.13 939.86,-229.02 961,-243.23"/>
<polygon fill="#9a32cd" stroke="#9a32cd" points="644.21,-184.94 634.63,-189.46 644.93,-191.91 644.21,-184.94"/>
</a>
</g>
<text text-anchor="middle" x="772.75" y="-243.91" font-family="Helvetica,sans-Serif" font-size="14.00" fill="grey"> constraint_rhs</text>
<text text-anchor="middle" x="772.75" y="-228.91" font-family="Helvetica,sans-Serif" font-size="14.00" fill="grey">multiplier_sol</text>
<text text-anchor="middle" x="772.75" y="-213.91" font-family="Helvetica,sans-Serif" font-size="14.00" fill="grey">workb</text>
<text text-anchor="middle" x="772.75" y="-198.91" font-family="Helvetica,sans-Serif" font-size="14.00" fill="grey">workx</text>
</g>
<!-- Node10 -->
<g id="Node000010" class="node">
<title>Node10</title>
<g id="a_Node000010"><a xlink:href="classmfem_1_1Memory.html" target="_top" xlink:title=" ">
<polygon fill="white" stroke="#666666" points="316.5,-207.71 149.75,-207.71 149.75,-184.71 316.5,-184.71 316.5,-207.71"/>
<text text-anchor="middle" x="233.12" y="-190.41" font-family="Helvetica,sans-Serif" font-size="14.00">mfem::Memory&lt; real_t &gt;</text>
</a>
</g>
</g>
<!-- Node10&#45;&gt;Node9 -->
<g id="edge13_Node000009_Node000010" class="edge">
<title>Node10&#45;&gt;Node9</title>
<g id="a_edge13_Node000009_Node000010"><a xlink:title=" ">
<path fill="none" stroke="#9a32cd" stroke-dasharray="5,2" d="M328.13,-196.21C394.8,-196.21 481.53,-196.21 534.65,-196.21"/>
<polygon fill="#9a32cd" stroke="#9a32cd" points="328.29,-192.71 318.29,-196.21 328.29,-199.71 328.29,-192.71"/>
</a>
</g>
<text text-anchor="middle" x="411.12" y="-197.91" font-family="Helvetica,sans-Serif" font-size="14.00" fill="grey"> data</text>
</g>
<!-- Node11&#45;&gt;Node2 -->
<g id="edge14_Node000002_Node000011" class="edge">
<title>Node11&#45;&gt;Node2</title>
<g id="a_edge14_Node000002_Node000011"><a xlink:title=" ">
<path fill="none" stroke="#9a32cd" stroke-dasharray="5,2" d="M499.48,-143.2C590.89,-140.88 738.49,-139.52 865.5,-149.21 983.79,-158.23 1120.46,-181.08 1198.18,-195.26"/>
<polygon fill="#9a32cd" stroke="#9a32cd" points="499.48,-139.69 489.58,-143.46 499.67,-146.69 499.48,-139.69"/>
</a>
</g>
<text text-anchor="middle" x="772.75" y="-165.91" font-family="Helvetica,sans-Serif" font-size="14.00" fill="grey"> hA</text>
<text text-anchor="middle" x="772.75" y="-150.91" font-family="Helvetica,sans-Serif" font-size="14.00" fill="grey">h_explicit_operator</text>
</g>
<!-- Node12 -->
<g id="Node000012" class="node">
<title>Node12</title>
<g id="a_Node000012"><a xlink:href="classmfem_1_1Array.html" target="_top" xlink:title=" ">
<polygon fill="white" stroke="#666666" points="1051.75,-115.21 906,-115.21 906,-77.21 1051.75,-77.21 1051.75,-115.21"/>
<text text-anchor="start" x="914" y="-97.91" font-family="Helvetica,sans-Serif" font-size="14.00">mfem::Array&lt; mfem::</text>
<text text-anchor="middle" x="978.88" y="-82.91" font-family="Helvetica,sans-Serif" font-size="14.00">Eliminator * &gt;</text>
</a>
</g>
</g>
<!-- Node12&#45;&gt;Node2 -->
<g id="edge16_Node000002_Node000012" class="edge">
<title>Node12&#45;&gt;Node2</title>
<g id="a_edge16_Node000002_Node000012"><a xlink:title=" ">
<path fill="none" stroke="#9a32cd" stroke-dasharray="5,2" d="M1063.01,-93.17C1095.15,-94.84 1131.47,-100.33 1162,-114.21 1202.55,-132.64 1237.12,-174.55 1252.43,-195.22"/>
<polygon fill="#9a32cd" stroke="#9a32cd" points="1063.47,-89.69 1053.35,-92.8 1063.2,-96.68 1063.47,-89.69"/>
</a>
</g>
<text text-anchor="middle" x="1127.12" y="-115.91" font-family="Helvetica,sans-Serif" font-size="14.00" fill="grey"> eliminators</text>
</g>
<!-- Node13 -->
<g id="Node000013" class="node">
<title>Node13</title>
<g id="a_Node000013"><a xlink:href="classmfem_1_1Memory.html" target="_top" xlink:title=" ">
<polygon fill="white" stroke="#666666" points="662,-115.21 505.75,-115.21 505.75,-77.21 662,-77.21 662,-115.21"/>
<text text-anchor="start" x="513.75" y="-97.91" font-family="Helvetica,sans-Serif" font-size="14.00">mfem::Memory&lt; mfem</text>
<text text-anchor="middle" x="583.88" y="-82.91" font-family="Helvetica,sans-Serif" font-size="14.00">::Eliminator * &gt;</text>
</a>
</g>
</g>
<!-- Node13&#45;&gt;Node12 -->
<g id="edge17_Node000012_Node000013" class="edge">
<title>Node13&#45;&gt;Node12</title>
<g id="a_edge17_Node000012_Node000013"><a xlink:title=" ">
<path fill="none" stroke="#9a32cd" stroke-dasharray="5,2" d="M673.49,-96.21C743.53,-96.21 840.08,-96.21 905.52,-96.21"/>
<polygon fill="#9a32cd" stroke="#9a32cd" points="673.56,-92.71 663.56,-96.21 673.56,-99.71 673.56,-92.71"/>
</a>
</g>
<text text-anchor="middle" x="772.75" y="-97.91" font-family="Helvetica,sans-Serif" font-size="14.00" fill="grey"> data</text>
</g>
<!-- Node14 -->
<g id="Node000014" class="node">
<title>Node14</title>
<g id="a_Node000014"><a xlink:href="classmfem_1_1Eliminator.html" target="_top" xlink:title="Perform elimination of a single constraint.">
<polygon fill="white" stroke="#666666" points="292.88,-107.71 173.38,-107.71 173.38,-84.71 292.88,-84.71 292.88,-107.71"/>
<text text-anchor="middle" x="233.12" y="-90.41" font-family="Helvetica,sans-Serif" font-size="14.00">mfem::Eliminator</text>
</a>
</g>
</g>
<!-- Node14&#45;&gt;Node13 -->
<g id="edge18_Node000013_Node000014" class="edge">
<title>Node14&#45;&gt;Node13</title>
<g id="a_edge18_Node000013_Node000014"><a xlink:title=" ">
<path fill="none" stroke="#9a32cd" stroke-dasharray="5,2" d="M304.59,-96.21C362.78,-96.21 445.29,-96.21 505.35,-96.21"/>
<polygon fill="#9a32cd" stroke="#9a32cd" points="304.8,-92.71 294.8,-96.21 304.8,-99.71 304.8,-92.71"/>
</a>
</g>
<text text-anchor="middle" x="411.12" y="-97.91" font-family="Helvetica,sans-Serif" font-size="14.00" fill="grey"> h_ptr</text>
</g>
<!-- Node15&#45;&gt;Node2 -->
<g id="edge19_Node000002_Node000015" class="edge">
<title>Node15&#45;&gt;Node2</title>
<g id="a_edge19_Node000002_Node000015"><a xlink:title=" ">
<path fill="none" stroke="#9a32cd" stroke-dasharray="5,2" d="M877.38,-38.9C935.84,-37.19 1009.86,-39.08 1074.25,-53.21 1115.76,-62.32 1127.83,-65.94 1162,-91.21 1203.27,-121.74 1238.77,-172.61 1253.55,-195.47"/>
<polygon fill="#9a32cd" stroke="#9a32cd" points="877.29,-35.41 867.42,-39.24 877.53,-42.4 877.29,-35.41"/>
</a>
</g>
<text text-anchor="middle" x="978.88" y="-54.91" font-family="Helvetica,sans-Serif" font-size="14.00" fill="grey"> projector</text>
</g>
</g>
</svg>

<g id="navigator" transform="translate(0 0)" fill="#404254">
  <rect fill="#f2f5e9" fill-opacity="0.5" stroke="#606060" stroke-width=".5" x="0" y="0" width="60" height="60"/>
  <use id="zoomplus" xlink:href="#zoomPlus" x="17" y="9" onmousedown="handleZoom(evt,'in')"/>
  <use id="zoomminus" xlink:href="#zoomMin" x="42" y="9" onmousedown="handleZoom(evt,'out')"/>
  <use id="reset" xlink:href="#resetDef" x="30" y="36" onmousedown="handleReset()"/>
   <use id="arrowup" xlink:href="#arrowUp" x="0" y="0" onmousedown="handlePan(0,-1)"/>
  <use id="arrowright" xlink:href="#arrowRight" x="0" y="0" onmousedown="handlePan(1,0)"/>
  <use id="arrowdown" xlink:href="#arrowDown" x="0" y="0" onmousedown="handlePan(0,1)"/>
  <use id="arrowleft" xlink:href="#arrowLeft" x="0" y="0" onmousedown="handlePan(-1,0)"/>
</g>
<svg viewBox="0 0 15 15" width="100%" height="30px" preserveAspectRatio="xMaxYMin meet">
 <g id="arrow_out" transform="scale(0.3 0.3)">
  <a xlink:href="classmfem_1_1EliminationGMRESSolver__coll__graph_org.svg" target="_base">
   <rect id="button" ry="5" rx="5" y="6" x="6" height="38" width="38"
        fill="#f2f5e9" fill-opacity="0.5" stroke="#606060" stroke-width="1.0"/>
   <path id="arrow"
     d="M 11.500037,31.436501 C 11.940474,20.09759 22.043105,11.32322 32.158766,21.979434 L 37.068811,17.246167 C 37.068811,17.246167 37.088388,32 37.088388,32 L 22.160133,31.978069 C 22.160133,31.978069 26.997745,27.140456 26.997745,27.140456 C 18.528582,18.264221 13.291696,25.230495 11.500037,31.436501 z"
     style="fill:#404040;"/>
  </a>
 </g>
</svg>

<style type='text/css'>
<![CDATA[
[data-mouse-over-selected='false'] { opacity: 0.7; }
[data-mouse-over-selected='true']  { opacity: 1.0; }
]]>
</style>
<script type="application/ecmascript"><![CDATA[
document.addEventListener('DOMContentLoaded', (event) => {
  highlightEdges();
  highlightAdjacentNodes();
});
]]></script>
</svg>
