<?xml version="1.0" encoding="UTF-8" standalone="no"?>
<!DOCTYPE svg PUBLIC "-//W3C//DTD SVG 1.1//EN"
 "http://www.w3.org/Graphics/SVG/1.1/DTD/svg11.dtd">
<!-- Generated by graphviz version 8.0.5 (0)
 -->
<!-- Title: mfem::CubicFECollection Pages: 1 -->
<svg width="478pt" height="202pt"
 viewBox="0.00 0.00 477.78 202.00" xmlns="http://www.w3.org/2000/svg" xmlns:xlink="http://www.w3.org/1999/xlink">
<g id="graph0" class="graph" transform="scale(1 1) rotate(0) translate(4 198)">
<title>mfem::CubicFECollection</title>
<!-- Node1 -->
<g id="node1" class="node">
<title>Node1</title>
<g id="a_node1"><a xlink:title="Piecewise&#45;(bi)cubic continuous finite elements.">
<polygon fill="#999999" stroke="#666666" points="173.94,-115 0,-115 0,-93 173.94,-93 173.94,-115"/>
<text text-anchor="middle" x="86.97" y="-99.8" font-family="Helvetica,sans-Serif" font-size="14.00">mfem::CubicFECollection</text>
</a>
</g>
</g>
<!-- Node2 -->
<g id="node2" class="node">
<title>Node2</title>
<g id="a_node2"><a xlink:href="classmfem_1_1FiniteElementCollection.html" target="_top" xlink:title="Collection of finite elements from the same family in multiple dimensions. This class is used to matc...">
<polygon fill="white" stroke="#666666" points="390.89,-194 185.04,-194 185.04,-172 390.89,-172 390.89,-194"/>
<text text-anchor="middle" x="287.97" y="-178.8" font-family="Helvetica,sans-Serif" font-size="14.00">mfem::FiniteElementCollection</text>
</a>
</g>
</g>
<!-- Node2&#45;&gt;Node1 -->
<g id="edge1" class="edge">
<title>Node2&#45;&gt;Node1</title>
<path fill="none" stroke="#63b8ff" d="M250.82,-167.77C211.27,-152.62 149.61,-129 114.29,-115.47"/>
<polygon fill="#63b8ff" stroke="#63b8ff" points="249.27,-171.31 259.86,-171.62 251.77,-164.77 249.27,-171.31"/>
</g>
<!-- Node4 -->
<g id="node4" class="node">
<title>Node4</title>
<g id="a_node4"><a xlink:href="classmfem_1_1Memory.html" target="_top" xlink:title=" ">
<polygon fill="white" stroke="#666666" points="384.09,-122 191.84,-122 191.84,-86 384.09,-86 384.09,-122"/>
<text text-anchor="start" x="199.84" y="-106.8" font-family="Helvetica,sans-Serif" font-size="14.00">mfem::Memory&lt; mfem</text>
<text text-anchor="middle" x="287.97" y="-92.8" font-family="Helvetica,sans-Serif" font-size="14.00">::FiniteElementCollection * &gt;</text>
</a>
</g>
</g>
<!-- Node2&#45;&gt;Node4 -->
<g id="edge4" class="edge">
<title>Node2&#45;&gt;Node4</title>
<path fill="none" stroke="#9a32cd" stroke-dasharray="5,2" d="M287.97,-160.7C287.97,-148.6 287.97,-133.64 287.97,-122.28"/>
<polygon fill="#9a32cd" stroke="#9a32cd" points="284.47,-160.62 287.97,-170.62 291.47,-160.62 284.47,-160.62"/>
<text text-anchor="middle" x="305.87" y="-142.8" font-family="Helvetica,sans-Serif" font-size="14.00"> h_ptr</text>
</g>
<!-- Node3 -->
<g id="node3" class="node">
<title>Node3</title>
<g id="a_node3"><a xlink:href="classmfem_1_1Array.html" target="_top" xlink:title=" ">
<polygon fill="white" stroke="#666666" points="446.2,-36 261.73,-36 261.73,0 446.2,0 446.2,-36"/>
<text text-anchor="start" x="269.73" y="-20.8" font-family="Helvetica,sans-Serif" font-size="14.00">mfem::Array&lt; mfem::</text>
<text text-anchor="middle" x="353.97" y="-6.8" font-family="Helvetica,sans-Serif" font-size="14.00">FiniteElementCollection * &gt;</text>
</a>
</g>
</g>
<!-- Node3&#45;&gt;Node2 -->
<g id="edge2" class="edge">
<title>Node3&#45;&gt;Node2</title>
<path fill="none" stroke="#9a32cd" stroke-dasharray="5,2" d="M376.01,-44.76C391.58,-66.25 407.33,-97.26 392.97,-122 378.37,-147.15 348.84,-162.65 324.8,-171.58"/>
<polygon fill="#9a32cd" stroke="#9a32cd" points="378.3,-42.98 369.44,-37.17 372.74,-47.24 378.3,-42.98"/>
<text text-anchor="middle" x="434.37" y="-99.8" font-family="Helvetica,sans-Serif" font-size="14.00"> var_orders</text>
</g>
<!-- Node4&#45;&gt;Node3 -->
<g id="edge3" class="edge">
<title>Node4&#45;&gt;Node3</title>
<path fill="none" stroke="#9a32cd" stroke-dasharray="5,2" d="M308.15,-77.31C318.58,-64.05 331.02,-48.2 340.31,-36.38"/>
<polygon fill="#9a32cd" stroke="#9a32cd" points="305.07,-74.57 301.64,-84.6 310.57,-78.89 305.07,-74.57"/>
<text text-anchor="middle" x="340.54" y="-56.8" font-family="Helvetica,sans-Serif" font-size="14.00"> data</text>
</g>
</g>
</svg>
