<?xml version="1.0" encoding="UTF-8" standalone="no"?>
<!DOCTYPE svg PUBLIC "-//W3C//DTD SVG 1.1//EN"
 "http://www.w3.org/Graphics/SVG/1.1/DTD/svg11.dtd">
<!-- Generated by graphviz version 12.0.0 (20240704.0754)
 -->
<!-- Title: mfem::ceed::PAConvectionIntegrator Pages: 1 -->
<svg width="189pt" height="223pt"
 viewBox="0.00 0.00 189.00 223.00" xmlns="http://www.w3.org/2000/svg" xmlns:xlink="http://www.w3.org/1999/xlink">
<g id="graph0" class="graph" transform="scale(1 1) rotate(0) translate(4 219)">
<title>mfem::ceed::PAConvectionIntegrator</title>
<!-- Node1 -->
<g id="Node000001" class="node">
<title>Node1</title>
<g id="a_Node000001"><a xlink:title="Represent a ConvectionIntegrator with AssemblyLevel::Partial using libCEED.">
<polygon fill="#999999" stroke="#666666" points="181,-38 0,-38 0,0 181,0 181,-38"/>
<text text-anchor="start" x="8" y="-20.7" font-family="Helvetica,sans-Serif" font-size="14.00">mfem::ceed::PAConvection</text>
<text text-anchor="middle" x="90.5" y="-5.7" font-family="Helvetica,sans-Serif" font-size="14.00">Integrator</text>
</a>
</g>
</g>
<!-- Node2 -->
<g id="Node000002" class="node">
<title>Node2</title>
<g id="a_Node000002"><a xlink:href="classmfem_1_1ceed_1_1PAIntegrator.html" target="_top" xlink:title=" ">
<polygon fill="white" stroke="#666666" points="176.12,-97 4.88,-97 4.88,-74 176.12,-74 176.12,-97"/>
<text text-anchor="middle" x="90.5" y="-79.7" font-family="Helvetica,sans-Serif" font-size="14.00">mfem::ceed::PAIntegrator</text>
</a>
</g>
</g>
<!-- Node2&#45;&gt;Node1 -->
<g id="edge1_Node000001_Node000002" class="edge">
<title>Node2&#45;&gt;Node1</title>
<g id="a_edge1_Node000001_Node000002"><a xlink:title=" ">
<path fill="none" stroke="#63b8ff" d="M90.5,-62.3C90.5,-54.49 90.5,-45.8 90.5,-38.33"/>
<polygon fill="#63b8ff" stroke="#63b8ff" points="87,-62.04 90.5,-72.04 94,-62.04 87,-62.04"/>
</a>
</g>
</g>
<!-- Node3 -->
<g id="Node000003" class="node">
<title>Node3</title>
<g id="a_Node000003"><a xlink:href="classmfem_1_1ceed_1_1Operator.html" target="_top" xlink:title=" ">
<polygon fill="white" stroke="#666666" points="165.25,-156 15.75,-156 15.75,-133 165.25,-133 165.25,-156"/>
<text text-anchor="middle" x="90.5" y="-138.7" font-family="Helvetica,sans-Serif" font-size="14.00">mfem::ceed::Operator</text>
</a>
</g>
</g>
<!-- Node3&#45;&gt;Node2 -->
<g id="edge2_Node000002_Node000003" class="edge">
<title>Node3&#45;&gt;Node2</title>
<g id="a_edge2_Node000002_Node000003"><a xlink:title=" ">
<path fill="none" stroke="#63b8ff" d="M90.5,-121.08C90.5,-112.96 90.5,-104.15 90.5,-97.46"/>
<polygon fill="#63b8ff" stroke="#63b8ff" points="87,-121 90.5,-131 94,-121 87,-121"/>
</a>
</g>
</g>
<!-- Node4 -->
<g id="Node000004" class="node">
<title>Node4</title>
<g id="a_Node000004"><a xlink:href="classmfem_1_1Operator.html" target="_top" xlink:title="Abstract operator.">
<polygon fill="white" stroke="#666666" points="146.88,-215 34.12,-215 34.12,-192 146.88,-192 146.88,-215"/>
<text text-anchor="middle" x="90.5" y="-197.7" font-family="Helvetica,sans-Serif" font-size="14.00">mfem::Operator</text>
</a>
</g>
</g>
<!-- Node4&#45;&gt;Node3 -->
<g id="edge3_Node000003_Node000004" class="edge">
<title>Node4&#45;&gt;Node3</title>
<g id="a_edge3_Node000003_Node000004"><a xlink:title=" ">
<path fill="none" stroke="#63b8ff" d="M90.5,-180.08C90.5,-171.96 90.5,-163.15 90.5,-156.46"/>
<polygon fill="#63b8ff" stroke="#63b8ff" points="87,-180 90.5,-190 94,-180 87,-180"/>
</a>
</g>
</g>
</g>
</svg>
