<?xml version="1.0" encoding="UTF-8" standalone="no"?>
<!DOCTYPE svg PUBLIC "-//W3C//DTD SVG 1.1//EN"
 "http://www.w3.org/Graphics/SVG/1.1/DTD/svg11.dtd">
<!-- Generated by graphviz version 8.0.5 (0)
 -->
<!-- Title: mfem::CrouzeixRaviartQuadFiniteElement Pages: 1 -->
<svg width="201pt" height="218pt"
 viewBox="0.00 0.00 200.61 218.00" xmlns="http://www.w3.org/2000/svg" xmlns:xlink="http://www.w3.org/1999/xlink">
<g id="graph0" class="graph" transform="scale(1 1) rotate(0) translate(4 214)">
<title>mfem::CrouzeixRaviartQuadFiniteElement</title>
<!-- Node1 -->
<g id="node1" class="node">
<title>Node1</title>
<g id="a_node1"><a xlink:title="A 2D Crouzeix&#45;Raviart finite element on square.">
<polygon fill="#999999" stroke="#666666" points="192.61,-36 0,-36 0,0 192.61,0 192.61,-36"/>
<text text-anchor="start" x="8" y="-20.8" font-family="Helvetica,sans-Serif" font-size="14.00">mfem::CrouzeixRaviartQuad</text>
<text text-anchor="middle" x="96.31" y="-6.8" font-family="Helvetica,sans-Serif" font-size="14.00">FiniteElement</text>
</a>
</g>
</g>
<!-- Node2 -->
<g id="node2" class="node">
<title>Node2</title>
<g id="a_node2"><a xlink:href="classmfem_1_1NodalFiniteElement.html" target="_top" xlink:title="Class for standard nodal finite elements.">
<polygon fill="white" stroke="#666666" points="186.78,-94 5.83,-94 5.83,-72 186.78,-72 186.78,-94"/>
<text text-anchor="middle" x="96.31" y="-78.8" font-family="Helvetica,sans-Serif" font-size="14.00">mfem::NodalFiniteElement</text>
</a>
</g>
</g>
<!-- Node2&#45;&gt;Node1 -->
<g id="edge1" class="edge">
<title>Node2&#45;&gt;Node1</title>
<path fill="none" stroke="#63b8ff" d="M96.31,-60.81C96.31,-52.76 96.31,-43.7 96.31,-36.07"/>
<polygon fill="#63b8ff" stroke="#63b8ff" points="92.81,-60.6 96.31,-70.6 99.81,-60.6 92.81,-60.6"/>
</g>
<!-- Node3 -->
<g id="node3" class="node">
<title>Node3</title>
<g id="a_node3"><a xlink:href="classmfem_1_1ScalarFiniteElement.html" target="_top" xlink:title="Class for finite elements with basis functions that return scalar values.">
<polygon fill="white" stroke="#666666" points="188.33,-152 4.28,-152 4.28,-130 188.33,-130 188.33,-152"/>
<text text-anchor="middle" x="96.31" y="-136.8" font-family="Helvetica,sans-Serif" font-size="14.00">mfem::ScalarFiniteElement</text>
</a>
</g>
</g>
<!-- Node3&#45;&gt;Node2 -->
<g id="edge2" class="edge">
<title>Node3&#45;&gt;Node2</title>
<path fill="none" stroke="#63b8ff" d="M96.31,-118.75C96.31,-110.34 96.31,-101.06 96.31,-94.21"/>
<polygon fill="#63b8ff" stroke="#63b8ff" points="92.81,-118.73 96.31,-128.73 99.81,-118.73 92.81,-118.73"/>
</g>
<!-- Node4 -->
<g id="node4" class="node">
<title>Node4</title>
<g id="a_node4"><a xlink:href="classmfem_1_1FiniteElement.html" target="_top" xlink:title="Abstract class for all finite elements.">
<polygon fill="white" stroke="#666666" points="168.49,-210 24.12,-210 24.12,-188 168.49,-188 168.49,-210"/>
<text text-anchor="middle" x="96.31" y="-194.8" font-family="Helvetica,sans-Serif" font-size="14.00">mfem::FiniteElement</text>
</a>
</g>
</g>
<!-- Node4&#45;&gt;Node3 -->
<g id="edge3" class="edge">
<title>Node4&#45;&gt;Node3</title>
<path fill="none" stroke="#63b8ff" d="M96.31,-176.75C96.31,-168.34 96.31,-159.06 96.31,-152.21"/>
<polygon fill="#63b8ff" stroke="#63b8ff" points="92.81,-176.73 96.31,-186.73 99.81,-176.73 92.81,-176.73"/>
</g>
</g>
</svg>
