<?xml version="1.0" encoding="UTF-8" standalone="no"?>
<!DOCTYPE svg PUBLIC "-//W3C//DTD SVG 1.1//EN"
 "http://www.w3.org/Graphics/SVG/1.1/DTD/svg11.dtd">
<!-- Generated by graphviz version 12.0.0 (20240704.0754)
 -->
<!-- Title: mfem::OptimizationSolver Pages: 1 -->
<svg width="356pt" height="267pt"
 viewBox="0.00 0.00 355.88 267.00" xmlns="http://www.w3.org/2000/svg" xmlns:xlink="http://www.w3.org/1999/xlink">
<g id="graph0" class="graph" transform="scale(1 1) rotate(0) translate(4 263)">
<title>mfem::OptimizationSolver</title>
<!-- Node1 -->
<g id="Node000001" class="node">
<title>Node1</title>
<g id="a_Node000001"><a xlink:title="Abstract solver for OptimizationProblems.">
<polygon fill="#999999" stroke="#666666" points="260.75,-82 87.25,-82 87.25,-59 260.75,-59 260.75,-82"/>
<text text-anchor="middle" x="174" y="-64.7" font-family="Helvetica,sans-Serif" font-size="14.00">mfem::OptimizationSolver</text>
</a>
</g>
</g>
<!-- Node5 -->
<g id="Node000005" class="node">
<title>Node5</title>
<g id="a_Node000005"><a xlink:href="classmfem_1_1HiopNlpOptimizer.html" target="_top" xlink:title="Adapts the HiOp functionality to the MFEM OptimizationSolver interface.">
<polygon fill="white" stroke="#666666" points="166,-23 0,-23 0,0 166,0 166,-23"/>
<text text-anchor="middle" x="83" y="-5.7" font-family="Helvetica,sans-Serif" font-size="14.00">mfem::HiopNlpOptimizer</text>
</a>
</g>
</g>
<!-- Node1&#45;&gt;Node5 -->
<g id="edge4_Node000001_Node000005" class="edge">
<title>Node1&#45;&gt;Node5</title>
<g id="a_edge4_Node000001_Node000005"><a xlink:title=" ">
<path fill="none" stroke="#63b8ff" d="M147.12,-52.66C132.05,-43.22 113.7,-31.73 100.49,-23.46"/>
<polygon fill="#63b8ff" stroke="#63b8ff" points="144.84,-55.36 155.17,-57.71 148.55,-49.43 144.84,-55.36"/>
</a>
</g>
</g>
<!-- Node6 -->
<g id="Node000006" class="node">
<title>Node6</title>
<g id="a_Node000006"><a xlink:href="classmfem_1_1SLBQPOptimizer.html" target="_top" xlink:title=" ">
<polygon fill="white" stroke="#666666" points="347.88,-23 184.12,-23 184.12,0 347.88,0 347.88,-23"/>
<text text-anchor="middle" x="266" y="-5.7" font-family="Helvetica,sans-Serif" font-size="14.00">mfem::SLBQPOptimizer</text>
</a>
</g>
</g>
<!-- Node1&#45;&gt;Node6 -->
<g id="edge5_Node000001_Node000006" class="edge">
<title>Node1&#45;&gt;Node6</title>
<g id="a_edge5_Node000001_Node000006"><a xlink:title=" ">
<path fill="none" stroke="#63b8ff" d="M201.18,-52.66C216.41,-43.22 234.97,-31.73 248.32,-23.46"/>
<polygon fill="#63b8ff" stroke="#63b8ff" points="199.68,-49.47 193.03,-57.71 203.37,-55.42 199.68,-49.47"/>
</a>
</g>
</g>
<!-- Node2 -->
<g id="Node000002" class="node">
<title>Node2</title>
<g id="a_Node000002"><a xlink:href="classmfem_1_1IterativeSolver.html" target="_top" xlink:title="Abstract base class for iterative solver.">
<polygon fill="white" stroke="#666666" points="246.5,-141 101.5,-141 101.5,-118 246.5,-118 246.5,-141"/>
<text text-anchor="middle" x="174" y="-123.7" font-family="Helvetica,sans-Serif" font-size="14.00">mfem::IterativeSolver</text>
</a>
</g>
</g>
<!-- Node2&#45;&gt;Node1 -->
<g id="edge1_Node000001_Node000002" class="edge">
<title>Node2&#45;&gt;Node1</title>
<g id="a_edge1_Node000001_Node000002"><a xlink:title=" ">
<path fill="none" stroke="#63b8ff" d="M174,-106.08C174,-97.96 174,-89.15 174,-82.46"/>
<polygon fill="#63b8ff" stroke="#63b8ff" points="170.5,-106 174,-116 177.5,-106 170.5,-106"/>
</a>
</g>
</g>
<!-- Node3 -->
<g id="Node000003" class="node">
<title>Node3</title>
<g id="a_Node000003"><a xlink:href="classmfem_1_1Solver.html" target="_top" xlink:title="Base class for solvers.">
<polygon fill="white" stroke="#666666" points="222.5,-200 125.5,-200 125.5,-177 222.5,-177 222.5,-200"/>
<text text-anchor="middle" x="174" y="-182.7" font-family="Helvetica,sans-Serif" font-size="14.00">mfem::Solver</text>
</a>
</g>
</g>
<!-- Node3&#45;&gt;Node2 -->
<g id="edge2_Node000002_Node000003" class="edge">
<title>Node3&#45;&gt;Node2</title>
<g id="a_edge2_Node000002_Node000003"><a xlink:title=" ">
<path fill="none" stroke="#63b8ff" d="M174,-165.08C174,-156.96 174,-148.15 174,-141.46"/>
<polygon fill="#63b8ff" stroke="#63b8ff" points="170.5,-165 174,-175 177.5,-165 170.5,-165"/>
</a>
</g>
</g>
<!-- Node4 -->
<g id="Node000004" class="node">
<title>Node4</title>
<g id="a_Node000004"><a xlink:href="classmfem_1_1Operator.html" target="_top" xlink:title="Abstract operator.">
<polygon fill="white" stroke="#666666" points="230.38,-259 117.62,-259 117.62,-236 230.38,-236 230.38,-259"/>
<text text-anchor="middle" x="174" y="-241.7" font-family="Helvetica,sans-Serif" font-size="14.00">mfem::Operator</text>
</a>
</g>
</g>
<!-- Node4&#45;&gt;Node3 -->
<g id="edge3_Node000003_Node000004" class="edge">
<title>Node4&#45;&gt;Node3</title>
<g id="a_edge3_Node000003_Node000004"><a xlink:title=" ">
<path fill="none" stroke="#63b8ff" d="M174,-224.08C174,-215.96 174,-207.15 174,-200.46"/>
<polygon fill="#63b8ff" stroke="#63b8ff" points="170.5,-224 174,-234 177.5,-224 170.5,-224"/>
</a>
</g>
</g>
</g>
</svg>
