<?xml version="1.0" encoding="UTF-8" standalone="no"?>
<!DOCTYPE svg PUBLIC "-//W3C//DTD SVG 1.1//EN"
 "http://www.w3.org/Graphics/SVG/1.1/DTD/svg11.dtd">
<!-- Generated by graphviz version 12.0.0 (20240704.0754)
 -->
<!-- Title: mfem::STRUMPACKMixedPrecisionSolver Pages: 1 -->
<!--zoomable 122 -->

<svg id="main" version="1.1" xmlns="http://www.w3.org/2000/svg" xmlns:xlink="http://www.w3.org/1999/xlink" xml:space="preserve" onload="init(evt)">
<style type="text/css"><![CDATA[
.node, .edge {opacity: 0.7;}
.node.selected, .edge.selected {opacity: 1;}
.edge:hover path { stroke: red; }
.edge:hover polygon { stroke: red; fill: red; }
]]></style>

<defs>
  <circle id="rim" cx="0" cy="0" r="7"/>
  <circle id="rim2" cx="0" cy="0" r="3.5"/>
  <g id="zoomPlus">
    <use xlink:href="#rim" fill="#404040"><set attributeName="fill" to="#808080" begin="zoomplus.mouseover" end="zoomplus.mouseout"/></use>
    <path d="M-4,0h8M0,-4v8" fill="none" stroke="white" stroke-width="1.5" pointer-events="none"/>
  </g>
  <g id="zoomMin">
    <use xlink:href="#rim" fill="#404040"><set attributeName="fill" to="#808080" begin="zoomminus.mouseover" end="zoomminus.mouseout"/></use>
    <path d="M-4,0h8" fill="none" stroke="white" stroke-width="1.5" pointer-events="none"/>
  </g>
  <g id="arrowUp" transform="translate(30 24)">
    <use xlink:href="#rim"/>
    <path pointer-events="none" fill="none" stroke="white" stroke-width="1.5" d="M0,-3.0v7 M-2.5,-0.5L0,-3.0L2.5,-0.5"/>
  </g>
  <g id="arrowRight" transform="rotate(90) translate(36 -43)">
    <use xlink:href="#rim"/>
    <path pointer-events="none" fill="none" stroke="white" stroke-width="1.5" d="M0,-3.0v7 M-2.5,-0.5L0,-3.0L2.5,-0.5"/>
  </g>
  <g id="arrowDown" transform="rotate(180) translate(-30 -48)">
    <use xlink:href="#rim"/>
    <path pointer-events="none" fill="none" stroke="white" stroke-width="1.5" d="M0,-3.0v7 M-2.5,-0.5L0,-3.0L2.5,-0.5"/>
  </g>
  <g id="arrowLeft" transform="rotate(270) translate(-36 17)">
    <use xlink:href="#rim"/>
    <path pointer-events="none" fill="none" stroke="white" stroke-width="1.5" d="M0,-3.0v7 M-2.5,-0.5L0,-3.0L2.5,-0.5"/>
  </g>
  <g id="resetDef">
    <use xlink:href="#rim2" fill="#404040"><set attributeName="fill" to="#808080" begin="reset.mouseover" end="reset.mouseout"/></use>
  </g>
</defs>
<script type="application/ecmascript">
var viewWidth = 1035;
var viewHeight = 122;
var sectionId = 'dynsection-1';
</script>
<script type="application/ecmascript" xlink:href="svg.min.js"/>
<svg id="graph" class="graph">
<g id="viewport">
<title>mfem::STRUMPACKMixedPrecisionSolver</title>
<!-- Node1 -->
<g id="Node000001" class="node">
<title>Node1</title>
<g id="a_Node000001"><a xlink:title=" ">
<polygon fill="#999999" stroke="#666666" points="1026.5,-83.5 790,-83.5 790,-45.5 1026.5,-45.5 1026.5,-83.5"/>
<text text-anchor="start" x="798" y="-66.2" font-family="Helvetica,sans-Serif" font-size="14.00">mfem::STRUMPACKMixedPrecision</text>
<text text-anchor="middle" x="908.25" y="-51.2" font-family="Helvetica,sans-Serif" font-size="14.00">Solver</text>
</a>
</g>
</g>
<!-- Node2 -->
<g id="Node000002" class="node">
<title>Node2</title>
<g id="a_Node000002"><a xlink:href="classmfem_1_1STRUMPACKSolverBase.html" target="_top" xlink:title=" ">
<polygon fill="white" stroke="#666666" points="753,-98.5 536.75,-98.5 536.75,-30.5 753,-30.5 753,-98.5"/>
<text text-anchor="start" x="544.75" y="-81.2" font-family="Helvetica,sans-Serif" font-size="14.00">mfem::STRUMPACKSolverBase</text>
<text text-anchor="start" x="544.75" y="-66.2" font-family="Helvetica,sans-Serif" font-size="14.00">&lt; strumpack::SparseSolverMixed</text>
<text text-anchor="start" x="544.75" y="-51.2" font-family="Helvetica,sans-Serif" font-size="14.00">PrecisionMPIDist&lt; float, double,</text>
<text text-anchor="middle" x="644.88" y="-36.2" font-family="Helvetica,sans-Serif" font-size="14.00"> HYPRE_BigInt &gt; &gt;</text>
</a>
</g>
</g>
<!-- Node2&#45;&gt;Node1 -->
<g id="edge1_Node000001_Node000002" class="edge">
<title>Node2&#45;&gt;Node1</title>
<g id="a_edge1_Node000001_Node000002"><a xlink:title=" ">
<path fill="none" stroke="#63b8ff" d="M764.6,-64.5C772.92,-64.5 781.3,-64.5 789.61,-64.5"/>
<polygon fill="#63b8ff" stroke="#63b8ff" points="764.83,-61 754.83,-64.5 764.83,-68 764.83,-61"/>
</a>
</g>
</g>
<!-- Node3 -->
<g id="Node000003" class="node">
<title>Node3</title>
<g id="a_Node000003"><a xlink:href="classmfem_1_1Solver.html" target="_top" xlink:title="Base class for solvers.">
<polygon fill="white" stroke="#666666" points="396.5,-114 299.5,-114 299.5,-91 396.5,-91 396.5,-114"/>
<text text-anchor="middle" x="348" y="-96.7" font-family="Helvetica,sans-Serif" font-size="14.00">mfem::Solver</text>
</a>
</g>
</g>
<!-- Node3&#45;&gt;Node2 -->
<g id="edge2_Node000002_Node000003" class="edge">
<title>Node3&#45;&gt;Node2</title>
<g id="a_edge2_Node000002_Node000003"><a xlink:title=" ">
<path fill="none" stroke="#63b8ff" d="M408.11,-95.36C440.75,-91.38 482,-86.27 518.75,-81.5 524.51,-80.75 530.42,-79.98 536.39,-79.19"/>
<polygon fill="#63b8ff" stroke="#63b8ff" points="407.95,-91.86 398.45,-96.54 408.8,-98.81 407.95,-91.86"/>
</a>
</g>
</g>
<!-- Node4 -->
<g id="Node000004" class="node">
<title>Node4</title>
<g id="a_Node000004"><a xlink:href="classmfem_1_1Operator.html" target="_top" xlink:title="Abstract operator.">
<polygon fill="white" stroke="#666666" points="139.75,-93 27,-93 27,-70 139.75,-70 139.75,-93"/>
<text text-anchor="middle" x="83.38" y="-75.7" font-family="Helvetica,sans-Serif" font-size="14.00">mfem::Operator</text>
</a>
</g>
</g>
<!-- Node4&#45;&gt;Node3 -->
<g id="edge3_Node000003_Node000004" class="edge">
<title>Node4&#45;&gt;Node3</title>
<g id="a_edge3_Node000003_Node000004"><a xlink:title=" ">
<path fill="none" stroke="#63b8ff" d="M151.5,-86.87C197.7,-90.56 257.97,-95.38 299.31,-98.69"/>
<polygon fill="#63b8ff" stroke="#63b8ff" points="151.83,-83.38 141.58,-86.07 151.27,-90.36 151.83,-83.38"/>
</a>
</g>
</g>
<!-- Node5 -->
<g id="Node000005" class="node">
<title>Node5</title>
<g id="a_Node000005"><a xlink:href="classmfem_1_1STRUMPACKRowLocMatrix.html" target="_top" xlink:title=" ">
<polygon fill="white" stroke="#666666" points="463.25,-73 232.75,-73 232.75,-50 463.25,-50 463.25,-73"/>
<text text-anchor="middle" x="348" y="-55.7" font-family="Helvetica,sans-Serif" font-size="14.00">mfem::STRUMPACKRowLocMatrix</text>
</a>
</g>
</g>
<!-- Node4&#45;&gt;Node5 -->
<g id="edge5_Node000005_Node000004" class="edge">
<title>Node4&#45;&gt;Node5</title>
<g id="a_edge5_Node000005_Node000004"><a xlink:title=" ">
<path fill="none" stroke="#63b8ff" d="M151.47,-76.39C176.13,-74.51 204.8,-72.33 232.47,-70.22"/>
<polygon fill="#63b8ff" stroke="#63b8ff" points="151.29,-72.89 141.58,-77.14 151.82,-79.87 151.29,-72.89"/>
</a>
</g>
</g>
<!-- Node5&#45;&gt;Node2 -->
<g id="edge4_Node000002_Node000005" class="edge">
<title>Node5&#45;&gt;Node2</title>
<g id="a_edge4_Node000002_Node000005"><a xlink:title=" ">
<path fill="none" stroke="#9a32cd" stroke-dasharray="5,2" d="M474.74,-62.78C495.22,-62.99 516.28,-63.2 536.27,-63.41"/>
<polygon fill="#9a32cd" stroke="#9a32cd" points="474.98,-59.28 464.94,-62.68 474.91,-66.28 474.98,-59.28"/>
</a>
</g>
<text text-anchor="middle" x="500" y="-64.2" font-family="Helvetica,sans-Serif" font-size="14.00" fill="grey"> APtr_</text>
</g>
<!-- Node6 -->
<g id="Node000006" class="node">
<title>Node6</title>
<g id="a_Node000006"><a xlink:href="classmfem_1_1Vector.html" target="_top" xlink:title="Vector data type.">
<polygon fill="white" stroke="#666666" points="396.88,-23 299.12,-23 299.12,0 396.88,0 396.88,-23"/>
<text text-anchor="middle" x="348" y="-5.7" font-family="Helvetica,sans-Serif" font-size="14.00">mfem::Vector</text>
</a>
</g>
</g>
<!-- Node6&#45;&gt;Node2 -->
<g id="edge6_Node000002_Node000006" class="edge">
<title>Node6&#45;&gt;Node2</title>
<g id="a_edge6_Node000002_Node000006"><a xlink:title=" ">
<path fill="none" stroke="#9a32cd" stroke-dasharray="5,2" d="M408.47,-14.82C441.21,-17.31 482.46,-21.52 518.75,-28.5 524.52,-29.61 530.41,-30.87 536.34,-32.23"/>
<polygon fill="#9a32cd" stroke="#9a32cd" points="409,-11.35 398.77,-14.12 408.49,-18.33 409,-11.35"/>
</a>
</g>
<text text-anchor="middle" x="500" y="-45.2" font-family="Helvetica,sans-Serif" font-size="14.00" fill="grey"> rhs_</text>
<text text-anchor="middle" x="500" y="-30.2" font-family="Helvetica,sans-Serif" font-size="14.00" fill="grey">sol_</text>
</g>
<!-- Node7 -->
<g id="Node000007" class="node">
<title>Node7</title>
<g id="a_Node000007"><a xlink:href="classmfem_1_1Memory.html" target="_top" xlink:title=" ">
<polygon fill="white" stroke="#666666" points="166.75,-23 0,-23 0,0 166.75,0 166.75,-23"/>
<text text-anchor="middle" x="83.38" y="-5.7" font-family="Helvetica,sans-Serif" font-size="14.00">mfem::Memory&lt; real_t &gt;</text>
</a>
</g>
</g>
<!-- Node7&#45;&gt;Node6 -->
<g id="edge7_Node000006_Node000007" class="edge">
<title>Node7&#45;&gt;Node6</title>
<g id="a_edge7_Node000006_Node000007"><a xlink:title=" ">
<path fill="none" stroke="#9a32cd" stroke-dasharray="5,2" d="M178.44,-11.5C219.16,-11.5 265.08,-11.5 298.7,-11.5"/>
<polygon fill="#9a32cd" stroke="#9a32cd" points="178.62,-8 168.62,-11.5 178.62,-15 178.62,-8"/>
</a>
</g>
<text text-anchor="middle" x="199.75" y="-13.2" font-family="Helvetica,sans-Serif" font-size="14.00" fill="grey"> data</text>
</g>
</g>
</svg>

<g id="navigator" transform="translate(0 0)" fill="#404254">
  <rect fill="#f2f5e9" fill-opacity="0.5" stroke="#606060" stroke-width=".5" x="0" y="0" width="60" height="60"/>
  <use id="zoomplus" xlink:href="#zoomPlus" x="17" y="9" onmousedown="handleZoom(evt,'in')"/>
  <use id="zoomminus" xlink:href="#zoomMin" x="42" y="9" onmousedown="handleZoom(evt,'out')"/>
  <use id="reset" xlink:href="#resetDef" x="30" y="36" onmousedown="handleReset()"/>
   <use id="arrowup" xlink:href="#arrowUp" x="0" y="0" onmousedown="handlePan(0,-1)"/>
  <use id="arrowright" xlink:href="#arrowRight" x="0" y="0" onmousedown="handlePan(1,0)"/>
  <use id="arrowdown" xlink:href="#arrowDown" x="0" y="0" onmousedown="handlePan(0,1)"/>
  <use id="arrowleft" xlink:href="#arrowLeft" x="0" y="0" onmousedown="handlePan(-1,0)"/>
</g>
<svg viewBox="0 0 15 15" width="100%" height="30px" preserveAspectRatio="xMaxYMin meet">
 <g id="arrow_out" transform="scale(0.3 0.3)">
  <a xlink:href="classmfem_1_1STRUMPACKMixedPrecisionSolver__coll__graph_org.svg" target="_base">
   <rect id="button" ry="5" rx="5" y="6" x="6" height="38" width="38"
        fill="#f2f5e9" fill-opacity="0.5" stroke="#606060" stroke-width="1.0"/>
   <path id="arrow"
     d="M 11.500037,31.436501 C 11.940474,20.09759 22.043105,11.32322 32.158766,21.979434 L 37.068811,17.246167 C 37.068811,17.246167 37.088388,32 37.088388,32 L 22.160133,31.978069 C 22.160133,31.978069 26.997745,27.140456 26.997745,27.140456 C 18.528582,18.264221 13.291696,25.230495 11.500037,31.436501 z"
     style="fill:#404040;"/>
  </a>
 </g>
</svg>

<style type='text/css'>
<![CDATA[
[data-mouse-over-selected='false'] { opacity: 0.7; }
[data-mouse-over-selected='true']  { opacity: 1.0; }
]]>
</style>
<script type="application/ecmascript"><![CDATA[
document.addEventListener('DOMContentLoaded', (event) => {
  highlightEdges();
  highlightAdjacentNodes();
});
]]></script>
</svg>
