<?xml version="1.0" encoding="UTF-8" standalone="no"?>
<!DOCTYPE svg PUBLIC "-//W3C//DTD SVG 1.1//EN"
 "http://www.w3.org/Graphics/SVG/1.1/DTD/svg11.dtd">
<!-- Generated by graphviz version 12.0.0 (20240704.0754)
 -->
<!-- Title: mfem::TraceIntegrator Pages: 1 -->
<svg width="215pt" height="149pt"
 viewBox="0.00 0.00 214.50 149.00" xmlns="http://www.w3.org/2000/svg" xmlns:xlink="http://www.w3.org/1999/xlink">
<g id="graph0" class="graph" transform="scale(1 1) rotate(0) translate(4 145)">
<title>mfem::TraceIntegrator</title>
<!-- Node1 -->
<g id="Node000001" class="node">
<title>Node1</title>
<g id="a_Node000001"><a xlink:title=" ">
<polygon fill="#999999" stroke="#666666" points="178.75,-23 27.75,-23 27.75,0 178.75,0 178.75,-23"/>
<text text-anchor="middle" x="103.25" y="-5.7" font-family="Helvetica,sans-Serif" font-size="14.00">mfem::TraceIntegrator</text>
</a>
</g>
</g>
<!-- Node2 -->
<g id="Node000002" class="node">
<title>Node2</title>
<g id="a_Node000002"><a xlink:href="classmfem_1_1BilinearFormIntegrator.html" target="_top" xlink:title="Abstract base class BilinearFormIntegrator.">
<polygon fill="white" stroke="#666666" points="200.12,-82 6.38,-82 6.38,-59 200.12,-59 200.12,-82"/>
<text text-anchor="middle" x="103.25" y="-64.7" font-family="Helvetica,sans-Serif" font-size="14.00">mfem::BilinearFormIntegrator</text>
</a>
</g>
</g>
<!-- Node2&#45;&gt;Node1 -->
<g id="edge1_Node000001_Node000002" class="edge">
<title>Node2&#45;&gt;Node1</title>
<g id="a_edge1_Node000001_Node000002"><a xlink:title=" ">
<path fill="none" stroke="#63b8ff" d="M103.25,-47.08C103.25,-38.96 103.25,-30.15 103.25,-23.46"/>
<polygon fill="#63b8ff" stroke="#63b8ff" points="99.75,-47 103.25,-57 106.75,-47 99.75,-47"/>
</a>
</g>
</g>
<!-- Node3 -->
<g id="Node000003" class="node">
<title>Node3</title>
<g id="a_Node000003"><a xlink:href="classmfem_1_1NonlinearFormIntegrator.html" target="_top" xlink:title="This class is used to express the local action of a general nonlinear finite element operator....">
<polygon fill="white" stroke="#666666" points="206.5,-141 0,-141 0,-118 206.5,-118 206.5,-141"/>
<text text-anchor="middle" x="103.25" y="-123.7" font-family="Helvetica,sans-Serif" font-size="14.00">mfem::NonlinearFormIntegrator</text>
</a>
</g>
</g>
<!-- Node3&#45;&gt;Node2 -->
<g id="edge2_Node000002_Node000003" class="edge">
<title>Node3&#45;&gt;Node2</title>
<g id="a_edge2_Node000002_Node000003"><a xlink:title=" ">
<path fill="none" stroke="#63b8ff" d="M103.25,-106.08C103.25,-97.96 103.25,-89.15 103.25,-82.46"/>
<polygon fill="#63b8ff" stroke="#63b8ff" points="99.75,-106 103.25,-116 106.75,-106 99.75,-106"/>
</a>
</g>
</g>
</g>
</svg>
