<?xml version="1.0" encoding="UTF-8" standalone="no"?>
<!DOCTYPE svg PUBLIC "-//W3C//DTD SVG 1.1//EN"
 "http://www.w3.org/Graphics/SVG/1.1/DTD/svg11.dtd">
<!-- Generated by graphviz version 12.0.0 (20240704.0754)
 -->
<!-- Title: mfem::MINRESSolver Pages: 1 -->
<svg width="879pt" height="202pt"
 viewBox="0.00 0.00 879.25 201.50" xmlns="http://www.w3.org/2000/svg" xmlns:xlink="http://www.w3.org/1999/xlink">
<g id="graph0" class="graph" transform="scale(1 1) rotate(0) translate(4 197.5)">
<title>mfem::MINRESSolver</title>
<!-- Node1 -->
<g id="Node000001" class="node">
<title>Node1</title>
<g id="a_Node000001"><a xlink:title="MINRES method.">
<polygon fill="#999999" stroke="#666666" points="851,-91 700.75,-91 700.75,-68 851,-68 851,-91"/>
<text text-anchor="middle" x="775.88" y="-73.7" font-family="Helvetica,sans-Serif" font-size="14.00">mfem::MINRESSolver</text>
</a>
</g>
</g>
<!-- Node2 -->
<g id="Node000002" class="node">
<title>Node2</title>
<g id="a_Node000002"><a xlink:href="classmfem_1_1IterativeSolver.html" target="_top" xlink:title="Abstract base class for iterative solver.">
<polygon fill="white" stroke="#666666" points="578.5,-161 433.5,-161 433.5,-138 578.5,-138 578.5,-161"/>
<text text-anchor="middle" x="506" y="-143.7" font-family="Helvetica,sans-Serif" font-size="14.00">mfem::IterativeSolver</text>
</a>
</g>
</g>
<!-- Node2&#45;&gt;Node1 -->
<g id="edge1_Node000001_Node000002" class="edge">
<title>Node2&#45;&gt;Node1</title>
<g id="a_edge1_Node000001_Node000002"><a xlink:title=" ">
<path fill="none" stroke="#63b8ff" d="M563.86,-134.64C613.18,-121.75 683.64,-103.34 729.32,-91.4"/>
<polygon fill="#63b8ff" stroke="#63b8ff" points="563,-131.25 554.21,-137.16 564.77,-138.02 563,-131.25"/>
</a>
</g>
</g>
<!-- Node5 -->
<g id="Node000005" class="node">
<title>Node5</title>
<g id="a_Node000005"><a xlink:href="classmfem_1_1IterativeSolverMonitor.html" target="_top" xlink:title="Abstract base class for an iterative solver monitor.">
<polygon fill="white" stroke="#666666" points="871.25,-180 680.5,-180 680.5,-157 871.25,-157 871.25,-180"/>
<text text-anchor="middle" x="775.88" y="-162.7" font-family="Helvetica,sans-Serif" font-size="14.00">mfem::IterativeSolverMonitor</text>
</a>
</g>
</g>
<!-- Node2&#45;&gt;Node5 -->
<g id="edge7_Node000005_Node000002" class="edge">
<title>Node2&#45;&gt;Node5</title>
<g id="a_edge7_Node000005_Node000002"><a xlink:title=" ">
<path fill="none" stroke="#9a32cd" stroke-dasharray="5,2" d="M590.23,-146.62C592.34,-146.57 594.43,-146.53 596.5,-146.5 625.83,-146.01 633.3,-143.67 662.5,-146.5 683.08,-148.5 705.48,-152.5 724.83,-156.55"/>
<polygon fill="#9a32cd" stroke="#9a32cd" points="590.23,-143.12 580.32,-146.85 590.4,-150.11 590.23,-143.12"/>
</a>
</g>
<text text-anchor="middle" x="629.5" y="-148.2" font-family="Helvetica,sans-Serif" font-size="14.00" fill="grey"> iter_solver</text>
</g>
<!-- Node3 -->
<g id="Node000003" class="node">
<title>Node3</title>
<g id="a_Node000003"><a xlink:href="classmfem_1_1Solver.html" target="_top" xlink:title="Base class for solvers.">
<polygon fill="white" stroke="#666666" points="281.62,-162 184.62,-162 184.62,-139 281.62,-139 281.62,-162"/>
<text text-anchor="middle" x="233.12" y="-144.7" font-family="Helvetica,sans-Serif" font-size="14.00">mfem::Solver</text>
</a>
</g>
</g>
<!-- Node3&#45;&gt;Node2 -->
<g id="edge2_Node000002_Node000003" class="edge">
<title>Node3&#45;&gt;Node2</title>
<g id="a_edge2_Node000002_Node000003"><a xlink:title=" ">
<path fill="none" stroke="#63b8ff" d="M293.26,-148.44C306.81,-148.05 321.15,-147.7 334.5,-147.5 370.5,-146.96 379.5,-147.1 415.5,-147.5 421.25,-147.56 427.21,-147.65 433.19,-147.75"/>
<polygon fill="#63b8ff" stroke="#63b8ff" points="293.51,-144.93 283.62,-148.73 293.72,-151.93 293.51,-144.93"/>
</a>
</g>
</g>
<!-- Node3&#45;&gt;Node2 -->
<g id="edge5_Node000002_Node000003" class="edge">
<title>Node3&#45;&gt;Node2</title>
<g id="a_edge5_Node000002_Node000003"><a xlink:title=" ">
<path fill="none" stroke="#9a32cd" stroke-dasharray="5,2" d="M293.41,-150.28C334.56,-150.13 389.6,-149.93 433.23,-149.76"/>
<polygon fill="#9a32cd" stroke="#9a32cd" points="293.43,-146.78 283.44,-150.32 293.45,-153.78 293.43,-146.78"/>
</a>
</g>
<text text-anchor="middle" x="375" y="-151.2" font-family="Helvetica,sans-Serif" font-size="14.00" fill="grey"> prec</text>
</g>
<!-- Node4 -->
<g id="Node000004" class="node">
<title>Node4</title>
<g id="a_Node000004"><a xlink:href="classmfem_1_1Operator.html" target="_top" xlink:title="Abstract operator.">
<polygon fill="white" stroke="#666666" points="112.75,-186 0,-186 0,-163 112.75,-163 112.75,-186"/>
<text text-anchor="middle" x="56.38" y="-168.7" font-family="Helvetica,sans-Serif" font-size="14.00">mfem::Operator</text>
</a>
</g>
</g>
<!-- Node4&#45;&gt;Node2 -->
<g id="edge4_Node000002_Node000004" class="edge">
<title>Node4&#45;&gt;Node2</title>
<g id="a_edge4_Node000002_Node000004"><a xlink:title=" ">
<path fill="none" stroke="#9a32cd" stroke-dasharray="5,2" d="M124.32,-177.5C196.48,-179.78 314.57,-180.72 415.5,-168.5 428.9,-166.88 443.27,-164.24 456.49,-161.44"/>
<polygon fill="#9a32cd" stroke="#9a32cd" points="124.77,-174.01 114.65,-177.18 124.53,-181.01 124.77,-174.01"/>
</a>
</g>
<text text-anchor="middle" x="233.12" y="-180.2" font-family="Helvetica,sans-Serif" font-size="14.00" fill="grey"> oper</text>
</g>
<!-- Node4&#45;&gt;Node3 -->
<g id="edge3_Node000003_Node000004" class="edge">
<title>Node4&#45;&gt;Node3</title>
<g id="a_edge3_Node000003_Node000004"><a xlink:title=" ">
<path fill="none" stroke="#63b8ff" d="M124.36,-165.3C144.31,-162.56 165.76,-159.61 184.22,-157.08"/>
<polygon fill="#63b8ff" stroke="#63b8ff" points="124.08,-161.81 114.65,-166.63 125.03,-168.74 124.08,-161.81"/>
</a>
</g>
</g>
<!-- Node5&#45;&gt;Node2 -->
<g id="edge6_Node000002_Node000005" class="edge">
<title>Node5&#45;&gt;Node2</title>
<g id="a_edge6_Node000002_Node000005"><a xlink:title=" ">
<path fill="none" stroke="#9a32cd" stroke-dasharray="5,2" d="M669.05,-169.51C645.15,-168.96 619.92,-167.78 596.5,-165.5 586.6,-164.54 576.16,-163.08 566.03,-161.43"/>
<polygon fill="#9a32cd" stroke="#9a32cd" points="668.71,-173.01 678.78,-169.7 668.85,-166.01 668.71,-173.01"/>
</a>
</g>
<text text-anchor="middle" x="629.5" y="-170.2" font-family="Helvetica,sans-Serif" font-size="14.00" fill="grey"> monitor</text>
</g>
<!-- Node6 -->
<g id="Node000006" class="node">
<title>Node6</title>
<g id="a_Node000006"><a xlink:href="structmfem_1_1IterativeSolver_1_1PrintLevel.html" target="_top" xlink:title="Settings for the output behavior of the IterativeSolver.">
<polygon fill="white" stroke="#666666" points="305.62,-120.5 160.62,-120.5 160.62,-82.5 305.62,-82.5 305.62,-120.5"/>
<text text-anchor="start" x="168.62" y="-103.2" font-family="Helvetica,sans-Serif" font-size="14.00">mfem::IterativeSolver</text>
<text text-anchor="middle" x="233.12" y="-88.2" font-family="Helvetica,sans-Serif" font-size="14.00">::PrintLevel</text>
</a>
</g>
</g>
<!-- Node6&#45;&gt;Node2 -->
<g id="edge8_Node000002_Node000006" class="edge">
<title>Node6&#45;&gt;Node2</title>
<g id="a_edge8_Node000002_Node000006"><a xlink:title=" ">
<path fill="none" stroke="#9a32cd" stroke-dasharray="5,2" d="M317.1,-111.64C348.09,-115.89 383.52,-121.29 415.5,-127.5 430.11,-130.34 445.91,-134.01 460.12,-137.55"/>
<polygon fill="#9a32cd" stroke="#9a32cd" points="317.78,-108.2 307.4,-110.33 316.84,-115.14 317.78,-108.2"/>
</a>
</g>
<text text-anchor="middle" x="375" y="-129.2" font-family="Helvetica,sans-Serif" font-size="14.00" fill="grey"> print_options</text>
</g>
<!-- Node7 -->
<g id="Node000007" class="node">
<title>Node7</title>
<g id="a_Node000007"><a xlink:href="classmfem_1_1Vector.html" target="_top" xlink:title="Vector data type.">
<polygon fill="white" stroke="#666666" points="554.88,-23 457.12,-23 457.12,0 554.88,0 554.88,-23"/>
<text text-anchor="middle" x="506" y="-5.7" font-family="Helvetica,sans-Serif" font-size="14.00">mfem::Vector</text>
</a>
</g>
</g>
<!-- Node7&#45;&gt;Node1 -->
<g id="edge9_Node000001_Node000007" class="edge">
<title>Node7&#45;&gt;Node1</title>
<g id="a_edge9_Node000001_Node000007"><a xlink:title=" ">
<path fill="none" stroke="#9a32cd" stroke-dasharray="5,2" d="M566.54,-4.63C595.94,-3.05 631.62,-3.89 662.5,-12.5 701.44,-23.36 740.56,-51.51 760.78,-67.66"/>
<polygon fill="#9a32cd" stroke="#9a32cd" points="566.46,-1.12 556.71,-5.27 566.92,-8.11 566.46,-1.12"/>
</a>
</g>
<text text-anchor="middle" x="629.5" y="-89.2" font-family="Helvetica,sans-Serif" font-size="14.00" fill="grey"> q</text>
<text text-anchor="middle" x="629.5" y="-74.2" font-family="Helvetica,sans-Serif" font-size="14.00" fill="grey">u1</text>
<text text-anchor="middle" x="629.5" y="-59.2" font-family="Helvetica,sans-Serif" font-size="14.00" fill="grey">v0</text>
<text text-anchor="middle" x="629.5" y="-44.2" font-family="Helvetica,sans-Serif" font-size="14.00" fill="grey">v1</text>
<text text-anchor="middle" x="629.5" y="-29.2" font-family="Helvetica,sans-Serif" font-size="14.00" fill="grey">w0</text>
<text text-anchor="middle" x="629.5" y="-14.2" font-family="Helvetica,sans-Serif" font-size="14.00" fill="grey">w1</text>
</g>
<!-- Node8 -->
<g id="Node000008" class="node">
<title>Node8</title>
<g id="a_Node000008"><a xlink:href="classmfem_1_1Memory.html" target="_top" xlink:title=" ">
<polygon fill="white" stroke="#666666" points="316.5,-23 149.75,-23 149.75,0 316.5,0 316.5,-23"/>
<text text-anchor="middle" x="233.12" y="-5.7" font-family="Helvetica,sans-Serif" font-size="14.00">mfem::Memory&lt; real_t &gt;</text>
</a>
</g>
</g>
<!-- Node8&#45;&gt;Node7 -->
<g id="edge10_Node000007_Node000008" class="edge">
<title>Node8&#45;&gt;Node7</title>
<g id="a_edge10_Node000007_Node000008"><a xlink:title=" ">
<path fill="none" stroke="#9a32cd" stroke-dasharray="5,2" d="M328.34,-11.5C371.75,-11.5 421.41,-11.5 457,-11.5"/>
<polygon fill="#9a32cd" stroke="#9a32cd" points="328.38,-8 318.38,-11.5 328.38,-15 328.38,-8"/>
</a>
</g>
<text text-anchor="middle" x="375" y="-13.2" font-family="Helvetica,sans-Serif" font-size="14.00" fill="grey"> data</text>
</g>
</g>
</svg>
