<?xml version="1.0" encoding="UTF-8" standalone="no"?>
<!DOCTYPE svg PUBLIC "-//W3C//DTD SVG 1.1//EN"
 "http://www.w3.org/Graphics/SVG/1.1/DTD/svg11.dtd">
<!-- Generated by graphviz version 8.0.5 (0)
 -->
<!-- Title: mfem::QuadPos1DFiniteElement Pages: 1 -->
<!--zoomable 619 -->
<svg id="main" version="1.1" xmlns="http://www.w3.org/2000/svg" xmlns:xlink="http://www.w3.org/1999/xlink" xml:space="preserve" onload="init(evt)">
<style type="text/css"><![CDATA[
.edge:hover path { stroke: red; }
.edge:hover polygon { stroke: red; fill: red; }
]]></style>
<script type="text/javascript"><![CDATA[
var edges = document.getElementsByTagName('g');
if (edges && edges.length) {
  for (var i=0;i<edges.length;i++) {
    if (edges[i].id.substr(0,4)=='edge') {
      edges[i].setAttribute('class','edge');
    }
  }
}
]]></script>
        <defs>
                <circle id="rim" cx="0" cy="0" r="7"/>
                <circle id="rim2" cx="0" cy="0" r="3.5"/>
                <g id="zoomPlus">
                        <use xlink:href="#rim" fill="#404040">
                                <set attributeName="fill" to="#808080" begin="zoomplus.mouseover" end="zoomplus.mouseout"/>
                        </use>
                        <path d="M-4,0h8M0,-4v8" fill="none" stroke="white" stroke-width="1.5" pointer-events="none"/>
                </g>
                <g id="zoomMin">
                        <use xlink:href="#rim" fill="#404040">
                                <set attributeName="fill" to="#808080" begin="zoomminus.mouseover" end="zoomminus.mouseout"/>
                        </use>
                        <path d="M-4,0h8" fill="none" stroke="white" stroke-width="1.5" pointer-events="none"/>
                </g>
                <g id="dirArrow">
                        <path fill="none" stroke="white" stroke-width="1.5" d="M0,-3.0v7 M-2.5,-0.5L0,-3.0L2.5,-0.5"/>
                </g>
               <g id="resetDef">
                       <use xlink:href="#rim2" fill="#404040">
                               <set attributeName="fill" to="#808080" begin="reset.mouseover" end="reset.mouseout"/>
                       </use>
               </g>
        </defs>

<script type="text/javascript">
var viewWidth = 605;
var viewHeight = 619;
var sectionId = 'dynsection-1';
</script>
<script xlink:href="svgpan.js"/>
<svg id="graph" class="graph">
<g id="viewport">
<title>mfem::QuadPos1DFiniteElement</title>
<!-- Node1 -->
<g id="node1" class="node">
<title>Node1</title>
<g id="a_node1"><a xlink:title="A 1D quadratic positive element utilizing the 2nd order Bernstein basis.">
<polygon fill="#999999" stroke="#666666" points="220.64,-29 0,-29 0,-7 220.64,-7 220.64,-29"/>
<text text-anchor="middle" x="110.32" y="-13.8" font-family="Helvetica,sans-Serif" font-size="14.00">mfem::QuadPos1DFiniteElement</text>
</a>
</g>
</g>
<!-- Node2 -->
<g id="node2" class="node">
<title>Node2</title>
<g id="a_node2"><a xlink:href="classmfem_1_1PositiveFiniteElement.html" target="_top" xlink:title="Class for finite elements utilizing the always positive Bernstein basis.">
<polygon fill="white" stroke="#666666" points="207.02,-115 13.62,-115 13.62,-93 207.02,-93 207.02,-115"/>
<text text-anchor="middle" x="110.32" y="-99.8" font-family="Helvetica,sans-Serif" font-size="14.00">mfem::PositiveFiniteElement</text>
</a>
</g>
</g>
<!-- Node2&#45;&gt;Node1 -->
<g id="edge1" class="edge">
<title>Node2&#45;&gt;Node1</title>
<path fill="none" stroke="#63b8ff" d="M110.32,-81.77C110.32,-65.03 110.32,-42.4 110.32,-29.38"/>
<polygon fill="#63b8ff" stroke="#63b8ff" points="106.82,-81.7 110.32,-91.7 113.82,-81.7 106.82,-81.7"/>
</g>
<!-- Node3 -->
<g id="node3" class="node">
<title>Node3</title>
<g id="a_node3"><a xlink:href="classmfem_1_1ScalarFiniteElement.html" target="_top" xlink:title="Class for finite elements with basis functions that return scalar values.">
<polygon fill="white" stroke="#666666" points="206.35,-194 22.29,-194 22.29,-172 206.35,-172 206.35,-194"/>
<text text-anchor="middle" x="114.32" y="-178.8" font-family="Helvetica,sans-Serif" font-size="14.00">mfem::ScalarFiniteElement</text>
</a>
</g>
</g>
<!-- Node3&#45;&gt;Node2 -->
<g id="edge2" class="edge">
<title>Node3&#45;&gt;Node2</title>
<path fill="none" stroke="#63b8ff" d="M113.22,-160.87C112.45,-146.02 111.45,-126.81 110.85,-115.22"/>
<polygon fill="#63b8ff" stroke="#63b8ff" points="109.77,-160.81 113.78,-170.62 116.76,-160.45 109.77,-160.81"/>
</g>
<!-- Node4 -->
<g id="node4" class="node">
<title>Node4</title>
<g id="a_node4"><a xlink:href="classmfem_1_1FiniteElement.html" target="_top" xlink:title="Abstract class for all finite elements.">
<polygon fill="white" stroke="#666666" points="307.51,-308 163.13,-308 163.13,-286 307.51,-286 307.51,-308"/>
<text text-anchor="middle" x="235.32" y="-292.8" font-family="Helvetica,sans-Serif" font-size="14.00">mfem::FiniteElement</text>
</a>
</g>
</g>
<!-- Node4&#45;&gt;Node3 -->
<g id="edge3" class="edge">
<title>Node4&#45;&gt;Node3</title>
<path fill="none" stroke="#63b8ff" d="M216.28,-278.37C190.72,-254.72 146.15,-213.46 125.46,-194.31"/>
<polygon fill="#63b8ff" stroke="#63b8ff" points="213.44,-280.44 223.15,-284.66 218.19,-275.3 213.44,-280.44"/>
</g>
<!-- Node14 -->
<g id="node14" class="node">
<title>Node14</title>
<g id="a_node14"><a xlink:href="classmfem_1_1DofToQuad.html" target="_top" xlink:title="Structure representing the matrices/tensors needed to evaluate (in reference space) the values,...">
<polygon fill="white" stroke="#666666" points="421.12,-194 291.52,-194 291.52,-172 421.12,-172 421.12,-194"/>
<text text-anchor="middle" x="356.32" y="-178.8" font-family="Helvetica,sans-Serif" font-size="14.00">mfem::DofToQuad</text>
</a>
</g>
</g>
<!-- Node4&#45;&gt;Node14 -->
<g id="edge14" class="edge">
<title>Node4&#45;&gt;Node14</title>
<path fill="none" stroke="#9a32cd" stroke-dasharray="5,2" d="M250.88,-277.62C266.37,-259.85 291.26,-232.66 315.54,-212 323,-205.66 331.9,-199.41 339.48,-194.43"/>
<polygon fill="#9a32cd" stroke="#9a32cd" points="247.96,-274.65 244.08,-284.51 253.26,-279.22 247.96,-274.65"/>
<text text-anchor="middle" x="327.21" y="-235.8" font-family="Helvetica,sans-Serif" font-size="14.00"> FE</text>
</g>
<!-- Node5 -->
<g id="node5" class="node">
<title>Node5</title>
<g id="a_node5"><a xlink:href="classmfem_1_1IntegrationRule.html" target="_top" xlink:title="Class for an integration rule &#45; an Array of IntegrationPoint.">
<polygon fill="white" stroke="#666666" points="410.19,-380 256.46,-380 256.46,-358 410.19,-358 410.19,-380"/>
<text text-anchor="middle" x="333.32" y="-364.8" font-family="Helvetica,sans-Serif" font-size="14.00">mfem::IntegrationRule</text>
</a>
</g>
</g>
<!-- Node5&#45;&gt;Node4 -->
<g id="edge4" class="edge">
<title>Node5&#45;&gt;Node4</title>
<path fill="none" stroke="#9a32cd" stroke-dasharray="5,2" d="M309.54,-351.64C304.08,-347.84 298.3,-343.8 292.96,-340 278.03,-329.38 261.1,-317 249.47,-308.45"/>
<polygon fill="#9a32cd" stroke="#9a32cd" points="307.1,-354.9 317.31,-357.71 311.08,-349.14 307.1,-354.9"/>
<text text-anchor="middle" x="315.5" y="-328.8" font-family="Helvetica,sans-Serif" font-size="14.00"> Nodes</text>
</g>
<!-- Node5&#45;&gt;Node14 -->
<g id="edge15" class="edge">
<title>Node5&#45;&gt;Node14</title>
<path fill="none" stroke="#9a32cd" stroke-dasharray="5,2" d="M336.4,-346.76C336.72,-344.48 337.03,-342.19 337.32,-340 344.59,-285.09 352.28,-219.17 355.15,-194.23"/>
<polygon fill="#9a32cd" stroke="#9a32cd" points="332.8,-346.24 334.85,-356.64 339.73,-347.23 332.8,-346.24"/>
<text text-anchor="middle" x="367.44" y="-292.8" font-family="Helvetica,sans-Serif" font-size="14.00"> IntRule</text>
</g>
<!-- Node6 -->
<g id="node6" class="node">
<title>Node6</title>
<g id="a_node6"><a xlink:href="classmfem_1_1Array.html" target="_top" xlink:title=" ">
<polygon fill="white" stroke="#666666" points="418.55,-453 248.09,-453 248.09,-417 418.55,-417 418.55,-453"/>
<text text-anchor="start" x="256.09" y="-437.8" font-family="Helvetica,sans-Serif" font-size="14.00">mfem::Array&lt; Integration</text>
<text text-anchor="middle" x="333.32" y="-423.8" font-family="Helvetica,sans-Serif" font-size="14.00">Point &gt;</text>
</a>
</g>
</g>
<!-- Node6&#45;&gt;Node5 -->
<g id="edge5" class="edge">
<title>Node6&#45;&gt;Node5</title>
<path fill="none" stroke="#63b8ff" d="M333.32,-405.6C333.32,-396.65 333.32,-387.32 333.32,-380.46"/>
<polygon fill="#63b8ff" stroke="#63b8ff" points="329.82,-405.51 333.32,-415.51 336.82,-405.51 329.82,-405.51"/>
</g>
<!-- Node7 -->
<g id="node7" class="node">
<title>Node7</title>
<g id="a_node7"><a xlink:href="classmfem_1_1Memory.html" target="_top" xlink:title=" ">
<polygon fill="white" stroke="#666666" points="428.1,-539 240.54,-539 240.54,-503 428.1,-503 428.1,-539"/>
<text text-anchor="start" x="248.54" y="-523.8" font-family="Helvetica,sans-Serif" font-size="14.00">mfem::Memory&lt; Integration</text>
<text text-anchor="middle" x="334.32" y="-509.8" font-family="Helvetica,sans-Serif" font-size="14.00">Point &gt;</text>
</a>
</g>
</g>
<!-- Node7&#45;&gt;Node6 -->
<g id="edge6" class="edge">
<title>Node7&#45;&gt;Node6</title>
<path fill="none" stroke="#9a32cd" stroke-dasharray="5,2" d="M333.98,-491.63C333.83,-478.95 333.66,-464.42 333.53,-453.38"/>
<polygon fill="#9a32cd" stroke="#9a32cd" points="330.49,-491.64 334.11,-501.6 337.49,-491.55 330.49,-491.64"/>
<text text-anchor="middle" x="348.89" y="-473.8" font-family="Helvetica,sans-Serif" font-size="14.00"> data</text>
</g>
<!-- Node8 -->
<g id="node8" class="node">
<title>Node8</title>
<g id="a_node8"><a xlink:href="classmfem_1_1IntegrationPoint.html" target="_top" xlink:title="Class for integration point with weight.">
<polygon fill="white" stroke="#666666" points="412.74,-611 255.9,-611 255.9,-589 412.74,-589 412.74,-611"/>
<text text-anchor="middle" x="334.32" y="-595.8" font-family="Helvetica,sans-Serif" font-size="14.00">mfem::IntegrationPoint</text>
</a>
</g>
</g>
<!-- Node8&#45;&gt;Node7 -->
<g id="edge7" class="edge">
<title>Node8&#45;&gt;Node7</title>
<path fill="none" stroke="#9a32cd" stroke-dasharray="5,2" d="M334.32,-577.7C334.32,-565.6 334.32,-550.64 334.32,-539.28"/>
<polygon fill="#9a32cd" stroke="#9a32cd" points="330.82,-577.62 334.32,-587.62 337.82,-577.62 330.82,-577.62"/>
<text text-anchor="middle" x="352.22" y="-559.8" font-family="Helvetica,sans-Serif" font-size="14.00"> h_ptr</text>
</g>
<!-- Node9 -->
<g id="node9" class="node">
<title>Node9</title>
<g id="a_node9"><a xlink:href="classmfem_1_1DenseMatrix.html" target="_top" xlink:title="Data type dense matrix using column&#45;major storage.">
<polygon fill="white" stroke="#666666" points="238,-380 100.64,-380 100.64,-358 238,-358 238,-380"/>
<text text-anchor="middle" x="169.32" y="-364.8" font-family="Helvetica,sans-Serif" font-size="14.00">mfem::DenseMatrix</text>
</a>
</g>
</g>
<!-- Node9&#45;&gt;Node4 -->
<g id="edge8" class="edge">
<title>Node9&#45;&gt;Node4</title>
<path fill="none" stroke="#9a32cd" stroke-dasharray="5,2" d="M186.56,-349.72C198.98,-336.55 215.29,-319.24 225.54,-308.37"/>
<polygon fill="#9a32cd" stroke="#9a32cd" points="184.37,-346.99 180.06,-356.67 189.47,-351.8 184.37,-346.99"/>
<text text-anchor="middle" x="232.84" y="-328.8" font-family="Helvetica,sans-Serif" font-size="14.00"> vshape</text>
</g>
<!-- Node10 -->
<g id="node10" class="node">
<title>Node10</title>
<g id="a_node10"><a xlink:href="classmfem_1_1Matrix.html" target="_top" xlink:title="Abstract data type matrix.">
<polygon fill="white" stroke="#666666" points="215.77,-446 118.88,-446 118.88,-424 215.77,-424 215.77,-446"/>
<text text-anchor="middle" x="167.32" y="-430.8" font-family="Helvetica,sans-Serif" font-size="14.00">mfem::Matrix</text>
</a>
</g>
</g>
<!-- Node10&#45;&gt;Node9 -->
<g id="edge9" class="edge">
<title>Node10&#45;&gt;Node9</title>
<path fill="none" stroke="#63b8ff" d="M167.98,-412.94C168.32,-402.05 168.72,-389.25 168.99,-380.47"/>
<polygon fill="#63b8ff" stroke="#63b8ff" points="164.46,-412.61 167.64,-422.72 171.45,-412.83 164.46,-412.61"/>
</g>
<!-- Node11 -->
<g id="node11" class="node">
<title>Node11</title>
<g id="a_node11"><a xlink:href="classmfem_1_1Operator.html" target="_top" xlink:title="Abstract operator.">
<polygon fill="white" stroke="#666666" points="222.33,-532 108.31,-532 108.31,-510 222.33,-510 222.33,-532"/>
<text text-anchor="middle" x="165.32" y="-516.8" font-family="Helvetica,sans-Serif" font-size="14.00">mfem::Operator</text>
</a>
</g>
</g>
<!-- Node11&#45;&gt;Node10 -->
<g id="edge10" class="edge">
<title>Node11&#45;&gt;Node10</title>
<path fill="none" stroke="#63b8ff" d="M165.83,-498.77C166.22,-482.03 166.76,-459.4 167.07,-446.38"/>
<polygon fill="#63b8ff" stroke="#63b8ff" points="162.3,-498.62 165.57,-508.7 169.3,-498.79 162.3,-498.62"/>
</g>
<!-- Node12 -->
<g id="node12" class="node">
<title>Node12</title>
<g id="a_node12"><a xlink:href="classmfem_1_1Array.html" target="_top" xlink:title=" ">
<polygon fill="white" stroke="#666666" points="409.86,-36 262.78,-36 262.78,0 409.86,0 409.86,-36"/>
<text text-anchor="start" x="270.78" y="-20.8" font-family="Helvetica,sans-Serif" font-size="14.00">mfem::Array&lt; mfem::</text>
<text text-anchor="middle" x="336.32" y="-6.8" font-family="Helvetica,sans-Serif" font-size="14.00">DofToQuad * &gt;</text>
</a>
</g>
</g>
<!-- Node12&#45;&gt;Node4 -->
<g id="edge11" class="edge">
<title>Node12&#45;&gt;Node4</title>
<path fill="none" stroke="#9a32cd" stroke-dasharray="5,2" d="M303.52,-43.2C289.75,-54.81 274.58,-69.74 264.32,-86 222.49,-152.3 230.19,-253.65 233.96,-285.83"/>
<polygon fill="#9a32cd" stroke="#9a32cd" points="305.31,-45.44 310.86,-36.42 300.89,-40.01 305.31,-45.44"/>
<text text-anchor="middle" x="293.3" y="-142.8" font-family="Helvetica,sans-Serif" font-size="14.00"> dof2quad_array</text>
</g>
<!-- Node13 -->
<g id="node13" class="node">
<title>Node13</title>
<g id="a_node13"><a xlink:href="classmfem_1_1Memory.html" target="_top" xlink:title=" ">
<polygon fill="white" stroke="#666666" points="429.52,-122 273.12,-122 273.12,-86 429.52,-86 429.52,-122"/>
<text text-anchor="start" x="281.12" y="-106.8" font-family="Helvetica,sans-Serif" font-size="14.00">mfem::Memory&lt; mfem</text>
<text text-anchor="middle" x="351.32" y="-92.8" font-family="Helvetica,sans-Serif" font-size="14.00">::DofToQuad * &gt;</text>
</a>
</g>
</g>
<!-- Node13&#45;&gt;Node12 -->
<g id="edge12" class="edge">
<title>Node13&#45;&gt;Node12</title>
<path fill="none" stroke="#9a32cd" stroke-dasharray="5,2" d="M346.32,-75.02C344.04,-62.25 341.41,-47.53 339.42,-36.38"/>
<polygon fill="#9a32cd" stroke="#9a32cd" points="343.01,-75.37 348.21,-84.6 349.9,-74.14 343.01,-75.37"/>
<text text-anchor="middle" x="359.89" y="-56.8" font-family="Helvetica,sans-Serif" font-size="14.00"> data</text>
</g>
<!-- Node14&#45;&gt;Node13 -->
<g id="edge13" class="edge">
<title>Node14&#45;&gt;Node13</title>
<path fill="none" stroke="#9a32cd" stroke-dasharray="5,2" d="M354.94,-160.7C354.15,-148.6 353.18,-133.64 352.44,-122.28"/>
<polygon fill="#9a32cd" stroke="#9a32cd" points="351.51,-160.86 355.65,-170.62 358.49,-160.41 351.51,-160.86"/>
<text text-anchor="middle" x="372.22" y="-142.8" font-family="Helvetica,sans-Serif" font-size="14.00"> h_ptr</text>
</g>
<!-- Node15 -->
<g id="node15" class="node">
<title>Node15</title>
<g id="a_node15"><a xlink:href="classmfem_1_1Array.html" target="_top" xlink:title=" ">
<polygon fill="white" stroke="#666666" points="579.01,-308 427.63,-308 427.63,-286 579.01,-286 579.01,-308"/>
<text text-anchor="middle" x="503.32" y="-292.8" font-family="Helvetica,sans-Serif" font-size="14.00">mfem::Array&lt; real_t &gt;</text>
</a>
</g>
</g>
<!-- Node15&#45;&gt;Node14 -->
<g id="edge16" class="edge">
<title>Node15&#45;&gt;Node14</title>
<path fill="none" stroke="#9a32cd" stroke-dasharray="5,2" d="M481.39,-279.29C450.55,-255.8 395.32,-213.71 369.85,-194.31"/>
<polygon fill="#9a32cd" stroke="#9a32cd" points="478.68,-282.39 488.75,-285.66 482.92,-276.82 478.68,-282.39"/>
<text text-anchor="middle" x="470.71" y="-256.8" font-family="Helvetica,sans-Serif" font-size="14.00"> B</text>
<text text-anchor="middle" x="470.71" y="-242.8" font-family="Helvetica,sans-Serif" font-size="14.00">Bt</text>
<text text-anchor="middle" x="470.71" y="-228.8" font-family="Helvetica,sans-Serif" font-size="14.00">G</text>
<text text-anchor="middle" x="470.71" y="-214.8" font-family="Helvetica,sans-Serif" font-size="14.00">Gt</text>
</g>
<!-- Node16 -->
<g id="node16" class="node">
<title>Node16</title>
<g id="a_node16"><a xlink:href="classmfem_1_1Memory.html" target="_top" xlink:title=" ">
<polygon fill="white" stroke="#666666" points="596.56,-380 428.08,-380 428.08,-358 596.56,-358 596.56,-380"/>
<text text-anchor="middle" x="512.32" y="-364.8" font-family="Helvetica,sans-Serif" font-size="14.00">mfem::Memory&lt; real_t &gt;</text>
</a>
</g>
</g>
<!-- Node16&#45;&gt;Node15 -->
<g id="edge17" class="edge">
<title>Node16&#45;&gt;Node15</title>
<path fill="none" stroke="#9a32cd" stroke-dasharray="5,2" d="M509.62,-347.03C507.98,-334.27 505.96,-318.52 504.65,-308.37"/>
<polygon fill="#9a32cd" stroke="#9a32cd" points="506.25,-347.2 510.99,-356.67 513.19,-346.31 506.25,-347.2"/>
<text text-anchor="middle" x="523.89" y="-328.8" font-family="Helvetica,sans-Serif" font-size="14.00"> data</text>
</g>
</g>
</svg>
        <g id="navigator" transform="translate(0 0)" fill="#404254">
                <rect fill="#f2f5e9" fill-opacity="0.5" stroke="#606060" stroke-width=".5" x="0" y="0" width="60" height="60"/>
                <use id="zoomplus" xlink:href="#zoomPlus" x="17" y="9" onmousedown="handleZoom(evt,'in')"/>
                <use id="zoomminus" xlink:href="#zoomMin" x="42" y="9" onmousedown="handleZoom(evt,'out')"/>
                <use id="reset" xlink:href="#resetDef" x="30" y="36" onmousedown="handleReset()"/>
                <g id="arrowUp" xlink:href="#dirArrow" transform="translate(30 24)" onmousedown="handlePan(0,-1)">
                  <use xlink:href="#rim" fill="#404040">
                        <set attributeName="fill" to="#808080" begin="arrowUp.mouseover" end="arrowUp.mouseout"/>
                  </use>
                  <path fill="none" stroke="white" stroke-width="1.5" d="M0,-3.0v7 M-2.5,-0.5L0,-3.0L2.5,-0.5"/>
                </g>
                <g id="arrowRight" xlink:href="#dirArrow" transform="rotate(90) translate(36 -43)" onmousedown="handlePan(1,0)">
                  <use xlink:href="#rim" fill="#404040">
                        <set attributeName="fill" to="#808080" begin="arrowRight.mouseover" end="arrowRight.mouseout"/>
                  </use>
                  <path fill="none" stroke="white" stroke-width="1.5" d="M0,-3.0v7 M-2.5,-0.5L0,-3.0L2.5,-0.5"/>
                </g>
                <g id="arrowDown" xlink:href="#dirArrow" transform="rotate(180) translate(-30 -48)" onmousedown="handlePan(0,1)">
                  <use xlink:href="#rim" fill="#404040">
                        <set attributeName="fill" to="#808080" begin="arrowDown.mouseover" end="arrowDown.mouseout"/>
                  </use>
                  <path fill="none" stroke="white" stroke-width="1.5" d="M0,-3.0v7 M-2.5,-0.5L0,-3.0L2.5,-0.5"/>
                </g>
                <g id="arrowLeft" xlink:href="#dirArrow" transform="rotate(270) translate(-36 17)" onmousedown="handlePan(-1,0)">
                  <use xlink:href="#rim" fill="#404040">
                        <set attributeName="fill" to="#808080" begin="arrowLeft.mouseover" end="arrowLeft.mouseout"/>
                  </use>
                  <path fill="none" stroke="white" stroke-width="1.5" d="M0,-3.0v7 M-2.5,-0.5L0,-3.0L2.5,-0.5"/>
                </g>
        </g>
        <svg viewBox="0 0 15 15" width="100%" height="30px" preserveAspectRatio="xMaxYMin meet">
         <g id="arrow_out" transform="scale(0.3 0.3)">
          <a xlink:href="classmfem_1_1QuadPos1DFiniteElement__coll__graph_org.svg" target="_base">
           <rect id="button" ry="5" rx="5" y="6" x="6" height="38" width="38"
                fill="#f2f5e9" fill-opacity="0.5" stroke="#606060" stroke-width="1.0"/>
           <path id="arrow"
             d="M 11.500037,31.436501 C 11.940474,20.09759 22.043105,11.32322 32.158766,21.979434 L 37.068811,17.246167 C 37.068811,17.246167 37.088388,32 37.088388,32 L 22.160133,31.978069 C 22.160133,31.978069 26.997745,27.140456 26.997745,27.140456 C 18.528582,18.264221 13.291696,25.230495 11.500037,31.436501 z"
             style="fill:#404040;"/>
          </a>
         </g>
        </svg>
</svg>
