<?xml version="1.0" encoding="UTF-8" standalone="no"?>
<!DOCTYPE svg PUBLIC "-//W3C//DTD SVG 1.1//EN"
 "http://www.w3.org/Graphics/SVG/1.1/DTD/svg11.dtd">
<!-- Generated by graphviz version 12.0.0 (20240704.0754)
 -->
<!-- Title: mfem::BlockVector Pages: 1 -->
<svg width="175pt" height="179pt"
 viewBox="0.00 0.00 174.75 179.00" xmlns="http://www.w3.org/2000/svg" xmlns:xlink="http://www.w3.org/1999/xlink">
<g id="graph0" class="graph" transform="scale(1 1) rotate(0) translate(4 175)">
<title>mfem::BlockVector</title>
<!-- Node1 -->
<g id="Node000001" class="node">
<title>Node1</title>
<g id="a_Node000001"><a xlink:title="A class to handle Vectors in a block fashion.">
<polygon fill="#999999" stroke="#666666" points="148.75,-23 18,-23 18,0 148.75,0 148.75,-23"/>
<text text-anchor="middle" x="83.38" y="-5.7" font-family="Helvetica,sans-Serif" font-size="14.00">mfem::BlockVector</text>
</a>
</g>
</g>
<!-- Node2 -->
<g id="Node000002" class="node">
<title>Node2</title>
<g id="a_Node000002"><a xlink:href="classmfem_1_1Vector.html" target="_top" xlink:title="Vector data type.">
<polygon fill="white" stroke="#666666" points="132.25,-97 34.5,-97 34.5,-74 132.25,-74 132.25,-97"/>
<text text-anchor="middle" x="83.38" y="-79.7" font-family="Helvetica,sans-Serif" font-size="14.00">mfem::Vector</text>
</a>
</g>
</g>
<!-- Node2&#45;&gt;Node1 -->
<g id="edge1_Node000001_Node000002" class="edge">
<title>Node2&#45;&gt;Node1</title>
<g id="a_edge1_Node000001_Node000002"><a xlink:title=" ">
<path fill="none" stroke="#63b8ff" d="M81.68,-62.48C81.55,-60.29 81.45,-58.1 81.38,-56 81.14,-49.34 81.14,-47.66 81.38,-41 81.58,-35.15 82.02,-28.64 82.44,-23.32"/>
<polygon fill="#63b8ff" stroke="#63b8ff" points="78.16,-62.43 82.33,-72.17 85.15,-61.96 78.16,-62.43"/>
</a>
</g>
</g>
<!-- Node2&#45;&gt;Node1 -->
<g id="edge3_Node000001_Node000002" class="edge">
<title>Node2&#45;&gt;Node1</title>
<g id="a_edge3_Node000001_Node000002"><a xlink:title=" ">
<path fill="none" stroke="#9a32cd" stroke-dasharray="5,2" d="M83.38,-62.2C83.38,-49.17 83.38,-33.31 83.38,-23.07"/>
<polygon fill="#9a32cd" stroke="#9a32cd" points="79.88,-62.05 83.38,-72.05 86.88,-62.05 79.88,-62.05"/>
</a>
</g>
<text text-anchor="middle" x="104.38" y="-42.7" font-family="Helvetica,sans-Serif" font-size="14.00" fill="grey"> blocks</text>
</g>
<!-- Node3 -->
<g id="Node000003" class="node">
<title>Node3</title>
<g id="a_Node000003"><a xlink:href="classmfem_1_1Memory.html" target="_top" xlink:title=" ">
<polygon fill="white" stroke="#666666" points="166.75,-171 0,-171 0,-148 166.75,-148 166.75,-171"/>
<text text-anchor="middle" x="83.38" y="-153.7" font-family="Helvetica,sans-Serif" font-size="14.00">mfem::Memory&lt; real_t &gt;</text>
</a>
</g>
</g>
<!-- Node3&#45;&gt;Node2 -->
<g id="edge2_Node000002_Node000003" class="edge">
<title>Node3&#45;&gt;Node2</title>
<g id="a_edge2_Node000002_Node000003"><a xlink:title=" ">
<path fill="none" stroke="#9a32cd" stroke-dasharray="5,2" d="M83.38,-136.2C83.38,-123.17 83.38,-107.31 83.38,-97.07"/>
<polygon fill="#9a32cd" stroke="#9a32cd" points="79.88,-136.05 83.38,-146.05 86.88,-136.05 79.88,-136.05"/>
</a>
</g>
<text text-anchor="middle" x="98.38" y="-116.7" font-family="Helvetica,sans-Serif" font-size="14.00" fill="grey"> data</text>
</g>
</g>
</svg>
