<?xml version="1.0" encoding="UTF-8" standalone="no"?>
<!DOCTYPE svg PUBLIC "-//W3C//DTD SVG 1.1//EN"
 "http://www.w3.org/Graphics/SVG/1.1/DTD/svg11.dtd">
<!-- Generated by graphviz version 12.0.0 (20240704.0754)
 -->
<!-- Title: mfem::VectorDivergenceIntegrator Pages: 1 -->
<svg width="535pt" height="477pt"
 viewBox="0.00 0.00 535.12 477.00" xmlns="http://www.w3.org/2000/svg" xmlns:xlink="http://www.w3.org/1999/xlink">
<g id="graph0" class="graph" transform="scale(1 1) rotate(0) translate(4 473)">
<title>mfem::VectorDivergenceIntegrator</title>
<!-- Node1 -->
<g id="Node000001" class="node">
<title>Node1</title>
<g id="a_Node000001"><a xlink:title=" ">
<polygon fill="#999999" stroke="#666666" points="472.25,-23 248.5,-23 248.5,0 472.25,0 472.25,-23"/>
<text text-anchor="middle" x="360.38" y="-5.7" font-family="Helvetica,sans-Serif" font-size="14.00">mfem::VectorDivergenceIntegrator</text>
</a>
</g>
</g>
<!-- Node2 -->
<g id="Node000002" class="node">
<title>Node2</title>
<g id="a_Node000002"><a xlink:href="classmfem_1_1BilinearFormIntegrator.html" target="_top" xlink:title="Abstract base class BilinearFormIntegrator.">
<polygon fill="white" stroke="#666666" points="369.25,-97 175.5,-97 175.5,-74 369.25,-74 369.25,-97"/>
<text text-anchor="middle" x="272.38" y="-79.7" font-family="Helvetica,sans-Serif" font-size="14.00">mfem::BilinearFormIntegrator</text>
</a>
</g>
</g>
<!-- Node2&#45;&gt;Node1 -->
<g id="edge1_Node000001_Node000002" class="edge">
<title>Node2&#45;&gt;Node1</title>
<g id="a_edge1_Node000001_Node000002"><a xlink:title=" ">
<path fill="none" stroke="#63b8ff" d="M294.3,-66.56C310.92,-52.97 333.2,-34.73 347.17,-23.3"/>
<polygon fill="#63b8ff" stroke="#63b8ff" points="292.43,-63.57 286.91,-72.61 296.87,-68.98 292.43,-63.57"/>
</a>
</g>
</g>
<!-- Node3 -->
<g id="Node000003" class="node">
<title>Node3</title>
<g id="a_Node000003"><a xlink:href="classmfem_1_1NonlinearFormIntegrator.html" target="_top" xlink:title="This class is used to express the local action of a general nonlinear finite element operator....">
<polygon fill="white" stroke="#666666" points="375.62,-157 169.12,-157 169.12,-134 375.62,-134 375.62,-157"/>
<text text-anchor="middle" x="272.38" y="-139.7" font-family="Helvetica,sans-Serif" font-size="14.00">mfem::NonlinearFormIntegrator</text>
</a>
</g>
</g>
<!-- Node3&#45;&gt;Node2 -->
<g id="edge2_Node000002_Node000003" class="edge">
<title>Node3&#45;&gt;Node2</title>
<g id="a_edge2_Node000002_Node000003"><a xlink:title=" ">
<path fill="none" stroke="#63b8ff" d="M272.38,-122.09C272.38,-113.6 272.38,-104.32 272.38,-97.36"/>
<polygon fill="#63b8ff" stroke="#63b8ff" points="268.88,-122.08 272.38,-132.08 275.88,-122.08 268.88,-122.08"/>
</a>
</g>
</g>
<!-- Node4 -->
<g id="Node000004" class="node">
<title>Node4</title>
<g id="a_Node000004"><a xlink:href="classmfem_1_1IntegrationRule.html" target="_top" xlink:title="Class for an integration rule &#45; an Array of IntegrationPoint.">
<polygon fill="white" stroke="#666666" points="167.5,-231 17.25,-231 17.25,-208 167.5,-208 167.5,-231"/>
<text text-anchor="middle" x="92.38" y="-213.7" font-family="Helvetica,sans-Serif" font-size="14.00">mfem::IntegrationRule</text>
</a>
</g>
</g>
<!-- Node4&#45;&gt;Node3 -->
<g id="edge3_Node000003_Node000004" class="edge">
<title>Node4&#45;&gt;Node3</title>
<g id="a_edge3_Node000003_Node000004"><a xlink:title=" ">
<path fill="none" stroke="#9a32cd" stroke-dasharray="5,2" d="M130.28,-203.34C164.65,-189.59 214.47,-169.66 245.08,-157.42"/>
<polygon fill="#9a32cd" stroke="#9a32cd" points="129.1,-200.04 121.12,-207 131.7,-206.54 129.1,-200.04"/>
</a>
</g>
<text text-anchor="middle" x="222.62" y="-176.7" font-family="Helvetica,sans-Serif" font-size="14.00" fill="grey"> IntRule</text>
</g>
<!-- Node5 -->
<g id="Node000005" class="node">
<title>Node5</title>
<g id="a_Node000005"><a xlink:href="classmfem_1_1Array.html" target="_top" xlink:title=" ">
<polygon fill="white" stroke="#666666" points="175.75,-306 9,-306 9,-268 175.75,-268 175.75,-306"/>
<text text-anchor="start" x="17" y="-288.7" font-family="Helvetica,sans-Serif" font-size="14.00">mfem::Array&lt; Integration</text>
<text text-anchor="middle" x="92.38" y="-273.7" font-family="Helvetica,sans-Serif" font-size="14.00">Point &gt;</text>
</a>
</g>
</g>
<!-- Node5&#45;&gt;Node4 -->
<g id="edge4_Node000004_Node000005" class="edge">
<title>Node5&#45;&gt;Node4</title>
<g id="a_edge4_Node000004_Node000005"><a xlink:title=" ">
<path fill="none" stroke="#63b8ff" d="M92.38,-256.47C92.38,-247.57 92.38,-238.35 92.38,-231.47"/>
<polygon fill="#63b8ff" stroke="#63b8ff" points="88.88,-256.24 92.38,-266.24 95.88,-256.24 88.88,-256.24"/>
</a>
</g>
</g>
<!-- Node6 -->
<g id="Node000006" class="node">
<title>Node6</title>
<g id="a_Node000006"><a xlink:href="classmfem_1_1Memory.html" target="_top" xlink:title=" ">
<polygon fill="white" stroke="#666666" points="184.75,-395 0,-395 0,-357 184.75,-357 184.75,-395"/>
<text text-anchor="start" x="8" y="-377.7" font-family="Helvetica,sans-Serif" font-size="14.00">mfem::Memory&lt; Integration</text>
<text text-anchor="middle" x="92.38" y="-362.7" font-family="Helvetica,sans-Serif" font-size="14.00">Point &gt;</text>
</a>
</g>
</g>
<!-- Node6&#45;&gt;Node5 -->
<g id="edge5_Node000005_Node000006" class="edge">
<title>Node6&#45;&gt;Node5</title>
<g id="a_edge5_Node000005_Node000006"><a xlink:title=" ">
<path fill="none" stroke="#9a32cd" stroke-dasharray="5,2" d="M92.38,-345.36C92.38,-332.45 92.38,-317.72 92.38,-306.42"/>
<polygon fill="#9a32cd" stroke="#9a32cd" points="88.88,-345.04 92.38,-355.04 95.88,-345.04 88.88,-345.04"/>
</a>
</g>
<text text-anchor="middle" x="107.38" y="-325.7" font-family="Helvetica,sans-Serif" font-size="14.00" fill="grey"> data</text>
</g>
<!-- Node7 -->
<g id="Node000007" class="node">
<title>Node7</title>
<g id="a_Node000007"><a xlink:href="classmfem_1_1IntegrationPoint.html" target="_top" xlink:title="Class for integration point with weight.">
<polygon fill="white" stroke="#666666" points="169,-469 15.75,-469 15.75,-446 169,-446 169,-469"/>
<text text-anchor="middle" x="92.38" y="-451.7" font-family="Helvetica,sans-Serif" font-size="14.00">mfem::IntegrationPoint</text>
</a>
</g>
</g>
<!-- Node7&#45;&gt;Node6 -->
<g id="edge6_Node000006_Node000007" class="edge">
<title>Node7&#45;&gt;Node6</title>
<g id="a_edge6_Node000006_Node000007"><a xlink:title=" ">
<path fill="none" stroke="#9a32cd" stroke-dasharray="5,2" d="M92.38,-434.29C92.38,-422.05 92.38,-407.04 92.38,-395.45"/>
<polygon fill="#9a32cd" stroke="#9a32cd" points="88.88,-434.26 92.38,-444.26 95.88,-434.26 88.88,-434.26"/>
</a>
</g>
<text text-anchor="middle" x="109.62" y="-414.7" font-family="Helvetica,sans-Serif" font-size="14.00" fill="grey"> h_ptr</text>
</g>
<!-- Node8 -->
<g id="Node000008" class="node">
<title>Node8</title>
<g id="a_Node000008"><a xlink:href="classmfem_1_1NURBSMeshRules.html" target="_top" xlink:title="Class for defining different integration rules on each NURBS patch.">
<polygon fill="white" stroke="#666666" points="359.5,-231 185.25,-231 185.25,-208 359.5,-208 359.5,-231"/>
<text text-anchor="middle" x="272.38" y="-213.7" font-family="Helvetica,sans-Serif" font-size="14.00">mfem::NURBSMeshRules</text>
</a>
</g>
</g>
<!-- Node8&#45;&gt;Node3 -->
<g id="edge7_Node000003_Node000008" class="edge">
<title>Node8&#45;&gt;Node3</title>
<g id="a_edge7_Node000003_Node000008"><a xlink:title=" ">
<path fill="none" stroke="#9a32cd" stroke-dasharray="5,2" d="M272.38,-196.2C272.38,-183.17 272.38,-167.31 272.38,-157.07"/>
<polygon fill="#9a32cd" stroke="#9a32cd" points="268.88,-196.05 272.38,-206.05 275.88,-196.05 268.88,-196.05"/>
</a>
</g>
<text text-anchor="middle" x="308" y="-176.7" font-family="Helvetica,sans-Serif" font-size="14.00" fill="grey"> patchRules</text>
</g>
<!-- Node9 -->
<g id="Node000009" class="node">
<title>Node9</title>
<g id="a_Node000009"><a xlink:href="classmfem_1_1ceed_1_1Operator.html" target="_top" xlink:title=" ">
<polygon fill="white" stroke="#666666" points="527.12,-231 377.62,-231 377.62,-208 527.12,-208 527.12,-231"/>
<text text-anchor="middle" x="452.38" y="-213.7" font-family="Helvetica,sans-Serif" font-size="14.00">mfem::ceed::Operator</text>
</a>
</g>
</g>
<!-- Node9&#45;&gt;Node3 -->
<g id="edge8_Node000003_Node000009" class="edge">
<title>Node9&#45;&gt;Node3</title>
<g id="a_edge8_Node000003_Node000009"><a xlink:title=" ">
<path fill="none" stroke="#9a32cd" stroke-dasharray="5,2" d="M415.98,-203.11C395.82,-194.67 370.28,-184.09 347.38,-175 332.36,-169.04 315.55,-162.63 301.66,-157.4"/>
<polygon fill="#9a32cd" stroke="#9a32cd" points="414.6,-206.33 425.18,-206.97 417.31,-199.87 414.6,-206.33"/>
</a>
</g>
<text text-anchor="middle" x="408.25" y="-176.7" font-family="Helvetica,sans-Serif" font-size="14.00" fill="grey"> ceedOp</text>
</g>
<!-- Node10 -->
<g id="Node000010" class="node">
<title>Node10</title>
<g id="a_Node000010"><a xlink:href="classmfem_1_1Operator.html" target="_top" xlink:title="Abstract operator.">
<polygon fill="white" stroke="#666666" points="508.75,-298.5 396,-298.5 396,-275.5 508.75,-275.5 508.75,-298.5"/>
<text text-anchor="middle" x="452.38" y="-281.2" font-family="Helvetica,sans-Serif" font-size="14.00">mfem::Operator</text>
</a>
</g>
</g>
<!-- Node10&#45;&gt;Node9 -->
<g id="edge9_Node000009_Node000010" class="edge">
<title>Node10&#45;&gt;Node9</title>
<g id="a_edge9_Node000009_Node000010"><a xlink:title=" ">
<path fill="none" stroke="#63b8ff" d="M452.38,-263.79C452.38,-252.75 452.38,-239.92 452.38,-231.11"/>
<polygon fill="#63b8ff" stroke="#63b8ff" points="448.88,-263.67 452.38,-273.67 455.88,-263.67 448.88,-263.67"/>
</a>
</g>
</g>
<!-- Node11 -->
<g id="Node000011" class="node">
<title>Node11</title>
<g id="a_Node000011"><a xlink:href="classmfem_1_1Coefficient.html" target="_top" xlink:title="Base class Coefficients that optionally depend on space and time. These are used by the BilinearFormI...">
<polygon fill="white" stroke="#666666" points="509.62,-97 387.12,-97 387.12,-74 509.62,-74 509.62,-97"/>
<text text-anchor="middle" x="448.38" y="-79.7" font-family="Helvetica,sans-Serif" font-size="14.00">mfem::Coefficient</text>
</a>
</g>
</g>
<!-- Node11&#45;&gt;Node1 -->
<g id="edge10_Node000001_Node000011" class="edge">
<title>Node11&#45;&gt;Node1</title>
<g id="a_edge10_Node000001_Node000011"><a xlink:title=" ">
<path fill="none" stroke="#9a32cd" stroke-dasharray="5,2" d="M426.45,-66.56C409.83,-52.97 387.55,-34.73 373.58,-23.3"/>
<polygon fill="#9a32cd" stroke="#9a32cd" points="423.88,-68.98 433.84,-72.61 428.32,-63.57 423.88,-68.98"/>
</a>
</g>
<text text-anchor="middle" x="419.88" y="-42.7" font-family="Helvetica,sans-Serif" font-size="14.00" fill="grey"> Q</text>
</g>
</g>
</svg>
