<?xml version="1.0" encoding="UTF-8" standalone="no"?>
<!DOCTYPE svg PUBLIC "-//W3C//DTD SVG 1.1//EN"
 "http://www.w3.org/Graphics/SVG/1.1/DTD/svg11.dtd">
<!-- Generated by graphviz version 8.0.5 (0)
 -->
<!-- Title: mfem::QuadratureSpaceBase Pages: 1 -->
<svg width="396pt" height="88pt"
 viewBox="0.00 0.00 395.86 88.00" xmlns="http://www.w3.org/2000/svg" xmlns:xlink="http://www.w3.org/1999/xlink">
<g id="graph0" class="graph" transform="scale(1 1) rotate(0) translate(4 84)">
<title>mfem::QuadratureSpaceBase</title>
<!-- Node1 -->
<g id="node1" class="node">
<title>Node1</title>
<g id="a_node1"><a xlink:title="Abstract base class for QuadratureSpace and FaceQuadratureSpace.">
<polygon fill="#999999" stroke="#666666" points="301.81,-80 100.61,-80 100.61,-58 301.81,-58 301.81,-80"/>
<text text-anchor="middle" x="201.21" y="-64.8" font-family="Helvetica,sans-Serif" font-size="14.00">mfem::QuadratureSpaceBase</text>
</a>
</g>
</g>
<!-- Node2 -->
<g id="node2" class="node">
<title>Node2</title>
<g id="a_node2"><a xlink:href="classmfem_1_1FaceQuadratureSpace.html" target="_top" xlink:title="Class representing the storage layout of a FaceQuadratureFunction.">
<polygon fill="white" stroke="#666666" points="200.42,-22 0,-22 0,0 200.42,0 200.42,-22"/>
<text text-anchor="middle" x="100.21" y="-6.8" font-family="Helvetica,sans-Serif" font-size="14.00">mfem::FaceQuadratureSpace</text>
</a>
</g>
</g>
<!-- Node1&#45;&gt;Node2 -->
<g id="edge1" class="edge">
<title>Node1&#45;&gt;Node2</title>
<path fill="none" stroke="#63b8ff" d="M173.1,-52.41C155.82,-42.84 134.16,-30.82 118.96,-22.4"/>
<polygon fill="#63b8ff" stroke="#63b8ff" points="171.24,-55.94 181.69,-57.73 174.64,-49.82 171.24,-55.94"/>
</g>
<!-- Node3 -->
<g id="node3" class="node">
<title>Node3</title>
<g id="a_node3"><a xlink:href="classmfem_1_1QuadratureSpace.html" target="_top" xlink:title="Class representing the storage layout of a QuadratureFunction.">
<polygon fill="white" stroke="#666666" points="387.86,-22 218.56,-22 218.56,0 387.86,0 387.86,-22"/>
<text text-anchor="middle" x="303.21" y="-6.8" font-family="Helvetica,sans-Serif" font-size="14.00">mfem::QuadratureSpace</text>
</a>
</g>
</g>
<!-- Node1&#45;&gt;Node3 -->
<g id="edge2" class="edge">
<title>Node1&#45;&gt;Node3</title>
<path fill="none" stroke="#63b8ff" d="M229.11,-52.68C246.64,-43.06 268.78,-30.9 284.27,-22.4"/>
<polygon fill="#63b8ff" stroke="#63b8ff" points="228,-49.85 220.92,-57.73 231.37,-55.98 228,-49.85"/>
</g>
</g>
</svg>
