<?xml version="1.0" encoding="UTF-8" standalone="no"?>
<!DOCTYPE svg PUBLIC "-//W3C//DTD SVG 1.1//EN"
 "http://www.w3.org/Graphics/SVG/1.1/DTD/svg11.dtd">
<!-- Generated by graphviz version 8.0.5 (0)
 -->
<!-- Title: mfem::SLISolver Pages: 1 -->
<!--zoomable 161 -->
<svg id="main" version="1.1" xmlns="http://www.w3.org/2000/svg" xmlns:xlink="http://www.w3.org/1999/xlink" xml:space="preserve" onload="init(evt)">
<style type="text/css"><![CDATA[
.edge:hover path { stroke: red; }
.edge:hover polygon { stroke: red; fill: red; }
]]></style>
<script type="text/javascript"><![CDATA[
var edges = document.getElementsByTagName('g');
if (edges && edges.length) {
  for (var i=0;i<edges.length;i++) {
    if (edges[i].id.substr(0,4)=='edge') {
      edges[i].setAttribute('class','edge');
    }
  }
}
]]></script>
        <defs>
                <circle id="rim" cx="0" cy="0" r="7"/>
                <circle id="rim2" cx="0" cy="0" r="3.5"/>
                <g id="zoomPlus">
                        <use xlink:href="#rim" fill="#404040">
                                <set attributeName="fill" to="#808080" begin="zoomplus.mouseover" end="zoomplus.mouseout"/>
                        </use>
                        <path d="M-4,0h8M0,-4v8" fill="none" stroke="white" stroke-width="1.5" pointer-events="none"/>
                </g>
                <g id="zoomMin">
                        <use xlink:href="#rim" fill="#404040">
                                <set attributeName="fill" to="#808080" begin="zoomminus.mouseover" end="zoomminus.mouseout"/>
                        </use>
                        <path d="M-4,0h8" fill="none" stroke="white" stroke-width="1.5" pointer-events="none"/>
                </g>
                <g id="dirArrow">
                        <path fill="none" stroke="white" stroke-width="1.5" d="M0,-3.0v7 M-2.5,-0.5L0,-3.0L2.5,-0.5"/>
                </g>
               <g id="resetDef">
                       <use xlink:href="#rim2" fill="#404040">
                               <set attributeName="fill" to="#808080" begin="reset.mouseover" end="reset.mouseout"/>
                       </use>
               </g>
        </defs>

<script type="text/javascript">
var viewWidth = 895;
var viewHeight = 161;
var sectionId = 'dynsection-1';
</script>
<script xlink:href="svgpan.js"/>
<svg id="graph" class="graph">
<g id="viewport">
<title>mfem::SLISolver</title>
<!-- Node1 -->
<g id="node1" class="node">
<title>Node1</title>
<g id="a_node1"><a xlink:title="Stationary linear iteration: x &lt;&#45; x + B (b &#45; A x)">
<polygon fill="#999999" stroke="#666666" points="849.51,-52 730.04,-52 730.04,-30 849.51,-30 849.51,-52"/>
<text text-anchor="middle" x="789.77" y="-36.8" font-family="Helvetica,sans-Serif" font-size="14.00">mfem::SLISolver</text>
</a>
</g>
</g>
<!-- Node2 -->
<g id="node2" class="node">
<title>Node2</title>
<g id="a_node2"><a xlink:href="classmfem_1_1IterativeSolver.html" target="_top" xlink:title="Abstract base class for iterative solver.">
<polygon fill="white" stroke="#666666" points="587.83,-98 439.57,-98 439.57,-76 587.83,-76 587.83,-98"/>
<text text-anchor="middle" x="513.7" y="-82.8" font-family="Helvetica,sans-Serif" font-size="14.00">mfem::IterativeSolver</text>
</a>
</g>
</g>
<!-- Node2&#45;&gt;Node1 -->
<g id="edge1" class="edge">
<title>Node2&#45;&gt;Node1</title>
<path fill="none" stroke="#63b8ff" d="M593.94,-73.7C637.21,-66.44 689.88,-57.6 729.55,-50.94"/>
<polygon fill="#63b8ff" stroke="#63b8ff" points="593.44,-70.4 584.16,-75.51 594.6,-77.31 593.44,-70.4"/>
</g>
<!-- Node5 -->
<g id="node5" class="node">
<title>Node5</title>
<g id="a_node5"><a xlink:href="classmfem_1_1IterativeSolverMonitor.html" target="_top" xlink:title="Abstract base class for an iterative solver monitor.">
<polygon fill="white" stroke="#666666" points="887.25,-110 692.3,-110 692.3,-88 887.25,-88 887.25,-110"/>
<text text-anchor="middle" x="789.77" y="-94.8" font-family="Helvetica,sans-Serif" font-size="14.00">mfem::IterativeSolverMonitor</text>
</a>
</g>
</g>
<!-- Node2&#45;&gt;Node5 -->
<g id="edge7" class="edge">
<title>Node2&#45;&gt;Node5</title>
<path fill="none" stroke="#9a32cd" stroke-dasharray="5,2" d="M599.07,-84.12C601.35,-84.08 603.61,-84.04 605.83,-84 636.26,-83.5 643.94,-82.02 674.3,-84 686.5,-84.8 699.39,-86.06 711.94,-87.53"/>
<polygon fill="#9a32cd" stroke="#9a32cd" points="599.23,-80.64 589.31,-84.37 599.39,-87.64 599.23,-80.64"/>
<text text-anchor="middle" x="640.07" y="-86.8" font-family="Helvetica,sans-Serif" font-size="14.00"> iter_solver</text>
</g>
<!-- Node3 -->
<g id="node3" class="node">
<title>Node3</title>
<g id="a_node3"><a xlink:href="classmfem_1_1Solver.html" target="_top" xlink:title="Base class for solvers.">
<polygon fill="white" stroke="#666666" points="284.5,-116 186.04,-116 186.04,-94 284.5,-94 284.5,-116"/>
<text text-anchor="middle" x="235.27" y="-100.8" font-family="Helvetica,sans-Serif" font-size="14.00">mfem::Solver</text>
</a>
</g>
</g>
<!-- Node3&#45;&gt;Node2 -->
<g id="edge2" class="edge">
<title>Node3&#45;&gt;Node2</title>
<path fill="none" stroke="#63b8ff" d="M295.64,-101.13C337.7,-98.4 394.39,-94.7 439.29,-91.78"/>
<polygon fill="#63b8ff" stroke="#63b8ff" points="295.49,-97.7 285.74,-101.84 295.95,-104.69 295.49,-97.7"/>
</g>
<!-- Node3&#45;&gt;Node2 -->
<g id="edge5" class="edge">
<title>Node3&#45;&gt;Node2</title>
<path fill="none" stroke="#9a32cd" stroke-dasharray="5,2" d="M295.63,-104C332.03,-103.08 379.54,-101.32 421.57,-98 427.29,-97.55 433.2,-97 439.14,-96.41"/>
<polygon fill="#9a32cd" stroke="#9a32cd" points="295.63,-100.52 285.71,-104.26 295.8,-107.52 295.63,-100.52"/>
<text text-anchor="middle" x="379.54" y="-105.8" font-family="Helvetica,sans-Serif" font-size="14.00"> prec</text>
</g>
<!-- Node4 -->
<g id="node4" class="node">
<title>Node4</title>
<g id="a_node4"><a xlink:href="classmfem_1_1Operator.html" target="_top" xlink:title="Abstract operator.">
<polygon fill="white" stroke="#666666" points="114.03,-145 0,-145 0,-123 114.03,-123 114.03,-145"/>
<text text-anchor="middle" x="57.01" y="-129.8" font-family="Helvetica,sans-Serif" font-size="14.00">mfem::Operator</text>
</a>
</g>
</g>
<!-- Node4&#45;&gt;Node2 -->
<g id="edge4" class="edge">
<title>Node4&#45;&gt;Node2</title>
<path fill="none" stroke="#9a32cd" stroke-dasharray="5,2" d="M125.39,-138.23C198.98,-141.33 319.92,-141.9 421.57,-121 445.06,-116.17 470.53,-106.24 488.56,-98.35"/>
<polygon fill="#9a32cd" stroke="#9a32cd" points="125.59,-134.7 115.44,-137.74 125.28,-141.69 125.59,-134.7"/>
<text text-anchor="middle" x="235.27" y="-141.8" font-family="Helvetica,sans-Serif" font-size="14.00"> oper</text>
</g>
<!-- Node4&#45;&gt;Node3 -->
<g id="edge3" class="edge">
<title>Node4&#45;&gt;Node3</title>
<path fill="none" stroke="#63b8ff" d="M124.97,-122.98C145.16,-119.66 166.92,-116.08 185.67,-113"/>
<polygon fill="#63b8ff" stroke="#63b8ff" points="124.57,-119.67 115.27,-124.74 125.7,-126.57 124.57,-119.67"/>
</g>
<!-- Node5&#45;&gt;Node2 -->
<g id="edge6" class="edge">
<title>Node5&#45;&gt;Node2</title>
<path fill="none" stroke="#9a32cd" stroke-dasharray="5,2" d="M680.95,-104.28C656.24,-104.51 630.1,-103.98 605.83,-102 596.08,-101.2 585.81,-99.93 575.81,-98.46"/>
<polygon fill="#9a32cd" stroke="#9a32cd" points="680.87,-107.76 690.82,-104.12 680.77,-100.76 680.87,-107.76"/>
<text text-anchor="middle" x="640.07" y="-107.8" font-family="Helvetica,sans-Serif" font-size="14.00"> monitor</text>
</g>
<!-- Node6 -->
<g id="node6" class="node">
<title>Node6</title>
<g id="a_node6"><a xlink:href="structmfem_1_1IterativeSolver_1_1PrintLevel.html" target="_top" xlink:title="Settings for the output behavior of the IterativeSolver.">
<polygon fill="white" stroke="#666666" points="309.4,-76 161.14,-76 161.14,-40 309.4,-40 309.4,-76"/>
<text text-anchor="start" x="169.14" y="-60.8" font-family="Helvetica,sans-Serif" font-size="14.00">mfem::IterativeSolver</text>
<text text-anchor="middle" x="235.27" y="-46.8" font-family="Helvetica,sans-Serif" font-size="14.00">::PrintLevel</text>
</a>
</g>
</g>
<!-- Node6&#45;&gt;Node2 -->
<g id="edge8" class="edge">
<title>Node6&#45;&gt;Node2</title>
<path fill="none" stroke="#9a32cd" stroke-dasharray="5,2" d="M320.37,-65.75C352.11,-68.79 388.52,-72.4 421.57,-76 427.27,-76.62 433.18,-77.29 439.11,-77.97"/>
<polygon fill="#9a32cd" stroke="#9a32cd" points="321.09,-62.21 310.8,-64.75 320.43,-69.18 321.09,-62.21"/>
<text text-anchor="middle" x="379.54" y="-78.8" font-family="Helvetica,sans-Serif" font-size="14.00"> print_options</text>
</g>
<!-- Node7 -->
<g id="node7" class="node">
<title>Node7</title>
<g id="a_node7"><a xlink:href="classmfem_1_1Vector.html" target="_top" xlink:title="Vector data type.">
<polygon fill="white" stroke="#666666" points="562.94,-22 464.46,-22 464.46,0 562.94,0 562.94,-22"/>
<text text-anchor="middle" x="513.7" y="-6.8" font-family="Helvetica,sans-Serif" font-size="14.00">mfem::Vector</text>
</a>
</g>
</g>
<!-- Node7&#45;&gt;Node1 -->
<g id="edge9" class="edge">
<title>Node7&#45;&gt;Node1</title>
<path fill="none" stroke="#9a32cd" stroke-dasharray="5,2" d="M573.87,-7.98C604.05,-7.3 641.26,-7.77 674.3,-12 701.04,-15.42 730.52,-22.98 752.86,-29.52"/>
<polygon fill="#9a32cd" stroke="#9a32cd" points="573.99,-4.5 564.09,-8.28 574.19,-11.5 573.99,-4.5"/>
<text text-anchor="middle" x="640.07" y="-28.8" font-family="Helvetica,sans-Serif" font-size="14.00"> r</text>
<text text-anchor="middle" x="640.07" y="-14.8" font-family="Helvetica,sans-Serif" font-size="14.00">z</text>
</g>
<!-- Node8 -->
<g id="node8" class="node">
<title>Node8</title>
<g id="a_node8"><a xlink:href="classmfem_1_1Memory.html" target="_top" xlink:title=" ">
<polygon fill="white" stroke="#666666" points="319.52,-22 151.03,-22 151.03,0 319.52,0 319.52,-22"/>
<text text-anchor="middle" x="235.27" y="-6.8" font-family="Helvetica,sans-Serif" font-size="14.00">mfem::Memory&lt; real_t &gt;</text>
</a>
</g>
</g>
<!-- Node8&#45;&gt;Node7 -->
<g id="edge10" class="edge">
<title>Node8&#45;&gt;Node7</title>
<path fill="none" stroke="#9a32cd" stroke-dasharray="5,2" d="M330.91,-11C375.78,-11 427.48,-11 464.25,-11"/>
<polygon fill="#9a32cd" stroke="#9a32cd" points="330.96,-7.5 320.96,-11 330.96,-14.5 330.96,-7.5"/>
<text text-anchor="middle" x="379.54" y="-13.8" font-family="Helvetica,sans-Serif" font-size="14.00"> data</text>
</g>
</g>
</svg>
        <g id="navigator" transform="translate(0 0)" fill="#404254">
                <rect fill="#f2f5e9" fill-opacity="0.5" stroke="#606060" stroke-width=".5" x="0" y="0" width="60" height="60"/>
                <use id="zoomplus" xlink:href="#zoomPlus" x="17" y="9" onmousedown="handleZoom(evt,'in')"/>
                <use id="zoomminus" xlink:href="#zoomMin" x="42" y="9" onmousedown="handleZoom(evt,'out')"/>
                <use id="reset" xlink:href="#resetDef" x="30" y="36" onmousedown="handleReset()"/>
                <g id="arrowUp" xlink:href="#dirArrow" transform="translate(30 24)" onmousedown="handlePan(0,-1)">
                  <use xlink:href="#rim" fill="#404040">
                        <set attributeName="fill" to="#808080" begin="arrowUp.mouseover" end="arrowUp.mouseout"/>
                  </use>
                  <path fill="none" stroke="white" stroke-width="1.5" d="M0,-3.0v7 M-2.5,-0.5L0,-3.0L2.5,-0.5"/>
                </g>
                <g id="arrowRight" xlink:href="#dirArrow" transform="rotate(90) translate(36 -43)" onmousedown="handlePan(1,0)">
                  <use xlink:href="#rim" fill="#404040">
                        <set attributeName="fill" to="#808080" begin="arrowRight.mouseover" end="arrowRight.mouseout"/>
                  </use>
                  <path fill="none" stroke="white" stroke-width="1.5" d="M0,-3.0v7 M-2.5,-0.5L0,-3.0L2.5,-0.5"/>
                </g>
                <g id="arrowDown" xlink:href="#dirArrow" transform="rotate(180) translate(-30 -48)" onmousedown="handlePan(0,1)">
                  <use xlink:href="#rim" fill="#404040">
                        <set attributeName="fill" to="#808080" begin="arrowDown.mouseover" end="arrowDown.mouseout"/>
                  </use>
                  <path fill="none" stroke="white" stroke-width="1.5" d="M0,-3.0v7 M-2.5,-0.5L0,-3.0L2.5,-0.5"/>
                </g>
                <g id="arrowLeft" xlink:href="#dirArrow" transform="rotate(270) translate(-36 17)" onmousedown="handlePan(-1,0)">
                  <use xlink:href="#rim" fill="#404040">
                        <set attributeName="fill" to="#808080" begin="arrowLeft.mouseover" end="arrowLeft.mouseout"/>
                  </use>
                  <path fill="none" stroke="white" stroke-width="1.5" d="M0,-3.0v7 M-2.5,-0.5L0,-3.0L2.5,-0.5"/>
                </g>
        </g>
        <svg viewBox="0 0 15 15" width="100%" height="30px" preserveAspectRatio="xMaxYMin meet">
         <g id="arrow_out" transform="scale(0.3 0.3)">
          <a xlink:href="classmfem_1_1SLISolver__coll__graph_org.svg" target="_base">
           <rect id="button" ry="5" rx="5" y="6" x="6" height="38" width="38"
                fill="#f2f5e9" fill-opacity="0.5" stroke="#606060" stroke-width="1.0"/>
           <path id="arrow"
             d="M 11.500037,31.436501 C 11.940474,20.09759 22.043105,11.32322 32.158766,21.979434 L 37.068811,17.246167 C 37.068811,17.246167 37.088388,32 37.088388,32 L 22.160133,31.978069 C 22.160133,31.978069 26.997745,27.140456 26.997745,27.140456 C 18.528582,18.264221 13.291696,25.230495 11.500037,31.436501 z"
             style="fill:#404040;"/>
          </a>
         </g>
        </svg>
</svg>
