<?xml version="1.0" encoding="UTF-8" standalone="no"?>
<!DOCTYPE svg PUBLIC "-//W3C//DTD SVG 1.1//EN"
 "http://www.w3.org/Graphics/SVG/1.1/DTD/svg11.dtd">
<!-- Generated by graphviz version 12.0.0 (20240704.0754)
 -->
<!-- Title: mfem::H1_FiniteElement&lt; Geometry::TETRAHEDRON, P &gt; Pages: 1 -->
<!--zoomable 655 -->

<svg id="main" version="1.1" xmlns="http://www.w3.org/2000/svg" xmlns:xlink="http://www.w3.org/1999/xlink" xml:space="preserve" onload="init(evt)">
<style type="text/css"><![CDATA[
.node, .edge {opacity: 0.7;}
.node.selected, .edge.selected {opacity: 1;}
.edge:hover path { stroke: red; }
.edge:hover polygon { stroke: red; fill: red; }
]]></style>

<defs>
  <circle id="rim" cx="0" cy="0" r="7"/>
  <circle id="rim2" cx="0" cy="0" r="3.5"/>
  <g id="zoomPlus">
    <use xlink:href="#rim" fill="#404040"><set attributeName="fill" to="#808080" begin="zoomplus.mouseover" end="zoomplus.mouseout"/></use>
    <path d="M-4,0h8M0,-4v8" fill="none" stroke="white" stroke-width="1.5" pointer-events="none"/>
  </g>
  <g id="zoomMin">
    <use xlink:href="#rim" fill="#404040"><set attributeName="fill" to="#808080" begin="zoomminus.mouseover" end="zoomminus.mouseout"/></use>
    <path d="M-4,0h8" fill="none" stroke="white" stroke-width="1.5" pointer-events="none"/>
  </g>
  <g id="arrowUp" transform="translate(30 24)">
    <use xlink:href="#rim"/>
    <path pointer-events="none" fill="none" stroke="white" stroke-width="1.5" d="M0,-3.0v7 M-2.5,-0.5L0,-3.0L2.5,-0.5"/>
  </g>
  <g id="arrowRight" transform="rotate(90) translate(36 -43)">
    <use xlink:href="#rim"/>
    <path pointer-events="none" fill="none" stroke="white" stroke-width="1.5" d="M0,-3.0v7 M-2.5,-0.5L0,-3.0L2.5,-0.5"/>
  </g>
  <g id="arrowDown" transform="rotate(180) translate(-30 -48)">
    <use xlink:href="#rim"/>
    <path pointer-events="none" fill="none" stroke="white" stroke-width="1.5" d="M0,-3.0v7 M-2.5,-0.5L0,-3.0L2.5,-0.5"/>
  </g>
  <g id="arrowLeft" transform="rotate(270) translate(-36 17)">
    <use xlink:href="#rim"/>
    <path pointer-events="none" fill="none" stroke="white" stroke-width="1.5" d="M0,-3.0v7 M-2.5,-0.5L0,-3.0L2.5,-0.5"/>
  </g>
  <g id="resetDef">
    <use xlink:href="#rim2" fill="#404040"><set attributeName="fill" to="#808080" begin="reset.mouseover" end="reset.mouseout"/></use>
  </g>
</defs>
<script type="application/ecmascript">
var viewWidth = 605;
var viewHeight = 655;
var sectionId = 'dynsection-0';
</script>
<script type="application/ecmascript" xlink:href="svg.min.js"/>
<svg id="graph" class="graph">
<g id="viewport">
<title>mfem::H1_FiniteElement&lt; Geometry::TETRAHEDRON, P &gt;</title>
<!-- Node1 -->
<g id="Node000001" class="node">
<title>Node1</title>
<g id="a_Node000001"><a xlink:title=" ">
<polygon fill="#999999" stroke="#666666" points="313,-216 84.75,-216 84.75,-178 313,-178 313,-216"/>
<text text-anchor="start" x="92.75" y="-198.7" font-family="Helvetica,sans-Serif" font-size="14.00">mfem::H1_FiniteElement</text>
<text text-anchor="middle" x="198.88" y="-183.7" font-family="Helvetica,sans-Serif" font-size="14.00">&lt; Geometry::TETRAHEDRON, P &gt;</text>
</a>
</g>
</g>
<!-- Node2 -->
<g id="Node000002" class="node">
<title>Node2</title>
<g id="a_Node000002"><a xlink:href="classmfem_1_1FiniteElement.html" target="_top" xlink:title="Abstract class for all finite elements.">
<polygon fill="white" stroke="#666666" points="269.88,-335 127.88,-335 127.88,-312 269.88,-312 269.88,-335"/>
<text text-anchor="middle" x="198.88" y="-317.7" font-family="Helvetica,sans-Serif" font-size="14.00">mfem::FiniteElement</text>
</a>
</g>
</g>
<!-- Node2&#45;&gt;Node1 -->
<g id="edge1_Node000001_Node000002" class="edge">
<title>Node2&#45;&gt;Node1</title>
<g id="a_edge1_Node000001_Node000002"><a xlink:title=" ">
<path fill="none" stroke="#9a32cd" stroke-dasharray="5,2" d="M198.88,-300.46C198.88,-276.44 198.88,-238.47 198.88,-216.12"/>
<polygon fill="#9a32cd" stroke="#9a32cd" points="195.38,-300.37 198.88,-310.37 202.38,-300.37 195.38,-300.37"/>
</a>
</g>
<text text-anchor="middle" x="219.5" y="-258.2" font-family="Helvetica,sans-Serif" font-size="14.00" fill="grey"> my_fe</text>
</g>
<!-- Node12 -->
<g id="Node000012" class="node">
<title>Node12</title>
<g id="a_Node000012"><a xlink:href="classmfem_1_1DofToQuad.html" target="_top" xlink:title="Structure representing the matrices/tensors needed to evaluate (in reference space) the values,...">
<polygon fill="white" stroke="#666666" points="458.75,-208.5 331,-208.5 331,-185.5 458.75,-185.5 458.75,-208.5"/>
<text text-anchor="middle" x="394.88" y="-191.2" font-family="Helvetica,sans-Serif" font-size="14.00">mfem::DofToQuad</text>
</a>
</g>
</g>
<!-- Node2&#45;&gt;Node12 -->
<g id="edge12_Node000012_Node000002" class="edge">
<title>Node2&#45;&gt;Node12</title>
<g id="a_edge12_Node000012_Node000002"><a xlink:title=" ">
<path fill="none" stroke="#9a32cd" stroke-dasharray="5,2" d="M226.55,-305.65C232.35,-301.93 238.38,-297.92 243.88,-294 278.63,-269.21 282.68,-256.62 318.88,-234 334.48,-224.25 353.13,-215.38 368.05,-208.88"/>
<polygon fill="#9a32cd" stroke="#9a32cd" points="225.01,-302.48 218.41,-310.77 228.74,-308.4 225.01,-302.48"/>
</a>
</g>
<text text-anchor="middle" x="329.38" y="-258.2" font-family="Helvetica,sans-Serif" font-size="14.00" fill="grey"> FE</text>
</g>
<!-- Node3 -->
<g id="Node000003" class="node">
<title>Node3</title>
<g id="a_Node000003"><a xlink:href="classmfem_1_1IntegrationRule.html" target="_top" xlink:title="Class for an integration rule &#45; an Array of IntegrationPoint.">
<polygon fill="white" stroke="#666666" points="412,-409 261.75,-409 261.75,-386 412,-386 412,-409"/>
<text text-anchor="middle" x="336.88" y="-391.7" font-family="Helvetica,sans-Serif" font-size="14.00">mfem::IntegrationRule</text>
</a>
</g>
</g>
<!-- Node3&#45;&gt;Node2 -->
<g id="edge2_Node000002_Node000003" class="edge">
<title>Node3&#45;&gt;Node2</title>
<g id="a_edge2_Node000002_Node000003"><a xlink:title=" ">
<path fill="none" stroke="#9a32cd" stroke-dasharray="5,2" d="M306.05,-380.42C279.7,-366.67 242.51,-347.26 219.58,-335.3"/>
<polygon fill="#9a32cd" stroke="#9a32cd" points="304.09,-383.34 314.57,-384.86 307.33,-377.14 304.09,-383.34"/>
</a>
</g>
<text text-anchor="middle" x="301.25" y="-354.7" font-family="Helvetica,sans-Serif" font-size="14.00" fill="grey"> Nodes</text>
</g>
<!-- Node3&#45;&gt;Node12 -->
<g id="edge13_Node000012_Node000003" class="edge">
<title>Node3&#45;&gt;Node12</title>
<g id="a_edge13_Node000012_Node000003"><a xlink:title=" ">
<path fill="none" stroke="#9a32cd" stroke-dasharray="5,2" d="M343.3,-374.51C355.72,-332 382.61,-239.99 391.75,-208.68"/>
<polygon fill="#9a32cd" stroke="#9a32cd" points="339.95,-373.51 340.5,-384.09 346.66,-375.48 339.95,-373.51"/>
</a>
</g>
<text text-anchor="middle" x="384.12" y="-317.7" font-family="Helvetica,sans-Serif" font-size="14.00" fill="grey"> IntRule</text>
</g>
<!-- Node4 -->
<g id="Node000004" class="node">
<title>Node4</title>
<g id="a_Node000004"><a xlink:href="classmfem_1_1Array.html" target="_top" xlink:title=" ">
<polygon fill="white" stroke="#666666" points="420.25,-484 253.5,-484 253.5,-446 420.25,-446 420.25,-484"/>
<text text-anchor="start" x="261.5" y="-466.7" font-family="Helvetica,sans-Serif" font-size="14.00">mfem::Array&lt; Integration</text>
<text text-anchor="middle" x="336.88" y="-451.7" font-family="Helvetica,sans-Serif" font-size="14.00">Point &gt;</text>
</a>
</g>
</g>
<!-- Node4&#45;&gt;Node3 -->
<g id="edge3_Node000003_Node000004" class="edge">
<title>Node4&#45;&gt;Node3</title>
<g id="a_edge3_Node000003_Node000004"><a xlink:title=" ">
<path fill="none" stroke="#63b8ff" d="M336.88,-434.47C336.88,-425.57 336.88,-416.35 336.88,-409.47"/>
<polygon fill="#63b8ff" stroke="#63b8ff" points="333.38,-434.24 336.88,-444.24 340.38,-434.24 333.38,-434.24"/>
</a>
</g>
</g>
<!-- Node5 -->
<g id="Node000005" class="node">
<title>Node5</title>
<g id="a_Node000005"><a xlink:href="classmfem_1_1Memory.html" target="_top" xlink:title=" ">
<polygon fill="white" stroke="#666666" points="430.25,-573 245.5,-573 245.5,-535 430.25,-535 430.25,-573"/>
<text text-anchor="start" x="253.5" y="-555.7" font-family="Helvetica,sans-Serif" font-size="14.00">mfem::Memory&lt; Integration</text>
<text text-anchor="middle" x="337.88" y="-540.7" font-family="Helvetica,sans-Serif" font-size="14.00">Point &gt;</text>
</a>
</g>
</g>
<!-- Node5&#45;&gt;Node4 -->
<g id="edge4_Node000004_Node000005" class="edge">
<title>Node5&#45;&gt;Node4</title>
<g id="a_edge4_Node000004_Node000005"><a xlink:title=" ">
<path fill="none" stroke="#9a32cd" stroke-dasharray="5,2" d="M337.53,-523.36C337.39,-510.45 337.22,-495.72 337.09,-484.42"/>
<polygon fill="#9a32cd" stroke="#9a32cd" points="334.03,-523.08 337.65,-533.04 341.03,-523 334.03,-523.08"/>
</a>
</g>
<text text-anchor="middle" x="351.88" y="-503.7" font-family="Helvetica,sans-Serif" font-size="14.00" fill="grey"> data</text>
</g>
<!-- Node6 -->
<g id="Node000006" class="node">
<title>Node6</title>
<g id="a_Node000006"><a xlink:href="classmfem_1_1IntegrationPoint.html" target="_top" xlink:title="Class for integration point with weight.">
<polygon fill="white" stroke="#666666" points="414.5,-647 261.25,-647 261.25,-624 414.5,-624 414.5,-647"/>
<text text-anchor="middle" x="337.88" y="-629.7" font-family="Helvetica,sans-Serif" font-size="14.00">mfem::IntegrationPoint</text>
</a>
</g>
</g>
<!-- Node6&#45;&gt;Node5 -->
<g id="edge5_Node000005_Node000006" class="edge">
<title>Node6&#45;&gt;Node5</title>
<g id="a_edge5_Node000005_Node000006"><a xlink:title=" ">
<path fill="none" stroke="#9a32cd" stroke-dasharray="5,2" d="M337.88,-612.29C337.88,-600.05 337.88,-585.04 337.88,-573.45"/>
<polygon fill="#9a32cd" stroke="#9a32cd" points="334.38,-612.26 337.88,-622.26 341.38,-612.26 334.38,-612.26"/>
</a>
</g>
<text text-anchor="middle" x="355.12" y="-592.7" font-family="Helvetica,sans-Serif" font-size="14.00" fill="grey"> h_ptr</text>
</g>
<!-- Node7 -->
<g id="Node000007" class="node">
<title>Node7</title>
<g id="a_Node000007"><a xlink:href="classmfem_1_1DenseMatrix.html" target="_top" xlink:title="Data type dense matrix using column&#45;major storage.">
<polygon fill="white" stroke="#666666" points="243.5,-409 108.25,-409 108.25,-386 243.5,-386 243.5,-409"/>
<text text-anchor="middle" x="175.88" y="-391.7" font-family="Helvetica,sans-Serif" font-size="14.00">mfem::DenseMatrix</text>
</a>
</g>
</g>
<!-- Node7&#45;&gt;Node2 -->
<g id="edge6_Node000002_Node000007" class="edge">
<title>Node7&#45;&gt;Node2</title>
<g id="a_edge6_Node000002_Node000007"><a xlink:title=" ">
<path fill="none" stroke="#9a32cd" stroke-dasharray="5,2" d="M182.87,-374.61C187.06,-361.49 192.19,-345.42 195.5,-335.07"/>
<polygon fill="#9a32cd" stroke="#9a32cd" points="179.54,-373.53 179.83,-384.12 186.21,-375.66 179.54,-373.53"/>
</a>
</g>
<text text-anchor="middle" x="212.5" y="-354.7" font-family="Helvetica,sans-Serif" font-size="14.00" fill="grey"> vshape</text>
</g>
<!-- Node8 -->
<g id="Node000008" class="node">
<title>Node8</title>
<g id="a_Node000008"><a xlink:href="classmfem_1_1Matrix.html" target="_top" xlink:title="Abstract data type matrix.">
<polygon fill="white" stroke="#666666" points="222,-476.5 125.75,-476.5 125.75,-453.5 222,-453.5 222,-476.5"/>
<text text-anchor="middle" x="173.88" y="-459.2" font-family="Helvetica,sans-Serif" font-size="14.00">mfem::Matrix</text>
</a>
</g>
</g>
<!-- Node8&#45;&gt;Node7 -->
<g id="edge7_Node000007_Node000008" class="edge">
<title>Node8&#45;&gt;Node7</title>
<g id="a_edge7_Node000007_Node000008"><a xlink:title=" ">
<path fill="none" stroke="#63b8ff" d="M174.55,-441.79C174.89,-430.75 175.28,-417.92 175.55,-409.11"/>
<polygon fill="#63b8ff" stroke="#63b8ff" points="171.06,-441.57 174.25,-451.67 178.06,-441.78 171.06,-441.57"/>
</a>
</g>
</g>
<!-- Node9 -->
<g id="Node000009" class="node">
<title>Node9</title>
<g id="a_Node000009"><a xlink:href="classmfem_1_1Operator.html" target="_top" xlink:title="Abstract operator.">
<polygon fill="white" stroke="#666666" points="227.25,-565.5 114.5,-565.5 114.5,-542.5 227.25,-542.5 227.25,-565.5"/>
<text text-anchor="middle" x="170.88" y="-548.2" font-family="Helvetica,sans-Serif" font-size="14.00">mfem::Operator</text>
</a>
</g>
</g>
<!-- Node9&#45;&gt;Node8 -->
<g id="edge8_Node000008_Node000009" class="edge">
<title>Node9&#45;&gt;Node8</title>
<g id="a_edge8_Node000008_Node000009"><a xlink:title=" ">
<path fill="none" stroke="#63b8ff" d="M171.63,-531.01C172.23,-513.67 173.04,-490.23 173.5,-476.76"/>
<polygon fill="#63b8ff" stroke="#63b8ff" points="168.14,-530.7 171.3,-540.82 175.14,-530.95 168.14,-530.7"/>
</a>
</g>
</g>
<!-- Node10 -->
<g id="Node000010" class="node">
<title>Node10</title>
<g id="a_Node000010"><a xlink:href="classmfem_1_1Array.html" target="_top" xlink:title=" ">
<polygon fill="white" stroke="#666666" points="145.75,-38 0,-38 0,0 145.75,0 145.75,-38"/>
<text text-anchor="start" x="8" y="-20.7" font-family="Helvetica,sans-Serif" font-size="14.00">mfem::Array&lt; mfem::</text>
<text text-anchor="middle" x="72.88" y="-5.7" font-family="Helvetica,sans-Serif" font-size="14.00">DofToQuad * &gt;</text>
</a>
</g>
</g>
<!-- Node10&#45;&gt;Node2 -->
<g id="edge9_Node000002_Node000010" class="edge">
<title>Node10&#45;&gt;Node2</title>
<g id="a_edge9_Node000002_Node000010"><a xlink:title=" ">
<path fill="none" stroke="#9a32cd" stroke-dasharray="5,2" d="M66.18,-49.42C58.66,-89.27 50.54,-161.65 75.88,-216 97.12,-261.57 148.29,-295.26 177.49,-311.56"/>
<polygon fill="#9a32cd" stroke="#9a32cd" points="69.56,-50.37 68.11,-39.87 62.7,-48.98 69.56,-50.37"/>
</a>
</g>
<text text-anchor="middle" x="110" y="-146.7" font-family="Helvetica,sans-Serif" font-size="14.00" fill="grey"> dof2quad_array</text>
</g>
<!-- Node11 -->
<g id="Node000011" class="node">
<title>Node11</title>
<g id="a_Node000011"><a xlink:href="classmfem_1_1Memory.html" target="_top" xlink:title=" ">
<polygon fill="white" stroke="#666666" points="248,-127 91.75,-127 91.75,-89 248,-89 248,-127"/>
<text text-anchor="start" x="99.75" y="-109.7" font-family="Helvetica,sans-Serif" font-size="14.00">mfem::Memory&lt; mfem</text>
<text text-anchor="middle" x="169.88" y="-94.7" font-family="Helvetica,sans-Serif" font-size="14.00">::DofToQuad * &gt;</text>
</a>
</g>
</g>
<!-- Node11&#45;&gt;Node10 -->
<g id="edge10_Node000010_Node000011" class="edge">
<title>Node11&#45;&gt;Node10</title>
<g id="a_edge10_Node000010_Node000011"><a xlink:title=" ">
<path fill="none" stroke="#9a32cd" stroke-dasharray="5,2" d="M140.73,-80.86C125.48,-67.18 107.17,-50.76 93.42,-38.42"/>
<polygon fill="#9a32cd" stroke="#9a32cd" points="138.4,-83.47 148.18,-87.54 143.07,-78.26 138.4,-83.47"/>
</a>
</g>
<text text-anchor="middle" x="142.88" y="-57.7" font-family="Helvetica,sans-Serif" font-size="14.00" fill="grey"> data</text>
</g>
<!-- Node12&#45;&gt;Node11 -->
<g id="edge11_Node000011_Node000012" class="edge">
<title>Node12&#45;&gt;Node11</title>
<g id="a_edge11_Node000011_Node000012"><a xlink:title=" ">
<path fill="none" stroke="#9a32cd" stroke-dasharray="5,2" d="M356.1,-181.01C317.69,-166.16 258.82,-143.39 217.57,-127.44"/>
<polygon fill="#9a32cd" stroke="#9a32cd" points="354.83,-184.27 365.42,-184.61 357.36,-177.74 354.83,-184.27"/>
</a>
</g>
<text text-anchor="middle" x="312.12" y="-146.7" font-family="Helvetica,sans-Serif" font-size="14.00" fill="grey"> h_ptr</text>
</g>
<!-- Node13 -->
<g id="Node000013" class="node">
<title>Node13</title>
<g id="a_Node000013"><a xlink:href="classmfem_1_1Array.html" target="_top" xlink:title=" ">
<polygon fill="white" stroke="#666666" points="584.25,-335 435.5,-335 435.5,-312 584.25,-312 584.25,-335"/>
<text text-anchor="middle" x="509.88" y="-317.7" font-family="Helvetica,sans-Serif" font-size="14.00">mfem::Array&lt; real_t &gt;</text>
</a>
</g>
</g>
<!-- Node13&#45;&gt;Node12 -->
<g id="edge14_Node000012_Node000013" class="edge">
<title>Node13&#45;&gt;Node12</title>
<g id="a_edge14_Node000012_Node000013"><a xlink:title=" ">
<path fill="none" stroke="#9a32cd" stroke-dasharray="5,2" d="M492.3,-303.47C467.9,-277.06 424.57,-230.15 404.98,-208.94"/>
<polygon fill="#9a32cd" stroke="#9a32cd" points="489.69,-305.8 499.04,-310.77 494.83,-301.05 489.69,-305.8"/>
</a>
</g>
<text text-anchor="middle" x="489.38" y="-280.7" font-family="Helvetica,sans-Serif" font-size="14.00" fill="grey"> B</text>
<text text-anchor="middle" x="489.38" y="-265.7" font-family="Helvetica,sans-Serif" font-size="14.00" fill="grey">Bt</text>
<text text-anchor="middle" x="489.38" y="-250.7" font-family="Helvetica,sans-Serif" font-size="14.00" fill="grey">G</text>
<text text-anchor="middle" x="489.38" y="-235.7" font-family="Helvetica,sans-Serif" font-size="14.00" fill="grey">Gt</text>
</g>
<!-- Node14 -->
<g id="Node000014" class="node">
<title>Node14</title>
<g id="a_Node000014"><a xlink:href="classmfem_1_1Memory.html" target="_top" xlink:title=" ">
<polygon fill="white" stroke="#666666" points="597.25,-409 430.5,-409 430.5,-386 597.25,-386 597.25,-409"/>
<text text-anchor="middle" x="513.88" y="-391.7" font-family="Helvetica,sans-Serif" font-size="14.00">mfem::Memory&lt; real_t &gt;</text>
</a>
</g>
</g>
<!-- Node14&#45;&gt;Node13 -->
<g id="edge15_Node000013_Node000014" class="edge">
<title>Node14&#45;&gt;Node13</title>
<g id="a_edge15_Node000013_Node000014"><a xlink:title=" ">
<path fill="none" stroke="#9a32cd" stroke-dasharray="5,2" d="M512.64,-374.2C511.91,-361.17 511.03,-345.31 510.46,-335.07"/>
<polygon fill="#9a32cd" stroke="#9a32cd" points="509.13,-374.26 513.18,-384.05 516.12,-373.87 509.13,-374.26"/>
</a>
</g>
<text text-anchor="middle" x="526.88" y="-354.7" font-family="Helvetica,sans-Serif" font-size="14.00" fill="grey"> data</text>
</g>
</g>
</svg>

<g id="navigator" transform="translate(0 0)" fill="#404254">
  <rect fill="#f2f5e9" fill-opacity="0.5" stroke="#606060" stroke-width=".5" x="0" y="0" width="60" height="60"/>
  <use id="zoomplus" xlink:href="#zoomPlus" x="17" y="9" onmousedown="handleZoom(evt,'in')"/>
  <use id="zoomminus" xlink:href="#zoomMin" x="42" y="9" onmousedown="handleZoom(evt,'out')"/>
  <use id="reset" xlink:href="#resetDef" x="30" y="36" onmousedown="handleReset()"/>
   <use id="arrowup" xlink:href="#arrowUp" x="0" y="0" onmousedown="handlePan(0,-1)"/>
  <use id="arrowright" xlink:href="#arrowRight" x="0" y="0" onmousedown="handlePan(1,0)"/>
  <use id="arrowdown" xlink:href="#arrowDown" x="0" y="0" onmousedown="handlePan(0,1)"/>
  <use id="arrowleft" xlink:href="#arrowLeft" x="0" y="0" onmousedown="handlePan(-1,0)"/>
</g>
<svg viewBox="0 0 15 15" width="100%" height="30px" preserveAspectRatio="xMaxYMin meet">
 <g id="arrow_out" transform="scale(0.3 0.3)">
  <a xlink:href="classmfem_1_1H1__FiniteElement_3_01Geometry_1_1TETRAHEDRON_00_01P_01_4__coll__graph_org.svg" target="_base">
   <rect id="button" ry="5" rx="5" y="6" x="6" height="38" width="38"
        fill="#f2f5e9" fill-opacity="0.5" stroke="#606060" stroke-width="1.0"/>
   <path id="arrow"
     d="M 11.500037,31.436501 C 11.940474,20.09759 22.043105,11.32322 32.158766,21.979434 L 37.068811,17.246167 C 37.068811,17.246167 37.088388,32 37.088388,32 L 22.160133,31.978069 C 22.160133,31.978069 26.997745,27.140456 26.997745,27.140456 C 18.528582,18.264221 13.291696,25.230495 11.500037,31.436501 z"
     style="fill:#404040;"/>
  </a>
 </g>
</svg>

<style type='text/css'>
<![CDATA[
[data-mouse-over-selected='false'] { opacity: 0.7; }
[data-mouse-over-selected='true']  { opacity: 1.0; }
]]>
</style>
<script type="application/ecmascript"><![CDATA[
document.addEventListener('DOMContentLoaded', (event) => {
  highlightEdges();
  highlightAdjacentNodes();
});
]]></script>
</svg>
