<?xml version="1.0" encoding="UTF-8" standalone="no"?>
<!DOCTYPE svg PUBLIC "-//W3C//DTD SVG 1.1//EN"
 "http://www.w3.org/Graphics/SVG/1.1/DTD/svg11.dtd">
<!-- Generated by graphviz version 8.0.5 (0)
 -->
<!-- Title: mfem::ScalarFiniteElement Pages: 1 -->
<!--zoomable 619 -->
<svg id="main" version="1.1" xmlns="http://www.w3.org/2000/svg" xmlns:xlink="http://www.w3.org/1999/xlink" xml:space="preserve" onload="init(evt)">
<style type="text/css"><![CDATA[
.edge:hover path { stroke: red; }
.edge:hover polygon { stroke: red; fill: red; }
]]></style>
<script type="text/javascript"><![CDATA[
var edges = document.getElementsByTagName('g');
if (edges && edges.length) {
  for (var i=0;i<edges.length;i++) {
    if (edges[i].id.substr(0,4)=='edge') {
      edges[i].setAttribute('class','edge');
    }
  }
}
]]></script>
        <defs>
                <circle id="rim" cx="0" cy="0" r="7"/>
                <circle id="rim2" cx="0" cy="0" r="3.5"/>
                <g id="zoomPlus">
                        <use xlink:href="#rim" fill="#404040">
                                <set attributeName="fill" to="#808080" begin="zoomplus.mouseover" end="zoomplus.mouseout"/>
                        </use>
                        <path d="M-4,0h8M0,-4v8" fill="none" stroke="white" stroke-width="1.5" pointer-events="none"/>
                </g>
                <g id="zoomMin">
                        <use xlink:href="#rim" fill="#404040">
                                <set attributeName="fill" to="#808080" begin="zoomminus.mouseover" end="zoomminus.mouseout"/>
                        </use>
                        <path d="M-4,0h8" fill="none" stroke="white" stroke-width="1.5" pointer-events="none"/>
                </g>
                <g id="dirArrow">
                        <path fill="none" stroke="white" stroke-width="1.5" d="M0,-3.0v7 M-2.5,-0.5L0,-3.0L2.5,-0.5"/>
                </g>
               <g id="resetDef">
                       <use xlink:href="#rim2" fill="#404040">
                               <set attributeName="fill" to="#808080" begin="reset.mouseover" end="reset.mouseout"/>
                       </use>
               </g>
        </defs>

<script type="text/javascript">
var viewWidth = 582;
var viewHeight = 619;
var sectionId = 'dynsection-1';
</script>
<script xlink:href="svgpan.js"/>
<svg id="graph" class="graph">
<g id="viewport">
<title>mfem::ScalarFiniteElement</title>
<!-- Node1 -->
<g id="node1" class="node">
<title>Node1</title>
<g id="a_node1"><a xlink:title="Class for finite elements with basis functions that return scalar values.">
<polygon fill="#999999" stroke="#666666" points="269.56,-194 85.51,-194 85.51,-172 269.56,-172 269.56,-194"/>
<text text-anchor="middle" x="177.54" y="-178.8" font-family="Helvetica,sans-Serif" font-size="14.00">mfem::ScalarFiniteElement</text>
</a>
</g>
</g>
<!-- Node2 -->
<g id="node2" class="node">
<title>Node2</title>
<g id="a_node2"><a xlink:href="classmfem_1_1FiniteElement.html" target="_top" xlink:title="Abstract class for all finite elements.">
<polygon fill="white" stroke="#666666" points="249.72,-308 105.35,-308 105.35,-286 249.72,-286 249.72,-308"/>
<text text-anchor="middle" x="177.54" y="-292.8" font-family="Helvetica,sans-Serif" font-size="14.00">mfem::FiniteElement</text>
</a>
</g>
</g>
<!-- Node2&#45;&gt;Node1 -->
<g id="edge1" class="edge">
<title>Node2&#45;&gt;Node1</title>
<path fill="none" stroke="#63b8ff" d="M177.54,-274.86C177.54,-250.82 177.54,-212.55 177.54,-194.31"/>
<polygon fill="#63b8ff" stroke="#63b8ff" points="174.04,-274.66 177.54,-284.66 181.04,-274.66 174.04,-274.66"/>
</g>
<!-- Node12 -->
<g id="node12" class="node">
<title>Node12</title>
<g id="a_node12"><a xlink:href="classmfem_1_1DofToQuad.html" target="_top" xlink:title="Structure representing the matrices/tensors needed to evaluate (in reference space) the values,...">
<polygon fill="white" stroke="#666666" points="417.34,-194 287.74,-194 287.74,-172 417.34,-172 417.34,-194"/>
<text text-anchor="middle" x="352.54" y="-178.8" font-family="Helvetica,sans-Serif" font-size="14.00">mfem::DofToQuad</text>
</a>
</g>
</g>
<!-- Node2&#45;&gt;Node12 -->
<g id="edge12" class="edge">
<title>Node2&#45;&gt;Node12</title>
<path fill="none" stroke="#9a32cd" stroke-dasharray="5,2" d="M198.52,-278.8C220.99,-260.84 258.11,-232.49 292.76,-212 303.81,-205.47 316.63,-199.29 327.56,-194.41"/>
<polygon fill="#9a32cd" stroke="#9a32cd" points="196.7,-276.58 191.11,-285.58 201.09,-282.02 196.7,-276.58"/>
<text text-anchor="middle" x="304.43" y="-235.8" font-family="Helvetica,sans-Serif" font-size="14.00"> FE</text>
</g>
<!-- Node3 -->
<g id="node3" class="node">
<title>Node3</title>
<g id="a_node3"><a xlink:href="classmfem_1_1IntegrationRule.html" target="_top" xlink:title="Class for an integration rule &#45; an Array of IntegrationPoint.">
<polygon fill="white" stroke="#666666" points="387.4,-380 233.67,-380 233.67,-358 387.4,-358 387.4,-380"/>
<text text-anchor="middle" x="310.54" y="-364.8" font-family="Helvetica,sans-Serif" font-size="14.00">mfem::IntegrationRule</text>
</a>
</g>
</g>
<!-- Node3&#45;&gt;Node2 -->
<g id="edge2" class="edge">
<title>Node3&#45;&gt;Node2</title>
<path fill="none" stroke="#9a32cd" stroke-dasharray="5,2" d="M281.08,-352.5C255.53,-339.05 219.29,-319.97 197.15,-308.32"/>
<polygon fill="#9a32cd" stroke="#9a32cd" points="279.15,-355.96 289.62,-357.52 282.41,-349.77 279.15,-355.96"/>
<text text-anchor="middle" x="278.72" y="-328.8" font-family="Helvetica,sans-Serif" font-size="14.00"> Nodes</text>
</g>
<!-- Node3&#45;&gt;Node12 -->
<g id="edge13" class="edge">
<title>Node3&#45;&gt;Node12</title>
<path fill="none" stroke="#9a32cd" stroke-dasharray="5,2" d="M315.31,-347.09C324.31,-307.64 343.5,-223.58 350.18,-194.31"/>
<polygon fill="#9a32cd" stroke="#9a32cd" points="311.73,-346.05 312.91,-356.58 318.55,-347.61 311.73,-346.05"/>
<text text-anchor="middle" x="352.66" y="-292.8" font-family="Helvetica,sans-Serif" font-size="14.00"> IntRule</text>
</g>
<!-- Node4 -->
<g id="node4" class="node">
<title>Node4</title>
<g id="a_node4"><a xlink:href="classmfem_1_1Array.html" target="_top" xlink:title=" ">
<polygon fill="white" stroke="#666666" points="395.76,-453 225.31,-453 225.31,-417 395.76,-417 395.76,-453"/>
<text text-anchor="start" x="233.31" y="-437.8" font-family="Helvetica,sans-Serif" font-size="14.00">mfem::Array&lt; Integration</text>
<text text-anchor="middle" x="310.54" y="-423.8" font-family="Helvetica,sans-Serif" font-size="14.00">Point &gt;</text>
</a>
</g>
</g>
<!-- Node4&#45;&gt;Node3 -->
<g id="edge3" class="edge">
<title>Node4&#45;&gt;Node3</title>
<path fill="none" stroke="#63b8ff" d="M310.54,-405.6C310.54,-396.65 310.54,-387.32 310.54,-380.46"/>
<polygon fill="#63b8ff" stroke="#63b8ff" points="307.04,-405.51 310.54,-415.51 314.04,-405.51 307.04,-405.51"/>
</g>
<!-- Node5 -->
<g id="node5" class="node">
<title>Node5</title>
<g id="a_node5"><a xlink:href="classmfem_1_1Memory.html" target="_top" xlink:title=" ">
<polygon fill="white" stroke="#666666" points="405.32,-539 217.76,-539 217.76,-503 405.32,-503 405.32,-539"/>
<text text-anchor="start" x="225.76" y="-523.8" font-family="Helvetica,sans-Serif" font-size="14.00">mfem::Memory&lt; Integration</text>
<text text-anchor="middle" x="311.54" y="-509.8" font-family="Helvetica,sans-Serif" font-size="14.00">Point &gt;</text>
</a>
</g>
</g>
<!-- Node5&#45;&gt;Node4 -->
<g id="edge4" class="edge">
<title>Node5&#45;&gt;Node4</title>
<path fill="none" stroke="#9a32cd" stroke-dasharray="5,2" d="M311.2,-491.63C311.05,-478.95 310.87,-464.42 310.74,-453.38"/>
<polygon fill="#9a32cd" stroke="#9a32cd" points="307.71,-491.64 311.33,-501.6 314.71,-491.55 307.71,-491.64"/>
<text text-anchor="middle" x="326.1" y="-473.8" font-family="Helvetica,sans-Serif" font-size="14.00"> data</text>
</g>
<!-- Node6 -->
<g id="node6" class="node">
<title>Node6</title>
<g id="a_node6"><a xlink:href="classmfem_1_1IntegrationPoint.html" target="_top" xlink:title="Class for integration point with weight.">
<polygon fill="white" stroke="#666666" points="389.96,-611 233.11,-611 233.11,-589 389.96,-589 389.96,-611"/>
<text text-anchor="middle" x="311.54" y="-595.8" font-family="Helvetica,sans-Serif" font-size="14.00">mfem::IntegrationPoint</text>
</a>
</g>
</g>
<!-- Node6&#45;&gt;Node5 -->
<g id="edge5" class="edge">
<title>Node6&#45;&gt;Node5</title>
<path fill="none" stroke="#9a32cd" stroke-dasharray="5,2" d="M311.54,-577.7C311.54,-565.6 311.54,-550.64 311.54,-539.28"/>
<polygon fill="#9a32cd" stroke="#9a32cd" points="308.04,-577.62 311.54,-587.62 315.04,-577.62 308.04,-577.62"/>
<text text-anchor="middle" x="329.44" y="-559.8" font-family="Helvetica,sans-Serif" font-size="14.00"> h_ptr</text>
</g>
<!-- Node7 -->
<g id="node7" class="node">
<title>Node7</title>
<g id="a_node7"><a xlink:href="classmfem_1_1DenseMatrix.html" target="_top" xlink:title="Data type dense matrix using column&#45;major storage.">
<polygon fill="white" stroke="#666666" points="215.22,-380 77.86,-380 77.86,-358 215.22,-358 215.22,-380"/>
<text text-anchor="middle" x="146.54" y="-364.8" font-family="Helvetica,sans-Serif" font-size="14.00">mfem::DenseMatrix</text>
</a>
</g>
</g>
<!-- Node7&#45;&gt;Node2 -->
<g id="edge6" class="edge">
<title>Node7&#45;&gt;Node2</title>
<path fill="none" stroke="#9a32cd" stroke-dasharray="5,2" d="M155.48,-347.81C161.19,-334.91 168.36,-318.73 172.94,-308.37"/>
<polygon fill="#9a32cd" stroke="#9a32cd" points="151.96,-346.11 151.11,-356.67 158.36,-348.95 151.96,-346.11"/>
<text text-anchor="middle" x="190.05" y="-328.8" font-family="Helvetica,sans-Serif" font-size="14.00"> vshape</text>
</g>
<!-- Node8 -->
<g id="node8" class="node">
<title>Node8</title>
<g id="a_node8"><a xlink:href="classmfem_1_1Matrix.html" target="_top" xlink:title="Abstract data type matrix.">
<polygon fill="white" stroke="#666666" points="192.98,-446 96.09,-446 96.09,-424 192.98,-424 192.98,-446"/>
<text text-anchor="middle" x="144.54" y="-430.8" font-family="Helvetica,sans-Serif" font-size="14.00">mfem::Matrix</text>
</a>
</g>
</g>
<!-- Node8&#45;&gt;Node7 -->
<g id="edge7" class="edge">
<title>Node8&#45;&gt;Node7</title>
<path fill="none" stroke="#63b8ff" d="M145.19,-412.94C145.53,-402.05 145.93,-389.25 146.21,-380.47"/>
<polygon fill="#63b8ff" stroke="#63b8ff" points="141.67,-412.61 144.86,-422.72 148.67,-412.83 141.67,-412.61"/>
</g>
<!-- Node9 -->
<g id="node9" class="node">
<title>Node9</title>
<g id="a_node9"><a xlink:href="classmfem_1_1Operator.html" target="_top" xlink:title="Abstract operator.">
<polygon fill="white" stroke="#666666" points="199.55,-532 85.52,-532 85.52,-510 199.55,-510 199.55,-532"/>
<text text-anchor="middle" x="142.54" y="-516.8" font-family="Helvetica,sans-Serif" font-size="14.00">mfem::Operator</text>
</a>
</g>
</g>
<!-- Node9&#45;&gt;Node8 -->
<g id="edge8" class="edge">
<title>Node9&#45;&gt;Node8</title>
<path fill="none" stroke="#63b8ff" d="M143.04,-498.77C143.44,-482.03 143.98,-459.4 144.29,-446.38"/>
<polygon fill="#63b8ff" stroke="#63b8ff" points="139.52,-498.62 142.78,-508.7 146.52,-498.79 139.52,-498.62"/>
</g>
<!-- Node10 -->
<g id="node10" class="node">
<title>Node10</title>
<g id="a_node10"><a xlink:href="classmfem_1_1Array.html" target="_top" xlink:title=" ">
<polygon fill="white" stroke="#666666" points="147.07,-36 0,-36 0,0 147.07,0 147.07,-36"/>
<text text-anchor="start" x="8" y="-20.8" font-family="Helvetica,sans-Serif" font-size="14.00">mfem::Array&lt; mfem::</text>
<text text-anchor="middle" x="73.54" y="-6.8" font-family="Helvetica,sans-Serif" font-size="14.00">DofToQuad * &gt;</text>
</a>
</g>
</g>
<!-- Node10&#45;&gt;Node2 -->
<g id="edge9" class="edge">
<title>Node10&#45;&gt;Node2</title>
<path fill="none" stroke="#9a32cd" stroke-dasharray="5,2" d="M67.87,-46.83C61.95,-82.49 56.09,-145.49 76.54,-194 94.05,-235.57 137.29,-269.34 161.12,-285.57"/>
<polygon fill="#9a32cd" stroke="#9a32cd" points="71.44,-47.72 69.76,-37.26 64.55,-46.49 71.44,-47.72"/>
<text text-anchor="middle" x="116.52" y="-142.8" font-family="Helvetica,sans-Serif" font-size="14.00"> dof2quad_array</text>
</g>
<!-- Node11 -->
<g id="node11" class="node">
<title>Node11</title>
<g id="a_node11"><a xlink:href="classmfem_1_1Memory.html" target="_top" xlink:title=" ">
<polygon fill="white" stroke="#666666" points="250.74,-122 94.33,-122 94.33,-86 250.74,-86 250.74,-122"/>
<text text-anchor="start" x="102.33" y="-106.8" font-family="Helvetica,sans-Serif" font-size="14.00">mfem::Memory&lt; mfem</text>
<text text-anchor="middle" x="172.54" y="-92.8" font-family="Helvetica,sans-Serif" font-size="14.00">::DofToQuad * &gt;</text>
</a>
</g>
</g>
<!-- Node11&#45;&gt;Node10 -->
<g id="edge10" class="edge">
<title>Node11&#45;&gt;Node10</title>
<path fill="none" stroke="#9a32cd" stroke-dasharray="5,2" d="M144.04,-78.82C128.05,-65.26 108.49,-48.65 94.02,-36.38"/>
<polygon fill="#9a32cd" stroke="#9a32cd" points="141.13,-81.79 151.02,-85.6 145.66,-76.46 141.13,-81.79"/>
<text text-anchor="middle" x="145.1" y="-56.8" font-family="Helvetica,sans-Serif" font-size="14.00"> data</text>
</g>
<!-- Node12&#45;&gt;Node11 -->
<g id="edge11" class="edge">
<title>Node12&#45;&gt;Node11</title>
<path fill="none" stroke="#9a32cd" stroke-dasharray="5,2" d="M318.29,-167.35C288.39,-154.56 244.95,-135.98 213.27,-122.43"/>
<polygon fill="#9a32cd" stroke="#9a32cd" points="316.69,-170.9 327.26,-171.62 319.44,-164.46 316.69,-170.9"/>
<text text-anchor="middle" x="302.44" y="-142.8" font-family="Helvetica,sans-Serif" font-size="14.00"> h_ptr</text>
</g>
<!-- Node13 -->
<g id="node13" class="node">
<title>Node13</title>
<g id="a_node13"><a xlink:href="classmfem_1_1Array.html" target="_top" xlink:title=" ">
<polygon fill="white" stroke="#666666" points="556.23,-308 404.85,-308 404.85,-286 556.23,-286 556.23,-308"/>
<text text-anchor="middle" x="480.54" y="-292.8" font-family="Helvetica,sans-Serif" font-size="14.00">mfem::Array&lt; real_t &gt;</text>
</a>
</g>
</g>
<!-- Node13&#45;&gt;Node12 -->
<g id="edge14" class="edge">
<title>Node13&#45;&gt;Node12</title>
<path fill="none" stroke="#9a32cd" stroke-dasharray="5,2" d="M460.74,-278.68C433.77,-255.08 386.3,-213.54 364.32,-194.31"/>
<polygon fill="#9a32cd" stroke="#9a32cd" points="457.89,-281.71 467.72,-285.66 462.5,-276.44 457.89,-281.71"/>
<text text-anchor="middle" x="452.93" y="-256.8" font-family="Helvetica,sans-Serif" font-size="14.00"> B</text>
<text text-anchor="middle" x="452.93" y="-242.8" font-family="Helvetica,sans-Serif" font-size="14.00">Bt</text>
<text text-anchor="middle" x="452.93" y="-228.8" font-family="Helvetica,sans-Serif" font-size="14.00">G</text>
<text text-anchor="middle" x="452.93" y="-214.8" font-family="Helvetica,sans-Serif" font-size="14.00">Gt</text>
</g>
<!-- Node14 -->
<g id="node14" class="node">
<title>Node14</title>
<g id="a_node14"><a xlink:href="classmfem_1_1Memory.html" target="_top" xlink:title=" ">
<polygon fill="white" stroke="#666666" points="573.78,-380 405.29,-380 405.29,-358 573.78,-358 573.78,-380"/>
<text text-anchor="middle" x="489.54" y="-364.8" font-family="Helvetica,sans-Serif" font-size="14.00">mfem::Memory&lt; real_t &gt;</text>
</a>
</g>
</g>
<!-- Node14&#45;&gt;Node13 -->
<g id="edge15" class="edge">
<title>Node14&#45;&gt;Node13</title>
<path fill="none" stroke="#9a32cd" stroke-dasharray="5,2" d="M486.84,-347.03C485.2,-334.27 483.17,-318.52 481.87,-308.37"/>
<polygon fill="#9a32cd" stroke="#9a32cd" points="483.46,-347.2 488.21,-356.67 490.4,-346.31 483.46,-347.2"/>
<text text-anchor="middle" x="501.1" y="-328.8" font-family="Helvetica,sans-Serif" font-size="14.00"> data</text>
</g>
</g>
</svg>
        <g id="navigator" transform="translate(0 0)" fill="#404254">
                <rect fill="#f2f5e9" fill-opacity="0.5" stroke="#606060" stroke-width=".5" x="0" y="0" width="60" height="60"/>
                <use id="zoomplus" xlink:href="#zoomPlus" x="17" y="9" onmousedown="handleZoom(evt,'in')"/>
                <use id="zoomminus" xlink:href="#zoomMin" x="42" y="9" onmousedown="handleZoom(evt,'out')"/>
                <use id="reset" xlink:href="#resetDef" x="30" y="36" onmousedown="handleReset()"/>
                <g id="arrowUp" xlink:href="#dirArrow" transform="translate(30 24)" onmousedown="handlePan(0,-1)">
                  <use xlink:href="#rim" fill="#404040">
                        <set attributeName="fill" to="#808080" begin="arrowUp.mouseover" end="arrowUp.mouseout"/>
                  </use>
                  <path fill="none" stroke="white" stroke-width="1.5" d="M0,-3.0v7 M-2.5,-0.5L0,-3.0L2.5,-0.5"/>
                </g>
                <g id="arrowRight" xlink:href="#dirArrow" transform="rotate(90) translate(36 -43)" onmousedown="handlePan(1,0)">
                  <use xlink:href="#rim" fill="#404040">
                        <set attributeName="fill" to="#808080" begin="arrowRight.mouseover" end="arrowRight.mouseout"/>
                  </use>
                  <path fill="none" stroke="white" stroke-width="1.5" d="M0,-3.0v7 M-2.5,-0.5L0,-3.0L2.5,-0.5"/>
                </g>
                <g id="arrowDown" xlink:href="#dirArrow" transform="rotate(180) translate(-30 -48)" onmousedown="handlePan(0,1)">
                  <use xlink:href="#rim" fill="#404040">
                        <set attributeName="fill" to="#808080" begin="arrowDown.mouseover" end="arrowDown.mouseout"/>
                  </use>
                  <path fill="none" stroke="white" stroke-width="1.5" d="M0,-3.0v7 M-2.5,-0.5L0,-3.0L2.5,-0.5"/>
                </g>
                <g id="arrowLeft" xlink:href="#dirArrow" transform="rotate(270) translate(-36 17)" onmousedown="handlePan(-1,0)">
                  <use xlink:href="#rim" fill="#404040">
                        <set attributeName="fill" to="#808080" begin="arrowLeft.mouseover" end="arrowLeft.mouseout"/>
                  </use>
                  <path fill="none" stroke="white" stroke-width="1.5" d="M0,-3.0v7 M-2.5,-0.5L0,-3.0L2.5,-0.5"/>
                </g>
        </g>
        <svg viewBox="0 0 15 15" width="100%" height="30px" preserveAspectRatio="xMaxYMin meet">
         <g id="arrow_out" transform="scale(0.3 0.3)">
          <a xlink:href="classmfem_1_1ScalarFiniteElement__coll__graph_org.svg" target="_base">
           <rect id="button" ry="5" rx="5" y="6" x="6" height="38" width="38"
                fill="#f2f5e9" fill-opacity="0.5" stroke="#606060" stroke-width="1.0"/>
           <path id="arrow"
             d="M 11.500037,31.436501 C 11.940474,20.09759 22.043105,11.32322 32.158766,21.979434 L 37.068811,17.246167 C 37.068811,17.246167 37.088388,32 37.088388,32 L 22.160133,31.978069 C 22.160133,31.978069 26.997745,27.140456 26.997745,27.140456 C 18.528582,18.264221 13.291696,25.230495 11.500037,31.436501 z"
             style="fill:#404040;"/>
          </a>
         </g>
        </svg>
</svg>
