<?xml version="1.0" encoding="UTF-8" standalone="no"?>
<!DOCTYPE svg PUBLIC "-//W3C//DTD SVG 1.1//EN"
 "http://www.w3.org/Graphics/SVG/1.1/DTD/svg11.dtd">
<!-- Generated by graphviz version 12.0.0 (20240704.0754)
 -->
<!-- Title: mfem::ConstrainedSolver Pages: 1 -->
<!--zoomable 211 -->

<svg id="main" version="1.1" xmlns="http://www.w3.org/2000/svg" xmlns:xlink="http://www.w3.org/1999/xlink" xml:space="preserve" onload="init(evt)">
<style type="text/css"><![CDATA[
.node, .edge {opacity: 0.7;}
.node.selected, .edge.selected {opacity: 1;}
.edge:hover path { stroke: red; }
.edge:hover polygon { stroke: red; fill: red; }
]]></style>

<defs>
  <circle id="rim" cx="0" cy="0" r="7"/>
  <circle id="rim2" cx="0" cy="0" r="3.5"/>
  <g id="zoomPlus">
    <use xlink:href="#rim" fill="#404040"><set attributeName="fill" to="#808080" begin="zoomplus.mouseover" end="zoomplus.mouseout"/></use>
    <path d="M-4,0h8M0,-4v8" fill="none" stroke="white" stroke-width="1.5" pointer-events="none"/>
  </g>
  <g id="zoomMin">
    <use xlink:href="#rim" fill="#404040"><set attributeName="fill" to="#808080" begin="zoomminus.mouseover" end="zoomminus.mouseout"/></use>
    <path d="M-4,0h8" fill="none" stroke="white" stroke-width="1.5" pointer-events="none"/>
  </g>
  <g id="arrowUp" transform="translate(30 24)">
    <use xlink:href="#rim"/>
    <path pointer-events="none" fill="none" stroke="white" stroke-width="1.5" d="M0,-3.0v7 M-2.5,-0.5L0,-3.0L2.5,-0.5"/>
  </g>
  <g id="arrowRight" transform="rotate(90) translate(36 -43)">
    <use xlink:href="#rim"/>
    <path pointer-events="none" fill="none" stroke="white" stroke-width="1.5" d="M0,-3.0v7 M-2.5,-0.5L0,-3.0L2.5,-0.5"/>
  </g>
  <g id="arrowDown" transform="rotate(180) translate(-30 -48)">
    <use xlink:href="#rim"/>
    <path pointer-events="none" fill="none" stroke="white" stroke-width="1.5" d="M0,-3.0v7 M-2.5,-0.5L0,-3.0L2.5,-0.5"/>
  </g>
  <g id="arrowLeft" transform="rotate(270) translate(-36 17)">
    <use xlink:href="#rim"/>
    <path pointer-events="none" fill="none" stroke="white" stroke-width="1.5" d="M0,-3.0v7 M-2.5,-0.5L0,-3.0L2.5,-0.5"/>
  </g>
  <g id="resetDef">
    <use xlink:href="#rim2" fill="#404040"><set attributeName="fill" to="#808080" begin="reset.mouseover" end="reset.mouseout"/></use>
  </g>
</defs>
<script type="application/ecmascript">
var viewWidth = 1132;
var viewHeight = 211;
var sectionId = 'dynsection-0';
</script>
<script type="application/ecmascript" xlink:href="svg.min.js"/>
<svg id="graph" class="graph">
<g id="viewport">
<title>mfem::ConstrainedSolver</title>
<!-- Node1 -->
<g id="Node000001" class="node">
<title>Node1</title>
<g id="a_Node000001"><a xlink:title="An abstract class to solve the constrained system &#160;subject to the constraint .">
<polygon fill="#999999" stroke="#666666" points="632.5,-95.5 462.75,-95.5 462.75,-72.5 632.5,-72.5 632.5,-95.5"/>
<text text-anchor="middle" x="547.62" y="-78.2" font-family="Helvetica,sans-Serif" font-size="14.00">mfem::ConstrainedSolver</text>
</a>
</g>
</g>
<!-- Node5 -->
<g id="Node000005" class="node">
<title>Node5</title>
<g id="a_Node000005"><a xlink:href="classmfem_1_1EliminationSolver.html" target="_top" xlink:title="Solve constrained system by eliminating the constraint; see ConstrainedSolver.">
<polygon fill="white" stroke="#666666" points="852.88,-161.5 689.12,-161.5 689.12,-138.5 852.88,-138.5 852.88,-161.5"/>
<text text-anchor="middle" x="771" y="-144.2" font-family="Helvetica,sans-Serif" font-size="14.00">mfem::EliminationSolver</text>
</a>
</g>
</g>
<!-- Node1&#45;&gt;Node5 -->
<g id="edge4_Node000001_Node000005" class="edge">
<title>Node1&#45;&gt;Node5</title>
<g id="a_edge4_Node000001_Node000005"><a xlink:title=" ">
<path fill="none" stroke="#63b8ff" d="M599.72,-99.23C639.29,-111.03 693.33,-127.14 729.84,-138.03"/>
<polygon fill="#63b8ff" stroke="#63b8ff" points="600.75,-95.89 590.16,-96.38 598.75,-102.6 600.75,-95.89"/>
</a>
</g>
</g>
<!-- Node8 -->
<g id="Node000008" class="node">
<title>Node8</title>
<g id="a_Node000008"><a xlink:href="classmfem_1_1PenaltyConstrainedSolver.html" target="_top" xlink:title="Solve constrained system with penalty method; see ConstrainedSolver.">
<polygon fill="white" stroke="#666666" points="859.25,-103 682.75,-103 682.75,-65 859.25,-65 859.25,-103"/>
<text text-anchor="start" x="690.75" y="-85.7" font-family="Helvetica,sans-Serif" font-size="14.00">mfem::PenaltyConstrained</text>
<text text-anchor="middle" x="771" y="-70.7" font-family="Helvetica,sans-Serif" font-size="14.00">Solver</text>
</a>
</g>
</g>
<!-- Node1&#45;&gt;Node8 -->
<g id="edge7_Node000001_Node000008" class="edge">
<title>Node1&#45;&gt;Node8</title>
<g id="a_edge7_Node000001_Node000008"><a xlink:title=" ">
<path fill="none" stroke="#63b8ff" d="M644.1,-84C656.89,-84 669.96,-84 682.6,-84"/>
<polygon fill="#63b8ff" stroke="#63b8ff" points="644.46,-80.5 634.46,-84 644.46,-87.5 644.46,-80.5"/>
</a>
</g>
</g>
<!-- Node11 -->
<g id="Node000011" class="node">
<title>Node11</title>
<g id="a_Node000011"><a xlink:href="classmfem_1_1SchurConstrainedSolver.html" target="_top" xlink:title="Solve constrained system by solving original mixed system; see ConstrainedSolver.">
<polygon fill="white" stroke="#666666" points="873.5,-46.5 668.5,-46.5 668.5,-23.5 873.5,-23.5 873.5,-46.5"/>
<text text-anchor="middle" x="771" y="-29.2" font-family="Helvetica,sans-Serif" font-size="14.00">mfem::SchurConstrainedSolver</text>
</a>
</g>
</g>
<!-- Node1&#45;&gt;Node11 -->
<g id="edge10_Node000001_Node000011" class="edge">
<title>Node1&#45;&gt;Node11</title>
<g id="a_edge10_Node000001_Node000011"><a xlink:title=" ">
<path fill="none" stroke="#63b8ff" d="M609.58,-69.45C628.44,-65.03 649.31,-60.23 668.5,-56 682.21,-52.98 696.98,-49.85 710.91,-46.96"/>
<polygon fill="#63b8ff" stroke="#63b8ff" points="608.83,-66.03 599.9,-71.72 610.44,-72.84 608.83,-66.03"/>
</a>
</g>
</g>
<!-- Node2 -->
<g id="Node000002" class="node">
<title>Node2</title>
<g id="a_Node000002"><a xlink:href="classmfem_1_1IterativeSolver.html" target="_top" xlink:title="Abstract base class for iterative solver.">
<polygon fill="white" stroke="#666666" points="426.75,-95.5 281.75,-95.5 281.75,-72.5 426.75,-72.5 426.75,-95.5"/>
<text text-anchor="middle" x="354.25" y="-78.2" font-family="Helvetica,sans-Serif" font-size="14.00">mfem::IterativeSolver</text>
</a>
</g>
</g>
<!-- Node2&#45;&gt;Node1 -->
<g id="edge1_Node000001_Node000002" class="edge">
<title>Node2&#45;&gt;Node1</title>
<g id="a_edge1_Node000001_Node000002"><a xlink:title=" ">
<path fill="none" stroke="#63b8ff" d="M438.29,-84C446.32,-84 454.46,-84 462.49,-84"/>
<polygon fill="#63b8ff" stroke="#63b8ff" points="438.57,-80.5 428.57,-84 438.57,-87.5 438.57,-80.5"/>
</a>
</g>
</g>
<!-- Node3 -->
<g id="Node000003" class="node">
<title>Node3</title>
<g id="a_Node000003"><a xlink:href="classmfem_1_1Solver.html" target="_top" xlink:title="Base class for solvers.">
<polygon fill="white" stroke="#666666" points="245.75,-95.5 148.75,-95.5 148.75,-72.5 245.75,-72.5 245.75,-95.5"/>
<text text-anchor="middle" x="197.25" y="-78.2" font-family="Helvetica,sans-Serif" font-size="14.00">mfem::Solver</text>
</a>
</g>
</g>
<!-- Node3&#45;&gt;Node2 -->
<g id="edge2_Node000002_Node000003" class="edge">
<title>Node3&#45;&gt;Node2</title>
<g id="a_edge2_Node000002_Node000003"><a xlink:title=" ">
<path fill="none" stroke="#63b8ff" d="M257.33,-84C265.2,-84 273.35,-84 281.42,-84"/>
<polygon fill="#63b8ff" stroke="#63b8ff" points="257.53,-80.5 247.53,-84 257.53,-87.5 257.53,-80.5"/>
</a>
</g>
</g>
<!-- Node4 -->
<g id="Node000004" class="node">
<title>Node4</title>
<g id="a_Node000004"><a xlink:href="classmfem_1_1Operator.html" target="_top" xlink:title="Abstract operator.">
<polygon fill="white" stroke="#666666" points="112.75,-95.5 0,-95.5 0,-72.5 112.75,-72.5 112.75,-95.5"/>
<text text-anchor="middle" x="56.38" y="-78.2" font-family="Helvetica,sans-Serif" font-size="14.00">mfem::Operator</text>
</a>
</g>
</g>
<!-- Node4&#45;&gt;Node3 -->
<g id="edge3_Node000003_Node000004" class="edge">
<title>Node4&#45;&gt;Node3</title>
<g id="a_edge3_Node000003_Node000004"><a xlink:title=" ">
<path fill="none" stroke="#63b8ff" d="M124.49,-84C132.64,-84 140.82,-84 148.6,-84"/>
<polygon fill="#63b8ff" stroke="#63b8ff" points="124.57,-80.5 114.57,-84 124.57,-87.5 124.57,-80.5"/>
</a>
</g>
</g>
<!-- Node6 -->
<g id="Node000006" class="node">
<title>Node6</title>
<g id="a_Node000006"><a xlink:href="classmfem_1_1EliminationCGSolver.html" target="_top" xlink:title=" ">
<polygon fill="white" stroke="#666666" points="1109.25,-202.5 924.5,-202.5 924.5,-179.5 1109.25,-179.5 1109.25,-202.5"/>
<text text-anchor="middle" x="1016.88" y="-185.2" font-family="Helvetica,sans-Serif" font-size="14.00">mfem::EliminationCGSolver</text>
</a>
</g>
</g>
<!-- Node5&#45;&gt;Node6 -->
<g id="edge5_Node000005_Node000006" class="edge">
<title>Node5&#45;&gt;Node6</title>
<g id="a_edge5_Node000005_Node000006"><a xlink:title=" ">
<path fill="none" stroke="#63b8ff" d="M854.24,-163.83C883.55,-168.75 916.28,-174.26 944.59,-179.02"/>
<polygon fill="#63b8ff" stroke="#63b8ff" points="855.13,-160.43 844.69,-162.22 853.97,-167.33 855.13,-160.43"/>
</a>
</g>
</g>
<!-- Node7 -->
<g id="Node000007" class="node">
<title>Node7</title>
<g id="a_Node000007"><a xlink:href="classmfem_1_1EliminationGMRESSolver.html" target="_top" xlink:title=" ">
<polygon fill="white" stroke="#666666" points="1124.25,-161.5 909.5,-161.5 909.5,-138.5 1124.25,-138.5 1124.25,-161.5"/>
<text text-anchor="middle" x="1016.88" y="-144.2" font-family="Helvetica,sans-Serif" font-size="14.00">mfem::EliminationGMRESSolver</text>
</a>
</g>
</g>
<!-- Node5&#45;&gt;Node7 -->
<g id="edge6_Node000005_Node000007" class="edge">
<title>Node5&#45;&gt;Node7</title>
<g id="a_edge6_Node000005_Node000007"><a xlink:title=" ">
<path fill="none" stroke="#63b8ff" d="M864.33,-150C879.06,-150 894.4,-150 909.42,-150"/>
<polygon fill="#63b8ff" stroke="#63b8ff" points="864.72,-146.5 854.72,-150 864.72,-153.5 864.72,-146.5"/>
</a>
</g>
</g>
<!-- Node9 -->
<g id="Node000009" class="node">
<title>Node9</title>
<g id="a_Node000009"><a xlink:href="classmfem_1_1PenaltyGMRESSolver.html" target="_top" xlink:title=" ">
<polygon fill="white" stroke="#666666" points="1113.38,-120.5 920.38,-120.5 920.38,-97.5 1113.38,-97.5 1113.38,-120.5"/>
<text text-anchor="middle" x="1016.88" y="-103.2" font-family="Helvetica,sans-Serif" font-size="14.00">mfem::PenaltyGMRESSolver</text>
</a>
</g>
</g>
<!-- Node8&#45;&gt;Node9 -->
<g id="edge8_Node000008_Node000009" class="edge">
<title>Node8&#45;&gt;Node9</title>
<g id="a_edge8_Node000008_Node000009"><a xlink:title=" ">
<path fill="none" stroke="#63b8ff" d="M870.88,-94.14C887.19,-95.81 904.06,-97.54 920.29,-99.2"/>
<polygon fill="#63b8ff" stroke="#63b8ff" points="871.51,-90.68 861.21,-93.14 870.8,-97.65 871.51,-90.68"/>
</a>
</g>
</g>
<!-- Node10 -->
<g id="Node000010" class="node">
<title>Node10</title>
<g id="a_Node000010"><a xlink:href="classmfem_1_1PenaltyPCGSolver.html" target="_top" xlink:title=" ">
<polygon fill="white" stroke="#666666" points="1102.88,-79.5 930.88,-79.5 930.88,-56.5 1102.88,-56.5 1102.88,-79.5"/>
<text text-anchor="middle" x="1016.88" y="-62.2" font-family="Helvetica,sans-Serif" font-size="14.00">mfem::PenaltyPCGSolver</text>
</a>
</g>
</g>
<!-- Node8&#45;&gt;Node10 -->
<g id="edge9_Node000008_Node000010" class="edge">
<title>Node8&#45;&gt;Node10</title>
<g id="a_edge9_Node000008_Node000010"><a xlink:title=" ">
<path fill="none" stroke="#63b8ff" d="M871.19,-77.49C890.88,-76.2 911.4,-74.85 930.59,-73.6"/>
<polygon fill="#63b8ff" stroke="#63b8ff" points="870.96,-74 861.21,-78.15 871.42,-80.98 870.96,-74"/>
</a>
</g>
</g>
<!-- Node12 -->
<g id="Node000012" class="node">
<title>Node12</title>
<g id="a_Node000012"><a xlink:href="classmfem_1_1SchurConstrainedHypreSolver.html" target="_top" xlink:title="Basic saddle&#45;point solver with assembled blocks (ie, the operators are assembled HypreParMatrix objec...">
<polygon fill="white" stroke="#666666" points="1118.25,-38 915.5,-38 915.5,0 1118.25,0 1118.25,-38"/>
<text text-anchor="start" x="923.5" y="-20.7" font-family="Helvetica,sans-Serif" font-size="14.00">mfem::SchurConstrainedHypre</text>
<text text-anchor="middle" x="1016.88" y="-5.7" font-family="Helvetica,sans-Serif" font-size="14.00">Solver</text>
</a>
</g>
</g>
<!-- Node11&#45;&gt;Node12 -->
<g id="edge11_Node000011_Node000012" class="edge">
<title>Node11&#45;&gt;Node12</title>
<g id="a_edge11_Node000011_Node000012"><a xlink:title=" ">
<path fill="none" stroke="#63b8ff" d="M884.98,-27.59C895.05,-26.93 905.21,-26.26 915.16,-25.61"/>
<polygon fill="#63b8ff" stroke="#63b8ff" points="884.92,-24.08 875.17,-28.23 885.38,-31.07 884.92,-24.08"/>
</a>
</g>
</g>
</g>
</svg>

<g id="navigator" transform="translate(0 0)" fill="#404254">
  <rect fill="#f2f5e9" fill-opacity="0.5" stroke="#606060" stroke-width=".5" x="0" y="0" width="60" height="60"/>
  <use id="zoomplus" xlink:href="#zoomPlus" x="17" y="9" onmousedown="handleZoom(evt,'in')"/>
  <use id="zoomminus" xlink:href="#zoomMin" x="42" y="9" onmousedown="handleZoom(evt,'out')"/>
  <use id="reset" xlink:href="#resetDef" x="30" y="36" onmousedown="handleReset()"/>
   <use id="arrowup" xlink:href="#arrowUp" x="0" y="0" onmousedown="handlePan(0,-1)"/>
  <use id="arrowright" xlink:href="#arrowRight" x="0" y="0" onmousedown="handlePan(1,0)"/>
  <use id="arrowdown" xlink:href="#arrowDown" x="0" y="0" onmousedown="handlePan(0,1)"/>
  <use id="arrowleft" xlink:href="#arrowLeft" x="0" y="0" onmousedown="handlePan(-1,0)"/>
</g>
<svg viewBox="0 0 15 15" width="100%" height="30px" preserveAspectRatio="xMaxYMin meet">
 <g id="arrow_out" transform="scale(0.3 0.3)">
  <a xlink:href="classmfem_1_1ConstrainedSolver__inherit__graph_org.svg" target="_base">
   <rect id="button" ry="5" rx="5" y="6" x="6" height="38" width="38"
        fill="#f2f5e9" fill-opacity="0.5" stroke="#606060" stroke-width="1.0"/>
   <path id="arrow"
     d="M 11.500037,31.436501 C 11.940474,20.09759 22.043105,11.32322 32.158766,21.979434 L 37.068811,17.246167 C 37.068811,17.246167 37.088388,32 37.088388,32 L 22.160133,31.978069 C 22.160133,31.978069 26.997745,27.140456 26.997745,27.140456 C 18.528582,18.264221 13.291696,25.230495 11.500037,31.436501 z"
     style="fill:#404040;"/>
  </a>
 </g>
</svg>

<style type='text/css'>
<![CDATA[
[data-mouse-over-selected='false'] { opacity: 0.7; }
[data-mouse-over-selected='true']  { opacity: 1.0; }
]]>
</style>
<script type="application/ecmascript"><![CDATA[
document.addEventListener('DOMContentLoaded', (event) => {
  highlightEdges();
  highlightAdjacentNodes();
});
]]></script>
</svg>
