<?xml version="1.0" encoding="UTF-8" standalone="no"?>
<!DOCTYPE svg PUBLIC "-//W3C//DTD SVG 1.1//EN"
 "http://www.w3.org/Graphics/SVG/1.1/DTD/svg11.dtd">
<!-- Generated by graphviz version 8.0.5 (0)
 -->
<!-- Title: mfem::socketstream Pages: 1 -->
<svg width="494pt" height="274pt"
 viewBox="0.00 0.00 494.15 274.00" xmlns="http://www.w3.org/2000/svg" xmlns:xlink="http://www.w3.org/1999/xlink">
<g id="graph0" class="graph" transform="scale(1 1) rotate(0) translate(4 270)">
<title>mfem::socketstream</title>
<!-- Node1 -->
<g id="node1" class="node">
<title>Node1</title>
<g id="a_node1"><a xlink:title=" ">
<polygon fill="#999999" stroke="#666666" points="311.08,-22 169.06,-22 169.06,0 311.08,0 311.08,-22"/>
<text text-anchor="middle" x="240.07" y="-6.8" font-family="Helvetica,sans-Serif" font-size="14.00">mfem::socketstream</text>
</a>
</g>
</g>
<!-- Node2 -->
<g id="node2" class="node">
<title>Node2</title>
<g id="a_node2"><a xlink:title=" ">
<polygon fill="white" stroke="#666666" points="96.14,-101 0,-101 0,-79 96.14,-79 96.14,-101"/>
<text text-anchor="middle" x="48.07" y="-85.8" font-family="Helvetica,sans-Serif" font-size="14.00">std::iostream</text>
</a>
</g>
</g>
<!-- Node2&#45;&gt;Node1 -->
<g id="edge1" class="edge">
<title>Node2&#45;&gt;Node1</title>
<path fill="none" stroke="#63b8ff" d="M84.04,-74.58C121.84,-59.42 180.38,-35.94 213.97,-22.47"/>
<polygon fill="#63b8ff" stroke="#63b8ff" points="82.94,-71.64 74.96,-78.62 85.55,-78.14 82.94,-71.64"/>
</g>
<!-- Node3 -->
<g id="node3" class="node">
<title>Node3</title>
<g id="a_node3"><a xlink:href="classmfem_1_1socketbuf.html" target="_top" xlink:title=" ">
<polygon fill="white" stroke="#666666" points="232.42,-101 113.72,-101 113.72,-79 232.42,-79 232.42,-101"/>
<text text-anchor="middle" x="173.07" y="-85.8" font-family="Helvetica,sans-Serif" font-size="14.00">mfem::socketbuf</text>
</a>
</g>
</g>
<!-- Node3&#45;&gt;Node1 -->
<g id="edge2" class="edge">
<title>Node3&#45;&gt;Node1</title>
<path fill="none" stroke="#9a32cd" stroke-dasharray="5,2" d="M188.63,-70.72C196.53,-61.48 206.31,-50.11 215.15,-40 220.29,-34.12 226.08,-27.6 230.79,-22.33"/>
<polygon fill="#9a32cd" stroke="#9a32cd" points="185.55,-67.94 181.72,-77.82 190.87,-72.48 185.55,-67.94"/>
<text text-anchor="middle" x="235.53" y="-42.8" font-family="Helvetica,sans-Serif" font-size="14.00"> buf__</text>
</g>
<!-- Node4 -->
<g id="node4" class="node">
<title>Node4</title>
<g id="a_node4"><a xlink:title=" ">
<polygon fill="white" stroke="#666666" points="209.42,-187 104.72,-187 104.72,-165 209.42,-165 209.42,-187"/>
<text text-anchor="middle" x="157.07" y="-171.8" font-family="Helvetica,sans-Serif" font-size="14.00">std::streambuf</text>
</a>
</g>
</g>
<!-- Node4&#45;&gt;Node3 -->
<g id="edge3" class="edge">
<title>Node4&#45;&gt;Node3</title>
<path fill="none" stroke="#63b8ff" d="M161.02,-154.26C164.22,-137.47 168.59,-114.53 171.09,-101.38"/>
<polygon fill="#63b8ff" stroke="#63b8ff" points="157.46,-153.22 159.03,-163.7 164.34,-154.53 157.46,-153.22"/>
</g>
<!-- Node5 -->
<g id="node5" class="node">
<title>Node5</title>
<g id="a_node5"><a xlink:href="classmfem_1_1GnuTLS__global__state.html" target="_top" xlink:title=" ">
<polygon fill="white" stroke="#666666" points="383.1,-194 227.03,-194 227.03,-158 383.1,-158 383.1,-194"/>
<text text-anchor="start" x="235.03" y="-178.8" font-family="Helvetica,sans-Serif" font-size="14.00">mfem::GnuTLS_global</text>
<text text-anchor="middle" x="305.07" y="-164.8" font-family="Helvetica,sans-Serif" font-size="14.00">_state</text>
</a>
</g>
</g>
<!-- Node5&#45;&gt;Node1 -->
<g id="edge4" class="edge">
<title>Node5&#45;&gt;Node1</title>
<path fill="none" stroke="#9a32cd" stroke-dasharray="5,2" d="M292.97,-147.6C287.78,-135.54 281.79,-121.15 276.83,-108 265.57,-78.18 266.28,-69.44 254.07,-40 251.61,-34.08 248.44,-27.66 245.74,-22.47"/>
<polygon fill="#9a32cd" stroke="#9a32cd" points="290.08,-148.73 297.27,-156.51 296.5,-145.95 290.08,-148.73"/>
<text text-anchor="middle" x="294.19" y="-85.8" font-family="Helvetica,sans-Serif" font-size="14.00"> state</text>
</g>
<!-- Node7 -->
<g id="node7" class="node">
<title>Node7</title>
<g id="a_node7"><a xlink:href="classmfem_1_1GnuTLS__session__params.html" target="_top" xlink:title=" ">
<polygon fill="white" stroke="#666666" points="486.15,-108 319.98,-108 319.98,-72 486.15,-72 486.15,-108"/>
<text text-anchor="start" x="327.98" y="-92.8" font-family="Helvetica,sans-Serif" font-size="14.00">mfem::GnuTLS_session</text>
<text text-anchor="middle" x="403.07" y="-78.8" font-family="Helvetica,sans-Serif" font-size="14.00">_params</text>
</a>
</g>
</g>
<!-- Node5&#45;&gt;Node7 -->
<g id="edge7" class="edge">
<title>Node5&#45;&gt;Node7</title>
<path fill="none" stroke="#9a32cd" stroke-dasharray="5,2" d="M333.72,-150.45C349.46,-136.95 368.6,-120.54 382.79,-108.38"/>
<polygon fill="#9a32cd" stroke="#9a32cd" points="331.69,-148.43 326.37,-157.6 336.24,-153.74 331.69,-148.43"/>
<text text-anchor="middle" x="377.19" y="-128.8" font-family="Helvetica,sans-Serif" font-size="14.00"> state</text>
</g>
<!-- Node6 -->
<g id="node6" class="node">
<title>Node6</title>
<g id="a_node6"><a xlink:href="classmfem_1_1GnuTLS__status.html" target="_top" xlink:title=" ">
<polygon fill="white" stroke="#666666" points="440.1,-266 284.04,-266 284.04,-244 440.1,-244 440.1,-266"/>
<text text-anchor="middle" x="362.07" y="-250.8" font-family="Helvetica,sans-Serif" font-size="14.00">mfem::GnuTLS_status</text>
</a>
</g>
</g>
<!-- Node6&#45;&gt;Node5 -->
<g id="edge5" class="edge">
<title>Node6&#45;&gt;Node5</title>
<path fill="none" stroke="#9a32cd" stroke-dasharray="5,2" d="M347.96,-234.94C338.74,-222.49 326.8,-206.35 317.86,-194.28"/>
<polygon fill="#9a32cd" stroke="#9a32cd" points="345.62,-236.66 354.38,-242.62 351.24,-232.5 345.62,-236.66"/>
<text text-anchor="middle" x="361.69" y="-214.8" font-family="Helvetica,sans-Serif" font-size="14.00"> status</text>
</g>
<!-- Node6&#45;&gt;Node7 -->
<g id="edge8" class="edge">
<title>Node6&#45;&gt;Node7</title>
<path fill="none" stroke="#9a32cd" stroke-dasharray="5,2" d="M380.29,-235.35C382.5,-232.39 384.52,-229.23 386.07,-226 404.75,-187.02 405.41,-134.78 404.27,-108.16"/>
<polygon fill="#9a32cd" stroke="#9a32cd" points="377.16,-232.63 373.36,-242.53 382.5,-237.16 377.16,-232.63"/>
<text text-anchor="middle" x="422.69" y="-171.8" font-family="Helvetica,sans-Serif" font-size="14.00"> status</text>
</g>
<!-- Node7&#45;&gt;Node1 -->
<g id="edge6" class="edge">
<title>Node7&#45;&gt;Node1</title>
<path fill="none" stroke="#9a32cd" stroke-dasharray="5,2" d="M356.32,-66.92C325.26,-52.25 285.92,-33.66 261.9,-22.31"/>
<polygon fill="#9a32cd" stroke="#9a32cd" points="354.54,-70.42 365.08,-71.53 357.53,-64.09 354.54,-70.42"/>
<text text-anchor="middle" x="352.35" y="-42.8" font-family="Helvetica,sans-Serif" font-size="14.00"> params</text>
</g>
</g>
</svg>
