<?xml version="1.0" encoding="UTF-8" standalone="no"?>
<!DOCTYPE svg PUBLIC "-//W3C//DTD SVG 1.1//EN"
 "http://www.w3.org/Graphics/SVG/1.1/DTD/svg11.dtd">
<!-- Generated by graphviz version 12.0.0 (20240704.0754)
 -->
<!-- Title: mfem::AdamsBashforthSolver Pages: 1 -->
<svg width="695pt" height="149pt"
 viewBox="0.00 0.00 694.50 149.00" xmlns="http://www.w3.org/2000/svg" xmlns:xlink="http://www.w3.org/1999/xlink">
<g id="graph0" class="graph" transform="scale(1 1) rotate(0) translate(4 145)">
<title>mfem::AdamsBashforthSolver</title>
<!-- Node1 -->
<g id="Node000001" class="node">
<title>Node1</title>
<g id="a_Node000001"><a xlink:title=" ">
<polygon fill="#999999" stroke="#666666" points="442,-82 244.5,-82 244.5,-59 442,-59 442,-82"/>
<text text-anchor="middle" x="343.25" y="-64.7" font-family="Helvetica,sans-Serif" font-size="14.00">mfem::AdamsBashforthSolver</text>
</a>
</g>
</g>
<!-- Node3 -->
<g id="Node000003" class="node">
<title>Node3</title>
<g id="a_Node000003"><a xlink:href="classmfem_1_1AB1Solver.html" target="_top" xlink:title=" ">
<polygon fill="white" stroke="#666666" points="122.5,-23 0,-23 0,0 122.5,0 122.5,-23"/>
<text text-anchor="middle" x="61.25" y="-5.7" font-family="Helvetica,sans-Serif" font-size="14.00">mfem::AB1Solver</text>
</a>
</g>
</g>
<!-- Node1&#45;&gt;Node3 -->
<g id="edge2_Node000001_Node000003" class="edge">
<title>Node1&#45;&gt;Node3</title>
<g id="a_edge2_Node000001_Node000003"><a xlink:title=" ">
<path fill="none" stroke="#63b8ff" d="M277.7,-56.25C228.43,-46.29 161.73,-32.81 115.46,-23.46"/>
<polygon fill="#63b8ff" stroke="#63b8ff" points="276.9,-59.66 287.39,-58.21 278.29,-52.8 276.9,-59.66"/>
</a>
</g>
</g>
<!-- Node4 -->
<g id="Node000004" class="node">
<title>Node4</title>
<g id="a_Node000004"><a xlink:href="classmfem_1_1AB2Solver.html" target="_top" xlink:title=" ">
<polygon fill="white" stroke="#666666" points="263.5,-23 141,-23 141,0 263.5,0 263.5,-23"/>
<text text-anchor="middle" x="202.25" y="-5.7" font-family="Helvetica,sans-Serif" font-size="14.00">mfem::AB2Solver</text>
</a>
</g>
</g>
<!-- Node1&#45;&gt;Node4 -->
<g id="edge3_Node000001_Node000004" class="edge">
<title>Node1&#45;&gt;Node4</title>
<g id="a_edge3_Node000001_Node000004"><a xlink:title=" ">
<path fill="none" stroke="#63b8ff" d="M305.54,-54.26C281.53,-44.55 250.98,-32.2 229.35,-23.46"/>
<polygon fill="#63b8ff" stroke="#63b8ff" points="304.08,-57.44 314.66,-57.94 306.7,-50.95 304.08,-57.44"/>
</a>
</g>
</g>
<!-- Node5 -->
<g id="Node000005" class="node">
<title>Node5</title>
<g id="a_Node000005"><a xlink:href="classmfem_1_1AB3Solver.html" target="_top" xlink:title=" ">
<polygon fill="white" stroke="#666666" points="404.5,-23 282,-23 282,0 404.5,0 404.5,-23"/>
<text text-anchor="middle" x="343.25" y="-5.7" font-family="Helvetica,sans-Serif" font-size="14.00">mfem::AB3Solver</text>
</a>
</g>
</g>
<!-- Node1&#45;&gt;Node5 -->
<g id="edge4_Node000001_Node000005" class="edge">
<title>Node1&#45;&gt;Node5</title>
<g id="a_edge4_Node000001_Node000005"><a xlink:title=" ">
<path fill="none" stroke="#63b8ff" d="M343.25,-47.08C343.25,-38.96 343.25,-30.15 343.25,-23.46"/>
<polygon fill="#63b8ff" stroke="#63b8ff" points="339.75,-47 343.25,-57 346.75,-47 339.75,-47"/>
</a>
</g>
</g>
<!-- Node6 -->
<g id="Node000006" class="node">
<title>Node6</title>
<g id="a_Node000006"><a xlink:href="classmfem_1_1AB4Solver.html" target="_top" xlink:title=" ">
<polygon fill="white" stroke="#666666" points="545.5,-23 423,-23 423,0 545.5,0 545.5,-23"/>
<text text-anchor="middle" x="484.25" y="-5.7" font-family="Helvetica,sans-Serif" font-size="14.00">mfem::AB4Solver</text>
</a>
</g>
</g>
<!-- Node1&#45;&gt;Node6 -->
<g id="edge5_Node000001_Node000006" class="edge">
<title>Node1&#45;&gt;Node6</title>
<g id="a_edge5_Node000001_Node000006"><a xlink:title=" ">
<path fill="none" stroke="#63b8ff" d="M380.96,-54.26C404.97,-44.55 435.52,-32.2 457.15,-23.46"/>
<polygon fill="#63b8ff" stroke="#63b8ff" points="379.8,-50.95 371.84,-57.94 382.42,-57.44 379.8,-50.95"/>
</a>
</g>
</g>
<!-- Node7 -->
<g id="Node000007" class="node">
<title>Node7</title>
<g id="a_Node000007"><a xlink:href="classmfem_1_1AB5Solver.html" target="_top" xlink:title=" ">
<polygon fill="white" stroke="#666666" points="686.5,-23 564,-23 564,0 686.5,0 686.5,-23"/>
<text text-anchor="middle" x="625.25" y="-5.7" font-family="Helvetica,sans-Serif" font-size="14.00">mfem::AB5Solver</text>
</a>
</g>
</g>
<!-- Node1&#45;&gt;Node7 -->
<g id="edge6_Node000001_Node000007" class="edge">
<title>Node1&#45;&gt;Node7</title>
<g id="a_edge6_Node000001_Node000007"><a xlink:title=" ">
<path fill="none" stroke="#63b8ff" d="M408.8,-56.25C458.07,-46.29 524.77,-32.81 571.04,-23.46"/>
<polygon fill="#63b8ff" stroke="#63b8ff" points="408.21,-52.8 399.11,-58.21 409.6,-59.66 408.21,-52.8"/>
</a>
</g>
</g>
<!-- Node2 -->
<g id="Node000002" class="node">
<title>Node2</title>
<g id="a_Node000002"><a xlink:href="classmfem_1_1ODESolver.html" target="_top" xlink:title="Abstract class for solving systems of ODEs: dx/dt = f(x,t)">
<polygon fill="white" stroke="#666666" points="406.75,-141 279.75,-141 279.75,-118 406.75,-118 406.75,-141"/>
<text text-anchor="middle" x="343.25" y="-123.7" font-family="Helvetica,sans-Serif" font-size="14.00">mfem::ODESolver</text>
</a>
</g>
</g>
<!-- Node2&#45;&gt;Node1 -->
<g id="edge1_Node000001_Node000002" class="edge">
<title>Node2&#45;&gt;Node1</title>
<g id="a_edge1_Node000001_Node000002"><a xlink:title=" ">
<path fill="none" stroke="#63b8ff" d="M343.25,-106.08C343.25,-97.96 343.25,-89.15 343.25,-82.46"/>
<polygon fill="#63b8ff" stroke="#63b8ff" points="339.75,-106 343.25,-116 346.75,-106 339.75,-106"/>
</a>
</g>
</g>
</g>
</svg>
