<?xml version="1.0" encoding="UTF-8" standalone="no"?>
<!DOCTYPE svg PUBLIC "-//W3C//DTD SVG 1.1//EN"
 "http://www.w3.org/Graphics/SVG/1.1/DTD/svg11.dtd">
<!-- Generated by graphviz version 8.0.5 (0)
 -->
<!-- Title: mfem::PetscSolver Pages: 1 -->
<svg width="384pt" height="260pt"
 viewBox="0.00 0.00 384.37 260.00" xmlns="http://www.w3.org/2000/svg" xmlns:xlink="http://www.w3.org/1999/xlink">
<g id="graph0" class="graph" transform="scale(1 1) rotate(0) translate(4 256)">
<title>mfem::PetscSolver</title>
<!-- Node1 -->
<g id="node1" class="node">
<title>Node1</title>
<g id="a_node1"><a xlink:title="Abstract class for PETSc&#39;s solvers.">
<polygon fill="#999999" stroke="#666666" points="273.98,-22 140.5,-22 140.5,0 273.98,0 273.98,-22"/>
<text text-anchor="middle" x="207.24" y="-6.8" font-family="Helvetica,sans-Serif" font-size="14.00">mfem::PetscSolver</text>
</a>
</g>
</g>
<!-- Node2 -->
<g id="node2" class="node">
<title>Node2</title>
<g id="a_node2"><a xlink:href="classmfem_1_1PetscParVector.html" target="_top" xlink:title=" ">
<polygon fill="white" stroke="#666666" points="195.88,-108 40.6,-108 40.6,-86 195.88,-86 195.88,-108"/>
<text text-anchor="middle" x="118.24" y="-92.8" font-family="Helvetica,sans-Serif" font-size="14.00">mfem::PetscParVector</text>
</a>
</g>
</g>
<!-- Node2&#45;&gt;Node1 -->
<g id="edge1" class="edge">
<title>Node2&#45;&gt;Node1</title>
<path fill="none" stroke="#9a32cd" stroke-dasharray="5,2" d="M136.72,-78.56C154.69,-61.6 181.37,-36.41 196.24,-22.38"/>
<polygon fill="#9a32cd" stroke="#9a32cd" points="135.02,-75.29 130.15,-84.7 139.83,-80.38 135.02,-75.29"/>
<text text-anchor="middle" x="182.85" y="-56.8" font-family="Helvetica,sans-Serif" font-size="14.00"> B</text>
<text text-anchor="middle" x="182.85" y="-42.8" font-family="Helvetica,sans-Serif" font-size="14.00">X</text>
</g>
<!-- Node3 -->
<g id="node3" class="node">
<title>Node3</title>
<g id="a_node3"><a xlink:href="classmfem_1_1Vector.html" target="_top" xlink:title="Vector data type.">
<polygon fill="white" stroke="#666666" points="98.48,-180 0,-180 0,-158 98.48,-158 98.48,-180"/>
<text text-anchor="middle" x="49.24" y="-164.8" font-family="Helvetica,sans-Serif" font-size="14.00">mfem::Vector</text>
</a>
</g>
</g>
<!-- Node3&#45;&gt;Node2 -->
<g id="edge2" class="edge">
<title>Node3&#45;&gt;Node2</title>
<path fill="none" stroke="#63b8ff" d="M66.89,-150.1C79.92,-136.88 97.19,-119.35 108.01,-108.37"/>
<polygon fill="#63b8ff" stroke="#63b8ff" points="64.95,-147.09 60.42,-156.67 69.93,-152.01 64.95,-147.09"/>
</g>
<!-- Node4 -->
<g id="node4" class="node">
<title>Node4</title>
<g id="a_node4"><a xlink:href="classmfem_1_1Memory.html" target="_top" xlink:title=" ">
<polygon fill="white" stroke="#666666" points="202.48,-252 33.99,-252 33.99,-230 202.48,-230 202.48,-252"/>
<text text-anchor="middle" x="118.24" y="-236.8" font-family="Helvetica,sans-Serif" font-size="14.00">mfem::Memory&lt; real_t &gt;</text>
</a>
</g>
</g>
<!-- Node4&#45;&gt;Node3 -->
<g id="edge3" class="edge">
<title>Node4&#45;&gt;Node3</title>
<path fill="none" stroke="#9a32cd" stroke-dasharray="5,2" d="M100.59,-222.1C87.56,-208.88 70.28,-191.35 59.46,-180.37"/>
<polygon fill="#9a32cd" stroke="#9a32cd" points="97.54,-224.01 107.06,-228.67 102.53,-219.09 97.54,-224.01"/>
<text text-anchor="middle" x="105.81" y="-200.8" font-family="Helvetica,sans-Serif" font-size="14.00"> data</text>
</g>
<!-- Node5 -->
<g id="node5" class="node">
<title>Node5</title>
<g id="a_node5"><a xlink:href="classmfem_1_1PetscMemory.html" target="_top" xlink:title="Wrapper for syncing PETSc&#39;s vector memory.">
<polygon fill="white" stroke="#666666" points="260.41,-180 116.06,-180 116.06,-158 260.41,-158 260.41,-180"/>
<text text-anchor="middle" x="188.24" y="-164.8" font-family="Helvetica,sans-Serif" font-size="14.00">mfem::PetscMemory</text>
</a>
</g>
</g>
<!-- Node4&#45;&gt;Node5 -->
<g id="edge5" class="edge">
<title>Node4&#45;&gt;Node5</title>
<path fill="none" stroke="#63b8ff" d="M136.14,-222.1C149.36,-208.88 166.89,-191.35 177.87,-180.37"/>
<polygon fill="#63b8ff" stroke="#63b8ff" points="134.16,-219.13 129.57,-228.67 139.11,-224.08 134.16,-219.13"/>
</g>
<!-- Node5&#45;&gt;Node2 -->
<g id="edge4" class="edge">
<title>Node5&#45;&gt;Node2</title>
<path fill="none" stroke="#9a32cd" stroke-dasharray="5,2" d="M170.33,-150.1C157.12,-136.88 139.59,-119.35 128.61,-108.37"/>
<polygon fill="#9a32cd" stroke="#9a32cd" points="167.36,-152.08 176.91,-156.67 172.31,-147.13 167.36,-152.08"/>
<text text-anchor="middle" x="179.7" y="-128.8" font-family="Helvetica,sans-Serif" font-size="14.00"> pdata</text>
</g>
<!-- Node6 -->
<g id="node6" class="node">
<title>Node6</title>
<g id="a_node6"><a xlink:href="classmfem_1_1PetscBCHandler.html" target="_top" xlink:title="Helper class for handling essential boundary conditions.">
<polygon fill="white" stroke="#666666" points="376.37,-108 214.1,-108 214.1,-86 376.37,-86 376.37,-108"/>
<text text-anchor="middle" x="295.24" y="-92.8" font-family="Helvetica,sans-Serif" font-size="14.00">mfem::PetscBCHandler</text>
</a>
</g>
</g>
<!-- Node6&#45;&gt;Node1 -->
<g id="edge6" class="edge">
<title>Node6&#45;&gt;Node1</title>
<path fill="none" stroke="#9a32cd" stroke-dasharray="5,2" d="M276.96,-78.56C259.2,-61.6 232.81,-36.41 218.12,-22.38"/>
<polygon fill="#9a32cd" stroke="#9a32cd" points="273.8,-80.33 283.45,-84.7 278.63,-75.26 273.8,-80.33"/>
<text text-anchor="middle" x="296.93" y="-49.8" font-family="Helvetica,sans-Serif" font-size="14.00"> bchandler</text>
</g>
</g>
</svg>
