<?xml version="1.0" encoding="UTF-8" standalone="no"?>
<!DOCTYPE svg PUBLIC "-//W3C//DTD SVG 1.1//EN"
 "http://www.w3.org/Graphics/SVG/1.1/DTD/svg11.dtd">
<!-- Generated by graphviz version 12.0.0 (20240704.0754)
 -->
<!-- Title: mfem::Ginkgo::FCGSolver Pages: 1 -->
<!--zoomable 511 -->

<svg id="main" version="1.1" xmlns="http://www.w3.org/2000/svg" xmlns:xlink="http://www.w3.org/1999/xlink" xml:space="preserve" onload="init(evt)">
<style type="text/css"><![CDATA[
.node, .edge {opacity: 0.7;}
.node.selected, .edge.selected {opacity: 1;}
.edge:hover path { stroke: red; }
.edge:hover polygon { stroke: red; fill: red; }
]]></style>

<defs>
  <circle id="rim" cx="0" cy="0" r="7"/>
  <circle id="rim2" cx="0" cy="0" r="3.5"/>
  <g id="zoomPlus">
    <use xlink:href="#rim" fill="#404040"><set attributeName="fill" to="#808080" begin="zoomplus.mouseover" end="zoomplus.mouseout"/></use>
    <path d="M-4,0h8M0,-4v8" fill="none" stroke="white" stroke-width="1.5" pointer-events="none"/>
  </g>
  <g id="zoomMin">
    <use xlink:href="#rim" fill="#404040"><set attributeName="fill" to="#808080" begin="zoomminus.mouseover" end="zoomminus.mouseout"/></use>
    <path d="M-4,0h8" fill="none" stroke="white" stroke-width="1.5" pointer-events="none"/>
  </g>
  <g id="arrowUp" transform="translate(30 24)">
    <use xlink:href="#rim"/>
    <path pointer-events="none" fill="none" stroke="white" stroke-width="1.5" d="M0,-3.0v7 M-2.5,-0.5L0,-3.0L2.5,-0.5"/>
  </g>
  <g id="arrowRight" transform="rotate(90) translate(36 -43)">
    <use xlink:href="#rim"/>
    <path pointer-events="none" fill="none" stroke="white" stroke-width="1.5" d="M0,-3.0v7 M-2.5,-0.5L0,-3.0L2.5,-0.5"/>
  </g>
  <g id="arrowDown" transform="rotate(180) translate(-30 -48)">
    <use xlink:href="#rim"/>
    <path pointer-events="none" fill="none" stroke="white" stroke-width="1.5" d="M0,-3.0v7 M-2.5,-0.5L0,-3.0L2.5,-0.5"/>
  </g>
  <g id="arrowLeft" transform="rotate(270) translate(-36 17)">
    <use xlink:href="#rim"/>
    <path pointer-events="none" fill="none" stroke="white" stroke-width="1.5" d="M0,-3.0v7 M-2.5,-0.5L0,-3.0L2.5,-0.5"/>
  </g>
  <g id="resetDef">
    <use xlink:href="#rim2" fill="#404040"><set attributeName="fill" to="#808080" begin="reset.mouseover" end="reset.mouseout"/></use>
  </g>
</defs>
<script type="application/ecmascript">
var viewWidth = 1165;
var viewHeight = 511;
var sectionId = 'dynsection-1';
</script>
<script type="application/ecmascript" xlink:href="svg.min.js"/>
<svg id="graph" class="graph">
<g id="viewport">
<title>mfem::Ginkgo::FCGSolver</title>
<!-- Node1 -->
<g id="Node000001" class="node">
<title>Node1</title>
<g id="a_Node000001"><a xlink:title=" ">
<polygon fill="#999999" stroke="#666666" points="1157,-262.5 979.75,-262.5 979.75,-239.5 1157,-239.5 1157,-262.5"/>
<text text-anchor="middle" x="1068.38" y="-245.2" font-family="Helvetica,sans-Serif" font-size="14.00">mfem::Ginkgo::FCGSolver</text>
</a>
</g>
</g>
<!-- Node2 -->
<g id="Node000002" class="node">
<title>Node2</title>
<g id="a_Node000002"><a xlink:href="classmfem_1_1Ginkgo_1_1EnableGinkgoSolver.html" target="_top" xlink:title=" ">
<polygon fill="white" stroke="#666666" points="942.75,-277.5 747.5,-277.5 747.5,-224.5 942.75,-224.5 942.75,-277.5"/>
<text text-anchor="start" x="755.5" y="-260.2" font-family="Helvetica,sans-Serif" font-size="14.00">mfem::Ginkgo::EnableGinkgo</text>
<text text-anchor="start" x="755.5" y="-245.2" font-family="Helvetica,sans-Serif" font-size="14.00">Solver&lt; gko::solver::Fcg</text>
<text text-anchor="middle" x="845.12" y="-230.2" font-family="Helvetica,sans-Serif" font-size="14.00">&lt; real_t &gt; &gt;</text>
</a>
</g>
</g>
<!-- Node2&#45;&gt;Node1 -->
<g id="edge1_Node000001_Node000002" class="edge">
<title>Node2&#45;&gt;Node1</title>
<g id="a_edge1_Node000001_Node000002"><a xlink:title=" ">
<path fill="none" stroke="#63b8ff" d="M954.54,-251C962.89,-251 971.27,-251 979.46,-251"/>
<polygon fill="#63b8ff" stroke="#63b8ff" points="954.68,-247.5 944.68,-251 954.68,-254.5 954.68,-247.5"/>
</a>
</g>
</g>
<!-- Node3 -->
<g id="Node000003" class="node">
<title>Node3</title>
<g id="a_Node000003"><a xlink:href="classmfem_1_1Ginkgo_1_1GinkgoIterativeSolver.html" target="_top" xlink:title=" ">
<polygon fill="white" stroke="#666666" points="710.5,-270 509.25,-270 509.25,-232 710.5,-232 710.5,-270"/>
<text text-anchor="start" x="517.25" y="-252.7" font-family="Helvetica,sans-Serif" font-size="14.00">mfem::Ginkgo::GinkgoIterative</text>
<text text-anchor="middle" x="609.88" y="-237.7" font-family="Helvetica,sans-Serif" font-size="14.00">Solver</text>
</a>
</g>
</g>
<!-- Node3&#45;&gt;Node2 -->
<g id="edge2_Node000002_Node000003" class="edge">
<title>Node3&#45;&gt;Node2</title>
<g id="a_edge2_Node000002_Node000003"><a xlink:title=" ">
<path fill="none" stroke="#63b8ff" d="M722.22,-251C730.62,-251 739.06,-251 747.36,-251"/>
<polygon fill="#63b8ff" stroke="#63b8ff" points="722.32,-247.5 712.32,-251 722.32,-254.5 722.32,-247.5"/>
</a>
</g>
</g>
<!-- Node4 -->
<g id="Node000004" class="node">
<title>Node4</title>
<g id="a_Node000004"><a xlink:href="classmfem_1_1Solver.html" target="_top" xlink:title="Base class for solvers.">
<polygon fill="white" stroke="#666666" points="297,-502.5 200,-502.5 200,-479.5 297,-479.5 297,-502.5"/>
<text text-anchor="middle" x="248.5" y="-485.2" font-family="Helvetica,sans-Serif" font-size="14.00">mfem::Solver</text>
</a>
</g>
</g>
<!-- Node4&#45;&gt;Node3 -->
<g id="edge3_Node000003_Node000004" class="edge">
<title>Node4&#45;&gt;Node3</title>
<g id="a_edge3_Node000003_Node000004"><a xlink:title=" ">
<path fill="none" stroke="#63b8ff" d="M308.94,-495.62C361.32,-496.71 437.45,-490.71 491.25,-454 558.04,-408.43 591.97,-311.48 603.85,-270.23"/>
<polygon fill="#63b8ff" stroke="#63b8ff" points="309.1,-492.13 299,-495.31 308.89,-499.12 309.1,-492.13"/>
</a>
</g>
</g>
<!-- Node5 -->
<g id="Node000005" class="node">
<title>Node5</title>
<g id="a_Node000005"><a xlink:href="classmfem_1_1Operator.html" target="_top" xlink:title="Abstract operator.">
<polygon fill="white" stroke="#666666" points="112.75,-502.5 0,-502.5 0,-479.5 112.75,-479.5 112.75,-502.5"/>
<text text-anchor="middle" x="56.38" y="-485.2" font-family="Helvetica,sans-Serif" font-size="14.00">mfem::Operator</text>
</a>
</g>
</g>
<!-- Node5&#45;&gt;Node4 -->
<g id="edge4_Node000004_Node000005" class="edge">
<title>Node5&#45;&gt;Node4</title>
<g id="a_edge4_Node000004_Node000005"><a xlink:title=" ">
<path fill="none" stroke="#63b8ff" d="M124.35,-491C149.24,-491 176.96,-491 199.79,-491"/>
<polygon fill="#63b8ff" stroke="#63b8ff" points="124.65,-487.5 114.65,-491 124.65,-494.5 124.65,-487.5"/>
</a>
</g>
</g>
<!-- Node6 -->
<g id="Node000006" class="node">
<title>Node6</title>
<g id="a_Node000006"><a xlink:title=" ">
<polygon fill="white" stroke="#666666" points="318.38,-461 178.62,-461 178.62,-423 318.38,-423 318.38,-461"/>
<text text-anchor="start" x="186.62" y="-443.7" font-family="Helvetica,sans-Serif" font-size="14.00">std::shared_ptr&lt; gko</text>
<text text-anchor="middle" x="248.5" y="-428.7" font-family="Helvetica,sans-Serif" font-size="14.00">::LinOpFactory &gt;</text>
</a>
</g>
</g>
<!-- Node6&#45;&gt;Node3 -->
<g id="edge5_Node000003_Node000006" class="edge">
<title>Node6&#45;&gt;Node3</title>
<g id="a_edge5_Node000003_Node000006"><a xlink:title=" ">
<path fill="none" stroke="#9a32cd" stroke-dasharray="5,2" d="M330.11,-439.58C379.61,-434.94 442.62,-423.1 491.25,-394 542.56,-363.3 581.4,-301.72 598.81,-270.34"/>
<polygon fill="#9a32cd" stroke="#9a32cd" points="329.98,-436.08 320.31,-440.42 330.57,-443.06 329.98,-436.08"/>
</a>
</g>
<text text-anchor="middle" x="428.25" y="-436.7" font-family="Helvetica,sans-Serif" font-size="14.00" fill="grey"> solver_gen</text>
</g>
<!-- Node7 -->
<g id="Node000007" class="node">
<title>Node7</title>
<g id="a_Node000007"><a xlink:title=" ">
<polygon fill="white" stroke="#666666" points="318.38,-405 178.62,-405 178.62,-367 318.38,-367 318.38,-405"/>
<text text-anchor="start" x="186.62" y="-387.7" font-family="Helvetica,sans-Serif" font-size="14.00">std::shared_ptr&lt; gko</text>
<text text-anchor="middle" x="248.5" y="-372.7" font-family="Helvetica,sans-Serif" font-size="14.00">::LinOp &gt;</text>
</a>
</g>
</g>
<!-- Node7&#45;&gt;Node3 -->
<g id="edge6_Node000003_Node000007" class="edge">
<title>Node7&#45;&gt;Node3</title>
<g id="a_edge6_Node000003_Node000007"><a xlink:title=" ">
<path fill="none" stroke="#9a32cd" stroke-dasharray="5,2" d="M330.09,-380.49C378.49,-374.9 440.33,-363.65 491.25,-341 530.01,-323.76 567.67,-291.35 589.55,-270.49"/>
<polygon fill="#9a32cd" stroke="#9a32cd" points="329.8,-377 320.23,-381.56 330.55,-383.96 329.8,-377"/>
</a>
</g>
<text text-anchor="middle" x="428.25" y="-376.7" font-family="Helvetica,sans-Serif" font-size="14.00" fill="grey"> solver</text>
</g>
<!-- Node8 -->
<g id="Node000008" class="node">
<title>Node8</title>
<g id="a_Node000008"><a xlink:title=" ">
<polygon fill="white" stroke="#666666" points="319.88,-348.5 177.12,-348.5 177.12,-295.5 319.88,-295.5 319.88,-348.5"/>
<text text-anchor="start" x="185.12" y="-331.2" font-family="Helvetica,sans-Serif" font-size="14.00">std::shared_ptr&lt; gko</text>
<text text-anchor="start" x="185.12" y="-316.2" font-family="Helvetica,sans-Serif" font-size="14.00">::stop::ResidualNorm</text>
<text text-anchor="middle" x="248.5" y="-301.2" font-family="Helvetica,sans-Serif" font-size="14.00">&lt;&gt;::Factory &gt;</text>
</a>
</g>
</g>
<!-- Node8&#45;&gt;Node3 -->
<g id="edge7_Node000003_Node000008" class="edge">
<title>Node8&#45;&gt;Node3</title>
<g id="a_edge7_Node000003_Node000008"><a xlink:title=" ">
<path fill="none" stroke="#9a32cd" stroke-dasharray="5,2" d="M331.65,-312.12C378.65,-305.79 438.58,-296.59 491.25,-285 509.62,-280.96 529.35,-275.65 547.3,-270.43"/>
<polygon fill="#9a32cd" stroke="#9a32cd" points="331.25,-308.64 321.79,-313.42 332.17,-315.58 331.25,-308.64"/>
</a>
</g>
<text text-anchor="middle" x="428.25" y="-323.7" font-family="Helvetica,sans-Serif" font-size="14.00" fill="grey"> abs_criterion</text>
<text text-anchor="middle" x="428.25" y="-308.7" font-family="Helvetica,sans-Serif" font-size="14.00" fill="grey">rel_criterion</text>
</g>
<!-- Node9 -->
<g id="Node000009" class="node">
<title>Node9</title>
<g id="a_Node000009"><a xlink:title=" ">
<polygon fill="white" stroke="#666666" points="341.25,-277.5 155.75,-277.5 155.75,-224.5 341.25,-224.5 341.25,-277.5"/>
<text text-anchor="start" x="163.75" y="-260.2" font-family="Helvetica,sans-Serif" font-size="14.00">std::shared_ptr&lt; gko</text>
<text text-anchor="start" x="163.75" y="-245.2" font-family="Helvetica,sans-Serif" font-size="14.00">::stop::ImplicitResidualNorm</text>
<text text-anchor="middle" x="248.5" y="-230.2" font-family="Helvetica,sans-Serif" font-size="14.00">&lt;&gt;::Factory &gt;</text>
</a>
</g>
</g>
<!-- Node9&#45;&gt;Node3 -->
<g id="edge8_Node000003_Node000009" class="edge">
<title>Node9&#45;&gt;Node3</title>
<g id="a_edge8_Node000003_Node000009"><a xlink:title=" ">
<path fill="none" stroke="#9a32cd" stroke-dasharray="5,2" d="M352.86,-251C401.89,-251 460.23,-251 508.83,-251"/>
<polygon fill="#9a32cd" stroke="#9a32cd" points="353.09,-247.5 343.09,-251 353.09,-254.5 353.09,-247.5"/>
</a>
</g>
<text text-anchor="middle" x="428.25" y="-267.7" font-family="Helvetica,sans-Serif" font-size="14.00" fill="grey"> imp_abs_criterion</text>
<text text-anchor="middle" x="428.25" y="-252.7" font-family="Helvetica,sans-Serif" font-size="14.00" fill="grey">imp_rel_criterion</text>
</g>
<!-- Node10 -->
<g id="Node000010" class="node">
<title>Node10</title>
<g id="a_Node000010"><a xlink:title=" ">
<polygon fill="white" stroke="#666666" points="327.38,-206 169.62,-206 169.62,-168 327.38,-168 327.38,-206"/>
<text text-anchor="start" x="177.62" y="-188.7" font-family="Helvetica,sans-Serif" font-size="14.00">std::shared_ptr&lt; gko</text>
<text text-anchor="middle" x="248.5" y="-173.7" font-family="Helvetica,sans-Serif" font-size="14.00">::log::Convergence&lt;&gt; &gt;</text>
</a>
</g>
</g>
<!-- Node10&#45;&gt;Node3 -->
<g id="edge9_Node000003_Node000010" class="edge">
<title>Node10&#45;&gt;Node3</title>
<g id="a_edge9_Node000003_Node000010"><a xlink:title=" ">
<path fill="none" stroke="#9a32cd" stroke-dasharray="5,2" d="M338.62,-202.87C390.26,-212.07 455.42,-223.67 508.82,-233.18"/>
<polygon fill="#9a32cd" stroke="#9a32cd" points="339.43,-199.46 328.97,-201.15 338.2,-206.35 339.43,-199.46"/>
</a>
</g>
<text text-anchor="middle" x="428.25" y="-229.7" font-family="Helvetica,sans-Serif" font-size="14.00" fill="grey"> convergence_logger</text>
</g>
<!-- Node11 -->
<g id="Node000011" class="node">
<title>Node11</title>
<g id="a_Node000011"><a xlink:title=" ">
<polygon fill="white" stroke="#666666" points="347.25,-150 149.75,-150 149.75,-112 347.25,-112 347.25,-150"/>
<text text-anchor="start" x="157.75" y="-132.7" font-family="Helvetica,sans-Serif" font-size="14.00">std::shared_ptr&lt; mfem</text>
<text text-anchor="middle" x="248.5" y="-117.7" font-family="Helvetica,sans-Serif" font-size="14.00">::Ginkgo::ResidualLogger&lt;&gt; &gt;</text>
</a>
</g>
</g>
<!-- Node11&#45;&gt;Node3 -->
<g id="edge10_Node000003_Node000011" class="edge">
<title>Node11&#45;&gt;Node3</title>
<g id="a_edge10_Node000003_Node000011"><a xlink:title=" ">
<path fill="none" stroke="#9a32cd" stroke-dasharray="5,2" d="M358.83,-150.47C400.95,-159.6 449.04,-172.03 491.25,-188 522.02,-199.64 554.84,-217.75 577.98,-231.57"/>
<polygon fill="#9a32cd" stroke="#9a32cd" points="359.68,-147.07 349.17,-148.42 358.22,-153.92 359.68,-147.07"/>
</a>
</g>
<text text-anchor="middle" x="428.25" y="-189.7" font-family="Helvetica,sans-Serif" font-size="14.00" fill="grey"> residual_logger</text>
</g>
<!-- Node12 -->
<g id="Node000012" class="node">
<title>Node12</title>
<g id="a_Node000012"><a xlink:title=" ">
<polygon fill="white" stroke="#666666" points="340.12,-94 156.88,-94 156.88,-56 340.12,-56 340.12,-94"/>
<text text-anchor="start" x="164.88" y="-76.7" font-family="Helvetica,sans-Serif" font-size="14.00">std::shared_ptr&lt; gko</text>
<text text-anchor="middle" x="248.5" y="-61.7" font-family="Helvetica,sans-Serif" font-size="14.00">::stop::Combined::Factory &gt;</text>
</a>
</g>
</g>
<!-- Node12&#45;&gt;Node3 -->
<g id="edge11_Node000003_Node000012" class="edge">
<title>Node12&#45;&gt;Node3</title>
<g id="a_edge11_Node000003_Node000012"><a xlink:title=" ">
<path fill="none" stroke="#9a32cd" stroke-dasharray="5,2" d="M351.79,-86.75C396.69,-95.06 448.74,-109.15 491.25,-133 536.15,-158.19 575.48,-205.4 595.28,-231.83"/>
<polygon fill="#9a32cd" stroke="#9a32cd" points="352.49,-83.32 342.03,-85.03 351.27,-90.22 352.49,-83.32"/>
</a>
</g>
<text text-anchor="middle" x="428.25" y="-134.7" font-family="Helvetica,sans-Serif" font-size="14.00" fill="grey"> combined_factory</text>
</g>
<!-- Node13 -->
<g id="Node000013" class="node">
<title>Node13</title>
<g id="a_Node000013"><a xlink:title=" ">
<polygon fill="white" stroke="#666666" points="318.38,-38 178.62,-38 178.62,0 318.38,0 318.38,-38"/>
<text text-anchor="start" x="186.62" y="-20.7" font-family="Helvetica,sans-Serif" font-size="14.00">std::shared_ptr&lt; gko</text>
<text text-anchor="middle" x="248.5" y="-5.7" font-family="Helvetica,sans-Serif" font-size="14.00">::Executor &gt;</text>
</a>
</g>
</g>
<!-- Node13&#45;&gt;Node3 -->
<g id="edge12_Node000003_Node000013" class="edge">
<title>Node13&#45;&gt;Node3</title>
<g id="a_edge12_Node000003_Node000013"><a xlink:title=" ">
<path fill="none" stroke="#9a32cd" stroke-dasharray="5,2" d="M330.29,-21.05C380.43,-25.83 444.06,-38.58 491.25,-71 550.94,-112.01 587.71,-194.23 602.02,-231.66"/>
<polygon fill="#9a32cd" stroke="#9a32cd" points="330.61,-17.56 320.35,-20.2 330.01,-24.54 330.61,-17.56"/>
</a>
</g>
<text text-anchor="middle" x="428.25" y="-72.7" font-family="Helvetica,sans-Serif" font-size="14.00" fill="grey"> executor</text>
</g>
</g>
</svg>

<g id="navigator" transform="translate(0 0)" fill="#404254">
  <rect fill="#f2f5e9" fill-opacity="0.5" stroke="#606060" stroke-width=".5" x="0" y="0" width="60" height="60"/>
  <use id="zoomplus" xlink:href="#zoomPlus" x="17" y="9" onmousedown="handleZoom(evt,'in')"/>
  <use id="zoomminus" xlink:href="#zoomMin" x="42" y="9" onmousedown="handleZoom(evt,'out')"/>
  <use id="reset" xlink:href="#resetDef" x="30" y="36" onmousedown="handleReset()"/>
   <use id="arrowup" xlink:href="#arrowUp" x="0" y="0" onmousedown="handlePan(0,-1)"/>
  <use id="arrowright" xlink:href="#arrowRight" x="0" y="0" onmousedown="handlePan(1,0)"/>
  <use id="arrowdown" xlink:href="#arrowDown" x="0" y="0" onmousedown="handlePan(0,1)"/>
  <use id="arrowleft" xlink:href="#arrowLeft" x="0" y="0" onmousedown="handlePan(-1,0)"/>
</g>
<svg viewBox="0 0 15 15" width="100%" height="30px" preserveAspectRatio="xMaxYMin meet">
 <g id="arrow_out" transform="scale(0.3 0.3)">
  <a xlink:href="classmfem_1_1Ginkgo_1_1FCGSolver__coll__graph_org.svg" target="_base">
   <rect id="button" ry="5" rx="5" y="6" x="6" height="38" width="38"
        fill="#f2f5e9" fill-opacity="0.5" stroke="#606060" stroke-width="1.0"/>
   <path id="arrow"
     d="M 11.500037,31.436501 C 11.940474,20.09759 22.043105,11.32322 32.158766,21.979434 L 37.068811,17.246167 C 37.068811,17.246167 37.088388,32 37.088388,32 L 22.160133,31.978069 C 22.160133,31.978069 26.997745,27.140456 26.997745,27.140456 C 18.528582,18.264221 13.291696,25.230495 11.500037,31.436501 z"
     style="fill:#404040;"/>
  </a>
 </g>
</svg>

<style type='text/css'>
<![CDATA[
[data-mouse-over-selected='false'] { opacity: 0.7; }
[data-mouse-over-selected='true']  { opacity: 1.0; }
]]>
</style>
<script type="application/ecmascript"><![CDATA[
document.addEventListener('DOMContentLoaded', (event) => {
  highlightEdges();
  highlightAdjacentNodes();
});
]]></script>
</svg>
