<?xml version="1.0" encoding="UTF-8" standalone="no"?>
<!DOCTYPE svg PUBLIC "-//W3C//DTD SVG 1.1//EN"
 "http://www.w3.org/Graphics/SVG/1.1/DTD/svg11.dtd">
<!-- Generated by graphviz version 12.0.0 (20240704.0754)
 -->
<!-- Title: mfem::BoundaryNormalLFIntegrator Pages: 1 -->
<svg width="242pt" height="403pt"
 viewBox="0.00 0.00 242.25 403.00" xmlns="http://www.w3.org/2000/svg" xmlns:xlink="http://www.w3.org/1999/xlink">
<g id="graph0" class="graph" transform="scale(1 1) rotate(0) translate(4 399)">
<title>mfem::BoundaryNormalLFIntegrator</title>
<!-- Node1 -->
<g id="Node000001" class="node">
<title>Node1</title>
<g id="a_Node000001"><a xlink:title="Class for boundary integration .">
<polygon fill="#999999" stroke="#666666" points="234.25,-23 0,-23 0,0 234.25,0 234.25,-23"/>
<text text-anchor="middle" x="117.12" y="-5.7" font-family="Helvetica,sans-Serif" font-size="14.00">mfem::BoundaryNormalLFIntegrator</text>
</a>
</g>
</g>
<!-- Node2 -->
<g id="Node000002" class="node">
<title>Node2</title>
<g id="a_Node000002"><a xlink:href="classmfem_1_1LinearFormIntegrator.html" target="_top" xlink:title="Abstract base class LinearFormIntegrator.">
<polygon fill="white" stroke="#666666" points="210.25,-83 24,-83 24,-60 210.25,-60 210.25,-83"/>
<text text-anchor="middle" x="117.12" y="-65.7" font-family="Helvetica,sans-Serif" font-size="14.00">mfem::LinearFormIntegrator</text>
</a>
</g>
</g>
<!-- Node2&#45;&gt;Node1 -->
<g id="edge1_Node000001_Node000002" class="edge">
<title>Node2&#45;&gt;Node1</title>
<g id="a_edge1_Node000001_Node000002"><a xlink:title=" ">
<path fill="none" stroke="#63b8ff" d="M117.12,-48.09C117.12,-39.6 117.12,-30.32 117.12,-23.36"/>
<polygon fill="#63b8ff" stroke="#63b8ff" points="113.63,-48.08 117.13,-58.08 120.63,-48.08 113.63,-48.08"/>
</a>
</g>
</g>
<!-- Node3 -->
<g id="Node000003" class="node">
<title>Node3</title>
<g id="a_Node000003"><a xlink:href="classmfem_1_1IntegrationRule.html" target="_top" xlink:title="Class for an integration rule &#45; an Array of IntegrationPoint.">
<polygon fill="white" stroke="#666666" points="192.25,-157 42,-157 42,-134 192.25,-134 192.25,-157"/>
<text text-anchor="middle" x="117.12" y="-139.7" font-family="Helvetica,sans-Serif" font-size="14.00">mfem::IntegrationRule</text>
</a>
</g>
</g>
<!-- Node3&#45;&gt;Node2 -->
<g id="edge2_Node000002_Node000003" class="edge">
<title>Node3&#45;&gt;Node2</title>
<g id="a_edge2_Node000002_Node000003"><a xlink:title=" ">
<path fill="none" stroke="#9a32cd" stroke-dasharray="5,2" d="M117.12,-122.2C117.12,-109.17 117.12,-93.31 117.12,-83.07"/>
<polygon fill="#9a32cd" stroke="#9a32cd" points="113.63,-122.05 117.13,-132.05 120.63,-122.05 113.63,-122.05"/>
</a>
</g>
<text text-anchor="middle" x="140.38" y="-102.7" font-family="Helvetica,sans-Serif" font-size="14.00" fill="grey"> IntRule</text>
</g>
<!-- Node4 -->
<g id="Node000004" class="node">
<title>Node4</title>
<g id="a_Node000004"><a xlink:href="classmfem_1_1Array.html" target="_top" xlink:title=" ">
<polygon fill="white" stroke="#666666" points="200.5,-232 33.75,-232 33.75,-194 200.5,-194 200.5,-232"/>
<text text-anchor="start" x="41.75" y="-214.7" font-family="Helvetica,sans-Serif" font-size="14.00">mfem::Array&lt; Integration</text>
<text text-anchor="middle" x="117.12" y="-199.7" font-family="Helvetica,sans-Serif" font-size="14.00">Point &gt;</text>
</a>
</g>
</g>
<!-- Node4&#45;&gt;Node3 -->
<g id="edge3_Node000003_Node000004" class="edge">
<title>Node4&#45;&gt;Node3</title>
<g id="a_edge3_Node000003_Node000004"><a xlink:title=" ">
<path fill="none" stroke="#63b8ff" d="M117.12,-182.47C117.12,-173.57 117.12,-164.35 117.12,-157.47"/>
<polygon fill="#63b8ff" stroke="#63b8ff" points="113.63,-182.24 117.13,-192.24 120.63,-182.24 113.63,-182.24"/>
</a>
</g>
</g>
<!-- Node5 -->
<g id="Node000005" class="node">
<title>Node5</title>
<g id="a_Node000005"><a xlink:href="classmfem_1_1Memory.html" target="_top" xlink:title=" ">
<polygon fill="white" stroke="#666666" points="209.5,-321 24.75,-321 24.75,-283 209.5,-283 209.5,-321"/>
<text text-anchor="start" x="32.75" y="-303.7" font-family="Helvetica,sans-Serif" font-size="14.00">mfem::Memory&lt; Integration</text>
<text text-anchor="middle" x="117.12" y="-288.7" font-family="Helvetica,sans-Serif" font-size="14.00">Point &gt;</text>
</a>
</g>
</g>
<!-- Node5&#45;&gt;Node4 -->
<g id="edge4_Node000004_Node000005" class="edge">
<title>Node5&#45;&gt;Node4</title>
<g id="a_edge4_Node000004_Node000005"><a xlink:title=" ">
<path fill="none" stroke="#9a32cd" stroke-dasharray="5,2" d="M117.12,-271.36C117.12,-258.45 117.12,-243.72 117.12,-232.42"/>
<polygon fill="#9a32cd" stroke="#9a32cd" points="113.63,-271.04 117.13,-281.04 120.63,-271.04 113.63,-271.04"/>
</a>
</g>
<text text-anchor="middle" x="132.12" y="-251.7" font-family="Helvetica,sans-Serif" font-size="14.00" fill="grey"> data</text>
</g>
<!-- Node6 -->
<g id="Node000006" class="node">
<title>Node6</title>
<g id="a_Node000006"><a xlink:href="classmfem_1_1IntegrationPoint.html" target="_top" xlink:title="Class for integration point with weight.">
<polygon fill="white" stroke="#666666" points="193.75,-395 40.5,-395 40.5,-372 193.75,-372 193.75,-395"/>
<text text-anchor="middle" x="117.12" y="-377.7" font-family="Helvetica,sans-Serif" font-size="14.00">mfem::IntegrationPoint</text>
</a>
</g>
</g>
<!-- Node6&#45;&gt;Node5 -->
<g id="edge5_Node000005_Node000006" class="edge">
<title>Node6&#45;&gt;Node5</title>
<g id="a_edge5_Node000005_Node000006"><a xlink:title=" ">
<path fill="none" stroke="#9a32cd" stroke-dasharray="5,2" d="M117.12,-360.29C117.12,-348.05 117.12,-333.04 117.12,-321.45"/>
<polygon fill="#9a32cd" stroke="#9a32cd" points="113.63,-360.26 117.13,-370.26 120.63,-360.26 113.63,-360.26"/>
</a>
</g>
<text text-anchor="middle" x="134.38" y="-340.7" font-family="Helvetica,sans-Serif" font-size="14.00" fill="grey"> h_ptr</text>
</g>
</g>
</svg>
