<?xml version="1.0" encoding="UTF-8" standalone="no"?>
<!DOCTYPE svg PUBLIC "-//W3C//DTD SVG 1.1//EN"
 "http://www.w3.org/Graphics/SVG/1.1/DTD/svg11.dtd">
<!-- Generated by graphviz version 8.0.5 (0)
 -->
<!-- Title: mfem::DGElasticityIntegrator Pages: 1 -->
<!--zoomable 659 -->
<svg id="main" version="1.1" xmlns="http://www.w3.org/2000/svg" xmlns:xlink="http://www.w3.org/1999/xlink" xml:space="preserve" onload="init(evt)">
<style type="text/css"><![CDATA[
.edge:hover path { stroke: red; }
.edge:hover polygon { stroke: red; fill: red; }
]]></style>
<script type="text/javascript"><![CDATA[
var edges = document.getElementsByTagName('g');
if (edges && edges.length) {
  for (var i=0;i<edges.length;i++) {
    if (edges[i].id.substr(0,4)=='edge') {
      edges[i].setAttribute('class','edge');
    }
  }
}
]]></script>
        <defs>
                <circle id="rim" cx="0" cy="0" r="7"/>
                <circle id="rim2" cx="0" cy="0" r="3.5"/>
                <g id="zoomPlus">
                        <use xlink:href="#rim" fill="#404040">
                                <set attributeName="fill" to="#808080" begin="zoomplus.mouseover" end="zoomplus.mouseout"/>
                        </use>
                        <path d="M-4,0h8M0,-4v8" fill="none" stroke="white" stroke-width="1.5" pointer-events="none"/>
                </g>
                <g id="zoomMin">
                        <use xlink:href="#rim" fill="#404040">
                                <set attributeName="fill" to="#808080" begin="zoomminus.mouseover" end="zoomminus.mouseout"/>
                        </use>
                        <path d="M-4,0h8" fill="none" stroke="white" stroke-width="1.5" pointer-events="none"/>
                </g>
                <g id="dirArrow">
                        <path fill="none" stroke="white" stroke-width="1.5" d="M0,-3.0v7 M-2.5,-0.5L0,-3.0L2.5,-0.5"/>
                </g>
               <g id="resetDef">
                       <use xlink:href="#rim2" fill="#404040">
                               <set attributeName="fill" to="#808080" begin="reset.mouseover" end="reset.mouseout"/>
                       </use>
               </g>
        </defs>

<script type="text/javascript">
var viewWidth = 836;
var viewHeight = 659;
var sectionId = 'dynsection-1';
</script>
<script xlink:href="svgpan.js"/>
<svg id="graph" class="graph">
<g id="viewport">
<title>mfem::DGElasticityIntegrator</title>
<!-- Node1 -->
<g id="node1" class="node">
<title>Node1</title>
<g id="a_node1"><a xlink:title=" ">
<polygon fill="#999999" stroke="#666666" points="632.25,-22 437.31,-22 437.31,0 632.25,0 632.25,-22"/>
<text text-anchor="middle" x="534.78" y="-6.8" font-family="Helvetica,sans-Serif" font-size="14.00">mfem::DGElasticityIntegrator</text>
</a>
</g>
</g>
<!-- Node2 -->
<g id="node2" class="node">
<title>Node2</title>
<g id="a_node2"><a xlink:href="classmfem_1_1BilinearFormIntegrator.html" target="_top" xlink:title="Abstract base class BilinearFormIntegrator.">
<polygon fill="white" stroke="#666666" points="390.81,-237 192.75,-237 192.75,-215 390.81,-215 390.81,-237"/>
<text text-anchor="middle" x="291.78" y="-221.8" font-family="Helvetica,sans-Serif" font-size="14.00">mfem::BilinearFormIntegrator</text>
</a>
</g>
</g>
<!-- Node2&#45;&gt;Node1 -->
<g id="edge1" class="edge">
<title>Node2&#45;&gt;Node1</title>
<path fill="none" stroke="#63b8ff" d="M302.38,-205.46C323.83,-167.76 376.06,-84.75 442.78,-40 454.43,-32.19 468.34,-26.49 481.77,-22.35"/>
<polygon fill="#63b8ff" stroke="#63b8ff" points="298.97,-203.38 297.16,-213.82 305.09,-206.79 298.97,-203.38"/>
</g>
<!-- Node3 -->
<g id="node3" class="node">
<title>Node3</title>
<g id="a_node3"><a xlink:href="classmfem_1_1NonlinearFormIntegrator.html" target="_top" xlink:title="This class is used to express the local action of a general nonlinear finite element operator....">
<polygon fill="white" stroke="#666666" points="385.43,-348 174.14,-348 174.14,-326 385.43,-326 385.43,-348"/>
<text text-anchor="middle" x="279.78" y="-332.8" font-family="Helvetica,sans-Serif" font-size="14.00">mfem::NonlinearFormIntegrator</text>
</a>
</g>
</g>
<!-- Node3&#45;&gt;Node2 -->
<g id="edge2" class="edge">
<title>Node3&#45;&gt;Node2</title>
<path fill="none" stroke="#63b8ff" d="M282.12,-314.71C284.69,-291.38 288.71,-254.91 290.65,-237.26"/>
<polygon fill="#63b8ff" stroke="#63b8ff" points="278.55,-314.23 280.93,-324.55 285.5,-314.99 278.55,-314.23"/>
</g>
<!-- Node4 -->
<g id="node4" class="node">
<title>Node4</title>
<g id="a_node4"><a xlink:href="classmfem_1_1IntegrationRule.html" target="_top" xlink:title="Class for an integration rule &#45; an Array of IntegrationPoint.">
<polygon fill="white" stroke="#666666" points="170.65,-420 16.92,-420 16.92,-398 170.65,-398 170.65,-420"/>
<text text-anchor="middle" x="93.78" y="-404.8" font-family="Helvetica,sans-Serif" font-size="14.00">mfem::IntegrationRule</text>
</a>
</g>
</g>
<!-- Node4&#45;&gt;Node3 -->
<g id="edge3" class="edge">
<title>Node4&#45;&gt;Node3</title>
<path fill="none" stroke="#9a32cd" stroke-dasharray="5,2" d="M131.67,-393.74C167.4,-380.29 220.09,-360.46 252.05,-348.44"/>
<polygon fill="#9a32cd" stroke="#9a32cd" points="130.75,-390.72 122.63,-397.52 133.22,-397.27 130.75,-390.72"/>
<text text-anchor="middle" x="227.9" y="-368.8" font-family="Helvetica,sans-Serif" font-size="14.00"> IntRule</text>
</g>
<!-- Node5 -->
<g id="node5" class="node">
<title>Node5</title>
<g id="a_node5"><a xlink:href="classmfem_1_1Array.html" target="_top" xlink:title=" ">
<polygon fill="white" stroke="#666666" points="179.01,-493 8.56,-493 8.56,-457 179.01,-457 179.01,-493"/>
<text text-anchor="start" x="16.56" y="-477.8" font-family="Helvetica,sans-Serif" font-size="14.00">mfem::Array&lt; Integration</text>
<text text-anchor="middle" x="93.78" y="-463.8" font-family="Helvetica,sans-Serif" font-size="14.00">Point &gt;</text>
</a>
</g>
</g>
<!-- Node5&#45;&gt;Node4 -->
<g id="edge4" class="edge">
<title>Node5&#45;&gt;Node4</title>
<path fill="none" stroke="#63b8ff" d="M93.78,-445.6C93.78,-436.65 93.78,-427.32 93.78,-420.46"/>
<polygon fill="#63b8ff" stroke="#63b8ff" points="90.28,-445.51 93.78,-455.51 97.28,-445.51 90.28,-445.51"/>
</g>
<!-- Node6 -->
<g id="node6" class="node">
<title>Node6</title>
<g id="a_node6"><a xlink:href="classmfem_1_1Memory.html" target="_top" xlink:title=" ">
<polygon fill="white" stroke="#666666" points="187.56,-579 0,-579 0,-543 187.56,-543 187.56,-579"/>
<text text-anchor="start" x="8" y="-563.8" font-family="Helvetica,sans-Serif" font-size="14.00">mfem::Memory&lt; Integration</text>
<text text-anchor="middle" x="93.78" y="-549.8" font-family="Helvetica,sans-Serif" font-size="14.00">Point &gt;</text>
</a>
</g>
</g>
<!-- Node6&#45;&gt;Node5 -->
<g id="edge5" class="edge">
<title>Node6&#45;&gt;Node5</title>
<path fill="none" stroke="#9a32cd" stroke-dasharray="5,2" d="M93.78,-531.63C93.78,-518.95 93.78,-504.42 93.78,-493.38"/>
<polygon fill="#9a32cd" stroke="#9a32cd" points="90.28,-531.6 93.78,-541.6 97.28,-531.6 90.28,-531.6"/>
<text text-anchor="middle" x="109.35" y="-513.8" font-family="Helvetica,sans-Serif" font-size="14.00"> data</text>
</g>
<!-- Node7 -->
<g id="node7" class="node">
<title>Node7</title>
<g id="a_node7"><a xlink:href="classmfem_1_1IntegrationPoint.html" target="_top" xlink:title="Class for integration point with weight.">
<polygon fill="white" stroke="#666666" points="172.2,-651 15.36,-651 15.36,-629 172.2,-629 172.2,-651"/>
<text text-anchor="middle" x="93.78" y="-635.8" font-family="Helvetica,sans-Serif" font-size="14.00">mfem::IntegrationPoint</text>
</a>
</g>
</g>
<!-- Node7&#45;&gt;Node6 -->
<g id="edge6" class="edge">
<title>Node7&#45;&gt;Node6</title>
<path fill="none" stroke="#9a32cd" stroke-dasharray="5,2" d="M93.78,-617.7C93.78,-605.6 93.78,-590.64 93.78,-579.28"/>
<polygon fill="#9a32cd" stroke="#9a32cd" points="90.28,-617.62 93.78,-627.62 97.28,-617.62 90.28,-617.62"/>
<text text-anchor="middle" x="111.68" y="-599.8" font-family="Helvetica,sans-Serif" font-size="14.00"> h_ptr</text>
</g>
<!-- Node8 -->
<g id="node8" class="node">
<title>Node8</title>
<g id="a_node8"><a xlink:href="classmfem_1_1NURBSMeshRules.html" target="_top" xlink:title="Class for defining different integration rules on each NURBS patch.">
<polygon fill="white" stroke="#666666" points="366.69,-420 188.87,-420 188.87,-398 366.69,-398 366.69,-420"/>
<text text-anchor="middle" x="277.78" y="-404.8" font-family="Helvetica,sans-Serif" font-size="14.00">mfem::NURBSMeshRules</text>
</a>
</g>
</g>
<!-- Node8&#45;&gt;Node3 -->
<g id="edge7" class="edge">
<title>Node8&#45;&gt;Node3</title>
<path fill="none" stroke="#9a32cd" stroke-dasharray="5,2" d="M278.38,-387.03C278.74,-374.27 279.19,-358.52 279.48,-348.37"/>
<polygon fill="#9a32cd" stroke="#9a32cd" points="274.86,-386.58 278.08,-396.67 281.86,-386.78 274.86,-386.58"/>
<text text-anchor="middle" x="316.75" y="-368.8" font-family="Helvetica,sans-Serif" font-size="14.00"> patchRules</text>
</g>
<!-- Node9 -->
<g id="node9" class="node">
<title>Node9</title>
<g id="a_node9"><a xlink:href="classmfem_1_1ceed_1_1Operator.html" target="_top" xlink:title=" ">
<polygon fill="white" stroke="#666666" points="536.86,-420 384.7,-420 384.7,-398 536.86,-398 536.86,-420"/>
<text text-anchor="middle" x="460.78" y="-404.8" font-family="Helvetica,sans-Serif" font-size="14.00">mfem::ceed::Operator</text>
</a>
</g>
</g>
<!-- Node9&#45;&gt;Node3 -->
<g id="edge8" class="edge">
<title>Node9&#45;&gt;Node3</title>
<path fill="none" stroke="#9a32cd" stroke-dasharray="5,2" d="M425.79,-393.3C405.93,-385.07 380.56,-374.73 357.78,-366 342.06,-359.98 324.42,-353.61 309.89,-348.47"/>
<polygon fill="#9a32cd" stroke="#9a32cd" points="424.35,-396.91 434.92,-397.52 427.04,-390.44 424.35,-396.91"/>
<text text-anchor="middle" x="419.24" y="-368.8" font-family="Helvetica,sans-Serif" font-size="14.00"> ceedOp</text>
</g>
<!-- Node10 -->
<g id="node10" class="node">
<title>Node10</title>
<g id="a_node10"><a xlink:href="classmfem_1_1Operator.html" target="_top" xlink:title="Abstract operator.">
<polygon fill="white" stroke="#666666" points="588.79,-486 474.77,-486 474.77,-464 588.79,-464 588.79,-486"/>
<text text-anchor="middle" x="531.78" y="-470.8" font-family="Helvetica,sans-Serif" font-size="14.00">mfem::Operator</text>
</a>
</g>
</g>
<!-- Node10&#45;&gt;Node9 -->
<g id="edge9" class="edge">
<title>Node10&#45;&gt;Node9</title>
<path fill="none" stroke="#63b8ff" d="M512.56,-456.67C499.73,-445.11 483.27,-430.27 472.4,-420.47"/>
<polygon fill="#63b8ff" stroke="#63b8ff" points="509.6,-458.62 519.37,-462.72 514.29,-453.42 509.6,-458.62"/>
</g>
<!-- Node15 -->
<g id="node15" class="node">
<title>Node15</title>
<g id="a_node15"><a xlink:href="classmfem_1_1Matrix.html" target="_top" xlink:title="Abstract data type matrix.">
<polygon fill="white" stroke="#666666" points="652.23,-420 555.34,-420 555.34,-398 652.23,-398 652.23,-420"/>
<text text-anchor="middle" x="603.78" y="-404.8" font-family="Helvetica,sans-Serif" font-size="14.00">mfem::Matrix</text>
</a>
</g>
</g>
<!-- Node10&#45;&gt;Node15 -->
<g id="edge15" class="edge">
<title>Node10&#45;&gt;Node15</title>
<path fill="none" stroke="#63b8ff" d="M551.27,-456.67C564.29,-445.11 580.97,-430.27 592,-420.47"/>
<polygon fill="#63b8ff" stroke="#63b8ff" points="549.5,-453.46 544.35,-462.72 554.15,-458.69 549.5,-453.46"/>
</g>
<!-- Node11 -->
<g id="node11" class="node">
<title>Node11</title>
<g id="a_node11"><a xlink:href="classmfem_1_1Coefficient.html" target="_top" xlink:title="Base class Coefficients that optionally depend on space and time. These are used by the BilinearFormI...">
<polygon fill="white" stroke="#666666" points="676.24,-237 551.32,-237 551.32,-215 676.24,-215 676.24,-237"/>
<text text-anchor="middle" x="613.78" y="-221.8" font-family="Helvetica,sans-Serif" font-size="14.00">mfem::Coefficient</text>
</a>
</g>
</g>
<!-- Node11&#45;&gt;Node1 -->
<g id="edge10" class="edge">
<title>Node11&#45;&gt;Node1</title>
<path fill="none" stroke="#9a32cd" stroke-dasharray="5,2" d="M606.19,-204.52C589.63,-159.89 550.8,-55.2 538.55,-22.17"/>
<polygon fill="#9a32cd" stroke="#9a32cd" points="603.21,-205.57 609.97,-213.73 609.77,-203.13 603.21,-205.57"/>
<text text-anchor="middle" x="615.68" y="-105.8" font-family="Helvetica,sans-Serif" font-size="14.00"> lambda</text>
<text text-anchor="middle" x="615.68" y="-91.8" font-family="Helvetica,sans-Serif" font-size="14.00">mu</text>
</g>
<!-- Node12 -->
<g id="node12" class="node">
<title>Node12</title>
<g id="a_node12"><a xlink:href="classmfem_1_1Vector.html" target="_top" xlink:title="Vector data type.">
<polygon fill="white" stroke="#666666" points="793.02,-237 694.54,-237 694.54,-215 793.02,-215 793.02,-237"/>
<text text-anchor="middle" x="743.78" y="-221.8" font-family="Helvetica,sans-Serif" font-size="14.00">mfem::Vector</text>
</a>
</g>
</g>
<!-- Node12&#45;&gt;Node1 -->
<g id="edge11" class="edge">
<title>Node12&#45;&gt;Node1</title>
<path fill="none" stroke="#9a32cd" stroke-dasharray="5,2" d="M738.66,-204.25C728.04,-165.73 699.88,-83.15 644.78,-40 634.77,-32.16 622.83,-26.5 610.55,-22.41"/>
<polygon fill="#9a32cd" stroke="#9a32cd" points="735.48,-204.92 741.4,-213.7 742.25,-203.14 735.48,-204.92"/>
<text text-anchor="middle" x="772.09" y="-154.8" font-family="Helvetica,sans-Serif" font-size="14.00"> dshape1_dnM</text>
<text text-anchor="middle" x="772.09" y="-140.8" font-family="Helvetica,sans-Serif" font-size="14.00">dshape2_dnM</text>
<text text-anchor="middle" x="772.09" y="-126.8" font-family="Helvetica,sans-Serif" font-size="14.00">nL1</text>
<text text-anchor="middle" x="772.09" y="-112.8" font-family="Helvetica,sans-Serif" font-size="14.00">nL2</text>
<text text-anchor="middle" x="772.09" y="-98.8" font-family="Helvetica,sans-Serif" font-size="14.00">nM1</text>
<text text-anchor="middle" x="772.09" y="-84.8" font-family="Helvetica,sans-Serif" font-size="14.00">nM2</text>
<text text-anchor="middle" x="772.09" y="-70.8" font-family="Helvetica,sans-Serif" font-size="14.00">nor</text>
<text text-anchor="middle" x="772.09" y="-56.8" font-family="Helvetica,sans-Serif" font-size="14.00">shape1</text>
<text text-anchor="middle" x="772.09" y="-42.8" font-family="Helvetica,sans-Serif" font-size="14.00">shape2</text>
</g>
<!-- Node13 -->
<g id="node13" class="node">
<title>Node13</title>
<g id="a_node13"><a xlink:href="classmfem_1_1Memory.html" target="_top" xlink:title=" ">
<polygon fill="white" stroke="#666666" points="828.03,-348 659.54,-348 659.54,-326 828.03,-326 828.03,-348"/>
<text text-anchor="middle" x="743.78" y="-332.8" font-family="Helvetica,sans-Serif" font-size="14.00">mfem::Memory&lt; real_t &gt;</text>
</a>
</g>
</g>
<!-- Node13&#45;&gt;Node12 -->
<g id="edge12" class="edge">
<title>Node13&#45;&gt;Node12</title>
<path fill="none" stroke="#9a32cd" stroke-dasharray="5,2" d="M743.78,-314.71C743.78,-291.38 743.78,-254.91 743.78,-237.26"/>
<polygon fill="#9a32cd" stroke="#9a32cd" points="740.28,-314.55 743.78,-324.55 747.28,-314.55 740.28,-314.55"/>
<text text-anchor="middle" x="759.35" y="-292.8" font-family="Helvetica,sans-Serif" font-size="14.00"> data</text>
</g>
<!-- Node14 -->
<g id="node14" class="node">
<title>Node14</title>
<g id="a_node14"><a xlink:href="classmfem_1_1DenseMatrix.html" target="_top" xlink:title="Data type dense matrix using column&#45;major storage.">
<polygon fill="white" stroke="#666666" points="584.46,-308 447.1,-308 447.1,-286 584.46,-286 584.46,-308"/>
<text text-anchor="middle" x="515.78" y="-292.8" font-family="Helvetica,sans-Serif" font-size="14.00">mfem::DenseMatrix</text>
</a>
</g>
</g>
<!-- Node14&#45;&gt;Node1 -->
<g id="edge13" class="edge">
<title>Node14&#45;&gt;Node1</title>
<path fill="none" stroke="#9a32cd" stroke-dasharray="5,2" d="M477.01,-279.69C472.83,-276.41 469.14,-272.55 466.49,-268 447.71,-235.73 459.48,-220.67 466.49,-184 478.8,-119.62 514.86,-48.63 529,-22.44"/>
<polygon fill="#9a32cd" stroke="#9a32cd" points="474.81,-283.09 485.1,-285.61 478.63,-277.22 474.81,-283.09"/>
<text text-anchor="middle" x="504.93" y="-256.8" font-family="Helvetica,sans-Serif" font-size="14.00"> adjJ</text>
<text text-anchor="middle" x="504.93" y="-242.8" font-family="Helvetica,sans-Serif" font-size="14.00">dshape1</text>
<text text-anchor="middle" x="504.93" y="-228.8" font-family="Helvetica,sans-Serif" font-size="14.00">dshape1_ps</text>
<text text-anchor="middle" x="504.93" y="-214.8" font-family="Helvetica,sans-Serif" font-size="14.00">dshape2</text>
<text text-anchor="middle" x="504.93" y="-200.8" font-family="Helvetica,sans-Serif" font-size="14.00">dshape2_ps</text>
<text text-anchor="middle" x="504.93" y="-186.8" font-family="Helvetica,sans-Serif" font-size="14.00">jmat</text>
</g>
<!-- Node15&#45;&gt;Node14 -->
<g id="edge14" class="edge">
<title>Node15&#45;&gt;Node14</title>
<path fill="none" stroke="#63b8ff" d="M588.99,-389.51C570.37,-366.24 539.04,-327.07 524.14,-308.45"/>
<polygon fill="#63b8ff" stroke="#63b8ff" points="586.68,-391.23 595.66,-396.85 592.15,-386.85 586.68,-391.23"/>
</g>
</g>
</svg>
        <g id="navigator" transform="translate(0 0)" fill="#404254">
                <rect fill="#f2f5e9" fill-opacity="0.5" stroke="#606060" stroke-width=".5" x="0" y="0" width="60" height="60"/>
                <use id="zoomplus" xlink:href="#zoomPlus" x="17" y="9" onmousedown="handleZoom(evt,'in')"/>
                <use id="zoomminus" xlink:href="#zoomMin" x="42" y="9" onmousedown="handleZoom(evt,'out')"/>
                <use id="reset" xlink:href="#resetDef" x="30" y="36" onmousedown="handleReset()"/>
                <g id="arrowUp" xlink:href="#dirArrow" transform="translate(30 24)" onmousedown="handlePan(0,-1)">
                  <use xlink:href="#rim" fill="#404040">
                        <set attributeName="fill" to="#808080" begin="arrowUp.mouseover" end="arrowUp.mouseout"/>
                  </use>
                  <path fill="none" stroke="white" stroke-width="1.5" d="M0,-3.0v7 M-2.5,-0.5L0,-3.0L2.5,-0.5"/>
                </g>
                <g id="arrowRight" xlink:href="#dirArrow" transform="rotate(90) translate(36 -43)" onmousedown="handlePan(1,0)">
                  <use xlink:href="#rim" fill="#404040">
                        <set attributeName="fill" to="#808080" begin="arrowRight.mouseover" end="arrowRight.mouseout"/>
                  </use>
                  <path fill="none" stroke="white" stroke-width="1.5" d="M0,-3.0v7 M-2.5,-0.5L0,-3.0L2.5,-0.5"/>
                </g>
                <g id="arrowDown" xlink:href="#dirArrow" transform="rotate(180) translate(-30 -48)" onmousedown="handlePan(0,1)">
                  <use xlink:href="#rim" fill="#404040">
                        <set attributeName="fill" to="#808080" begin="arrowDown.mouseover" end="arrowDown.mouseout"/>
                  </use>
                  <path fill="none" stroke="white" stroke-width="1.5" d="M0,-3.0v7 M-2.5,-0.5L0,-3.0L2.5,-0.5"/>
                </g>
                <g id="arrowLeft" xlink:href="#dirArrow" transform="rotate(270) translate(-36 17)" onmousedown="handlePan(-1,0)">
                  <use xlink:href="#rim" fill="#404040">
                        <set attributeName="fill" to="#808080" begin="arrowLeft.mouseover" end="arrowLeft.mouseout"/>
                  </use>
                  <path fill="none" stroke="white" stroke-width="1.5" d="M0,-3.0v7 M-2.5,-0.5L0,-3.0L2.5,-0.5"/>
                </g>
        </g>
        <svg viewBox="0 0 15 15" width="100%" height="30px" preserveAspectRatio="xMaxYMin meet">
         <g id="arrow_out" transform="scale(0.3 0.3)">
          <a xlink:href="classmfem_1_1DGElasticityIntegrator__coll__graph_org.svg" target="_base">
           <rect id="button" ry="5" rx="5" y="6" x="6" height="38" width="38"
                fill="#f2f5e9" fill-opacity="0.5" stroke="#606060" stroke-width="1.0"/>
           <path id="arrow"
             d="M 11.500037,31.436501 C 11.940474,20.09759 22.043105,11.32322 32.158766,21.979434 L 37.068811,17.246167 C 37.068811,17.246167 37.088388,32 37.088388,32 L 22.160133,31.978069 C 22.160133,31.978069 26.997745,27.140456 26.997745,27.140456 C 18.528582,18.264221 13.291696,25.230495 11.500037,31.436501 z"
             style="fill:#404040;"/>
          </a>
         </g>
        </svg>
</svg>
