<?xml version="1.0" encoding="UTF-8" standalone="no"?>
<!DOCTYPE svg PUBLIC "-//W3C//DTD SVG 1.1//EN"
 "http://www.w3.org/Graphics/SVG/1.1/DTD/svg11.dtd">
<!-- Generated by graphviz version 8.0.5 (0)
 -->
<!-- Title: Gecko::Functional Pages: 1 -->
<!--zoomable 150 -->
<svg id="main" version="1.1" xmlns="http://www.w3.org/2000/svg" xmlns:xlink="http://www.w3.org/1999/xlink" xml:space="preserve" onload="init(evt)">
<style type="text/css"><![CDATA[
.edge:hover path { stroke: red; }
.edge:hover polygon { stroke: red; fill: red; }
]]></style>
<script type="text/javascript"><![CDATA[
var edges = document.getElementsByTagName('g');
if (edges && edges.length) {
  for (var i=0;i<edges.length;i++) {
    if (edges[i].id.substr(0,4)=='edge') {
      edges[i].setAttribute('class','edge');
    }
  }
}
]]></script>
        <defs>
                <circle id="rim" cx="0" cy="0" r="7"/>
                <circle id="rim2" cx="0" cy="0" r="3.5"/>
                <g id="zoomPlus">
                        <use xlink:href="#rim" fill="#404040">
                                <set attributeName="fill" to="#808080" begin="zoomplus.mouseover" end="zoomplus.mouseout"/>
                        </use>
                        <path d="M-4,0h8M0,-4v8" fill="none" stroke="white" stroke-width="1.5" pointer-events="none"/>
                </g>
                <g id="zoomMin">
                        <use xlink:href="#rim" fill="#404040">
                                <set attributeName="fill" to="#808080" begin="zoomminus.mouseover" end="zoomminus.mouseout"/>
                        </use>
                        <path d="M-4,0h8" fill="none" stroke="white" stroke-width="1.5" pointer-events="none"/>
                </g>
                <g id="dirArrow">
                        <path fill="none" stroke="white" stroke-width="1.5" d="M0,-3.0v7 M-2.5,-0.5L0,-3.0L2.5,-0.5"/>
                </g>
               <g id="resetDef">
                       <use xlink:href="#rim2" fill="#404040">
                               <set attributeName="fill" to="#808080" begin="reset.mouseover" end="reset.mouseout"/>
                       </use>
               </g>
        </defs>

<script type="text/javascript">
var viewWidth = 612;
var viewHeight = 150;
var sectionId = 'dynsection-0';
</script>
<script xlink:href="svgpan.js"/>
<svg id="graph" class="graph">
<g id="viewport">
<title>Gecko::Functional</title>
<!-- Node1 -->
<g id="node1" class="node">
<title>Node1</title>
<g id="a_node1"><a xlink:title=" ">
<polygon fill="#999999" stroke="#666666" points="128.83,-82 0,-82 0,-60 128.83,-60 128.83,-82"/>
<text text-anchor="middle" x="64.42" y="-66.8" font-family="Helvetica,sans-Serif" font-size="14.00">Gecko::Functional</text>
</a>
</g>
</g>
<!-- Node2 -->
<g id="node2" class="node">
<title>Node2</title>
<g id="a_node2"><a xlink:href="classGecko_1_1FunctionalArithmetic.html" target="_top" xlink:title=" ">
<polygon fill="white" stroke="#666666" points="365.25,-142 174.18,-142 174.18,-120 365.25,-120 365.25,-142"/>
<text text-anchor="middle" x="269.72" y="-126.8" font-family="Helvetica,sans-Serif" font-size="14.00">Gecko::FunctionalArithmetic</text>
</a>
</g>
</g>
<!-- Node1&#45;&gt;Node2 -->
<g id="edge1" class="edge">
<title>Node1&#45;&gt;Node2</title>
<path fill="none" stroke="#63b8ff" d="M99.79,-86.73C118.67,-94.89 142.7,-104.48 164.83,-111 175.85,-114.24 187.67,-117.09 199.26,-119.55"/>
<polygon fill="#63b8ff" stroke="#63b8ff" points="101.43,-83.19 90.87,-82.38 98.62,-89.6 101.43,-83.19"/>
</g>
<!-- Node3 -->
<g id="node3" class="node">
<title>Node3</title>
<g id="a_node3"><a xlink:href="classGecko_1_1FunctionalMaximum.html" target="_top" xlink:title=" ">
<polygon fill="white" stroke="#666666" points="364.47,-102 174.96,-102 174.96,-80 364.47,-80 364.47,-102"/>
<text text-anchor="middle" x="269.72" y="-86.8" font-family="Helvetica,sans-Serif" font-size="14.00">Gecko::FunctionalMaximum</text>
</a>
</g>
</g>
<!-- Node1&#45;&gt;Node3 -->
<g id="edge2" class="edge">
<title>Node1&#45;&gt;Node3</title>
<path fill="none" stroke="#63b8ff" d="M139.86,-78.32C151.18,-79.44 162.98,-80.6 174.65,-81.75"/>
<polygon fill="#63b8ff" stroke="#63b8ff" points="140.48,-74.77 130.18,-77.27 139.79,-81.74 140.48,-74.77"/>
</g>
<!-- Node4 -->
<g id="node4" class="node">
<title>Node4</title>
<g id="a_node4"><a xlink:href="classGecko_1_1FunctionalQuasiconvex.html" target="_top" xlink:title=" ">
<polygon fill="white" stroke="#666666" points="374.6,-62 164.83,-62 164.83,-40 374.6,-40 374.6,-62"/>
<text text-anchor="middle" x="269.72" y="-46.8" font-family="Helvetica,sans-Serif" font-size="14.00">Gecko::FunctionalQuasiconvex</text>
</a>
</g>
</g>
<!-- Node1&#45;&gt;Node4 -->
<g id="edge3" class="edge">
<title>Node1&#45;&gt;Node4</title>
<path fill="none" stroke="#63b8ff" d="M139.97,-63.67C148,-62.88 156.28,-62.06 164.57,-61.25"/>
<polygon fill="#63b8ff" stroke="#63b8ff" points="139.79,-60.26 130.18,-64.73 140.48,-67.23 139.79,-60.26"/>
</g>
<!-- Node8 -->
<g id="node8" class="node">
<title>Node8</title>
<g id="a_node8"><a xlink:href="classGecko_1_1FunctionalRMS.html" target="_top" xlink:title=" ">
<polygon fill="white" stroke="#666666" points="349.69,-22 189.74,-22 189.74,0 349.69,0 349.69,-22"/>
<text text-anchor="middle" x="269.72" y="-6.8" font-family="Helvetica,sans-Serif" font-size="14.00">Gecko::FunctionalRMS</text>
</a>
</g>
</g>
<!-- Node1&#45;&gt;Node8 -->
<g id="edge7" class="edge">
<title>Node1&#45;&gt;Node8</title>
<path fill="none" stroke="#63b8ff" d="M99.79,-55.27C118.67,-47.11 142.7,-37.52 164.83,-31 175.85,-27.76 187.67,-24.91 199.26,-22.45"/>
<polygon fill="#63b8ff" stroke="#63b8ff" points="98.62,-52.4 90.87,-59.62 101.43,-58.81 98.62,-52.4"/>
</g>
<!-- Node5 -->
<g id="node5" class="node">
<title>Node5</title>
<g id="a_node5"><a xlink:href="classGecko_1_1FunctionalGeometric.html" target="_top" xlink:title=" ">
<polygon fill="white" stroke="#666666" points="604,-102 410.6,-102 410.6,-80 604,-80 604,-102"/>
<text text-anchor="middle" x="507.3" y="-86.8" font-family="Helvetica,sans-Serif" font-size="14.00">Gecko::FunctionalGeometric</text>
</a>
</g>
</g>
<!-- Node4&#45;&gt;Node5 -->
<g id="edge4" class="edge">
<title>Node4&#45;&gt;Node5</title>
<path fill="none" stroke="#63b8ff" d="M348.77,-64.25C377.9,-69.2 410.69,-74.77 438.78,-79.54"/>
<polygon fill="#63b8ff" stroke="#63b8ff" points="349.67,-60.69 339.23,-62.46 348.5,-67.59 349.67,-60.69"/>
</g>
<!-- Node6 -->
<g id="node6" class="node">
<title>Node6</title>
<g id="a_node6"><a xlink:href="classGecko_1_1FunctionalHarmonic.html" target="_top" xlink:title=" ">
<polygon fill="white" stroke="#666666" points="601.67,-62 412.93,-62 412.93,-40 601.67,-40 601.67,-62"/>
<text text-anchor="middle" x="507.3" y="-46.8" font-family="Helvetica,sans-Serif" font-size="14.00">Gecko::FunctionalHarmonic</text>
</a>
</g>
</g>
<!-- Node4&#45;&gt;Node6 -->
<g id="edge5" class="edge">
<title>Node4&#45;&gt;Node6</title>
<path fill="none" stroke="#63b8ff" d="M386,-51C394.98,-51 403.97,-51 412.78,-51"/>
<polygon fill="#63b8ff" stroke="#63b8ff" points="386.08,-47.5 376.08,-51 386.08,-54.5 386.08,-47.5"/>
</g>
<!-- Node7 -->
<g id="node7" class="node">
<title>Node7</title>
<g id="a_node7"><a xlink:href="classGecko_1_1FunctionalSMR.html" target="_top" xlink:title=" ">
<polygon fill="white" stroke="#666666" points="587.27,-22 427.33,-22 427.33,0 587.27,0 587.27,-22"/>
<text text-anchor="middle" x="507.3" y="-6.8" font-family="Helvetica,sans-Serif" font-size="14.00">Gecko::FunctionalSMR</text>
</a>
</g>
</g>
<!-- Node4&#45;&gt;Node7 -->
<g id="edge6" class="edge">
<title>Node4&#45;&gt;Node7</title>
<path fill="none" stroke="#63b8ff" d="M348.77,-37.75C377.9,-32.8 410.69,-27.23 438.78,-22.46"/>
<polygon fill="#63b8ff" stroke="#63b8ff" points="348.5,-34.41 339.23,-39.54 349.67,-41.31 348.5,-34.41"/>
</g>
</g>
</svg>
        <g id="navigator" transform="translate(0 0)" fill="#404254">
                <rect fill="#f2f5e9" fill-opacity="0.5" stroke="#606060" stroke-width=".5" x="0" y="0" width="60" height="60"/>
                <use id="zoomplus" xlink:href="#zoomPlus" x="17" y="9" onmousedown="handleZoom(evt,'in')"/>
                <use id="zoomminus" xlink:href="#zoomMin" x="42" y="9" onmousedown="handleZoom(evt,'out')"/>
                <use id="reset" xlink:href="#resetDef" x="30" y="36" onmousedown="handleReset()"/>
                <g id="arrowUp" xlink:href="#dirArrow" transform="translate(30 24)" onmousedown="handlePan(0,-1)">
                  <use xlink:href="#rim" fill="#404040">
                        <set attributeName="fill" to="#808080" begin="arrowUp.mouseover" end="arrowUp.mouseout"/>
                  </use>
                  <path fill="none" stroke="white" stroke-width="1.5" d="M0,-3.0v7 M-2.5,-0.5L0,-3.0L2.5,-0.5"/>
                </g>
                <g id="arrowRight" xlink:href="#dirArrow" transform="rotate(90) translate(36 -43)" onmousedown="handlePan(1,0)">
                  <use xlink:href="#rim" fill="#404040">
                        <set attributeName="fill" to="#808080" begin="arrowRight.mouseover" end="arrowRight.mouseout"/>
                  </use>
                  <path fill="none" stroke="white" stroke-width="1.5" d="M0,-3.0v7 M-2.5,-0.5L0,-3.0L2.5,-0.5"/>
                </g>
                <g id="arrowDown" xlink:href="#dirArrow" transform="rotate(180) translate(-30 -48)" onmousedown="handlePan(0,1)">
                  <use xlink:href="#rim" fill="#404040">
                        <set attributeName="fill" to="#808080" begin="arrowDown.mouseover" end="arrowDown.mouseout"/>
                  </use>
                  <path fill="none" stroke="white" stroke-width="1.5" d="M0,-3.0v7 M-2.5,-0.5L0,-3.0L2.5,-0.5"/>
                </g>
                <g id="arrowLeft" xlink:href="#dirArrow" transform="rotate(270) translate(-36 17)" onmousedown="handlePan(-1,0)">
                  <use xlink:href="#rim" fill="#404040">
                        <set attributeName="fill" to="#808080" begin="arrowLeft.mouseover" end="arrowLeft.mouseout"/>
                  </use>
                  <path fill="none" stroke="white" stroke-width="1.5" d="M0,-3.0v7 M-2.5,-0.5L0,-3.0L2.5,-0.5"/>
                </g>
        </g>
        <svg viewBox="0 0 15 15" width="100%" height="30px" preserveAspectRatio="xMaxYMin meet">
         <g id="arrow_out" transform="scale(0.3 0.3)">
          <a xlink:href="classGecko_1_1Functional__inherit__graph_org.svg" target="_base">
           <rect id="button" ry="5" rx="5" y="6" x="6" height="38" width="38"
                fill="#f2f5e9" fill-opacity="0.5" stroke="#606060" stroke-width="1.0"/>
           <path id="arrow"
             d="M 11.500037,31.436501 C 11.940474,20.09759 22.043105,11.32322 32.158766,21.979434 L 37.068811,17.246167 C 37.068811,17.246167 37.088388,32 37.088388,32 L 22.160133,31.978069 C 22.160133,31.978069 26.997745,27.140456 26.997745,27.140456 C 18.528582,18.264221 13.291696,25.230495 11.500037,31.436501 z"
             style="fill:#404040;"/>
          </a>
         </g>
        </svg>
</svg>
