<?xml version="1.0" encoding="UTF-8" standalone="no"?>
<!DOCTYPE svg PUBLIC "-//W3C//DTD SVG 1.1//EN"
 "http://www.w3.org/Graphics/SVG/1.1/DTD/svg11.dtd">
<!-- Generated by graphviz version 8.0.5 (0)
 -->
<!-- Title: mfem::NewmarkSolver Pages: 1 -->
<svg width="249pt" height="293pt"
 viewBox="0.00 0.00 249.15 293.00" xmlns="http://www.w3.org/2000/svg" xmlns:xlink="http://www.w3.org/1999/xlink">
<g id="graph0" class="graph" transform="scale(1 1) rotate(0) translate(4 289)">
<title>mfem::NewmarkSolver</title>
<!-- Node1 -->
<g id="node1" class="node">
<title>Node1</title>
<g id="a_node1"><a xlink:title=" ">
<polygon fill="#999999" stroke="#666666" points="199.36,-22 41.78,-22 41.78,0 199.36,0 199.36,-22"/>
<text text-anchor="middle" x="120.57" y="-6.8" font-family="Helvetica,sans-Serif" font-size="14.00">mfem::NewmarkSolver</text>
</a>
</g>
</g>
<!-- Node2 -->
<g id="node2" class="node">
<title>Node2</title>
<g id="a_node2"><a xlink:href="classmfem_1_1SecondOrderODESolver.html" target="_top" xlink:title="Abstract class for solving systems of ODEs: d2x/dt2 = f(x,dx/dt,t)">
<polygon fill="white" stroke="#666666" points="226.61,-81 14.54,-81 14.54,-59 226.61,-59 226.61,-81"/>
<text text-anchor="middle" x="120.57" y="-65.8" font-family="Helvetica,sans-Serif" font-size="14.00">mfem::SecondOrderODESolver</text>
</a>
</g>
</g>
<!-- Node2&#45;&gt;Node1 -->
<g id="edge1" class="edge">
<title>Node2&#45;&gt;Node1</title>
<path fill="none" stroke="#63b8ff" d="M120.57,-47.67C120.57,-39.03 120.57,-29.44 120.57,-22.39"/>
<polygon fill="#63b8ff" stroke="#63b8ff" points="117.07,-47.55 120.57,-57.55 124.07,-47.55 117.07,-47.55"/>
</g>
<!-- Node3 -->
<g id="node3" class="node">
<title>Node3</title>
<g id="a_node3"><a xlink:href="classmfem_1_1SecondOrderTimeDependentOperator.html" target="_top" xlink:title="Base abstract class for second order time dependent operators.">
<polygon fill="white" stroke="#666666" points="241.15,-167 0,-167 0,-131 241.15,-131 241.15,-167"/>
<text text-anchor="start" x="8" y="-151.8" font-family="Helvetica,sans-Serif" font-size="14.00">mfem::SecondOrderTimeDependent</text>
<text text-anchor="middle" x="120.57" y="-137.8" font-family="Helvetica,sans-Serif" font-size="14.00">Operator</text>
</a>
</g>
</g>
<!-- Node3&#45;&gt;Node2 -->
<g id="edge2" class="edge">
<title>Node3&#45;&gt;Node2</title>
<path fill="none" stroke="#9a32cd" stroke-dasharray="5,2" d="M120.57,-119.76C120.57,-106.24 120.57,-90.89 120.57,-81.09"/>
<polygon fill="#9a32cd" stroke="#9a32cd" points="117.07,-119.53 120.57,-129.53 124.07,-119.53 117.07,-119.53"/>
<text text-anchor="middle" x="124.46" y="-101.8" font-family="Helvetica,sans-Serif" font-size="14.00"> f</text>
</g>
<!-- Node4 -->
<g id="node4" class="node">
<title>Node4</title>
<g id="a_node4"><a xlink:href="classmfem_1_1TimeDependentOperator.html" target="_top" xlink:title="Base abstract class for first order time dependent operators.">
<polygon fill="white" stroke="#666666" points="227.14,-226 14.01,-226 14.01,-204 227.14,-204 227.14,-226"/>
<text text-anchor="middle" x="120.57" y="-210.8" font-family="Helvetica,sans-Serif" font-size="14.00">mfem::TimeDependentOperator</text>
</a>
</g>
</g>
<!-- Node4&#45;&gt;Node3 -->
<g id="edge3" class="edge">
<title>Node4&#45;&gt;Node3</title>
<path fill="none" stroke="#63b8ff" d="M120.57,-192.97C120.57,-184.63 120.57,-175.17 120.57,-167.25"/>
<polygon fill="#63b8ff" stroke="#63b8ff" points="117.07,-192.72 120.57,-202.72 124.07,-192.72 117.07,-192.72"/>
</g>
<!-- Node5 -->
<g id="node5" class="node">
<title>Node5</title>
<g id="a_node5"><a xlink:href="classmfem_1_1Operator.html" target="_top" xlink:title="Abstract operator.">
<polygon fill="white" stroke="#666666" points="177.59,-285 63.56,-285 63.56,-263 177.59,-263 177.59,-285"/>
<text text-anchor="middle" x="120.57" y="-269.8" font-family="Helvetica,sans-Serif" font-size="14.00">mfem::Operator</text>
</a>
</g>
</g>
<!-- Node5&#45;&gt;Node4 -->
<g id="edge4" class="edge">
<title>Node5&#45;&gt;Node4</title>
<path fill="none" stroke="#63b8ff" d="M120.57,-251.67C120.57,-243.03 120.57,-233.44 120.57,-226.39"/>
<polygon fill="#63b8ff" stroke="#63b8ff" points="117.07,-251.55 120.57,-261.55 124.07,-251.55 117.07,-251.55"/>
</g>
</g>
</svg>
