<?xml version="1.0" encoding="UTF-8" standalone="no"?>
<!DOCTYPE svg PUBLIC "-//W3C//DTD SVG 1.1//EN"
 "http://www.w3.org/Graphics/SVG/1.1/DTD/svg11.dtd">
<!-- Generated by graphviz version 12.0.0 (20240704.0754)
 -->
<!-- Title: mfem::LORSolver&lt; HypreADS &gt; Pages: 1 -->
<svg width="221pt" height="149pt"
 viewBox="0.00 0.00 221.25 149.00" xmlns="http://www.w3.org/2000/svg" xmlns:xlink="http://www.w3.org/1999/xlink">
<g id="graph0" class="graph" transform="scale(1 1) rotate(0) translate(4 145)">
<title>mfem::LORSolver&lt; HypreADS &gt;</title>
<!-- Node1 -->
<g id="Node000001" class="node">
<title>Node1</title>
<g id="a_Node000001"><a xlink:title=" ">
<polygon fill="#999999" stroke="#666666" points="213.25,-23 0,-23 0,0 213.25,0 213.25,-23"/>
<text text-anchor="middle" x="106.63" y="-5.7" font-family="Helvetica,sans-Serif" font-size="14.00">mfem::LORSolver&lt; HypreADS &gt;</text>
</a>
</g>
</g>
<!-- Node2 -->
<g id="Node000002" class="node">
<title>Node2</title>
<g id="a_Node000002"><a xlink:href="classmfem_1_1Solver.html" target="_top" xlink:title="Base class for solvers.">
<polygon fill="white" stroke="#666666" points="155.12,-82 58.13,-82 58.13,-59 155.12,-59 155.12,-82"/>
<text text-anchor="middle" x="106.63" y="-64.7" font-family="Helvetica,sans-Serif" font-size="14.00">mfem::Solver</text>
</a>
</g>
</g>
<!-- Node2&#45;&gt;Node1 -->
<g id="edge1_Node000001_Node000002" class="edge">
<title>Node2&#45;&gt;Node1</title>
<g id="a_edge1_Node000001_Node000002"><a xlink:title=" ">
<path fill="none" stroke="#63b8ff" d="M106.63,-47.08C106.63,-38.96 106.63,-30.15 106.63,-23.46"/>
<polygon fill="#63b8ff" stroke="#63b8ff" points="103.13,-47 106.63,-57 110.13,-47 103.13,-47"/>
</a>
</g>
</g>
<!-- Node3 -->
<g id="Node000003" class="node">
<title>Node3</title>
<g id="a_Node000003"><a xlink:href="classmfem_1_1Operator.html" target="_top" xlink:title="Abstract operator.">
<polygon fill="white" stroke="#666666" points="163,-141 50.25,-141 50.25,-118 163,-118 163,-141"/>
<text text-anchor="middle" x="106.63" y="-123.7" font-family="Helvetica,sans-Serif" font-size="14.00">mfem::Operator</text>
</a>
</g>
</g>
<!-- Node3&#45;&gt;Node2 -->
<g id="edge2_Node000002_Node000003" class="edge">
<title>Node3&#45;&gt;Node2</title>
<g id="a_edge2_Node000002_Node000003"><a xlink:title=" ">
<path fill="none" stroke="#63b8ff" d="M106.63,-106.08C106.63,-97.96 106.63,-89.15 106.63,-82.46"/>
<polygon fill="#63b8ff" stroke="#63b8ff" points="103.13,-106 106.63,-116 110.13,-106 103.13,-106"/>
</a>
</g>
</g>
</g>
</svg>
