<?xml version="1.0" encoding="UTF-8" standalone="no"?>
<!DOCTYPE svg PUBLIC "-//W3C//DTD SVG 1.1//EN"
 "http://www.w3.org/Graphics/SVG/1.1/DTD/svg11.dtd">
<!-- Generated by graphviz version 8.0.5 (0)
 -->
<!-- Title: mfem::DofToQuad Pages: 1 -->
<svg width="524pt" height="632pt"
 viewBox="0.00 0.00 524.46 632.00" xmlns="http://www.w3.org/2000/svg" xmlns:xlink="http://www.w3.org/1999/xlink">
<g id="graph0" class="graph" transform="scale(1 1) rotate(0) translate(4 628)">
<title>mfem::DofToQuad</title>
<!-- Node1 -->
<g id="node1" class="node">
<title>Node1</title>
<g id="a_node1"><a xlink:title="Structure representing the matrices/tensors needed to evaluate (in reference space) the values,...">
<polygon fill="#999999" stroke="#666666" points="321.58,-266 191.98,-266 191.98,-244 321.58,-244 321.58,-266"/>
<text text-anchor="middle" x="256.78" y="-250.8" font-family="Helvetica,sans-Serif" font-size="14.00">mfem::DofToQuad</text>
</a>
</g>
</g>
<!-- Node11 -->
<g id="node11" class="node">
<title>Node11</title>
<g id="a_node11"><a xlink:href="classmfem_1_1Memory.html" target="_top" xlink:title=" ">
<polygon fill="white" stroke="#666666" points="322.98,-194 166.58,-194 166.58,-158 322.98,-158 322.98,-194"/>
<text text-anchor="start" x="174.58" y="-178.8" font-family="Helvetica,sans-Serif" font-size="14.00">mfem::Memory&lt; mfem</text>
<text text-anchor="middle" x="244.78" y="-164.8" font-family="Helvetica,sans-Serif" font-size="14.00">::DofToQuad * &gt;</text>
</a>
</g>
</g>
<!-- Node1&#45;&gt;Node11 -->
<g id="edge11" class="edge">
<title>Node1&#45;&gt;Node11</title>
<path fill="none" stroke="#9a32cd" stroke-dasharray="5,2" d="M253.52,-233.08C251.62,-220.91 249.26,-205.76 247.47,-194.28"/>
<polygon fill="#9a32cd" stroke="#9a32cd" points="250.16,-233.27 255.16,-242.62 257.08,-232.2 250.16,-233.27"/>
<text text-anchor="middle" x="270.68" y="-214.8" font-family="Helvetica,sans-Serif" font-size="14.00"> h_ptr</text>
</g>
<!-- Node2 -->
<g id="node2" class="node">
<title>Node2</title>
<g id="a_node2"><a xlink:href="classmfem_1_1FiniteElement.html" target="_top" xlink:title="Abstract class for all finite elements.">
<polygon fill="white" stroke="#666666" points="363.97,-22 219.59,-22 219.59,0 363.97,0 363.97,-22"/>
<text text-anchor="middle" x="291.78" y="-6.8" font-family="Helvetica,sans-Serif" font-size="14.00">mfem::FiniteElement</text>
</a>
</g>
</g>
<!-- Node2&#45;&gt;Node1 -->
<g id="edge1" class="edge">
<title>Node2&#45;&gt;Node1</title>
<path fill="none" stroke="#9a32cd" stroke-dasharray="5,2" d="M327.04,-28.61C330.93,-31.85 334.35,-35.63 336.78,-40 370.04,-99.86 362.16,-132.63 331.78,-194 320.54,-216.71 296.2,-233.61 278.29,-243.59"/>
<polygon fill="#9a32cd" stroke="#9a32cd" points="329.21,-25.17 318.99,-22.36 325.23,-30.93 329.21,-25.17"/>
<text text-anchor="middle" x="367.67" y="-128.8" font-family="Helvetica,sans-Serif" font-size="14.00"> FE</text>
</g>
<!-- Node3 -->
<g id="node3" class="node">
<title>Node3</title>
<g id="a_node3"><a xlink:href="classmfem_1_1IntegrationRule.html" target="_top" xlink:title="Class for an integration rule &#45; an Array of IntegrationPoint.">
<polygon fill="white" stroke="#666666" points="180.65,-380 26.92,-380 26.92,-358 180.65,-358 180.65,-380"/>
<text text-anchor="middle" x="103.78" y="-364.8" font-family="Helvetica,sans-Serif" font-size="14.00">mfem::IntegrationRule</text>
</a>
</g>
</g>
<!-- Node3&#45;&gt;Node1 -->
<g id="edge12" class="edge">
<title>Node3&#45;&gt;Node1</title>
<path fill="none" stroke="#9a32cd" stroke-dasharray="5,2" d="M124.08,-350.81C145.14,-333.26 179.32,-305.61 210.53,-284 219.48,-277.8 229.82,-271.47 238.45,-266.4"/>
<polygon fill="#9a32cd" stroke="#9a32cd" points="122.31,-348.56 116.9,-357.67 126.81,-353.92 122.31,-348.56"/>
<text text-anchor="middle" x="234.9" y="-307.8" font-family="Helvetica,sans-Serif" font-size="14.00"> IntRule</text>
</g>
<!-- Node3&#45;&gt;Node2 -->
<g id="edge2" class="edge">
<title>Node3&#45;&gt;Node2</title>
<path fill="none" stroke="#9a32cd" stroke-dasharray="5,2" d="M103.78,-346.53C103.78,-323.98 103.78,-287.5 103.78,-256 103.78,-256 103.78,-256 103.78,-89 103.78,-36.98 166.19,-19.34 219.1,-13.74"/>
<polygon fill="#9a32cd" stroke="#9a32cd" points="100.28,-346.5 103.78,-356.5 107.28,-346.5 100.28,-346.5"/>
<text text-anchor="middle" x="125.96" y="-171.8" font-family="Helvetica,sans-Serif" font-size="14.00"> Nodes</text>
</g>
<!-- Node4 -->
<g id="node4" class="node">
<title>Node4</title>
<g id="a_node4"><a xlink:href="classmfem_1_1Array.html" target="_top" xlink:title=" ">
<polygon fill="white" stroke="#666666" points="179.01,-466 8.56,-466 8.56,-430 179.01,-430 179.01,-466"/>
<text text-anchor="start" x="16.56" y="-450.8" font-family="Helvetica,sans-Serif" font-size="14.00">mfem::Array&lt; Integration</text>
<text text-anchor="middle" x="93.78" y="-436.8" font-family="Helvetica,sans-Serif" font-size="14.00">Point &gt;</text>
</a>
</g>
</g>
<!-- Node4&#45;&gt;Node3 -->
<g id="edge3" class="edge">
<title>Node4&#45;&gt;Node3</title>
<path fill="none" stroke="#63b8ff" d="M97.45,-418.76C99.2,-405.24 101.2,-389.89 102.47,-380.09"/>
<polygon fill="#63b8ff" stroke="#63b8ff" points="93.87,-418.16 96.05,-428.53 100.81,-419.06 93.87,-418.16"/>
</g>
<!-- Node5 -->
<g id="node5" class="node">
<title>Node5</title>
<g id="a_node5"><a xlink:href="classmfem_1_1Memory.html" target="_top" xlink:title=" ">
<polygon fill="white" stroke="#666666" points="187.56,-552 0,-552 0,-516 187.56,-516 187.56,-552"/>
<text text-anchor="start" x="8" y="-536.8" font-family="Helvetica,sans-Serif" font-size="14.00">mfem::Memory&lt; Integration</text>
<text text-anchor="middle" x="93.78" y="-522.8" font-family="Helvetica,sans-Serif" font-size="14.00">Point &gt;</text>
</a>
</g>
</g>
<!-- Node5&#45;&gt;Node4 -->
<g id="edge4" class="edge">
<title>Node5&#45;&gt;Node4</title>
<path fill="none" stroke="#9a32cd" stroke-dasharray="5,2" d="M93.78,-504.63C93.78,-491.95 93.78,-477.42 93.78,-466.38"/>
<polygon fill="#9a32cd" stroke="#9a32cd" points="90.28,-504.6 93.78,-514.6 97.28,-504.6 90.28,-504.6"/>
<text text-anchor="middle" x="109.35" y="-486.8" font-family="Helvetica,sans-Serif" font-size="14.00"> data</text>
</g>
<!-- Node6 -->
<g id="node6" class="node">
<title>Node6</title>
<g id="a_node6"><a xlink:href="classmfem_1_1IntegrationPoint.html" target="_top" xlink:title="Class for integration point with weight.">
<polygon fill="white" stroke="#666666" points="172.2,-624 15.36,-624 15.36,-602 172.2,-602 172.2,-624"/>
<text text-anchor="middle" x="93.78" y="-608.8" font-family="Helvetica,sans-Serif" font-size="14.00">mfem::IntegrationPoint</text>
</a>
</g>
</g>
<!-- Node6&#45;&gt;Node5 -->
<g id="edge5" class="edge">
<title>Node6&#45;&gt;Node5</title>
<path fill="none" stroke="#9a32cd" stroke-dasharray="5,2" d="M93.78,-590.7C93.78,-578.6 93.78,-563.64 93.78,-552.28"/>
<polygon fill="#9a32cd" stroke="#9a32cd" points="90.28,-590.62 93.78,-600.62 97.28,-590.62 90.28,-590.62"/>
<text text-anchor="middle" x="111.68" y="-572.8" font-family="Helvetica,sans-Serif" font-size="14.00"> h_ptr</text>
</g>
<!-- Node7 -->
<g id="node7" class="node">
<title>Node7</title>
<g id="a_node7"><a xlink:href="classmfem_1_1DenseMatrix.html" target="_top" xlink:title="Data type dense matrix using column&#45;major storage.">
<polygon fill="white" stroke="#666666" points="516.46,-101 379.1,-101 379.1,-79 516.46,-79 516.46,-101"/>
<text text-anchor="middle" x="447.78" y="-85.8" font-family="Helvetica,sans-Serif" font-size="14.00">mfem::DenseMatrix</text>
</a>
</g>
</g>
<!-- Node7&#45;&gt;Node2 -->
<g id="edge6" class="edge">
<title>Node7&#45;&gt;Node2</title>
<path fill="none" stroke="#9a32cd" stroke-dasharray="5,2" d="M422.71,-72.71C406.55,-62.59 384.87,-49.7 364.78,-40 351.21,-33.45 335.69,-27.32 322.45,-22.47"/>
<polygon fill="#9a32cd" stroke="#9a32cd" points="420.68,-76.2 431,-78.6 424.43,-70.29 420.68,-76.2"/>
<text text-anchor="middle" x="414.3" y="-42.8" font-family="Helvetica,sans-Serif" font-size="14.00"> vshape</text>
</g>
<!-- Node8 -->
<g id="node8" class="node">
<title>Node8</title>
<g id="a_node8"><a xlink:href="classmfem_1_1Matrix.html" target="_top" xlink:title="Abstract data type matrix.">
<polygon fill="white" stroke="#666666" points="496.23,-187 399.34,-187 399.34,-165 496.23,-165 496.23,-187"/>
<text text-anchor="middle" x="447.78" y="-171.8" font-family="Helvetica,sans-Serif" font-size="14.00">mfem::Matrix</text>
</a>
</g>
</g>
<!-- Node8&#45;&gt;Node7 -->
<g id="edge7" class="edge">
<title>Node8&#45;&gt;Node7</title>
<path fill="none" stroke="#63b8ff" d="M447.78,-153.77C447.78,-137.03 447.78,-114.4 447.78,-101.38"/>
<polygon fill="#63b8ff" stroke="#63b8ff" points="444.28,-153.7 447.78,-163.7 451.28,-153.7 444.28,-153.7"/>
</g>
<!-- Node9 -->
<g id="node9" class="node">
<title>Node9</title>
<g id="a_node9"><a xlink:href="classmfem_1_1Operator.html" target="_top" xlink:title="Abstract operator.">
<polygon fill="white" stroke="#666666" points="504.79,-266 390.77,-266 390.77,-244 504.79,-244 504.79,-266"/>
<text text-anchor="middle" x="447.78" y="-250.8" font-family="Helvetica,sans-Serif" font-size="14.00">mfem::Operator</text>
</a>
</g>
</g>
<!-- Node9&#45;&gt;Node8 -->
<g id="edge8" class="edge">
<title>Node9&#45;&gt;Node8</title>
<path fill="none" stroke="#63b8ff" d="M447.78,-232.87C447.78,-218.02 447.78,-198.81 447.78,-187.22"/>
<polygon fill="#63b8ff" stroke="#63b8ff" points="444.28,-232.62 447.78,-242.62 451.28,-232.62 444.28,-232.62"/>
</g>
<!-- Node10 -->
<g id="node10" class="node">
<title>Node10</title>
<g id="a_node10"><a xlink:href="classmfem_1_1Array.html" target="_top" xlink:title=" ">
<polygon fill="white" stroke="#666666" points="310.32,-108 163.24,-108 163.24,-72 310.32,-72 310.32,-108"/>
<text text-anchor="start" x="171.24" y="-92.8" font-family="Helvetica,sans-Serif" font-size="14.00">mfem::Array&lt; mfem::</text>
<text text-anchor="middle" x="236.78" y="-78.8" font-family="Helvetica,sans-Serif" font-size="14.00">DofToQuad * &gt;</text>
</a>
</g>
</g>
<!-- Node10&#45;&gt;Node2 -->
<g id="edge9" class="edge">
<title>Node10&#45;&gt;Node2</title>
<path fill="none" stroke="#9a32cd" stroke-dasharray="5,2" d="M230.22,-61.18C229.89,-53.84 230.93,-46.24 234.82,-40 239.65,-32.24 247.34,-26.56 255.52,-22.44"/>
<polygon fill="#9a32cd" stroke="#9a32cd" points="226.84,-61.42 231.57,-70.9 233.79,-60.54 226.84,-61.42"/>
<text text-anchor="middle" x="286.76" y="-42.8" font-family="Helvetica,sans-Serif" font-size="14.00"> dof2quad_array</text>
</g>
<!-- Node11&#45;&gt;Node10 -->
<g id="edge10" class="edge">
<title>Node11&#45;&gt;Node10</title>
<path fill="none" stroke="#9a32cd" stroke-dasharray="5,2" d="M242.12,-147.02C240.9,-134.25 239.5,-119.53 238.44,-108.38"/>
<polygon fill="#9a32cd" stroke="#9a32cd" points="238.69,-146.97 243.12,-156.6 245.66,-146.31 238.69,-146.97"/>
<text text-anchor="middle" x="257.35" y="-128.8" font-family="Helvetica,sans-Serif" font-size="14.00"> data</text>
</g>
<!-- Node12 -->
<g id="node12" class="node">
<title>Node12</title>
<g id="a_node12"><a xlink:href="classmfem_1_1Array.html" target="_top" xlink:title=" ">
<polygon fill="white" stroke="#666666" points="354.47,-380 203.09,-380 203.09,-358 354.47,-358 354.47,-380"/>
<text text-anchor="middle" x="278.78" y="-364.8" font-family="Helvetica,sans-Serif" font-size="14.00">mfem::Array&lt; real_t &gt;</text>
</a>
</g>
</g>
<!-- Node12&#45;&gt;Node1 -->
<g id="edge13" class="edge">
<title>Node12&#45;&gt;Node1</title>
<path fill="none" stroke="#9a32cd" stroke-dasharray="5,2" d="M274.69,-347.19C269.98,-323.17 262.4,-284.63 258.81,-266.31"/>
<polygon fill="#9a32cd" stroke="#9a32cd" points="271.39,-347.53 276.75,-356.66 278.26,-346.18 271.39,-347.53"/>
<text text-anchor="middle" x="281.17" y="-328.8" font-family="Helvetica,sans-Serif" font-size="14.00"> B</text>
<text text-anchor="middle" x="281.17" y="-314.8" font-family="Helvetica,sans-Serif" font-size="14.00">Bt</text>
<text text-anchor="middle" x="281.17" y="-300.8" font-family="Helvetica,sans-Serif" font-size="14.00">G</text>
<text text-anchor="middle" x="281.17" y="-286.8" font-family="Helvetica,sans-Serif" font-size="14.00">Gt</text>
</g>
<!-- Node13 -->
<g id="node13" class="node">
<title>Node13</title>
<g id="a_node13"><a xlink:href="classmfem_1_1Memory.html" target="_top" xlink:title=" ">
<polygon fill="white" stroke="#666666" points="365.03,-459 196.54,-459 196.54,-437 365.03,-437 365.03,-459"/>
<text text-anchor="middle" x="280.78" y="-443.8" font-family="Helvetica,sans-Serif" font-size="14.00">mfem::Memory&lt; real_t &gt;</text>
</a>
</g>
</g>
<!-- Node13&#45;&gt;Node12 -->
<g id="edge14" class="edge">
<title>Node13&#45;&gt;Node12</title>
<path fill="none" stroke="#9a32cd" stroke-dasharray="5,2" d="M280.23,-425.87C279.85,-411.02 279.35,-391.81 279.05,-380.22"/>
<polygon fill="#9a32cd" stroke="#9a32cd" points="276.75,-425.71 280.51,-435.62 283.75,-425.53 276.75,-425.71"/>
<text text-anchor="middle" x="295.35" y="-400.8" font-family="Helvetica,sans-Serif" font-size="14.00"> data</text>
</g>
</g>
</svg>
