<?xml version="1.0" encoding="UTF-8" standalone="no"?>
<!DOCTYPE svg PUBLIC "-//W3C//DTD SVG 1.1//EN"
 "http://www.w3.org/Graphics/SVG/1.1/DTD/svg11.dtd">
<!-- Generated by graphviz version 8.0.5 (0)
 -->
<!-- Title: mfem::PenaltyPCGSolver Pages: 1 -->
<svg width="189pt" height="334pt"
 viewBox="0.00 0.00 188.96 334.00" xmlns="http://www.w3.org/2000/svg" xmlns:xlink="http://www.w3.org/1999/xlink">
<g id="graph0" class="graph" transform="scale(1 1) rotate(0) translate(4 330)">
<title>mfem::PenaltyPCGSolver</title>
<!-- Node1 -->
<g id="node1" class="node">
<title>Node1</title>
<g id="a_node1"><a xlink:title=" ">
<polygon fill="#999999" stroke="#666666" points="178.23,-22 2.73,-22 2.73,0 178.23,0 178.23,-22"/>
<text text-anchor="middle" x="90.48" y="-6.8" font-family="Helvetica,sans-Serif" font-size="14.00">mfem::PenaltyPCGSolver</text>
</a>
</g>
</g>
<!-- Node2 -->
<g id="node2" class="node">
<title>Node2</title>
<g id="a_node2"><a xlink:href="classmfem_1_1PenaltyConstrainedSolver.html" target="_top" xlink:title="Solve constrained system with penalty method; see ConstrainedSolver.">
<polygon fill="white" stroke="#666666" points="180.96,-94 0,-94 0,-58 180.96,-58 180.96,-94"/>
<text text-anchor="start" x="8" y="-78.8" font-family="Helvetica,sans-Serif" font-size="14.00">mfem::PenaltyConstrained</text>
<text text-anchor="middle" x="90.48" y="-64.8" font-family="Helvetica,sans-Serif" font-size="14.00">Solver</text>
</a>
</g>
</g>
<!-- Node2&#45;&gt;Node1 -->
<g id="edge1" class="edge">
<title>Node2&#45;&gt;Node1</title>
<path fill="none" stroke="#63b8ff" d="M90.48,-47.04C90.48,-38.23 90.48,-29.05 90.48,-22.3"/>
<polygon fill="#63b8ff" stroke="#63b8ff" points="86.98,-46.78 90.48,-56.78 93.98,-46.79 86.98,-46.78"/>
</g>
<!-- Node3 -->
<g id="node3" class="node">
<title>Node3</title>
<g id="a_node3"><a xlink:href="classmfem_1_1ConstrainedSolver.html" target="_top" xlink:title="An abstract class to solve the constrained system &#160;subject to the constraint .">
<polygon fill="white" stroke="#666666" points="177.46,-152 3.51,-152 3.51,-130 177.46,-130 177.46,-152"/>
<text text-anchor="middle" x="90.48" y="-136.8" font-family="Helvetica,sans-Serif" font-size="14.00">mfem::ConstrainedSolver</text>
</a>
</g>
</g>
<!-- Node3&#45;&gt;Node2 -->
<g id="edge2" class="edge">
<title>Node3&#45;&gt;Node2</title>
<path fill="none" stroke="#63b8ff" d="M90.48,-118.81C90.48,-110.76 90.48,-101.7 90.48,-94.07"/>
<polygon fill="#63b8ff" stroke="#63b8ff" points="86.98,-118.6 90.48,-128.6 93.98,-118.6 86.98,-118.6"/>
</g>
<!-- Node4 -->
<g id="node4" class="node">
<title>Node4</title>
<g id="a_node4"><a xlink:href="classmfem_1_1IterativeSolver.html" target="_top" xlink:title="Abstract base class for iterative solver.">
<polygon fill="white" stroke="#666666" points="164.61,-210 16.35,-210 16.35,-188 164.61,-188 164.61,-210"/>
<text text-anchor="middle" x="90.48" y="-194.8" font-family="Helvetica,sans-Serif" font-size="14.00">mfem::IterativeSolver</text>
</a>
</g>
</g>
<!-- Node4&#45;&gt;Node3 -->
<g id="edge3" class="edge">
<title>Node4&#45;&gt;Node3</title>
<path fill="none" stroke="#63b8ff" d="M90.48,-176.75C90.48,-168.34 90.48,-159.06 90.48,-152.21"/>
<polygon fill="#63b8ff" stroke="#63b8ff" points="86.98,-176.73 90.48,-186.73 93.98,-176.73 86.98,-176.73"/>
</g>
<!-- Node5 -->
<g id="node5" class="node">
<title>Node5</title>
<g id="a_node5"><a xlink:href="classmfem_1_1Solver.html" target="_top" xlink:title="Base class for solvers.">
<polygon fill="white" stroke="#666666" points="139.71,-268 41.25,-268 41.25,-246 139.71,-246 139.71,-268"/>
<text text-anchor="middle" x="90.48" y="-252.8" font-family="Helvetica,sans-Serif" font-size="14.00">mfem::Solver</text>
</a>
</g>
</g>
<!-- Node5&#45;&gt;Node4 -->
<g id="edge4" class="edge">
<title>Node5&#45;&gt;Node4</title>
<path fill="none" stroke="#63b8ff" d="M90.48,-234.75C90.48,-226.34 90.48,-217.06 90.48,-210.21"/>
<polygon fill="#63b8ff" stroke="#63b8ff" points="86.98,-234.73 90.48,-244.73 93.98,-234.73 86.98,-234.73"/>
</g>
<!-- Node6 -->
<g id="node6" class="node">
<title>Node6</title>
<g id="a_node6"><a xlink:href="classmfem_1_1Operator.html" target="_top" xlink:title="Abstract operator.">
<polygon fill="white" stroke="#666666" points="147.5,-326 33.47,-326 33.47,-304 147.5,-304 147.5,-326"/>
<text text-anchor="middle" x="90.48" y="-310.8" font-family="Helvetica,sans-Serif" font-size="14.00">mfem::Operator</text>
</a>
</g>
</g>
<!-- Node6&#45;&gt;Node5 -->
<g id="edge5" class="edge">
<title>Node6&#45;&gt;Node5</title>
<path fill="none" stroke="#63b8ff" d="M90.48,-292.75C90.48,-284.34 90.48,-275.06 90.48,-268.21"/>
<polygon fill="#63b8ff" stroke="#63b8ff" points="86.98,-292.73 90.48,-302.73 93.98,-292.73 86.98,-292.73"/>
</g>
</g>
</svg>
