<?xml version="1.0" encoding="UTF-8" standalone="no"?>
<!DOCTYPE svg PUBLIC "-//W3C//DTD SVG 1.1//EN"
 "http://www.w3.org/Graphics/SVG/1.1/DTD/svg11.dtd">
<!-- Generated by graphviz version 12.0.0 (20240704.0754)
 -->
<!-- Title: mfem::ConstrainedSolver Pages: 1 -->
<svg width="902pt" height="256pt"
 viewBox="0.00 0.00 901.75 255.50" xmlns="http://www.w3.org/2000/svg" xmlns:xlink="http://www.w3.org/1999/xlink">
<g id="graph0" class="graph" transform="scale(1 1) rotate(0) translate(4 251.5)">
<title>mfem::ConstrainedSolver</title>
<!-- Node1 -->
<g id="Node000001" class="node">
<title>Node1</title>
<g id="a_Node000001"><a xlink:title="An abstract class to solve the constrained system &#160;subject to the constraint .">
<polygon fill="#999999" stroke="#666666" points="883.25,-98 713.5,-98 713.5,-75 883.25,-75 883.25,-98"/>
<text text-anchor="middle" x="798.38" y="-80.7" font-family="Helvetica,sans-Serif" font-size="14.00">mfem::ConstrainedSolver</text>
</a>
</g>
</g>
<!-- Node2 -->
<g id="Node000002" class="node">
<title>Node2</title>
<g id="a_Node000002"><a xlink:href="classmfem_1_1IterativeSolver.html" target="_top" xlink:title="Abstract base class for iterative solver.">
<polygon fill="white" stroke="#666666" points="578.5,-169 433.5,-169 433.5,-146 578.5,-146 578.5,-169"/>
<text text-anchor="middle" x="506" y="-151.7" font-family="Helvetica,sans-Serif" font-size="14.00">mfem::IterativeSolver</text>
</a>
</g>
</g>
<!-- Node2&#45;&gt;Node1 -->
<g id="edge1_Node000001_Node000002" class="edge">
<title>Node2&#45;&gt;Node1</title>
<g id="a_edge1_Node000001_Node000002"><a xlink:title=" ">
<path fill="none" stroke="#63b8ff" d="M567.02,-142.82C620.82,-129.67 698.74,-110.62 748.73,-98.39"/>
<polygon fill="#63b8ff" stroke="#63b8ff" points="566.28,-139.4 557.4,-145.18 567.95,-146.2 566.28,-139.4"/>
</a>
</g>
</g>
<!-- Node5 -->
<g id="Node000005" class="node">
<title>Node5</title>
<g id="a_Node000005"><a xlink:href="classmfem_1_1IterativeSolverMonitor.html" target="_top" xlink:title="Abstract base class for an iterative solver monitor.">
<polygon fill="white" stroke="#666666" points="893.75,-185 703,-185 703,-162 893.75,-162 893.75,-185"/>
<text text-anchor="middle" x="798.38" y="-167.7" font-family="Helvetica,sans-Serif" font-size="14.00">mfem::IterativeSolverMonitor</text>
</a>
</g>
</g>
<!-- Node2&#45;&gt;Node5 -->
<g id="edge7_Node000005_Node000002" class="edge">
<title>Node2&#45;&gt;Node5</title>
<g id="a_edge7_Node000005_Node000002"><a xlink:title=" ">
<path fill="none" stroke="#9a32cd" stroke-dasharray="5,2" d="M590.22,-151.73C592.33,-151.65 594.43,-151.57 596.5,-151.5 635.81,-150.18 645.85,-147.7 685,-151.5 705.58,-153.5 727.98,-157.5 747.33,-161.55"/>
<polygon fill="#9a32cd" stroke="#9a32cd" points="590.13,-148.23 580.3,-152.19 590.45,-155.23 590.13,-148.23"/>
</a>
</g>
<text text-anchor="middle" x="640.75" y="-153.2" font-family="Helvetica,sans-Serif" font-size="14.00" fill="grey"> iter_solver</text>
</g>
<!-- Node3 -->
<g id="Node000003" class="node">
<title>Node3</title>
<g id="a_Node000003"><a xlink:href="classmfem_1_1Solver.html" target="_top" xlink:title="Base class for solvers.">
<polygon fill="white" stroke="#666666" points="281.62,-189 184.62,-189 184.62,-166 281.62,-166 281.62,-189"/>
<text text-anchor="middle" x="233.12" y="-171.7" font-family="Helvetica,sans-Serif" font-size="14.00">mfem::Solver</text>
</a>
</g>
</g>
<!-- Node3&#45;&gt;Node2 -->
<g id="edge2_Node000002_Node000003" class="edge">
<title>Node3&#45;&gt;Node2</title>
<g id="a_edge2_Node000002_Node000003"><a xlink:title=" ">
<path fill="none" stroke="#63b8ff" d="M293.15,-173.14C334.32,-170.1 389.51,-166.03 433.23,-162.8"/>
<polygon fill="#63b8ff" stroke="#63b8ff" points="293.15,-169.63 283.44,-173.86 293.67,-176.61 293.15,-169.63"/>
</a>
</g>
</g>
<!-- Node3&#45;&gt;Node2 -->
<g id="edge5_Node000002_Node000003" class="edge">
<title>Node3&#45;&gt;Node2</title>
<g id="a_edge5_Node000002_Node000003"><a xlink:title=" ">
<path fill="none" stroke="#9a32cd" stroke-dasharray="5,2" d="M293.06,-175.66C328.58,-174.28 374.69,-172.02 415.5,-168.5 421.27,-168 427.24,-167.42 433.24,-166.79"/>
<polygon fill="#9a32cd" stroke="#9a32cd" points="293.3,-172.15 283.44,-176.02 293.56,-179.14 293.3,-172.15"/>
</a>
</g>
<text text-anchor="middle" x="375" y="-175.2" font-family="Helvetica,sans-Serif" font-size="14.00" fill="grey"> prec</text>
</g>
<!-- Node4 -->
<g id="Node000004" class="node">
<title>Node4</title>
<g id="a_Node000004"><a xlink:href="classmfem_1_1Operator.html" target="_top" xlink:title="Abstract operator.">
<polygon fill="white" stroke="#666666" points="112.75,-144 0,-144 0,-121 112.75,-121 112.75,-144"/>
<text text-anchor="middle" x="56.38" y="-126.7" font-family="Helvetica,sans-Serif" font-size="14.00">mfem::Operator</text>
</a>
</g>
</g>
<!-- Node4&#45;&gt;Node1 -->
<g id="edge9_Node000001_Node000004" class="edge">
<title>Node4&#45;&gt;Node1</title>
<g id="a_edge9_Node000001_Node000004"><a xlink:title=" ">
<path fill="none" stroke="#9a32cd" stroke-dasharray="5,2" d="M124.28,-126.32C180.38,-121.29 262.62,-114.27 334.5,-109.5 466.77,-100.73 620.5,-93.72 713.29,-89.84"/>
<polygon fill="#9a32cd" stroke="#9a32cd" points="124.22,-122.81 114.58,-127.2 124.85,-129.78 124.22,-122.81"/>
</a>
</g>
<text text-anchor="middle" x="375" y="-126.2" font-family="Helvetica,sans-Serif" font-size="14.00" fill="grey"> A</text>
<text text-anchor="middle" x="375" y="-111.2" font-family="Helvetica,sans-Serif" font-size="14.00" fill="grey">B</text>
</g>
<!-- Node4&#45;&gt;Node2 -->
<g id="edge4_Node000002_Node000004" class="edge">
<title>Node4&#45;&gt;Node2</title>
<g id="a_edge4_Node000002_Node000004"><a xlink:title=" ">
<path fill="none" stroke="#9a32cd" stroke-dasharray="5,2" d="M124.49,-134.34C176.83,-135.95 251.32,-138.65 316.5,-142.5 355.17,-144.78 398.24,-148.15 433.44,-151.11"/>
<polygon fill="#9a32cd" stroke="#9a32cd" points="124.62,-130.84 114.52,-134.04 124.41,-137.84 124.62,-130.84"/>
</a>
</g>
<text text-anchor="middle" x="233.12" y="-144.2" font-family="Helvetica,sans-Serif" font-size="14.00" fill="grey"> oper</text>
</g>
<!-- Node4&#45;&gt;Node3 -->
<g id="edge3_Node000003_Node000004" class="edge">
<title>Node4&#45;&gt;Node3</title>
<g id="a_edge3_Node000003_Node000004"><a xlink:title=" ">
<path fill="none" stroke="#63b8ff" d="M114.73,-147.27C137.68,-153.18 163.78,-159.9 185.54,-165.5"/>
<polygon fill="#63b8ff" stroke="#63b8ff" points="115.77,-143.92 105.21,-144.82 114.02,-150.7 115.77,-143.92"/>
</a>
</g>
</g>
<!-- Node5&#45;&gt;Node2 -->
<g id="edge6_Node000002_Node000005" class="edge">
<title>Node5&#45;&gt;Node2</title>
<g id="a_edge6_Node000002_Node000005"><a xlink:title=" ">
<path fill="none" stroke="#9a32cd" stroke-dasharray="5,2" d="M691.56,-174.48C660.86,-174.07 627.31,-172.96 596.5,-170.5 590.71,-170.04 584.72,-169.44 578.72,-168.75"/>
<polygon fill="#9a32cd" stroke="#9a32cd" points="691.18,-177.98 701.22,-174.58 691.26,-170.98 691.18,-177.98"/>
</a>
</g>
<text text-anchor="middle" x="640.75" y="-175.2" font-family="Helvetica,sans-Serif" font-size="14.00" fill="grey"> monitor</text>
</g>
<!-- Node6 -->
<g id="Node000006" class="node">
<title>Node6</title>
<g id="a_Node000006"><a xlink:href="structmfem_1_1IterativeSolver_1_1PrintLevel.html" target="_top" xlink:title="Settings for the output behavior of the IterativeSolver.">
<polygon fill="white" stroke="#666666" points="305.62,-247.5 160.62,-247.5 160.62,-209.5 305.62,-209.5 305.62,-247.5"/>
<text text-anchor="start" x="168.62" y="-230.2" font-family="Helvetica,sans-Serif" font-size="14.00">mfem::IterativeSolver</text>
<text text-anchor="middle" x="233.12" y="-215.2" font-family="Helvetica,sans-Serif" font-size="14.00">::PrintLevel</text>
</a>
</g>
</g>
<!-- Node6&#45;&gt;Node2 -->
<g id="edge8_Node000002_Node000006" class="edge">
<title>Node6&#45;&gt;Node2</title>
<g id="a_edge8_Node000002_Node000006"><a xlink:title=" ">
<path fill="none" stroke="#9a32cd" stroke-dasharray="5,2" d="M317.15,-215.21C348.29,-209.4 383.8,-201.76 415.5,-192.5 436.96,-186.23 460.47,-176.93 478.01,-169.5"/>
<polygon fill="#9a32cd" stroke="#9a32cd" points="316.59,-211.76 307.38,-217 317.85,-218.64 316.59,-211.76"/>
</a>
</g>
<text text-anchor="middle" x="375" y="-212.2" font-family="Helvetica,sans-Serif" font-size="14.00" fill="grey"> print_options</text>
</g>
<!-- Node7 -->
<g id="Node000007" class="node">
<title>Node7</title>
<g id="a_Node000007"><a xlink:href="classmfem_1_1Vector.html" target="_top" xlink:title="Vector data type.">
<polygon fill="white" stroke="#666666" points="554.88,-23 457.12,-23 457.12,0 554.88,0 554.88,-23"/>
<text text-anchor="middle" x="506" y="-5.7" font-family="Helvetica,sans-Serif" font-size="14.00">mfem::Vector</text>
</a>
</g>
</g>
<!-- Node7&#45;&gt;Node1 -->
<g id="edge10_Node000001_Node000007" class="edge">
<title>Node7&#45;&gt;Node1</title>
<g id="a_edge10_Node000001_Node000007"><a xlink:title=" ">
<path fill="none" stroke="#9a32cd" stroke-dasharray="5,2" d="M566.39,-3.5C601.61,-0.78 646.7,-0.91 685,-12.5 725.69,-24.82 765.32,-57.02 784.83,-74.61"/>
<polygon fill="#9a32cd" stroke="#9a32cd" points="566.49,0.03 556.83,-4.33 567.1,-6.95 566.49,0.03"/>
</a>
</g>
<text text-anchor="middle" x="640.75" y="-59.2" font-family="Helvetica,sans-Serif" font-size="14.00" fill="grey"> constraint_rhs</text>
<text text-anchor="middle" x="640.75" y="-44.2" font-family="Helvetica,sans-Serif" font-size="14.00" fill="grey">multiplier_sol</text>
<text text-anchor="middle" x="640.75" y="-29.2" font-family="Helvetica,sans-Serif" font-size="14.00" fill="grey">workb</text>
<text text-anchor="middle" x="640.75" y="-14.2" font-family="Helvetica,sans-Serif" font-size="14.00" fill="grey">workx</text>
</g>
<!-- Node8 -->
<g id="Node000008" class="node">
<title>Node8</title>
<g id="a_Node000008"><a xlink:href="classmfem_1_1Memory.html" target="_top" xlink:title=" ">
<polygon fill="white" stroke="#666666" points="316.5,-23 149.75,-23 149.75,0 316.5,0 316.5,-23"/>
<text text-anchor="middle" x="233.12" y="-5.7" font-family="Helvetica,sans-Serif" font-size="14.00">mfem::Memory&lt; real_t &gt;</text>
</a>
</g>
</g>
<!-- Node8&#45;&gt;Node7 -->
<g id="edge11_Node000007_Node000008" class="edge">
<title>Node8&#45;&gt;Node7</title>
<g id="a_edge11_Node000007_Node000008"><a xlink:title=" ">
<path fill="none" stroke="#9a32cd" stroke-dasharray="5,2" d="M328.34,-11.5C371.75,-11.5 421.41,-11.5 457,-11.5"/>
<polygon fill="#9a32cd" stroke="#9a32cd" points="328.38,-8 318.38,-11.5 328.38,-15 328.38,-8"/>
</a>
</g>
<text text-anchor="middle" x="375" y="-13.2" font-family="Helvetica,sans-Serif" font-size="14.00" fill="grey"> data</text>
</g>
</g>
</svg>
