<?xml version="1.0" encoding="UTF-8" standalone="no"?>
<!DOCTYPE svg PUBLIC "-//W3C//DTD SVG 1.1//EN"
 "http://www.w3.org/Graphics/SVG/1.1/DTD/svg11.dtd">
<!-- Generated by graphviz version 12.0.0 (20240704.0754)
 -->
<!-- Title: mfem::PositiveTensorFiniteElement Pages: 1 -->
<!--zoomable 268 -->

<svg id="main" version="1.1" xmlns="http://www.w3.org/2000/svg" xmlns:xlink="http://www.w3.org/1999/xlink" xml:space="preserve" onload="init(evt)">
<style type="text/css"><![CDATA[
.node, .edge {opacity: 0.7;}
.node.selected, .edge.selected {opacity: 1;}
.edge:hover path { stroke: red; }
.edge:hover polygon { stroke: red; fill: red; }
]]></style>

<defs>
  <circle id="rim" cx="0" cy="0" r="7"/>
  <circle id="rim2" cx="0" cy="0" r="3.5"/>
  <g id="zoomPlus">
    <use xlink:href="#rim" fill="#404040"><set attributeName="fill" to="#808080" begin="zoomplus.mouseover" end="zoomplus.mouseout"/></use>
    <path d="M-4,0h8M0,-4v8" fill="none" stroke="white" stroke-width="1.5" pointer-events="none"/>
  </g>
  <g id="zoomMin">
    <use xlink:href="#rim" fill="#404040"><set attributeName="fill" to="#808080" begin="zoomminus.mouseover" end="zoomminus.mouseout"/></use>
    <path d="M-4,0h8" fill="none" stroke="white" stroke-width="1.5" pointer-events="none"/>
  </g>
  <g id="arrowUp" transform="translate(30 24)">
    <use xlink:href="#rim"/>
    <path pointer-events="none" fill="none" stroke="white" stroke-width="1.5" d="M0,-3.0v7 M-2.5,-0.5L0,-3.0L2.5,-0.5"/>
  </g>
  <g id="arrowRight" transform="rotate(90) translate(36 -43)">
    <use xlink:href="#rim"/>
    <path pointer-events="none" fill="none" stroke="white" stroke-width="1.5" d="M0,-3.0v7 M-2.5,-0.5L0,-3.0L2.5,-0.5"/>
  </g>
  <g id="arrowDown" transform="rotate(180) translate(-30 -48)">
    <use xlink:href="#rim"/>
    <path pointer-events="none" fill="none" stroke="white" stroke-width="1.5" d="M0,-3.0v7 M-2.5,-0.5L0,-3.0L2.5,-0.5"/>
  </g>
  <g id="arrowLeft" transform="rotate(270) translate(-36 17)">
    <use xlink:href="#rim"/>
    <path pointer-events="none" fill="none" stroke="white" stroke-width="1.5" d="M0,-3.0v7 M-2.5,-0.5L0,-3.0L2.5,-0.5"/>
  </g>
  <g id="resetDef">
    <use xlink:href="#rim2" fill="#404040"><set attributeName="fill" to="#808080" begin="reset.mouseover" end="reset.mouseout"/></use>
  </g>
</defs>
<script type="application/ecmascript">
var viewWidth = 1074;
var viewHeight = 268;
var sectionId = 'dynsection-0';
</script>
<script type="application/ecmascript" xlink:href="svg.min.js"/>
<svg id="graph" class="graph">
<g id="viewport">
<title>mfem::PositiveTensorFiniteElement</title>
<!-- Node1 -->
<g id="Node000001" class="node">
<title>Node1</title>
<g id="a_Node000001"><a xlink:title=" ">
<polygon fill="#999999" stroke="#666666" points="799,-148.5 619.5,-148.5 619.5,-110.5 799,-110.5 799,-148.5"/>
<text text-anchor="start" x="627.5" y="-131.2" font-family="Helvetica,sans-Serif" font-size="14.00">mfem::PositiveTensorFinite</text>
<text text-anchor="middle" x="709.25" y="-116.2" font-family="Helvetica,sans-Serif" font-size="14.00">Element</text>
</a>
</g>
</g>
<!-- Node6 -->
<g id="Node000006" class="node">
<title>Node6</title>
<g id="a_Node000006"><a xlink:href="classmfem_1_1H1Pos__HexahedronElement.html" target="_top" xlink:title="Arbitrary order H1 elements in 3D utilizing the Bernstein basis on a cube.">
<polygon fill="white" stroke="#666666" points="1065.5,-260 835,-260 835,-237 1065.5,-237 1065.5,-260"/>
<text text-anchor="middle" x="950.25" y="-242.7" font-family="Helvetica,sans-Serif" font-size="14.00">mfem::H1Pos_HexahedronElement</text>
</a>
</g>
</g>
<!-- Node1&#45;&gt;Node6 -->
<g id="edge5_Node000001_Node000006" class="edge">
<title>Node1&#45;&gt;Node6</title>
<g id="a_edge5_Node000001_Node000006"><a xlink:title=" ">
<path fill="none" stroke="#63b8ff" d="M736.67,-156.62C760.3,-179.21 796.99,-210.35 835,-227.5 843,-231.11 851.57,-234.1 860.3,-236.57"/>
<polygon fill="#63b8ff" stroke="#63b8ff" points="739.26,-154.26 729.66,-149.79 734.38,-159.27 739.26,-154.26"/>
</a>
</g>
</g>
<!-- Node7 -->
<g id="Node000007" class="node">
<title>Node7</title>
<g id="a_Node000007"><a xlink:href="classmfem_1_1H1Pos__QuadrilateralElement.html" target="_top" xlink:title="Arbitrary order H1 elements in 2D utilizing the Bernstein basis on a square.">
<polygon fill="white" stroke="#666666" points="1042.62,-218.5 857.88,-218.5 857.88,-180.5 1042.62,-180.5 1042.62,-218.5"/>
<text text-anchor="start" x="865.88" y="-201.2" font-family="Helvetica,sans-Serif" font-size="14.00">mfem::H1Pos_Quadrilateral</text>
<text text-anchor="middle" x="950.25" y="-186.2" font-family="Helvetica,sans-Serif" font-size="14.00">Element</text>
</a>
</g>
</g>
<!-- Node1&#45;&gt;Node7 -->
<g id="edge6_Node000001_Node000007" class="edge">
<title>Node1&#45;&gt;Node7</title>
<g id="a_edge6_Node000001_Node000007"><a xlink:title=" ">
<path fill="none" stroke="#63b8ff" d="M775.3,-152.56C794.43,-159.02 815.46,-165.83 835,-171.5 845.1,-174.43 855.76,-177.32 866.35,-180.06"/>
<polygon fill="#63b8ff" stroke="#63b8ff" points="776.61,-149.31 766.02,-149.39 774.36,-155.93 776.61,-149.31"/>
</a>
</g>
</g>
<!-- Node8 -->
<g id="Node000008" class="node">
<title>Node8</title>
<g id="a_Node000008"><a xlink:href="classmfem_1_1H1Pos__SegmentElement.html" target="_top" xlink:title="Arbitrary order H1 elements in 1D utilizing the Bernstein basis.">
<polygon fill="white" stroke="#666666" points="1056.12,-162 844.38,-162 844.38,-139 1056.12,-139 1056.12,-162"/>
<text text-anchor="middle" x="950.25" y="-144.7" font-family="Helvetica,sans-Serif" font-size="14.00">mfem::H1Pos_SegmentElement</text>
</a>
</g>
</g>
<!-- Node1&#45;&gt;Node8 -->
<g id="edge7_Node000001_Node000008" class="edge">
<title>Node1&#45;&gt;Node8</title>
<g id="a_edge7_Node000001_Node000008"><a xlink:title=" ">
<path fill="none" stroke="#63b8ff" d="M810.65,-138.32C821.69,-139.29 832.95,-140.28 844.04,-141.26"/>
<polygon fill="#63b8ff" stroke="#63b8ff" points="811.02,-134.84 800.75,-137.45 810.41,-141.81 811.02,-134.84"/>
</a>
</g>
</g>
<!-- Node9 -->
<g id="Node000009" class="node">
<title>Node9</title>
<g id="a_Node000009"><a xlink:href="classmfem_1_1L2Pos__HexahedronElement.html" target="_top" xlink:title="Arbitrary order L2 elements in 3D utilizing the Bernstein basis on a cube.">
<polygon fill="white" stroke="#666666" points="1064.38,-121 836.12,-121 836.12,-98 1064.38,-98 1064.38,-121"/>
<text text-anchor="middle" x="950.25" y="-103.7" font-family="Helvetica,sans-Serif" font-size="14.00">mfem::L2Pos_HexahedronElement</text>
</a>
</g>
</g>
<!-- Node1&#45;&gt;Node9 -->
<g id="edge8_Node000001_Node000009" class="edge">
<title>Node1&#45;&gt;Node9</title>
<g id="a_edge8_Node000001_Node000009"><a xlink:title=" ">
<path fill="none" stroke="#63b8ff" d="M810.55,-121.11C818.92,-120.41 827.41,-119.7 835.86,-118.99"/>
<polygon fill="#63b8ff" stroke="#63b8ff" points="810.43,-117.6 800.75,-121.93 811.01,-124.58 810.43,-117.6"/>
</a>
</g>
</g>
<!-- Node10 -->
<g id="Node000010" class="node">
<title>Node10</title>
<g id="a_Node000010"><a xlink:href="classmfem_1_1L2Pos__QuadrilateralElement.html" target="_top" xlink:title="Arbitrary order L2 elements in 2D utilizing the Bernstein basis on a square.">
<polygon fill="white" stroke="#666666" points="1041.5,-79.5 859,-79.5 859,-41.5 1041.5,-41.5 1041.5,-79.5"/>
<text text-anchor="start" x="867" y="-62.2" font-family="Helvetica,sans-Serif" font-size="14.00">mfem::L2Pos_Quadrilateral</text>
<text text-anchor="middle" x="950.25" y="-47.2" font-family="Helvetica,sans-Serif" font-size="14.00">Element</text>
</a>
</g>
</g>
<!-- Node1&#45;&gt;Node10 -->
<g id="edge9_Node000001_Node000010" class="edge">
<title>Node1&#45;&gt;Node10</title>
<g id="a_edge9_Node000001_Node000010"><a xlink:title=" ">
<path fill="none" stroke="#63b8ff" d="M776.95,-106.52C795.64,-100.37 816.04,-93.93 835,-88.5 845.21,-85.58 855.98,-82.68 866.68,-79.93"/>
<polygon fill="#63b8ff" stroke="#63b8ff" points="775.99,-103.16 767.6,-109.63 778.2,-109.8 775.99,-103.16"/>
</a>
</g>
</g>
<!-- Node11 -->
<g id="Node000011" class="node">
<title>Node11</title>
<g id="a_Node000011"><a xlink:href="classmfem_1_1L2Pos__SegmentElement.html" target="_top" xlink:title="Arbitrary order L2 elements in 1D utilizing the Bernstein basis on a segment.">
<polygon fill="white" stroke="#666666" points="1055,-23 845.5,-23 845.5,0 1055,0 1055,-23"/>
<text text-anchor="middle" x="950.25" y="-5.7" font-family="Helvetica,sans-Serif" font-size="14.00">mfem::L2Pos_SegmentElement</text>
</a>
</g>
</g>
<!-- Node1&#45;&gt;Node11 -->
<g id="edge10_Node000001_Node000011" class="edge">
<title>Node1&#45;&gt;Node11</title>
<g id="a_edge10_Node000001_Node000011"><a xlink:title=" ">
<path fill="none" stroke="#63b8ff" d="M737.14,-102.27C760.82,-79.95 797.32,-49.39 835,-32.5 843.01,-28.91 851.59,-25.94 860.32,-23.47"/>
<polygon fill="#63b8ff" stroke="#63b8ff" points="734.9,-99.57 730.11,-109.03 739.75,-104.62 734.9,-99.57"/>
</a>
</g>
</g>
<!-- Node2 -->
<g id="Node000002" class="node">
<title>Node2</title>
<g id="a_Node000002"><a xlink:href="classmfem_1_1PositiveFiniteElement.html" target="_top" xlink:title="Class for finite elements utilizing the always positive Bernstein basis.">
<polygon fill="white" stroke="#666666" points="583.5,-162 394.25,-162 394.25,-139 583.5,-139 583.5,-162"/>
<text text-anchor="middle" x="488.88" y="-144.7" font-family="Helvetica,sans-Serif" font-size="14.00">mfem::PositiveFiniteElement</text>
</a>
</g>
</g>
<!-- Node2&#45;&gt;Node1 -->
<g id="edge1_Node000001_Node000002" class="edge">
<title>Node2&#45;&gt;Node1</title>
<g id="a_edge1_Node000001_Node000002"><a xlink:title=" ">
<path fill="none" stroke="#63b8ff" d="M595.14,-140.38C603.22,-139.6 611.33,-138.82 619.29,-138.05"/>
<polygon fill="#63b8ff" stroke="#63b8ff" points="594.88,-136.89 585.26,-141.33 595.55,-143.85 594.88,-136.89"/>
</a>
</g>
</g>
<!-- Node3 -->
<g id="Node000003" class="node">
<title>Node3</title>
<g id="a_Node000003"><a xlink:href="classmfem_1_1ScalarFiniteElement.html" target="_top" xlink:title="Class for finite elements with basis functions that return scalar values.">
<polygon fill="white" stroke="#666666" points="358.25,-162 178,-162 178,-139 358.25,-139 358.25,-162"/>
<text text-anchor="middle" x="268.12" y="-144.7" font-family="Helvetica,sans-Serif" font-size="14.00">mfem::ScalarFiniteElement</text>
</a>
</g>
</g>
<!-- Node3&#45;&gt;Node2 -->
<g id="edge2_Node000002_Node000003" class="edge">
<title>Node3&#45;&gt;Node2</title>
<g id="a_edge2_Node000002_Node000003"><a xlink:title=" ">
<path fill="none" stroke="#63b8ff" d="M370.19,-150.5C378.06,-150.5 385.98,-150.5 393.79,-150.5"/>
<polygon fill="#63b8ff" stroke="#63b8ff" points="370.24,-147 360.24,-150.5 370.24,-154 370.24,-147"/>
</a>
</g>
</g>
<!-- Node4 -->
<g id="Node000004" class="node">
<title>Node4</title>
<g id="a_Node000004"><a xlink:href="classmfem_1_1FiniteElement.html" target="_top" xlink:title="Abstract class for all finite elements.">
<polygon fill="white" stroke="#666666" points="142,-162 0,-162 0,-139 142,-139 142,-162"/>
<text text-anchor="middle" x="71" y="-144.7" font-family="Helvetica,sans-Serif" font-size="14.00">mfem::FiniteElement</text>
</a>
</g>
</g>
<!-- Node4&#45;&gt;Node3 -->
<g id="edge3_Node000003_Node000004" class="edge">
<title>Node4&#45;&gt;Node3</title>
<g id="a_edge3_Node000003_Node000004"><a xlink:title=" ">
<path fill="none" stroke="#63b8ff" d="M153.88,-150.5C161.77,-150.5 169.8,-150.5 177.75,-150.5"/>
<polygon fill="#63b8ff" stroke="#63b8ff" points="153.96,-147 143.96,-150.5 153.96,-154 153.96,-147"/>
</a>
</g>
</g>
<!-- Node5 -->
<g id="Node000005" class="node">
<title>Node5</title>
<g id="a_Node000005"><a xlink:href="classmfem_1_1TensorBasisElement.html" target="_top" xlink:title=" ">
<polygon fill="white" stroke="#666666" points="580.12,-121 397.62,-121 397.62,-98 580.12,-98 580.12,-121"/>
<text text-anchor="middle" x="488.88" y="-103.7" font-family="Helvetica,sans-Serif" font-size="14.00">mfem::TensorBasisElement</text>
</a>
</g>
</g>
<!-- Node5&#45;&gt;Node1 -->
<g id="edge4_Node000001_Node000005" class="edge">
<title>Node5&#45;&gt;Node1</title>
<g id="a_edge4_Node000001_Node000005"><a xlink:title=" ">
<path fill="none" stroke="#63b8ff" d="M592.04,-118.86C601.12,-119.69 610.26,-120.53 619.22,-121.35"/>
<polygon fill="#63b8ff" stroke="#63b8ff" points="592.37,-115.37 582.1,-117.95 591.73,-122.34 592.37,-115.37"/>
</a>
</g>
</g>
</g>
</svg>

<g id="navigator" transform="translate(0 0)" fill="#404254">
  <rect fill="#f2f5e9" fill-opacity="0.5" stroke="#606060" stroke-width=".5" x="0" y="0" width="60" height="60"/>
  <use id="zoomplus" xlink:href="#zoomPlus" x="17" y="9" onmousedown="handleZoom(evt,'in')"/>
  <use id="zoomminus" xlink:href="#zoomMin" x="42" y="9" onmousedown="handleZoom(evt,'out')"/>
  <use id="reset" xlink:href="#resetDef" x="30" y="36" onmousedown="handleReset()"/>
   <use id="arrowup" xlink:href="#arrowUp" x="0" y="0" onmousedown="handlePan(0,-1)"/>
  <use id="arrowright" xlink:href="#arrowRight" x="0" y="0" onmousedown="handlePan(1,0)"/>
  <use id="arrowdown" xlink:href="#arrowDown" x="0" y="0" onmousedown="handlePan(0,1)"/>
  <use id="arrowleft" xlink:href="#arrowLeft" x="0" y="0" onmousedown="handlePan(-1,0)"/>
</g>
<svg viewBox="0 0 15 15" width="100%" height="30px" preserveAspectRatio="xMaxYMin meet">
 <g id="arrow_out" transform="scale(0.3 0.3)">
  <a xlink:href="classmfem_1_1PositiveTensorFiniteElement__inherit__graph_org.svg" target="_base">
   <rect id="button" ry="5" rx="5" y="6" x="6" height="38" width="38"
        fill="#f2f5e9" fill-opacity="0.5" stroke="#606060" stroke-width="1.0"/>
   <path id="arrow"
     d="M 11.500037,31.436501 C 11.940474,20.09759 22.043105,11.32322 32.158766,21.979434 L 37.068811,17.246167 C 37.068811,17.246167 37.088388,32 37.088388,32 L 22.160133,31.978069 C 22.160133,31.978069 26.997745,27.140456 26.997745,27.140456 C 18.528582,18.264221 13.291696,25.230495 11.500037,31.436501 z"
     style="fill:#404040;"/>
  </a>
 </g>
</svg>

<style type='text/css'>
<![CDATA[
[data-mouse-over-selected='false'] { opacity: 0.7; }
[data-mouse-over-selected='true']  { opacity: 1.0; }
]]>
</style>
<script type="application/ecmascript"><![CDATA[
document.addEventListener('DOMContentLoaded', (event) => {
  highlightEdges();
  highlightAdjacentNodes();
});
]]></script>
</svg>
