<?xml version="1.0" encoding="UTF-8" standalone="no"?>
<!DOCTYPE svg PUBLIC "-//W3C//DTD SVG 1.1//EN"
 "http://www.w3.org/Graphics/SVG/1.1/DTD/svg11.dtd">
<!-- Generated by graphviz version 8.0.5 (0)
 -->
<!-- Title: mfem::ARKStepSolver Pages: 1 -->
<svg width="306pt" height="88pt"
 viewBox="0.00 0.00 306.48 88.00" xmlns="http://www.w3.org/2000/svg" xmlns:xlink="http://www.w3.org/1999/xlink">
<g id="graph0" class="graph" transform="scale(1 1) rotate(0) translate(4 84)">
<title>mfem::ARKStepSolver</title>
<!-- Node1 -->
<g id="node1" class="node">
<title>Node1</title>
<g id="a_node1"><a xlink:title="Interface to ARKode&#39;s ARKStep module – additive Runge&#45;Kutta methods.">
<polygon fill="#999999" stroke="#666666" points="221.42,-22 65.38,-22 65.38,0 221.42,0 221.42,-22"/>
<text text-anchor="middle" x="143.4" y="-6.8" font-family="Helvetica,sans-Serif" font-size="14.00">mfem::ARKStepSolver</text>
</a>
</g>
</g>
<!-- Node2 -->
<g id="node2" class="node">
<title>Node2</title>
<g id="a_node2"><a xlink:href="classmfem_1_1ODESolver.html" target="_top" xlink:title="Abstract class for solving systems of ODEs: dx/dt = f(x,t)">
<polygon fill="white" stroke="#666666" points="128.8,-80 0,-80 0,-58 128.8,-58 128.8,-80"/>
<text text-anchor="middle" x="64.4" y="-64.8" font-family="Helvetica,sans-Serif" font-size="14.00">mfem::ODESolver</text>
</a>
</g>
</g>
<!-- Node2&#45;&gt;Node1 -->
<g id="edge1" class="edge">
<title>Node2&#45;&gt;Node1</title>
<path fill="none" stroke="#63b8ff" d="M87.53,-51.6C100.85,-42.16 117.18,-30.59 128.73,-22.4"/>
<polygon fill="#63b8ff" stroke="#63b8ff" points="86.02,-49.09 79.89,-57.73 90.07,-54.8 86.02,-49.09"/>
</g>
<!-- Node3 -->
<g id="node3" class="node">
<title>Node3</title>
<g id="a_node3"><a xlink:href="classmfem_1_1SundialsSolver.html" target="_top" xlink:title="Base class for interfacing with SUNDIALS packages.">
<polygon fill="white" stroke="#666666" points="298.48,-80 146.32,-80 146.32,-58 298.48,-58 298.48,-80"/>
<text text-anchor="middle" x="222.4" y="-64.8" font-family="Helvetica,sans-Serif" font-size="14.00">mfem::SundialsSolver</text>
</a>
</g>
</g>
<!-- Node3&#45;&gt;Node1 -->
<g id="edge2" class="edge">
<title>Node3&#45;&gt;Node1</title>
<path fill="none" stroke="#63b8ff" d="M199.27,-51.6C185.95,-42.16 169.62,-30.59 158.07,-22.4"/>
<polygon fill="#63b8ff" stroke="#63b8ff" points="196.73,-54.8 206.91,-57.73 200.78,-49.09 196.73,-54.8"/>
</g>
</g>
</svg>
