<?xml version="1.0" encoding="UTF-8" standalone="no"?>
<!DOCTYPE svg PUBLIC "-//W3C//DTD SVG 1.1//EN"
 "http://www.w3.org/Graphics/SVG/1.1/DTD/svg11.dtd">
<!-- Generated by graphviz version 12.0.0 (20240704.0754)
 -->
<!-- Title: Gecko::Functional Pages: 1 -->
<!--zoomable 154 -->

<svg id="main" version="1.1" xmlns="http://www.w3.org/2000/svg" xmlns:xlink="http://www.w3.org/1999/xlink" xml:space="preserve" onload="init(evt)">
<style type="text/css"><![CDATA[
.node, .edge {opacity: 0.7;}
.node.selected, .edge.selected {opacity: 1;}
.edge:hover path { stroke: red; }
.edge:hover polygon { stroke: red; fill: red; }
]]></style>

<defs>
  <circle id="rim" cx="0" cy="0" r="7"/>
  <circle id="rim2" cx="0" cy="0" r="3.5"/>
  <g id="zoomPlus">
    <use xlink:href="#rim" fill="#404040"><set attributeName="fill" to="#808080" begin="zoomplus.mouseover" end="zoomplus.mouseout"/></use>
    <path d="M-4,0h8M0,-4v8" fill="none" stroke="white" stroke-width="1.5" pointer-events="none"/>
  </g>
  <g id="zoomMin">
    <use xlink:href="#rim" fill="#404040"><set attributeName="fill" to="#808080" begin="zoomminus.mouseover" end="zoomminus.mouseout"/></use>
    <path d="M-4,0h8" fill="none" stroke="white" stroke-width="1.5" pointer-events="none"/>
  </g>
  <g id="arrowUp" transform="translate(30 24)">
    <use xlink:href="#rim"/>
    <path pointer-events="none" fill="none" stroke="white" stroke-width="1.5" d="M0,-3.0v7 M-2.5,-0.5L0,-3.0L2.5,-0.5"/>
  </g>
  <g id="arrowRight" transform="rotate(90) translate(36 -43)">
    <use xlink:href="#rim"/>
    <path pointer-events="none" fill="none" stroke="white" stroke-width="1.5" d="M0,-3.0v7 M-2.5,-0.5L0,-3.0L2.5,-0.5"/>
  </g>
  <g id="arrowDown" transform="rotate(180) translate(-30 -48)">
    <use xlink:href="#rim"/>
    <path pointer-events="none" fill="none" stroke="white" stroke-width="1.5" d="M0,-3.0v7 M-2.5,-0.5L0,-3.0L2.5,-0.5"/>
  </g>
  <g id="arrowLeft" transform="rotate(270) translate(-36 17)">
    <use xlink:href="#rim"/>
    <path pointer-events="none" fill="none" stroke="white" stroke-width="1.5" d="M0,-3.0v7 M-2.5,-0.5L0,-3.0L2.5,-0.5"/>
  </g>
  <g id="resetDef">
    <use xlink:href="#rim2" fill="#404040"><set attributeName="fill" to="#808080" begin="reset.mouseover" end="reset.mouseout"/></use>
  </g>
</defs>
<script type="application/ecmascript">
var viewWidth = 599;
var viewHeight = 154;
var sectionId = 'dynsection-0';
</script>
<script type="application/ecmascript" xlink:href="svg.min.js"/>
<svg id="graph" class="graph">
<g id="viewport">
<title>Gecko::Functional</title>
<!-- Node1 -->
<g id="Node000001" class="node">
<title>Node1</title>
<g id="a_Node000001"><a xlink:title=" ">
<polygon fill="#999999" stroke="#666666" points="125.5,-84 0,-84 0,-61 125.5,-61 125.5,-84"/>
<text text-anchor="middle" x="62.75" y="-66.7" font-family="Helvetica,sans-Serif" font-size="14.00">Gecko::Functional</text>
</a>
</g>
</g>
<!-- Node2 -->
<g id="Node000002" class="node">
<title>Node2</title>
<g id="a_Node000002"><a xlink:href="classGecko_1_1FunctionalArithmetic.html" target="_top" xlink:title=" ">
<polygon fill="white" stroke="#666666" points="356.75,-146 170.5,-146 170.5,-123 356.75,-123 356.75,-146"/>
<text text-anchor="middle" x="263.62" y="-128.7" font-family="Helvetica,sans-Serif" font-size="14.00">Gecko::FunctionalArithmetic</text>
</a>
</g>
</g>
<!-- Node1&#45;&gt;Node2 -->
<g id="edge1_Node000001_Node000002" class="edge">
<title>Node1&#45;&gt;Node2</title>
<g id="a_edge1_Node000001_Node000002"><a xlink:title=" ">
<path fill="none" stroke="#63b8ff" d="M97.97,-89.31C116.43,-97.84 139.82,-107.78 161.5,-114.5 171.24,-117.52 181.66,-120.19 191.97,-122.51"/>
<polygon fill="#63b8ff" stroke="#63b8ff" points="99.63,-86.22 89.09,-85.13 96.65,-92.55 99.63,-86.22"/>
</a>
</g>
</g>
<!-- Node3 -->
<g id="Node000003" class="node">
<title>Node3</title>
<g id="a_Node000003"><a xlink:href="classGecko_1_1FunctionalMaximum.html" target="_top" xlink:title=" ">
<polygon fill="white" stroke="#666666" points="356.75,-105 170.5,-105 170.5,-82 356.75,-82 356.75,-105"/>
<text text-anchor="middle" x="263.62" y="-87.7" font-family="Helvetica,sans-Serif" font-size="14.00">Gecko::FunctionalMaximum</text>
</a>
</g>
</g>
<!-- Node1&#45;&gt;Node3 -->
<g id="edge2_Node000001_Node000003" class="edge">
<title>Node1&#45;&gt;Node3</title>
<g id="a_edge2_Node000001_Node000003"><a xlink:title=" ">
<path fill="none" stroke="#63b8ff" d="M137.25,-80.26C147.92,-81.39 159.03,-82.56 170.02,-83.72"/>
<polygon fill="#63b8ff" stroke="#63b8ff" points="137.67,-76.79 127.36,-79.22 136.94,-83.75 137.67,-76.79"/>
</a>
</g>
</g>
<!-- Node4 -->
<g id="Node000004" class="node">
<title>Node4</title>
<g id="a_Node000004"><a xlink:href="classGecko_1_1FunctionalQuasiconvex.html" target="_top" xlink:title=" ">
<polygon fill="white" stroke="#666666" points="365.75,-64 161.5,-64 161.5,-41 365.75,-41 365.75,-64"/>
<text text-anchor="middle" x="263.62" y="-46.7" font-family="Helvetica,sans-Serif" font-size="14.00">Gecko::FunctionalQuasiconvex</text>
</a>
</g>
</g>
<!-- Node1&#45;&gt;Node4 -->
<g id="edge3_Node000001_Node000004" class="edge">
<title>Node1&#45;&gt;Node4</title>
<g id="a_edge3_Node000001_Node000004"><a xlink:title=" ">
<path fill="none" stroke="#63b8ff" d="M137.18,-65.12C145.04,-64.32 153.13,-63.51 161.24,-62.7"/>
<polygon fill="#63b8ff" stroke="#63b8ff" points="136.96,-61.62 127.36,-66.1 137.66,-68.58 136.96,-61.62"/>
</a>
</g>
</g>
<!-- Node8 -->
<g id="Node000008" class="node">
<title>Node8</title>
<g id="a_Node000008"><a xlink:href="classGecko_1_1FunctionalRMS.html" target="_top" xlink:title=" ">
<polygon fill="white" stroke="#666666" points="341.75,-23 185.5,-23 185.5,0 341.75,0 341.75,-23"/>
<text text-anchor="middle" x="263.62" y="-5.7" font-family="Helvetica,sans-Serif" font-size="14.00">Gecko::FunctionalRMS</text>
</a>
</g>
</g>
<!-- Node1&#45;&gt;Node8 -->
<g id="edge7_Node000001_Node000008" class="edge">
<title>Node1&#45;&gt;Node8</title>
<g id="a_edge7_Node000001_Node000008"><a xlink:title=" ">
<path fill="none" stroke="#63b8ff" d="M99.47,-56.03C117.73,-48.09 140.49,-38.92 161.5,-32.5 172.56,-29.12 184.47,-26.11 196.09,-23.5"/>
<polygon fill="#63b8ff" stroke="#63b8ff" points="98.12,-52.8 90.39,-60.05 100.95,-59.21 98.12,-52.8"/>
</a>
</g>
</g>
<!-- Node5 -->
<g id="Node000005" class="node">
<title>Node5</title>
<g id="a_Node000005"><a xlink:href="classGecko_1_1FunctionalGeometric.html" target="_top" xlink:title=" ">
<polygon fill="white" stroke="#666666" points="591,-105 401.75,-105 401.75,-82 591,-82 591,-105"/>
<text text-anchor="middle" x="496.38" y="-87.7" font-family="Helvetica,sans-Serif" font-size="14.00">Gecko::FunctionalGeometric</text>
</a>
</g>
</g>
<!-- Node4&#45;&gt;Node5 -->
<g id="edge4_Node000004_Node000005" class="edge">
<title>Node4&#45;&gt;Node5</title>
<g id="a_edge4_Node000004_Node000005"><a xlink:title=" ">
<path fill="none" stroke="#63b8ff" d="M343.17,-66.46C370.71,-71.35 401.38,-76.8 427.93,-81.52"/>
<polygon fill="#63b8ff" stroke="#63b8ff" points="343.94,-63.04 333.48,-64.73 342.71,-69.93 343.94,-63.04"/>
</a>
</g>
</g>
<!-- Node6 -->
<g id="Node000006" class="node">
<title>Node6</title>
<g id="a_Node000006"><a xlink:href="classGecko_1_1FunctionalHarmonic.html" target="_top" xlink:title=" ">
<polygon fill="white" stroke="#666666" points="588.38,-64 404.38,-64 404.38,-41 588.38,-41 588.38,-64"/>
<text text-anchor="middle" x="496.38" y="-46.7" font-family="Helvetica,sans-Serif" font-size="14.00">Gecko::FunctionalHarmonic</text>
</a>
</g>
</g>
<!-- Node4&#45;&gt;Node6 -->
<g id="edge5_Node000004_Node000006" class="edge">
<title>Node4&#45;&gt;Node6</title>
<g id="a_edge5_Node000004_Node000006"><a xlink:title=" ">
<path fill="none" stroke="#63b8ff" d="M377.41,-52.5C386.31,-52.5 395.23,-52.5 403.95,-52.5"/>
<polygon fill="#63b8ff" stroke="#63b8ff" points="377.68,-49 367.68,-52.5 377.68,-56 377.68,-49"/>
</a>
</g>
</g>
<!-- Node7 -->
<g id="Node000007" class="node">
<title>Node7</title>
<g id="a_Node000007"><a xlink:href="classGecko_1_1FunctionalSMR.html" target="_top" xlink:title=" ">
<polygon fill="white" stroke="#666666" points="574.5,-23 418.25,-23 418.25,0 574.5,0 574.5,-23"/>
<text text-anchor="middle" x="496.38" y="-5.7" font-family="Helvetica,sans-Serif" font-size="14.00">Gecko::FunctionalSMR</text>
</a>
</g>
</g>
<!-- Node4&#45;&gt;Node7 -->
<g id="edge6_Node000004_Node000007" class="edge">
<title>Node4&#45;&gt;Node7</title>
<g id="a_edge6_Node000004_Node000007"><a xlink:title=" ">
<path fill="none" stroke="#63b8ff" d="M343.17,-38.54C370.71,-33.65 401.38,-28.2 427.93,-23.48"/>
<polygon fill="#63b8ff" stroke="#63b8ff" points="342.71,-35.07 333.48,-40.27 343.94,-41.96 342.71,-35.07"/>
</a>
</g>
</g>
</g>
</svg>

<g id="navigator" transform="translate(0 0)" fill="#404254">
  <rect fill="#f2f5e9" fill-opacity="0.5" stroke="#606060" stroke-width=".5" x="0" y="0" width="60" height="60"/>
  <use id="zoomplus" xlink:href="#zoomPlus" x="17" y="9" onmousedown="handleZoom(evt,'in')"/>
  <use id="zoomminus" xlink:href="#zoomMin" x="42" y="9" onmousedown="handleZoom(evt,'out')"/>
  <use id="reset" xlink:href="#resetDef" x="30" y="36" onmousedown="handleReset()"/>
   <use id="arrowup" xlink:href="#arrowUp" x="0" y="0" onmousedown="handlePan(0,-1)"/>
  <use id="arrowright" xlink:href="#arrowRight" x="0" y="0" onmousedown="handlePan(1,0)"/>
  <use id="arrowdown" xlink:href="#arrowDown" x="0" y="0" onmousedown="handlePan(0,1)"/>
  <use id="arrowleft" xlink:href="#arrowLeft" x="0" y="0" onmousedown="handlePan(-1,0)"/>
</g>
<svg viewBox="0 0 15 15" width="100%" height="30px" preserveAspectRatio="xMaxYMin meet">
 <g id="arrow_out" transform="scale(0.3 0.3)">
  <a xlink:href="classGecko_1_1Functional__inherit__graph_org.svg" target="_base">
   <rect id="button" ry="5" rx="5" y="6" x="6" height="38" width="38"
        fill="#f2f5e9" fill-opacity="0.5" stroke="#606060" stroke-width="1.0"/>
   <path id="arrow"
     d="M 11.500037,31.436501 C 11.940474,20.09759 22.043105,11.32322 32.158766,21.979434 L 37.068811,17.246167 C 37.068811,17.246167 37.088388,32 37.088388,32 L 22.160133,31.978069 C 22.160133,31.978069 26.997745,27.140456 26.997745,27.140456 C 18.528582,18.264221 13.291696,25.230495 11.500037,31.436501 z"
     style="fill:#404040;"/>
  </a>
 </g>
</svg>

<style type='text/css'>
<![CDATA[
[data-mouse-over-selected='false'] { opacity: 0.7; }
[data-mouse-over-selected='true']  { opacity: 1.0; }
]]>
</style>
<script type="application/ecmascript"><![CDATA[
document.addEventListener('DOMContentLoaded', (event) => {
  highlightEdges();
  highlightAdjacentNodes();
});
]]></script>
</svg>
