<?xml version="1.0" encoding="UTF-8" standalone="no"?>
<!DOCTYPE svg PUBLIC "-//W3C//DTD SVG 1.1//EN"
 "http://www.w3.org/Graphics/SVG/1.1/DTD/svg11.dtd">
<!-- Generated by graphviz version 12.0.0 (20240704.0754)
 -->
<!-- Title: mfem::H1_FECollection Pages: 1 -->
<!--zoomable 317 -->

<svg id="main" version="1.1" xmlns="http://www.w3.org/2000/svg" xmlns:xlink="http://www.w3.org/1999/xlink" xml:space="preserve" onload="init(evt)">
<style type="text/css"><![CDATA[
.node, .edge {opacity: 0.7;}
.node.selected, .edge.selected {opacity: 1;}
.edge:hover path { stroke: red; }
.edge:hover polygon { stroke: red; fill: red; }
]]></style>

<defs>
  <circle id="rim" cx="0" cy="0" r="7"/>
  <circle id="rim2" cx="0" cy="0" r="3.5"/>
  <g id="zoomPlus">
    <use xlink:href="#rim" fill="#404040"><set attributeName="fill" to="#808080" begin="zoomplus.mouseover" end="zoomplus.mouseout"/></use>
    <path d="M-4,0h8M0,-4v8" fill="none" stroke="white" stroke-width="1.5" pointer-events="none"/>
  </g>
  <g id="zoomMin">
    <use xlink:href="#rim" fill="#404040"><set attributeName="fill" to="#808080" begin="zoomminus.mouseover" end="zoomminus.mouseout"/></use>
    <path d="M-4,0h8" fill="none" stroke="white" stroke-width="1.5" pointer-events="none"/>
  </g>
  <g id="arrowUp" transform="translate(30 24)">
    <use xlink:href="#rim"/>
    <path pointer-events="none" fill="none" stroke="white" stroke-width="1.5" d="M0,-3.0v7 M-2.5,-0.5L0,-3.0L2.5,-0.5"/>
  </g>
  <g id="arrowRight" transform="rotate(90) translate(36 -43)">
    <use xlink:href="#rim"/>
    <path pointer-events="none" fill="none" stroke="white" stroke-width="1.5" d="M0,-3.0v7 M-2.5,-0.5L0,-3.0L2.5,-0.5"/>
  </g>
  <g id="arrowDown" transform="rotate(180) translate(-30 -48)">
    <use xlink:href="#rim"/>
    <path pointer-events="none" fill="none" stroke="white" stroke-width="1.5" d="M0,-3.0v7 M-2.5,-0.5L0,-3.0L2.5,-0.5"/>
  </g>
  <g id="arrowLeft" transform="rotate(270) translate(-36 17)">
    <use xlink:href="#rim"/>
    <path pointer-events="none" fill="none" stroke="white" stroke-width="1.5" d="M0,-3.0v7 M-2.5,-0.5L0,-3.0L2.5,-0.5"/>
  </g>
  <g id="resetDef">
    <use xlink:href="#rim2" fill="#404040"><set attributeName="fill" to="#808080" begin="reset.mouseover" end="reset.mouseout"/></use>
  </g>
</defs>
<script type="application/ecmascript">
var viewWidth = 1972;
var viewHeight = 317;
var sectionId = 'dynsection-1';
</script>
<script type="application/ecmascript" xlink:href="svg.min.js"/>
<svg id="graph" class="graph">
<g id="viewport">
<title>mfem::H1_FECollection</title>
<!-- Node1 -->
<g id="Node000001" class="node">
<title>Node1</title>
<g id="a_Node000001"><a xlink:title="Arbitrary order H1&#45;conforming (continuous) finite elements.">
<polygon fill="#999999" stroke="#666666" points="1424.5,-201.1 1264.5,-201.1 1264.5,-178.1 1424.5,-178.1 1424.5,-201.1"/>
<text text-anchor="middle" x="1344.5" y="-183.8" font-family="Helvetica,sans-Serif" font-size="14.00">mfem::H1_FECollection</text>
</a>
</g>
</g>
<!-- Node2 -->
<g id="Node000002" class="node">
<title>Node2</title>
<g id="a_Node000002"><a xlink:href="classmfem_1_1FiniteElementCollection.html" target="_top" xlink:title="Collection of finite elements from the same family in multiple dimensions. This class is used to matc...">
<polygon fill="white" stroke="#666666" points="1129.5,-249.1 928.25,-249.1 928.25,-226.1 1129.5,-226.1 1129.5,-249.1"/>
<text text-anchor="middle" x="1028.88" y="-231.8" font-family="Helvetica,sans-Serif" font-size="14.00">mfem::FiniteElementCollection</text>
</a>
</g>
</g>
<!-- Node2&#45;&gt;Node1 -->
<g id="edge1_Node000001_Node000002" class="edge">
<title>Node2&#45;&gt;Node1</title>
<g id="a_edge1_Node000001_Node000002"><a xlink:title=" ">
<path fill="none" stroke="#63b8ff" d="M1119.39,-223.89C1165.44,-216.85 1221.05,-208.34 1265.35,-201.56"/>
<polygon fill="#63b8ff" stroke="#63b8ff" points="1119.06,-220.4 1109.7,-225.38 1120.12,-227.32 1119.06,-220.4"/>
</a>
</g>
</g>
<!-- Node4 -->
<g id="Node000004" class="node">
<title>Node4</title>
<g id="a_Node000004"><a xlink:href="classmfem_1_1Memory.html" target="_top" xlink:title=" ">
<polygon fill="white" stroke="#666666" points="1438,-308.6 1251,-308.6 1251,-270.6 1438,-270.6 1438,-308.6"/>
<text text-anchor="start" x="1259" y="-291.3" font-family="Helvetica,sans-Serif" font-size="14.00">mfem::Memory&lt; mfem</text>
<text text-anchor="middle" x="1344.5" y="-276.3" font-family="Helvetica,sans-Serif" font-size="14.00">::FiniteElementCollection * &gt;</text>
</a>
</g>
</g>
<!-- Node2&#45;&gt;Node4 -->
<g id="edge4_Node000004_Node000002" class="edge">
<title>Node2&#45;&gt;Node4</title>
<g id="a_edge4_Node000004_Node000002"><a xlink:title=" ">
<path fill="none" stroke="#9a32cd" stroke-dasharray="5,2" d="M1113.33,-251.43C1155.63,-258.45 1207.12,-266.98 1250.67,-274.2"/>
<polygon fill="#9a32cd" stroke="#9a32cd" points="1114.15,-248.02 1103.71,-249.84 1113.01,-254.93 1114.15,-248.02"/>
</a>
</g>
<text text-anchor="middle" x="1190.25" y="-271.3" font-family="Helvetica,sans-Serif" font-size="14.00" fill="grey"> h_ptr</text>
</g>
<!-- Node3 -->
<g id="Node000003" class="node">
<title>Node3</title>
<g id="a_Node000003"><a xlink:href="classmfem_1_1Array.html" target="_top" xlink:title=" ">
<polygon fill="white" stroke="#666666" points="1751.75,-272.6 1572.25,-272.6 1572.25,-234.6 1751.75,-234.6 1751.75,-272.6"/>
<text text-anchor="start" x="1580.25" y="-255.3" font-family="Helvetica,sans-Serif" font-size="14.00">mfem::Array&lt; mfem::</text>
<text text-anchor="middle" x="1662" y="-240.3" font-family="Helvetica,sans-Serif" font-size="14.00">FiniteElementCollection * &gt;</text>
</a>
</g>
</g>
<!-- Node3&#45;&gt;Node2 -->
<g id="edge2_Node000002_Node000003" class="edge">
<title>Node3&#45;&gt;Node2</title>
<g id="a_edge2_Node000002_Node000003"><a xlink:title=" ">
<path fill="none" stroke="#9a32cd" stroke-dasharray="5,2" d="M1560.58,-250.24C1522.22,-249.02 1478.09,-247.67 1438,-246.6 1332.79,-243.78 1212.31,-241.21 1129.68,-239.54"/>
<polygon fill="#9a32cd" stroke="#9a32cd" points="1560.14,-253.73 1570.24,-250.55 1560.36,-246.73 1560.14,-253.73"/>
</a>
</g>
<text text-anchor="middle" x="1344.5" y="-248.3" font-family="Helvetica,sans-Serif" font-size="14.00" fill="grey"> var_orders</text>
</g>
<!-- Node4&#45;&gt;Node3 -->
<g id="edge3_Node000003_Node000004" class="edge">
<title>Node4&#45;&gt;Node3</title>
<g id="a_edge3_Node000003_Node000004"><a xlink:title=" ">
<path fill="none" stroke="#9a32cd" stroke-dasharray="5,2" d="M1449.74,-277.7C1489.29,-273.19 1533.94,-268.09 1571.96,-263.75"/>
<polygon fill="#9a32cd" stroke="#9a32cd" points="1449.5,-274.21 1439.96,-278.82 1450.29,-281.16 1449.5,-274.21"/>
</a>
</g>
<text text-anchor="middle" x="1505.12" y="-278.3" font-family="Helvetica,sans-Serif" font-size="14.00" fill="grey"> data</text>
</g>
<!-- Node5 -->
<g id="Node000005" class="node">
<title>Node5</title>
<g id="a_Node000005"><a xlink:href="classmfem_1_1FiniteElement.html" target="_top" xlink:title="Abstract class for all finite elements.">
<polygon fill="white" stroke="#666666" points="1099.88,-161.1 957.88,-161.1 957.88,-138.1 1099.88,-138.1 1099.88,-161.1"/>
<text text-anchor="middle" x="1028.88" y="-143.8" font-family="Helvetica,sans-Serif" font-size="14.00">mfem::FiniteElement</text>
</a>
</g>
</g>
<!-- Node5&#45;&gt;Node1 -->
<g id="edge5_Node000001_Node000005" class="edge">
<title>Node5&#45;&gt;Node1</title>
<g id="a_edge5_Node000001_Node000005"><a xlink:title=" ">
<path fill="none" stroke="#9a32cd" stroke-dasharray="5,2" d="M1111.65,-160.02C1158.72,-166.03 1217.6,-173.54 1264.25,-179.49"/>
<polygon fill="#9a32cd" stroke="#9a32cd" points="1112.12,-156.56 1101.76,-158.76 1111.24,-163.5 1112.12,-156.56"/>
</a>
</g>
<text text-anchor="middle" x="1190.25" y="-175.3" font-family="Helvetica,sans-Serif" font-size="14.00" fill="grey"> H1_Elements</text>
</g>
<!-- Node15 -->
<g id="Node000015" class="node">
<title>Node15</title>
<g id="a_Node000015"><a xlink:href="classmfem_1_1DofToQuad.html" target="_top" xlink:title="Structure representing the matrices/tensors needed to evaluate (in reference space) the values,...">
<polygon fill="white" stroke="#666666" points="1408.38,-100.1 1280.62,-100.1 1280.62,-77.1 1408.38,-77.1 1408.38,-100.1"/>
<text text-anchor="middle" x="1344.5" y="-82.8" font-family="Helvetica,sans-Serif" font-size="14.00">mfem::DofToQuad</text>
</a>
</g>
</g>
<!-- Node5&#45;&gt;Node15 -->
<g id="edge16_Node000015_Node000005" class="edge">
<title>Node5&#45;&gt;Node15</title>
<g id="a_edge16_Node000015_Node000005"><a xlink:title=" ">
<path fill="none" stroke="#9a32cd" stroke-dasharray="5,2" d="M1085.78,-134.84C1105.24,-129.97 1127.26,-124.74 1147.5,-120.6 1191.58,-111.58 1241.65,-103.44 1280.15,-97.62"/>
<polygon fill="#9a32cd" stroke="#9a32cd" points="1084.95,-131.44 1076.11,-137.29 1086.67,-138.23 1084.95,-131.44"/>
</a>
</g>
<text text-anchor="middle" x="1190.25" y="-122.3" font-family="Helvetica,sans-Serif" font-size="14.00" fill="grey"> FE</text>
</g>
<!-- Node6 -->
<g id="Node000006" class="node">
<title>Node6</title>
<g id="a_Node000006"><a xlink:href="classmfem_1_1IntegrationRule.html" target="_top" xlink:title="Class for an integration rule &#45; an Array of IntegrationPoint.">
<polygon fill="white" stroke="#666666" points="836.75,-109.1 686.5,-109.1 686.5,-86.1 836.75,-86.1 836.75,-109.1"/>
<text text-anchor="middle" x="761.62" y="-91.8" font-family="Helvetica,sans-Serif" font-size="14.00">mfem::IntegrationRule</text>
</a>
</g>
</g>
<!-- Node6&#45;&gt;Node5 -->
<g id="edge6_Node000005_Node000006" class="edge">
<title>Node6&#45;&gt;Node5</title>
<g id="a_edge6_Node000005_Node000006"><a xlink:title=" ">
<path fill="none" stroke="#9a32cd" stroke-dasharray="5,2" d="M834.93,-111.77C876.32,-119.88 927.68,-129.95 967,-137.66"/>
<polygon fill="#9a32cd" stroke="#9a32cd" points="835.78,-108.37 825.3,-109.88 834.44,-115.24 835.78,-108.37"/>
</a>
</g>
<text text-anchor="middle" x="886.62" y="-126.3" font-family="Helvetica,sans-Serif" font-size="14.00" fill="grey"> Nodes</text>
</g>
<!-- Node6&#45;&gt;Node15 -->
<g id="edge17_Node000015_Node000006" class="edge">
<title>Node6&#45;&gt;Node15</title>
<g id="a_edge17_Node000015_Node000006"><a xlink:title=" ">
<path fill="none" stroke="#9a32cd" stroke-dasharray="5,2" d="M848.56,-96.26C966.56,-94.44 1175.99,-91.19 1280.51,-89.57"/>
<polygon fill="#9a32cd" stroke="#9a32cd" points="848.54,-92.76 838.59,-96.42 848.65,-99.76 848.54,-92.76"/>
</a>
</g>
<text text-anchor="middle" x="1028.88" y="-96.3" font-family="Helvetica,sans-Serif" font-size="14.00" fill="grey"> IntRule</text>
</g>
<!-- Node7 -->
<g id="Node000007" class="node">
<title>Node7</title>
<g id="a_Node000007"><a xlink:href="classmfem_1_1Array.html" target="_top" xlink:title=" ">
<polygon fill="white" stroke="#666666" points="641.25,-116.6 474.5,-116.6 474.5,-78.6 641.25,-78.6 641.25,-116.6"/>
<text text-anchor="start" x="482.5" y="-99.3" font-family="Helvetica,sans-Serif" font-size="14.00">mfem::Array&lt; Integration</text>
<text text-anchor="middle" x="557.88" y="-84.3" font-family="Helvetica,sans-Serif" font-size="14.00">Point &gt;</text>
</a>
</g>
</g>
<!-- Node7&#45;&gt;Node6 -->
<g id="edge7_Node000006_Node000007" class="edge">
<title>Node7&#45;&gt;Node6</title>
<g id="a_edge7_Node000006_Node000007"><a xlink:title=" ">
<path fill="none" stroke="#63b8ff" d="M652.7,-97.6C663.94,-97.6 675.3,-97.6 686.21,-97.6"/>
<polygon fill="#63b8ff" stroke="#63b8ff" points="653.03,-94.1 643.03,-97.6 653.03,-101.1 653.03,-94.1"/>
</a>
</g>
</g>
<!-- Node8 -->
<g id="Node000008" class="node">
<title>Node8</title>
<g id="a_Node000008"><a xlink:href="classmfem_1_1Memory.html" target="_top" xlink:title=" ">
<polygon fill="white" stroke="#666666" points="408.5,-116.6 223.75,-116.6 223.75,-78.6 408.5,-78.6 408.5,-116.6"/>
<text text-anchor="start" x="231.75" y="-99.3" font-family="Helvetica,sans-Serif" font-size="14.00">mfem::Memory&lt; Integration</text>
<text text-anchor="middle" x="316.12" y="-84.3" font-family="Helvetica,sans-Serif" font-size="14.00">Point &gt;</text>
</a>
</g>
</g>
<!-- Node8&#45;&gt;Node7 -->
<g id="edge8_Node000007_Node000008" class="edge">
<title>Node8&#45;&gt;Node7</title>
<g id="a_edge8_Node000007_Node000008"><a xlink:title=" ">
<path fill="none" stroke="#9a32cd" stroke-dasharray="5,2" d="M420.26,-97.6C438.31,-97.6 456.89,-97.6 474.3,-97.6"/>
<polygon fill="#9a32cd" stroke="#9a32cd" points="420.3,-94.1 410.3,-97.6 420.3,-101.1 420.3,-94.1"/>
</a>
</g>
<text text-anchor="middle" x="441.5" y="-99.3" font-family="Helvetica,sans-Serif" font-size="14.00" fill="grey"> data</text>
</g>
<!-- Node9 -->
<g id="Node000009" class="node">
<title>Node9</title>
<g id="a_Node000009"><a xlink:href="classmfem_1_1IntegrationPoint.html" target="_top" xlink:title="Class for integration point with weight.">
<polygon fill="white" stroke="#666666" points="153.25,-109.1 0,-109.1 0,-86.1 153.25,-86.1 153.25,-109.1"/>
<text text-anchor="middle" x="76.62" y="-91.8" font-family="Helvetica,sans-Serif" font-size="14.00">mfem::IntegrationPoint</text>
</a>
</g>
</g>
<!-- Node9&#45;&gt;Node8 -->
<g id="edge9_Node000008_Node000009" class="edge">
<title>Node9&#45;&gt;Node8</title>
<g id="a_edge9_Node000008_Node000009"><a xlink:title=" ">
<path fill="none" stroke="#9a32cd" stroke-dasharray="5,2" d="M164.82,-97.6C183.91,-97.6 204.17,-97.6 223.42,-97.6"/>
<polygon fill="#9a32cd" stroke="#9a32cd" points="164.94,-94.1 154.94,-97.6 164.94,-101.1 164.94,-94.1"/>
</a>
</g>
<text text-anchor="middle" x="188.5" y="-99.3" font-family="Helvetica,sans-Serif" font-size="14.00" fill="grey"> h_ptr</text>
</g>
<!-- Node10 -->
<g id="Node000010" class="node">
<title>Node10</title>
<g id="a_Node000010"><a xlink:href="classmfem_1_1DenseMatrix.html" target="_top" xlink:title="Data type dense matrix using column&#45;major storage.">
<polygon fill="white" stroke="#666666" points="829.25,-169.1 694,-169.1 694,-146.1 829.25,-146.1 829.25,-169.1"/>
<text text-anchor="middle" x="761.62" y="-151.8" font-family="Helvetica,sans-Serif" font-size="14.00">mfem::DenseMatrix</text>
</a>
</g>
</g>
<!-- Node10&#45;&gt;Node5 -->
<g id="edge10_Node000005_Node000010" class="edge">
<title>Node10&#45;&gt;Node5</title>
<g id="a_edge10_Node000005_Node000010"><a xlink:title=" ">
<path fill="none" stroke="#9a32cd" stroke-dasharray="5,2" d="M840.82,-155.24C877.86,-154.12 921.76,-152.8 957.72,-151.71"/>
<polygon fill="#9a32cd" stroke="#9a32cd" points="840.96,-151.73 831.07,-155.53 841.17,-158.73 840.96,-151.73"/>
</a>
</g>
<text text-anchor="middle" x="886.62" y="-155.3" font-family="Helvetica,sans-Serif" font-size="14.00" fill="grey"> vshape</text>
</g>
<!-- Node11 -->
<g id="Node000011" class="node">
<title>Node11</title>
<g id="a_Node000011"><a xlink:href="classmfem_1_1Matrix.html" target="_top" xlink:title="Abstract data type matrix.">
<polygon fill="white" stroke="#666666" points="606,-169.1 509.75,-169.1 509.75,-146.1 606,-146.1 606,-169.1"/>
<text text-anchor="middle" x="557.88" y="-151.8" font-family="Helvetica,sans-Serif" font-size="14.00">mfem::Matrix</text>
</a>
</g>
</g>
<!-- Node11&#45;&gt;Node10 -->
<g id="edge11_Node000010_Node000011" class="edge">
<title>Node11&#45;&gt;Node10</title>
<g id="a_edge11_Node000010_Node000011"><a xlink:title=" ">
<path fill="none" stroke="#63b8ff" d="M617.75,-157.6C641.5,-157.6 669.02,-157.6 693.53,-157.6"/>
<polygon fill="#63b8ff" stroke="#63b8ff" points="617.95,-154.1 607.95,-157.6 617.94,-161.1 617.95,-154.1"/>
</a>
</g>
</g>
<!-- Node12 -->
<g id="Node000012" class="node">
<title>Node12</title>
<g id="a_Node000012"><a xlink:href="classmfem_1_1Operator.html" target="_top" xlink:title="Abstract operator.">
<polygon fill="white" stroke="#666666" points="372.5,-169.1 259.75,-169.1 259.75,-146.1 372.5,-146.1 372.5,-169.1"/>
<text text-anchor="middle" x="316.12" y="-151.8" font-family="Helvetica,sans-Serif" font-size="14.00">mfem::Operator</text>
</a>
</g>
</g>
<!-- Node12&#45;&gt;Node11 -->
<g id="edge12_Node000011_Node000012" class="edge">
<title>Node12&#45;&gt;Node11</title>
<g id="a_edge12_Node000011_Node000012"><a xlink:title=" ">
<path fill="none" stroke="#63b8ff" d="M384.21,-157.6C423.99,-157.6 473.48,-157.6 509.26,-157.6"/>
<polygon fill="#63b8ff" stroke="#63b8ff" points="384.24,-154.1 374.24,-157.6 384.24,-161.1 384.24,-154.1"/>
</a>
</g>
</g>
<!-- Node13 -->
<g id="Node000013" class="node">
<title>Node13</title>
<g id="a_Node000013"><a xlink:href="classmfem_1_1Array.html" target="_top" xlink:title=" ">
<polygon fill="white" stroke="#666666" points="1963.5,-145.6 1817.75,-145.6 1817.75,-107.6 1963.5,-107.6 1963.5,-145.6"/>
<text text-anchor="start" x="1825.75" y="-128.3" font-family="Helvetica,sans-Serif" font-size="14.00">mfem::Array&lt; mfem::</text>
<text text-anchor="middle" x="1890.62" y="-113.3" font-family="Helvetica,sans-Serif" font-size="14.00">DofToQuad * &gt;</text>
</a>
</g>
</g>
<!-- Node13&#45;&gt;Node5 -->
<g id="edge13_Node000005_Node000013" class="edge">
<title>Node13&#45;&gt;Node5</title>
<g id="a_edge13_Node000005_Node000013"><a xlink:title=" ">
<path fill="none" stroke="#9a32cd" stroke-dasharray="5,2" d="M1806.06,-133.26C1803.93,-133.38 1801.83,-133.49 1799.75,-133.6 1542.21,-146.29 1235.73,-148.94 1100.24,-149.47"/>
<polygon fill="#9a32cd" stroke="#9a32cd" points="1806.26,-136.76 1816.03,-132.66 1805.83,-129.77 1806.26,-136.76"/>
</a>
</g>
<text text-anchor="middle" x="1505.12" y="-146.3" font-family="Helvetica,sans-Serif" font-size="14.00" fill="grey"> dof2quad_array</text>
</g>
<!-- Node14 -->
<g id="Node000014" class="node">
<title>Node14</title>
<g id="a_Node000014"><a xlink:href="classmfem_1_1Memory.html" target="_top" xlink:title=" ">
<polygon fill="white" stroke="#666666" points="1740.12,-117.6 1583.88,-117.6 1583.88,-79.6 1740.12,-79.6 1740.12,-117.6"/>
<text text-anchor="start" x="1591.88" y="-100.3" font-family="Helvetica,sans-Serif" font-size="14.00">mfem::Memory&lt; mfem</text>
<text text-anchor="middle" x="1662" y="-85.3" font-family="Helvetica,sans-Serif" font-size="14.00">::DofToQuad * &gt;</text>
</a>
</g>
</g>
<!-- Node14&#45;&gt;Node13 -->
<g id="edge14_Node000013_Node000014" class="edge">
<title>Node14&#45;&gt;Node13</title>
<g id="a_edge14_Node000013_Node000014"><a xlink:title=" ">
<path fill="none" stroke="#9a32cd" stroke-dasharray="5,2" d="M1751.65,-109.55C1773.49,-112.25 1796.62,-115.1 1817.58,-117.69"/>
<polygon fill="#9a32cd" stroke="#9a32cd" points="1752.21,-106.09 1741.86,-108.34 1751.36,-113.04 1752.21,-106.09"/>
</a>
</g>
<text text-anchor="middle" x="1784.75" y="-116.3" font-family="Helvetica,sans-Serif" font-size="14.00" fill="grey"> data</text>
</g>
<!-- Node15&#45;&gt;Node14 -->
<g id="edge15_Node000014_Node000015" class="edge">
<title>Node15&#45;&gt;Node14</title>
<g id="a_edge15_Node000014_Node000015"><a xlink:title=" ">
<path fill="none" stroke="#9a32cd" stroke-dasharray="5,2" d="M1419.81,-90.95C1469.08,-92.51 1533.6,-94.56 1583.5,-96.14"/>
<polygon fill="#9a32cd" stroke="#9a32cd" points="1420.21,-87.46 1410.1,-90.64 1419.98,-94.46 1420.21,-87.46"/>
</a>
</g>
<text text-anchor="middle" x="1505.12" y="-96.3" font-family="Helvetica,sans-Serif" font-size="14.00" fill="grey"> h_ptr</text>
</g>
<!-- Node16 -->
<g id="Node000016" class="node">
<title>Node16</title>
<g id="a_Node000016"><a xlink:href="classmfem_1_1Array.html" target="_top" xlink:title=" ">
<polygon fill="white" stroke="#666666" points="1103.25,-23.1 954.5,-23.1 954.5,-0.1 1103.25,-0.1 1103.25,-23.1"/>
<text text-anchor="middle" x="1028.88" y="-5.8" font-family="Helvetica,sans-Serif" font-size="14.00">mfem::Array&lt; real_t &gt;</text>
</a>
</g>
</g>
<!-- Node16&#45;&gt;Node15 -->
<g id="edge18_Node000015_Node000016" class="edge">
<title>Node16&#45;&gt;Node15</title>
<g id="a_edge18_Node000015_Node000016"><a xlink:title=" ">
<path fill="none" stroke="#9a32cd" stroke-dasharray="5,2" d="M1114.68,-0.97C1151.78,0.88 1195.34,-0.79 1233,-12.6 1273.66,-25.34 1312.65,-58.7 1331.59,-76.69"/>
<polygon fill="#9a32cd" stroke="#9a32cd" points="1114.67,2.53 1104.9,-1.56 1115.09,-4.45 1114.67,2.53"/>
</a>
</g>
<text text-anchor="middle" x="1190.25" y="-59.3" font-family="Helvetica,sans-Serif" font-size="14.00" fill="grey"> B</text>
<text text-anchor="middle" x="1190.25" y="-44.3" font-family="Helvetica,sans-Serif" font-size="14.00" fill="grey">Bt</text>
<text text-anchor="middle" x="1190.25" y="-29.3" font-family="Helvetica,sans-Serif" font-size="14.00" fill="grey">G</text>
<text text-anchor="middle" x="1190.25" y="-14.3" font-family="Helvetica,sans-Serif" font-size="14.00" fill="grey">Gt</text>
</g>
<!-- Node17 -->
<g id="Node000017" class="node">
<title>Node17</title>
<g id="a_Node000017"><a xlink:href="classmfem_1_1Memory.html" target="_top" xlink:title=" ">
<polygon fill="white" stroke="#666666" points="845,-23.1 678.25,-23.1 678.25,-0.1 845,-0.1 845,-23.1"/>
<text text-anchor="middle" x="761.62" y="-5.8" font-family="Helvetica,sans-Serif" font-size="14.00">mfem::Memory&lt; real_t &gt;</text>
</a>
</g>
</g>
<!-- Node17&#45;&gt;Node16 -->
<g id="edge19_Node000016_Node000017" class="edge">
<title>Node17&#45;&gt;Node16</title>
<g id="a_edge19_Node000016_Node000017"><a xlink:title=" ">
<path fill="none" stroke="#9a32cd" stroke-dasharray="5,2" d="M856.64,-11.6C888.67,-11.6 923.99,-11.6 954.2,-11.6"/>
<polygon fill="#9a32cd" stroke="#9a32cd" points="856.97,-8.1 846.97,-11.6 856.97,-15.1 856.97,-8.1"/>
</a>
</g>
<text text-anchor="middle" x="886.62" y="-13.3" font-family="Helvetica,sans-Serif" font-size="14.00" fill="grey"> data</text>
</g>
</g>
</svg>

<g id="navigator" transform="translate(0 0)" fill="#404254">
  <rect fill="#f2f5e9" fill-opacity="0.5" stroke="#606060" stroke-width=".5" x="0" y="0" width="60" height="60"/>
  <use id="zoomplus" xlink:href="#zoomPlus" x="17" y="9" onmousedown="handleZoom(evt,'in')"/>
  <use id="zoomminus" xlink:href="#zoomMin" x="42" y="9" onmousedown="handleZoom(evt,'out')"/>
  <use id="reset" xlink:href="#resetDef" x="30" y="36" onmousedown="handleReset()"/>
   <use id="arrowup" xlink:href="#arrowUp" x="0" y="0" onmousedown="handlePan(0,-1)"/>
  <use id="arrowright" xlink:href="#arrowRight" x="0" y="0" onmousedown="handlePan(1,0)"/>
  <use id="arrowdown" xlink:href="#arrowDown" x="0" y="0" onmousedown="handlePan(0,1)"/>
  <use id="arrowleft" xlink:href="#arrowLeft" x="0" y="0" onmousedown="handlePan(-1,0)"/>
</g>
<svg viewBox="0 0 15 15" width="100%" height="30px" preserveAspectRatio="xMaxYMin meet">
 <g id="arrow_out" transform="scale(0.3 0.3)">
  <a xlink:href="classmfem_1_1H1__FECollection__coll__graph_org.svg" target="_base">
   <rect id="button" ry="5" rx="5" y="6" x="6" height="38" width="38"
        fill="#f2f5e9" fill-opacity="0.5" stroke="#606060" stroke-width="1.0"/>
   <path id="arrow"
     d="M 11.500037,31.436501 C 11.940474,20.09759 22.043105,11.32322 32.158766,21.979434 L 37.068811,17.246167 C 37.068811,17.246167 37.088388,32 37.088388,32 L 22.160133,31.978069 C 22.160133,31.978069 26.997745,27.140456 26.997745,27.140456 C 18.528582,18.264221 13.291696,25.230495 11.500037,31.436501 z"
     style="fill:#404040;"/>
  </a>
 </g>
</svg>

<style type='text/css'>
<![CDATA[
[data-mouse-over-selected='false'] { opacity: 0.7; }
[data-mouse-over-selected='true']  { opacity: 1.0; }
]]>
</style>
<script type="application/ecmascript"><![CDATA[
document.addEventListener('DOMContentLoaded', (event) => {
  highlightEdges();
  highlightAdjacentNodes();
});
]]></script>
</svg>
