<?xml version="1.0" encoding="UTF-8" standalone="no"?>
<!DOCTYPE svg PUBLIC "-//W3C//DTD SVG 1.1//EN"
 "http://www.w3.org/Graphics/SVG/1.1/DTD/svg11.dtd">
<!-- Generated by graphviz version 8.0.5 (0)
 -->
<!-- Title: mfem::SundialsSolver Pages: 1 -->
<svg width="470pt" height="146pt"
 viewBox="0.00 0.00 469.92 146.00" xmlns="http://www.w3.org/2000/svg" xmlns:xlink="http://www.w3.org/1999/xlink">
<g id="graph0" class="graph" transform="scale(1 1) rotate(0) translate(4 142)">
<title>mfem::SundialsSolver</title>
<!-- Node1 -->
<g id="node1" class="node">
<title>Node1</title>
<g id="a_node1"><a xlink:title="Base class for interfacing with SUNDIALS packages.">
<polygon fill="#999999" stroke="#666666" points="324.11,-138 171.94,-138 171.94,-116 324.11,-116 324.11,-138"/>
<text text-anchor="middle" x="248.02" y="-122.8" font-family="Helvetica,sans-Serif" font-size="14.00">mfem::SundialsSolver</text>
</a>
</g>
</g>
<!-- Node2 -->
<g id="node2" class="node">
<title>Node2</title>
<g id="a_node2"><a xlink:href="classmfem_1_1ARKStepSolver.html" target="_top" xlink:title="Interface to ARKode&#39;s ARKStep module – additive Runge&#45;Kutta methods.">
<polygon fill="white" stroke="#666666" points="156.05,-80 0,-80 0,-58 156.05,-58 156.05,-80"/>
<text text-anchor="middle" x="78.02" y="-64.8" font-family="Helvetica,sans-Serif" font-size="14.00">mfem::ARKStepSolver</text>
</a>
</g>
</g>
<!-- Node1&#45;&gt;Node2 -->
<g id="edge1" class="edge">
<title>Node1&#45;&gt;Node2</title>
<path fill="none" stroke="#63b8ff" d="M206.34,-112.27C176.52,-102.44 136.98,-89.42 109.72,-80.44"/>
<polygon fill="#63b8ff" stroke="#63b8ff" points="204.85,-115.79 215.45,-115.6 207.04,-109.14 204.85,-115.79"/>
</g>
<!-- Node3 -->
<g id="node3" class="node">
<title>Node3</title>
<g id="a_node3"><a xlink:href="classmfem_1_1CVODESolver.html" target="_top" xlink:title="Interface to the CVODE library – linear multi&#45;step methods.">
<polygon fill="white" stroke="#666666" points="322.15,-80 173.9,-80 173.9,-58 322.15,-58 322.15,-80"/>
<text text-anchor="middle" x="248.02" y="-64.8" font-family="Helvetica,sans-Serif" font-size="14.00">mfem::CVODESolver</text>
</a>
</g>
</g>
<!-- Node1&#45;&gt;Node3 -->
<g id="edge2" class="edge">
<title>Node1&#45;&gt;Node3</title>
<path fill="none" stroke="#63b8ff" d="M248.02,-104.75C248.02,-96.34 248.02,-87.06 248.02,-80.21"/>
<polygon fill="#63b8ff" stroke="#63b8ff" points="244.52,-104.73 248.02,-114.73 251.52,-104.73 244.52,-104.73"/>
</g>
<!-- Node5 -->
<g id="node5" class="node">
<title>Node5</title>
<g id="a_node5"><a xlink:href="classmfem_1_1KINSolver.html" target="_top" xlink:title="Interface to the KINSOL library – nonlinear solver methods.">
<polygon fill="white" stroke="#666666" points="461.92,-80 340.12,-80 340.12,-58 461.92,-58 461.92,-80"/>
<text text-anchor="middle" x="401.02" y="-64.8" font-family="Helvetica,sans-Serif" font-size="14.00">mfem::KINSolver</text>
</a>
</g>
</g>
<!-- Node1&#45;&gt;Node5 -->
<g id="edge4" class="edge">
<title>Node1&#45;&gt;Node5</title>
<path fill="none" stroke="#63b8ff" d="M286.6,-111.88C313.31,-102.1 348.28,-89.3 372.5,-80.44"/>
<polygon fill="#63b8ff" stroke="#63b8ff" points="285.63,-108.87 277.44,-115.6 288.04,-115.45 285.63,-108.87"/>
</g>
<!-- Node4 -->
<g id="node4" class="node">
<title>Node4</title>
<g id="a_node4"><a xlink:href="classmfem_1_1CVODESSolver.html" target="_top" xlink:title=" ">
<polygon fill="white" stroke="#666666" points="326.82,-22 169.23,-22 169.23,0 326.82,0 326.82,-22"/>
<text text-anchor="middle" x="248.02" y="-6.8" font-family="Helvetica,sans-Serif" font-size="14.00">mfem::CVODESSolver</text>
</a>
</g>
</g>
<!-- Node3&#45;&gt;Node4 -->
<g id="edge3" class="edge">
<title>Node3&#45;&gt;Node4</title>
<path fill="none" stroke="#63b8ff" d="M248.02,-46.75C248.02,-38.34 248.02,-29.06 248.02,-22.21"/>
<polygon fill="#63b8ff" stroke="#63b8ff" points="244.52,-46.73 248.02,-56.73 251.52,-46.73 244.52,-46.73"/>
</g>
</g>
</svg>
