<?xml version="1.0" encoding="UTF-8" standalone="no"?>
<!DOCTYPE svg PUBLIC "-//W3C//DTD SVG 1.1//EN"
 "http://www.w3.org/Graphics/SVG/1.1/DTD/svg11.dtd">
<!-- Generated by graphviz version 8.0.5 (0)
 -->
<!-- Title: mfem::ESDIRK33Solver Pages: 1 -->
<svg width="408pt" height="261pt"
 viewBox="0.00 0.00 407.81 261.00" xmlns="http://www.w3.org/2000/svg" xmlns:xlink="http://www.w3.org/1999/xlink">
<g id="graph0" class="graph" transform="scale(1 1) rotate(0) translate(4 257)">
<title>mfem::ESDIRK33Solver</title>
<!-- Node1 -->
<g id="node1" class="node">
<title>Node1</title>
<g id="a_node1"><a xlink:title=" ">
<polygon fill="#999999" stroke="#666666" points="302.64,-22 136.48,-22 136.48,0 302.64,0 302.64,-22"/>
<text text-anchor="middle" x="219.56" y="-6.8" font-family="Helvetica,sans-Serif" font-size="14.00">mfem::ESDIRK33Solver</text>
</a>
</g>
</g>
<!-- Node2 -->
<g id="node2" class="node">
<title>Node2</title>
<g id="a_node2"><a xlink:href="classmfem_1_1ODESolver.html" target="_top" xlink:title="Abstract class for solving systems of ODEs: dx/dt = f(x,t)">
<polygon fill="white" stroke="#666666" points="218.96,-122 90.16,-122 90.16,-100 218.96,-100 218.96,-122"/>
<text text-anchor="middle" x="154.56" y="-106.8" font-family="Helvetica,sans-Serif" font-size="14.00">mfem::ODESolver</text>
</a>
</g>
</g>
<!-- Node2&#45;&gt;Node1 -->
<g id="edge1" class="edge">
<title>Node2&#45;&gt;Node1</title>
<path fill="none" stroke="#63b8ff" d="M167.53,-90.45C181.12,-69.97 201.94,-38.57 212.66,-22.41"/>
<polygon fill="#63b8ff" stroke="#63b8ff" points="164.13,-88.24 161.52,-98.51 169.96,-92.11 164.13,-88.24"/>
</g>
<!-- Node3 -->
<g id="node3" class="node">
<title>Node3</title>
<g id="a_node3"><a xlink:href="classmfem_1_1TimeDependentOperator.html" target="_top" xlink:title="Base abstract class for first order time dependent operators.">
<polygon fill="white" stroke="#666666" points="213.13,-194 0,-194 0,-172 213.13,-172 213.13,-194"/>
<text text-anchor="middle" x="106.56" y="-178.8" font-family="Helvetica,sans-Serif" font-size="14.00">mfem::TimeDependentOperator</text>
</a>
</g>
</g>
<!-- Node3&#45;&gt;Node2 -->
<g id="edge2" class="edge">
<title>Node3&#45;&gt;Node2</title>
<path fill="none" stroke="#9a32cd" stroke-dasharray="5,2" d="M119.62,-162.96C128.58,-149.89 140.14,-133.04 147.45,-122.37"/>
<polygon fill="#9a32cd" stroke="#9a32cd" points="116.42,-160.44 113.65,-170.67 122.19,-164.4 116.42,-160.44"/>
<text text-anchor="middle" x="139.45" y="-142.8" font-family="Helvetica,sans-Serif" font-size="14.00"> f</text>
</g>
<!-- Node4 -->
<g id="node4" class="node">
<title>Node4</title>
<g id="a_node4"><a xlink:href="classmfem_1_1Operator.html" target="_top" xlink:title="Abstract operator.">
<polygon fill="white" stroke="#666666" points="163.58,-253 49.55,-253 49.55,-231 163.58,-231 163.58,-253"/>
<text text-anchor="middle" x="106.56" y="-237.8" font-family="Helvetica,sans-Serif" font-size="14.00">mfem::Operator</text>
</a>
</g>
</g>
<!-- Node4&#45;&gt;Node3 -->
<g id="edge3" class="edge">
<title>Node4&#45;&gt;Node3</title>
<path fill="none" stroke="#63b8ff" d="M106.56,-219.67C106.56,-211.03 106.56,-201.44 106.56,-194.39"/>
<polygon fill="#63b8ff" stroke="#63b8ff" points="103.06,-219.55 106.56,-229.55 110.06,-219.55 103.06,-219.55"/>
</g>
<!-- Node5 -->
<g id="node5" class="node">
<title>Node5</title>
<g id="a_node5"><a xlink:href="classmfem_1_1Vector.html" target="_top" xlink:title="Vector data type.">
<polygon fill="white" stroke="#666666" points="354.8,-122 256.33,-122 256.33,-100 354.8,-100 354.8,-122"/>
<text text-anchor="middle" x="305.56" y="-106.8" font-family="Helvetica,sans-Serif" font-size="14.00">mfem::Vector</text>
</a>
</g>
</g>
<!-- Node5&#45;&gt;Node1 -->
<g id="edge4" class="edge">
<title>Node5&#45;&gt;Node1</title>
<path fill="none" stroke="#9a32cd" stroke-dasharray="5,2" d="M289.14,-91.28C271.19,-70.83 243.08,-38.8 228.7,-22.41"/>
<polygon fill="#9a32cd" stroke="#9a32cd" points="287.13,-93.3 296.36,-98.51 292.4,-88.69 287.13,-93.3"/>
<text text-anchor="middle" x="286.01" y="-70.8" font-family="Helvetica,sans-Serif" font-size="14.00"> k</text>
<text text-anchor="middle" x="286.01" y="-56.8" font-family="Helvetica,sans-Serif" font-size="14.00">y</text>
<text text-anchor="middle" x="286.01" y="-42.8" font-family="Helvetica,sans-Serif" font-size="14.00">z</text>
</g>
<!-- Node6 -->
<g id="node6" class="node">
<title>Node6</title>
<g id="a_node6"><a xlink:href="classmfem_1_1Memory.html" target="_top" xlink:title=" ">
<polygon fill="white" stroke="#666666" points="399.81,-194 231.32,-194 231.32,-172 399.81,-172 399.81,-194"/>
<text text-anchor="middle" x="315.56" y="-178.8" font-family="Helvetica,sans-Serif" font-size="14.00">mfem::Memory&lt; real_t &gt;</text>
</a>
</g>
</g>
<!-- Node6&#45;&gt;Node5 -->
<g id="edge5" class="edge">
<title>Node6&#45;&gt;Node5</title>
<path fill="none" stroke="#9a32cd" stroke-dasharray="5,2" d="M312.57,-161.03C310.75,-148.27 308.5,-132.52 307.05,-122.37"/>
<polygon fill="#9a32cd" stroke="#9a32cd" points="309.21,-161.27 314.09,-170.67 316.14,-160.28 309.21,-161.27"/>
<text text-anchor="middle" x="327.13" y="-142.8" font-family="Helvetica,sans-Serif" font-size="14.00"> data</text>
</g>
</g>
</svg>
