<?xml version="1.0" encoding="UTF-8" standalone="no"?>
<!DOCTYPE svg PUBLIC "-//W3C//DTD SVG 1.1//EN"
 "http://www.w3.org/Graphics/SVG/1.1/DTD/svg11.dtd">
<!-- Generated by graphviz version 8.0.5 (0)
 -->
<!-- Title: mfem::VectorFEDomainLFCurlIntegrator Pages: 1 -->
<!--zoomable 491 -->
<svg id="main" version="1.1" xmlns="http://www.w3.org/2000/svg" xmlns:xlink="http://www.w3.org/1999/xlink" xml:space="preserve" onload="init(evt)">
<style type="text/css"><![CDATA[
.edge:hover path { stroke: red; }
.edge:hover polygon { stroke: red; fill: red; }
]]></style>
<script type="text/javascript"><![CDATA[
var edges = document.getElementsByTagName('g');
if (edges && edges.length) {
  for (var i=0;i<edges.length;i++) {
    if (edges[i].id.substr(0,4)=='edge') {
      edges[i].setAttribute('class','edge');
    }
  }
}
]]></script>
        <defs>
                <circle id="rim" cx="0" cy="0" r="7"/>
                <circle id="rim2" cx="0" cy="0" r="3.5"/>
                <g id="zoomPlus">
                        <use xlink:href="#rim" fill="#404040">
                                <set attributeName="fill" to="#808080" begin="zoomplus.mouseover" end="zoomplus.mouseout"/>
                        </use>
                        <path d="M-4,0h8M0,-4v8" fill="none" stroke="white" stroke-width="1.5" pointer-events="none"/>
                </g>
                <g id="zoomMin">
                        <use xlink:href="#rim" fill="#404040">
                                <set attributeName="fill" to="#808080" begin="zoomminus.mouseover" end="zoomminus.mouseout"/>
                        </use>
                        <path d="M-4,0h8" fill="none" stroke="white" stroke-width="1.5" pointer-events="none"/>
                </g>
                <g id="dirArrow">
                        <path fill="none" stroke="white" stroke-width="1.5" d="M0,-3.0v7 M-2.5,-0.5L0,-3.0L2.5,-0.5"/>
                </g>
               <g id="resetDef">
                       <use xlink:href="#rim2" fill="#404040">
                               <set attributeName="fill" to="#808080" begin="reset.mouseover" end="reset.mouseout"/>
                       </use>
               </g>
        </defs>

<script type="text/javascript">
var viewWidth = 663;
var viewHeight = 491;
var sectionId = 'dynsection-1';
</script>
<script xlink:href="svgpan.js"/>
<svg id="graph" class="graph">
<g id="viewport">
<title>mfem::VectorFEDomainLFCurlIntegrator</title>
<!-- Node1 -->
<g id="node1" class="node">
<title>Node1</title>
<g id="a_node1"><a xlink:title="for Nedelec Elements">
<polygon fill="#999999" stroke="#666666" points="524.09,-36 317.47,-36 317.47,0 524.09,0 524.09,-36"/>
<text text-anchor="start" x="325.47" y="-20.8" font-family="Helvetica,sans-Serif" font-size="14.00">mfem::VectorFEDomainLFCurl</text>
<text text-anchor="middle" x="420.78" y="-6.8" font-family="Helvetica,sans-Serif" font-size="14.00">Integrator</text>
</a>
</g>
</g>
<!-- Node2 -->
<g id="node2" class="node">
<title>Node2</title>
<g id="a_node2"><a xlink:href="classmfem_1_1DeltaLFIntegrator.html" target="_top" xlink:title="Abstract class for integrators that support delta coefficients.">
<polygon fill="white" stroke="#666666" points="504.64,-95 336.92,-95 336.92,-73 504.64,-73 504.64,-95"/>
<text text-anchor="middle" x="420.78" y="-79.8" font-family="Helvetica,sans-Serif" font-size="14.00">mfem::DeltaLFIntegrator</text>
</a>
</g>
</g>
<!-- Node2&#45;&gt;Node1 -->
<g id="edge1" class="edge">
<title>Node2&#45;&gt;Node1</title>
<path fill="none" stroke="#63b8ff" d="M420.78,-61.97C420.78,-53.63 420.78,-44.17 420.78,-36.25"/>
<polygon fill="#63b8ff" stroke="#63b8ff" points="417.28,-61.72 420.78,-71.72 424.28,-61.72 417.28,-61.72"/>
</g>
<!-- Node3 -->
<g id="node3" class="node">
<title>Node3</title>
<g id="a_node3"><a xlink:href="classmfem_1_1LinearFormIntegrator.html" target="_top" xlink:title="Abstract base class LinearFormIntegrator.">
<polygon fill="white" stroke="#666666" points="274.92,-167 84.64,-167 84.64,-145 274.92,-145 274.92,-167"/>
<text text-anchor="middle" x="179.78" y="-151.8" font-family="Helvetica,sans-Serif" font-size="14.00">mfem::LinearFormIntegrator</text>
</a>
</g>
</g>
<!-- Node3&#45;&gt;Node2 -->
<g id="edge2" class="edge">
<title>Node3&#45;&gt;Node2</title>
<path fill="none" stroke="#63b8ff" d="M226.22,-141.51C272.52,-128.06 342.64,-107.7 384.85,-95.44"/>
<polygon fill="#63b8ff" stroke="#63b8ff" points="225.49,-138.37 216.86,-144.52 227.44,-145.09 225.49,-138.37"/>
</g>
<!-- Node4 -->
<g id="node4" class="node">
<title>Node4</title>
<g id="a_node4"><a xlink:href="classmfem_1_1IntegrationRule.html" target="_top" xlink:title="Class for an integration rule &#45; an Array of IntegrationPoint.">
<polygon fill="white" stroke="#666666" points="170.65,-239 16.92,-239 16.92,-217 170.65,-217 170.65,-239"/>
<text text-anchor="middle" x="93.78" y="-223.8" font-family="Helvetica,sans-Serif" font-size="14.00">mfem::IntegrationRule</text>
</a>
</g>
</g>
<!-- Node4&#45;&gt;Node3 -->
<g id="edge3" class="edge">
<title>Node4&#45;&gt;Node3</title>
<path fill="none" stroke="#9a32cd" stroke-dasharray="5,2" d="M114.86,-209.84C131.2,-196.54 153.3,-178.56 167.04,-167.37"/>
<polygon fill="#9a32cd" stroke="#9a32cd" points="113.02,-207.64 107.47,-216.67 117.44,-213.07 113.02,-207.64"/>
<text text-anchor="middle" x="168.9" y="-187.8" font-family="Helvetica,sans-Serif" font-size="14.00"> IntRule</text>
</g>
<!-- Node5 -->
<g id="node5" class="node">
<title>Node5</title>
<g id="a_node5"><a xlink:href="classmfem_1_1Array.html" target="_top" xlink:title=" ">
<polygon fill="white" stroke="#666666" points="179.01,-325 8.56,-325 8.56,-289 179.01,-289 179.01,-325"/>
<text text-anchor="start" x="16.56" y="-309.8" font-family="Helvetica,sans-Serif" font-size="14.00">mfem::Array&lt; Integration</text>
<text text-anchor="middle" x="93.78" y="-295.8" font-family="Helvetica,sans-Serif" font-size="14.00">Point &gt;</text>
</a>
</g>
</g>
<!-- Node5&#45;&gt;Node4 -->
<g id="edge4" class="edge">
<title>Node5&#45;&gt;Node4</title>
<path fill="none" stroke="#63b8ff" d="M93.78,-277.76C93.78,-264.24 93.78,-248.89 93.78,-239.09"/>
<polygon fill="#63b8ff" stroke="#63b8ff" points="90.28,-277.53 93.78,-287.53 97.28,-277.53 90.28,-277.53"/>
</g>
<!-- Node6 -->
<g id="node6" class="node">
<title>Node6</title>
<g id="a_node6"><a xlink:href="classmfem_1_1Memory.html" target="_top" xlink:title=" ">
<polygon fill="white" stroke="#666666" points="187.56,-411 0,-411 0,-375 187.56,-375 187.56,-411"/>
<text text-anchor="start" x="8" y="-395.8" font-family="Helvetica,sans-Serif" font-size="14.00">mfem::Memory&lt; Integration</text>
<text text-anchor="middle" x="93.78" y="-381.8" font-family="Helvetica,sans-Serif" font-size="14.00">Point &gt;</text>
</a>
</g>
</g>
<!-- Node6&#45;&gt;Node5 -->
<g id="edge5" class="edge">
<title>Node6&#45;&gt;Node5</title>
<path fill="none" stroke="#9a32cd" stroke-dasharray="5,2" d="M93.78,-363.63C93.78,-350.95 93.78,-336.42 93.78,-325.38"/>
<polygon fill="#9a32cd" stroke="#9a32cd" points="90.28,-363.6 93.78,-373.6 97.28,-363.6 90.28,-363.6"/>
<text text-anchor="middle" x="109.35" y="-345.8" font-family="Helvetica,sans-Serif" font-size="14.00"> data</text>
</g>
<!-- Node7 -->
<g id="node7" class="node">
<title>Node7</title>
<g id="a_node7"><a xlink:href="classmfem_1_1IntegrationPoint.html" target="_top" xlink:title="Class for integration point with weight.">
<polygon fill="white" stroke="#666666" points="172.2,-483 15.36,-483 15.36,-461 172.2,-461 172.2,-483"/>
<text text-anchor="middle" x="93.78" y="-467.8" font-family="Helvetica,sans-Serif" font-size="14.00">mfem::IntegrationPoint</text>
</a>
</g>
</g>
<!-- Node7&#45;&gt;Node6 -->
<g id="edge6" class="edge">
<title>Node7&#45;&gt;Node6</title>
<path fill="none" stroke="#9a32cd" stroke-dasharray="5,2" d="M93.78,-449.7C93.78,-437.6 93.78,-422.64 93.78,-411.28"/>
<polygon fill="#9a32cd" stroke="#9a32cd" points="90.28,-449.62 93.78,-459.62 97.28,-449.62 90.28,-449.62"/>
<text text-anchor="middle" x="111.68" y="-431.8" font-family="Helvetica,sans-Serif" font-size="14.00"> h_ptr</text>
</g>
<!-- Node8 -->
<g id="node8" class="node">
<title>Node8</title>
<g id="a_node8"><a xlink:href="classmfem_1_1DeltaCoefficient.html" target="_top" xlink:title="Delta function coefficient optionally multiplied by a weight coefficient and a scaled time dependent ...">
<polygon fill="white" stroke="#666666" points="645.58,-239 487.98,-239 487.98,-217 645.58,-217 645.58,-239"/>
<text text-anchor="middle" x="566.78" y="-223.8" font-family="Helvetica,sans-Serif" font-size="14.00">mfem::DeltaCoefficient</text>
</a>
</g>
</g>
<!-- Node8&#45;&gt;Node2 -->
<g id="edge7" class="edge">
<title>Node8&#45;&gt;Node2</title>
<path fill="none" stroke="#9a32cd" stroke-dasharray="5,2" d="M560.22,-206.32C553.99,-188.8 543.39,-163.64 528.78,-145 509.72,-120.69 477.93,-104.75 453.76,-95.45"/>
<polygon fill="#9a32cd" stroke="#9a32cd" points="557.17,-207.23 563.68,-215.58 563.8,-204.99 557.17,-207.23"/>
<text text-anchor="middle" x="560.9" y="-151.8" font-family="Helvetica,sans-Serif" font-size="14.00"> delta</text>
</g>
<!-- Node10 -->
<g id="node10" class="node">
<title>Node10</title>
<g id="a_node10"><a xlink:href="classmfem_1_1VectorDeltaCoefficient.html" target="_top" xlink:title="Vector coefficient defined by a scalar DeltaCoefficient and a constant vector direction.">
<polygon fill="white" stroke="#666666" points="519.43,-167 322.13,-167 322.13,-145 519.43,-145 519.43,-167"/>
<text text-anchor="middle" x="420.78" y="-151.8" font-family="Helvetica,sans-Serif" font-size="14.00">mfem::VectorDeltaCoefficient</text>
</a>
</g>
</g>
<!-- Node8&#45;&gt;Node10 -->
<g id="edge14" class="edge">
<title>Node8&#45;&gt;Node10</title>
<path fill="none" stroke="#9a32cd" stroke-dasharray="5,2" d="M535.18,-211.85C507.11,-198.39 466.83,-179.08 442.31,-167.32"/>
<polygon fill="#9a32cd" stroke="#9a32cd" points="533.39,-215.35 543.92,-216.52 536.42,-209.04 533.39,-215.35"/>
<text text-anchor="middle" x="513.62" y="-187.8" font-family="Helvetica,sans-Serif" font-size="14.00"> d</text>
</g>
<!-- Node9 -->
<g id="node9" class="node">
<title>Node9</title>
<g id="a_node9"><a xlink:href="classmfem_1_1Coefficient.html" target="_top" xlink:title="Base class Coefficients that optionally depend on space and time. These are used by the BilinearFormI...">
<polygon fill="white" stroke="#666666" points="655.24,-318 530.32,-318 530.32,-296 655.24,-296 655.24,-318"/>
<text text-anchor="middle" x="592.78" y="-302.8" font-family="Helvetica,sans-Serif" font-size="14.00">mfem::Coefficient</text>
</a>
</g>
</g>
<!-- Node9&#45;&gt;Node8 -->
<g id="edge8" class="edge">
<title>Node9&#45;&gt;Node8</title>
<path fill="none" stroke="#63b8ff" d="M582.84,-286.03C580.66,-281.19 578.49,-275.97 576.78,-271 573.12,-260.37 570.32,-247.78 568.62,-239.17"/>
<polygon fill="#63b8ff" stroke="#63b8ff" points="580.03,-287.27 587.48,-294.8 586.35,-284.27 580.03,-287.27"/>
</g>
<!-- Node9&#45;&gt;Node8 -->
<g id="edge9" class="edge">
<title>Node9&#45;&gt;Node8</title>
<path fill="none" stroke="#9a32cd" stroke-dasharray="5,2" d="M585.79,-285.31C580.76,-270.4 574.18,-250.92 570.23,-239.22"/>
<polygon fill="#9a32cd" stroke="#9a32cd" points="582.76,-286.26 589.27,-294.62 589.39,-284.02 582.76,-286.26"/>
<text text-anchor="middle" x="601.96" y="-259.8" font-family="Helvetica,sans-Serif" font-size="14.00"> weight</text>
</g>
<!-- Node10&#45;&gt;Node2 -->
<g id="edge10" class="edge">
<title>Node10&#45;&gt;Node2</title>
<path fill="none" stroke="#9a32cd" stroke-dasharray="5,2" d="M420.78,-134.03C420.78,-121.27 420.78,-105.52 420.78,-95.37"/>
<polygon fill="#9a32cd" stroke="#9a32cd" points="417.28,-133.67 420.78,-143.67 424.28,-133.67 417.28,-133.67"/>
<text text-anchor="middle" x="452.69" y="-115.8" font-family="Helvetica,sans-Serif" font-size="14.00"> vec_delta</text>
</g>
<!-- Node11 -->
<g id="node11" class="node">
<title>Node11</title>
<g id="a_node11"><a xlink:href="classmfem_1_1VectorCoefficient.html" target="_top" xlink:title="Base class for vector Coefficients that optionally depend on time and space.">
<polygon fill="white" stroke="#666666" points="353.09,-239 188.47,-239 188.47,-217 353.09,-217 353.09,-239"/>
<text text-anchor="middle" x="270.78" y="-223.8" font-family="Helvetica,sans-Serif" font-size="14.00">mfem::VectorCoefficient</text>
</a>
</g>
</g>
<!-- Node11&#45;&gt;Node10 -->
<g id="edge11" class="edge">
<title>Node11&#45;&gt;Node10</title>
<path fill="none" stroke="#63b8ff" d="M302.86,-212.03C331.72,-198.56 373.36,-179.13 398.66,-167.32"/>
<polygon fill="#63b8ff" stroke="#63b8ff" points="301.82,-209.12 294.24,-216.52 304.78,-215.46 301.82,-209.12"/>
</g>
<!-- Node12 -->
<g id="node12" class="node">
<title>Node12</title>
<g id="a_node12"><a xlink:href="classmfem_1_1Vector.html" target="_top" xlink:title="Vector data type.">
<polygon fill="white" stroke="#666666" points="470.02,-239 371.54,-239 371.54,-217 470.02,-217 470.02,-239"/>
<text text-anchor="middle" x="420.78" y="-223.8" font-family="Helvetica,sans-Serif" font-size="14.00">mfem::Vector</text>
</a>
</g>
</g>
<!-- Node12&#45;&gt;Node10 -->
<g id="edge12" class="edge">
<title>Node12&#45;&gt;Node10</title>
<path fill="none" stroke="#9a32cd" stroke-dasharray="5,2" d="M420.78,-206.03C420.78,-193.27 420.78,-177.52 420.78,-167.37"/>
<polygon fill="#9a32cd" stroke="#9a32cd" points="417.28,-205.67 420.78,-215.67 424.28,-205.67 417.28,-205.67"/>
<text text-anchor="middle" x="430.5" y="-187.8" font-family="Helvetica,sans-Serif" font-size="14.00"> dir</text>
</g>
<!-- Node13 -->
<g id="node13" class="node">
<title>Node13</title>
<g id="a_node13"><a xlink:href="classmfem_1_1Memory.html" target="_top" xlink:title=" ">
<polygon fill="white" stroke="#666666" points="505.03,-318 336.54,-318 336.54,-296 505.03,-296 505.03,-318"/>
<text text-anchor="middle" x="420.78" y="-302.8" font-family="Helvetica,sans-Serif" font-size="14.00">mfem::Memory&lt; real_t &gt;</text>
</a>
</g>
</g>
<!-- Node13&#45;&gt;Node12 -->
<g id="edge13" class="edge">
<title>Node13&#45;&gt;Node12</title>
<path fill="none" stroke="#9a32cd" stroke-dasharray="5,2" d="M420.78,-284.87C420.78,-270.02 420.78,-250.81 420.78,-239.22"/>
<polygon fill="#9a32cd" stroke="#9a32cd" points="417.28,-284.62 420.78,-294.62 424.28,-284.62 417.28,-284.62"/>
<text text-anchor="middle" x="436.35" y="-259.8" font-family="Helvetica,sans-Serif" font-size="14.00"> data</text>
</g>
</g>
</svg>
        <g id="navigator" transform="translate(0 0)" fill="#404254">
                <rect fill="#f2f5e9" fill-opacity="0.5" stroke="#606060" stroke-width=".5" x="0" y="0" width="60" height="60"/>
                <use id="zoomplus" xlink:href="#zoomPlus" x="17" y="9" onmousedown="handleZoom(evt,'in')"/>
                <use id="zoomminus" xlink:href="#zoomMin" x="42" y="9" onmousedown="handleZoom(evt,'out')"/>
                <use id="reset" xlink:href="#resetDef" x="30" y="36" onmousedown="handleReset()"/>
                <g id="arrowUp" xlink:href="#dirArrow" transform="translate(30 24)" onmousedown="handlePan(0,-1)">
                  <use xlink:href="#rim" fill="#404040">
                        <set attributeName="fill" to="#808080" begin="arrowUp.mouseover" end="arrowUp.mouseout"/>
                  </use>
                  <path fill="none" stroke="white" stroke-width="1.5" d="M0,-3.0v7 M-2.5,-0.5L0,-3.0L2.5,-0.5"/>
                </g>
                <g id="arrowRight" xlink:href="#dirArrow" transform="rotate(90) translate(36 -43)" onmousedown="handlePan(1,0)">
                  <use xlink:href="#rim" fill="#404040">
                        <set attributeName="fill" to="#808080" begin="arrowRight.mouseover" end="arrowRight.mouseout"/>
                  </use>
                  <path fill="none" stroke="white" stroke-width="1.5" d="M0,-3.0v7 M-2.5,-0.5L0,-3.0L2.5,-0.5"/>
                </g>
                <g id="arrowDown" xlink:href="#dirArrow" transform="rotate(180) translate(-30 -48)" onmousedown="handlePan(0,1)">
                  <use xlink:href="#rim" fill="#404040">
                        <set attributeName="fill" to="#808080" begin="arrowDown.mouseover" end="arrowDown.mouseout"/>
                  </use>
                  <path fill="none" stroke="white" stroke-width="1.5" d="M0,-3.0v7 M-2.5,-0.5L0,-3.0L2.5,-0.5"/>
                </g>
                <g id="arrowLeft" xlink:href="#dirArrow" transform="rotate(270) translate(-36 17)" onmousedown="handlePan(-1,0)">
                  <use xlink:href="#rim" fill="#404040">
                        <set attributeName="fill" to="#808080" begin="arrowLeft.mouseover" end="arrowLeft.mouseout"/>
                  </use>
                  <path fill="none" stroke="white" stroke-width="1.5" d="M0,-3.0v7 M-2.5,-0.5L0,-3.0L2.5,-0.5"/>
                </g>
        </g>
        <svg viewBox="0 0 15 15" width="100%" height="30px" preserveAspectRatio="xMaxYMin meet">
         <g id="arrow_out" transform="scale(0.3 0.3)">
          <a xlink:href="classmfem_1_1VectorFEDomainLFCurlIntegrator__coll__graph_org.svg" target="_base">
           <rect id="button" ry="5" rx="5" y="6" x="6" height="38" width="38"
                fill="#f2f5e9" fill-opacity="0.5" stroke="#606060" stroke-width="1.0"/>
           <path id="arrow"
             d="M 11.500037,31.436501 C 11.940474,20.09759 22.043105,11.32322 32.158766,21.979434 L 37.068811,17.246167 C 37.068811,17.246167 37.088388,32 37.088388,32 L 22.160133,31.978069 C 22.160133,31.978069 26.997745,27.140456 26.997745,27.140456 C 18.528582,18.264221 13.291696,25.230495 11.500037,31.436501 z"
             style="fill:#404040;"/>
          </a>
         </g>
        </svg>
</svg>
