<?xml version="1.0" encoding="UTF-8" standalone="no"?>
<!DOCTYPE svg PUBLIC "-//W3C//DTD SVG 1.1//EN"
 "http://www.w3.org/Graphics/SVG/1.1/DTD/svg11.dtd">
<!-- Generated by graphviz version 8.0.5 (0)
 -->
<!-- Title: mfem::ComplexGridFunction Pages: 1 -->
<svg width="202pt" height="161pt"
 viewBox="0.00 0.00 202.17 161.00" xmlns="http://www.w3.org/2000/svg" xmlns:xlink="http://www.w3.org/1999/xlink">
<g id="graph0" class="graph" transform="scale(1 1) rotate(0) translate(4 157)">
<title>mfem::ComplexGridFunction</title>
<!-- Node1 -->
<g id="node1" class="node">
<title>Node1</title>
<g id="a_node1"><a xlink:title=" ">
<polygon fill="#999999" stroke="#666666" points="194.17,-22 0,-22 0,0 194.17,0 194.17,-22"/>
<text text-anchor="middle" x="97.08" y="-6.8" font-family="Helvetica,sans-Serif" font-size="14.00">mfem::ComplexGridFunction</text>
</a>
</g>
</g>
<!-- Node2 -->
<g id="node2" class="node">
<title>Node2</title>
<g id="a_node2"><a xlink:href="classmfem_1_1Vector.html" target="_top" xlink:title="Vector data type.">
<polygon fill="white" stroke="#666666" points="146.32,-81 47.84,-81 47.84,-59 146.32,-59 146.32,-81"/>
<text text-anchor="middle" x="97.08" y="-65.8" font-family="Helvetica,sans-Serif" font-size="14.00">mfem::Vector</text>
</a>
</g>
</g>
<!-- Node2&#45;&gt;Node1 -->
<g id="edge1" class="edge">
<title>Node2&#45;&gt;Node1</title>
<path fill="none" stroke="#63b8ff" d="M97.08,-47.67C97.08,-39.03 97.08,-29.44 97.08,-22.39"/>
<polygon fill="#63b8ff" stroke="#63b8ff" points="93.58,-47.55 97.08,-57.55 100.58,-47.55 93.58,-47.55"/>
</g>
<!-- Node3 -->
<g id="node3" class="node">
<title>Node3</title>
<g id="a_node3"><a xlink:href="classmfem_1_1Memory.html" target="_top" xlink:title=" ">
<polygon fill="white" stroke="#666666" points="181.33,-153 12.84,-153 12.84,-131 181.33,-131 181.33,-153"/>
<text text-anchor="middle" x="97.08" y="-137.8" font-family="Helvetica,sans-Serif" font-size="14.00">mfem::Memory&lt; real_t &gt;</text>
</a>
</g>
</g>
<!-- Node3&#45;&gt;Node2 -->
<g id="edge2" class="edge">
<title>Node3&#45;&gt;Node2</title>
<path fill="none" stroke="#9a32cd" stroke-dasharray="5,2" d="M97.08,-120.03C97.08,-107.27 97.08,-91.52 97.08,-81.37"/>
<polygon fill="#9a32cd" stroke="#9a32cd" points="93.58,-119.67 97.08,-129.67 100.58,-119.67 93.58,-119.67"/>
<text text-anchor="middle" x="112.65" y="-101.8" font-family="Helvetica,sans-Serif" font-size="14.00"> data</text>
</g>
</g>
</svg>
