<?xml version="1.0" encoding="UTF-8" standalone="no"?>
<!DOCTYPE svg PUBLIC "-//W3C//DTD SVG 1.1//EN"
 "http://www.w3.org/Graphics/SVG/1.1/DTD/svg11.dtd">
<!-- Generated by graphviz version 8.0.5 (0)
 -->
<!-- Title: mfem::CGSolver Pages: 1 -->
<!--zoomable 165 -->
<svg id="main" version="1.1" xmlns="http://www.w3.org/2000/svg" xmlns:xlink="http://www.w3.org/1999/xlink" xml:space="preserve" onload="init(evt)">
<style type="text/css"><![CDATA[
.edge:hover path { stroke: red; }
.edge:hover polygon { stroke: red; fill: red; }
]]></style>
<script type="text/javascript"><![CDATA[
var edges = document.getElementsByTagName('g');
if (edges && edges.length) {
  for (var i=0;i<edges.length;i++) {
    if (edges[i].id.substr(0,4)=='edge') {
      edges[i].setAttribute('class','edge');
    }
  }
}
]]></script>
        <defs>
                <circle id="rim" cx="0" cy="0" r="7"/>
                <circle id="rim2" cx="0" cy="0" r="3.5"/>
                <g id="zoomPlus">
                        <use xlink:href="#rim" fill="#404040">
                                <set attributeName="fill" to="#808080" begin="zoomplus.mouseover" end="zoomplus.mouseout"/>
                        </use>
                        <path d="M-4,0h8M0,-4v8" fill="none" stroke="white" stroke-width="1.5" pointer-events="none"/>
                </g>
                <g id="zoomMin">
                        <use xlink:href="#rim" fill="#404040">
                                <set attributeName="fill" to="#808080" begin="zoomminus.mouseover" end="zoomminus.mouseout"/>
                        </use>
                        <path d="M-4,0h8" fill="none" stroke="white" stroke-width="1.5" pointer-events="none"/>
                </g>
                <g id="dirArrow">
                        <path fill="none" stroke="white" stroke-width="1.5" d="M0,-3.0v7 M-2.5,-0.5L0,-3.0L2.5,-0.5"/>
                </g>
               <g id="resetDef">
                       <use xlink:href="#rim2" fill="#404040">
                               <set attributeName="fill" to="#808080" begin="reset.mouseover" end="reset.mouseout"/>
                       </use>
               </g>
        </defs>

<script type="text/javascript">
var viewWidth = 895;
var viewHeight = 165;
var sectionId = 'dynsection-1';
</script>
<script xlink:href="svgpan.js"/>
<svg id="graph" class="graph">
<g id="viewport">
<title>mfem::CGSolver</title>
<!-- Node1 -->
<g id="node1" class="node">
<title>Node1</title>
<g id="a_node1"><a xlink:title="Conjugate gradient method.">
<polygon fill="#999999" stroke="#666666" points="849.5,-63 730.04,-63 730.04,-41 849.5,-41 849.5,-63"/>
<text text-anchor="middle" x="789.77" y="-47.8" font-family="Helvetica,sans-Serif" font-size="14.00">mfem::CGSolver</text>
</a>
</g>
</g>
<!-- Node2 -->
<g id="node2" class="node">
<title>Node2</title>
<g id="a_node2"><a xlink:href="classmfem_1_1IterativeSolver.html" target="_top" xlink:title="Abstract base class for iterative solver.">
<polygon fill="white" stroke="#666666" points="587.83,-112 439.57,-112 439.57,-90 587.83,-90 587.83,-112"/>
<text text-anchor="middle" x="513.7" y="-96.8" font-family="Helvetica,sans-Serif" font-size="14.00">mfem::IterativeSolver</text>
</a>
</g>
</g>
<!-- Node2&#45;&gt;Node1 -->
<g id="edge1" class="edge">
<title>Node2&#45;&gt;Node1</title>
<path fill="none" stroke="#63b8ff" d="M589.62,-87.61C633.68,-79.73 688.6,-69.91 729.6,-62.58"/>
<polygon fill="#63b8ff" stroke="#63b8ff" points="589.19,-84.31 579.96,-89.51 590.42,-91.2 589.19,-84.31"/>
</g>
<!-- Node5 -->
<g id="node5" class="node">
<title>Node5</title>
<g id="a_node5"><a xlink:href="classmfem_1_1IterativeSolverMonitor.html" target="_top" xlink:title="Abstract base class for an iterative solver monitor.">
<polygon fill="white" stroke="#666666" points="887.25,-128 692.3,-128 692.3,-106 887.25,-106 887.25,-128"/>
<text text-anchor="middle" x="789.77" y="-112.8" font-family="Helvetica,sans-Serif" font-size="14.00">mfem::IterativeSolverMonitor</text>
</a>
</g>
</g>
<!-- Node2&#45;&gt;Node5 -->
<g id="edge7" class="edge">
<title>Node2&#45;&gt;Node5</title>
<path fill="none" stroke="#9a32cd" stroke-dasharray="5,2" d="M599.07,-98.12C601.35,-98.08 603.61,-98.04 605.83,-98 636.26,-97.5 643.97,-95.5 674.3,-98 692.87,-99.53 712.97,-102.44 731.06,-105.52"/>
<polygon fill="#9a32cd" stroke="#9a32cd" points="599.23,-94.64 589.31,-98.37 599.39,-101.64 599.23,-94.64"/>
<text text-anchor="middle" x="640.07" y="-100.8" font-family="Helvetica,sans-Serif" font-size="14.00"> iter_solver</text>
</g>
<!-- Node3 -->
<g id="node3" class="node">
<title>Node3</title>
<g id="a_node3"><a xlink:href="classmfem_1_1Solver.html" target="_top" xlink:title="Base class for solvers.">
<polygon fill="white" stroke="#666666" points="284.5,-123 186.04,-123 186.04,-101 284.5,-101 284.5,-123"/>
<text text-anchor="middle" x="235.27" y="-107.8" font-family="Helvetica,sans-Serif" font-size="14.00">mfem::Solver</text>
</a>
</g>
</g>
<!-- Node3&#45;&gt;Node2 -->
<g id="edge2" class="edge">
<title>Node3&#45;&gt;Node2</title>
<path fill="none" stroke="#63b8ff" d="M295.64,-109.64C337.7,-107.96 394.39,-105.71 439.29,-103.92"/>
<polygon fill="#63b8ff" stroke="#63b8ff" points="295.59,-106.18 285.74,-110.07 295.87,-113.17 295.59,-106.18"/>
</g>
<!-- Node3&#45;&gt;Node2 -->
<g id="edge5" class="edge">
<title>Node3&#45;&gt;Node2</title>
<path fill="none" stroke="#9a32cd" stroke-dasharray="5,2" d="M295.58,-110.98C331.96,-110.22 379.47,-108.95 421.57,-107 427.27,-106.74 433.17,-106.43 439.1,-106.09"/>
<polygon fill="#9a32cd" stroke="#9a32cd" points="295.6,-107.5 285.67,-111.21 295.74,-114.5 295.6,-107.5"/>
<text text-anchor="middle" x="379.54" y="-111.8" font-family="Helvetica,sans-Serif" font-size="14.00"> prec</text>
</g>
<!-- Node4 -->
<g id="node4" class="node">
<title>Node4</title>
<g id="a_node4"><a xlink:href="classmfem_1_1Operator.html" target="_top" xlink:title="Abstract operator.">
<polygon fill="white" stroke="#666666" points="114.03,-152 0,-152 0,-130 114.03,-130 114.03,-152"/>
<text text-anchor="middle" x="57.01" y="-136.8" font-family="Helvetica,sans-Serif" font-size="14.00">mfem::Operator</text>
</a>
</g>
</g>
<!-- Node4&#45;&gt;Node2 -->
<g id="edge4" class="edge">
<title>Node4&#45;&gt;Node2</title>
<path fill="none" stroke="#9a32cd" stroke-dasharray="5,2" d="M125.43,-143.46C198.81,-144.97 319.34,-144.02 421.57,-127 441.05,-123.76 462.29,-117.84 479.36,-112.47"/>
<polygon fill="#9a32cd" stroke="#9a32cd" points="125.59,-139.94 115.51,-143.21 125.43,-146.94 125.59,-139.94"/>
<text text-anchor="middle" x="235.27" y="-145.8" font-family="Helvetica,sans-Serif" font-size="14.00"> oper</text>
</g>
<!-- Node4&#45;&gt;Node3 -->
<g id="edge3" class="edge">
<title>Node4&#45;&gt;Node3</title>
<path fill="none" stroke="#63b8ff" d="M124.97,-129.98C145.16,-126.66 166.92,-123.08 185.67,-120"/>
<polygon fill="#63b8ff" stroke="#63b8ff" points="124.57,-126.67 115.27,-131.74 125.7,-133.57 124.57,-126.67"/>
</g>
<!-- Node5&#45;&gt;Node2 -->
<g id="edge6" class="edge">
<title>Node5&#45;&gt;Node2</title>
<path fill="none" stroke="#9a32cd" stroke-dasharray="5,2" d="M680.94,-119.23C656.23,-118.96 630.09,-118.05 605.83,-116 596.25,-115.19 586.15,-113.94 576.3,-112.49"/>
<polygon fill="#9a32cd" stroke="#9a32cd" points="680.78,-122.74 690.81,-119.31 680.83,-115.74 680.78,-122.74"/>
<text text-anchor="middle" x="640.07" y="-121.8" font-family="Helvetica,sans-Serif" font-size="14.00"> monitor</text>
</g>
<!-- Node6 -->
<g id="node6" class="node">
<title>Node6</title>
<g id="a_node6"><a xlink:href="structmfem_1_1IterativeSolver_1_1PrintLevel.html" target="_top" xlink:title="Settings for the output behavior of the IterativeSolver.">
<polygon fill="white" stroke="#666666" points="309.4,-83 161.14,-83 161.14,-47 309.4,-47 309.4,-83"/>
<text text-anchor="start" x="169.14" y="-67.8" font-family="Helvetica,sans-Serif" font-size="14.00">mfem::IterativeSolver</text>
<text text-anchor="middle" x="235.27" y="-53.8" font-family="Helvetica,sans-Serif" font-size="14.00">::PrintLevel</text>
</a>
</g>
</g>
<!-- Node6&#45;&gt;Node2 -->
<g id="edge8" class="edge">
<title>Node6&#45;&gt;Node2</title>
<path fill="none" stroke="#9a32cd" stroke-dasharray="5,2" d="M320.41,-74.37C352.15,-78.07 388.55,-82.5 421.57,-87 427.44,-87.8 433.52,-88.66 439.62,-89.55"/>
<polygon fill="#9a32cd" stroke="#9a32cd" points="321.17,-70.82 310.84,-73.15 320.37,-77.78 321.17,-70.82"/>
<text text-anchor="middle" x="379.54" y="-89.8" font-family="Helvetica,sans-Serif" font-size="14.00"> print_options</text>
</g>
<!-- Node7 -->
<g id="node7" class="node">
<title>Node7</title>
<g id="a_node7"><a xlink:href="classmfem_1_1Vector.html" target="_top" xlink:title="Vector data type.">
<polygon fill="white" stroke="#666666" points="562.94,-22 464.46,-22 464.46,0 562.94,0 562.94,-22"/>
<text text-anchor="middle" x="513.7" y="-6.8" font-family="Helvetica,sans-Serif" font-size="14.00">mfem::Vector</text>
</a>
</g>
</g>
<!-- Node7&#45;&gt;Node1 -->
<g id="edge9" class="edge">
<title>Node7&#45;&gt;Node1</title>
<path fill="none" stroke="#9a32cd" stroke-dasharray="5,2" d="M574.06,-6.76C604.28,-5.76 641.47,-6.32 674.3,-12 706.25,-17.52 741.18,-30.88 763.95,-40.64"/>
<polygon fill="#9a32cd" stroke="#9a32cd" points="574.11,-3.29 564.26,-7.19 574.39,-10.29 574.11,-3.29"/>
<text text-anchor="middle" x="640.07" y="-42.8" font-family="Helvetica,sans-Serif" font-size="14.00"> d</text>
<text text-anchor="middle" x="640.07" y="-28.8" font-family="Helvetica,sans-Serif" font-size="14.00">r</text>
<text text-anchor="middle" x="640.07" y="-14.8" font-family="Helvetica,sans-Serif" font-size="14.00">z</text>
</g>
<!-- Node8 -->
<g id="node8" class="node">
<title>Node8</title>
<g id="a_node8"><a xlink:href="classmfem_1_1Memory.html" target="_top" xlink:title=" ">
<polygon fill="white" stroke="#666666" points="319.52,-22 151.03,-22 151.03,0 319.52,0 319.52,-22"/>
<text text-anchor="middle" x="235.27" y="-6.8" font-family="Helvetica,sans-Serif" font-size="14.00">mfem::Memory&lt; real_t &gt;</text>
</a>
</g>
</g>
<!-- Node8&#45;&gt;Node7 -->
<g id="edge10" class="edge">
<title>Node8&#45;&gt;Node7</title>
<path fill="none" stroke="#9a32cd" stroke-dasharray="5,2" d="M330.91,-11C375.78,-11 427.48,-11 464.25,-11"/>
<polygon fill="#9a32cd" stroke="#9a32cd" points="330.96,-7.5 320.96,-11 330.96,-14.5 330.96,-7.5"/>
<text text-anchor="middle" x="379.54" y="-13.8" font-family="Helvetica,sans-Serif" font-size="14.00"> data</text>
</g>
</g>
</svg>
        <g id="navigator" transform="translate(0 0)" fill="#404254">
                <rect fill="#f2f5e9" fill-opacity="0.5" stroke="#606060" stroke-width=".5" x="0" y="0" width="60" height="60"/>
                <use id="zoomplus" xlink:href="#zoomPlus" x="17" y="9" onmousedown="handleZoom(evt,'in')"/>
                <use id="zoomminus" xlink:href="#zoomMin" x="42" y="9" onmousedown="handleZoom(evt,'out')"/>
                <use id="reset" xlink:href="#resetDef" x="30" y="36" onmousedown="handleReset()"/>
                <g id="arrowUp" xlink:href="#dirArrow" transform="translate(30 24)" onmousedown="handlePan(0,-1)">
                  <use xlink:href="#rim" fill="#404040">
                        <set attributeName="fill" to="#808080" begin="arrowUp.mouseover" end="arrowUp.mouseout"/>
                  </use>
                  <path fill="none" stroke="white" stroke-width="1.5" d="M0,-3.0v7 M-2.5,-0.5L0,-3.0L2.5,-0.5"/>
                </g>
                <g id="arrowRight" xlink:href="#dirArrow" transform="rotate(90) translate(36 -43)" onmousedown="handlePan(1,0)">
                  <use xlink:href="#rim" fill="#404040">
                        <set attributeName="fill" to="#808080" begin="arrowRight.mouseover" end="arrowRight.mouseout"/>
                  </use>
                  <path fill="none" stroke="white" stroke-width="1.5" d="M0,-3.0v7 M-2.5,-0.5L0,-3.0L2.5,-0.5"/>
                </g>
                <g id="arrowDown" xlink:href="#dirArrow" transform="rotate(180) translate(-30 -48)" onmousedown="handlePan(0,1)">
                  <use xlink:href="#rim" fill="#404040">
                        <set attributeName="fill" to="#808080" begin="arrowDown.mouseover" end="arrowDown.mouseout"/>
                  </use>
                  <path fill="none" stroke="white" stroke-width="1.5" d="M0,-3.0v7 M-2.5,-0.5L0,-3.0L2.5,-0.5"/>
                </g>
                <g id="arrowLeft" xlink:href="#dirArrow" transform="rotate(270) translate(-36 17)" onmousedown="handlePan(-1,0)">
                  <use xlink:href="#rim" fill="#404040">
                        <set attributeName="fill" to="#808080" begin="arrowLeft.mouseover" end="arrowLeft.mouseout"/>
                  </use>
                  <path fill="none" stroke="white" stroke-width="1.5" d="M0,-3.0v7 M-2.5,-0.5L0,-3.0L2.5,-0.5"/>
                </g>
        </g>
        <svg viewBox="0 0 15 15" width="100%" height="30px" preserveAspectRatio="xMaxYMin meet">
         <g id="arrow_out" transform="scale(0.3 0.3)">
          <a xlink:href="classmfem_1_1CGSolver__coll__graph_org.svg" target="_base">
           <rect id="button" ry="5" rx="5" y="6" x="6" height="38" width="38"
                fill="#f2f5e9" fill-opacity="0.5" stroke="#606060" stroke-width="1.0"/>
           <path id="arrow"
             d="M 11.500037,31.436501 C 11.940474,20.09759 22.043105,11.32322 32.158766,21.979434 L 37.068811,17.246167 C 37.068811,17.246167 37.088388,32 37.088388,32 L 22.160133,31.978069 C 22.160133,31.978069 26.997745,27.140456 26.997745,27.140456 C 18.528582,18.264221 13.291696,25.230495 11.500037,31.436501 z"
             style="fill:#404040;"/>
          </a>
         </g>
        </svg>
</svg>
