<?xml version="1.0" encoding="UTF-8" standalone="no"?>
<!DOCTYPE svg PUBLIC "-//W3C//DTD SVG 1.1//EN"
 "http://www.w3.org/Graphics/SVG/1.1/DTD/svg11.dtd">
<!-- Generated by graphviz version 12.0.0 (20240704.0754)
 -->
<!-- Title: mfem::DomainLFIntegrator Pages: 1 -->
<!--zoomable 491 -->

<svg id="main" version="1.1" xmlns="http://www.w3.org/2000/svg" xmlns:xlink="http://www.w3.org/1999/xlink" xml:space="preserve" onload="init(evt)">
<style type="text/css"><![CDATA[
.node, .edge {opacity: 0.7;}
.node.selected, .edge.selected {opacity: 1;}
.edge:hover path { stroke: red; }
.edge:hover polygon { stroke: red; fill: red; }
]]></style>

<defs>
  <circle id="rim" cx="0" cy="0" r="7"/>
  <circle id="rim2" cx="0" cy="0" r="3.5"/>
  <g id="zoomPlus">
    <use xlink:href="#rim" fill="#404040"><set attributeName="fill" to="#808080" begin="zoomplus.mouseover" end="zoomplus.mouseout"/></use>
    <path d="M-4,0h8M0,-4v8" fill="none" stroke="white" stroke-width="1.5" pointer-events="none"/>
  </g>
  <g id="zoomMin">
    <use xlink:href="#rim" fill="#404040"><set attributeName="fill" to="#808080" begin="zoomminus.mouseover" end="zoomminus.mouseout"/></use>
    <path d="M-4,0h8" fill="none" stroke="white" stroke-width="1.5" pointer-events="none"/>
  </g>
  <g id="arrowUp" transform="translate(30 24)">
    <use xlink:href="#rim"/>
    <path pointer-events="none" fill="none" stroke="white" stroke-width="1.5" d="M0,-3.0v7 M-2.5,-0.5L0,-3.0L2.5,-0.5"/>
  </g>
  <g id="arrowRight" transform="rotate(90) translate(36 -43)">
    <use xlink:href="#rim"/>
    <path pointer-events="none" fill="none" stroke="white" stroke-width="1.5" d="M0,-3.0v7 M-2.5,-0.5L0,-3.0L2.5,-0.5"/>
  </g>
  <g id="arrowDown" transform="rotate(180) translate(-30 -48)">
    <use xlink:href="#rim"/>
    <path pointer-events="none" fill="none" stroke="white" stroke-width="1.5" d="M0,-3.0v7 M-2.5,-0.5L0,-3.0L2.5,-0.5"/>
  </g>
  <g id="arrowLeft" transform="rotate(270) translate(-36 17)">
    <use xlink:href="#rim"/>
    <path pointer-events="none" fill="none" stroke="white" stroke-width="1.5" d="M0,-3.0v7 M-2.5,-0.5L0,-3.0L2.5,-0.5"/>
  </g>
  <g id="resetDef">
    <use xlink:href="#rim2" fill="#404040"><set attributeName="fill" to="#808080" begin="reset.mouseover" end="reset.mouseout"/></use>
  </g>
</defs>
<script type="application/ecmascript">
var viewWidth = 654;
var viewHeight = 491;
var sectionId = 'dynsection-1';
</script>
<script type="application/ecmascript" xlink:href="svg.min.js"/>
<svg id="graph" class="graph">
<g id="viewport">
<title>mfem::DomainLFIntegrator</title>
<!-- Node1 -->
<g id="Node000001" class="node">
<title>Node1</title>
<g id="a_Node000001"><a xlink:title="Class for domain integration .">
<polygon fill="#999999" stroke="#666666" points="504.12,-23 324.62,-23 324.62,0 504.12,0 504.12,-23"/>
<text text-anchor="middle" x="414.38" y="-5.7" font-family="Helvetica,sans-Serif" font-size="14.00">mfem::DomainLFIntegrator</text>
</a>
</g>
</g>
<!-- Node2 -->
<g id="Node000002" class="node">
<title>Node2</title>
<g id="a_Node000002"><a xlink:href="classmfem_1_1DeltaLFIntegrator.html" target="_top" xlink:title="Abstract class for integrators that support delta coefficients.">
<polygon fill="white" stroke="#666666" points="496.25,-83 332.5,-83 332.5,-60 496.25,-60 496.25,-83"/>
<text text-anchor="middle" x="414.38" y="-65.7" font-family="Helvetica,sans-Serif" font-size="14.00">mfem::DeltaLFIntegrator</text>
</a>
</g>
</g>
<!-- Node2&#45;&gt;Node1 -->
<g id="edge1_Node000001_Node000002" class="edge">
<title>Node2&#45;&gt;Node1</title>
<g id="a_edge1_Node000001_Node000002"><a xlink:title=" ">
<path fill="none" stroke="#63b8ff" d="M414.38,-48.09C414.38,-39.6 414.38,-30.32 414.38,-23.36"/>
<polygon fill="#63b8ff" stroke="#63b8ff" points="410.88,-48.08 414.38,-58.08 417.88,-48.08 410.88,-48.08"/>
</a>
</g>
</g>
<!-- Node3 -->
<g id="Node000003" class="node">
<title>Node3</title>
<g id="a_Node000003"><a xlink:href="classmfem_1_1LinearFormIntegrator.html" target="_top" xlink:title="Abstract base class LinearFormIntegrator.">
<polygon fill="white" stroke="#666666" points="270.5,-157 84.25,-157 84.25,-134 270.5,-134 270.5,-157"/>
<text text-anchor="middle" x="177.38" y="-139.7" font-family="Helvetica,sans-Serif" font-size="14.00">mfem::LinearFormIntegrator</text>
</a>
</g>
</g>
<!-- Node3&#45;&gt;Node2 -->
<g id="edge2_Node000002_Node000003" class="edge">
<title>Node3&#45;&gt;Node2</title>
<g id="a_edge2_Node000002_Node000003"><a xlink:title=" ">
<path fill="none" stroke="#63b8ff" d="M224.38,-130.22C269.69,-116.46 337.27,-95.93 378.43,-83.42"/>
<polygon fill="#63b8ff" stroke="#63b8ff" points="223.37,-126.87 214.82,-133.12 225.4,-133.57 223.37,-126.87"/>
</a>
</g>
</g>
<!-- Node4 -->
<g id="Node000004" class="node">
<title>Node4</title>
<g id="a_Node000004"><a xlink:href="classmfem_1_1IntegrationRule.html" target="_top" xlink:title="Class for an integration rule &#45; an Array of IntegrationPoint.">
<polygon fill="white" stroke="#666666" points="167.5,-231 17.25,-231 17.25,-208 167.5,-208 167.5,-231"/>
<text text-anchor="middle" x="92.38" y="-213.7" font-family="Helvetica,sans-Serif" font-size="14.00">mfem::IntegrationRule</text>
</a>
</g>
</g>
<!-- Node4&#45;&gt;Node3 -->
<g id="edge3_Node000003_Node000004" class="edge">
<title>Node4&#45;&gt;Node3</title>
<g id="a_edge3_Node000003_Node000004"><a xlink:title=" ">
<path fill="none" stroke="#9a32cd" stroke-dasharray="5,2" d="M114,-200.18C130,-186.63 151.25,-168.63 164.62,-157.3"/>
<polygon fill="#9a32cd" stroke="#9a32cd" points="111.81,-197.45 106.44,-206.59 116.33,-202.79 111.81,-197.45"/>
</a>
</g>
<text text-anchor="middle" x="166.62" y="-176.7" font-family="Helvetica,sans-Serif" font-size="14.00" fill="grey"> IntRule</text>
</g>
<!-- Node5 -->
<g id="Node000005" class="node">
<title>Node5</title>
<g id="a_Node000005"><a xlink:href="classmfem_1_1Array.html" target="_top" xlink:title=" ">
<polygon fill="white" stroke="#666666" points="175.75,-320 9,-320 9,-282 175.75,-282 175.75,-320"/>
<text text-anchor="start" x="17" y="-302.7" font-family="Helvetica,sans-Serif" font-size="14.00">mfem::Array&lt; Integration</text>
<text text-anchor="middle" x="92.38" y="-287.7" font-family="Helvetica,sans-Serif" font-size="14.00">Point &gt;</text>
</a>
</g>
</g>
<!-- Node5&#45;&gt;Node4 -->
<g id="edge4_Node000004_Node000005" class="edge">
<title>Node5&#45;&gt;Node4</title>
<g id="a_edge4_Node000004_Node000005"><a xlink:title=" ">
<path fill="none" stroke="#63b8ff" d="M92.38,-270.18C92.38,-256.54 92.38,-241.24 92.38,-231.26"/>
<polygon fill="#63b8ff" stroke="#63b8ff" points="88.88,-270.05 92.38,-280.05 95.88,-270.05 88.88,-270.05"/>
</a>
</g>
</g>
<!-- Node6 -->
<g id="Node000006" class="node">
<title>Node6</title>
<g id="a_Node000006"><a xlink:href="classmfem_1_1Memory.html" target="_top" xlink:title=" ">
<polygon fill="white" stroke="#666666" points="184.75,-409 0,-409 0,-371 184.75,-371 184.75,-409"/>
<text text-anchor="start" x="8" y="-391.7" font-family="Helvetica,sans-Serif" font-size="14.00">mfem::Memory&lt; Integration</text>
<text text-anchor="middle" x="92.38" y="-376.7" font-family="Helvetica,sans-Serif" font-size="14.00">Point &gt;</text>
</a>
</g>
</g>
<!-- Node6&#45;&gt;Node5 -->
<g id="edge5_Node000005_Node000006" class="edge">
<title>Node6&#45;&gt;Node5</title>
<g id="a_edge5_Node000005_Node000006"><a xlink:title=" ">
<path fill="none" stroke="#9a32cd" stroke-dasharray="5,2" d="M92.38,-359.36C92.38,-346.45 92.38,-331.72 92.38,-320.42"/>
<polygon fill="#9a32cd" stroke="#9a32cd" points="88.88,-359.04 92.38,-369.04 95.88,-359.04 88.88,-359.04"/>
</a>
</g>
<text text-anchor="middle" x="107.38" y="-339.7" font-family="Helvetica,sans-Serif" font-size="14.00" fill="grey"> data</text>
</g>
<!-- Node7 -->
<g id="Node000007" class="node">
<title>Node7</title>
<g id="a_Node000007"><a xlink:href="classmfem_1_1IntegrationPoint.html" target="_top" xlink:title="Class for integration point with weight.">
<polygon fill="white" stroke="#666666" points="169,-483 15.75,-483 15.75,-460 169,-460 169,-483"/>
<text text-anchor="middle" x="92.38" y="-465.7" font-family="Helvetica,sans-Serif" font-size="14.00">mfem::IntegrationPoint</text>
</a>
</g>
</g>
<!-- Node7&#45;&gt;Node6 -->
<g id="edge6_Node000006_Node000007" class="edge">
<title>Node7&#45;&gt;Node6</title>
<g id="a_edge6_Node000006_Node000007"><a xlink:title=" ">
<path fill="none" stroke="#9a32cd" stroke-dasharray="5,2" d="M92.38,-448.29C92.38,-436.05 92.38,-421.04 92.38,-409.45"/>
<polygon fill="#9a32cd" stroke="#9a32cd" points="88.88,-448.26 92.38,-458.26 95.88,-448.26 88.88,-448.26"/>
</a>
</g>
<text text-anchor="middle" x="109.62" y="-428.7" font-family="Helvetica,sans-Serif" font-size="14.00" fill="grey"> h_ptr</text>
</g>
<!-- Node8 -->
<g id="Node000008" class="node">
<title>Node8</title>
<g id="a_Node000008"><a xlink:href="classmfem_1_1DeltaCoefficient.html" target="_top" xlink:title="Delta function coefficient optionally multiplied by a weight coefficient and a scaled time dependent ...">
<polygon fill="white" stroke="#666666" points="635.38,-231 481.38,-231 481.38,-208 635.38,-208 635.38,-231"/>
<text text-anchor="middle" x="558.38" y="-213.7" font-family="Helvetica,sans-Serif" font-size="14.00">mfem::DeltaCoefficient</text>
</a>
</g>
</g>
<!-- Node8&#45;&gt;Node2 -->
<g id="edge7_Node000002_Node000008" class="edge">
<title>Node8&#45;&gt;Node2</title>
<g id="a_edge7_Node000002_Node000008"><a xlink:title=" ">
<path fill="none" stroke="#9a32cd" stroke-dasharray="5,2" d="M551.68,-196.69C545.46,-178.69 534.95,-153.11 520.38,-134 501.66,-109.47 470.14,-93 446.32,-83.33"/>
<polygon fill="#9a32cd" stroke="#9a32cd" points="548.32,-197.66 554.75,-206.08 554.97,-195.48 548.32,-197.66"/>
</a>
</g>
<text text-anchor="middle" x="550.88" y="-139.7" font-family="Helvetica,sans-Serif" font-size="14.00" fill="grey"> delta</text>
</g>
<!-- Node10 -->
<g id="Node000010" class="node">
<title>Node10</title>
<g id="a_Node000010"><a xlink:href="classmfem_1_1VectorDeltaCoefficient.html" target="_top" xlink:title="Vector coefficient defined by a scalar DeltaCoefficient and a constant vector direction.">
<polygon fill="white" stroke="#666666" points="510.88,-157 317.88,-157 317.88,-134 510.88,-134 510.88,-157"/>
<text text-anchor="middle" x="414.38" y="-139.7" font-family="Helvetica,sans-Serif" font-size="14.00">mfem::VectorDeltaCoefficient</text>
</a>
</g>
</g>
<!-- Node8&#45;&gt;Node10 -->
<g id="edge14_Node000010_Node000008" class="edge">
<title>Node8&#45;&gt;Node10</title>
<g id="a_edge14_Node000010_Node000008"><a xlink:title=" ">
<path fill="none" stroke="#9a32cd" stroke-dasharray="5,2" d="M526.21,-202.42C498.72,-188.67 459.9,-169.26 435.98,-157.3"/>
<polygon fill="#9a32cd" stroke="#9a32cd" points="524.64,-205.55 535.15,-206.89 527.77,-199.29 524.64,-205.55"/>
</a>
</g>
<text text-anchor="middle" x="504" y="-176.7" font-family="Helvetica,sans-Serif" font-size="14.00" fill="grey"> d</text>
</g>
<!-- Node9 -->
<g id="Node000009" class="node">
<title>Node9</title>
<g id="a_Node000009"><a xlink:href="classmfem_1_1Coefficient.html" target="_top" xlink:title="Base class Coefficients that optionally depend on space and time. These are used by the BilinearFormI...">
<polygon fill="white" stroke="#666666" points="645.62,-312.5 523.12,-312.5 523.12,-289.5 645.62,-289.5 645.62,-312.5"/>
<text text-anchor="middle" x="584.38" y="-295.2" font-family="Helvetica,sans-Serif" font-size="14.00">mfem::Coefficient</text>
</a>
</g>
</g>
<!-- Node9&#45;&gt;Node8 -->
<g id="edge8_Node000008_Node000009" class="edge">
<title>Node9&#45;&gt;Node8</title>
<g id="a_edge8_Node000008_Node000009"><a xlink:title=" ">
<path fill="none" stroke="#63b8ff" d="M574.16,-278.83C572.06,-274.02 570.01,-268.89 568.38,-264 564.74,-253.12 561.97,-240.28 560.27,-231.39"/>
<polygon fill="#63b8ff" stroke="#63b8ff" points="570.93,-280.19 578.28,-287.81 577.29,-277.26 570.93,-280.19"/>
</a>
</g>
</g>
<!-- Node9&#45;&gt;Node8 -->
<g id="edge9_Node000008_Node000009" class="edge">
<title>Node9&#45;&gt;Node8</title>
<g id="a_edge9_Node000008_Node000009"><a xlink:title=" ">
<path fill="none" stroke="#9a32cd" stroke-dasharray="5,2" d="M577.41,-278.7C572.41,-263.41 565.88,-243.43 561.91,-231.31"/>
<polygon fill="#9a32cd" stroke="#9a32cd" points="573.96,-279.42 580.4,-287.84 580.62,-277.25 573.96,-279.42"/>
</a>
</g>
<text text-anchor="middle" x="592.75" y="-250.7" font-family="Helvetica,sans-Serif" font-size="14.00" fill="grey"> weight</text>
</g>
<!-- Node10&#45;&gt;Node2 -->
<g id="edge10_Node000002_Node000010" class="edge">
<title>Node10&#45;&gt;Node2</title>
<g id="a_edge10_Node000002_Node000010"><a xlink:title=" ">
<path fill="none" stroke="#9a32cd" stroke-dasharray="5,2" d="M414.38,-122.2C414.38,-109.17 414.38,-93.31 414.38,-83.07"/>
<polygon fill="#9a32cd" stroke="#9a32cd" points="410.88,-122.05 414.38,-132.05 417.88,-122.05 410.88,-122.05"/>
</a>
</g>
<text text-anchor="middle" x="445.12" y="-102.7" font-family="Helvetica,sans-Serif" font-size="14.00" fill="grey"> vec_delta</text>
</g>
<!-- Node11 -->
<g id="Node000011" class="node">
<title>Node11</title>
<g id="a_Node000011"><a xlink:href="classmfem_1_1VectorCoefficient.html" target="_top" xlink:title="Base class for vector Coefficients that optionally depend on time and space.">
<polygon fill="white" stroke="#666666" points="347.12,-231 185.62,-231 185.62,-208 347.12,-208 347.12,-231"/>
<text text-anchor="middle" x="266.38" y="-213.7" font-family="Helvetica,sans-Serif" font-size="14.00">mfem::VectorCoefficient</text>
</a>
</g>
</g>
<!-- Node11&#45;&gt;Node10 -->
<g id="edge11_Node000010_Node000011" class="edge">
<title>Node11&#45;&gt;Node10</title>
<g id="a_edge11_Node000010_Node000011"><a xlink:title=" ">
<path fill="none" stroke="#63b8ff" d="M299.06,-202.6C327.34,-188.84 367.47,-169.32 392.17,-157.3"/>
<polygon fill="#63b8ff" stroke="#63b8ff" points="297.68,-199.38 290.21,-206.9 300.74,-205.68 297.68,-199.38"/>
</a>
</g>
</g>
<!-- Node12 -->
<g id="Node000012" class="node">
<title>Node12</title>
<g id="a_Node000012"><a xlink:href="classmfem_1_1Vector.html" target="_top" xlink:title="Vector data type.">
<polygon fill="white" stroke="#666666" points="463.25,-231 365.5,-231 365.5,-208 463.25,-208 463.25,-231"/>
<text text-anchor="middle" x="414.38" y="-213.7" font-family="Helvetica,sans-Serif" font-size="14.00">mfem::Vector</text>
</a>
</g>
</g>
<!-- Node12&#45;&gt;Node10 -->
<g id="edge12_Node000010_Node000012" class="edge">
<title>Node12&#45;&gt;Node10</title>
<g id="a_edge12_Node000010_Node000012"><a xlink:title=" ">
<path fill="none" stroke="#9a32cd" stroke-dasharray="5,2" d="M414.38,-196.2C414.38,-183.17 414.38,-167.31 414.38,-157.07"/>
<polygon fill="#9a32cd" stroke="#9a32cd" points="410.88,-196.05 414.38,-206.05 417.88,-196.05 410.88,-196.05"/>
</a>
</g>
<text text-anchor="middle" x="423.75" y="-176.7" font-family="Helvetica,sans-Serif" font-size="14.00" fill="grey"> dir</text>
</g>
<!-- Node13 -->
<g id="Node000013" class="node">
<title>Node13</title>
<g id="a_Node000013"><a xlink:href="classmfem_1_1Memory.html" target="_top" xlink:title=" ">
<polygon fill="white" stroke="#666666" points="497.75,-312.5 331,-312.5 331,-289.5 497.75,-289.5 497.75,-312.5"/>
<text text-anchor="middle" x="414.38" y="-295.2" font-family="Helvetica,sans-Serif" font-size="14.00">mfem::Memory&lt; real_t &gt;</text>
</a>
</g>
</g>
<!-- Node13&#45;&gt;Node12 -->
<g id="edge13_Node000012_Node000013" class="edge">
<title>Node13&#45;&gt;Node12</title>
<g id="a_edge13_Node000012_Node000013"><a xlink:title=" ">
<path fill="none" stroke="#9a32cd" stroke-dasharray="5,2" d="M414.38,-277.8C414.38,-262.63 414.38,-243.2 414.38,-231.31"/>
<polygon fill="#9a32cd" stroke="#9a32cd" points="410.88,-277.76 414.38,-287.76 417.88,-277.76 410.88,-277.76"/>
</a>
</g>
<text text-anchor="middle" x="429.38" y="-250.7" font-family="Helvetica,sans-Serif" font-size="14.00" fill="grey"> data</text>
</g>
</g>
</svg>

<g id="navigator" transform="translate(0 0)" fill="#404254">
  <rect fill="#f2f5e9" fill-opacity="0.5" stroke="#606060" stroke-width=".5" x="0" y="0" width="60" height="60"/>
  <use id="zoomplus" xlink:href="#zoomPlus" x="17" y="9" onmousedown="handleZoom(evt,'in')"/>
  <use id="zoomminus" xlink:href="#zoomMin" x="42" y="9" onmousedown="handleZoom(evt,'out')"/>
  <use id="reset" xlink:href="#resetDef" x="30" y="36" onmousedown="handleReset()"/>
   <use id="arrowup" xlink:href="#arrowUp" x="0" y="0" onmousedown="handlePan(0,-1)"/>
  <use id="arrowright" xlink:href="#arrowRight" x="0" y="0" onmousedown="handlePan(1,0)"/>
  <use id="arrowdown" xlink:href="#arrowDown" x="0" y="0" onmousedown="handlePan(0,1)"/>
  <use id="arrowleft" xlink:href="#arrowLeft" x="0" y="0" onmousedown="handlePan(-1,0)"/>
</g>
<svg viewBox="0 0 15 15" width="100%" height="30px" preserveAspectRatio="xMaxYMin meet">
 <g id="arrow_out" transform="scale(0.3 0.3)">
  <a xlink:href="classmfem_1_1DomainLFIntegrator__coll__graph_org.svg" target="_base">
   <rect id="button" ry="5" rx="5" y="6" x="6" height="38" width="38"
        fill="#f2f5e9" fill-opacity="0.5" stroke="#606060" stroke-width="1.0"/>
   <path id="arrow"
     d="M 11.500037,31.436501 C 11.940474,20.09759 22.043105,11.32322 32.158766,21.979434 L 37.068811,17.246167 C 37.068811,17.246167 37.088388,32 37.088388,32 L 22.160133,31.978069 C 22.160133,31.978069 26.997745,27.140456 26.997745,27.140456 C 18.528582,18.264221 13.291696,25.230495 11.500037,31.436501 z"
     style="fill:#404040;"/>
  </a>
 </g>
</svg>

<style type='text/css'>
<![CDATA[
[data-mouse-over-selected='false'] { opacity: 0.7; }
[data-mouse-over-selected='true']  { opacity: 1.0; }
]]>
</style>
<script type="application/ecmascript"><![CDATA[
document.addEventListener('DOMContentLoaded', (event) => {
  highlightEdges();
  highlightAdjacentNodes();
});
]]></script>
</svg>
