<?xml version="1.0" encoding="UTF-8" standalone="no"?>
<!DOCTYPE svg PUBLIC "-//W3C//DTD SVG 1.1//EN"
 "http://www.w3.org/Graphics/SVG/1.1/DTD/svg11.dtd">
<!-- Generated by graphviz version 12.0.0 (20240704.0754)
 -->
<!-- Title: mfem::MixedScalarCrossCurlIntegrator Pages: 1 -->
<!--zoomable 552 -->

<svg id="main" version="1.1" xmlns="http://www.w3.org/2000/svg" xmlns:xlink="http://www.w3.org/1999/xlink" xml:space="preserve" onload="init(evt)">
<style type="text/css"><![CDATA[
.node, .edge {opacity: 0.7;}
.node.selected, .edge.selected {opacity: 1;}
.edge:hover path { stroke: red; }
.edge:hover polygon { stroke: red; fill: red; }
]]></style>

<defs>
  <circle id="rim" cx="0" cy="0" r="7"/>
  <circle id="rim2" cx="0" cy="0" r="3.5"/>
  <g id="zoomPlus">
    <use xlink:href="#rim" fill="#404040"><set attributeName="fill" to="#808080" begin="zoomplus.mouseover" end="zoomplus.mouseout"/></use>
    <path d="M-4,0h8M0,-4v8" fill="none" stroke="white" stroke-width="1.5" pointer-events="none"/>
  </g>
  <g id="zoomMin">
    <use xlink:href="#rim" fill="#404040"><set attributeName="fill" to="#808080" begin="zoomminus.mouseover" end="zoomminus.mouseout"/></use>
    <path d="M-4,0h8" fill="none" stroke="white" stroke-width="1.5" pointer-events="none"/>
  </g>
  <g id="arrowUp" transform="translate(30 24)">
    <use xlink:href="#rim"/>
    <path pointer-events="none" fill="none" stroke="white" stroke-width="1.5" d="M0,-3.0v7 M-2.5,-0.5L0,-3.0L2.5,-0.5"/>
  </g>
  <g id="arrowRight" transform="rotate(90) translate(36 -43)">
    <use xlink:href="#rim"/>
    <path pointer-events="none" fill="none" stroke="white" stroke-width="1.5" d="M0,-3.0v7 M-2.5,-0.5L0,-3.0L2.5,-0.5"/>
  </g>
  <g id="arrowDown" transform="rotate(180) translate(-30 -48)">
    <use xlink:href="#rim"/>
    <path pointer-events="none" fill="none" stroke="white" stroke-width="1.5" d="M0,-3.0v7 M-2.5,-0.5L0,-3.0L2.5,-0.5"/>
  </g>
  <g id="arrowLeft" transform="rotate(270) translate(-36 17)">
    <use xlink:href="#rim"/>
    <path pointer-events="none" fill="none" stroke="white" stroke-width="1.5" d="M0,-3.0v7 M-2.5,-0.5L0,-3.0L2.5,-0.5"/>
  </g>
  <g id="resetDef">
    <use xlink:href="#rim2" fill="#404040"><set attributeName="fill" to="#808080" begin="reset.mouseover" end="reset.mouseout"/></use>
  </g>
</defs>
<script type="application/ecmascript">
var viewWidth = 557;
var viewHeight = 552;
var sectionId = 'dynsection-1';
</script>
<script type="application/ecmascript" xlink:href="svg.min.js"/>
<svg id="graph" class="graph">
<g id="viewport">
<title>mfem::MixedScalarCrossCurlIntegrator</title>
<!-- Node1 -->
<g id="Node000001" class="node">
<title>Node1</title>
<g id="a_Node000001"><a xlink:title=" ">
<polygon fill="#999999" stroke="#666666" points="467.25,-38 273.5,-38 273.5,0 467.25,0 467.25,-38"/>
<text text-anchor="start" x="281.5" y="-20.7" font-family="Helvetica,sans-Serif" font-size="14.00">mfem::MixedScalarCrossCurl</text>
<text text-anchor="middle" x="370.38" y="-5.7" font-family="Helvetica,sans-Serif" font-size="14.00">Integrator</text>
</a>
</g>
</g>
<!-- Node2 -->
<g id="Node000002" class="node">
<title>Node2</title>
<g id="a_Node000002"><a xlink:href="classmfem_1_1MixedScalarVectorIntegrator.html" target="_top" xlink:title=" ">
<polygon fill="white" stroke="#666666" points="485.62,-98 255.12,-98 255.12,-75 485.62,-75 485.62,-98"/>
<text text-anchor="middle" x="370.38" y="-80.7" font-family="Helvetica,sans-Serif" font-size="14.00">mfem::MixedScalarVectorIntegrator</text>
</a>
</g>
</g>
<!-- Node2&#45;&gt;Node1 -->
<g id="edge1_Node000001_Node000002" class="edge">
<title>Node2&#45;&gt;Node1</title>
<g id="a_edge1_Node000001_Node000002"><a xlink:title=" ">
<path fill="none" stroke="#63b8ff" d="M370.38,-63.36C370.38,-55.2 370.38,-46.05 370.38,-38.27"/>
<polygon fill="#63b8ff" stroke="#63b8ff" points="366.88,-63.17 370.38,-73.17 373.88,-63.17 366.88,-63.17"/>
</a>
</g>
</g>
<!-- Node3 -->
<g id="Node000003" class="node">
<title>Node3</title>
<g id="a_Node000003"><a xlink:href="classmfem_1_1BilinearFormIntegrator.html" target="_top" xlink:title="Abstract base class BilinearFormIntegrator.">
<polygon fill="white" stroke="#666666" points="369.25,-172 175.5,-172 175.5,-149 369.25,-149 369.25,-172"/>
<text text-anchor="middle" x="272.38" y="-154.7" font-family="Helvetica,sans-Serif" font-size="14.00">mfem::BilinearFormIntegrator</text>
</a>
</g>
</g>
<!-- Node3&#45;&gt;Node2 -->
<g id="edge2_Node000002_Node000003" class="edge">
<title>Node3&#45;&gt;Node2</title>
<g id="a_edge2_Node000002_Node000003"><a xlink:title=" ">
<path fill="none" stroke="#63b8ff" d="M296.53,-141.75C315.06,-128.14 340.04,-109.79 355.67,-98.3"/>
<polygon fill="#63b8ff" stroke="#63b8ff" points="294.47,-138.93 288.48,-147.67 298.61,-144.57 294.47,-138.93"/>
</a>
</g>
</g>
<!-- Node4 -->
<g id="Node000004" class="node">
<title>Node4</title>
<g id="a_Node000004"><a xlink:href="classmfem_1_1NonlinearFormIntegrator.html" target="_top" xlink:title="This class is used to express the local action of a general nonlinear finite element operator....">
<polygon fill="white" stroke="#666666" points="375.62,-232 169.12,-232 169.12,-209 375.62,-209 375.62,-232"/>
<text text-anchor="middle" x="272.38" y="-214.7" font-family="Helvetica,sans-Serif" font-size="14.00">mfem::NonlinearFormIntegrator</text>
</a>
</g>
</g>
<!-- Node4&#45;&gt;Node3 -->
<g id="edge3_Node000003_Node000004" class="edge">
<title>Node4&#45;&gt;Node3</title>
<g id="a_edge3_Node000003_Node000004"><a xlink:title=" ">
<path fill="none" stroke="#63b8ff" d="M272.38,-197.09C272.38,-188.6 272.38,-179.32 272.38,-172.36"/>
<polygon fill="#63b8ff" stroke="#63b8ff" points="268.88,-197.08 272.38,-207.08 275.88,-197.08 268.88,-197.08"/>
</a>
</g>
</g>
<!-- Node5 -->
<g id="Node000005" class="node">
<title>Node5</title>
<g id="a_Node000005"><a xlink:href="classmfem_1_1IntegrationRule.html" target="_top" xlink:title="Class for an integration rule &#45; an Array of IntegrationPoint.">
<polygon fill="white" stroke="#666666" points="167.5,-306 17.25,-306 17.25,-283 167.5,-283 167.5,-306"/>
<text text-anchor="middle" x="92.38" y="-288.7" font-family="Helvetica,sans-Serif" font-size="14.00">mfem::IntegrationRule</text>
</a>
</g>
</g>
<!-- Node5&#45;&gt;Node4 -->
<g id="edge4_Node000004_Node000005" class="edge">
<title>Node5&#45;&gt;Node4</title>
<g id="a_edge4_Node000004_Node000005"><a xlink:title=" ">
<path fill="none" stroke="#9a32cd" stroke-dasharray="5,2" d="M130.28,-278.34C164.65,-264.59 214.47,-244.66 245.08,-232.42"/>
<polygon fill="#9a32cd" stroke="#9a32cd" points="129.1,-275.04 121.12,-282 131.7,-281.54 129.1,-275.04"/>
</a>
</g>
<text text-anchor="middle" x="222.62" y="-251.7" font-family="Helvetica,sans-Serif" font-size="14.00" fill="grey"> IntRule</text>
</g>
<!-- Node6 -->
<g id="Node000006" class="node">
<title>Node6</title>
<g id="a_Node000006"><a xlink:href="classmfem_1_1Array.html" target="_top" xlink:title=" ">
<polygon fill="white" stroke="#666666" points="175.75,-381 9,-381 9,-343 175.75,-343 175.75,-381"/>
<text text-anchor="start" x="17" y="-363.7" font-family="Helvetica,sans-Serif" font-size="14.00">mfem::Array&lt; Integration</text>
<text text-anchor="middle" x="92.38" y="-348.7" font-family="Helvetica,sans-Serif" font-size="14.00">Point &gt;</text>
</a>
</g>
</g>
<!-- Node6&#45;&gt;Node5 -->
<g id="edge5_Node000005_Node000006" class="edge">
<title>Node6&#45;&gt;Node5</title>
<g id="a_edge5_Node000005_Node000006"><a xlink:title=" ">
<path fill="none" stroke="#63b8ff" d="M92.38,-331.47C92.38,-322.57 92.38,-313.35 92.38,-306.47"/>
<polygon fill="#63b8ff" stroke="#63b8ff" points="88.88,-331.24 92.38,-341.24 95.88,-331.24 88.88,-331.24"/>
</a>
</g>
</g>
<!-- Node7 -->
<g id="Node000007" class="node">
<title>Node7</title>
<g id="a_Node000007"><a xlink:href="classmfem_1_1Memory.html" target="_top" xlink:title=" ">
<polygon fill="white" stroke="#666666" points="184.75,-470 0,-470 0,-432 184.75,-432 184.75,-470"/>
<text text-anchor="start" x="8" y="-452.7" font-family="Helvetica,sans-Serif" font-size="14.00">mfem::Memory&lt; Integration</text>
<text text-anchor="middle" x="92.38" y="-437.7" font-family="Helvetica,sans-Serif" font-size="14.00">Point &gt;</text>
</a>
</g>
</g>
<!-- Node7&#45;&gt;Node6 -->
<g id="edge6_Node000006_Node000007" class="edge">
<title>Node7&#45;&gt;Node6</title>
<g id="a_edge6_Node000006_Node000007"><a xlink:title=" ">
<path fill="none" stroke="#9a32cd" stroke-dasharray="5,2" d="M92.38,-420.36C92.38,-407.45 92.38,-392.72 92.38,-381.42"/>
<polygon fill="#9a32cd" stroke="#9a32cd" points="88.88,-420.04 92.38,-430.04 95.88,-420.04 88.88,-420.04"/>
</a>
</g>
<text text-anchor="middle" x="107.38" y="-400.7" font-family="Helvetica,sans-Serif" font-size="14.00" fill="grey"> data</text>
</g>
<!-- Node8 -->
<g id="Node000008" class="node">
<title>Node8</title>
<g id="a_Node000008"><a xlink:href="classmfem_1_1IntegrationPoint.html" target="_top" xlink:title="Class for integration point with weight.">
<polygon fill="white" stroke="#666666" points="169,-544 15.75,-544 15.75,-521 169,-521 169,-544"/>
<text text-anchor="middle" x="92.38" y="-526.7" font-family="Helvetica,sans-Serif" font-size="14.00">mfem::IntegrationPoint</text>
</a>
</g>
</g>
<!-- Node8&#45;&gt;Node7 -->
<g id="edge7_Node000007_Node000008" class="edge">
<title>Node8&#45;&gt;Node7</title>
<g id="a_edge7_Node000007_Node000008"><a xlink:title=" ">
<path fill="none" stroke="#9a32cd" stroke-dasharray="5,2" d="M92.38,-509.29C92.38,-497.05 92.38,-482.04 92.38,-470.45"/>
<polygon fill="#9a32cd" stroke="#9a32cd" points="88.88,-509.26 92.38,-519.26 95.88,-509.26 88.88,-509.26"/>
</a>
</g>
<text text-anchor="middle" x="109.62" y="-489.7" font-family="Helvetica,sans-Serif" font-size="14.00" fill="grey"> h_ptr</text>
</g>
<!-- Node9 -->
<g id="Node000009" class="node">
<title>Node9</title>
<g id="a_Node000009"><a xlink:href="classmfem_1_1NURBSMeshRules.html" target="_top" xlink:title="Class for defining different integration rules on each NURBS patch.">
<polygon fill="white" stroke="#666666" points="359.5,-306 185.25,-306 185.25,-283 359.5,-283 359.5,-306"/>
<text text-anchor="middle" x="272.38" y="-288.7" font-family="Helvetica,sans-Serif" font-size="14.00">mfem::NURBSMeshRules</text>
</a>
</g>
</g>
<!-- Node9&#45;&gt;Node4 -->
<g id="edge8_Node000004_Node000009" class="edge">
<title>Node9&#45;&gt;Node4</title>
<g id="a_edge8_Node000004_Node000009"><a xlink:title=" ">
<path fill="none" stroke="#9a32cd" stroke-dasharray="5,2" d="M272.38,-271.2C272.38,-258.17 272.38,-242.31 272.38,-232.07"/>
<polygon fill="#9a32cd" stroke="#9a32cd" points="268.88,-271.05 272.38,-281.05 275.88,-271.05 268.88,-271.05"/>
</a>
</g>
<text text-anchor="middle" x="308" y="-251.7" font-family="Helvetica,sans-Serif" font-size="14.00" fill="grey"> patchRules</text>
</g>
<!-- Node10 -->
<g id="Node000010" class="node">
<title>Node10</title>
<g id="a_Node000010"><a xlink:href="classmfem_1_1ceed_1_1Operator.html" target="_top" xlink:title=" ">
<polygon fill="white" stroke="#666666" points="527.12,-306 377.62,-306 377.62,-283 527.12,-283 527.12,-306"/>
<text text-anchor="middle" x="452.38" y="-288.7" font-family="Helvetica,sans-Serif" font-size="14.00">mfem::ceed::Operator</text>
</a>
</g>
</g>
<!-- Node10&#45;&gt;Node4 -->
<g id="edge9_Node000004_Node000010" class="edge">
<title>Node10&#45;&gt;Node4</title>
<g id="a_edge9_Node000004_Node000010"><a xlink:title=" ">
<path fill="none" stroke="#9a32cd" stroke-dasharray="5,2" d="M415.98,-278.11C395.82,-269.67 370.28,-259.09 347.38,-250 332.36,-244.04 315.55,-237.63 301.66,-232.4"/>
<polygon fill="#9a32cd" stroke="#9a32cd" points="414.6,-281.33 425.18,-281.97 417.31,-274.87 414.6,-281.33"/>
</a>
</g>
<text text-anchor="middle" x="408.25" y="-251.7" font-family="Helvetica,sans-Serif" font-size="14.00" fill="grey"> ceedOp</text>
</g>
<!-- Node11 -->
<g id="Node000011" class="node">
<title>Node11</title>
<g id="a_Node000011"><a xlink:href="classmfem_1_1Operator.html" target="_top" xlink:title="Abstract operator.">
<polygon fill="white" stroke="#666666" points="508.75,-373.5 396,-373.5 396,-350.5 508.75,-350.5 508.75,-373.5"/>
<text text-anchor="middle" x="452.38" y="-356.2" font-family="Helvetica,sans-Serif" font-size="14.00">mfem::Operator</text>
</a>
</g>
</g>
<!-- Node11&#45;&gt;Node10 -->
<g id="edge10_Node000010_Node000011" class="edge">
<title>Node11&#45;&gt;Node10</title>
<g id="a_edge10_Node000010_Node000011"><a xlink:title=" ">
<path fill="none" stroke="#63b8ff" d="M452.38,-338.79C452.38,-327.75 452.38,-314.92 452.38,-306.11"/>
<polygon fill="#63b8ff" stroke="#63b8ff" points="448.88,-338.67 452.38,-348.67 455.88,-338.67 448.88,-338.67"/>
</a>
</g>
</g>
<!-- Node12 -->
<g id="Node000012" class="node">
<title>Node12</title>
<g id="a_Node000012"><a xlink:href="classmfem_1_1VectorCoefficient.html" target="_top" xlink:title="Base class for vector Coefficients that optionally depend on time and space.">
<polygon fill="white" stroke="#666666" points="549.12,-172 387.62,-172 387.62,-149 549.12,-149 549.12,-172"/>
<text text-anchor="middle" x="468.38" y="-154.7" font-family="Helvetica,sans-Serif" font-size="14.00">mfem::VectorCoefficient</text>
</a>
</g>
</g>
<!-- Node12&#45;&gt;Node2 -->
<g id="edge11_Node000002_Node000012" class="edge">
<title>Node12&#45;&gt;Node2</title>
<g id="a_edge11_Node000002_Node000012"><a xlink:title=" ">
<path fill="none" stroke="#9a32cd" stroke-dasharray="5,2" d="M444.22,-141.75C425.69,-128.14 400.71,-109.79 385.08,-98.3"/>
<polygon fill="#9a32cd" stroke="#9a32cd" points="442.14,-144.57 452.27,-147.67 446.28,-138.93 442.14,-144.57"/>
</a>
</g>
<text text-anchor="middle" x="440.38" y="-117.7" font-family="Helvetica,sans-Serif" font-size="14.00" fill="grey"> VQ</text>
</g>
</g>
</svg>

<g id="navigator" transform="translate(0 0)" fill="#404254">
  <rect fill="#f2f5e9" fill-opacity="0.5" stroke="#606060" stroke-width=".5" x="0" y="0" width="60" height="60"/>
  <use id="zoomplus" xlink:href="#zoomPlus" x="17" y="9" onmousedown="handleZoom(evt,'in')"/>
  <use id="zoomminus" xlink:href="#zoomMin" x="42" y="9" onmousedown="handleZoom(evt,'out')"/>
  <use id="reset" xlink:href="#resetDef" x="30" y="36" onmousedown="handleReset()"/>
   <use id="arrowup" xlink:href="#arrowUp" x="0" y="0" onmousedown="handlePan(0,-1)"/>
  <use id="arrowright" xlink:href="#arrowRight" x="0" y="0" onmousedown="handlePan(1,0)"/>
  <use id="arrowdown" xlink:href="#arrowDown" x="0" y="0" onmousedown="handlePan(0,1)"/>
  <use id="arrowleft" xlink:href="#arrowLeft" x="0" y="0" onmousedown="handlePan(-1,0)"/>
</g>
<svg viewBox="0 0 15 15" width="100%" height="30px" preserveAspectRatio="xMaxYMin meet">
 <g id="arrow_out" transform="scale(0.3 0.3)">
  <a xlink:href="classmfem_1_1MixedScalarCrossCurlIntegrator__coll__graph_org.svg" target="_base">
   <rect id="button" ry="5" rx="5" y="6" x="6" height="38" width="38"
        fill="#f2f5e9" fill-opacity="0.5" stroke="#606060" stroke-width="1.0"/>
   <path id="arrow"
     d="M 11.500037,31.436501 C 11.940474,20.09759 22.043105,11.32322 32.158766,21.979434 L 37.068811,17.246167 C 37.068811,17.246167 37.088388,32 37.088388,32 L 22.160133,31.978069 C 22.160133,31.978069 26.997745,27.140456 26.997745,27.140456 C 18.528582,18.264221 13.291696,25.230495 11.500037,31.436501 z"
     style="fill:#404040;"/>
  </a>
 </g>
</svg>

<style type='text/css'>
<![CDATA[
[data-mouse-over-selected='false'] { opacity: 0.7; }
[data-mouse-over-selected='true']  { opacity: 1.0; }
]]>
</style>
<script type="application/ecmascript"><![CDATA[
document.addEventListener('DOMContentLoaded', (event) => {
  highlightEdges();
  highlightAdjacentNodes();
});
]]></script>
</svg>
