<?xml version="1.0" encoding="UTF-8" standalone="no"?>
<!DOCTYPE svg PUBLIC "-//W3C//DTD SVG 1.1//EN"
 "http://www.w3.org/Graphics/SVG/1.1/DTD/svg11.dtd">
<!-- Generated by graphviz version 12.0.0 (20240704.0754)
 -->
<!-- Title: mfem::DeltaLFIntegrator Pages: 1 -->
<svg width="666pt" height="324pt"
 viewBox="0.00 0.00 665.75 324.00" xmlns="http://www.w3.org/2000/svg" xmlns:xlink="http://www.w3.org/1999/xlink">
<g id="graph0" class="graph" transform="scale(1 1) rotate(0) translate(4 320)">
<title>mfem::DeltaLFIntegrator</title>
<!-- Node1 -->
<g id="Node000001" class="node">
<title>Node1</title>
<g id="a_Node000001"><a xlink:title="Abstract class for integrators that support delta coefficients.">
<polygon fill="#999999" stroke="#666666" points="386,-177 222.25,-177 222.25,-154 386,-154 386,-177"/>
<text text-anchor="middle" x="304.12" y="-159.7" font-family="Helvetica,sans-Serif" font-size="14.00">mfem::DeltaLFIntegrator</text>
</a>
</g>
</g>
<!-- Node3 -->
<g id="Node000003" class="node">
<title>Node3</title>
<g id="a_Node000003"><a xlink:href="classmfem_1_1DomainLFGradIntegrator.html" target="_top" xlink:title="Class for domain integrator .">
<polygon fill="white" stroke="#666666" points="645,-316 434.75,-316 434.75,-293 645,-293 645,-316"/>
<text text-anchor="middle" x="539.88" y="-298.7" font-family="Helvetica,sans-Serif" font-size="14.00">mfem::DomainLFGradIntegrator</text>
</a>
</g>
</g>
<!-- Node1&#45;&gt;Node3 -->
<g id="edge2_Node000001_Node000003" class="edge">
<title>Node1&#45;&gt;Node3</title>
<g id="a_edge2_Node000001_Node000003"><a xlink:title=" ">
<path fill="none" stroke="#63b8ff" d="M319.18,-186.43C338.77,-213.78 376.98,-260.95 422,-284.5 428.02,-287.65 434.43,-290.32 441.03,-292.58"/>
<polygon fill="#63b8ff" stroke="#63b8ff" points="322.29,-184.77 313.7,-178.58 316.55,-188.78 322.29,-184.77"/>
</a>
</g>
</g>
<!-- Node4 -->
<g id="Node000004" class="node">
<title>Node4</title>
<g id="a_Node000004"><a xlink:href="classmfem_1_1DomainLFIntegrator.html" target="_top" xlink:title="Class for domain integration .">
<polygon fill="white" stroke="#666666" points="629.62,-275 450.12,-275 450.12,-252 629.62,-252 629.62,-275"/>
<text text-anchor="middle" x="539.88" y="-257.7" font-family="Helvetica,sans-Serif" font-size="14.00">mfem::DomainLFIntegrator</text>
</a>
</g>
</g>
<!-- Node1&#45;&gt;Node4 -->
<g id="edge3_Node000001_Node000004" class="edge">
<title>Node1&#45;&gt;Node4</title>
<g id="a_edge3_Node000001_Node000004"><a xlink:title=" ">
<path fill="none" stroke="#63b8ff" d="M327.56,-184.32C350.01,-202.14 386.26,-228.22 422,-242.5 431,-246.1 440.63,-249.08 450.36,-251.55"/>
<polygon fill="#63b8ff" stroke="#63b8ff" points="329.98,-181.78 320,-178.2 325.57,-187.22 329.98,-181.78"/>
</a>
</g>
</g>
<!-- Node5 -->
<g id="Node000005" class="node">
<title>Node5</title>
<g id="a_Node000005"><a xlink:href="classmfem_1_1VectorDomainLFGradIntegrator.html" target="_top" xlink:title=" ">
<polygon fill="white" stroke="#666666" points="635.62,-233.5 444.12,-233.5 444.12,-195.5 635.62,-195.5 635.62,-233.5"/>
<text text-anchor="start" x="452.12" y="-216.2" font-family="Helvetica,sans-Serif" font-size="14.00">mfem::VectorDomainLFGrad</text>
<text text-anchor="middle" x="539.88" y="-201.2" font-family="Helvetica,sans-Serif" font-size="14.00">Integrator</text>
</a>
</g>
</g>
<!-- Node1&#45;&gt;Node5 -->
<g id="edge4_Node000001_Node000005" class="edge">
<title>Node1&#45;&gt;Node5</title>
<g id="a_edge4_Node000001_Node000005"><a xlink:title=" ">
<path fill="none" stroke="#63b8ff" d="M373.5,-179.83C396.13,-184.58 421.7,-189.94 445.86,-195"/>
<polygon fill="#63b8ff" stroke="#63b8ff" points="374.29,-176.42 363.79,-177.8 372.86,-183.27 374.29,-176.42"/>
</a>
</g>
</g>
<!-- Node6 -->
<g id="Node000006" class="node">
<title>Node6</title>
<g id="a_Node000006"><a xlink:href="classmfem_1_1VectorDomainLFIntegrator.html" target="_top" xlink:title=" ">
<polygon fill="white" stroke="#666666" points="649.12,-177 430.62,-177 430.62,-154 649.12,-154 649.12,-177"/>
<text text-anchor="middle" x="539.88" y="-159.7" font-family="Helvetica,sans-Serif" font-size="14.00">mfem::VectorDomainLFIntegrator</text>
</a>
</g>
</g>
<!-- Node1&#45;&gt;Node6 -->
<g id="edge5_Node000001_Node000006" class="edge">
<title>Node1&#45;&gt;Node6</title>
<g id="a_edge5_Node000001_Node000006"><a xlink:title=" ">
<path fill="none" stroke="#63b8ff" d="M397.72,-165.5C408.43,-165.5 419.43,-165.5 430.33,-165.5"/>
<polygon fill="#63b8ff" stroke="#63b8ff" points="397.74,-162 387.74,-165.5 397.74,-169 397.74,-162"/>
</a>
</g>
</g>
<!-- Node7 -->
<g id="Node000007" class="node">
<title>Node7</title>
<g id="a_Node000007"><a xlink:href="classmfem_1_1VectorFEDomainLFCurlIntegrator.html" target="_top" xlink:title="for Nedelec Elements">
<polygon fill="white" stroke="#666666" points="641.25,-135.5 438.5,-135.5 438.5,-97.5 641.25,-97.5 641.25,-135.5"/>
<text text-anchor="start" x="446.5" y="-118.2" font-family="Helvetica,sans-Serif" font-size="14.00">mfem::VectorFEDomainLFCurl</text>
<text text-anchor="middle" x="539.88" y="-103.2" font-family="Helvetica,sans-Serif" font-size="14.00">Integrator</text>
</a>
</g>
</g>
<!-- Node1&#45;&gt;Node7 -->
<g id="edge6_Node000001_Node000007" class="edge">
<title>Node1&#45;&gt;Node7</title>
<g id="a_edge6_Node000001_Node000007"><a xlink:title=" ">
<path fill="none" stroke="#63b8ff" d="M373.5,-151.17C396.13,-146.42 421.7,-141.06 445.86,-136"/>
<polygon fill="#63b8ff" stroke="#63b8ff" points="372.86,-147.73 363.79,-153.2 374.29,-154.58 372.86,-147.73"/>
</a>
</g>
</g>
<!-- Node8 -->
<g id="Node000008" class="node">
<title>Node8</title>
<g id="a_Node000008"><a xlink:href="classmfem_1_1VectorFEDomainLFDivIntegrator.html" target="_top" xlink:title="for RT Elements">
<polygon fill="white" stroke="#666666" points="638.62,-79.5 441.12,-79.5 441.12,-41.5 638.62,-41.5 638.62,-79.5"/>
<text text-anchor="start" x="449.12" y="-62.2" font-family="Helvetica,sans-Serif" font-size="14.00">mfem::VectorFEDomainLFDiv</text>
<text text-anchor="middle" x="539.88" y="-47.2" font-family="Helvetica,sans-Serif" font-size="14.00">Integrator</text>
</a>
</g>
</g>
<!-- Node1&#45;&gt;Node8 -->
<g id="edge7_Node000001_Node000008" class="edge">
<title>Node1&#45;&gt;Node8</title>
<g id="a_edge7_Node000001_Node000008"><a xlink:title=" ">
<path fill="none" stroke="#63b8ff" d="M328.12,-146.83C350.74,-129.35 386.88,-103.71 422,-88.5 429.28,-85.35 436.97,-82.51 444.79,-79.98"/>
<polygon fill="#63b8ff" stroke="#63b8ff" points="326.19,-143.9 320.49,-152.83 330.51,-149.4 326.19,-143.9"/>
</a>
</g>
</g>
<!-- Node9 -->
<g id="Node000009" class="node">
<title>Node9</title>
<g id="a_Node000009"><a xlink:href="classmfem_1_1VectorFEDomainLFIntegrator.html" target="_top" xlink:title="for VectorFiniteElements (Nedelec, Raviart&#45;Thomas)">
<polygon fill="white" stroke="#666666" points="657.75,-23 422,-23 422,0 657.75,0 657.75,-23"/>
<text text-anchor="middle" x="539.88" y="-5.7" font-family="Helvetica,sans-Serif" font-size="14.00">mfem::VectorFEDomainLFIntegrator</text>
</a>
</g>
</g>
<!-- Node1&#45;&gt;Node9 -->
<g id="edge8_Node000001_Node000009" class="edge">
<title>Node1&#45;&gt;Node9</title>
<g id="a_edge8_Node000001_Node000009"><a xlink:title=" ">
<path fill="none" stroke="#63b8ff" d="M317.51,-143.93C336.07,-113.74 374.11,-59.53 422,-32.5 428.37,-28.9 435.23,-25.9 442.3,-23.39"/>
<polygon fill="#63b8ff" stroke="#63b8ff" points="314.68,-141.85 312.55,-152.23 320.68,-145.44 314.68,-141.85"/>
</a>
</g>
</g>
<!-- Node2 -->
<g id="Node000002" class="node">
<title>Node2</title>
<g id="a_Node000002"><a xlink:href="classmfem_1_1LinearFormIntegrator.html" target="_top" xlink:title="Abstract base class LinearFormIntegrator.">
<polygon fill="white" stroke="#666666" points="186.25,-177 0,-177 0,-154 186.25,-154 186.25,-177"/>
<text text-anchor="middle" x="93.12" y="-159.7" font-family="Helvetica,sans-Serif" font-size="14.00">mfem::LinearFormIntegrator</text>
</a>
</g>
</g>
<!-- Node2&#45;&gt;Node1 -->
<g id="edge1_Node000001_Node000002" class="edge">
<title>Node2&#45;&gt;Node1</title>
<g id="a_edge1_Node000001_Node000002"><a xlink:title=" ">
<path fill="none" stroke="#63b8ff" d="M197.98,-165.5C205.96,-165.5 213.96,-165.5 221.77,-165.5"/>
<polygon fill="#63b8ff" stroke="#63b8ff" points="198.22,-162 188.22,-165.5 198.22,-169 198.22,-162"/>
</a>
</g>
</g>
</g>
</svg>
