<?xml version="1.0" encoding="UTF-8" standalone="no"?>
<!DOCTYPE svg PUBLIC "-//W3C//DTD SVG 1.1//EN"
 "http://www.w3.org/Graphics/SVG/1.1/DTD/svg11.dtd">
<!-- Generated by graphviz version 8.0.5 (0)
 -->
<!-- Title: mfem::FiniteElementSpaceHierarchy Pages: 1 -->
<svg width="426pt" height="116pt"
 viewBox="0.00 0.00 426.42 116.00" xmlns="http://www.w3.org/2000/svg" xmlns:xlink="http://www.w3.org/1999/xlink">
<g id="graph0" class="graph" transform="scale(1 1) rotate(0) translate(4 112)">
<title>mfem::FiniteElementSpaceHierarchy</title>
<!-- Node1 -->
<g id="node1" class="node">
<title>Node1</title>
<g id="a_node1"><a xlink:title=" ">
<polygon fill="#999999" stroke="#666666" points="303.96,-108 119.89,-108 119.89,-72 303.96,-72 303.96,-108"/>
<text text-anchor="start" x="127.89" y="-92.8" font-family="Helvetica,sans-Serif" font-size="14.00">mfem::FiniteElementSpace</text>
<text text-anchor="middle" x="211.93" y="-78.8" font-family="Helvetica,sans-Serif" font-size="14.00">Hierarchy</text>
</a>
</g>
</g>
<!-- Node2 -->
<g id="node2" class="node">
<title>Node2</title>
<g id="a_node2"><a xlink:href="classmfem_1_1ParFiniteElementSpaceHierarchy.html" target="_top" xlink:title=" ">
<polygon fill="white" stroke="#666666" points="205.85,-36 0,-36 0,0 205.85,0 205.85,-36"/>
<text text-anchor="start" x="8" y="-20.8" font-family="Helvetica,sans-Serif" font-size="14.00">mfem::ParFiniteElementSpace</text>
<text text-anchor="middle" x="102.93" y="-6.8" font-family="Helvetica,sans-Serif" font-size="14.00">Hierarchy</text>
</a>
</g>
</g>
<!-- Node1&#45;&gt;Node2 -->
<g id="edge1" class="edge">
<title>Node1&#45;&gt;Node2</title>
<path fill="none" stroke="#63b8ff" d="M175.69,-65.73C160.71,-56.11 143.64,-45.15 129.8,-36.26"/>
<polygon fill="#63b8ff" stroke="#63b8ff" points="173.4,-69.06 183.7,-71.52 177.18,-63.17 173.4,-69.06"/>
</g>
<!-- Node3 -->
<g id="node3" class="node">
<title>Node3</title>
<g id="a_node3"><a xlink:href="classmfem_1_1ceed_1_1AlgebraicSpaceHierarchy.html" target="_top" xlink:title="Hierarchy of AlgebraicCoarseSpace objects for use in Multigrid object.">
<polygon fill="white" stroke="#666666" points="418.42,-36 223.44,-36 223.44,0 418.42,0 418.42,-36"/>
<text text-anchor="start" x="231.44" y="-20.8" font-family="Helvetica,sans-Serif" font-size="14.00">mfem::ceed::AlgebraicSpace</text>
<text text-anchor="middle" x="320.93" y="-6.8" font-family="Helvetica,sans-Serif" font-size="14.00">Hierarchy</text>
</a>
</g>
</g>
<!-- Node1&#45;&gt;Node3 -->
<g id="edge2" class="edge">
<title>Node1&#45;&gt;Node3</title>
<path fill="none" stroke="#63b8ff" d="M248.16,-65.73C263.15,-56.11 280.21,-45.15 294.05,-36.26"/>
<polygon fill="#63b8ff" stroke="#63b8ff" points="246.67,-63.17 240.15,-71.52 250.46,-69.06 246.67,-63.17"/>
</g>
</g>
</svg>
