<?xml version="1.0" encoding="UTF-8" standalone="no"?>
<!DOCTYPE svg PUBLIC "-//W3C//DTD SVG 1.1//EN"
 "http://www.w3.org/Graphics/SVG/1.1/DTD/svg11.dtd">
<!-- Generated by graphviz version 8.0.5 (0)
 -->
<!-- Title: mfem::ceed::MixedMFConvectionIntegrator Pages: 1 -->
<svg width="233pt" height="232pt"
 viewBox="0.00 0.00 232.52 232.00" xmlns="http://www.w3.org/2000/svg" xmlns:xlink="http://www.w3.org/1999/xlink">
<g id="graph0" class="graph" transform="scale(1 1) rotate(0) translate(4 228)">
<title>mfem::ceed::MixedMFConvectionIntegrator</title>
<!-- Node1 -->
<g id="node1" class="node">
<title>Node1</title>
<g id="a_node1"><a xlink:title=" ">
<polygon fill="#999999" stroke="#666666" points="224.52,-36 0,-36 0,0 224.52,0 224.52,-36"/>
<text text-anchor="start" x="8" y="-20.8" font-family="Helvetica,sans-Serif" font-size="14.00">mfem::ceed::MixedMFConvection</text>
<text text-anchor="middle" x="112.26" y="-6.8" font-family="Helvetica,sans-Serif" font-size="14.00">Integrator</text>
</a>
</g>
</g>
<!-- Node2 -->
<g id="node2" class="node">
<title>Node2</title>
<g id="a_node2"><a xlink:href="classmfem_1_1ceed_1_1MixedIntegrator.html" target="_top" xlink:title=" ">
<polygon fill="white" stroke="#666666" points="209.35,-108 15.17,-108 15.17,-72 209.35,-72 209.35,-108"/>
<text text-anchor="start" x="23.17" y="-92.8" font-family="Helvetica,sans-Serif" font-size="14.00">mfem::ceed::MixedIntegrator</text>
<text text-anchor="middle" x="112.26" y="-78.8" font-family="Helvetica,sans-Serif" font-size="14.00">&lt; MFIntegrator &gt;</text>
</a>
</g>
</g>
<!-- Node2&#45;&gt;Node1 -->
<g id="edge1" class="edge">
<title>Node2&#45;&gt;Node1</title>
<path fill="none" stroke="#63b8ff" d="M112.26,-60.81C112.26,-52.44 112.26,-43.54 112.26,-36.1"/>
<polygon fill="#63b8ff" stroke="#63b8ff" points="108.76,-60.7 112.26,-70.7 115.76,-60.7 108.76,-60.7"/>
</g>
<!-- Node3 -->
<g id="node3" class="node">
<title>Node3</title>
<g id="a_node3"><a xlink:href="classmfem_1_1ceed_1_1Operator.html" target="_top" xlink:title=" ">
<polygon fill="white" stroke="#666666" points="188.34,-166 36.18,-166 36.18,-144 188.34,-144 188.34,-166"/>
<text text-anchor="middle" x="112.26" y="-150.8" font-family="Helvetica,sans-Serif" font-size="14.00">mfem::ceed::Operator</text>
</a>
</g>
</g>
<!-- Node3&#45;&gt;Node2 -->
<g id="edge2" class="edge">
<title>Node3&#45;&gt;Node2</title>
<path fill="none" stroke="#63b8ff" d="M112.26,-132.81C112.26,-124.76 112.26,-115.7 112.26,-108.07"/>
<polygon fill="#63b8ff" stroke="#63b8ff" points="108.76,-132.6 112.26,-142.6 115.76,-132.6 108.76,-132.6"/>
</g>
<!-- Node4 -->
<g id="node4" class="node">
<title>Node4</title>
<g id="a_node4"><a xlink:href="classmfem_1_1Operator.html" target="_top" xlink:title="Abstract operator.">
<polygon fill="white" stroke="#666666" points="169.27,-224 55.24,-224 55.24,-202 169.27,-202 169.27,-224"/>
<text text-anchor="middle" x="112.26" y="-208.8" font-family="Helvetica,sans-Serif" font-size="14.00">mfem::Operator</text>
</a>
</g>
</g>
<!-- Node4&#45;&gt;Node3 -->
<g id="edge3" class="edge">
<title>Node4&#45;&gt;Node3</title>
<path fill="none" stroke="#63b8ff" d="M112.26,-190.75C112.26,-182.34 112.26,-173.06 112.26,-166.21"/>
<polygon fill="#63b8ff" stroke="#63b8ff" points="108.76,-190.73 112.26,-200.73 115.76,-190.73 108.76,-190.73"/>
</g>
</g>
</svg>
