<?xml version="1.0" encoding="UTF-8" standalone="no"?>
<!DOCTYPE svg PUBLIC "-//W3C//DTD SVG 1.1//EN"
 "http://www.w3.org/Graphics/SVG/1.1/DTD/svg11.dtd">
<!-- Generated by graphviz version 8.0.5 (0)
 -->
<!-- Title: mfem::DGMassInverse Pages: 1 -->
<svg width="167pt" height="146pt"
 viewBox="0.00 0.00 167.14 146.00" xmlns="http://www.w3.org/2000/svg" xmlns:xlink="http://www.w3.org/1999/xlink">
<g id="graph0" class="graph" transform="scale(1 1) rotate(0) translate(4 142)">
<title>mfem::DGMassInverse</title>
<!-- Node1 -->
<g id="node1" class="node">
<title>Node1</title>
<g id="a_node1"><a xlink:title="Solver for the discontinuous Galerkin mass matrix.">
<polygon fill="#999999" stroke="#666666" points="159.14,-22 0,-22 0,0 159.14,0 159.14,-22"/>
<text text-anchor="middle" x="79.57" y="-6.8" font-family="Helvetica,sans-Serif" font-size="14.00">mfem::DGMassInverse</text>
</a>
</g>
</g>
<!-- Node2 -->
<g id="node2" class="node">
<title>Node2</title>
<g id="a_node2"><a xlink:href="classmfem_1_1Solver.html" target="_top" xlink:title="Base class for solvers.">
<polygon fill="white" stroke="#666666" points="128.8,-80 30.34,-80 30.34,-58 128.8,-58 128.8,-80"/>
<text text-anchor="middle" x="79.57" y="-64.8" font-family="Helvetica,sans-Serif" font-size="14.00">mfem::Solver</text>
</a>
</g>
</g>
<!-- Node2&#45;&gt;Node1 -->
<g id="edge1" class="edge">
<title>Node2&#45;&gt;Node1</title>
<path fill="none" stroke="#63b8ff" d="M79.57,-46.75C79.57,-38.34 79.57,-29.06 79.57,-22.21"/>
<polygon fill="#63b8ff" stroke="#63b8ff" points="76.07,-46.73 79.57,-56.73 83.07,-46.73 76.07,-46.73"/>
</g>
<!-- Node3 -->
<g id="node3" class="node">
<title>Node3</title>
<g id="a_node3"><a xlink:href="classmfem_1_1Operator.html" target="_top" xlink:title="Abstract operator.">
<polygon fill="white" stroke="#666666" points="136.58,-138 22.56,-138 22.56,-116 136.58,-116 136.58,-138"/>
<text text-anchor="middle" x="79.57" y="-122.8" font-family="Helvetica,sans-Serif" font-size="14.00">mfem::Operator</text>
</a>
</g>
</g>
<!-- Node3&#45;&gt;Node2 -->
<g id="edge2" class="edge">
<title>Node3&#45;&gt;Node2</title>
<path fill="none" stroke="#63b8ff" d="M79.57,-104.75C79.57,-96.34 79.57,-87.06 79.57,-80.21"/>
<polygon fill="#63b8ff" stroke="#63b8ff" points="76.07,-104.73 79.57,-114.73 83.07,-104.73 76.07,-104.73"/>
</g>
</g>
</svg>
