<?xml version="1.0" encoding="UTF-8" standalone="no"?>
<!DOCTYPE svg PUBLIC "-//W3C//DTD SVG 1.1//EN"
 "http://www.w3.org/Graphics/SVG/1.1/DTD/svg11.dtd">
<!-- Generated by graphviz version 8.0.5 (0)
 -->
<!-- Title: mfem::BiQuad2DFiniteElement Pages: 1 -->
<svg width="217pt" height="204pt"
 viewBox="0.00 0.00 216.96 204.00" xmlns="http://www.w3.org/2000/svg" xmlns:xlink="http://www.w3.org/1999/xlink">
<g id="graph0" class="graph" transform="scale(1 1) rotate(0) translate(4 200)">
<title>mfem::BiQuad2DFiniteElement</title>
<!-- Node1 -->
<g id="node1" class="node">
<title>Node1</title>
<g id="a_node1"><a xlink:title="A 2D bi&#45;quadratic element on a square with uniformly spaced nodes.">
<polygon fill="#999999" stroke="#666666" points="208.96,-22 0,-22 0,0 208.96,0 208.96,-22"/>
<text text-anchor="middle" x="104.48" y="-6.8" font-family="Helvetica,sans-Serif" font-size="14.00">mfem::BiQuad2DFiniteElement</text>
</a>
</g>
</g>
<!-- Node2 -->
<g id="node2" class="node">
<title>Node2</title>
<g id="a_node2"><a xlink:href="classmfem_1_1NodalFiniteElement.html" target="_top" xlink:title="Class for standard nodal finite elements.">
<polygon fill="white" stroke="#666666" points="194.96,-80 14.01,-80 14.01,-58 194.96,-58 194.96,-80"/>
<text text-anchor="middle" x="104.48" y="-64.8" font-family="Helvetica,sans-Serif" font-size="14.00">mfem::NodalFiniteElement</text>
</a>
</g>
</g>
<!-- Node2&#45;&gt;Node1 -->
<g id="edge1" class="edge">
<title>Node2&#45;&gt;Node1</title>
<path fill="none" stroke="#63b8ff" d="M104.48,-46.75C104.48,-38.34 104.48,-29.06 104.48,-22.21"/>
<polygon fill="#63b8ff" stroke="#63b8ff" points="100.98,-46.73 104.48,-56.73 107.98,-46.73 100.98,-46.73"/>
</g>
<!-- Node3 -->
<g id="node3" class="node">
<title>Node3</title>
<g id="a_node3"><a xlink:href="classmfem_1_1ScalarFiniteElement.html" target="_top" xlink:title="Class for finite elements with basis functions that return scalar values.">
<polygon fill="white" stroke="#666666" points="196.51,-138 12.46,-138 12.46,-116 196.51,-116 196.51,-138"/>
<text text-anchor="middle" x="104.48" y="-122.8" font-family="Helvetica,sans-Serif" font-size="14.00">mfem::ScalarFiniteElement</text>
</a>
</g>
</g>
<!-- Node3&#45;&gt;Node2 -->
<g id="edge2" class="edge">
<title>Node3&#45;&gt;Node2</title>
<path fill="none" stroke="#63b8ff" d="M104.48,-104.75C104.48,-96.34 104.48,-87.06 104.48,-80.21"/>
<polygon fill="#63b8ff" stroke="#63b8ff" points="100.98,-104.73 104.48,-114.73 107.98,-104.73 100.98,-104.73"/>
</g>
<!-- Node4 -->
<g id="node4" class="node">
<title>Node4</title>
<g id="a_node4"><a xlink:href="classmfem_1_1FiniteElement.html" target="_top" xlink:title="Abstract class for all finite elements.">
<polygon fill="white" stroke="#666666" points="176.67,-196 32.3,-196 32.3,-174 176.67,-174 176.67,-196"/>
<text text-anchor="middle" x="104.48" y="-180.8" font-family="Helvetica,sans-Serif" font-size="14.00">mfem::FiniteElement</text>
</a>
</g>
</g>
<!-- Node4&#45;&gt;Node3 -->
<g id="edge3" class="edge">
<title>Node4&#45;&gt;Node3</title>
<path fill="none" stroke="#63b8ff" d="M104.48,-162.75C104.48,-154.34 104.48,-145.06 104.48,-138.21"/>
<polygon fill="#63b8ff" stroke="#63b8ff" points="100.98,-162.73 104.48,-172.73 107.98,-162.73 100.98,-162.73"/>
</g>
</g>
</svg>
