<?xml version="1.0" encoding="UTF-8" standalone="no"?>
<!DOCTYPE svg PUBLIC "-//W3C//DTD SVG 1.1//EN"
 "http://www.w3.org/Graphics/SVG/1.1/DTD/svg11.dtd">
<!-- Generated by graphviz version 12.0.0 (20240704.0754)
 -->
<!-- Title: mfem::NURBS2DFiniteElement Pages: 1 -->
<!--zoomable 458 -->

<svg id="main" version="1.1" xmlns="http://www.w3.org/2000/svg" xmlns:xlink="http://www.w3.org/1999/xlink" xml:space="preserve" onload="init(evt)">
<style type="text/css"><![CDATA[
.node, .edge {opacity: 0.7;}
.node.selected, .edge.selected {opacity: 1;}
.edge:hover path { stroke: red; }
.edge:hover polygon { stroke: red; fill: red; }
]]></style>

<defs>
  <circle id="rim" cx="0" cy="0" r="7"/>
  <circle id="rim2" cx="0" cy="0" r="3.5"/>
  <g id="zoomPlus">
    <use xlink:href="#rim" fill="#404040"><set attributeName="fill" to="#808080" begin="zoomplus.mouseover" end="zoomplus.mouseout"/></use>
    <path d="M-4,0h8M0,-4v8" fill="none" stroke="white" stroke-width="1.5" pointer-events="none"/>
  </g>
  <g id="zoomMin">
    <use xlink:href="#rim" fill="#404040"><set attributeName="fill" to="#808080" begin="zoomminus.mouseover" end="zoomminus.mouseout"/></use>
    <path d="M-4,0h8" fill="none" stroke="white" stroke-width="1.5" pointer-events="none"/>
  </g>
  <g id="arrowUp" transform="translate(30 24)">
    <use xlink:href="#rim"/>
    <path pointer-events="none" fill="none" stroke="white" stroke-width="1.5" d="M0,-3.0v7 M-2.5,-0.5L0,-3.0L2.5,-0.5"/>
  </g>
  <g id="arrowRight" transform="rotate(90) translate(36 -43)">
    <use xlink:href="#rim"/>
    <path pointer-events="none" fill="none" stroke="white" stroke-width="1.5" d="M0,-3.0v7 M-2.5,-0.5L0,-3.0L2.5,-0.5"/>
  </g>
  <g id="arrowDown" transform="rotate(180) translate(-30 -48)">
    <use xlink:href="#rim"/>
    <path pointer-events="none" fill="none" stroke="white" stroke-width="1.5" d="M0,-3.0v7 M-2.5,-0.5L0,-3.0L2.5,-0.5"/>
  </g>
  <g id="arrowLeft" transform="rotate(270) translate(-36 17)">
    <use xlink:href="#rim"/>
    <path pointer-events="none" fill="none" stroke="white" stroke-width="1.5" d="M0,-3.0v7 M-2.5,-0.5L0,-3.0L2.5,-0.5"/>
  </g>
  <g id="resetDef">
    <use xlink:href="#rim2" fill="#404040"><set attributeName="fill" to="#808080" begin="reset.mouseover" end="reset.mouseout"/></use>
  </g>
</defs>
<script type="application/ecmascript">
var viewWidth = 2103;
var viewHeight = 458;
var sectionId = 'dynsection-1';
</script>
<script type="application/ecmascript" xlink:href="svg.min.js"/>
<svg id="graph" class="graph">
<g id="viewport">
<title>mfem::NURBS2DFiniteElement</title>
<!-- Node1 -->
<g id="Node000001" class="node">
<title>Node1</title>
<g id="a_Node000001"><a xlink:title="An arbitrary order 2D NURBS element on a square.">
<polygon fill="#999999" stroke="#666666" points="2094.75,-177.5 1888.25,-177.5 1888.25,-154.5 2094.75,-154.5 2094.75,-177.5"/>
<text text-anchor="middle" x="1991.5" y="-160.2" font-family="Helvetica,sans-Serif" font-size="14.00">mfem::NURBS2DFiniteElement</text>
</a>
</g>
</g>
<!-- Node2 -->
<g id="Node000002" class="node">
<title>Node2</title>
<g id="a_Node000002"><a xlink:href="classmfem_1_1NURBSFiniteElement.html" target="_top" xlink:title="An arbitrary order and dimension NURBS element.">
<polygon fill="white" stroke="#666666" points="1822.25,-177.5 1633,-177.5 1633,-154.5 1822.25,-154.5 1822.25,-177.5"/>
<text text-anchor="middle" x="1727.62" y="-160.2" font-family="Helvetica,sans-Serif" font-size="14.00">mfem::NURBSFiniteElement</text>
</a>
</g>
</g>
<!-- Node2&#45;&gt;Node1 -->
<g id="edge1_Node000001_Node000002" class="edge">
<title>Node2&#45;&gt;Node1</title>
<g id="a_edge1_Node000001_Node000002"><a xlink:title=" ">
<path fill="none" stroke="#63b8ff" d="M1833.77,-166C1851.66,-166 1870.22,-166 1888.03,-166"/>
<polygon fill="#63b8ff" stroke="#63b8ff" points="1833.94,-162.5 1823.94,-166 1833.94,-169.5 1833.94,-162.5"/>
</a>
</g>
</g>
<!-- Node3 -->
<g id="Node000003" class="node">
<title>Node3</title>
<g id="a_Node000003"><a xlink:href="classmfem_1_1ScalarFiniteElement.html" target="_top" xlink:title="Class for finite elements with basis functions that return scalar values.">
<polygon fill="white" stroke="#666666" points="1498.75,-217.5 1318.5,-217.5 1318.5,-194.5 1498.75,-194.5 1498.75,-217.5"/>
<text text-anchor="middle" x="1408.62" y="-200.2" font-family="Helvetica,sans-Serif" font-size="14.00">mfem::ScalarFiniteElement</text>
</a>
</g>
</g>
<!-- Node3&#45;&gt;Node2 -->
<g id="edge2_Node000002_Node000003" class="edge">
<title>Node3&#45;&gt;Node2</title>
<g id="a_edge2_Node000002_Node000003"><a xlink:title=" ">
<path fill="none" stroke="#63b8ff" d="M1510.6,-193.26C1549.69,-188.33 1594.18,-182.71 1632.58,-177.87"/>
<polygon fill="#63b8ff" stroke="#63b8ff" points="1510.18,-189.78 1500.7,-194.51 1511.05,-196.73 1510.18,-189.78"/>
</a>
</g>
</g>
<!-- Node4 -->
<g id="Node000004" class="node">
<title>Node4</title>
<g id="a_Node000004"><a xlink:href="classmfem_1_1FiniteElement.html" target="_top" xlink:title="Abstract class for all finite elements.">
<polygon fill="white" stroke="#666666" points="1207.12,-308.5 1065.12,-308.5 1065.12,-285.5 1207.12,-285.5 1207.12,-308.5"/>
<text text-anchor="middle" x="1136.12" y="-291.2" font-family="Helvetica,sans-Serif" font-size="14.00">mfem::FiniteElement</text>
</a>
</g>
</g>
<!-- Node4&#45;&gt;Node3 -->
<g id="edge3_Node000003_Node000004" class="edge">
<title>Node4&#45;&gt;Node3</title>
<g id="a_edge3_Node000003_Node000004"><a xlink:title=" ">
<path fill="none" stroke="#63b8ff" d="M1179.47,-281.01C1216.07,-267.38 1270.5,-247.59 1318.5,-232 1333.52,-227.12 1350.11,-222.17 1364.85,-217.91"/>
<polygon fill="#63b8ff" stroke="#63b8ff" points="1178.27,-277.72 1170.13,-284.5 1180.72,-284.28 1178.27,-277.72"/>
</a>
</g>
</g>
<!-- Node14 -->
<g id="Node000014" class="node">
<title>Node14</title>
<g id="a_Node000014"><a xlink:href="classmfem_1_1DofToQuad.html" target="_top" xlink:title="Structure representing the matrices/tensors needed to evaluate (in reference space) the values,...">
<polygon fill="white" stroke="#666666" points="1472.5,-369.5 1344.75,-369.5 1344.75,-346.5 1472.5,-346.5 1472.5,-369.5"/>
<text text-anchor="middle" x="1408.62" y="-352.2" font-family="Helvetica,sans-Serif" font-size="14.00">mfem::DofToQuad</text>
</a>
</g>
</g>
<!-- Node4&#45;&gt;Node14 -->
<g id="edge14_Node000014_Node000004" class="edge">
<title>Node4&#45;&gt;Node14</title>
<g id="a_edge14_Node000014_Node000004"><a xlink:title=" ">
<path fill="none" stroke="#9a32cd" stroke-dasharray="5,2" d="M1208.89,-311.26C1237.46,-317.11 1270.59,-324.12 1300.5,-331 1320.69,-335.64 1342.91,-341.17 1361.85,-346.02"/>
<polygon fill="#9a32cd" stroke="#9a32cd" points="1209.75,-307.87 1199.26,-309.3 1208.36,-314.72 1209.75,-307.87"/>
</a>
</g>
<text text-anchor="middle" x="1265.62" y="-332.7" font-family="Helvetica,sans-Serif" font-size="14.00" fill="grey"> FE</text>
</g>
<!-- Node5 -->
<g id="Node000005" class="node">
<title>Node5</title>
<g id="a_Node000005"><a xlink:href="classmfem_1_1IntegrationRule.html" target="_top" xlink:title="Class for an integration rule &#45; an Array of IntegrationPoint.">
<polygon fill="white" stroke="#666666" points="976.25,-365.5 826,-365.5 826,-342.5 976.25,-342.5 976.25,-365.5"/>
<text text-anchor="middle" x="901.12" y="-348.2" font-family="Helvetica,sans-Serif" font-size="14.00">mfem::IntegrationRule</text>
</a>
</g>
</g>
<!-- Node5&#45;&gt;Node4 -->
<g id="edge4_Node000004_Node000005" class="edge">
<title>Node5&#45;&gt;Node4</title>
<g id="a_edge4_Node000004_Node000005"><a xlink:title=" ">
<path fill="none" stroke="#9a32cd" stroke-dasharray="5,2" d="M960.47,-339.36C971.68,-336.57 983.32,-333.68 994.25,-331 1024.43,-323.59 1058.27,-315.42 1085.23,-308.94"/>
<polygon fill="#9a32cd" stroke="#9a32cd" points="959.77,-335.93 950.92,-341.74 961.47,-342.72 959.77,-335.93"/>
</a>
</g>
<text text-anchor="middle" x="1017.88" y="-332.7" font-family="Helvetica,sans-Serif" font-size="14.00" fill="grey"> Nodes</text>
</g>
<!-- Node5&#45;&gt;Node14 -->
<g id="edge15_Node000014_Node000005" class="edge">
<title>Node5&#45;&gt;Node14</title>
<g id="a_edge15_Node000014_Node000005"><a xlink:title=" ">
<path fill="none" stroke="#9a32cd" stroke-dasharray="5,2" d="M988.1,-354.68C1089.11,-355.48 1254.33,-356.79 1344.33,-357.5"/>
<polygon fill="#9a32cd" stroke="#9a32cd" points="988.25,-351.18 978.23,-354.6 988.2,-358.18 988.25,-351.18"/>
</a>
</g>
<text text-anchor="middle" x="1136.12" y="-357.7" font-family="Helvetica,sans-Serif" font-size="14.00" fill="grey"> IntRule</text>
</g>
<!-- Node6 -->
<g id="Node000006" class="node">
<title>Node6</title>
<g id="a_Node000006"><a xlink:href="classmfem_1_1Array.html" target="_top" xlink:title=" ">
<polygon fill="white" stroke="#666666" points="641.25,-373 474.5,-373 474.5,-335 641.25,-335 641.25,-373"/>
<text text-anchor="start" x="482.5" y="-355.7" font-family="Helvetica,sans-Serif" font-size="14.00">mfem::Array&lt; Integration</text>
<text text-anchor="middle" x="557.88" y="-340.7" font-family="Helvetica,sans-Serif" font-size="14.00">Point &gt;</text>
</a>
</g>
</g>
<!-- Node6&#45;&gt;Node5 -->
<g id="edge5_Node000005_Node000006" class="edge">
<title>Node6&#45;&gt;Node5</title>
<g id="a_edge5_Node000005_Node000006"><a xlink:title=" ">
<path fill="none" stroke="#63b8ff" d="M652.88,-354C707.29,-354 774.82,-354 825.55,-354"/>
<polygon fill="#63b8ff" stroke="#63b8ff" points="653,-350.5 643,-354 653,-357.5 653,-350.5"/>
</a>
</g>
</g>
<!-- Node7 -->
<g id="Node000007" class="node">
<title>Node7</title>
<g id="a_Node000007"><a xlink:href="classmfem_1_1Memory.html" target="_top" xlink:title=" ">
<polygon fill="white" stroke="#666666" points="408.5,-373 223.75,-373 223.75,-335 408.5,-335 408.5,-373"/>
<text text-anchor="start" x="231.75" y="-355.7" font-family="Helvetica,sans-Serif" font-size="14.00">mfem::Memory&lt; Integration</text>
<text text-anchor="middle" x="316.12" y="-340.7" font-family="Helvetica,sans-Serif" font-size="14.00">Point &gt;</text>
</a>
</g>
</g>
<!-- Node7&#45;&gt;Node6 -->
<g id="edge6_Node000006_Node000007" class="edge">
<title>Node7&#45;&gt;Node6</title>
<g id="a_edge6_Node000006_Node000007"><a xlink:title=" ">
<path fill="none" stroke="#9a32cd" stroke-dasharray="5,2" d="M420.26,-354C438.31,-354 456.89,-354 474.3,-354"/>
<polygon fill="#9a32cd" stroke="#9a32cd" points="420.3,-350.5 410.3,-354 420.3,-357.5 420.3,-350.5"/>
</a>
</g>
<text text-anchor="middle" x="441.5" y="-355.7" font-family="Helvetica,sans-Serif" font-size="14.00" fill="grey"> data</text>
</g>
<!-- Node8 -->
<g id="Node000008" class="node">
<title>Node8</title>
<g id="a_Node000008"><a xlink:href="classmfem_1_1IntegrationPoint.html" target="_top" xlink:title="Class for integration point with weight.">
<polygon fill="white" stroke="#666666" points="153.25,-365.5 0,-365.5 0,-342.5 153.25,-342.5 153.25,-365.5"/>
<text text-anchor="middle" x="76.62" y="-348.2" font-family="Helvetica,sans-Serif" font-size="14.00">mfem::IntegrationPoint</text>
</a>
</g>
</g>
<!-- Node8&#45;&gt;Node7 -->
<g id="edge7_Node000007_Node000008" class="edge">
<title>Node8&#45;&gt;Node7</title>
<g id="a_edge7_Node000007_Node000008"><a xlink:title=" ">
<path fill="none" stroke="#9a32cd" stroke-dasharray="5,2" d="M164.82,-354C183.91,-354 204.17,-354 223.42,-354"/>
<polygon fill="#9a32cd" stroke="#9a32cd" points="164.94,-350.5 154.94,-354 164.94,-357.5 164.94,-350.5"/>
</a>
</g>
<text text-anchor="middle" x="188.5" y="-355.7" font-family="Helvetica,sans-Serif" font-size="14.00" fill="grey"> h_ptr</text>
</g>
<!-- Node9 -->
<g id="Node000009" class="node">
<title>Node9</title>
<g id="a_Node000009"><a xlink:href="classmfem_1_1DenseMatrix.html" target="_top" xlink:title="Data type dense matrix using column&#45;major storage.">
<polygon fill="white" stroke="#666666" points="968.75,-271.5 833.5,-271.5 833.5,-248.5 968.75,-248.5 968.75,-271.5"/>
<text text-anchor="middle" x="901.12" y="-254.2" font-family="Helvetica,sans-Serif" font-size="14.00">mfem::DenseMatrix</text>
</a>
</g>
</g>
<!-- Node9&#45;&gt;Node1 -->
<g id="edge27_Node000001_Node000009" class="edge">
<title>Node9&#45;&gt;Node1</title>
<g id="a_edge27_Node000001_Node000009"><a xlink:title=" ">
<path fill="none" stroke="#9a32cd" stroke-dasharray="5,2" d="M980.65,-256.97C1025.83,-255.48 1083.66,-254 1135.12,-254 1135.12,-254 1135.12,-254 1728.62,-254 1823.11,-254 1927.25,-201.89 1970.24,-177.87"/>
<polygon fill="#9a32cd" stroke="#9a32cd" points="980.54,-253.47 970.67,-257.31 980.78,-260.47 980.54,-253.47"/>
</a>
</g>
<text text-anchor="middle" x="1408.62" y="-255.7" font-family="Helvetica,sans-Serif" font-size="14.00" fill="grey"> du</text>
</g>
<!-- Node9&#45;&gt;Node4 -->
<g id="edge8_Node000004_Node000009" class="edge">
<title>Node9&#45;&gt;Node4</title>
<g id="a_edge8_Node000004_Node000009"><a xlink:title=" ">
<path fill="none" stroke="#9a32cd" stroke-dasharray="5,2" d="M980.31,-272.42C1007.67,-276.76 1038.2,-281.61 1064.87,-285.84"/>
<polygon fill="#9a32cd" stroke="#9a32cd" points="981.13,-269 970.7,-270.89 980.03,-275.91 981.13,-269"/>
</a>
</g>
<text text-anchor="middle" x="1017.88" y="-282.7" font-family="Helvetica,sans-Serif" font-size="14.00" fill="grey"> vshape</text>
</g>
<!-- Node10 -->
<g id="Node000010" class="node">
<title>Node10</title>
<g id="a_Node000010"><a xlink:href="classmfem_1_1Matrix.html" target="_top" xlink:title="Abstract data type matrix.">
<polygon fill="white" stroke="#666666" points="606,-271.5 509.75,-271.5 509.75,-248.5 606,-248.5 606,-271.5"/>
<text text-anchor="middle" x="557.88" y="-254.2" font-family="Helvetica,sans-Serif" font-size="14.00">mfem::Matrix</text>
</a>
</g>
</g>
<!-- Node10&#45;&gt;Node9 -->
<g id="edge9_Node000009_Node000010" class="edge">
<title>Node10&#45;&gt;Node9</title>
<g id="a_edge9_Node000009_Node000010"><a xlink:title=" ">
<path fill="none" stroke="#63b8ff" d="M617.48,-260C677.4,-260 770.34,-260 833.14,-260"/>
<polygon fill="#63b8ff" stroke="#63b8ff" points="617.84,-256.5 607.84,-260 617.84,-263.5 617.84,-256.5"/>
</a>
</g>
</g>
<!-- Node11 -->
<g id="Node000011" class="node">
<title>Node11</title>
<g id="a_Node000011"><a xlink:href="classmfem_1_1Operator.html" target="_top" xlink:title="Abstract operator.">
<polygon fill="white" stroke="#666666" points="372.5,-271.5 259.75,-271.5 259.75,-248.5 372.5,-248.5 372.5,-271.5"/>
<text text-anchor="middle" x="316.12" y="-254.2" font-family="Helvetica,sans-Serif" font-size="14.00">mfem::Operator</text>
</a>
</g>
</g>
<!-- Node11&#45;&gt;Node10 -->
<g id="edge10_Node000010_Node000011" class="edge">
<title>Node11&#45;&gt;Node10</title>
<g id="a_edge10_Node000010_Node000011"><a xlink:title=" ">
<path fill="none" stroke="#63b8ff" d="M384.21,-260C423.99,-260 473.48,-260 509.26,-260"/>
<polygon fill="#63b8ff" stroke="#63b8ff" points="384.24,-256.5 374.24,-260 384.24,-263.5 384.24,-256.5"/>
</a>
</g>
</g>
<!-- Node12 -->
<g id="Node000012" class="node">
<title>Node12</title>
<g id="a_Node000012"><a xlink:href="classmfem_1_1Array.html" target="_top" xlink:title=" ">
<polygon fill="white" stroke="#666666" points="2064.38,-336 1918.62,-336 1918.62,-298 2064.38,-298 2064.38,-336"/>
<text text-anchor="start" x="1926.62" y="-318.7" font-family="Helvetica,sans-Serif" font-size="14.00">mfem::Array&lt; mfem::</text>
<text text-anchor="middle" x="1991.5" y="-303.7" font-family="Helvetica,sans-Serif" font-size="14.00">DofToQuad * &gt;</text>
</a>
</g>
</g>
<!-- Node12&#45;&gt;Node4 -->
<g id="edge11_Node000004_Node000012" class="edge">
<title>Node12&#45;&gt;Node4</title>
<g id="a_edge11_Node000004_Node000012"><a xlink:title=" ">
<path fill="none" stroke="#9a32cd" stroke-dasharray="5,2" d="M1906.78,-315.04C1738.81,-311.1 1363.44,-302.3 1207.32,-298.65"/>
<polygon fill="#9a32cd" stroke="#9a32cd" points="1906.68,-318.54 1916.76,-315.27 1906.84,-311.54 1906.68,-318.54"/>
</a>
</g>
<text text-anchor="middle" x="1565.88" y="-309.7" font-family="Helvetica,sans-Serif" font-size="14.00" fill="grey"> dof2quad_array</text>
</g>
<!-- Node13 -->
<g id="Node000013" class="node">
<title>Node13</title>
<g id="a_Node000013"><a xlink:href="classmfem_1_1Memory.html" target="_top" xlink:title=" ">
<polygon fill="white" stroke="#666666" points="1805.75,-365 1649.5,-365 1649.5,-327 1805.75,-327 1805.75,-365"/>
<text text-anchor="start" x="1657.5" y="-347.7" font-family="Helvetica,sans-Serif" font-size="14.00">mfem::Memory&lt; mfem</text>
<text text-anchor="middle" x="1727.62" y="-332.7" font-family="Helvetica,sans-Serif" font-size="14.00">::DofToQuad * &gt;</text>
</a>
</g>
</g>
<!-- Node13&#45;&gt;Node12 -->
<g id="edge12_Node000012_Node000013" class="edge">
<title>Node13&#45;&gt;Node12</title>
<g id="a_edge12_Node000012_Node000013"><a xlink:title=" ">
<path fill="none" stroke="#9a32cd" stroke-dasharray="5,2" d="M1817.16,-336.2C1850.18,-332.54 1887.22,-328.44 1918.57,-324.97"/>
<polygon fill="#9a32cd" stroke="#9a32cd" points="1817.19,-332.67 1807.64,-337.25 1817.96,-339.63 1817.19,-332.67"/>
</a>
</g>
<text text-anchor="middle" x="1855.25" y="-334.7" font-family="Helvetica,sans-Serif" font-size="14.00" fill="grey"> data</text>
</g>
<!-- Node14&#45;&gt;Node13 -->
<g id="edge13_Node000013_Node000014" class="edge">
<title>Node14&#45;&gt;Node13</title>
<g id="a_edge13_Node000013_Node000014"><a xlink:title=" ">
<path fill="none" stroke="#9a32cd" stroke-dasharray="5,2" d="M1483.94,-355.19C1533.62,-353.31 1598.84,-350.84 1649.16,-348.93"/>
<polygon fill="#9a32cd" stroke="#9a32cd" points="1484.01,-351.68 1474.15,-355.56 1484.27,-358.68 1484.01,-351.68"/>
</a>
</g>
<text text-anchor="middle" x="1565.88" y="-354.7" font-family="Helvetica,sans-Serif" font-size="14.00" fill="grey"> h_ptr</text>
</g>
<!-- Node15 -->
<g id="Node000015" class="node">
<title>Node15</title>
<g id="a_Node000015"><a xlink:href="classmfem_1_1Array.html" target="_top" xlink:title=" ">
<polygon fill="white" stroke="#666666" points="808,-413.5 659.25,-413.5 659.25,-390.5 808,-390.5 808,-413.5"/>
<text text-anchor="middle" x="733.62" y="-396.2" font-family="Helvetica,sans-Serif" font-size="14.00">mfem::Array&lt; real_t &gt;</text>
</a>
</g>
</g>
<!-- Node15&#45;&gt;Node14 -->
<g id="edge16_Node000014_Node000015" class="edge">
<title>Node15&#45;&gt;Node14</title>
<g id="a_edge16_Node000014_Node000015"><a xlink:title=" ">
<path fill="none" stroke="#9a32cd" stroke-dasharray="5,2" d="M819.85,-398.66C930.69,-393.97 1130.28,-384.37 1300.5,-370 1314.77,-368.8 1330.07,-367.24 1344.52,-365.65"/>
<polygon fill="#9a32cd" stroke="#9a32cd" points="819.77,-395.16 809.93,-399.07 820.07,-402.15 819.77,-395.16"/>
</a>
</g>
<text text-anchor="middle" x="1017.88" y="-436.7" font-family="Helvetica,sans-Serif" font-size="14.00" fill="grey"> B</text>
<text text-anchor="middle" x="1017.88" y="-421.7" font-family="Helvetica,sans-Serif" font-size="14.00" fill="grey">Bt</text>
<text text-anchor="middle" x="1017.88" y="-406.7" font-family="Helvetica,sans-Serif" font-size="14.00" fill="grey">G</text>
<text text-anchor="middle" x="1017.88" y="-391.7" font-family="Helvetica,sans-Serif" font-size="14.00" fill="grey">Gt</text>
</g>
<!-- Node16 -->
<g id="Node000016" class="node">
<title>Node16</title>
<g id="a_Node000016"><a xlink:href="classmfem_1_1Memory.html" target="_top" xlink:title=" ">
<polygon fill="white" stroke="#666666" points="399.5,-315.5 232.75,-315.5 232.75,-292.5 399.5,-292.5 399.5,-315.5"/>
<text text-anchor="middle" x="316.12" y="-298.2" font-family="Helvetica,sans-Serif" font-size="14.00">mfem::Memory&lt; real_t &gt;</text>
</a>
</g>
</g>
<!-- Node16&#45;&gt;Node15 -->
<g id="edge17_Node000015_Node000016" class="edge">
<title>Node16&#45;&gt;Node15</title>
<g id="a_edge17_Node000015_Node000016"><a xlink:title=" ">
<path fill="none" stroke="#9a32cd" stroke-dasharray="5,2" d="M402.53,-321.37C404.61,-322.8 406.61,-324.34 408.5,-326 425.31,-340.76 409.32,-358.67 426.5,-373 496.4,-431.3 608.98,-424.81 676.38,-413.97"/>
<polygon fill="#9a32cd" stroke="#9a32cd" points="404.64,-318.54 394.23,-316.55 401.12,-324.6 404.64,-318.54"/>
</a>
</g>
<text text-anchor="middle" x="441.5" y="-393.7" font-family="Helvetica,sans-Serif" font-size="14.00" fill="grey"> data</text>
</g>
<!-- Node20 -->
<g id="Node000020" class="node">
<title>Node20</title>
<g id="a_Node000020"><a xlink:href="classmfem_1_1Vector.html" target="_top" xlink:title="Vector data type.">
<polygon fill="white" stroke="#666666" points="606.75,-167.5 509,-167.5 509,-144.5 606.75,-144.5 606.75,-167.5"/>
<text text-anchor="middle" x="557.88" y="-150.2" font-family="Helvetica,sans-Serif" font-size="14.00">mfem::Vector</text>
</a>
</g>
</g>
<!-- Node16&#45;&gt;Node20 -->
<g id="edge22_Node000020_Node000016" class="edge">
<title>Node16&#45;&gt;Node20</title>
<g id="a_edge22_Node000020_Node000016"><a xlink:title=" ">
<path fill="none" stroke="#9a32cd" stroke-dasharray="5,2" d="M391.26,-288.45C397.22,-286.27 403.04,-283.8 408.5,-281 467.86,-250.6 524.16,-192.45 546.62,-167.66"/>
<polygon fill="#9a32cd" stroke="#9a32cd" points="390.24,-285.1 381.87,-291.59 392.46,-291.74 390.24,-285.1"/>
</a>
</g>
<text text-anchor="middle" x="441.5" y="-271.7" font-family="Helvetica,sans-Serif" font-size="14.00" fill="grey"> data</text>
</g>
<!-- Node17 -->
<g id="Node000017" class="node">
<title>Node17</title>
<g id="a_Node000017"><a xlink:href="classmfem_1_1Array.html" target="_top" xlink:title=" ">
<polygon fill="white" stroke="#666666" points="1483.75,-138 1333.5,-138 1333.5,-100 1483.75,-100 1483.75,-138"/>
<text text-anchor="start" x="1341.5" y="-120.7" font-family="Helvetica,sans-Serif" font-size="14.00">mfem::Array&lt; const</text>
<text text-anchor="middle" x="1408.62" y="-105.7" font-family="Helvetica,sans-Serif" font-size="14.00"> mfem::KnotVector * &gt;</text>
</a>
</g>
</g>
<!-- Node17&#45;&gt;Node2 -->
<g id="edge18_Node000002_Node000017" class="edge">
<title>Node17&#45;&gt;Node2</title>
<g id="a_edge18_Node000002_Node000017"><a xlink:title=" ">
<path fill="none" stroke="#9a32cd" stroke-dasharray="5,2" d="M1495.41,-123.31C1532.38,-126 1576,-130.27 1615,-137 1639.27,-141.19 1665.99,-148.04 1687.2,-154.04"/>
<polygon fill="#9a32cd" stroke="#9a32cd" points="1495.89,-119.84 1485.67,-122.64 1495.4,-126.82 1495.89,-119.84"/>
</a>
</g>
<text text-anchor="middle" x="1565.88" y="-138.7" font-family="Helvetica,sans-Serif" font-size="14.00" fill="grey"> kv</text>
</g>
<!-- Node18 -->
<g id="Node000018" class="node">
<title>Node18</title>
<g id="a_Node000018"><a xlink:href="classmfem_1_1Memory.html" target="_top" xlink:title=" ">
<polygon fill="white" stroke="#666666" points="1212.75,-130 1059.5,-130 1059.5,-92 1212.75,-92 1212.75,-130"/>
<text text-anchor="start" x="1067.5" y="-112.7" font-family="Helvetica,sans-Serif" font-size="14.00">mfem::Memory&lt; const</text>
<text text-anchor="middle" x="1136.12" y="-97.7" font-family="Helvetica,sans-Serif" font-size="14.00"> mfem::KnotVector * &gt;</text>
</a>
</g>
</g>
<!-- Node18&#45;&gt;Node17 -->
<g id="edge19_Node000017_Node000018" class="edge">
<title>Node18&#45;&gt;Node17</title>
<g id="a_edge19_Node000017_Node000018"><a xlink:title=" ">
<path fill="none" stroke="#9a32cd" stroke-dasharray="5,2" d="M1224.38,-113.58C1259.43,-114.62 1299.41,-115.8 1333.06,-116.79"/>
<polygon fill="#9a32cd" stroke="#9a32cd" points="1224.81,-110.09 1214.71,-113.29 1224.6,-117.09 1224.81,-110.09"/>
</a>
</g>
<text text-anchor="middle" x="1265.62" y="-117.7" font-family="Helvetica,sans-Serif" font-size="14.00" fill="grey"> data</text>
</g>
<!-- Node19 -->
<g id="Node000019" class="node">
<title>Node19</title>
<g id="a_Node000019"><a xlink:href="classmfem_1_1KnotVector.html" target="_top" xlink:title=" ">
<polygon fill="white" stroke="#666666" points="963.88,-122.5 838.38,-122.5 838.38,-99.5 963.88,-99.5 963.88,-122.5"/>
<text text-anchor="middle" x="901.12" y="-105.2" font-family="Helvetica,sans-Serif" font-size="14.00">mfem::KnotVector</text>
</a>
</g>
</g>
<!-- Node19&#45;&gt;Node18 -->
<g id="edge20_Node000018_Node000019" class="edge">
<title>Node19&#45;&gt;Node18</title>
<g id="a_edge20_Node000018_Node000019"><a xlink:title=" ">
<path fill="none" stroke="#9a32cd" stroke-dasharray="5,2" d="M975.43,-111C1002.05,-111 1032.17,-111 1059.03,-111"/>
<polygon fill="#9a32cd" stroke="#9a32cd" points="975.77,-107.5 965.77,-111 975.77,-114.5 975.77,-107.5"/>
</a>
</g>
<text text-anchor="middle" x="1017.88" y="-112.7" font-family="Helvetica,sans-Serif" font-size="14.00" fill="grey"> h_ptr</text>
</g>
<!-- Node20&#45;&gt;Node1 -->
<g id="edge26_Node000001_Node000020" class="edge">
<title>Node20&#45;&gt;Node1</title>
<g id="a_edge26_Node000001_Node000020"><a xlink:title=" ">
<path fill="none" stroke="#9a32cd" stroke-dasharray="5,2" d="M617.5,-140.8C626.06,-136.9 634.31,-132.04 641.25,-126 654.14,-114.77 646.44,-103.33 659.25,-92 745.07,-16.06 785.53,0 900.12,0 900.12,0 900.12,0 1728.62,0 1843.82,0 1949.42,-116 1980.97,-154.06"/>
<polygon fill="#9a32cd" stroke="#9a32cd" points="616.31,-137.51 608.38,-144.53 618.96,-143.99 616.31,-137.51"/>
</a>
</g>
<text text-anchor="middle" x="1265.62" y="-91.7" font-family="Helvetica,sans-Serif" font-size="14.00" fill="grey"> d2shape_x</text>
<text text-anchor="middle" x="1265.62" y="-76.7" font-family="Helvetica,sans-Serif" font-size="14.00" fill="grey">d2shape_y</text>
<text text-anchor="middle" x="1265.62" y="-61.7" font-family="Helvetica,sans-Serif" font-size="14.00" fill="grey">dshape_x</text>
<text text-anchor="middle" x="1265.62" y="-46.7" font-family="Helvetica,sans-Serif" font-size="14.00" fill="grey">dshape_y</text>
<text text-anchor="middle" x="1265.62" y="-31.7" font-family="Helvetica,sans-Serif" font-size="14.00" fill="grey">shape_x</text>
<text text-anchor="middle" x="1265.62" y="-16.7" font-family="Helvetica,sans-Serif" font-size="14.00" fill="grey">shape_y</text>
<text text-anchor="middle" x="1265.62" y="-1.7" font-family="Helvetica,sans-Serif" font-size="14.00" fill="grey">u</text>
</g>
<!-- Node20&#45;&gt;Node2 -->
<g id="edge25_Node000002_Node000020" class="edge">
<title>Node20&#45;&gt;Node2</title>
<g id="a_edge25_Node000002_Node000020"><a xlink:title=" ">
<path fill="none" stroke="#9a32cd" stroke-dasharray="5,2" d="M618.52,-158.81C686.62,-161.76 801.37,-166 900.12,-166 900.12,-166 900.12,-166 1409.62,-166 1484.61,-166 1569.57,-166 1632.65,-166"/>
<polygon fill="#9a32cd" stroke="#9a32cd" points="618.84,-155.32 608.69,-158.37 618.53,-162.31 618.84,-155.32"/>
</a>
</g>
<text text-anchor="middle" x="1136.12" y="-167.7" font-family="Helvetica,sans-Serif" font-size="14.00" fill="grey"> weights</text>
</g>
<!-- Node20&#45;&gt;Node19 -->
<g id="edge21_Node000019_Node000020" class="edge">
<title>Node20&#45;&gt;Node19</title>
<g id="a_edge21_Node000019_Node000020"><a xlink:title=" ">
<path fill="none" stroke="#9a32cd" stroke-dasharray="5,2" d="M618.3,-143.94C631.74,-141.44 645.96,-138.97 659.25,-137 719.79,-128.02 789.32,-120.85 838.07,-116.33"/>
<polygon fill="#9a32cd" stroke="#9a32cd" points="617.9,-140.46 608.73,-145.76 619.21,-147.33 617.9,-140.46"/>
</a>
</g>
<text text-anchor="middle" x="733.62" y="-138.7" font-family="Helvetica,sans-Serif" font-size="14.00" fill="grey"> knot</text>
</g>
<!-- Node21 -->
<g id="Node000021" class="node">
<title>Node21</title>
<g id="a_Node000021"><a xlink:title=" ">
<polygon fill="white" stroke="#666666" points="634.5,-117 481.25,-117 481.25,-79 634.5,-79 634.5,-117"/>
<text text-anchor="start" x="489.25" y="-99.7" font-family="Helvetica,sans-Serif" font-size="14.00">std::shared_ptr&lt; mfem</text>
<text text-anchor="middle" x="557.88" y="-84.7" font-family="Helvetica,sans-Serif" font-size="14.00">::SpacingFunction &gt;</text>
</a>
</g>
</g>
<!-- Node21&#45;&gt;Node19 -->
<g id="edge23_Node000019_Node000021" class="edge">
<title>Node21&#45;&gt;Node19</title>
<g id="a_edge23_Node000019_Node000021"><a xlink:title=" ">
<path fill="none" stroke="#9a32cd" stroke-dasharray="5,2" d="M646,-95.68C693.86,-95.07 754.26,-95.41 808,-99 817.82,-99.66 828.19,-100.68 838.29,-101.86"/>
<polygon fill="#9a32cd" stroke="#9a32cd" points="646.2,-92.17 636.25,-95.82 646.3,-99.17 646.2,-92.17"/>
</a>
</g>
<text text-anchor="middle" x="733.62" y="-100.7" font-family="Helvetica,sans-Serif" font-size="14.00" fill="grey"> spacing</text>
</g>
<!-- Node22 -->
<g id="Node000022" class="node">
<title>Node22</title>
<g id="a_Node000022"><a xlink:href="classmfem_1_1SpacingFunction.html" target="_top" xlink:title=" ">
<polygon fill="white" stroke="#666666" points="395.75,-109.5 236.5,-109.5 236.5,-86.5 395.75,-86.5 395.75,-109.5"/>
<text text-anchor="middle" x="316.12" y="-92.2" font-family="Helvetica,sans-Serif" font-size="14.00">mfem::SpacingFunction</text>
</a>
</g>
</g>
<!-- Node22&#45;&gt;Node21 -->
<g id="edge24_Node000021_Node000022" class="edge">
<title>Node22&#45;&gt;Node21</title>
<g id="a_edge24_Node000021_Node000022"><a xlink:title=" ">
<path fill="none" stroke="#9a32cd" stroke-dasharray="5,2" d="M407.32,-98C431.54,-98 457.48,-98 480.85,-98"/>
<polygon fill="#9a32cd" stroke="#9a32cd" points="407.47,-94.5 397.47,-98 407.47,-101.5 407.47,-94.5"/>
</a>
</g>
<text text-anchor="middle" x="441.5" y="-99.7" font-family="Helvetica,sans-Serif" font-size="14.00" fill="grey"> ptr</text>
</g>
</g>
</svg>

<g id="navigator" transform="translate(0 0)" fill="#404254">
  <rect fill="#f2f5e9" fill-opacity="0.5" stroke="#606060" stroke-width=".5" x="0" y="0" width="60" height="60"/>
  <use id="zoomplus" xlink:href="#zoomPlus" x="17" y="9" onmousedown="handleZoom(evt,'in')"/>
  <use id="zoomminus" xlink:href="#zoomMin" x="42" y="9" onmousedown="handleZoom(evt,'out')"/>
  <use id="reset" xlink:href="#resetDef" x="30" y="36" onmousedown="handleReset()"/>
   <use id="arrowup" xlink:href="#arrowUp" x="0" y="0" onmousedown="handlePan(0,-1)"/>
  <use id="arrowright" xlink:href="#arrowRight" x="0" y="0" onmousedown="handlePan(1,0)"/>
  <use id="arrowdown" xlink:href="#arrowDown" x="0" y="0" onmousedown="handlePan(0,1)"/>
  <use id="arrowleft" xlink:href="#arrowLeft" x="0" y="0" onmousedown="handlePan(-1,0)"/>
</g>
<svg viewBox="0 0 15 15" width="100%" height="30px" preserveAspectRatio="xMaxYMin meet">
 <g id="arrow_out" transform="scale(0.3 0.3)">
  <a xlink:href="classmfem_1_1NURBS2DFiniteElement__coll__graph_org.svg" target="_base">
   <rect id="button" ry="5" rx="5" y="6" x="6" height="38" width="38"
        fill="#f2f5e9" fill-opacity="0.5" stroke="#606060" stroke-width="1.0"/>
   <path id="arrow"
     d="M 11.500037,31.436501 C 11.940474,20.09759 22.043105,11.32322 32.158766,21.979434 L 37.068811,17.246167 C 37.068811,17.246167 37.088388,32 37.088388,32 L 22.160133,31.978069 C 22.160133,31.978069 26.997745,27.140456 26.997745,27.140456 C 18.528582,18.264221 13.291696,25.230495 11.500037,31.436501 z"
     style="fill:#404040;"/>
  </a>
 </g>
</svg>

<style type='text/css'>
<![CDATA[
[data-mouse-over-selected='false'] { opacity: 0.7; }
[data-mouse-over-selected='true']  { opacity: 1.0; }
]]>
</style>
<script type="application/ecmascript"><![CDATA[
document.addEventListener('DOMContentLoaded', (event) => {
  highlightEdges();
  highlightAdjacentNodes();
});
]]></script>
</svg>
