<?xml version="1.0" encoding="UTF-8" standalone="no"?>
<!DOCTYPE svg PUBLIC "-//W3C//DTD SVG 1.1//EN"
 "http://www.w3.org/Graphics/SVG/1.1/DTD/svg11.dtd">
<!-- Generated by graphviz version 12.0.0 (20240704.0754)
 -->
<!-- Title: mfem::MUMPSSolver Pages: 1 -->
<svg width="157pt" height="149pt"
 viewBox="0.00 0.00 156.75 149.00" xmlns="http://www.w3.org/2000/svg" xmlns:xlink="http://www.w3.org/1999/xlink">
<g id="graph0" class="graph" transform="scale(1 1) rotate(0) translate(4 145)">
<title>mfem::MUMPSSolver</title>
<!-- Node1 -->
<g id="Node000001" class="node">
<title>Node1</title>
<g id="a_Node000001"><a xlink:title="MUMPS: A Parallel Sparse Direct Solver.">
<polygon fill="#999999" stroke="#666666" points="148.75,-23 0,-23 0,0 148.75,0 148.75,-23"/>
<text text-anchor="middle" x="74.38" y="-5.7" font-family="Helvetica,sans-Serif" font-size="14.00">mfem::MUMPSSolver</text>
</a>
</g>
</g>
<!-- Node2 -->
<g id="Node000002" class="node">
<title>Node2</title>
<g id="a_Node000002"><a xlink:href="classmfem_1_1Solver.html" target="_top" xlink:title="Base class for solvers.">
<polygon fill="white" stroke="#666666" points="122.88,-82 25.88,-82 25.88,-59 122.88,-59 122.88,-82"/>
<text text-anchor="middle" x="74.38" y="-64.7" font-family="Helvetica,sans-Serif" font-size="14.00">mfem::Solver</text>
</a>
</g>
</g>
<!-- Node2&#45;&gt;Node1 -->
<g id="edge1_Node000001_Node000002" class="edge">
<title>Node2&#45;&gt;Node1</title>
<g id="a_edge1_Node000001_Node000002"><a xlink:title=" ">
<path fill="none" stroke="#63b8ff" d="M74.38,-47.08C74.38,-38.96 74.38,-30.15 74.38,-23.46"/>
<polygon fill="#63b8ff" stroke="#63b8ff" points="70.88,-47 74.38,-57 77.88,-47 70.88,-47"/>
</a>
</g>
</g>
<!-- Node3 -->
<g id="Node000003" class="node">
<title>Node3</title>
<g id="a_Node000003"><a xlink:href="classmfem_1_1Operator.html" target="_top" xlink:title="Abstract operator.">
<polygon fill="white" stroke="#666666" points="130.75,-141 18,-141 18,-118 130.75,-118 130.75,-141"/>
<text text-anchor="middle" x="74.38" y="-123.7" font-family="Helvetica,sans-Serif" font-size="14.00">mfem::Operator</text>
</a>
</g>
</g>
<!-- Node3&#45;&gt;Node2 -->
<g id="edge2_Node000002_Node000003" class="edge">
<title>Node3&#45;&gt;Node2</title>
<g id="a_edge2_Node000002_Node000003"><a xlink:title=" ">
<path fill="none" stroke="#63b8ff" d="M74.38,-106.08C74.38,-97.96 74.38,-89.15 74.38,-82.46"/>
<polygon fill="#63b8ff" stroke="#63b8ff" points="70.88,-106 74.38,-116 77.88,-106 70.88,-106"/>
</a>
</g>
</g>
</g>
</svg>
