<?xml version="1.0" encoding="UTF-8" standalone="no"?>
<!DOCTYPE svg PUBLIC "-//W3C//DTD SVG 1.1//EN"
 "http://www.w3.org/Graphics/SVG/1.1/DTD/svg11.dtd">
<!-- Generated by graphviz version 8.0.5 (0)
 -->
<!-- Title: mfem::Element Pages: 1 -->
<svg width="293pt" height="310pt"
 viewBox="0.00 0.00 293.07 310.00" xmlns="http://www.w3.org/2000/svg" xmlns:xlink="http://www.w3.org/1999/xlink">
<g id="graph0" class="graph" transform="scale(1 1) rotate(0) translate(4 306)">
<title>mfem::Element</title>
<!-- Node1 -->
<g id="node1" class="node">
<title>Node1</title>
<g id="a_node1"><a xlink:title="Abstract data type element.">
<polygon fill="#999999" stroke="#666666" points="110.14,-162 0,-162 0,-140 110.14,-140 110.14,-162"/>
<text text-anchor="middle" x="55.07" y="-146.8" font-family="Helvetica,sans-Serif" font-size="14.00">mfem::Element</text>
</a>
</g>
</g>
<!-- Node2 -->
<g id="node2" class="node">
<title>Node2</title>
<g id="a_node2"><a xlink:href="classmfem_1_1Hexahedron.html" target="_top" xlink:title="Data type hexahedron element.">
<polygon fill="white" stroke="#666666" points="283.13,-302 148.08,-302 148.08,-280 283.13,-280 283.13,-302"/>
<text text-anchor="middle" x="215.6" y="-286.8" font-family="Helvetica,sans-Serif" font-size="14.00">mfem::Hexahedron</text>
</a>
</g>
</g>
<!-- Node1&#45;&gt;Node2 -->
<g id="edge1" class="edge">
<title>Node1&#45;&gt;Node2</title>
<path fill="none" stroke="#63b8ff" d="M66.21,-171.74C80.4,-198.61 108.7,-245.08 146.14,-271 151.02,-274.38 156.49,-277.2 162.13,-279.55"/>
<polygon fill="#63b8ff" stroke="#63b8ff" points="68.98,-170.48 61.31,-163.17 62.75,-173.66 68.98,-170.48"/>
</g>
<!-- Node3 -->
<g id="node3" class="node">
<title>Node3</title>
<g id="a_node3"><a xlink:href="classmfem_1_1Point.html" target="_top" xlink:title="Data type point element.">
<polygon fill="white" stroke="#666666" points="260.95,-262 170.26,-262 170.26,-240 260.95,-240 260.95,-262"/>
<text text-anchor="middle" x="215.6" y="-246.8" font-family="Helvetica,sans-Serif" font-size="14.00">mfem::Point</text>
</a>
</g>
</g>
<!-- Node1&#45;&gt;Node3 -->
<g id="edge2" class="edge">
<title>Node1&#45;&gt;Node3</title>
<path fill="none" stroke="#63b8ff" d="M73.08,-170.42C89.95,-188.53 117.36,-215.08 146.14,-231 153.51,-235.08 161.79,-238.4 169.99,-241.08"/>
<polygon fill="#63b8ff" stroke="#63b8ff" points="76.01,-168.33 66.69,-163.29 70.83,-173.04 76.01,-168.33"/>
</g>
<!-- Node4 -->
<g id="node4" class="node">
<title>Node4</title>
<g id="a_node4"><a xlink:href="classmfem_1_1Pyramid.html" target="_top" xlink:title="Data type Pyramid element.">
<polygon fill="white" stroke="#666666" points="270.67,-222 160.54,-222 160.54,-200 270.67,-200 270.67,-222"/>
<text text-anchor="middle" x="215.6" y="-206.8" font-family="Helvetica,sans-Serif" font-size="14.00">mfem::Pyramid</text>
</a>
</g>
</g>
<!-- Node1&#45;&gt;Node4 -->
<g id="edge3" class="edge">
<title>Node1&#45;&gt;Node4</title>
<path fill="none" stroke="#63b8ff" d="M89.31,-167.04C106.13,-174.82 126.98,-183.98 146.14,-191 154.51,-194.07 163.59,-196.99 172.31,-199.61"/>
<polygon fill="#63b8ff" stroke="#63b8ff" points="90.96,-163.48 80.42,-162.4 87.99,-169.82 90.96,-163.48"/>
</g>
<!-- Node5 -->
<g id="node5" class="node">
<title>Node5</title>
<g id="a_node5"><a xlink:href="classmfem_1_1Quadrilateral.html" target="_top" xlink:title="Data type quadrilateral element.">
<polygon fill="white" stroke="#666666" points="285.07,-182 146.14,-182 146.14,-160 285.07,-160 285.07,-182"/>
<text text-anchor="middle" x="215.6" y="-166.8" font-family="Helvetica,sans-Serif" font-size="14.00">mfem::Quadrilateral</text>
</a>
</g>
</g>
<!-- Node1&#45;&gt;Node5 -->
<g id="edge4" class="edge">
<title>Node1&#45;&gt;Node5</title>
<path fill="none" stroke="#63b8ff" d="M121.39,-159.24C129.4,-160.25 137.6,-161.29 145.66,-162.3"/>
<polygon fill="#63b8ff" stroke="#63b8ff" points="121.99,-155.66 111.63,-157.88 121.11,-162.61 121.99,-155.66"/>
</g>
<!-- Node6 -->
<g id="node6" class="node">
<title>Node6</title>
<g id="a_node6"><a xlink:href="classmfem_1_1Segment.html" target="_top" xlink:title="Data type line segment element.">
<polygon fill="white" stroke="#666666" points="273.01,-142 158.2,-142 158.2,-120 273.01,-120 273.01,-142"/>
<text text-anchor="middle" x="215.6" y="-126.8" font-family="Helvetica,sans-Serif" font-size="14.00">mfem::Segment</text>
</a>
</g>
</g>
<!-- Node1&#45;&gt;Node6 -->
<g id="edge5" class="edge">
<title>Node1&#45;&gt;Node6</title>
<path fill="none" stroke="#63b8ff" d="M121.52,-142.74C133.56,-141.22 146.03,-139.65 157.78,-138.17"/>
<polygon fill="#63b8ff" stroke="#63b8ff" points="121.11,-139.39 111.63,-144.12 121.99,-146.34 121.11,-139.39"/>
</g>
<!-- Node7 -->
<g id="node7" class="node">
<title>Node7</title>
<g id="a_node7"><a xlink:href="classmfem_1_1Tetrahedron.html" target="_top" xlink:title="Data type tetrahedron element.">
<polygon fill="white" stroke="#666666" points="282.35,-102 148.85,-102 148.85,-80 282.35,-80 282.35,-102"/>
<text text-anchor="middle" x="215.6" y="-86.8" font-family="Helvetica,sans-Serif" font-size="14.00">mfem::Tetrahedron</text>
</a>
</g>
</g>
<!-- Node1&#45;&gt;Node7 -->
<g id="edge6" class="edge">
<title>Node1&#45;&gt;Node7</title>
<path fill="none" stroke="#63b8ff" d="M89.31,-134.96C106.13,-127.18 126.98,-118.02 146.14,-111 154.51,-107.93 163.59,-105.01 172.31,-102.39"/>
<polygon fill="#63b8ff" stroke="#63b8ff" points="87.99,-132.18 80.42,-139.6 90.96,-138.52 87.99,-132.18"/>
</g>
<!-- Node8 -->
<g id="node8" class="node">
<title>Node8</title>
<g id="a_node8"><a xlink:href="classmfem_1_1Triangle.html" target="_top" xlink:title="Data type triangle element.">
<polygon fill="white" stroke="#666666" points="270.03,-62 161.18,-62 161.18,-40 270.03,-40 270.03,-62"/>
<text text-anchor="middle" x="215.6" y="-46.8" font-family="Helvetica,sans-Serif" font-size="14.00">mfem::Triangle</text>
</a>
</g>
</g>
<!-- Node1&#45;&gt;Node8 -->
<g id="edge7" class="edge">
<title>Node1&#45;&gt;Node8</title>
<path fill="none" stroke="#63b8ff" d="M73.08,-131.58C89.95,-113.47 117.36,-86.92 146.14,-71 152.21,-67.64 158.9,-64.8 165.64,-62.4"/>
<polygon fill="#63b8ff" stroke="#63b8ff" points="70.83,-128.96 66.69,-138.71 76.01,-133.67 70.83,-128.96"/>
</g>
<!-- Node9 -->
<g id="node9" class="node">
<title>Node9</title>
<g id="a_node9"><a xlink:href="classmfem_1_1Wedge.html" target="_top" xlink:title="Data type Wedge element.">
<polygon fill="white" stroke="#666666" points="267.05,-22 164.16,-22 164.16,0 267.05,0 267.05,-22"/>
<text text-anchor="middle" x="215.6" y="-6.8" font-family="Helvetica,sans-Serif" font-size="14.00">mfem::Wedge</text>
</a>
</g>
</g>
<!-- Node1&#45;&gt;Node9 -->
<g id="edge8" class="edge">
<title>Node1&#45;&gt;Node9</title>
<path fill="none" stroke="#63b8ff" d="M66.21,-130.26C80.4,-103.39 108.7,-56.92 146.14,-31 151.53,-27.26 157.63,-24.22 163.91,-21.74"/>
<polygon fill="#63b8ff" stroke="#63b8ff" points="62.75,-128.34 61.31,-138.83 68.98,-131.52 62.75,-128.34"/>
</g>
</g>
</svg>
