<?xml version="1.0" encoding="UTF-8" standalone="no"?>
<!DOCTYPE svg PUBLIC "-//W3C//DTD SVG 1.1//EN"
 "http://www.w3.org/Graphics/SVG/1.1/DTD/svg11.dtd">
<!-- Generated by graphviz version 8.0.5 (0)
 -->
<!-- Title: mfem::GaussQuad2DFiniteElement Pages: 1 -->
<svg width="245pt" height="204pt"
 viewBox="0.00 0.00 244.98 204.00" xmlns="http://www.w3.org/2000/svg" xmlns:xlink="http://www.w3.org/1999/xlink">
<g id="graph0" class="graph" transform="scale(1 1) rotate(0) translate(4 200)">
<title>mfem::GaussQuad2DFiniteElement</title>
<!-- Node1 -->
<g id="node1" class="node">
<title>Node1</title>
<g id="a_node1"><a xlink:title="A quadratic element on triangle with nodes at the &quot;Gaussian&quot; points.">
<polygon fill="#999999" stroke="#666666" points="236.98,-22 0,-22 0,0 236.98,0 236.98,-22"/>
<text text-anchor="middle" x="118.49" y="-6.8" font-family="Helvetica,sans-Serif" font-size="14.00">mfem::GaussQuad2DFiniteElement</text>
</a>
</g>
</g>
<!-- Node2 -->
<g id="node2" class="node">
<title>Node2</title>
<g id="a_node2"><a xlink:href="classmfem_1_1NodalFiniteElement.html" target="_top" xlink:title="Class for standard nodal finite elements.">
<polygon fill="white" stroke="#666666" points="208.96,-80 28.01,-80 28.01,-58 208.96,-58 208.96,-80"/>
<text text-anchor="middle" x="118.49" y="-64.8" font-family="Helvetica,sans-Serif" font-size="14.00">mfem::NodalFiniteElement</text>
</a>
</g>
</g>
<!-- Node2&#45;&gt;Node1 -->
<g id="edge1" class="edge">
<title>Node2&#45;&gt;Node1</title>
<path fill="none" stroke="#63b8ff" d="M118.49,-46.75C118.49,-38.34 118.49,-29.06 118.49,-22.21"/>
<polygon fill="#63b8ff" stroke="#63b8ff" points="114.99,-46.73 118.49,-56.73 121.99,-46.73 114.99,-46.73"/>
</g>
<!-- Node3 -->
<g id="node3" class="node">
<title>Node3</title>
<g id="a_node3"><a xlink:href="classmfem_1_1ScalarFiniteElement.html" target="_top" xlink:title="Class for finite elements with basis functions that return scalar values.">
<polygon fill="white" stroke="#666666" points="210.52,-138 26.46,-138 26.46,-116 210.52,-116 210.52,-138"/>
<text text-anchor="middle" x="118.49" y="-122.8" font-family="Helvetica,sans-Serif" font-size="14.00">mfem::ScalarFiniteElement</text>
</a>
</g>
</g>
<!-- Node3&#45;&gt;Node2 -->
<g id="edge2" class="edge">
<title>Node3&#45;&gt;Node2</title>
<path fill="none" stroke="#63b8ff" d="M118.49,-104.75C118.49,-96.34 118.49,-87.06 118.49,-80.21"/>
<polygon fill="#63b8ff" stroke="#63b8ff" points="114.99,-104.73 118.49,-114.73 121.99,-104.73 114.99,-104.73"/>
</g>
<!-- Node4 -->
<g id="node4" class="node">
<title>Node4</title>
<g id="a_node4"><a xlink:href="classmfem_1_1FiniteElement.html" target="_top" xlink:title="Abstract class for all finite elements.">
<polygon fill="white" stroke="#666666" points="190.68,-196 46.3,-196 46.3,-174 190.68,-174 190.68,-196"/>
<text text-anchor="middle" x="118.49" y="-180.8" font-family="Helvetica,sans-Serif" font-size="14.00">mfem::FiniteElement</text>
</a>
</g>
</g>
<!-- Node4&#45;&gt;Node3 -->
<g id="edge3" class="edge">
<title>Node4&#45;&gt;Node3</title>
<path fill="none" stroke="#63b8ff" d="M118.49,-162.75C118.49,-154.34 118.49,-145.06 118.49,-138.21"/>
<polygon fill="#63b8ff" stroke="#63b8ff" points="114.99,-162.73 118.49,-172.73 121.99,-162.73 114.99,-162.73"/>
</g>
</g>
</svg>
