<?xml version="1.0" encoding="UTF-8" standalone="no"?>
<!DOCTYPE svg PUBLIC "-//W3C//DTD SVG 1.1//EN"
 "http://www.w3.org/Graphics/SVG/1.1/DTD/svg11.dtd">
<!-- Generated by graphviz version 8.0.5 (0)
 -->
<!-- Title: mfem::KnotVector Pages: 1 -->
<svg width="358pt" height="188pt"
 viewBox="0.00 0.00 357.78 188.00" xmlns="http://www.w3.org/2000/svg" xmlns:xlink="http://www.w3.org/1999/xlink">
<g id="graph0" class="graph" transform="scale(1 1) rotate(0) translate(4 184)">
<title>mfem::KnotVector</title>
<!-- Node1 -->
<g id="node1" class="node">
<title>Node1</title>
<g id="a_node1"><a xlink:title=" ">
<polygon fill="#999999" stroke="#666666" points="229.88,-22 102.61,-22 102.61,0 229.88,0 229.88,-22"/>
<text text-anchor="middle" x="166.24" y="-6.8" font-family="Helvetica,sans-Serif" font-size="14.00">mfem::KnotVector</text>
</a>
</g>
</g>
<!-- Node2 -->
<g id="node2" class="node">
<title>Node2</title>
<g id="a_node2"><a xlink:href="classmfem_1_1Vector.html" target="_top" xlink:title="Vector data type.">
<polygon fill="white" stroke="#666666" points="143.48,-101 45.01,-101 45.01,-79 143.48,-79 143.48,-101"/>
<text text-anchor="middle" x="94.24" y="-85.8" font-family="Helvetica,sans-Serif" font-size="14.00">mfem::Vector</text>
</a>
</g>
</g>
<!-- Node2&#45;&gt;Node1 -->
<g id="edge1" class="edge">
<title>Node2&#45;&gt;Node1</title>
<path fill="none" stroke="#9a32cd" stroke-dasharray="5,2" d="M111.18,-70.89C125.36,-55.72 145.1,-34.61 156.69,-22.22"/>
<polygon fill="#9a32cd" stroke="#9a32cd" points="109.23,-67.92 104.95,-77.62 114.34,-72.7 109.23,-67.92"/>
<text text-anchor="middle" x="154.42" y="-42.8" font-family="Helvetica,sans-Serif" font-size="14.00"> knot</text>
</g>
<!-- Node3 -->
<g id="node3" class="node">
<title>Node3</title>
<g id="a_node3"><a xlink:href="classmfem_1_1Memory.html" target="_top" xlink:title=" ">
<polygon fill="white" stroke="#666666" points="168.49,-180 0,-180 0,-158 168.49,-158 168.49,-180"/>
<text text-anchor="middle" x="84.24" y="-164.8" font-family="Helvetica,sans-Serif" font-size="14.00">mfem::Memory&lt; real_t &gt;</text>
</a>
</g>
</g>
<!-- Node3&#45;&gt;Node2 -->
<g id="edge2" class="edge">
<title>Node3&#45;&gt;Node2</title>
<path fill="none" stroke="#9a32cd" stroke-dasharray="5,2" d="M86.99,-146.87C88.92,-132.02 91.41,-112.81 92.92,-101.22"/>
<polygon fill="#9a32cd" stroke="#9a32cd" points="83.41,-146.25 85.59,-156.62 90.35,-147.15 83.41,-146.25"/>
<text text-anchor="middle" x="105.81" y="-128.8" font-family="Helvetica,sans-Serif" font-size="14.00"> data</text>
</g>
<!-- Node4 -->
<g id="node4" class="node">
<title>Node4</title>
<g id="a_node4"><a xlink:title=" ">
<polygon fill="white" stroke="#666666" points="336.47,-108 180.02,-108 180.02,-72 336.47,-72 336.47,-108"/>
<text text-anchor="start" x="188.02" y="-92.8" font-family="Helvetica,sans-Serif" font-size="14.00">std::shared_ptr&lt; mfem</text>
<text text-anchor="middle" x="258.24" y="-78.8" font-family="Helvetica,sans-Serif" font-size="14.00">::SpacingFunction &gt;</text>
</a>
</g>
</g>
<!-- Node4&#45;&gt;Node1 -->
<g id="edge3" class="edge">
<title>Node4&#45;&gt;Node1</title>
<path fill="none" stroke="#9a32cd" stroke-dasharray="5,2" d="M229.32,-64.79C212.23,-50.49 191.48,-33.12 178.56,-22.31"/>
<polygon fill="#9a32cd" stroke="#9a32cd" points="226.45,-67.79 236.37,-71.53 230.95,-62.43 226.45,-67.79"/>
<text text-anchor="middle" x="241.32" y="-42.8" font-family="Helvetica,sans-Serif" font-size="14.00"> spacing</text>
</g>
<!-- Node5 -->
<g id="node5" class="node">
<title>Node5</title>
<g id="a_node5"><a xlink:href="classmfem_1_1SpacingFunction.html" target="_top" xlink:title=" ">
<polygon fill="white" stroke="#666666" points="349.78,-180 186.71,-180 186.71,-158 349.78,-158 349.78,-180"/>
<text text-anchor="middle" x="268.24" y="-164.8" font-family="Helvetica,sans-Serif" font-size="14.00">mfem::SpacingFunction</text>
</a>
</g>
</g>
<!-- Node5&#45;&gt;Node4 -->
<g id="edge4" class="edge">
<title>Node5&#45;&gt;Node4</title>
<path fill="none" stroke="#9a32cd" stroke-dasharray="5,2" d="M265.53,-147.08C263.95,-134.91 261.98,-119.76 260.49,-108.28"/>
<polygon fill="#9a32cd" stroke="#9a32cd" points="262.14,-147.15 266.9,-156.62 269.08,-146.25 262.14,-147.15"/>
<text text-anchor="middle" x="275.36" y="-128.8" font-family="Helvetica,sans-Serif" font-size="14.00"> ptr</text>
</g>
</g>
</svg>
