<?xml version="1.0" encoding="UTF-8" standalone="no"?>
<!DOCTYPE svg PUBLIC "-//W3C//DTD SVG 1.1//EN"
 "http://www.w3.org/Graphics/SVG/1.1/DTD/svg11.dtd">
<!-- Generated by graphviz version 8.0.5 (0)
 -->
<!-- Title: Graphical Class Hierarchy Pages: 1 -->
<svg width="919pt" height="227pt"
 viewBox="0.00 0.00 918.80 227.00" xmlns="http://www.w3.org/2000/svg" xmlns:xlink="http://www.w3.org/1999/xlink">
<g id="graph0" class="graph" transform="scale(1 1) rotate(0) translate(4 223)">
<title>Graphical Class Hierarchy</title>
<!-- Node0 -->
<g id="node1" class="node">
<title>Node0</title>
<g id="a_node1"><a xlink:href="classmfem_1_1TProductIntegrationRule__base.html" target="_top" xlink:title=" ">
<polygon fill="white" stroke="#666666" points="193.42,-90 0,-90 0,-54 193.42,-54 193.42,-90"/>
<text text-anchor="start" x="8" y="-74.8" font-family="Helvetica,sans-Serif" font-size="14.00">mfem::TProductIntegration</text>
<text text-anchor="middle" x="96.71" y="-60.8" font-family="Helvetica,sans-Serif" font-size="14.00">Rule_base&lt; Dim, Q, real_t &gt;</text>
</a>
</g>
</g>
<!-- Node1 -->
<g id="node2" class="node">
<title>Node1</title>
<g id="a_node2"><a xlink:href="classmfem_1_1TProductIntegrationRule.html" target="_top" xlink:title=" ">
<polygon fill="white" stroke="#666666" points="432.94,-117 229.42,-117 229.42,-81 432.94,-81 432.94,-117"/>
<text text-anchor="start" x="237.42" y="-101.8" font-family="Helvetica,sans-Serif" font-size="14.00">mfem::TProductIntegration</text>
<text text-anchor="middle" x="331.18" y="-87.8" font-family="Helvetica,sans-Serif" font-size="14.00">Rule&lt; Dim, Q, 2 *Q&#45;1, real_t &gt;</text>
</a>
</g>
</g>
<!-- Node0&#45;&gt;Node1 -->
<g id="edge1" class="edge">
<title>Node0&#45;&gt;Node1</title>
<path fill="none" stroke="#63b8ff" d="M204.42,-84.39C212.68,-85.35 221.01,-86.32 229.23,-87.28"/>
<polygon fill="#63b8ff" stroke="#63b8ff" points="204.94,-80.81 194.61,-83.14 204.14,-87.77 204.94,-80.81"/>
</g>
<!-- Node9 -->
<g id="node10" class="node">
<title>Node9</title>
<g id="a_node10"><a xlink:href="classmfem_1_1TProductIntegrationRule.html" target="_top" xlink:title=" ">
<polygon fill="white" stroke="#666666" points="430.22,-63 232.14,-63 232.14,-27 430.22,-27 430.22,-63"/>
<text text-anchor="start" x="240.14" y="-47.8" font-family="Helvetica,sans-Serif" font-size="14.00">mfem::TProductIntegration</text>
<text text-anchor="middle" x="331.18" y="-33.8" font-family="Helvetica,sans-Serif" font-size="14.00">Rule&lt; Dim, Q, Order, real_t &gt;</text>
</a>
</g>
</g>
<!-- Node0&#45;&gt;Node9 -->
<g id="edge9" class="edge">
<title>Node0&#45;&gt;Node9</title>
<path fill="none" stroke="#63b8ff" d="M204.33,-59.62C213.51,-58.55 222.76,-57.48 231.87,-56.42"/>
<polygon fill="#63b8ff" stroke="#63b8ff" points="204.14,-56.23 194.61,-60.86 204.94,-63.19 204.14,-56.23"/>
</g>
<!-- Node2 -->
<g id="node3" class="node">
<title>Node2</title>
<g id="a_node3"><a xlink:href="classmfem_1_1GaussIntegrationRule.html" target="_top" xlink:title=" ">
<polygon fill="white" stroke="#666666" points="663.13,-205 468.94,-205 468.94,-169 663.13,-169 663.13,-205"/>
<text text-anchor="start" x="476.94" y="-189.8" font-family="Helvetica,sans-Serif" font-size="14.00">mfem::GaussIntegrationRule</text>
<text text-anchor="middle" x="566.03" y="-175.8" font-family="Helvetica,sans-Serif" font-size="14.00">&lt; 3, Order/2+1, real_t &gt;</text>
</a>
</g>
</g>
<!-- Node1&#45;&gt;Node2 -->
<g id="edge2" class="edge">
<title>Node1&#45;&gt;Node2</title>
<path fill="none" stroke="#63b8ff" d="M387.56,-121.39C412.37,-131.29 442.04,-142.94 468.94,-153 482.78,-158.18 497.81,-163.6 511.79,-168.55"/>
<polygon fill="#63b8ff" stroke="#63b8ff" points="389.19,-117.87 378.61,-117.41 386.59,-124.37 389.19,-117.87"/>
</g>
<!-- Node4 -->
<g id="node5" class="node">
<title>Node4</title>
<g id="a_node5"><a xlink:href="classmfem_1_1GaussIntegrationRule.html" target="_top" xlink:title=" ">
<polygon fill="white" stroke="#666666" points="663.13,-144 468.94,-144 468.94,-108 663.13,-108 663.13,-144"/>
<text text-anchor="start" x="476.94" y="-128.8" font-family="Helvetica,sans-Serif" font-size="14.00">mfem::GaussIntegrationRule</text>
<text text-anchor="middle" x="566.03" y="-114.8" font-family="Helvetica,sans-Serif" font-size="14.00">&lt; 1, Order/2+1, real_t &gt;</text>
</a>
</g>
</g>
<!-- Node1&#45;&gt;Node4 -->
<g id="edge4" class="edge">
<title>Node1&#45;&gt;Node4</title>
<path fill="none" stroke="#63b8ff" d="M444.11,-111.98C452.36,-112.94 460.64,-113.9 468.79,-114.84"/>
<polygon fill="#63b8ff" stroke="#63b8ff" points="444.63,-108.4 434.3,-110.72 443.83,-115.35 444.63,-108.4"/>
</g>
<!-- Node6 -->
<g id="node7" class="node">
<title>Node6</title>
<g id="a_node7"><a xlink:href="classmfem_1_1GaussIntegrationRule.html" target="_top" xlink:title=" ">
<polygon fill="white" stroke="#666666" points="663.13,-90 468.94,-90 468.94,-54 663.13,-54 663.13,-90"/>
<text text-anchor="start" x="476.94" y="-74.8" font-family="Helvetica,sans-Serif" font-size="14.00">mfem::GaussIntegrationRule</text>
<text text-anchor="middle" x="566.03" y="-60.8" font-family="Helvetica,sans-Serif" font-size="14.00">&lt; 2, Order/2+1, real_t &gt;</text>
</a>
</g>
</g>
<!-- Node1&#45;&gt;Node6 -->
<g id="edge6" class="edge">
<title>Node1&#45;&gt;Node6</title>
<path fill="none" stroke="#63b8ff" d="M444.11,-86.02C452.36,-85.06 460.64,-84.1 468.79,-83.16"/>
<polygon fill="#63b8ff" stroke="#63b8ff" points="443.83,-82.65 434.3,-87.28 444.63,-89.6 443.83,-82.65"/>
</g>
<!-- Node8 -->
<g id="node9" class="node">
<title>Node8</title>
<g id="a_node9"><a xlink:href="classmfem_1_1GaussIntegrationRule.html" target="_top" xlink:title=" ">
<polygon fill="white" stroke="#666666" points="663.13,-36 468.94,-36 468.94,0 663.13,0 663.13,-36"/>
<text text-anchor="start" x="476.94" y="-20.8" font-family="Helvetica,sans-Serif" font-size="14.00">mfem::GaussIntegrationRule</text>
<text text-anchor="middle" x="566.03" y="-6.8" font-family="Helvetica,sans-Serif" font-size="14.00">&lt; Dim, Q, real_t &gt;</text>
</a>
</g>
</g>
<!-- Node1&#45;&gt;Node8 -->
<g id="edge8" class="edge">
<title>Node1&#45;&gt;Node8</title>
<path fill="none" stroke="#63b8ff" d="M422.56,-76.64C426.11,-75.18 429.58,-73.63 432.94,-72 450.92,-63.25 451,-53.86 468.94,-45 475.31,-41.85 482.1,-39.02 489.02,-36.49"/>
<polygon fill="#63b8ff" stroke="#63b8ff" points="421.49,-73.69 413.41,-80.54 424,-80.22 421.49,-73.69"/>
</g>
<!-- Node3 -->
<g id="node4" class="node">
<title>Node3</title>
<g id="a_node4"><a xlink:href="classmfem_1_1TIntegrationRule_3_01Geometry_1_1CUBE_00_01Order_00_01real__t_01_4.html" target="_top" xlink:title=" ">
<polygon fill="white" stroke="#666666" points="896.41,-219 713.52,-219 713.52,-169 896.41,-169 896.41,-219"/>
<text text-anchor="start" x="721.52" y="-203.8" font-family="Helvetica,sans-Serif" font-size="14.00">mfem::TIntegrationRule</text>
<text text-anchor="start" x="721.52" y="-189.8" font-family="Helvetica,sans-Serif" font-size="14.00">&lt; Geometry::CUBE, Order,</text>
<text text-anchor="middle" x="804.96" y="-175.8" font-family="Helvetica,sans-Serif" font-size="14.00"> real_t &gt;</text>
</a>
</g>
</g>
<!-- Node2&#45;&gt;Node3 -->
<g id="edge3" class="edge">
<title>Node2&#45;&gt;Node3</title>
<path fill="none" stroke="#63b8ff" d="M674.23,-190.17C687.2,-190.55 700.34,-190.94 713.04,-191.31"/>
<polygon fill="#63b8ff" stroke="#63b8ff" points="674.5,-186.64 664.4,-189.85 674.29,-193.64 674.5,-186.64"/>
</g>
<!-- Node5 -->
<g id="node6" class="node">
<title>Node5</title>
<g id="a_node6"><a xlink:href="classmfem_1_1TIntegrationRule_3_01Geometry_1_1SEGMENT_00_01Order_00_01real__t_01_4.html" target="_top" xlink:title=" ">
<polygon fill="white" stroke="#666666" points="910.8,-151 699.13,-151 699.13,-101 910.8,-101 910.8,-151"/>
<text text-anchor="start" x="707.13" y="-135.8" font-family="Helvetica,sans-Serif" font-size="14.00">mfem::TIntegrationRule</text>
<text text-anchor="start" x="707.13" y="-121.8" font-family="Helvetica,sans-Serif" font-size="14.00">&lt; Geometry::SEGMENT, Order,</text>
<text text-anchor="middle" x="804.96" y="-107.8" font-family="Helvetica,sans-Serif" font-size="14.00"> real_t &gt;</text>
</a>
</g>
</g>
<!-- Node4&#45;&gt;Node5 -->
<g id="edge5" class="edge">
<title>Node4&#45;&gt;Node5</title>
<path fill="none" stroke="#63b8ff" d="M674.13,-126C682.33,-126 690.6,-126 698.79,-126"/>
<polygon fill="#63b8ff" stroke="#63b8ff" points="674.4,-122.5 664.4,-126 674.4,-129.5 674.4,-122.5"/>
</g>
<!-- Node7 -->
<g id="node8" class="node">
<title>Node7</title>
<g id="a_node8"><a xlink:href="classmfem_1_1TIntegrationRule_3_01Geometry_1_1SQUARE_00_01Order_00_01real__t_01_4.html" target="_top" xlink:title=" ">
<polygon fill="white" stroke="#666666" points="906.52,-83 703.4,-83 703.4,-33 906.52,-33 906.52,-83"/>
<text text-anchor="start" x="711.4" y="-67.8" font-family="Helvetica,sans-Serif" font-size="14.00">mfem::TIntegrationRule</text>
<text text-anchor="start" x="711.4" y="-53.8" font-family="Helvetica,sans-Serif" font-size="14.00">&lt; Geometry::SQUARE, Order,</text>
<text text-anchor="middle" x="804.96" y="-39.8" font-family="Helvetica,sans-Serif" font-size="14.00"> real_t &gt;</text>
</a>
</g>
</g>
<!-- Node6&#45;&gt;Node7 -->
<g id="edge7" class="edge">
<title>Node6&#45;&gt;Node7</title>
<path fill="none" stroke="#63b8ff" d="M674.19,-65.67C683.8,-65.1 693.5,-64.53 703.05,-63.96"/>
<polygon fill="#63b8ff" stroke="#63b8ff" points="674.18,-62.22 664.4,-66.31 674.59,-69.21 674.18,-62.22"/>
</g>
</g>
</svg>
