<?xml version="1.0" encoding="UTF-8" standalone="no"?>
<!DOCTYPE svg PUBLIC "-//W3C//DTD SVG 1.1//EN"
 "http://www.w3.org/Graphics/SVG/1.1/DTD/svg11.dtd">
<!-- Generated by graphviz version 12.0.0 (20240704.0754)
 -->
<!-- Title: Graphical Class Hierarchy Pages: 1 -->
<svg width="469pt" height="1073pt"
 viewBox="0.00 0.00 469.00 1072.50" xmlns="http://www.w3.org/2000/svg" xmlns:xlink="http://www.w3.org/1999/xlink">
<g id="graph0" class="graph" transform="scale(1 1) rotate(0) translate(4 1068.5)">
<title>Graphical Class Hierarchy</title>
<!-- Node0 -->
<g id="Node000000" class="node">
<title>Node0</title>
<g id="a_Node000000"><a xlink:href="classmfem_1_1VectorCoefficient.html" target="_top" xlink:title="Base class for vector Coefficients that optionally depend on time and space.">
<polygon fill="white" stroke="#666666" points="161.5,-536.5 0,-536.5 0,-513.5 161.5,-513.5 161.5,-536.5"/>
<text text-anchor="middle" x="80.75" y="-519.2" font-family="Helvetica,sans-Serif" font-size="14.00">mfem::VectorCoefficient</text>
</a>
</g>
</g>
<!-- Node1 -->
<g id="Node000001" class="node">
<title>Node1</title>
<g id="a_Node000001"><a xlink:href="classDist__Vector__Coefficient.html" target="_top" xlink:title="Distance vector to the zero level&#45;set.">
<polygon fill="white" stroke="#666666" points="407.75,-1064.5 250.75,-1064.5 250.75,-1041.5 407.75,-1041.5 407.75,-1064.5"/>
<text text-anchor="middle" x="329.25" y="-1047.2" font-family="Helvetica,sans-Serif" font-size="14.00">Dist_Vector_Coefficient</text>
</a>
</g>
</g>
<!-- Node0&#45;&gt;Node1 -->
<g id="edge920_Node000000_Node000001" class="edge">
<title>Node0&#45;&gt;Node1</title>
<g id="a_edge920_Node000000_Node000001"><a xlink:title=" ">
<path fill="none" stroke="#63b8ff" d="M83.61,-547.8C91.41,-637.59 124.52,-965.11 197.5,-1033 211.79,-1046.29 231.01,-1052.97 250.3,-1055.95"/>
<polygon fill="#63b8ff" stroke="#63b8ff" points="87.12,-547.73 82.79,-538.06 80.14,-548.32 87.12,-547.73"/>
</a>
</g>
</g>
<!-- Node2 -->
<g id="Node000002" class="node">
<title>Node2</title>
<g id="a_Node000002"><a xlink:href="classmfem_1_1CurlGridFunctionCoefficient.html" target="_top" xlink:title="Vector coefficient defined as the Curl of a vector GridFunction.">
<polygon fill="white" stroke="#666666" points="441.88,-1023.5 216.62,-1023.5 216.62,-1000.5 441.88,-1000.5 441.88,-1023.5"/>
<text text-anchor="middle" x="329.25" y="-1006.2" font-family="Helvetica,sans-Serif" font-size="14.00">mfem::CurlGridFunctionCoefficient</text>
</a>
</g>
</g>
<!-- Node0&#45;&gt;Node2 -->
<g id="edge921_Node000000_Node000002" class="edge">
<title>Node0&#45;&gt;Node2</title>
<g id="a_edge921_Node000000_Node000002"><a xlink:title=" ">
<path fill="none" stroke="#63b8ff" d="M84.15,-548.08C93.53,-633.42 130.44,-929.36 197.5,-991 203.09,-996.13 209.4,-1000.29 216.17,-1003.64"/>
<polygon fill="#63b8ff" stroke="#63b8ff" points="87.66,-547.94 83.11,-538.37 80.7,-548.69 87.66,-547.94"/>
</a>
</g>
</g>
<!-- Node3 -->
<g id="Node000003" class="node">
<title>Node3</title>
<g id="a_Node000003"><a xlink:href="classmfem_1_1GradientGridFunctionCoefficient.html" target="_top" xlink:title="Vector coefficient defined as the Gradient of a scalar GridFunction.">
<polygon fill="white" stroke="#666666" points="423.88,-982 234.62,-982 234.62,-944 423.88,-944 423.88,-982"/>
<text text-anchor="start" x="242.62" y="-964.7" font-family="Helvetica,sans-Serif" font-size="14.00">mfem::GradientGridFunction</text>
<text text-anchor="middle" x="329.25" y="-949.7" font-family="Helvetica,sans-Serif" font-size="14.00">Coefficient</text>
</a>
</g>
</g>
<!-- Node0&#45;&gt;Node3 -->
<g id="edge922_Node000000_Node000003" class="edge">
<title>Node0&#45;&gt;Node3</title>
<g id="a_edge922_Node000000_Node000003"><a xlink:title=" ">
<path fill="none" stroke="#63b8ff" d="M85.09,-547.96C96.91,-626.16 139.25,-880.37 197.5,-935 207.83,-944.69 220.66,-951.35 234.21,-955.87"/>
<polygon fill="#63b8ff" stroke="#63b8ff" points="88.61,-547.85 83.68,-538.47 81.68,-548.88 88.61,-547.85"/>
</a>
</g>
</g>
<!-- Node4 -->
<g id="Node000004" class="node">
<title>Node4</title>
<g id="a_Node000004"><a xlink:href="classmfem_1_1LevelSetNormalGradCoeff.html" target="_top" xlink:title=" ">
<polygon fill="white" stroke="#666666" points="422.38,-926 236.12,-926 236.12,-888 422.38,-888 422.38,-926"/>
<text text-anchor="start" x="244.12" y="-908.7" font-family="Helvetica,sans-Serif" font-size="14.00">mfem::LevelSetNormalGrad</text>
<text text-anchor="middle" x="329.25" y="-893.7" font-family="Helvetica,sans-Serif" font-size="14.00">Coeff</text>
</a>
</g>
</g>
<!-- Node0&#45;&gt;Node4 -->
<g id="edge923_Node000000_Node000004" class="edge">
<title>Node0&#45;&gt;Node4</title>
<g id="a_edge923_Node000000_Node000004"><a xlink:title=" ">
<path fill="none" stroke="#63b8ff" d="M81.9,-548.46C83.64,-612.09 97.69,-789.16 197.5,-879 208.37,-888.78 221.81,-895.45 235.89,-899.94"/>
<polygon fill="#63b8ff" stroke="#63b8ff" points="85.4,-548.44 81.71,-538.51 78.4,-548.57 85.4,-548.44"/>
</a>
</g>
</g>
<!-- Node5 -->
<g id="Node000005" class="node">
<title>Node5</title>
<g id="a_Node000005"><a xlink:href="classmfem_1_1MatrixVectorProductCoefficient.html" target="_top" xlink:title="Vector coefficient defined as a product of a matrix coefficient and a vector coefficient.">
<polygon fill="white" stroke="#666666" points="420.12,-870 238.38,-870 238.38,-832 420.12,-832 420.12,-870"/>
<text text-anchor="start" x="246.38" y="-852.7" font-family="Helvetica,sans-Serif" font-size="14.00">mfem::MatrixVectorProduct</text>
<text text-anchor="middle" x="329.25" y="-837.7" font-family="Helvetica,sans-Serif" font-size="14.00">Coefficient</text>
</a>
</g>
</g>
<!-- Node0&#45;&gt;Node5 -->
<g id="edge924_Node000000_Node000005" class="edge">
<title>Node0&#45;&gt;Node5</title>
<g id="a_edge924_Node000000_Node000005"><a xlink:title=" ">
<path fill="none" stroke="#63b8ff" d="M83.5,-548.13C89.07,-604.51 111.48,-749.72 197.5,-823 209.07,-832.86 223.29,-839.51 238.03,-843.94"/>
<polygon fill="#63b8ff" stroke="#63b8ff" points="87.01,-548.09 82.64,-538.44 80.04,-548.71 87.01,-548.09"/>
</a>
</g>
</g>
<!-- Node6 -->
<g id="Node000006" class="node">
<title>Node6</title>
<g id="a_Node000006"><a xlink:href="classmfem_1_1NodeExtrudeCoefficient.html" target="_top" xlink:title="Class used to extrude the nodes of a mesh.">
<polygon fill="white" stroke="#666666" points="429.88,-813.5 228.62,-813.5 228.62,-790.5 429.88,-790.5 429.88,-813.5"/>
<text text-anchor="middle" x="329.25" y="-796.2" font-family="Helvetica,sans-Serif" font-size="14.00">mfem::NodeExtrudeCoefficient</text>
</a>
</g>
</g>
<!-- Node0&#45;&gt;Node6 -->
<g id="edge925_Node000000_Node000006" class="edge">
<title>Node0&#45;&gt;Node6</title>
<g id="a_edge925_Node000000_Node000006"><a xlink:title=" ">
<path fill="none" stroke="#63b8ff" d="M84.75,-548.01C92.76,-599.23 119.57,-722.79 197.5,-782 206.64,-788.95 217.2,-793.94 228.27,-797.48"/>
<polygon fill="#63b8ff" stroke="#63b8ff" points="88.26,-547.78 83.36,-538.39 81.33,-548.79 88.26,-547.78"/>
</a>
</g>
</g>
<!-- Node7 -->
<g id="Node000007" class="node">
<title>Node7</title>
<g id="a_Node000007"><a xlink:href="classmfem_1_1NormalizedVectorCoefficient.html" target="_top" xlink:title="Vector coefficient defined as a normalized vector field (returns v/|v|)">
<polygon fill="white" stroke="#666666" points="444.5,-772.5 214,-772.5 214,-749.5 444.5,-749.5 444.5,-772.5"/>
<text text-anchor="middle" x="329.25" y="-755.2" font-family="Helvetica,sans-Serif" font-size="14.00">mfem::NormalizedVectorCoefficient</text>
</a>
</g>
</g>
<!-- Node0&#45;&gt;Node7 -->
<g id="edge926_Node000000_Node000007" class="edge">
<title>Node0&#45;&gt;Node7</title>
<g id="a_edge926_Node000000_Node000007"><a xlink:title=" ">
<path fill="none" stroke="#63b8ff" d="M86.85,-548C98.15,-593.17 129.86,-693.19 197.5,-741 202.56,-744.58 208.01,-747.63 213.71,-750.21"/>
<polygon fill="#63b8ff" stroke="#63b8ff" points="90.25,-547.2 84.54,-538.28 83.44,-548.82 90.25,-547.2"/>
</a>
</g>
</g>
<!-- Node8 -->
<g id="Node000008" class="node">
<title>Node8</title>
<g id="a_Node000008"><a xlink:href="classmfem_1_1PWVectorCoefficient.html" target="_top" xlink:title="A piecewise vector&#45;valued coefficient with the pieces keyed off the element attribute numbers.">
<polygon fill="white" stroke="#666666" points="421.25,-731.5 237.25,-731.5 237.25,-708.5 421.25,-708.5 421.25,-731.5"/>
<text text-anchor="middle" x="329.25" y="-714.2" font-family="Helvetica,sans-Serif" font-size="14.00">mfem::PWVectorCoefficient</text>
</a>
</g>
</g>
<!-- Node0&#45;&gt;Node8 -->
<g id="edge927_Node000000_Node000008" class="edge">
<title>Node0&#45;&gt;Node8</title>
<g id="a_edge927_Node000000_Node000008"><a xlink:title=" ">
<path fill="none" stroke="#63b8ff" d="M89.68,-547.61C104.39,-585.94 139.78,-663.08 197.5,-700 209.3,-707.55 222.9,-712.64 236.77,-716"/>
<polygon fill="#63b8ff" stroke="#63b8ff" points="92.97,-546.43 86.22,-538.26 86.41,-548.86 92.97,-546.43"/>
</a>
</g>
</g>
<!-- Node9 -->
<g id="Node000009" class="node">
<title>Node9</title>
<g id="a_Node000009"><a xlink:href="classmfem_1_1PositionVectorCoefficient.html" target="_top" xlink:title=" ">
<polygon fill="white" stroke="#666666" points="434,-690.5 224.5,-690.5 224.5,-667.5 434,-667.5 434,-690.5"/>
<text text-anchor="middle" x="329.25" y="-673.2" font-family="Helvetica,sans-Serif" font-size="14.00">mfem::PositionVectorCoefficient</text>
</a>
</g>
</g>
<!-- Node0&#45;&gt;Node9 -->
<g id="edge928_Node000000_Node000009" class="edge">
<title>Node0&#45;&gt;Node9</title>
<g id="a_edge928_Node000000_Node000009"><a xlink:title=" ">
<path fill="none" stroke="#63b8ff" d="M93.62,-546.23C111.76,-576.49 149.38,-631.28 197.5,-658 205.84,-662.63 214.91,-666.31 224.26,-669.23"/>
<polygon fill="#63b8ff" stroke="#63b8ff" points="96.85,-544.83 88.8,-537.95 90.81,-548.35 96.85,-544.83"/>
</a>
</g>
</g>
<!-- Node10 -->
<g id="Node000010" class="node">
<title>Node10</title>
<g id="a_Node000010"><a xlink:href="classmfem_1_1ScalarVectorProductCoefficient.html" target="_top" xlink:title="Vector coefficient defined as a product of scalar and vector coefficients.">
<polygon fill="white" stroke="#666666" points="420.5,-649 238,-649 238,-611 420.5,-611 420.5,-649"/>
<text text-anchor="start" x="246" y="-631.7" font-family="Helvetica,sans-Serif" font-size="14.00">mfem::ScalarVectorProduct</text>
<text text-anchor="middle" x="329.25" y="-616.7" font-family="Helvetica,sans-Serif" font-size="14.00">Coefficient</text>
</a>
</g>
</g>
<!-- Node0&#45;&gt;Node10 -->
<g id="edge929_Node000000_Node000010" class="edge">
<title>Node0&#45;&gt;Node10</title>
<g id="a_edge929_Node000000_Node000010"><a xlink:title=" ">
<path fill="none" stroke="#63b8ff" d="M104.41,-543.87C126.73,-561.49 162.47,-587.23 197.5,-602 210.12,-607.32 223.87,-611.68 237.55,-615.23"/>
<polygon fill="#63b8ff" stroke="#63b8ff" points="106.88,-541.36 96.89,-537.82 102.49,-546.81 106.88,-541.36"/>
</a>
</g>
</g>
<!-- Node11 -->
<g id="Node000011" class="node">
<title>Node11</title>
<g id="a_Node000011"><a xlink:href="classmfem_1_1ShiftedVectorFunctionCoefficient.html" target="_top" xlink:title=" ">
<polygon fill="white" stroke="#666666" points="425,-593 233.5,-593 233.5,-555 425,-555 425,-593"/>
<text text-anchor="start" x="241.5" y="-575.7" font-family="Helvetica,sans-Serif" font-size="14.00">mfem::ShiftedVectorFunction</text>
<text text-anchor="middle" x="329.25" y="-560.7" font-family="Helvetica,sans-Serif" font-size="14.00">Coefficient</text>
</a>
</g>
</g>
<!-- Node0&#45;&gt;Node11 -->
<g id="edge930_Node000000_Node000011" class="edge">
<title>Node0&#45;&gt;Node11</title>
<g id="a_edge930_Node000000_Node000011"><a xlink:title=" ">
<path fill="none" stroke="#63b8ff" d="M153.23,-539.21C178.15,-544.16 206.51,-549.8 233.03,-555.07"/>
<polygon fill="#63b8ff" stroke="#63b8ff" points="154.03,-535.8 143.54,-537.28 152.66,-542.66 154.03,-535.8"/>
</a>
</g>
</g>
<!-- Node12 -->
<g id="Node000012" class="node">
<title>Node12</title>
<g id="a_Node000012"><a xlink:href="classmfem_1_1VectorArrayCoefficient.html" target="_top" xlink:title="Vector coefficient defined by an array of scalar coefficients. Coefficients that are not set will eva...">
<polygon fill="white" stroke="#666666" points="426.12,-536.5 232.38,-536.5 232.38,-513.5 426.12,-513.5 426.12,-536.5"/>
<text text-anchor="middle" x="329.25" y="-519.2" font-family="Helvetica,sans-Serif" font-size="14.00">mfem::VectorArrayCoefficient</text>
</a>
</g>
</g>
<!-- Node0&#45;&gt;Node12 -->
<g id="edge931_Node000000_Node000012" class="edge">
<title>Node0&#45;&gt;Node12</title>
<g id="a_edge931_Node000000_Node000012"><a xlink:title=" ">
<path fill="none" stroke="#63b8ff" d="M173.28,-525C192.53,-525 212.88,-525 232.28,-525"/>
<polygon fill="#63b8ff" stroke="#63b8ff" points="173.3,-521.5 163.3,-525 173.29,-528.5 173.3,-521.5"/>
</a>
</g>
</g>
<!-- Node13 -->
<g id="Node000013" class="node">
<title>Node13</title>
<g id="a_Node000013"><a xlink:href="classmfem_1_1VectorConstantCoefficient.html" target="_top" xlink:title="Vector coefficient that is constant in space and time.">
<polygon fill="white" stroke="#666666" points="437,-495.5 221.5,-495.5 221.5,-472.5 437,-472.5 437,-495.5"/>
<text text-anchor="middle" x="329.25" y="-478.2" font-family="Helvetica,sans-Serif" font-size="14.00">mfem::VectorConstantCoefficient</text>
</a>
</g>
</g>
<!-- Node0&#45;&gt;Node13 -->
<g id="edge932_Node000000_Node000013" class="edge">
<title>Node0&#45;&gt;Node13</title>
<g id="a_edge932_Node000000_Node000013"><a xlink:title=" ">
<path fill="none" stroke="#63b8ff" d="M161.31,-511.12C173.43,-509.05 185.8,-506.95 197.5,-505 215.42,-502.01 234.72,-498.87 252.86,-495.95"/>
<polygon fill="#63b8ff" stroke="#63b8ff" points="161.03,-507.62 151.77,-512.76 162.22,-514.52 161.03,-507.62"/>
</a>
</g>
</g>
<!-- Node14 -->
<g id="Node000014" class="node">
<title>Node14</title>
<g id="a_Node000014"><a xlink:href="classmfem_1_1VectorCrossProductCoefficient.html" target="_top" xlink:title="Vector coefficient defined as a cross product of two vectors.">
<polygon fill="white" stroke="#666666" points="419,-454 239.5,-454 239.5,-416 419,-416 419,-454"/>
<text text-anchor="start" x="247.5" y="-436.7" font-family="Helvetica,sans-Serif" font-size="14.00">mfem::VectorCrossProduct</text>
<text text-anchor="middle" x="329.25" y="-421.7" font-family="Helvetica,sans-Serif" font-size="14.00">Coefficient</text>
</a>
</g>
</g>
<!-- Node0&#45;&gt;Node14 -->
<g id="edge933_Node000000_Node000014" class="edge">
<title>Node0&#45;&gt;Node14</title>
<g id="a_edge933_Node000000_Node000014"><a xlink:title=" ">
<path fill="none" stroke="#63b8ff" d="M109.99,-507.37C132.84,-493.8 166.25,-475.47 197.5,-464 210.71,-459.15 224.97,-454.98 239.06,-451.43"/>
<polygon fill="#63b8ff" stroke="#63b8ff" points="108.33,-504.29 101.58,-512.45 111.95,-510.28 108.33,-504.29"/>
</a>
</g>
</g>
<!-- Node15 -->
<g id="Node000015" class="node">
<title>Node15</title>
<g id="a_Node000015"><a xlink:href="classmfem_1_1VectorDeltaCoefficient.html" target="_top" xlink:title="Vector coefficient defined by a scalar DeltaCoefficient and a constant vector direction.">
<polygon fill="white" stroke="#666666" points="425.75,-397.5 232.75,-397.5 232.75,-374.5 425.75,-374.5 425.75,-397.5"/>
<text text-anchor="middle" x="329.25" y="-380.2" font-family="Helvetica,sans-Serif" font-size="14.00">mfem::VectorDeltaCoefficient</text>
</a>
</g>
</g>
<!-- Node0&#45;&gt;Node15 -->
<g id="edge934_Node000000_Node000015" class="edge">
<title>Node0&#45;&gt;Node15</title>
<g id="a_edge934_Node000000_Node000015"><a xlink:title=" ">
<path fill="none" stroke="#63b8ff" d="M95.89,-503.81C115.32,-476.57 152.97,-430.02 197.5,-407 208.32,-401.4 220.27,-397.23 232.41,-394.12"/>
<polygon fill="#63b8ff" stroke="#63b8ff" points="93.05,-501.77 90.22,-511.98 98.8,-505.76 93.05,-501.77"/>
</a>
</g>
</g>
<!-- Node16 -->
<g id="Node000016" class="node">
<title>Node16</title>
<g id="a_Node000016"><a xlink:href="classmfem_1_1VectorFunctionCoefficient.html" target="_top" xlink:title="A general vector function coefficient.">
<polygon fill="white" stroke="#666666" points="435.88,-356.5 222.62,-356.5 222.62,-333.5 435.88,-333.5 435.88,-356.5"/>
<text text-anchor="middle" x="329.25" y="-339.2" font-family="Helvetica,sans-Serif" font-size="14.00">mfem::VectorFunctionCoefficient</text>
</a>
</g>
</g>
<!-- Node0&#45;&gt;Node16 -->
<g id="edge935_Node000000_Node000016" class="edge">
<title>Node0&#45;&gt;Node16</title>
<g id="a_edge935_Node000000_Node000016"><a xlink:title=" ">
<path fill="none" stroke="#63b8ff" d="M90.87,-503.22C106.84,-468.01 143.41,-399.2 197.5,-366 205.14,-361.31 213.49,-357.56 222.15,-354.58"/>
<polygon fill="#63b8ff" stroke="#63b8ff" points="87.83,-501.43 87.02,-512 94.24,-504.25 87.83,-501.43"/>
</a>
</g>
</g>
<!-- Node17 -->
<g id="Node000017" class="node">
<title>Node17</title>
<g id="a_Node000017"><a xlink:href="classmfem_1_1VectorGridFunctionCoefficient.html" target="_top" xlink:title="Vector coefficient defined by a vector GridFunction.">
<polygon fill="white" stroke="#666666" points="417.12,-315 241.38,-315 241.38,-277 417.12,-277 417.12,-315"/>
<text text-anchor="start" x="249.38" y="-297.7" font-family="Helvetica,sans-Serif" font-size="14.00">mfem::VectorGridFunction</text>
<text text-anchor="middle" x="329.25" y="-282.7" font-family="Helvetica,sans-Serif" font-size="14.00">Coefficient</text>
</a>
</g>
</g>
<!-- Node0&#45;&gt;Node17 -->
<g id="edge936_Node000000_Node000017" class="edge">
<title>Node0&#45;&gt;Node17</title>
<g id="a_edge936_Node000000_Node000017"><a xlink:title=" ">
<path fill="none" stroke="#63b8ff" d="M88.18,-502.31C101.31,-460.3 135.35,-370.53 197.5,-325 210.26,-315.66 225.46,-309.23 240.91,-304.83"/>
<polygon fill="#63b8ff" stroke="#63b8ff" points="84.84,-501.24 85.33,-511.82 91.55,-503.25 84.84,-501.24"/>
</a>
</g>
</g>
<!-- Node18 -->
<g id="Node000018" class="node">
<title>Node18</title>
<g id="a_Node000018"><a xlink:href="classmfem_1_1VectorQuadratureFunctionCoefficient.html" target="_top" xlink:title="Vector quadrature function coefficient which requires that the quadrature rules used for this vector ...">
<polygon fill="white" stroke="#666666" points="438.5,-259 220,-259 220,-221 438.5,-221 438.5,-259"/>
<text text-anchor="start" x="228" y="-241.7" font-family="Helvetica,sans-Serif" font-size="14.00">mfem::VectorQuadratureFunction</text>
<text text-anchor="middle" x="329.25" y="-226.7" font-family="Helvetica,sans-Serif" font-size="14.00">Coefficient</text>
</a>
</g>
</g>
<!-- Node0&#45;&gt;Node18 -->
<g id="edge937_Node000000_Node000018" class="edge">
<title>Node0&#45;&gt;Node18</title>
<g id="a_edge937_Node000000_Node000018"><a xlink:title=" ">
<path fill="none" stroke="#63b8ff" d="M85.13,-501.65C93.78,-450.69 121.69,-329.22 197.5,-268 204.18,-262.6 211.66,-258.18 219.58,-254.57"/>
<polygon fill="#63b8ff" stroke="#63b8ff" points="81.67,-501.08 83.56,-511.51 88.58,-502.18 81.67,-501.08"/>
</a>
</g>
</g>
<!-- Node19 -->
<g id="Node000019" class="node">
<title>Node19</title>
<g id="a_Node000019"><a xlink:href="classmfem_1_1VectorRestrictedCoefficient.html" target="_top" xlink:title="Derived vector coefficient that has the value of the parent vector where it is active and is zero oth...">
<polygon fill="white" stroke="#666666" points="440.38,-202.5 218.12,-202.5 218.12,-179.5 440.38,-179.5 440.38,-202.5"/>
<text text-anchor="middle" x="329.25" y="-185.2" font-family="Helvetica,sans-Serif" font-size="14.00">mfem::VectorRestrictedCoefficient</text>
</a>
</g>
</g>
<!-- Node0&#45;&gt;Node19 -->
<g id="edge938_Node000000_Node000019" class="edge">
<title>Node0&#45;&gt;Node19</title>
<g id="a_edge938_Node000000_Node000019"><a xlink:title=" ">
<path fill="none" stroke="#63b8ff" d="M82.75,-502.03C86.64,-443.41 105.55,-287.57 197.5,-212 203.63,-206.96 210.48,-202.9 217.75,-199.65"/>
<polygon fill="#63b8ff" stroke="#63b8ff" points="79.27,-501.6 82.2,-511.78 86.26,-501.99 79.27,-501.6"/>
</a>
</g>
</g>
<!-- Node20 -->
<g id="Node000020" class="node">
<title>Node20</title>
<g id="a_Node000020"><a xlink:href="classmfem_1_1VectorSumCoefficient.html" target="_top" xlink:title="Vector coefficient defined as the linear combination of two vectors.">
<polygon fill="white" stroke="#666666" points="424.25,-161.5 234.25,-161.5 234.25,-138.5 424.25,-138.5 424.25,-161.5"/>
<text text-anchor="middle" x="329.25" y="-144.2" font-family="Helvetica,sans-Serif" font-size="14.00">mfem::VectorSumCoefficient</text>
</a>
</g>
</g>
<!-- Node0&#45;&gt;Node20 -->
<g id="edge939_Node000000_Node000020" class="edge">
<title>Node0&#45;&gt;Node20</title>
<g id="a_edge939_Node000000_Node000020"><a xlink:title=" ">
<path fill="none" stroke="#63b8ff" d="M81.64,-501.69C82.72,-437.73 95.17,-258.43 197.5,-171 207.9,-162.11 220.53,-156.22 233.79,-152.42"/>
<polygon fill="#63b8ff" stroke="#63b8ff" points="78.14,-501.66 81.57,-511.69 85.14,-501.71 78.14,-501.66"/>
</a>
</g>
</g>
<!-- Node21 -->
<g id="Node000021" class="node">
<title>Node21</title>
<g id="a_Node000021"><a xlink:href="classmfem_1_1VolumeForceCoefficient.html" target="_top" xlink:title="Volumetric force for linear elasticity.">
<polygon fill="white" stroke="#666666" points="431,-120.5 227.5,-120.5 227.5,-97.5 431,-97.5 431,-120.5"/>
<text text-anchor="middle" x="329.25" y="-103.2" font-family="Helvetica,sans-Serif" font-size="14.00">mfem::VolumeForceCoefficient</text>
</a>
</g>
</g>
<!-- Node0&#45;&gt;Node21 -->
<g id="edge940_Node000000_Node000021" class="edge">
<title>Node0&#45;&gt;Node21</title>
<g id="a_edge940_Node000000_Node000021"><a xlink:title=" ">
<path fill="none" stroke="#63b8ff" d="M85.27,-501.79C97.39,-424.95 139.87,-180.8 197.5,-130 206.12,-122.4 216.37,-116.97 227.27,-113.14"/>
<polygon fill="#63b8ff" stroke="#63b8ff" points="81.83,-501.09 83.76,-511.51 88.75,-502.17 81.83,-501.09"/>
</a>
</g>
</g>
<!-- Node22 -->
<g id="Node000022" class="node">
<title>Node22</title>
<g id="a_Node000022"><a xlink:href="classmfem_1_1common_1_1KershawTransformation.html" target="_top" xlink:title=" ">
<polygon fill="white" stroke="#666666" points="461,-79.5 197.5,-79.5 197.5,-56.5 461,-56.5 461,-79.5"/>
<text text-anchor="middle" x="329.25" y="-62.2" font-family="Helvetica,sans-Serif" font-size="14.00">mfem::common::KershawTransformation</text>
</a>
</g>
</g>
<!-- Node0&#45;&gt;Node22 -->
<g id="edge941_Node000000_Node000022" class="edge">
<title>Node0&#45;&gt;Node22</title>
<g id="a_edge941_Node000000_Node000022"><a xlink:title=" ">
<path fill="none" stroke="#63b8ff" d="M84.59,-501.83C95.09,-419.94 134.45,-146.03 197.5,-89 201.34,-85.53 205.51,-82.51 209.93,-79.88"/>
<polygon fill="#63b8ff" stroke="#63b8ff" points="81.14,-501.2 83.36,-511.56 88.08,-502.08 81.14,-501.2"/>
</a>
</g>
</g>
<!-- Node23 -->
<g id="Node000023" class="node">
<title>Node23</title>
<g id="a_Node000023"><a xlink:href="classmfem_1_1common_1_1NormalizedGradCoefficient.html" target="_top" xlink:title=" ">
<polygon fill="white" stroke="#666666" points="423.5,-38 235,-38 235,0 423.5,0 423.5,-38"/>
<text text-anchor="start" x="243" y="-20.7" font-family="Helvetica,sans-Serif" font-size="14.00">mfem::common::Normalized</text>
<text text-anchor="middle" x="329.25" y="-5.7" font-family="Helvetica,sans-Serif" font-size="14.00">GradCoefficient</text>
</a>
</g>
</g>
<!-- Node0&#45;&gt;Node23 -->
<g id="edge942_Node000000_Node000023" class="edge">
<title>Node0&#45;&gt;Node23</title>
<g id="a_edge942_Node000000_Node000023"><a xlink:title=" ">
<path fill="none" stroke="#63b8ff" d="M84.13,-502.07C93.53,-415.95 130.87,-113.32 197.5,-48 207.79,-37.91 220.77,-31 234.53,-26.33"/>
<polygon fill="#63b8ff" stroke="#63b8ff" points="80.67,-501.54 83.08,-511.86 87.63,-502.29 80.67,-501.54"/>
</a>
</g>
</g>
</g>
</svg>
