<?xml version="1.0" encoding="UTF-8" standalone="no"?>
<!DOCTYPE svg PUBLIC "-//W3C//DTD SVG 1.1//EN"
 "http://www.w3.org/Graphics/SVG/1.1/DTD/svg11.dtd">
<!-- Generated by graphviz version 12.0.0 (20240704.0754)
 -->
<!-- Title: Graphical Class Hierarchy Pages: 1 -->
<svg width="384pt" height="113pt"
 viewBox="0.00 0.00 383.50 113.00" xmlns="http://www.w3.org/2000/svg" xmlns:xlink="http://www.w3.org/1999/xlink">
<g id="graph0" class="graph" transform="scale(1 1) rotate(0) translate(4 109)">
<title>Graphical Class Hierarchy</title>
<!-- Node0 -->
<g id="Node000000" class="node">
<title>Node0</title>
<g id="a_Node000000"><a xlink:href="classmfem_1_1BatchedLORKernel.html" target="_top" xlink:title="Abstract base class for the batched LOR assembly kernels.">
<polygon fill="white" stroke="#666666" points="175.75,-64 0,-64 0,-41 175.75,-41 175.75,-64"/>
<text text-anchor="middle" x="87.88" y="-46.7" font-family="Helvetica,sans-Serif" font-size="14.00">mfem::BatchedLORKernel</text>
</a>
</g>
</g>
<!-- Node1 -->
<g id="Node000001" class="node">
<title>Node1</title>
<g id="a_Node000001"><a xlink:href="classmfem_1_1BatchedLOR__H1.html" target="_top" xlink:title=" ">
<polygon fill="white" stroke="#666666" points="374.38,-105 212.88,-105 212.88,-82 374.38,-82 374.38,-105"/>
<text text-anchor="middle" x="293.62" y="-87.7" font-family="Helvetica,sans-Serif" font-size="14.00">mfem::BatchedLOR_H1</text>
</a>
</g>
</g>
<!-- Node0&#45;&gt;Node1 -->
<g id="edge29_Node000000_Node000001" class="edge">
<title>Node0&#45;&gt;Node1</title>
<g id="a_edge29_Node000000_Node000001"><a xlink:title=" ">
<path fill="none" stroke="#8b1a1a" d="M159.53,-66.72C183.51,-71.54 210.04,-76.88 233.07,-81.52"/>
<polygon fill="#8b1a1a" stroke="#8b1a1a" points="160.33,-63.31 149.84,-64.77 158.95,-70.17 160.33,-63.31"/>
</a>
</g>
</g>
<!-- Node2 -->
<g id="Node000002" class="node">
<title>Node2</title>
<g id="a_Node000002"><a xlink:href="classmfem_1_1BatchedLOR__ND.html" target="_top" xlink:title=" ">
<polygon fill="white" stroke="#666666" points="375.5,-64 211.75,-64 211.75,-41 375.5,-41 375.5,-64"/>
<text text-anchor="middle" x="293.62" y="-46.7" font-family="Helvetica,sans-Serif" font-size="14.00">mfem::BatchedLOR_ND</text>
</a>
</g>
</g>
<!-- Node0&#45;&gt;Node2 -->
<g id="edge30_Node000000_Node000002" class="edge">
<title>Node0&#45;&gt;Node2</title>
<g id="a_edge30_Node000000_Node000002"><a xlink:title=" ">
<path fill="none" stroke="#8b1a1a" d="M187.44,-52.5C195.44,-52.5 203.46,-52.5 211.32,-52.5"/>
<polygon fill="#8b1a1a" stroke="#8b1a1a" points="187.68,-49 177.68,-52.5 187.68,-56 187.68,-49"/>
</a>
</g>
</g>
<!-- Node3 -->
<g id="Node000003" class="node">
<title>Node3</title>
<g id="a_Node000003"><a xlink:href="classmfem_1_1BatchedLOR__RT.html" target="_top" xlink:title=" ">
<polygon fill="white" stroke="#666666" points="374.75,-23 212.5,-23 212.5,0 374.75,0 374.75,-23"/>
<text text-anchor="middle" x="293.62" y="-5.7" font-family="Helvetica,sans-Serif" font-size="14.00">mfem::BatchedLOR_RT</text>
</a>
</g>
</g>
<!-- Node0&#45;&gt;Node3 -->
<g id="edge31_Node000000_Node000003" class="edge">
<title>Node0&#45;&gt;Node3</title>
<g id="a_edge31_Node000000_Node000003"><a xlink:title=" ">
<path fill="none" stroke="#8b1a1a" d="M159.53,-38.28C183.51,-33.46 210.04,-28.12 233.07,-23.48"/>
<polygon fill="#8b1a1a" stroke="#8b1a1a" points="158.95,-34.83 149.84,-40.23 160.33,-41.69 158.95,-34.83"/>
</a>
</g>
</g>
</g>
</svg>
