<?xml version="1.0" encoding="UTF-8" standalone="no"?>
<!DOCTYPE svg PUBLIC "-//W3C//DTD SVG 1.1//EN"
 "http://www.w3.org/Graphics/SVG/1.1/DTD/svg11.dtd">
<!-- Generated by graphviz version 8.0.5 (0)
 -->
<!-- Title: Graphical Class Hierarchy Pages: 1 -->
<svg width="469pt" height="70pt"
 viewBox="0.00 0.00 468.89 70.00" xmlns="http://www.w3.org/2000/svg" xmlns:xlink="http://www.w3.org/1999/xlink">
<g id="graph0" class="graph" transform="scale(1 1) rotate(0) translate(4 66)">
<title>Graphical Class Hierarchy</title>
<!-- Node0 -->
<g id="node1" class="node">
<title>Node0</title>
<g id="a_node1"><a xlink:href="classmfem_1_1TMOP__LimiterFunction.html" target="_top" xlink:title="Base class for limiting functions to be used in class TMOP_Integrator.">
<polygon fill="white" stroke="#666666" points="202.71,-42 0,-42 0,-20 202.71,-20 202.71,-42"/>
<text text-anchor="middle" x="101.35" y="-26.8" font-family="Helvetica,sans-Serif" font-size="14.00">mfem::TMOP_LimiterFunction</text>
</a>
</g>
</g>
<!-- Node1 -->
<g id="node2" class="node">
<title>Node1</title>
<g id="a_node2"><a xlink:href="classmfem_1_1TMOP__ExponentialLimiter.html" target="_top" xlink:title="Exponential limiter function in TMOP_Integrator.">
<polygon fill="white" stroke="#666666" points="460.89,-62 238.71,-62 238.71,-40 460.89,-40 460.89,-62"/>
<text text-anchor="middle" x="349.8" y="-46.8" font-family="Helvetica,sans-Serif" font-size="14.00">mfem::TMOP_ExponentialLimiter</text>
</a>
</g>
</g>
<!-- Node0&#45;&gt;Node1 -->
<g id="edge1" class="edge">
<title>Node0&#45;&gt;Node1</title>
<path fill="none" stroke="#63b8ff" d="M213.72,-40.04C221.96,-40.71 230.26,-41.38 238.49,-42.05"/>
<polygon fill="#63b8ff" stroke="#63b8ff" points="214.2,-36.48 203.95,-39.16 213.63,-43.46 214.2,-36.48"/>
</g>
<!-- Node2 -->
<g id="node3" class="node">
<title>Node2</title>
<g id="a_node3"><a xlink:href="classmfem_1_1TMOP__QuadraticLimiter.html" target="_top" xlink:title="Default limiter function in TMOP_Integrator.">
<polygon fill="white" stroke="#666666" points="454.65,-22 244.94,-22 244.94,0 454.65,0 454.65,-22"/>
<text text-anchor="middle" x="349.8" y="-6.8" font-family="Helvetica,sans-Serif" font-size="14.00">mfem::TMOP_QuadraticLimiter</text>
</a>
</g>
</g>
<!-- Node0&#45;&gt;Node2 -->
<g id="edge2" class="edge">
<title>Node0&#45;&gt;Node2</title>
<path fill="none" stroke="#63b8ff" d="M213.62,-21.97C223.9,-21.14 234.3,-20.29 244.53,-19.46"/>
<polygon fill="#63b8ff" stroke="#63b8ff" points="213.63,-18.54 203.95,-22.84 214.2,-25.52 213.63,-18.54"/>
</g>
</g>
</svg>
