<?xml version="1.0" encoding="UTF-8" standalone="no"?>
<!DOCTYPE svg PUBLIC "-//W3C//DTD SVG 1.1//EN"
 "http://www.w3.org/Graphics/SVG/1.1/DTD/svg11.dtd">
<!-- Generated by graphviz version 12.0.0 (20240704.0754)
 -->
<!-- Title: Graphical Class Hierarchy Pages: 1 -->
<svg width="367pt" height="132pt"
 viewBox="0.00 0.00 367.00 132.00" xmlns="http://www.w3.org/2000/svg" xmlns:xlink="http://www.w3.org/1999/xlink">
<g id="graph0" class="graph" transform="scale(1 1) rotate(0) translate(4 128)">
<title>Graphical Class Hierarchy</title>
<!-- Node0 -->
<g id="Node000000" class="node">
<title>Node0</title>
<g id="a_Node000000"><a xlink:href="structmfem_1_1TVector.html" target="_top" xlink:title=" ">
<polygon fill="white" stroke="#666666" points="166.75,-80.5 0,-80.5 0,-42.5 166.75,-42.5 166.75,-80.5"/>
<text text-anchor="start" x="8" y="-63.2" font-family="Helvetica,sans-Serif" font-size="14.00">mfem::TVector&lt; N1 *N2</text>
<text text-anchor="middle" x="83.38" y="-48.2" font-family="Helvetica,sans-Serif" font-size="14.00"> *N3, vcomplex_t, align &gt;</text>
</a>
</g>
</g>
<!-- Node1 -->
<g id="Node000001" class="node">
<title>Node1</title>
<g id="a_Node000001"><a xlink:href="structmfem_1_1TTensor3.html" target="_top" xlink:title=" ">
<polygon fill="white" stroke="#666666" points="359,-124 202.75,-124 202.75,-71 359,-71 359,-124"/>
<text text-anchor="start" x="210.75" y="-106.7" font-family="Helvetica,sans-Serif" font-size="14.00">mfem::TTensor3&lt; dofs,</text>
<text text-anchor="start" x="210.75" y="-91.7" font-family="Helvetica,sans-Serif" font-size="14.00"> vdim, ne, vcomplex_t,</text>
<text text-anchor="middle" x="280.88" y="-76.7" font-family="Helvetica,sans-Serif" font-size="14.00"> true &gt;</text>
</a>
</g>
</g>
<!-- Node0&#45;&gt;Node1 -->
<g id="edge884_Node000000_Node000001" class="edge">
<title>Node0&#45;&gt;Node1</title>
<g id="a_edge884_Node000000_Node000001"><a xlink:title=" ">
<path fill="none" stroke="#63b8ff" d="M178.11,-78.76C186.29,-80.27 194.5,-81.78 202.52,-83.26"/>
<polygon fill="#63b8ff" stroke="#63b8ff" points="178.96,-75.36 168.49,-76.99 177.69,-82.24 178.96,-75.36"/>
</a>
</g>
</g>
<!-- Node2 -->
<g id="Node000002" class="node">
<title>Node2</title>
<g id="a_Node000002"><a xlink:href="structmfem_1_1TTensor3.html" target="_top" xlink:title=" ">
<polygon fill="white" stroke="#666666" points="359,-53 202.75,-53 202.75,0 359,0 359,-53"/>
<text text-anchor="start" x="210.75" y="-35.7" font-family="Helvetica,sans-Serif" font-size="14.00">mfem::TTensor3&lt; qpts,</text>
<text text-anchor="start" x="210.75" y="-20.7" font-family="Helvetica,sans-Serif" font-size="14.00"> vdim, ne, vcomplex_t,</text>
<text text-anchor="middle" x="280.88" y="-5.7" font-family="Helvetica,sans-Serif" font-size="14.00"> true &gt;</text>
</a>
</g>
</g>
<!-- Node0&#45;&gt;Node2 -->
<g id="edge885_Node000000_Node000002" class="edge">
<title>Node0&#45;&gt;Node2</title>
<g id="a_edge885_Node000000_Node000002"><a xlink:title=" ">
<path fill="none" stroke="#63b8ff" d="M178.11,-44.72C186.29,-43.26 194.5,-41.78 202.52,-40.35"/>
<polygon fill="#63b8ff" stroke="#63b8ff" points="177.72,-41.23 168.49,-46.44 178.95,-48.12 177.72,-41.23"/>
</a>
</g>
</g>
</g>
</svg>
