<?xml version="1.0" encoding="UTF-8" standalone="no"?>
<!DOCTYPE svg PUBLIC "-//W3C//DTD SVG 1.1//EN"
 "http://www.w3.org/Graphics/SVG/1.1/DTD/svg11.dtd">
<!-- Generated by graphviz version 8.0.5 (0)
 -->
<!-- Title: Graphical Class Hierarchy Pages: 1 -->
<svg width="760pt" height="110pt"
 viewBox="0.00 0.00 760.30 110.00" xmlns="http://www.w3.org/2000/svg" xmlns:xlink="http://www.w3.org/1999/xlink">
<g id="graph0" class="graph" transform="scale(1 1) rotate(0) translate(4 106)">
<title>Graphical Class Hierarchy</title>
<!-- Node0 -->
<g id="node1" class="node">
<title>Node0</title>
<g id="a_node1"><a xlink:href="classmfem_1_1StatelessDofTransformation.html" target="_top" xlink:title=" ">
<polygon fill="white" stroke="#666666" points="231.78,-62 0,-62 0,-40 231.78,-40 231.78,-62"/>
<text text-anchor="middle" x="115.89" y="-46.8" font-family="Helvetica,sans-Serif" font-size="14.00">mfem::StatelessDofTransformation</text>
</a>
</g>
</g>
<!-- Node1 -->
<g id="node2" class="node">
<title>Node1</title>
<g id="a_node2"><a xlink:href="classmfem_1_1ND__DofTransformation.html" target="_top" xlink:title=" ">
<polygon fill="white" stroke="#666666" points="469.99,-62 267.78,-62 267.78,-40 469.99,-40 469.99,-62"/>
<text text-anchor="middle" x="368.89" y="-46.8" font-family="Helvetica,sans-Serif" font-size="14.00">mfem::ND_DofTransformation</text>
</a>
</g>
</g>
<!-- Node0&#45;&gt;Node1 -->
<g id="edge1" class="edge">
<title>Node0&#45;&gt;Node1</title>
<path fill="none" stroke="#63b8ff" d="M242.96,-51C251.23,-51 259.5,-51 267.62,-51"/>
<polygon fill="#63b8ff" stroke="#63b8ff" points="243.1,-47.5 233.1,-51 243.1,-54.5 243.1,-47.5"/>
</g>
<!-- Node2 -->
<g id="node3" class="node">
<title>Node2</title>
<g id="a_node3"><a xlink:href="classmfem_1_1ND__TetDofTransformation.html" target="_top" xlink:title="DoF transformation implementation for the Nedelec basis on tetrahedra.">
<polygon fill="white" stroke="#666666" points="739.59,-102 518.71,-102 518.71,-80 739.59,-80 739.59,-102"/>
<text text-anchor="middle" x="629.15" y="-86.8" font-family="Helvetica,sans-Serif" font-size="14.00">mfem::ND_TetDofTransformation</text>
</a>
</g>
</g>
<!-- Node1&#45;&gt;Node2 -->
<g id="edge2" class="edge">
<title>Node1&#45;&gt;Node2</title>
<path fill="none" stroke="#63b8ff" d="M454.62,-64.12C486.75,-69.1 523.06,-74.72 554.13,-79.54"/>
<polygon fill="#63b8ff" stroke="#63b8ff" points="455.31,-60.53 444.89,-62.46 454.24,-67.45 455.31,-60.53"/>
</g>
<!-- Node3 -->
<g id="node4" class="node">
<title>Node3</title>
<g id="a_node4"><a xlink:href="classmfem_1_1ND__TriDofTransformation.html" target="_top" xlink:title=" ">
<polygon fill="white" stroke="#666666" points="738.15,-62 520.14,-62 520.14,-40 738.15,-40 738.15,-62"/>
<text text-anchor="middle" x="629.15" y="-46.8" font-family="Helvetica,sans-Serif" font-size="14.00">mfem::ND_TriDofTransformation</text>
</a>
</g>
</g>
<!-- Node1&#45;&gt;Node3 -->
<g id="edge3" class="edge">
<title>Node1&#45;&gt;Node3</title>
<path fill="none" stroke="#63b8ff" d="M481.15,-51C493.94,-51 506.96,-51 519.71,-51"/>
<polygon fill="#63b8ff" stroke="#63b8ff" points="481.47,-47.5 471.47,-51 481.47,-54.5 481.47,-47.5"/>
</g>
<!-- Node4 -->
<g id="node5" class="node">
<title>Node4</title>
<g id="a_node5"><a xlink:href="classmfem_1_1ND__WedgeDofTransformation.html" target="_top" xlink:title="DoF transformation implementation for the Nedelec basis on wedge elements.">
<polygon fill="white" stroke="#666666" points="752.3,-22 505.99,-22 505.99,0 752.3,0 752.3,-22"/>
<text text-anchor="middle" x="629.15" y="-6.8" font-family="Helvetica,sans-Serif" font-size="14.00">mfem::ND_WedgeDofTransformation</text>
</a>
</g>
</g>
<!-- Node1&#45;&gt;Node4 -->
<g id="edge4" class="edge">
<title>Node1&#45;&gt;Node4</title>
<path fill="none" stroke="#63b8ff" d="M454.62,-37.88C486.75,-32.9 523.06,-27.28 554.13,-22.46"/>
<polygon fill="#63b8ff" stroke="#63b8ff" points="454.24,-34.55 444.89,-39.54 455.31,-41.47 454.24,-34.55"/>
</g>
</g>
</svg>
