<?xml version="1.0" encoding="UTF-8" standalone="no"?>
<!DOCTYPE svg PUBLIC "-//W3C//DTD SVG 1.1//EN"
 "http://www.w3.org/Graphics/SVG/1.1/DTD/svg11.dtd">
<!-- Generated by graphviz version 12.0.0 (20240704.0754)
 -->
<!-- Title: mfem::spde::Boundary Pages: 1 -->
<svg width="416pt" height="105pt"
 viewBox="0.00 0.00 416.25 105.00" xmlns="http://www.w3.org/2000/svg" xmlns:xlink="http://www.w3.org/1999/xlink">
<g id="graph0" class="graph" transform="scale(1 1) rotate(0) translate(4 101)">
<title>mfem::spde::Boundary</title>
<!-- Node1 -->
<g id="Node000001" class="node">
<title>Node1</title>
<g id="a_Node000001"><a xlink:title=" ">
<polygon fill="#999999" stroke="#666666" points="273.62,-23 120.38,-23 120.38,0 273.62,0 273.62,-23"/>
<text text-anchor="middle" x="197" y="-5.7" font-family="Helvetica,sans-Serif" font-size="14.00">mfem::spde::Boundary</text>
</a>
</g>
</g>
<!-- Node2 -->
<g id="Node000002" class="node">
<title>Node2</title>
<g id="a_Node000002"><a xlink:title=" ">
<polygon fill="white" stroke="#666666" points="202,-97 0,-97 0,-74 202,-74 202,-97"/>
<text text-anchor="middle" x="101" y="-79.7" font-family="Helvetica,sans-Serif" font-size="14.00">std::map&lt; int, BoundaryType &gt;</text>
</a>
</g>
</g>
<!-- Node2&#45;&gt;Node1 -->
<g id="edge1_Node000001_Node000002" class="edge">
<title>Node2&#45;&gt;Node1</title>
<g id="a_edge1_Node000001_Node000002"><a xlink:title=" ">
<path fill="none" stroke="#9a32cd" stroke-dasharray="5,2" d="M119.67,-65.97C128.26,-57.88 138.79,-48.54 149,-41 157.73,-34.55 168.01,-28.29 176.81,-23.29"/>
<polygon fill="#9a32cd" stroke="#9a32cd" points="117.38,-63.31 112.61,-72.77 122.24,-68.36 117.38,-63.31"/>
</a>
</g>
<text text-anchor="middle" x="210.5" y="-42.7" font-family="Helvetica,sans-Serif" font-size="14.00" fill="grey"> boundary_attributes</text>
</g>
<!-- Node3 -->
<g id="Node000003" class="node">
<title>Node3</title>
<g id="a_Node000003"><a xlink:title=" ">
<polygon fill="white" stroke="#666666" points="368,-97 220,-97 220,-74 368,-74 368,-97"/>
<text text-anchor="middle" x="294" y="-79.7" font-family="Helvetica,sans-Serif" font-size="14.00">std::map&lt; int, real_t &gt;</text>
</a>
</g>
</g>
<!-- Node3&#45;&gt;Node1 -->
<g id="edge2_Node000001_Node000003" class="edge">
<title>Node3&#45;&gt;Node1</title>
<g id="a_edge2_Node000001_Node000003"><a xlink:title=" ">
<path fill="none" stroke="#9a32cd" stroke-dasharray="5,2" d="M286.94,-63.11C283.48,-55.3 278.59,-46.93 272,-41 263.41,-33.27 252.5,-27.55 241.69,-23.36"/>
<polygon fill="#9a32cd" stroke="#9a32cd" points="283.66,-64.32 290.5,-72.4 290.19,-61.81 283.66,-64.32"/>
</a>
</g>
<text text-anchor="middle" x="345.62" y="-42.7" font-family="Helvetica,sans-Serif" font-size="14.00" fill="grey"> dirichlet_coefficients</text>
</g>
</g>
</svg>
