<?xml version="1.0" encoding="UTF-8" standalone="no"?>
<!DOCTYPE svg PUBLIC "-//W3C//DTD SVG 1.1//EN"
 "http://www.w3.org/Graphics/SVG/1.1/DTD/svg11.dtd">
<!-- Generated by graphviz version 12.0.0 (20240704.0754)
 -->
<!-- Title: mfem::Mesh::FaceInformation Pages: 1 -->
<svg width="206pt" height="225pt"
 viewBox="0.00 0.00 206.25 225.00" xmlns="http://www.w3.org/2000/svg" xmlns:xlink="http://www.w3.org/1999/xlink">
<g id="graph0" class="graph" transform="scale(1 1) rotate(0) translate(4 221)">
<title>mfem::Mesh::FaceInformation</title>
<!-- Node1 -->
<g id="Node000001" class="node">
<title>Node1</title>
<g id="a_Node000001"><a xlink:title="This structure is used as a human readable output format that deciphers the information contained in ...">
<polygon fill="#999999" stroke="#666666" points="198.25,-23 0,-23 0,0 198.25,0 198.25,-23"/>
<text text-anchor="middle" x="99.12" y="-5.7" font-family="Helvetica,sans-Serif" font-size="14.00">mfem::Mesh::FaceInformation</text>
</a>
</g>
</g>
<!-- Node2 -->
<g id="Node000002" class="node">
<title>Node2</title>
<g id="a_Node000002"><a xlink:href="classmfem_1_1DenseMatrix.html" target="_top" xlink:title="Data type dense matrix using column&#45;major storage.">
<polygon fill="white" stroke="#666666" points="166.75,-97 31.5,-97 31.5,-74 166.75,-74 166.75,-97"/>
<text text-anchor="middle" x="99.12" y="-79.7" font-family="Helvetica,sans-Serif" font-size="14.00">mfem::DenseMatrix</text>
</a>
</g>
</g>
<!-- Node2&#45;&gt;Node1 -->
<g id="edge1_Node000001_Node000002" class="edge">
<title>Node2&#45;&gt;Node1</title>
<g id="a_edge1_Node000001_Node000002"><a xlink:title=" ">
<path fill="none" stroke="#9a32cd" stroke-dasharray="5,2" d="M99.12,-62.2C99.12,-49.17 99.12,-33.31 99.12,-23.07"/>
<polygon fill="#9a32cd" stroke="#9a32cd" points="95.63,-62.05 99.13,-72.05 102.63,-62.05 95.63,-62.05"/>
</a>
</g>
<text text-anchor="middle" x="138.12" y="-42.7" font-family="Helvetica,sans-Serif" font-size="14.00" fill="grey"> point_matrix</text>
</g>
<!-- Node3 -->
<g id="Node000003" class="node">
<title>Node3</title>
<g id="a_Node000003"><a xlink:href="classmfem_1_1Matrix.html" target="_top" xlink:title="Abstract data type matrix.">
<polygon fill="white" stroke="#666666" points="147.25,-157 51,-157 51,-134 147.25,-134 147.25,-157"/>
<text text-anchor="middle" x="99.12" y="-139.7" font-family="Helvetica,sans-Serif" font-size="14.00">mfem::Matrix</text>
</a>
</g>
</g>
<!-- Node3&#45;&gt;Node2 -->
<g id="edge2_Node000002_Node000003" class="edge">
<title>Node3&#45;&gt;Node2</title>
<g id="a_edge2_Node000002_Node000003"><a xlink:title=" ">
<path fill="none" stroke="#63b8ff" d="M99.12,-122.09C99.12,-113.6 99.12,-104.32 99.12,-97.36"/>
<polygon fill="#63b8ff" stroke="#63b8ff" points="95.63,-122.08 99.13,-132.08 102.63,-122.08 95.63,-122.08"/>
</a>
</g>
</g>
<!-- Node4 -->
<g id="Node000004" class="node">
<title>Node4</title>
<g id="a_Node000004"><a xlink:href="classmfem_1_1Operator.html" target="_top" xlink:title="Abstract operator.">
<polygon fill="white" stroke="#666666" points="155.5,-217 42.75,-217 42.75,-194 155.5,-194 155.5,-217"/>
<text text-anchor="middle" x="99.12" y="-199.7" font-family="Helvetica,sans-Serif" font-size="14.00">mfem::Operator</text>
</a>
</g>
</g>
<!-- Node4&#45;&gt;Node3 -->
<g id="edge3_Node000003_Node000004" class="edge">
<title>Node4&#45;&gt;Node3</title>
<g id="a_edge3_Node000003_Node000004"><a xlink:title=" ">
<path fill="none" stroke="#63b8ff" d="M99.12,-182.09C99.12,-173.6 99.12,-164.32 99.12,-157.36"/>
<polygon fill="#63b8ff" stroke="#63b8ff" points="95.63,-182.08 99.13,-192.08 102.63,-182.08 95.63,-182.08"/>
</a>
</g>
</g>
</g>
</svg>
