<?xml version="1.0" encoding="UTF-8" standalone="no"?>
<!DOCTYPE svg PUBLIC "-//W3C//DTD SVG 1.1//EN"
 "http://www.w3.org/Graphics/SVG/1.1/DTD/svg11.dtd">
<!-- Generated by graphviz version 12.0.0 (20240704.0754)
 -->
<!-- Title: mfem::blocksolvers::DFSData Pages: 1 -->
<svg width="948pt" height="249pt"
 viewBox="0.00 0.00 948.00 248.76" xmlns="http://www.w3.org/2000/svg" xmlns:xlink="http://www.w3.org/1999/xlink">
<g id="graph0" class="graph" transform="scale(1 1) rotate(0) translate(4 244.76)">
<title>mfem::blocksolvers::DFSData</title>
<!-- Node1 -->
<g id="Node000001" class="node">
<title>Node1</title>
<g id="a_Node000001"><a xlink:title="Data for the divergence free solver.">
<polygon fill="#999999" stroke="#666666" points="940,-115.76 807,-115.76 807,-77.76 940,-77.76 940,-115.76"/>
<text text-anchor="start" x="815" y="-98.46" font-family="Helvetica,sans-Serif" font-size="14.00">mfem::blocksolvers</text>
<text text-anchor="middle" x="873.5" y="-83.46" font-family="Helvetica,sans-Serif" font-size="14.00">::DFSData</text>
</a>
</g>
</g>
<!-- Node2 -->
<g id="Node000002" class="node">
<title>Node2</title>
<g id="a_Node000002"><a xlink:title=" ">
<polygon fill="white" stroke="#666666" points="630,-164.76 497,-164.76 497,-126.76 630,-126.76 630,-164.76"/>
<text text-anchor="start" x="505" y="-147.46" font-family="Helvetica,sans-Serif" font-size="14.00">std::vector&lt; mfem::</text>
<text text-anchor="middle" x="563.5" y="-132.46" font-family="Helvetica,sans-Serif" font-size="14.00">OperatorHandle &gt;</text>
</a>
</g>
</g>
<!-- Node2&#45;&gt;Node1 -->
<g id="edge1_Node000001_Node000002" class="edge">
<title>Node2&#45;&gt;Node1</title>
<g id="a_edge1_Node000001_Node000002"><a xlink:title=" ">
<path fill="none" stroke="#9a32cd" stroke-dasharray="5,2" d="M641.43,-137.24C684.9,-131.98 740.15,-124.57 789,-115.76 794.71,-114.74 800.61,-113.58 806.52,-112.36"/>
<polygon fill="#9a32cd" stroke="#9a32cd" points="641.09,-133.75 631.58,-138.41 641.92,-140.7 641.09,-133.75"/>
</a>
</g>
<text text-anchor="middle" x="718.5" y="-227.46" font-family="Helvetica,sans-Serif" font-size="14.00" fill="grey"> C</text>
<text text-anchor="middle" x="718.5" y="-212.46" font-family="Helvetica,sans-Serif" font-size="14.00" fill="grey">P_hcurl</text>
<text text-anchor="middle" x="718.5" y="-197.46" font-family="Helvetica,sans-Serif" font-size="14.00" fill="grey">P_hdiv</text>
<text text-anchor="middle" x="718.5" y="-182.46" font-family="Helvetica,sans-Serif" font-size="14.00" fill="grey">P_l2</text>
<text text-anchor="middle" x="718.5" y="-167.46" font-family="Helvetica,sans-Serif" font-size="14.00" fill="grey">Q_l2</text>
<text text-anchor="middle" x="718.5" y="-152.46" font-family="Helvetica,sans-Serif" font-size="14.00" fill="grey">agg_hdivdof</text>
<text text-anchor="middle" x="718.5" y="-137.46" font-family="Helvetica,sans-Serif" font-size="14.00" fill="grey">agg_l2dof</text>
</g>
<!-- Node3 -->
<g id="Node000003" class="node">
<title>Node3</title>
<g id="a_Node000003"><a xlink:href="classmfem_1_1OperatorHandle.html" target="_top" xlink:title="Pointer to an Operator of a specified type.">
<polygon fill="white" stroke="#666666" points="335,-157.26 179.5,-157.26 179.5,-134.26 335,-134.26 335,-157.26"/>
<text text-anchor="middle" x="257.25" y="-139.96" font-family="Helvetica,sans-Serif" font-size="14.00">mfem::OperatorHandle</text>
</a>
</g>
</g>
<!-- Node3&#45;&gt;Node2 -->
<g id="edge2_Node000002_Node000003" class="edge">
<title>Node3&#45;&gt;Node2</title>
<g id="a_edge2_Node000002_Node000003"><a xlink:title=" ">
<path fill="none" stroke="#9a32cd" stroke-dasharray="5,2" d="M346.71,-145.76C394.56,-145.76 452.65,-145.76 496.5,-145.76"/>
<polygon fill="#9a32cd" stroke="#9a32cd" points="346.93,-142.26 336.93,-145.76 346.93,-149.26 346.93,-142.26"/>
</a>
</g>
<text text-anchor="middle" x="416" y="-147.46" font-family="Helvetica,sans-Serif" font-size="14.00" fill="grey"> elements</text>
</g>
<!-- Node4 -->
<g id="Node000004" class="node">
<title>Node4</title>
<g id="a_Node000004"><a xlink:href="classmfem_1_1Operator.html" target="_top" xlink:title="Abstract operator.">
<polygon fill="white" stroke="#666666" points="112.75,-157.26 0,-157.26 0,-134.26 112.75,-134.26 112.75,-157.26"/>
<text text-anchor="middle" x="56.38" y="-139.96" font-family="Helvetica,sans-Serif" font-size="14.00">mfem::Operator</text>
</a>
</g>
</g>
<!-- Node4&#45;&gt;Node3 -->
<g id="edge3_Node000003_Node000004" class="edge">
<title>Node4&#45;&gt;Node3</title>
<g id="a_edge3_Node000003_Node000004"><a xlink:title=" ">
<path fill="none" stroke="#9a32cd" stroke-dasharray="5,2" d="M124.34,-145.76C141.9,-145.76 160.99,-145.76 179.04,-145.76"/>
<polygon fill="#9a32cd" stroke="#9a32cd" points="124.55,-142.26 114.55,-145.76 124.55,-149.26 124.55,-142.26"/>
</a>
</g>
<text text-anchor="middle" x="146.12" y="-147.46" font-family="Helvetica,sans-Serif" font-size="14.00" fill="grey"> oper</text>
</g>
<!-- Node5 -->
<g id="Node000005" class="node">
<title>Node5</title>
<g id="a_Node000005"><a xlink:href="classmfem_1_1Array.html" target="_top" xlink:title=" ">
<polygon fill="white" stroke="#666666" points="628.12,-108.26 498.88,-108.26 498.88,-85.26 628.12,-85.26 628.12,-108.26"/>
<text text-anchor="middle" x="563.5" y="-90.96" font-family="Helvetica,sans-Serif" font-size="14.00">mfem::Array&lt; int &gt;</text>
</a>
</g>
</g>
<!-- Node5&#45;&gt;Node1 -->
<g id="edge4_Node000001_Node000005" class="edge">
<title>Node5&#45;&gt;Node1</title>
<g id="a_edge4_Node000001_Node000005"><a xlink:title=" ">
<path fill="none" stroke="#9a32cd" stroke-dasharray="5,2" d="M639.62,-96.76C690.7,-96.76 757.64,-96.76 806.64,-96.76"/>
<polygon fill="#9a32cd" stroke="#9a32cd" points="639.83,-93.26 629.83,-96.76 639.83,-100.26 639.83,-93.26"/>
</a>
</g>
<text text-anchor="middle" x="718.5" y="-98.46" font-family="Helvetica,sans-Serif" font-size="14.00" fill="grey"> coarsest_ess_hdivdofs</text>
</g>
<!-- Node6 -->
<g id="Node000006" class="node">
<title>Node6</title>
<g id="a_Node000006"><a xlink:href="classmfem_1_1Memory.html" target="_top" xlink:title=" ">
<polygon fill="white" stroke="#666666" points="330.88,-108.26 183.62,-108.26 183.62,-85.26 330.88,-85.26 330.88,-108.26"/>
<text text-anchor="middle" x="257.25" y="-90.96" font-family="Helvetica,sans-Serif" font-size="14.00">mfem::Memory&lt; int &gt;</text>
</a>
</g>
</g>
<!-- Node6&#45;&gt;Node5 -->
<g id="edge5_Node000005_Node000006" class="edge">
<title>Node6&#45;&gt;Node5</title>
<g id="a_edge5_Node000005_Node000006"><a xlink:title=" ">
<path fill="none" stroke="#9a32cd" stroke-dasharray="5,2" d="M342.42,-96.76C391.76,-96.76 453.1,-96.76 498.48,-96.76"/>
<polygon fill="#9a32cd" stroke="#9a32cd" points="342.64,-93.26 332.64,-96.76 342.64,-100.26 342.64,-93.26"/>
</a>
</g>
<text text-anchor="middle" x="416" y="-98.46" font-family="Helvetica,sans-Serif" font-size="14.00" fill="grey"> data</text>
</g>
<!-- Node7 -->
<g id="Node000007" class="node">
<title>Node7</title>
<g id="a_Node000007"><a xlink:href="structmfem_1_1blocksolvers_1_1DFSParameters.html" target="_top" xlink:title="Parameters for the divergence free solver.">
<polygon fill="white" stroke="#666666" points="630,-66.76 497,-66.76 497,-28.76 630,-28.76 630,-66.76"/>
<text text-anchor="start" x="505" y="-49.46" font-family="Helvetica,sans-Serif" font-size="14.00">mfem::blocksolvers</text>
<text text-anchor="middle" x="563.5" y="-34.46" font-family="Helvetica,sans-Serif" font-size="14.00">::DFSParameters</text>
</a>
</g>
</g>
<!-- Node7&#45;&gt;Node1 -->
<g id="edge6_Node000001_Node000007" class="edge">
<title>Node7&#45;&gt;Node1</title>
<g id="a_edge6_Node000001_Node000007"><a xlink:title=" ">
<path fill="none" stroke="#9a32cd" stroke-dasharray="5,2" d="M641.43,-56.29C684.9,-61.55 740.15,-68.96 789,-77.76 794.71,-78.79 800.61,-79.95 806.52,-81.17"/>
<polygon fill="#9a32cd" stroke="#9a32cd" points="641.92,-52.82 631.58,-55.11 641.09,-59.77 641.92,-52.82"/>
</a>
</g>
<text text-anchor="middle" x="718.5" y="-79.46" font-family="Helvetica,sans-Serif" font-size="14.00" fill="grey"> param</text>
</g>
<!-- Node8 -->
<g id="Node000008" class="node">
<title>Node8</title>
<g id="a_Node000008"><a xlink:href="structmfem_1_1blocksolvers_1_1IterSolveParameters.html" target="_top" xlink:title=" ">
<polygon fill="white" stroke="#666666" points="330.88,-52.76 183.62,-52.76 183.62,-14.76 330.88,-14.76 330.88,-52.76"/>
<text text-anchor="start" x="191.62" y="-35.46" font-family="Helvetica,sans-Serif" font-size="14.00">mfem::blocksolvers</text>
<text text-anchor="middle" x="257.25" y="-20.46" font-family="Helvetica,sans-Serif" font-size="14.00">::IterSolveParameters</text>
</a>
</g>
</g>
<!-- Node8&#45;&gt;Node7 -->
<g id="edge7_Node000007_Node000008" class="edge">
<title>Node8&#45;&gt;Node7</title>
<g id="a_edge7_Node000007_Node000008"><a xlink:title=" ">
<path fill="none" stroke="#63b8ff" d="M342.53,-41.12C346.07,-41.35 349.57,-41.57 353,-41.76 401.14,-44.48 455.57,-45.99 496.88,-46.82"/>
<polygon fill="#63b8ff" stroke="#63b8ff" points="342.89,-37.64 332.67,-40.44 342.4,-44.62 342.89,-37.64"/>
</a>
</g>
</g>
<!-- Node8&#45;&gt;Node7 -->
<g id="edge8_Node000007_Node000008" class="edge">
<title>Node8&#45;&gt;Node7</title>
<g id="a_edge8_Node000007_Node000008"><a xlink:title=" ">
<path fill="none" stroke="#9a32cd" stroke-dasharray="5,2" d="M331.04,-11.69C338.4,-10.09 345.82,-8.73 353,-7.76 408.5,-0.29 424.39,4.64 479,-7.76 497.03,-11.86 515.71,-20.35 530.82,-28.45"/>
<polygon fill="#9a32cd" stroke="#9a32cd" points="330.36,-8.26 321.41,-13.94 331.95,-15.08 330.36,-8.26"/>
</a>
</g>
<text text-anchor="middle" x="416" y="-24.46" font-family="Helvetica,sans-Serif" font-size="14.00" fill="grey"> BBT_solve_param</text>
<text text-anchor="middle" x="416" y="-9.46" font-family="Helvetica,sans-Serif" font-size="14.00" fill="grey">coarse_solve_param</text>
</g>
</g>
</svg>
