<?xml version="1.0" encoding="UTF-8" standalone="no"?>
<!DOCTYPE svg PUBLIC "-//W3C//DTD SVG 1.1//EN"
 "http://www.w3.org/Graphics/SVG/1.1/DTD/svg11.dtd">
<!-- Generated by graphviz version 12.0.0 (20240704.0754)
 -->
<!-- Title: mfem::FieldEvaluator&lt; FESpace_t, VecLayout_t, IR, complex_t, real_t &gt;::AData&lt; 1, it_t &gt; Pages: 1 -->
<!--zoomable 169 -->

<svg id="main" version="1.1" xmlns="http://www.w3.org/2000/svg" xmlns:xlink="http://www.w3.org/1999/xlink" xml:space="preserve" onload="init(evt)">
<style type="text/css"><![CDATA[
.node, .edge {opacity: 0.7;}
.node.selected, .edge.selected {opacity: 1;}
.edge:hover path { stroke: red; }
.edge:hover polygon { stroke: red; fill: red; }
]]></style>

<defs>
  <circle id="rim" cx="0" cy="0" r="7"/>
  <circle id="rim2" cx="0" cy="0" r="3.5"/>
  <g id="zoomPlus">
    <use xlink:href="#rim" fill="#404040"><set attributeName="fill" to="#808080" begin="zoomplus.mouseover" end="zoomplus.mouseout"/></use>
    <path d="M-4,0h8M0,-4v8" fill="none" stroke="white" stroke-width="1.5" pointer-events="none"/>
  </g>
  <g id="zoomMin">
    <use xlink:href="#rim" fill="#404040"><set attributeName="fill" to="#808080" begin="zoomminus.mouseover" end="zoomminus.mouseout"/></use>
    <path d="M-4,0h8" fill="none" stroke="white" stroke-width="1.5" pointer-events="none"/>
  </g>
  <g id="arrowUp" transform="translate(30 24)">
    <use xlink:href="#rim"/>
    <path pointer-events="none" fill="none" stroke="white" stroke-width="1.5" d="M0,-3.0v7 M-2.5,-0.5L0,-3.0L2.5,-0.5"/>
  </g>
  <g id="arrowRight" transform="rotate(90) translate(36 -43)">
    <use xlink:href="#rim"/>
    <path pointer-events="none" fill="none" stroke="white" stroke-width="1.5" d="M0,-3.0v7 M-2.5,-0.5L0,-3.0L2.5,-0.5"/>
  </g>
  <g id="arrowDown" transform="rotate(180) translate(-30 -48)">
    <use xlink:href="#rim"/>
    <path pointer-events="none" fill="none" stroke="white" stroke-width="1.5" d="M0,-3.0v7 M-2.5,-0.5L0,-3.0L2.5,-0.5"/>
  </g>
  <g id="arrowLeft" transform="rotate(270) translate(-36 17)">
    <use xlink:href="#rim"/>
    <path pointer-events="none" fill="none" stroke="white" stroke-width="1.5" d="M0,-3.0v7 M-2.5,-0.5L0,-3.0L2.5,-0.5"/>
  </g>
  <g id="resetDef">
    <use xlink:href="#rim2" fill="#404040"><set attributeName="fill" to="#808080" begin="reset.mouseover" end="reset.mouseout"/></use>
  </g>
</defs>
<script type="application/ecmascript">
var viewWidth = 923;
var viewHeight = 169;
var sectionId = 'dynsection-0';
</script>
<script type="application/ecmascript" xlink:href="svg.min.js"/>
<svg id="graph" class="graph">
<g id="viewport">
<title>mfem::FieldEvaluator&lt; FESpace_t, VecLayout_t, IR, complex_t, real_t &gt;::AData&lt; 1, it_t &gt;</title>
<!-- Node1 -->
<g id="Node000001" class="node">
<title>Node1</title>
<g id="a_Node000001"><a xlink:title=" ">
<polygon fill="#999999" stroke="#666666" points="915.25,-100.5 749.25,-100.5 749.25,-32.5 915.25,-32.5 915.25,-100.5"/>
<text text-anchor="start" x="757.25" y="-83.2" font-family="Helvetica,sans-Serif" font-size="14.00">mfem::FieldEvaluator</text>
<text text-anchor="start" x="757.25" y="-68.2" font-family="Helvetica,sans-Serif" font-size="14.00">&lt; FESpace_t, VecLayout</text>
<text text-anchor="start" x="757.25" y="-53.2" font-family="Helvetica,sans-Serif" font-size="14.00">_t, IR, complex_t, real</text>
<text text-anchor="middle" x="832.25" y="-38.2" font-family="Helvetica,sans-Serif" font-size="14.00">_t &gt;::AData&lt; 1, it_t &gt;</text>
</a>
</g>
</g>
<!-- Node2 -->
<g id="Node000002" class="node">
<title>Node2</title>
<g id="a_Node000002"><a xlink:href="structmfem_1_1TTensor3.html" target="_top" xlink:title=" ">
<polygon fill="white" stroke="#666666" points="657.38,-61 501.12,-61 501.12,-8 657.38,-8 657.38,-61"/>
<text text-anchor="start" x="509.12" y="-43.7" font-family="Helvetica,sans-Serif" font-size="14.00">mfem::TTensor3&lt; dofs,</text>
<text text-anchor="start" x="509.12" y="-28.7" font-family="Helvetica,sans-Serif" font-size="14.00"> vdim, ne, vcomplex_t,</text>
<text text-anchor="middle" x="579.25" y="-13.7" font-family="Helvetica,sans-Serif" font-size="14.00"> true &gt;</text>
</a>
</g>
</g>
<!-- Node2&#45;&gt;Node1 -->
<g id="edge1_Node000001_Node000002" class="edge">
<title>Node2&#45;&gt;Node1</title>
<g id="a_edge1_Node000001_Node000002"><a xlink:title=" ">
<path fill="none" stroke="#9a32cd" stroke-dasharray="5,2" d="M668.99,-45.81C695,-49.13 723.33,-52.74 748.93,-56"/>
<polygon fill="#9a32cd" stroke="#9a32cd" points="669.47,-42.35 659.11,-44.55 668.58,-49.29 669.47,-42.35"/>
</a>
</g>
<text text-anchor="middle" x="704.25" y="-54.2" font-family="Helvetica,sans-Serif" font-size="14.00" fill="grey"> val_dofs</text>
</g>
<!-- Node3 -->
<g id="Node000003" class="node">
<title>Node3</title>
<g id="a_Node000003"><a xlink:href="structmfem_1_1TVector.html" target="_top" xlink:title=" ">
<polygon fill="white" stroke="#666666" points="412.62,-104.5 245.88,-104.5 245.88,-66.5 412.62,-66.5 412.62,-104.5"/>
<text text-anchor="start" x="253.88" y="-87.2" font-family="Helvetica,sans-Serif" font-size="14.00">mfem::TVector&lt; N1 *N2</text>
<text text-anchor="middle" x="329.25" y="-72.2" font-family="Helvetica,sans-Serif" font-size="14.00"> *N3, vcomplex_t, align &gt;</text>
</a>
</g>
</g>
<!-- Node3&#45;&gt;Node2 -->
<g id="edge2_Node000002_Node000003" class="edge">
<title>Node3&#45;&gt;Node2</title>
<g id="a_edge2_Node000002_Node000003"><a xlink:title=" ">
<path fill="none" stroke="#63b8ff" d="M424.28,-83.3C443.31,-81.56 463.05,-78.8 481.25,-74.5 494.63,-71.34 508.56,-66.56 521.55,-61.4"/>
<polygon fill="#63b8ff" stroke="#63b8ff" points="424.05,-79.81 414.37,-84.11 424.63,-86.78 424.05,-79.81"/>
</a>
</g>
</g>
<!-- Node4 -->
<g id="Node000004" class="node">
<title>Node4</title>
<g id="a_Node000004"><a xlink:href="structmfem_1_1StridedLayout1D.html" target="_top" xlink:title=" ">
<polygon fill="white" stroke="#666666" points="159.25,-124.5 0,-124.5 0,-86.5 159.25,-86.5 159.25,-124.5"/>
<text text-anchor="start" x="8" y="-107.2" font-family="Helvetica,sans-Serif" font-size="14.00">mfem::StridedLayout1D</text>
<text text-anchor="middle" x="79.62" y="-92.2" font-family="Helvetica,sans-Serif" font-size="14.00">&lt; N1, S1 &gt;</text>
</a>
</g>
</g>
<!-- Node4&#45;&gt;Node3 -->
<g id="edge3_Node000003_Node000004" class="edge">
<title>Node4&#45;&gt;Node3</title>
<g id="a_edge3_Node000003_Node000004"><a xlink:title=" ">
<path fill="none" stroke="#9a32cd" stroke-dasharray="5,2" d="M171.09,-98.19C195.49,-96.22 221.76,-94.1 245.71,-92.17"/>
<polygon fill="#9a32cd" stroke="#9a32cd" points="170.85,-94.7 161.16,-99 171.41,-101.68 170.85,-94.7"/>
</a>
</g>
<text text-anchor="middle" x="197.12" y="-98.2" font-family="Helvetica,sans-Serif" font-size="14.00" fill="grey"> layout</text>
</g>
<!-- Node8 -->
<g id="Node000008" class="node">
<title>Node8</title>
<g id="a_Node000008"><a xlink:href="structmfem_1_1TVector.html" target="_top" xlink:title=" ">
<polygon fill="white" stroke="#666666" points="412.62,-160.5 245.88,-160.5 245.88,-122.5 412.62,-122.5 412.62,-160.5"/>
<text text-anchor="start" x="253.88" y="-143.2" font-family="Helvetica,sans-Serif" font-size="14.00">mfem::TVector&lt; N1 *N2</text>
<text text-anchor="middle" x="329.25" y="-128.2" font-family="Helvetica,sans-Serif" font-size="14.00"> *N3, vcomplex_t, false &gt;</text>
</a>
</g>
</g>
<!-- Node4&#45;&gt;Node8 -->
<g id="edge8_Node000008_Node000004" class="edge">
<title>Node4&#45;&gt;Node8</title>
<g id="a_edge8_Node000008_Node000004"><a xlink:title=" ">
<path fill="none" stroke="#9a32cd" stroke-dasharray="5,2" d="M170.76,-118.6C195.26,-122.17 221.65,-126 245.71,-129.5"/>
<polygon fill="#9a32cd" stroke="#9a32cd" points="171.55,-115.18 161.15,-117.21 170.55,-122.11 171.55,-115.18"/>
</a>
</g>
<text text-anchor="middle" x="197.12" y="-126.2" font-family="Helvetica,sans-Serif" font-size="14.00" fill="grey"> layout</text>
</g>
<!-- Node5 -->
<g id="Node000005" class="node">
<title>Node5</title>
<g id="a_Node000005"><a xlink:href="structmfem_1_1ColumnMajorLayout3D.html" target="_top" xlink:title=" ">
<polygon fill="white" stroke="#666666" points="423.5,-45.5 235,-45.5 235,-7.5 423.5,-7.5 423.5,-45.5"/>
<text text-anchor="start" x="243" y="-28.2" font-family="Helvetica,sans-Serif" font-size="14.00">mfem::ColumnMajorLayout3</text>
<text text-anchor="middle" x="329.25" y="-13.2" font-family="Helvetica,sans-Serif" font-size="14.00">D&lt; N1, N2, N3 &gt;</text>
</a>
</g>
</g>
<!-- Node5&#45;&gt;Node2 -->
<g id="edge4_Node000002_Node000005" class="edge">
<title>Node5&#45;&gt;Node2</title>
<g id="a_edge4_Node000002_Node000005"><a xlink:title=" ">
<path fill="none" stroke="#9a32cd" stroke-dasharray="5,2" d="M434.97,-20.33C450.5,-20.2 466.3,-20.5 481.25,-21.5 487.61,-21.92 494.18,-22.5 500.78,-23.18"/>
<polygon fill="#9a32cd" stroke="#9a32cd" points="435.2,-16.83 425.25,-20.48 435.3,-23.83 435.2,-16.83"/>
</a>
</g>
<text text-anchor="middle" x="461.38" y="-23.2" font-family="Helvetica,sans-Serif" font-size="14.00" fill="grey"> layout</text>
</g>
<!-- Node7 -->
<g id="Node000007" class="node">
<title>Node7</title>
<g id="a_Node000007"><a xlink:href="structmfem_1_1TTensor3.html" target="_top" xlink:title=" ">
<polygon fill="white" stroke="#666666" points="659.25,-117.5 499.25,-117.5 499.25,-79.5 659.25,-79.5 659.25,-117.5"/>
<text text-anchor="start" x="507.25" y="-100.2" font-family="Helvetica,sans-Serif" font-size="14.00">mfem::TTensor3&lt; qpts,</text>
<text text-anchor="middle" x="579.25" y="-85.2" font-family="Helvetica,sans-Serif" font-size="14.00"> vdim, ne, vcomplex_t &gt;</text>
</a>
</g>
</g>
<!-- Node5&#45;&gt;Node7 -->
<g id="edge9_Node000007_Node000005" class="edge">
<title>Node5&#45;&gt;Node7</title>
<g id="a_edge9_Node000007_Node000005"><a xlink:title=" ">
<path fill="none" stroke="#9a32cd" stroke-dasharray="5,2" d="M408.34,-49.17C441.33,-58.75 479.37,-69.79 511.08,-79"/>
<polygon fill="#9a32cd" stroke="#9a32cd" points="409.4,-45.83 398.82,-46.41 407.44,-52.56 409.4,-45.83"/>
</a>
</g>
<text text-anchor="middle" x="461.38" y="-70.2" font-family="Helvetica,sans-Serif" font-size="14.00" fill="grey"> layout</text>
</g>
<!-- Node6 -->
<g id="Node000006" class="node">
<title>Node6</title>
<g id="a_Node000006"><a xlink:href="structmfem_1_1StridedLayout3D.html" target="_top" xlink:title=" ">
<polygon fill="white" stroke="#666666" points="159.25,-53 0,-53 0,0 159.25,0 159.25,-53"/>
<text text-anchor="start" x="8" y="-35.7" font-family="Helvetica,sans-Serif" font-size="14.00">mfem::StridedLayout3D</text>
<text text-anchor="start" x="8" y="-20.7" font-family="Helvetica,sans-Serif" font-size="14.00">&lt; N1, 1, N2, N1, N3,</text>
<text text-anchor="middle" x="79.62" y="-5.7" font-family="Helvetica,sans-Serif" font-size="14.00"> N1 *N2 &gt;</text>
</a>
</g>
</g>
<!-- Node6&#45;&gt;Node5 -->
<g id="edge5_Node000005_Node000006" class="edge">
<title>Node6&#45;&gt;Node5</title>
<g id="a_edge5_Node000005_Node000006"><a xlink:title=" ">
<path fill="none" stroke="#63b8ff" d="M171.04,-26.5C191.81,-26.5 213.94,-26.5 234.84,-26.5"/>
<polygon fill="#63b8ff" stroke="#63b8ff" points="171.17,-23 161.17,-26.5 171.17,-30 171.17,-23"/>
</a>
</g>
</g>
<!-- Node7&#45;&gt;Node1 -->
<g id="edge6_Node000001_Node000007" class="edge">
<title>Node7&#45;&gt;Node1</title>
<g id="a_edge6_Node000001_Node000007"><a xlink:title=" ">
<path fill="none" stroke="#9a32cd" stroke-dasharray="5,2" d="M670.83,-86.95C696.33,-83.7 723.91,-80.19 748.89,-77"/>
<polygon fill="#9a32cd" stroke="#9a32cd" points="670.65,-83.45 661.17,-88.18 671.53,-90.39 670.65,-83.45"/>
</a>
</g>
<text text-anchor="middle" x="704.25" y="-86.2" font-family="Helvetica,sans-Serif" font-size="14.00" fill="grey"> val_qpts</text>
</g>
<!-- Node8&#45;&gt;Node7 -->
<g id="edge7_Node000007_Node000008" class="edge">
<title>Node8&#45;&gt;Node7</title>
<g id="a_edge7_Node000007_Node000008"><a xlink:title=" ">
<path fill="none" stroke="#63b8ff" d="M424.04,-125.24C448.73,-120.96 475.13,-116.38 498.97,-112.25"/>
<polygon fill="#63b8ff" stroke="#63b8ff" points="423.58,-121.77 414.32,-126.92 424.77,-128.66 423.58,-121.77"/>
</a>
</g>
</g>
</g>
</svg>

<g id="navigator" transform="translate(0 0)" fill="#404254">
  <rect fill="#f2f5e9" fill-opacity="0.5" stroke="#606060" stroke-width=".5" x="0" y="0" width="60" height="60"/>
  <use id="zoomplus" xlink:href="#zoomPlus" x="17" y="9" onmousedown="handleZoom(evt,'in')"/>
  <use id="zoomminus" xlink:href="#zoomMin" x="42" y="9" onmousedown="handleZoom(evt,'out')"/>
  <use id="reset" xlink:href="#resetDef" x="30" y="36" onmousedown="handleReset()"/>
   <use id="arrowup" xlink:href="#arrowUp" x="0" y="0" onmousedown="handlePan(0,-1)"/>
  <use id="arrowright" xlink:href="#arrowRight" x="0" y="0" onmousedown="handlePan(1,0)"/>
  <use id="arrowdown" xlink:href="#arrowDown" x="0" y="0" onmousedown="handlePan(0,1)"/>
  <use id="arrowleft" xlink:href="#arrowLeft" x="0" y="0" onmousedown="handlePan(-1,0)"/>
</g>
<svg viewBox="0 0 15 15" width="100%" height="30px" preserveAspectRatio="xMaxYMin meet">
 <g id="arrow_out" transform="scale(0.3 0.3)">
  <a xlink:href="structmfem_1_1FieldEvaluator_1_1AData_3_011_00_01it__t_01_4__coll__graph_org.svg" target="_base">
   <rect id="button" ry="5" rx="5" y="6" x="6" height="38" width="38"
        fill="#f2f5e9" fill-opacity="0.5" stroke="#606060" stroke-width="1.0"/>
   <path id="arrow"
     d="M 11.500037,31.436501 C 11.940474,20.09759 22.043105,11.32322 32.158766,21.979434 L 37.068811,17.246167 C 37.068811,17.246167 37.088388,32 37.088388,32 L 22.160133,31.978069 C 22.160133,31.978069 26.997745,27.140456 26.997745,27.140456 C 18.528582,18.264221 13.291696,25.230495 11.500037,31.436501 z"
     style="fill:#404040;"/>
  </a>
 </g>
</svg>

<style type='text/css'>
<![CDATA[
[data-mouse-over-selected='false'] { opacity: 0.7; }
[data-mouse-over-selected='true']  { opacity: 1.0; }
]]>
</style>
<script type="application/ecmascript"><![CDATA[
document.addEventListener('DOMContentLoaded', (event) => {
  highlightEdges();
  highlightAdjacentNodes();
});
]]></script>
</svg>
