<?xml version="1.0" encoding="UTF-8" standalone="no"?>
<!DOCTYPE svg PUBLIC "-//W3C//DTD SVG 1.1//EN"
 "http://www.w3.org/Graphics/SVG/1.1/DTD/svg11.dtd">
<!-- Generated by graphviz version 2.30.1 (20200304.1809)
 -->
<!-- Title: mfem::PetscODESolver Pages: 1 -->
<svg width="670pt" height="246pt"
 viewBox="0.00 0.00 670.00 246.00" xmlns="http://www.w3.org/2000/svg" xmlns:xlink="http://www.w3.org/1999/xlink">
<g id="graph0" class="graph" transform="scale(1 1) rotate(0) translate(4 242)">
<title>mfem::PetscODESolver</title>
<polygon fill="white" stroke="white" points="-4,5 -4,-242 667,-242 667,5 -4,5"/>
<!-- Node1 -->
<g id="node1" class="node"><title>Node1</title>
<polygon fill="#bfbfbf" stroke="black" points="328,-0.5 328,-23.5 510,-23.5 510,-0.5 328,-0.5"/>
<text text-anchor="middle" x="419" y="-8.3" font-family="Helvetica,sans-Serif" font-size="14.00">mfem::PetscODESolver</text>
</g>
<!-- Node2 -->
<g id="node2" class="node"><title>Node2</title>
<g id="a_node2"><a xlink:href="classmfem_1_1PetscSolver.html" target="_top" xlink:title="Abstract class for PETSc&#39;s solvers. ">
<polygon fill="white" stroke="black" points="234,-62.5 234,-85.5 384,-85.5 384,-62.5 234,-62.5"/>
<text text-anchor="middle" x="309" y="-70.3" font-family="Helvetica,sans-Serif" font-size="14.00">mfem::PetscSolver</text>
</a>
</g>
</g>
<!-- Node2&#45;&gt;Node1 -->
<g id="edge1" class="edge"><title>Node2&#45;&gt;Node1</title>
<path fill="none" stroke="midnightblue" d="M337.434,-57.4906C356.89,-46.8783 382.183,-33.082 399.411,-23.6846"/>
<polygon fill="midnightblue" stroke="midnightblue" points="335.516,-54.5501 328.413,-62.4113 338.868,-60.6954 335.516,-54.5501"/>
</g>
<!-- Node3 -->
<g id="node3" class="node"><title>Node3</title>
<g id="a_node3"><a xlink:href="classmfem_1_1PetscSolverMonitor.html" target="_top" xlink:title="Abstract class for monitoring PETSc&#39;s solvers. ">
<polygon fill="white" stroke="black" points="0,-152.5 0,-175.5 204,-175.5 204,-152.5 0,-152.5"/>
<text text-anchor="middle" x="102" y="-160.3" font-family="Helvetica,sans-Serif" font-size="14.00">mfem::PetscSolverMonitor</text>
</a>
</g>
</g>
<!-- Node3&#45;&gt;Node2 -->
<g id="edge2" class="edge"><title>Node3&#45;&gt;Node2</title>
<path fill="none" stroke="#9a32cd" stroke-dasharray="5,2" d="M128.851,-147.204C151.339,-134.412 184.555,-116.522 215,-104 232.374,-96.8539 252.173,-90.4947 269.104,-85.5655"/>
<polygon fill="#9a32cd" stroke="#9a32cd" points="126.835,-144.326 119.909,-152.344 130.323,-150.395 126.835,-144.326"/>
<text text-anchor="middle" x="260" y="-115.3" font-family="Helvetica,sans-Serif" font-size="14.00"> monitor_ctx</text>
</g>
<!-- Node4 -->
<g id="node4" class="node"><title>Node4</title>
<g id="a_node4"><a xlink:href="classmfem_1_1PetscParVector.html" target="_top" xlink:title="Wrapper for PETSc&#39;s vector class. ">
<polygon fill="white" stroke="black" points="222.5,-152.5 222.5,-175.5 395.5,-175.5 395.5,-152.5 222.5,-152.5"/>
<text text-anchor="middle" x="309" y="-160.3" font-family="Helvetica,sans-Serif" font-size="14.00">mfem::PetscParVector</text>
</a>
</g>
</g>
<!-- Node4&#45;&gt;Node2 -->
<g id="edge3" class="edge"><title>Node4&#45;&gt;Node2</title>
<path fill="none" stroke="#9a32cd" stroke-dasharray="5,2" d="M309,-141.964C309,-124.202 309,-99.5043 309,-85.6039"/>
<polygon fill="#9a32cd" stroke="#9a32cd" points="305.5,-142.209 309,-152.209 312.5,-142.21 305.5,-142.209"/>
<text text-anchor="middle" x="316.5" y="-122.8" font-family="Helvetica,sans-Serif" font-size="14.00"> X</text>
<text text-anchor="middle" x="316.5" y="-107.8" font-family="Helvetica,sans-Serif" font-size="14.00">B</text>
</g>
<!-- Node5 -->
<g id="node5" class="node"><title>Node5</title>
<g id="a_node5"><a xlink:href="classmfem_1_1Vector.html" target="_top" xlink:title="Vector data type. ">
<polygon fill="white" stroke="black" points="252,-214.5 252,-237.5 366,-237.5 366,-214.5 252,-214.5"/>
<text text-anchor="middle" x="309" y="-222.3" font-family="Helvetica,sans-Serif" font-size="14.00">mfem::Vector</text>
</a>
</g>
</g>
<!-- Node5&#45;&gt;Node4 -->
<g id="edge4" class="edge"><title>Node5&#45;&gt;Node4</title>
<path fill="none" stroke="midnightblue" d="M309,-204.231C309,-194.592 309,-183.544 309,-175.634"/>
<polygon fill="midnightblue" stroke="midnightblue" points="305.5,-204.273 309,-214.273 312.5,-204.273 305.5,-204.273"/>
</g>
<!-- Node6 -->
<g id="node6" class="node"><title>Node6</title>
<g id="a_node6"><a xlink:href="classmfem_1_1ODESolver.html" target="_top" xlink:title="Abstract class for solving systems of ODEs: dx/dt = f(x,t) ">
<polygon fill="white" stroke="black" points="418.5,-62.5 418.5,-85.5 563.5,-85.5 563.5,-62.5 418.5,-62.5"/>
<text text-anchor="middle" x="491" y="-70.3" font-family="Helvetica,sans-Serif" font-size="14.00">mfem::ODESolver</text>
</a>
</g>
</g>
<!-- Node6&#45;&gt;Node1 -->
<g id="edge5" class="edge"><title>Node6&#45;&gt;Node1</title>
<path fill="none" stroke="midnightblue" d="M470.102,-55.5849C457.699,-45.2495 442.376,-32.48 431.761,-23.6339"/>
<polygon fill="midnightblue" stroke="midnightblue" points="468.205,-58.5601 478.128,-62.2732 472.686,-53.1825 468.205,-58.5601"/>
</g>
<!-- Node7 -->
<g id="node7" class="node"><title>Node7</title>
<g id="a_node7"><a xlink:href="classmfem_1_1TimeDependentOperator.html" target="_top" xlink:title="Base abstract class for time dependent operators. ">
<polygon fill="white" stroke="black" points="414,-152.5 414,-175.5 662,-175.5 662,-152.5 414,-152.5"/>
<text text-anchor="middle" x="538" y="-160.3" font-family="Helvetica,sans-Serif" font-size="14.00">mfem::TimeDependentOperator</text>
</a>
</g>
</g>
<!-- Node7&#45;&gt;Node6 -->
<g id="edge6" class="edge"><title>Node7&#45;&gt;Node6</title>
<path fill="none" stroke="#9a32cd" stroke-dasharray="5,2" d="M527.433,-143.215C517.907,-125.379 504.263,-99.8337 496.663,-85.6039"/>
<polygon fill="#9a32cd" stroke="#9a32cd" points="524.438,-145.038 532.237,-152.209 530.613,-141.74 524.438,-145.038"/>
<text text-anchor="middle" x="527" y="-115.3" font-family="Helvetica,sans-Serif" font-size="14.00"> f</text>
</g>
<!-- Node8 -->
<g id="node8" class="node"><title>Node8</title>
<g id="a_node8"><a xlink:href="classmfem_1_1Operator.html" target="_top" xlink:title="Abstract operator. ">
<polygon fill="white" stroke="black" points="471.5,-214.5 471.5,-237.5 604.5,-237.5 604.5,-214.5 471.5,-214.5"/>
<text text-anchor="middle" x="538" y="-222.3" font-family="Helvetica,sans-Serif" font-size="14.00">mfem::Operator</text>
</a>
</g>
</g>
<!-- Node8&#45;&gt;Node7 -->
<g id="edge7" class="edge"><title>Node8&#45;&gt;Node7</title>
<path fill="none" stroke="midnightblue" d="M538,-204.231C538,-194.592 538,-183.544 538,-175.634"/>
<polygon fill="midnightblue" stroke="midnightblue" points="534.5,-204.273 538,-214.273 541.5,-204.273 534.5,-204.273"/>
</g>
</g>
</svg>
