<?xml version="1.0" encoding="UTF-8" standalone="no"?>
<!DOCTYPE svg PUBLIC "-//W3C//DTD SVG 1.1//EN"
 "http://www.w3.org/Graphics/SVG/1.1/DTD/svg11.dtd">
<!-- Generated by graphviz version 2.30.1 (20200304.1809)
 -->
<!-- Title: mfem::MixedBilinearForm Pages: 1 -->
<!--zoomable 424 -->
<svg id="main" version="1.1" xmlns="http://www.w3.org/2000/svg" xmlns:xlink="http://www.w3.org/1999/xlink" xml:space="preserve" onload="init(evt)">
<style type="text/css"><![CDATA[
.edge:hover path { stroke: red; }
.edge:hover polygon { stroke: red; fill: red; }
]]></style>
<script type="text/javascript"><![CDATA[
var edges = document.getElementsByTagName('g');
if (edges && edges.length) {
  for (var i=0;i<edges.length;i++) {
    if (edges[i].id.substr(0,4)=='edge') {
      edges[i].setAttribute('class','edge');
    }
  }
}
]]></script>
        <defs>
                <circle id="rim" cx="0" cy="0" r="7"/>
                <circle id="rim2" cx="0" cy="0" r="3.5"/>
                <g id="zoomPlus">
                        <use xlink:href="#rim" fill="#404040">
                                <set attributeName="fill" to="#808080" begin="zoomplus.mouseover" end="zoomplus.mouseout"/>
                        </use>
                        <path d="M-4,0h8M0,-4v8" fill="none" stroke="white" stroke-width="1.5" pointer-events="none"/>
                </g>
                <g id="zoomMin">
                        <use xlink:href="#rim" fill="#404040">
                                <set attributeName="fill" to="#808080" begin="zoomminus.mouseover" end="zoomminus.mouseout"/>
                        </use>
                        <path d="M-4,0h8" fill="none" stroke="white" stroke-width="1.5" pointer-events="none"/>
                </g>
                <g id="dirArrow">
                        <path fill="none" stroke="white" stroke-width="1.5" d="M0,-3.0v7 M-2.5,-0.5L0,-3.0L2.5,-0.5"/>
                </g>
               <g id="resetDef">
                       <use xlink:href="#rim2" fill="#404040">
                               <set attributeName="fill" to="#808080" begin="reset.mouseover" end="reset.mouseout"/>
                       </use>
               </g>
        </defs>

<script type="text/javascript">
var viewWidth = 600;
var viewHeight = 424;
var sectionId = 'dynsection-0';
</script>
<script xlink:href="svgpan.js"/>
<svg id="graph" class="graph">
<g id="viewport">
<title>mfem::MixedBilinearForm</title>
<polygon fill="white" stroke="white" points="-4,5 -4,-420 597,-420 597,5 -4,5"/>
<!-- Node1 -->
<g id="node1" class="node"><title>Node1</title>
<polygon fill="#bfbfbf" stroke="black" points="257,-272.5 257,-295.5 457,-295.5 457,-272.5 257,-272.5"/>
<text text-anchor="middle" x="357" y="-280.3" font-family="Helvetica,sans-Serif" font-size="14.00">mfem::MixedBilinearForm</text>
</g>
<!-- Node4 -->
<g id="node4" class="node"><title>Node4</title>
<g id="a_node4"><a xlink:href="classmfem_1_1DiscreteLinearOperator.html" target="_top" xlink:title="mfem::DiscreteLinearOperator">
<polygon fill="white" stroke="black" points="114.5,-212.5 114.5,-235.5 351.5,-235.5 351.5,-212.5 114.5,-212.5"/>
<text text-anchor="middle" x="233" y="-220.3" font-family="Helvetica,sans-Serif" font-size="14.00">mfem::DiscreteLinearOperator</text>
</a>
</g>
</g>
<!-- Node1&#45;&gt;Node4 -->
<g id="edge3" class="edge"><title>Node1&#45;&gt;Node4</title>
<path fill="none" stroke="midnightblue" d="M325.372,-268.206C303.618,-258.031 275.238,-244.757 255.707,-235.621"/>
<polygon fill="midnightblue" stroke="midnightblue" points="324.004,-271.43 334.545,-272.497 326.969,-265.089 324.004,-271.43"/>
</g>
<!-- Node9 -->
<g id="node9" class="node"><title>Node9</title>
<g id="a_node9"><a xlink:href="classmfem_1_1ParMixedBilinearForm.html" target="_top" xlink:title="Class for parallel bilinear form using different test and trial FE spaces. ">
<polygon fill="white" stroke="black" points="369.5,-212.5 369.5,-235.5 592.5,-235.5 592.5,-212.5 369.5,-212.5"/>
<text text-anchor="middle" x="481" y="-220.3" font-family="Helvetica,sans-Serif" font-size="14.00">mfem::ParMixedBilinearForm</text>
</a>
</g>
</g>
<!-- Node1&#45;&gt;Node9 -->
<g id="edge8" class="edge"><title>Node1&#45;&gt;Node9</title>
<path fill="none" stroke="midnightblue" d="M388.628,-268.206C410.382,-258.031 438.762,-244.757 458.293,-235.621"/>
<polygon fill="midnightblue" stroke="midnightblue" points="387.031,-265.089 379.455,-272.497 389.996,-271.43 387.031,-265.089"/>
</g>
<!-- Node2 -->
<g id="node2" class="node"><title>Node2</title>
<g id="a_node2"><a xlink:href="classmfem_1_1Matrix.html" target="_top" xlink:title="Abstract data type matrix. ">
<polygon fill="white" stroke="black" points="300.5,-332.5 300.5,-355.5 413.5,-355.5 413.5,-332.5 300.5,-332.5"/>
<text text-anchor="middle" x="357" y="-340.3" font-family="Helvetica,sans-Serif" font-size="14.00">mfem::Matrix</text>
</a>
</g>
</g>
<!-- Node2&#45;&gt;Node1 -->
<g id="edge1" class="edge"><title>Node2&#45;&gt;Node1</title>
<path fill="none" stroke="midnightblue" d="M357,-322.191C357,-313.168 357,-302.994 357,-295.571"/>
<polygon fill="midnightblue" stroke="midnightblue" points="353.5,-322.362 357,-332.362 360.5,-322.362 353.5,-322.362"/>
</g>
<!-- Node3 -->
<g id="node3" class="node"><title>Node3</title>
<g id="a_node3"><a xlink:href="classmfem_1_1Operator.html" target="_top" xlink:title="Abstract operator. ">
<polygon fill="white" stroke="black" points="290.5,-392.5 290.5,-415.5 423.5,-415.5 423.5,-392.5 290.5,-392.5"/>
<text text-anchor="middle" x="357" y="-400.3" font-family="Helvetica,sans-Serif" font-size="14.00">mfem::Operator</text>
</a>
</g>
</g>
<!-- Node3&#45;&gt;Node2 -->
<g id="edge2" class="edge"><title>Node3&#45;&gt;Node2</title>
<path fill="none" stroke="midnightblue" d="M357,-382.191C357,-373.168 357,-362.994 357,-355.571"/>
<polygon fill="midnightblue" stroke="midnightblue" points="353.5,-382.362 357,-392.362 360.5,-382.362 353.5,-382.362"/>
</g>
<!-- Node5 -->
<g id="node5" class="node"><title>Node5</title>
<g id="a_node5"><a xlink:href="classmfem_1_1ParDiscreteLinearOperator.html" target="_top" xlink:title="mfem::ParDiscreteLinearOperator">
<polygon fill="white" stroke="black" points="103,-152.5 103,-175.5 363,-175.5 363,-152.5 103,-152.5"/>
<text text-anchor="middle" x="233" y="-160.3" font-family="Helvetica,sans-Serif" font-size="14.00">mfem::ParDiscreteLinearOperator</text>
</a>
</g>
</g>
<!-- Node4&#45;&gt;Node5 -->
<g id="edge4" class="edge"><title>Node4&#45;&gt;Node5</title>
<path fill="none" stroke="midnightblue" d="M233,-202.191C233,-193.168 233,-182.994 233,-175.571"/>
<polygon fill="midnightblue" stroke="midnightblue" points="229.5,-202.362 233,-212.362 236.5,-202.362 229.5,-202.362"/>
</g>
<!-- Node6 -->
<g id="node6" class="node"><title>Node6</title>
<g id="a_node6"><a xlink:href="classmfem_1_1miniapps_1_1ParDiscreteInterpolationOperator.html" target="_top" xlink:title="mfem::miniapps::ParDiscrete\lInterpolationOperator">
<polygon fill="white" stroke="red" points="121,-77 121,-115 345,-115 345,-77 121,-77"/>
<text text-anchor="start" x="129" y="-99.8" font-family="Helvetica,sans-Serif" font-size="14.00">mfem::miniapps::ParDiscrete</text>
<text text-anchor="middle" x="233" y="-84.8" font-family="Helvetica,sans-Serif" font-size="14.00">InterpolationOperator</text>
</a>
</g>
</g>
<!-- Node5&#45;&gt;Node6 -->
<g id="edge5" class="edge"><title>Node5&#45;&gt;Node6</title>
<path fill="none" stroke="midnightblue" d="M233,-142.274C233,-133.541 233,-123.471 233,-115.048"/>
<polygon fill="midnightblue" stroke="midnightblue" points="229.5,-142.396 233,-152.396 236.5,-142.396 229.5,-142.396"/>
</g>
<!-- Node7 -->
<g id="node7" class="node"><title>Node7</title>
<g id="a_node7"><a xlink:href="classmfem_1_1miniapps_1_1ParDiscreteCurlOperator.html" target="_top" xlink:title="mfem::miniapps::ParDiscrete\lCurlOperator">
<polygon fill="white" stroke="black" points="0,-1 0,-39 224,-39 224,-1 0,-1"/>
<text text-anchor="start" x="8" y="-23.8" font-family="Helvetica,sans-Serif" font-size="14.00">mfem::miniapps::ParDiscrete</text>
<text text-anchor="middle" x="112" y="-8.8" font-family="Helvetica,sans-Serif" font-size="14.00">CurlOperator</text>
</a>
</g>
</g>
<!-- Node6&#45;&gt;Node7 -->
<g id="edge6" class="edge"><title>Node6&#45;&gt;Node7</title>
<path fill="none" stroke="midnightblue" d="M194.728,-71.5938C177.595,-61.1158 157.7,-48.9485 141.714,-39.172"/>
<polygon fill="midnightblue" stroke="midnightblue" points="193.043,-74.666 203.4,-76.8976 196.695,-68.6943 193.043,-74.666"/>
</g>
<!-- Node8 -->
<g id="node8" class="node"><title>Node8</title>
<g id="a_node8"><a xlink:href="classmfem_1_1miniapps_1_1ParDiscreteDivOperator.html" target="_top" xlink:title="mfem::miniapps::ParDiscrete\lDivOperator">
<polygon fill="white" stroke="black" points="242,-1 242,-39 466,-39 466,-1 242,-1"/>
<text text-anchor="start" x="250" y="-23.8" font-family="Helvetica,sans-Serif" font-size="14.00">mfem::miniapps::ParDiscrete</text>
<text text-anchor="middle" x="354" y="-8.8" font-family="Helvetica,sans-Serif" font-size="14.00">DivOperator</text>
</a>
</g>
</g>
<!-- Node6&#45;&gt;Node8 -->
<g id="edge7" class="edge"><title>Node6&#45;&gt;Node8</title>
<path fill="none" stroke="midnightblue" d="M271.272,-71.5938C288.405,-61.1158 308.3,-48.9485 324.286,-39.172"/>
<polygon fill="midnightblue" stroke="midnightblue" points="269.305,-68.6943 262.6,-76.8976 272.957,-74.666 269.305,-68.6943"/>
</g>
</g>
</svg>
        <g id="navigator" transform="translate(0 0)" fill="#404254">
                <rect fill="#f2f5e9" fill-opacity="0.5" stroke="#606060" stroke-width=".5" x="0" y="0" width="60" height="60"/>
                <use id="zoomplus" xlink:href="#zoomPlus" x="17" y="9" onmousedown="handleZoom(evt,'in')"/>
                <use id="zoomminus" xlink:href="#zoomMin" x="42" y="9" onmousedown="handleZoom(evt,'out')"/>
                <use id="reset" xlink:href="#resetDef" x="30" y="36" onmousedown="handleReset()"/>
                <g id="arrowUp" xlink:href="#dirArrow" transform="translate(30 24)" onmousedown="handlePan(0,-1)">
                  <use xlink:href="#rim" fill="#404040">
                        <set attributeName="fill" to="#808080" begin="arrowUp.mouseover" end="arrowUp.mouseout"/>
                  </use>
                  <path fill="none" stroke="white" stroke-width="1.5" d="M0,-3.0v7 M-2.5,-0.5L0,-3.0L2.5,-0.5"/>
                </g>
                <g id="arrowRight" xlink:href="#dirArrow" transform="rotate(90) translate(36 -43)" onmousedown="handlePan(1,0)">
                  <use xlink:href="#rim" fill="#404040">
                        <set attributeName="fill" to="#808080" begin="arrowRight.mouseover" end="arrowRight.mouseout"/>
                  </use>
                  <path fill="none" stroke="white" stroke-width="1.5" d="M0,-3.0v7 M-2.5,-0.5L0,-3.0L2.5,-0.5"/>
                </g>
                <g id="arrowDown" xlink:href="#dirArrow" transform="rotate(180) translate(-30 -48)" onmousedown="handlePan(0,1)">
                  <use xlink:href="#rim" fill="#404040">
                        <set attributeName="fill" to="#808080" begin="arrowDown.mouseover" end="arrowDown.mouseout"/>
                  </use>
                  <path fill="none" stroke="white" stroke-width="1.5" d="M0,-3.0v7 M-2.5,-0.5L0,-3.0L2.5,-0.5"/>
                </g>
                <g id="arrowLeft" xlink:href="#dirArrow" transform="rotate(270) translate(-36 17)" onmousedown="handlePan(-1,0)">
                  <use xlink:href="#rim" fill="#404040">
                        <set attributeName="fill" to="#808080" begin="arrowLeft.mouseover" end="arrowLeft.mouseout"/>
                  </use>
                  <path fill="none" stroke="white" stroke-width="1.5" d="M0,-3.0v7 M-2.5,-0.5L0,-3.0L2.5,-0.5"/>
                </g>
        </g>
        <svg viewBox="0 0 15 15" width="100%" height="30px" preserveAspectRatio="xMaxYMin meet">
         <g id="arrow_out" transform="scale(0.3 0.3)">
          <a xlink:href="classmfem_1_1MixedBilinearForm__inherit__graph_org.svg" target="_base">
           <rect id="button" ry="5" rx="5" y="6" x="6" height="38" width="38"
                fill="#f2f5e9" fill-opacity="0.5" stroke="#606060" stroke-width="1.0"/>
           <path id="arrow"
             d="M 11.500037,31.436501 C 11.940474,20.09759 22.043105,11.32322 32.158766,21.979434 L 37.068811,17.246167 C 37.068811,17.246167 37.088388,32 37.088388,32 L 22.160133,31.978069 C 22.160133,31.978069 26.997745,27.140456 26.997745,27.140456 C 18.528582,18.264221 13.291696,25.230495 11.500037,31.436501 z"
             style="fill:#404040;"/>
          </a>
         </g>
        </svg>
</svg>
