<?xml version="1.0" encoding="UTF-8" standalone="no"?>
<!DOCTYPE svg PUBLIC "-//W3C//DTD SVG 1.1//EN"
 "http://www.w3.org/Graphics/SVG/1.1/DTD/svg11.dtd">
<!-- Generated by graphviz version 2.30.1 (20200304.1809)
 -->
<!-- Title: mfem::ogzstream Pages: 1 -->
<svg width="521pt" height="310pt"
 viewBox="0.00 0.00 521.00 310.00" xmlns="http://www.w3.org/2000/svg" xmlns:xlink="http://www.w3.org/1999/xlink">
<g id="graph0" class="graph" transform="scale(1 1) rotate(0) translate(4 306)">
<title>mfem::ogzstream</title>
<polygon fill="white" stroke="white" points="-4,5 -4,-306 518,-306 518,5 -4,5"/>
<!-- Node1 -->
<g id="node1" class="node"><title>Node1</title>
<polygon fill="#bfbfbf" stroke="black" points="274.5,-0.5 274.5,-23.5 419.5,-23.5 419.5,-0.5 274.5,-0.5"/>
<text text-anchor="middle" x="347" y="-8.3" font-family="Helvetica,sans-Serif" font-size="14.00">mfem::ogzstream</text>
</g>
<!-- Node2 -->
<g id="node2" class="node"><title>Node2</title>
<g id="a_node2"><a xlink:href="classmfem_1_1gzstreambase.html" target="_top" xlink:title="mfem::gzstreambase">
<polygon fill="white" stroke="black" points="165,-62.5 165,-85.5 335,-85.5 335,-62.5 165,-62.5"/>
<text text-anchor="middle" x="250" y="-70.3" font-family="Helvetica,sans-Serif" font-size="14.00">mfem::gzstreambase</text>
</a>
</g>
</g>
<!-- Node2&#45;&gt;Node1 -->
<g id="edge1" class="edge"><title>Node2&#45;&gt;Node1</title>
<path fill="none" stroke="midnightblue" d="M276.244,-56.7663C293.266,-46.2376 314.957,-32.8203 329.808,-23.6339"/>
<polygon fill="midnightblue" stroke="midnightblue" points="274.005,-54.036 267.342,-62.2732 277.687,-59.9892 274.005,-54.036"/>
</g>
<!-- Node3 -->
<g id="node3" class="node"><title>Node3</title>
<g id="a_node3"><a xlink:title="STL class. ">
<polygon fill="white" stroke="#bfbfbf" points="69,-146.5 69,-169.5 137,-169.5 137,-146.5 69,-146.5"/>
<text text-anchor="middle" x="103" y="-154.3" font-family="Helvetica,sans-Serif" font-size="14.00">std::ios</text>
</a>
</g>
</g>
<!-- Node3&#45;&gt;Node2 -->
<g id="edge2" class="edge"><title>Node3&#45;&gt;Node2</title>
<path fill="none" stroke="midnightblue" d="M130.844,-141.468C160.226,-125.078 205.725,-99.6979 231.156,-85.5117"/>
<polygon fill="midnightblue" stroke="midnightblue" points="128.945,-138.52 121.917,-146.448 132.355,-144.633 128.945,-138.52"/>
</g>
<!-- Node4 -->
<g id="node4" class="node"><title>Node4</title>
<g id="a_node4"><a xlink:title="STL class. ">
<polygon fill="white" stroke="#bfbfbf" points="0,-216.5 0,-239.5 176,-239.5 176,-216.5 0,-216.5"/>
<text text-anchor="middle" x="88" y="-224.3" font-family="Helvetica,sans-Serif" font-size="14.00">std::basic_ios&lt; char &gt;</text>
</a>
</g>
</g>
<!-- Node4&#45;&gt;Node3 -->
<g id="edge3" class="edge"><title>Node4&#45;&gt;Node3</title>
<path fill="none" stroke="midnightblue" d="M92.5724,-206.272C95.2291,-194.228 98.4672,-179.549 100.623,-169.775"/>
<polygon fill="midnightblue" stroke="midnightblue" points="89.0801,-205.856 90.3438,-216.375 95.9158,-207.364 89.0801,-205.856"/>
</g>
<!-- Node5 -->
<g id="node5" class="node"><title>Node5</title>
<g id="a_node5"><a xlink:title="STL class. ">
<polygon fill="white" stroke="#bfbfbf" points="239,-278.5 239,-301.5 349,-301.5 349,-278.5 239,-278.5"/>
<text text-anchor="middle" x="294" y="-286.3" font-family="Helvetica,sans-Serif" font-size="14.00">std::ios_base</text>
</a>
</g>
</g>
<!-- Node5&#45;&gt;Node4 -->
<g id="edge4" class="edge"><title>Node5&#45;&gt;Node4</title>
<path fill="none" stroke="midnightblue" d="M248.012,-275.606C210.691,-264.735 158.791,-249.619 124.337,-239.584"/>
<polygon fill="midnightblue" stroke="midnightblue" points="247.066,-278.975 257.646,-278.411 249.023,-272.254 247.066,-278.975"/>
</g>
<!-- Node10 -->
<g id="node10" class="node"><title>Node10</title>
<g id="a_node10"><a xlink:title="STL class. ">
<polygon fill="white" stroke="#bfbfbf" points="334.5,-216.5 334.5,-239.5 513.5,-239.5 513.5,-216.5 334.5,-216.5"/>
<text text-anchor="middle" x="424" y="-224.3" font-family="Helvetica,sans-Serif" font-size="14.00">std::basic_ios&lt; Char &gt;</text>
</a>
</g>
</g>
<!-- Node5&#45;&gt;Node10 -->
<g id="edge10" class="edge"><title>Node5&#45;&gt;Node10</title>
<path fill="none" stroke="midnightblue" d="M326.047,-274.209C349.233,-263.508 380.026,-249.296 400.85,-239.685"/>
<polygon fill="midnightblue" stroke="midnightblue" points="324.555,-271.043 316.942,-278.411 327.488,-277.399 324.555,-271.043"/>
</g>
<!-- Node6 -->
<g id="node6" class="node"><title>Node6</title>
<g id="a_node6"><a xlink:href="classmfem_1_1gzstreambuf.html" target="_top" xlink:title="mfem::gzstreambuf">
<polygon fill="white" stroke="black" points="170.5,-146.5 170.5,-169.5 329.5,-169.5 329.5,-146.5 170.5,-146.5"/>
<text text-anchor="middle" x="250" y="-154.3" font-family="Helvetica,sans-Serif" font-size="14.00">mfem::gzstreambuf</text>
</a>
</g>
</g>
<!-- Node6&#45;&gt;Node2 -->
<g id="edge5" class="edge"><title>Node6&#45;&gt;Node2</title>
<path fill="none" stroke="#9a32cd" stroke-dasharray="5,2" d="M250,-136.203C250,-120.114 250,-98.4925 250,-85.7227"/>
<polygon fill="#9a32cd" stroke="#9a32cd" points="246.5,-136.28 250,-146.28 253.5,-136.28 246.5,-136.28"/>
<text text-anchor="middle" x="264" y="-108.3" font-family="Helvetica,sans-Serif" font-size="14.00"> buf</text>
</g>
<!-- Node7 -->
<g id="node7" class="node"><title>Node7</title>
<polygon fill="white" stroke="#bfbfbf" points="194,-216.5 194,-239.5 316,-239.5 316,-216.5 194,-216.5"/>
<text text-anchor="middle" x="255" y="-224.3" font-family="Helvetica,sans-Serif" font-size="14.00">std::streambuf</text>
</g>
<!-- Node7&#45;&gt;Node6 -->
<g id="edge6" class="edge"><title>Node7&#45;&gt;Node6</title>
<path fill="none" stroke="midnightblue" d="M253.476,-206.272C252.59,-194.228 251.511,-179.549 250.792,-169.775"/>
<polygon fill="midnightblue" stroke="midnightblue" points="249.995,-206.659 254.219,-216.375 256.976,-206.145 249.995,-206.659"/>
</g>
<!-- Node8 -->
<g id="node8" class="node"><title>Node8</title>
<g id="a_node8"><a xlink:title="STL class. ">
<polygon fill="white" stroke="#bfbfbf" points="357.5,-62.5 357.5,-85.5 464.5,-85.5 464.5,-62.5 357.5,-62.5"/>
<text text-anchor="middle" x="411" y="-70.3" font-family="Helvetica,sans-Serif" font-size="14.00">std::ostream</text>
</a>
</g>
</g>
<!-- Node8&#45;&gt;Node1 -->
<g id="edge7" class="edge"><title>Node8&#45;&gt;Node1</title>
<path fill="none" stroke="midnightblue" d="M392.105,-55.2861C381.138,-45.0043 367.688,-32.395 358.343,-23.6339"/>
<polygon fill="midnightblue" stroke="midnightblue" points="389.869,-57.9871 399.558,-62.2732 394.656,-52.8804 389.869,-57.9871"/>
</g>
<!-- Node9 -->
<g id="node9" class="node"><title>Node9</title>
<g id="a_node9"><a xlink:title="STL class. ">
<polygon fill="white" stroke="#bfbfbf" points="348,-139 348,-177 500,-177 500,-139 348,-139"/>
<text text-anchor="start" x="356" y="-161.8" font-family="Helvetica,sans-Serif" font-size="14.00">std::basic_ostream</text>
<text text-anchor="middle" x="424" y="-146.8" font-family="Helvetica,sans-Serif" font-size="14.00">&lt; char &gt;</text>
</a>
</g>
</g>
<!-- Node9&#45;&gt;Node8 -->
<g id="edge8" class="edge"><title>Node9&#45;&gt;Node8</title>
<path fill="none" stroke="midnightblue" d="M419.5,-128.616C417.162,-113.871 414.442,-96.7138 412.721,-85.8572"/>
<polygon fill="midnightblue" stroke="midnightblue" points="416.092,-129.473 421.115,-138.802 423.006,-128.377 416.092,-129.473"/>
</g>
<!-- Node10&#45;&gt;Node9 -->
<g id="edge9" class="edge"><title>Node10&#45;&gt;Node9</title>
<path fill="none" stroke="midnightblue" d="M424,-206.098C424,-196.869 424,-186.12 424,-177.223"/>
<polygon fill="midnightblue" stroke="midnightblue" points="420.5,-206.375 424,-216.375 427.5,-206.375 420.5,-206.375"/>
</g>
</g>
</svg>
