<?xml version="1.0" encoding="UTF-8" standalone="no"?>
<!DOCTYPE svg PUBLIC "-//W3C//DTD SVG 1.1//EN"
 "http://www.w3.org/Graphics/SVG/1.1/DTD/svg11.dtd">
<!-- Generated by graphviz version 2.30.1 (20200304.1809)
 -->
<!-- Title: mfem::ParNCMesh::RebalanceDofMessage Pages: 1 -->
<!--zoomable 392 -->
<svg id="main" version="1.1" xmlns="http://www.w3.org/2000/svg" xmlns:xlink="http://www.w3.org/1999/xlink" xml:space="preserve" onload="init(evt)">
<style type="text/css"><![CDATA[
.edge:hover path { stroke: red; }
.edge:hover polygon { stroke: red; fill: red; }
]]></style>
<script type="text/javascript"><![CDATA[
var edges = document.getElementsByTagName('g');
if (edges && edges.length) {
  for (var i=0;i<edges.length;i++) {
    if (edges[i].id.substr(0,4)=='edge') {
      edges[i].setAttribute('class','edge');
    }
  }
}
]]></script>
        <defs>
                <circle id="rim" cx="0" cy="0" r="7"/>
                <circle id="rim2" cx="0" cy="0" r="3.5"/>
                <g id="zoomPlus">
                        <use xlink:href="#rim" fill="#404040">
                                <set attributeName="fill" to="#808080" begin="zoomplus.mouseover" end="zoomplus.mouseout"/>
                        </use>
                        <path d="M-4,0h8M0,-4v8" fill="none" stroke="white" stroke-width="1.5" pointer-events="none"/>
                </g>
                <g id="zoomMin">
                        <use xlink:href="#rim" fill="#404040">
                                <set attributeName="fill" to="#808080" begin="zoomminus.mouseover" end="zoomminus.mouseout"/>
                        </use>
                        <path d="M-4,0h8" fill="none" stroke="white" stroke-width="1.5" pointer-events="none"/>
                </g>
                <g id="dirArrow">
                        <path fill="none" stroke="white" stroke-width="1.5" d="M0,-3.0v7 M-2.5,-0.5L0,-3.0L2.5,-0.5"/>
                </g>
               <g id="resetDef">
                       <use xlink:href="#rim2" fill="#404040">
                               <set attributeName="fill" to="#808080" begin="reset.mouseover" end="reset.mouseout"/>
                       </use>
               </g>
        </defs>

<script type="text/javascript">
var viewWidth = 643;
var viewHeight = 392;
var sectionId = 'dynsection-1';
</script>
<script xlink:href="svgpan.js"/>
<svg id="graph" class="graph">
<g id="viewport">
<title>mfem::ParNCMesh::RebalanceDofMessage</title>
<polygon fill="white" stroke="white" points="-4,5 -4,-388 640,-388 640,5 -4,5"/>
<!-- Node1 -->
<g id="node1" class="node"><title>Node1</title>
<polygon fill="#bfbfbf" stroke="black" points="237,-1 237,-39 469,-39 469,-1 237,-1"/>
<text text-anchor="start" x="245" y="-23.8" font-family="Helvetica,sans-Serif" font-size="14.00">mfem::ParNCMesh::Rebalance</text>
<text text-anchor="middle" x="353" y="-8.8" font-family="Helvetica,sans-Serif" font-size="14.00">DofMessage</text>
</g>
<!-- Node2 -->
<g id="node2" class="node"><title>Node2</title>
<g id="a_node2"><a xlink:href="structmfem_1_1VarMessage.html" target="_top" xlink:title="mfem::VarMessage\&lt; 158 \&gt;">
<polygon fill="white" stroke="black" points="-0.5,-106.5 -0.5,-129.5 214.5,-129.5 214.5,-106.5 -0.5,-106.5"/>
<text text-anchor="middle" x="107" y="-114.3" font-family="Helvetica,sans-Serif" font-size="14.00">mfem::VarMessage&lt; 158 &gt;</text>
</a>
</g>
</g>
<!-- Node2&#45;&gt;Node1 -->
<g id="edge1" class="edge"><title>Node2&#45;&gt;Node1</title>
<path fill="none" stroke="midnightblue" d="M143.598,-102.718C187.029,-85.7693 259.495,-57.4899 306.763,-39.0437"/>
<polygon fill="midnightblue" stroke="midnightblue" points="142.31,-99.4635 134.266,-106.36 144.854,-105.985 142.31,-99.4635"/>
</g>
<!-- Node3 -->
<g id="node3" class="node"><title>Node3</title>
<g id="a_node3"><a xlink:title="STL class. ">
<polygon fill="white" stroke="#bfbfbf" points="63,-182.5 63,-205.5 151,-205.5 151,-182.5 63,-182.5"/>
<text text-anchor="middle" x="107" y="-190.3" font-family="Helvetica,sans-Serif" font-size="14.00">std::string</text>
</a>
</g>
</g>
<!-- Node3&#45;&gt;Node2 -->
<g id="edge2" class="edge"><title>Node3&#45;&gt;Node2</title>
<path fill="none" stroke="#9a32cd" stroke-dasharray="5,2" d="M107,-172.277C107,-158.387 107,-140.675 107,-129.583"/>
<polygon fill="#9a32cd" stroke="#9a32cd" points="103.5,-172.398 107,-182.398 110.5,-172.398 103.5,-172.398"/>
<text text-anchor="middle" x="125.5" y="-152.3" font-family="Helvetica,sans-Serif" font-size="14.00"> data</text>
</g>
<!-- Node4 -->
<g id="node4" class="node"><title>Node4</title>
<g id="a_node4"><a xlink:title="STL class. ">
<polygon fill="white" stroke="#bfbfbf" points="35,-283 35,-321 179,-321 179,-283 35,-283"/>
<text text-anchor="start" x="43" y="-305.8" font-family="Helvetica,sans-Serif" font-size="14.00">std::basic_string&lt;</text>
<text text-anchor="middle" x="107" y="-290.8" font-family="Helvetica,sans-Serif" font-size="14.00"> char &gt;</text>
</a>
</g>
</g>
<!-- Node4&#45;&gt;Node3 -->
<g id="edge3" class="edge"><title>Node4&#45;&gt;Node3</title>
<path fill="none" stroke="midnightblue" d="M107,-272.362C107,-250.268 107,-220.954 107,-205.527"/>
<polygon fill="midnightblue" stroke="midnightblue" points="103.5,-272.536 107,-282.536 110.5,-272.536 103.5,-272.536"/>
</g>
<!-- Node5 -->
<g id="node5" class="node"><title>Node5</title>
<g id="a_node5"><a xlink:href="classmfem_1_1ParNCMesh_1_1ElementSet.html" target="_top" xlink:title="mfem::ParNCMesh::ElementSet">
<polygon fill="white" stroke="black" points="233,-106.5 233,-129.5 473,-129.5 473,-106.5 233,-106.5"/>
<text text-anchor="middle" x="353" y="-114.3" font-family="Helvetica,sans-Serif" font-size="14.00">mfem::ParNCMesh::ElementSet</text>
</a>
</g>
</g>
<!-- Node5&#45;&gt;Node1 -->
<g id="edge4" class="edge"><title>Node5&#45;&gt;Node1</title>
<path fill="none" stroke="#9a32cd" stroke-dasharray="5,2" d="M353,-96.3335C353,-79.3453 353,-55.5056 353,-39.2227"/>
<polygon fill="#9a32cd" stroke="#9a32cd" points="349.5,-96.3595 353,-106.36 356.5,-96.3596 349.5,-96.3595"/>
<text text-anchor="middle" x="371" y="-69.3" font-family="Helvetica,sans-Serif" font-size="14.00"> eset</text>
</g>
<!-- Node6 -->
<g id="node6" class="node"><title>Node6</title>
<g id="a_node6"><a xlink:href="classmfem_1_1Array.html" target="_top" xlink:title="mfem::Array\&lt; unsigned\l char \&gt;">
<polygon fill="white" stroke="black" points="220.5,-225 220.5,-263 409.5,-263 409.5,-225 220.5,-225"/>
<text text-anchor="start" x="228.5" y="-247.8" font-family="Helvetica,sans-Serif" font-size="14.00">mfem::Array&lt; unsigned</text>
<text text-anchor="middle" x="315" y="-232.8" font-family="Helvetica,sans-Serif" font-size="14.00"> char &gt;</text>
</a>
</g>
</g>
<!-- Node6&#45;&gt;Node5 -->
<g id="edge5" class="edge"><title>Node6&#45;&gt;Node5</title>
<path fill="none" stroke="#9a32cd" stroke-dasharray="5,2" d="M317.487,-214.599C318.841,-204.202 320.899,-192.434 324,-182 329.695,-162.841 340.198,-142.039 346.879,-129.781"/>
<polygon fill="#9a32cd" stroke="#9a32cd" points="313.977,-214.491 316.317,-224.824 320.932,-215.287 313.977,-214.491"/>
<text text-anchor="middle" x="342.5" y="-190.3" font-family="Helvetica,sans-Serif" font-size="14.00"> data</text>
</g>
<!-- Node7 -->
<g id="node7" class="node"><title>Node7</title>
<g id="a_node7"><a xlink:href="classmfem_1_1BaseArray.html" target="_top" xlink:title="Base class for array container. ">
<polygon fill="white" stroke="black" points="278.5,-360.5 278.5,-383.5 421.5,-383.5 421.5,-360.5 278.5,-360.5"/>
<text text-anchor="middle" x="350" y="-368.3" font-family="Helvetica,sans-Serif" font-size="14.00">mfem::BaseArray</text>
</a>
</g>
</g>
<!-- Node7&#45;&gt;Node6 -->
<g id="edge6" class="edge"><title>Node7&#45;&gt;Node6</title>
<path fill="none" stroke="midnightblue" d="M343.489,-350.432C340.778,-341.691 337.651,-331.373 335,-322 329.325,-301.931 323.386,-278.748 319.47,-263.106"/>
<polygon fill="midnightblue" stroke="midnightblue" points="340.201,-351.644 346.529,-360.141 346.881,-349.552 340.201,-351.644"/>
</g>
<!-- Node9 -->
<g id="node9" class="node"><title>Node9</title>
<g id="a_node9"><a xlink:href="classmfem_1_1Array.html" target="_top" xlink:title="mfem::Array\&lt; mfem::\lNCMesh::Face * \&gt;">
<polygon fill="white" stroke="black" points="344,-283 344,-321 520,-321 520,-283 344,-283"/>
<text text-anchor="start" x="352" y="-305.8" font-family="Helvetica,sans-Serif" font-size="14.00">mfem::Array&lt; mfem::</text>
<text text-anchor="middle" x="432" y="-290.8" font-family="Helvetica,sans-Serif" font-size="14.00">NCMesh::Face * &gt;</text>
</a>
</g>
</g>
<!-- Node7&#45;&gt;Node9 -->
<g id="edge9" class="edge"><title>Node7&#45;&gt;Node9</title>
<path fill="none" stroke="midnightblue" d="M370.56,-353.95C382.586,-343.978 397.764,-331.391 410.026,-321.223"/>
<polygon fill="midnightblue" stroke="midnightblue" points="368.276,-351.297 362.812,-360.375 372.744,-356.686 368.276,-351.297"/>
</g>
<!-- Node8 -->
<g id="node8" class="node"><title>Node8</title>
<g id="a_node8"><a xlink:href="classmfem_1_1NCMesh.html" target="_top" xlink:title="A class for non&#45;conforming AMR on higher&#45;order hexahedral, quadrilateral or triangular meshes...">
<polygon fill="white" stroke="red" points="370,-182.5 370,-205.5 496,-205.5 496,-182.5 370,-182.5"/>
<text text-anchor="middle" x="433" y="-190.3" font-family="Helvetica,sans-Serif" font-size="14.00">mfem::NCMesh</text>
</a>
</g>
</g>
<!-- Node8&#45;&gt;Node5 -->
<g id="edge7" class="edge"><title>Node8&#45;&gt;Node5</title>
<path fill="none" stroke="#9a32cd" stroke-dasharray="5,2" d="M414.082,-175.501C398.659,-161.235 377.382,-141.554 364.441,-129.583"/>
<polygon fill="#9a32cd" stroke="#9a32cd" points="411.82,-178.177 421.538,-182.398 416.574,-173.038 411.82,-178.177"/>
<text text-anchor="middle" x="431.5" y="-152.3" font-family="Helvetica,sans-Serif" font-size="14.00"> ncmesh</text>
</g>
<!-- Node9&#45;&gt;Node8 -->
<g id="edge8" class="edge"><title>Node9&#45;&gt;Node8</title>
<path fill="none" stroke="#9a32cd" stroke-dasharray="5,2" d="M432.27,-272.362C432.479,-250.268 432.755,-220.954 432.901,-205.527"/>
<polygon fill="#9a32cd" stroke="#9a32cd" points="428.769,-272.504 432.174,-282.536 435.768,-272.57 428.769,-272.504"/>
<text text-anchor="middle" x="492.5" y="-240.3" font-family="Helvetica,sans-Serif" font-size="14.00"> boundary_faces</text>
</g>
<!-- Node10 -->
<g id="node10" class="node"><title>Node10</title>
<polygon fill="white" stroke="#bfbfbf" points="491.5,-106.5 491.5,-129.5 634.5,-129.5 634.5,-106.5 491.5,-106.5"/>
<text text-anchor="middle" x="563" y="-114.3" font-family="Helvetica,sans-Serif" font-size="14.00">std::vector&lt; int &gt;</text>
</g>
<!-- Node10&#45;&gt;Node1 -->
<g id="edge10" class="edge"><title>Node10&#45;&gt;Node1</title>
<path fill="none" stroke="#9a32cd" stroke-dasharray="5,2" d="M530.344,-102.071C493.127,-85.058 432.313,-57.2574 392.47,-39.0437"/>
<polygon fill="#9a32cd" stroke="#9a32cd" points="529.174,-105.385 539.724,-106.36 532.084,-99.0187 529.174,-105.385"/>
<text text-anchor="middle" x="528" y="-76.8" font-family="Helvetica,sans-Serif" font-size="14.00"> dofs</text>
<text text-anchor="middle" x="528" y="-61.8" font-family="Helvetica,sans-Serif" font-size="14.00">elem_ids</text>
</g>
</g>
</svg>
        <g id="navigator" transform="translate(0 0)" fill="#404254">
                <rect fill="#f2f5e9" fill-opacity="0.5" stroke="#606060" stroke-width=".5" x="0" y="0" width="60" height="60"/>
                <use id="zoomplus" xlink:href="#zoomPlus" x="17" y="9" onmousedown="handleZoom(evt,'in')"/>
                <use id="zoomminus" xlink:href="#zoomMin" x="42" y="9" onmousedown="handleZoom(evt,'out')"/>
                <use id="reset" xlink:href="#resetDef" x="30" y="36" onmousedown="handleReset()"/>
                <g id="arrowUp" xlink:href="#dirArrow" transform="translate(30 24)" onmousedown="handlePan(0,-1)">
                  <use xlink:href="#rim" fill="#404040">
                        <set attributeName="fill" to="#808080" begin="arrowUp.mouseover" end="arrowUp.mouseout"/>
                  </use>
                  <path fill="none" stroke="white" stroke-width="1.5" d="M0,-3.0v7 M-2.5,-0.5L0,-3.0L2.5,-0.5"/>
                </g>
                <g id="arrowRight" xlink:href="#dirArrow" transform="rotate(90) translate(36 -43)" onmousedown="handlePan(1,0)">
                  <use xlink:href="#rim" fill="#404040">
                        <set attributeName="fill" to="#808080" begin="arrowRight.mouseover" end="arrowRight.mouseout"/>
                  </use>
                  <path fill="none" stroke="white" stroke-width="1.5" d="M0,-3.0v7 M-2.5,-0.5L0,-3.0L2.5,-0.5"/>
                </g>
                <g id="arrowDown" xlink:href="#dirArrow" transform="rotate(180) translate(-30 -48)" onmousedown="handlePan(0,1)">
                  <use xlink:href="#rim" fill="#404040">
                        <set attributeName="fill" to="#808080" begin="arrowDown.mouseover" end="arrowDown.mouseout"/>
                  </use>
                  <path fill="none" stroke="white" stroke-width="1.5" d="M0,-3.0v7 M-2.5,-0.5L0,-3.0L2.5,-0.5"/>
                </g>
                <g id="arrowLeft" xlink:href="#dirArrow" transform="rotate(270) translate(-36 17)" onmousedown="handlePan(-1,0)">
                  <use xlink:href="#rim" fill="#404040">
                        <set attributeName="fill" to="#808080" begin="arrowLeft.mouseover" end="arrowLeft.mouseout"/>
                  </use>
                  <path fill="none" stroke="white" stroke-width="1.5" d="M0,-3.0v7 M-2.5,-0.5L0,-3.0L2.5,-0.5"/>
                </g>
        </g>
        <svg viewBox="0 0 15 15" width="100%" height="30px" preserveAspectRatio="xMaxYMin meet">
         <g id="arrow_out" transform="scale(0.3 0.3)">
          <a xlink:href="classmfem_1_1ParNCMesh_1_1RebalanceDofMessage__coll__graph_org.svg" target="_base">
           <rect id="button" ry="5" rx="5" y="6" x="6" height="38" width="38"
                fill="#f2f5e9" fill-opacity="0.5" stroke="#606060" stroke-width="1.0"/>
           <path id="arrow"
             d="M 11.500037,31.436501 C 11.940474,20.09759 22.043105,11.32322 32.158766,21.979434 L 37.068811,17.246167 C 37.068811,17.246167 37.088388,32 37.088388,32 L 22.160133,31.978069 C 22.160133,31.978069 26.997745,27.140456 26.997745,27.140456 C 18.528582,18.264221 13.291696,25.230495 11.500037,31.436501 z"
             style="fill:#404040;"/>
          </a>
         </g>
        </svg>
</svg>
