<?xml version="1.0" encoding="UTF-8" standalone="no"?>
<!DOCTYPE svg PUBLIC "-//W3C//DTD SVG 1.1//EN"
 "http://www.w3.org/Graphics/SVG/1.1/DTD/svg11.dtd">
<!-- Generated by graphviz version 2.30.1 (20200304.1809)
 -->
<!-- Title: mfem::ParGridFunction Pages: 1 -->
<!--zoomable 356 -->
<svg id="main" version="1.1" xmlns="http://www.w3.org/2000/svg" xmlns:xlink="http://www.w3.org/1999/xlink" xml:space="preserve" onload="init(evt)">
<style type="text/css"><![CDATA[
.edge:hover path { stroke: red; }
.edge:hover polygon { stroke: red; fill: red; }
]]></style>
<script type="text/javascript"><![CDATA[
var edges = document.getElementsByTagName('g');
if (edges && edges.length) {
  for (var i=0;i<edges.length;i++) {
    if (edges[i].id.substr(0,4)=='edge') {
      edges[i].setAttribute('class','edge');
    }
  }
}
]]></script>
        <defs>
                <circle id="rim" cx="0" cy="0" r="7"/>
                <circle id="rim2" cx="0" cy="0" r="3.5"/>
                <g id="zoomPlus">
                        <use xlink:href="#rim" fill="#404040">
                                <set attributeName="fill" to="#808080" begin="zoomplus.mouseover" end="zoomplus.mouseout"/>
                        </use>
                        <path d="M-4,0h8M0,-4v8" fill="none" stroke="white" stroke-width="1.5" pointer-events="none"/>
                </g>
                <g id="zoomMin">
                        <use xlink:href="#rim" fill="#404040">
                                <set attributeName="fill" to="#808080" begin="zoomminus.mouseover" end="zoomminus.mouseout"/>
                        </use>
                        <path d="M-4,0h8" fill="none" stroke="white" stroke-width="1.5" pointer-events="none"/>
                </g>
                <g id="dirArrow">
                        <path fill="none" stroke="white" stroke-width="1.5" d="M0,-3.0v7 M-2.5,-0.5L0,-3.0L2.5,-0.5"/>
                </g>
               <g id="resetDef">
                       <use xlink:href="#rim2" fill="#404040">
                               <set attributeName="fill" to="#808080" begin="reset.mouseover" end="reset.mouseout"/>
                       </use>
               </g>
        </defs>

<script type="text/javascript">
var viewWidth = 1858;
var viewHeight = 356;
var sectionId = 'dynsection-1';
</script>
<script xlink:href="svgpan.js"/>
<svg id="graph" class="graph">
<g id="viewport">
<title>mfem::ParGridFunction</title>
<polygon fill="white" stroke="white" points="-4,5 -4,-352.211 1855,-352.211 1855,5 -4,5"/>
<!-- Node1 -->
<g id="node1" class="node"><title>Node1</title>
<polygon fill="#bfbfbf" stroke="black" points="1668.5,-283.711 1668.5,-306.711 1849.5,-306.711 1849.5,-283.711 1668.5,-283.711"/>
<text text-anchor="middle" x="1759" y="-291.511" font-family="Helvetica,sans-Serif" font-size="14.00">mfem::ParGridFunction</text>
</g>
<!-- Node2 -->
<g id="node2" class="node"><title>Node2</title>
<g id="a_node2"><a xlink:href="classmfem_1_1GridFunction.html" target="_top" xlink:title="Class for grid function &#45; Vector with associated FE space. ">
<polygon fill="white" stroke="black" points="300,-240.711 300,-263.711 458,-263.711 458,-240.711 300,-240.711"/>
<text text-anchor="middle" x="379" y="-248.511" font-family="Helvetica,sans-Serif" font-size="14.00">mfem::GridFunction</text>
</a>
</g>
</g>
<!-- Node2&#45;&gt;Node1 -->
<g id="edge1" class="edge"><title>Node2&#45;&gt;Node1</title>
<path fill="none" stroke="midnightblue" d="M428.164,-266.356C443.357,-270.385 460.28,-274.43 476,-277.211 558.654,-291.834 580.062,-295.211 664,-295.211 664,-295.211 664,-295.211 1481,-295.211 1543.64,-295.211 1614.24,-295.211 1668.49,-295.211"/>
<polygon fill="midnightblue" stroke="midnightblue" points="429.027,-262.964 418.46,-263.724 427.195,-269.72 429.027,-262.964"/>
</g>
<!-- Node5 -->
<g id="node5" class="node"><title>Node5</title>
<g id="a_node5"><a xlink:href="classmfem_1_1Mesh.html" target="_top" xlink:title="mfem::Mesh">
<polygon fill="white" stroke="red" points="612,-112.711 612,-135.711 718,-135.711 718,-112.711 612,-112.711"/>
<text text-anchor="middle" x="665" y="-120.511" font-family="Helvetica,sans-Serif" font-size="14.00">mfem::Mesh</text>
</a>
</g>
</g>
<!-- Node2&#45;&gt;Node5 -->
<g id="edge6" class="edge"><title>Node2&#45;&gt;Node5</title>
<path fill="none" stroke="#9a32cd" stroke-dasharray="5,2" d="M426.785,-237.572C473.287,-222.76 541.156,-200.364 566,-188.211 597.031,-173.031 630.065,-149.789 648.758,-135.887"/>
<polygon fill="#9a32cd" stroke="#9a32cd" points="425.682,-234.249 417.21,-240.611 427.8,-240.921 425.682,-234.249"/>
<text text-anchor="middle" x="521" y="-225.011" font-family="Helvetica,sans-Serif" font-size="14.00"> Nodes</text>
</g>
<!-- Node3 -->
<g id="node3" class="node"><title>Node3</title>
<g id="a_node3"><a xlink:href="classmfem_1_1Vector.html" target="_top" xlink:title="Vector data type. ">
<polygon fill="white" stroke="black" points="61,-275.711 61,-298.711 175,-298.711 175,-275.711 61,-275.711"/>
<text text-anchor="middle" x="118" y="-283.511" font-family="Helvetica,sans-Serif" font-size="14.00">mfem::Vector</text>
</a>
</g>
</g>
<!-- Node3&#45;&gt;Node2 -->
<g id="edge2" class="edge"><title>Node3&#45;&gt;Node2</title>
<path fill="none" stroke="midnightblue" d="M185.289,-278.253C220.212,-273.534 263.26,-267.716 299.806,-262.778"/>
<polygon fill="midnightblue" stroke="midnightblue" points="184.64,-274.809 175.199,-279.616 185.578,-281.746 184.64,-274.809"/>
</g>
<!-- Node3&#45;&gt;Node1 -->
<g id="edge15" class="edge"><title>Node3&#45;&gt;Node1</title>
<path fill="none" stroke="#9a32cd" stroke-dasharray="5,2" d="M168.912,-301.45C220.729,-314.96 304.359,-333.211 378,-333.211 378,-333.211 378,-333.211 1481,-333.211 1559.88,-333.211 1650.23,-317.9 1705.71,-306.715"/>
<polygon fill="#9a32cd" stroke="#9a32cd" points="169.548,-297.998 158.985,-298.819 167.754,-304.764 169.548,-297.998"/>
<text text-anchor="middle" x="844" y="-337.011" font-family="Helvetica,sans-Serif" font-size="14.00"> face_nbr_data</text>
</g>
<!-- Node4 -->
<g id="node4" class="node"><title>Node4</title>
<g id="a_node4"><a xlink:href="classmfem_1_1FiniteElementSpace.html" target="_top" xlink:title="mfem::FiniteElementSpace">
<polygon fill="white" stroke="red" points="942.5,-152.711 942.5,-175.711 1151.5,-175.711 1151.5,-152.711 942.5,-152.711"/>
<text text-anchor="middle" x="1047" y="-160.511" font-family="Helvetica,sans-Serif" font-size="14.00">mfem::FiniteElementSpace</text>
</a>
</g>
</g>
<!-- Node4&#45;&gt;Node2 -->
<g id="edge3" class="edge"><title>Node4&#45;&gt;Node2</title>
<path fill="none" stroke="#9a32cd" stroke-dasharray="5,2" d="M1021.66,-181.428C997.98,-197.12 960.343,-219.313 924,-229.211 763.02,-273.052 565.428,-267.373 458.23,-259.618"/>
<polygon fill="#9a32cd" stroke="#9a32cd" points="1023.7,-184.273 1030.03,-175.771 1019.78,-178.475 1023.7,-184.273"/>
<text text-anchor="middle" x="665" y="-269.011" font-family="Helvetica,sans-Serif" font-size="14.00"> fes</text>
</g>
<!-- Node9 -->
<g id="node9" class="node"><title>Node9</title>
<g id="a_node9"><a xlink:href="classmfem_1_1ParFiniteElementSpace.html" target="_top" xlink:title="Abstract parallel finite element space. ">
<polygon fill="white" stroke="black" points="1364,-122.711 1364,-145.711 1596,-145.711 1596,-122.711 1364,-122.711"/>
<text text-anchor="middle" x="1480" y="-130.511" font-family="Helvetica,sans-Serif" font-size="14.00">mfem::ParFiniteElementSpace</text>
</a>
</g>
</g>
<!-- Node4&#45;&gt;Node9 -->
<g id="edge12" class="edge"><title>Node4&#45;&gt;Node9</title>
<path fill="none" stroke="midnightblue" d="M1161.78,-156.291C1224.15,-151.95 1301.27,-146.582 1363.85,-142.226"/>
<polygon fill="midnightblue" stroke="midnightblue" points="1161.24,-152.82 1151.51,-157.006 1161.73,-159.803 1161.24,-152.82"/>
</g>
<!-- Node5&#45;&gt;Node4 -->
<g id="edge4" class="edge"><title>Node5&#45;&gt;Node4</title>
<path fill="none" stroke="#9a32cd" stroke-dasharray="5,2" d="M728.217,-121.206C780.919,-120.002 858.184,-121.406 924,-135.211 932.401,-136.973 933.774,-139.759 942,-142.211 955.265,-146.164 969.683,-149.69 983.442,-152.698"/>
<polygon fill="#9a32cd" stroke="#9a32cd" points="727.918,-117.713 718.015,-121.479 728.105,-124.711 727.918,-117.713"/>
<text text-anchor="middle" x="844" y="-139.011" font-family="Helvetica,sans-Serif" font-size="14.00"> mesh</text>
</g>
<!-- Node6 -->
<g id="node6" class="node"><title>Node6</title>
<g id="a_node6"><a xlink:href="classmfem_1_1Table.html" target="_top" xlink:title="mfem::Table">
<polygon fill="white" stroke="black" points="326,-11.7108 326,-34.7108 432,-34.7108 432,-11.7108 326,-11.7108"/>
<text text-anchor="middle" x="379" y="-19.5108" font-family="Helvetica,sans-Serif" font-size="14.00">mfem::Table</text>
</a>
</g>
</g>
<!-- Node6&#45;&gt;Node5 -->
<g id="edge5" class="edge"><title>Node6&#45;&gt;Node5</title>
<path fill="none" stroke="#9a32cd" stroke-dasharray="5,2" d="M442.139,-31.7333C487.217,-38.4477 543.985,-48.1553 566,-57.2108 599.356,-70.9314 632.903,-97.2025 650.793,-112.454"/>
<polygon fill="#9a32cd" stroke="#9a32cd" points="442.534,-28.2539 432.131,-30.2628 441.516,-35.1796 442.534,-28.2539"/>
<text text-anchor="middle" x="521" y="-136.011" font-family="Helvetica,sans-Serif" font-size="14.00"> el_to_face</text>
<text text-anchor="middle" x="521" y="-121.011" font-family="Helvetica,sans-Serif" font-size="14.00">el_to_edge</text>
<text text-anchor="middle" x="521" y="-106.011" font-family="Helvetica,sans-Serif" font-size="14.00">edge_vertex</text>
<text text-anchor="middle" x="521" y="-91.0108" font-family="Helvetica,sans-Serif" font-size="14.00">face_edge</text>
<text text-anchor="middle" x="521" y="-76.0108" font-family="Helvetica,sans-Serif" font-size="14.00">el_to_el</text>
<text text-anchor="middle" x="521" y="-61.0108" font-family="Helvetica,sans-Serif" font-size="14.00">bel_to_edge</text>
</g>
<!-- Node6&#45;&gt;Node4 -->
<g id="edge8" class="edge"><title>Node6&#45;&gt;Node4</title>
<path fill="none" stroke="#9a32cd" stroke-dasharray="5,2" d="M442.692,-26.0163C478.854,-28.1119 525.119,-31.6056 566,-37.2108 727.524,-59.3575 788.942,-25.8884 924,-117.211 935.342,-124.88 930.53,-134.735 942,-142.211 948.494,-146.443 955.656,-149.879 963.093,-152.666"/>
<polygon fill="#9a32cd" stroke="#9a32cd" points="442.473,-22.4987 432.293,-25.4359 442.083,-29.4878 442.473,-22.4987"/>
<text text-anchor="middle" x="665" y="-70.0108" font-family="Helvetica,sans-Serif" font-size="14.00"> bdrElem_dof</text>
<text text-anchor="middle" x="665" y="-55.0108" font-family="Helvetica,sans-Serif" font-size="14.00">elem_dof</text>
</g>
<!-- Node6&#45;&gt;Node9 -->
<g id="edge14" class="edge"><title>Node6&#45;&gt;Node9</title>
<path fill="none" stroke="#9a32cd" stroke-dasharray="5,2" d="M442.481,-19.1687C518.442,-14.4741 650.56,-7.01554 764,-4.2108 835.089,-2.45315 853.359,3.95201 924,-4.2108 1123.32,-27.2428 1355.04,-95.3352 1442.82,-122.666"/>
<polygon fill="#9a32cd" stroke="#9a32cd" points="441.906,-15.6976 432.143,-19.812 442.341,-22.684 441.906,-15.6976"/>
<text text-anchor="middle" x="844" y="-38.0108" font-family="Helvetica,sans-Serif" font-size="14.00"> face_nbr_ldof</text>
<text text-anchor="middle" x="844" y="-23.0108" font-family="Helvetica,sans-Serif" font-size="14.00">send_face_nbr_ldof</text>
<text text-anchor="middle" x="844" y="-8.0108" font-family="Helvetica,sans-Serif" font-size="14.00">face_nbr_element_dof</text>
</g>
<!-- Node7 -->
<g id="node7" class="node"><title>Node7</title>
<g id="a_node7"><a xlink:href="classmfem_1_1SparseMatrix.html" target="_top" xlink:title="Data type sparse matrix. ">
<polygon fill="white" stroke="red" points="584,-192.711 584,-215.711 746,-215.711 746,-192.711 584,-192.711"/>
<text text-anchor="middle" x="665" y="-200.511" font-family="Helvetica,sans-Serif" font-size="14.00">mfem::SparseMatrix</text>
</a>
</g>
</g>
<!-- Node7&#45;&gt;Node4 -->
<g id="edge7" class="edge"><title>Node7&#45;&gt;Node4</title>
<path fill="none" stroke="#9a32cd" stroke-dasharray="5,2" d="M756.265,-195.423C805.803,-190.522 868.307,-184.212 924,-178.211 931.313,-177.423 938.87,-176.593 946.474,-175.747"/>
<polygon fill="#9a32cd" stroke="#9a32cd" points="755.825,-191.949 746.218,-196.415 756.513,-198.915 755.825,-191.949"/>
<text text-anchor="middle" x="844" y="-214.011" font-family="Helvetica,sans-Serif" font-size="14.00"> cR</text>
<text text-anchor="middle" x="844" y="-199.011" font-family="Helvetica,sans-Serif" font-size="14.00">cP</text>
</g>
<!-- Node8 -->
<g id="node8" class="node"><title>Node8</title>
<g id="a_node8"><a xlink:href="classmfem_1_1FiniteElementCollection.html" target="_top" xlink:title="mfem::FiniteElementCollection">
<polygon fill="white" stroke="black" points="0,-204.711 0,-227.711 236,-227.711 236,-204.711 0,-204.711"/>
<text text-anchor="middle" x="118" y="-212.511" font-family="Helvetica,sans-Serif" font-size="14.00">mfem::FiniteElementCollection</text>
</a>
</g>
</g>
<!-- Node8&#45;&gt;Node4 -->
<g id="edge9" class="edge"><title>Node8&#45;&gt;Node4</title>
<path fill="none" stroke="#9a32cd" stroke-dasharray="5,2" d="M197.444,-203.079C269.591,-191.671 379.661,-175.95 476,-169.211 638.643,-157.834 828.019,-159.03 942.36,-161.327"/>
<polygon fill="#9a32cd" stroke="#9a32cd" points="196.846,-199.63 187.521,-204.659 197.947,-206.543 196.846,-199.63"/>
<text text-anchor="middle" x="521" y="-173.011" font-family="Helvetica,sans-Serif" font-size="14.00"> fec</text>
</g>
<!-- Node8&#45;&gt;Node2 -->
<g id="edge10" class="edge"><title>Node8&#45;&gt;Node2</title>
<path fill="none" stroke="#9a32cd" stroke-dasharray="5,2" d="M212.073,-229.148C240.836,-233.145 272.209,-237.506 299.855,-241.349"/>
<polygon fill="#9a32cd" stroke="#9a32cd" points="212.405,-225.66 202.018,-227.75 211.441,-232.593 212.405,-225.66"/>
<text text-anchor="middle" x="268" y="-243.011" font-family="Helvetica,sans-Serif" font-size="14.00"> fec</text>
</g>
<!-- Node9&#45;&gt;Node1 -->
<g id="edge11" class="edge"><title>Node9&#45;&gt;Node1</title>
<path fill="none" stroke="#9a32cd" stroke-dasharray="5,2" d="M1509.66,-150.87C1565.89,-183.551 1689.39,-255.334 1737.89,-283.521"/>
<polygon fill="#9a32cd" stroke="#9a32cd" points="1511.33,-147.789 1500.92,-145.79 1507.81,-153.841 1511.33,-147.789"/>
<text text-anchor="middle" x="1632" y="-233.011" font-family="Helvetica,sans-Serif" font-size="14.00"> pfes</text>
</g>
<!-- Node10 -->
<g id="node10" class="node"><title>Node10</title>
<g id="a_node10"><a xlink:href="classmfem_1_1Array.html" target="_top" xlink:title="mfem::Array\&lt; HYPRE\l_Int \&gt;">
<polygon fill="white" stroke="red" points="962,-95.2108 962,-133.211 1132,-133.211 1132,-95.2108 962,-95.2108"/>
<text text-anchor="start" x="970" y="-118.011" font-family="Helvetica,sans-Serif" font-size="14.00">mfem::Array&lt; HYPRE</text>
<text text-anchor="middle" x="1047" y="-103.011" font-family="Helvetica,sans-Serif" font-size="14.00">_Int &gt;</text>
</a>
</g>
</g>
<!-- Node10&#45;&gt;Node9 -->
<g id="edge13" class="edge"><title>Node10&#45;&gt;Node9</title>
<path fill="none" stroke="#9a32cd" stroke-dasharray="5,2" d="M1142.52,-116.959C1201.13,-118.847 1277.96,-121.654 1346,-125.211 1351.78,-125.513 1357.7,-125.842 1363.67,-126.189"/>
<polygon fill="#9a32cd" stroke="#9a32cd" points="1142.27,-113.45 1132.17,-116.629 1142.05,-120.446 1142.27,-113.45"/>
<text text-anchor="middle" x="1258" y="-129.011" font-family="Helvetica,sans-Serif" font-size="14.00"> face_nbr_glob_dof_map</text>
</g>
</g>
</svg>
        <g id="navigator" transform="translate(0 0)" fill="#404254">
                <rect fill="#f2f5e9" fill-opacity="0.5" stroke="#606060" stroke-width=".5" x="0" y="0" width="60" height="60"/>
                <use id="zoomplus" xlink:href="#zoomPlus" x="17" y="9" onmousedown="handleZoom(evt,'in')"/>
                <use id="zoomminus" xlink:href="#zoomMin" x="42" y="9" onmousedown="handleZoom(evt,'out')"/>
                <use id="reset" xlink:href="#resetDef" x="30" y="36" onmousedown="handleReset()"/>
                <g id="arrowUp" xlink:href="#dirArrow" transform="translate(30 24)" onmousedown="handlePan(0,-1)">
                  <use xlink:href="#rim" fill="#404040">
                        <set attributeName="fill" to="#808080" begin="arrowUp.mouseover" end="arrowUp.mouseout"/>
                  </use>
                  <path fill="none" stroke="white" stroke-width="1.5" d="M0,-3.0v7 M-2.5,-0.5L0,-3.0L2.5,-0.5"/>
                </g>
                <g id="arrowRight" xlink:href="#dirArrow" transform="rotate(90) translate(36 -43)" onmousedown="handlePan(1,0)">
                  <use xlink:href="#rim" fill="#404040">
                        <set attributeName="fill" to="#808080" begin="arrowRight.mouseover" end="arrowRight.mouseout"/>
                  </use>
                  <path fill="none" stroke="white" stroke-width="1.5" d="M0,-3.0v7 M-2.5,-0.5L0,-3.0L2.5,-0.5"/>
                </g>
                <g id="arrowDown" xlink:href="#dirArrow" transform="rotate(180) translate(-30 -48)" onmousedown="handlePan(0,1)">
                  <use xlink:href="#rim" fill="#404040">
                        <set attributeName="fill" to="#808080" begin="arrowDown.mouseover" end="arrowDown.mouseout"/>
                  </use>
                  <path fill="none" stroke="white" stroke-width="1.5" d="M0,-3.0v7 M-2.5,-0.5L0,-3.0L2.5,-0.5"/>
                </g>
                <g id="arrowLeft" xlink:href="#dirArrow" transform="rotate(270) translate(-36 17)" onmousedown="handlePan(-1,0)">
                  <use xlink:href="#rim" fill="#404040">
                        <set attributeName="fill" to="#808080" begin="arrowLeft.mouseover" end="arrowLeft.mouseout"/>
                  </use>
                  <path fill="none" stroke="white" stroke-width="1.5" d="M0,-3.0v7 M-2.5,-0.5L0,-3.0L2.5,-0.5"/>
                </g>
        </g>
        <svg viewBox="0 0 15 15" width="100%" height="30px" preserveAspectRatio="xMaxYMin meet">
         <g id="arrow_out" transform="scale(0.3 0.3)">
          <a xlink:href="classmfem_1_1ParGridFunction__coll__graph_org.svg" target="_base">
           <rect id="button" ry="5" rx="5" y="6" x="6" height="38" width="38"
                fill="#f2f5e9" fill-opacity="0.5" stroke="#606060" stroke-width="1.0"/>
           <path id="arrow"
             d="M 11.500037,31.436501 C 11.940474,20.09759 22.043105,11.32322 32.158766,21.979434 L 37.068811,17.246167 C 37.068811,17.246167 37.088388,32 37.088388,32 L 22.160133,31.978069 C 22.160133,31.978069 26.997745,27.140456 26.997745,27.140456 C 18.528582,18.264221 13.291696,25.230495 11.500037,31.436501 z"
             style="fill:#404040;"/>
          </a>
         </g>
        </svg>
</svg>
