<?xml version="1.0" encoding="UTF-8" standalone="no"?>
<!DOCTYPE svg PUBLIC "-//W3C//DTD SVG 1.1//EN"
 "http://www.w3.org/Graphics/SVG/1.1/DTD/svg11.dtd">
<!-- Generated by graphviz version 2.30.1 (20200304.1809)
 -->
<!-- Title: mfem::MixedScalarMassIntegrator Pages: 1 -->
<svg width="270pt" height="212pt"
 viewBox="0.00 0.00 270.00 212.00" xmlns="http://www.w3.org/2000/svg" xmlns:xlink="http://www.w3.org/1999/xlink">
<g id="graph0" class="graph" transform="scale(1 1) rotate(0) translate(4 208)">
<title>mfem::MixedScalarMassIntegrator</title>
<polygon fill="white" stroke="white" points="-4,5 -4,-208 267,-208 267,5 -4,5"/>
<!-- Node1 -->
<g id="node1" class="node"><title>Node1</title>
<polygon fill="#bfbfbf" stroke="black" points="0,-0.5 0,-23.5 262,-23.5 262,-0.5 0,-0.5"/>
<text text-anchor="middle" x="131" y="-8.3" font-family="Helvetica,sans-Serif" font-size="14.00">mfem::MixedScalarMassIntegrator</text>
</g>
<!-- Node2 -->
<g id="node2" class="node"><title>Node2</title>
<g id="a_node2"><a xlink:href="classmfem_1_1MixedScalarIntegrator.html" target="_top" xlink:title="mfem::MixedScalarIntegrator">
<polygon fill="white" stroke="black" points="18,-60.5 18,-83.5 244,-83.5 244,-60.5 18,-60.5"/>
<text text-anchor="middle" x="131" y="-68.3" font-family="Helvetica,sans-Serif" font-size="14.00">mfem::MixedScalarIntegrator</text>
</a>
</g>
</g>
<!-- Node2&#45;&gt;Node1 -->
<g id="edge1" class="edge"><title>Node2&#45;&gt;Node1</title>
<path fill="none" stroke="midnightblue" d="M131,-50.1906C131,-41.1684 131,-30.9941 131,-23.5707"/>
<polygon fill="midnightblue" stroke="midnightblue" points="127.5,-50.3619 131,-60.3619 134.5,-50.3619 127.5,-50.3619"/>
</g>
<!-- Node3 -->
<g id="node3" class="node"><title>Node3</title>
<g id="a_node3"><a xlink:href="classmfem_1_1BilinearFormIntegrator.html" target="_top" xlink:title="Abstract base class BilinearFormIntegrator. ">
<polygon fill="white" stroke="black" points="15.5,-120.5 15.5,-143.5 246.5,-143.5 246.5,-120.5 15.5,-120.5"/>
<text text-anchor="middle" x="131" y="-128.3" font-family="Helvetica,sans-Serif" font-size="14.00">mfem::BilinearFormIntegrator</text>
</a>
</g>
</g>
<!-- Node3&#45;&gt;Node2 -->
<g id="edge2" class="edge"><title>Node3&#45;&gt;Node2</title>
<path fill="none" stroke="midnightblue" d="M131,-110.191C131,-101.168 131,-90.9941 131,-83.5707"/>
<polygon fill="midnightblue" stroke="midnightblue" points="127.5,-110.362 131,-120.362 134.5,-110.362 127.5,-110.362"/>
</g>
<!-- Node4 -->
<g id="node4" class="node"><title>Node4</title>
<g id="a_node4"><a xlink:href="classmfem_1_1NonlinearFormIntegrator.html" target="_top" xlink:title="mfem::NonlinearFormIntegrator">
<polygon fill="white" stroke="black" points="8,-180.5 8,-203.5 254,-203.5 254,-180.5 8,-180.5"/>
<text text-anchor="middle" x="131" y="-188.3" font-family="Helvetica,sans-Serif" font-size="14.00">mfem::NonlinearFormIntegrator</text>
</a>
</g>
</g>
<!-- Node4&#45;&gt;Node3 -->
<g id="edge3" class="edge"><title>Node4&#45;&gt;Node3</title>
<path fill="none" stroke="midnightblue" d="M131,-170.191C131,-161.168 131,-150.994 131,-143.571"/>
<polygon fill="midnightblue" stroke="midnightblue" points="127.5,-170.362 131,-180.362 134.5,-170.362 127.5,-170.362"/>
</g>
</g>
</svg>
