<?xml version="1.0" encoding="UTF-8" standalone="no"?>
<!DOCTYPE svg PUBLIC "-//W3C//DTD SVG 1.1//EN"
 "http://www.w3.org/Graphics/SVG/1.1/DTD/svg11.dtd">
<!-- Generated by graphviz version 2.30.1 (20200304.1809)
 -->
<!-- Title: mfem::NodalFiniteElement Pages: 1 -->
<svg width="411pt" height="386pt"
 viewBox="0.00 0.00 411.00 386.00" xmlns="http://www.w3.org/2000/svg" xmlns:xlink="http://www.w3.org/1999/xlink">
<g id="graph0" class="graph" transform="scale(1 1) rotate(0) translate(4 382)">
<title>mfem::NodalFiniteElement</title>
<polygon fill="white" stroke="white" points="-4,5 -4,-382 408,-382 408,5 -4,5"/>
<!-- Node1 -->
<g id="node1" class="node"><title>Node1</title>
<polygon fill="#bfbfbf" stroke="black" points="196.5,-0.5 196.5,-23.5 403.5,-23.5 403.5,-0.5 196.5,-0.5"/>
<text text-anchor="middle" x="300" y="-8.3" font-family="Helvetica,sans-Serif" font-size="14.00">mfem::NodalFiniteElement</text>
</g>
<!-- Node2 -->
<g id="node2" class="node"><title>Node2</title>
<g id="a_node2"><a xlink:href="classmfem_1_1ScalarFiniteElement.html" target="_top" xlink:title="mfem::ScalarFiniteElement">
<polygon fill="white" stroke="black" points="60,-76.5 60,-99.5 270,-99.5 270,-76.5 60,-76.5"/>
<text text-anchor="middle" x="165" y="-84.3" font-family="Helvetica,sans-Serif" font-size="14.00">mfem::ScalarFiniteElement</text>
</a>
</g>
</g>
<!-- Node2&#45;&gt;Node1 -->
<g id="edge1" class="edge"><title>Node2&#45;&gt;Node1</title>
<path fill="none" stroke="midnightblue" d="M193.408,-71.4283C219.627,-57.0565 257.853,-36.1027 280.694,-23.5827"/>
<polygon fill="midnightblue" stroke="midnightblue" points="191.429,-68.5217 184.342,-76.3976 194.794,-74.66 191.429,-68.5217"/>
</g>
<!-- Node3 -->
<g id="node3" class="node"><title>Node3</title>
<g id="a_node3"><a xlink:href="classmfem_1_1FiniteElement.html" target="_top" xlink:title="Abstract class for Finite Elements. ">
<polygon fill="white" stroke="black" points="82,-138.5 82,-161.5 248,-161.5 248,-138.5 82,-138.5"/>
<text text-anchor="middle" x="165" y="-146.3" font-family="Helvetica,sans-Serif" font-size="14.00">mfem::FiniteElement</text>
</a>
</g>
</g>
<!-- Node3&#45;&gt;Node2 -->
<g id="edge2" class="edge"><title>Node3&#45;&gt;Node2</title>
<path fill="none" stroke="midnightblue" d="M165,-128.231C165,-118.592 165,-107.544 165,-99.6339"/>
<polygon fill="midnightblue" stroke="midnightblue" points="161.5,-128.273 165,-138.273 168.5,-128.273 161.5,-128.273"/>
</g>
<!-- Node4 -->
<g id="node4" class="node"><title>Node4</title>
<g id="a_node4"><a xlink:href="classmfem_1_1IntegrationRule.html" target="_top" xlink:title="Class for an integration rule &#45; an Array of IntegrationPoint. ">
<polygon fill="white" stroke="black" points="12,-214.5 12,-237.5 190,-237.5 190,-214.5 12,-214.5"/>
<text text-anchor="middle" x="101" y="-222.3" font-family="Helvetica,sans-Serif" font-size="14.00">mfem::IntegrationRule</text>
</a>
</g>
</g>
<!-- Node4&#45;&gt;Node3 -->
<g id="edge3" class="edge"><title>Node4&#45;&gt;Node3</title>
<path fill="none" stroke="#9a32cd" stroke-dasharray="5,2" d="M116.818,-206.71C129.095,-192.515 145.684,-173.334 155.847,-161.583"/>
<polygon fill="#9a32cd" stroke="#9a32cd" points="114.064,-204.544 110.17,-214.398 119.358,-209.123 114.064,-204.544"/>
<text text-anchor="middle" x="164" y="-184.3" font-family="Helvetica,sans-Serif" font-size="14.00"> Nodes</text>
</g>
<!-- Node5 -->
<g id="node5" class="node"><title>Node5</title>
<g id="a_node5"><a xlink:href="classmfem_1_1Array.html" target="_top" xlink:title="mfem::Array\&lt; Integration\lPoint \&gt;">
<polygon fill="white" stroke="black" points="-0.5,-277 -0.5,-315 202.5,-315 202.5,-277 -0.5,-277"/>
<text text-anchor="start" x="7.5" y="-299.8" font-family="Helvetica,sans-Serif" font-size="14.00">mfem::Array&lt; Integration</text>
<text text-anchor="middle" x="101" y="-284.8" font-family="Helvetica,sans-Serif" font-size="14.00">Point &gt;</text>
</a>
</g>
</g>
<!-- Node5&#45;&gt;Node4 -->
<g id="edge4" class="edge"><title>Node5&#45;&gt;Node4</title>
<path fill="none" stroke="midnightblue" d="M101,-266.599C101,-256.442 101,-245.6 101,-237.834"/>
<polygon fill="midnightblue" stroke="midnightblue" points="97.5001,-266.777 101,-276.777 104.5,-266.777 97.5001,-266.777"/>
</g>
<!-- Node6 -->
<g id="node6" class="node"><title>Node6</title>
<g id="a_node6"><a xlink:href="classmfem_1_1BaseArray.html" target="_top" xlink:title="Base class for array container. ">
<polygon fill="white" stroke="black" points="29.5,-354.5 29.5,-377.5 172.5,-377.5 172.5,-354.5 29.5,-354.5"/>
<text text-anchor="middle" x="101" y="-362.3" font-family="Helvetica,sans-Serif" font-size="14.00">mfem::BaseArray</text>
</a>
</g>
</g>
<!-- Node6&#45;&gt;Node5 -->
<g id="edge5" class="edge"><title>Node6&#45;&gt;Node5</title>
<path fill="none" stroke="midnightblue" d="M101,-344.098C101,-334.869 101,-324.12 101,-315.223"/>
<polygon fill="midnightblue" stroke="midnightblue" points="97.5001,-344.375 101,-354.375 104.5,-344.375 97.5001,-344.375"/>
</g>
<!-- Node7 -->
<g id="node7" class="node"><title>Node7</title>
<g id="a_node7"><a xlink:href="classmfem_1_1DenseMatrix.html" target="_top" xlink:title="Data type dense matrix using column&#45;major storage. ">
<polygon fill="white" stroke="black" points="208,-214.5 208,-237.5 366,-237.5 366,-214.5 208,-214.5"/>
<text text-anchor="middle" x="287" y="-222.3" font-family="Helvetica,sans-Serif" font-size="14.00">mfem::DenseMatrix</text>
</a>
</g>
</g>
<!-- Node7&#45;&gt;Node3 -->
<g id="edge6" class="edge"><title>Node7&#45;&gt;Node3</title>
<path fill="none" stroke="#9a32cd" stroke-dasharray="5,2" d="M260.702,-209.049C237.029,-194.69 202.907,-173.993 182.447,-161.583"/>
<polygon fill="#9a32cd" stroke="#9a32cd" points="259.155,-212.204 269.52,-214.398 262.785,-206.219 259.155,-212.204"/>
<text text-anchor="middle" x="265.5" y="-184.3" font-family="Helvetica,sans-Serif" font-size="14.00"> vshape</text>
</g>
<!-- Node8 -->
<g id="node8" class="node"><title>Node8</title>
<g id="a_node8"><a xlink:href="classmfem_1_1Matrix.html" target="_top" xlink:title="Abstract data type matrix. ">
<polygon fill="white" stroke="black" points="230.5,-284.5 230.5,-307.5 343.5,-307.5 343.5,-284.5 230.5,-284.5"/>
<text text-anchor="middle" x="287" y="-292.3" font-family="Helvetica,sans-Serif" font-size="14.00">mfem::Matrix</text>
</a>
</g>
</g>
<!-- Node8&#45;&gt;Node7 -->
<g id="edge7" class="edge"><title>Node8&#45;&gt;Node7</title>
<path fill="none" stroke="midnightblue" d="M287,-274.272C287,-262.228 287,-247.549 287,-237.775"/>
<polygon fill="midnightblue" stroke="midnightblue" points="283.5,-274.375 287,-284.375 290.5,-274.375 283.5,-274.375"/>
</g>
<!-- Node9 -->
<g id="node9" class="node"><title>Node9</title>
<g id="a_node9"><a xlink:href="classmfem_1_1Operator.html" target="_top" xlink:title="Abstract operator. ">
<polygon fill="white" stroke="black" points="220.5,-354.5 220.5,-377.5 353.5,-377.5 353.5,-354.5 220.5,-354.5"/>
<text text-anchor="middle" x="287" y="-362.3" font-family="Helvetica,sans-Serif" font-size="14.00">mfem::Operator</text>
</a>
</g>
</g>
<!-- Node9&#45;&gt;Node8 -->
<g id="edge8" class="edge"><title>Node9&#45;&gt;Node8</title>
<path fill="none" stroke="midnightblue" d="M287,-344.272C287,-332.228 287,-317.549 287,-307.775"/>
<polygon fill="midnightblue" stroke="midnightblue" points="283.5,-344.375 287,-354.375 290.5,-344.375 283.5,-344.375"/>
</g>
<!-- Node10 -->
<g id="node10" class="node"><title>Node10</title>
<g id="a_node10"><a xlink:href="classmfem_1_1Vector.html" target="_top" xlink:title="Vector data type. ">
<polygon fill="white" stroke="black" points="288,-76.5 288,-99.5 402,-99.5 402,-76.5 288,-76.5"/>
<text text-anchor="middle" x="345" y="-84.3" font-family="Helvetica,sans-Serif" font-size="14.00">mfem::Vector</text>
</a>
</g>
</g>
<!-- Node10&#45;&gt;Node1 -->
<g id="edge9" class="edge"><title>Node10&#45;&gt;Node1</title>
<path fill="none" stroke="#9a32cd" stroke-dasharray="5,2" d="M333.145,-67.5045C324.595,-53.4453 313.381,-35.0044 306.435,-23.5827"/>
<polygon fill="#9a32cd" stroke="#9a32cd" points="330.366,-69.6719 338.553,-76.3976 336.347,-66.0348 330.366,-69.6719"/>
<text text-anchor="middle" x="358" y="-46.3" font-family="Helvetica,sans-Serif" font-size="14.00"> c_shape</text>
</g>
</g>
</svg>
