<?xml version="1.0" encoding="UTF-8" standalone="no"?>
<!DOCTYPE svg PUBLIC "-//W3C//DTD SVG 1.1//EN"
 "http://www.w3.org/Graphics/SVG/1.1/DTD/svg11.dtd">
<!-- Generated by graphviz version 2.30.1 (20200304.1809)
 -->
<!-- Title: mfem::ErrorEstimator Pages: 1 -->
<svg width="1038pt" height="263pt"
 viewBox="0.00 0.00 1038.00 263.00" xmlns="http://www.w3.org/2000/svg" xmlns:xlink="http://www.w3.org/1999/xlink">
<g id="graph0" class="graph" transform="scale(1 1) rotate(0) translate(4 259)">
<title>mfem::ErrorEstimator</title>
<polygon fill="white" stroke="white" points="-4,5 -4,-259 1035,-259 1035,5 -4,5"/>
<!-- Node0 -->
<g id="node1" class="node"><title>Node0</title>
<polygon fill="#bfbfbf" stroke="black" points="270.5,-105.5 270.5,-128.5 443.5,-128.5 443.5,-105.5 270.5,-105.5"/>
<text text-anchor="middle" x="357" y="-113.3" font-family="Helvetica,sans-Serif" font-size="14.00">mfem::ErrorEstimator</text>
</g>
<!-- Node2 -->
<g id="node3" class="node"><title>Node2</title>
<g id="a_node3"><a xlink:href="classmfem_1_1AnisotropicErrorEstimator.html" target="_top" xlink:title="The AnisotropicErrorEstimator class is the base class for all error estimators that compute one non&#45;n...">
<polygon fill="white" stroke="black" points="486.5,-210.5 486.5,-233.5 739.5,-233.5 739.5,-210.5 486.5,-210.5"/>
<text text-anchor="middle" x="613" y="-218.3" font-family="Helvetica,sans-Serif" font-size="14.00">mfem::AnisotropicErrorEstimator</text>
</a>
</g>
</g>
<!-- Node0&#45;&gt;Node2 -->
<g id="edge2" class="edge"><title>Node0&#45;&gt;Node2</title>
<path fill="none" stroke="midnightblue" d="M378.451,-135.408C401.421,-154.991 440.658,-185.269 480,-201 489.48,-204.791 499.601,-207.899 509.862,-210.447"/>
<polygon fill="midnightblue" stroke="midnightblue" points="380.599,-132.638 370.754,-128.724 376.009,-137.924 380.599,-132.638"/>
</g>
<!-- Node5 -->
<g id="node6" class="node"><title>Node5</title>
<g id="a_node6"><a xlink:href="classmfem_1_1KellyErrorEstimator.html" target="_top" xlink:title="The KellyErrorEstimator class provides a fast error indication strategy for smooth scalar parallel pr...">
<polygon fill="white" stroke="black" points="510,-168.5 510,-191.5 716,-191.5 716,-168.5 510,-168.5"/>
<text text-anchor="middle" x="613" y="-176.3" font-family="Helvetica,sans-Serif" font-size="14.00">mfem::KellyErrorEstimator</text>
</a>
</g>
</g>
<!-- Node0&#45;&gt;Node5 -->
<g id="edge5" class="edge"><title>Node0&#45;&gt;Node5</title>
<path fill="none" stroke="midnightblue" d="M396.515,-132.186C420.271,-141.068 451.539,-151.894 480,-159 494.634,-162.654 510.346,-165.806 525.646,-168.475"/>
<polygon fill="midnightblue" stroke="midnightblue" points="397.743,-128.909 387.151,-128.641 395.264,-135.455 397.743,-128.909"/>
</g>
<!-- Node6 -->
<g id="node7" class="node"><title>Node6</title>
<g id="a_node7"><a xlink:href="classmfem_1_1L2ZienkiewiczZhuEstimator.html" target="_top" xlink:title="The L2ZienkiewiczZhuEstimator class implements the Zienkiewicz&#45;Zhu error estimation procedure where t...">
<polygon fill="white" stroke="black" points="480,-126.5 480,-149.5 746,-149.5 746,-126.5 480,-126.5"/>
<text text-anchor="middle" x="613" y="-134.3" font-family="Helvetica,sans-Serif" font-size="14.00">mfem::L2ZienkiewiczZhuEstimator</text>
</a>
</g>
</g>
<!-- Node0&#45;&gt;Node6 -->
<g id="edge6" class="edge"><title>Node0&#45;&gt;Node6</title>
<path fill="none" stroke="midnightblue" d="M453.875,-124.927C462.356,-125.628 471.035,-126.345 479.747,-127.066"/>
<polygon fill="midnightblue" stroke="midnightblue" points="453.893,-121.416 443.639,-124.08 453.316,-128.393 453.893,-121.416"/>
</g>
<!-- Node7 -->
<g id="node8" class="node"><title>Node7</title>
<g id="a_node8"><a xlink:href="classmfem_1_1LpErrorEstimator.html" target="_top" xlink:title="The LpErrorEstimator class compares the solution to a known coefficient. ">
<polygon fill="white" stroke="black" points="517.5,-84.5 517.5,-107.5 708.5,-107.5 708.5,-84.5 517.5,-84.5"/>
<text text-anchor="middle" x="613" y="-92.3" font-family="Helvetica,sans-Serif" font-size="14.00">mfem::LpErrorEstimator</text>
</a>
</g>
</g>
<!-- Node0&#45;&gt;Node7 -->
<g id="edge7" class="edge"><title>Node0&#45;&gt;Node7</title>
<path fill="none" stroke="midnightblue" d="M453.72,-109.086C474.471,-107.37 496.411,-105.557 517.129,-103.844"/>
<polygon fill="midnightblue" stroke="midnightblue" points="453.316,-105.607 443.639,-109.92 453.893,-112.584 453.316,-105.607"/>
</g>
<!-- Node8 -->
<g id="node9" class="node"><title>Node8</title>
<g id="a_node9"><a xlink:href="classmfem_1_1LSZienkiewiczZhuEstimator.html" target="_top" xlink:title="The LSZienkiewiczZhuEstimator class implements the Zienkiewicz&#45;Zhu error estimation procedure [1...">
<polygon fill="white" stroke="black" points="480,-42.5 480,-65.5 746,-65.5 746,-42.5 480,-42.5"/>
<text text-anchor="middle" x="613" y="-50.3" font-family="Helvetica,sans-Serif" font-size="14.00">mfem::LSZienkiewiczZhuEstimator</text>
</a>
</g>
</g>
<!-- Node0&#45;&gt;Node8 -->
<g id="edge8" class="edge"><title>Node0&#45;&gt;Node8</title>
<path fill="none" stroke="midnightblue" d="M396.515,-101.814C420.271,-92.9324 451.539,-82.1058 480,-75 494.634,-71.3464 510.346,-68.1944 525.646,-65.5247"/>
<polygon fill="midnightblue" stroke="midnightblue" points="395.264,-98.5447 387.151,-105.359 397.743,-105.091 395.264,-98.5447"/>
</g>
<!-- Node9 -->
<g id="node10" class="node"><title>Node9</title>
<g id="a_node10"><a xlink:href="classmfem_1_1TMOPDeRefinerEstimator.html" target="_top" xlink:title="mfem::TMOPDeRefinerEstimator">
<polygon fill="white" stroke="black" points="488.5,-0.5 488.5,-23.5 737.5,-23.5 737.5,-0.5 488.5,-0.5"/>
<text text-anchor="middle" x="613" y="-8.3" font-family="Helvetica,sans-Serif" font-size="14.00">mfem::TMOPDeRefinerEstimator</text>
</a>
</g>
</g>
<!-- Node0&#45;&gt;Node9 -->
<g id="edge9" class="edge"><title>Node0&#45;&gt;Node9</title>
<path fill="none" stroke="midnightblue" d="M378.451,-98.5918C401.421,-79.0087 440.658,-48.7308 480,-33 489.48,-29.2093 499.601,-26.1013 509.862,-23.5533"/>
<polygon fill="midnightblue" stroke="midnightblue" points="376.009,-96.0765 370.754,-105.276 380.599,-101.362 376.009,-96.0765"/>
</g>
<!-- Node1 -->
<g id="node2" class="node"><title>Node1</title>
<g id="a_node2"><a xlink:href="classmfem_1_1AbstractErrorEstimator.html" target="_top" xlink:title="Base class for all error estimators. ">
<polygon fill="white" stroke="black" points="0.5,-105.5 0.5,-128.5 233.5,-128.5 233.5,-105.5 0.5,-105.5"/>
<text text-anchor="middle" x="117" y="-113.3" font-family="Helvetica,sans-Serif" font-size="14.00">mfem::AbstractErrorEstimator</text>
</a>
</g>
</g>
<!-- Node1&#45;&gt;Node0 -->
<g id="edge1" class="edge"><title>Node1&#45;&gt;Node0</title>
<path fill="none" stroke="midnightblue" d="M243.716,-117C252.742,-117 261.716,-117 270.43,-117"/>
<polygon fill="midnightblue" stroke="midnightblue" points="243.514,-113.5 233.514,-117 243.514,-120.5 243.514,-113.5"/>
</g>
<!-- Node3 -->
<g id="node4" class="node"><title>Node3</title>
<g id="a_node4"><a xlink:href="classmfem_1_1TMOPRefinerEstimator.html" target="_top" xlink:title="mfem::TMOPRefinerEstimator">
<polygon fill="white" stroke="black" points="791.5,-231.5 791.5,-254.5 1020.5,-254.5 1020.5,-231.5 791.5,-231.5"/>
<text text-anchor="middle" x="906" y="-239.3" font-family="Helvetica,sans-Serif" font-size="14.00">mfem::TMOPRefinerEstimator</text>
</a>
</g>
</g>
<!-- Node2&#45;&gt;Node3 -->
<g id="edge3" class="edge"><title>Node2&#45;&gt;Node3</title>
<path fill="none" stroke="midnightblue" d="M749.653,-231.789C763.606,-232.796 777.68,-233.812 791.359,-234.799"/>
<polygon fill="midnightblue" stroke="midnightblue" points="749.748,-228.287 739.522,-231.058 749.244,-235.269 749.748,-228.287"/>
</g>
<!-- Node4 -->
<g id="node5" class="node"><title>Node4</title>
<g id="a_node5"><a xlink:href="classmfem_1_1ZienkiewiczZhuEstimator.html" target="_top" xlink:title="The ZienkiewiczZhuEstimator class implements the Zienkiewicz&#45;Zhu error estimation procedure...">
<polygon fill="white" stroke="black" points="782,-189.5 782,-212.5 1030,-212.5 1030,-189.5 782,-189.5"/>
<text text-anchor="middle" x="906" y="-197.3" font-family="Helvetica,sans-Serif" font-size="14.00">mfem::ZienkiewiczZhuEstimator</text>
</a>
</g>
</g>
<!-- Node2&#45;&gt;Node4 -->
<g id="edge4" class="edge"><title>Node2&#45;&gt;Node4</title>
<path fill="none" stroke="midnightblue" d="M749.729,-212.205C760.406,-211.435 771.153,-210.659 781.739,-209.895"/>
<polygon fill="midnightblue" stroke="midnightblue" points="749.244,-208.731 739.522,-212.942 749.748,-215.713 749.244,-208.731"/>
</g>
</g>
</svg>
