<?xml version="1.0" encoding="UTF-8" standalone="no"?>
<!DOCTYPE svg PUBLIC "-//W3C//DTD SVG 1.1//EN"
 "http://www.w3.org/Graphics/SVG/1.1/DTD/svg11.dtd">
<!-- Generated by graphviz version 2.30.1 (20200304.1809)
 -->
<!-- Title: mfem::SBM2NeumannIntegrator Pages: 1 -->
<!--zoomable 349 -->
<svg id="main" version="1.1" xmlns="http://www.w3.org/2000/svg" xmlns:xlink="http://www.w3.org/1999/xlink" xml:space="preserve" onload="init(evt)">
<style type="text/css"><![CDATA[
.edge:hover path { stroke: red; }
.edge:hover polygon { stroke: red; fill: red; }
]]></style>
<script type="text/javascript"><![CDATA[
var edges = document.getElementsByTagName('g');
if (edges && edges.length) {
  for (var i=0;i<edges.length;i++) {
    if (edges[i].id.substr(0,4)=='edge') {
      edges[i].setAttribute('class','edge');
    }
  }
}
]]></script>
        <defs>
                <circle id="rim" cx="0" cy="0" r="7"/>
                <circle id="rim2" cx="0" cy="0" r="3.5"/>
                <g id="zoomPlus">
                        <use xlink:href="#rim" fill="#404040">
                                <set attributeName="fill" to="#808080" begin="zoomplus.mouseover" end="zoomplus.mouseout"/>
                        </use>
                        <path d="M-4,0h8M0,-4v8" fill="none" stroke="white" stroke-width="1.5" pointer-events="none"/>
                </g>
                <g id="zoomMin">
                        <use xlink:href="#rim" fill="#404040">
                                <set attributeName="fill" to="#808080" begin="zoomminus.mouseover" end="zoomminus.mouseout"/>
                        </use>
                        <path d="M-4,0h8" fill="none" stroke="white" stroke-width="1.5" pointer-events="none"/>
                </g>
                <g id="dirArrow">
                        <path fill="none" stroke="white" stroke-width="1.5" d="M0,-3.0v7 M-2.5,-0.5L0,-3.0L2.5,-0.5"/>
                </g>
               <g id="resetDef">
                       <use xlink:href="#rim2" fill="#404040">
                               <set attributeName="fill" to="#808080" begin="reset.mouseover" end="reset.mouseout"/>
                       </use>
               </g>
        </defs>

<script type="text/javascript">
var viewWidth = 2174;
var viewHeight = 349;
var sectionId = 'dynsection-1';
</script>
<script xlink:href="svgpan.js"/>
<svg id="graph" class="graph">
<g id="viewport">
<title>mfem::SBM2NeumannIntegrator</title>
<polygon fill="white" stroke="white" points="-4,5 -4,-344.586 2171,-344.586 2171,5 -4,5"/>
<!-- Node3 -->
<g id="node1" class="node"><title>Node3</title>
<polygon fill="#bfbfbf" stroke="black" points="1916,-174.086 1916,-197.086 2166,-197.086 2166,-174.086 1916,-174.086"/>
<text text-anchor="middle" x="2041" y="-181.886" font-family="Helvetica,sans-Serif" font-size="14.00">mfem::SBM2NeumannIntegrator</text>
</g>
<!-- Node4 -->
<g id="node2" class="node"><title>Node4</title>
<g id="a_node2"><a xlink:href="classmfem_1_1BilinearFormIntegrator.html" target="_top" xlink:title="Abstract base class BilinearFormIntegrator. ">
<polygon fill="white" stroke="black" points="1552.5,-242.086 1552.5,-265.086 1783.5,-265.086 1783.5,-242.086 1552.5,-242.086"/>
<text text-anchor="middle" x="1668" y="-249.886" font-family="Helvetica,sans-Serif" font-size="14.00">mfem::BilinearFormIntegrator</text>
</a>
</g>
</g>
<!-- Node4&#45;&gt;Node3 -->
<g id="edge1" class="edge"><title>Node4&#45;&gt;Node3</title>
<path fill="none" stroke="midnightblue" d="M1793.73,-250.464C1827.8,-247.951 1864.55,-243.697 1898,-236.586 1940.02,-227.654 1986.48,-209.236 2014.44,-197.151"/>
<polygon fill="midnightblue" stroke="midnightblue" points="1793.45,-246.975 1783.72,-251.159 1793.94,-253.958 1793.45,-246.975"/>
</g>
<!-- Node5 -->
<g id="node3" class="node"><title>Node5</title>
<g id="a_node3"><a xlink:href="classmfem_1_1NonlinearFormIntegrator.html" target="_top" xlink:title="This class is used to express the local action of a general nonlinear finite element operator...">
<polygon fill="white" stroke="black" points="1112,-242.086 1112,-265.086 1358,-265.086 1358,-242.086 1112,-242.086"/>
<text text-anchor="middle" x="1235" y="-249.886" font-family="Helvetica,sans-Serif" font-size="14.00">mfem::NonlinearFormIntegrator</text>
</a>
</g>
</g>
<!-- Node5&#45;&gt;Node4 -->
<g id="edge2" class="edge"><title>Node5&#45;&gt;Node4</title>
<path fill="none" stroke="midnightblue" d="M1368.18,-253.586C1427.03,-253.586 1495.68,-253.586 1552.33,-253.586"/>
<polygon fill="midnightblue" stroke="midnightblue" points="1368.07,-250.086 1358.07,-253.586 1368.07,-257.086 1368.07,-250.086"/>
</g>
<!-- Node6 -->
<g id="node4" class="node"><title>Node6</title>
<g id="a_node4"><a xlink:href="classmfem_1_1NURBSMeshRules.html" target="_top" xlink:title="Class for defining different integration rules on each NURBS patch. ">
<polygon fill="white" stroke="black" points="798,-270.086 798,-293.086 992,-293.086 992,-270.086 798,-270.086"/>
<text text-anchor="middle" x="895" y="-277.886" font-family="Helvetica,sans-Serif" font-size="14.00">mfem::NURBSMeshRules</text>
</a>
</g>
</g>
<!-- Node6&#45;&gt;Node5 -->
<g id="edge3" class="edge"><title>Node6&#45;&gt;Node5</title>
<path fill="none" stroke="#9a32cd" stroke-dasharray="5,2" d="M1002.56,-272.759C1037.27,-269.884 1076.06,-266.67 1111.82,-263.707"/>
<polygon fill="#9a32cd" stroke="#9a32cd" points="1002.08,-269.286 992.405,-273.6 1002.66,-276.262 1002.08,-269.286"/>
<text text-anchor="middle" x="1052" y="-275.386" font-family="Helvetica,sans-Serif" font-size="14.00"> patchRules</text>
</g>
<!-- Node7 -->
<g id="node5" class="node"><title>Node7</title>
<g id="a_node5"><a xlink:href="classmfem_1_1ceed_1_1Operator.html" target="_top" xlink:title="mfem::ceed::Operator">
<polygon fill="white" stroke="black" points="807,-228.086 807,-251.086 983,-251.086 983,-228.086 807,-228.086"/>
<text text-anchor="middle" x="895" y="-235.886" font-family="Helvetica,sans-Serif" font-size="14.00">mfem::ceed::Operator</text>
</a>
</g>
</g>
<!-- Node7&#45;&gt;Node5 -->
<g id="edge4" class="edge"><title>Node7&#45;&gt;Node5</title>
<path fill="none" stroke="#9a32cd" stroke-dasharray="5,2" d="M993.515,-241.294C1025.54,-242.056 1061.3,-243.123 1094,-244.586 1099.84,-244.847 1105.81,-245.139 1111.85,-245.452"/>
<polygon fill="#9a32cd" stroke="#9a32cd" points="993.337,-237.789 983.258,-241.057 993.175,-244.787 993.337,-237.789"/>
<text text-anchor="middle" x="1052" y="-248.386" font-family="Helvetica,sans-Serif" font-size="14.00"> ceedOp</text>
</g>
<!-- Node8 -->
<g id="node6" class="node"><title>Node8</title>
<g id="a_node6"><a xlink:href="classmfem_1_1Operator.html" target="_top" xlink:title="Abstract operator. ">
<polygon fill="white" stroke="black" points="591.5,-259.086 591.5,-282.086 724.5,-282.086 724.5,-259.086 591.5,-259.086"/>
<text text-anchor="middle" x="658" y="-266.886" font-family="Helvetica,sans-Serif" font-size="14.00">mfem::Operator</text>
</a>
</g>
</g>
<!-- Node8&#45;&gt;Node7 -->
<g id="edge5" class="edge"><title>Node8&#45;&gt;Node7</title>
<path fill="none" stroke="midnightblue" d="M734.78,-260.59C757.711,-257.565 783.078,-254.218 806.699,-251.102"/>
<polygon fill="midnightblue" stroke="midnightblue" points="734.229,-257.132 724.773,-261.91 735.145,-264.072 734.229,-257.132"/>
</g>
<!-- Node18 -->
<g id="node16" class="node"><title>Node18</title>
<g id="a_node16"><a xlink:href="classmfem_1_1Matrix.html" target="_top" xlink:title="Abstract data type matrix. ">
<polygon fill="white" stroke="black" points="838.5,-312.086 838.5,-335.086 951.5,-335.086 951.5,-312.086 838.5,-312.086"/>
<text text-anchor="middle" x="895" y="-319.886" font-family="Helvetica,sans-Serif" font-size="14.00">mfem::Matrix</text>
</a>
</g>
</g>
<!-- Node8&#45;&gt;Node18 -->
<g id="edge16" class="edge"><title>Node8&#45;&gt;Node18</title>
<path fill="none" stroke="midnightblue" d="M718.42,-284.416C743.033,-290.105 771.88,-296.723 798,-302.586 811.9,-305.706 826.945,-309.025 840.911,-312.081"/>
<polygon fill="midnightblue" stroke="midnightblue" points="719.037,-280.966 708.505,-282.121 717.459,-287.786 719.037,-280.966"/>
</g>
<!-- Node9 -->
<g id="node7" class="node"><title>Node9</title>
<g id="a_node7"><a xlink:href="classmfem_1_1IntegrationRule.html" target="_top" xlink:title="Class for an integration rule &#45; an Array of IntegrationPoint. ">
<polygon fill="white" stroke="black" points="806,-186.086 806,-209.086 984,-209.086 984,-186.086 806,-186.086"/>
<text text-anchor="middle" x="895" y="-193.886" font-family="Helvetica,sans-Serif" font-size="14.00">mfem::IntegrationRule</text>
</a>
</g>
</g>
<!-- Node9&#45;&gt;Node5 -->
<g id="edge6" class="edge"><title>Node9&#45;&gt;Node5</title>
<path fill="none" stroke="#9a32cd" stroke-dasharray="5,2" d="M994.412,-203.983C1026.64,-207.795 1062.29,-213.878 1094,-223.586 1102.55,-226.205 1103.5,-229.798 1112,-232.586 1123.44,-236.338 1135.71,-239.454 1147.9,-242.032"/>
<polygon fill="#9a32cd" stroke="#9a32cd" points="994.407,-200.46 984.079,-202.823 993.626,-207.417 994.407,-200.46"/>
<text text-anchor="middle" x="1052" y="-227.386" font-family="Helvetica,sans-Serif" font-size="14.00"> IntRule</text>
</g>
<!-- Node10 -->
<g id="node8" class="node"><title>Node10</title>
<g id="a_node8"><a xlink:href="classmfem_1_1Array.html" target="_top" xlink:title="mfem::Array\&lt; Integration\lPoint \&gt;">
<polygon fill="white" stroke="black" points="556.5,-178.586 556.5,-216.586 759.5,-216.586 759.5,-178.586 556.5,-178.586"/>
<text text-anchor="start" x="564.5" y="-201.386" font-family="Helvetica,sans-Serif" font-size="14.00">mfem::Array&lt; Integration</text>
<text text-anchor="middle" x="658" y="-186.386" font-family="Helvetica,sans-Serif" font-size="14.00">Point &gt;</text>
</a>
</g>
</g>
<!-- Node10&#45;&gt;Node9 -->
<g id="edge7" class="edge"><title>Node10&#45;&gt;Node9</title>
<path fill="none" stroke="midnightblue" d="M769.784,-197.586C781.848,-197.586 794.007,-197.586 805.75,-197.586"/>
<polygon fill="midnightblue" stroke="midnightblue" points="769.684,-194.086 759.684,-197.586 769.684,-201.086 769.684,-194.086"/>
</g>
<!-- Node11 -->
<g id="node9" class="node"><title>Node11</title>
<g id="a_node9"><a xlink:href="classmfem_1_1Memory.html" target="_top" xlink:title="mfem::Memory\&lt; Integration\lPoint \&gt;">
<polygon fill="white" stroke="black" points="260,-178.586 260,-216.586 482,-216.586 482,-178.586 260,-178.586"/>
<text text-anchor="start" x="268" y="-201.386" font-family="Helvetica,sans-Serif" font-size="14.00">mfem::Memory&lt; Integration</text>
<text text-anchor="middle" x="371" y="-186.386" font-family="Helvetica,sans-Serif" font-size="14.00">Point &gt;</text>
</a>
</g>
</g>
<!-- Node11&#45;&gt;Node10 -->
<g id="edge8" class="edge"><title>Node11&#45;&gt;Node10</title>
<path fill="none" stroke="#9a32cd" stroke-dasharray="5,2" d="M492.278,-197.586C513.639,-197.586 535.683,-197.586 556.426,-197.586"/>
<polygon fill="#9a32cd" stroke="#9a32cd" points="492.188,-194.086 482.188,-197.586 492.188,-201.086 492.188,-194.086"/>
<text text-anchor="middle" x="519" y="-201.386" font-family="Helvetica,sans-Serif" font-size="14.00"> data</text>
</g>
<!-- Node12 -->
<g id="node10" class="node"><title>Node12</title>
<g id="a_node10"><a xlink:href="classmfem_1_1IntegrationPoint.html" target="_top" xlink:title="Class for integration point with weight. ">
<polygon fill="white" stroke="black" points="0,-186.086 0,-209.086 182,-209.086 182,-186.086 0,-186.086"/>
<text text-anchor="middle" x="91" y="-193.886" font-family="Helvetica,sans-Serif" font-size="14.00">mfem::IntegrationPoint</text>
</a>
</g>
</g>
<!-- Node12&#45;&gt;Node11 -->
<g id="edge9" class="edge"><title>Node12&#45;&gt;Node11</title>
<path fill="none" stroke="#9a32cd" stroke-dasharray="5,2" d="M192.526,-197.586C214.373,-197.586 237.597,-197.586 259.796,-197.586"/>
<polygon fill="#9a32cd" stroke="#9a32cd" points="192.259,-194.086 182.259,-197.586 192.259,-201.086 192.259,-194.086"/>
<text text-anchor="middle" x="221" y="-201.386" font-family="Helvetica,sans-Serif" font-size="14.00"> h_ptr</text>
</g>
<!-- Node13 -->
<g id="node11" class="node"><title>Node13</title>
<g id="a_node11"><a xlink:href="classmfem_1_1Array.html" target="_top" xlink:title="mfem::Array\&lt; int \&gt;">
<polygon fill="white" stroke="black" points="1589,-200.086 1589,-223.086 1747,-223.086 1747,-200.086 1589,-200.086"/>
<text text-anchor="middle" x="1668" y="-207.886" font-family="Helvetica,sans-Serif" font-size="14.00">mfem::Array&lt; int &gt;</text>
</a>
</g>
</g>
<!-- Node13&#45;&gt;Node3 -->
<g id="edge10" class="edge"><title>Node13&#45;&gt;Node3</title>
<path fill="none" stroke="#9a32cd" stroke-dasharray="5,2" d="M1757.46,-205.387C1804.84,-202.066 1863.98,-197.922 1915.89,-194.284"/>
<polygon fill="#9a32cd" stroke="#9a32cd" points="1756.96,-201.913 1747.23,-206.104 1757.45,-208.896 1756.96,-201.913"/>
<text text-anchor="middle" x="1850" y="-221.386" font-family="Helvetica,sans-Serif" font-size="14.00"> cut_marker</text>
<text text-anchor="middle" x="1850" y="-206.386" font-family="Helvetica,sans-Serif" font-size="14.00">elem_marker</text>
</g>
<!-- Node14 -->
<g id="node12" class="node"><title>Node14</title>
<g id="a_node12"><a xlink:href="classmfem_1_1Memory.html" target="_top" xlink:title="mfem::Memory\&lt; int \&gt;">
<polygon fill="white" stroke="black" points="1146,-200.086 1146,-223.086 1324,-223.086 1324,-200.086 1146,-200.086"/>
<text text-anchor="middle" x="1235" y="-207.886" font-family="Helvetica,sans-Serif" font-size="14.00">mfem::Memory&lt; int &gt;</text>
</a>
</g>
</g>
<!-- Node14&#45;&gt;Node13 -->
<g id="edge11" class="edge"><title>Node14&#45;&gt;Node13</title>
<path fill="none" stroke="#9a32cd" stroke-dasharray="5,2" d="M1334.48,-211.586C1411.67,-211.586 1517.61,-211.586 1588.99,-211.586"/>
<polygon fill="#9a32cd" stroke="#9a32cd" points="1334.26,-208.086 1324.26,-211.586 1334.26,-215.086 1334.26,-208.086"/>
<text text-anchor="middle" x="1455" y="-215.386" font-family="Helvetica,sans-Serif" font-size="14.00"> data</text>
</g>
<!-- Node15 -->
<g id="node13" class="node"><title>Node15</title>
<g id="a_node13"><a xlink:href="classmfem_1_1ShiftedVectorFunctionCoefficient.html" target="_top" xlink:title="mfem::ShiftedVectorFunction\lCoefficient">
<polygon fill="white" stroke="black" points="1556,-142.586 1556,-180.586 1780,-180.586 1780,-142.586 1556,-142.586"/>
<text text-anchor="start" x="1564" y="-165.386" font-family="Helvetica,sans-Serif" font-size="14.00">mfem::ShiftedVectorFunction</text>
<text text-anchor="middle" x="1668" y="-150.386" font-family="Helvetica,sans-Serif" font-size="14.00">Coefficient</text>
</a>
</g>
</g>
<!-- Node15&#45;&gt;Node3 -->
<g id="edge12" class="edge"><title>Node15&#45;&gt;Node3</title>
<path fill="none" stroke="#9a32cd" stroke-dasharray="5,2" d="M1790.26,-163.289C1825.08,-164.321 1863.07,-165.967 1898,-168.586 1916.2,-169.951 1935.65,-171.933 1954.14,-174.066"/>
<polygon fill="#9a32cd" stroke="#9a32cd" points="1790.14,-159.785 1780.05,-163.001 1789.95,-166.782 1790.14,-159.785"/>
<text text-anchor="middle" x="1850" y="-172.386" font-family="Helvetica,sans-Serif" font-size="14.00"> vN</text>
</g>
<!-- Node16 -->
<g id="node14" class="node"><title>Node16</title>
<g id="a_node14"><a xlink:href="classmfem_1_1VectorCoefficient.html" target="_top" xlink:title="Base class for vector Coefficients that optionally depend on time and space. ">
<polygon fill="white" stroke="black" points="1140,-117.086 1140,-140.086 1330,-140.086 1330,-117.086 1140,-117.086"/>
<text text-anchor="middle" x="1235" y="-124.886" font-family="Helvetica,sans-Serif" font-size="14.00">mfem::VectorCoefficient</text>
</a>
</g>
</g>
<!-- Node16&#45;&gt;Node15 -->
<g id="edge13" class="edge"><title>Node16&#45;&gt;Node15</title>
<path fill="none" stroke="midnightblue" d="M1340.36,-136.576C1405.59,-141.571 1489.53,-147.998 1555.98,-153.086"/>
<polygon fill="midnightblue" stroke="midnightblue" points="1340.29,-133.061 1330.05,-135.787 1339.76,-140.041 1340.29,-133.061"/>
</g>
<!-- Node16&#45;&gt;Node3 -->
<g id="edge19" class="edge"><title>Node16&#45;&gt;Node3</title>
<path fill="none" stroke="#9a32cd" stroke-dasharray="5,2" d="M1340.19,-117.276C1450.81,-107.417 1630.51,-97.5478 1784,-117.586 1866.08,-128.301 1959.3,-157.566 2007.41,-173.998"/>
<polygon fill="#9a32cd" stroke="#9a32cd" points="1339.68,-113.809 1330.04,-118.199 1340.31,-120.78 1339.68,-113.809"/>
<text text-anchor="middle" x="1668" y="-121.386" font-family="Helvetica,sans-Serif" font-size="14.00"> vD</text>
</g>
<!-- Node17 -->
<g id="node15" class="node"><title>Node17</title>
<g id="a_node15"><a xlink:href="classmfem_1_1DenseMatrix.html" target="_top" xlink:title="Data type dense matrix using column&#45;major storage. ">
<polygon fill="white" stroke="black" points="1376,-302.086 1376,-325.086 1534,-325.086 1534,-302.086 1376,-302.086"/>
<text text-anchor="middle" x="1455" y="-309.886" font-family="Helvetica,sans-Serif" font-size="14.00">mfem::DenseMatrix</text>
</a>
</g>
</g>
<!-- Node17&#45;&gt;Node3 -->
<g id="edge14" class="edge"><title>Node17&#45;&gt;Node3</title>
<path fill="none" stroke="#9a32cd" stroke-dasharray="5,2" d="M1544.34,-311.806C1635.04,-307.819 1779.32,-295.426 1898,-257.586 1945.14,-242.556 1995.78,-213.343 2021.98,-197.13"/>
<polygon fill="#9a32cd" stroke="#9a32cd" points="1543.94,-308.319 1534.09,-312.231 1544.23,-315.313 1543.94,-308.319"/>
<text text-anchor="middle" x="1668" y="-329.386" font-family="Helvetica,sans-Serif" font-size="14.00"> adjJ</text>
<text text-anchor="middle" x="1668" y="-314.386" font-family="Helvetica,sans-Serif" font-size="14.00">dshape</text>
</g>
<!-- Node18&#45;&gt;Node17 -->
<g id="edge15" class="edge"><title>Node18&#45;&gt;Node17</title>
<path fill="none" stroke="midnightblue" d="M961.84,-322.406C1065.16,-320.554 1264.99,-316.973 1375.59,-314.991"/>
<polygon fill="midnightblue" stroke="midnightblue" points="961.479,-318.912 951.543,-322.591 961.604,-325.911 961.479,-318.912"/>
</g>
<!-- Node19 -->
<g id="node17" class="node"><title>Node19</title>
<g id="a_node17"><a xlink:href="classmfem_1_1Vector.html" target="_top" xlink:title="Vector data type. ">
<polygon fill="white" stroke="black" points="1611,-7.08607 1611,-30.0861 1725,-30.0861 1725,-7.08607 1611,-7.08607"/>
<text text-anchor="middle" x="1668" y="-14.8861" font-family="Helvetica,sans-Serif" font-size="14.00">mfem::Vector</text>
</a>
</g>
</g>
<!-- Node19&#45;&gt;Node3 -->
<g id="edge17" class="edge"><title>Node19&#45;&gt;Node3</title>
<path fill="none" stroke="#9a32cd" stroke-dasharray="5,2" d="M1730.23,-5.48433C1778.15,1.69993 1845.29,4.8279 1898,-19.5861 1969.58,-52.7404 2018.58,-141.605 2034.44,-173.763"/>
<polygon fill="#9a32cd" stroke="#9a32cd" points="1729.63,-2.0359 1720.3,-7.07048 1730.73,-8.94816 1729.63,-2.0359"/>
<text text-anchor="middle" x="1850" y="-83.3861" font-family="Helvetica,sans-Serif" font-size="14.00"> dshapedn</text>
<text text-anchor="middle" x="1850" y="-68.3861" font-family="Helvetica,sans-Serif" font-size="14.00">nh</text>
<text text-anchor="middle" x="1850" y="-53.3861" font-family="Helvetica,sans-Serif" font-size="14.00">nor</text>
<text text-anchor="middle" x="1850" y="-38.3861" font-family="Helvetica,sans-Serif" font-size="14.00">ni</text>
<text text-anchor="middle" x="1850" y="-23.3861" font-family="Helvetica,sans-Serif" font-size="14.00">shape</text>
</g>
<!-- Node20 -->
<g id="node18" class="node"><title>Node20</title>
<g id="a_node18"><a xlink:href="classmfem_1_1Memory.html" target="_top" xlink:title="mfem::Memory\&lt; double \&gt;">
<polygon fill="white" stroke="black" points="1130.5,-7.08607 1130.5,-30.0861 1339.5,-30.0861 1339.5,-7.08607 1130.5,-7.08607"/>
<text text-anchor="middle" x="1235" y="-14.8861" font-family="Helvetica,sans-Serif" font-size="14.00">mfem::Memory&lt; double &gt;</text>
</a>
</g>
</g>
<!-- Node20&#45;&gt;Node19 -->
<g id="edge18" class="edge"><title>Node20&#45;&gt;Node19</title>
<path fill="none" stroke="#9a32cd" stroke-dasharray="5,2" d="M1349.63,-18.5861C1433.79,-18.5861 1544.88,-18.5861 1610.83,-18.5861"/>
<polygon fill="#9a32cd" stroke="#9a32cd" points="1349.51,-15.0862 1339.51,-18.5861 1349.51,-22.0862 1349.51,-15.0862"/>
<text text-anchor="middle" x="1455" y="-22.3861" font-family="Helvetica,sans-Serif" font-size="14.00"> data</text>
</g>
</g>
</svg>
        <g id="navigator" transform="translate(0 0)" fill="#404254">
                <rect fill="#f2f5e9" fill-opacity="0.5" stroke="#606060" stroke-width=".5" x="0" y="0" width="60" height="60"/>
                <use id="zoomplus" xlink:href="#zoomPlus" x="17" y="9" onmousedown="handleZoom(evt,'in')"/>
                <use id="zoomminus" xlink:href="#zoomMin" x="42" y="9" onmousedown="handleZoom(evt,'out')"/>
                <use id="reset" xlink:href="#resetDef" x="30" y="36" onmousedown="handleReset()"/>
                <g id="arrowUp" xlink:href="#dirArrow" transform="translate(30 24)" onmousedown="handlePan(0,-1)">
                  <use xlink:href="#rim" fill="#404040">
                        <set attributeName="fill" to="#808080" begin="arrowUp.mouseover" end="arrowUp.mouseout"/>
                  </use>
                  <path fill="none" stroke="white" stroke-width="1.5" d="M0,-3.0v7 M-2.5,-0.5L0,-3.0L2.5,-0.5"/>
                </g>
                <g id="arrowRight" xlink:href="#dirArrow" transform="rotate(90) translate(36 -43)" onmousedown="handlePan(1,0)">
                  <use xlink:href="#rim" fill="#404040">
                        <set attributeName="fill" to="#808080" begin="arrowRight.mouseover" end="arrowRight.mouseout"/>
                  </use>
                  <path fill="none" stroke="white" stroke-width="1.5" d="M0,-3.0v7 M-2.5,-0.5L0,-3.0L2.5,-0.5"/>
                </g>
                <g id="arrowDown" xlink:href="#dirArrow" transform="rotate(180) translate(-30 -48)" onmousedown="handlePan(0,1)">
                  <use xlink:href="#rim" fill="#404040">
                        <set attributeName="fill" to="#808080" begin="arrowDown.mouseover" end="arrowDown.mouseout"/>
                  </use>
                  <path fill="none" stroke="white" stroke-width="1.5" d="M0,-3.0v7 M-2.5,-0.5L0,-3.0L2.5,-0.5"/>
                </g>
                <g id="arrowLeft" xlink:href="#dirArrow" transform="rotate(270) translate(-36 17)" onmousedown="handlePan(-1,0)">
                  <use xlink:href="#rim" fill="#404040">
                        <set attributeName="fill" to="#808080" begin="arrowLeft.mouseover" end="arrowLeft.mouseout"/>
                  </use>
                  <path fill="none" stroke="white" stroke-width="1.5" d="M0,-3.0v7 M-2.5,-0.5L0,-3.0L2.5,-0.5"/>
                </g>
        </g>
        <svg viewBox="0 0 15 15" width="100%" height="30px" preserveAspectRatio="xMaxYMin meet">
         <g id="arrow_out" transform="scale(0.3 0.3)">
          <a xlink:href="classmfem_1_1SBM2NeumannIntegrator__coll__graph_org.svg" target="_base">
           <rect id="button" ry="5" rx="5" y="6" x="6" height="38" width="38"
                fill="#f2f5e9" fill-opacity="0.5" stroke="#606060" stroke-width="1.0"/>
           <path id="arrow"
             d="M 11.500037,31.436501 C 11.940474,20.09759 22.043105,11.32322 32.158766,21.979434 L 37.068811,17.246167 C 37.068811,17.246167 37.088388,32 37.088388,32 L 22.160133,31.978069 C 22.160133,31.978069 26.997745,27.140456 26.997745,27.140456 C 18.528582,18.264221 13.291696,25.230495 11.500037,31.436501 z"
             style="fill:#404040;"/>
          </a>
         </g>
        </svg>
</svg>
