<?xml version="1.0" encoding="UTF-8" standalone="no"?>
<!DOCTYPE svg PUBLIC "-//W3C//DTD SVG 1.1//EN"
 "http://www.w3.org/Graphics/SVG/1.1/DTD/svg11.dtd">
<!-- Generated by graphviz version 2.30.1 (20200304.1809)
 -->
<!-- Title: mfem::TMOP_Combo_QualityMetric Pages: 1 -->
<svg width="956pt" height="452pt"
 viewBox="0.00 0.00 956.00 452.00" xmlns="http://www.w3.org/2000/svg" xmlns:xlink="http://www.w3.org/1999/xlink">
<g id="graph0" class="graph" transform="scale(1 1) rotate(0) translate(4 448)">
<title>mfem::TMOP_Combo_QualityMetric</title>
<polygon fill="white" stroke="white" points="-4,5 -4,-448 953,-448 953,5 -4,5"/>
<!-- Node0 -->
<g id="node1" class="node"><title>Node0</title>
<polygon fill="#bfbfbf" stroke="black" points="482.5,-203 482.5,-241 707.5,-241 707.5,-203 482.5,-203"/>
<text text-anchor="start" x="490.5" y="-225.8" font-family="Helvetica,sans-Serif" font-size="14.00">mfem::TMOP_Combo_Quality</text>
<text text-anchor="middle" x="595" y="-210.8" font-family="Helvetica,sans-Serif" font-size="14.00">Metric</text>
</g>
<!-- Node3 -->
<g id="node4" class="node"><title>Node3</title>
<g id="a_node4"><a xlink:href="classmfem_1_1TMOP__AMetric__126.html" target="_top" xlink:title="2D barrier Shape+Size (VS) metric (polyconvex). ">
<polygon fill="white" stroke="black" points="744,-420.5 744,-443.5 948,-443.5 948,-420.5 744,-420.5"/>
<text text-anchor="middle" x="846" y="-428.3" font-family="Helvetica,sans-Serif" font-size="14.00">mfem::TMOP_AMetric_126</text>
</a>
</g>
</g>
<!-- Node0&#45;&gt;Node3 -->
<g id="edge3" class="edge"><title>Node0&#45;&gt;Node3</title>
<path fill="none" stroke="midnightblue" d="M609.858,-250.33C632.03,-292.481 679.623,-371.02 744,-411 750.086,-414.779 756.736,-417.89 763.625,-420.45"/>
<polygon fill="midnightblue" stroke="midnightblue" points="612.834,-248.465 605.143,-241.178 606.611,-251.671 612.834,-248.465"/>
</g>
<!-- Node4 -->
<g id="node5" class="node"><title>Node4</title>
<g id="a_node5"><a xlink:href="classmfem_1_1TMOP__Metric__066.html" target="_top" xlink:title="mfem::TMOP_Metric_066">
<polygon fill="white" stroke="black" points="749,-378.5 749,-401.5 943,-401.5 943,-378.5 749,-378.5"/>
<text text-anchor="middle" x="846" y="-386.3" font-family="Helvetica,sans-Serif" font-size="14.00">mfem::TMOP_Metric_066</text>
</a>
</g>
</g>
<!-- Node0&#45;&gt;Node4 -->
<g id="edge4" class="edge"><title>Node0&#45;&gt;Node4</title>
<path fill="none" stroke="midnightblue" d="M615.25,-249.064C640.716,-282.72 688.871,-339.346 744,-369 751.098,-372.818 758.821,-375.942 766.73,-378.499"/>
<polygon fill="midnightblue" stroke="midnightblue" points="618.052,-246.966 609.274,-241.033 612.436,-251.145 618.052,-246.966"/>
</g>
<!-- Node5 -->
<g id="node6" class="node"><title>Node5</title>
<g id="a_node6"><a xlink:href="classmfem_1_1TMOP__Metric__080.html" target="_top" xlink:title="mfem::TMOP_Metric_080">
<polygon fill="white" stroke="black" points="749,-336.5 749,-359.5 943,-359.5 943,-336.5 749,-336.5"/>
<text text-anchor="middle" x="846" y="-344.3" font-family="Helvetica,sans-Serif" font-size="14.00">mfem::TMOP_Metric_080</text>
</a>
</g>
</g>
<!-- Node0&#45;&gt;Node5 -->
<g id="edge5" class="edge"><title>Node0&#45;&gt;Node5</title>
<path fill="none" stroke="midnightblue" d="M624.692,-247.887C653.002,-272.019 698.526,-307.18 744,-327 752.702,-330.793 762.129,-333.915 771.609,-336.482"/>
<polygon fill="midnightblue" stroke="midnightblue" points="626.682,-244.981 616.828,-241.088 622.104,-250.276 626.682,-244.981"/>
</g>
<!-- Node6 -->
<g id="node7" class="node"><title>Node6</title>
<g id="a_node7"><a xlink:href="classmfem_1_1TMOP__Metric__090.html" target="_top" xlink:title="2D compound barrier Shape+Size (VS) metric (balanced). ">
<polygon fill="white" stroke="black" points="749,-294.5 749,-317.5 943,-317.5 943,-294.5 749,-294.5"/>
<text text-anchor="middle" x="846" y="-302.3" font-family="Helvetica,sans-Serif" font-size="14.00">mfem::TMOP_Metric_090</text>
</a>
</g>
</g>
<!-- Node0&#45;&gt;Node6 -->
<g id="edge6" class="edge"><title>Node0&#45;&gt;Node6</title>
<path fill="none" stroke="midnightblue" d="M644.101,-245.336C672.616,-258.442 709.764,-274.27 744,-285 755.536,-288.616 768.01,-291.784 780.126,-294.491"/>
<polygon fill="midnightblue" stroke="midnightblue" points="645.322,-242.045 634.778,-241.007 642.374,-248.393 645.322,-242.045"/>
</g>
<!-- Node7 -->
<g id="node8" class="node"><title>Node7</title>
<g id="a_node8"><a xlink:href="classmfem_1_1TMOP__Metric__094.html" target="_top" xlink:title="2D compound barrier Shape+Size (VS) metric (balanced). ">
<polygon fill="white" stroke="black" points="749,-252.5 749,-275.5 943,-275.5 943,-252.5 749,-252.5"/>
<text text-anchor="middle" x="846" y="-260.3" font-family="Helvetica,sans-Serif" font-size="14.00">mfem::TMOP_Metric_094</text>
</a>
</g>
</g>
<!-- Node0&#45;&gt;Node7 -->
<g id="edge7" class="edge"><title>Node0&#45;&gt;Node7</title>
<path fill="none" stroke="midnightblue" d="M717.707,-242.529C738.019,-245.955 758.43,-249.398 776.776,-252.492"/>
<polygon fill="midnightblue" stroke="midnightblue" points="718.197,-239.062 707.754,-240.85 717.032,-245.965 718.197,-239.062"/>
</g>
<!-- Node8 -->
<g id="node9" class="node"><title>Node8</title>
<g id="a_node9"><a xlink:href="classmfem_1_1TMOP__Metric__328.html" target="_top" xlink:title="3D compound barrier Shape+Size (VS) metric (polyconvex, balanced). ">
<polygon fill="white" stroke="black" points="749,-210.5 749,-233.5 943,-233.5 943,-210.5 749,-210.5"/>
<text text-anchor="middle" x="846" y="-218.3" font-family="Helvetica,sans-Serif" font-size="14.00">mfem::TMOP_Metric_328</text>
</a>
</g>
</g>
<!-- Node0&#45;&gt;Node8 -->
<g id="edge8" class="edge"><title>Node0&#45;&gt;Node8</title>
<path fill="none" stroke="midnightblue" d="M718.061,-222C728.385,-222 738.732,-222 748.818,-222"/>
<polygon fill="midnightblue" stroke="midnightblue" points="717.754,-218.5 707.754,-222 717.754,-225.5 717.754,-218.5"/>
</g>
<!-- Node9 -->
<g id="node10" class="node"><title>Node9</title>
<g id="a_node10"><a xlink:href="classmfem_1_1TMOP__Metric__332.html" target="_top" xlink:title="3D compound barrier Shape+Size (VS) metric (polyconvex). ">
<polygon fill="white" stroke="black" points="749,-168.5 749,-191.5 943,-191.5 943,-168.5 749,-168.5"/>
<text text-anchor="middle" x="846" y="-176.3" font-family="Helvetica,sans-Serif" font-size="14.00">mfem::TMOP_Metric_332</text>
</a>
</g>
</g>
<!-- Node0&#45;&gt;Node9 -->
<g id="edge9" class="edge"><title>Node0&#45;&gt;Node9</title>
<path fill="none" stroke="midnightblue" d="M717.707,-201.471C738.019,-198.045 758.43,-194.602 776.776,-191.508"/>
<polygon fill="midnightblue" stroke="midnightblue" points="717.032,-198.035 707.754,-203.15 718.197,-204.938 717.032,-198.035"/>
</g>
<!-- Node10 -->
<g id="node11" class="node"><title>Node10</title>
<g id="a_node11"><a xlink:href="classmfem_1_1TMOP__Metric__333.html" target="_top" xlink:title="3D barrier Shape+Size (VS) metric, well&#45;posed (polyconvex). ">
<polygon fill="white" stroke="black" points="749,-126.5 749,-149.5 943,-149.5 943,-126.5 749,-126.5"/>
<text text-anchor="middle" x="846" y="-134.3" font-family="Helvetica,sans-Serif" font-size="14.00">mfem::TMOP_Metric_333</text>
</a>
</g>
</g>
<!-- Node0&#45;&gt;Node10 -->
<g id="edge10" class="edge"><title>Node0&#45;&gt;Node10</title>
<path fill="none" stroke="midnightblue" d="M644.101,-198.664C672.616,-185.558 709.764,-169.73 744,-159 755.536,-155.384 768.01,-152.216 780.126,-149.509"/>
<polygon fill="midnightblue" stroke="midnightblue" points="642.374,-195.607 634.778,-202.993 645.322,-201.955 642.374,-195.607"/>
</g>
<!-- Node11 -->
<g id="node12" class="node"><title>Node11</title>
<g id="a_node12"><a xlink:href="classmfem_1_1TMOP__Metric__334.html" target="_top" xlink:title="3D barrier Shape+Size (VS) metric, well&#45;posed (polyconvex). ">
<polygon fill="white" stroke="black" points="749,-84.5 749,-107.5 943,-107.5 943,-84.5 749,-84.5"/>
<text text-anchor="middle" x="846" y="-92.3" font-family="Helvetica,sans-Serif" font-size="14.00">mfem::TMOP_Metric_334</text>
</a>
</g>
</g>
<!-- Node0&#45;&gt;Node11 -->
<g id="edge11" class="edge"><title>Node0&#45;&gt;Node11</title>
<path fill="none" stroke="midnightblue" d="M624.692,-196.113C653.002,-171.981 698.526,-136.82 744,-117 752.702,-113.207 762.129,-110.085 771.609,-107.518"/>
<polygon fill="midnightblue" stroke="midnightblue" points="622.104,-193.724 616.828,-202.912 626.682,-199.019 622.104,-193.724"/>
</g>
<!-- Node12 -->
<g id="node13" class="node"><title>Node12</title>
<g id="a_node13"><a xlink:href="classmfem_1_1TMOP__Metric__338.html" target="_top" xlink:title="3D compound barrier Shape+Size (VS) metric (polyconvex, balanced). ">
<polygon fill="white" stroke="black" points="749,-42.5 749,-65.5 943,-65.5 943,-42.5 749,-42.5"/>
<text text-anchor="middle" x="846" y="-50.3" font-family="Helvetica,sans-Serif" font-size="14.00">mfem::TMOP_Metric_338</text>
</a>
</g>
</g>
<!-- Node0&#45;&gt;Node12 -->
<g id="edge12" class="edge"><title>Node0&#45;&gt;Node12</title>
<path fill="none" stroke="midnightblue" d="M615.25,-194.936C640.716,-161.28 688.871,-104.654 744,-75 751.098,-71.1822 758.821,-68.0576 766.73,-65.5007"/>
<polygon fill="midnightblue" stroke="midnightblue" points="612.436,-192.855 609.274,-202.967 618.052,-197.034 612.436,-192.855"/>
</g>
<!-- Node13 -->
<g id="node14" class="node"><title>Node13</title>
<g id="a_node14"><a xlink:href="classmfem_1_1TMOP__Metric__347.html" target="_top" xlink:title="3D barrier Shape+Size (VS) metric, well&#45;posed (polyconvex). ">
<polygon fill="white" stroke="black" points="749,-0.5 749,-23.5 943,-23.5 943,-0.5 749,-0.5"/>
<text text-anchor="middle" x="846" y="-8.3" font-family="Helvetica,sans-Serif" font-size="14.00">mfem::TMOP_Metric_347</text>
</a>
</g>
</g>
<!-- Node0&#45;&gt;Node13 -->
<g id="edge13" class="edge"><title>Node0&#45;&gt;Node13</title>
<path fill="none" stroke="midnightblue" d="M609.858,-193.67C632.03,-151.519 679.623,-72.9797 744,-33 750.086,-29.2206 756.736,-26.1095 763.625,-23.5503"/>
<polygon fill="midnightblue" stroke="midnightblue" points="606.611,-192.329 605.143,-202.822 612.834,-195.535 606.611,-192.329"/>
</g>
<!-- Node1 -->
<g id="node2" class="node"><title>Node1</title>
<g id="a_node2"><a xlink:href="classmfem_1_1TMOP__QualityMetric.html" target="_top" xlink:title="Abstract class for local mesh quality metrics in the target&#45;matrix optimization paradigm (TMOP) by P...">
<polygon fill="white" stroke="black" points="236,-210.5 236,-233.5 446,-233.5 446,-210.5 236,-210.5"/>
<text text-anchor="middle" x="341" y="-218.3" font-family="Helvetica,sans-Serif" font-size="14.00">mfem::TMOP_QualityMetric</text>
</a>
</g>
</g>
<!-- Node1&#45;&gt;Node0 -->
<g id="edge1" class="edge"><title>Node1&#45;&gt;Node0</title>
<path fill="none" stroke="midnightblue" d="M456.424,-222C465.071,-222 473.791,-222 482.42,-222"/>
<polygon fill="midnightblue" stroke="midnightblue" points="456.317,-218.5 446.317,-222 456.317,-225.5 456.317,-218.5"/>
</g>
<!-- Node2 -->
<g id="node3" class="node"><title>Node2</title>
<g id="a_node3"><a xlink:href="classmfem_1_1HyperelasticModel.html" target="_top" xlink:title="Abstract class for hyperelastic models. ">
<polygon fill="white" stroke="black" points="0,-210.5 0,-233.5 200,-233.5 200,-210.5 0,-210.5"/>
<text text-anchor="middle" x="100" y="-218.3" font-family="Helvetica,sans-Serif" font-size="14.00">mfem::HyperelasticModel</text>
</a>
</g>
</g>
<!-- Node2&#45;&gt;Node1 -->
<g id="edge2" class="edge"><title>Node2&#45;&gt;Node1</title>
<path fill="none" stroke="midnightblue" d="M210.457,-222C218.836,-222 227.281,-222 235.626,-222"/>
<polygon fill="midnightblue" stroke="midnightblue" points="210.281,-218.5 200.281,-222 210.281,-225.5 210.281,-218.5"/>
</g>
</g>
</svg>
