<?xml version="1.0" encoding="UTF-8" standalone="no"?>
<!DOCTYPE svg PUBLIC "-//W3C//DTD SVG 1.1//EN"
 "http://www.w3.org/Graphics/SVG/1.1/DTD/svg11.dtd">
<!-- Generated by graphviz version 2.30.1 (20200304.1809)
 -->
<!-- Title: mfem::H1_FiniteElement&lt; Geometry::CUBE, P &gt; Pages: 1 -->
<svg width="2220pt" height="259pt"
 viewBox="0.00 0.00 2220.00 259.00" xmlns="http://www.w3.org/2000/svg" xmlns:xlink="http://www.w3.org/1999/xlink">
<g id="graph0" class="graph" transform="scale(1 1) rotate(0) translate(4 255)">
<title>mfem::H1_FiniteElement&lt; Geometry::CUBE, P &gt;</title>
<polygon fill="white" stroke="white" points="-4,5 -4,-255 2217,-255 2217,5 -4,5"/>
<!-- Node1 -->
<g id="node1" class="node"><title>Node1</title>
<polygon fill="#bfbfbf" stroke="black" points="1426.5,-198 1426.5,-236 1619.5,-236 1619.5,-198 1426.5,-198"/>
<text text-anchor="start" x="1434.5" y="-220.8" font-family="Helvetica,sans-Serif" font-size="14.00">mfem::H1_FiniteElement</text>
<text text-anchor="middle" x="1523" y="-205.8" font-family="Helvetica,sans-Serif" font-size="14.00">&lt; Geometry::CUBE, P &gt;</text>
</g>
<!-- Node2 -->
<g id="node2" class="node"><title>Node2</title>
<g id="a_node2"><a xlink:href="classmfem_1_1Array.html" target="_top" xlink:title="mfem::Array\&lt; int \&gt;">
<polygon fill="white" stroke="black" points="1118,-224.5 1118,-247.5 1276,-247.5 1276,-224.5 1118,-224.5"/>
<text text-anchor="middle" x="1197" y="-232.3" font-family="Helvetica,sans-Serif" font-size="14.00">mfem::Array&lt; int &gt;</text>
</a>
</g>
</g>
<!-- Node2&#45;&gt;Node1 -->
<g id="edge1" class="edge"><title>Node2&#45;&gt;Node1</title>
<path fill="none" stroke="#9a32cd" stroke-dasharray="5,2" d="M1286,-230.839C1329.47,-228.29 1381.99,-225.211 1426.44,-222.604"/>
<polygon fill="#9a32cd" stroke="#9a32cd" points="1285.8,-227.345 1276.02,-231.425 1286.21,-234.333 1285.8,-227.345"/>
<text text-anchor="middle" x="1359" y="-232.8" font-family="Helvetica,sans-Serif" font-size="14.00"> my_dof_map</text>
</g>
<!-- Node3 -->
<g id="node3" class="node"><title>Node3</title>
<g id="a_node3"><a xlink:href="classmfem_1_1Memory.html" target="_top" xlink:title="mfem::Memory\&lt; int \&gt;">
<polygon fill="white" stroke="black" points="814,-224.5 814,-247.5 992,-247.5 992,-224.5 814,-224.5"/>
<text text-anchor="middle" x="903" y="-232.3" font-family="Helvetica,sans-Serif" font-size="14.00">mfem::Memory&lt; int &gt;</text>
</a>
</g>
</g>
<!-- Node3&#45;&gt;Node2 -->
<g id="edge2" class="edge"><title>Node3&#45;&gt;Node2</title>
<path fill="none" stroke="#9a32cd" stroke-dasharray="5,2" d="M1002.45,-236C1039.97,-236 1082.19,-236 1117.6,-236"/>
<polygon fill="#9a32cd" stroke="#9a32cd" points="1002.01,-232.5 992.006,-236 1002.01,-239.5 1002.01,-232.5"/>
<text text-anchor="middle" x="1055" y="-239.8" font-family="Helvetica,sans-Serif" font-size="14.00"> data</text>
</g>
<!-- Node4 -->
<g id="node4" class="node"><title>Node4</title>
<g id="a_node4"><a xlink:href="classmfem_1_1FiniteElement.html" target="_top" xlink:title="Abstract class for all finite elements. ">
<polygon fill="white" stroke="black" points="1114,-138.5 1114,-161.5 1280,-161.5 1280,-138.5 1114,-138.5"/>
<text text-anchor="middle" x="1197" y="-146.3" font-family="Helvetica,sans-Serif" font-size="14.00">mfem::FiniteElement</text>
</a>
</g>
</g>
<!-- Node4&#45;&gt;Node1 -->
<g id="edge3" class="edge"><title>Node4&#45;&gt;Node1</title>
<path fill="none" stroke="#9a32cd" stroke-dasharray="5,2" d="M1275.7,-163.336C1315.39,-170.425 1364.39,-179.603 1408,-189 1420.65,-191.726 1434.04,-194.822 1447.02,-197.938"/>
<polygon fill="#9a32cd" stroke="#9a32cd" points="1276.28,-159.883 1265.82,-161.579 1275.05,-166.775 1276.28,-159.883"/>
<text text-anchor="middle" x="1359" y="-207.8" font-family="Helvetica,sans-Serif" font-size="14.00"> my_fe_1d</text>
<text text-anchor="middle" x="1359" y="-192.8" font-family="Helvetica,sans-Serif" font-size="14.00">my_fe</text>
</g>
<!-- Node7 -->
<g id="node7" class="node"><title>Node7</title>
<g id="a_node7"><a xlink:href="classmfem_1_1DofToQuad.html" target="_top" xlink:title="Structure representing the matrices/tensors needed to evaluate (in reference space) the values...">
<polygon fill="white" stroke="black" points="1449,-77.5 1449,-100.5 1597,-100.5 1597,-77.5 1449,-77.5"/>
<text text-anchor="middle" x="1523" y="-85.3" font-family="Helvetica,sans-Serif" font-size="14.00">mfem::DofToQuad</text>
</a>
</g>
</g>
<!-- Node4&#45;&gt;Node7 -->
<g id="edge13" class="edge"><title>Node4&#45;&gt;Node7</title>
<path fill="none" stroke="#9a32cd" stroke-dasharray="5,2" d="M1248.22,-135.814C1267.44,-130.696 1289.64,-125.161 1310,-121 1355.77,-111.647 1407.61,-103.773 1448.58,-98.1769"/>
<polygon fill="#9a32cd" stroke="#9a32cd" points="1247.21,-132.461 1238.46,-138.443 1249.03,-139.22 1247.21,-132.461"/>
<text text-anchor="middle" x="1359" y="-124.8" font-family="Helvetica,sans-Serif" font-size="14.00"> FE</text>
</g>
<!-- Node5 -->
<g id="node5" class="node"><title>Node5</title>
<g id="a_node5"><a xlink:href="classmfem_1_1Array.html" target="_top" xlink:title="mfem::Array\&lt; mfem::\lDofToQuad *\&gt;">
<polygon fill="white" stroke="black" points="2036,-110 2036,-148 2212,-148 2212,-110 2036,-110"/>
<text text-anchor="start" x="2044" y="-132.8" font-family="Helvetica,sans-Serif" font-size="14.00">mfem::Array&lt; mfem::</text>
<text text-anchor="middle" x="2124" y="-117.8" font-family="Helvetica,sans-Serif" font-size="14.00">DofToQuad *&gt;</text>
</a>
</g>
</g>
<!-- Node5&#45;&gt;Node4 -->
<g id="edge4" class="edge"><title>Node5&#45;&gt;Node4</title>
<path fill="none" stroke="#9a32cd" stroke-dasharray="5,2" d="M2025.76,-134.69C2023.14,-134.8 2020.55,-134.904 2018,-135 1748.02,-145.179 1427.76,-148.51 1280.08,-149.551"/>
<polygon fill="#9a32cd" stroke="#9a32cd" points="2026.09,-138.179 2035.92,-134.237 2025.78,-131.186 2026.09,-138.179"/>
<text text-anchor="middle" x="1698" y="-148.8" font-family="Helvetica,sans-Serif" font-size="14.00"> dof2quad_array</text>
</g>
<!-- Node6 -->
<g id="node6" class="node"><title>Node6</title>
<g id="a_node6"><a xlink:href="classmfem_1_1Memory.html" target="_top" xlink:title="mfem::Memory\&lt; mfem\l::DofToQuad *\&gt;">
<polygon fill="white" stroke="black" points="1776,-79 1776,-117 1962,-117 1962,-79 1776,-79"/>
<text text-anchor="start" x="1784" y="-101.8" font-family="Helvetica,sans-Serif" font-size="14.00">mfem::Memory&lt; mfem</text>
<text text-anchor="middle" x="1869" y="-86.8" font-family="Helvetica,sans-Serif" font-size="14.00">::DofToQuad *&gt;</text>
</a>
</g>
</g>
<!-- Node6&#45;&gt;Node5 -->
<g id="edge5" class="edge"><title>Node6&#45;&gt;Node5</title>
<path fill="none" stroke="#9a32cd" stroke-dasharray="5,2" d="M1972,-110.498C1993.09,-113.083 2015.13,-115.783 2035.65,-118.297"/>
<polygon fill="#9a32cd" stroke="#9a32cd" points="1972.41,-107.022 1962.05,-109.279 1971.55,-113.97 1972.41,-107.022"/>
<text text-anchor="middle" x="1999" y="-119.8" font-family="Helvetica,sans-Serif" font-size="14.00"> data</text>
</g>
<!-- Node7&#45;&gt;Node6 -->
<g id="edge6" class="edge"><title>Node7&#45;&gt;Node6</title>
<path fill="none" stroke="#9a32cd" stroke-dasharray="5,2" d="M1607.67,-91.1889C1658.47,-92.5182 1723.39,-94.2167 1775.69,-95.585"/>
<polygon fill="#9a32cd" stroke="#9a32cd" points="1607.46,-87.6825 1597.37,-90.9197 1607.28,-94.6801 1607.46,-87.6825"/>
<text text-anchor="middle" x="1698" y="-99.8" font-family="Helvetica,sans-Serif" font-size="14.00"> h_ptr</text>
</g>
<!-- Node8 -->
<g id="node8" class="node"><title>Node8</title>
<g id="a_node8"><a xlink:href="classmfem_1_1IntegrationRule.html" target="_top" xlink:title="Class for an integration rule &#45; an Array of IntegrationPoint. ">
<polygon fill="white" stroke="black" points="814,-146.5 814,-169.5 992,-169.5 992,-146.5 814,-146.5"/>
<text text-anchor="middle" x="903" y="-154.3" font-family="Helvetica,sans-Serif" font-size="14.00">mfem::IntegrationRule</text>
</a>
</g>
</g>
<!-- Node8&#45;&gt;Node7 -->
<g id="edge7" class="edge"><title>Node8&#45;&gt;Node7</title>
<path fill="none" stroke="#9a32cd" stroke-dasharray="5,2" d="M988.87,-143.755C995.437,-141.78 1001.89,-139.539 1008,-137 1016.88,-133.312 1017.02,-128.44 1026,-125 1168.1,-70.5593 1349.64,-74.0169 1448.96,-81.4544"/>
<polygon fill="#9a32cd" stroke="#9a32cd" points="987.876,-140.399 979.188,-146.463 989.761,-147.14 987.876,-140.399"/>
<text text-anchor="middle" x="1197" y="-105.8" font-family="Helvetica,sans-Serif" font-size="14.00"> IntRule</text>
</g>
<!-- Node8&#45;&gt;Node4 -->
<g id="edge14" class="edge"><title>Node8&#45;&gt;Node4</title>
<path fill="none" stroke="#9a32cd" stroke-dasharray="5,2" d="M1002.1,-155.312C1038.33,-154.32 1078.98,-153.206 1113.67,-152.256"/>
<polygon fill="#9a32cd" stroke="#9a32cd" points="1001.91,-151.816 992.006,-155.589 1002.1,-158.814 1001.91,-151.816"/>
<text text-anchor="middle" x="1055" y="-158.8" font-family="Helvetica,sans-Serif" font-size="14.00"> Nodes</text>
</g>
<!-- Node9 -->
<g id="node9" class="node"><title>Node9</title>
<g id="a_node9"><a xlink:href="classmfem_1_1Array.html" target="_top" xlink:title="mfem::Array\&lt; Integration\lPoint \&gt;">
<polygon fill="white" stroke="black" points="556.5,-142 556.5,-180 759.5,-180 759.5,-142 556.5,-142"/>
<text text-anchor="start" x="564.5" y="-164.8" font-family="Helvetica,sans-Serif" font-size="14.00">mfem::Array&lt; Integration</text>
<text text-anchor="middle" x="658" y="-149.8" font-family="Helvetica,sans-Serif" font-size="14.00">Point &gt;</text>
</a>
</g>
</g>
<!-- Node9&#45;&gt;Node8 -->
<g id="edge8" class="edge"><title>Node9&#45;&gt;Node8</title>
<path fill="none" stroke="midnightblue" d="M769.783,-159.632C784.568,-159.45 799.567,-159.265 813.894,-159.088"/>
<polygon fill="midnightblue" stroke="midnightblue" points="769.547,-156.135 759.591,-159.758 769.634,-163.134 769.547,-156.135"/>
</g>
<!-- Node10 -->
<g id="node10" class="node"><title>Node10</title>
<g id="a_node10"><a xlink:href="classmfem_1_1Memory.html" target="_top" xlink:title="mfem::Memory\&lt; Integration\lPoint \&gt;">
<polygon fill="white" stroke="black" points="260,-142 260,-180 482,-180 482,-142 260,-142"/>
<text text-anchor="start" x="268" y="-164.8" font-family="Helvetica,sans-Serif" font-size="14.00">mfem::Memory&lt; Integration</text>
<text text-anchor="middle" x="371" y="-149.8" font-family="Helvetica,sans-Serif" font-size="14.00">Point &gt;</text>
</a>
</g>
</g>
<!-- Node10&#45;&gt;Node9 -->
<g id="edge9" class="edge"><title>Node10&#45;&gt;Node9</title>
<path fill="none" stroke="#9a32cd" stroke-dasharray="5,2" d="M492.278,-161C513.639,-161 535.683,-161 556.426,-161"/>
<polygon fill="#9a32cd" stroke="#9a32cd" points="492.188,-157.5 482.188,-161 492.188,-164.5 492.188,-157.5"/>
<text text-anchor="middle" x="519" y="-164.8" font-family="Helvetica,sans-Serif" font-size="14.00"> data</text>
</g>
<!-- Node11 -->
<g id="node11" class="node"><title>Node11</title>
<g id="a_node11"><a xlink:href="classmfem_1_1IntegrationPoint.html" target="_top" xlink:title="Class for integration point with weight. ">
<polygon fill="white" stroke="black" points="0,-149.5 0,-172.5 182,-172.5 182,-149.5 0,-149.5"/>
<text text-anchor="middle" x="91" y="-157.3" font-family="Helvetica,sans-Serif" font-size="14.00">mfem::IntegrationPoint</text>
</a>
</g>
</g>
<!-- Node11&#45;&gt;Node10 -->
<g id="edge10" class="edge"><title>Node11&#45;&gt;Node10</title>
<path fill="none" stroke="#9a32cd" stroke-dasharray="5,2" d="M192.526,-161C214.373,-161 237.597,-161 259.796,-161"/>
<polygon fill="#9a32cd" stroke="#9a32cd" points="192.259,-157.5 182.259,-161 192.259,-164.5 192.259,-157.5"/>
<text text-anchor="middle" x="221" y="-164.8" font-family="Helvetica,sans-Serif" font-size="14.00"> h_ptr</text>
</g>
<!-- Node12 -->
<g id="node12" class="node"><title>Node12</title>
<g id="a_node12"><a xlink:href="classmfem_1_1Array.html" target="_top" xlink:title="mfem::Array\&lt; double \&gt;">
<polygon fill="white" stroke="black" points="1102.5,-0.5 1102.5,-23.5 1291.5,-23.5 1291.5,-0.5 1102.5,-0.5"/>
<text text-anchor="middle" x="1197" y="-8.3" font-family="Helvetica,sans-Serif" font-size="14.00">mfem::Array&lt; double &gt;</text>
</a>
</g>
</g>
<!-- Node12&#45;&gt;Node7 -->
<g id="edge11" class="edge"><title>Node12&#45;&gt;Node7</title>
<path fill="none" stroke="#9a32cd" stroke-dasharray="5,2" d="M1301.82,-0.713869C1336.25,-0.0549299 1374.36,-2.72697 1408,-13 1449.86,-25.7828 1490.44,-59.452 1509.95,-77.3799"/>
<polygon fill="#9a32cd" stroke="#9a32cd" points="1301.63,2.78235 1291.73,-1.00227 1301.83,-4.21479 1301.63,2.78235"/>
<text text-anchor="middle" x="1359" y="-61.8" font-family="Helvetica,sans-Serif" font-size="14.00"> G</text>
<text text-anchor="middle" x="1359" y="-46.8" font-family="Helvetica,sans-Serif" font-size="14.00">Gt</text>
<text text-anchor="middle" x="1359" y="-31.8" font-family="Helvetica,sans-Serif" font-size="14.00">B</text>
<text text-anchor="middle" x="1359" y="-16.8" font-family="Helvetica,sans-Serif" font-size="14.00">Bt</text>
</g>
<!-- Node13 -->
<g id="node13" class="node"><title>Node13</title>
<g id="a_node13"><a xlink:href="classmfem_1_1Memory.html" target="_top" xlink:title="mfem::Memory\&lt; double \&gt;">
<polygon fill="white" stroke="black" points="798.5,-0.5 798.5,-23.5 1007.5,-23.5 1007.5,-0.5 798.5,-0.5"/>
<text text-anchor="middle" x="903" y="-8.3" font-family="Helvetica,sans-Serif" font-size="14.00">mfem::Memory&lt; double &gt;</text>
</a>
</g>
</g>
<!-- Node13&#45;&gt;Node12 -->
<g id="edge12" class="edge"><title>Node13&#45;&gt;Node12</title>
<path fill="none" stroke="#9a32cd" stroke-dasharray="5,2" d="M1017.97,-12C1045.89,-12 1075.45,-12 1102.29,-12"/>
<polygon fill="#9a32cd" stroke="#9a32cd" points="1017.77,-8.5001 1007.77,-12 1017.77,-15.5001 1017.77,-8.5001"/>
<text text-anchor="middle" x="1055" y="-15.8" font-family="Helvetica,sans-Serif" font-size="14.00"> data</text>
</g>
<!-- Node14 -->
<g id="node14" class="node"><title>Node14</title>
<g id="a_node14"><a xlink:href="classmfem_1_1DenseMatrix.html" target="_top" xlink:title="Data type dense matrix using column&#45;major storage. ">
<polygon fill="white" stroke="black" points="824,-104.5 824,-127.5 982,-127.5 982,-104.5 824,-104.5"/>
<text text-anchor="middle" x="903" y="-112.3" font-family="Helvetica,sans-Serif" font-size="14.00">mfem::DenseMatrix</text>
</a>
</g>
</g>
<!-- Node14&#45;&gt;Node4 -->
<g id="edge15" class="edge"><title>Node14&#45;&gt;Node4</title>
<path fill="none" stroke="#9a32cd" stroke-dasharray="5,2" d="M992.207,-124.813C1021.44,-127.867 1054.14,-131.425 1084,-135 1093.64,-136.154 1103.74,-137.423 1113.76,-138.719"/>
<polygon fill="#9a32cd" stroke="#9a32cd" points="992.329,-121.307 982.021,-123.755 991.606,-128.27 992.329,-121.307"/>
<text text-anchor="middle" x="1055" y="-138.8" font-family="Helvetica,sans-Serif" font-size="14.00"> vshape</text>
</g>
<!-- Node15 -->
<g id="node15" class="node"><title>Node15</title>
<g id="a_node15"><a xlink:href="classmfem_1_1Matrix.html" target="_top" xlink:title="Abstract data type matrix. ">
<polygon fill="white" stroke="black" points="601.5,-99.5 601.5,-122.5 714.5,-122.5 714.5,-99.5 601.5,-99.5"/>
<text text-anchor="middle" x="658" y="-107.3" font-family="Helvetica,sans-Serif" font-size="14.00">mfem::Matrix</text>
</a>
</g>
</g>
<!-- Node15&#45;&gt;Node14 -->
<g id="edge16" class="edge"><title>Node15&#45;&gt;Node14</title>
<path fill="none" stroke="midnightblue" d="M724.872,-112.355C755.442,-112.984 792.005,-113.737 823.952,-114.394"/>
<polygon fill="midnightblue" stroke="midnightblue" points="724.819,-108.854 714.749,-112.147 724.675,-115.852 724.819,-108.854"/>
</g>
<!-- Node16 -->
<g id="node16" class="node"><title>Node16</title>
<g id="a_node16"><a xlink:href="classmfem_1_1Operator.html" target="_top" xlink:title="Abstract operator. ">
<polygon fill="white" stroke="black" points="304.5,-99.5 304.5,-122.5 437.5,-122.5 437.5,-99.5 304.5,-99.5"/>
<text text-anchor="middle" x="371" y="-107.3" font-family="Helvetica,sans-Serif" font-size="14.00">mfem::Operator</text>
</a>
</g>
</g>
<!-- Node16&#45;&gt;Node15 -->
<g id="edge17" class="edge"><title>Node16&#45;&gt;Node15</title>
<path fill="none" stroke="midnightblue" d="M447.822,-111C496.044,-111 557.418,-111 601.19,-111"/>
<polygon fill="midnightblue" stroke="midnightblue" points="447.743,-107.5 437.743,-111 447.743,-114.5 447.743,-107.5"/>
</g>
</g>
</svg>
