<?xml version="1.0" encoding="UTF-8" standalone="no"?>
<!DOCTYPE svg PUBLIC "-//W3C//DTD SVG 1.1//EN"
 "http://www.w3.org/Graphics/SVG/1.1/DTD/svg11.dtd">
<!-- Generated by graphviz version 2.30.1 (20200304.1809)
 -->
<!-- Title: FaceIntegrator Pages: 1 -->
<!--zoomable 416 -->
<svg id="main" version="1.1" xmlns="http://www.w3.org/2000/svg" xmlns:xlink="http://www.w3.org/1999/xlink" xml:space="preserve" onload="init(evt)">
<style type="text/css"><![CDATA[
.edge:hover path { stroke: red; }
.edge:hover polygon { stroke: red; fill: red; }
]]></style>
<script type="text/javascript"><![CDATA[
var edges = document.getElementsByTagName('g');
if (edges && edges.length) {
  for (var i=0;i<edges.length;i++) {
    if (edges[i].id.substr(0,4)=='edge') {
      edges[i].setAttribute('class','edge');
    }
  }
}
]]></script>
        <defs>
                <circle id="rim" cx="0" cy="0" r="7"/>
                <circle id="rim2" cx="0" cy="0" r="3.5"/>
                <g id="zoomPlus">
                        <use xlink:href="#rim" fill="#404040">
                                <set attributeName="fill" to="#808080" begin="zoomplus.mouseover" end="zoomplus.mouseout"/>
                        </use>
                        <path d="M-4,0h8M0,-4v8" fill="none" stroke="white" stroke-width="1.5" pointer-events="none"/>
                </g>
                <g id="zoomMin">
                        <use xlink:href="#rim" fill="#404040">
                                <set attributeName="fill" to="#808080" begin="zoomminus.mouseover" end="zoomminus.mouseout"/>
                        </use>
                        <path d="M-4,0h8" fill="none" stroke="white" stroke-width="1.5" pointer-events="none"/>
                </g>
                <g id="dirArrow">
                        <path fill="none" stroke="white" stroke-width="1.5" d="M0,-3.0v7 M-2.5,-0.5L0,-3.0L2.5,-0.5"/>
                </g>
               <g id="resetDef">
                       <use xlink:href="#rim2" fill="#404040">
                               <set attributeName="fill" to="#808080" begin="reset.mouseover" end="reset.mouseout"/>
                       </use>
               </g>
        </defs>

<script type="text/javascript">
var viewWidth = 614;
var viewHeight = 416;
var sectionId = 'dynsection-1';
</script>
<script xlink:href="svgpan.js"/>
<svg id="graph" class="graph">
<g id="viewport">
<title>FaceIntegrator</title>
<polygon fill="white" stroke="white" points="-4,5 -4,-412 611,-412 611,5 -4,5"/>
<!-- Node2 -->
<g id="node1" class="node"><title>Node2</title>
<polygon fill="#bfbfbf" stroke="black" points="239.5,-0.5 239.5,-23.5 360.5,-23.5 360.5,-0.5 239.5,-0.5"/>
<text text-anchor="middle" x="300" y="-8.3" font-family="Helvetica,sans-Serif" font-size="14.00">FaceIntegrator</text>
</g>
<!-- Node3 -->
<g id="node2" class="node"><title>Node3</title>
<g id="a_node2"><a xlink:href="classmfem_1_1NonlinearFormIntegrator.html" target="_top" xlink:title="This class is used to express the local action of a general nonlinear finite element operator...">
<polygon fill="white" stroke="black" points="177,-62.5 177,-85.5 423,-85.5 423,-62.5 177,-62.5"/>
<text text-anchor="middle" x="300" y="-70.3" font-family="Helvetica,sans-Serif" font-size="14.00">mfem::NonlinearFormIntegrator</text>
</a>
</g>
</g>
<!-- Node3&#45;&gt;Node2 -->
<g id="edge1" class="edge"><title>Node3&#45;&gt;Node2</title>
<path fill="none" stroke="midnightblue" d="M300,-52.2312C300,-42.5922 300,-31.5444 300,-23.6339"/>
<polygon fill="midnightblue" stroke="midnightblue" points="296.5,-52.2732 300,-62.2732 303.5,-52.2732 296.5,-52.2732"/>
</g>
<!-- Node4 -->
<g id="node3" class="node"><title>Node4</title>
<g id="a_node3"><a xlink:href="classmfem_1_1NURBSMeshRules.html" target="_top" xlink:title="Class for defining different integration rules on each NURBS patch. ">
<polygon fill="white" stroke="black" points="0,-138.5 0,-161.5 194,-161.5 194,-138.5 0,-138.5"/>
<text text-anchor="middle" x="97" y="-146.3" font-family="Helvetica,sans-Serif" font-size="14.00">mfem::NURBSMeshRules</text>
</a>
</g>
</g>
<!-- Node4&#45;&gt;Node3 -->
<g id="edge2" class="edge"><title>Node4&#45;&gt;Node3</title>
<path fill="none" stroke="#9a32cd" stroke-dasharray="5,2" d="M132.435,-134.742C155.32,-125.661 185.794,-113.805 213,-104 230.824,-97.5763 250.876,-90.8583 267.234,-85.5077"/>
<polygon fill="#9a32cd" stroke="#9a32cd" points="131.12,-131.499 123.124,-138.45 133.71,-138.002 131.12,-131.499"/>
<text text-anchor="middle" x="254.5" y="-108.3" font-family="Helvetica,sans-Serif" font-size="14.00"> patchRules</text>
</g>
<!-- Node5 -->
<g id="node4" class="node"><title>Node5</title>
<g id="a_node4"><a xlink:href="classmfem_1_1ceed_1_1Operator.html" target="_top" xlink:title="mfem::ceed::Operator">
<polygon fill="white" stroke="black" points="212,-138.5 212,-161.5 388,-161.5 388,-138.5 212,-138.5"/>
<text text-anchor="middle" x="300" y="-146.3" font-family="Helvetica,sans-Serif" font-size="14.00">mfem::ceed::Operator</text>
</a>
</g>
</g>
<!-- Node5&#45;&gt;Node3 -->
<g id="edge3" class="edge"><title>Node5&#45;&gt;Node3</title>
<path fill="none" stroke="#9a32cd" stroke-dasharray="5,2" d="M300,-128.277C300,-114.387 300,-96.675 300,-85.5827"/>
<polygon fill="#9a32cd" stroke="#9a32cd" points="296.5,-128.398 300,-138.398 303.5,-128.398 296.5,-128.398"/>
<text text-anchor="middle" x="330" y="-108.3" font-family="Helvetica,sans-Serif" font-size="14.00"> ceedOp</text>
</g>
<!-- Node6 -->
<g id="node5" class="node"><title>Node6</title>
<g id="a_node5"><a xlink:href="classmfem_1_1Operator.html" target="_top" xlink:title="Abstract operator. ">
<polygon fill="white" stroke="black" points="233.5,-208.5 233.5,-231.5 366.5,-231.5 366.5,-208.5 233.5,-208.5"/>
<text text-anchor="middle" x="300" y="-216.3" font-family="Helvetica,sans-Serif" font-size="14.00">mfem::Operator</text>
</a>
</g>
</g>
<!-- Node6&#45;&gt;Node5 -->
<g id="edge4" class="edge"><title>Node6&#45;&gt;Node5</title>
<path fill="none" stroke="midnightblue" d="M300,-198.272C300,-186.228 300,-171.549 300,-161.775"/>
<polygon fill="midnightblue" stroke="midnightblue" points="296.5,-198.375 300,-208.375 303.5,-198.375 296.5,-198.375"/>
</g>
<!-- Node7 -->
<g id="node6" class="node"><title>Node7</title>
<g id="a_node6"><a xlink:href="classmfem_1_1IntegrationRule.html" target="_top" xlink:title="Class for an integration rule &#45; an Array of IntegrationPoint. ">
<polygon fill="white" stroke="black" points="406,-138.5 406,-161.5 584,-161.5 584,-138.5 406,-138.5"/>
<text text-anchor="middle" x="495" y="-146.3" font-family="Helvetica,sans-Serif" font-size="14.00">mfem::IntegrationRule</text>
</a>
</g>
</g>
<!-- Node7&#45;&gt;Node3 -->
<g id="edge5" class="edge"><title>Node7&#45;&gt;Node3</title>
<path fill="none" stroke="#9a32cd" stroke-dasharray="5,2" d="M457.405,-134.733C419.506,-120.351 361.892,-98.4871 327.887,-85.5827"/>
<polygon fill="#9a32cd" stroke="#9a32cd" points="456.47,-138.122 467.061,-138.398 458.954,-131.577 456.47,-138.122"/>
<text text-anchor="middle" x="441.5" y="-108.3" font-family="Helvetica,sans-Serif" font-size="14.00"> IntRule</text>
</g>
<!-- Node8 -->
<g id="node7" class="node"><title>Node8</title>
<g id="a_node7"><a xlink:href="classmfem_1_1Array.html" target="_top" xlink:title="mfem::Array\&lt; Integration\lPoint \&gt;">
<polygon fill="white" stroke="black" points="393.5,-201 393.5,-239 596.5,-239 596.5,-201 393.5,-201"/>
<text text-anchor="start" x="401.5" y="-223.8" font-family="Helvetica,sans-Serif" font-size="14.00">mfem::Array&lt; Integration</text>
<text text-anchor="middle" x="495" y="-208.8" font-family="Helvetica,sans-Serif" font-size="14.00">Point &gt;</text>
</a>
</g>
</g>
<!-- Node8&#45;&gt;Node7 -->
<g id="edge6" class="edge"><title>Node8&#45;&gt;Node7</title>
<path fill="none" stroke="midnightblue" d="M495,-190.599C495,-180.442 495,-169.6 495,-161.834"/>
<polygon fill="midnightblue" stroke="midnightblue" points="491.5,-190.777 495,-200.777 498.5,-190.777 491.5,-190.777"/>
</g>
<!-- Node9 -->
<g id="node8" class="node"><title>Node9</title>
<g id="a_node8"><a xlink:href="classmfem_1_1Memory.html" target="_top" xlink:title="mfem::Memory\&lt; Integration\lPoint \&gt;">
<polygon fill="white" stroke="black" points="384,-293 384,-331 606,-331 606,-293 384,-293"/>
<text text-anchor="start" x="392" y="-315.8" font-family="Helvetica,sans-Serif" font-size="14.00">mfem::Memory&lt; Integration</text>
<text text-anchor="middle" x="495" y="-300.8" font-family="Helvetica,sans-Serif" font-size="14.00">Point &gt;</text>
</a>
</g>
</g>
<!-- Node9&#45;&gt;Node8 -->
<g id="edge7" class="edge"><title>Node9&#45;&gt;Node8</title>
<path fill="none" stroke="#9a32cd" stroke-dasharray="5,2" d="M495,-282.548C495,-268.36 495,-251.622 495,-239.186"/>
<polygon fill="#9a32cd" stroke="#9a32cd" points="491.5,-282.787 495,-292.787 498.5,-282.787 491.5,-282.787"/>
<text text-anchor="middle" x="513.5" y="-262.3" font-family="Helvetica,sans-Serif" font-size="14.00"> data</text>
</g>
<!-- Node10 -->
<g id="node9" class="node"><title>Node10</title>
<g id="a_node9"><a xlink:href="classmfem_1_1IntegrationPoint.html" target="_top" xlink:title="Class for integration point with weight. ">
<polygon fill="white" stroke="black" points="404,-384.5 404,-407.5 586,-407.5 586,-384.5 404,-384.5"/>
<text text-anchor="middle" x="495" y="-392.3" font-family="Helvetica,sans-Serif" font-size="14.00">mfem::IntegrationPoint</text>
</a>
</g>
</g>
<!-- Node10&#45;&gt;Node9 -->
<g id="edge8" class="edge"><title>Node10&#45;&gt;Node9</title>
<path fill="none" stroke="#9a32cd" stroke-dasharray="5,2" d="M495,-374.213C495,-360.967 495,-343.968 495,-331.246"/>
<polygon fill="#9a32cd" stroke="#9a32cd" points="491.5,-374.28 495,-384.28 498.5,-374.28 491.5,-374.28"/>
<text text-anchor="middle" x="516" y="-354.3" font-family="Helvetica,sans-Serif" font-size="14.00"> h_ptr</text>
</g>
</g>
</svg>
        <g id="navigator" transform="translate(0 0)" fill="#404254">
                <rect fill="#f2f5e9" fill-opacity="0.5" stroke="#606060" stroke-width=".5" x="0" y="0" width="60" height="60"/>
                <use id="zoomplus" xlink:href="#zoomPlus" x="17" y="9" onmousedown="handleZoom(evt,'in')"/>
                <use id="zoomminus" xlink:href="#zoomMin" x="42" y="9" onmousedown="handleZoom(evt,'out')"/>
                <use id="reset" xlink:href="#resetDef" x="30" y="36" onmousedown="handleReset()"/>
                <g id="arrowUp" xlink:href="#dirArrow" transform="translate(30 24)" onmousedown="handlePan(0,-1)">
                  <use xlink:href="#rim" fill="#404040">
                        <set attributeName="fill" to="#808080" begin="arrowUp.mouseover" end="arrowUp.mouseout"/>
                  </use>
                  <path fill="none" stroke="white" stroke-width="1.5" d="M0,-3.0v7 M-2.5,-0.5L0,-3.0L2.5,-0.5"/>
                </g>
                <g id="arrowRight" xlink:href="#dirArrow" transform="rotate(90) translate(36 -43)" onmousedown="handlePan(1,0)">
                  <use xlink:href="#rim" fill="#404040">
                        <set attributeName="fill" to="#808080" begin="arrowRight.mouseover" end="arrowRight.mouseout"/>
                  </use>
                  <path fill="none" stroke="white" stroke-width="1.5" d="M0,-3.0v7 M-2.5,-0.5L0,-3.0L2.5,-0.5"/>
                </g>
                <g id="arrowDown" xlink:href="#dirArrow" transform="rotate(180) translate(-30 -48)" onmousedown="handlePan(0,1)">
                  <use xlink:href="#rim" fill="#404040">
                        <set attributeName="fill" to="#808080" begin="arrowDown.mouseover" end="arrowDown.mouseout"/>
                  </use>
                  <path fill="none" stroke="white" stroke-width="1.5" d="M0,-3.0v7 M-2.5,-0.5L0,-3.0L2.5,-0.5"/>
                </g>
                <g id="arrowLeft" xlink:href="#dirArrow" transform="rotate(270) translate(-36 17)" onmousedown="handlePan(-1,0)">
                  <use xlink:href="#rim" fill="#404040">
                        <set attributeName="fill" to="#808080" begin="arrowLeft.mouseover" end="arrowLeft.mouseout"/>
                  </use>
                  <path fill="none" stroke="white" stroke-width="1.5" d="M0,-3.0v7 M-2.5,-0.5L0,-3.0L2.5,-0.5"/>
                </g>
        </g>
        <svg viewBox="0 0 15 15" width="100%" height="30px" preserveAspectRatio="xMaxYMin meet">
         <g id="arrow_out" transform="scale(0.3 0.3)">
          <a xlink:href="classFaceIntegrator__coll__graph_org.svg" target="_base">
           <rect id="button" ry="5" rx="5" y="6" x="6" height="38" width="38"
                fill="#f2f5e9" fill-opacity="0.5" stroke="#606060" stroke-width="1.0"/>
           <path id="arrow"
             d="M 11.500037,31.436501 C 11.940474,20.09759 22.043105,11.32322 32.158766,21.979434 L 37.068811,17.246167 C 37.068811,17.246167 37.088388,32 37.088388,32 L 22.160133,31.978069 C 22.160133,31.978069 26.997745,27.140456 26.997745,27.140456 C 18.528582,18.264221 13.291696,25.230495 11.500037,31.436501 z"
             style="fill:#404040;"/>
          </a>
         </g>
        </svg>
</svg>
