<?xml version="1.0" encoding="UTF-8" standalone="no"?>
<!DOCTYPE svg PUBLIC "-//W3C//DTD SVG 1.1//EN"
 "http://www.w3.org/Graphics/SVG/1.1/DTD/svg11.dtd">
<!-- Generated by graphviz version 2.30.1 (20200304.1809)
 -->
<!-- Title: mfem::ceed::MFMassIntegrator Pages: 1 -->
<svg width="390pt" height="232pt"
 viewBox="0.00 0.00 390.00 232.00" xmlns="http://www.w3.org/2000/svg" xmlns:xlink="http://www.w3.org/1999/xlink">
<g id="graph0" class="graph" transform="scale(1 1) rotate(0) translate(4 228)">
<title>mfem::ceed::MFMassIntegrator</title>
<polygon fill="white" stroke="white" points="-4,5 -4,-228 387,-228 387,5 -4,5"/>
<!-- Node4 -->
<g id="node1" class="node"><title>Node4</title>
<polygon fill="#bfbfbf" stroke="black" points="118,-0.5 118,-23.5 358,-23.5 358,-0.5 118,-0.5"/>
<text text-anchor="middle" x="238" y="-8.3" font-family="Helvetica,sans-Serif" font-size="14.00">mfem::ceed::MFMassIntegrator</text>
</g>
<!-- Node5 -->
<g id="node2" class="node"><title>Node5</title>
<g id="a_node2"><a xlink:href="classmfem_1_1ceed_1_1MFIntegrator.html" target="_top" xlink:title="mfem::ceed::MFIntegrator">
<polygon fill="white" stroke="black" points="136,-62.5 136,-85.5 340,-85.5 340,-62.5 136,-62.5"/>
<text text-anchor="middle" x="238" y="-70.3" font-family="Helvetica,sans-Serif" font-size="14.00">mfem::ceed::MFIntegrator</text>
</a>
</g>
</g>
<!-- Node5&#45;&gt;Node4 -->
<g id="edge1" class="edge"><title>Node5&#45;&gt;Node4</title>
<path fill="none" stroke="midnightblue" d="M238,-52.2312C238,-42.5922 238,-31.5444 238,-23.6339"/>
<polygon fill="midnightblue" stroke="midnightblue" points="234.5,-52.2732 238,-62.2732 241.5,-52.2732 234.5,-52.2732"/>
</g>
<!-- Node6 -->
<g id="node3" class="node"><title>Node6</title>
<g id="a_node3"><a xlink:href="classmfem_1_1ceed_1_1Operator.html" target="_top" xlink:title="mfem::ceed::Operator">
<polygon fill="white" stroke="black" points="0,-138.5 0,-161.5 176,-161.5 176,-138.5 0,-138.5"/>
<text text-anchor="middle" x="88" y="-146.3" font-family="Helvetica,sans-Serif" font-size="14.00">mfem::ceed::Operator</text>
</a>
</g>
</g>
<!-- Node6&#45;&gt;Node5 -->
<g id="edge2" class="edge"><title>Node6&#45;&gt;Node5</title>
<path fill="none" stroke="midnightblue" d="M118.801,-133.805C147.95,-119.425 190.948,-98.2125 216.549,-85.5827"/>
<polygon fill="midnightblue" stroke="midnightblue" points="116.911,-130.834 109.491,-138.398 120.008,-137.112 116.911,-130.834"/>
</g>
<!-- Node7 -->
<g id="node4" class="node"><title>Node7</title>
<g id="a_node4"><a xlink:href="classmfem_1_1Operator.html" target="_top" xlink:title="Abstract operator. ">
<polygon fill="white" stroke="black" points="21.5,-200.5 21.5,-223.5 154.5,-223.5 154.5,-200.5 21.5,-200.5"/>
<text text-anchor="middle" x="88" y="-208.3" font-family="Helvetica,sans-Serif" font-size="14.00">mfem::Operator</text>
</a>
</g>
</g>
<!-- Node7&#45;&gt;Node6 -->
<g id="edge3" class="edge"><title>Node7&#45;&gt;Node6</title>
<path fill="none" stroke="midnightblue" d="M88,-190.231C88,-180.592 88,-169.544 88,-161.634"/>
<polygon fill="midnightblue" stroke="midnightblue" points="84.5001,-190.273 88,-200.273 91.5001,-190.273 84.5001,-190.273"/>
</g>
<!-- Node8 -->
<g id="node5" class="node"><title>Node8</title>
<g id="a_node5"><a xlink:href="structmfem_1_1ceed_1_1Coefficient.html" target="_top" xlink:title="mfem::ceed::Coefficient">
<polygon fill="white" stroke="black" points="194,-138.5 194,-161.5 382,-161.5 382,-138.5 194,-138.5"/>
<text text-anchor="middle" x="288" y="-146.3" font-family="Helvetica,sans-Serif" font-size="14.00">mfem::ceed::Coefficient</text>
</a>
</g>
</g>
<!-- Node8&#45;&gt;Node5 -->
<g id="edge4" class="edge"><title>Node8&#45;&gt;Node5</title>
<path fill="none" stroke="#9a32cd" stroke-dasharray="5,2" d="M275.101,-129.909C265.568,-115.801 252.942,-97.1143 245.15,-85.5827"/>
<polygon fill="#9a32cd" stroke="#9a32cd" points="272.338,-132.071 280.836,-138.398 278.138,-128.152 272.338,-132.071"/>
<text text-anchor="middle" x="287" y="-108.3" font-family="Helvetica,sans-Serif" font-size="14.00"> coeff</text>
</g>
</g>
</svg>
