<?xml version="1.0" encoding="UTF-8" standalone="no"?>
<!DOCTYPE svg PUBLIC "-//W3C//DTD SVG 1.1//EN"
 "http://www.w3.org/Graphics/SVG/1.1/DTD/svg11.dtd">
<!-- Generated by graphviz version 2.30.1 (20200304.1809)
 -->
<!-- Title: mfem::ceed::MixedPAConvectionIntegrator Pages: 1 -->
<svg width="258pt" height="244pt"
 viewBox="0.00 0.00 258.00 244.00" xmlns="http://www.w3.org/2000/svg" xmlns:xlink="http://www.w3.org/1999/xlink">
<g id="graph0" class="graph" transform="scale(1 1) rotate(0) translate(4 240)">
<title>mfem::ceed::MixedPAConvectionIntegrator</title>
<polygon fill="white" stroke="white" points="-4,5 -4,-240 255,-240 255,5 -4,5"/>
<!-- Node4 -->
<g id="node1" class="node"><title>Node4</title>
<polygon fill="#bfbfbf" stroke="black" points="0,-1 0,-39 250,-39 250,-1 0,-1"/>
<text text-anchor="start" x="8" y="-23.8" font-family="Helvetica,sans-Serif" font-size="14.00">mfem::ceed::MixedPAConvection</text>
<text text-anchor="middle" x="125" y="-8.8" font-family="Helvetica,sans-Serif" font-size="14.00">Integrator</text>
</g>
<!-- Node5 -->
<g id="node2" class="node"><title>Node5</title>
<g id="a_node2"><a xlink:href="classmfem_1_1ceed_1_1MixedIntegrator.html" target="_top" xlink:title="mfem::ceed::MixedIntegrator\l\&lt; PAIntegrator \&gt;">
<polygon fill="white" stroke="black" points="12.5,-77 12.5,-115 237.5,-115 237.5,-77 12.5,-77"/>
<text text-anchor="start" x="20.5" y="-99.8" font-family="Helvetica,sans-Serif" font-size="14.00">mfem::ceed::MixedIntegrator</text>
<text text-anchor="middle" x="125" y="-84.8" font-family="Helvetica,sans-Serif" font-size="14.00">&lt; PAIntegrator &gt;</text>
</a>
</g>
</g>
<!-- Node5&#45;&gt;Node4 -->
<g id="edge1" class="edge"><title>Node5&#45;&gt;Node4</title>
<path fill="none" stroke="midnightblue" d="M125,-66.7024C125,-57.4309 125,-47.3865 125,-39.0817"/>
<polygon fill="midnightblue" stroke="midnightblue" points="121.5,-66.7078 125,-76.7079 128.5,-66.7079 121.5,-66.7078"/>
</g>
<!-- Node6 -->
<g id="node3" class="node"><title>Node6</title>
<g id="a_node3"><a xlink:href="classmfem_1_1ceed_1_1Operator.html" target="_top" xlink:title="mfem::ceed::Operator">
<polygon fill="white" stroke="black" points="37,-152.5 37,-175.5 213,-175.5 213,-152.5 37,-152.5"/>
<text text-anchor="middle" x="125" y="-160.3" font-family="Helvetica,sans-Serif" font-size="14.00">mfem::ceed::Operator</text>
</a>
</g>
</g>
<!-- Node6&#45;&gt;Node5 -->
<g id="edge2" class="edge"><title>Node6&#45;&gt;Node5</title>
<path fill="none" stroke="midnightblue" d="M125,-142.274C125,-133.541 125,-123.471 125,-115.048"/>
<polygon fill="midnightblue" stroke="midnightblue" points="121.5,-142.396 125,-152.396 128.5,-142.396 121.5,-142.396"/>
</g>
<!-- Node7 -->
<g id="node4" class="node"><title>Node7</title>
<g id="a_node4"><a xlink:href="classmfem_1_1Operator.html" target="_top" xlink:title="Abstract operator. ">
<polygon fill="white" stroke="black" points="58.5,-212.5 58.5,-235.5 191.5,-235.5 191.5,-212.5 58.5,-212.5"/>
<text text-anchor="middle" x="125" y="-220.3" font-family="Helvetica,sans-Serif" font-size="14.00">mfem::Operator</text>
</a>
</g>
</g>
<!-- Node7&#45;&gt;Node6 -->
<g id="edge3" class="edge"><title>Node7&#45;&gt;Node6</title>
<path fill="none" stroke="midnightblue" d="M125,-202.191C125,-193.168 125,-182.994 125,-175.571"/>
<polygon fill="midnightblue" stroke="midnightblue" points="121.5,-202.362 125,-212.362 128.5,-202.362 121.5,-202.362"/>
</g>
</g>
</svg>
