<?xml version="1.0" encoding="UTF-8" standalone="no"?>
<!DOCTYPE svg PUBLIC "-//W3C//DTD SVG 1.1//EN"
 "http://www.w3.org/Graphics/SVG/1.1/DTD/svg11.dtd">
<!-- Generated by graphviz version 2.30.1 (20200304.1809)
 -->
<!-- Title: mfem::common::PUMPLaplacian Pages: 1 -->
<!--zoomable 430 -->
<svg id="main" version="1.1" xmlns="http://www.w3.org/2000/svg" xmlns:xlink="http://www.w3.org/1999/xlink" xml:space="preserve" onload="init(evt)">
<style type="text/css"><![CDATA[
.edge:hover path { stroke: red; }
.edge:hover polygon { stroke: red; fill: red; }
]]></style>
<script type="text/javascript"><![CDATA[
var edges = document.getElementsByTagName('g');
if (edges && edges.length) {
  for (var i=0;i<edges.length;i++) {
    if (edges[i].id.substr(0,4)=='edge') {
      edges[i].setAttribute('class','edge');
    }
  }
}
]]></script>
        <defs>
                <circle id="rim" cx="0" cy="0" r="7"/>
                <circle id="rim2" cx="0" cy="0" r="3.5"/>
                <g id="zoomPlus">
                        <use xlink:href="#rim" fill="#404040">
                                <set attributeName="fill" to="#808080" begin="zoomplus.mouseover" end="zoomplus.mouseout"/>
                        </use>
                        <path d="M-4,0h8M0,-4v8" fill="none" stroke="white" stroke-width="1.5" pointer-events="none"/>
                </g>
                <g id="zoomMin">
                        <use xlink:href="#rim" fill="#404040">
                                <set attributeName="fill" to="#808080" begin="zoomminus.mouseover" end="zoomminus.mouseout"/>
                        </use>
                        <path d="M-4,0h8" fill="none" stroke="white" stroke-width="1.5" pointer-events="none"/>
                </g>
                <g id="dirArrow">
                        <path fill="none" stroke="white" stroke-width="1.5" d="M0,-3.0v7 M-2.5,-0.5L0,-3.0L2.5,-0.5"/>
                </g>
               <g id="resetDef">
                       <use xlink:href="#rim2" fill="#404040">
                               <set attributeName="fill" to="#808080" begin="reset.mouseover" end="reset.mouseout"/>
                       </use>
               </g>
        </defs>

<script type="text/javascript">
var viewWidth = 801;
var viewHeight = 430;
var sectionId = 'dynsection-1';
</script>
<script xlink:href="svgpan.js"/>
<svg id="graph" class="graph">
<g id="viewport">
<title>mfem::common::PUMPLaplacian</title>
<polygon fill="white" stroke="white" points="-4,5 -4,-426 798,-426 798,5 -4,5"/>
<!-- Node2 -->
<g id="node1" class="node"><title>Node2</title>
<polygon fill="#bfbfbf" stroke="black" points="412,-0.5 412,-23.5 660,-23.5 660,-0.5 412,-0.5"/>
<text text-anchor="middle" x="536" y="-8.3" font-family="Helvetica,sans-Serif" font-size="14.00">mfem::common::PUMPLaplacian</text>
</g>
<!-- Node3 -->
<g id="node2" class="node"><title>Node3</title>
<g id="a_node2"><a xlink:href="classmfem_1_1NonlinearFormIntegrator.html" target="_top" xlink:title="This class is used to express the local action of a general nonlinear finite element operator...">
<polygon fill="white" stroke="black" points="177,-76.5 177,-99.5 423,-99.5 423,-76.5 177,-76.5"/>
<text text-anchor="middle" x="300" y="-84.3" font-family="Helvetica,sans-Serif" font-size="14.00">mfem::NonlinearFormIntegrator</text>
</a>
</g>
</g>
<!-- Node3&#45;&gt;Node2 -->
<g id="edge1" class="edge"><title>Node3&#45;&gt;Node2</title>
<path fill="none" stroke="midnightblue" d="M343.205,-73.4527C388.983,-59.0985 460.314,-36.7322 502.171,-23.6073"/>
<polygon fill="midnightblue" stroke="midnightblue" points="342.057,-70.1445 333.562,-76.4762 344.152,-76.8238 342.057,-70.1445"/>
</g>
<!-- Node4 -->
<g id="node3" class="node"><title>Node4</title>
<g id="a_node3"><a xlink:href="classmfem_1_1NURBSMeshRules.html" target="_top" xlink:title="Class for defining different integration rules on each NURBS patch. ">
<polygon fill="white" stroke="black" points="0,-152.5 0,-175.5 194,-175.5 194,-152.5 0,-152.5"/>
<text text-anchor="middle" x="97" y="-160.3" font-family="Helvetica,sans-Serif" font-size="14.00">mfem::NURBSMeshRules</text>
</a>
</g>
</g>
<!-- Node4&#45;&gt;Node3 -->
<g id="edge2" class="edge"><title>Node4&#45;&gt;Node3</title>
<path fill="none" stroke="#9a32cd" stroke-dasharray="5,2" d="M132.435,-148.742C155.32,-139.661 185.794,-127.805 213,-118 230.824,-111.576 250.876,-104.858 267.234,-99.5077"/>
<polygon fill="#9a32cd" stroke="#9a32cd" points="131.12,-145.499 123.124,-152.45 133.71,-152.002 131.12,-145.499"/>
<text text-anchor="middle" x="254.5" y="-122.3" font-family="Helvetica,sans-Serif" font-size="14.00"> patchRules</text>
</g>
<!-- Node5 -->
<g id="node4" class="node"><title>Node5</title>
<g id="a_node4"><a xlink:href="classmfem_1_1ceed_1_1Operator.html" target="_top" xlink:title="mfem::ceed::Operator">
<polygon fill="white" stroke="black" points="212,-152.5 212,-175.5 388,-175.5 388,-152.5 212,-152.5"/>
<text text-anchor="middle" x="300" y="-160.3" font-family="Helvetica,sans-Serif" font-size="14.00">mfem::ceed::Operator</text>
</a>
</g>
</g>
<!-- Node5&#45;&gt;Node3 -->
<g id="edge3" class="edge"><title>Node5&#45;&gt;Node3</title>
<path fill="none" stroke="#9a32cd" stroke-dasharray="5,2" d="M300,-142.277C300,-128.387 300,-110.675 300,-99.5827"/>
<polygon fill="#9a32cd" stroke="#9a32cd" points="296.5,-142.398 300,-152.398 303.5,-142.398 296.5,-142.398"/>
<text text-anchor="middle" x="330" y="-122.3" font-family="Helvetica,sans-Serif" font-size="14.00"> ceedOp</text>
</g>
<!-- Node6 -->
<g id="node5" class="node"><title>Node6</title>
<g id="a_node5"><a xlink:href="classmfem_1_1Operator.html" target="_top" xlink:title="Abstract operator. ">
<polygon fill="white" stroke="black" points="233.5,-222.5 233.5,-245.5 366.5,-245.5 366.5,-222.5 233.5,-222.5"/>
<text text-anchor="middle" x="300" y="-230.3" font-family="Helvetica,sans-Serif" font-size="14.00">mfem::Operator</text>
</a>
</g>
</g>
<!-- Node6&#45;&gt;Node5 -->
<g id="edge4" class="edge"><title>Node6&#45;&gt;Node5</title>
<path fill="none" stroke="midnightblue" d="M300,-212.272C300,-200.228 300,-185.549 300,-175.775"/>
<polygon fill="midnightblue" stroke="midnightblue" points="296.5,-212.375 300,-222.375 303.5,-212.375 296.5,-212.375"/>
</g>
<!-- Node7 -->
<g id="node6" class="node"><title>Node7</title>
<g id="a_node6"><a xlink:href="classmfem_1_1IntegrationRule.html" target="_top" xlink:title="Class for an integration rule &#45; an Array of IntegrationPoint. ">
<polygon fill="white" stroke="black" points="406,-152.5 406,-175.5 584,-175.5 584,-152.5 406,-152.5"/>
<text text-anchor="middle" x="495" y="-160.3" font-family="Helvetica,sans-Serif" font-size="14.00">mfem::IntegrationRule</text>
</a>
</g>
</g>
<!-- Node7&#45;&gt;Node3 -->
<g id="edge5" class="edge"><title>Node7&#45;&gt;Node3</title>
<path fill="none" stroke="#9a32cd" stroke-dasharray="5,2" d="M457.405,-148.733C419.506,-134.351 361.892,-112.487 327.887,-99.5827"/>
<polygon fill="#9a32cd" stroke="#9a32cd" points="456.47,-152.122 467.061,-152.398 458.954,-145.577 456.47,-152.122"/>
<text text-anchor="middle" x="442.5" y="-122.3" font-family="Helvetica,sans-Serif" font-size="14.00"> IntRule</text>
</g>
<!-- Node8 -->
<g id="node7" class="node"><title>Node8</title>
<g id="a_node7"><a xlink:href="classmfem_1_1Array.html" target="_top" xlink:title="mfem::Array\&lt; Integration\lPoint \&gt;">
<polygon fill="white" stroke="black" points="393.5,-215 393.5,-253 596.5,-253 596.5,-215 393.5,-215"/>
<text text-anchor="start" x="401.5" y="-237.8" font-family="Helvetica,sans-Serif" font-size="14.00">mfem::Array&lt; Integration</text>
<text text-anchor="middle" x="495" y="-222.8" font-family="Helvetica,sans-Serif" font-size="14.00">Point &gt;</text>
</a>
</g>
</g>
<!-- Node8&#45;&gt;Node7 -->
<g id="edge6" class="edge"><title>Node8&#45;&gt;Node7</title>
<path fill="none" stroke="midnightblue" d="M495,-204.599C495,-194.442 495,-183.6 495,-175.834"/>
<polygon fill="midnightblue" stroke="midnightblue" points="491.5,-204.777 495,-214.777 498.5,-204.777 491.5,-204.777"/>
</g>
<!-- Node9 -->
<g id="node8" class="node"><title>Node9</title>
<g id="a_node8"><a xlink:href="classmfem_1_1Memory.html" target="_top" xlink:title="mfem::Memory\&lt; Integration\lPoint \&gt;">
<polygon fill="white" stroke="black" points="384,-307 384,-345 606,-345 606,-307 384,-307"/>
<text text-anchor="start" x="392" y="-329.8" font-family="Helvetica,sans-Serif" font-size="14.00">mfem::Memory&lt; Integration</text>
<text text-anchor="middle" x="495" y="-314.8" font-family="Helvetica,sans-Serif" font-size="14.00">Point &gt;</text>
</a>
</g>
</g>
<!-- Node9&#45;&gt;Node8 -->
<g id="edge7" class="edge"><title>Node9&#45;&gt;Node8</title>
<path fill="none" stroke="#9a32cd" stroke-dasharray="5,2" d="M495,-296.548C495,-282.36 495,-265.622 495,-253.186"/>
<polygon fill="#9a32cd" stroke="#9a32cd" points="491.5,-296.787 495,-306.787 498.5,-296.787 491.5,-296.787"/>
<text text-anchor="middle" x="513.5" y="-276.3" font-family="Helvetica,sans-Serif" font-size="14.00"> data</text>
</g>
<!-- Node10 -->
<g id="node9" class="node"><title>Node10</title>
<g id="a_node9"><a xlink:href="classmfem_1_1IntegrationPoint.html" target="_top" xlink:title="Class for integration point with weight. ">
<polygon fill="white" stroke="black" points="404,-398.5 404,-421.5 586,-421.5 586,-398.5 404,-398.5"/>
<text text-anchor="middle" x="495" y="-406.3" font-family="Helvetica,sans-Serif" font-size="14.00">mfem::IntegrationPoint</text>
</a>
</g>
</g>
<!-- Node10&#45;&gt;Node9 -->
<g id="edge8" class="edge"><title>Node10&#45;&gt;Node9</title>
<path fill="none" stroke="#9a32cd" stroke-dasharray="5,2" d="M495,-388.213C495,-374.967 495,-357.968 495,-345.246"/>
<polygon fill="#9a32cd" stroke="#9a32cd" points="491.5,-388.28 495,-398.28 498.5,-388.28 491.5,-388.28"/>
<text text-anchor="middle" x="516" y="-368.3" font-family="Helvetica,sans-Serif" font-size="14.00"> h_ptr</text>
</g>
<!-- Node11 -->
<g id="node10" class="node"><title>Node11</title>
<g id="a_node10"><a xlink:href="classmfem_1_1VectorCoefficient.html" target="_top" xlink:title="Base class for vector Coefficients that optionally depend on time and space. ">
<polygon fill="white" stroke="black" points="441,-76.5 441,-99.5 631,-99.5 631,-76.5 441,-76.5"/>
<text text-anchor="middle" x="536" y="-84.3" font-family="Helvetica,sans-Serif" font-size="14.00">mfem::VectorCoefficient</text>
</a>
</g>
</g>
<!-- Node11&#45;&gt;Node2 -->
<g id="edge9" class="edge"><title>Node11&#45;&gt;Node2</title>
<path fill="none" stroke="#9a32cd" stroke-dasharray="5,2" d="M536,-66.2771C536,-52.3872 536,-34.675 536,-23.5827"/>
<polygon fill="#9a32cd" stroke="#9a32cd" points="532.5,-66.3976 536,-76.3976 539.5,-66.3976 532.5,-66.3976"/>
<text text-anchor="middle" x="557.5" y="-46.3" font-family="Helvetica,sans-Serif" font-size="14.00"> fgrad</text>
</g>
<!-- Node12 -->
<g id="node11" class="node"><title>Node12</title>
<g id="a_node11"><a xlink:href="classmfem_1_1Coefficient.html" target="_top" xlink:title="Base class Coefficients that optionally depend on space and time. These are used by the BilinearFormI...">
<polygon fill="white" stroke="black" points="649,-76.5 649,-99.5 793,-99.5 793,-76.5 649,-76.5"/>
<text text-anchor="middle" x="721" y="-84.3" font-family="Helvetica,sans-Serif" font-size="14.00">mfem::Coefficient</text>
</a>
</g>
</g>
<!-- Node12&#45;&gt;Node2 -->
<g id="edge10" class="edge"><title>Node12&#45;&gt;Node2</title>
<path fill="none" stroke="#9a32cd" stroke-dasharray="5,2" d="M684.872,-72.549C648.913,-58.1651 594.58,-36.4321 562.457,-23.5827"/>
<polygon fill="#9a32cd" stroke="#9a32cd" points="683.909,-75.9333 694.494,-76.3976 686.509,-69.434 683.909,-75.9333"/>
<text text-anchor="middle" x="664" y="-46.3" font-family="Helvetica,sans-Serif" font-size="14.00"> func</text>
</g>
</g>
</svg>
        <g id="navigator" transform="translate(0 0)" fill="#404254">
                <rect fill="#f2f5e9" fill-opacity="0.5" stroke="#606060" stroke-width=".5" x="0" y="0" width="60" height="60"/>
                <use id="zoomplus" xlink:href="#zoomPlus" x="17" y="9" onmousedown="handleZoom(evt,'in')"/>
                <use id="zoomminus" xlink:href="#zoomMin" x="42" y="9" onmousedown="handleZoom(evt,'out')"/>
                <use id="reset" xlink:href="#resetDef" x="30" y="36" onmousedown="handleReset()"/>
                <g id="arrowUp" xlink:href="#dirArrow" transform="translate(30 24)" onmousedown="handlePan(0,-1)">
                  <use xlink:href="#rim" fill="#404040">
                        <set attributeName="fill" to="#808080" begin="arrowUp.mouseover" end="arrowUp.mouseout"/>
                  </use>
                  <path fill="none" stroke="white" stroke-width="1.5" d="M0,-3.0v7 M-2.5,-0.5L0,-3.0L2.5,-0.5"/>
                </g>
                <g id="arrowRight" xlink:href="#dirArrow" transform="rotate(90) translate(36 -43)" onmousedown="handlePan(1,0)">
                  <use xlink:href="#rim" fill="#404040">
                        <set attributeName="fill" to="#808080" begin="arrowRight.mouseover" end="arrowRight.mouseout"/>
                  </use>
                  <path fill="none" stroke="white" stroke-width="1.5" d="M0,-3.0v7 M-2.5,-0.5L0,-3.0L2.5,-0.5"/>
                </g>
                <g id="arrowDown" xlink:href="#dirArrow" transform="rotate(180) translate(-30 -48)" onmousedown="handlePan(0,1)">
                  <use xlink:href="#rim" fill="#404040">
                        <set attributeName="fill" to="#808080" begin="arrowDown.mouseover" end="arrowDown.mouseout"/>
                  </use>
                  <path fill="none" stroke="white" stroke-width="1.5" d="M0,-3.0v7 M-2.5,-0.5L0,-3.0L2.5,-0.5"/>
                </g>
                <g id="arrowLeft" xlink:href="#dirArrow" transform="rotate(270) translate(-36 17)" onmousedown="handlePan(-1,0)">
                  <use xlink:href="#rim" fill="#404040">
                        <set attributeName="fill" to="#808080" begin="arrowLeft.mouseover" end="arrowLeft.mouseout"/>
                  </use>
                  <path fill="none" stroke="white" stroke-width="1.5" d="M0,-3.0v7 M-2.5,-0.5L0,-3.0L2.5,-0.5"/>
                </g>
        </g>
        <svg viewBox="0 0 15 15" width="100%" height="30px" preserveAspectRatio="xMaxYMin meet">
         <g id="arrow_out" transform="scale(0.3 0.3)">
          <a xlink:href="classmfem_1_1common_1_1PUMPLaplacian__coll__graph_org.svg" target="_base">
           <rect id="button" ry="5" rx="5" y="6" x="6" height="38" width="38"
                fill="#f2f5e9" fill-opacity="0.5" stroke="#606060" stroke-width="1.0"/>
           <path id="arrow"
             d="M 11.500037,31.436501 C 11.940474,20.09759 22.043105,11.32322 32.158766,21.979434 L 37.068811,17.246167 C 37.068811,17.246167 37.088388,32 37.088388,32 L 22.160133,31.978069 C 22.160133,31.978069 26.997745,27.140456 26.997745,27.140456 C 18.528582,18.264221 13.291696,25.230495 11.500037,31.436501 z"
             style="fill:#404040;"/>
          </a>
         </g>
        </svg>
</svg>
