<?xml version="1.0" encoding="UTF-8" standalone="no"?>
<!DOCTYPE svg PUBLIC "-//W3C//DTD SVG 1.1//EN"
 "http://www.w3.org/Graphics/SVG/1.1/DTD/svg11.dtd">
<!-- Generated by graphviz version 2.30.1 (20200304.1809)
 -->
<!-- Title: mfem::MixedScalarWeakCrossProductIntegrator Pages: 1 -->
<!--zoomable 570 -->
<svg id="main" version="1.1" xmlns="http://www.w3.org/2000/svg" xmlns:xlink="http://www.w3.org/1999/xlink" xml:space="preserve" onload="init(evt)">
<style type="text/css"><![CDATA[
.edge:hover path { stroke: red; }
.edge:hover polygon { stroke: red; fill: red; }
]]></style>
<script type="text/javascript"><![CDATA[
var edges = document.getElementsByTagName('g');
if (edges && edges.length) {
  for (var i=0;i<edges.length;i++) {
    if (edges[i].id.substr(0,4)=='edge') {
      edges[i].setAttribute('class','edge');
    }
  }
}
]]></script>
        <defs>
                <circle id="rim" cx="0" cy="0" r="7"/>
                <circle id="rim2" cx="0" cy="0" r="3.5"/>
                <g id="zoomPlus">
                        <use xlink:href="#rim" fill="#404040">
                                <set attributeName="fill" to="#808080" begin="zoomplus.mouseover" end="zoomplus.mouseout"/>
                        </use>
                        <path d="M-4,0h8M0,-4v8" fill="none" stroke="white" stroke-width="1.5" pointer-events="none"/>
                </g>
                <g id="zoomMin">
                        <use xlink:href="#rim" fill="#404040">
                                <set attributeName="fill" to="#808080" begin="zoomminus.mouseover" end="zoomminus.mouseout"/>
                        </use>
                        <path d="M-4,0h8" fill="none" stroke="white" stroke-width="1.5" pointer-events="none"/>
                </g>
                <g id="dirArrow">
                        <path fill="none" stroke="white" stroke-width="1.5" d="M0,-3.0v7 M-2.5,-0.5L0,-3.0L2.5,-0.5"/>
                </g>
               <g id="resetDef">
                       <use xlink:href="#rim2" fill="#404040">
                               <set attributeName="fill" to="#808080" begin="reset.mouseover" end="reset.mouseout"/>
                       </use>
               </g>
        </defs>

<script type="text/javascript">
var viewWidth = 632;
var viewHeight = 570;
var sectionId = 'dynsection-1';
</script>
<script xlink:href="svgpan.js"/>
<svg id="graph" class="graph">
<g id="viewport">
<title>mfem::MixedScalarWeakCrossProductIntegrator</title>
<polygon fill="white" stroke="white" points="-4,5 -4,-566 629,-566 629,5 -4,5"/>
<!-- Node4 -->
<g id="node1" class="node"><title>Node4</title>
<polygon fill="#bfbfbf" stroke="black" points="354.5,-1 354.5,-39 587.5,-39 587.5,-1 354.5,-1"/>
<text text-anchor="start" x="362.5" y="-23.8" font-family="Helvetica,sans-Serif" font-size="14.00">mfem::MixedScalarWeakCross</text>
<text text-anchor="middle" x="471" y="-8.8" font-family="Helvetica,sans-Serif" font-size="14.00">ProductIntegrator</text>
</g>
<!-- Node5 -->
<g id="node2" class="node"><title>Node5</title>
<g id="a_node2"><a xlink:href="classmfem_1_1MixedScalarVectorIntegrator.html" target="_top" xlink:title="mfem::MixedScalarVectorIntegrator">
<polygon fill="white" stroke="black" points="335,-78.5 335,-101.5 607,-101.5 607,-78.5 335,-78.5"/>
<text text-anchor="middle" x="471" y="-86.3" font-family="Helvetica,sans-Serif" font-size="14.00">mfem::MixedScalarVectorIntegrator</text>
</a>
</g>
</g>
<!-- Node5&#45;&gt;Node4 -->
<g id="edge1" class="edge"><title>Node5&#45;&gt;Node4</title>
<path fill="none" stroke="midnightblue" d="M471,-68.098C471,-58.8689 471,-48.1198 471,-39.2228"/>
<polygon fill="midnightblue" stroke="midnightblue" points="467.5,-68.375 471,-78.375 474.5,-68.375 467.5,-68.375"/>
</g>
<!-- Node6 -->
<g id="node3" class="node"><title>Node6</title>
<g id="a_node3"><a xlink:href="classmfem_1_1BilinearFormIntegrator.html" target="_top" xlink:title="Abstract base class BilinearFormIntegrator. ">
<polygon fill="white" stroke="black" points="184.5,-154.5 184.5,-177.5 415.5,-177.5 415.5,-154.5 184.5,-154.5"/>
<text text-anchor="middle" x="300" y="-162.3" font-family="Helvetica,sans-Serif" font-size="14.00">mfem::BilinearFormIntegrator</text>
</a>
</g>
</g>
<!-- Node6&#45;&gt;Node5 -->
<g id="edge2" class="edge"><title>Node6&#45;&gt;Node5</title>
<path fill="none" stroke="midnightblue" d="M333.821,-150.364C367.061,-135.98 416.98,-114.377 446.545,-101.583"/>
<polygon fill="midnightblue" stroke="midnightblue" points="332.288,-147.214 324.5,-154.398 335.068,-153.638 332.288,-147.214"/>
</g>
<!-- Node7 -->
<g id="node4" class="node"><title>Node7</title>
<g id="a_node4"><a xlink:href="classmfem_1_1NonlinearFormIntegrator.html" target="_top" xlink:title="This class is used to express the local action of a general nonlinear finite element operator...">
<polygon fill="white" stroke="black" points="177,-216.5 177,-239.5 423,-239.5 423,-216.5 177,-216.5"/>
<text text-anchor="middle" x="300" y="-224.3" font-family="Helvetica,sans-Serif" font-size="14.00">mfem::NonlinearFormIntegrator</text>
</a>
</g>
</g>
<!-- Node7&#45;&gt;Node6 -->
<g id="edge3" class="edge"><title>Node7&#45;&gt;Node6</title>
<path fill="none" stroke="midnightblue" d="M300,-206.231C300,-196.592 300,-185.544 300,-177.634"/>
<polygon fill="midnightblue" stroke="midnightblue" points="296.5,-206.273 300,-216.273 303.5,-206.273 296.5,-206.273"/>
</g>
<!-- Node8 -->
<g id="node5" class="node"><title>Node8</title>
<g id="a_node5"><a xlink:href="classmfem_1_1NURBSMeshRules.html" target="_top" xlink:title="Class for defining different integration rules on each NURBS patch. ">
<polygon fill="white" stroke="black" points="0,-292.5 0,-315.5 194,-315.5 194,-292.5 0,-292.5"/>
<text text-anchor="middle" x="97" y="-300.3" font-family="Helvetica,sans-Serif" font-size="14.00">mfem::NURBSMeshRules</text>
</a>
</g>
</g>
<!-- Node8&#45;&gt;Node7 -->
<g id="edge4" class="edge"><title>Node8&#45;&gt;Node7</title>
<path fill="none" stroke="#9a32cd" stroke-dasharray="5,2" d="M132.435,-288.742C155.32,-279.661 185.794,-267.805 213,-258 230.824,-251.576 250.876,-244.858 267.234,-239.508"/>
<polygon fill="#9a32cd" stroke="#9a32cd" points="131.12,-285.499 123.124,-292.45 133.71,-292.002 131.12,-285.499"/>
<text text-anchor="middle" x="254.5" y="-262.3" font-family="Helvetica,sans-Serif" font-size="14.00"> patchRules</text>
</g>
<!-- Node9 -->
<g id="node6" class="node"><title>Node9</title>
<g id="a_node6"><a xlink:href="classmfem_1_1ceed_1_1Operator.html" target="_top" xlink:title="mfem::ceed::Operator">
<polygon fill="white" stroke="black" points="212,-292.5 212,-315.5 388,-315.5 388,-292.5 212,-292.5"/>
<text text-anchor="middle" x="300" y="-300.3" font-family="Helvetica,sans-Serif" font-size="14.00">mfem::ceed::Operator</text>
</a>
</g>
</g>
<!-- Node9&#45;&gt;Node7 -->
<g id="edge5" class="edge"><title>Node9&#45;&gt;Node7</title>
<path fill="none" stroke="#9a32cd" stroke-dasharray="5,2" d="M300,-282.277C300,-268.387 300,-250.675 300,-239.583"/>
<polygon fill="#9a32cd" stroke="#9a32cd" points="296.5,-282.398 300,-292.398 303.5,-282.398 296.5,-282.398"/>
<text text-anchor="middle" x="330" y="-262.3" font-family="Helvetica,sans-Serif" font-size="14.00"> ceedOp</text>
</g>
<!-- Node10 -->
<g id="node7" class="node"><title>Node10</title>
<g id="a_node7"><a xlink:href="classmfem_1_1Operator.html" target="_top" xlink:title="Abstract operator. ">
<polygon fill="white" stroke="black" points="233.5,-362.5 233.5,-385.5 366.5,-385.5 366.5,-362.5 233.5,-362.5"/>
<text text-anchor="middle" x="300" y="-370.3" font-family="Helvetica,sans-Serif" font-size="14.00">mfem::Operator</text>
</a>
</g>
</g>
<!-- Node10&#45;&gt;Node9 -->
<g id="edge6" class="edge"><title>Node10&#45;&gt;Node9</title>
<path fill="none" stroke="midnightblue" d="M300,-352.272C300,-340.228 300,-325.549 300,-315.775"/>
<polygon fill="midnightblue" stroke="midnightblue" points="296.5,-352.375 300,-362.375 303.5,-352.375 296.5,-352.375"/>
</g>
<!-- Node11 -->
<g id="node8" class="node"><title>Node11</title>
<g id="a_node8"><a xlink:href="classmfem_1_1IntegrationRule.html" target="_top" xlink:title="Class for an integration rule &#45; an Array of IntegrationPoint. ">
<polygon fill="white" stroke="black" points="406,-292.5 406,-315.5 584,-315.5 584,-292.5 406,-292.5"/>
<text text-anchor="middle" x="495" y="-300.3" font-family="Helvetica,sans-Serif" font-size="14.00">mfem::IntegrationRule</text>
</a>
</g>
</g>
<!-- Node11&#45;&gt;Node7 -->
<g id="edge7" class="edge"><title>Node11&#45;&gt;Node7</title>
<path fill="none" stroke="#9a32cd" stroke-dasharray="5,2" d="M457.405,-288.733C419.506,-274.351 361.892,-252.487 327.887,-239.583"/>
<polygon fill="#9a32cd" stroke="#9a32cd" points="456.47,-292.122 467.061,-292.398 458.954,-285.577 456.47,-292.122"/>
<text text-anchor="middle" x="442.5" y="-262.3" font-family="Helvetica,sans-Serif" font-size="14.00"> IntRule</text>
</g>
<!-- Node12 -->
<g id="node9" class="node"><title>Node12</title>
<g id="a_node9"><a xlink:href="classmfem_1_1Array.html" target="_top" xlink:title="mfem::Array\&lt; Integration\lPoint \&gt;">
<polygon fill="white" stroke="black" points="393.5,-355 393.5,-393 596.5,-393 596.5,-355 393.5,-355"/>
<text text-anchor="start" x="401.5" y="-377.8" font-family="Helvetica,sans-Serif" font-size="14.00">mfem::Array&lt; Integration</text>
<text text-anchor="middle" x="495" y="-362.8" font-family="Helvetica,sans-Serif" font-size="14.00">Point &gt;</text>
</a>
</g>
</g>
<!-- Node12&#45;&gt;Node11 -->
<g id="edge8" class="edge"><title>Node12&#45;&gt;Node11</title>
<path fill="none" stroke="midnightblue" d="M495,-344.599C495,-334.442 495,-323.6 495,-315.834"/>
<polygon fill="midnightblue" stroke="midnightblue" points="491.5,-344.777 495,-354.777 498.5,-344.777 491.5,-344.777"/>
</g>
<!-- Node13 -->
<g id="node10" class="node"><title>Node13</title>
<g id="a_node10"><a xlink:href="classmfem_1_1Memory.html" target="_top" xlink:title="mfem::Memory\&lt; Integration\lPoint \&gt;">
<polygon fill="white" stroke="black" points="384,-447 384,-485 606,-485 606,-447 384,-447"/>
<text text-anchor="start" x="392" y="-469.8" font-family="Helvetica,sans-Serif" font-size="14.00">mfem::Memory&lt; Integration</text>
<text text-anchor="middle" x="495" y="-454.8" font-family="Helvetica,sans-Serif" font-size="14.00">Point &gt;</text>
</a>
</g>
</g>
<!-- Node13&#45;&gt;Node12 -->
<g id="edge9" class="edge"><title>Node13&#45;&gt;Node12</title>
<path fill="none" stroke="#9a32cd" stroke-dasharray="5,2" d="M495,-436.548C495,-422.36 495,-405.622 495,-393.186"/>
<polygon fill="#9a32cd" stroke="#9a32cd" points="491.5,-436.787 495,-446.787 498.5,-436.787 491.5,-436.787"/>
<text text-anchor="middle" x="513.5" y="-416.3" font-family="Helvetica,sans-Serif" font-size="14.00"> data</text>
</g>
<!-- Node14 -->
<g id="node11" class="node"><title>Node14</title>
<g id="a_node11"><a xlink:href="classmfem_1_1IntegrationPoint.html" target="_top" xlink:title="Class for integration point with weight. ">
<polygon fill="white" stroke="black" points="404,-538.5 404,-561.5 586,-561.5 586,-538.5 404,-538.5"/>
<text text-anchor="middle" x="495" y="-546.3" font-family="Helvetica,sans-Serif" font-size="14.00">mfem::IntegrationPoint</text>
</a>
</g>
</g>
<!-- Node14&#45;&gt;Node13 -->
<g id="edge10" class="edge"><title>Node14&#45;&gt;Node13</title>
<path fill="none" stroke="#9a32cd" stroke-dasharray="5,2" d="M495,-528.213C495,-514.967 495,-497.968 495,-485.246"/>
<polygon fill="#9a32cd" stroke="#9a32cd" points="491.5,-528.28 495,-538.28 498.5,-528.28 491.5,-528.28"/>
<text text-anchor="middle" x="516" y="-508.3" font-family="Helvetica,sans-Serif" font-size="14.00"> h_ptr</text>
</g>
<!-- Node15 -->
<g id="node12" class="node"><title>Node15</title>
<g id="a_node12"><a xlink:href="classmfem_1_1VectorCoefficient.html" target="_top" xlink:title="Base class for vector Coefficients that optionally depend on time and space. ">
<polygon fill="white" stroke="black" points="434,-154.5 434,-177.5 624,-177.5 624,-154.5 434,-154.5"/>
<text text-anchor="middle" x="529" y="-162.3" font-family="Helvetica,sans-Serif" font-size="14.00">mfem::VectorCoefficient</text>
</a>
</g>
</g>
<!-- Node15&#45;&gt;Node5 -->
<g id="edge11" class="edge"><title>Node15&#45;&gt;Node5</title>
<path fill="none" stroke="#9a32cd" stroke-dasharray="5,2" d="M514.352,-146.311C503.258,-132.157 488.419,-113.224 479.295,-101.583"/>
<polygon fill="#9a32cd" stroke="#9a32cd" points="511.766,-148.686 520.69,-154.398 517.276,-144.368 511.766,-148.686"/>
<text text-anchor="middle" x="519" y="-124.3" font-family="Helvetica,sans-Serif" font-size="14.00"> VQ</text>
</g>
</g>
</svg>
        <g id="navigator" transform="translate(0 0)" fill="#404254">
                <rect fill="#f2f5e9" fill-opacity="0.5" stroke="#606060" stroke-width=".5" x="0" y="0" width="60" height="60"/>
                <use id="zoomplus" xlink:href="#zoomPlus" x="17" y="9" onmousedown="handleZoom(evt,'in')"/>
                <use id="zoomminus" xlink:href="#zoomMin" x="42" y="9" onmousedown="handleZoom(evt,'out')"/>
                <use id="reset" xlink:href="#resetDef" x="30" y="36" onmousedown="handleReset()"/>
                <g id="arrowUp" xlink:href="#dirArrow" transform="translate(30 24)" onmousedown="handlePan(0,-1)">
                  <use xlink:href="#rim" fill="#404040">
                        <set attributeName="fill" to="#808080" begin="arrowUp.mouseover" end="arrowUp.mouseout"/>
                  </use>
                  <path fill="none" stroke="white" stroke-width="1.5" d="M0,-3.0v7 M-2.5,-0.5L0,-3.0L2.5,-0.5"/>
                </g>
                <g id="arrowRight" xlink:href="#dirArrow" transform="rotate(90) translate(36 -43)" onmousedown="handlePan(1,0)">
                  <use xlink:href="#rim" fill="#404040">
                        <set attributeName="fill" to="#808080" begin="arrowRight.mouseover" end="arrowRight.mouseout"/>
                  </use>
                  <path fill="none" stroke="white" stroke-width="1.5" d="M0,-3.0v7 M-2.5,-0.5L0,-3.0L2.5,-0.5"/>
                </g>
                <g id="arrowDown" xlink:href="#dirArrow" transform="rotate(180) translate(-30 -48)" onmousedown="handlePan(0,1)">
                  <use xlink:href="#rim" fill="#404040">
                        <set attributeName="fill" to="#808080" begin="arrowDown.mouseover" end="arrowDown.mouseout"/>
                  </use>
                  <path fill="none" stroke="white" stroke-width="1.5" d="M0,-3.0v7 M-2.5,-0.5L0,-3.0L2.5,-0.5"/>
                </g>
                <g id="arrowLeft" xlink:href="#dirArrow" transform="rotate(270) translate(-36 17)" onmousedown="handlePan(-1,0)">
                  <use xlink:href="#rim" fill="#404040">
                        <set attributeName="fill" to="#808080" begin="arrowLeft.mouseover" end="arrowLeft.mouseout"/>
                  </use>
                  <path fill="none" stroke="white" stroke-width="1.5" d="M0,-3.0v7 M-2.5,-0.5L0,-3.0L2.5,-0.5"/>
                </g>
        </g>
        <svg viewBox="0 0 15 15" width="100%" height="30px" preserveAspectRatio="xMaxYMin meet">
         <g id="arrow_out" transform="scale(0.3 0.3)">
          <a xlink:href="classmfem_1_1MixedScalarWeakCrossProductIntegrator__coll__graph_org.svg" target="_base">
           <rect id="button" ry="5" rx="5" y="6" x="6" height="38" width="38"
                fill="#f2f5e9" fill-opacity="0.5" stroke="#606060" stroke-width="1.0"/>
           <path id="arrow"
             d="M 11.500037,31.436501 C 11.940474,20.09759 22.043105,11.32322 32.158766,21.979434 L 37.068811,17.246167 C 37.068811,17.246167 37.088388,32 37.088388,32 L 22.160133,31.978069 C 22.160133,31.978069 26.997745,27.140456 26.997745,27.140456 C 18.528582,18.264221 13.291696,25.230495 11.500037,31.436501 z"
             style="fill:#404040;"/>
          </a>
         </g>
        </svg>
</svg>
