<?xml version="1.0" encoding="UTF-8" standalone="no"?>
<!DOCTYPE svg PUBLIC "-//W3C//DTD SVG 1.1//EN"
 "http://www.w3.org/Graphics/SVG/1.1/DTD/svg11.dtd">
<!-- Generated by graphviz version 2.30.1 (20200304.1809)
 -->
<!-- Title: mfem::NNLSSolver Pages: 1 -->
<svg width="160pt" height="152pt"
 viewBox="0.00 0.00 160.00 152.00" xmlns="http://www.w3.org/2000/svg" xmlns:xlink="http://www.w3.org/1999/xlink">
<g id="graph0" class="graph" transform="scale(1 1) rotate(0) translate(4 148)">
<title>mfem::NNLSSolver</title>
<polygon fill="white" stroke="white" points="-4,5 -4,-148 157,-148 157,5 -4,5"/>
<!-- Node0 -->
<g id="node1" class="node"><title>Node0</title>
<polygon fill="#bfbfbf" stroke="black" points="0,-0.5 0,-23.5 152,-23.5 152,-0.5 0,-0.5"/>
<text text-anchor="middle" x="76" y="-8.3" font-family="Helvetica,sans-Serif" font-size="14.00">mfem::NNLSSolver</text>
</g>
<!-- Node1 -->
<g id="node2" class="node"><title>Node1</title>
<g id="a_node2"><a xlink:href="classmfem_1_1Solver.html" target="_top" xlink:title="Base class for solvers. ">
<polygon fill="white" stroke="black" points="19.5,-60.5 19.5,-83.5 132.5,-83.5 132.5,-60.5 19.5,-60.5"/>
<text text-anchor="middle" x="76" y="-68.3" font-family="Helvetica,sans-Serif" font-size="14.00">mfem::Solver</text>
</a>
</g>
</g>
<!-- Node1&#45;&gt;Node0 -->
<g id="edge1" class="edge"><title>Node1&#45;&gt;Node0</title>
<path fill="none" stroke="midnightblue" d="M76,-50.1906C76,-41.1684 76,-30.9941 76,-23.5707"/>
<polygon fill="midnightblue" stroke="midnightblue" points="72.5001,-50.3619 76,-60.3619 79.5001,-50.3619 72.5001,-50.3619"/>
</g>
<!-- Node2 -->
<g id="node3" class="node"><title>Node2</title>
<g id="a_node3"><a xlink:href="classmfem_1_1Operator.html" target="_top" xlink:title="Abstract operator. ">
<polygon fill="white" stroke="black" points="9.5,-120.5 9.5,-143.5 142.5,-143.5 142.5,-120.5 9.5,-120.5"/>
<text text-anchor="middle" x="76" y="-128.3" font-family="Helvetica,sans-Serif" font-size="14.00">mfem::Operator</text>
</a>
</g>
</g>
<!-- Node2&#45;&gt;Node1 -->
<g id="edge2" class="edge"><title>Node2&#45;&gt;Node1</title>
<path fill="none" stroke="midnightblue" d="M76,-110.191C76,-101.168 76,-90.9941 76,-83.5707"/>
<polygon fill="midnightblue" stroke="midnightblue" points="72.5001,-110.362 76,-120.362 79.5001,-110.362 72.5001,-110.362"/>
</g>
</g>
</svg>
