<?xml version="1.0" encoding="UTF-8" standalone="no"?>
<!DOCTYPE svg PUBLIC "-//W3C//DTD SVG 1.1//EN"
 "http://www.w3.org/Graphics/SVG/1.1/DTD/svg11.dtd">
<!-- Generated by graphviz version 2.30.1 (20200304.1809)
 -->
<!-- Title: mfem::ofgzstream Pages: 1 -->
<svg width="330pt" height="564pt"
 viewBox="0.00 0.00 330.00 564.00" xmlns="http://www.w3.org/2000/svg" xmlns:xlink="http://www.w3.org/1999/xlink">
<g id="graph0" class="graph" transform="scale(1 1) rotate(0) translate(4 560)">
<title>mfem::ofgzstream</title>
<polygon fill="white" stroke="white" points="-4,5 -4,-560 327,-560 327,5 -4,5"/>
<!-- Node6 -->
<g id="node1" class="node"><title>Node6</title>
<polygon fill="#bfbfbf" stroke="black" points="129,-0.5 129,-23.5 279,-23.5 279,-0.5 129,-0.5"/>
<text text-anchor="middle" x="204" y="-8.3" font-family="Helvetica,sans-Serif" font-size="14.00">mfem::ofgzstream</text>
</g>
<!-- Node7 -->
<g id="node2" class="node"><title>Node7</title>
<g id="a_node2"><a xlink:href="structzstr_1_1detail_1_1strict__fstream__holder.html" target="_top" xlink:title="zstr::detail::strict\l_fstream_holder\&lt; strict\l_fstream::ofstream \&gt;">
<polygon fill="white" stroke="black" points="27.5,-62.5 27.5,-115.5 212.5,-115.5 212.5,-62.5 27.5,-62.5"/>
<text text-anchor="start" x="35.5" y="-100.3" font-family="Helvetica,sans-Serif" font-size="14.00">zstr::detail::strict</text>
<text text-anchor="start" x="35.5" y="-85.3" font-family="Helvetica,sans-Serif" font-size="14.00">_fstream_holder&lt; strict</text>
<text text-anchor="middle" x="120" y="-70.3" font-family="Helvetica,sans-Serif" font-size="14.00">_fstream::ofstream &gt;</text>
</a>
</g>
</g>
<!-- Node7&#45;&gt;Node6 -->
<g id="edge1" class="edge"><title>Node7&#45;&gt;Node6</title>
<path fill="none" stroke="#8b1a1a" d="M156.714,-55.2199C169.456,-43.8431 182.857,-31.8774 192.126,-23.6015"/>
<polygon fill="#8b1a1a" stroke="#8b1a1a" points="154.036,-52.9183 148.908,-62.1893 158.699,-58.1399 154.036,-52.9183"/>
</g>
<!-- Node8 -->
<g id="node3" class="node"><title>Node8</title>
<g id="a_node3"><a xlink:href="classstrict__fstream_1_1ofstream.html" target="_top" xlink:title="strict_fstream::ofstream">
<polygon fill="white" stroke="black" points="23,-168.5 23,-191.5 213,-191.5 213,-168.5 23,-168.5"/>
<text text-anchor="middle" x="118" y="-176.3" font-family="Helvetica,sans-Serif" font-size="14.00">strict_fstream::ofstream</text>
</a>
</g>
</g>
<!-- Node8&#45;&gt;Node7 -->
<g id="edge2" class="edge"><title>Node8&#45;&gt;Node7</title>
<path fill="none" stroke="#9a32cd" stroke-dasharray="5,2" d="M118.463,-158.401C118.748,-145.709 119.116,-129.329 119.421,-115.78"/>
<polygon fill="#9a32cd" stroke="#9a32cd" points="114.963,-158.365 118.237,-168.441 121.961,-158.522 114.963,-158.365"/>
<text text-anchor="middle" x="131.5" y="-138.3" font-family="Helvetica,sans-Serif" font-size="14.00"> fs_</text>
</g>
<!-- Node9 -->
<g id="node4" class="node"><title>Node9</title>
<g id="a_node4"><a xlink:title="STL class. ">
<polygon fill="white" stroke="#bfbfbf" points="61.5,-230.5 61.5,-253.5 174.5,-253.5 174.5,-230.5 61.5,-230.5"/>
<text text-anchor="middle" x="118" y="-238.3" font-family="Helvetica,sans-Serif" font-size="14.00">std::ofstream</text>
</a>
</g>
</g>
<!-- Node9&#45;&gt;Node8 -->
<g id="edge3" class="edge"><title>Node9&#45;&gt;Node8</title>
<path fill="none" stroke="midnightblue" d="M118,-220.231C118,-210.592 118,-199.544 118,-191.634"/>
<polygon fill="midnightblue" stroke="midnightblue" points="114.5,-220.273 118,-230.273 121.5,-220.273 114.5,-220.273"/>
</g>
<!-- Node10 -->
<g id="node5" class="node"><title>Node10</title>
<g id="a_node5"><a xlink:title="STL class. ">
<polygon fill="white" stroke="#bfbfbf" points="32.5,-315 32.5,-353 189.5,-353 189.5,-315 32.5,-315"/>
<text text-anchor="start" x="40.5" y="-337.8" font-family="Helvetica,sans-Serif" font-size="14.00">std::basic_ofstream</text>
<text text-anchor="middle" x="111" y="-322.8" font-family="Helvetica,sans-Serif" font-size="14.00">&lt; char &gt;</text>
</a>
</g>
</g>
<!-- Node10&#45;&gt;Node9 -->
<g id="edge4" class="edge"><title>Node10&#45;&gt;Node9</title>
<path fill="none" stroke="midnightblue" d="M113.21,-304.586C114.56,-287.229 116.208,-266.043 117.177,-253.586"/>
<polygon fill="midnightblue" stroke="midnightblue" points="109.703,-304.546 112.417,-314.787 116.682,-305.089 109.703,-304.546"/>
</g>
<!-- Node11 -->
<g id="node6" class="node"><title>Node11</title>
<g id="a_node6"><a xlink:title="STL class. ">
<polygon fill="white" stroke="#bfbfbf" points="0,-393 0,-431 152,-431 152,-393 0,-393"/>
<text text-anchor="start" x="8" y="-415.8" font-family="Helvetica,sans-Serif" font-size="14.00">std::basic_ostream</text>
<text text-anchor="middle" x="76" y="-400.8" font-family="Helvetica,sans-Serif" font-size="14.00">&lt; Char &gt;</text>
</a>
</g>
</g>
<!-- Node11&#45;&gt;Node10 -->
<g id="edge5" class="edge"><title>Node11&#45;&gt;Node10</title>
<path fill="none" stroke="midnightblue" d="M88.5728,-383.699C93.2492,-373.545 98.4367,-362.28 102.644,-353.145"/>
<polygon fill="midnightblue" stroke="midnightblue" points="85.2985,-382.442 84.2945,-392.989 91.6567,-385.37 85.2985,-382.442"/>
</g>
<!-- Node12 -->
<g id="node7" class="node"><title>Node12</title>
<g id="a_node7"><a xlink:title="STL class. ">
<polygon fill="white" stroke="#bfbfbf" points="34.5,-470.5 34.5,-493.5 213.5,-493.5 213.5,-470.5 34.5,-470.5"/>
<text text-anchor="middle" x="124" y="-478.3" font-family="Helvetica,sans-Serif" font-size="14.00">std::basic_ios&lt; Char &gt;</text>
</a>
</g>
</g>
<!-- Node12&#45;&gt;Node11 -->
<g id="edge6" class="edge"><title>Node12&#45;&gt;Node11</title>
<path fill="none" stroke="midnightblue" d="M110.729,-462.199C103.906,-452.534 95.6265,-440.804 88.8631,-431.223"/>
<polygon fill="midnightblue" stroke="midnightblue" points="107.874,-464.224 116.5,-470.375 113.593,-460.187 107.874,-464.224"/>
</g>
<!-- Node15 -->
<g id="node10" class="node"><title>Node15</title>
<g id="a_node10"><a xlink:title="STL class. ">
<polygon fill="white" stroke="#bfbfbf" points="170,-393 170,-431 322,-431 322,-393 170,-393"/>
<text text-anchor="start" x="178" y="-415.8" font-family="Helvetica,sans-Serif" font-size="14.00">std::basic_ostream</text>
<text text-anchor="middle" x="246" y="-400.8" font-family="Helvetica,sans-Serif" font-size="14.00">&lt; char &gt;</text>
</a>
</g>
</g>
<!-- Node12&#45;&gt;Node15 -->
<g id="edge10" class="edge"><title>Node12&#45;&gt;Node15</title>
<path fill="none" stroke="midnightblue" d="M152.042,-465.37C170.3,-455.194 194.187,-441.88 213.306,-431.223"/>
<polygon fill="midnightblue" stroke="midnightblue" points="150.093,-462.449 143.062,-470.375 153.501,-468.564 150.093,-462.449"/>
</g>
<!-- Node13 -->
<g id="node8" class="node"><title>Node13</title>
<g id="a_node8"><a xlink:title="STL class. ">
<polygon fill="white" stroke="#bfbfbf" points="69,-532.5 69,-555.5 179,-555.5 179,-532.5 69,-532.5"/>
<text text-anchor="middle" x="124" y="-540.3" font-family="Helvetica,sans-Serif" font-size="14.00">std::ios_base</text>
</a>
</g>
</g>
<!-- Node13&#45;&gt;Node12 -->
<g id="edge7" class="edge"><title>Node13&#45;&gt;Node12</title>
<path fill="none" stroke="midnightblue" d="M124,-522.231C124,-512.592 124,-501.544 124,-493.634"/>
<polygon fill="midnightblue" stroke="midnightblue" points="120.5,-522.273 124,-532.273 127.5,-522.273 120.5,-522.273"/>
</g>
<!-- Node14 -->
<g id="node9" class="node"><title>Node14</title>
<g id="a_node9"><a xlink:title="STL class. ">
<polygon fill="white" stroke="#bfbfbf" points="188.5,-272.5 188.5,-295.5 295.5,-295.5 295.5,-272.5 188.5,-272.5"/>
<text text-anchor="middle" x="242" y="-280.3" font-family="Helvetica,sans-Serif" font-size="14.00">std::ostream</text>
</a>
</g>
</g>
<!-- Node14&#45;&gt;Node6 -->
<g id="edge8" class="edge"><title>Node14&#45;&gt;Node6</title>
<path fill="none" stroke="midnightblue" d="M241.554,-262.278C241.288,-248.118 241,-228.925 241,-212 241,-212 241,-212 241,-88 241,-63.0271 224.298,-37.7553 213.337,-23.8595"/>
<polygon fill="midnightblue" stroke="midnightblue" points="238.058,-262.488 241.758,-272.415 245.056,-262.347 238.058,-262.488"/>
</g>
<!-- Node15&#45;&gt;Node14 -->
<g id="edge9" class="edge"><title>Node15&#45;&gt;Node14</title>
<path fill="none" stroke="midnightblue" d="M245.102,-382.726C244.227,-355.142 242.941,-314.641 242.337,-295.614"/>
<polygon fill="midnightblue" stroke="midnightblue" points="241.611,-383.063 245.427,-392.947 248.608,-382.841 241.611,-383.063"/>
</g>
</g>
</svg>
