<?xml version="1.0" encoding="UTF-8" standalone="no"?>
<!DOCTYPE svg PUBLIC "-//W3C//DTD SVG 1.1//EN"
 "http://www.w3.org/Graphics/SVG/1.1/DTD/svg11.dtd">
<!-- Generated by graphviz version 2.30.1 (20200304.1809)
 -->
<!-- Title: mfem::StatelessVDofTransformation Pages: 1 -->
<svg width="286pt" height="152pt"
 viewBox="0.00 0.00 286.00 152.00" xmlns="http://www.w3.org/2000/svg" xmlns:xlink="http://www.w3.org/1999/xlink">
<g id="graph0" class="graph" transform="scale(1 1) rotate(0) translate(4 148)">
<title>mfem::StatelessVDofTransformation</title>
<polygon fill="white" stroke="white" points="-4,5 -4,-148 283,-148 283,5 -4,5"/>
<!-- Node0 -->
<g id="node1" class="node"><title>Node0</title>
<polygon fill="#bfbfbf" stroke="black" points="0,-60.5 0,-83.5 278,-83.5 278,-60.5 0,-60.5"/>
<text text-anchor="middle" x="139" y="-68.3" font-family="Helvetica,sans-Serif" font-size="14.00">mfem::StatelessVDofTransformation</text>
</g>
<!-- Node2 -->
<g id="node3" class="node"><title>Node2</title>
<g id="a_node3"><a xlink:href="classmfem_1_1VDofTransformation.html" target="_top" xlink:title="mfem::VDofTransformation">
<polygon fill="white" stroke="black" points="33,-0.5 33,-23.5 245,-23.5 245,-0.5 33,-0.5"/>
<text text-anchor="middle" x="139" y="-8.3" font-family="Helvetica,sans-Serif" font-size="14.00">mfem::VDofTransformation</text>
</a>
</g>
</g>
<!-- Node0&#45;&gt;Node2 -->
<g id="edge2" class="edge"><title>Node0&#45;&gt;Node2</title>
<path fill="none" stroke="midnightblue" d="M139,-50.1906C139,-41.1684 139,-30.9941 139,-23.5707"/>
<polygon fill="midnightblue" stroke="midnightblue" points="135.5,-50.3619 139,-60.3619 142.5,-50.3619 135.5,-50.3619"/>
</g>
<!-- Node1 -->
<g id="node2" class="node"><title>Node1</title>
<g id="a_node2"><a xlink:href="classmfem_1_1StatelessDofTransformation.html" target="_top" xlink:title="mfem::StatelessDofTransformation">
<polygon fill="white" stroke="black" points="5,-120.5 5,-143.5 273,-143.5 273,-120.5 5,-120.5"/>
<text text-anchor="middle" x="139" y="-128.3" font-family="Helvetica,sans-Serif" font-size="14.00">mfem::StatelessDofTransformation</text>
</a>
</g>
</g>
<!-- Node1&#45;&gt;Node0 -->
<g id="edge1" class="edge"><title>Node1&#45;&gt;Node0</title>
<path fill="none" stroke="midnightblue" d="M139,-110.191C139,-101.168 139,-90.9941 139,-83.5707"/>
<polygon fill="midnightblue" stroke="midnightblue" points="135.5,-110.362 139,-120.362 142.5,-110.362 135.5,-110.362"/>
</g>
</g>
</svg>
