<?xml version="1.0" encoding="UTF-8" standalone="no"?>
<!DOCTYPE svg PUBLIC "-//W3C//DTD SVG 1.1//EN"
 "http://www.w3.org/Graphics/SVG/1.1/DTD/svg11.dtd">
<!-- Generated by graphviz version 2.30.1 (20200304.1809)
 -->
<!-- Title: mfem::StatelessVDofTransformation Pages: 1 -->
<svg width="286pt" height="108pt"
 viewBox="0.00 0.00 286.00 108.00" xmlns="http://www.w3.org/2000/svg" xmlns:xlink="http://www.w3.org/1999/xlink">
<g id="graph0" class="graph" transform="scale(1 1) rotate(0) translate(4 104)">
<title>mfem::StatelessVDofTransformation</title>
<polygon fill="white" stroke="white" points="-4,5 -4,-104 283,-104 283,5 -4,5"/>
<!-- Node3 -->
<g id="node1" class="node"><title>Node3</title>
<polygon fill="#bfbfbf" stroke="black" points="0,-0.5 0,-23.5 278,-23.5 278,-0.5 0,-0.5"/>
<text text-anchor="middle" x="139" y="-8.3" font-family="Helvetica,sans-Serif" font-size="14.00">mfem::StatelessVDofTransformation</text>
</g>
<!-- Node4 -->
<g id="node2" class="node"><title>Node4</title>
<g id="a_node2"><a xlink:href="classmfem_1_1StatelessDofTransformation.html" target="_top" xlink:title="mfem::StatelessDofTransformation">
<polygon fill="white" stroke="black" points="5,-76.5 5,-99.5 273,-99.5 273,-76.5 5,-76.5"/>
<text text-anchor="middle" x="139" y="-84.3" font-family="Helvetica,sans-Serif" font-size="14.00">mfem::StatelessDofTransformation</text>
</a>
</g>
</g>
<!-- Node4&#45;&gt;Node3 -->
<g id="edge1" class="edge"><title>Node4&#45;&gt;Node3</title>
<path fill="none" stroke="midnightblue" d="M137.391,-66.1784C137.229,-63.4295 137.091,-60.6479 137,-58 136.755,-50.8931 136.755,-49.1069 137,-42 137.208,-35.9476 137.661,-29.1972 138.083,-23.7331"/>
<polygon fill="midnightblue" stroke="midnightblue" points="133.907,-66.5299 138.083,-76.2669 140.89,-66.0507 133.907,-66.5299"/>
</g>
<!-- Node4&#45;&gt;Node3 -->
<g id="edge2" class="edge"><title>Node4&#45;&gt;Node3</title>
<path fill="none" stroke="#9a32cd" stroke-dasharray="5,2" d="M139,-66.2771C139,-52.3872 139,-34.675 139,-23.5827"/>
<polygon fill="#9a32cd" stroke="#9a32cd" points="135.5,-66.3976 139,-76.3976 142.5,-66.3976 135.5,-66.3976"/>
<text text-anchor="middle" x="179" y="-46.3" font-family="Helvetica,sans-Serif" font-size="14.00"> sdoftrans_</text>
</g>
</g>
</svg>
