<?xml version="1.0" encoding="UTF-8" standalone="no"?>
<!DOCTYPE svg PUBLIC "-//W3C//DTD SVG 1.1//EN"
 "http://www.w3.org/Graphics/SVG/1.1/DTD/svg11.dtd">
<!-- Generated by graphviz version 2.30.1 (20200304.1809)
 -->
<!-- Title: mfem::RT_R2D_Trace_FECollection Pages: 1 -->
<svg width="2312pt" height="322pt"
 viewBox="0.00 0.00 2312.00 322.02" xmlns="http://www.w3.org/2000/svg" xmlns:xlink="http://www.w3.org/1999/xlink">
<g id="graph0" class="graph" transform="scale(1 1) rotate(0) translate(4 318.023)">
<title>mfem::RT_R2D_Trace_FECollection</title>
<polygon fill="white" stroke="white" points="-4,5 -4,-318.023 2309,-318.023 2309,5 -4,5"/>
<!-- Node3 -->
<g id="node1" class="node"><title>Node3</title>
<polygon fill="#bfbfbf" stroke="black" points="1865,-179.023 1865,-217.023 2035,-217.023 2035,-179.023 1865,-179.023"/>
<text text-anchor="start" x="1873" y="-201.823" font-family="Helvetica,sans-Serif" font-size="14.00">mfem::RT_R2D_Trace</text>
<text text-anchor="middle" x="1950" y="-186.823" font-family="Helvetica,sans-Serif" font-size="14.00">_FECollection</text>
</g>
<!-- Node4 -->
<g id="node2" class="node"><title>Node4</title>
<g id="a_node2"><a xlink:href="classmfem_1_1RT__R2D__FECollection.html" target="_top" xlink:title="Arbitrary order 3D H(div)&#45;conforming Raviart&#45;Thomas finite elements in 2D. ">
<polygon fill="white" stroke="black" points="1472,-182.523 1472,-205.523 1690,-205.523 1690,-182.523 1472,-182.523"/>
<text text-anchor="middle" x="1581" y="-190.323" font-family="Helvetica,sans-Serif" font-size="14.00">mfem::RT_R2D_FECollection</text>
</a>
</g>
</g>
<!-- Node4&#45;&gt;Node3 -->
<g id="edge1" class="edge"><title>Node4&#45;&gt;Node3</title>
<path fill="none" stroke="midnightblue" d="M1700.38,-195.314C1754.01,-195.898 1816.17,-196.576 1864.92,-197.107"/>
<polygon fill="midnightblue" stroke="midnightblue" points="1700.16,-191.811 1690.13,-195.202 1700.09,-198.811 1700.16,-191.811"/>
</g>
<!-- Node5 -->
<g id="node3" class="node"><title>Node5</title>
<g id="a_node3"><a xlink:href="classmfem_1_1FiniteElementCollection.html" target="_top" xlink:title="Collection of finite elements from the same family in multiple dimensions. This class is used to matc...">
<polygon fill="white" stroke="black" points="1102,-230.523 1102,-253.523 1338,-253.523 1338,-230.523 1102,-230.523"/>
<text text-anchor="middle" x="1220" y="-238.323" font-family="Helvetica,sans-Serif" font-size="14.00">mfem::FiniteElementCollection</text>
</a>
</g>
</g>
<!-- Node5&#45;&gt;Node4 -->
<g id="edge2" class="edge"><title>Node5&#45;&gt;Node4</title>
<path fill="none" stroke="midnightblue" d="M1317.53,-229.116C1372.42,-221.778 1440.58,-212.665 1493.68,-205.565"/>
<polygon fill="midnightblue" stroke="midnightblue" points="1316.89,-225.671 1307.45,-230.465 1317.82,-232.609 1316.89,-225.671"/>
</g>
<!-- Node7 -->
<g id="node5" class="node"><title>Node7</title>
<g id="a_node5"><a xlink:href="classmfem_1_1Memory.html" target="_top" xlink:title="mfem::Memory\&lt; mfem\l::FiniteElementCollection *\&gt;">
<polygon fill="white" stroke="black" points="1472.5,-276.023 1472.5,-314.023 1689.5,-314.023 1689.5,-276.023 1472.5,-276.023"/>
<text text-anchor="start" x="1480.5" y="-298.823" font-family="Helvetica,sans-Serif" font-size="14.00">mfem::Memory&lt; mfem</text>
<text text-anchor="middle" x="1581" y="-283.823" font-family="Helvetica,sans-Serif" font-size="14.00">::FiniteElementCollection *&gt;</text>
</a>
</g>
</g>
<!-- Node5&#45;&gt;Node7 -->
<g id="edge5" class="edge"><title>Node5&#45;&gt;Node7</title>
<path fill="none" stroke="#9a32cd" stroke-dasharray="5,2" d="M1308.9,-255C1358.2,-262.279 1420.1,-271.417 1472.3,-279.123"/>
<polygon fill="#9a32cd" stroke="#9a32cd" points="1309.3,-251.522 1298.9,-253.524 1308.28,-258.447 1309.3,-251.522"/>
<text text-anchor="middle" x="1405" y="-279.823" font-family="Helvetica,sans-Serif" font-size="14.00"> h_ptr</text>
</g>
<!-- Node6 -->
<g id="node4" class="node"><title>Node6</title>
<g id="a_node4"><a xlink:href="classmfem_1_1Array.html" target="_top" xlink:title="mfem::Array\&lt; mfem::\lFiniteElementCollection *\&gt;">
<polygon fill="white" stroke="black" points="1846,-251.023 1846,-289.023 2054,-289.023 2054,-251.023 1846,-251.023"/>
<text text-anchor="start" x="1854" y="-273.823" font-family="Helvetica,sans-Serif" font-size="14.00">mfem::Array&lt; mfem::</text>
<text text-anchor="middle" x="1950" y="-258.823" font-family="Helvetica,sans-Serif" font-size="14.00">FiniteElementCollection *&gt;</text>
</a>
</g>
</g>
<!-- Node6&#45;&gt;Node5 -->
<g id="edge3" class="edge"><title>Node6&#45;&gt;Node5</title>
<path fill="none" stroke="#9a32cd" stroke-dasharray="5,2" d="M1835.58,-260.956C1790.32,-257.647 1737.72,-254.189 1690,-252.023 1570.2,-246.586 1433.05,-244.096 1338.14,-242.961"/>
<polygon fill="#9a32cd" stroke="#9a32cd" points="1835.49,-264.458 1845.72,-261.703 1836,-257.477 1835.49,-264.458"/>
<text text-anchor="middle" x="1581" y="-255.823" font-family="Helvetica,sans-Serif" font-size="14.00"> var_orders</text>
</g>
<!-- Node7&#45;&gt;Node6 -->
<g id="edge4" class="edge"><title>Node7&#45;&gt;Node6</title>
<path fill="none" stroke="#9a32cd" stroke-dasharray="5,2" d="M1699.86,-286.995C1746.82,-283.796 1800.39,-280.147 1845.79,-277.054"/>
<polygon fill="#9a32cd" stroke="#9a32cd" points="1699.37,-283.52 1689.63,-287.692 1699.85,-290.504 1699.37,-283.52"/>
<text text-anchor="middle" x="1768" y="-289.823" font-family="Helvetica,sans-Serif" font-size="14.00"> data</text>
</g>
<!-- Node8 -->
<g id="node6" class="node"><title>Node8</title>
<g id="a_node6"><a xlink:href="classmfem_1_1FiniteElement.html" target="_top" xlink:title="Abstract class for all finite elements. ">
<polygon fill="white" stroke="black" points="1137,-138.523 1137,-161.523 1303,-161.523 1303,-138.523 1137,-138.523"/>
<text text-anchor="middle" x="1220" y="-146.323" font-family="Helvetica,sans-Serif" font-size="14.00">mfem::FiniteElement</text>
</a>
</g>
</g>
<!-- Node8&#45;&gt;Node4 -->
<g id="edge6" class="edge"><title>Node8&#45;&gt;Node4</title>
<path fill="none" stroke="#9a32cd" stroke-dasharray="5,2" d="M1313.43,-161.352C1366.41,-167.845 1432.74,-175.975 1485.98,-182.5"/>
<polygon fill="#9a32cd" stroke="#9a32cd" points="1313.71,-157.861 1303.36,-160.118 1312.86,-164.809 1313.71,-157.861"/>
<text text-anchor="middle" x="1405" y="-182.823" font-family="Helvetica,sans-Serif" font-size="14.00"> RT_Elements</text>
</g>
<!-- Node11 -->
<g id="node9" class="node"><title>Node11</title>
<g id="a_node9"><a xlink:href="classmfem_1_1DofToQuad.html" target="_top" xlink:title="Structure representing the matrices/tensors needed to evaluate (in reference space) the values...">
<polygon fill="white" stroke="black" points="1507,-77.5234 1507,-100.523 1655,-100.523 1655,-77.5234 1507,-77.5234"/>
<text text-anchor="middle" x="1581" y="-85.3234" font-family="Helvetica,sans-Serif" font-size="14.00">mfem::DofToQuad</text>
</a>
</g>
</g>
<!-- Node8&#45;&gt;Node11 -->
<g id="edge16" class="edge"><title>Node8&#45;&gt;Node11</title>
<path fill="none" stroke="#9a32cd" stroke-dasharray="5,2" d="M1280.34,-136.341C1303.83,-131.17 1331.12,-125.468 1356,-121.023 1406.18,-112.061 1463.03,-103.964 1506.91,-98.1563"/>
<polygon fill="#9a32cd" stroke="#9a32cd" points="1279.53,-132.936 1270.53,-138.519 1281.05,-139.77 1279.53,-132.936"/>
<text text-anchor="middle" x="1405" y="-124.823" font-family="Helvetica,sans-Serif" font-size="14.00"> FE</text>
</g>
<!-- Node9 -->
<g id="node7" class="node"><title>Node9</title>
<g id="a_node7"><a xlink:href="classmfem_1_1Array.html" target="_top" xlink:title="mfem::Array\&lt; mfem::\lDofToQuad *\&gt;">
<polygon fill="white" stroke="black" points="2128,-110.023 2128,-148.023 2304,-148.023 2304,-110.023 2128,-110.023"/>
<text text-anchor="start" x="2136" y="-132.823" font-family="Helvetica,sans-Serif" font-size="14.00">mfem::Array&lt; mfem::</text>
<text text-anchor="middle" x="2216" y="-117.823" font-family="Helvetica,sans-Serif" font-size="14.00">DofToQuad *&gt;</text>
</a>
</g>
</g>
<!-- Node9&#45;&gt;Node8 -->
<g id="edge7" class="edge"><title>Node9&#45;&gt;Node8</title>
<path fill="none" stroke="#9a32cd" stroke-dasharray="5,2" d="M2117.76,-135.681C2115.15,-135.804 2112.56,-135.918 2110,-136.023 1813.11,-148.25 1460.04,-150.005 1303.16,-150.123"/>
<polygon fill="#9a32cd" stroke="#9a32cd" points="2118.12,-139.167 2127.93,-135.17 2117.77,-132.176 2118.12,-139.167"/>
<text text-anchor="middle" x="1768" y="-150.823" font-family="Helvetica,sans-Serif" font-size="14.00"> dof2quad_array</text>
</g>
<!-- Node10 -->
<g id="node8" class="node"><title>Node10</title>
<g id="a_node8"><a xlink:href="classmfem_1_1Memory.html" target="_top" xlink:title="mfem::Memory\&lt; mfem\l::DofToQuad *\&gt;">
<polygon fill="white" stroke="black" points="1857,-79.0234 1857,-117.023 2043,-117.023 2043,-79.0234 1857,-79.0234"/>
<text text-anchor="start" x="1865" y="-101.823" font-family="Helvetica,sans-Serif" font-size="14.00">mfem::Memory&lt; mfem</text>
<text text-anchor="middle" x="1950" y="-86.8234" font-family="Helvetica,sans-Serif" font-size="14.00">::DofToQuad *&gt;</text>
</a>
</g>
</g>
<!-- Node10&#45;&gt;Node9 -->
<g id="edge8" class="edge"><title>Node10&#45;&gt;Node9</title>
<path fill="none" stroke="#9a32cd" stroke-dasharray="5,2" d="M2053.37,-110.045C2077.89,-112.923 2103.83,-115.97 2127.6,-118.76"/>
<polygon fill="#9a32cd" stroke="#9a32cd" points="2053.67,-106.556 2043.33,-108.866 2052.86,-113.508 2053.67,-106.556"/>
<text text-anchor="middle" x="2091" y="-120.823" font-family="Helvetica,sans-Serif" font-size="14.00"> data</text>
</g>
<!-- Node11&#45;&gt;Node10 -->
<g id="edge9" class="edge"><title>Node11&#45;&gt;Node10</title>
<path fill="none" stroke="#9a32cd" stroke-dasharray="5,2" d="M1665.45,-91.0698C1722.47,-92.4681 1798.05,-94.3215 1856.84,-95.7633"/>
<polygon fill="#9a32cd" stroke="#9a32cd" points="1665.47,-87.5694 1655.39,-90.8231 1665.3,-94.5673 1665.47,-87.5694"/>
<text text-anchor="middle" x="1768" y="-98.8234" font-family="Helvetica,sans-Serif" font-size="14.00"> h_ptr</text>
</g>
<!-- Node12 -->
<g id="node10" class="node"><title>Node12</title>
<g id="a_node10"><a xlink:href="classmfem_1_1IntegrationRule.html" target="_top" xlink:title="Class for an integration rule &#45; an Array of IntegrationPoint. ">
<polygon fill="white" stroke="black" points="814,-86.5234 814,-109.523 992,-109.523 992,-86.5234 814,-86.5234"/>
<text text-anchor="middle" x="903" y="-94.3234" font-family="Helvetica,sans-Serif" font-size="14.00">mfem::IntegrationRule</text>
</a>
</g>
</g>
<!-- Node12&#45;&gt;Node11 -->
<g id="edge10" class="edge"><title>Node12&#45;&gt;Node11</title>
<path fill="none" stroke="#9a32cd" stroke-dasharray="5,2" d="M1002.1,-96.7174C1139.01,-94.8947 1384.28,-91.6291 1506.54,-90.0014"/>
<polygon fill="#9a32cd" stroke="#9a32cd" points="1001.98,-93.2185 992.028,-96.8514 1002.07,-100.218 1001.98,-93.2185"/>
<text text-anchor="middle" x="1220" y="-99.8234" font-family="Helvetica,sans-Serif" font-size="14.00"> IntRule</text>
</g>
<!-- Node12&#45;&gt;Node8 -->
<g id="edge17" class="edge"><title>Node12&#45;&gt;Node8</title>
<path fill="none" stroke="#9a32cd" stroke-dasharray="5,2" d="M983.908,-111.215C1034.91,-119.635 1100.39,-130.444 1149.29,-138.515"/>
<polygon fill="#9a32cd" stroke="#9a32cd" points="984.345,-107.739 973.909,-109.564 983.205,-114.646 984.345,-107.739"/>
<text text-anchor="middle" x="1055" y="-131.823" font-family="Helvetica,sans-Serif" font-size="14.00"> Nodes</text>
</g>
<!-- Node13 -->
<g id="node11" class="node"><title>Node13</title>
<g id="a_node11"><a xlink:href="classmfem_1_1Array.html" target="_top" xlink:title="mfem::Array\&lt; Integration\lPoint \&gt;">
<polygon fill="white" stroke="black" points="556.5,-79.0234 556.5,-117.023 759.5,-117.023 759.5,-79.0234 556.5,-79.0234"/>
<text text-anchor="start" x="564.5" y="-101.823" font-family="Helvetica,sans-Serif" font-size="14.00">mfem::Array&lt; Integration</text>
<text text-anchor="middle" x="658" y="-86.8234" font-family="Helvetica,sans-Serif" font-size="14.00">Point &gt;</text>
</a>
</g>
</g>
<!-- Node13&#45;&gt;Node12 -->
<g id="edge11" class="edge"><title>Node13&#45;&gt;Node12</title>
<path fill="none" stroke="midnightblue" d="M769.783,-98.0234C784.568,-98.0234 799.567,-98.0234 813.894,-98.0234"/>
<polygon fill="midnightblue" stroke="midnightblue" points="769.592,-94.5235 759.591,-98.0234 769.591,-101.524 769.592,-94.5235"/>
</g>
<!-- Node14 -->
<g id="node12" class="node"><title>Node14</title>
<g id="a_node12"><a xlink:href="classmfem_1_1Memory.html" target="_top" xlink:title="mfem::Memory\&lt; Integration\lPoint \&gt;">
<polygon fill="white" stroke="black" points="260,-79.0234 260,-117.023 482,-117.023 482,-79.0234 260,-79.0234"/>
<text text-anchor="start" x="268" y="-101.823" font-family="Helvetica,sans-Serif" font-size="14.00">mfem::Memory&lt; Integration</text>
<text text-anchor="middle" x="371" y="-86.8234" font-family="Helvetica,sans-Serif" font-size="14.00">Point &gt;</text>
</a>
</g>
</g>
<!-- Node14&#45;&gt;Node13 -->
<g id="edge12" class="edge"><title>Node14&#45;&gt;Node13</title>
<path fill="none" stroke="#9a32cd" stroke-dasharray="5,2" d="M492.278,-98.0234C513.639,-98.0234 535.683,-98.0234 556.426,-98.0234"/>
<polygon fill="#9a32cd" stroke="#9a32cd" points="492.188,-94.5235 482.188,-98.0234 492.188,-101.524 492.188,-94.5235"/>
<text text-anchor="middle" x="519" y="-101.823" font-family="Helvetica,sans-Serif" font-size="14.00"> data</text>
</g>
<!-- Node15 -->
<g id="node13" class="node"><title>Node15</title>
<g id="a_node13"><a xlink:href="classmfem_1_1IntegrationPoint.html" target="_top" xlink:title="Class for integration point with weight. ">
<polygon fill="white" stroke="black" points="0,-86.5234 0,-109.523 182,-109.523 182,-86.5234 0,-86.5234"/>
<text text-anchor="middle" x="91" y="-94.3234" font-family="Helvetica,sans-Serif" font-size="14.00">mfem::IntegrationPoint</text>
</a>
</g>
</g>
<!-- Node15&#45;&gt;Node14 -->
<g id="edge13" class="edge"><title>Node15&#45;&gt;Node14</title>
<path fill="none" stroke="#9a32cd" stroke-dasharray="5,2" d="M192.526,-98.0234C214.373,-98.0234 237.597,-98.0234 259.796,-98.0234"/>
<polygon fill="#9a32cd" stroke="#9a32cd" points="192.259,-94.5235 182.259,-98.0234 192.259,-101.524 192.259,-94.5235"/>
<text text-anchor="middle" x="221" y="-101.823" font-family="Helvetica,sans-Serif" font-size="14.00"> h_ptr</text>
</g>
<!-- Node16 -->
<g id="node14" class="node"><title>Node16</title>
<g id="a_node14"><a xlink:href="classmfem_1_1Array.html" target="_top" xlink:title="mfem::Array\&lt; double \&gt;">
<polygon fill="white" stroke="black" points="1125.5,-0.523422 1125.5,-23.5234 1314.5,-23.5234 1314.5,-0.523422 1125.5,-0.523422"/>
<text text-anchor="middle" x="1220" y="-8.32342" font-family="Helvetica,sans-Serif" font-size="14.00">mfem::Array&lt; double &gt;</text>
</a>
</g>
</g>
<!-- Node16&#45;&gt;Node11 -->
<g id="edge14" class="edge"><title>Node16&#45;&gt;Node11</title>
<path fill="none" stroke="#9a32cd" stroke-dasharray="5,2" d="M1324.71,-0.721744C1365.66,0.721744 1412.71,-1.43982 1454,-13.0234 1499.26,-25.7206 1544.55,-59.4273 1566.45,-77.383"/>
<polygon fill="#9a32cd" stroke="#9a32cd" points="1324.55,2.77476 1314.71,-1.14907 1324.85,-4.21886 1324.55,2.77476"/>
<text text-anchor="middle" x="1405" y="-61.8234" font-family="Helvetica,sans-Serif" font-size="14.00"> G</text>
<text text-anchor="middle" x="1405" y="-46.8234" font-family="Helvetica,sans-Serif" font-size="14.00">Gt</text>
<text text-anchor="middle" x="1405" y="-31.8234" font-family="Helvetica,sans-Serif" font-size="14.00">B</text>
<text text-anchor="middle" x="1405" y="-16.8234" font-family="Helvetica,sans-Serif" font-size="14.00">Bt</text>
</g>
<!-- Node17 -->
<g id="node15" class="node"><title>Node17</title>
<g id="a_node15"><a xlink:href="classmfem_1_1Memory.html" target="_top" xlink:title="mfem::Memory\&lt; double \&gt;">
<polygon fill="white" stroke="black" points="798.5,-0.523422 798.5,-23.5234 1007.5,-23.5234 1007.5,-0.523422 798.5,-0.523422"/>
<text text-anchor="middle" x="903" y="-8.32342" font-family="Helvetica,sans-Serif" font-size="14.00">mfem::Memory&lt; double &gt;</text>
</a>
</g>
</g>
<!-- Node17&#45;&gt;Node16 -->
<g id="edge15" class="edge"><title>Node17&#45;&gt;Node16</title>
<path fill="none" stroke="#9a32cd" stroke-dasharray="5,2" d="M1017.93,-12.0234C1053.24,-12.0234 1091.71,-12.0234 1125.46,-12.0234"/>
<polygon fill="#9a32cd" stroke="#9a32cd" points="1017.58,-8.52352 1007.58,-12.0234 1017.58,-15.5235 1017.58,-8.52352"/>
<text text-anchor="middle" x="1055" y="-15.8234" font-family="Helvetica,sans-Serif" font-size="14.00"> data</text>
</g>
<!-- Node18 -->
<g id="node16" class="node"><title>Node18</title>
<g id="a_node16"><a xlink:href="classmfem_1_1DenseMatrix.html" target="_top" xlink:title="Data type dense matrix using column&#45;major storage. ">
<polygon fill="white" stroke="black" points="824,-146.523 824,-169.523 982,-169.523 982,-146.523 824,-146.523"/>
<text text-anchor="middle" x="903" y="-154.323" font-family="Helvetica,sans-Serif" font-size="14.00">mfem::DenseMatrix</text>
</a>
</g>
</g>
<!-- Node18&#45;&gt;Node8 -->
<g id="edge18" class="edge"><title>Node18&#45;&gt;Node8</title>
<path fill="none" stroke="#9a32cd" stroke-dasharray="5,2" d="M992.366,-155.779C1037.62,-154.63 1092.38,-153.239 1136.73,-152.113"/>
<polygon fill="#9a32cd" stroke="#9a32cd" points="992.178,-152.283 982.27,-156.036 992.356,-159.281 992.178,-152.283"/>
<text text-anchor="middle" x="1055" y="-158.823" font-family="Helvetica,sans-Serif" font-size="14.00"> vshape</text>
</g>
<!-- Node19 -->
<g id="node17" class="node"><title>Node19</title>
<g id="a_node17"><a xlink:href="classmfem_1_1Matrix.html" target="_top" xlink:title="Abstract data type matrix. ">
<polygon fill="white" stroke="black" points="601.5,-146.523 601.5,-169.523 714.5,-169.523 714.5,-146.523 601.5,-146.523"/>
<text text-anchor="middle" x="658" y="-154.323" font-family="Helvetica,sans-Serif" font-size="14.00">mfem::Matrix</text>
</a>
</g>
</g>
<!-- Node19&#45;&gt;Node18 -->
<g id="edge19" class="edge"><title>Node19&#45;&gt;Node18</title>
<path fill="none" stroke="midnightblue" d="M724.872,-158.023C755.442,-158.023 792.005,-158.023 823.952,-158.023"/>
<polygon fill="midnightblue" stroke="midnightblue" points="724.749,-154.524 714.749,-158.023 724.749,-161.524 724.749,-154.524"/>
</g>
<!-- Node20 -->
<g id="node18" class="node"><title>Node20</title>
<g id="a_node18"><a xlink:href="classmfem_1_1Operator.html" target="_top" xlink:title="Abstract operator. ">
<polygon fill="white" stroke="black" points="304.5,-146.523 304.5,-169.523 437.5,-169.523 437.5,-146.523 304.5,-146.523"/>
<text text-anchor="middle" x="371" y="-154.323" font-family="Helvetica,sans-Serif" font-size="14.00">mfem::Operator</text>
</a>
</g>
</g>
<!-- Node20&#45;&gt;Node19 -->
<g id="edge20" class="edge"><title>Node20&#45;&gt;Node19</title>
<path fill="none" stroke="midnightblue" d="M447.822,-158.023C496.044,-158.023 557.418,-158.023 601.19,-158.023"/>
<polygon fill="midnightblue" stroke="midnightblue" points="447.743,-154.524 437.743,-158.023 447.743,-161.524 447.743,-154.524"/>
</g>
</g>
</svg>
