<?xml version="1.0" encoding="UTF-8" standalone="no"?>
<!DOCTYPE svg PUBLIC "-//W3C//DTD SVG 1.1//EN"
 "http://www.w3.org/Graphics/SVG/1.1/DTD/svg11.dtd">
<!-- Generated by graphviz version 2.30.1 (20200304.1809)
 -->
<!-- Title: mfem::H1Pos_TetrahedronElement Pages: 1 -->
<!--zoomable 672 -->
<svg id="main" version="1.1" xmlns="http://www.w3.org/2000/svg" xmlns:xlink="http://www.w3.org/1999/xlink" xml:space="preserve" onload="init(evt)">
<style type="text/css"><![CDATA[
.edge:hover path { stroke: red; }
.edge:hover polygon { stroke: red; fill: red; }
]]></style>
<script type="text/javascript"><![CDATA[
var edges = document.getElementsByTagName('g');
if (edges && edges.length) {
  for (var i=0;i<edges.length;i++) {
    if (edges[i].id.substr(0,4)=='edge') {
      edges[i].setAttribute('class','edge');
    }
  }
}
]]></script>
        <defs>
                <circle id="rim" cx="0" cy="0" r="7"/>
                <circle id="rim2" cx="0" cy="0" r="3.5"/>
                <g id="zoomPlus">
                        <use xlink:href="#rim" fill="#404040">
                                <set attributeName="fill" to="#808080" begin="zoomplus.mouseover" end="zoomplus.mouseout"/>
                        </use>
                        <path d="M-4,0h8M0,-4v8" fill="none" stroke="white" stroke-width="1.5" pointer-events="none"/>
                </g>
                <g id="zoomMin">
                        <use xlink:href="#rim" fill="#404040">
                                <set attributeName="fill" to="#808080" begin="zoomminus.mouseover" end="zoomminus.mouseout"/>
                        </use>
                        <path d="M-4,0h8" fill="none" stroke="white" stroke-width="1.5" pointer-events="none"/>
                </g>
                <g id="dirArrow">
                        <path fill="none" stroke="white" stroke-width="1.5" d="M0,-3.0v7 M-2.5,-0.5L0,-3.0L2.5,-0.5"/>
                </g>
               <g id="resetDef">
                       <use xlink:href="#rim2" fill="#404040">
                               <set attributeName="fill" to="#808080" begin="reset.mouseover" end="reset.mouseout"/>
                       </use>
               </g>
        </defs>

<script type="text/javascript">
var viewWidth = 961;
var viewHeight = 672;
var sectionId = 'dynsection-1';
</script>
<script xlink:href="svgpan.js"/>
<svg id="graph" class="graph">
<g id="viewport">
<title>mfem::H1Pos_TetrahedronElement</title>
<polygon fill="white" stroke="white" points="-4,5 -4,-668 958,-668 958,5 -4,5"/>
<!-- Node4 -->
<g id="node1" class="node"><title>Node4</title>
<polygon fill="#bfbfbf" stroke="black" points="498,-8.5 498,-31.5 764,-31.5 764,-8.5 498,-8.5"/>
<text text-anchor="middle" x="631" y="-16.3" font-family="Helvetica,sans-Serif" font-size="14.00">mfem::H1Pos_TetrahedronElement</text>
</g>
<!-- Node5 -->
<g id="node2" class="node"><title>Node5</title>
<g id="a_node2"><a xlink:href="classmfem_1_1PositiveFiniteElement.html" target="_top" xlink:title="Class for finite elements utilizing the always positive Bernstein basis. ">
<polygon fill="white" stroke="black" points="336,-100.5 336,-123.5 556,-123.5 556,-100.5 336,-100.5"/>
<text text-anchor="middle" x="446" y="-108.3" font-family="Helvetica,sans-Serif" font-size="14.00">mfem::PositiveFiniteElement</text>
</a>
</g>
</g>
<!-- Node5&#45;&gt;Node4 -->
<g id="edge1" class="edge"><title>Node5&#45;&gt;Node4</title>
<path fill="none" stroke="midnightblue" d="M477,-95.919C514.465,-77.6926 576.543,-47.4928 609.268,-31.5725"/>
<polygon fill="midnightblue" stroke="midnightblue" points="475.045,-92.9777 467.584,-100.5 478.107,-99.2723 475.045,-92.9777"/>
</g>
<!-- Node6 -->
<g id="node3" class="node"><title>Node6</title>
<g id="a_node3"><a xlink:href="classmfem_1_1ScalarFiniteElement.html" target="_top" xlink:title="Class for finite elements with basis functions that return scalar values. ">
<polygon fill="white" stroke="black" points="336,-198.5 336,-221.5 546,-221.5 546,-198.5 336,-198.5"/>
<text text-anchor="middle" x="441" y="-206.3" font-family="Helvetica,sans-Serif" font-size="14.00">mfem::ScalarFiniteElement</text>
</a>
</g>
</g>
<!-- Node6&#45;&gt;Node5 -->
<g id="edge2" class="edge"><title>Node6&#45;&gt;Node5</title>
<path fill="none" stroke="midnightblue" d="M442.085,-188.168C443.119,-168.314 444.635,-139.214 445.443,-123.688"/>
<polygon fill="midnightblue" stroke="midnightblue" points="438.579,-188.191 441.554,-198.36 445.57,-188.555 438.579,-188.191"/>
</g>
<!-- Node7 -->
<g id="node4" class="node"><title>Node7</title>
<g id="a_node4"><a xlink:href="classmfem_1_1FiniteElement.html" target="_top" xlink:title="Abstract class for all finite elements. ">
<polygon fill="white" stroke="black" points="352,-318.5 352,-341.5 518,-341.5 518,-318.5 352,-318.5"/>
<text text-anchor="middle" x="435" y="-326.3" font-family="Helvetica,sans-Serif" font-size="14.00">mfem::FiniteElement</text>
</a>
</g>
</g>
<!-- Node7&#45;&gt;Node6 -->
<g id="edge3" class="edge"><title>Node7&#45;&gt;Node6</title>
<path fill="none" stroke="midnightblue" d="M436.065,-308.047C437.356,-282.672 439.478,-240.927 440.465,-221.524"/>
<polygon fill="midnightblue" stroke="midnightblue" points="432.566,-307.945 435.554,-318.11 439.557,-308.301 432.566,-307.945"/>
</g>
<!-- Node10 -->
<g id="node7" class="node"><title>Node10</title>
<g id="a_node7"><a xlink:href="classmfem_1_1DofToQuad.html" target="_top" xlink:title="Structure representing the matrices/tensors needed to evaluate (in reference space) the values...">
<polygon fill="white" stroke="black" points="127,-198.5 127,-221.5 275,-221.5 275,-198.5 127,-198.5"/>
<text text-anchor="middle" x="201" y="-206.3" font-family="Helvetica,sans-Serif" font-size="14.00">mfem::DofToQuad</text>
</a>
</g>
</g>
<!-- Node7&#45;&gt;Node10 -->
<g id="edge13" class="edge"><title>Node7&#45;&gt;Node10</title>
<path fill="none" stroke="#9a32cd" stroke-dasharray="5,2" d="M348.143,-316.955C312.822,-311.42 278.683,-304.992 272,-300 248.115,-282.157 261.421,-262.621 242,-240 235.866,-232.856 227.611,-226.578 220.116,-221.707"/>
<polygon fill="#9a32cd" stroke="#9a32cd" points="347.698,-320.428 358.114,-318.491 348.763,-313.509 347.698,-320.428"/>
<text text-anchor="middle" x="283" y="-266.3" font-family="Helvetica,sans-Serif" font-size="14.00"> FE</text>
</g>
<!-- Node8 -->
<g id="node5" class="node"><title>Node8</title>
<g id="a_node5"><a xlink:href="classmfem_1_1Array.html" target="_top" xlink:title="mfem::Array\&lt; mfem::\lDofToQuad *\&gt;">
<polygon fill="white" stroke="black" points="177,-1 177,-39 353,-39 353,-1 177,-1"/>
<text text-anchor="start" x="185" y="-23.8" font-family="Helvetica,sans-Serif" font-size="14.00">mfem::Array&lt; mfem::</text>
<text text-anchor="middle" x="265" y="-8.8" font-family="Helvetica,sans-Serif" font-size="14.00">DofToQuad *&gt;</text>
</a>
</g>
</g>
<!-- Node8&#45;&gt;Node7 -->
<g id="edge4" class="edge"><title>Node8&#45;&gt;Node7</title>
<path fill="none" stroke="#9a32cd" stroke-dasharray="5,2" d="M274.707,-48.8319C279.186,-61.8952 284.496,-77.7029 289,-92 307.087,-149.414 296.195,-170.284 327,-222 351.853,-263.724 396.773,-300.746 420.074,-318.271"/>
<polygon fill="#9a32cd" stroke="#9a32cd" points="277.893,-47.3372 271.324,-39.025 271.276,-49.6197 277.893,-47.3372"/>
<text text-anchor="middle" x="367.5" y="-161.3" font-family="Helvetica,sans-Serif" font-size="14.00"> dof2quad_array</text>
</g>
<!-- Node9 -->
<g id="node6" class="node"><title>Node9</title>
<g id="a_node6"><a xlink:href="classmfem_1_1Memory.html" target="_top" xlink:title="mfem::Memory\&lt; mfem\l::DofToQuad *\&gt;">
<polygon fill="white" stroke="black" points="94,-93 94,-131 280,-131 280,-93 94,-93"/>
<text text-anchor="start" x="102" y="-115.8" font-family="Helvetica,sans-Serif" font-size="14.00">mfem::Memory&lt; mfem</text>
<text text-anchor="middle" x="187" y="-100.8" font-family="Helvetica,sans-Serif" font-size="14.00">::DofToQuad *&gt;</text>
</a>
</g>
</g>
<!-- Node9&#45;&gt;Node8 -->
<g id="edge5" class="edge"><title>Node9&#45;&gt;Node8</title>
<path fill="none" stroke="#9a32cd" stroke-dasharray="5,2" d="M209.513,-85.0239C222.235,-70.3442 237.827,-52.354 249.239,-39.1858"/>
<polygon fill="#9a32cd" stroke="#9a32cd" points="206.689,-82.938 202.784,-92.7872 211.979,-87.5225 206.689,-82.938"/>
<text text-anchor="middle" x="249.5" y="-62.3" font-family="Helvetica,sans-Serif" font-size="14.00"> data</text>
</g>
<!-- Node10&#45;&gt;Node9 -->
<g id="edge6" class="edge"><title>Node10&#45;&gt;Node9</title>
<path fill="none" stroke="#9a32cd" stroke-dasharray="5,2" d="M197.986,-188.334C195.509,-171.345 192.032,-147.506 189.657,-131.223"/>
<polygon fill="#9a32cd" stroke="#9a32cd" points="194.542,-188.969 199.448,-198.36 201.468,-187.959 194.542,-188.969"/>
<text text-anchor="middle" x="218" y="-161.3" font-family="Helvetica,sans-Serif" font-size="14.00"> h_ptr</text>
</g>
<!-- Node11 -->
<g id="node8" class="node"><title>Node11</title>
<g id="a_node8"><a xlink:href="classmfem_1_1IntegrationRule.html" target="_top" xlink:title="Class for an integration rule &#45; an Array of IntegrationPoint. ">
<polygon fill="white" stroke="black" points="22,-394.5 22,-417.5 200,-417.5 200,-394.5 22,-394.5"/>
<text text-anchor="middle" x="111" y="-402.3" font-family="Helvetica,sans-Serif" font-size="14.00">mfem::IntegrationRule</text>
</a>
</g>
</g>
<!-- Node11&#45;&gt;Node10 -->
<g id="edge7" class="edge"><title>Node11&#45;&gt;Node10</title>
<path fill="none" stroke="#9a32cd" stroke-dasharray="5,2" d="M95.7618,-385.929C83.4542,-368.066 69.7345,-340.781 80,-318 100.737,-271.98 152.133,-237.777 180.822,-221.524"/>
<polygon fill="#9a32cd" stroke="#9a32cd" points="93.1956,-388.348 101.935,-394.338 98.8384,-384.205 93.1956,-388.348"/>
<text text-anchor="middle" x="107.5" y="-326.3" font-family="Helvetica,sans-Serif" font-size="14.00"> IntRule</text>
</g>
<!-- Node11&#45;&gt;Node7 -->
<g id="edge14" class="edge"><title>Node11&#45;&gt;Node7</title>
<path fill="none" stroke="#9a32cd" stroke-dasharray="5,2" d="M210.264,-400.19C252.48,-396.234 301.83,-389.046 345,-376 371.923,-367.864 400.579,-352.163 418.14,-341.63"/>
<polygon fill="#9a32cd" stroke="#9a32cd" points="209.906,-396.708 200.255,-401.081 210.526,-403.681 209.906,-396.708"/>
<text text-anchor="middle" x="409" y="-364.3" font-family="Helvetica,sans-Serif" font-size="14.00"> Nodes</text>
</g>
<!-- Node12 -->
<g id="node9" class="node"><title>Node12</title>
<g id="a_node9"><a xlink:href="classmfem_1_1Array.html" target="_top" xlink:title="mfem::Array\&lt; Integration\lPoint \&gt;">
<polygon fill="white" stroke="black" points="9.5,-457 9.5,-495 212.5,-495 212.5,-457 9.5,-457"/>
<text text-anchor="start" x="17.5" y="-479.8" font-family="Helvetica,sans-Serif" font-size="14.00">mfem::Array&lt; Integration</text>
<text text-anchor="middle" x="111" y="-464.8" font-family="Helvetica,sans-Serif" font-size="14.00">Point &gt;</text>
</a>
</g>
</g>
<!-- Node12&#45;&gt;Node11 -->
<g id="edge8" class="edge"><title>Node12&#45;&gt;Node11</title>
<path fill="none" stroke="midnightblue" d="M111,-446.599C111,-436.442 111,-425.6 111,-417.834"/>
<polygon fill="midnightblue" stroke="midnightblue" points="107.5,-446.777 111,-456.777 114.5,-446.777 107.5,-446.777"/>
</g>
<!-- Node13 -->
<g id="node10" class="node"><title>Node13</title>
<g id="a_node10"><a xlink:href="classmfem_1_1Memory.html" target="_top" xlink:title="mfem::Memory\&lt; Integration\lPoint \&gt;">
<polygon fill="white" stroke="black" points="0,-549 0,-587 222,-587 222,-549 0,-549"/>
<text text-anchor="start" x="8" y="-571.8" font-family="Helvetica,sans-Serif" font-size="14.00">mfem::Memory&lt; Integration</text>
<text text-anchor="middle" x="111" y="-556.8" font-family="Helvetica,sans-Serif" font-size="14.00">Point &gt;</text>
</a>
</g>
</g>
<!-- Node13&#45;&gt;Node12 -->
<g id="edge9" class="edge"><title>Node13&#45;&gt;Node12</title>
<path fill="none" stroke="#9a32cd" stroke-dasharray="5,2" d="M111,-538.548C111,-524.36 111,-507.622 111,-495.186"/>
<polygon fill="#9a32cd" stroke="#9a32cd" points="107.5,-538.787 111,-548.787 114.5,-538.787 107.5,-538.787"/>
<text text-anchor="middle" x="129.5" y="-518.3" font-family="Helvetica,sans-Serif" font-size="14.00"> data</text>
</g>
<!-- Node14 -->
<g id="node11" class="node"><title>Node14</title>
<g id="a_node11"><a xlink:href="classmfem_1_1IntegrationPoint.html" target="_top" xlink:title="Class for integration point with weight. ">
<polygon fill="white" stroke="black" points="20,-640.5 20,-663.5 202,-663.5 202,-640.5 20,-640.5"/>
<text text-anchor="middle" x="111" y="-648.3" font-family="Helvetica,sans-Serif" font-size="14.00">mfem::IntegrationPoint</text>
</a>
</g>
</g>
<!-- Node14&#45;&gt;Node13 -->
<g id="edge10" class="edge"><title>Node14&#45;&gt;Node13</title>
<path fill="none" stroke="#9a32cd" stroke-dasharray="5,2" d="M111,-630.213C111,-616.967 111,-599.968 111,-587.246"/>
<polygon fill="#9a32cd" stroke="#9a32cd" points="107.5,-630.28 111,-640.28 114.5,-630.28 107.5,-630.28"/>
<text text-anchor="middle" x="132" y="-610.3" font-family="Helvetica,sans-Serif" font-size="14.00"> h_ptr</text>
</g>
<!-- Node15 -->
<g id="node12" class="node"><title>Node15</title>
<g id="a_node12"><a xlink:href="classmfem_1_1Array.html" target="_top" xlink:title="mfem::Array\&lt; double \&gt;">
<polygon fill="white" stroke="black" points="144.5,-318.5 144.5,-341.5 333.5,-341.5 333.5,-318.5 144.5,-318.5"/>
<text text-anchor="middle" x="239" y="-326.3" font-family="Helvetica,sans-Serif" font-size="14.00">mfem::Array&lt; double &gt;</text>
</a>
</g>
</g>
<!-- Node15&#45;&gt;Node10 -->
<g id="edge11" class="edge"><title>Node15&#45;&gt;Node10</title>
<path fill="none" stroke="#9a32cd" stroke-dasharray="5,2" d="M228.871,-309.264C227.475,-306.203 226.134,-303.045 225,-300 214.721,-272.406 206.82,-238.501 203.188,-221.612"/>
<polygon fill="#9a32cd" stroke="#9a32cd" points="225.818,-310.991 233.327,-318.465 232.118,-307.94 225.818,-310.991"/>
<text text-anchor="middle" x="233.5" y="-288.8" font-family="Helvetica,sans-Serif" font-size="14.00"> G</text>
<text text-anchor="middle" x="233.5" y="-273.8" font-family="Helvetica,sans-Serif" font-size="14.00">Gt</text>
<text text-anchor="middle" x="233.5" y="-258.8" font-family="Helvetica,sans-Serif" font-size="14.00">B</text>
<text text-anchor="middle" x="233.5" y="-243.8" font-family="Helvetica,sans-Serif" font-size="14.00">Bt</text>
</g>
<!-- Node16 -->
<g id="node13" class="node"><title>Node16</title>
<g id="a_node13"><a xlink:href="classmfem_1_1Memory.html" target="_top" xlink:title="mfem::Memory\&lt; double \&gt;">
<polygon fill="white" stroke="black" points="296.5,-394.5 296.5,-417.5 505.5,-417.5 505.5,-394.5 296.5,-394.5"/>
<text text-anchor="middle" x="401" y="-402.3" font-family="Helvetica,sans-Serif" font-size="14.00">mfem::Memory&lt; double &gt;</text>
</a>
</g>
</g>
<!-- Node16&#45;&gt;Node15 -->
<g id="edge12" class="edge"><title>Node16&#45;&gt;Node15</title>
<path fill="none" stroke="#9a32cd" stroke-dasharray="5,2" d="M348.722,-391.467C335.177,-387.216 320.805,-382.03 308,-376 287.557,-366.373 266.065,-351.488 252.606,-341.503"/>
<polygon fill="#9a32cd" stroke="#9a32cd" points="347.82,-394.85 358.405,-394.395 349.846,-388.15 347.82,-394.85"/>
<text text-anchor="middle" x="326.5" y="-364.3" font-family="Helvetica,sans-Serif" font-size="14.00"> data</text>
</g>
<!-- Node22 -->
<g id="node19" class="node"><title>Node22</title>
<g id="a_node19"><a xlink:href="classmfem_1_1Vector.html" target="_top" xlink:title="Vector data type. ">
<polygon fill="white" stroke="black" points="508,-258.5 508,-281.5 622,-281.5 622,-258.5 508,-258.5"/>
<text text-anchor="middle" x="565" y="-266.3" font-family="Helvetica,sans-Serif" font-size="14.00">mfem::Vector</text>
</a>
</g>
</g>
<!-- Node16&#45;&gt;Node22 -->
<g id="edge22" class="edge"><title>Node16&#45;&gt;Node22</title>
<path fill="none" stroke="#9a32cd" stroke-dasharray="5,2" d="M444.339,-390.982C470.732,-380.726 503.734,-364.628 527,-342 544.94,-324.552 556.37,-296.791 561.624,-281.67"/>
<polygon fill="#9a32cd" stroke="#9a32cd" points="443.083,-387.715 434.944,-394.498 445.537,-394.271 443.083,-387.715"/>
<text text-anchor="middle" x="522.5" y="-364.3" font-family="Helvetica,sans-Serif" font-size="14.00"> data</text>
</g>
<!-- Node17 -->
<g id="node14" class="node"><title>Node17</title>
<g id="a_node14"><a xlink:href="classmfem_1_1DenseMatrix.html" target="_top" xlink:title="Data type dense matrix using column&#45;major storage. ">
<polygon fill="white" stroke="black" points="563,-394.5 563,-417.5 721,-417.5 721,-394.5 563,-394.5"/>
<text text-anchor="middle" x="642" y="-402.3" font-family="Helvetica,sans-Serif" font-size="14.00">mfem::DenseMatrix</text>
</a>
</g>
</g>
<!-- Node17&#45;&gt;Node7 -->
<g id="edge15" class="edge"><title>Node17&#45;&gt;Node7</title>
<path fill="none" stroke="#9a32cd" stroke-dasharray="5,2" d="M621.155,-388.064C606.287,-376.117 588.211,-361.911 584,-360 563.602,-350.743 540.323,-344.436 518.325,-340.14"/>
<polygon fill="#9a32cd" stroke="#9a32cd" points="618.996,-390.819 628.976,-394.376 623.392,-385.372 618.996,-390.819"/>
<text text-anchor="middle" x="633.5" y="-364.3" font-family="Helvetica,sans-Serif" font-size="14.00"> vshape</text>
</g>
<!-- Node17&#45;&gt;Node4 -->
<g id="edge20" class="edge"><title>Node17&#45;&gt;Node4</title>
<path fill="none" stroke="#9a32cd" stroke-dasharray="5,2" d="M657.707,-386.221C660.019,-382.939 662.218,-379.463 664,-376 673.585,-357.376 678,-351.946 678,-331 678,-331 678,-331 678,-111 678,-79.2709 654.764,-47.6662 640.967,-31.6974"/>
<polygon fill="#9a32cd" stroke="#9a32cd" points="654.815,-384.242 651.533,-394.315 660.381,-388.487 654.815,-384.242"/>
<text text-anchor="middle" x="717.5" y="-206.3" font-family="Helvetica,sans-Serif" font-size="14.00"> m_dshape</text>
</g>
<!-- Node18 -->
<g id="node15" class="node"><title>Node18</title>
<g id="a_node15"><a xlink:href="classmfem_1_1Matrix.html" target="_top" xlink:title="Abstract data type matrix. ">
<polygon fill="white" stroke="black" points="585.5,-464.5 585.5,-487.5 698.5,-487.5 698.5,-464.5 585.5,-464.5"/>
<text text-anchor="middle" x="642" y="-472.3" font-family="Helvetica,sans-Serif" font-size="14.00">mfem::Matrix</text>
</a>
</g>
</g>
<!-- Node18&#45;&gt;Node17 -->
<g id="edge16" class="edge"><title>Node18&#45;&gt;Node17</title>
<path fill="none" stroke="midnightblue" d="M642,-454.272C642,-442.228 642,-427.549 642,-417.775"/>
<polygon fill="midnightblue" stroke="midnightblue" points="638.5,-454.375 642,-464.375 645.5,-454.375 638.5,-454.375"/>
</g>
<!-- Node19 -->
<g id="node16" class="node"><title>Node19</title>
<g id="a_node16"><a xlink:href="classmfem_1_1Operator.html" target="_top" xlink:title="Abstract operator. ">
<polygon fill="white" stroke="black" points="575.5,-556.5 575.5,-579.5 708.5,-579.5 708.5,-556.5 575.5,-556.5"/>
<text text-anchor="middle" x="642" y="-564.3" font-family="Helvetica,sans-Serif" font-size="14.00">mfem::Operator</text>
</a>
</g>
</g>
<!-- Node19&#45;&gt;Node18 -->
<g id="edge17" class="edge"><title>Node19&#45;&gt;Node18</title>
<path fill="none" stroke="midnightblue" d="M642,-546.08C642,-527.799 642,-502.001 642,-487.664"/>
<polygon fill="midnightblue" stroke="midnightblue" points="638.5,-546.322 642,-556.322 645.5,-546.322 638.5,-546.322"/>
</g>
<!-- Node20 -->
<g id="node17" class="node"><title>Node20</title>
<g id="a_node17"><a xlink:href="classmfem_1_1Array.html" target="_top" xlink:title="mfem::Array\&lt; int \&gt;">
<polygon fill="white" stroke="black" points="747,-100.5 747,-123.5 905,-123.5 905,-100.5 747,-100.5"/>
<text text-anchor="middle" x="826" y="-108.3" font-family="Helvetica,sans-Serif" font-size="14.00">mfem::Array&lt; int &gt;</text>
</a>
</g>
</g>
<!-- Node20&#45;&gt;Node4 -->
<g id="edge18" class="edge"><title>Node20&#45;&gt;Node4</title>
<path fill="none" stroke="#9a32cd" stroke-dasharray="5,2" d="M793.827,-96.1511C754.391,-77.9499 688.548,-47.5605 653.907,-31.5725"/>
<polygon fill="#9a32cd" stroke="#9a32cd" points="792.703,-99.4869 803.249,-100.5 795.637,-93.1312 792.703,-99.4869"/>
<text text-anchor="middle" x="775" y="-62.3" font-family="Helvetica,sans-Serif" font-size="14.00"> dof_map</text>
</g>
<!-- Node21 -->
<g id="node18" class="node"><title>Node21</title>
<g id="a_node18"><a xlink:href="classmfem_1_1Memory.html" target="_top" xlink:title="mfem::Memory\&lt; int \&gt;">
<polygon fill="white" stroke="black" points="775,-198.5 775,-221.5 953,-221.5 953,-198.5 775,-198.5"/>
<text text-anchor="middle" x="864" y="-206.3" font-family="Helvetica,sans-Serif" font-size="14.00">mfem::Memory&lt; int &gt;</text>
</a>
</g>
</g>
<!-- Node21&#45;&gt;Node20 -->
<g id="edge19" class="edge"><title>Node21&#45;&gt;Node20</title>
<path fill="none" stroke="#9a32cd" stroke-dasharray="5,2" d="M856.081,-188.994C848.218,-169.129 836.462,-139.43 830.231,-123.688"/>
<polygon fill="#9a32cd" stroke="#9a32cd" points="852.853,-190.35 859.788,-198.36 859.362,-187.773 852.853,-190.35"/>
<text text-anchor="middle" x="870.5" y="-161.3" font-family="Helvetica,sans-Serif" font-size="14.00"> data</text>
</g>
<!-- Node22&#45;&gt;Node4 -->
<g id="edge21" class="edge"><title>Node22&#45;&gt;Node4</title>
<path fill="none" stroke="#9a32cd" stroke-dasharray="5,2" d="M567.352,-248.333C570.331,-224.413 576.166,-183.955 585,-150 596.734,-104.898 617.465,-53.2411 626.538,-31.5044"/>
<polygon fill="#9a32cd" stroke="#9a32cd" points="563.865,-248.017 566.15,-258.362 570.815,-248.849 563.865,-248.017"/>
<text text-anchor="middle" x="624.5" y="-168.8" font-family="Helvetica,sans-Serif" font-size="14.00"> m_shape</text>
<text text-anchor="middle" x="624.5" y="-153.8" font-family="Helvetica,sans-Serif" font-size="14.00">dshape_1d</text>
</g>
</g>
</svg>
        <g id="navigator" transform="translate(0 0)" fill="#404254">
                <rect fill="#f2f5e9" fill-opacity="0.5" stroke="#606060" stroke-width=".5" x="0" y="0" width="60" height="60"/>
                <use id="zoomplus" xlink:href="#zoomPlus" x="17" y="9" onmousedown="handleZoom(evt,'in')"/>
                <use id="zoomminus" xlink:href="#zoomMin" x="42" y="9" onmousedown="handleZoom(evt,'out')"/>
                <use id="reset" xlink:href="#resetDef" x="30" y="36" onmousedown="handleReset()"/>
                <g id="arrowUp" xlink:href="#dirArrow" transform="translate(30 24)" onmousedown="handlePan(0,-1)">
                  <use xlink:href="#rim" fill="#404040">
                        <set attributeName="fill" to="#808080" begin="arrowUp.mouseover" end="arrowUp.mouseout"/>
                  </use>
                  <path fill="none" stroke="white" stroke-width="1.5" d="M0,-3.0v7 M-2.5,-0.5L0,-3.0L2.5,-0.5"/>
                </g>
                <g id="arrowRight" xlink:href="#dirArrow" transform="rotate(90) translate(36 -43)" onmousedown="handlePan(1,0)">
                  <use xlink:href="#rim" fill="#404040">
                        <set attributeName="fill" to="#808080" begin="arrowRight.mouseover" end="arrowRight.mouseout"/>
                  </use>
                  <path fill="none" stroke="white" stroke-width="1.5" d="M0,-3.0v7 M-2.5,-0.5L0,-3.0L2.5,-0.5"/>
                </g>
                <g id="arrowDown" xlink:href="#dirArrow" transform="rotate(180) translate(-30 -48)" onmousedown="handlePan(0,1)">
                  <use xlink:href="#rim" fill="#404040">
                        <set attributeName="fill" to="#808080" begin="arrowDown.mouseover" end="arrowDown.mouseout"/>
                  </use>
                  <path fill="none" stroke="white" stroke-width="1.5" d="M0,-3.0v7 M-2.5,-0.5L0,-3.0L2.5,-0.5"/>
                </g>
                <g id="arrowLeft" xlink:href="#dirArrow" transform="rotate(270) translate(-36 17)" onmousedown="handlePan(-1,0)">
                  <use xlink:href="#rim" fill="#404040">
                        <set attributeName="fill" to="#808080" begin="arrowLeft.mouseover" end="arrowLeft.mouseout"/>
                  </use>
                  <path fill="none" stroke="white" stroke-width="1.5" d="M0,-3.0v7 M-2.5,-0.5L0,-3.0L2.5,-0.5"/>
                </g>
        </g>
        <svg viewBox="0 0 15 15" width="100%" height="30px" preserveAspectRatio="xMaxYMin meet">
         <g id="arrow_out" transform="scale(0.3 0.3)">
          <a xlink:href="classmfem_1_1H1Pos__TetrahedronElement__coll__graph_org.svg" target="_base">
           <rect id="button" ry="5" rx="5" y="6" x="6" height="38" width="38"
                fill="#f2f5e9" fill-opacity="0.5" stroke="#606060" stroke-width="1.0"/>
           <path id="arrow"
             d="M 11.500037,31.436501 C 11.940474,20.09759 22.043105,11.32322 32.158766,21.979434 L 37.068811,17.246167 C 37.068811,17.246167 37.088388,32 37.088388,32 L 22.160133,31.978069 C 22.160133,31.978069 26.997745,27.140456 26.997745,27.140456 C 18.528582,18.264221 13.291696,25.230495 11.500037,31.436501 z"
             style="fill:#404040;"/>
          </a>
         </g>
        </svg>
</svg>
