<?xml version="1.0" encoding="UTF-8" standalone="no"?>
<!DOCTYPE svg PUBLIC "-//W3C//DTD SVG 1.1//EN"
 "http://www.w3.org/Graphics/SVG/1.1/DTD/svg11.dtd">
<!-- Generated by graphviz version 2.30.1 (20200304.1809)
 -->
<!-- Title: mfem::L2_FiniteElement&lt; Geometry::SQUARE, P &gt; Pages: 1 -->
<!--zoomable 272 -->
<svg id="main" version="1.1" xmlns="http://www.w3.org/2000/svg" xmlns:xlink="http://www.w3.org/1999/xlink" xml:space="preserve" onload="init(evt)">
<style type="text/css"><![CDATA[
.edge:hover path { stroke: red; }
.edge:hover polygon { stroke: red; fill: red; }
]]></style>
<script type="text/javascript"><![CDATA[
var edges = document.getElementsByTagName('g');
if (edges && edges.length) {
  for (var i=0;i<edges.length;i++) {
    if (edges[i].id.substr(0,4)=='edge') {
      edges[i].setAttribute('class','edge');
    }
  }
}
]]></script>
        <defs>
                <circle id="rim" cx="0" cy="0" r="7"/>
                <circle id="rim2" cx="0" cy="0" r="3.5"/>
                <g id="zoomPlus">
                        <use xlink:href="#rim" fill="#404040">
                                <set attributeName="fill" to="#808080" begin="zoomplus.mouseover" end="zoomplus.mouseout"/>
                        </use>
                        <path d="M-4,0h8M0,-4v8" fill="none" stroke="white" stroke-width="1.5" pointer-events="none"/>
                </g>
                <g id="zoomMin">
                        <use xlink:href="#rim" fill="#404040">
                                <set attributeName="fill" to="#808080" begin="zoomminus.mouseover" end="zoomminus.mouseout"/>
                        </use>
                        <path d="M-4,0h8" fill="none" stroke="white" stroke-width="1.5" pointer-events="none"/>
                </g>
                <g id="dirArrow">
                        <path fill="none" stroke="white" stroke-width="1.5" d="M0,-3.0v7 M-2.5,-0.5L0,-3.0L2.5,-0.5"/>
                </g>
               <g id="resetDef">
                       <use xlink:href="#rim2" fill="#404040">
                               <set attributeName="fill" to="#808080" begin="reset.mouseover" end="reset.mouseout"/>
                       </use>
               </g>
        </defs>

<script type="text/javascript">
var viewWidth = 2252;
var viewHeight = 272;
var sectionId = 'dynsection-1';
</script>
<script xlink:href="svgpan.js"/>
<svg id="graph" class="graph">
<g id="viewport">
<title>mfem::L2_FiniteElement&lt; Geometry::SQUARE, P &gt;</title>
<polygon fill="white" stroke="white" points="-4,5 -4,-268 2249,-268 2249,5 -4,5"/>
<!-- Node2 -->
<g id="node1" class="node"><title>Node2</title>
<polygon fill="#bfbfbf" stroke="black" points="1788,-23 1788,-61 1994,-61 1994,-23 1788,-23"/>
<text text-anchor="start" x="1796" y="-45.8" font-family="Helvetica,sans-Serif" font-size="14.00">mfem::L2_FiniteElement</text>
<text text-anchor="middle" x="1891" y="-30.8" font-family="Helvetica,sans-Serif" font-size="14.00">&lt; Geometry::SQUARE, P &gt;</text>
</g>
<!-- Node3 -->
<g id="node2" class="node"><title>Node3</title>
<g id="a_node2"><a xlink:href="classmfem_1_1L2__FiniteElement__base.html" target="_top" xlink:title="mfem::L2_FiniteElement\l_base\&lt; Geometry::SQUARE,\l P, L2_QuadrilateralElement,\l L2Pos_QuadrilateralElement,\l(P+1) *(P+1), true \&gt;">
<polygon fill="white" stroke="black" points="1404.5,-0.5 1404.5,-83.5 1631.5,-83.5 1631.5,-0.5 1404.5,-0.5"/>
<text text-anchor="start" x="1412.5" y="-68.3" font-family="Helvetica,sans-Serif" font-size="14.00">mfem::L2_FiniteElement</text>
<text text-anchor="start" x="1412.5" y="-53.3" font-family="Helvetica,sans-Serif" font-size="14.00">_base&lt; Geometry::SQUARE,</text>
<text text-anchor="start" x="1412.5" y="-38.3" font-family="Helvetica,sans-Serif" font-size="14.00"> P, L2_QuadrilateralElement,</text>
<text text-anchor="start" x="1412.5" y="-23.3" font-family="Helvetica,sans-Serif" font-size="14.00"> L2Pos_QuadrilateralElement,</text>
<text text-anchor="middle" x="1518" y="-8.3" font-family="Helvetica,sans-Serif" font-size="14.00">(P+1) *(P+1), true &gt;</text>
</a>
</g>
</g>
<!-- Node3&#45;&gt;Node2 -->
<g id="edge1" class="edge"><title>Node3&#45;&gt;Node2</title>
<path fill="none" stroke="midnightblue" d="M1641.59,-42C1689.04,-42 1742.71,-42 1787.99,-42"/>
<polygon fill="midnightblue" stroke="midnightblue" points="1641.57,-38.5001 1631.57,-42 1641.57,-45.5001 1641.57,-38.5001"/>
</g>
<!-- Node4 -->
<g id="node3" class="node"><title>Node4</title>
<g id="a_node3"><a xlink:href="classmfem_1_1FiniteElement.html" target="_top" xlink:title="Abstract class for all finite elements. ">
<polygon fill="white" stroke="black" points="1114,-100.5 1114,-123.5 1280,-123.5 1280,-100.5 1114,-100.5"/>
<text text-anchor="middle" x="1197" y="-108.3" font-family="Helvetica,sans-Serif" font-size="14.00">mfem::FiniteElement</text>
</a>
</g>
</g>
<!-- Node4&#45;&gt;Node3 -->
<g id="edge2" class="edge"><title>Node4&#45;&gt;Node3</title>
<path fill="none" stroke="#9a32cd" stroke-dasharray="5,2" d="M1231.51,-96.2899C1253.39,-86.6734 1282.84,-74.9238 1310,-68 1340.18,-60.3044 1373.45,-54.8451 1404.32,-50.988"/>
<polygon fill="#9a32cd" stroke="#9a32cd" points="1230.03,-93.1198 1222.32,-100.396 1232.88,-99.5103 1230.03,-93.1198"/>
<text text-anchor="middle" x="1348" y="-86.8" font-family="Helvetica,sans-Serif" font-size="14.00"> my_fe_1d</text>
<text text-anchor="middle" x="1348" y="-71.8" font-family="Helvetica,sans-Serif" font-size="14.00">my_fe</text>
</g>
<!-- Node7 -->
<g id="node6" class="node"><title>Node7</title>
<g id="a_node6"><a xlink:href="classmfem_1_1DofToQuad.html" target="_top" xlink:title="Structure representing the matrices/tensors needed to evaluate (in reference space) the values...">
<polygon fill="white" stroke="black" points="1444,-161.5 1444,-184.5 1592,-184.5 1592,-161.5 1444,-161.5"/>
<text text-anchor="middle" x="1518" y="-169.3" font-family="Helvetica,sans-Serif" font-size="14.00">mfem::DofToQuad</text>
</a>
</g>
</g>
<!-- Node4&#45;&gt;Node7 -->
<g id="edge12" class="edge"><title>Node4&#45;&gt;Node7</title>
<path fill="none" stroke="#9a32cd" stroke-dasharray="5,2" d="M1274.13,-125.334C1308.36,-131.441 1349.25,-138.89 1386,-146 1411.19,-150.873 1439.04,-156.57 1462.56,-161.472"/>
<polygon fill="#9a32cd" stroke="#9a32cd" points="1274.66,-121.873 1264.2,-123.566 1273.43,-128.764 1274.66,-121.873"/>
<text text-anchor="middle" x="1348" y="-149.8" font-family="Helvetica,sans-Serif" font-size="14.00"> FE</text>
</g>
<!-- Node5 -->
<g id="node4" class="node"><title>Node5</title>
<g id="a_node4"><a xlink:href="classmfem_1_1Array.html" target="_top" xlink:title="mfem::Array\&lt; mfem::\lDofToQuad *\&gt;">
<polygon fill="white" stroke="black" points="2068,-113 2068,-151 2244,-151 2244,-113 2068,-113"/>
<text text-anchor="start" x="2076" y="-135.8" font-family="Helvetica,sans-Serif" font-size="14.00">mfem::Array&lt; mfem::</text>
<text text-anchor="middle" x="2156" y="-120.8" font-family="Helvetica,sans-Serif" font-size="14.00">DofToQuad *&gt;</text>
</a>
</g>
</g>
<!-- Node5&#45;&gt;Node4 -->
<g id="edge3" class="edge"><title>Node5&#45;&gt;Node4</title>
<path fill="none" stroke="#9a32cd" stroke-dasharray="5,2" d="M2057.68,-129.966C1868.85,-126.02 1455.93,-117.39 1280.01,-113.714"/>
<polygon fill="#9a32cd" stroke="#9a32cd" points="2057.8,-133.469 2067.87,-130.179 2057.94,-126.471 2057.8,-133.469"/>
<text text-anchor="middle" x="1710" y="-127.8" font-family="Helvetica,sans-Serif" font-size="14.00"> dof2quad_array</text>
</g>
<!-- Node6 -->
<g id="node5" class="node"><title>Node6</title>
<g id="a_node5"><a xlink:href="classmfem_1_1Memory.html" target="_top" xlink:title="mfem::Memory\&lt; mfem\l::DofToQuad *\&gt;">
<polygon fill="white" stroke="black" points="1798,-143 1798,-181 1984,-181 1984,-143 1798,-143"/>
<text text-anchor="start" x="1806" y="-165.8" font-family="Helvetica,sans-Serif" font-size="14.00">mfem::Memory&lt; mfem</text>
<text text-anchor="middle" x="1891" y="-150.8" font-family="Helvetica,sans-Serif" font-size="14.00">::DofToQuad *&gt;</text>
</a>
</g>
</g>
<!-- Node6&#45;&gt;Node5 -->
<g id="edge4" class="edge"><title>Node6&#45;&gt;Node5</title>
<path fill="none" stroke="#9a32cd" stroke-dasharray="5,2" d="M1994.29,-150.332C2018.55,-147.565 2044.2,-144.638 2067.72,-141.956"/>
<polygon fill="#9a32cd" stroke="#9a32cd" points="1993.89,-146.854 1984.35,-151.465 1994.69,-153.809 1993.89,-146.854"/>
<text text-anchor="middle" x="2031" y="-151.8" font-family="Helvetica,sans-Serif" font-size="14.00"> data</text>
</g>
<!-- Node7&#45;&gt;Node6 -->
<g id="edge5" class="edge"><title>Node7&#45;&gt;Node6</title>
<path fill="none" stroke="#9a32cd" stroke-dasharray="5,2" d="M1602.53,-170.523C1660.57,-168.803 1737.91,-166.509 1797.76,-164.735"/>
<polygon fill="#9a32cd" stroke="#9a32cd" points="1602.19,-167.032 1592.3,-170.827 1602.4,-174.029 1602.19,-167.032"/>
<text text-anchor="middle" x="1710" y="-172.8" font-family="Helvetica,sans-Serif" font-size="14.00"> h_ptr</text>
</g>
<!-- Node8 -->
<g id="node7" class="node"><title>Node8</title>
<g id="a_node7"><a xlink:href="classmfem_1_1IntegrationRule.html" target="_top" xlink:title="Class for an integration rule &#45; an Array of IntegrationPoint. ">
<polygon fill="white" stroke="black" points="814,-154.5 814,-177.5 992,-177.5 992,-154.5 814,-154.5"/>
<text text-anchor="middle" x="903" y="-162.3" font-family="Helvetica,sans-Serif" font-size="14.00">mfem::IntegrationRule</text>
</a>
</g>
</g>
<!-- Node8&#45;&gt;Node7 -->
<g id="edge6" class="edge"><title>Node8&#45;&gt;Node7</title>
<path fill="none" stroke="#9a32cd" stroke-dasharray="5,2" d="M1002.34,-167.123C1125.53,-168.53 1333.78,-170.908 1443.81,-172.164"/>
<polygon fill="#9a32cd" stroke="#9a32cd" points="1002.19,-163.621 992.154,-167.007 1002.11,-170.621 1002.19,-163.621"/>
<text text-anchor="middle" x="1197" y="-174.8" font-family="Helvetica,sans-Serif" font-size="14.00"> IntRule</text>
</g>
<!-- Node8&#45;&gt;Node4 -->
<g id="edge13" class="edge"><title>Node8&#45;&gt;Node4</title>
<path fill="none" stroke="#9a32cd" stroke-dasharray="5,2" d="M976.371,-152.616C1024.74,-143.672 1087.71,-132.027 1133.81,-123.5"/>
<polygon fill="#9a32cd" stroke="#9a32cd" points="975.48,-149.222 966.283,-154.482 976.753,-156.105 975.48,-149.222"/>
<text text-anchor="middle" x="1055" y="-146.8" font-family="Helvetica,sans-Serif" font-size="14.00"> Nodes</text>
</g>
<!-- Node9 -->
<g id="node8" class="node"><title>Node9</title>
<g id="a_node8"><a xlink:href="classmfem_1_1Array.html" target="_top" xlink:title="mfem::Array\&lt; Integration\lPoint \&gt;">
<polygon fill="white" stroke="black" points="556.5,-147 556.5,-185 759.5,-185 759.5,-147 556.5,-147"/>
<text text-anchor="start" x="564.5" y="-169.8" font-family="Helvetica,sans-Serif" font-size="14.00">mfem::Array&lt; Integration</text>
<text text-anchor="middle" x="658" y="-154.8" font-family="Helvetica,sans-Serif" font-size="14.00">Point &gt;</text>
</a>
</g>
</g>
<!-- Node9&#45;&gt;Node8 -->
<g id="edge7" class="edge"><title>Node9&#45;&gt;Node8</title>
<path fill="none" stroke="midnightblue" d="M769.783,-166C784.568,-166 799.567,-166 813.894,-166"/>
<polygon fill="midnightblue" stroke="midnightblue" points="769.592,-162.5 759.591,-166 769.591,-169.5 769.592,-162.5"/>
</g>
<!-- Node10 -->
<g id="node9" class="node"><title>Node10</title>
<g id="a_node9"><a xlink:href="classmfem_1_1Memory.html" target="_top" xlink:title="mfem::Memory\&lt; Integration\lPoint \&gt;">
<polygon fill="white" stroke="black" points="260,-147 260,-185 482,-185 482,-147 260,-147"/>
<text text-anchor="start" x="268" y="-169.8" font-family="Helvetica,sans-Serif" font-size="14.00">mfem::Memory&lt; Integration</text>
<text text-anchor="middle" x="371" y="-154.8" font-family="Helvetica,sans-Serif" font-size="14.00">Point &gt;</text>
</a>
</g>
</g>
<!-- Node10&#45;&gt;Node9 -->
<g id="edge8" class="edge"><title>Node10&#45;&gt;Node9</title>
<path fill="none" stroke="#9a32cd" stroke-dasharray="5,2" d="M492.278,-166C513.639,-166 535.683,-166 556.426,-166"/>
<polygon fill="#9a32cd" stroke="#9a32cd" points="492.188,-162.5 482.188,-166 492.188,-169.5 492.188,-162.5"/>
<text text-anchor="middle" x="519" y="-169.8" font-family="Helvetica,sans-Serif" font-size="14.00"> data</text>
</g>
<!-- Node11 -->
<g id="node10" class="node"><title>Node11</title>
<g id="a_node10"><a xlink:href="classmfem_1_1IntegrationPoint.html" target="_top" xlink:title="Class for integration point with weight. ">
<polygon fill="white" stroke="black" points="0,-154.5 0,-177.5 182,-177.5 182,-154.5 0,-154.5"/>
<text text-anchor="middle" x="91" y="-162.3" font-family="Helvetica,sans-Serif" font-size="14.00">mfem::IntegrationPoint</text>
</a>
</g>
</g>
<!-- Node11&#45;&gt;Node10 -->
<g id="edge9" class="edge"><title>Node11&#45;&gt;Node10</title>
<path fill="none" stroke="#9a32cd" stroke-dasharray="5,2" d="M192.526,-166C214.373,-166 237.597,-166 259.796,-166"/>
<polygon fill="#9a32cd" stroke="#9a32cd" points="192.259,-162.5 182.259,-166 192.259,-169.5 192.259,-162.5"/>
<text text-anchor="middle" x="221" y="-169.8" font-family="Helvetica,sans-Serif" font-size="14.00"> h_ptr</text>
</g>
<!-- Node12 -->
<g id="node11" class="node"><title>Node12</title>
<g id="a_node11"><a xlink:href="classmfem_1_1Array.html" target="_top" xlink:title="mfem::Array\&lt; double \&gt;">
<polygon fill="white" stroke="black" points="1102.5,-208.5 1102.5,-231.5 1291.5,-231.5 1291.5,-208.5 1102.5,-208.5"/>
<text text-anchor="middle" x="1197" y="-216.3" font-family="Helvetica,sans-Serif" font-size="14.00">mfem::Array&lt; double &gt;</text>
</a>
</g>
</g>
<!-- Node12&#45;&gt;Node7 -->
<g id="edge10" class="edge"><title>Node12&#45;&gt;Node7</title>
<path fill="none" stroke="#9a32cd" stroke-dasharray="5,2" d="M1286.51,-206.96C1336.01,-199.666 1396.99,-190.682 1443.78,-183.787"/>
<polygon fill="#9a32cd" stroke="#9a32cd" points="1285.83,-203.522 1276.44,-208.442 1286.85,-210.447 1285.83,-203.522"/>
<text text-anchor="middle" x="1348" y="-252.8" font-family="Helvetica,sans-Serif" font-size="14.00"> G</text>
<text text-anchor="middle" x="1348" y="-237.8" font-family="Helvetica,sans-Serif" font-size="14.00">Gt</text>
<text text-anchor="middle" x="1348" y="-222.8" font-family="Helvetica,sans-Serif" font-size="14.00">B</text>
<text text-anchor="middle" x="1348" y="-207.8" font-family="Helvetica,sans-Serif" font-size="14.00">Bt</text>
</g>
<!-- Node13 -->
<g id="node12" class="node"><title>Node13</title>
<g id="a_node12"><a xlink:href="classmfem_1_1Memory.html" target="_top" xlink:title="mfem::Memory\&lt; double \&gt;">
<polygon fill="white" stroke="black" points="798.5,-208.5 798.5,-231.5 1007.5,-231.5 1007.5,-208.5 798.5,-208.5"/>
<text text-anchor="middle" x="903" y="-216.3" font-family="Helvetica,sans-Serif" font-size="14.00">mfem::Memory&lt; double &gt;</text>
</a>
</g>
</g>
<!-- Node13&#45;&gt;Node12 -->
<g id="edge11" class="edge"><title>Node13&#45;&gt;Node12</title>
<path fill="none" stroke="#9a32cd" stroke-dasharray="5,2" d="M1017.97,-220C1045.89,-220 1075.45,-220 1102.29,-220"/>
<polygon fill="#9a32cd" stroke="#9a32cd" points="1017.77,-216.5 1007.77,-220 1017.77,-223.5 1017.77,-216.5"/>
<text text-anchor="middle" x="1055" y="-223.8" font-family="Helvetica,sans-Serif" font-size="14.00"> data</text>
</g>
<!-- Node14 -->
<g id="node13" class="node"><title>Node14</title>
<g id="a_node13"><a xlink:href="classmfem_1_1DenseMatrix.html" target="_top" xlink:title="Data type dense matrix using column&#45;major storage. ">
<polygon fill="white" stroke="black" points="824,-95.5 824,-118.5 982,-118.5 982,-95.5 824,-95.5"/>
<text text-anchor="middle" x="903" y="-103.3" font-family="Helvetica,sans-Serif" font-size="14.00">mfem::DenseMatrix</text>
</a>
</g>
</g>
<!-- Node14&#45;&gt;Node4 -->
<g id="edge14" class="edge"><title>Node14&#45;&gt;Node4</title>
<path fill="none" stroke="#9a32cd" stroke-dasharray="5,2" d="M992.569,-106.961C1021.7,-107.09 1054.23,-107.386 1084,-108 1093.63,-108.199 1103.72,-108.47 1113.74,-108.779"/>
<polygon fill="#9a32cd" stroke="#9a32cd" points="992.432,-103.461 982.419,-106.922 992.405,-110.461 992.432,-103.461"/>
<text text-anchor="middle" x="1055" y="-111.8" font-family="Helvetica,sans-Serif" font-size="14.00"> vshape</text>
</g>
<!-- Node15 -->
<g id="node14" class="node"><title>Node15</title>
<g id="a_node14"><a xlink:href="classmfem_1_1Matrix.html" target="_top" xlink:title="Abstract data type matrix. ">
<polygon fill="white" stroke="black" points="601.5,-95.5 601.5,-118.5 714.5,-118.5 714.5,-95.5 601.5,-95.5"/>
<text text-anchor="middle" x="658" y="-103.3" font-family="Helvetica,sans-Serif" font-size="14.00">mfem::Matrix</text>
</a>
</g>
</g>
<!-- Node15&#45;&gt;Node14 -->
<g id="edge15" class="edge"><title>Node15&#45;&gt;Node14</title>
<path fill="none" stroke="midnightblue" d="M724.872,-107C755.442,-107 792.005,-107 823.952,-107"/>
<polygon fill="midnightblue" stroke="midnightblue" points="724.749,-103.5 714.749,-107 724.749,-110.5 724.749,-103.5"/>
</g>
<!-- Node16 -->
<g id="node15" class="node"><title>Node16</title>
<g id="a_node15"><a xlink:href="classmfem_1_1Operator.html" target="_top" xlink:title="Abstract operator. ">
<polygon fill="white" stroke="black" points="304.5,-95.5 304.5,-118.5 437.5,-118.5 437.5,-95.5 304.5,-95.5"/>
<text text-anchor="middle" x="371" y="-103.3" font-family="Helvetica,sans-Serif" font-size="14.00">mfem::Operator</text>
</a>
</g>
</g>
<!-- Node16&#45;&gt;Node15 -->
<g id="edge16" class="edge"><title>Node16&#45;&gt;Node15</title>
<path fill="none" stroke="midnightblue" d="M447.822,-107C496.044,-107 557.418,-107 601.19,-107"/>
<polygon fill="midnightblue" stroke="midnightblue" points="447.743,-103.5 437.743,-107 447.743,-110.5 447.743,-103.5"/>
</g>
</g>
</svg>
        <g id="navigator" transform="translate(0 0)" fill="#404254">
                <rect fill="#f2f5e9" fill-opacity="0.5" stroke="#606060" stroke-width=".5" x="0" y="0" width="60" height="60"/>
                <use id="zoomplus" xlink:href="#zoomPlus" x="17" y="9" onmousedown="handleZoom(evt,'in')"/>
                <use id="zoomminus" xlink:href="#zoomMin" x="42" y="9" onmousedown="handleZoom(evt,'out')"/>
                <use id="reset" xlink:href="#resetDef" x="30" y="36" onmousedown="handleReset()"/>
                <g id="arrowUp" xlink:href="#dirArrow" transform="translate(30 24)" onmousedown="handlePan(0,-1)">
                  <use xlink:href="#rim" fill="#404040">
                        <set attributeName="fill" to="#808080" begin="arrowUp.mouseover" end="arrowUp.mouseout"/>
                  </use>
                  <path fill="none" stroke="white" stroke-width="1.5" d="M0,-3.0v7 M-2.5,-0.5L0,-3.0L2.5,-0.5"/>
                </g>
                <g id="arrowRight" xlink:href="#dirArrow" transform="rotate(90) translate(36 -43)" onmousedown="handlePan(1,0)">
                  <use xlink:href="#rim" fill="#404040">
                        <set attributeName="fill" to="#808080" begin="arrowRight.mouseover" end="arrowRight.mouseout"/>
                  </use>
                  <path fill="none" stroke="white" stroke-width="1.5" d="M0,-3.0v7 M-2.5,-0.5L0,-3.0L2.5,-0.5"/>
                </g>
                <g id="arrowDown" xlink:href="#dirArrow" transform="rotate(180) translate(-30 -48)" onmousedown="handlePan(0,1)">
                  <use xlink:href="#rim" fill="#404040">
                        <set attributeName="fill" to="#808080" begin="arrowDown.mouseover" end="arrowDown.mouseout"/>
                  </use>
                  <path fill="none" stroke="white" stroke-width="1.5" d="M0,-3.0v7 M-2.5,-0.5L0,-3.0L2.5,-0.5"/>
                </g>
                <g id="arrowLeft" xlink:href="#dirArrow" transform="rotate(270) translate(-36 17)" onmousedown="handlePan(-1,0)">
                  <use xlink:href="#rim" fill="#404040">
                        <set attributeName="fill" to="#808080" begin="arrowLeft.mouseover" end="arrowLeft.mouseout"/>
                  </use>
                  <path fill="none" stroke="white" stroke-width="1.5" d="M0,-3.0v7 M-2.5,-0.5L0,-3.0L2.5,-0.5"/>
                </g>
        </g>
        <svg viewBox="0 0 15 15" width="100%" height="30px" preserveAspectRatio="xMaxYMin meet">
         <g id="arrow_out" transform="scale(0.3 0.3)">
          <a xlink:href="classmfem_1_1L2__FiniteElement_3_01Geometry_1_1SQUARE_00_01P_01_4__coll__graph_org.svg" target="_base">
           <rect id="button" ry="5" rx="5" y="6" x="6" height="38" width="38"
                fill="#f2f5e9" fill-opacity="0.5" stroke="#606060" stroke-width="1.0"/>
           <path id="arrow"
             d="M 11.500037,31.436501 C 11.940474,20.09759 22.043105,11.32322 32.158766,21.979434 L 37.068811,17.246167 C 37.068811,17.246167 37.088388,32 37.088388,32 L 22.160133,31.978069 C 22.160133,31.978069 26.997745,27.140456 26.997745,27.140456 C 18.528582,18.264221 13.291696,25.230495 11.500037,31.436501 z"
             style="fill:#404040;"/>
          </a>
         </g>
        </svg>
</svg>
