<?xml version="1.0" encoding="UTF-8" standalone="no"?>
<!DOCTYPE svg PUBLIC "-//W3C//DTD SVG 1.1//EN"
 "http://www.w3.org/Graphics/SVG/1.1/DTD/svg11.dtd">
<!-- Generated by graphviz version 2.30.1 (20200304.1809)
 -->
<!-- Title: mfem::Coefficient Pages: 1 -->
<svg width="742pt" height="1880pt"
 viewBox="0.00 0.00 742.00 1880.00" xmlns="http://www.w3.org/2000/svg" xmlns:xlink="http://www.w3.org/1999/xlink">
<g id="graph0" class="graph" transform="scale(1 1) rotate(0) translate(4 1876)">
<title>mfem::Coefficient</title>
<polygon fill="white" stroke="white" points="-4,5 -4,-1876 739,-1876 739,5 -4,5"/>
<!-- Node0 -->
<g id="node1" class="node"><title>Node0</title>
<polygon fill="#bfbfbf" stroke="black" points="0,-1030.5 0,-1053.5 144,-1053.5 144,-1030.5 0,-1030.5"/>
<text text-anchor="middle" x="72" y="-1038.3" font-family="Helvetica,sans-Serif" font-size="14.00">mfem::Coefficient</text>
</g>
<!-- Node1 -->
<g id="node2" class="node"><title>Node1</title>
<g id="a_node2"><a xlink:href="classCombo__Level__Set__Coefficient.html" target="_top" xlink:title="Combination of level sets: +1 inside the true domain, &#45;1 outside. ">
<polygon fill="white" stroke="black" points="205.5,-1848.5 205.5,-1871.5 432.5,-1871.5 432.5,-1848.5 205.5,-1848.5"/>
<text text-anchor="middle" x="319" y="-1856.3" font-family="Helvetica,sans-Serif" font-size="14.00">Combo_Level_Set_Coefficient</text>
</a>
</g>
</g>
<!-- Node0&#45;&gt;Node1 -->
<g id="edge1" class="edge"><title>Node0&#45;&gt;Node1</title>
<path fill="none" stroke="midnightblue" d="M72.5663,-1063.84C70.7335,-1180.09 68.26,-1725.28 180,-1839 187.219,-1846.35 195.844,-1851.83 205.21,-1855.87"/>
<polygon fill="midnightblue" stroke="midnightblue" points="76.0684,-1063.74 72.743,-1053.68 69.0695,-1063.62 76.0684,-1063.74"/>
</g>
<!-- Node2 -->
<g id="node3" class="node"><title>Node2</title>
<g id="a_node3"><a xlink:href="classDist__Level__Set__Coefficient.html" target="_top" xlink:title="Level set coefficient: +1 inside the true domain, &#45;1 outside. ">
<polygon fill="white" stroke="black" points="217,-1806.5 217,-1829.5 421,-1829.5 421,-1806.5 217,-1806.5"/>
<text text-anchor="middle" x="319" y="-1814.3" font-family="Helvetica,sans-Serif" font-size="14.00">Dist_Level_Set_Coefficient</text>
</a>
</g>
</g>
<!-- Node0&#45;&gt;Node2 -->
<g id="edge2" class="edge"><title>Node0&#45;&gt;Node2</title>
<path fill="none" stroke="midnightblue" d="M72.7463,-1063.74C71.9073,-1176.1 73.9793,-1689.89 180,-1797 190.144,-1807.25 203.027,-1813.87 216.828,-1817.99"/>
<polygon fill="midnightblue" stroke="midnightblue" points="76.2471,-1063.65 72.8389,-1053.62 69.2474,-1063.59 76.2471,-1063.65"/>
</g>
<!-- Node3 -->
<g id="node4" class="node"><title>Node3</title>
<polygon fill="white" stroke="#bfbfbf" points="225,-1764.5 225,-1787.5 413,-1787.5 413,-1764.5 225,-1764.5"/>
<text text-anchor="middle" x="319" y="-1772.3" font-family="Helvetica,sans-Serif" font-size="14.00">ElasticEnergyCoefficient</text>
</g>
<!-- Node0&#45;&gt;Node3 -->
<g id="edge3" class="edge"><title>Node0&#45;&gt;Node3</title>
<path fill="none" stroke="midnightblue" d="M72.9994,-1063.9C73.7718,-1172.16 83.5025,-1622.3 180,-1719 218.003,-1757.08 293.873,-1744.91 313.355,-1764.48"/>
<polygon fill="midnightblue" stroke="midnightblue" points="76.4985,-1063.71 72.9476,-1053.72 69.4986,-1063.74 76.4985,-1063.71"/>
</g>
<!-- Node0&#45;&gt;Node3 -->
<g id="edge4" class="edge"><title>Node0&#45;&gt;Node3</title>
<path fill="none" stroke="midnightblue" d="M72.9618,-1063.66C73.4011,-1171.08 81.4744,-1638.27 180,-1737 197.461,-1754.5 222.915,-1761.38 247.222,-1764.48"/>
<polygon fill="midnightblue" stroke="midnightblue" points="76.4619,-1063.63 72.9402,-1053.64 69.4619,-1063.65 76.4619,-1063.63"/>
</g>
<!-- Node0&#45;&gt;Node3 -->
<g id="edge5" class="edge"><title>Node0&#45;&gt;Node3</title>
<path fill="none" stroke="midnightblue" d="M72.9448,-1063.55C73.1344,-1171.74 79.6597,-1654.45 180,-1755 192.154,-1767.18 208.181,-1774.22 224.999,-1778.03"/>
<polygon fill="midnightblue" stroke="midnightblue" points="76.4449,-1063.5 72.9446,-1053.5 69.4449,-1063.5 76.4449,-1063.5"/>
</g>
<!-- Node0&#45;&gt;Node3 -->
<g id="edge6" class="edge"><title>Node0&#45;&gt;Node3</title>
<path fill="none" stroke="midnightblue" d="M72.9402,-1063.52C72.9504,-1174.28 78.0623,-1670.85 180,-1773 214.408,-1807.48 279.858,-1800.76 306.392,-1787.57"/>
<polygon fill="midnightblue" stroke="midnightblue" points="76.4402,-1063.51 72.9535,-1053.5 69.4402,-1063.5 76.4402,-1063.51"/>
</g>
<!-- Node0&#45;&gt;Node3 -->
<g id="edge7" class="edge"><title>Node0&#45;&gt;Node3</title>
<path fill="none" stroke="midnightblue" d="M72.9421,-1063.88C72.8373,-1179.75 76.7828,-1687.57 180,-1791 218.859,-1829.94 297.309,-1816.33 314.584,-1787.65"/>
<polygon fill="midnightblue" stroke="midnightblue" points="76.4425,-1063.64 72.9625,-1053.63 69.4425,-1063.63 76.4425,-1063.64"/>
</g>
<!-- Node4 -->
<g id="node5" class="node"><title>Node4</title>
<polygon fill="white" stroke="#bfbfbf" points="239.5,-1722.5 239.5,-1745.5 398.5,-1745.5 398.5,-1722.5 239.5,-1722.5"/>
<text text-anchor="middle" x="319" y="-1730.3" font-family="Helvetica,sans-Serif" font-size="14.00">ExactDistSphereLoc</text>
</g>
<!-- Node0&#45;&gt;Node4 -->
<g id="edge8" class="edge"><title>Node0&#45;&gt;Node4</title>
<path fill="none" stroke="midnightblue" d="M73.1704,-1063.91C74.4595,-1168.89 85.4972,-1619.17 180,-1713 195.649,-1728.54 217.61,-1735.68 239.418,-1738.44"/>
<polygon fill="midnightblue" stroke="midnightblue" points="76.667,-1063.56 73.0627,-1053.6 69.6674,-1063.64 76.667,-1063.56"/>
</g>
<!-- Node5 -->
<g id="node6" class="node"><title>Node5</title>
<polygon fill="white" stroke="#bfbfbf" points="186,-1680.5 186,-1703.5 452,-1703.5 452,-1680.5 186,-1680.5"/>
<text text-anchor="middle" x="319" y="-1688.3" font-family="Helvetica,sans-Serif" font-size="14.00">ExponentialGridFunctionCoefficient</text>
</g>
<!-- Node0&#45;&gt;Node5 -->
<g id="edge9" class="edge"><title>Node0&#45;&gt;Node5</title>
<path fill="none" stroke="midnightblue" d="M73.4958,-1063.74C76.1434,-1163.62 92.037,-1575.56 180,-1662 188.47,-1670.32 198.753,-1676.23 209.845,-1680.4"/>
<polygon fill="midnightblue" stroke="midnightblue" points="76.9918,-1063.53 73.2454,-1053.62 69.9939,-1063.7 76.9918,-1063.53"/>
</g>
<!-- Node0&#45;&gt;Node5 -->
<g id="edge10" class="edge"><title>Node0&#45;&gt;Node5</title>
<path fill="none" stroke="midnightblue" d="M73.3562,-1063.73C75.5535,-1165.51 90.3296,-1591.88 180,-1680 207.829,-1707.35 255.237,-1708.6 286.59,-1703.53"/>
<polygon fill="midnightblue" stroke="midnightblue" points="76.8547,-1063.62 73.1588,-1053.69 69.8561,-1063.76 76.8547,-1063.62"/>
</g>
<!-- Node6 -->
<g id="node7" class="node"><title>Node6</title>
<polygon fill="white" stroke="#bfbfbf" points="191,-1638.5 191,-1661.5 447,-1661.5 447,-1638.5 191,-1638.5"/>
<text text-anchor="middle" x="319" y="-1646.3" font-family="Helvetica,sans-Serif" font-size="14.00">LogarithmGridFunctionCoefficient</text>
</g>
<!-- Node0&#45;&gt;Node6 -->
<g id="edge11" class="edge"><title>Node0&#45;&gt;Node6</title>
<path fill="none" stroke="midnightblue" d="M73.8357,-1063.92C77.7606,-1159.9 97.7946,-1540.17 180,-1620 188.606,-1628.36 199.043,-1634.27 210.282,-1638.43"/>
<polygon fill="midnightblue" stroke="midnightblue" points="77.3317,-1063.75 73.4424,-1053.89 70.3371,-1064.02 77.3317,-1063.75"/>
</g>
<!-- Node0&#45;&gt;Node6 -->
<g id="edge12" class="edge"><title>Node0&#45;&gt;Node6</title>
<path fill="none" stroke="midnightblue" d="M73.6021,-1063.68C76.9189,-1161.23 96.0076,-1556.43 180,-1638 207.903,-1665.1 255.062,-1666.47 286.364,-1661.51"/>
<polygon fill="midnightblue" stroke="midnightblue" points="77.0955,-1063.41 73.2792,-1053.53 70.099,-1063.63 77.0955,-1063.41"/>
</g>
<!-- Node7 -->
<g id="node8" class="node"><title>Node7</title>
<g id="a_node8"><a xlink:href="classmfem_1_1CartesianCoefficient.html" target="_top" xlink:title="mfem::CartesianCoefficient">
<polygon fill="white" stroke="black" points="213,-1596.5 213,-1619.5 425,-1619.5 425,-1596.5 213,-1596.5"/>
<text text-anchor="middle" x="319" y="-1604.3" font-family="Helvetica,sans-Serif" font-size="14.00">mfem::CartesianCoefficient</text>
</a>
</g>
</g>
<!-- Node0&#45;&gt;Node7 -->
<g id="edge13" class="edge"><title>Node0&#45;&gt;Node7</title>
<path fill="none" stroke="midnightblue" d="M74.0557,-1064.08C78.956,-1156.74 102.633,-1512.88 180,-1587 189.275,-1595.89 200.624,-1601.99 212.791,-1606.09"/>
<polygon fill="midnightblue" stroke="midnightblue" points="77.5414,-1063.71 73.538,-1053.9 70.5505,-1064.06 77.5414,-1063.71"/>
</g>
<!-- Node11 -->
<g id="node12" class="node"><title>Node11</title>
<g id="a_node12"><a xlink:href="classmfem_1_1common_1_1PProductCoefficient.html" target="_top" xlink:title="mfem::common::PProductCoefficient">
<polygon fill="white" stroke="black" points="180,-1554.5 180,-1577.5 458,-1577.5 458,-1554.5 180,-1554.5"/>
<text text-anchor="middle" x="319" y="-1562.3" font-family="Helvetica,sans-Serif" font-size="14.00">mfem::common::PProductCoefficient</text>
</a>
</g>
</g>
<!-- Node0&#45;&gt;Node11 -->
<g id="edge17" class="edge"><title>Node0&#45;&gt;Node11</title>
<path fill="none" stroke="midnightblue" d="M74.4437,-1064.05C80.6772,-1152.16 108.286,-1477.37 180,-1545 183.791,-1548.57 187.918,-1551.7 192.298,-1554.42"/>
<polygon fill="midnightblue" stroke="midnightblue" points="77.9218,-1063.61 73.7452,-1053.88 70.9382,-1064.09 77.9218,-1063.61"/>
</g>
<!-- Node12 -->
<g id="node13" class="node"><title>Node12</title>
<g id="a_node13"><a xlink:href="classmfem_1_1ConstantCoefficient.html" target="_top" xlink:title="A coefficient that is constant across space and time. ">
<polygon fill="white" stroke="black" points="215,-1512.5 215,-1535.5 423,-1535.5 423,-1512.5 215,-1512.5"/>
<text text-anchor="middle" x="319" y="-1520.3" font-family="Helvetica,sans-Serif" font-size="14.00">mfem::ConstantCoefficient</text>
</a>
</g>
</g>
<!-- Node0&#45;&gt;Node12 -->
<g id="edge18" class="edge"><title>Node0&#45;&gt;Node12</title>
<path fill="none" stroke="midnightblue" d="M74.8993,-1063.74C82.5887,-1146.56 114.193,-1440.67 180,-1502 189.85,-1511.18 201.916,-1517.41 214.773,-1521.55"/>
<polygon fill="midnightblue" stroke="midnightblue" points="78.3781,-1063.35 73.9896,-1053.7 71.4067,-1063.98 78.3781,-1063.35"/>
</g>
<!-- Node13 -->
<g id="node14" class="node"><title>Node13</title>
<g id="a_node14"><a xlink:href="classmfem_1_1CylindricalAzimuthalCoefficient.html" target="_top" xlink:title="mfem::CylindricalAzimuthal\lCoefficient">
<polygon fill="white" stroke="black" points="212.5,-1455 212.5,-1493 425.5,-1493 425.5,-1455 212.5,-1455"/>
<text text-anchor="start" x="220.5" y="-1477.8" font-family="Helvetica,sans-Serif" font-size="14.00">mfem::CylindricalAzimuthal</text>
<text text-anchor="middle" x="319" y="-1462.8" font-family="Helvetica,sans-Serif" font-size="14.00">Coefficient</text>
</a>
</g>
</g>
<!-- Node0&#45;&gt;Node13 -->
<g id="edge19" class="edge"><title>Node0&#45;&gt;Node13</title>
<path fill="none" stroke="midnightblue" d="M75.8115,-1064.08C85.9682,-1140.37 123.186,-1391.09 180,-1445 189.234,-1453.76 200.411,-1460.16 212.36,-1464.8"/>
<polygon fill="midnightblue" stroke="midnightblue" points="79.2292,-1063.23 74.4623,-1053.76 72.2883,-1064.13 79.2292,-1063.23"/>
</g>
<!-- Node14 -->
<g id="node15" class="node"><title>Node14</title>
<g id="a_node15"><a xlink:href="classmfem_1_1CylindricalRadialCoefficient.html" target="_top" xlink:title="mfem::CylindricalRadialCoefficient">
<polygon fill="white" stroke="black" points="188,-1412.5 188,-1435.5 450,-1435.5 450,-1412.5 188,-1412.5"/>
<text text-anchor="middle" x="319" y="-1420.3" font-family="Helvetica,sans-Serif" font-size="14.00">mfem::CylindricalRadialCoefficient</text>
</a>
</g>
</g>
<!-- Node0&#45;&gt;Node14 -->
<g id="edge20" class="edge"><title>Node0&#45;&gt;Node14</title>
<path fill="none" stroke="midnightblue" d="M76.3534,-1063.73C87.7347,-1134.57 127.14,-1356.93 180,-1403 184.111,-1406.58 188.565,-1409.7 193.27,-1412.4"/>
<polygon fill="midnightblue" stroke="midnightblue" points="79.7882,-1063.04 74.7696,-1053.71 72.874,-1064.14 79.7882,-1063.04"/>
</g>
<!-- Node15 -->
<g id="node16" class="node"><title>Node15</title>
<g id="a_node16"><a xlink:href="classmfem_1_1DeltaCoefficient.html" target="_top" xlink:title="Delta function coefficient optionally multiplied by a weight coefficient and a scaled time dependent ...">
<polygon fill="white" stroke="black" points="228,-1370.5 228,-1393.5 410,-1393.5 410,-1370.5 228,-1370.5"/>
<text text-anchor="middle" x="319" y="-1378.3" font-family="Helvetica,sans-Serif" font-size="14.00">mfem::DeltaCoefficient</text>
</a>
</g>
</g>
<!-- Node0&#45;&gt;Node15 -->
<g id="edge21" class="edge"><title>Node0&#45;&gt;Node15</title>
<path fill="none" stroke="midnightblue" d="M73.083,-1063.88C74.5869,-1122.35 87.3623,-1283.12 180,-1361 193.448,-1372.31 210.348,-1378.89 227.665,-1382.53"/>
<polygon fill="midnightblue" stroke="midnightblue" points="76.578,-1063.54 72.9122,-1053.6 69.579,-1063.66 76.578,-1063.54"/>
</g>
<!-- Node16 -->
<g id="node17" class="node"><title>Node16</title>
<g id="a_node17"><a xlink:href="classmfem_1_1DeterminantCoefficient.html" target="_top" xlink:title="Scalar coefficient defined as the determinant of a matrix coefficient. ">
<polygon fill="white" stroke="black" points="201.5,-1328.5 201.5,-1351.5 436.5,-1351.5 436.5,-1328.5 201.5,-1328.5"/>
<text text-anchor="middle" x="319" y="-1336.3" font-family="Helvetica,sans-Serif" font-size="14.00">mfem::DeterminantCoefficient</text>
</a>
</g>
</g>
<!-- Node0&#45;&gt;Node16 -->
<g id="edge22" class="edge"><title>Node0&#45;&gt;Node16</title>
<path fill="none" stroke="midnightblue" d="M74.418,-1064.08C79.0977,-1117.18 98.8095,-1252.41 180,-1318 186.511,-1323.26 193.773,-1327.5 201.466,-1330.9"/>
<polygon fill="midnightblue" stroke="midnightblue" points="77.8816,-1063.48 73.6123,-1053.78 70.9029,-1064.03 77.8816,-1063.48"/>
</g>
<!-- Node17 -->
<g id="node18" class="node"><title>Node17</title>
<g id="a_node18"><a xlink:href="classmfem_1_1DivergenceGridFunctionCoefficient.html" target="_top" xlink:title="Scalar coefficient defined as the Divergence of a vector GridFunction. ">
<polygon fill="white" stroke="black" points="199,-1271 199,-1309 439,-1309 439,-1271 199,-1271"/>
<text text-anchor="start" x="207" y="-1293.8" font-family="Helvetica,sans-Serif" font-size="14.00">mfem::DivergenceGridFunction</text>
<text text-anchor="middle" x="319" y="-1278.8" font-family="Helvetica,sans-Serif" font-size="14.00">Coefficient</text>
</a>
</g>
</g>
<!-- Node0&#45;&gt;Node17 -->
<g id="edge23" class="edge"><title>Node0&#45;&gt;Node17</title>
<path fill="none" stroke="midnightblue" d="M76.9763,-1063.49C86.373,-1107.89 114.292,-1209.82 180,-1261 185.794,-1265.51 192.126,-1269.37 198.789,-1272.65"/>
<polygon fill="midnightblue" stroke="midnightblue" points="80.3727,-1062.63 74.9746,-1053.51 73.5094,-1064.01 80.3727,-1062.63"/>
</g>
<!-- Node18 -->
<g id="node19" class="node"><title>Node18</title>
<g id="a_node19"><a xlink:href="classmfem_1_1electromagnetics_1_1JouleHeatingCoefficient.html" target="_top" xlink:title="mfem::electromagnetics\l::JouleHeatingCoefficient">
<polygon fill="white" stroke="black" points="223,-1214 223,-1252 415,-1252 415,-1214 223,-1214"/>
<text text-anchor="start" x="231" y="-1236.8" font-family="Helvetica,sans-Serif" font-size="14.00">mfem::electromagnetics</text>
<text text-anchor="middle" x="319" y="-1221.8" font-family="Helvetica,sans-Serif" font-size="14.00">::JouleHeatingCoefficient</text>
</a>
</g>
</g>
<!-- Node0&#45;&gt;Node18 -->
<g id="edge24" class="edge"><title>Node0&#45;&gt;Node18</title>
<path fill="none" stroke="midnightblue" d="M80.84,-1063.42C94.9189,-1098.69 127.963,-1168.62 180,-1204 192.755,-1212.67 207.589,-1218.83 222.708,-1223.19"/>
<polygon fill="midnightblue" stroke="midnightblue" points="83.9415,-1061.73 77.0796,-1053.66 77.4097,-1064.25 83.9415,-1061.73"/>
</g>
<!-- Node19 -->
<g id="node20" class="node"><title>Node19</title>
<g id="a_node20"><a xlink:href="classmfem_1_1electromagnetics_1_1MeshDependentCoefficient.html" target="_top" xlink:title="mfem::electromagnetics\l::MeshDependentCoefficient">
<polygon fill="white" stroke="black" points="210,-1157 210,-1195 428,-1195 428,-1157 210,-1157"/>
<text text-anchor="start" x="218" y="-1179.8" font-family="Helvetica,sans-Serif" font-size="14.00">mfem::electromagnetics</text>
<text text-anchor="middle" x="319" y="-1164.8" font-family="Helvetica,sans-Serif" font-size="14.00">::MeshDependentCoefficient</text>
</a>
</g>
</g>
<!-- Node0&#45;&gt;Node19 -->
<g id="edge25" class="edge"><title>Node0&#45;&gt;Node19</title>
<path fill="none" stroke="midnightblue" d="M87.2887,-1061.72C105.843,-1085.79 140.559,-1125.88 180,-1147 189.281,-1151.97 199.337,-1156.09 209.647,-1159.5"/>
<polygon fill="midnightblue" stroke="midnightblue" points="90.017,-1059.52 81.2052,-1053.64 84.4255,-1063.73 90.017,-1059.52"/>
</g>
<!-- Node20 -->
<g id="node21" class="node"><title>Node20</title>
<g id="a_node21"><a xlink:href="classmfem_1_1ExtrudeCoefficient.html" target="_top" xlink:title="Class used for extruding scalar GridFunctions. ">
<polygon fill="white" stroke="black" points="219,-1114.5 219,-1137.5 419,-1137.5 419,-1114.5 219,-1114.5"/>
<text text-anchor="middle" x="319" y="-1122.3" font-family="Helvetica,sans-Serif" font-size="14.00">mfem::ExtrudeCoefficient</text>
</a>
</g>
</g>
<!-- Node0&#45;&gt;Node20 -->
<g id="edge26" class="edge"><title>Node0&#45;&gt;Node20</title>
<path fill="none" stroke="midnightblue" d="M96.601,-1059.49C117.456,-1074.04 149.253,-1094.07 180,-1105 192.33,-1109.38 205.599,-1112.85 218.862,-1115.6"/>
<polygon fill="midnightblue" stroke="midnightblue" points="98.5456,-1056.58 88.3681,-1053.63 94.488,-1062.28 98.5456,-1056.58"/>
</g>
<!-- Node21 -->
<g id="node22" class="node"><title>Node21</title>
<g id="a_node22"><a xlink:href="classmfem_1_1FunctionCoefficient.html" target="_top" xlink:title="A general function coefficient. ">
<polygon fill="white" stroke="black" points="217,-1072.5 217,-1095.5 421,-1095.5 421,-1072.5 217,-1072.5"/>
<text text-anchor="middle" x="319" y="-1080.3" font-family="Helvetica,sans-Serif" font-size="14.00">mfem::FunctionCoefficient</text>
</a>
</g>
</g>
<!-- Node0&#45;&gt;Node21 -->
<g id="edge27" class="edge"><title>Node0&#45;&gt;Node21</title>
<path fill="none" stroke="midnightblue" d="M139.401,-1055.49C152.821,-1058.09 166.847,-1060.71 180,-1063 198.861,-1066.28 219.223,-1069.54 238.364,-1072.48"/>
<polygon fill="midnightblue" stroke="midnightblue" points="139.766,-1052 129.28,-1053.51 138.425,-1058.87 139.766,-1052"/>
</g>
<!-- Node22 -->
<g id="node23" class="node"><title>Node22</title>
<g id="a_node23"><a xlink:href="classmfem_1_1GradComponentCoeff.html" target="_top" xlink:title="mfem::GradComponentCoeff">
<polygon fill="white" stroke="black" points="207,-1030.5 207,-1053.5 431,-1053.5 431,-1030.5 207,-1030.5"/>
<text text-anchor="middle" x="319" y="-1038.3" font-family="Helvetica,sans-Serif" font-size="14.00">mfem::GradComponentCoeff</text>
</a>
</g>
</g>
<!-- Node0&#45;&gt;Node22 -->
<g id="edge28" class="edge"><title>Node0&#45;&gt;Node22</title>
<path fill="none" stroke="midnightblue" d="M154.496,-1042C171.307,-1042 189.281,-1042 206.937,-1042"/>
<polygon fill="midnightblue" stroke="midnightblue" points="154.193,-1038.5 144.193,-1042 154.193,-1045.5 154.193,-1038.5"/>
</g>
<!-- Node23 -->
<g id="node24" class="node"><title>Node23</title>
<g id="a_node24"><a xlink:href="classmfem_1_1GridFunctionCoefficient.html" target="_top" xlink:title="Coefficient defined by a GridFunction. This coefficient is mesh dependent. ">
<polygon fill="white" stroke="black" points="202,-988.5 202,-1011.5 436,-1011.5 436,-988.5 202,-988.5"/>
<text text-anchor="middle" x="319" y="-996.3" font-family="Helvetica,sans-Serif" font-size="14.00">mfem::GridFunctionCoefficient</text>
</a>
</g>
</g>
<!-- Node0&#45;&gt;Node23 -->
<g id="edge29" class="edge"><title>Node0&#45;&gt;Node23</title>
<path fill="none" stroke="midnightblue" d="M139.401,-1028.51C152.821,-1025.91 166.847,-1023.29 180,-1021 198.861,-1017.72 219.223,-1014.46 238.364,-1011.52"/>
<polygon fill="midnightblue" stroke="midnightblue" points="138.425,-1025.13 129.28,-1030.49 139.766,-1032 138.425,-1025.13"/>
</g>
<!-- Node27 -->
<g id="node28" class="node"><title>Node27</title>
<g id="a_node28"><a xlink:href="classmfem_1_1InnerProductCoefficient.html" target="_top" xlink:title="Scalar coefficient defined as the inner product of two vector coefficients. ">
<polygon fill="white" stroke="black" points="201,-946.5 201,-969.5 437,-969.5 437,-946.5 201,-946.5"/>
<text text-anchor="middle" x="319" y="-954.3" font-family="Helvetica,sans-Serif" font-size="14.00">mfem::InnerProductCoefficient</text>
</a>
</g>
</g>
<!-- Node0&#45;&gt;Node27 -->
<g id="edge33" class="edge"><title>Node0&#45;&gt;Node27</title>
<path fill="none" stroke="midnightblue" d="M96.601,-1024.51C117.456,-1009.96 149.253,-989.931 180,-979 190.732,-975.185 202.175,-972.062 213.706,-969.507"/>
<polygon fill="midnightblue" stroke="midnightblue" points="94.488,-1021.72 88.3681,-1030.37 98.5456,-1027.42 94.488,-1021.72"/>
</g>
<!-- Node28 -->
<g id="node29" class="node"><title>Node28</title>
<g id="a_node29"><a xlink:href="classmfem_1_1NormalGradCoeff.html" target="_top" xlink:title="mfem::NormalGradCoeff">
<polygon fill="white" stroke="black" points="222,-904.5 222,-927.5 416,-927.5 416,-904.5 222,-904.5"/>
<text text-anchor="middle" x="319" y="-912.3" font-family="Helvetica,sans-Serif" font-size="14.00">mfem::NormalGradCoeff</text>
</a>
</g>
</g>
<!-- Node0&#45;&gt;Node28 -->
<g id="edge34" class="edge"><title>Node0&#45;&gt;Node28</title>
<path fill="none" stroke="midnightblue" d="M86.8178,-1022.3C105.107,-997.901 139.775,-957.104 180,-937 192.898,-930.554 207.255,-925.969 221.697,-922.73"/>
<polygon fill="midnightblue" stroke="midnightblue" points="83.9154,-1020.34 80.8408,-1030.48 89.567,-1024.47 83.9154,-1020.34"/>
</g>
<!-- Node29 -->
<g id="node30" class="node"><title>Node29</title>
<g id="a_node30"><a xlink:href="classmfem_1_1NormalGradComponentCoeff.html" target="_top" xlink:title="mfem::NormalGradComponent\lCoeff">
<polygon fill="white" stroke="black" points="199.5,-847 199.5,-885 438.5,-885 438.5,-847 199.5,-847"/>
<text text-anchor="start" x="207.5" y="-869.8" font-family="Helvetica,sans-Serif" font-size="14.00">mfem::NormalGradComponent</text>
<text text-anchor="middle" x="319" y="-854.8" font-family="Helvetica,sans-Serif" font-size="14.00">Coeff</text>
</a>
</g>
</g>
<!-- Node0&#45;&gt;Node29 -->
<g id="edge35" class="edge"><title>Node0&#45;&gt;Node29</title>
<path fill="none" stroke="midnightblue" d="M82.2653,-1020.71C97.5999,-988.134 131.457,-926.414 180,-895 186.063,-891.076 192.562,-887.672 199.314,-884.719"/>
<polygon fill="midnightblue" stroke="midnightblue" points="78.9086,-1019.63 77.9423,-1030.18 85.2771,-1022.54 78.9086,-1019.63"/>
</g>
<!-- Node30 -->
<g id="node31" class="node"><title>Node30</title>
<g id="a_node31"><a xlink:href="classmfem_1_1PmlCoefficient.html" target="_top" xlink:title="mfem::PmlCoefficient">
<polygon fill="white" stroke="black" points="234,-804.5 234,-827.5 404,-827.5 404,-804.5 234,-804.5"/>
<text text-anchor="middle" x="319" y="-812.3" font-family="Helvetica,sans-Serif" font-size="14.00">mfem::PmlCoefficient</text>
</a>
</g>
</g>
<!-- Node0&#45;&gt;Node30 -->
<g id="edge36" class="edge"><title>Node0&#45;&gt;Node30</title>
<path fill="none" stroke="midnightblue" d="M77.5381,-1020.54C87.7251,-978.069 116.654,-883.503 180,-838 195.665,-826.748 214.909,-820.362 233.999,-816.907"/>
<polygon fill="midnightblue" stroke="midnightblue" points="74.1053,-1019.85 75.2935,-1030.38 80.93,-1021.41 74.1053,-1019.85"/>
</g>
<!-- Node31 -->
<g id="node32" class="node"><title>Node31</title>
<g id="a_node32"><a xlink:href="classmfem_1_1PowerCoefficient.html" target="_top" xlink:title="Scalar coefficient defined as a scalar raised to a power. ">
<polygon fill="white" stroke="black" points="225,-762.5 225,-785.5 413,-785.5 413,-762.5 225,-762.5"/>
<text text-anchor="middle" x="319" y="-770.3" font-family="Helvetica,sans-Serif" font-size="14.00">mfem::PowerCoefficient</text>
</a>
</g>
</g>
<!-- Node0&#45;&gt;Node31 -->
<g id="edge37" class="edge"><title>Node0&#45;&gt;Node31</title>
<path fill="none" stroke="midnightblue" d="M75.4523,-1020.19C82.2092,-971.179 105.819,-852.158 180,-795 192.958,-785.016 208.676,-778.837 224.799,-775.15"/>
<polygon fill="midnightblue" stroke="midnightblue" points="71.9554,-1019.94 74.1642,-1030.31 78.8993,-1020.83 71.9554,-1019.94"/>
</g>
<!-- Node32 -->
<g id="node33" class="node"><title>Node32</title>
<g id="a_node33"><a xlink:href="classmfem_1_1ProductCoefficient.html" target="_top" xlink:title="Scalar coefficient defined as the product of two scalar coefficients or a scalar and a scalar coeffic...">
<polygon fill="white" stroke="black" points="220,-720.5 220,-743.5 418,-743.5 418,-720.5 220,-720.5"/>
<text text-anchor="middle" x="319" y="-728.3" font-family="Helvetica,sans-Serif" font-size="14.00">mfem::ProductCoefficient</text>
</a>
</g>
</g>
<!-- Node0&#45;&gt;Node32 -->
<g id="edge38" class="edge"><title>Node0&#45;&gt;Node32</title>
<path fill="none" stroke="midnightblue" d="M73.9521,-1019.97C77.5984,-965.162 95.1911,-822.089 180,-753 191.461,-743.663 205.296,-737.584 219.722,-733.739"/>
<polygon fill="midnightblue" stroke="midnightblue" points="70.44,-1020.09 73.3665,-1030.27 77.4287,-1020.49 70.44,-1020.09"/>
</g>
<!-- Node33 -->
<g id="node34" class="node"><title>Node33</title>
<g id="a_node34"><a xlink:href="classmfem_1_1PWCoefficient.html" target="_top" xlink:title="A piecewise coefficient with the pieces keyed off the element attribute numbers. ">
<polygon fill="white" stroke="black" points="235.5,-678.5 235.5,-701.5 402.5,-701.5 402.5,-678.5 235.5,-678.5"/>
<text text-anchor="middle" x="319" y="-686.3" font-family="Helvetica,sans-Serif" font-size="14.00">mfem::PWCoefficient</text>
</a>
</g>
</g>
<!-- Node0&#45;&gt;Node33 -->
<g id="edge39" class="edge"><title>Node0&#45;&gt;Node33</title>
<path fill="none" stroke="midnightblue" d="M72.7796,-1020.11C73.4641,-960.167 84.2526,-792.399 180,-711 195.417,-697.893 215.459,-691.102 235.467,-687.902"/>
<polygon fill="midnightblue" stroke="midnightblue" points="69.2792,-1020.3 72.7531,-1030.31 76.2792,-1020.32 69.2792,-1020.3"/>
</g>
<!-- Node34 -->
<g id="node35" class="node"><title>Node34</title>
<g id="a_node35"><a xlink:href="classmfem_1_1PWConstCoefficient.html" target="_top" xlink:title="A piecewise constant coefficient with the constants keyed off the element attribute numbers...">
<polygon fill="white" stroke="black" points="215.5,-636.5 215.5,-659.5 422.5,-659.5 422.5,-636.5 215.5,-636.5"/>
<text text-anchor="middle" x="319" y="-644.3" font-family="Helvetica,sans-Serif" font-size="14.00">mfem::PWConstCoefficient</text>
</a>
</g>
</g>
<!-- Node0&#45;&gt;Node34 -->
<g id="edge40" class="edge"><title>Node0&#45;&gt;Node34</title>
<path fill="none" stroke="midnightblue" d="M76.1697,-1020.04C87.1083,-947.404 125.612,-716.82 180,-669 190.101,-660.119 202.308,-654.102 215.234,-650.124"/>
<polygon fill="midnightblue" stroke="midnightblue" points="72.6546,-1019.88 74.6525,-1030.29 79.5792,-1020.91 72.6546,-1019.88"/>
</g>
<!-- Node35 -->
<g id="node36" class="node"><title>Node35</title>
<g id="a_node36"><a xlink:href="classmfem_1_1QuadratureFunctionCoefficient.html" target="_top" xlink:title="Quadrature function coefficient which requires that the quadrature rules used for this coefficient be...">
<polygon fill="white" stroke="black" points="213.5,-579 213.5,-617 424.5,-617 424.5,-579 213.5,-579"/>
<text text-anchor="start" x="221.5" y="-601.8" font-family="Helvetica,sans-Serif" font-size="14.00">mfem::QuadratureFunction</text>
<text text-anchor="middle" x="319" y="-586.8" font-family="Helvetica,sans-Serif" font-size="14.00">Coefficient</text>
</a>
</g>
</g>
<!-- Node0&#45;&gt;Node35 -->
<g id="edge41" class="edge"><title>Node0&#45;&gt;Node35</title>
<path fill="none" stroke="midnightblue" d="M75.5882,-1020.26C85.2322,-942.929 121.556,-682.86 180,-627 189.468,-617.95 201.006,-611.416 213.335,-606.742"/>
<polygon fill="midnightblue" stroke="midnightblue" points="72.1006,-1019.94 74.3595,-1030.3 79.0487,-1020.79 72.1006,-1019.94"/>
</g>
<!-- Node36 -->
<g id="node37" class="node"><title>Node36</title>
<g id="a_node37"><a xlink:href="classmfem_1_1RatioCoefficient.html" target="_top" xlink:title="Scalar coefficient defined as the ratio of two scalars where one or both scalars are scalar coefficie...">
<polygon fill="white" stroke="black" points="228.5,-536.5 228.5,-559.5 409.5,-559.5 409.5,-536.5 228.5,-536.5"/>
<text text-anchor="middle" x="319" y="-544.3" font-family="Helvetica,sans-Serif" font-size="14.00">mfem::RatioCoefficient</text>
</a>
</g>
</g>
<!-- Node0&#45;&gt;Node36 -->
<g id="edge42" class="edge"><title>Node0&#45;&gt;Node36</title>
<path fill="none" stroke="midnightblue" d="M74.7625,-1020.25C82.0404,-936.064 112.594,-633.172 180,-570 193.188,-557.64 210.387,-550.611 228.147,-546.857"/>
<polygon fill="midnightblue" stroke="midnightblue" points="71.257,-1020.17 73.9052,-1030.43 78.2323,-1020.76 71.257,-1020.17"/>
</g>
<!-- Node37 -->
<g id="node38" class="node"><title>Node37</title>
<g id="a_node38"><a xlink:href="classmfem_1_1RestrictedCoefficient.html" target="_top" xlink:title="Derived coefficient that takes the value of the parent coefficient for the active attributes and is z...">
<polygon fill="white" stroke="black" points="211.5,-494.5 211.5,-517.5 426.5,-517.5 426.5,-494.5 211.5,-494.5"/>
<text text-anchor="middle" x="319" y="-502.3" font-family="Helvetica,sans-Serif" font-size="14.00">mfem::RestrictedCoefficient</text>
</a>
</g>
</g>
<!-- Node0&#45;&gt;Node37 -->
<g id="edge43" class="edge"><title>Node0&#45;&gt;Node37</title>
<path fill="none" stroke="midnightblue" d="M74.3042,-1020.28C80.1034,-931.371 106.579,-596.571 180,-527 188.884,-518.582 199.632,-512.668 211.165,-508.598"/>
<polygon fill="midnightblue" stroke="midnightblue" points="70.8088,-1020.1 73.6716,-1030.3 77.7949,-1020.54 70.8088,-1020.1"/>
</g>
<!-- Node38 -->
<g id="node39" class="node"><title>Node38</title>
<g id="a_node39"><a xlink:href="classmfem_1_1ShiftedFunctionCoefficient.html" target="_top" xlink:title="mfem::ShiftedFunctionCoefficient">
<polygon fill="white" stroke="black" points="192,-452.5 192,-475.5 446,-475.5 446,-452.5 192,-452.5"/>
<text text-anchor="middle" x="319" y="-460.3" font-family="Helvetica,sans-Serif" font-size="14.00">mfem::ShiftedFunctionCoefficient</text>
</a>
</g>
</g>
<!-- Node0&#45;&gt;Node38 -->
<g id="edge44" class="edge"><title>Node0&#45;&gt;Node38</title>
<path fill="none" stroke="midnightblue" d="M73.9486,-1020.05C78.4666,-926.329 100.976,-561.017 180,-485 183.668,-481.472 187.662,-478.381 191.905,-475.68"/>
<polygon fill="midnightblue" stroke="midnightblue" points="70.4395,-1020.17 73.4744,-1030.32 77.4321,-1020.49 70.4395,-1020.17"/>
</g>
<!-- Node39 -->
<g id="node40" class="node"><title>Node39</title>
<g id="a_node40"><a xlink:href="classmfem_1_1SIMPInterpolationCoefficient.html" target="_top" xlink:title="Solid isotropic material penalization (SIMP) coefficient. ">
<polygon fill="white" stroke="black" points="184.5,-410.5 184.5,-433.5 453.5,-433.5 453.5,-410.5 184.5,-410.5"/>
<text text-anchor="middle" x="319" y="-418.3" font-family="Helvetica,sans-Serif" font-size="14.00">mfem::SIMPInterpolationCoefficient</text>
</a>
</g>
</g>
<!-- Node0&#45;&gt;Node39 -->
<g id="edge45" class="edge"><title>Node0&#45;&gt;Node39</title>
<path fill="none" stroke="midnightblue" d="M73.6203,-1020.3C76.8744,-922.7 95.2201,-525.624 180,-443 183.645,-439.448 187.62,-436.338 191.847,-433.62"/>
<polygon fill="midnightblue" stroke="midnightblue" points="70.1174,-1020.34 73.3016,-1030.44 77.114,-1020.56 70.1174,-1020.34"/>
</g>
<!-- Node40 -->
<g id="node41" class="node"><title>Node40</title>
<g id="a_node41"><a xlink:href="classmfem_1_1SphericalAzimuthalCoefficient.html" target="_top" xlink:title="mfem::SphericalAzimuthal\lCoefficient">
<polygon fill="white" stroke="black" points="216,-353 216,-391 422,-391 422,-353 216,-353"/>
<text text-anchor="start" x="224" y="-375.8" font-family="Helvetica,sans-Serif" font-size="14.00">mfem::SphericalAzimuthal</text>
<text text-anchor="middle" x="319" y="-360.8" font-family="Helvetica,sans-Serif" font-size="14.00">Coefficient</text>
</a>
</g>
</g>
<!-- Node0&#45;&gt;Node40 -->
<g id="edge46" class="edge"><title>Node0&#45;&gt;Node40</title>
<path fill="none" stroke="midnightblue" d="M73.4594,-1020.21C76.0558,-918.629 92.1111,-492.635 180,-401 189.829,-390.752 202.288,-383.659 215.68,-378.818"/>
<polygon fill="midnightblue" stroke="midnightblue" points="69.9542,-1020.39 73.2158,-1030.47 76.9522,-1020.56 69.9542,-1020.39"/>
</g>
<!-- Node41 -->
<g id="node42" class="node"><title>Node41</title>
<g id="a_node42"><a xlink:href="classmfem_1_1SphericalPolarCoefficient.html" target="_top" xlink:title="mfem::SphericalPolarCoefficient">
<polygon fill="white" stroke="black" points="196.5,-310.5 196.5,-333.5 441.5,-333.5 441.5,-310.5 196.5,-310.5"/>
<text text-anchor="middle" x="319" y="-318.3" font-family="Helvetica,sans-Serif" font-size="14.00">mfem::SphericalPolarCoefficient</text>
</a>
</g>
</g>
<!-- Node0&#45;&gt;Node41 -->
<g id="edge47" class="edge"><title>Node0&#45;&gt;Node41</title>
<path fill="none" stroke="midnightblue" d="M73.0358,-1020.25C73.681,-913.083 82.1204,-442.467 180,-344 184.875,-339.096 190.374,-335.012 196.299,-331.625"/>
<polygon fill="midnightblue" stroke="midnightblue" points="69.535,-1020.46 72.9924,-1030.48 76.5349,-1020.49 69.535,-1020.46"/>
</g>
<!-- Node42 -->
<g id="node43" class="node"><title>Node42</title>
<g id="a_node43"><a xlink:href="classmfem_1_1SphericalRadialCoefficient.html" target="_top" xlink:title="mfem::SphericalRadialCoefficient">
<polygon fill="white" stroke="black" points="192,-268.5 192,-291.5 446,-291.5 446,-268.5 192,-268.5"/>
<text text-anchor="middle" x="319" y="-276.3" font-family="Helvetica,sans-Serif" font-size="14.00">mfem::SphericalRadialCoefficient</text>
</a>
</g>
</g>
<!-- Node0&#45;&gt;Node42 -->
<g id="edge48" class="edge"><title>Node0&#45;&gt;Node42</title>
<path fill="none" stroke="midnightblue" d="M72.8103,-1020.31C72.3105,-909.292 75.8789,-405.916 180,-301 183.67,-297.302 187.697,-294.077 191.995,-291.271"/>
<polygon fill="midnightblue" stroke="midnightblue" points="69.3104,-1020.35 72.8723,-1030.32 76.3103,-1020.3 69.3104,-1020.35"/>
</g>
<!-- Node43 -->
<g id="node44" class="node"><title>Node43</title>
<g id="a_node44"><a xlink:href="classmfem_1_1StrainEnergyDensityCoefficient.html" target="_top" xlink:title="Strain energy density coefficient. ">
<polygon fill="white" stroke="black" points="211.5,-211 211.5,-249 426.5,-249 426.5,-211 211.5,-211"/>
<text text-anchor="start" x="219.5" y="-233.8" font-family="Helvetica,sans-Serif" font-size="14.00">mfem::StrainEnergyDensity</text>
<text text-anchor="middle" x="319" y="-218.8" font-family="Helvetica,sans-Serif" font-size="14.00">Coefficient</text>
</a>
</g>
</g>
<!-- Node0&#45;&gt;Node43 -->
<g id="edge49" class="edge"><title>Node0&#45;&gt;Node43</title>
<path fill="none" stroke="midnightblue" d="M72.7368,-1020.29C71.8087,-905.838 73.3441,-373.547 180,-259 188.675,-249.683 199.52,-242.955 211.295,-238.147"/>
<polygon fill="midnightblue" stroke="midnightblue" points="69.237,-1020.33 72.8339,-1030.3 76.2366,-1020.27 69.237,-1020.33"/>
</g>
<!-- Node44 -->
<g id="node45" class="node"><title>Node44</title>
<g id="a_node45"><a xlink:href="classmfem_1_1SumCoefficient.html" target="_top" xlink:title="Scalar coefficient defined as the linear combination of two scalar coefficients or a scalar and a sca...">
<polygon fill="white" stroke="black" points="231,-168.5 231,-191.5 407,-191.5 407,-168.5 231,-168.5"/>
<text text-anchor="middle" x="319" y="-176.3" font-family="Helvetica,sans-Serif" font-size="14.00">mfem::SumCoefficient</text>
</a>
</g>
</g>
<!-- Node0&#45;&gt;Node44 -->
<g id="edge50" class="edge"><title>Node0&#45;&gt;Node44</title>
<path fill="none" stroke="midnightblue" d="M74.2367,-1020.16C81.5749,-894.069 121.093,-262.786 180,-202 193.423,-188.149 211.817,-180.78 230.801,-177.201"/>
<polygon fill="midnightblue" stroke="midnightblue" points="70.7244,-1020.27 73.6439,-1030.46 77.7128,-1020.67 70.7244,-1020.27"/>
</g>
<!-- Node45 -->
<g id="node46" class="node"><title>Node45</title>
<g id="a_node46"><a xlink:href="classmfem_1_1TransformedCoefficient.html" target="_top" xlink:title="A coefficient that depends on 1 or 2 parent coefficients and a transformation rule represented by a C...">
<polygon fill="white" stroke="black" points="201.5,-126.5 201.5,-149.5 436.5,-149.5 436.5,-126.5 201.5,-126.5"/>
<text text-anchor="middle" x="319" y="-134.3" font-family="Helvetica,sans-Serif" font-size="14.00">mfem::TransformedCoefficient</text>
</a>
</g>
</g>
<!-- Node0&#45;&gt;Node45 -->
<g id="edge51" class="edge"><title>Node0&#45;&gt;Node45</title>
<path fill="none" stroke="midnightblue" d="M74.0832,-1020.26C80.742,-890.62 117.901,-223.018 180,-159 186.159,-152.651 193.367,-147.685 201.199,-143.838"/>
<polygon fill="midnightblue" stroke="midnightblue" points="70.5751,-1020.33 73.5638,-1030.5 77.5661,-1020.69 70.5751,-1020.33"/>
</g>
<!-- Node46 -->
<g id="node47" class="node"><title>Node46</title>
<g id="a_node47"><a xlink:href="classmfem_1_1VectorRotProductCoefficient.html" target="_top" xlink:title="Scalar coefficient defined as a cross product of two vectors in the xy&#45;plane. ">
<polygon fill="white" stroke="black" points="185.5,-84.5 185.5,-107.5 452.5,-107.5 452.5,-84.5 185.5,-84.5"/>
<text text-anchor="middle" x="319" y="-92.3" font-family="Helvetica,sans-Serif" font-size="14.00">mfem::VectorRotProductCoefficient</text>
</a>
</g>
</g>
<!-- Node0&#45;&gt;Node46 -->
<g id="edge52" class="edge"><title>Node0&#45;&gt;Node46</title>
<path fill="none" stroke="midnightblue" d="M73.9673,-1020.06C80.0656,-886.326 115.038,-184.334 180,-117 183.449,-113.425 187.231,-110.287 191.27,-107.541"/>
<polygon fill="midnightblue" stroke="midnightblue" points="70.4608,-1020.13 73.5076,-1030.28 77.4537,-1020.44 70.4608,-1020.13"/>
</g>
<!-- Node47 -->
<g id="node48" class="node"><title>Node47</title>
<polygon fill="white" stroke="#bfbfbf" points="250.5,-42.5 250.5,-65.5 387.5,-65.5 387.5,-42.5 250.5,-42.5"/>
<text text-anchor="middle" x="319" y="-50.3" font-family="Helvetica,sans-Serif" font-size="14.00">StressCoefficient</text>
</g>
<!-- Node0&#45;&gt;Node47 -->
<g id="edge53" class="edge"><title>Node0&#45;&gt;Node47</title>
<path fill="none" stroke="midnightblue" d="M73.7561,-1020.27C78.9967,-882.593 111.735,-137.109 180,-66 207.608,-37.2418 256.716,-36.7713 288.294,-42.4968"/>
<polygon fill="midnightblue" stroke="midnightblue" points="70.2531,-1020.29 73.3792,-1030.41 77.2483,-1020.55 70.2531,-1020.29"/>
</g>
<!-- Node0&#45;&gt;Node47 -->
<g id="edge54" class="edge"><title>Node0&#45;&gt;Node47</title>
<path fill="none" stroke="midnightblue" d="M73.9471,-1020.12C79.7516,-883.598 112.517,-154.294 180,-84 197.958,-65.294 225.012,-58.5564 250.422,-56.3931"/>
<polygon fill="midnightblue" stroke="midnightblue" points="70.4466,-1020.06 73.5214,-1030.2 77.4403,-1020.35 70.4466,-1020.06"/>
</g>
<!-- Node48 -->
<g id="node49" class="node"><title>Node48</title>
<polygon fill="white" stroke="#bfbfbf" points="277.5,-0.5 277.5,-23.5 360.5,-23.5 360.5,-0.5 277.5,-0.5"/>
<text text-anchor="middle" x="319" y="-8.3" font-family="Helvetica,sans-Serif" font-size="14.00">TestCoeff</text>
</g>
<!-- Node0&#45;&gt;Node48 -->
<g id="edge55" class="edge"><title>Node0&#45;&gt;Node48</title>
<path fill="none" stroke="midnightblue" d="M73.7534,-1019.86C78.7646,-878.613 109.27,-107.013 180,-33 204.529,-7.33265 246.177,-4.16514 277.318,-6.15144"/>
<polygon fill="midnightblue" stroke="midnightblue" points="70.2418,-1020.13 73.3909,-1030.25 77.2376,-1020.38 70.2418,-1020.13"/>
</g>
<!-- Node8 -->
<g id="node9" class="node"><title>Node8</title>
<g id="a_node9"><a xlink:href="classmfem_1_1CartesianXCoefficient.html" target="_top" xlink:title="Scalar coefficient which returns the x&#45;component of the evaluation point. ">
<polygon fill="white" stroke="black" points="503.5,-1638.5 503.5,-1661.5 724.5,-1661.5 724.5,-1638.5 503.5,-1638.5"/>
<text text-anchor="middle" x="614" y="-1646.3" font-family="Helvetica,sans-Serif" font-size="14.00">mfem::CartesianXCoefficient</text>
</a>
</g>
</g>
<!-- Node7&#45;&gt;Node8 -->
<g id="edge14" class="edge"><title>Node7&#45;&gt;Node8</title>
<path fill="none" stroke="midnightblue" d="M410.75,-1621.01C449.757,-1626.6 494.961,-1633.08 532.728,-1638.49"/>
<polygon fill="midnightblue" stroke="midnightblue" points="410.847,-1617.49 400.451,-1619.53 409.853,-1624.42 410.847,-1617.49"/>
</g>
<!-- Node9 -->
<g id="node10" class="node"><title>Node9</title>
<g id="a_node10"><a xlink:href="classmfem_1_1CartesianYCoefficient.html" target="_top" xlink:title="Scalar coefficient which returns the y&#45;component of the evaluation point. ">
<polygon fill="white" stroke="black" points="503.5,-1596.5 503.5,-1619.5 724.5,-1619.5 724.5,-1596.5 503.5,-1596.5"/>
<text text-anchor="middle" x="614" y="-1604.3" font-family="Helvetica,sans-Serif" font-size="14.00">mfem::CartesianYCoefficient</text>
</a>
</g>
</g>
<!-- Node7&#45;&gt;Node9 -->
<g id="edge15" class="edge"><title>Node7&#45;&gt;Node9</title>
<path fill="none" stroke="midnightblue" d="M435.519,-1608C457.787,-1608 481.055,-1608 503.137,-1608"/>
<polygon fill="midnightblue" stroke="midnightblue" points="435.366,-1604.5 425.366,-1608 435.366,-1611.5 435.366,-1604.5"/>
</g>
<!-- Node10 -->
<g id="node11" class="node"><title>Node10</title>
<g id="a_node11"><a xlink:href="classmfem_1_1CartesianZCoefficient.html" target="_top" xlink:title="Scalar coefficient which returns the z&#45;component of the evaluation point. ">
<polygon fill="white" stroke="black" points="503,-1554.5 503,-1577.5 725,-1577.5 725,-1554.5 503,-1554.5"/>
<text text-anchor="middle" x="614" y="-1562.3" font-family="Helvetica,sans-Serif" font-size="14.00">mfem::CartesianZCoefficient</text>
</a>
</g>
</g>
<!-- Node7&#45;&gt;Node10 -->
<g id="edge16" class="edge"><title>Node7&#45;&gt;Node10</title>
<path fill="none" stroke="midnightblue" d="M410.75,-1594.99C449.757,-1589.4 494.961,-1582.92 532.728,-1577.51"/>
<polygon fill="midnightblue" stroke="midnightblue" points="409.853,-1591.58 400.451,-1596.47 410.847,-1598.51 409.853,-1591.58"/>
</g>
<!-- Node24 -->
<g id="node25" class="node"><title>Node24</title>
<g id="a_node25"><a xlink:href="classmfem_1_1DiffMappedGridFunctionCoefficient.html" target="_top" xlink:title="Returns f(u(x)) &#45; f(v(x)) where u, v are scalar GridFunctions and f:R → R. ">
<polygon fill="white" stroke="black" points="494,-1038 494,-1076 734,-1076 734,-1038 494,-1038"/>
<text text-anchor="start" x="502" y="-1060.8" font-family="Helvetica,sans-Serif" font-size="14.00">mfem::DiffMappedGridFunction</text>
<text text-anchor="middle" x="614" y="-1045.8" font-family="Helvetica,sans-Serif" font-size="14.00">Coefficient</text>
</a>
</g>
</g>
<!-- Node23&#45;&gt;Node24 -->
<g id="edge30" class="edge"><title>Node23&#45;&gt;Node24</title>
<path fill="none" stroke="midnightblue" d="M412.569,-1013.08C427.783,-1015.52 443.358,-1018.19 458,-1021 483.639,-1025.92 511.47,-1032.11 536.381,-1037.97"/>
<polygon fill="midnightblue" stroke="midnightblue" points="413.061,-1009.61 402.637,-1011.51 411.969,-1016.53 413.061,-1009.61"/>
</g>
<!-- Node25 -->
<g id="node26" class="node"><title>Node25</title>
<g id="a_node26"><a xlink:href="classmfem_1_1electromagnetics_1_1ScaledGFCoefficient.html" target="_top" xlink:title="mfem::electromagnetics\l::ScaledGFCoefficient">
<polygon fill="white" stroke="black" points="518,-981 518,-1019 710,-1019 710,-981 518,-981"/>
<text text-anchor="start" x="526" y="-1003.8" font-family="Helvetica,sans-Serif" font-size="14.00">mfem::electromagnetics</text>
<text text-anchor="middle" x="614" y="-988.8" font-family="Helvetica,sans-Serif" font-size="14.00">::ScaledGFCoefficient</text>
</a>
</g>
</g>
<!-- Node23&#45;&gt;Node25 -->
<g id="edge31" class="edge"><title>Node23&#45;&gt;Node25</title>
<path fill="none" stroke="midnightblue" d="M446.407,-1000C470.295,-1000 494.908,-1000 517.643,-1000"/>
<polygon fill="midnightblue" stroke="midnightblue" points="446.222,-996.5 436.222,-1000 446.222,-1003.5 446.222,-996.5"/>
</g>
<!-- Node26 -->
<g id="node27" class="node"><title>Node26</title>
<g id="a_node27"><a xlink:href="classmfem_1_1MappedGridFunctionCoefficient.html" target="_top" xlink:title="Returns f(u(x)) where u is a scalar GridFunction and f:R → R. ">
<polygon fill="white" stroke="black" points="506.5,-924 506.5,-962 721.5,-962 721.5,-924 506.5,-924"/>
<text text-anchor="start" x="514.5" y="-946.8" font-family="Helvetica,sans-Serif" font-size="14.00">mfem::MappedGridFunction</text>
<text text-anchor="middle" x="614" y="-931.8" font-family="Helvetica,sans-Serif" font-size="14.00">Coefficient</text>
</a>
</g>
</g>
<!-- Node23&#45;&gt;Node26 -->
<g id="edge32" class="edge"><title>Node23&#45;&gt;Node26</title>
<path fill="none" stroke="midnightblue" d="M412.569,-986.921C427.783,-984.483 443.358,-981.81 458,-979 483.639,-974.079 511.47,-967.886 536.381,-962.03"/>
<polygon fill="midnightblue" stroke="midnightblue" points="411.969,-983.472 402.637,-988.489 413.061,-990.387 411.969,-983.472"/>
</g>
</g>
</svg>
