<?xml version="1.0" encoding="UTF-8" standalone="no"?>
<!DOCTYPE svg PUBLIC "-//W3C//DTD SVG 1.1//EN"
 "http://www.w3.org/Graphics/SVG/1.1/DTD/svg11.dtd">
<!-- Generated by graphviz version 2.30.1 (20200304.1809)
 -->
<!-- Title: mfem::HdivSaddlePointSolver Pages: 1 -->
<svg width="236pt" height="152pt"
 viewBox="0.00 0.00 236.00 152.00" xmlns="http://www.w3.org/2000/svg" xmlns:xlink="http://www.w3.org/1999/xlink">
<g id="graph0" class="graph" transform="scale(1 1) rotate(0) translate(4 148)">
<title>mfem::HdivSaddlePointSolver</title>
<polygon fill="white" stroke="white" points="-4,5 -4,-148 233,-148 233,5 -4,5"/>
<!-- Node3 -->
<g id="node1" class="node"><title>Node3</title>
<polygon fill="#bfbfbf" stroke="black" points="0,-0.5 0,-23.5 228,-23.5 228,-0.5 0,-0.5"/>
<text text-anchor="middle" x="114" y="-8.3" font-family="Helvetica,sans-Serif" font-size="14.00">mfem::HdivSaddlePointSolver</text>
</g>
<!-- Node4 -->
<g id="node2" class="node"><title>Node4</title>
<g id="a_node2"><a xlink:href="classmfem_1_1Solver.html" target="_top" xlink:title="Base class for solvers. ">
<polygon fill="white" stroke="black" points="57.5,-60.5 57.5,-83.5 170.5,-83.5 170.5,-60.5 57.5,-60.5"/>
<text text-anchor="middle" x="114" y="-68.3" font-family="Helvetica,sans-Serif" font-size="14.00">mfem::Solver</text>
</a>
</g>
</g>
<!-- Node4&#45;&gt;Node3 -->
<g id="edge1" class="edge"><title>Node4&#45;&gt;Node3</title>
<path fill="none" stroke="midnightblue" d="M114,-50.1906C114,-41.1684 114,-30.9941 114,-23.5707"/>
<polygon fill="midnightblue" stroke="midnightblue" points="110.5,-50.3619 114,-60.3619 117.5,-50.3619 110.5,-50.3619"/>
</g>
<!-- Node5 -->
<g id="node3" class="node"><title>Node5</title>
<g id="a_node3"><a xlink:href="classmfem_1_1Operator.html" target="_top" xlink:title="Abstract operator. ">
<polygon fill="white" stroke="black" points="47.5,-120.5 47.5,-143.5 180.5,-143.5 180.5,-120.5 47.5,-120.5"/>
<text text-anchor="middle" x="114" y="-128.3" font-family="Helvetica,sans-Serif" font-size="14.00">mfem::Operator</text>
</a>
</g>
</g>
<!-- Node5&#45;&gt;Node4 -->
<g id="edge2" class="edge"><title>Node5&#45;&gt;Node4</title>
<path fill="none" stroke="midnightblue" d="M114,-110.191C114,-101.168 114,-90.9941 114,-83.5707"/>
<polygon fill="midnightblue" stroke="midnightblue" points="110.5,-110.362 114,-120.362 117.5,-110.362 110.5,-110.362"/>
</g>
</g>
</svg>
