<?xml version="1.0" encoding="UTF-8" standalone="no"?>
<!DOCTYPE svg PUBLIC "-//W3C//DTD SVG 1.1//EN"
 "http://www.w3.org/Graphics/SVG/1.1/DTD/svg11.dtd">
<!-- Generated by graphviz version 2.30.1 (20200304.1809)
 -->
<!-- Title: mfem::NodalTensorFiniteElement Pages: 1 -->
<!--zoomable 672 -->
<svg id="main" version="1.1" xmlns="http://www.w3.org/2000/svg" xmlns:xlink="http://www.w3.org/1999/xlink" xml:space="preserve" onload="init(evt)">
<style type="text/css"><![CDATA[
.edge:hover path { stroke: red; }
.edge:hover polygon { stroke: red; fill: red; }
]]></style>
<script type="text/javascript"><![CDATA[
var edges = document.getElementsByTagName('g');
if (edges && edges.length) {
  for (var i=0;i<edges.length;i++) {
    if (edges[i].id.substr(0,4)=='edge') {
      edges[i].setAttribute('class','edge');
    }
  }
}
]]></script>
        <defs>
                <circle id="rim" cx="0" cy="0" r="7"/>
                <circle id="rim2" cx="0" cy="0" r="3.5"/>
                <g id="zoomPlus">
                        <use xlink:href="#rim" fill="#404040">
                                <set attributeName="fill" to="#808080" begin="zoomplus.mouseover" end="zoomplus.mouseout"/>
                        </use>
                        <path d="M-4,0h8M0,-4v8" fill="none" stroke="white" stroke-width="1.5" pointer-events="none"/>
                </g>
                <g id="zoomMin">
                        <use xlink:href="#rim" fill="#404040">
                                <set attributeName="fill" to="#808080" begin="zoomminus.mouseover" end="zoomminus.mouseout"/>
                        </use>
                        <path d="M-4,0h8" fill="none" stroke="white" stroke-width="1.5" pointer-events="none"/>
                </g>
                <g id="dirArrow">
                        <path fill="none" stroke="white" stroke-width="1.5" d="M0,-3.0v7 M-2.5,-0.5L0,-3.0L2.5,-0.5"/>
                </g>
               <g id="resetDef">
                       <use xlink:href="#rim2" fill="#404040">
                               <set attributeName="fill" to="#808080" begin="reset.mouseover" end="reset.mouseout"/>
                       </use>
               </g>
        </defs>

<script type="text/javascript">
var viewWidth = 1004;
var viewHeight = 672;
var sectionId = 'dynsection-1';
</script>
<script xlink:href="svgpan.js"/>
<svg id="graph" class="graph">
<g id="viewport">
<title>mfem::NodalTensorFiniteElement</title>
<polygon fill="white" stroke="white" points="-4,5 -4,-668 1001,-668 1001,5 -4,5"/>
<!-- Node11 -->
<g id="node1" class="node"><title>Node11</title>
<polygon fill="#bfbfbf" stroke="black" points="437,-8.5 437,-31.5 691,-31.5 691,-8.5 437,-8.5"/>
<text text-anchor="middle" x="564" y="-16.3" font-family="Helvetica,sans-Serif" font-size="14.00">mfem::NodalTensorFiniteElement</text>
</g>
<!-- Node12 -->
<g id="node2" class="node"><title>Node12</title>
<g id="a_node2"><a xlink:href="classmfem_1_1NodalFiniteElement.html" target="_top" xlink:title="Class for standard nodal finite elements. ">
<polygon fill="white" stroke="black" points="438.5,-100.5 438.5,-123.5 645.5,-123.5 645.5,-100.5 438.5,-100.5"/>
<text text-anchor="middle" x="542" y="-108.3" font-family="Helvetica,sans-Serif" font-size="14.00">mfem::NodalFiniteElement</text>
</a>
</g>
</g>
<!-- Node12&#45;&gt;Node11 -->
<g id="edge1" class="edge"><title>Node12&#45;&gt;Node11</title>
<path fill="none" stroke="midnightblue" d="M546.988,-90.5958C551.463,-72.2865 557.856,-46.1358 561.393,-31.6637"/>
<polygon fill="midnightblue" stroke="midnightblue" points="543.585,-89.7773 544.61,-100.322 550.385,-91.4395 543.585,-89.7773"/>
</g>
<!-- Node13 -->
<g id="node3" class="node"><title>Node13</title>
<g id="a_node3"><a xlink:href="classmfem_1_1ScalarFiniteElement.html" target="_top" xlink:title="Class for finite elements with basis functions that return scalar values. ">
<polygon fill="white" stroke="black" points="420,-198.5 420,-221.5 630,-221.5 630,-198.5 420,-198.5"/>
<text text-anchor="middle" x="525" y="-206.3" font-family="Helvetica,sans-Serif" font-size="14.00">mfem::ScalarFiniteElement</text>
</a>
</g>
</g>
<!-- Node13&#45;&gt;Node12 -->
<g id="edge2" class="edge"><title>Node13&#45;&gt;Node12</title>
<path fill="none" stroke="midnightblue" d="M528.64,-188.445C532.157,-168.585 537.345,-139.286 540.107,-123.688"/>
<polygon fill="midnightblue" stroke="midnightblue" points="525.182,-187.902 526.884,-198.36 532.074,-189.123 525.182,-187.902"/>
</g>
<!-- Node14 -->
<g id="node4" class="node"><title>Node14</title>
<g id="a_node4"><a xlink:href="classmfem_1_1FiniteElement.html" target="_top" xlink:title="Abstract class for all finite elements. ">
<polygon fill="white" stroke="black" points="344,-318.5 344,-341.5 510,-341.5 510,-318.5 344,-318.5"/>
<text text-anchor="middle" x="427" y="-326.3" font-family="Helvetica,sans-Serif" font-size="14.00">mfem::FiniteElement</text>
</a>
</g>
</g>
<!-- Node14&#45;&gt;Node13 -->
<g id="edge3" class="edge"><title>Node14&#45;&gt;Node13</title>
<path fill="none" stroke="midnightblue" d="M442.459,-310.386C463.281,-285.315 499.639,-241.536 516.26,-221.524"/>
<polygon fill="midnightblue" stroke="midnightblue" points="439.74,-308.181 436.044,-318.11 445.126,-312.654 439.74,-308.181"/>
</g>
<!-- Node17 -->
<g id="node7" class="node"><title>Node17</title>
<g id="a_node7"><a xlink:href="classmfem_1_1DofToQuad.html" target="_top" xlink:title="Structure representing the matrices/tensors needed to evaluate (in reference space) the values...">
<polygon fill="white" stroke="black" points="197,-198.5 197,-221.5 345,-221.5 345,-198.5 197,-198.5"/>
<text text-anchor="middle" x="271" y="-206.3" font-family="Helvetica,sans-Serif" font-size="14.00">mfem::DofToQuad</text>
</a>
</g>
</g>
<!-- Node14&#45;&gt;Node17 -->
<g id="edge13" class="edge"><title>Node14&#45;&gt;Node17</title>
<path fill="none" stroke="#9a32cd" stroke-dasharray="5,2" d="M383.647,-314.68C374.145,-310.632 364.418,-305.735 356,-300 322.804,-277.383 292.524,-239.986 278.779,-221.715"/>
<polygon fill="#9a32cd" stroke="#9a32cd" points="382.433,-317.965 393.017,-318.445 385.043,-311.469 382.433,-317.965"/>
<text text-anchor="middle" x="367" y="-266.3" font-family="Helvetica,sans-Serif" font-size="14.00"> FE</text>
</g>
<!-- Node15 -->
<g id="node5" class="node"><title>Node15</title>
<g id="a_node5"><a xlink:href="classmfem_1_1Array.html" target="_top" xlink:title="mfem::Array\&lt; mfem::\lDofToQuad *\&gt;">
<polygon fill="white" stroke="black" points="228,-1 228,-39 404,-39 404,-1 228,-1"/>
<text text-anchor="start" x="236" y="-23.8" font-family="Helvetica,sans-Serif" font-size="14.00">mfem::Array&lt; mfem::</text>
<text text-anchor="middle" x="316" y="-8.8" font-family="Helvetica,sans-Serif" font-size="14.00">DofToQuad *&gt;</text>
</a>
</g>
</g>
<!-- Node15&#45;&gt;Node14 -->
<g id="edge4" class="edge"><title>Node15&#45;&gt;Node14</title>
<path fill="none" stroke="#9a32cd" stroke-dasharray="5,2" d="M341.355,-46.6859C352.582,-59.3828 365.025,-75.4999 373,-92 393.155,-133.699 418.447,-278.127 425.249,-318.463"/>
<polygon fill="#9a32cd" stroke="#9a32cd" points="343.897,-44.2791 334.572,-39.2495 338.725,-48.9964 343.897,-44.2791"/>
<text text-anchor="middle" x="458.5" y="-161.3" font-family="Helvetica,sans-Serif" font-size="14.00"> dof2quad_array</text>
</g>
<!-- Node16 -->
<g id="node6" class="node"><title>Node16</title>
<g id="a_node6"><a xlink:href="classmfem_1_1Memory.html" target="_top" xlink:title="mfem::Memory\&lt; mfem\l::DofToQuad *\&gt;">
<polygon fill="white" stroke="black" points="178,-93 178,-131 364,-131 364,-93 178,-93"/>
<text text-anchor="start" x="186" y="-115.8" font-family="Helvetica,sans-Serif" font-size="14.00">mfem::Memory&lt; mfem</text>
<text text-anchor="middle" x="271" y="-100.8" font-family="Helvetica,sans-Serif" font-size="14.00">::DofToQuad *&gt;</text>
</a>
</g>
</g>
<!-- Node16&#45;&gt;Node15 -->
<g id="edge5" class="edge"><title>Node16&#45;&gt;Node15</title>
<path fill="none" stroke="#9a32cd" stroke-dasharray="5,2" d="M284.603,-83.7931C291.826,-69.3484 300.506,-51.9882 306.907,-39.1858"/>
<polygon fill="#9a32cd" stroke="#9a32cd" points="281.448,-82.2776 280.106,-92.7872 287.709,-85.4081 281.448,-82.2776"/>
<text text-anchor="middle" x="315.5" y="-62.3" font-family="Helvetica,sans-Serif" font-size="14.00"> data</text>
</g>
<!-- Node17&#45;&gt;Node16 -->
<g id="edge6" class="edge"><title>Node17&#45;&gt;Node16</title>
<path fill="none" stroke="#9a32cd" stroke-dasharray="5,2" d="M271,-188.334C271,-171.345 271,-147.506 271,-131.223"/>
<polygon fill="#9a32cd" stroke="#9a32cd" points="267.5,-188.359 271,-198.36 274.5,-188.36 267.5,-188.359"/>
<text text-anchor="middle" x="292" y="-161.3" font-family="Helvetica,sans-Serif" font-size="14.00"> h_ptr</text>
</g>
<!-- Node18 -->
<g id="node8" class="node"><title>Node18</title>
<g id="a_node8"><a xlink:href="classmfem_1_1IntegrationRule.html" target="_top" xlink:title="Class for an integration rule &#45; an Array of IntegrationPoint. ">
<polygon fill="white" stroke="black" points="227,-394.5 227,-417.5 405,-417.5 405,-394.5 227,-394.5"/>
<text text-anchor="middle" x="316" y="-402.3" font-family="Helvetica,sans-Serif" font-size="14.00">mfem::IntegrationRule</text>
</a>
</g>
</g>
<!-- Node18&#45;&gt;Node17 -->
<g id="edge7" class="edge"><title>Node18&#45;&gt;Node17</title>
<path fill="none" stroke="#9a32cd" stroke-dasharray="5,2" d="M301.995,-385.819C294.05,-373.845 284.769,-357.757 280,-342 266.992,-299.016 268.674,-244.612 270.141,-221.818"/>
<polygon fill="#9a32cd" stroke="#9a32cd" points="299.15,-387.859 307.712,-394.1 304.911,-383.882 299.15,-387.859"/>
<text text-anchor="middle" x="307.5" y="-326.3" font-family="Helvetica,sans-Serif" font-size="14.00"> IntRule</text>
</g>
<!-- Node18&#45;&gt;Node14 -->
<g id="edge14" class="edge"><title>Node18&#45;&gt;Node14</title>
<path fill="none" stroke="#9a32cd" stroke-dasharray="5,2" d="M340.501,-388.666C362.014,-374.324 392.675,-353.883 411.126,-341.583"/>
<polygon fill="#9a32cd" stroke="#9a32cd" points="338.283,-385.938 331.904,-394.398 342.166,-391.763 338.283,-385.938"/>
<text text-anchor="middle" x="407" y="-364.3" font-family="Helvetica,sans-Serif" font-size="14.00"> Nodes</text>
</g>
<!-- Node19 -->
<g id="node9" class="node"><title>Node19</title>
<g id="a_node9"><a xlink:href="classmfem_1_1Array.html" target="_top" xlink:title="mfem::Array\&lt; Integration\lPoint \&gt;">
<polygon fill="white" stroke="black" points="208.5,-457 208.5,-495 411.5,-495 411.5,-457 208.5,-457"/>
<text text-anchor="start" x="216.5" y="-479.8" font-family="Helvetica,sans-Serif" font-size="14.00">mfem::Array&lt; Integration</text>
<text text-anchor="middle" x="310" y="-464.8" font-family="Helvetica,sans-Serif" font-size="14.00">Point &gt;</text>
</a>
</g>
</g>
<!-- Node19&#45;&gt;Node18 -->
<g id="edge8" class="edge"><title>Node19&#45;&gt;Node18</title>
<path fill="none" stroke="midnightblue" d="M312.506,-446.599C313.402,-436.442 314.359,-425.6 315.044,-417.834"/>
<polygon fill="midnightblue" stroke="midnightblue" points="309,-446.508 311.608,-456.777 315.973,-447.124 309,-446.508"/>
</g>
<!-- Node20 -->
<g id="node10" class="node"><title>Node20</title>
<g id="a_node10"><a xlink:href="classmfem_1_1Memory.html" target="_top" xlink:title="mfem::Memory\&lt; Integration\lPoint \&gt;">
<polygon fill="white" stroke="black" points="199,-549 199,-587 421,-587 421,-549 199,-549"/>
<text text-anchor="start" x="207" y="-571.8" font-family="Helvetica,sans-Serif" font-size="14.00">mfem::Memory&lt; Integration</text>
<text text-anchor="middle" x="310" y="-556.8" font-family="Helvetica,sans-Serif" font-size="14.00">Point &gt;</text>
</a>
</g>
</g>
<!-- Node20&#45;&gt;Node19 -->
<g id="edge9" class="edge"><title>Node20&#45;&gt;Node19</title>
<path fill="none" stroke="#9a32cd" stroke-dasharray="5,2" d="M310,-538.548C310,-524.36 310,-507.622 310,-495.186"/>
<polygon fill="#9a32cd" stroke="#9a32cd" points="306.5,-538.787 310,-548.787 313.5,-538.787 306.5,-538.787"/>
<text text-anchor="middle" x="328.5" y="-518.3" font-family="Helvetica,sans-Serif" font-size="14.00"> data</text>
</g>
<!-- Node21 -->
<g id="node11" class="node"><title>Node21</title>
<g id="a_node11"><a xlink:href="classmfem_1_1IntegrationPoint.html" target="_top" xlink:title="Class for integration point with weight. ">
<polygon fill="white" stroke="black" points="219,-640.5 219,-663.5 401,-663.5 401,-640.5 219,-640.5"/>
<text text-anchor="middle" x="310" y="-648.3" font-family="Helvetica,sans-Serif" font-size="14.00">mfem::IntegrationPoint</text>
</a>
</g>
</g>
<!-- Node21&#45;&gt;Node20 -->
<g id="edge10" class="edge"><title>Node21&#45;&gt;Node20</title>
<path fill="none" stroke="#9a32cd" stroke-dasharray="5,2" d="M310,-630.213C310,-616.967 310,-599.968 310,-587.246"/>
<polygon fill="#9a32cd" stroke="#9a32cd" points="306.5,-630.28 310,-640.28 313.5,-630.28 306.5,-630.28"/>
<text text-anchor="middle" x="331" y="-610.3" font-family="Helvetica,sans-Serif" font-size="14.00"> h_ptr</text>
</g>
<!-- Node22 -->
<g id="node12" class="node"><title>Node22</title>
<g id="a_node12"><a xlink:href="classmfem_1_1Array.html" target="_top" xlink:title="mfem::Array\&lt; double \&gt;">
<polygon fill="white" stroke="black" points="21.5,-318.5 21.5,-341.5 210.5,-341.5 210.5,-318.5 21.5,-318.5"/>
<text text-anchor="middle" x="116" y="-326.3" font-family="Helvetica,sans-Serif" font-size="14.00">mfem::Array&lt; double &gt;</text>
</a>
</g>
</g>
<!-- Node22&#45;&gt;Node17 -->
<g id="edge11" class="edge"><title>Node22&#45;&gt;Node17</title>
<path fill="none" stroke="#9a32cd" stroke-dasharray="5,2" d="M138.029,-312.23C170.465,-287.536 230.141,-242.106 257.115,-221.571"/>
<polygon fill="#9a32cd" stroke="#9a32cd" points="135.865,-309.478 130.029,-318.32 140.105,-315.048 135.865,-309.478"/>
<text text-anchor="middle" x="238.5" y="-288.8" font-family="Helvetica,sans-Serif" font-size="14.00"> G</text>
<text text-anchor="middle" x="238.5" y="-273.8" font-family="Helvetica,sans-Serif" font-size="14.00">Gt</text>
<text text-anchor="middle" x="238.5" y="-258.8" font-family="Helvetica,sans-Serif" font-size="14.00">B</text>
<text text-anchor="middle" x="238.5" y="-243.8" font-family="Helvetica,sans-Serif" font-size="14.00">Bt</text>
</g>
<!-- Node23 -->
<g id="node13" class="node"><title>Node23</title>
<g id="a_node13"><a xlink:href="classmfem_1_1Memory.html" target="_top" xlink:title="mfem::Memory\&lt; double \&gt;">
<polygon fill="white" stroke="black" points="-0.5,-394.5 -0.5,-417.5 208.5,-417.5 208.5,-394.5 -0.5,-394.5"/>
<text text-anchor="middle" x="104" y="-402.3" font-family="Helvetica,sans-Serif" font-size="14.00">mfem::Memory&lt; double &gt;</text>
</a>
</g>
</g>
<!-- Node23&#45;&gt;Node22 -->
<g id="edge12" class="edge"><title>Node23&#45;&gt;Node22</title>
<path fill="none" stroke="#9a32cd" stroke-dasharray="5,2" d="M107.36,-384.277C109.613,-370.387 112.485,-352.675 114.284,-341.583"/>
<polygon fill="#9a32cd" stroke="#9a32cd" points="103.865,-383.966 105.719,-394.398 110.775,-385.087 103.865,-383.966"/>
<text text-anchor="middle" x="130.5" y="-364.3" font-family="Helvetica,sans-Serif" font-size="14.00"> data</text>
</g>
<!-- Node24 -->
<g id="node14" class="node"><title>Node24</title>
<g id="a_node14"><a xlink:href="classmfem_1_1DenseMatrix.html" target="_top" xlink:title="Data type dense matrix using column&#45;major storage. ">
<polygon fill="white" stroke="black" points="424,-394.5 424,-417.5 582,-417.5 582,-394.5 424,-394.5"/>
<text text-anchor="middle" x="503" y="-402.3" font-family="Helvetica,sans-Serif" font-size="14.00">mfem::DenseMatrix</text>
</a>
</g>
</g>
<!-- Node24&#45;&gt;Node14 -->
<g id="edge15" class="edge"><title>Node24&#45;&gt;Node14</title>
<path fill="none" stroke="#9a32cd" stroke-dasharray="5,2" d="M484.623,-387.107C470.006,-372.874 450.05,-353.444 437.869,-341.583"/>
<polygon fill="#9a32cd" stroke="#9a32cd" points="482.505,-389.929 492.111,-394.398 487.388,-384.914 482.505,-389.929"/>
<text text-anchor="middle" x="500.5" y="-364.3" font-family="Helvetica,sans-Serif" font-size="14.00"> vshape</text>
</g>
<!-- Node25 -->
<g id="node15" class="node"><title>Node25</title>
<g id="a_node15"><a xlink:href="classmfem_1_1Matrix.html" target="_top" xlink:title="Abstract data type matrix. ">
<polygon fill="white" stroke="black" points="449.5,-464.5 449.5,-487.5 562.5,-487.5 562.5,-464.5 449.5,-464.5"/>
<text text-anchor="middle" x="506" y="-472.3" font-family="Helvetica,sans-Serif" font-size="14.00">mfem::Matrix</text>
</a>
</g>
</g>
<!-- Node25&#45;&gt;Node24 -->
<g id="edge16" class="edge"><title>Node25&#45;&gt;Node24</title>
<path fill="none" stroke="midnightblue" d="M505.086,-454.272C504.554,-442.228 503.907,-427.549 503.475,-417.775"/>
<polygon fill="midnightblue" stroke="midnightblue" points="501.594,-454.539 505.531,-464.375 508.587,-454.23 501.594,-454.539"/>
</g>
<!-- Node26 -->
<g id="node16" class="node"><title>Node26</title>
<g id="a_node16"><a xlink:href="classmfem_1_1Operator.html" target="_top" xlink:title="Abstract operator. ">
<polygon fill="white" stroke="black" points="439.5,-556.5 439.5,-579.5 572.5,-579.5 572.5,-556.5 439.5,-556.5"/>
<text text-anchor="middle" x="506" y="-564.3" font-family="Helvetica,sans-Serif" font-size="14.00">mfem::Operator</text>
</a>
</g>
</g>
<!-- Node26&#45;&gt;Node25 -->
<g id="edge17" class="edge"><title>Node26&#45;&gt;Node25</title>
<path fill="none" stroke="midnightblue" d="M506,-546.08C506,-527.799 506,-502.001 506,-487.664"/>
<polygon fill="midnightblue" stroke="midnightblue" points="502.5,-546.322 506,-556.322 509.5,-546.322 502.5,-546.322"/>
</g>
<!-- Node27 -->
<g id="node17" class="node"><title>Node27</title>
<g id="a_node17"><a xlink:href="classmfem_1_1Array.html" target="_top" xlink:title="mfem::Array\&lt; int \&gt;">
<polygon fill="white" stroke="black" points="648,-198.5 648,-221.5 806,-221.5 806,-198.5 648,-198.5"/>
<text text-anchor="middle" x="727" y="-206.3" font-family="Helvetica,sans-Serif" font-size="14.00">mfem::Array&lt; int &gt;</text>
</a>
</g>
</g>
<!-- Node27&#45;&gt;Node12 -->
<g id="edge18" class="edge"><title>Node27&#45;&gt;Node12</title>
<path fill="none" stroke="#9a32cd" stroke-dasharray="5,2" d="M680.118,-195.16C667.789,-190.891 654.677,-185.772 643,-180 609.8,-163.59 574.512,-138.076 555.699,-123.732"/>
<polygon fill="#9a32cd" stroke="#9a32cd" points="679.203,-198.544 689.797,-198.398 681.423,-191.906 679.203,-198.544"/>
<text text-anchor="middle" x="690" y="-161.3" font-family="Helvetica,sans-Serif" font-size="14.00"> lex_ordering</text>
</g>
<!-- Node29 -->
<g id="node19" class="node"><title>Node29</title>
<g id="a_node19"><a xlink:href="classmfem_1_1TensorBasisElement.html" target="_top" xlink:title="mfem::TensorBasisElement">
<polygon fill="white" stroke="black" points="664,-100.5 664,-123.5 876,-123.5 876,-100.5 664,-100.5"/>
<text text-anchor="middle" x="770" y="-108.3" font-family="Helvetica,sans-Serif" font-size="14.00">mfem::TensorBasisElement</text>
</a>
</g>
</g>
<!-- Node27&#45;&gt;Node29 -->
<g id="edge21" class="edge"><title>Node27&#45;&gt;Node29</title>
<path fill="none" stroke="#9a32cd" stroke-dasharray="5,2" d="M735.961,-188.994C744.859,-169.129 758.161,-139.43 765.213,-123.688"/>
<polygon fill="#9a32cd" stroke="#9a32cd" points="732.66,-187.802 731.766,-198.36 739.048,-190.664 732.66,-187.802"/>
<text text-anchor="middle" x="799" y="-168.8" font-family="Helvetica,sans-Serif" font-size="14.00"> dof_map</text>
<text text-anchor="middle" x="799" y="-153.8" font-family="Helvetica,sans-Serif" font-size="14.00">inv_dof_map</text>
</g>
<!-- Node28 -->
<g id="node18" class="node"><title>Node28</title>
<g id="a_node18"><a xlink:href="classmfem_1_1Memory.html" target="_top" xlink:title="mfem::Memory\&lt; int \&gt;">
<polygon fill="white" stroke="black" points="638,-318.5 638,-341.5 816,-341.5 816,-318.5 638,-318.5"/>
<text text-anchor="middle" x="727" y="-326.3" font-family="Helvetica,sans-Serif" font-size="14.00">mfem::Memory&lt; int &gt;</text>
</a>
</g>
</g>
<!-- Node28&#45;&gt;Node27 -->
<g id="edge19" class="edge"><title>Node28&#45;&gt;Node27</title>
<path fill="none" stroke="#9a32cd" stroke-dasharray="5,2" d="M727,-308.047C727,-282.672 727,-240.927 727,-221.524"/>
<polygon fill="#9a32cd" stroke="#9a32cd" points="723.5,-308.11 727,-318.11 730.5,-308.11 723.5,-308.11"/>
<text text-anchor="middle" x="745.5" y="-266.3" font-family="Helvetica,sans-Serif" font-size="14.00"> data</text>
</g>
<!-- Node29&#45;&gt;Node11 -->
<g id="edge20" class="edge"><title>Node29&#45;&gt;Node11</title>
<path fill="none" stroke="midnightblue" d="M736.541,-96.3818C694.942,-78.2076 624.949,-47.6282 588.199,-31.5725"/>
<polygon fill="midnightblue" stroke="midnightblue" points="735.401,-99.7034 745.966,-100.5 738.204,-93.2889 735.401,-99.7034"/>
</g>
<!-- Node30 -->
<g id="node20" class="node"><title>Node30</title>
<g id="a_node20"><a xlink:href="classmfem_1_1Poly__1D_1_1Basis.html" target="_top" xlink:title="Class for evaluating 1D nodal, positive (Bernstein), or integrated (Gerritsma) bases. ">
<polygon fill="white" stroke="black" points="824.5,-198.5 824.5,-221.5 995.5,-221.5 995.5,-198.5 824.5,-198.5"/>
<text text-anchor="middle" x="910" y="-206.3" font-family="Helvetica,sans-Serif" font-size="14.00">mfem::Poly_1D::Basis</text>
</a>
</g>
</g>
<!-- Node30&#45;&gt;Node29 -->
<g id="edge22" class="edge"><title>Node30&#45;&gt;Node29</title>
<path fill="none" stroke="#9a32cd" stroke-dasharray="5,2" d="M894.102,-190.698C882.506,-178.123 865.918,-161.658 849,-150 833.287,-139.172 813.904,-130.04 798.27,-123.557"/>
<polygon fill="#9a32cd" stroke="#9a32cd" points="891.664,-193.22 900.956,-198.31 896.866,-188.536 891.664,-193.22"/>
<text text-anchor="middle" x="913" y="-161.3" font-family="Helvetica,sans-Serif" font-size="14.00"> basis1d</text>
</g>
</g>
</svg>
        <g id="navigator" transform="translate(0 0)" fill="#404254">
                <rect fill="#f2f5e9" fill-opacity="0.5" stroke="#606060" stroke-width=".5" x="0" y="0" width="60" height="60"/>
                <use id="zoomplus" xlink:href="#zoomPlus" x="17" y="9" onmousedown="handleZoom(evt,'in')"/>
                <use id="zoomminus" xlink:href="#zoomMin" x="42" y="9" onmousedown="handleZoom(evt,'out')"/>
                <use id="reset" xlink:href="#resetDef" x="30" y="36" onmousedown="handleReset()"/>
                <g id="arrowUp" xlink:href="#dirArrow" transform="translate(30 24)" onmousedown="handlePan(0,-1)">
                  <use xlink:href="#rim" fill="#404040">
                        <set attributeName="fill" to="#808080" begin="arrowUp.mouseover" end="arrowUp.mouseout"/>
                  </use>
                  <path fill="none" stroke="white" stroke-width="1.5" d="M0,-3.0v7 M-2.5,-0.5L0,-3.0L2.5,-0.5"/>
                </g>
                <g id="arrowRight" xlink:href="#dirArrow" transform="rotate(90) translate(36 -43)" onmousedown="handlePan(1,0)">
                  <use xlink:href="#rim" fill="#404040">
                        <set attributeName="fill" to="#808080" begin="arrowRight.mouseover" end="arrowRight.mouseout"/>
                  </use>
                  <path fill="none" stroke="white" stroke-width="1.5" d="M0,-3.0v7 M-2.5,-0.5L0,-3.0L2.5,-0.5"/>
                </g>
                <g id="arrowDown" xlink:href="#dirArrow" transform="rotate(180) translate(-30 -48)" onmousedown="handlePan(0,1)">
                  <use xlink:href="#rim" fill="#404040">
                        <set attributeName="fill" to="#808080" begin="arrowDown.mouseover" end="arrowDown.mouseout"/>
                  </use>
                  <path fill="none" stroke="white" stroke-width="1.5" d="M0,-3.0v7 M-2.5,-0.5L0,-3.0L2.5,-0.5"/>
                </g>
                <g id="arrowLeft" xlink:href="#dirArrow" transform="rotate(270) translate(-36 17)" onmousedown="handlePan(-1,0)">
                  <use xlink:href="#rim" fill="#404040">
                        <set attributeName="fill" to="#808080" begin="arrowLeft.mouseover" end="arrowLeft.mouseout"/>
                  </use>
                  <path fill="none" stroke="white" stroke-width="1.5" d="M0,-3.0v7 M-2.5,-0.5L0,-3.0L2.5,-0.5"/>
                </g>
        </g>
        <svg viewBox="0 0 15 15" width="100%" height="30px" preserveAspectRatio="xMaxYMin meet">
         <g id="arrow_out" transform="scale(0.3 0.3)">
          <a xlink:href="classmfem_1_1NodalTensorFiniteElement__coll__graph_org.svg" target="_base">
           <rect id="button" ry="5" rx="5" y="6" x="6" height="38" width="38"
                fill="#f2f5e9" fill-opacity="0.5" stroke="#606060" stroke-width="1.0"/>
           <path id="arrow"
             d="M 11.500037,31.436501 C 11.940474,20.09759 22.043105,11.32322 32.158766,21.979434 L 37.068811,17.246167 C 37.068811,17.246167 37.088388,32 37.088388,32 L 22.160133,31.978069 C 22.160133,31.978069 26.997745,27.140456 26.997745,27.140456 C 18.528582,18.264221 13.291696,25.230495 11.500037,31.436501 z"
             style="fill:#404040;"/>
          </a>
         </g>
        </svg>
</svg>
