<?xml version="1.0" encoding="UTF-8" standalone="no"?>
<!DOCTYPE svg PUBLIC "-//W3C//DTD SVG 1.1//EN"
 "http://www.w3.org/Graphics/SVG/1.1/DTD/svg11.dtd">
<!-- Generated by graphviz version 2.30.1 (20200304.1809)
 -->
<!-- Title: mfem::CoarseFineTransformations Pages: 1 -->
<svg width="372pt" height="292pt"
 viewBox="0.00 0.00 372.00 292.00" xmlns="http://www.w3.org/2000/svg" xmlns:xlink="http://www.w3.org/1999/xlink">
<g id="graph0" class="graph" transform="scale(1 1) rotate(0) translate(4 288)">
<title>mfem::CoarseFineTransformations</title>
<polygon fill="white" stroke="white" points="-4,5 -4,-288 369,-288 369,5 -4,5"/>
<!-- Node1 -->
<g id="node1" class="node"><title>Node1</title>
<polygon fill="#bfbfbf" stroke="black" points="89,-0.5 89,-23.5 353,-23.5 353,-0.5 89,-0.5"/>
<text text-anchor="middle" x="221" y="-8.3" font-family="Helvetica,sans-Serif" font-size="14.00">mfem::CoarseFineTransformations</text>
</g>
<!-- Node2 -->
<g id="node2" class="node"><title>Node2</title>
<g id="a_node2"><a xlink:href="classmfem_1_1Array.html" target="_top" xlink:title="mfem::Array\&lt; mfem::\lEmbedding \&gt;">
<polygon fill="white" stroke="black" points="5,-77 5,-115 181,-115 181,-77 5,-77"/>
<text text-anchor="start" x="13" y="-99.8" font-family="Helvetica,sans-Serif" font-size="14.00">mfem::Array&lt; mfem::</text>
<text text-anchor="middle" x="93" y="-84.8" font-family="Helvetica,sans-Serif" font-size="14.00">Embedding &gt;</text>
</a>
</g>
</g>
<!-- Node2&#45;&gt;Node1 -->
<g id="edge1" class="edge"><title>Node2&#45;&gt;Node1</title>
<path fill="none" stroke="#9a32cd" stroke-dasharray="5,2" d="M114.427,-69.4153C123.423,-59.8549 134.47,-49.5077 146,-42 157.816,-34.3062 171.982,-28.1693 184.806,-23.5584"/>
<polygon fill="#9a32cd" stroke="#9a32cd" points="111.813,-67.0881 107.682,-76.8446 116.995,-71.7934 111.813,-67.0881"/>
<text text-anchor="middle" x="193" y="-46.3" font-family="Helvetica,sans-Serif" font-size="14.00"> embeddings</text>
</g>
<!-- Node3 -->
<g id="node3" class="node"><title>Node3</title>
<g id="a_node3"><a xlink:href="classmfem_1_1Memory.html" target="_top" xlink:title="mfem::Memory\&lt; mfem\l::Embedding \&gt;">
<polygon fill="white" stroke="black" points="0,-169 0,-207 186,-207 186,-169 0,-169"/>
<text text-anchor="start" x="8" y="-191.8" font-family="Helvetica,sans-Serif" font-size="14.00">mfem::Memory&lt; mfem</text>
<text text-anchor="middle" x="93" y="-176.8" font-family="Helvetica,sans-Serif" font-size="14.00">::Embedding &gt;</text>
</a>
</g>
</g>
<!-- Node3&#45;&gt;Node2 -->
<g id="edge2" class="edge"><title>Node3&#45;&gt;Node2</title>
<path fill="none" stroke="#9a32cd" stroke-dasharray="5,2" d="M93,-158.548C93,-144.36 93,-127.622 93,-115.186"/>
<polygon fill="#9a32cd" stroke="#9a32cd" points="89.5001,-158.787 93,-168.787 96.5001,-158.787 89.5001,-158.787"/>
<text text-anchor="middle" x="111.5" y="-138.3" font-family="Helvetica,sans-Serif" font-size="14.00"> data</text>
</g>
<!-- Node4 -->
<g id="node4" class="node"><title>Node4</title>
<g id="a_node4"><a xlink:href="structmfem_1_1Embedding.html" target="_top" xlink:title="Defines the position of a fine element within a coarse element. ">
<polygon fill="white" stroke="black" points="18.5,-260.5 18.5,-283.5 167.5,-283.5 167.5,-260.5 18.5,-260.5"/>
<text text-anchor="middle" x="93" y="-268.3" font-family="Helvetica,sans-Serif" font-size="14.00">mfem::Embedding</text>
</a>
</g>
</g>
<!-- Node4&#45;&gt;Node3 -->
<g id="edge3" class="edge"><title>Node4&#45;&gt;Node3</title>
<path fill="none" stroke="#9a32cd" stroke-dasharray="5,2" d="M93,-250.213C93,-236.967 93,-219.968 93,-207.246"/>
<polygon fill="#9a32cd" stroke="#9a32cd" points="89.5001,-250.28 93,-260.28 96.5001,-250.28 89.5001,-250.28"/>
<text text-anchor="middle" x="114" y="-230.3" font-family="Helvetica,sans-Serif" font-size="14.00"> h_ptr</text>
</g>
<!-- Node5 -->
<g id="node5" class="node"><title>Node5</title>
<g id="a_node5"><a xlink:href="classmfem_1_1DenseTensor.html" target="_top" xlink:title="Rank 3 tensor (array of matrices) ">
<polygon fill="white" stroke="black" points="199.5,-84.5 199.5,-107.5 360.5,-107.5 360.5,-84.5 199.5,-84.5"/>
<text text-anchor="middle" x="280" y="-92.3" font-family="Helvetica,sans-Serif" font-size="14.00">mfem::DenseTensor</text>
</a>
</g>
</g>
<!-- Node5&#45;&gt;Node1 -->
<g id="edge4" class="edge"><title>Node5&#45;&gt;Node1</title>
<path fill="none" stroke="#9a32cd" stroke-dasharray="5,2" d="M266.353,-76.0335C254.666,-59.7904 238.257,-36.9837 228.715,-23.7227"/>
<polygon fill="#9a32cd" stroke="#9a32cd" points="263.605,-78.2069 272.287,-84.2799 269.287,-74.1185 263.605,-78.2069"/>
<text text-anchor="middle" x="308.5" y="-46.3" font-family="Helvetica,sans-Serif" font-size="14.00"> point_matrices</text>
</g>
</g>
</svg>
