<?xml version="1.0" encoding="UTF-8" standalone="no"?>
<!DOCTYPE svg PUBLIC "-//W3C//DTD SVG 1.1//EN"
 "http://www.w3.org/Graphics/SVG/1.1/DTD/svg11.dtd">
<!-- Generated by graphviz version 2.30.1 (20200304.1809)
 -->
<!-- Title: mfem::AnalyticAdaptTC Pages: 1 -->
<!--zoomable 190 -->
<svg id="main" version="1.1" xmlns="http://www.w3.org/2000/svg" xmlns:xlink="http://www.w3.org/1999/xlink" xml:space="preserve" onload="init(evt)">
<style type="text/css"><![CDATA[
.edge:hover path { stroke: red; }
.edge:hover polygon { stroke: red; fill: red; }
]]></style>
<script type="text/javascript"><![CDATA[
var edges = document.getElementsByTagName('g');
if (edges && edges.length) {
  for (var i=0;i<edges.length;i++) {
    if (edges[i].id.substr(0,4)=='edge') {
      edges[i].setAttribute('class','edge');
    }
  }
}
]]></script>
        <defs>
                <circle id="rim" cx="0" cy="0" r="7"/>
                <circle id="rim2" cx="0" cy="0" r="3.5"/>
                <g id="zoomPlus">
                        <use xlink:href="#rim" fill="#404040">
                                <set attributeName="fill" to="#808080" begin="zoomplus.mouseover" end="zoomplus.mouseout"/>
                        </use>
                        <path d="M-4,0h8M0,-4v8" fill="none" stroke="white" stroke-width="1.5" pointer-events="none"/>
                </g>
                <g id="zoomMin">
                        <use xlink:href="#rim" fill="#404040">
                                <set attributeName="fill" to="#808080" begin="zoomminus.mouseover" end="zoomminus.mouseout"/>
                        </use>
                        <path d="M-4,0h8" fill="none" stroke="white" stroke-width="1.5" pointer-events="none"/>
                </g>
                <g id="dirArrow">
                        <path fill="none" stroke="white" stroke-width="1.5" d="M0,-3.0v7 M-2.5,-0.5L0,-3.0L2.5,-0.5"/>
                </g>
               <g id="resetDef">
                       <use xlink:href="#rim2" fill="#404040">
                               <set attributeName="fill" to="#808080" begin="reset.mouseover" end="reset.mouseout"/>
                       </use>
               </g>
        </defs>

<script type="text/javascript">
var viewWidth = 1370;
var viewHeight = 190;
var sectionId = 'dynsection-1';
</script>
<script xlink:href="svgpan.js"/>
<svg id="graph" class="graph">
<g id="viewport">
<title>mfem::AnalyticAdaptTC</title>
<polygon fill="white" stroke="white" points="-4,5 -4,-186 1367,-186 1367,5 -4,5"/>
<!-- Node1 -->
<g id="node1" class="node"><title>Node1</title>
<polygon fill="#bfbfbf" stroke="black" points="1176.5,-63.5 1176.5,-86.5 1361.5,-86.5 1361.5,-63.5 1176.5,-63.5"/>
<text text-anchor="middle" x="1269" y="-71.3" font-family="Helvetica,sans-Serif" font-size="14.00">mfem::AnalyticAdaptTC</text>
</g>
<!-- Node2 -->
<g id="node2" class="node"><title>Node2</title>
<g id="a_node2"><a xlink:href="classmfem_1_1TargetConstructor.html" target="_top" xlink:title="Base class representing target&#45;matrix construction algorithms for mesh optimization via the target&#45;ma...">
<polygon fill="white" stroke="black" points="844.5,-126.5 844.5,-149.5 1041.5,-149.5 1041.5,-126.5 844.5,-126.5"/>
<text text-anchor="middle" x="943" y="-134.3" font-family="Helvetica,sans-Serif" font-size="14.00">mfem::TargetConstructor</text>
</a>
</g>
</g>
<!-- Node2&#45;&gt;Node1 -->
<g id="edge1" class="edge"><title>Node2&#45;&gt;Node1</title>
<path fill="none" stroke="midnightblue" d="M1051.73,-125.377C1085.89,-120.578 1123.69,-114.438 1158,-107 1183.27,-101.522 1211.24,-93.3559 1232.65,-86.6441"/>
<polygon fill="midnightblue" stroke="midnightblue" points="1051.15,-121.923 1041.72,-126.759 1052.11,-128.857 1051.15,-121.923"/>
</g>
<!-- Node3 -->
<g id="node3" class="node"><title>Node3</title>
<g id="a_node3"><a xlink:href="classmfem_1_1GridFunction.html" target="_top" xlink:title="Class for grid function &#45; Vector with associated FE space. ">
<polygon fill="white" stroke="black" points="600,-126.5 600,-149.5 758,-149.5 758,-126.5 600,-126.5"/>
<text text-anchor="middle" x="679" y="-134.3" font-family="Helvetica,sans-Serif" font-size="14.00">mfem::GridFunction</text>
</a>
</g>
</g>
<!-- Node3&#45;&gt;Node2 -->
<g id="edge2" class="edge"><title>Node3&#45;&gt;Node2</title>
<path fill="none" stroke="#9a32cd" stroke-dasharray="5,2" d="M768.532,-138C792.854,-138 819.366,-138 844.178,-138"/>
<polygon fill="#9a32cd" stroke="#9a32cd" points="768.254,-134.5 758.254,-138 768.254,-141.5 768.254,-134.5"/>
<text text-anchor="middle" x="801" y="-141.8" font-family="Helvetica,sans-Serif" font-size="14.00"> nodes</text>
</g>
<!-- Node4 -->
<g id="node4" class="node"><title>Node4</title>
<g id="a_node4"><a xlink:href="classmfem_1_1Vector.html" target="_top" xlink:title="Vector data type. ">
<polygon fill="white" stroke="black" points="358,-155.5 358,-178.5 472,-178.5 472,-155.5 358,-155.5"/>
<text text-anchor="middle" x="415" y="-163.3" font-family="Helvetica,sans-Serif" font-size="14.00">mfem::Vector</text>
</a>
</g>
</g>
<!-- Node4&#45;&gt;Node3 -->
<g id="edge3" class="edge"><title>Node4&#45;&gt;Node3</title>
<path fill="none" stroke="midnightblue" d="M482.239,-175.733C512.814,-178.147 549.469,-178.745 582,-173 607.331,-168.526 634.765,-157.892 653.793,-149.511"/>
<polygon fill="midnightblue" stroke="midnightblue" points="482.384,-172.232 472.117,-174.851 481.776,-179.206 482.384,-172.232"/>
</g>
<!-- Node4&#45;&gt;Node3 -->
<g id="edge8" class="edge"><title>Node4&#45;&gt;Node3</title>
<path fill="none" stroke="#9a32cd" stroke-dasharray="5,2" d="M482.493,-159.64C518.119,-155.697 562.227,-150.815 599.526,-146.686"/>
<polygon fill="#9a32cd" stroke="#9a32cd" points="481.76,-156.2 472.206,-160.779 482.53,-163.157 481.76,-156.2"/>
<text text-anchor="middle" x="560" y="-156.8" font-family="Helvetica,sans-Serif" font-size="14.00"> t_vec</text>
</g>
<!-- Node5 -->
<g id="node5" class="node"><title>Node5</title>
<g id="a_node5"><a xlink:href="classmfem_1_1Memory.html" target="_top" xlink:title="mfem::Memory\&lt; double \&gt;">
<polygon fill="white" stroke="black" points="13.5,-155.5 13.5,-178.5 222.5,-178.5 222.5,-155.5 13.5,-155.5"/>
<text text-anchor="middle" x="118" y="-163.3" font-family="Helvetica,sans-Serif" font-size="14.00">mfem::Memory&lt; double &gt;</text>
</a>
</g>
</g>
<!-- Node5&#45;&gt;Node4 -->
<g id="edge4" class="edge"><title>Node5&#45;&gt;Node4</title>
<path fill="none" stroke="#9a32cd" stroke-dasharray="5,2" d="M232.813,-167C275.668,-167 322.532,-167 357.861,-167"/>
<polygon fill="#9a32cd" stroke="#9a32cd" points="232.591,-163.5 222.591,-167 232.591,-170.5 232.591,-163.5"/>
<text text-anchor="middle" x="273" y="-170.8" font-family="Helvetica,sans-Serif" font-size="14.00"> data</text>
</g>
<!-- Node6 -->
<g id="node6" class="node"><title>Node6</title>
<g id="a_node6"><a xlink:href="classmfem_1_1FiniteElementSpace.html" target="_top" xlink:title="Class FiniteElementSpace &#45; responsible for providing FEM view of the mesh, mainly managing the set of...">
<polygon fill="white" stroke="red" points="310.5,-113.5 310.5,-136.5 519.5,-136.5 519.5,-113.5 310.5,-113.5"/>
<text text-anchor="middle" x="415" y="-121.3" font-family="Helvetica,sans-Serif" font-size="14.00">mfem::FiniteElementSpace</text>
</a>
</g>
</g>
<!-- Node6&#45;&gt;Node3 -->
<g id="edge5" class="edge"><title>Node6&#45;&gt;Node3</title>
<path fill="none" stroke="#9a32cd" stroke-dasharray="5,2" d="M529.955,-117.877C547.408,-117.852 565.201,-118.439 582,-120 596.352,-121.334 611.756,-123.766 625.933,-126.421"/>
<polygon fill="#9a32cd" stroke="#9a32cd" points="529.699,-114.379 519.727,-117.959 529.755,-121.379 529.699,-114.379"/>
<text text-anchor="middle" x="560" y="-123.8" font-family="Helvetica,sans-Serif" font-size="14.00"> fes</text>
</g>
<!-- Node7 -->
<g id="node7" class="node"><title>Node7</title>
<g id="a_node7"><a xlink:href="classmfem_1_1FiniteElementCollection.html" target="_top" xlink:title="mfem::FiniteElementCollection">
<polygon fill="white" stroke="black" points="0,-91.5 0,-114.5 236,-114.5 236,-91.5 0,-91.5"/>
<text text-anchor="middle" x="118" y="-99.3" font-family="Helvetica,sans-Serif" font-size="14.00">mfem::FiniteElementCollection</text>
</a>
</g>
</g>
<!-- Node7&#45;&gt;Node6 -->
<g id="edge6" class="edge"><title>Node7&#45;&gt;Node6</title>
<path fill="none" stroke="#9a32cd" stroke-dasharray="5,2" d="M246.169,-112.484C267.649,-114.086 289.715,-115.731 310.499,-117.281"/>
<polygon fill="#9a32cd" stroke="#9a32cd" points="246.248,-108.98 236.016,-111.727 245.727,-115.961 246.248,-108.98"/>
<text text-anchor="middle" x="273" y="-119.8" font-family="Helvetica,sans-Serif" font-size="14.00"> fec</text>
</g>
<!-- Node7&#45;&gt;Node3 -->
<g id="edge7" class="edge"><title>Node7&#45;&gt;Node3</title>
<path fill="none" stroke="#9a32cd" stroke-dasharray="5,2" d="M210.014,-90.3067C291.652,-81.1747 414.486,-73.0142 520,-89 566.71,-96.0768 618.63,-114.291 649.777,-126.408"/>
<polygon fill="#9a32cd" stroke="#9a32cd" points="209.306,-86.8649 199.77,-91.4819 210.104,-93.8193 209.306,-86.8649"/>
<text text-anchor="middle" x="415" y="-92.8" font-family="Helvetica,sans-Serif" font-size="14.00"> fec</text>
</g>
<!-- Node8 -->
<g id="node8" class="node"><title>Node8</title>
<g id="a_node8"><a xlink:href="classmfem_1_1MatrixCoefficient.html" target="_top" xlink:title="mfem::MatrixCoefficient">
<polygon fill="white" stroke="black" points="849,-84.5 849,-107.5 1037,-107.5 1037,-84.5 849,-84.5"/>
<text text-anchor="middle" x="943" y="-92.3" font-family="Helvetica,sans-Serif" font-size="14.00">mfem::MatrixCoefficient</text>
</a>
</g>
</g>
<!-- Node8&#45;&gt;Node1 -->
<g id="edge9" class="edge"><title>Node8&#45;&gt;Node1</title>
<path fill="none" stroke="#9a32cd" stroke-dasharray="5,2" d="M1047.41,-89.2974C1088.89,-86.609 1136.29,-83.5367 1176.5,-80.9308"/>
<polygon fill="#9a32cd" stroke="#9a32cd" points="1047.03,-85.8145 1037.28,-89.9541 1047.49,-92.7999 1047.03,-85.8145"/>
<text text-anchor="middle" x="1109" y="-91.8" font-family="Helvetica,sans-Serif" font-size="14.00"> matrix_tspec</text>
</g>
<!-- Node9 -->
<g id="node9" class="node"><title>Node9</title>
<g id="a_node9"><a xlink:href="classmfem_1_1VectorCoefficient.html" target="_top" xlink:title="mfem::VectorCoefficient">
<polygon fill="white" stroke="black" points="848,-42.5 848,-65.5 1038,-65.5 1038,-42.5 848,-42.5"/>
<text text-anchor="middle" x="943" y="-50.3" font-family="Helvetica,sans-Serif" font-size="14.00">mfem::VectorCoefficient</text>
</a>
</g>
</g>
<!-- Node9&#45;&gt;Node1 -->
<g id="edge10" class="edge"><title>Node9&#45;&gt;Node1</title>
<path fill="none" stroke="#9a32cd" stroke-dasharray="5,2" d="M1048.29,-57.7645C1083.19,-59.3197 1122.3,-61.3826 1158,-64 1164.03,-64.442 1170.24,-64.9418 1176.5,-65.4785"/>
<polygon fill="#9a32cd" stroke="#9a32cd" points="1048.22,-54.2585 1038.08,-57.3187 1047.92,-61.2518 1048.22,-54.2585"/>
<text text-anchor="middle" x="1109" y="-67.8" font-family="Helvetica,sans-Serif" font-size="14.00"> vector_tspec</text>
</g>
<!-- Node10 -->
<g id="node10" class="node"><title>Node10</title>
<g id="a_node10"><a xlink:href="classmfem_1_1Coefficient.html" target="_top" xlink:title="Base class Coefficient that may optionally depend on time. ">
<polygon fill="white" stroke="black" points="871,-0.5 871,-23.5 1015,-23.5 1015,-0.5 871,-0.5"/>
<text text-anchor="middle" x="943" y="-8.3" font-family="Helvetica,sans-Serif" font-size="14.00">mfem::Coefficient</text>
</a>
</g>
</g>
<!-- Node10&#45;&gt;Node1 -->
<g id="edge11" class="edge"><title>Node10&#45;&gt;Node1</title>
<path fill="none" stroke="#9a32cd" stroke-dasharray="5,2" d="M1025.42,-19.2087C1065.62,-23.639 1114.67,-30.3535 1158,-40 1185,-46.0105 1214.85,-55.7115 1236.64,-63.3776"/>
<polygon fill="#9a32cd" stroke="#9a32cd" points="1025.72,-15.7204 1015.4,-18.1311 1024.97,-22.6803 1025.72,-15.7204"/>
<text text-anchor="middle" x="1109" y="-43.8" font-family="Helvetica,sans-Serif" font-size="14.00"> scalar_tspec</text>
</g>
</g>
</svg>
        <g id="navigator" transform="translate(0 0)" fill="#404254">
                <rect fill="#f2f5e9" fill-opacity="0.5" stroke="#606060" stroke-width=".5" x="0" y="0" width="60" height="60"/>
                <use id="zoomplus" xlink:href="#zoomPlus" x="17" y="9" onmousedown="handleZoom(evt,'in')"/>
                <use id="zoomminus" xlink:href="#zoomMin" x="42" y="9" onmousedown="handleZoom(evt,'out')"/>
                <use id="reset" xlink:href="#resetDef" x="30" y="36" onmousedown="handleReset()"/>
                <g id="arrowUp" xlink:href="#dirArrow" transform="translate(30 24)" onmousedown="handlePan(0,-1)">
                  <use xlink:href="#rim" fill="#404040">
                        <set attributeName="fill" to="#808080" begin="arrowUp.mouseover" end="arrowUp.mouseout"/>
                  </use>
                  <path fill="none" stroke="white" stroke-width="1.5" d="M0,-3.0v7 M-2.5,-0.5L0,-3.0L2.5,-0.5"/>
                </g>
                <g id="arrowRight" xlink:href="#dirArrow" transform="rotate(90) translate(36 -43)" onmousedown="handlePan(1,0)">
                  <use xlink:href="#rim" fill="#404040">
                        <set attributeName="fill" to="#808080" begin="arrowRight.mouseover" end="arrowRight.mouseout"/>
                  </use>
                  <path fill="none" stroke="white" stroke-width="1.5" d="M0,-3.0v7 M-2.5,-0.5L0,-3.0L2.5,-0.5"/>
                </g>
                <g id="arrowDown" xlink:href="#dirArrow" transform="rotate(180) translate(-30 -48)" onmousedown="handlePan(0,1)">
                  <use xlink:href="#rim" fill="#404040">
                        <set attributeName="fill" to="#808080" begin="arrowDown.mouseover" end="arrowDown.mouseout"/>
                  </use>
                  <path fill="none" stroke="white" stroke-width="1.5" d="M0,-3.0v7 M-2.5,-0.5L0,-3.0L2.5,-0.5"/>
                </g>
                <g id="arrowLeft" xlink:href="#dirArrow" transform="rotate(270) translate(-36 17)" onmousedown="handlePan(-1,0)">
                  <use xlink:href="#rim" fill="#404040">
                        <set attributeName="fill" to="#808080" begin="arrowLeft.mouseover" end="arrowLeft.mouseout"/>
                  </use>
                  <path fill="none" stroke="white" stroke-width="1.5" d="M0,-3.0v7 M-2.5,-0.5L0,-3.0L2.5,-0.5"/>
                </g>
        </g>
        <svg viewBox="0 0 15 15" width="100%" height="30px" preserveAspectRatio="xMaxYMin meet">
         <g id="arrow_out" transform="scale(0.3 0.3)">
          <a xlink:href="classmfem_1_1AnalyticAdaptTC__coll__graph_org.svg" target="_base">
           <rect id="button" ry="5" rx="5" y="6" x="6" height="38" width="38"
                fill="#f2f5e9" fill-opacity="0.5" stroke="#606060" stroke-width="1.0"/>
           <path id="arrow"
             d="M 11.500037,31.436501 C 11.940474,20.09759 22.043105,11.32322 32.158766,21.979434 L 37.068811,17.246167 C 37.068811,17.246167 37.088388,32 37.088388,32 L 22.160133,31.978069 C 22.160133,31.978069 26.997745,27.140456 26.997745,27.140456 C 18.528582,18.264221 13.291696,25.230495 11.500037,31.436501 z"
             style="fill:#404040;"/>
          </a>
         </g>
        </svg>
</svg>
