<?xml version="1.0" encoding="UTF-8" standalone="no"?>
<!DOCTYPE svg PUBLIC "-//W3C//DTD SVG 1.1//EN"
 "http://www.w3.org/Graphics/SVG/1.1/DTD/svg11.dtd">
<!-- Generated by graphviz version 2.30.1 (20170916.1124)
 -->
<!-- Title: mfem::DeltaCoefficient Pages: 1 -->
<svg width="190pt" height="108pt"
 viewBox="0.00 0.00 190.00 108.00" xmlns="http://www.w3.org/2000/svg" xmlns:xlink="http://www.w3.org/1999/xlink">
<g id="graph0" class="graph" transform="scale(1 1) rotate(0) translate(4 104)">
<title>mfem::DeltaCoefficient</title>
<polygon fill="white" stroke="white" points="-4,5 -4,-104 187,-104 187,5 -4,5"/>
<!-- Node1 -->
<g id="node1" class="node"><title>Node1</title>
<polygon fill="#bfbfbf" stroke="black" points="0,-0.5 0,-23.5 182,-23.5 182,-0.5 0,-0.5"/>
<text text-anchor="middle" x="91" y="-8.3" font-family="Helvetica,sans-Serif" font-size="14.00">mfem::DeltaCoefficient</text>
</g>
<!-- Node2 -->
<g id="node2" class="node"><title>Node2</title>
<g id="a_node2"><a xlink:href="classmfem_1_1Coefficient.html" target="_top" xlink:title="Base class Coefficient that may optionally depend on time. ">
<polygon fill="white" stroke="black" points="19,-76.5 19,-99.5 163,-99.5 163,-76.5 19,-76.5"/>
<text text-anchor="middle" x="91" y="-84.3" font-family="Helvetica,sans-Serif" font-size="14.00">mfem::Coefficient</text>
</a>
</g>
</g>
<!-- Node2&#45;&gt;Node1 -->
<g id="edge1" class="edge"><title>Node2&#45;&gt;Node1</title>
<path fill="none" stroke="midnightblue" d="M89.3907,-66.1784C89.2291,-63.4295 89.0912,-60.6479 89,-58 88.7552,-50.8931 88.7552,-49.1069 89,-42 89.2085,-35.9476 89.6609,-29.1972 90.0829,-23.7331"/>
<polygon fill="midnightblue" stroke="midnightblue" points="85.9065,-66.5299 90.0829,-76.2669 92.8901,-66.0507 85.9065,-66.5299"/>
</g>
<!-- Node2&#45;&gt;Node1 -->
<g id="edge2" class="edge"><title>Node2&#45;&gt;Node1</title>
<path fill="none" stroke="#9a32cd" stroke-dasharray="5,2" d="M91,-66.2771C91,-52.3872 91,-34.675 91,-23.5827"/>
<polygon fill="#9a32cd" stroke="#9a32cd" points="87.5001,-66.3976 91,-76.3976 94.5001,-66.3976 87.5001,-66.3976"/>
<text text-anchor="middle" x="117.5" y="-46.3" font-family="Helvetica,sans-Serif" font-size="14.00"> weight</text>
</g>
</g>
</svg>
