<?xml version="1.0" encoding="UTF-8" standalone="no"?>
<!DOCTYPE svg PUBLIC "-//W3C//DTD SVG 1.1//EN"
 "http://www.w3.org/Graphics/SVG/1.1/DTD/svg11.dtd">
<!-- Generated by graphviz version 2.30.1 (20170916.1124)
 -->
<!-- Title: mfem::FindPointsGSLIB Pages: 1 -->
<!--zoomable 631 -->
<svg id="main" version="1.1" xmlns="http://www.w3.org/2000/svg" xmlns:xlink="http://www.w3.org/1999/xlink" xml:space="preserve" onload="init(evt)">
<style type="text/css"><![CDATA[
.edge:hover path { stroke: red; }
.edge:hover polygon { stroke: red; fill: red; }
]]></style>
<script type="text/javascript"><![CDATA[
var edges = document.getElementsByTagName('g');
if (edges && edges.length) {
  for (var i=0;i<edges.length;i++) {
    if (edges[i].id.substr(0,4)=='edge') {
      edges[i].setAttribute('class','edge');
    }
  }
}
]]></script>
        <defs>
                <circle id="rim" cx="0" cy="0" r="7"/>
                <circle id="rim2" cx="0" cy="0" r="3.5"/>
                <g id="zoomPlus">
                        <use xlink:href="#rim" fill="#404040">
                                <set attributeName="fill" to="#808080" begin="zoomplus.mouseover" end="zoomplus.mouseout"/>
                        </use>
                        <path d="M-4,0h8M0,-4v8" fill="none" stroke="white" stroke-width="1.5" pointer-events="none"/>
                </g>
                <g id="zoomMin">
                        <use xlink:href="#rim" fill="#404040">
                                <set attributeName="fill" to="#808080" begin="zoomminus.mouseover" end="zoomminus.mouseout"/>
                        </use>
                        <path d="M-4,0h8" fill="none" stroke="white" stroke-width="1.5" pointer-events="none"/>
                </g>
                <g id="dirArrow">
                        <path fill="none" stroke="white" stroke-width="1.5" d="M0,-3.0v7 M-2.5,-0.5L0,-3.0L2.5,-0.5"/>
                </g>
               <g id="resetDef">
                       <use xlink:href="#rim2" fill="#404040">
                               <set attributeName="fill" to="#808080" begin="reset.mouseover" end="reset.mouseout"/>
                       </use>
               </g>
        </defs>

<script type="text/javascript">
var viewWidth = 1310;
var viewHeight = 631;
var sectionId = 'dynsection-0';
</script>
<script xlink:href="svgpan.js"/>
<svg id="graph" class="graph">
<g id="viewport">
<title>mfem::FindPointsGSLIB</title>
<polygon fill="white" stroke="white" points="-4,5 -4,-627.351 1307,-627.351 1307,5 -4,5"/>
<!-- Node1 -->
<g id="node1" class="node"><title>Node1</title>
<polygon fill="#bfbfbf" stroke="black" points="1117,-188.851 1117,-211.851 1299,-211.851 1299,-188.851 1117,-188.851"/>
<text text-anchor="middle" x="1208" y="-196.651" font-family="Helvetica,sans-Serif" font-size="14.00">mfem::FindPointsGSLIB</text>
</g>
<!-- Node2 -->
<g id="node2" class="node"><title>Node2</title>
<g id="a_node2"><a xlink:href="classmfem_1_1Mesh.html" target="_top" xlink:title="mfem::Mesh">
<polygon fill="white" stroke="red" points="888,-228.851 888,-251.851 994,-251.851 994,-228.851 888,-228.851"/>
<text text-anchor="middle" x="941" y="-236.651" font-family="Helvetica,sans-Serif" font-size="14.00">mfem::Mesh</text>
</a>
</g>
</g>
<!-- Node2&#45;&gt;Node1 -->
<g id="edge1" class="edge"><title>Node2&#45;&gt;Node1</title>
<path fill="none" stroke="#9a32cd" stroke-dasharray="5,2" d="M1004.4,-230.932C1042.19,-225.227 1090.67,-217.91 1130.73,-211.863"/>
<polygon fill="#9a32cd" stroke="#9a32cd" points="1003.4,-227.543 994.039,-232.496 1004.45,-234.464 1003.4,-227.543"/>
<text text-anchor="middle" x="1056" y="-233.151" font-family="Helvetica,sans-Serif" font-size="14.00"> mesh</text>
</g>
<!-- Node8 -->
<g id="node8" class="node"><title>Node8</title>
<g id="a_node8"><a xlink:href="classmfem_1_1NURBSExtension.html" target="_top" xlink:title="mfem::NURBSExtension">
<polygon fill="white" stroke="red" points="1114,-266.851 1114,-289.851 1302,-289.851 1302,-266.851 1114,-266.851"/>
<text text-anchor="middle" x="1208" y="-274.651" font-family="Helvetica,sans-Serif" font-size="14.00">mfem::NURBSExtension</text>
</a>
</g>
</g>
<!-- Node2&#45;&gt;Node8 -->
<g id="edge10" class="edge"><title>Node2&#45;&gt;Node8</title>
<path fill="none" stroke="#9a32cd" stroke-dasharray="5,2" d="M969.435,-256.766C982.957,-263.946 999.805,-271.58 1016,-275.351 1047.33,-282.646 1082.34,-284.843 1113.74,-284.759"/>
<polygon fill="#9a32cd" stroke="#9a32cd" points="971.1,-253.688 960.653,-251.922 967.719,-259.817 971.1,-253.688"/>
<text text-anchor="middle" x="1056" y="-289.151" font-family="Helvetica,sans-Serif" font-size="14.00"> patchTopo</text>
</g>
<!-- Node3 -->
<g id="node3" class="node"><title>Node3</title>
<g id="a_node3"><a xlink:href="classmfem_1_1IsoparametricTransformation.html" target="_top" xlink:title="mfem::IsoparametricTransformation">
<polygon fill="white" stroke="red" points="424.5,-138.851 424.5,-161.851 701.5,-161.851 701.5,-138.851 424.5,-138.851"/>
<text text-anchor="middle" x="563" y="-146.651" font-family="Helvetica,sans-Serif" font-size="14.00">mfem::IsoparametricTransformation</text>
</a>
</g>
</g>
<!-- Node3&#45;&gt;Node2 -->
<g id="edge2" class="edge"><title>Node3&#45;&gt;Node2</title>
<path fill="none" stroke="#9a32cd" stroke-dasharray="5,2" d="M691.842,-138.196C760.486,-134.11 836.857,-134.242 866,-151.351 880.072,-159.612 874.197,-170.306 884,-183.351 896.835,-200.43 914.493,-217.588 926.527,-228.549"/>
<polygon fill="#9a32cd" stroke="#9a32cd" points="691.537,-134.708 681.776,-138.827 691.976,-141.694 691.537,-134.708"/>
<text text-anchor="middle" x="793" y="-215.151" font-family="Helvetica,sans-Serif" font-size="14.00"> BdrTransformation</text>
<text text-anchor="middle" x="793" y="-200.151" font-family="Helvetica,sans-Serif" font-size="14.00">FaceTransformation</text>
<text text-anchor="middle" x="793" y="-185.151" font-family="Helvetica,sans-Serif" font-size="14.00">Transformation2</text>
<text text-anchor="middle" x="793" y="-170.151" font-family="Helvetica,sans-Serif" font-size="14.00">Transformation</text>
<text text-anchor="middle" x="793" y="-155.151" font-family="Helvetica,sans-Serif" font-size="14.00">EdgeTransformation</text>
</g>
<!-- Node4 -->
<g id="node4" class="node"><title>Node4</title>
<g id="a_node4"><a xlink:href="classmfem_1_1Array.html" target="_top" xlink:title="mfem::Array\&lt; int \&gt;">
<polygon fill="white" stroke="red" points="53,-404.851 53,-427.851 211,-427.851 211,-404.851 53,-404.851"/>
<text text-anchor="middle" x="132" y="-412.651" font-family="Helvetica,sans-Serif" font-size="14.00">mfem::Array&lt; int &gt;</text>
</a>
</g>
</g>
<!-- Node4&#45;&gt;Node2 -->
<g id="edge3" class="edge"><title>Node4&#45;&gt;Node2</title>
<path fill="none" stroke="#9a32cd" stroke-dasharray="5,2" d="M221.214,-416.012C274.882,-414.77 344.678,-411.308 406,-402.351 614.208,-371.94 673.573,-375.482 866,-290.351 888.687,-280.314 911.921,-263.292 926.157,-251.937"/>
<polygon fill="#9a32cd" stroke="#9a32cd" points="220.969,-412.516 211.045,-416.225 221.116,-419.515 220.969,-412.516"/>
<text text-anchor="middle" x="563" y="-448.151" font-family="Helvetica,sans-Serif" font-size="14.00"> attributes</text>
<text text-anchor="middle" x="563" y="-433.151" font-family="Helvetica,sans-Serif" font-size="14.00">be_to_edge</text>
<text text-anchor="middle" x="563" y="-418.151" font-family="Helvetica,sans-Serif" font-size="14.00">be_to_face</text>
<text text-anchor="middle" x="563" y="-403.151" font-family="Helvetica,sans-Serif" font-size="14.00">bdr_attributes</text>
</g>
<!-- Node5 -->
<g id="node5" class="node"><title>Node5</title>
<g id="a_node5"><a xlink:href="classmfem_1_1NCMesh.html" target="_top" xlink:title="A class for non&#45;conforming AMR on higher&#45;order hexahedral, prismatic, quadrilateral or triangular mes...">
<polygon fill="white" stroke="red" points="500,-273.851 500,-296.851 626,-296.851 626,-273.851 500,-273.851"/>
<text text-anchor="middle" x="563" y="-281.651" font-family="Helvetica,sans-Serif" font-size="14.00">mfem::NCMesh</text>
</a>
</g>
</g>
<!-- Node4&#45;&gt;Node5 -->
<g id="edge5" class="edge"><title>Node4&#45;&gt;Node5</title>
<path fill="none" stroke="#9a32cd" stroke-dasharray="5,2" d="M152.379,-397.772C179.119,-373.406 229.953,-331.512 282,-312.351 320.611,-298.136 429.699,-290.937 499.76,-287.676"/>
<polygon fill="#9a32cd" stroke="#9a32cd" points="149.832,-395.36 144.88,-404.726 154.592,-400.493 149.832,-395.36"/>
<text text-anchor="middle" x="344" y="-391.151" font-family="Helvetica,sans-Serif" font-size="14.00"> vertex_nodeId</text>
<text text-anchor="middle" x="344" y="-376.151" font-family="Helvetica,sans-Serif" font-size="14.00">coarse_elements</text>
<text text-anchor="middle" x="344" y="-361.151" font-family="Helvetica,sans-Serif" font-size="14.00">root_state</text>
<text text-anchor="middle" x="344" y="-346.151" font-family="Helvetica,sans-Serif" font-size="14.00">leaf_elements</text>
<text text-anchor="middle" x="344" y="-331.151" font-family="Helvetica,sans-Serif" font-size="14.00">boundary_faces</text>
<text text-anchor="middle" x="344" y="-316.151" font-family="Helvetica,sans-Serif" font-size="14.00">free_element_ids</text>
</g>
<!-- Node4&#45;&gt;Node8 -->
<g id="edge11" class="edge"><title>Node4&#45;&gt;Node8</title>
<path fill="none" stroke="#9a32cd" stroke-dasharray="5,2" d="M197.536,-429.821C256.267,-441.351 345.519,-457.054 424,-463.351 547.16,-473.233 580.344,-484.933 702,-463.351 896.445,-428.856 1114.29,-325.085 1184.15,-290.051"/>
<polygon fill="#9a32cd" stroke="#9a32cd" points="198.147,-426.374 187.657,-427.865 196.787,-433.241 198.147,-426.374"/>
<text text-anchor="middle" x="793" y="-612.151" font-family="Helvetica,sans-Serif" font-size="14.00"> slave</text>
<text text-anchor="middle" x="793" y="-597.151" font-family="Helvetica,sans-Serif" font-size="14.00">master</text>
<text text-anchor="middle" x="793" y="-582.151" font-family="Helvetica,sans-Serif" font-size="14.00">v_spaceOffsets</text>
<text text-anchor="middle" x="793" y="-567.151" font-family="Helvetica,sans-Serif" font-size="14.00">p_meshOffsets</text>
<text text-anchor="middle" x="793" y="-552.151" font-family="Helvetica,sans-Serif" font-size="14.00">edge_to_knot</text>
<text text-anchor="middle" x="793" y="-537.151" font-family="Helvetica,sans-Serif" font-size="14.00">f_spaceOffsets</text>
<text text-anchor="middle" x="793" y="-522.151" font-family="Helvetica,sans-Serif" font-size="14.00">e_meshOffsets</text>
<text text-anchor="middle" x="793" y="-507.151" font-family="Helvetica,sans-Serif" font-size="14.00">el_to_patch</text>
<text text-anchor="middle" x="793" y="-492.151" font-family="Helvetica,sans-Serif" font-size="14.00">p_spaceOffsets</text>
<text text-anchor="middle" x="793" y="-477.151" font-family="Helvetica,sans-Serif" font-size="14.00">bel_to_patch</text>
<text text-anchor="middle" x="793" y="-462.151" font-family="Helvetica,sans-Serif" font-size="14.00">...</text>
</g>
<!-- Node5&#45;&gt;Node2 -->
<g id="edge4" class="edge"><title>Node5&#45;&gt;Node2</title>
<path fill="none" stroke="#9a32cd" stroke-dasharray="5,2" d="M636.421,-279.651C697.731,-274.411 787.854,-265.733 866,-254.351 873.116,-253.314 880.59,-252.077 887.94,-250.773"/>
<polygon fill="#9a32cd" stroke="#9a32cd" points="635.747,-276.195 626.077,-280.526 636.337,-283.171 635.747,-276.195"/>
<text text-anchor="middle" x="793" y="-275.151" font-family="Helvetica,sans-Serif" font-size="14.00"> ncmesh</text>
</g>
<!-- Node6 -->
<g id="node6" class="node"><title>Node6</title>
<g id="a_node6"><a xlink:href="structmfem_1_1CoarseFineTransformations.html" target="_top" xlink:title="Defines the coarse&#45;fine transformations of all fine elements. ">
<polygon fill="white" stroke="red" points="0,-245.851 0,-268.851 264,-268.851 264,-245.851 0,-245.851"/>
<text text-anchor="middle" x="132" y="-253.651" font-family="Helvetica,sans-Serif" font-size="14.00">mfem::CoarseFineTransformations</text>
</a>
</g>
</g>
<!-- Node6&#45;&gt;Node5 -->
<g id="edge6" class="edge"><title>Node6&#45;&gt;Node5</title>
<path fill="none" stroke="#9a32cd" stroke-dasharray="5,2" d="M274.335,-265.931C316.681,-268.561 363.23,-271.511 406,-274.351 436.884,-276.401 471.197,-278.807 499.761,-280.845"/>
<polygon fill="#9a32cd" stroke="#9a32cd" points="274.433,-262.43 264.236,-265.304 274,-269.417 274.433,-262.43"/>
<text text-anchor="middle" x="344" y="-278.151" font-family="Helvetica,sans-Serif" font-size="14.00"> transforms</text>
</g>
<!-- Node6&#45;&gt;Node2 -->
<g id="edge7" class="edge"><title>Node6&#45;&gt;Node2</title>
<path fill="none" stroke="#9a32cd" stroke-dasharray="5,2" d="M274.155,-253.185C321.752,-251.856 375.177,-250.448 424,-249.351 593.743,-245.538 794.928,-242.438 887.995,-241.085"/>
<polygon fill="#9a32cd" stroke="#9a32cd" points="273.989,-249.688 264.091,-253.467 274.185,-256.686 273.989,-249.688"/>
<text text-anchor="middle" x="563" y="-253.151" font-family="Helvetica,sans-Serif" font-size="14.00"> CoarseFineTr</text>
</g>
<!-- Node7 -->
<g id="node7" class="node"><title>Node7</title>
<g id="a_node7"><a xlink:href="classmfem_1_1Array.html" target="_top" xlink:title="mfem::Array\&lt; mfem::\lElement * \&gt;">
<polygon fill="white" stroke="red" points="475,-63.351 475,-101.351 651,-101.351 651,-63.351 475,-63.351"/>
<text text-anchor="start" x="483" y="-86.151" font-family="Helvetica,sans-Serif" font-size="14.00">mfem::Array&lt; mfem::</text>
<text text-anchor="middle" x="563" y="-71.151" font-family="Helvetica,sans-Serif" font-size="14.00">Element * &gt;</text>
</a>
</g>
</g>
<!-- Node7&#45;&gt;Node2 -->
<g id="edge8" class="edge"><title>Node7&#45;&gt;Node2</title>
<path fill="none" stroke="#9a32cd" stroke-dasharray="5,2" d="M661.339,-71.1366C737.722,-64.6202 835.99,-62.0229 866,-87.351 899.174,-115.35 863.918,-144.865 884,-183.351 893.691,-201.922 911.433,-218.416 924.356,-228.823"/>
<polygon fill="#9a32cd" stroke="#9a32cd" points="660.843,-67.6667 651.191,-72.0358 661.461,-74.6394 660.843,-67.6667"/>
<text text-anchor="middle" x="793" y="-121.151" font-family="Helvetica,sans-Serif" font-size="14.00"> boundary</text>
<text text-anchor="middle" x="793" y="-106.151" font-family="Helvetica,sans-Serif" font-size="14.00">elements</text>
<text text-anchor="middle" x="793" y="-91.151" font-family="Helvetica,sans-Serif" font-size="14.00">faces</text>
</g>
<!-- Node8&#45;&gt;Node2 -->
<g id="edge9" class="edge"><title>Node8&#45;&gt;Node2</title>
<path fill="none" stroke="#9a32cd" stroke-dasharray="5,2" d="M1127.87,-265.206C1117.17,-263.519 1106.32,-261.858 1096,-260.351 1062.12,-255.405 1023.95,-250.444 994.093,-246.701"/>
<polygon fill="#9a32cd" stroke="#9a32cd" points="1127.65,-268.713 1138.07,-266.826 1128.74,-261.8 1127.65,-268.713"/>
<text text-anchor="middle" x="1056" y="-264.151" font-family="Helvetica,sans-Serif" font-size="14.00"> NURBSext</text>
</g>
<!-- Node9 -->
<g id="node9" class="node"><title>Node9</title>
<g id="a_node9"><a xlink:href="classmfem_1_1Vector.html" target="_top" xlink:title="Vector data type. ">
<polygon fill="white" stroke="red" points="884,-150.851 884,-173.851 998,-173.851 998,-150.851 884,-150.851"/>
<text text-anchor="middle" x="941" y="-158.651" font-family="Helvetica,sans-Serif" font-size="14.00">mfem::Vector</text>
</a>
</g>
</g>
<!-- Node9&#45;&gt;Node8 -->
<g id="edge12" class="edge"><title>Node9&#45;&gt;Node8</title>
<path fill="none" stroke="#9a32cd" stroke-dasharray="5,2" d="M1008.06,-168.667C1036.76,-173.737 1069.75,-182.877 1096,-199.351 1106.7,-206.066 1104.48,-213.045 1114,-221.351 1135.4,-240.027 1163.65,-256.386 1183.38,-266.732"/>
<polygon fill="#9a32cd" stroke="#9a32cd" points="1008.54,-165.198 998.102,-167.037 1007.41,-172.106 1008.54,-165.198"/>
<text text-anchor="middle" x="1056" y="-203.151" font-family="Helvetica,sans-Serif" font-size="14.00"> weights</text>
</g>
<!-- Node9&#45;&gt;Node1 -->
<g id="edge14" class="edge"><title>Node9&#45;&gt;Node1</title>
<path fill="none" stroke="#9a32cd" stroke-dasharray="5,2" d="M993.201,-148.688C1023.41,-142.687 1062.23,-138.572 1096,-146.351 1131.29,-154.48 1168.36,-175.41 1189.48,-188.697"/>
<polygon fill="#9a32cd" stroke="#9a32cd" points="992.364,-145.287 983.305,-150.781 993.813,-152.136 992.364,-145.287"/>
<text text-anchor="middle" x="1056" y="-150.151" font-family="Helvetica,sans-Serif" font-size="14.00"> gsl_mesh</text>
</g>
<!-- Node10 -->
<g id="node10" class="node"><title>Node10</title>
<g id="a_node10"><a xlink:href="classmfem_1_1Array.html" target="_top" xlink:title="mfem::Array\&lt; mfem::\lGeometricFactors * \&gt;">
<polygon fill="white" stroke="red" points="475,-6.35099 475,-44.351 651,-44.351 651,-6.35099 475,-6.35099"/>
<text text-anchor="start" x="483" y="-29.151" font-family="Helvetica,sans-Serif" font-size="14.00">mfem::Array&lt; mfem::</text>
<text text-anchor="middle" x="563" y="-14.151" font-family="Helvetica,sans-Serif" font-size="14.00">GeometricFactors * &gt;</text>
</a>
</g>
</g>
<!-- Node10&#45;&gt;Node2 -->
<g id="edge13" class="edge"><title>Node10&#45;&gt;Node2</title>
<path fill="none" stroke="#9a32cd" stroke-dasharray="5,2" d="M655.423,-4.81682C722.458,4.43044 811.019,3.60655 866,-48.351 887.997,-69.1385 870.712,-156.159 884,-183.351 893.136,-202.047 910.792,-218.403 923.847,-228.742"/>
<polygon fill="#9a32cd" stroke="#9a32cd" points="654.658,-1.39168 645.277,-6.315 655.681,-8.3166 654.658,-1.39168"/>
<text text-anchor="middle" x="793" y="-52.151" font-family="Helvetica,sans-Serif" font-size="14.00"> geom_factors</text>
</g>
</g>
</svg>
        <g id="navigator" transform="translate(0 0)" fill="#404254">
                <rect fill="#f2f5e9" fill-opacity="0.5" stroke="#606060" stroke-width=".5" x="0" y="0" width="60" height="60"/>
                <use id="zoomplus" xlink:href="#zoomPlus" x="17" y="9" onmousedown="handleZoom(evt,'in')"/>
                <use id="zoomminus" xlink:href="#zoomMin" x="42" y="9" onmousedown="handleZoom(evt,'out')"/>
                <use id="reset" xlink:href="#resetDef" x="30" y="36" onmousedown="handleReset()"/>
                <g id="arrowUp" xlink:href="#dirArrow" transform="translate(30 24)" onmousedown="handlePan(0,-1)">
                  <use xlink:href="#rim" fill="#404040">
                        <set attributeName="fill" to="#808080" begin="arrowUp.mouseover" end="arrowUp.mouseout"/>
                  </use>
                  <path fill="none" stroke="white" stroke-width="1.5" d="M0,-3.0v7 M-2.5,-0.5L0,-3.0L2.5,-0.5"/>
                </g>
                <g id="arrowRight" xlink:href="#dirArrow" transform="rotate(90) translate(36 -43)" onmousedown="handlePan(1,0)">
                  <use xlink:href="#rim" fill="#404040">
                        <set attributeName="fill" to="#808080" begin="arrowRight.mouseover" end="arrowRight.mouseout"/>
                  </use>
                  <path fill="none" stroke="white" stroke-width="1.5" d="M0,-3.0v7 M-2.5,-0.5L0,-3.0L2.5,-0.5"/>
                </g>
                <g id="arrowDown" xlink:href="#dirArrow" transform="rotate(180) translate(-30 -48)" onmousedown="handlePan(0,1)">
                  <use xlink:href="#rim" fill="#404040">
                        <set attributeName="fill" to="#808080" begin="arrowDown.mouseover" end="arrowDown.mouseout"/>
                  </use>
                  <path fill="none" stroke="white" stroke-width="1.5" d="M0,-3.0v7 M-2.5,-0.5L0,-3.0L2.5,-0.5"/>
                </g>
                <g id="arrowLeft" xlink:href="#dirArrow" transform="rotate(270) translate(-36 17)" onmousedown="handlePan(-1,0)">
                  <use xlink:href="#rim" fill="#404040">
                        <set attributeName="fill" to="#808080" begin="arrowLeft.mouseover" end="arrowLeft.mouseout"/>
                  </use>
                  <path fill="none" stroke="white" stroke-width="1.5" d="M0,-3.0v7 M-2.5,-0.5L0,-3.0L2.5,-0.5"/>
                </g>
        </g>
        <svg viewBox="0 0 15 15" width="100%" height="30px" preserveAspectRatio="xMaxYMin meet">
         <g id="arrow_out" transform="scale(0.3 0.3)">
          <a xlink:href="classmfem_1_1FindPointsGSLIB__coll__graph_org.svg" target="_base">
           <rect id="button" ry="5" rx="5" y="6" x="6" height="38" width="38"
                fill="#f2f5e9" fill-opacity="0.5" stroke="#606060" stroke-width="1.0"/>
           <path id="arrow"
             d="M 11.500037,31.436501 C 11.940474,20.09759 22.043105,11.32322 32.158766,21.979434 L 37.068811,17.246167 C 37.068811,17.246167 37.088388,32 37.088388,32 L 22.160133,31.978069 C 22.160133,31.978069 26.997745,27.140456 26.997745,27.140456 C 18.528582,18.264221 13.291696,25.230495 11.500037,31.436501 z"
             style="fill:#404040;"/>
          </a>
         </g>
        </svg>
</svg>
