<?xml version="1.0" encoding="UTF-8" standalone="no"?>
<!DOCTYPE svg PUBLIC "-//W3C//DTD SVG 1.1//EN"
 "http://www.w3.org/Graphics/SVG/1.1/DTD/svg11.dtd">
<!-- Generated by graphviz version 2.30.1 (20200304.1809)
 -->
<!-- Title: mfem::ParNCMesh Pages: 1 -->
<svg width="898pt" height="606pt"
 viewBox="0.00 0.00 898.00 606.00" xmlns="http://www.w3.org/2000/svg" xmlns:xlink="http://www.w3.org/1999/xlink">
<g id="graph0" class="graph" transform="scale(1 1) rotate(0) translate(4 602)">
<title>mfem::ParNCMesh</title>
<polygon fill="white" stroke="white" points="-4,5 -4,-602 895,-602 895,5 -4,5"/>
<!-- Node1 -->
<g id="node1" class="node"><title>Node1</title>
<polygon fill="#bfbfbf" stroke="black" points="740.5,-224.5 740.5,-247.5 889.5,-247.5 889.5,-224.5 740.5,-224.5"/>
<text text-anchor="middle" x="815" y="-232.3" font-family="Helvetica,sans-Serif" font-size="14.00">mfem::ParNCMesh</text>
</g>
<!-- Node2 -->
<g id="node2" class="node"><title>Node2</title>
<g id="a_node2"><a xlink:href="classmfem_1_1NCMesh.html" target="_top" xlink:title="A class for non&#45;conforming AMR on higher&#45;order hexahedral, prismatic, quadrilateral or triangular mes...">
<polygon fill="white" stroke="red" points="378,-394.5 378,-417.5 504,-417.5 504,-394.5 378,-394.5"/>
<text text-anchor="middle" x="441" y="-402.3" font-family="Helvetica,sans-Serif" font-size="14.00">mfem::NCMesh</text>
</a>
</g>
</g>
<!-- Node2&#45;&gt;Node1 -->
<g id="edge1" class="edge"><title>Node2&#45;&gt;Node1</title>
<path fill="none" stroke="midnightblue" d="M514.146,-403.023C573.658,-397.707 658.347,-383.341 722,-345 763.152,-320.212 794.767,-270.397 807.666,-247.722"/>
<polygon fill="midnightblue" stroke="midnightblue" points="513.756,-399.543 504.079,-403.857 514.334,-406.519 513.756,-399.543"/>
</g>
<!-- Node3 -->
<g id="node3" class="node"><title>Node3</title>
<g id="a_node3"><a xlink:href="classmfem_1_1Array.html" target="_top" xlink:title="mfem::Array\&lt; int \&gt;">
<polygon fill="white" stroke="red" points="7,-402.5 7,-425.5 165,-425.5 165,-402.5 7,-402.5"/>
<text text-anchor="middle" x="86" y="-410.3" font-family="Helvetica,sans-Serif" font-size="14.00">mfem::Array&lt; int &gt;</text>
</a>
</g>
</g>
<!-- Node3&#45;&gt;Node2 -->
<g id="edge2" class="edge"><title>Node3&#45;&gt;Node2</title>
<path fill="none" stroke="#9a32cd" stroke-dasharray="5,2" d="M175.345,-406.69C180.3,-406.42 185.211,-406.186 190,-406 253.971,-403.519 327.219,-403.897 377.817,-404.663"/>
<polygon fill="#9a32cd" stroke="#9a32cd" points="174.911,-403.209 165.134,-407.292 175.323,-410.197 174.911,-403.209"/>
<text text-anchor="middle" x="252" y="-484.8" font-family="Helvetica,sans-Serif" font-size="14.00"> vertex_nodeId</text>
<text text-anchor="middle" x="252" y="-469.8" font-family="Helvetica,sans-Serif" font-size="14.00">coarse_elements</text>
<text text-anchor="middle" x="252" y="-454.8" font-family="Helvetica,sans-Serif" font-size="14.00">root_state</text>
<text text-anchor="middle" x="252" y="-439.8" font-family="Helvetica,sans-Serif" font-size="14.00">leaf_elements</text>
<text text-anchor="middle" x="252" y="-424.8" font-family="Helvetica,sans-Serif" font-size="14.00">boundary_faces</text>
<text text-anchor="middle" x="252" y="-409.8" font-family="Helvetica,sans-Serif" font-size="14.00">free_element_ids</text>
</g>
<!-- Node3&#45;&gt;Node1 -->
<g id="edge5" class="edge"><title>Node3&#45;&gt;Node1</title>
<path fill="none" stroke="#9a32cd" stroke-dasharray="5,2" d="M103.515,-433.238C122.155,-453.328 154.537,-483.607 190,-496 242.026,-514.18 259.374,-503.298 314,-496 500.269,-471.114 571.451,-497.474 722,-385 771.441,-348.063 800.321,-276.015 810.16,-247.765"/>
<polygon fill="#9a32cd" stroke="#9a32cd" points="105.915,-430.673 96.6205,-425.587 100.715,-435.359 105.915,-430.673"/>
<text text-anchor="middle" x="441" y="-586.8" font-family="Helvetica,sans-Serif" font-size="14.00"> entity_elem_local</text>
<text text-anchor="middle" x="441" y="-571.8" font-family="Helvetica,sans-Serif" font-size="14.00">ghost_layer</text>
<text text-anchor="middle" x="441" y="-556.8" font-family="Helvetica,sans-Serif" font-size="14.00">leaf_glob_order</text>
<text text-anchor="middle" x="441" y="-541.8" font-family="Helvetica,sans-Serif" font-size="14.00">tmp_owner</text>
<text text-anchor="middle" x="441" y="-526.8" font-family="Helvetica,sans-Serif" font-size="14.00">tmp_neighbors</text>
<text text-anchor="middle" x="441" y="-511.8" font-family="Helvetica,sans-Serif" font-size="14.00">boundary_layer</text>
<text text-anchor="middle" x="441" y="-496.8" font-family="Helvetica,sans-Serif" font-size="14.00">old_index_or_rank</text>
</g>
<!-- Node4 -->
<g id="node4" class="node"><title>Node4</title>
<g id="a_node4"><a xlink:href="classmfem_1_1Array.html" target="_top" xlink:title="mfem::Array\&lt; char \&gt;">
<polygon fill="white" stroke="red" points="0,-344.5 0,-367.5 172,-367.5 172,-344.5 0,-344.5"/>
<text text-anchor="middle" x="86" y="-352.3" font-family="Helvetica,sans-Serif" font-size="14.00">mfem::Array&lt; char &gt;</text>
</a>
</g>
</g>
<!-- Node4&#45;&gt;Node2 -->
<g id="edge3" class="edge"><title>Node4&#45;&gt;Node2</title>
<path fill="none" stroke="#9a32cd" stroke-dasharray="5,2" d="M182.389,-368.046C222.99,-373.318 270.844,-379.724 314,-386 334.822,-389.028 357.542,-392.563 377.884,-395.811"/>
<polygon fill="#9a32cd" stroke="#9a32cd" points="182.597,-364.544 172.23,-366.731 181.698,-371.486 182.597,-364.544"/>
<text text-anchor="middle" x="252" y="-389.8" font-family="Helvetica,sans-Serif" font-size="14.00"> face_geom</text>
</g>
<!-- Node4&#45;&gt;Node1 -->
<g id="edge11" class="edge"><title>Node4&#45;&gt;Node1</title>
<path fill="none" stroke="#9a32cd" stroke-dasharray="5,2" d="M182.065,-349.079C353.045,-336.446 697.085,-310.116 722,-301 754.324,-289.174 785.687,-262.886 802.132,-247.611"/>
<polygon fill="#9a32cd" stroke="#9a32cd" points="181.773,-345.591 172.058,-349.817 182.288,-352.572 181.773,-345.591"/>
<text text-anchor="middle" x="441" y="-371.8" font-family="Helvetica,sans-Serif" font-size="14.00"> tmp_shared_flag</text>
<text text-anchor="middle" x="441" y="-356.8" font-family="Helvetica,sans-Serif" font-size="14.00">element_type</text>
<text text-anchor="middle" x="441" y="-341.8" font-family="Helvetica,sans-Serif" font-size="14.00">face_orient</text>
</g>
<!-- Node5 -->
<g id="node5" class="node"><title>Node5</title>
<polygon fill="white" stroke="#bfbfbf" points="342.5,-256 342.5,-294 539.5,-294 539.5,-256 342.5,-256"/>
<text text-anchor="start" x="350.5" y="-278.8" font-family="Helvetica,sans-Serif" font-size="14.00">std::map&lt; int, Rebalance</text>
<text text-anchor="middle" x="441" y="-263.8" font-family="Helvetica,sans-Serif" font-size="14.00">DofMessage &gt;</text>
</g>
<!-- Node5&#45;&gt;Node1 -->
<g id="edge4" class="edge"><title>Node5&#45;&gt;Node1</title>
<path fill="none" stroke="#9a32cd" stroke-dasharray="5,2" d="M549.963,-267.675C602.049,-263.649 665.374,-258.033 722,-251 730.03,-250.003 738.433,-248.823 746.756,-247.57"/>
<polygon fill="#9a32cd" stroke="#9a32cd" points="549.405,-264.207 539.701,-268.459 549.938,-271.187 549.405,-264.207"/>
<text text-anchor="middle" x="645" y="-285.8" font-family="Helvetica,sans-Serif" font-size="14.00"> recv_rebalance_dofs</text>
<text text-anchor="middle" x="645" y="-270.8" font-family="Helvetica,sans-Serif" font-size="14.00">send_rebalance_dofs</text>
</g>
<!-- Node6 -->
<g id="node6" class="node"><title>Node6</title>
<g id="a_node6"><a xlink:href="classmfem_1_1Array.html" target="_top" xlink:title="mfem::Array\&lt; mfem::\lDenseMatrix * \&gt;">
<polygon fill="white" stroke="red" points="353,-199 353,-237 529,-237 529,-199 353,-199"/>
<text text-anchor="start" x="361" y="-221.8" font-family="Helvetica,sans-Serif" font-size="14.00">mfem::Array&lt; mfem::</text>
<text text-anchor="middle" x="441" y="-206.8" font-family="Helvetica,sans-Serif" font-size="14.00">DenseMatrix * &gt;</text>
</a>
</g>
</g>
<!-- Node6&#45;&gt;Node1 -->
<g id="edge6" class="edge"><title>Node6&#45;&gt;Node1</title>
<path fill="none" stroke="#9a32cd" stroke-dasharray="5,2" d="M539.553,-222.72C602.462,-225.764 682.966,-229.66 740.486,-232.443"/>
<polygon fill="#9a32cd" stroke="#9a32cd" points="539.375,-219.208 529.217,-222.22 539.037,-226.2 539.375,-219.208"/>
<text text-anchor="middle" x="645" y="-235.8" font-family="Helvetica,sans-Serif" font-size="14.00"> aux_pm_store</text>
</g>
<!-- Node7 -->
<g id="node7" class="node"><title>Node7</title>
<g id="a_node7"><a xlink:href="classmfem_1_1Array.html" target="_top" xlink:title="mfem::Array\&lt; GroupId \&gt;">
<polygon fill="white" stroke="red" points="342,-156.5 342,-179.5 540,-179.5 540,-156.5 342,-156.5"/>
<text text-anchor="middle" x="441" y="-164.3" font-family="Helvetica,sans-Serif" font-size="14.00">mfem::Array&lt; GroupId &gt;</text>
</a>
</g>
</g>
<!-- Node7&#45;&gt;Node1 -->
<g id="edge7" class="edge"><title>Node7&#45;&gt;Node1</title>
<path fill="none" stroke="#9a32cd" stroke-dasharray="5,2" d="M550.131,-157.546C603.064,-155.807 667.061,-158.811 722,-176 753.484,-185.851 784.43,-209.788 801.187,-224.275"/>
<polygon fill="#9a32cd" stroke="#9a32cd" points="549.896,-154.052 540.04,-157.939 550.169,-161.047 549.896,-154.052"/>
<text text-anchor="middle" x="645" y="-209.8" font-family="Helvetica,sans-Serif" font-size="14.00"> entity_conf_group</text>
<text text-anchor="middle" x="645" y="-194.8" font-family="Helvetica,sans-Serif" font-size="14.00">entity_pmat_group</text>
<text text-anchor="middle" x="645" y="-179.8" font-family="Helvetica,sans-Serif" font-size="14.00">entity_owner</text>
</g>
<!-- Node8 -->
<g id="node8" class="node"><title>Node8</title>
<polygon fill="white" stroke="#bfbfbf" points="332.5,-114.5 332.5,-137.5 549.5,-137.5 549.5,-114.5 332.5,-114.5"/>
<text text-anchor="middle" x="441" y="-122.3" font-family="Helvetica,sans-Serif" font-size="14.00">std::vector&lt; CommGroup &gt;</text>
</g>
<!-- Node8&#45;&gt;Node1 -->
<g id="edge8" class="edge"><title>Node8&#45;&gt;Node1</title>
<path fill="none" stroke="#9a32cd" stroke-dasharray="5,2" d="M530.017,-113.682C587.251,-109.534 662.096,-111.591 722,-139 762.523,-157.542 794.011,-202.833 807.223,-224.32"/>
<polygon fill="#9a32cd" stroke="#9a32cd" points="529.594,-110.204 519.905,-114.492 530.153,-117.182 529.594,-110.204"/>
<text text-anchor="middle" x="645" y="-142.8" font-family="Helvetica,sans-Serif" font-size="14.00"> groups</text>
</g>
<!-- Node9 -->
<g id="node9" class="node"><title>Node9</title>
<polygon fill="white" stroke="#bfbfbf" points="345,-57 345,-95 537,-95 537,-57 345,-57"/>
<text text-anchor="start" x="353" y="-79.8" font-family="Helvetica,sans-Serif" font-size="14.00">std::map&lt; CommGroup,</text>
<text text-anchor="middle" x="441" y="-64.8" font-family="Helvetica,sans-Serif" font-size="14.00"> GroupId &gt;</text>
</g>
<!-- Node9&#45;&gt;Node1 -->
<g id="edge9" class="edge"><title>Node9&#45;&gt;Node1</title>
<path fill="none" stroke="#9a32cd" stroke-dasharray="5,2" d="M547.27,-61.0506C602.787,-58.3017 669.972,-63.5124 722,-94 773.448,-124.148 801.152,-195.773 810.418,-224.138"/>
<polygon fill="#9a32cd" stroke="#9a32cd" points="546.823,-57.5708 537.046,-61.6522 547.234,-64.5587 546.823,-57.5708"/>
<text text-anchor="middle" x="645" y="-97.8" font-family="Helvetica,sans-Serif" font-size="14.00"> group_id</text>
</g>
<!-- Node10 -->
<g id="node10" class="node"><title>Node10</title>
<g id="a_node10"><a xlink:href="classmfem_1_1Array.html" target="_top" xlink:title="mfem::Array\&lt; mfem::\lConnection \&gt;">
<polygon fill="white" stroke="red" points="353,-0 353,-38 529,-38 529,-0 353,-0"/>
<text text-anchor="start" x="361" y="-22.8" font-family="Helvetica,sans-Serif" font-size="14.00">mfem::Array&lt; mfem::</text>
<text text-anchor="middle" x="441" y="-7.8" font-family="Helvetica,sans-Serif" font-size="14.00">Connection &gt;</text>
</a>
</g>
</g>
<!-- Node10&#45;&gt;Node1 -->
<g id="edge10" class="edge"><title>Node10&#45;&gt;Node1</title>
<path fill="none" stroke="#9a32cd" stroke-dasharray="5,2" d="M539.321,-4.11432C597.217,-0.479582 669.394,-5.62534 722,-42 786.693,-86.7323 807.243,-189.518 812.468,-224.271"/>
<polygon fill="#9a32cd" stroke="#9a32cd" points="538.774,-0.644659 529.054,-4.85912 539.281,-7.62631 538.774,-0.644659"/>
<text text-anchor="middle" x="645" y="-45.8" font-family="Helvetica,sans-Serif" font-size="14.00"> entity_index_rank</text>
</g>
</g>
</svg>
