<?xml version="1.0" encoding="UTF-8" standalone="no"?>
<!DOCTYPE svg PUBLIC "-//W3C//DTD SVG 1.1//EN"
 "http://www.w3.org/Graphics/SVG/1.1/DTD/svg11.dtd">
<!-- Generated by graphviz version 2.30.1 (20200304.1809)
 -->
<!-- Title: mfem::NonlinearFormExtension Pages: 1 -->
<svg width="1132pt" height="506pt"
 viewBox="0.00 0.00 1132.00 506.37" xmlns="http://www.w3.org/2000/svg" xmlns:xlink="http://www.w3.org/1999/xlink">
<g id="graph0" class="graph" transform="scale(1 1) rotate(0) translate(4 502.369)">
<title>mfem::NonlinearFormExtension</title>
<polygon fill="white" stroke="white" points="-4,5 -4,-502.369 1129,-502.369 1129,5 -4,5"/>
<!-- Node1 -->
<g id="node1" class="node"><title>Node1</title>
<polygon fill="#bfbfbf" stroke="black" points="572,-442.869 572,-465.869 816,-465.869 816,-442.869 572,-442.869"/>
<text text-anchor="middle" x="694" y="-450.669" font-family="Helvetica,sans-Serif" font-size="14.00">mfem::NonlinearFormExtension</text>
</g>
<!-- Node3 -->
<g id="node3" class="node"><title>Node3</title>
<g id="a_node3"><a xlink:href="classmfem_1_1NonlinearForm.html" target="_top" xlink:title="mfem::NonlinearForm">
<polygon fill="white" stroke="black" points="950,-288.869 950,-311.869 1124,-311.869 1124,-288.869 950,-288.869"/>
<text text-anchor="middle" x="1037" y="-296.669" font-family="Helvetica,sans-Serif" font-size="14.00">mfem::NonlinearForm</text>
</a>
</g>
</g>
<!-- Node1&#45;&gt;Node3 -->
<g id="edge12" class="edge"><title>Node1&#45;&gt;Node3</title>
<path fill="none" stroke="#9a32cd" stroke-dasharray="5,2" d="M738.739,-468.748C788.761,-482.445 871.535,-496.515 932,-463.369 993.226,-429.807 1023.62,-343.178 1032.86,-311.872"/>
<polygon fill="#9a32cd" stroke="#9a32cd" points="739.461,-465.314 728.884,-465.938 737.541,-472.046 739.461,-465.314"/>
<text text-anchor="middle" x="883" y="-487.169" font-family="Helvetica,sans-Serif" font-size="14.00"> ext</text>
</g>
<!-- Node2 -->
<g id="node2" class="node"><title>Node2</title>
<g id="a_node2"><a xlink:href="classmfem_1_1Operator.html" target="_top" xlink:title="Abstract operator. ">
<polygon fill="white" stroke="black" points="274.5,-402.869 274.5,-425.869 407.5,-425.869 407.5,-402.869 274.5,-402.869"/>
<text text-anchor="middle" x="341" y="-410.669" font-family="Helvetica,sans-Serif" font-size="14.00">mfem::Operator</text>
</a>
</g>
</g>
<!-- Node2&#45;&gt;Node1 -->
<g id="edge1" class="edge"><title>Node2&#45;&gt;Node1</title>
<path fill="none" stroke="midnightblue" d="M417.527,-425.464C425.113,-426.487 432.705,-427.474 440,-428.369 482.949,-433.642 530.092,-438.688 571.923,-442.908"/>
<polygon fill="midnightblue" stroke="midnightblue" points="417.965,-421.991 407.582,-424.103 417.016,-428.927 417.965,-421.991"/>
</g>
<!-- Node2&#45;&gt;Node3 -->
<g id="edge3" class="edge"><title>Node2&#45;&gt;Node3</title>
<path fill="none" stroke="midnightblue" d="M417.597,-416.478C555.065,-419.356 840.252,-420.656 932,-385.369 972.7,-369.716 1009.43,-331.577 1026.28,-312.154"/>
<polygon fill="midnightblue" stroke="midnightblue" points="417.633,-412.978 407.559,-416.259 417.481,-419.976 417.633,-412.978"/>
</g>
<!-- Node2&#45;&gt;Node3 -->
<g id="edge14" class="edge"><title>Node2&#45;&gt;Node3</title>
<path fill="none" stroke="#9a32cd" stroke-dasharray="5,2" d="M417.904,-403.866C530.448,-387.991 748.088,-356.135 932,-322.369 949.063,-319.237 967.617,-315.438 984.267,-311.886"/>
<polygon fill="#9a32cd" stroke="#9a32cd" points="417.09,-400.446 407.675,-405.305 418.065,-407.377 417.09,-400.446"/>
<text text-anchor="middle" x="694" y="-385.169" font-family="Helvetica,sans-Serif" font-size="14.00"> P</text>
</g>
<!-- Node3&#45;&gt;Node1 -->
<g id="edge2" class="edge"><title>Node3&#45;&gt;Node1</title>
<path fill="none" stroke="#9a32cd" stroke-dasharray="5,2" d="M1025.42,-321.027C1009.46,-349.822 976.311,-401.202 932,-425.369 911.62,-436.484 863.71,-443.424 816.258,-447.715"/>
<polygon fill="#9a32cd" stroke="#9a32cd" points="1028.51,-322.665 1030.16,-312.2 1022.35,-319.35 1028.51,-322.665"/>
<text text-anchor="middle" x="883" y="-449.169" font-family="Helvetica,sans-Serif" font-size="14.00"> n</text>
</g>
<!-- Node4 -->
<g id="node4" class="node"><title>Node4</title>
<g id="a_node4"><a xlink:href="classmfem_1_1SparseMatrix.html" target="_top" xlink:title="Data type sparse matrix. ">
<polygon fill="white" stroke="red" points="260,-198.869 260,-221.869 422,-221.869 422,-198.869 260,-198.869"/>
<text text-anchor="middle" x="341" y="-206.669" font-family="Helvetica,sans-Serif" font-size="14.00">mfem::SparseMatrix</text>
</a>
</g>
</g>
<!-- Node4&#45;&gt;Node3 -->
<g id="edge4" class="edge"><title>Node4&#45;&gt;Node3</title>
<path fill="none" stroke="#9a32cd" stroke-dasharray="5,2" d="M432.217,-198.516C528.388,-188.445 684.599,-179.473 816,-206.369 894.33,-222.402 979.255,-267.474 1016.57,-288.847"/>
<polygon fill="#9a32cd" stroke="#9a32cd" points="431.805,-195.04 422.236,-199.588 432.553,-202 431.805,-195.04"/>
<text text-anchor="middle" x="694" y="-240.169" font-family="Helvetica,sans-Serif" font-size="14.00"> cGrad</text>
<text text-anchor="middle" x="694" y="-225.169" font-family="Helvetica,sans-Serif" font-size="14.00">Grad</text>
<text text-anchor="middle" x="694" y="-210.169" font-family="Helvetica,sans-Serif" font-size="14.00">cP</text>
</g>
<!-- Node4&#45;&gt;Node4 -->
<g id="edge6" class="edge"><title>Node4&#45;&gt;Node4</title>
<path fill="none" stroke="#9a32cd" stroke-dasharray="5,2" d="M322.802,-232.208C324.579,-236.938 330.645,-240.369 341,-240.369 357.992,-240.369 363.435,-231.13 357.328,-222.071"/>
<polygon fill="#9a32cd" stroke="#9a32cd" points="326.3,-232.54 324.672,-222.071 319.416,-231.27 326.3,-232.54"/>
<text text-anchor="middle" x="341" y="-244.169" font-family="Helvetica,sans-Serif" font-size="14.00"> At</text>
</g>
<!-- Node8 -->
<g id="node8" class="node"><title>Node8</title>
<g id="a_node8"><a xlink:href="classmfem_1_1FiniteElementSpace.html" target="_top" xlink:title="Class FiniteElementSpace &#45; responsible for providing FEM view of the mesh, mainly managing the set of...">
<polygon fill="white" stroke="red" points="589.5,-260.869 589.5,-283.869 798.5,-283.869 798.5,-260.869 589.5,-260.869"/>
<text text-anchor="middle" x="694" y="-268.669" font-family="Helvetica,sans-Serif" font-size="14.00">mfem::FiniteElementSpace</text>
</a>
</g>
</g>
<!-- Node4&#45;&gt;Node8 -->
<g id="edge10" class="edge"><title>Node4&#45;&gt;Node8</title>
<path fill="none" stroke="#9a32cd" stroke-dasharray="5,2" d="M432.045,-220.724C469.847,-225.579 514.193,-231.94 554,-239.369 586.062,-245.354 621.862,-253.897 649.099,-260.792"/>
<polygon fill="#9a32cd" stroke="#9a32cd" points="432.437,-217.246 422.076,-219.459 431.556,-224.19 432.437,-217.246"/>
<text text-anchor="middle" x="497" y="-258.169" font-family="Helvetica,sans-Serif" font-size="14.00"> cR</text>
<text text-anchor="middle" x="497" y="-243.169" font-family="Helvetica,sans-Serif" font-size="14.00">cP</text>
</g>
<!-- Node5 -->
<g id="node5" class="node"><title>Node5</title>
<g id="a_node5"><a xlink:href="classmfem_1_1AbstractSparseMatrix.html" target="_top" xlink:title="Abstract data type for sparse matrices. ">
<polygon fill="white" stroke="red" points="0.5,-198.869 0.5,-221.869 221.5,-221.869 221.5,-198.869 0.5,-198.869"/>
<text text-anchor="middle" x="111" y="-206.669" font-family="Helvetica,sans-Serif" font-size="14.00">mfem::AbstractSparseMatrix</text>
</a>
</g>
</g>
<!-- Node5&#45;&gt;Node4 -->
<g id="edge5" class="edge"><title>Node5&#45;&gt;Node4</title>
<path fill="none" stroke="midnightblue" d="M231.935,-210.369C241.397,-210.369 250.804,-210.369 259.894,-210.369"/>
<polygon fill="midnightblue" stroke="midnightblue" points="231.659,-206.869 221.659,-210.369 231.659,-213.869 231.659,-206.869"/>
</g>
<!-- Node6 -->
<g id="node6" class="node"><title>Node6</title>
<g id="a_node6"><a xlink:href="classmfem_1_1Array.html" target="_top" xlink:title="mfem::Array\&lt; int \&gt;">
<polygon fill="white" stroke="red" points="262,-278.869 262,-301.869 420,-301.869 420,-278.869 262,-278.869"/>
<text text-anchor="middle" x="341" y="-286.669" font-family="Helvetica,sans-Serif" font-size="14.00">mfem::Array&lt; int &gt;</text>
</a>
</g>
</g>
<!-- Node6&#45;&gt;Node3 -->
<g id="edge7" class="edge"><title>Node6&#45;&gt;Node3</title>
<path fill="none" stroke="#9a32cd" stroke-dasharray="5,2" d="M404.96,-303.674C416.562,-305.629 428.608,-307.332 440,-308.369 486.443,-312.599 579.587,-317.46 932,-306.369 937.785,-306.187 943.748,-305.957 949.755,-305.693"/>
<polygon fill="#9a32cd" stroke="#9a32cd" points="405.363,-300.191 394.907,-301.902 404.147,-307.085 405.363,-300.191"/>
<text text-anchor="middle" x="694" y="-317.169" font-family="Helvetica,sans-Serif" font-size="14.00"> ess_tdof_list</text>
</g>
<!-- Node6&#45;&gt;Node8 -->
<g id="edge11" class="edge"><title>Node6&#45;&gt;Node8</title>
<path fill="none" stroke="#9a32cd" stroke-dasharray="5,2" d="M430.109,-279.167C433.446,-278.874 436.752,-278.606 440,-278.369 489.078,-274.791 543.639,-273.196 589.491,-272.533"/>
<polygon fill="#9a32cd" stroke="#9a32cd" points="429.659,-275.694 420.031,-280.114 430.314,-282.663 429.659,-275.694"/>
<text text-anchor="middle" x="497" y="-297.169" font-family="Helvetica,sans-Serif" font-size="14.00"> dof_ldof_array</text>
<text text-anchor="middle" x="497" y="-282.169" font-family="Helvetica,sans-Serif" font-size="14.00">dof_elem_array</text>
</g>
<!-- Node7 -->
<g id="node7" class="node"><title>Node7</title>
<g id="a_node7"><a xlink:href="classmfem_1_1Array.html" target="_top" xlink:title="mfem::Array\&lt; mfem::\lArray\&lt; int \&gt; * \&gt;">
<polygon fill="white" stroke="red" points="606,-118.369 606,-156.369 782,-156.369 782,-118.369 606,-118.369"/>
<text text-anchor="start" x="614" y="-141.169" font-family="Helvetica,sans-Serif" font-size="14.00">mfem::Array&lt; mfem::</text>
<text text-anchor="middle" x="694" y="-126.169" font-family="Helvetica,sans-Serif" font-size="14.00">Array&lt; int &gt; * &gt;</text>
</a>
</g>
</g>
<!-- Node7&#45;&gt;Node3 -->
<g id="edge8" class="edge"><title>Node7&#45;&gt;Node3</title>
<path fill="none" stroke="#9a32cd" stroke-dasharray="5,2" d="M792.104,-131.492C837.228,-132.856 890.05,-140.59 932,-164.369 984.233,-193.978 1018.79,-261.537 1031.04,-288.721"/>
<polygon fill="#9a32cd" stroke="#9a32cd" points="792.075,-127.991 782.006,-131.287 791.933,-134.989 792.075,-127.991"/>
<text text-anchor="middle" x="883" y="-168.169" font-family="Helvetica,sans-Serif" font-size="14.00"> bfnfi_marker</text>
</g>
<!-- Node8&#45;&gt;Node3 -->
<g id="edge9" class="edge"><title>Node8&#45;&gt;Node3</title>
<path fill="none" stroke="#9a32cd" stroke-dasharray="5,2" d="M808.889,-281.353C847.928,-284.471 891.879,-288.025 932,-291.369 937.779,-291.851 943.739,-292.353 949.743,-292.863"/>
<polygon fill="#9a32cd" stroke="#9a32cd" points="808.794,-277.834 798.547,-280.528 808.237,-284.812 808.794,-277.834"/>
<text text-anchor="middle" x="883" y="-295.169" font-family="Helvetica,sans-Serif" font-size="14.00"> fes</text>
</g>
<!-- Node9 -->
<g id="node9" class="node"><title>Node9</title>
<g id="a_node9"><a xlink:href="classmfem_1_1Array.html" target="_top" xlink:title="mfem::Array\&lt; mfem::\lNonlinearFormIntegrator * \&gt;">
<polygon fill="white" stroke="red" points="582.5,-61.3694 582.5,-99.3694 805.5,-99.3694 805.5,-61.3694 582.5,-61.3694"/>
<text text-anchor="start" x="590.5" y="-84.1694" font-family="Helvetica,sans-Serif" font-size="14.00">mfem::Array&lt; mfem::</text>
<text text-anchor="middle" x="694" y="-69.1694" font-family="Helvetica,sans-Serif" font-size="14.00">NonlinearFormIntegrator * &gt;</text>
</a>
</g>
</g>
<!-- Node9&#45;&gt;Node3 -->
<g id="edge13" class="edge"><title>Node9&#45;&gt;Node3</title>
<path fill="none" stroke="#9a32cd" stroke-dasharray="5,2" d="M801.282,-60.6423C844.902,-58.079 893.975,-62.8326 932,-87.3694 1005.82,-135.007 1028.85,-251.334 1034.46,-288.646"/>
<polygon fill="#9a32cd" stroke="#9a32cd" points="800.919,-57.1593 791.196,-61.3686 801.422,-64.1412 800.919,-57.1593"/>
<text text-anchor="middle" x="883" y="-121.169" font-family="Helvetica,sans-Serif" font-size="14.00"> bfnfi</text>
<text text-anchor="middle" x="883" y="-106.169" font-family="Helvetica,sans-Serif" font-size="14.00">fnfi</text>
<text text-anchor="middle" x="883" y="-91.1694" font-family="Helvetica,sans-Serif" font-size="14.00">dnfi</text>
</g>
<!-- Node10 -->
<g id="node10" class="node"><title>Node10</title>
<g id="a_node10"><a xlink:href="classmfem_1_1Vector.html" target="_top" xlink:title="Vector data type. ">
<polygon fill="white" stroke="red" points="637,-15.8694 637,-38.8694 751,-38.8694 751,-15.8694 637,-15.8694"/>
<text text-anchor="middle" x="694" y="-23.6694" font-family="Helvetica,sans-Serif" font-size="14.00">mfem::Vector</text>
</a>
</g>
</g>
<!-- Node10&#45;&gt;Node3 -->
<g id="edge15" class="edge"><title>Node10&#45;&gt;Node3</title>
<path fill="none" stroke="#9a32cd" stroke-dasharray="5,2" d="M739.764,-13.134C791.006,0.219548 875.169,12.8469 932,-26.3694 1023.71,-89.6557 1034.62,-245.184 1035.86,-288.819"/>
<polygon fill="#9a32cd" stroke="#9a32cd" points="738.702,-9.79556 729.973,-15.7992 740.541,-16.5498 738.702,-9.79556"/>
<text text-anchor="middle" x="883" y="-45.1694" font-family="Helvetica,sans-Serif" font-size="14.00"> aux1</text>
<text text-anchor="middle" x="883" y="-30.1694" font-family="Helvetica,sans-Serif" font-size="14.00">aux2</text>
</g>
</g>
</svg>
