<?xml version="1.0" encoding="UTF-8" standalone="no"?>
<!DOCTYPE svg PUBLIC "-//W3C//DTD SVG 1.1//EN"
 "http://www.w3.org/Graphics/SVG/1.1/DTD/svg11.dtd">
<!-- Generated by graphviz version 2.30.1 (20200304.1809)
 -->
<!-- Title: mfem::Mesh Pages: 1 -->
<svg width="1302pt" height="718pt"
 viewBox="0.00 0.00 1302.00 718.11" xmlns="http://www.w3.org/2000/svg" xmlns:xlink="http://www.w3.org/1999/xlink">
<g id="graph0" class="graph" transform="scale(1 1) rotate(0) translate(4 714.106)">
<title>mfem::Mesh</title>
<polygon fill="white" stroke="white" points="-4,5 -4,-714.106 1299,-714.106 1299,5 -4,5"/>
<!-- Node1 -->
<g id="node1" class="node"><title>Node1</title>
<polygon fill="#bfbfbf" stroke="black" points="884,-222.606 884,-245.606 990,-245.606 990,-222.606 884,-222.606"/>
<text text-anchor="middle" x="937" y="-230.406" font-family="Helvetica,sans-Serif" font-size="14.00">mfem::Mesh</text>
</g>
<!-- Node7 -->
<g id="node7" class="node"><title>Node7</title>
<g id="a_node7"><a xlink:href="classmfem_1_1NURBSExtension.html" target="_top" xlink:title="mfem::NURBSExtension">
<polygon fill="white" stroke="red" points="1106,-260.606 1106,-283.606 1294,-283.606 1294,-260.606 1106,-260.606"/>
<text text-anchor="middle" x="1200" y="-268.406" font-family="Helvetica,sans-Serif" font-size="14.00">mfem::NURBSExtension</text>
</a>
</g>
</g>
<!-- Node1&#45;&gt;Node7 -->
<g id="edge9" class="edge"><title>Node1&#45;&gt;Node7</title>
<path fill="none" stroke="#9a32cd" stroke-dasharray="5,2" d="M1000.37,-231.297C1002.95,-231.224 1005.5,-231.16 1008,-231.106 1043.55,-230.345 1053,-224.849 1088,-231.106 1119.14,-236.674 1152.99,-250.38 1175.01,-260.418"/>
<polygon fill="#9a32cd" stroke="#9a32cd" points="1000.24,-227.8 990.359,-231.617 1000.47,-234.796 1000.24,-227.8"/>
<text text-anchor="middle" x="1048" y="-234.906" font-family="Helvetica,sans-Serif" font-size="14.00"> patchTopo</text>
</g>
<!-- Node2 -->
<g id="node2" class="node"><title>Node2</title>
<g id="a_node2"><a xlink:href="classmfem_1_1IsoparametricTransformation.html" target="_top" xlink:title="mfem::IsoparametricTransformation">
<polygon fill="white" stroke="red" points="424.5,-222.606 424.5,-245.606 701.5,-245.606 701.5,-222.606 424.5,-222.606"/>
<text text-anchor="middle" x="563" y="-230.406" font-family="Helvetica,sans-Serif" font-size="14.00">mfem::IsoparametricTransformation</text>
</a>
</g>
</g>
<!-- Node2&#45;&gt;Node1 -->
<g id="edge1" class="edge"><title>Node2&#45;&gt;Node1</title>
<path fill="none" stroke="#9a32cd" stroke-dasharray="5,2" d="M711.836,-234.106C772.717,-234.106 839.298,-234.106 883.948,-234.106"/>
<polygon fill="#9a32cd" stroke="#9a32cd" points="711.726,-230.607 701.726,-234.106 711.726,-237.607 711.726,-230.607"/>
<text text-anchor="middle" x="793" y="-297.906" font-family="Helvetica,sans-Serif" font-size="14.00"> BdrTransformation</text>
<text text-anchor="middle" x="793" y="-282.906" font-family="Helvetica,sans-Serif" font-size="14.00">FaceTransformation</text>
<text text-anchor="middle" x="793" y="-267.906" font-family="Helvetica,sans-Serif" font-size="14.00">Transformation2</text>
<text text-anchor="middle" x="793" y="-252.906" font-family="Helvetica,sans-Serif" font-size="14.00">Transformation</text>
<text text-anchor="middle" x="793" y="-237.906" font-family="Helvetica,sans-Serif" font-size="14.00">EdgeTransformation</text>
</g>
<!-- Node3 -->
<g id="node3" class="node"><title>Node3</title>
<g id="a_node3"><a xlink:href="classmfem_1_1Array.html" target="_top" xlink:title="mfem::Array\&lt; int \&gt;">
<polygon fill="white" stroke="red" points="53,-488.606 53,-511.606 211,-511.606 211,-488.606 53,-488.606"/>
<text text-anchor="middle" x="132" y="-496.406" font-family="Helvetica,sans-Serif" font-size="14.00">mfem::Array&lt; int &gt;</text>
</a>
</g>
</g>
<!-- Node3&#45;&gt;Node1 -->
<g id="edge2" class="edge"><title>Node3&#45;&gt;Node1</title>
<path fill="none" stroke="#9a32cd" stroke-dasharray="5,2" d="M221.1,-498.745C393.768,-494.349 768.371,-475.755 866,-397.106 915.406,-357.305 930.626,-276.013 934.686,-245.777"/>
<polygon fill="#9a32cd" stroke="#9a32cd" points="220.937,-495.248 211.026,-498.992 221.108,-502.246 220.937,-495.248"/>
<text text-anchor="middle" x="563" y="-536.906" font-family="Helvetica,sans-Serif" font-size="14.00"> attributes</text>
<text text-anchor="middle" x="563" y="-521.906" font-family="Helvetica,sans-Serif" font-size="14.00">be_to_edge</text>
<text text-anchor="middle" x="563" y="-506.906" font-family="Helvetica,sans-Serif" font-size="14.00">be_to_face</text>
<text text-anchor="middle" x="563" y="-491.906" font-family="Helvetica,sans-Serif" font-size="14.00">bdr_attributes</text>
</g>
<!-- Node4 -->
<g id="node4" class="node"><title>Node4</title>
<g id="a_node4"><a xlink:href="classmfem_1_1NCMesh.html" target="_top" xlink:title="A class for non&#45;conforming AMR on higher&#45;order hexahedral, prismatic, quadrilateral or triangular mes...">
<polygon fill="white" stroke="red" points="500,-357.606 500,-380.606 626,-380.606 626,-357.606 500,-357.606"/>
<text text-anchor="middle" x="563" y="-365.406" font-family="Helvetica,sans-Serif" font-size="14.00">mfem::NCMesh</text>
</a>
</g>
</g>
<!-- Node3&#45;&gt;Node4 -->
<g id="edge4" class="edge"><title>Node3&#45;&gt;Node4</title>
<path fill="none" stroke="#9a32cd" stroke-dasharray="5,2" d="M152.379,-481.527C179.119,-457.162 229.953,-415.268 282,-396.106 320.611,-381.892 429.699,-374.692 499.76,-371.431"/>
<polygon fill="#9a32cd" stroke="#9a32cd" points="149.832,-479.115 144.88,-488.481 154.592,-484.248 149.832,-479.115"/>
<text text-anchor="middle" x="344" y="-474.906" font-family="Helvetica,sans-Serif" font-size="14.00"> vertex_nodeId</text>
<text text-anchor="middle" x="344" y="-459.906" font-family="Helvetica,sans-Serif" font-size="14.00">coarse_elements</text>
<text text-anchor="middle" x="344" y="-444.906" font-family="Helvetica,sans-Serif" font-size="14.00">root_state</text>
<text text-anchor="middle" x="344" y="-429.906" font-family="Helvetica,sans-Serif" font-size="14.00">leaf_elements</text>
<text text-anchor="middle" x="344" y="-414.906" font-family="Helvetica,sans-Serif" font-size="14.00">boundary_faces</text>
<text text-anchor="middle" x="344" y="-399.906" font-family="Helvetica,sans-Serif" font-size="14.00">free_element_ids</text>
</g>
<!-- Node3&#45;&gt;Node7 -->
<g id="edge10" class="edge"><title>Node3&#45;&gt;Node7</title>
<path fill="none" stroke="#9a32cd" stroke-dasharray="5,2" d="M178.141,-514.582C275.552,-543.585 512.025,-601.938 702,-552.106 912.749,-496.825 1128.32,-329.771 1184.78,-283.881"/>
<polygon fill="#9a32cd" stroke="#9a32cd" points="178.915,-511.159 168.33,-511.619 176.891,-517.86 178.915,-511.159"/>
<text text-anchor="middle" x="793" y="-698.906" font-family="Helvetica,sans-Serif" font-size="14.00"> slave</text>
<text text-anchor="middle" x="793" y="-683.906" font-family="Helvetica,sans-Serif" font-size="14.00">master</text>
<text text-anchor="middle" x="793" y="-668.906" font-family="Helvetica,sans-Serif" font-size="14.00">v_spaceOffsets</text>
<text text-anchor="middle" x="793" y="-653.906" font-family="Helvetica,sans-Serif" font-size="14.00">p_meshOffsets</text>
<text text-anchor="middle" x="793" y="-638.906" font-family="Helvetica,sans-Serif" font-size="14.00">edge_to_knot</text>
<text text-anchor="middle" x="793" y="-623.906" font-family="Helvetica,sans-Serif" font-size="14.00">f_spaceOffsets</text>
<text text-anchor="middle" x="793" y="-608.906" font-family="Helvetica,sans-Serif" font-size="14.00">e_meshOffsets</text>
<text text-anchor="middle" x="793" y="-593.906" font-family="Helvetica,sans-Serif" font-size="14.00">el_to_patch</text>
<text text-anchor="middle" x="793" y="-578.906" font-family="Helvetica,sans-Serif" font-size="14.00">p_spaceOffsets</text>
<text text-anchor="middle" x="793" y="-563.906" font-family="Helvetica,sans-Serif" font-size="14.00">bel_to_patch</text>
<text text-anchor="middle" x="793" y="-548.906" font-family="Helvetica,sans-Serif" font-size="14.00">...</text>
</g>
<!-- Node4&#45;&gt;Node1 -->
<g id="edge3" class="edge"><title>Node4&#45;&gt;Node1</title>
<path fill="none" stroke="#9a32cd" stroke-dasharray="5,2" d="M636.163,-378.128C700.941,-382.606 796.284,-379.928 866,-338.106 902.208,-316.386 923.738,-267.861 932.043,-245.63"/>
<polygon fill="#9a32cd" stroke="#9a32cd" points="636.275,-374.627 626.037,-377.353 635.741,-381.606 636.275,-374.627"/>
<text text-anchor="middle" x="793" y="-381.906" font-family="Helvetica,sans-Serif" font-size="14.00"> ncmesh</text>
</g>
<!-- Node5 -->
<g id="node5" class="node"><title>Node5</title>
<g id="a_node5"><a xlink:href="structmfem_1_1CoarseFineTransformations.html" target="_top" xlink:title="Defines the coarse&#45;fine transformations of all fine elements. ">
<polygon fill="white" stroke="red" points="0,-329.606 0,-352.606 264,-352.606 264,-329.606 0,-329.606"/>
<text text-anchor="middle" x="132" y="-337.406" font-family="Helvetica,sans-Serif" font-size="14.00">mfem::CoarseFineTransformations</text>
</a>
</g>
</g>
<!-- Node5&#45;&gt;Node4 -->
<g id="edge5" class="edge"><title>Node5&#45;&gt;Node4</title>
<path fill="none" stroke="#9a32cd" stroke-dasharray="5,2" d="M274.335,-349.686C316.681,-352.316 363.23,-355.267 406,-358.106 436.884,-360.157 471.197,-362.562 499.761,-364.6"/>
<polygon fill="#9a32cd" stroke="#9a32cd" points="274.433,-346.185 264.236,-349.06 274,-353.172 274.433,-346.185"/>
<text text-anchor="middle" x="344" y="-361.906" font-family="Helvetica,sans-Serif" font-size="14.00"> transforms</text>
</g>
<!-- Node5&#45;&gt;Node1 -->
<g id="edge6" class="edge"><title>Node5&#45;&gt;Node1</title>
<path fill="none" stroke="#9a32cd" stroke-dasharray="5,2" d="M274.162,-336.492C483.391,-329.462 852.776,-316.241 866,-310.106 895.779,-296.292 918.753,-263.392 929.435,-245.752"/>
<polygon fill="#9a32cd" stroke="#9a32cd" points="273.89,-332.999 264.013,-336.832 274.125,-339.995 273.89,-332.999"/>
<text text-anchor="middle" x="563" y="-334.906" font-family="Helvetica,sans-Serif" font-size="14.00"> CoarseFineTr</text>
</g>
<!-- Node6 -->
<g id="node6" class="node"><title>Node6</title>
<g id="a_node6"><a xlink:href="classmfem_1_1Array.html" target="_top" xlink:title="mfem::Array\&lt; mfem::\lElement * \&gt;">
<polygon fill="white" stroke="red" points="475,-165.106 475,-203.106 651,-203.106 651,-165.106 475,-165.106"/>
<text text-anchor="start" x="483" y="-187.906" font-family="Helvetica,sans-Serif" font-size="14.00">mfem::Array&lt; mfem::</text>
<text text-anchor="middle" x="563" y="-172.906" font-family="Helvetica,sans-Serif" font-size="14.00">Element * &gt;</text>
</a>
</g>
</g>
<!-- Node6&#45;&gt;Node1 -->
<g id="edge7" class="edge"><title>Node6&#45;&gt;Node1</title>
<path fill="none" stroke="#9a32cd" stroke-dasharray="5,2" d="M661.342,-169.874C721.669,-164.579 799.974,-164.173 866,-185.106 889.191,-192.459 911.396,-210.501 924.362,-222.519"/>
<polygon fill="#9a32cd" stroke="#9a32cd" points="660.687,-166.42 651.058,-170.839 661.341,-173.389 660.687,-166.42"/>
<text text-anchor="middle" x="793" y="-218.906" font-family="Helvetica,sans-Serif" font-size="14.00"> boundary</text>
<text text-anchor="middle" x="793" y="-203.906" font-family="Helvetica,sans-Serif" font-size="14.00">elements</text>
<text text-anchor="middle" x="793" y="-188.906" font-family="Helvetica,sans-Serif" font-size="14.00">faces</text>
</g>
<!-- Node7&#45;&gt;Node1 -->
<g id="edge8" class="edge"><title>Node7&#45;&gt;Node1</title>
<path fill="none" stroke="#9a32cd" stroke-dasharray="5,2" d="M1095.93,-262.337C1067.36,-259.058 1036.4,-254.972 1008,-250.106 1000.63,-248.843 992.866,-247.293 985.302,-245.66"/>
<polygon fill="#9a32cd" stroke="#9a32cd" points="1095.6,-265.822 1105.93,-263.463 1096.39,-258.866 1095.6,-265.822"/>
<text text-anchor="middle" x="1048" y="-265.906" font-family="Helvetica,sans-Serif" font-size="14.00"> NURBSext</text>
</g>
<!-- Node8 -->
<g id="node8" class="node"><title>Node8</title>
<g id="a_node8"><a xlink:href="classmfem_1_1Array.html" target="_top" xlink:title="mfem::Array\&lt; mfem::\lGeometricFactors * \&gt;">
<polygon fill="white" stroke="red" points="475,-108.106 475,-146.106 651,-146.106 651,-108.106 475,-108.106"/>
<text text-anchor="start" x="483" y="-130.906" font-family="Helvetica,sans-Serif" font-size="14.00">mfem::Array&lt; mfem::</text>
<text text-anchor="middle" x="563" y="-115.906" font-family="Helvetica,sans-Serif" font-size="14.00">GeometricFactors * &gt;</text>
</a>
</g>
</g>
<!-- Node8&#45;&gt;Node1 -->
<g id="edge11" class="edge"><title>Node8&#45;&gt;Node1</title>
<path fill="none" stroke="#9a32cd" stroke-dasharray="5,2" d="M661.415,-114.794C723.343,-111.427 803.355,-115.611 866,-148.106 897.956,-164.683 920.577,-202.931 930.45,-222.344"/>
<polygon fill="#9a32cd" stroke="#9a32cd" points="661.012,-111.313 651.247,-115.424 661.444,-118.299 661.012,-111.313"/>
<text text-anchor="middle" x="793" y="-151.906" font-family="Helvetica,sans-Serif" font-size="14.00"> geom_factors</text>
</g>
<!-- Node9 -->
<g id="node9" class="node"><title>Node9</title>
<g id="a_node9"><a xlink:href="classmfem_1_1FaceElementTransformations.html" target="_top" xlink:title="mfem::FaceElementTransformations">
<polygon fill="white" stroke="red" points="425,-65.6064 425,-88.6064 701,-88.6064 701,-65.6064 425,-65.6064"/>
<text text-anchor="middle" x="563" y="-73.4064" font-family="Helvetica,sans-Serif" font-size="14.00">mfem::FaceElementTransformations</text>
</a>
</g>
</g>
<!-- Node9&#45;&gt;Node1 -->
<g id="edge12" class="edge"><title>Node9&#45;&gt;Node1</title>
<path fill="none" stroke="#9a32cd" stroke-dasharray="5,2" d="M627.688,-63.9562C693.057,-54.1277 794.98,-49.3629 866,-96.1064 911.329,-125.941 928.706,-194.614 934.021,-222.258"/>
<polygon fill="#9a32cd" stroke="#9a32cd" points="626.849,-60.5455 617.521,-65.57 627.946,-67.459 626.849,-60.5455"/>
<text text-anchor="middle" x="793" y="-99.9064" font-family="Helvetica,sans-Serif" font-size="14.00"> FaceElemTr</text>
</g>
<!-- Node10 -->
<g id="node10" class="node"><title>Node10</title>
<g id="a_node10"><a xlink:href="classmfem_1_1Array.html" target="_top" xlink:title="mfem::Array\&lt; mfem::\lFaceGeometricFactors * \&gt;">
<polygon fill="white" stroke="red" points="461.5,-8.10644 461.5,-46.1064 664.5,-46.1064 664.5,-8.10644 461.5,-8.10644"/>
<text text-anchor="start" x="469.5" y="-30.9064" font-family="Helvetica,sans-Serif" font-size="14.00">mfem::Array&lt; mfem::</text>
<text text-anchor="middle" x="563" y="-15.9064" font-family="Helvetica,sans-Serif" font-size="14.00">FaceGeometricFactors * &gt;</text>
</a>
</g>
</g>
<!-- Node10&#45;&gt;Node1 -->
<g id="edge13" class="edge"><title>Node10&#45;&gt;Node1</title>
<path fill="none" stroke="#9a32cd" stroke-dasharray="5,2" d="M651.066,-6.44528C716.431,3.78285 804.832,5.76732 866,-39.1064 927.339,-84.1058 935.104,-187.85 935.95,-222.558"/>
<polygon fill="#9a32cd" stroke="#9a32cd" points="650.483,-2.99413 641.189,-8.0804 651.626,-9.90015 650.483,-2.99413"/>
<text text-anchor="middle" x="793" y="-42.9064" font-family="Helvetica,sans-Serif" font-size="14.00"> face_geom_factors</text>
</g>
</g>
</svg>
