<?xml version="1.0" encoding="UTF-8" standalone="no"?>
<!DOCTYPE svg PUBLIC "-//W3C//DTD SVG 1.1//EN"
 "http://www.w3.org/Graphics/SVG/1.1/DTD/svg11.dtd">
<!-- Generated by graphviz version 2.30.1 (20170916.1124)
 -->
<!-- Title: mfem::DSmoother Pages: 1 -->
<svg width="196pt" height="272pt"
 viewBox="0.00 0.00 196.00 272.00" xmlns="http://www.w3.org/2000/svg" xmlns:xlink="http://www.w3.org/1999/xlink">
<g id="graph0" class="graph" transform="scale(1 1) rotate(0) translate(4 268)">
<title>mfem::DSmoother</title>
<polygon fill="white" stroke="white" points="-4,5 -4,-268 193,-268 193,5 -4,5"/>
<!-- Node1 -->
<g id="node1" class="node"><title>Node1</title>
<polygon fill="#bfbfbf" stroke="black" points="19,-0.5 19,-23.5 169,-23.5 169,-0.5 19,-0.5"/>
<text text-anchor="middle" x="94" y="-8.3" font-family="Helvetica,sans-Serif" font-size="14.00">mfem::DSmoother</text>
</g>
<!-- Node2 -->
<g id="node2" class="node"><title>Node2</title>
<g id="a_node2"><a xlink:href="classmfem_1_1SparseSmoother.html" target="_top" xlink:title="mfem::SparseSmoother">
<polygon fill="white" stroke="black" points="0,-60.5 0,-83.5 188,-83.5 188,-60.5 0,-60.5"/>
<text text-anchor="middle" x="94" y="-68.3" font-family="Helvetica,sans-Serif" font-size="14.00">mfem::SparseSmoother</text>
</a>
</g>
</g>
<!-- Node2&#45;&gt;Node1 -->
<g id="edge1" class="edge"><title>Node2&#45;&gt;Node1</title>
<path fill="none" stroke="midnightblue" d="M94,-50.1906C94,-41.1684 94,-30.9941 94,-23.5707"/>
<polygon fill="midnightblue" stroke="midnightblue" points="90.5001,-50.3619 94,-60.3619 97.5001,-50.3619 90.5001,-50.3619"/>
</g>
<!-- Node3 -->
<g id="node3" class="node"><title>Node3</title>
<g id="a_node3"><a xlink:href="classmfem_1_1MatrixInverse.html" target="_top" xlink:title="Abstract data type for matrix inverse. ">
<polygon fill="white" stroke="black" points="11,-120.5 11,-143.5 177,-143.5 177,-120.5 11,-120.5"/>
<text text-anchor="middle" x="94" y="-128.3" font-family="Helvetica,sans-Serif" font-size="14.00">mfem::MatrixInverse</text>
</a>
</g>
</g>
<!-- Node3&#45;&gt;Node2 -->
<g id="edge2" class="edge"><title>Node3&#45;&gt;Node2</title>
<path fill="none" stroke="midnightblue" d="M94,-110.191C94,-101.168 94,-90.9941 94,-83.5707"/>
<polygon fill="midnightblue" stroke="midnightblue" points="90.5001,-110.362 94,-120.362 97.5001,-110.362 90.5001,-110.362"/>
</g>
<!-- Node4 -->
<g id="node4" class="node"><title>Node4</title>
<g id="a_node4"><a xlink:href="classmfem_1_1Solver.html" target="_top" xlink:title="Base class for solvers. ">
<polygon fill="white" stroke="black" points="37.5,-180.5 37.5,-203.5 150.5,-203.5 150.5,-180.5 37.5,-180.5"/>
<text text-anchor="middle" x="94" y="-188.3" font-family="Helvetica,sans-Serif" font-size="14.00">mfem::Solver</text>
</a>
</g>
</g>
<!-- Node4&#45;&gt;Node3 -->
<g id="edge3" class="edge"><title>Node4&#45;&gt;Node3</title>
<path fill="none" stroke="midnightblue" d="M94,-170.191C94,-161.168 94,-150.994 94,-143.571"/>
<polygon fill="midnightblue" stroke="midnightblue" points="90.5001,-170.362 94,-180.362 97.5001,-170.362 90.5001,-170.362"/>
</g>
<!-- Node5 -->
<g id="node5" class="node"><title>Node5</title>
<g id="a_node5"><a xlink:href="classmfem_1_1Operator.html" target="_top" xlink:title="Abstract operator. ">
<polygon fill="white" stroke="black" points="27.5,-240.5 27.5,-263.5 160.5,-263.5 160.5,-240.5 27.5,-240.5"/>
<text text-anchor="middle" x="94" y="-248.3" font-family="Helvetica,sans-Serif" font-size="14.00">mfem::Operator</text>
</a>
</g>
</g>
<!-- Node5&#45;&gt;Node4 -->
<g id="edge4" class="edge"><title>Node5&#45;&gt;Node4</title>
<path fill="none" stroke="midnightblue" d="M94,-230.191C94,-221.168 94,-210.994 94,-203.571"/>
<polygon fill="midnightblue" stroke="midnightblue" points="90.5001,-230.362 94,-240.362 97.5001,-230.362 90.5001,-230.362"/>
</g>
</g>
</svg>
