<?xml version="1.0" encoding="UTF-8" standalone="no"?>
<!DOCTYPE svg PUBLIC "-//W3C//DTD SVG 1.1//EN"
 "http://www.w3.org/Graphics/SVG/1.1/DTD/svg11.dtd">
<!-- Generated by graphviz version 2.30.1 (20170916.1124)
 -->
<!-- Title: mfem::H1Ser_QuadrilateralElement Pages: 1 -->
<svg width="220pt" height="168pt"
 viewBox="0.00 0.00 220.00 168.00" xmlns="http://www.w3.org/2000/svg" xmlns:xlink="http://www.w3.org/1999/xlink">
<g id="graph0" class="graph" transform="scale(1 1) rotate(0) translate(4 164)">
<title>mfem::H1Ser_QuadrilateralElement</title>
<polygon fill="white" stroke="white" points="-4,5 -4,-164 217,-164 217,5 -4,5"/>
<!-- Node1 -->
<g id="node1" class="node"><title>Node1</title>
<polygon fill="#bfbfbf" stroke="black" points="-0.5,-1 -0.5,-39 212.5,-39 212.5,-1 -0.5,-1"/>
<text text-anchor="start" x="7.5" y="-23.8" font-family="Helvetica,sans-Serif" font-size="14.00">mfem::H1Ser_Quadrilateral</text>
<text text-anchor="middle" x="106" y="-8.8" font-family="Helvetica,sans-Serif" font-size="14.00">Element</text>
</g>
<!-- Node2 -->
<g id="node2" class="node"><title>Node2</title>
<g id="a_node2"><a xlink:href="classmfem_1_1ScalarFiniteElement.html" target="_top" xlink:title="mfem::ScalarFiniteElement">
<polygon fill="white" stroke="black" points="1,-76.5 1,-99.5 211,-99.5 211,-76.5 1,-76.5"/>
<text text-anchor="middle" x="106" y="-84.3" font-family="Helvetica,sans-Serif" font-size="14.00">mfem::ScalarFiniteElement</text>
</a>
</g>
</g>
<!-- Node2&#45;&gt;Node1 -->
<g id="edge1" class="edge"><title>Node2&#45;&gt;Node1</title>
<path fill="none" stroke="midnightblue" d="M106,-66.2742C106,-57.5413 106,-47.471 106,-39.0484"/>
<polygon fill="midnightblue" stroke="midnightblue" points="102.5,-66.3959 106,-76.396 109.5,-66.396 102.5,-66.3959"/>
</g>
<!-- Node3 -->
<g id="node3" class="node"><title>Node3</title>
<g id="a_node3"><a xlink:href="classmfem_1_1FiniteElement.html" target="_top" xlink:title="Abstract class for Finite Elements. ">
<polygon fill="white" stroke="black" points="23,-136.5 23,-159.5 189,-159.5 189,-136.5 23,-136.5"/>
<text text-anchor="middle" x="106" y="-144.3" font-family="Helvetica,sans-Serif" font-size="14.00">mfem::FiniteElement</text>
</a>
</g>
</g>
<!-- Node3&#45;&gt;Node2 -->
<g id="edge2" class="edge"><title>Node3&#45;&gt;Node2</title>
<path fill="none" stroke="midnightblue" d="M106,-126.191C106,-117.168 106,-106.994 106,-99.5707"/>
<polygon fill="midnightblue" stroke="midnightblue" points="102.5,-126.362 106,-136.362 109.5,-126.362 102.5,-126.362"/>
</g>
</g>
</svg>
