<?xml version="1.0" encoding="UTF-8" standalone="no"?>
<!DOCTYPE svg PUBLIC "-//W3C//DTD SVG 1.1//EN"
 "http://www.w3.org/Graphics/SVG/1.1/DTD/svg11.dtd">
<!-- Generated by graphviz version 2.30.1 (20200304.1809)
 -->
<!-- Title: mfem::GridFunction Pages: 1 -->
<!--zoomable 548 -->
<svg id="main" version="1.1" xmlns="http://www.w3.org/2000/svg" xmlns:xlink="http://www.w3.org/1999/xlink" xml:space="preserve" onload="init(evt)">
<style type="text/css"><![CDATA[
.edge:hover path { stroke: red; }
.edge:hover polygon { stroke: red; fill: red; }
]]></style>
<script type="text/javascript"><![CDATA[
var edges = document.getElementsByTagName('g');
if (edges && edges.length) {
  for (var i=0;i<edges.length;i++) {
    if (edges[i].id.substr(0,4)=='edge') {
      edges[i].setAttribute('class','edge');
    }
  }
}
]]></script>
        <defs>
                <circle id="rim" cx="0" cy="0" r="7"/>
                <circle id="rim2" cx="0" cy="0" r="3.5"/>
                <g id="zoomPlus">
                        <use xlink:href="#rim" fill="#404040">
                                <set attributeName="fill" to="#808080" begin="zoomplus.mouseover" end="zoomplus.mouseout"/>
                        </use>
                        <path d="M-4,0h8M0,-4v8" fill="none" stroke="white" stroke-width="1.5" pointer-events="none"/>
                </g>
                <g id="zoomMin">
                        <use xlink:href="#rim" fill="#404040">
                                <set attributeName="fill" to="#808080" begin="zoomminus.mouseover" end="zoomminus.mouseout"/>
                        </use>
                        <path d="M-4,0h8" fill="none" stroke="white" stroke-width="1.5" pointer-events="none"/>
                </g>
                <g id="dirArrow">
                        <path fill="none" stroke="white" stroke-width="1.5" d="M0,-3.0v7 M-2.5,-0.5L0,-3.0L2.5,-0.5"/>
                </g>
               <g id="resetDef">
                       <use xlink:href="#rim2" fill="#404040">
                               <set attributeName="fill" to="#808080" begin="reset.mouseover" end="reset.mouseout"/>
                       </use>
               </g>
        </defs>

<script type="text/javascript">
var viewWidth = 1820;
var viewHeight = 548;
var sectionId = 'dynsection-1';
</script>
<script xlink:href="svgpan.js"/>
<svg id="graph" class="graph">
<g id="viewport">
<title>mfem::GridFunction</title>
<polygon fill="white" stroke="white" points="-4,5 -4,-544 1817,-544 1817,5 -4,5"/>
<!-- Node1 -->
<g id="node1" class="node"><title>Node1</title>
<polygon fill="#bfbfbf" stroke="black" points="718,-253.5 718,-276.5 876,-276.5 876,-253.5 718,-253.5"/>
<text text-anchor="middle" x="797" y="-261.3" font-family="Helvetica,sans-Serif" font-size="14.00">mfem::GridFunction</text>
</g>
<!-- Node6 -->
<g id="node6" class="node"><title>Node6</title>
<g id="a_node6"><a xlink:href="classmfem_1_1Mesh.html" target="_top" xlink:title="mfem::Mesh">
<polygon fill="white" stroke="red" points="1016,-172.5 1016,-195.5 1122,-195.5 1122,-172.5 1016,-172.5"/>
<text text-anchor="middle" x="1069" y="-180.3" font-family="Helvetica,sans-Serif" font-size="14.00">mfem::Mesh</text>
</a>
</g>
</g>
<!-- Node1&#45;&gt;Node6 -->
<g id="edge11" class="edge"><title>Node1&#45;&gt;Node6</title>
<path fill="none" stroke="#9a32cd" stroke-dasharray="5,2" d="M886.431,-253.09C921.456,-246.516 961.512,-236.619 996,-222 1004.85,-218.248 1005.65,-214.764 1014,-210 1022.95,-204.896 1033.05,-199.852 1042.08,-195.584"/>
<polygon fill="#9a32cd" stroke="#9a32cd" points="885.432,-249.714 876.216,-254.941 886.68,-256.602 885.432,-249.714"/>
<text text-anchor="middle" x="945" y="-255.8" font-family="Helvetica,sans-Serif" font-size="14.00"> Nodes</text>
</g>
<!-- Node2 -->
<g id="node2" class="node"><title>Node2</title>
<g id="a_node2"><a xlink:href="classmfem_1_1Vector.html" target="_top" xlink:title="Vector data type. ">
<polygon fill="white" stroke="black" points="345,-252.5 345,-275.5 459,-275.5 459,-252.5 345,-252.5"/>
<text text-anchor="middle" x="402" y="-260.3" font-family="Helvetica,sans-Serif" font-size="14.00">mfem::Vector</text>
</a>
</g>
</g>
<!-- Node2&#45;&gt;Node1 -->
<g id="edge1" class="edge"><title>Node2&#45;&gt;Node1</title>
<path fill="none" stroke="midnightblue" d="M469.239,-262.707C529.43,-261.733 620.679,-260.761 700,-262 705.835,-262.091 711.87,-262.213 717.939,-262.357"/>
<polygon fill="midnightblue" stroke="midnightblue" points="469.053,-259.209 459.112,-262.875 469.169,-266.208 469.053,-259.209"/>
</g>
<!-- Node8 -->
<g id="node8" class="node"><title>Node8</title>
<g id="a_node8"><a xlink:href="classmfem_1_1NURBSExtension.html" target="_top" xlink:title="mfem::NURBSExtension">
<polygon fill="white" stroke="red" points="1286,-205.5 1286,-228.5 1474,-228.5 1474,-205.5 1286,-205.5"/>
<text text-anchor="middle" x="1380" y="-213.3" font-family="Helvetica,sans-Serif" font-size="14.00">mfem::NURBSExtension</text>
</a>
</g>
</g>
<!-- Node2&#45;&gt;Node8 -->
<g id="edge10" class="edge"><title>Node2&#45;&gt;Node8</title>
<path fill="none" stroke="#9a32cd" stroke-dasharray="5,2" d="M426.584,-281.497C536.652,-360.93 1005.04,-673.987 1256,-444 1289.88,-412.953 1243.35,-272.234 1274,-238 1277.47,-234.122 1281.44,-230.841 1285.76,-228.073"/>
<polygon fill="#9a32cd" stroke="#9a32cd" points="428.587,-278.626 418.441,-275.573 424.469,-284.286 428.587,-278.626"/>
<text text-anchor="middle" x="945" y="-528.8" font-family="Helvetica,sans-Serif" font-size="14.00"> weights</text>
</g>
<!-- Node2&#45;&gt;Node1 -->
<g id="edge19" class="edge"><title>Node2&#45;&gt;Node1</title>
<path fill="none" stroke="#9a32cd" stroke-dasharray="5,2" d="M469.563,-264.169C538.189,-264.344 645.136,-264.616 717.763,-264.801"/>
<polygon fill="#9a32cd" stroke="#9a32cd" points="469.316,-260.669 459.307,-264.143 469.298,-267.669 469.316,-260.669"/>
<text text-anchor="middle" x="619" y="-268.8" font-family="Helvetica,sans-Serif" font-size="14.00"> t_vec</text>
</g>
<!-- Node3 -->
<g id="node3" class="node"><title>Node3</title>
<g id="a_node3"><a xlink:href="classmfem_1_1Memory.html" target="_top" xlink:title="mfem::Memory\&lt; double \&gt;">
<polygon fill="white" stroke="black" points="0.5,-111.5 0.5,-134.5 209.5,-134.5 209.5,-111.5 0.5,-111.5"/>
<text text-anchor="middle" x="105" y="-119.3" font-family="Helvetica,sans-Serif" font-size="14.00">mfem::Memory&lt; double &gt;</text>
</a>
</g>
</g>
<!-- Node3&#45;&gt;Node2 -->
<g id="edge2" class="edge"><title>Node3&#45;&gt;Node2</title>
<path fill="none" stroke="#9a32cd" stroke-dasharray="5,2" d="M139.191,-138.864C199.198,-167.545 324.373,-227.375 376.939,-252.5"/>
<polygon fill="#9a32cd" stroke="#9a32cd" points="140.673,-135.693 130.141,-134.539 137.654,-142.009 140.673,-135.693"/>
<text text-anchor="middle" x="247" y="-201.8" font-family="Helvetica,sans-Serif" font-size="14.00"> data</text>
</g>
<!-- Node9 -->
<g id="node9" class="node"><title>Node9</title>
<g id="a_node9"><a xlink:href="classmfem_1_1SparseMatrix.html" target="_top" xlink:title="Data type sparse matrix. ">
<polygon fill="white" stroke="red" points="538,-0.5 538,-23.5 700,-23.5 700,-0.5 538,-0.5"/>
<text text-anchor="middle" x="619" y="-8.3" font-family="Helvetica,sans-Serif" font-size="14.00">mfem::SparseMatrix</text>
</a>
</g>
</g>
<!-- Node3&#45;&gt;Node9 -->
<g id="edge13" class="edge"><title>Node3&#45;&gt;Node9</title>
<path fill="none" stroke="#9a32cd" stroke-dasharray="5,2" d="M169.189,-109.301C271.04,-87.2198 469.681,-44.1552 564.776,-23.5388"/>
<polygon fill="#9a32cd" stroke="#9a32cd" points="168.375,-105.896 159.344,-111.435 169.859,-112.737 168.375,-105.896"/>
<text text-anchor="middle" x="247" y="-98.8" font-family="Helvetica,sans-Serif" font-size="14.00"> A</text>
</g>
<!-- Node4 -->
<g id="node4" class="node"><title>Node4</title>
<g id="a_node4"><a xlink:href="classmfem_1_1FiniteElementSpace.html" target="_top" xlink:title="Class FiniteElementSpace &#45; responsible for providing FEM view of the mesh, mainly managing the set of...">
<polygon fill="white" stroke="red" points="1602.5,-147.5 1602.5,-170.5 1811.5,-170.5 1811.5,-147.5 1602.5,-147.5"/>
<text text-anchor="middle" x="1707" y="-155.3" font-family="Helvetica,sans-Serif" font-size="14.00">mfem::FiniteElementSpace</text>
</a>
</g>
</g>
<!-- Node4&#45;&gt;Node1 -->
<g id="edge3" class="edge"><title>Node4&#45;&gt;Node1</title>
<path fill="none" stroke="#9a32cd" stroke-dasharray="5,2" d="M1686.75,-177.627C1663.8,-199.041 1623.57,-234.167 1584,-257 1397.38,-364.677 1336.91,-376.994 1124,-410 1075.69,-417.489 1060.77,-424.242 1014,-410 925.426,-383.027 840.199,-306.272 809.756,-276.76"/>
<polygon fill="#9a32cd" stroke="#9a32cd" points="1689.25,-180.079 1694.11,-170.667 1684.44,-174.991 1689.25,-180.079"/>
<text text-anchor="middle" x="1199" y="-410.8" font-family="Helvetica,sans-Serif" font-size="14.00"> fes</text>
</g>
<!-- Node5 -->
<g id="node5" class="node"><title>Node5</title>
<g id="a_node5"><a xlink:href="classmfem_1_1Array.html" target="_top" xlink:title="mfem::Array\&lt; mfem::\lQuadratureInterpolator * \&gt;">
<polygon fill="white" stroke="red" points="1274,-248 1274,-286 1486,-286 1486,-248 1274,-248"/>
<text text-anchor="start" x="1282" y="-270.8" font-family="Helvetica,sans-Serif" font-size="14.00">mfem::Array&lt; mfem::</text>
<text text-anchor="middle" x="1380" y="-255.8" font-family="Helvetica,sans-Serif" font-size="14.00">QuadratureInterpolator * &gt;</text>
</a>
</g>
</g>
<!-- Node5&#45;&gt;Node4 -->
<g id="edge4" class="edge"><title>Node5&#45;&gt;Node4</title>
<path fill="none" stroke="#9a32cd" stroke-dasharray="5,2" d="M1476.89,-245.485C1511.08,-236.894 1549.61,-226.143 1584,-214 1619.71,-201.39 1659.41,-182.54 1683.53,-170.509"/>
<polygon fill="#9a32cd" stroke="#9a32cd" points="1475.77,-242.158 1466.9,-247.965 1477.45,-248.952 1475.77,-242.158"/>
<text text-anchor="middle" x="1544" y="-241.8" font-family="Helvetica,sans-Serif" font-size="14.00"> E2Q_array</text>
</g>
<!-- Node6&#45;&gt;Node4 -->
<g id="edge5" class="edge"><title>Node6&#45;&gt;Node4</title>
<path fill="none" stroke="#9a32cd" stroke-dasharray="5,2" d="M1132.56,-181.383C1135.75,-181.253 1138.91,-181.125 1142,-181 1302.7,-174.518 1489.16,-167.305 1602.31,-162.962"/>
<polygon fill="#9a32cd" stroke="#9a32cd" points="1132.15,-177.897 1122.3,-181.804 1132.44,-184.891 1132.15,-177.897"/>
<text text-anchor="middle" x="1380" y="-179.8" font-family="Helvetica,sans-Serif" font-size="14.00"> mesh</text>
</g>
<!-- Node6&#45;&gt;Node8 -->
<g id="edge8" class="edge"><title>Node6&#45;&gt;Node8</title>
<path fill="none" stroke="#9a32cd" stroke-dasharray="5,2" d="M1109.66,-198.754C1120.05,-202.039 1131.33,-205.106 1142,-207 1188.93,-215.332 1241.88,-218.173 1285.8,-218.786"/>
<polygon fill="#9a32cd" stroke="#9a32cd" points="1110.62,-195.385 1100.03,-195.569 1108.42,-202.031 1110.62,-195.385"/>
<text text-anchor="middle" x="1199" y="-221.8" font-family="Helvetica,sans-Serif" font-size="14.00"> patchTopo</text>
</g>
<!-- Node7 -->
<g id="node7" class="node"><title>Node7</title>
<g id="a_node7"><a xlink:href="classmfem_1_1Array.html" target="_top" xlink:title="mfem::Array\&lt; int \&gt;">
<polygon fill="white" stroke="red" points="718,-145.5 718,-168.5 876,-168.5 876,-145.5 718,-145.5"/>
<text text-anchor="middle" x="797" y="-153.3" font-family="Helvetica,sans-Serif" font-size="14.00">mfem::Array&lt; int &gt;</text>
</a>
</g>
</g>
<!-- Node7&#45;&gt;Node6 -->
<g id="edge6" class="edge"><title>Node7&#45;&gt;Node6</title>
<path fill="none" stroke="#9a32cd" stroke-dasharray="5,2" d="M886.183,-151.047C920.674,-150.382 960.42,-151.68 996,-158 1011.96,-160.836 1029.06,-166.873 1042.59,-172.417"/>
<polygon fill="#9a32cd" stroke="#9a32cd" points="886.04,-147.549 876.131,-151.298 886.216,-154.547 886.04,-147.549"/>
<text text-anchor="middle" x="945" y="-206.8" font-family="Helvetica,sans-Serif" font-size="14.00"> attributes</text>
<text text-anchor="middle" x="945" y="-191.8" font-family="Helvetica,sans-Serif" font-size="14.00">be_to_edge</text>
<text text-anchor="middle" x="945" y="-176.8" font-family="Helvetica,sans-Serif" font-size="14.00">be_to_face</text>
<text text-anchor="middle" x="945" y="-161.8" font-family="Helvetica,sans-Serif" font-size="14.00">bdr_attributes</text>
</g>
<!-- Node7&#45;&gt;Node8 -->
<g id="edge9" class="edge"><title>Node7&#45;&gt;Node8</title>
<path fill="none" stroke="#9a32cd" stroke-dasharray="5,2" d="M819.533,-175.092C838.012,-189.48 866.018,-208.688 894,-218 970.434,-243.436 1175.71,-243.485 1256,-237 1277.13,-235.293 1300.11,-231.962 1320.42,-228.501"/>
<polygon fill="#9a32cd" stroke="#9a32cd" points="821.505,-172.187 811.508,-168.677 817.134,-177.655 821.505,-172.187"/>
<text text-anchor="middle" x="1069" y="-394.8" font-family="Helvetica,sans-Serif" font-size="14.00"> slave</text>
<text text-anchor="middle" x="1069" y="-379.8" font-family="Helvetica,sans-Serif" font-size="14.00">master</text>
<text text-anchor="middle" x="1069" y="-364.8" font-family="Helvetica,sans-Serif" font-size="14.00">v_spaceOffsets</text>
<text text-anchor="middle" x="1069" y="-349.8" font-family="Helvetica,sans-Serif" font-size="14.00">p_meshOffsets</text>
<text text-anchor="middle" x="1069" y="-334.8" font-family="Helvetica,sans-Serif" font-size="14.00">edge_to_knot</text>
<text text-anchor="middle" x="1069" y="-319.8" font-family="Helvetica,sans-Serif" font-size="14.00">f_spaceOffsets</text>
<text text-anchor="middle" x="1069" y="-304.8" font-family="Helvetica,sans-Serif" font-size="14.00">e_meshOffsets</text>
<text text-anchor="middle" x="1069" y="-289.8" font-family="Helvetica,sans-Serif" font-size="14.00">el_to_patch</text>
<text text-anchor="middle" x="1069" y="-274.8" font-family="Helvetica,sans-Serif" font-size="14.00">p_spaceOffsets</text>
<text text-anchor="middle" x="1069" y="-259.8" font-family="Helvetica,sans-Serif" font-size="14.00">bel_to_patch</text>
<text text-anchor="middle" x="1069" y="-244.8" font-family="Helvetica,sans-Serif" font-size="14.00">...</text>
</g>
<!-- Node7&#45;&gt;Node4 -->
<g id="edge15" class="edge"><title>Node7&#45;&gt;Node4</title>
<path fill="none" stroke="#9a32cd" stroke-dasharray="5,2" d="M886.219,-147.511C888.84,-147.325 891.439,-147.154 894,-147 1148.2,-131.74 1447.92,-143.988 1602.38,-152.523"/>
<polygon fill="#9a32cd" stroke="#9a32cd" points="885.72,-144.039 876.018,-148.295 886.257,-151.018 885.72,-144.039"/>
<text text-anchor="middle" x="1199" y="-159.8" font-family="Helvetica,sans-Serif" font-size="14.00"> dof_ldof_array</text>
<text text-anchor="middle" x="1199" y="-144.8" font-family="Helvetica,sans-Serif" font-size="14.00">dof_elem_array</text>
</g>
<!-- Node8&#45;&gt;Node6 -->
<g id="edge7" class="edge"><title>Node8&#45;&gt;Node6</title>
<path fill="none" stroke="#9a32cd" stroke-dasharray="5,2" d="M1321.28,-203.315C1300.78,-198.975 1277.47,-194.627 1256,-192 1211.08,-186.504 1159.67,-184.627 1122.29,-184.054"/>
<polygon fill="#9a32cd" stroke="#9a32cd" points="1320.58,-206.745 1331.09,-205.437 1322.06,-199.903 1320.58,-206.745"/>
<text text-anchor="middle" x="1199" y="-195.8" font-family="Helvetica,sans-Serif" font-size="14.00"> NURBSext</text>
</g>
<!-- Node8&#45;&gt;Node4 -->
<g id="edge16" class="edge"><title>Node8&#45;&gt;Node4</title>
<path fill="none" stroke="#9a32cd" stroke-dasharray="5,2" d="M1455.49,-203.706C1511.67,-193.68 1587.95,-180.068 1641.52,-170.506"/>
<polygon fill="#9a32cd" stroke="#9a32cd" points="1454.83,-200.269 1445.6,-205.472 1456.06,-207.16 1454.83,-200.269"/>
<text text-anchor="middle" x="1544" y="-198.8" font-family="Helvetica,sans-Serif" font-size="14.00"> NURBSext</text>
</g>
<!-- Node9&#45;&gt;Node4 -->
<g id="edge12" class="edge"><title>Node9&#45;&gt;Node4</title>
<path fill="none" stroke="#9a32cd" stroke-dasharray="5,2" d="M710.432,-10.7146C775.414,-9.90039 865.108,-9 944,-9 944,-9 944,-9 1381,-9 1474.14,-9 1500.7,-19.34 1584,-61 1630.17,-84.0894 1675.01,-126.888 1695.06,-147.421"/>
<polygon fill="#9a32cd" stroke="#9a32cd" points="710.175,-7.21751 700.221,-10.8444 710.264,-14.2169 710.175,-7.21751"/>
<text text-anchor="middle" x="1069" y="-27.8" font-family="Helvetica,sans-Serif" font-size="14.00"> cR</text>
<text text-anchor="middle" x="1069" y="-12.8" font-family="Helvetica,sans-Serif" font-size="14.00">cP</text>
</g>
<!-- Node9&#45;&gt;Node9 -->
<g id="edge14" class="edge"><title>Node9&#45;&gt;Node9</title>
<path fill="none" stroke="#9a32cd" stroke-dasharray="5,2" d="M586.182,-33.1009C588.684,-38.2081 599.624,-42 619,-42 649.246,-42 658.934,-32.7605 648.065,-23.7015"/>
<polygon fill="#9a32cd" stroke="#9a32cd" points="589.477,-34.2864 589.935,-23.7015 582.976,-31.6902 589.477,-34.2864"/>
<text text-anchor="middle" x="619" y="-45.8" font-family="Helvetica,sans-Serif" font-size="14.00"> At</text>
</g>
<!-- Node10 -->
<g id="node10" class="node"><title>Node10</title>
<g id="a_node10"><a xlink:href="classmfem_1_1FiniteElementCollection.html" target="_top" xlink:title="mfem::FiniteElementCollection">
<polygon fill="white" stroke="black" points="284,-105.5 284,-128.5 520,-128.5 520,-105.5 284,-105.5"/>
<text text-anchor="middle" x="402" y="-113.3" font-family="Helvetica,sans-Serif" font-size="14.00">mfem::FiniteElementCollection</text>
</a>
</g>
</g>
<!-- Node10&#45;&gt;Node4 -->
<g id="edge17" class="edge"><title>Node10&#45;&gt;Node4</title>
<path fill="none" stroke="#9a32cd" stroke-dasharray="5,2" d="M480.228,-103.836C559.289,-91.5176 685.84,-75 796,-75 796,-75 796,-75 1381,-75 1495.52,-75 1625.71,-124.491 1680.05,-147.496"/>
<polygon fill="#9a32cd" stroke="#9a32cd" points="479.206,-100.454 469.872,-105.468 480.295,-107.368 479.206,-100.454"/>
<text text-anchor="middle" x="1069" y="-78.8" font-family="Helvetica,sans-Serif" font-size="14.00"> fec</text>
</g>
<!-- Node10&#45;&gt;Node1 -->
<g id="edge18" class="edge"><title>Node10&#45;&gt;Node1</title>
<path fill="none" stroke="#9a32cd" stroke-dasharray="5,2" d="M443.424,-132.223C522.266,-161.914 694.992,-226.961 765.305,-253.441"/>
<polygon fill="#9a32cd" stroke="#9a32cd" points="444.43,-128.862 433.838,-128.613 441.963,-135.413 444.43,-128.862"/>
<text text-anchor="middle" x="619" y="-229.8" font-family="Helvetica,sans-Serif" font-size="14.00"> fec</text>
</g>
</g>
</svg>
        <g id="navigator" transform="translate(0 0)" fill="#404254">
                <rect fill="#f2f5e9" fill-opacity="0.5" stroke="#606060" stroke-width=".5" x="0" y="0" width="60" height="60"/>
                <use id="zoomplus" xlink:href="#zoomPlus" x="17" y="9" onmousedown="handleZoom(evt,'in')"/>
                <use id="zoomminus" xlink:href="#zoomMin" x="42" y="9" onmousedown="handleZoom(evt,'out')"/>
                <use id="reset" xlink:href="#resetDef" x="30" y="36" onmousedown="handleReset()"/>
                <g id="arrowUp" xlink:href="#dirArrow" transform="translate(30 24)" onmousedown="handlePan(0,-1)">
                  <use xlink:href="#rim" fill="#404040">
                        <set attributeName="fill" to="#808080" begin="arrowUp.mouseover" end="arrowUp.mouseout"/>
                  </use>
                  <path fill="none" stroke="white" stroke-width="1.5" d="M0,-3.0v7 M-2.5,-0.5L0,-3.0L2.5,-0.5"/>
                </g>
                <g id="arrowRight" xlink:href="#dirArrow" transform="rotate(90) translate(36 -43)" onmousedown="handlePan(1,0)">
                  <use xlink:href="#rim" fill="#404040">
                        <set attributeName="fill" to="#808080" begin="arrowRight.mouseover" end="arrowRight.mouseout"/>
                  </use>
                  <path fill="none" stroke="white" stroke-width="1.5" d="M0,-3.0v7 M-2.5,-0.5L0,-3.0L2.5,-0.5"/>
                </g>
                <g id="arrowDown" xlink:href="#dirArrow" transform="rotate(180) translate(-30 -48)" onmousedown="handlePan(0,1)">
                  <use xlink:href="#rim" fill="#404040">
                        <set attributeName="fill" to="#808080" begin="arrowDown.mouseover" end="arrowDown.mouseout"/>
                  </use>
                  <path fill="none" stroke="white" stroke-width="1.5" d="M0,-3.0v7 M-2.5,-0.5L0,-3.0L2.5,-0.5"/>
                </g>
                <g id="arrowLeft" xlink:href="#dirArrow" transform="rotate(270) translate(-36 17)" onmousedown="handlePan(-1,0)">
                  <use xlink:href="#rim" fill="#404040">
                        <set attributeName="fill" to="#808080" begin="arrowLeft.mouseover" end="arrowLeft.mouseout"/>
                  </use>
                  <path fill="none" stroke="white" stroke-width="1.5" d="M0,-3.0v7 M-2.5,-0.5L0,-3.0L2.5,-0.5"/>
                </g>
        </g>
        <svg viewBox="0 0 15 15" width="100%" height="30px" preserveAspectRatio="xMaxYMin meet">
         <g id="arrow_out" transform="scale(0.3 0.3)">
          <a xlink:href="classmfem_1_1GridFunction__coll__graph_org.svg" target="_base">
           <rect id="button" ry="5" rx="5" y="6" x="6" height="38" width="38"
                fill="#f2f5e9" fill-opacity="0.5" stroke="#606060" stroke-width="1.0"/>
           <path id="arrow"
             d="M 11.500037,31.436501 C 11.940474,20.09759 22.043105,11.32322 32.158766,21.979434 L 37.068811,17.246167 C 37.068811,17.246167 37.088388,32 37.088388,32 L 22.160133,31.978069 C 22.160133,31.978069 26.997745,27.140456 26.997745,27.140456 C 18.528582,18.264221 13.291696,25.230495 11.500037,31.436501 z"
             style="fill:#404040;"/>
          </a>
         </g>
        </svg>
</svg>
