<?xml version="1.0" encoding="UTF-8" standalone="no"?>
<!DOCTYPE svg PUBLIC "-//W3C//DTD SVG 1.1//EN"
 "http://www.w3.org/Graphics/SVG/1.1/DTD/svg11.dtd">
<!-- Generated by graphviz version 2.30.1 (20170916.1124)
 -->
<!-- Title: mfem::DSmoother Pages: 1 -->
<!--zoomable 226 -->
<svg id="main" version="1.1" xmlns="http://www.w3.org/2000/svg" xmlns:xlink="http://www.w3.org/1999/xlink" xml:space="preserve" onload="init(evt)">
<style type="text/css"><![CDATA[
.edge:hover path { stroke: red; }
.edge:hover polygon { stroke: red; fill: red; }
]]></style>
<script type="text/javascript"><![CDATA[
var edges = document.getElementsByTagName('g');
if (edges && edges.length) {
  for (var i=0;i<edges.length;i++) {
    if (edges[i].id.substr(0,4)=='edge') {
      edges[i].setAttribute('class','edge');
    }
  }
}
]]></script>
        <defs>
                <circle id="rim" cx="0" cy="0" r="7"/>
                <circle id="rim2" cx="0" cy="0" r="3.5"/>
                <g id="zoomPlus">
                        <use xlink:href="#rim" fill="#404040">
                                <set attributeName="fill" to="#808080" begin="zoomplus.mouseover" end="zoomplus.mouseout"/>
                        </use>
                        <path d="M-4,0h8M0,-4v8" fill="none" stroke="white" stroke-width="1.5" pointer-events="none"/>
                </g>
                <g id="zoomMin">
                        <use xlink:href="#rim" fill="#404040">
                                <set attributeName="fill" to="#808080" begin="zoomminus.mouseover" end="zoomminus.mouseout"/>
                        </use>
                        <path d="M-4,0h8" fill="none" stroke="white" stroke-width="1.5" pointer-events="none"/>
                </g>
                <g id="dirArrow">
                        <path fill="none" stroke="white" stroke-width="1.5" d="M0,-3.0v7 M-2.5,-0.5L0,-3.0L2.5,-0.5"/>
                </g>
               <g id="resetDef">
                       <use xlink:href="#rim2" fill="#404040">
                               <set attributeName="fill" to="#808080" begin="reset.mouseover" end="reset.mouseout"/>
                       </use>
               </g>
        </defs>

<script type="text/javascript">
var viewWidth = 1044;
var viewHeight = 226;
var sectionId = 'dynsection-1';
</script>
<script xlink:href="svgpan.js"/>
<svg id="graph" class="graph">
<g id="viewport">
<title>mfem::DSmoother</title>
<polygon fill="white" stroke="white" points="-4,5 -4,-222 1041,-222 1041,5 -4,5"/>
<!-- Node1 -->
<g id="node1" class="node"><title>Node1</title>
<polygon fill="#bfbfbf" stroke="black" points="886,-38.5 886,-61.5 1036,-61.5 1036,-38.5 886,-38.5"/>
<text text-anchor="middle" x="961" y="-46.3" font-family="Helvetica,sans-Serif" font-size="14.00">mfem::DSmoother</text>
</g>
<!-- Node2 -->
<g id="node2" class="node"><title>Node2</title>
<g id="a_node2"><a xlink:href="classmfem_1_1SparseSmoother.html" target="_top" xlink:title="mfem::SparseSmoother">
<polygon fill="white" stroke="black" points="660,-73.5 660,-96.5 848,-96.5 848,-73.5 660,-73.5"/>
<text text-anchor="middle" x="754" y="-81.3" font-family="Helvetica,sans-Serif" font-size="14.00">mfem::SparseSmoother</text>
</a>
</g>
</g>
<!-- Node2&#45;&gt;Node1 -->
<g id="edge1" class="edge"><title>Node2&#45;&gt;Node1</title>
<path fill="none" stroke="midnightblue" d="M832.32,-71.799C852.131,-68.4166 873.281,-64.8057 892.551,-61.5157"/>
<polygon fill="midnightblue" stroke="midnightblue" points="831.677,-68.3581 822.409,-73.4912 832.855,-75.2582 831.677,-68.3581"/>
</g>
<!-- Node3 -->
<g id="node3" class="node"><title>Node3</title>
<g id="a_node3"><a xlink:href="classmfem_1_1MatrixInverse.html" target="_top" xlink:title="Abstract data type for matrix inverse. ">
<polygon fill="white" stroke="black" points="344,-178.5 344,-201.5 510,-201.5 510,-178.5 344,-178.5"/>
<text text-anchor="middle" x="427" y="-186.3" font-family="Helvetica,sans-Serif" font-size="14.00">mfem::MatrixInverse</text>
</a>
</g>
</g>
<!-- Node3&#45;&gt;Node2 -->
<g id="edge2" class="edge"><title>Node3&#45;&gt;Node2</title>
<path fill="none" stroke="midnightblue" d="M473.322,-175.358C538.596,-154.269 657.747,-115.774 717.231,-96.5563"/>
<polygon fill="midnightblue" stroke="midnightblue" points="472.15,-172.058 463.71,-178.463 474.302,-178.719 472.15,-172.058"/>
</g>
<!-- Node4 -->
<g id="node4" class="node"><title>Node4</title>
<g id="a_node4"><a xlink:href="classmfem_1_1Solver.html" target="_top" xlink:title="Base class for solvers. ">
<polygon fill="white" stroke="red" points="54.5,-194.5 54.5,-217.5 167.5,-217.5 167.5,-194.5 54.5,-194.5"/>
<text text-anchor="middle" x="111" y="-202.3" font-family="Helvetica,sans-Serif" font-size="14.00">mfem::Solver</text>
</a>
</g>
</g>
<!-- Node4&#45;&gt;Node3 -->
<g id="edge3" class="edge"><title>Node4&#45;&gt;Node3</title>
<path fill="none" stroke="midnightblue" d="M177.809,-202.647C226.137,-200.184 292.111,-196.822 343.891,-194.184"/>
<polygon fill="midnightblue" stroke="midnightblue" points="177.584,-199.154 167.775,-203.158 177.94,-206.144 177.584,-199.154"/>
</g>
<!-- Node5 -->
<g id="node5" class="node"><title>Node5</title>
<g id="a_node5"><a xlink:href="classmfem_1_1SparseMatrix.html" target="_top" xlink:title="Data type sparse matrix. ">
<polygon fill="white" stroke="black" points="346,-73.5 346,-96.5 508,-96.5 508,-73.5 346,-73.5"/>
<text text-anchor="middle" x="427" y="-81.3" font-family="Helvetica,sans-Serif" font-size="14.00">mfem::SparseMatrix</text>
</a>
</g>
</g>
<!-- Node5&#45;&gt;Node2 -->
<g id="edge4" class="edge"><title>Node5&#45;&gt;Node2</title>
<path fill="none" stroke="#9a32cd" stroke-dasharray="5,2" d="M518.458,-85C562.493,-85 615.376,-85 659.773,-85"/>
<polygon fill="#9a32cd" stroke="#9a32cd" points="518.337,-81.5001 508.337,-85 518.337,-88.5001 518.337,-81.5001"/>
<text text-anchor="middle" x="585" y="-88.8" font-family="Helvetica,sans-Serif" font-size="14.00"> oper</text>
</g>
<!-- Node5&#45;&gt;Node5 -->
<g id="edge7" class="edge"><title>Node5&#45;&gt;Node5</title>
<path fill="none" stroke="#9a32cd" stroke-dasharray="5,2" d="M400.611,-106.472C402.911,-111.391 411.707,-115 427,-115 451.469,-115 459.306,-105.76 450.513,-96.7015"/>
<polygon fill="#9a32cd" stroke="#9a32cd" points="404.02,-107.283 403.487,-96.7015 397.305,-105.306 404.02,-107.283"/>
<text text-anchor="middle" x="427" y="-118.8" font-family="Helvetica,sans-Serif" font-size="14.00"> At</text>
</g>
<!-- Node6 -->
<g id="node6" class="node"><title>Node6</title>
<g id="a_node6"><a xlink:href="classmfem_1_1AbstractSparseMatrix.html" target="_top" xlink:title="Abstract data type for sparse matrices. ">
<polygon fill="white" stroke="red" points="0.5,-51.5 0.5,-74.5 221.5,-74.5 221.5,-51.5 0.5,-51.5"/>
<text text-anchor="middle" x="111" y="-59.3" font-family="Helvetica,sans-Serif" font-size="14.00">mfem::AbstractSparseMatrix</text>
</a>
</g>
</g>
<!-- Node6&#45;&gt;Node5 -->
<g id="edge5" class="edge"><title>Node6&#45;&gt;Node5</title>
<path fill="none" stroke="midnightblue" d="M231.964,-71.4051C270.095,-74.0767 311.318,-76.965 345.92,-79.3893"/>
<polygon fill="midnightblue" stroke="midnightblue" points="232.042,-67.9021 221.822,-70.6945 231.553,-74.885 232.042,-67.9021"/>
</g>
<!-- Node7 -->
<g id="node7" class="node"><title>Node7</title>
<g id="a_node7"><a xlink:href="classmfem_1_1Memory.html" target="_top" xlink:title="mfem::Memory\&lt; double \&gt;">
<polygon fill="white" stroke="black" points="6.5,-0.5 6.5,-23.5 215.5,-23.5 215.5,-0.5 6.5,-0.5"/>
<text text-anchor="middle" x="111" y="-8.3" font-family="Helvetica,sans-Serif" font-size="14.00">mfem::Memory&lt; double &gt;</text>
</a>
</g>
</g>
<!-- Node7&#45;&gt;Node5 -->
<g id="edge6" class="edge"><title>Node7&#45;&gt;Node5</title>
<path fill="none" stroke="#9a32cd" stroke-dasharray="5,2" d="M190.689,-25.3648C231.325,-32.7905 281.572,-42.7881 326,-54 348.206,-59.6039 372.778,-67.2012 392.007,-73.4721"/>
<polygon fill="#9a32cd" stroke="#9a32cd" points="191.305,-21.9197 180.842,-23.5812 190.058,-28.8076 191.305,-21.9197"/>
<text text-anchor="middle" x="283" y="-57.8" font-family="Helvetica,sans-Serif" font-size="14.00"> A</text>
</g>
<!-- Node10 -->
<g id="node10" class="node"><title>Node10</title>
<g id="a_node10"><a xlink:href="classmfem_1_1Vector.html" target="_top" xlink:title="Vector data type. ">
<polygon fill="white" stroke="black" points="528,-0.5 528,-23.5 642,-23.5 642,-0.5 528,-0.5"/>
<text text-anchor="middle" x="585" y="-8.3" font-family="Helvetica,sans-Serif" font-size="14.00">mfem::Vector</text>
</a>
</g>
</g>
<!-- Node7&#45;&gt;Node10 -->
<g id="edge11" class="edge"><title>Node7&#45;&gt;Node10</title>
<path fill="none" stroke="#9a32cd" stroke-dasharray="5,2" d="M225.87,-12C321.367,-12 453.693,-12 527.845,-12"/>
<polygon fill="#9a32cd" stroke="#9a32cd" points="225.582,-8.5001 215.582,-12 225.582,-15.5001 225.582,-8.5001"/>
<text text-anchor="middle" x="283" y="-15.8" font-family="Helvetica,sans-Serif" font-size="14.00"> data</text>
</g>
<!-- Node8 -->
<g id="node8" class="node"><title>Node8</title>
<g id="a_node8"><a xlink:href="classmfem_1_1MemAlloc.html" target="_top" xlink:title="mfem::MemAlloc\&lt; Elem,\l Num \&gt;">
<polygon fill="white" stroke="black" points="14,-137 14,-175 208,-175 208,-137 14,-137"/>
<text text-anchor="start" x="22" y="-159.8" font-family="Helvetica,sans-Serif" font-size="14.00">mfem::MemAlloc&lt; Elem,</text>
<text text-anchor="middle" x="111" y="-144.8" font-family="Helvetica,sans-Serif" font-size="14.00"> Num &gt;</text>
</a>
</g>
</g>
<!-- Node8&#45;&gt;Node5 -->
<g id="edge8" class="edge"><title>Node8&#45;&gt;Node5</title>
<path fill="none" stroke="#9a32cd" stroke-dasharray="5,2" d="M218.248,-150.236C253.041,-146.595 291.584,-140.663 326,-131 354.886,-122.89 385.953,-107.426 405.661,-96.6787"/>
<polygon fill="#9a32cd" stroke="#9a32cd" points="217.666,-146.776 208.062,-151.248 218.359,-153.742 217.666,-146.776"/>
<text text-anchor="middle" x="283" y="-151.8" font-family="Helvetica,sans-Serif" font-size="14.00"> NodesMem</text>
</g>
<!-- Node9 -->
<g id="node9" class="node"><title>Node9</title>
<g id="a_node9"><a xlink:href="classmfem_1_1Memory.html" target="_top" xlink:title="mfem::Memory\&lt; int \&gt;">
<polygon fill="white" stroke="black" points="22,-93.5 22,-116.5 200,-116.5 200,-93.5 22,-93.5"/>
<text text-anchor="middle" x="111" y="-101.3" font-family="Helvetica,sans-Serif" font-size="14.00">mfem::Memory&lt; int &gt;</text>
</a>
</g>
</g>
<!-- Node9&#45;&gt;Node5 -->
<g id="edge9" class="edge"><title>Node9&#45;&gt;Node5</title>
<path fill="none" stroke="#9a32cd" stroke-dasharray="5,2" d="M210.356,-98.7353C253.962,-95.9579 304.616,-92.7315 345.869,-90.1039"/>
<polygon fill="#9a32cd" stroke="#9a32cd" points="210.059,-95.247 200.302,-99.3757 210.504,-102.233 210.059,-95.247"/>
<text text-anchor="middle" x="283" y="-115.8" font-family="Helvetica,sans-Serif" font-size="14.00"> I</text>
<text text-anchor="middle" x="283" y="-100.8" font-family="Helvetica,sans-Serif" font-size="14.00">J</text>
</g>
<!-- Node10&#45;&gt;Node1 -->
<g id="edge10" class="edge"><title>Node10&#45;&gt;Node1</title>
<path fill="none" stroke="#9a32cd" stroke-dasharray="5,2" d="M652.597,-18.7665C718.045,-25.4163 817.727,-35.5445 885.71,-42.4518"/>
<polygon fill="#9a32cd" stroke="#9a32cd" points="652.699,-15.259 642.397,-17.7301 651.991,-22.2231 652.699,-15.259"/>
<text text-anchor="middle" x="754" y="-42.8" font-family="Helvetica,sans-Serif" font-size="14.00"> z</text>
</g>
</g>
</svg>
        <g id="navigator" transform="translate(0 0)" fill="#404254">
                <rect fill="#f2f5e9" fill-opacity="0.5" stroke="#606060" stroke-width=".5" x="0" y="0" width="60" height="60"/>
                <use id="zoomplus" xlink:href="#zoomPlus" x="17" y="9" onmousedown="handleZoom(evt,'in')"/>
                <use id="zoomminus" xlink:href="#zoomMin" x="42" y="9" onmousedown="handleZoom(evt,'out')"/>
                <use id="reset" xlink:href="#resetDef" x="30" y="36" onmousedown="handleReset()"/>
                <g id="arrowUp" xlink:href="#dirArrow" transform="translate(30 24)" onmousedown="handlePan(0,-1)">
                  <use xlink:href="#rim" fill="#404040">
                        <set attributeName="fill" to="#808080" begin="arrowUp.mouseover" end="arrowUp.mouseout"/>
                  </use>
                  <path fill="none" stroke="white" stroke-width="1.5" d="M0,-3.0v7 M-2.5,-0.5L0,-3.0L2.5,-0.5"/>
                </g>
                <g id="arrowRight" xlink:href="#dirArrow" transform="rotate(90) translate(36 -43)" onmousedown="handlePan(1,0)">
                  <use xlink:href="#rim" fill="#404040">
                        <set attributeName="fill" to="#808080" begin="arrowRight.mouseover" end="arrowRight.mouseout"/>
                  </use>
                  <path fill="none" stroke="white" stroke-width="1.5" d="M0,-3.0v7 M-2.5,-0.5L0,-3.0L2.5,-0.5"/>
                </g>
                <g id="arrowDown" xlink:href="#dirArrow" transform="rotate(180) translate(-30 -48)" onmousedown="handlePan(0,1)">
                  <use xlink:href="#rim" fill="#404040">
                        <set attributeName="fill" to="#808080" begin="arrowDown.mouseover" end="arrowDown.mouseout"/>
                  </use>
                  <path fill="none" stroke="white" stroke-width="1.5" d="M0,-3.0v7 M-2.5,-0.5L0,-3.0L2.5,-0.5"/>
                </g>
                <g id="arrowLeft" xlink:href="#dirArrow" transform="rotate(270) translate(-36 17)" onmousedown="handlePan(-1,0)">
                  <use xlink:href="#rim" fill="#404040">
                        <set attributeName="fill" to="#808080" begin="arrowLeft.mouseover" end="arrowLeft.mouseout"/>
                  </use>
                  <path fill="none" stroke="white" stroke-width="1.5" d="M0,-3.0v7 M-2.5,-0.5L0,-3.0L2.5,-0.5"/>
                </g>
        </g>
        <svg viewBox="0 0 15 15" width="100%" height="30px" preserveAspectRatio="xMaxYMin meet">
         <g id="arrow_out" transform="scale(0.3 0.3)">
          <a xlink:href="classmfem_1_1DSmoother__coll__graph_org.svg" target="_base">
           <rect id="button" ry="5" rx="5" y="6" x="6" height="38" width="38"
                fill="#f2f5e9" fill-opacity="0.5" stroke="#606060" stroke-width="1.0"/>
           <path id="arrow"
             d="M 11.500037,31.436501 C 11.940474,20.09759 22.043105,11.32322 32.158766,21.979434 L 37.068811,17.246167 C 37.068811,17.246167 37.088388,32 37.088388,32 L 22.160133,31.978069 C 22.160133,31.978069 26.997745,27.140456 26.997745,27.140456 C 18.528582,18.264221 13.291696,25.230495 11.500037,31.436501 z"
             style="fill:#404040;"/>
          </a>
         </g>
        </svg>
</svg>
