<?xml version="1.0" encoding="UTF-8" standalone="no"?>
<!DOCTYPE svg PUBLIC "-//W3C//DTD SVG 1.1//EN"
 "http://www.w3.org/Graphics/SVG/1.1/DTD/svg11.dtd">
<!-- Generated by graphviz version 2.30.1 (20200304.1809)
 -->
<!-- Title: mfem::ParGridFunction Pages: 1 -->
<svg width="1284pt" height="322pt"
 viewBox="0.00 0.00 1284.00 322.00" xmlns="http://www.w3.org/2000/svg" xmlns:xlink="http://www.w3.org/1999/xlink">
<g id="graph0" class="graph" transform="scale(1 1) rotate(0) translate(4 318)">
<title>mfem::ParGridFunction</title>
<polygon fill="white" stroke="white" points="-4,5 -4,-318 1281,-318 1281,5 -4,5"/>
<!-- Node1 -->
<g id="node1" class="node"><title>Node1</title>
<polygon fill="#bfbfbf" stroke="black" points="1094.5,-230.5 1094.5,-253.5 1275.5,-253.5 1275.5,-230.5 1094.5,-230.5"/>
<text text-anchor="middle" x="1185" y="-238.3" font-family="Helvetica,sans-Serif" font-size="14.00">mfem::ParGridFunction</text>
</g>
<!-- Node2 -->
<g id="node2" class="node"><title>Node2</title>
<g id="a_node2"><a xlink:href="classmfem_1_1GridFunction.html" target="_top" xlink:title="Class for grid function &#45; Vector with associated FE space. ">
<polygon fill="white" stroke="black" points="827,-230.5 827,-253.5 985,-253.5 985,-230.5 827,-230.5"/>
<text text-anchor="middle" x="906" y="-238.3" font-family="Helvetica,sans-Serif" font-size="14.00">mfem::GridFunction</text>
</a>
</g>
</g>
<!-- Node2&#45;&gt;Node1 -->
<g id="edge1" class="edge"><title>Node2&#45;&gt;Node1</title>
<path fill="none" stroke="midnightblue" d="M995.364,-242C1026.93,-242 1062.51,-242 1094.2,-242"/>
<polygon fill="midnightblue" stroke="midnightblue" points="995.266,-238.5 985.266,-242 995.266,-245.5 995.266,-238.5"/>
</g>
<!-- Node3 -->
<g id="node3" class="node"><title>Node3</title>
<g id="a_node3"><a xlink:href="classmfem_1_1Vector.html" target="_top" xlink:title="Vector data type. ">
<polygon fill="white" stroke="black" points="416,-275.5 416,-298.5 530,-298.5 530,-275.5 416,-275.5"/>
<text text-anchor="middle" x="473" y="-283.3" font-family="Helvetica,sans-Serif" font-size="14.00">mfem::Vector</text>
</a>
</g>
</g>
<!-- Node3&#45;&gt;Node2 -->
<g id="edge2" class="edge"><title>Node3&#45;&gt;Node2</title>
<path fill="none" stroke="midnightblue" d="M539.959,-275.857C558.087,-273.032 577.772,-270.183 596,-268 674.309,-258.619 764.185,-251.461 826.743,-247.053"/>
<polygon fill="midnightblue" stroke="midnightblue" points="539.399,-272.402 530.067,-277.42 540.491,-279.316 539.399,-272.402"/>
</g>
<!-- Node3&#45;&gt;Node2 -->
<g id="edge9" class="edge"><title>Node3&#45;&gt;Node2</title>
<path fill="none" stroke="#9a32cd" stroke-dasharray="5,2" d="M540.361,-283.959C600.872,-280.745 692.664,-274.765 772,-265 796.188,-262.023 822.673,-257.669 845.597,-253.548"/>
<polygon fill="#9a32cd" stroke="#9a32cd" points="539.986,-280.474 530.182,-284.489 540.35,-287.464 539.986,-280.474"/>
<text text-anchor="middle" x="684" y="-284.8" font-family="Helvetica,sans-Serif" font-size="14.00"> t_vec</text>
</g>
<!-- Node3&#45;&gt;Node1 -->
<g id="edge14" class="edge"><title>Node3&#45;&gt;Node1</title>
<path fill="none" stroke="#9a32cd" stroke-dasharray="5,2" d="M540.226,-295.35C558.284,-297.273 577.868,-299.037 596,-300 674.112,-304.15 693.969,-305.466 772,-300 896.838,-291.256 1041.4,-267.783 1121.82,-253.522"/>
<polygon fill="#9a32cd" stroke="#9a32cd" points="540.404,-291.849 530.082,-294.236 539.64,-298.807 540.404,-291.849"/>
<text text-anchor="middle" x="906" y="-302.8" font-family="Helvetica,sans-Serif" font-size="14.00"> face_nbr_data</text>
</g>
<!-- Node4 -->
<g id="node4" class="node"><title>Node4</title>
<g id="a_node4"><a xlink:href="classmfem_1_1Memory.html" target="_top" xlink:title="mfem::Memory\&lt; double \&gt;">
<polygon fill="white" stroke="black" points="13.5,-275.5 13.5,-298.5 222.5,-298.5 222.5,-275.5 13.5,-275.5"/>
<text text-anchor="middle" x="118" y="-283.3" font-family="Helvetica,sans-Serif" font-size="14.00">mfem::Memory&lt; double &gt;</text>
</a>
</g>
</g>
<!-- Node4&#45;&gt;Node3 -->
<g id="edge3" class="edge"><title>Node4&#45;&gt;Node3</title>
<path fill="none" stroke="#9a32cd" stroke-dasharray="5,2" d="M232.64,-287C293.879,-287 366.731,-287 415.846,-287"/>
<polygon fill="#9a32cd" stroke="#9a32cd" points="232.527,-283.5 222.526,-287 232.526,-290.5 232.527,-283.5"/>
<text text-anchor="middle" x="302" y="-290.8" font-family="Helvetica,sans-Serif" font-size="14.00"> data</text>
</g>
<!-- Node5 -->
<g id="node5" class="node"><title>Node5</title>
<g id="a_node5"><a xlink:href="classmfem_1_1FiniteElementSpace.html" target="_top" xlink:title="Class FiniteElementSpace &#45; responsible for providing FEM view of the mesh, mainly managing the set of...">
<polygon fill="white" stroke="red" points="368.5,-149.5 368.5,-172.5 577.5,-172.5 577.5,-149.5 368.5,-149.5"/>
<text text-anchor="middle" x="473" y="-157.3" font-family="Helvetica,sans-Serif" font-size="14.00">mfem::FiniteElementSpace</text>
</a>
</g>
</g>
<!-- Node5&#45;&gt;Node2 -->
<g id="edge4" class="edge"><title>Node5&#45;&gt;Node2</title>
<path fill="none" stroke="#9a32cd" stroke-dasharray="5,2" d="M587.466,-171.11C643.426,-177.295 711.689,-186.639 772,-200 807.58,-207.882 847.292,-221.012 873.982,-230.496"/>
<polygon fill="#9a32cd" stroke="#9a32cd" points="587.843,-167.631 577.524,-170.03 587.087,-174.59 587.843,-167.631"/>
<text text-anchor="middle" x="684" y="-203.8" font-family="Helvetica,sans-Serif" font-size="14.00"> fes</text>
</g>
<!-- Node9 -->
<g id="node9" class="node"><title>Node9</title>
<g id="a_node9"><a xlink:href="classmfem_1_1ParFiniteElementSpace.html" target="_top" xlink:title="Abstract parallel finite element space. ">
<polygon fill="white" stroke="black" points="790,-92.5 790,-115.5 1022,-115.5 1022,-92.5 790,-92.5"/>
<text text-anchor="middle" x="906" y="-100.3" font-family="Helvetica,sans-Serif" font-size="14.00">mfem::ParFiniteElementSpace</text>
</a>
</g>
</g>
<!-- Node5&#45;&gt;Node9 -->
<g id="edge11" class="edge"><title>Node5&#45;&gt;Node9</title>
<path fill="none" stroke="midnightblue" d="M571.225,-148.142C645.285,-138.347 746.345,-124.982 817.805,-115.532"/>
<polygon fill="midnightblue" stroke="midnightblue" points="570.415,-144.719 560.96,-149.5 571.333,-151.658 570.415,-144.719"/>
</g>
<!-- Node6 -->
<g id="node6" class="node"><title>Node6</title>
<g id="a_node6"><a xlink:href="classmfem_1_1Array.html" target="_top" xlink:title="mfem::Array\&lt; mfem::\lQuadratureInterpolator * \&gt;">
<polygon fill="white" stroke="red" points="12,-142 12,-180 224,-180 224,-142 12,-142"/>
<text text-anchor="start" x="20" y="-164.8" font-family="Helvetica,sans-Serif" font-size="14.00">mfem::Array&lt; mfem::</text>
<text text-anchor="middle" x="118" y="-149.8" font-family="Helvetica,sans-Serif" font-size="14.00">QuadratureInterpolator * &gt;</text>
</a>
</g>
</g>
<!-- Node6&#45;&gt;Node5 -->
<g id="edge5" class="edge"><title>Node6&#45;&gt;Node5</title>
<path fill="none" stroke="#9a32cd" stroke-dasharray="5,2" d="M234.685,-161C277.776,-161 326.378,-161 368.325,-161"/>
<polygon fill="#9a32cd" stroke="#9a32cd" points="234.434,-157.5 224.433,-161 234.433,-164.5 234.434,-157.5"/>
<text text-anchor="middle" x="302" y="-164.8" font-family="Helvetica,sans-Serif" font-size="14.00"> E2Q_array</text>
</g>
<!-- Node7 -->
<g id="node7" class="node"><title>Node7</title>
<g id="a_node7"><a xlink:href="classmfem_1_1Table.html" target="_top" xlink:title="mfem::Table">
<polygon fill="white" stroke="red" points="65,-80.5 65,-103.5 171,-103.5 171,-80.5 65,-80.5"/>
<text text-anchor="middle" x="118" y="-88.3" font-family="Helvetica,sans-Serif" font-size="14.00">mfem::Table</text>
</a>
</g>
</g>
<!-- Node7&#45;&gt;Node5 -->
<g id="edge6" class="edge"><title>Node7&#45;&gt;Node5</title>
<path fill="none" stroke="#9a32cd" stroke-dasharray="5,2" d="M181.132,-99.3335C227.846,-105.35 293.281,-114.847 350,-127 378.917,-133.196 411.125,-142.267 435.184,-149.481"/>
<polygon fill="#9a32cd" stroke="#9a32cd" points="181.524,-95.8553 171.162,-98.0658 180.641,-102.799 181.524,-95.8553"/>
<text text-anchor="middle" x="302" y="-145.8" font-family="Helvetica,sans-Serif" font-size="14.00"> bdrElem_dof</text>
<text text-anchor="middle" x="302" y="-130.8" font-family="Helvetica,sans-Serif" font-size="14.00">elem_dof</text>
</g>
<!-- Node7&#45;&gt;Node9 -->
<g id="edge13" class="edge"><title>Node7&#45;&gt;Node9</title>
<path fill="none" stroke="#9a32cd" stroke-dasharray="5,2" d="M181.436,-91.9933C269.753,-92.0783 436.21,-92.5857 578,-95 648.412,-96.1989 727.333,-98.348 790,-100.245"/>
<polygon fill="#9a32cd" stroke="#9a32cd" points="181.323,-88.4933 171.32,-91.9851 181.317,-95.4933 181.323,-88.4933"/>
<text text-anchor="middle" x="473" y="-128.8" font-family="Helvetica,sans-Serif" font-size="14.00"> face_nbr_ldof</text>
<text text-anchor="middle" x="473" y="-113.8" font-family="Helvetica,sans-Serif" font-size="14.00">send_face_nbr_ldof</text>
<text text-anchor="middle" x="473" y="-98.8" font-family="Helvetica,sans-Serif" font-size="14.00">face_nbr_element_dof</text>
</g>
<!-- Node8 -->
<g id="node8" class="node"><title>Node8</title>
<g id="a_node8"><a xlink:href="classmfem_1_1FiniteElementCollection.html" target="_top" xlink:title="mfem::FiniteElementCollection">
<polygon fill="white" stroke="black" points="0,-208.5 0,-231.5 236,-231.5 236,-208.5 0,-208.5"/>
<text text-anchor="middle" x="118" y="-216.3" font-family="Helvetica,sans-Serif" font-size="14.00">mfem::FiniteElementCollection</text>
</a>
</g>
</g>
<!-- Node8&#45;&gt;Node5 -->
<g id="edge7" class="edge"><title>Node8&#45;&gt;Node5</title>
<path fill="none" stroke="#9a32cd" stroke-dasharray="5,2" d="M197.956,-206.803C259.5,-196.517 344.111,-182.375 402.973,-172.537"/>
<polygon fill="#9a32cd" stroke="#9a32cd" points="197.186,-203.383 187.9,-208.484 198.34,-210.288 197.186,-203.383"/>
<text text-anchor="middle" x="302" y="-199.8" font-family="Helvetica,sans-Serif" font-size="14.00"> fec</text>
</g>
<!-- Node8&#45;&gt;Node2 -->
<g id="edge8" class="edge"><title>Node8&#45;&gt;Node2</title>
<path fill="none" stroke="#9a32cd" stroke-dasharray="5,2" d="M246.41,-223.566C410.685,-228.164 691.317,-236.019 826.996,-239.817"/>
<polygon fill="#9a32cd" stroke="#9a32cd" points="246.342,-220.063 236.247,-223.282 246.146,-227.06 246.342,-220.063"/>
<text text-anchor="middle" x="473" y="-236.8" font-family="Helvetica,sans-Serif" font-size="14.00"> fec</text>
</g>
<!-- Node9&#45;&gt;Node1 -->
<g id="edge10" class="edge"><title>Node9&#45;&gt;Node1</title>
<path fill="none" stroke="#9a32cd" stroke-dasharray="5,2" d="M939.335,-120.109C995.862,-148.271 1111.33,-205.794 1160.73,-230.407"/>
<polygon fill="#9a32cd" stroke="#9a32cd" points="940.652,-116.855 930.14,-115.528 937.53,-123.12 940.652,-116.855"/>
<text text-anchor="middle" x="1058" y="-189.8" font-family="Helvetica,sans-Serif" font-size="14.00"> pfes</text>
</g>
<!-- Node10 -->
<g id="node10" class="node"><title>Node10</title>
<g id="a_node10"><a xlink:href="classmfem_1_1Array.html" target="_top" xlink:title="mfem::Array\&lt; HYPRE\l_Int \&gt;">
<polygon fill="white" stroke="red" points="388,-0 388,-38 558,-38 558,-0 388,-0"/>
<text text-anchor="start" x="396" y="-22.8" font-family="Helvetica,sans-Serif" font-size="14.00">mfem::Array&lt; HYPRE</text>
<text text-anchor="middle" x="473" y="-7.8" font-family="Helvetica,sans-Serif" font-size="14.00">_Int &gt;</text>
</a>
</g>
</g>
<!-- Node10&#45;&gt;Node9 -->
<g id="edge12" class="edge"><title>Node10&#45;&gt;Node9</title>
<path fill="none" stroke="#9a32cd" stroke-dasharray="5,2" d="M568.168,-19.8446C627.466,-22.2541 705.163,-28.8773 772,-46 813.484,-56.6276 858.522,-78.7172 884.101,-92.3593"/>
<polygon fill="#9a32cd" stroke="#9a32cd" points="568.19,-16.3431 558.067,-19.4676 567.929,-23.3383 568.19,-16.3431"/>
<text text-anchor="middle" x="684" y="-49.8" font-family="Helvetica,sans-Serif" font-size="14.00"> face_nbr_glob_dof_map</text>
</g>
</g>
</svg>
