<?xml version="1.0" encoding="UTF-8" standalone="no"?>
<!DOCTYPE svg PUBLIC "-//W3C//DTD SVG 1.1//EN"
 "http://www.w3.org/Graphics/SVG/1.1/DTD/svg11.dtd">
<!-- Generated by graphviz version 2.30.1 (20170916.1124)
 -->
<!-- Title: Graphical Class Hierarchy Pages: 1 -->
<svg width="450pt" height="74pt"
 viewBox="0.00 0.00 450.00 74.00" xmlns="http://www.w3.org/2000/svg" xmlns:xlink="http://www.w3.org/1999/xlink">
<g id="graph0" class="graph" transform="scale(1 1) rotate(0) translate(4 70)">
<title>Graphical Class Hierarchy</title>
<polygon fill="white" stroke="white" points="-4,5 -4,-70 447,-70 447,5 -4,5"/>
<!-- Node1 -->
<g id="node1" class="node"><title>Node1</title>
<g id="a_node1"><a xlink:href="classmfem_1_1GridTransfer.html" target="_top" xlink:title="Base class for transfer algorithms that construct transfer Operators between two finite element (FE) ...">
<polygon fill="white" stroke="black" points="0.5,-21.5 0.5,-44.5 157.5,-44.5 157.5,-21.5 0.5,-21.5"/>
<text text-anchor="middle" x="79" y="-29.3" font-family="Helvetica,sans-Serif" font-size="14.00">mfem::GridTransfer</text>
</a>
</g>
</g>
<!-- Node2 -->
<g id="node2" class="node"><title>Node2</title>
<g id="a_node2"><a xlink:href="classmfem_1_1InterpolationGridTransfer.html" target="_top" xlink:title="Transfer data between a coarse mesh and an embedded refined mesh using interpolation. ">
<polygon fill="white" stroke="black" points="194,-42.5 194,-65.5 442,-65.5 442,-42.5 194,-42.5"/>
<text text-anchor="middle" x="318" y="-50.3" font-family="Helvetica,sans-Serif" font-size="14.00">mfem::InterpolationGridTransfer</text>
</a>
</g>
</g>
<!-- Node1&#45;&gt;Node2 -->
<g id="edge1" class="edge"><title>Node1&#45;&gt;Node2</title>
<path fill="none" stroke="midnightblue" d="M167.807,-40.7804C176.275,-41.5307 184.968,-42.3009 193.695,-43.0742"/>
<polygon fill="midnightblue" stroke="midnightblue" points="167.873,-37.2726 157.603,-39.8762 167.255,-44.2452 167.873,-37.2726"/>
</g>
<!-- Node3 -->
<g id="node3" class="node"><title>Node3</title>
<g id="a_node3"><a xlink:href="classmfem_1_1L2ProjectionGridTransfer.html" target="_top" xlink:title="Transfer data between a coarse mesh and an embedded refined mesh using L2 projection. ">
<polygon fill="white" stroke="black" points="195.5,-0.5 195.5,-23.5 440.5,-23.5 440.5,-0.5 195.5,-0.5"/>
<text text-anchor="middle" x="318" y="-8.3" font-family="Helvetica,sans-Serif" font-size="14.00">mfem::L2ProjectionGridTransfer</text>
</a>
</g>
</g>
<!-- Node1&#45;&gt;Node3 -->
<g id="edge2" class="edge"><title>Node1&#45;&gt;Node3</title>
<path fill="none" stroke="midnightblue" d="M167.704,-25.2288C176.758,-24.4265 186.07,-23.6014 195.408,-22.7739"/>
<polygon fill="midnightblue" stroke="midnightblue" points="167.255,-21.7548 157.603,-26.1238 167.873,-28.7274 167.255,-21.7548"/>
</g>
</g>
</svg>
