<?xml version="1.0" encoding="UTF-8" standalone="no"?>
<!DOCTYPE svg PUBLIC "-//W3C//DTD SVG 1.1//EN"
 "http://www.w3.org/Graphics/SVG/1.1/DTD/svg11.dtd">
<!-- Generated by graphviz version 2.30.1 (20200304.1809)
 -->
<!-- Title: Graphical Class Hierarchy Pages: 1 -->
<svg width="494pt" height="426pt"
 viewBox="0.00 0.00 494.00 426.00" xmlns="http://www.w3.org/2000/svg" xmlns:xlink="http://www.w3.org/1999/xlink">
<g id="graph0" class="graph" transform="scale(1 1) rotate(0) translate(4 422)">
<title>Graphical Class Hierarchy</title>
<polygon fill="white" stroke="white" points="-4,5 -4,-422 491,-422 491,5 -4,5"/>
<!-- Node1 -->
<g id="node1" class="node"><title>Node1</title>
<g id="a_node1"><a xlink:href="classmfem_1_1MatrixCoefficient.html" target="_top" xlink:title="mfem::MatrixCoefficient">
<polygon fill="white" stroke="black" points="0,-205.5 0,-228.5 188,-228.5 188,-205.5 0,-205.5"/>
<text text-anchor="middle" x="94" y="-213.3" font-family="Helvetica,sans-Serif" font-size="14.00">mfem::MatrixCoefficient</text>
</a>
</g>
</g>
<!-- Node2 -->
<g id="node2" class="node"><title>Node2</title>
<g id="a_node2"><a xlink:href="classmfem_1_1IdentityMatrixCoefficient.html" target="_top" xlink:title="Matrix coefficient defined as the identity of dimension d. ">
<polygon fill="white" stroke="black" points="234,-394.5 234,-417.5 476,-417.5 476,-394.5 234,-394.5"/>
<text text-anchor="middle" x="355" y="-402.3" font-family="Helvetica,sans-Serif" font-size="14.00">mfem::IdentityMatrixCoefficient</text>
</a>
</g>
</g>
<!-- Node1&#45;&gt;Node2 -->
<g id="edge1" class="edge"><title>Node1&#45;&gt;Node2</title>
<path fill="none" stroke="midnightblue" d="M104.56,-238.057C122.355,-274.62 164.252,-349.343 224,-385 230.184,-388.691 236.814,-391.791 243.688,-394.39"/>
<polygon fill="midnightblue" stroke="midnightblue" points="107.629,-236.36 100.185,-228.821 101.302,-239.357 107.629,-236.36"/>
</g>
<!-- Node3 -->
<g id="node3" class="node"><title>Node3</title>
<g id="a_node3"><a xlink:href="classmfem_1_1InverseMatrixCoefficient.html" target="_top" xlink:title="Matrix coefficient defined as the inverse a matrix. ">
<polygon fill="white" stroke="black" points="234,-352.5 234,-375.5 476,-375.5 476,-352.5 234,-352.5"/>
<text text-anchor="middle" x="355" y="-360.3" font-family="Helvetica,sans-Serif" font-size="14.00">mfem::InverseMatrixCoefficient</text>
</a>
</g>
</g>
<!-- Node1&#45;&gt;Node3 -->
<g id="edge2" class="edge"><title>Node1&#45;&gt;Node3</title>
<path fill="none" stroke="midnightblue" d="M109.207,-237.222C130.556,-265.898 173.801,-317.696 224,-343 231.452,-346.756 239.421,-349.868 247.609,-352.443"/>
<polygon fill="midnightblue" stroke="midnightblue" points="111.78,-234.81 103.064,-228.787 106.122,-238.931 111.78,-234.81"/>
</g>
<!-- Node4 -->
<g id="node4" class="node"><title>Node4</title>
<g id="a_node4"><a xlink:href="classmfem_1_1MatrixArrayCoefficient.html" target="_top" xlink:title="mfem::MatrixArrayCoefficient">
<polygon fill="white" stroke="black" points="241.5,-310.5 241.5,-333.5 468.5,-333.5 468.5,-310.5 241.5,-310.5"/>
<text text-anchor="middle" x="355" y="-318.3" font-family="Helvetica,sans-Serif" font-size="14.00">mfem::MatrixArrayCoefficient</text>
</a>
</g>
</g>
<!-- Node1&#45;&gt;Node4 -->
<g id="edge3" class="edge"><title>Node1&#45;&gt;Node4</title>
<path fill="none" stroke="midnightblue" d="M116.503,-235.099C140.92,-254.627 182.744,-285.061 224,-301 233.81,-304.79 244.292,-307.896 254.887,-310.441"/>
<polygon fill="midnightblue" stroke="midnightblue" points="118.588,-232.283 108.621,-228.688 114.17,-237.714 118.588,-232.283"/>
</g>
<!-- Node5 -->
<g id="node5" class="node"><title>Node5</title>
<g id="a_node5"><a xlink:href="classmfem_1_1MatrixConstantCoefficient.html" target="_top" xlink:title="mfem::MatrixConstantCoefficient">
<polygon fill="white" stroke="black" points="229,-268.5 229,-291.5 481,-291.5 481,-268.5 229,-268.5"/>
<text text-anchor="middle" x="355" y="-276.3" font-family="Helvetica,sans-Serif" font-size="14.00">mfem::MatrixConstantCoefficient</text>
</a>
</g>
</g>
<!-- Node1&#45;&gt;Node5 -->
<g id="edge4" class="edge"><title>Node1&#45;&gt;Node5</title>
<path fill="none" stroke="midnightblue" d="M135.473,-231.962C160.663,-240.825 193.888,-251.712 224,-259 238.888,-262.603 254.887,-265.759 270.397,-268.454"/>
<polygon fill="midnightblue" stroke="midnightblue" points="136.488,-228.608 125.893,-228.552 134.141,-235.202 136.488,-228.608"/>
</g>
<!-- Node6 -->
<g id="node6" class="node"><title>Node6</title>
<g id="a_node6"><a xlink:href="classmfem_1_1MatrixFunctionCoefficient.html" target="_top" xlink:title="mfem::MatrixFunctionCoefficient">
<polygon fill="white" stroke="black" points="231,-226.5 231,-249.5 479,-249.5 479,-226.5 231,-226.5"/>
<text text-anchor="middle" x="355" y="-234.3" font-family="Helvetica,sans-Serif" font-size="14.00">mfem::MatrixFunctionCoefficient</text>
</a>
</g>
</g>
<!-- Node1&#45;&gt;Node6 -->
<g id="edge5" class="edge"><title>Node1&#45;&gt;Node6</title>
<path fill="none" stroke="midnightblue" d="M198.244,-225.371C208.873,-226.233 219.749,-227.115 230.568,-227.992"/>
<polygon fill="midnightblue" stroke="midnightblue" points="198.389,-221.872 188.139,-224.552 197.823,-228.849 198.389,-221.872"/>
</g>
<!-- Node7 -->
<g id="node7" class="node"><title>Node7</title>
<g id="a_node7"><a xlink:href="classmfem_1_1MatrixRestrictedCoefficient.html" target="_top" xlink:title="MatrixCoefficient defined on a subset of domain or boundary attributes. ">
<polygon fill="white" stroke="black" points="225,-184.5 225,-207.5 485,-207.5 485,-184.5 225,-184.5"/>
<text text-anchor="middle" x="355" y="-192.3" font-family="Helvetica,sans-Serif" font-size="14.00">mfem::MatrixRestrictedCoefficient</text>
</a>
</g>
</g>
<!-- Node1&#45;&gt;Node7 -->
<g id="edge6" class="edge"><title>Node1&#45;&gt;Node7</title>
<path fill="none" stroke="midnightblue" d="M198.269,-208.627C206.971,-207.921 215.837,-207.202 224.703,-206.484"/>
<polygon fill="midnightblue" stroke="midnightblue" points="197.823,-205.151 188.139,-209.448 198.389,-212.128 197.823,-205.151"/>
</g>
<!-- Node8 -->
<g id="node8" class="node"><title>Node8</title>
<g id="a_node8"><a xlink:href="classmfem_1_1MatrixSumCoefficient.html" target="_top" xlink:title="Matrix coefficient defined as the sum of two matrix coefficients. ">
<polygon fill="white" stroke="black" points="244.5,-142.5 244.5,-165.5 465.5,-165.5 465.5,-142.5 244.5,-142.5"/>
<text text-anchor="middle" x="355" y="-150.3" font-family="Helvetica,sans-Serif" font-size="14.00">mfem::MatrixSumCoefficient</text>
</a>
</g>
</g>
<!-- Node1&#45;&gt;Node8 -->
<g id="edge7" class="edge"><title>Node1&#45;&gt;Node8</title>
<path fill="none" stroke="midnightblue" d="M135.473,-202.038C160.663,-193.175 193.888,-182.288 224,-175 238.888,-171.397 254.887,-168.241 270.397,-165.546"/>
<polygon fill="midnightblue" stroke="midnightblue" points="134.141,-198.798 125.893,-205.448 136.488,-205.392 134.141,-198.798"/>
</g>
<!-- Node9 -->
<g id="node9" class="node"><title>Node9</title>
<g id="a_node9"><a xlink:href="classmfem_1_1OuterProductCoefficient.html" target="_top" xlink:title="Matrix coefficient defined as the outer product of two vectors. ">
<polygon fill="white" stroke="black" points="235.5,-100.5 235.5,-123.5 474.5,-123.5 474.5,-100.5 235.5,-100.5"/>
<text text-anchor="middle" x="355" y="-108.3" font-family="Helvetica,sans-Serif" font-size="14.00">mfem::OuterProductCoefficient</text>
</a>
</g>
</g>
<!-- Node1&#45;&gt;Node9 -->
<g id="edge8" class="edge"><title>Node1&#45;&gt;Node9</title>
<path fill="none" stroke="midnightblue" d="M116.503,-198.901C140.92,-179.373 182.744,-148.939 224,-133 233.81,-129.21 244.292,-126.104 254.887,-123.559"/>
<polygon fill="midnightblue" stroke="midnightblue" points="114.17,-196.286 108.621,-205.312 118.588,-201.717 114.17,-196.286"/>
</g>
<!-- Node10 -->
<g id="node10" class="node"><title>Node10</title>
<g id="a_node10"><a xlink:href="classmfem_1_1ScalarMatrixProductCoefficient.html" target="_top" xlink:title="Matrix coefficient defined as a product of a scalar and a matrix. ">
<polygon fill="white" stroke="black" points="249.5,-43 249.5,-81 460.5,-81 460.5,-43 249.5,-43"/>
<text text-anchor="start" x="257.5" y="-65.8" font-family="Helvetica,sans-Serif" font-size="14.00">mfem::ScalarMatrixProduct</text>
<text text-anchor="middle" x="355" y="-50.8" font-family="Helvetica,sans-Serif" font-size="14.00">Coefficient</text>
</a>
</g>
</g>
<!-- Node1&#45;&gt;Node10 -->
<g id="edge9" class="edge"><title>Node1&#45;&gt;Node10</title>
<path fill="none" stroke="midnightblue" d="M109.414,-197.173C131.017,-168.985 174.574,-117.781 224,-91 231.929,-86.7036 240.46,-83.0432 249.224,-79.9247"/>
<polygon fill="midnightblue" stroke="midnightblue" points="106.399,-195.359 103.191,-205.456 111.996,-199.563 106.399,-195.359"/>
</g>
<!-- Node11 -->
<g id="node11" class="node"><title>Node11</title>
<g id="a_node11"><a xlink:href="classmfem_1_1TransposeMatrixCoefficient.html" target="_top" xlink:title="Matrix coefficient defined as the transpose a matrix. ">
<polygon fill="white" stroke="black" points="224.5,-0.5 224.5,-23.5 485.5,-23.5 485.5,-0.5 224.5,-0.5"/>
<text text-anchor="middle" x="355" y="-8.3" font-family="Helvetica,sans-Serif" font-size="14.00">mfem::TransposeMatrixCoefficient</text>
</a>
</g>
</g>
<!-- Node1&#45;&gt;Node11 -->
<g id="edge10" class="edge"><title>Node1&#45;&gt;Node11</title>
<path fill="none" stroke="midnightblue" d="M103.354,-195.777C119.927,-156.704 160.903,-73.7534 224,-34 230.585,-29.8514 237.714,-26.4167 245.126,-23.5794"/>
<polygon fill="midnightblue" stroke="midnightblue" points="100.07,-194.56 99.4973,-205.139 106.543,-197.226 100.07,-194.56"/>
</g>
</g>
</svg>
