<?xml version="1.0" encoding="UTF-8" standalone="no"?>
<!DOCTYPE svg PUBLIC "-//W3C//DTD SVG 1.1//EN"
 "http://www.w3.org/Graphics/SVG/1.1/DTD/svg11.dtd">
<!-- Generated by graphviz version 2.30.1 (20200304.1809)
 -->
<!-- Title: mfem::FiniteElementCollection Pages: 1 -->
<svg width="342pt" height="216pt"
 viewBox="0.00 0.00 342.00 216.00" xmlns="http://www.w3.org/2000/svg" xmlns:xlink="http://www.w3.org/1999/xlink">
<g id="graph0" class="graph" transform="scale(1 1) rotate(0) translate(4 212)">
<title>mfem::FiniteElementCollection</title>
<polygon fill="white" stroke="white" points="-4,5 -4,-212 339,-212 339,5 -4,5"/>
<!-- Node43 -->
<g id="node1" class="node"><title>Node43</title>
<polygon fill="#bfbfbf" stroke="black" points="98,-184.5 98,-207.5 334,-207.5 334,-184.5 98,-184.5"/>
<text text-anchor="middle" x="216" y="-192.3" font-family="Helvetica,sans-Serif" font-size="14.00">mfem::FiniteElementCollection</text>
</g>
<!-- Node45 -->
<g id="node3" class="node"><title>Node45</title>
<g id="a_node3"><a xlink:href="classmfem_1_1Memory.html" target="_top" xlink:title="mfem::Memory\&lt; mfem\l::FiniteElementCollection *\&gt;">
<polygon fill="white" stroke="black" points="-0.5,-93 -0.5,-131 216.5,-131 216.5,-93 -0.5,-93"/>
<text text-anchor="start" x="7.5" y="-115.8" font-family="Helvetica,sans-Serif" font-size="14.00">mfem::Memory&lt; mfem</text>
<text text-anchor="middle" x="108" y="-100.8" font-family="Helvetica,sans-Serif" font-size="14.00">::FiniteElementCollection *&gt;</text>
</a>
</g>
</g>
<!-- Node43&#45;&gt;Node45 -->
<g id="edge3" class="edge"><title>Node43&#45;&gt;Node45</title>
<path fill="none" stroke="#9a32cd" stroke-dasharray="5,2" d="M193.696,-178.066C175.711,-164.41 150.463,-145.24 132.032,-131.246"/>
<polygon fill="#9a32cd" stroke="#9a32cd" points="191.8,-181.02 201.881,-184.28 196.033,-175.445 191.8,-181.02"/>
<text text-anchor="middle" x="196" y="-154.3" font-family="Helvetica,sans-Serif" font-size="14.00"> h_ptr</text>
</g>
<!-- Node44 -->
<g id="node2" class="node"><title>Node44</title>
<g id="a_node2"><a xlink:href="classmfem_1_1Array.html" target="_top" xlink:title="mfem::Array\&lt; mfem::\lFiniteElementCollection *\&gt;">
<polygon fill="white" stroke="black" points="100,-1 100,-39 308,-39 308,-1 100,-1"/>
<text text-anchor="start" x="108" y="-23.8" font-family="Helvetica,sans-Serif" font-size="14.00">mfem::Array&lt; mfem::</text>
<text text-anchor="middle" x="204" y="-8.8" font-family="Helvetica,sans-Serif" font-size="14.00">FiniteElementCollection *&gt;</text>
</a>
</g>
</g>
<!-- Node44&#45;&gt;Node43 -->
<g id="edge1" class="edge"><title>Node44&#45;&gt;Node43</title>
<path fill="none" stroke="#9a32cd" stroke-dasharray="5,2" d="M214.232,-48.7739C218.474,-61.7178 222.893,-77.4447 225,-92 229.861,-125.576 222.639,-165.716 218.526,-184.427"/>
<polygon fill="#9a32cd" stroke="#9a32cd" points="217.46,-47.3965 210.914,-39.0654 210.836,-49.6599 217.46,-47.3965"/>
<text text-anchor="middle" x="268" y="-108.3" font-family="Helvetica,sans-Serif" font-size="14.00"> var_orders</text>
</g>
<!-- Node45&#45;&gt;Node44 -->
<g id="edge2" class="edge"><title>Node45&#45;&gt;Node44</title>
<path fill="none" stroke="#9a32cd" stroke-dasharray="5,2" d="M134.842,-85.836C150.654,-71.0121 170.296,-52.5978 184.602,-39.1858"/>
<polygon fill="#9a32cd" stroke="#9a32cd" points="132.329,-83.3943 127.427,-92.7872 137.116,-88.5011 132.329,-83.3943"/>
<text text-anchor="middle" x="180.5" y="-62.3" font-family="Helvetica,sans-Serif" font-size="14.00"> data</text>
</g>
</g>
</svg>
