<?xml version="1.0" encoding="UTF-8" standalone="no"?>
<!DOCTYPE svg PUBLIC "-//W3C//DTD SVG 1.1//EN"
 "http://www.w3.org/Graphics/SVG/1.1/DTD/svg11.dtd">
<!-- Generated by graphviz version 2.30.1 (20200304.1809)
 -->
<!-- Title: mfem::ParMesh Pages: 1 -->
<svg width="345pt" height="152pt"
 viewBox="0.00 0.00 345.00 152.00" xmlns="http://www.w3.org/2000/svg" xmlns:xlink="http://www.w3.org/1999/xlink">
<g id="graph0" class="graph" transform="scale(1 1) rotate(0) translate(4 148)">
<title>mfem::ParMesh</title>
<polygon fill="white" stroke="white" points="-4,5 -4,-148 342,-148 342,5 -4,5"/>
<!-- Node1 -->
<g id="node1" class="node"><title>Node1</title>
<polygon fill="#bfbfbf" stroke="black" points="107,-60.5 107,-83.5 235,-83.5 235,-60.5 107,-60.5"/>
<text text-anchor="middle" x="171" y="-68.3" font-family="Helvetica,sans-Serif" font-size="14.00">mfem::ParMesh</text>
</g>
<!-- Node3 -->
<g id="node3" class="node"><title>Node3</title>
<g id="a_node3"><a xlink:href="classmfem_1_1ParPumiMesh.html" target="_top" xlink:title="Class for PUMI parallel meshes. ">
<polygon fill="white" stroke="black" points="0,-0.5 0,-23.5 164,-23.5 164,-0.5 0,-0.5"/>
<text text-anchor="middle" x="82" y="-8.3" font-family="Helvetica,sans-Serif" font-size="14.00">mfem::ParPumiMesh</text>
</a>
</g>
</g>
<!-- Node1&#45;&gt;Node3 -->
<g id="edge2" class="edge"><title>Node1&#45;&gt;Node3</title>
<path fill="none" stroke="midnightblue" d="M146.174,-54.8215C130.844,-44.8312 111.614,-32.2993 98.2205,-23.5707"/>
<polygon fill="midnightblue" stroke="midnightblue" points="144.387,-57.8344 154.676,-60.3619 148.209,-51.9698 144.387,-57.8344"/>
</g>
<!-- Node4 -->
<g id="node4" class="node"><title>Node4</title>
<g id="a_node4"><a xlink:href="classmfem_1_1ParSubMesh.html" target="_top" xlink:title="Subdomain representation of a topological parent in another ParMesh. ">
<polygon fill="white" stroke="black" points="182.5,-0.5 182.5,-23.5 337.5,-23.5 337.5,-0.5 182.5,-0.5"/>
<text text-anchor="middle" x="260" y="-8.3" font-family="Helvetica,sans-Serif" font-size="14.00">mfem::ParSubMesh</text>
</a>
</g>
</g>
<!-- Node1&#45;&gt;Node4 -->
<g id="edge3" class="edge"><title>Node1&#45;&gt;Node4</title>
<path fill="none" stroke="midnightblue" d="M195.826,-54.8215C211.156,-44.8312 230.386,-32.2993 243.78,-23.5707"/>
<polygon fill="midnightblue" stroke="midnightblue" points="193.791,-51.9698 187.324,-60.3619 197.613,-57.8344 193.791,-51.9698"/>
</g>
<!-- Node2 -->
<g id="node2" class="node"><title>Node2</title>
<g id="a_node2"><a xlink:href="classmfem_1_1Mesh.html" target="_top" xlink:title="mfem::Mesh">
<polygon fill="white" stroke="black" points="118,-120.5 118,-143.5 224,-143.5 224,-120.5 118,-120.5"/>
<text text-anchor="middle" x="171" y="-128.3" font-family="Helvetica,sans-Serif" font-size="14.00">mfem::Mesh</text>
</a>
</g>
</g>
<!-- Node2&#45;&gt;Node1 -->
<g id="edge1" class="edge"><title>Node2&#45;&gt;Node1</title>
<path fill="none" stroke="midnightblue" d="M171,-110.191C171,-101.168 171,-90.9941 171,-83.5707"/>
<polygon fill="midnightblue" stroke="midnightblue" points="167.5,-110.362 171,-120.362 174.5,-110.362 167.5,-110.362"/>
</g>
</g>
</svg>
