<?xml version="1.0" encoding="UTF-8" standalone="no"?>
<!DOCTYPE svg PUBLIC "-//W3C//DTD SVG 1.1//EN"
 "http://www.w3.org/Graphics/SVG/1.1/DTD/svg11.dtd">
<!-- Generated by graphviz version 2.30.1 (20200304.1809)
 -->
<!-- Title: mfem::GradientInterpolator Pages: 1 -->
<svg width="402pt" height="540pt"
 viewBox="0.00 0.00 402.00 540.00" xmlns="http://www.w3.org/2000/svg" xmlns:xlink="http://www.w3.org/1999/xlink">
<g id="graph0" class="graph" transform="scale(1 1) rotate(0) translate(4 536)">
<title>mfem::GradientInterpolator</title>
<polygon fill="white" stroke="white" points="-4,5 -4,-536 399,-536 399,5 -4,5"/>
<!-- Node1 -->
<g id="node1" class="node"><title>Node1</title>
<polygon fill="#bfbfbf" stroke="black" points="91.5,-0.5 91.5,-23.5 306.5,-23.5 306.5,-0.5 91.5,-0.5"/>
<text text-anchor="middle" x="199" y="-8.3" font-family="Helvetica,sans-Serif" font-size="14.00">mfem::GradientInterpolator</text>
</g>
<!-- Node2 -->
<g id="node2" class="node"><title>Node2</title>
<g id="a_node2"><a xlink:href="classmfem_1_1DiscreteInterpolator.html" target="_top" xlink:title="mfem::DiscreteInterpolator">
<polygon fill="white" stroke="black" points="93,-62.5 93,-85.5 305,-85.5 305,-62.5 93,-62.5"/>
<text text-anchor="middle" x="199" y="-70.3" font-family="Helvetica,sans-Serif" font-size="14.00">mfem::DiscreteInterpolator</text>
</a>
</g>
</g>
<!-- Node2&#45;&gt;Node1 -->
<g id="edge1" class="edge"><title>Node2&#45;&gt;Node1</title>
<path fill="none" stroke="midnightblue" d="M199,-52.2312C199,-42.5922 199,-31.5444 199,-23.6339"/>
<polygon fill="midnightblue" stroke="midnightblue" points="195.5,-52.2732 199,-62.2732 202.5,-52.2732 195.5,-52.2732"/>
</g>
<!-- Node3 -->
<g id="node3" class="node"><title>Node3</title>
<g id="a_node3"><a xlink:href="classmfem_1_1BilinearFormIntegrator.html" target="_top" xlink:title="Abstract base class BilinearFormIntegrator. ">
<polygon fill="white" stroke="black" points="83.5,-124.5 83.5,-147.5 314.5,-147.5 314.5,-124.5 83.5,-124.5"/>
<text text-anchor="middle" x="199" y="-132.3" font-family="Helvetica,sans-Serif" font-size="14.00">mfem::BilinearFormIntegrator</text>
</a>
</g>
</g>
<!-- Node3&#45;&gt;Node2 -->
<g id="edge2" class="edge"><title>Node3&#45;&gt;Node2</title>
<path fill="none" stroke="midnightblue" d="M199,-114.231C199,-104.592 199,-93.5444 199,-85.6339"/>
<polygon fill="midnightblue" stroke="midnightblue" points="195.5,-114.273 199,-124.273 202.5,-114.273 195.5,-114.273"/>
</g>
<!-- Node4 -->
<g id="node4" class="node"><title>Node4</title>
<g id="a_node4"><a xlink:href="classmfem_1_1NonlinearFormIntegrator.html" target="_top" xlink:title="This class is used to express the local action of a general nonlinear finite element operator...">
<polygon fill="white" stroke="black" points="76,-186.5 76,-209.5 322,-209.5 322,-186.5 76,-186.5"/>
<text text-anchor="middle" x="199" y="-194.3" font-family="Helvetica,sans-Serif" font-size="14.00">mfem::NonlinearFormIntegrator</text>
</a>
</g>
</g>
<!-- Node4&#45;&gt;Node3 -->
<g id="edge3" class="edge"><title>Node4&#45;&gt;Node3</title>
<path fill="none" stroke="midnightblue" d="M199,-176.231C199,-166.592 199,-155.544 199,-147.634"/>
<polygon fill="midnightblue" stroke="midnightblue" points="195.5,-176.273 199,-186.273 202.5,-176.273 195.5,-176.273"/>
</g>
<!-- Node5 -->
<g id="node5" class="node"><title>Node5</title>
<g id="a_node5"><a xlink:href="classmfem_1_1ceed_1_1Operator.html" target="_top" xlink:title="mfem::ceed::Operator">
<polygon fill="white" stroke="black" points="0,-262.5 0,-285.5 176,-285.5 176,-262.5 0,-262.5"/>
<text text-anchor="middle" x="88" y="-270.3" font-family="Helvetica,sans-Serif" font-size="14.00">mfem::ceed::Operator</text>
</a>
</g>
</g>
<!-- Node5&#45;&gt;Node4 -->
<g id="edge4" class="edge"><title>Node5&#45;&gt;Node4</title>
<path fill="none" stroke="#9a32cd" stroke-dasharray="5,2" d="M112.501,-256.666C134.014,-242.324 164.675,-221.883 183.126,-209.583"/>
<polygon fill="#9a32cd" stroke="#9a32cd" points="110.283,-253.938 103.904,-262.398 114.166,-259.763 110.283,-253.938"/>
<text text-anchor="middle" x="183" y="-232.3" font-family="Helvetica,sans-Serif" font-size="14.00"> ceedOp</text>
</g>
<!-- Node6 -->
<g id="node6" class="node"><title>Node6</title>
<g id="a_node6"><a xlink:href="classmfem_1_1Operator.html" target="_top" xlink:title="Abstract operator. ">
<polygon fill="white" stroke="black" points="21.5,-332.5 21.5,-355.5 154.5,-355.5 154.5,-332.5 21.5,-332.5"/>
<text text-anchor="middle" x="88" y="-340.3" font-family="Helvetica,sans-Serif" font-size="14.00">mfem::Operator</text>
</a>
</g>
</g>
<!-- Node6&#45;&gt;Node5 -->
<g id="edge5" class="edge"><title>Node6&#45;&gt;Node5</title>
<path fill="none" stroke="midnightblue" d="M88,-322.272C88,-310.228 88,-295.549 88,-285.775"/>
<polygon fill="midnightblue" stroke="midnightblue" points="84.5001,-322.375 88,-332.375 91.5001,-322.375 84.5001,-322.375"/>
</g>
<!-- Node7 -->
<g id="node7" class="node"><title>Node7</title>
<g id="a_node7"><a xlink:href="classmfem_1_1IntegrationRule.html" target="_top" xlink:title="Class for an integration rule &#45; an Array of IntegrationPoint. ">
<polygon fill="white" stroke="black" points="194,-262.5 194,-285.5 372,-285.5 372,-262.5 194,-262.5"/>
<text text-anchor="middle" x="283" y="-270.3" font-family="Helvetica,sans-Serif" font-size="14.00">mfem::IntegrationRule</text>
</a>
</g>
</g>
<!-- Node7&#45;&gt;Node4 -->
<g id="edge6" class="edge"><title>Node7&#45;&gt;Node4</title>
<path fill="none" stroke="#9a32cd" stroke-dasharray="5,2" d="M263.136,-255.501C246.942,-241.235 224.601,-221.554 211.013,-209.583"/>
<polygon fill="#9a32cd" stroke="#9a32cd" points="261.148,-258.414 270.965,-262.398 265.775,-253.161 261.148,-258.414"/>
<text text-anchor="middle" x="275.5" y="-232.3" font-family="Helvetica,sans-Serif" font-size="14.00"> IntRule</text>
</g>
<!-- Node8 -->
<g id="node8" class="node"><title>Node8</title>
<g id="a_node8"><a xlink:href="classmfem_1_1Array.html" target="_top" xlink:title="mfem::Array\&lt; Integration\lPoint \&gt;">
<polygon fill="white" stroke="black" points="181.5,-325 181.5,-363 384.5,-363 384.5,-325 181.5,-325"/>
<text text-anchor="start" x="189.5" y="-347.8" font-family="Helvetica,sans-Serif" font-size="14.00">mfem::Array&lt; Integration</text>
<text text-anchor="middle" x="283" y="-332.8" font-family="Helvetica,sans-Serif" font-size="14.00">Point &gt;</text>
</a>
</g>
</g>
<!-- Node8&#45;&gt;Node7 -->
<g id="edge7" class="edge"><title>Node8&#45;&gt;Node7</title>
<path fill="none" stroke="midnightblue" d="M283,-314.599C283,-304.442 283,-293.6 283,-285.834"/>
<polygon fill="midnightblue" stroke="midnightblue" points="279.5,-314.777 283,-324.777 286.5,-314.777 279.5,-314.777"/>
</g>
<!-- Node9 -->
<g id="node9" class="node"><title>Node9</title>
<g id="a_node9"><a xlink:href="classmfem_1_1Memory.html" target="_top" xlink:title="mfem::Memory\&lt; Integration\lPoint \&gt;">
<polygon fill="white" stroke="black" points="172,-417 172,-455 394,-455 394,-417 172,-417"/>
<text text-anchor="start" x="180" y="-439.8" font-family="Helvetica,sans-Serif" font-size="14.00">mfem::Memory&lt; Integration</text>
<text text-anchor="middle" x="283" y="-424.8" font-family="Helvetica,sans-Serif" font-size="14.00">Point &gt;</text>
</a>
</g>
</g>
<!-- Node9&#45;&gt;Node8 -->
<g id="edge8" class="edge"><title>Node9&#45;&gt;Node8</title>
<path fill="none" stroke="#9a32cd" stroke-dasharray="5,2" d="M283,-406.548C283,-392.36 283,-375.622 283,-363.186"/>
<polygon fill="#9a32cd" stroke="#9a32cd" points="279.5,-406.787 283,-416.787 286.5,-406.787 279.5,-406.787"/>
<text text-anchor="middle" x="301.5" y="-386.3" font-family="Helvetica,sans-Serif" font-size="14.00"> data</text>
</g>
<!-- Node10 -->
<g id="node10" class="node"><title>Node10</title>
<g id="a_node10"><a xlink:href="classmfem_1_1IntegrationPoint.html" target="_top" xlink:title="Class for integration point with weight. ">
<polygon fill="white" stroke="black" points="192,-508.5 192,-531.5 374,-531.5 374,-508.5 192,-508.5"/>
<text text-anchor="middle" x="283" y="-516.3" font-family="Helvetica,sans-Serif" font-size="14.00">mfem::IntegrationPoint</text>
</a>
</g>
</g>
<!-- Node10&#45;&gt;Node9 -->
<g id="edge9" class="edge"><title>Node10&#45;&gt;Node9</title>
<path fill="none" stroke="#9a32cd" stroke-dasharray="5,2" d="M283,-498.213C283,-484.967 283,-467.968 283,-455.246"/>
<polygon fill="#9a32cd" stroke="#9a32cd" points="279.5,-498.28 283,-508.28 286.5,-498.28 279.5,-498.28"/>
<text text-anchor="middle" x="304" y="-478.3" font-family="Helvetica,sans-Serif" font-size="14.00"> h_ptr</text>
</g>
</g>
</svg>
