<?xml version="1.0" encoding="UTF-8" standalone="no"?>
<!DOCTYPE svg PUBLIC "-//W3C//DTD SVG 1.1//EN"
 "http://www.w3.org/Graphics/SVG/1.1/DTD/svg11.dtd">
<!-- Generated by graphviz version 2.30.1 (20200304.1809)
 -->
<!-- Title: mfem::MixedDirectionalDerivativeIntegrator Pages: 1 -->
<svg width="489pt" height="570pt"
 viewBox="0.00 0.00 489.00 570.00" xmlns="http://www.w3.org/2000/svg" xmlns:xlink="http://www.w3.org/1999/xlink">
<g id="graph0" class="graph" transform="scale(1 1) rotate(0) translate(4 566)">
<title>mfem::MixedDirectionalDerivativeIntegrator</title>
<polygon fill="white" stroke="white" points="-4,5 -4,-566 486,-566 486,5 -4,5"/>
<!-- Node1 -->
<g id="node1" class="node"><title>Node1</title>
<polygon fill="#bfbfbf" stroke="black" points="198,-1 198,-39 458,-39 458,-1 198,-1"/>
<text text-anchor="start" x="206" y="-23.8" font-family="Helvetica,sans-Serif" font-size="14.00">mfem::MixedDirectionalDerivative</text>
<text text-anchor="middle" x="328" y="-8.8" font-family="Helvetica,sans-Serif" font-size="14.00">Integrator</text>
</g>
<!-- Node2 -->
<g id="node2" class="node"><title>Node2</title>
<g id="a_node2"><a xlink:href="classmfem_1_1MixedScalarVectorIntegrator.html" target="_top" xlink:title="mfem::MixedScalarVectorIntegrator">
<polygon fill="white" stroke="black" points="192,-78.5 192,-101.5 464,-101.5 464,-78.5 192,-78.5"/>
<text text-anchor="middle" x="328" y="-86.3" font-family="Helvetica,sans-Serif" font-size="14.00">mfem::MixedScalarVectorIntegrator</text>
</a>
</g>
</g>
<!-- Node2&#45;&gt;Node1 -->
<g id="edge1" class="edge"><title>Node2&#45;&gt;Node1</title>
<path fill="none" stroke="midnightblue" d="M328,-68.098C328,-58.8689 328,-48.1198 328,-39.2228"/>
<polygon fill="midnightblue" stroke="midnightblue" points="324.5,-68.375 328,-78.375 331.5,-68.375 324.5,-68.375"/>
</g>
<!-- Node3 -->
<g id="node3" class="node"><title>Node3</title>
<g id="a_node3"><a xlink:href="classmfem_1_1BilinearFormIntegrator.html" target="_top" xlink:title="Abstract base class BilinearFormIntegrator. ">
<polygon fill="white" stroke="black" points="41.5,-154.5 41.5,-177.5 272.5,-177.5 272.5,-154.5 41.5,-154.5"/>
<text text-anchor="middle" x="157" y="-162.3" font-family="Helvetica,sans-Serif" font-size="14.00">mfem::BilinearFormIntegrator</text>
</a>
</g>
</g>
<!-- Node3&#45;&gt;Node2 -->
<g id="edge2" class="edge"><title>Node3&#45;&gt;Node2</title>
<path fill="none" stroke="midnightblue" d="M190.821,-150.364C224.061,-135.98 273.98,-114.377 303.545,-101.583"/>
<polygon fill="midnightblue" stroke="midnightblue" points="189.288,-147.214 181.5,-154.398 192.068,-153.638 189.288,-147.214"/>
</g>
<!-- Node4 -->
<g id="node4" class="node"><title>Node4</title>
<g id="a_node4"><a xlink:href="classmfem_1_1NonlinearFormIntegrator.html" target="_top" xlink:title="This class is used to express the local action of a general nonlinear finite element operator...">
<polygon fill="white" stroke="black" points="34,-216.5 34,-239.5 280,-239.5 280,-216.5 34,-216.5"/>
<text text-anchor="middle" x="157" y="-224.3" font-family="Helvetica,sans-Serif" font-size="14.00">mfem::NonlinearFormIntegrator</text>
</a>
</g>
</g>
<!-- Node4&#45;&gt;Node3 -->
<g id="edge3" class="edge"><title>Node4&#45;&gt;Node3</title>
<path fill="none" stroke="midnightblue" d="M157,-206.231C157,-196.592 157,-185.544 157,-177.634"/>
<polygon fill="midnightblue" stroke="midnightblue" points="153.5,-206.273 157,-216.273 160.5,-206.273 153.5,-206.273"/>
</g>
<!-- Node5 -->
<g id="node5" class="node"><title>Node5</title>
<g id="a_node5"><a xlink:href="classmfem_1_1ceed_1_1Operator.html" target="_top" xlink:title="mfem::ceed::Operator">
<polygon fill="white" stroke="black" points="0,-292.5 0,-315.5 176,-315.5 176,-292.5 0,-292.5"/>
<text text-anchor="middle" x="88" y="-300.3" font-family="Helvetica,sans-Serif" font-size="14.00">mfem::ceed::Operator</text>
</a>
</g>
</g>
<!-- Node5&#45;&gt;Node4 -->
<g id="edge4" class="edge"><title>Node5&#45;&gt;Node4</title>
<path fill="none" stroke="#9a32cd" stroke-dasharray="5,2" d="M105.054,-284.71C118.29,-270.515 136.175,-251.334 147.132,-239.583"/>
<polygon fill="#9a32cd" stroke="#9a32cd" points="102.146,-282.697 97.886,-292.398 107.266,-287.471 102.146,-282.697"/>
<text text-anchor="middle" x="159" y="-262.3" font-family="Helvetica,sans-Serif" font-size="14.00"> ceedOp</text>
</g>
<!-- Node6 -->
<g id="node6" class="node"><title>Node6</title>
<g id="a_node6"><a xlink:href="classmfem_1_1Operator.html" target="_top" xlink:title="Abstract operator. ">
<polygon fill="white" stroke="black" points="21.5,-362.5 21.5,-385.5 154.5,-385.5 154.5,-362.5 21.5,-362.5"/>
<text text-anchor="middle" x="88" y="-370.3" font-family="Helvetica,sans-Serif" font-size="14.00">mfem::Operator</text>
</a>
</g>
</g>
<!-- Node6&#45;&gt;Node5 -->
<g id="edge5" class="edge"><title>Node6&#45;&gt;Node5</title>
<path fill="none" stroke="midnightblue" d="M88,-352.272C88,-340.228 88,-325.549 88,-315.775"/>
<polygon fill="midnightblue" stroke="midnightblue" points="84.5001,-352.375 88,-362.375 91.5001,-352.375 84.5001,-352.375"/>
</g>
<!-- Node7 -->
<g id="node7" class="node"><title>Node7</title>
<g id="a_node7"><a xlink:href="classmfem_1_1IntegrationRule.html" target="_top" xlink:title="Class for an integration rule &#45; an Array of IntegrationPoint. ">
<polygon fill="white" stroke="black" points="194,-292.5 194,-315.5 372,-315.5 372,-292.5 194,-292.5"/>
<text text-anchor="middle" x="283" y="-300.3" font-family="Helvetica,sans-Serif" font-size="14.00">mfem::IntegrationRule</text>
</a>
</g>
</g>
<!-- Node7&#45;&gt;Node4 -->
<g id="edge6" class="edge"><title>Node7&#45;&gt;Node4</title>
<path fill="none" stroke="#9a32cd" stroke-dasharray="5,2" d="M256.163,-287.239C231.702,-272.873 196.243,-252.048 175.019,-239.583"/>
<polygon fill="#9a32cd" stroke="#9a32cd" points="254.552,-290.351 264.947,-292.398 258.097,-284.315 254.552,-290.351"/>
<text text-anchor="middle" x="259.5" y="-262.3" font-family="Helvetica,sans-Serif" font-size="14.00"> IntRule</text>
</g>
<!-- Node8 -->
<g id="node8" class="node"><title>Node8</title>
<g id="a_node8"><a xlink:href="classmfem_1_1Array.html" target="_top" xlink:title="mfem::Array\&lt; Integration\lPoint \&gt;">
<polygon fill="white" stroke="black" points="181.5,-355 181.5,-393 384.5,-393 384.5,-355 181.5,-355"/>
<text text-anchor="start" x="189.5" y="-377.8" font-family="Helvetica,sans-Serif" font-size="14.00">mfem::Array&lt; Integration</text>
<text text-anchor="middle" x="283" y="-362.8" font-family="Helvetica,sans-Serif" font-size="14.00">Point &gt;</text>
</a>
</g>
</g>
<!-- Node8&#45;&gt;Node7 -->
<g id="edge7" class="edge"><title>Node8&#45;&gt;Node7</title>
<path fill="none" stroke="midnightblue" d="M283,-344.599C283,-334.442 283,-323.6 283,-315.834"/>
<polygon fill="midnightblue" stroke="midnightblue" points="279.5,-344.777 283,-354.777 286.5,-344.777 279.5,-344.777"/>
</g>
<!-- Node9 -->
<g id="node9" class="node"><title>Node9</title>
<g id="a_node9"><a xlink:href="classmfem_1_1Memory.html" target="_top" xlink:title="mfem::Memory\&lt; Integration\lPoint \&gt;">
<polygon fill="white" stroke="black" points="172,-447 172,-485 394,-485 394,-447 172,-447"/>
<text text-anchor="start" x="180" y="-469.8" font-family="Helvetica,sans-Serif" font-size="14.00">mfem::Memory&lt; Integration</text>
<text text-anchor="middle" x="283" y="-454.8" font-family="Helvetica,sans-Serif" font-size="14.00">Point &gt;</text>
</a>
</g>
</g>
<!-- Node9&#45;&gt;Node8 -->
<g id="edge8" class="edge"><title>Node9&#45;&gt;Node8</title>
<path fill="none" stroke="#9a32cd" stroke-dasharray="5,2" d="M283,-436.548C283,-422.36 283,-405.622 283,-393.186"/>
<polygon fill="#9a32cd" stroke="#9a32cd" points="279.5,-436.787 283,-446.787 286.5,-436.787 279.5,-436.787"/>
<text text-anchor="middle" x="301.5" y="-416.3" font-family="Helvetica,sans-Serif" font-size="14.00"> data</text>
</g>
<!-- Node10 -->
<g id="node10" class="node"><title>Node10</title>
<g id="a_node10"><a xlink:href="classmfem_1_1IntegrationPoint.html" target="_top" xlink:title="Class for integration point with weight. ">
<polygon fill="white" stroke="black" points="192,-538.5 192,-561.5 374,-561.5 374,-538.5 192,-538.5"/>
<text text-anchor="middle" x="283" y="-546.3" font-family="Helvetica,sans-Serif" font-size="14.00">mfem::IntegrationPoint</text>
</a>
</g>
</g>
<!-- Node10&#45;&gt;Node9 -->
<g id="edge9" class="edge"><title>Node10&#45;&gt;Node9</title>
<path fill="none" stroke="#9a32cd" stroke-dasharray="5,2" d="M283,-528.213C283,-514.967 283,-497.968 283,-485.246"/>
<polygon fill="#9a32cd" stroke="#9a32cd" points="279.5,-528.28 283,-538.28 286.5,-528.28 279.5,-528.28"/>
<text text-anchor="middle" x="304" y="-508.3" font-family="Helvetica,sans-Serif" font-size="14.00"> h_ptr</text>
</g>
<!-- Node11 -->
<g id="node11" class="node"><title>Node11</title>
<g id="a_node11"><a xlink:href="classmfem_1_1VectorCoefficient.html" target="_top" xlink:title="Base class for vector Coefficients that optionally depend on time and space. ">
<polygon fill="white" stroke="black" points="291,-154.5 291,-177.5 481,-177.5 481,-154.5 291,-154.5"/>
<text text-anchor="middle" x="386" y="-162.3" font-family="Helvetica,sans-Serif" font-size="14.00">mfem::VectorCoefficient</text>
</a>
</g>
</g>
<!-- Node11&#45;&gt;Node2 -->
<g id="edge10" class="edge"><title>Node11&#45;&gt;Node2</title>
<path fill="none" stroke="#9a32cd" stroke-dasharray="5,2" d="M371.352,-146.311C360.258,-132.157 345.419,-113.224 336.295,-101.583"/>
<polygon fill="#9a32cd" stroke="#9a32cd" points="368.766,-148.686 377.69,-154.398 374.276,-144.368 368.766,-148.686"/>
<text text-anchor="middle" x="376" y="-124.3" font-family="Helvetica,sans-Serif" font-size="14.00"> VQ</text>
</g>
</g>
</svg>
