<?xml version="1.0" encoding="UTF-8" standalone="no"?>
<!DOCTYPE svg PUBLIC "-//W3C//DTD SVG 1.1//EN"
 "http://www.w3.org/Graphics/SVG/1.1/DTD/svg11.dtd">
<!-- Generated by graphviz version 2.30.1 (20200304.1809)
 -->
<!-- Title: mfem::RefinedBiLinear2DFiniteElement Pages: 1 -->
<svg width="2288pt" height="279pt"
 viewBox="0.00 0.00 2288.00 279.00" xmlns="http://www.w3.org/2000/svg" xmlns:xlink="http://www.w3.org/1999/xlink">
<g id="graph0" class="graph" transform="scale(1 1) rotate(0) translate(4 275)">
<title>mfem::RefinedBiLinear2DFiniteElement</title>
<polygon fill="white" stroke="white" points="-4,5 -4,-275 2285,-275 2285,5 -4,5"/>
<!-- Node4 -->
<g id="node1" class="node"><title>Node4</title>
<polygon fill="#bfbfbf" stroke="black" points="2040.5,-32 2040.5,-70 2279.5,-70 2279.5,-32 2040.5,-32"/>
<text text-anchor="start" x="2048.5" y="-54.8" font-family="Helvetica,sans-Serif" font-size="14.00">mfem::RefinedBiLinear2DFinite</text>
<text text-anchor="middle" x="2160" y="-39.8" font-family="Helvetica,sans-Serif" font-size="14.00">Element</text>
</g>
<!-- Node5 -->
<g id="node2" class="node"><title>Node5</title>
<g id="a_node2"><a xlink:href="classmfem_1_1NodalFiniteElement.html" target="_top" xlink:title="Class for standard nodal finite elements. ">
<polygon fill="white" stroke="black" points="1758.5,-39.5 1758.5,-62.5 1965.5,-62.5 1965.5,-39.5 1758.5,-39.5"/>
<text text-anchor="middle" x="1862" y="-47.3" font-family="Helvetica,sans-Serif" font-size="14.00">mfem::NodalFiniteElement</text>
</a>
</g>
</g>
<!-- Node5&#45;&gt;Node4 -->
<g id="edge1" class="edge"><title>Node5&#45;&gt;Node4</title>
<path fill="none" stroke="midnightblue" d="M1975.97,-51C1997.09,-51 2019.21,-51 2040.49,-51"/>
<polygon fill="midnightblue" stroke="midnightblue" points="1975.7,-47.5001 1965.7,-51 1975.7,-54.5001 1975.7,-47.5001"/>
</g>
<!-- Node6 -->
<g id="node3" class="node"><title>Node6</title>
<g id="a_node3"><a xlink:href="classmfem_1_1ScalarFiniteElement.html" target="_top" xlink:title="Class for finite elements with basis functions that return scalar values. ">
<polygon fill="white" stroke="black" points="1392,-42.5 1392,-65.5 1602,-65.5 1602,-42.5 1392,-42.5"/>
<text text-anchor="middle" x="1497" y="-50.3" font-family="Helvetica,sans-Serif" font-size="14.00">mfem::ScalarFiniteElement</text>
</a>
</g>
</g>
<!-- Node6&#45;&gt;Node5 -->
<g id="edge2" class="edge"><title>Node6&#45;&gt;Node5</title>
<path fill="none" stroke="midnightblue" d="M1612.2,-53.0562C1658.97,-52.6696 1712.69,-52.2257 1758.22,-51.8494"/>
<polygon fill="midnightblue" stroke="midnightblue" points="1611.99,-49.5577 1602.02,-53.1403 1612.05,-56.5575 1611.99,-49.5577"/>
</g>
<!-- Node7 -->
<g id="node4" class="node"><title>Node7</title>
<g id="a_node4"><a xlink:href="classmfem_1_1FiniteElement.html" target="_top" xlink:title="Abstract class for all finite elements. ">
<polygon fill="white" stroke="black" points="1114,-95.5 1114,-118.5 1280,-118.5 1280,-95.5 1114,-95.5"/>
<text text-anchor="middle" x="1197" y="-103.3" font-family="Helvetica,sans-Serif" font-size="14.00">mfem::FiniteElement</text>
</a>
</g>
</g>
<!-- Node7&#45;&gt;Node6 -->
<g id="edge3" class="edge"><title>Node7&#45;&gt;Node6</title>
<path fill="none" stroke="midnightblue" d="M1272.53,-93.7439C1321.34,-85.0636 1384.49,-73.8315 1431.21,-65.5234"/>
<polygon fill="midnightblue" stroke="midnightblue" points="1271.89,-90.3027 1262.66,-95.4998 1273.12,-97.1946 1271.89,-90.3027"/>
</g>
<!-- Node10 -->
<g id="node7" class="node"><title>Node10</title>
<g id="a_node7"><a xlink:href="classmfem_1_1DofToQuad.html" target="_top" xlink:title="Structure representing the matrices/tensors needed to evaluate (in reference space) the values...">
<polygon fill="white" stroke="black" points="1423,-163.5 1423,-186.5 1571,-186.5 1571,-163.5 1423,-163.5"/>
<text text-anchor="middle" x="1497" y="-171.3" font-family="Helvetica,sans-Serif" font-size="14.00">mfem::DofToQuad</text>
</a>
</g>
</g>
<!-- Node7&#45;&gt;Node10 -->
<g id="edge13" class="edge"><title>Node7&#45;&gt;Node10</title>
<path fill="none" stroke="#9a32cd" stroke-dasharray="5,2" d="M1258.5,-120.806C1313.43,-133.34 1393.52,-151.616 1445.2,-163.408"/>
<polygon fill="#9a32cd" stroke="#9a32cd" points="1259.08,-117.348 1248.55,-118.535 1257.52,-124.172 1259.08,-117.348"/>
<text text-anchor="middle" x="1342" y="-151.8" font-family="Helvetica,sans-Serif" font-size="14.00"> FE</text>
</g>
<!-- Node8 -->
<g id="node5" class="node"><title>Node8</title>
<g id="a_node5"><a xlink:href="classmfem_1_1Array.html" target="_top" xlink:title="mfem::Array\&lt; mfem::\lDofToQuad *\&gt;">
<polygon fill="white" stroke="black" points="2072,-109 2072,-147 2248,-147 2248,-109 2072,-109"/>
<text text-anchor="start" x="2080" y="-131.8" font-family="Helvetica,sans-Serif" font-size="14.00">mfem::Array&lt; mfem::</text>
<text text-anchor="middle" x="2160" y="-116.8" font-family="Helvetica,sans-Serif" font-size="14.00">DofToQuad *&gt;</text>
</a>
</g>
</g>
<!-- Node8&#45;&gt;Node7 -->
<g id="edge4" class="edge"><title>Node8&#45;&gt;Node7</title>
<path fill="none" stroke="#9a32cd" stroke-dasharray="5,2" d="M2061.63,-125.872C1872.18,-121.732 1457.12,-112.662 1280.35,-108.8"/>
<polygon fill="#9a32cd" stroke="#9a32cd" points="2061.78,-129.376 2071.85,-126.096 2061.93,-122.378 2061.78,-129.376"/>
<text text-anchor="middle" x="1680" y="-122.8" font-family="Helvetica,sans-Serif" font-size="14.00"> dof2quad_array</text>
</g>
<!-- Node9 -->
<g id="node6" class="node"><title>Node9</title>
<g id="a_node6"><a xlink:href="classmfem_1_1Memory.html" target="_top" xlink:title="mfem::Memory\&lt; mfem\l::DofToQuad *\&gt;">
<polygon fill="white" stroke="black" points="1769,-139 1769,-177 1955,-177 1955,-139 1769,-139"/>
<text text-anchor="start" x="1777" y="-161.8" font-family="Helvetica,sans-Serif" font-size="14.00">mfem::Memory&lt; mfem</text>
<text text-anchor="middle" x="1862" y="-146.8" font-family="Helvetica,sans-Serif" font-size="14.00">::DofToQuad *&gt;</text>
</a>
</g>
</g>
<!-- Node9&#45;&gt;Node8 -->
<g id="edge5" class="edge"><title>Node9&#45;&gt;Node8</title>
<path fill="none" stroke="#9a32cd" stroke-dasharray="5,2" d="M1965.2,-147.642C1999.93,-144.122 2038.38,-140.224 2071.83,-136.835"/>
<polygon fill="#9a32cd" stroke="#9a32cd" points="1964.63,-144.182 1955.03,-148.672 1965.34,-151.146 1964.63,-144.182"/>
<text text-anchor="middle" x="2003" y="-149.8" font-family="Helvetica,sans-Serif" font-size="14.00"> data</text>
</g>
<!-- Node10&#45;&gt;Node9 -->
<g id="edge6" class="edge"><title>Node10&#45;&gt;Node9</title>
<path fill="none" stroke="#9a32cd" stroke-dasharray="5,2" d="M1581.25,-171.101C1637.2,-168.481 1710.98,-165.026 1768.72,-162.322"/>
<polygon fill="#9a32cd" stroke="#9a32cd" points="1580.85,-167.616 1571.02,-171.58 1581.17,-174.609 1580.85,-167.616"/>
<text text-anchor="middle" x="1680" y="-173.8" font-family="Helvetica,sans-Serif" font-size="14.00"> h_ptr</text>
</g>
<!-- Node11 -->
<g id="node8" class="node"><title>Node11</title>
<g id="a_node8"><a xlink:href="classmfem_1_1IntegrationRule.html" target="_top" xlink:title="Class for an integration rule &#45; an Array of IntegrationPoint. ">
<polygon fill="white" stroke="black" points="814,-206.5 814,-229.5 992,-229.5 992,-206.5 814,-206.5"/>
<text text-anchor="middle" x="903" y="-214.3" font-family="Helvetica,sans-Serif" font-size="14.00">mfem::IntegrationRule</text>
</a>
</g>
</g>
<!-- Node11&#45;&gt;Node10 -->
<g id="edge7" class="edge"><title>Node11&#45;&gt;Node10</title>
<path fill="none" stroke="#9a32cd" stroke-dasharray="5,2" d="M964.473,-231.468C1055.01,-249.234 1230.48,-274.359 1374,-239 1415.11,-228.873 1457.69,-202.155 1480.06,-186.629"/>
<polygon fill="#9a32cd" stroke="#9a32cd" points="965.148,-228.033 954.656,-229.504 963.775,-234.897 965.148,-228.033"/>
<text text-anchor="middle" x="1197" y="-259.8" font-family="Helvetica,sans-Serif" font-size="14.00"> IntRule</text>
</g>
<!-- Node11&#45;&gt;Node7 -->
<g id="edge14" class="edge"><title>Node11&#45;&gt;Node7</title>
<path fill="none" stroke="#9a32cd" stroke-dasharray="5,2" d="M943.072,-202.333C963.736,-192.869 988.74,-179.45 1008,-163 1018.14,-154.341 1014.68,-146.045 1026,-139 1040.98,-129.678 1078.02,-122.171 1113.72,-116.778"/>
<polygon fill="#9a32cd" stroke="#9a32cd" points="941.637,-199.141 933.919,-206.4 944.479,-205.538 941.637,-199.141"/>
<text text-anchor="middle" x="1055" y="-142.8" font-family="Helvetica,sans-Serif" font-size="14.00"> Nodes</text>
</g>
<!-- Node12 -->
<g id="node9" class="node"><title>Node12</title>
<g id="a_node9"><a xlink:href="classmfem_1_1Array.html" target="_top" xlink:title="mfem::Array\&lt; Integration\lPoint \&gt;">
<polygon fill="white" stroke="black" points="556.5,-199 556.5,-237 759.5,-237 759.5,-199 556.5,-199"/>
<text text-anchor="start" x="564.5" y="-221.8" font-family="Helvetica,sans-Serif" font-size="14.00">mfem::Array&lt; Integration</text>
<text text-anchor="middle" x="658" y="-206.8" font-family="Helvetica,sans-Serif" font-size="14.00">Point &gt;</text>
</a>
</g>
</g>
<!-- Node12&#45;&gt;Node11 -->
<g id="edge8" class="edge"><title>Node12&#45;&gt;Node11</title>
<path fill="none" stroke="midnightblue" d="M769.783,-218C784.568,-218 799.567,-218 813.894,-218"/>
<polygon fill="midnightblue" stroke="midnightblue" points="769.592,-214.5 759.591,-218 769.591,-221.5 769.592,-214.5"/>
</g>
<!-- Node13 -->
<g id="node10" class="node"><title>Node13</title>
<g id="a_node10"><a xlink:href="classmfem_1_1Memory.html" target="_top" xlink:title="mfem::Memory\&lt; Integration\lPoint \&gt;">
<polygon fill="white" stroke="black" points="260,-199 260,-237 482,-237 482,-199 260,-199"/>
<text text-anchor="start" x="268" y="-221.8" font-family="Helvetica,sans-Serif" font-size="14.00">mfem::Memory&lt; Integration</text>
<text text-anchor="middle" x="371" y="-206.8" font-family="Helvetica,sans-Serif" font-size="14.00">Point &gt;</text>
</a>
</g>
</g>
<!-- Node13&#45;&gt;Node12 -->
<g id="edge9" class="edge"><title>Node13&#45;&gt;Node12</title>
<path fill="none" stroke="#9a32cd" stroke-dasharray="5,2" d="M492.278,-218C513.639,-218 535.683,-218 556.426,-218"/>
<polygon fill="#9a32cd" stroke="#9a32cd" points="492.188,-214.5 482.188,-218 492.188,-221.5 492.188,-214.5"/>
<text text-anchor="middle" x="519" y="-221.8" font-family="Helvetica,sans-Serif" font-size="14.00"> data</text>
</g>
<!-- Node14 -->
<g id="node11" class="node"><title>Node14</title>
<g id="a_node11"><a xlink:href="classmfem_1_1IntegrationPoint.html" target="_top" xlink:title="Class for integration point with weight. ">
<polygon fill="white" stroke="black" points="0,-206.5 0,-229.5 182,-229.5 182,-206.5 0,-206.5"/>
<text text-anchor="middle" x="91" y="-214.3" font-family="Helvetica,sans-Serif" font-size="14.00">mfem::IntegrationPoint</text>
</a>
</g>
</g>
<!-- Node14&#45;&gt;Node13 -->
<g id="edge10" class="edge"><title>Node14&#45;&gt;Node13</title>
<path fill="none" stroke="#9a32cd" stroke-dasharray="5,2" d="M192.526,-218C214.373,-218 237.597,-218 259.796,-218"/>
<polygon fill="#9a32cd" stroke="#9a32cd" points="192.259,-214.5 182.259,-218 192.259,-221.5 192.259,-214.5"/>
<text text-anchor="middle" x="221" y="-221.8" font-family="Helvetica,sans-Serif" font-size="14.00"> h_ptr</text>
</g>
<!-- Node15 -->
<g id="node12" class="node"><title>Node15</title>
<g id="a_node12"><a xlink:href="classmfem_1_1Array.html" target="_top" xlink:title="mfem::Array\&lt; double \&gt;">
<polygon fill="white" stroke="black" points="1102.5,-166.5 1102.5,-189.5 1291.5,-189.5 1291.5,-166.5 1102.5,-166.5"/>
<text text-anchor="middle" x="1197" y="-174.3" font-family="Helvetica,sans-Serif" font-size="14.00">mfem::Array&lt; double &gt;</text>
</a>
</g>
</g>
<!-- Node15&#45;&gt;Node10 -->
<g id="edge11" class="edge"><title>Node15&#45;&gt;Node10</title>
<path fill="none" stroke="#9a32cd" stroke-dasharray="5,2" d="M1301.91,-176.954C1341.82,-176.552 1386.49,-176.102 1422.9,-175.736"/>
<polygon fill="#9a32cd" stroke="#9a32cd" points="1301.84,-173.454 1291.88,-177.055 1301.91,-180.454 1301.84,-173.454"/>
<text text-anchor="middle" x="1342" y="-225.8" font-family="Helvetica,sans-Serif" font-size="14.00"> G</text>
<text text-anchor="middle" x="1342" y="-210.8" font-family="Helvetica,sans-Serif" font-size="14.00">Gt</text>
<text text-anchor="middle" x="1342" y="-195.8" font-family="Helvetica,sans-Serif" font-size="14.00">B</text>
<text text-anchor="middle" x="1342" y="-180.8" font-family="Helvetica,sans-Serif" font-size="14.00">Bt</text>
</g>
<!-- Node16 -->
<g id="node13" class="node"><title>Node16</title>
<g id="a_node13"><a xlink:href="classmfem_1_1Memory.html" target="_top" xlink:title="mfem::Memory\&lt; double \&gt;">
<polygon fill="white" stroke="black" points="798.5,-130.5 798.5,-153.5 1007.5,-153.5 1007.5,-130.5 798.5,-130.5"/>
<text text-anchor="middle" x="903" y="-138.3" font-family="Helvetica,sans-Serif" font-size="14.00">mfem::Memory&lt; double &gt;</text>
</a>
</g>
</g>
<!-- Node16&#45;&gt;Node15 -->
<g id="edge12" class="edge"><title>Node16&#45;&gt;Node15</title>
<path fill="none" stroke="#9a32cd" stroke-dasharray="5,2" d="M1007.56,-154.767C1038.57,-158.59 1072.37,-162.759 1102.68,-166.495"/>
<polygon fill="#9a32cd" stroke="#9a32cd" points="1007.95,-151.289 997.595,-153.539 1007.09,-158.237 1007.95,-151.289"/>
<text text-anchor="middle" x="1055" y="-167.8" font-family="Helvetica,sans-Serif" font-size="14.00"> data</text>
</g>
<!-- Node20 -->
<g id="node17" class="node"><title>Node20</title>
<g id="a_node17"><a xlink:href="classmfem_1_1Vector.html" target="_top" xlink:title="Vector data type. ">
<polygon fill="white" stroke="black" points="1140,-49.5 1140,-72.5 1254,-72.5 1254,-49.5 1140,-49.5"/>
<text text-anchor="middle" x="1197" y="-57.3" font-family="Helvetica,sans-Serif" font-size="14.00">mfem::Vector</text>
</a>
</g>
</g>
<!-- Node16&#45;&gt;Node20 -->
<g id="edge19" class="edge"><title>Node16&#45;&gt;Node20</title>
<path fill="none" stroke="#9a32cd" stroke-dasharray="5,2" d="M947.546,-127.296C970.728,-119.667 999.79,-110.418 1026,-103 1065.93,-91.6992 1111.61,-80.5088 1145.56,-72.524"/>
<polygon fill="#9a32cd" stroke="#9a32cd" points="946.39,-123.992 937.996,-130.456 948.589,-130.637 946.39,-123.992"/>
<text text-anchor="middle" x="1055" y="-106.8" font-family="Helvetica,sans-Serif" font-size="14.00"> data</text>
</g>
<!-- Node17 -->
<g id="node14" class="node"><title>Node17</title>
<g id="a_node14"><a xlink:href="classmfem_1_1DenseMatrix.html" target="_top" xlink:title="Data type dense matrix using column&#45;major storage. ">
<polygon fill="white" stroke="black" points="824,-52.5 824,-75.5 982,-75.5 982,-52.5 824,-52.5"/>
<text text-anchor="middle" x="903" y="-60.3" font-family="Helvetica,sans-Serif" font-size="14.00">mfem::DenseMatrix</text>
</a>
</g>
</g>
<!-- Node17&#45;&gt;Node7 -->
<g id="edge15" class="edge"><title>Node17&#45;&gt;Node7</title>
<path fill="none" stroke="#9a32cd" stroke-dasharray="5,2" d="M986.503,-51.8783C1018.01,-50.4457 1053.64,-52.8307 1084,-65 1094.21,-69.0938 1092.39,-76.6436 1102,-82 1112.03,-87.5896 1123.36,-91.9736 1134.6,-95.3981"/>
<polygon fill="#9a32cd" stroke="#9a32cd" points="986.207,-48.3895 976.429,-52.47 986.617,-55.3775 986.207,-48.3895"/>
<text text-anchor="middle" x="1055" y="-68.8" font-family="Helvetica,sans-Serif" font-size="14.00"> vshape</text>
</g>
<!-- Node18 -->
<g id="node15" class="node"><title>Node18</title>
<g id="a_node15"><a xlink:href="classmfem_1_1Matrix.html" target="_top" xlink:title="Abstract data type matrix. ">
<polygon fill="white" stroke="black" points="601.5,-52.5 601.5,-75.5 714.5,-75.5 714.5,-52.5 601.5,-52.5"/>
<text text-anchor="middle" x="658" y="-60.3" font-family="Helvetica,sans-Serif" font-size="14.00">mfem::Matrix</text>
</a>
</g>
</g>
<!-- Node18&#45;&gt;Node17 -->
<g id="edge16" class="edge"><title>Node18&#45;&gt;Node17</title>
<path fill="none" stroke="midnightblue" d="M724.872,-64C755.442,-64 792.005,-64 823.952,-64"/>
<polygon fill="midnightblue" stroke="midnightblue" points="724.749,-60.5001 714.749,-64 724.749,-67.5001 724.749,-60.5001"/>
</g>
<!-- Node19 -->
<g id="node16" class="node"><title>Node19</title>
<g id="a_node16"><a xlink:href="classmfem_1_1Operator.html" target="_top" xlink:title="Abstract operator. ">
<polygon fill="white" stroke="black" points="304.5,-52.5 304.5,-75.5 437.5,-75.5 437.5,-52.5 304.5,-52.5"/>
<text text-anchor="middle" x="371" y="-60.3" font-family="Helvetica,sans-Serif" font-size="14.00">mfem::Operator</text>
</a>
</g>
</g>
<!-- Node19&#45;&gt;Node18 -->
<g id="edge17" class="edge"><title>Node19&#45;&gt;Node18</title>
<path fill="none" stroke="midnightblue" d="M447.822,-64C496.044,-64 557.418,-64 601.19,-64"/>
<polygon fill="midnightblue" stroke="midnightblue" points="447.743,-60.5001 437.743,-64 447.743,-67.5001 447.743,-60.5001"/>
</g>
<!-- Node20&#45;&gt;Node6 -->
<g id="edge18" class="edge"><title>Node20&#45;&gt;Node6</title>
<path fill="none" stroke="#9a32cd" stroke-dasharray="5,2" d="M1264.31,-55.4786C1279.32,-54.447 1295.2,-53.5279 1310,-53 1336.46,-52.0561 1365.06,-51.8195 1391.7,-51.9339"/>
<polygon fill="#9a32cd" stroke="#9a32cd" points="1263.8,-52.0057 1254.07,-56.2073 1264.3,-58.988 1263.8,-52.0057"/>
<text text-anchor="middle" x="1342" y="-56.8" font-family="Helvetica,sans-Serif" font-size="14.00"> c_shape</text>
</g>
<!-- Node21 -->
<g id="node18" class="node"><title>Node21</title>
<g id="a_node18"><a xlink:href="classmfem_1_1Array.html" target="_top" xlink:title="mfem::Array\&lt; int \&gt;">
<polygon fill="white" stroke="black" points="1418,-0.5 1418,-23.5 1576,-23.5 1576,-0.5 1418,-0.5"/>
<text text-anchor="middle" x="1497" y="-8.3" font-family="Helvetica,sans-Serif" font-size="14.00">mfem::Array&lt; int &gt;</text>
</a>
</g>
</g>
<!-- Node21&#45;&gt;Node5 -->
<g id="edge20" class="edge"><title>Node21&#45;&gt;Node5</title>
<path fill="none" stroke="#9a32cd" stroke-dasharray="5,2" d="M1586.24,-18.9784C1632.15,-22.8728 1689.16,-28.1207 1740,-34 1753.91,-35.6082 1768.69,-37.5172 1782.96,-39.4648"/>
<polygon fill="#9a32cd" stroke="#9a32cd" points="1586.28,-15.4695 1576.02,-18.1183 1585.7,-22.4448 1586.28,-15.4695"/>
<text text-anchor="middle" x="1680" y="-37.8" font-family="Helvetica,sans-Serif" font-size="14.00"> lex_ordering</text>
</g>
<!-- Node22 -->
<g id="node19" class="node"><title>Node22</title>
<g id="a_node19"><a xlink:href="classmfem_1_1Memory.html" target="_top" xlink:title="mfem::Memory\&lt; int \&gt;">
<polygon fill="white" stroke="black" points="1108,-0.5 1108,-23.5 1286,-23.5 1286,-0.5 1108,-0.5"/>
<text text-anchor="middle" x="1197" y="-8.3" font-family="Helvetica,sans-Serif" font-size="14.00">mfem::Memory&lt; int &gt;</text>
</a>
</g>
</g>
<!-- Node22&#45;&gt;Node21 -->
<g id="edge21" class="edge"><title>Node22&#45;&gt;Node21</title>
<path fill="none" stroke="#9a32cd" stroke-dasharray="5,2" d="M1296.36,-12C1335.76,-12 1380.51,-12 1417.65,-12"/>
<polygon fill="#9a32cd" stroke="#9a32cd" points="1296.2,-8.5001 1286.2,-12 1296.2,-15.5001 1296.2,-8.5001"/>
<text text-anchor="middle" x="1342" y="-15.8" font-family="Helvetica,sans-Serif" font-size="14.00"> data</text>
</g>
</g>
</svg>
