<?xml version="1.0" encoding="UTF-8" standalone="no"?>
<!DOCTYPE svg PUBLIC "-//W3C//DTD SVG 1.1//EN"
 "http://www.w3.org/Graphics/SVG/1.1/DTD/svg11.dtd">
<!-- Generated by graphviz version 2.30.1 (20200304.1809)
 -->
<!-- Title: mfem::ND_DofTransformation Pages: 1 -->
<svg width="389pt" height="274pt"
 viewBox="0.00 0.00 389.00 274.00" xmlns="http://www.w3.org/2000/svg" xmlns:xlink="http://www.w3.org/1999/xlink">
<g id="graph0" class="graph" transform="scale(1 1) rotate(0) translate(4 270)">
<title>mfem::ND_DofTransformation</title>
<polygon fill="white" stroke="white" points="-4,5 -4,-270 386,-270 386,5 -4,5"/>
<!-- Node5 -->
<g id="node1" class="node"><title>Node5</title>
<polygon fill="#bfbfbf" stroke="black" points="135,-0.5 135,-23.5 367,-23.5 367,-0.5 135,-0.5"/>
<text text-anchor="middle" x="251" y="-8.3" font-family="Helvetica,sans-Serif" font-size="14.00">mfem::ND_DofTransformation</text>
</g>
<!-- Node6 -->
<g id="node2" class="node"><title>Node6</title>
<g id="a_node2"><a xlink:href="classmfem_1_1DofTransformation.html" target="_top" xlink:title="mfem::DofTransformation">
<polygon fill="white" stroke="black" points="-0.5,-90.5 -0.5,-113.5 202.5,-113.5 202.5,-90.5 -0.5,-90.5"/>
<text text-anchor="middle" x="101" y="-98.3" font-family="Helvetica,sans-Serif" font-size="14.00">mfem::DofTransformation</text>
</a>
</g>
</g>
<!-- Node6&#45;&gt;Node5 -->
<g id="edge1" class="edge"><title>Node6&#45;&gt;Node5</title>
<path fill="none" stroke="midnightblue" d="M127.875,-85.2334C158.194,-67.4461 206.678,-39.0023 232.842,-23.6525"/>
<polygon fill="midnightblue" stroke="midnightblue" points="125.948,-82.3061 119.094,-90.3851 129.49,-88.3438 125.948,-82.3061"/>
</g>
<!-- Node7 -->
<g id="node3" class="node"><title>Node7</title>
<g id="a_node3"><a xlink:href="classmfem_1_1Array.html" target="_top" xlink:title="mfem::Array\&lt; int \&gt;">
<polygon fill="white" stroke="black" points="22,-166.5 22,-189.5 180,-189.5 180,-166.5 22,-166.5"/>
<text text-anchor="middle" x="101" y="-174.3" font-family="Helvetica,sans-Serif" font-size="14.00">mfem::Array&lt; int &gt;</text>
</a>
</g>
</g>
<!-- Node7&#45;&gt;Node6 -->
<g id="edge2" class="edge"><title>Node7&#45;&gt;Node6</title>
<path fill="none" stroke="#9a32cd" stroke-dasharray="5,2" d="M101,-156.277C101,-142.387 101,-124.675 101,-113.583"/>
<polygon fill="#9a32cd" stroke="#9a32cd" points="97.5001,-156.398 101,-166.398 104.5,-156.398 97.5001,-156.398"/>
<text text-anchor="middle" x="112" y="-136.3" font-family="Helvetica,sans-Serif" font-size="14.00"> Fo</text>
</g>
<!-- Node8 -->
<g id="node4" class="node"><title>Node8</title>
<g id="a_node4"><a xlink:href="classmfem_1_1Memory.html" target="_top" xlink:title="mfem::Memory\&lt; int \&gt;">
<polygon fill="white" stroke="black" points="12,-242.5 12,-265.5 190,-265.5 190,-242.5 12,-242.5"/>
<text text-anchor="middle" x="101" y="-250.3" font-family="Helvetica,sans-Serif" font-size="14.00">mfem::Memory&lt; int &gt;</text>
</a>
</g>
</g>
<!-- Node8&#45;&gt;Node7 -->
<g id="edge3" class="edge"><title>Node8&#45;&gt;Node7</title>
<path fill="none" stroke="#9a32cd" stroke-dasharray="5,2" d="M101,-232.277C101,-218.387 101,-200.675 101,-189.583"/>
<polygon fill="#9a32cd" stroke="#9a32cd" points="97.5001,-232.398 101,-242.398 104.5,-232.398 97.5001,-232.398"/>
<text text-anchor="middle" x="119.5" y="-212.3" font-family="Helvetica,sans-Serif" font-size="14.00"> data</text>
</g>
<!-- Node9 -->
<g id="node5" class="node"><title>Node9</title>
<g id="a_node5"><a xlink:href="classmfem_1_1DenseTensor.html" target="_top" xlink:title="Rank 3 tensor (array of matrices) ">
<polygon fill="white" stroke="black" points="220.5,-90.5 220.5,-113.5 381.5,-113.5 381.5,-90.5 220.5,-90.5"/>
<text text-anchor="middle" x="301" y="-98.3" font-family="Helvetica,sans-Serif" font-size="14.00">mfem::DenseTensor</text>
</a>
</g>
</g>
<!-- Node9&#45;&gt;Node5 -->
<g id="edge4" class="edge"><title>Node9&#45;&gt;Node5</title>
<path fill="none" stroke="#9a32cd" stroke-dasharray="5,2" d="M289.758,-81.2147C279.624,-63.3789 265.11,-37.8337 257.025,-23.6039"/>
<polygon fill="#9a32cd" stroke="#9a32cd" points="286.886,-83.2439 294.869,-90.2095 292.972,-79.7858 286.886,-83.2439"/>
<text text-anchor="middle" x="301" y="-60.8" font-family="Helvetica,sans-Serif" font-size="14.00"> TInv</text>
<text text-anchor="middle" x="301" y="-45.8" font-family="Helvetica,sans-Serif" font-size="14.00">T</text>
</g>
</g>
</svg>
