<?xml version="1.0" encoding="UTF-8" standalone="no"?>
<!DOCTYPE svg PUBLIC "-//W3C//DTD SVG 1.1//EN"
 "http://www.w3.org/Graphics/SVG/1.1/DTD/svg11.dtd">
<!-- Generated by graphviz version 2.30.1 (20200304.1809)
 -->
<!-- Title: mfem::KLUSolver Pages: 1 -->
<!--zoomable 215 -->
<svg id="main" version="1.1" xmlns="http://www.w3.org/2000/svg" xmlns:xlink="http://www.w3.org/1999/xlink" xml:space="preserve" onload="init(evt)">
<style type="text/css"><![CDATA[
.edge:hover path { stroke: red; }
.edge:hover polygon { stroke: red; fill: red; }
]]></style>
<script type="text/javascript"><![CDATA[
var edges = document.getElementsByTagName('g');
if (edges && edges.length) {
  for (var i=0;i<edges.length;i++) {
    if (edges[i].id.substr(0,4)=='edge') {
      edges[i].setAttribute('class','edge');
    }
  }
}
]]></script>
        <defs>
                <circle id="rim" cx="0" cy="0" r="7"/>
                <circle id="rim2" cx="0" cy="0" r="3.5"/>
                <g id="zoomPlus">
                        <use xlink:href="#rim" fill="#404040">
                                <set attributeName="fill" to="#808080" begin="zoomplus.mouseover" end="zoomplus.mouseout"/>
                        </use>
                        <path d="M-4,0h8M0,-4v8" fill="none" stroke="white" stroke-width="1.5" pointer-events="none"/>
                </g>
                <g id="zoomMin">
                        <use xlink:href="#rim" fill="#404040">
                                <set attributeName="fill" to="#808080" begin="zoomminus.mouseover" end="zoomminus.mouseout"/>
                        </use>
                        <path d="M-4,0h8" fill="none" stroke="white" stroke-width="1.5" pointer-events="none"/>
                </g>
                <g id="dirArrow">
                        <path fill="none" stroke="white" stroke-width="1.5" d="M0,-3.0v7 M-2.5,-0.5L0,-3.0L2.5,-0.5"/>
                </g>
               <g id="resetDef">
                       <use xlink:href="#rim2" fill="#404040">
                               <set attributeName="fill" to="#808080" begin="reset.mouseover" end="reset.mouseout"/>
                       </use>
               </g>
        </defs>

<script type="text/javascript">
var viewWidth = 1160;
var viewHeight = 215;
var sectionId = 'dynsection-1';
</script>
<script xlink:href="svgpan.js"/>
<svg id="graph" class="graph">
<g id="viewport">
<title>mfem::KLUSolver</title>
<polygon fill="white" stroke="white" points="-4,5 -4,-211 1157,-211 1157,5 -4,5"/>
<!-- Node3 -->
<g id="node1" class="node"><title>Node3</title>
<polygon fill="#bfbfbf" stroke="black" points="1012,-155.5 1012,-178.5 1152,-178.5 1152,-155.5 1012,-155.5"/>
<text text-anchor="middle" x="1082" y="-163.3" font-family="Helvetica,sans-Serif" font-size="14.00">mfem::KLUSolver</text>
</g>
<!-- Node4 -->
<g id="node2" class="node"><title>Node4</title>
<g id="a_node2"><a xlink:href="classmfem_1_1Solver.html" target="_top" xlink:title="Base class for solvers. ">
<polygon fill="white" stroke="black" points="304.5,-183.5 304.5,-206.5 417.5,-206.5 417.5,-183.5 304.5,-183.5"/>
<text text-anchor="middle" x="361" y="-191.3" font-family="Helvetica,sans-Serif" font-size="14.00">mfem::Solver</text>
</a>
</g>
</g>
<!-- Node4&#45;&gt;Node3 -->
<g id="edge1" class="edge"><title>Node4&#45;&gt;Node3</title>
<path fill="none" stroke="midnightblue" d="M427.769,-192.439C563.486,-187.154 873.438,-175.083 1011.93,-169.69"/>
<polygon fill="midnightblue" stroke="midnightblue" points="427.379,-188.951 417.522,-192.838 427.651,-195.946 427.379,-188.951"/>
</g>
<!-- Node5 -->
<g id="node3" class="node"><title>Node5</title>
<g id="a_node3"><a xlink:href="classmfem_1_1Operator.html" target="_top" xlink:title="Abstract operator. ">
<polygon fill="white" stroke="black" points="0.5,-167.5 0.5,-190.5 133.5,-190.5 133.5,-167.5 0.5,-167.5"/>
<text text-anchor="middle" x="67" y="-175.3" font-family="Helvetica,sans-Serif" font-size="14.00">mfem::Operator</text>
</a>
</g>
</g>
<!-- Node5&#45;&gt;Node4 -->
<g id="edge2" class="edge"><title>Node5&#45;&gt;Node4</title>
<path fill="none" stroke="midnightblue" d="M143.676,-183.147C193.819,-185.894 258.501,-189.438 304.027,-191.933"/>
<polygon fill="midnightblue" stroke="midnightblue" points="143.707,-179.643 133.53,-182.591 143.324,-186.633 143.707,-179.643"/>
</g>
<!-- Node8 -->
<g id="node6" class="node"><title>Node8</title>
<g id="a_node6"><a xlink:href="classmfem_1_1Matrix.html" target="_top" xlink:title="Abstract data type matrix. ">
<polygon fill="white" stroke="black" points="172.5,-143.5 172.5,-166.5 285.5,-166.5 285.5,-143.5 172.5,-143.5"/>
<text text-anchor="middle" x="229" y="-151.3" font-family="Helvetica,sans-Serif" font-size="14.00">mfem::Matrix</text>
</a>
</g>
</g>
<!-- Node5&#45;&gt;Node8 -->
<g id="edge6" class="edge"><title>Node5&#45;&gt;Node8</title>
<path fill="none" stroke="midnightblue" d="M143.564,-167.665C153.237,-166.214 162.996,-164.751 172.274,-163.359"/>
<polygon fill="midnightblue" stroke="midnightblue" points="142.91,-164.224 133.54,-169.169 143.948,-171.147 142.91,-164.224"/>
</g>
<!-- Node6 -->
<g id="node4" class="node"><title>Node6</title>
<g id="a_node4"><a xlink:href="classmfem_1_1SparseMatrix.html" target="_top" xlink:title="Data type sparse matrix. ">
<polygon fill="white" stroke="black" points="780,-101.5 780,-124.5 942,-124.5 942,-101.5 780,-101.5"/>
<text text-anchor="middle" x="861" y="-109.3" font-family="Helvetica,sans-Serif" font-size="14.00">mfem::SparseMatrix</text>
</a>
</g>
</g>
<!-- Node6&#45;&gt;Node3 -->
<g id="edge3" class="edge"><title>Node6&#45;&gt;Node3</title>
<path fill="none" stroke="#9a32cd" stroke-dasharray="5,2" d="M918.569,-126.949C954.523,-135.814 1000.5,-147.151 1034.36,-155.5"/>
<polygon fill="#9a32cd" stroke="#9a32cd" points="919.26,-123.514 908.712,-124.518 917.584,-130.31 919.26,-123.514"/>
<text text-anchor="middle" x="977" y="-148.8" font-family="Helvetica,sans-Serif" font-size="14.00"> mat</text>
</g>
<!-- Node6&#45;&gt;Node6 -->
<g id="edge8" class="edge"><title>Node6&#45;&gt;Node6</title>
<path fill="none" stroke="#9a32cd" stroke-dasharray="5,2" d="M839.742,-134.472C841.595,-139.391 848.681,-143 861,-143 880.711,-143 887.025,-133.76 879.941,-124.701"/>
<polygon fill="#9a32cd" stroke="#9a32cd" points="843.157,-135.239 842.059,-124.701 836.346,-133.624 843.157,-135.239"/>
<text text-anchor="middle" x="861" y="-146.8" font-family="Helvetica,sans-Serif" font-size="14.00"> At</text>
</g>
<!-- Node7 -->
<g id="node5" class="node"><title>Node7</title>
<g id="a_node5"><a xlink:href="classmfem_1_1AbstractSparseMatrix.html" target="_top" xlink:title="Abstract data type for sparse matrices. ">
<polygon fill="white" stroke="black" points="436.5,-143.5 436.5,-166.5 657.5,-166.5 657.5,-143.5 436.5,-143.5"/>
<text text-anchor="middle" x="547" y="-151.3" font-family="Helvetica,sans-Serif" font-size="14.00">mfem::AbstractSparseMatrix</text>
</a>
</g>
</g>
<!-- Node7&#45;&gt;Node6 -->
<g id="edge4" class="edge"><title>Node7&#45;&gt;Node6</title>
<path fill="none" stroke="midnightblue" d="M667.971,-143.909C698.689,-140.575 731.624,-136.569 762,-132 775.967,-129.899 790.974,-127.21 804.943,-124.521"/>
<polygon fill="midnightblue" stroke="midnightblue" points="667.216,-140.469 657.646,-145.013 667.961,-147.43 667.216,-140.469"/>
</g>
<!-- Node8&#45;&gt;Node7 -->
<g id="edge5" class="edge"><title>Node8&#45;&gt;Node7</title>
<path fill="none" stroke="midnightblue" d="M295.818,-155C336.459,-155 389.614,-155 436.471,-155"/>
<polygon fill="midnightblue" stroke="midnightblue" points="295.767,-151.5 285.767,-155 295.767,-158.5 295.767,-151.5"/>
</g>
<!-- Node9 -->
<g id="node7" class="node"><title>Node9</title>
<g id="a_node7"><a xlink:href="classmfem_1_1Memory.html" target="_top" xlink:title="mfem::Memory\&lt; double \&gt;">
<polygon fill="white" stroke="black" points="442.5,-101.5 442.5,-124.5 651.5,-124.5 651.5,-101.5 442.5,-101.5"/>
<text text-anchor="middle" x="547" y="-109.3" font-family="Helvetica,sans-Serif" font-size="14.00">mfem::Memory&lt; double &gt;</text>
</a>
</g>
</g>
<!-- Node9&#45;&gt;Node6 -->
<g id="edge7" class="edge"><title>Node9&#45;&gt;Node6</title>
<path fill="none" stroke="#9a32cd" stroke-dasharray="5,2" d="M662.249,-113C701.247,-113 744.003,-113 779.75,-113"/>
<polygon fill="#9a32cd" stroke="#9a32cd" points="661.892,-109.5 651.891,-113 661.891,-116.5 661.892,-109.5"/>
<text text-anchor="middle" x="719" y="-116.8" font-family="Helvetica,sans-Serif" font-size="14.00"> A</text>
</g>
<!-- Node10 -->
<g id="node8" class="node"><title>Node10</title>
<g id="a_node8"><a xlink:href="classmfem_1_1MemAlloc.html" target="_top" xlink:title="mfem::MemAlloc\&lt; Elem,\l Num \&gt;">
<polygon fill="white" stroke="black" points="450,-44 450,-82 644,-82 644,-44 450,-44"/>
<text text-anchor="start" x="458" y="-66.8" font-family="Helvetica,sans-Serif" font-size="14.00">mfem::MemAlloc&lt; Elem,</text>
<text text-anchor="middle" x="547" y="-51.8" font-family="Helvetica,sans-Serif" font-size="14.00"> Num &gt;</text>
</a>
</g>
</g>
<!-- Node10&#45;&gt;Node6 -->
<g id="edge9" class="edge"><title>Node10&#45;&gt;Node6</title>
<path fill="none" stroke="#9a32cd" stroke-dasharray="5,2" d="M654.114,-77.3525C688.58,-82.2864 726.964,-88.0694 762,-94 775.328,-96.2561 789.633,-98.9012 803.081,-101.489"/>
<polygon fill="#9a32cd" stroke="#9a32cd" points="654.422,-73.8612 644.029,-75.9169 653.435,-80.7913 654.422,-73.8612"/>
<text text-anchor="middle" x="719" y="-97.8" font-family="Helvetica,sans-Serif" font-size="14.00"> NodesMem</text>
</g>
<!-- Node11 -->
<g id="node9" class="node"><title>Node11</title>
<g id="a_node9"><a xlink:href="classmfem_1_1Memory.html" target="_top" xlink:title="mfem::Memory\&lt; int \&gt;">
<polygon fill="white" stroke="black" points="458,-0.5 458,-23.5 636,-23.5 636,-0.5 458,-0.5"/>
<text text-anchor="middle" x="547" y="-8.3" font-family="Helvetica,sans-Serif" font-size="14.00">mfem::Memory&lt; int &gt;</text>
</a>
</g>
</g>
<!-- Node11&#45;&gt;Node6 -->
<g id="edge10" class="edge"><title>Node11&#45;&gt;Node6</title>
<path fill="none" stroke="#9a32cd" stroke-dasharray="5,2" d="M646.472,-19.8186C683.612,-25.0088 725.647,-33.6419 762,-48 795.04,-61.0496 828.44,-86.3883 846.447,-101.282"/>
<polygon fill="#9a32cd" stroke="#9a32cd" points="646.509,-16.2929 636.135,-18.4441 645.586,-23.2318 646.509,-16.2929"/>
<text text-anchor="middle" x="719" y="-66.8" font-family="Helvetica,sans-Serif" font-size="14.00"> I</text>
<text text-anchor="middle" x="719" y="-51.8" font-family="Helvetica,sans-Serif" font-size="14.00">J</text>
</g>
</g>
</svg>
        <g id="navigator" transform="translate(0 0)" fill="#404254">
                <rect fill="#f2f5e9" fill-opacity="0.5" stroke="#606060" stroke-width=".5" x="0" y="0" width="60" height="60"/>
                <use id="zoomplus" xlink:href="#zoomPlus" x="17" y="9" onmousedown="handleZoom(evt,'in')"/>
                <use id="zoomminus" xlink:href="#zoomMin" x="42" y="9" onmousedown="handleZoom(evt,'out')"/>
                <use id="reset" xlink:href="#resetDef" x="30" y="36" onmousedown="handleReset()"/>
                <g id="arrowUp" xlink:href="#dirArrow" transform="translate(30 24)" onmousedown="handlePan(0,-1)">
                  <use xlink:href="#rim" fill="#404040">
                        <set attributeName="fill" to="#808080" begin="arrowUp.mouseover" end="arrowUp.mouseout"/>
                  </use>
                  <path fill="none" stroke="white" stroke-width="1.5" d="M0,-3.0v7 M-2.5,-0.5L0,-3.0L2.5,-0.5"/>
                </g>
                <g id="arrowRight" xlink:href="#dirArrow" transform="rotate(90) translate(36 -43)" onmousedown="handlePan(1,0)">
                  <use xlink:href="#rim" fill="#404040">
                        <set attributeName="fill" to="#808080" begin="arrowRight.mouseover" end="arrowRight.mouseout"/>
                  </use>
                  <path fill="none" stroke="white" stroke-width="1.5" d="M0,-3.0v7 M-2.5,-0.5L0,-3.0L2.5,-0.5"/>
                </g>
                <g id="arrowDown" xlink:href="#dirArrow" transform="rotate(180) translate(-30 -48)" onmousedown="handlePan(0,1)">
                  <use xlink:href="#rim" fill="#404040">
                        <set attributeName="fill" to="#808080" begin="arrowDown.mouseover" end="arrowDown.mouseout"/>
                  </use>
                  <path fill="none" stroke="white" stroke-width="1.5" d="M0,-3.0v7 M-2.5,-0.5L0,-3.0L2.5,-0.5"/>
                </g>
                <g id="arrowLeft" xlink:href="#dirArrow" transform="rotate(270) translate(-36 17)" onmousedown="handlePan(-1,0)">
                  <use xlink:href="#rim" fill="#404040">
                        <set attributeName="fill" to="#808080" begin="arrowLeft.mouseover" end="arrowLeft.mouseout"/>
                  </use>
                  <path fill="none" stroke="white" stroke-width="1.5" d="M0,-3.0v7 M-2.5,-0.5L0,-3.0L2.5,-0.5"/>
                </g>
        </g>
        <svg viewBox="0 0 15 15" width="100%" height="30px" preserveAspectRatio="xMaxYMin meet">
         <g id="arrow_out" transform="scale(0.3 0.3)">
          <a xlink:href="classmfem_1_1KLUSolver__coll__graph_org.svg" target="_base">
           <rect id="button" ry="5" rx="5" y="6" x="6" height="38" width="38"
                fill="#f2f5e9" fill-opacity="0.5" stroke="#606060" stroke-width="1.0"/>
           <path id="arrow"
             d="M 11.500037,31.436501 C 11.940474,20.09759 22.043105,11.32322 32.158766,21.979434 L 37.068811,17.246167 C 37.068811,17.246167 37.088388,32 37.088388,32 L 22.160133,31.978069 C 22.160133,31.978069 26.997745,27.140456 26.997745,27.140456 C 18.528582,18.264221 13.291696,25.230495 11.500037,31.436501 z"
             style="fill:#404040;"/>
          </a>
         </g>
        </svg>
</svg>
