<?xml version="1.0" encoding="UTF-8" standalone="no"?>
<!DOCTYPE svg PUBLIC "-//W3C//DTD SVG 1.1//EN"
 "http://www.w3.org/Graphics/SVG/1.1/DTD/svg11.dtd">
<!-- Generated by graphviz version 2.30.1 (20200304.1809)
 -->
<!-- Title: mfem::ceed::Operator Pages: 1 -->
<!--zoomable 815 -->
<svg id="main" version="1.1" xmlns="http://www.w3.org/2000/svg" xmlns:xlink="http://www.w3.org/1999/xlink" xml:space="preserve" onload="init(evt)">
<style type="text/css"><![CDATA[
.edge:hover path { stroke: red; }
.edge:hover polygon { stroke: red; fill: red; }
]]></style>
<script type="text/javascript"><![CDATA[
var edges = document.getElementsByTagName('g');
if (edges && edges.length) {
  for (var i=0;i<edges.length;i++) {
    if (edges[i].id.substr(0,4)=='edge') {
      edges[i].setAttribute('class','edge');
    }
  }
}
]]></script>
        <defs>
                <circle id="rim" cx="0" cy="0" r="7"/>
                <circle id="rim2" cx="0" cy="0" r="3.5"/>
                <g id="zoomPlus">
                        <use xlink:href="#rim" fill="#404040">
                                <set attributeName="fill" to="#808080" begin="zoomplus.mouseover" end="zoomplus.mouseout"/>
                        </use>
                        <path d="M-4,0h8M0,-4v8" fill="none" stroke="white" stroke-width="1.5" pointer-events="none"/>
                </g>
                <g id="zoomMin">
                        <use xlink:href="#rim" fill="#404040">
                                <set attributeName="fill" to="#808080" begin="zoomminus.mouseover" end="zoomminus.mouseout"/>
                        </use>
                        <path d="M-4,0h8" fill="none" stroke="white" stroke-width="1.5" pointer-events="none"/>
                </g>
                <g id="dirArrow">
                        <path fill="none" stroke="white" stroke-width="1.5" d="M0,-3.0v7 M-2.5,-0.5L0,-3.0L2.5,-0.5"/>
                </g>
               <g id="resetDef">
                       <use xlink:href="#rim2" fill="#404040">
                               <set attributeName="fill" to="#808080" begin="reset.mouseover" end="reset.mouseout"/>
                       </use>
               </g>
        </defs>

<script type="text/javascript">
var viewWidth = 934;
var viewHeight = 815;
var sectionId = 'dynsection-0';
</script>
<script xlink:href="svgpan.js"/>
<svg id="graph" class="graph">
<g id="viewport">
<title>mfem::ceed::Operator</title>
<polygon fill="white" stroke="white" points="-4,5 -4,-811 931,-811 931,5 -4,5"/>
<!-- Node1 -->
<g id="node1" class="node"><title>Node1</title>
<polygon fill="#bfbfbf" stroke="black" points="170,-485.5 170,-508.5 346,-508.5 346,-485.5 170,-485.5"/>
<text text-anchor="middle" x="258" y="-493.3" font-family="Helvetica,sans-Serif" font-size="14.00">mfem::ceed::Operator</text>
</g>
<!-- Node3 -->
<g id="node3" class="node"><title>Node3</title>
<g id="a_node3"><a xlink:href="classmfem_1_1ceed_1_1MFIntegrator.html" target="_top" xlink:title="mfem::ceed::MFIntegrator">
<polygon fill="white" stroke="black" points="393,-684.5 393,-707.5 597,-707.5 597,-684.5 393,-684.5"/>
<text text-anchor="middle" x="495" y="-692.3" font-family="Helvetica,sans-Serif" font-size="14.00">mfem::ceed::MFIntegrator</text>
</a>
</g>
</g>
<!-- Node1&#45;&gt;Node3 -->
<g id="edge2" class="edge"><title>Node1&#45;&gt;Node3</title>
<path fill="none" stroke="midnightblue" d="M280.477,-515.187C328.027,-555.453 441.083,-651.189 480.312,-684.409"/>
<polygon fill="midnightblue" stroke="midnightblue" points="282.544,-512.351 272.65,-508.559 278.02,-517.693 282.544,-512.351"/>
</g>
<!-- Node8 -->
<g id="node8" class="node"><title>Node8</title>
<g id="a_node8"><a xlink:href="classmfem_1_1ceed_1_1MixedIntegrator.html" target="_top" xlink:title="This class wraps a ceed::PAIntegrator or ceed::MFIntegrator to support mixed finite element spaces...">
<polygon fill="white" stroke="black" points="382.5,-528 382.5,-566 607.5,-566 607.5,-528 382.5,-528"/>
<text text-anchor="start" x="390.5" y="-550.8" font-family="Helvetica,sans-Serif" font-size="14.00">mfem::ceed::MixedIntegrator</text>
<text text-anchor="middle" x="495" y="-535.8" font-family="Helvetica,sans-Serif" font-size="14.00">&lt; CeedInteg &gt;</text>
</a>
</g>
</g>
<!-- Node1&#45;&gt;Node8 -->
<g id="edge7" class="edge"><title>Node1&#45;&gt;Node8</title>
<path fill="none" stroke="midnightblue" d="M323.323,-510.686C348.396,-516.02 377.563,-522.226 404.617,-527.982"/>
<polygon fill="midnightblue" stroke="midnightblue" points="323.718,-507.192 313.209,-508.534 322.261,-514.038 323.718,-507.192"/>
</g>
<!-- Node9 -->
<g id="node9" class="node"><title>Node9</title>
<g id="a_node9"><a xlink:href="classmfem_1_1ceed_1_1PAIntegrator.html" target="_top" xlink:title="mfem::ceed::PAIntegrator">
<polygon fill="white" stroke="black" points="394.5,-485.5 394.5,-508.5 595.5,-508.5 595.5,-485.5 394.5,-485.5"/>
<text text-anchor="middle" x="495" y="-493.3" font-family="Helvetica,sans-Serif" font-size="14.00">mfem::ceed::PAIntegrator</text>
</a>
</g>
</g>
<!-- Node1&#45;&gt;Node9 -->
<g id="edge8" class="edge"><title>Node1&#45;&gt;Node9</title>
<path fill="none" stroke="midnightblue" d="M356.182,-497C368.765,-497 381.668,-497 394.291,-497"/>
<polygon fill="midnightblue" stroke="midnightblue" points="356.171,-493.5 346.171,-497 356.171,-500.5 356.171,-493.5"/>
</g>
<!-- Node14 -->
<g id="node14" class="node"><title>Node14</title>
<g id="a_node14"><a xlink:href="classmfem_1_1ceed_1_1MixedIntegrator.html" target="_top" xlink:title="mfem::ceed::MixedIntegrator\l\&lt; MFIntegrator \&gt;">
<polygon fill="white" stroke="black" points="382.5,-314 382.5,-352 607.5,-352 607.5,-314 382.5,-314"/>
<text text-anchor="start" x="390.5" y="-336.8" font-family="Helvetica,sans-Serif" font-size="14.00">mfem::ceed::MixedIntegrator</text>
<text text-anchor="middle" x="495" y="-321.8" font-family="Helvetica,sans-Serif" font-size="14.00">&lt; MFIntegrator &gt;</text>
</a>
</g>
</g>
<!-- Node1&#45;&gt;Node14 -->
<g id="edge13" class="edge"><title>Node1&#45;&gt;Node14</title>
<path fill="none" stroke="midnightblue" d="M283.984,-479.564C328.36,-448.596 420.578,-384.239 466.617,-352.11"/>
<polygon fill="midnightblue" stroke="midnightblue" points="281.722,-476.875 275.525,-485.468 285.728,-482.615 281.722,-476.875"/>
</g>
<!-- Node19 -->
<g id="node19" class="node"><title>Node19</title>
<g id="a_node19"><a xlink:href="classmfem_1_1ceed_1_1MixedIntegrator.html" target="_top" xlink:title="mfem::ceed::MixedIntegrator\l\&lt; PAIntegrator \&gt;">
<polygon fill="white" stroke="black" points="382.5,-100 382.5,-138 607.5,-138 607.5,-100 382.5,-100"/>
<text text-anchor="start" x="390.5" y="-122.8" font-family="Helvetica,sans-Serif" font-size="14.00">mfem::ceed::MixedIntegrator</text>
<text text-anchor="middle" x="495" y="-107.8" font-family="Helvetica,sans-Serif" font-size="14.00">&lt; PAIntegrator &gt;</text>
</a>
</g>
</g>
<!-- Node1&#45;&gt;Node19 -->
<g id="edge18" class="edge"><title>Node1&#45;&gt;Node19</title>
<path fill="none" stroke="midnightblue" d="M271.701,-476.571C312.845,-410.39 442.115,-202.457 482.097,-138.146"/>
<polygon fill="midnightblue" stroke="midnightblue" points="268.598,-474.932 266.291,-485.273 274.543,-478.628 268.598,-474.932"/>
</g>
<!-- Node2 -->
<g id="node2" class="node"><title>Node2</title>
<g id="a_node2"><a xlink:href="classmfem_1_1Operator.html" target="_top" xlink:title="Abstract operator. ">
<polygon fill="white" stroke="black" points="0.5,-485.5 0.5,-508.5 133.5,-508.5 133.5,-485.5 0.5,-485.5"/>
<text text-anchor="middle" x="67" y="-493.3" font-family="Helvetica,sans-Serif" font-size="14.00">mfem::Operator</text>
</a>
</g>
</g>
<!-- Node2&#45;&gt;Node1 -->
<g id="edge1" class="edge"><title>Node2&#45;&gt;Node1</title>
<path fill="none" stroke="midnightblue" d="M143.606,-497C152.254,-497 161.123,-497 169.906,-497"/>
<polygon fill="midnightblue" stroke="midnightblue" points="143.573,-493.5 133.573,-497 143.573,-500.5 143.573,-493.5"/>
</g>
<!-- Node4 -->
<g id="node4" class="node"><title>Node4</title>
<g id="a_node4"><a xlink:href="classmfem_1_1ceed_1_1MFConvectionIntegrator.html" target="_top" xlink:title="Represent a ConvectionIntegrator with AssemblyLevel::None using libCEED. ">
<polygon fill="white" stroke="black" points="679,-769 679,-807 891,-807 891,-769 679,-769"/>
<text text-anchor="start" x="687" y="-791.8" font-family="Helvetica,sans-Serif" font-size="14.00">mfem::ceed::MFConvection</text>
<text text-anchor="middle" x="785" y="-776.8" font-family="Helvetica,sans-Serif" font-size="14.00">Integrator</text>
</a>
</g>
</g>
<!-- Node3&#45;&gt;Node4 -->
<g id="edge3" class="edge"><title>Node3&#45;&gt;Node4</title>
<path fill="none" stroke="midnightblue" d="M528.428,-712.017C557.953,-726.061 603.056,-746.184 644,-759 655.726,-762.67 668.151,-766.005 680.567,-768.998"/>
<polygon fill="midnightblue" stroke="midnightblue" points="529.571,-708.683 519.041,-707.506 526.539,-714.992 529.571,-708.683"/>
</g>
<!-- Node5 -->
<g id="node5" class="node"><title>Node5</title>
<g id="a_node5"><a xlink:href="classmfem_1_1ceed_1_1MFDiffusionIntegrator.html" target="_top" xlink:title="Represent a DiffusionIntegrator with AssemblyLevel::None using libCEED. ">
<polygon fill="white" stroke="black" points="651.5,-726.5 651.5,-749.5 918.5,-749.5 918.5,-726.5 651.5,-726.5"/>
<text text-anchor="middle" x="785" y="-734.3" font-family="Helvetica,sans-Serif" font-size="14.00">mfem::ceed::MFDiffusionIntegrator</text>
</a>
</g>
</g>
<!-- Node3&#45;&gt;Node5 -->
<g id="edge4" class="edge"><title>Node3&#45;&gt;Node5</title>
<path fill="none" stroke="midnightblue" d="M585.201,-709.009C623.543,-714.6 667.976,-721.08 705.098,-726.493"/>
<polygon fill="midnightblue" stroke="midnightblue" points="585.479,-705.512 575.078,-707.532 584.468,-712.439 585.479,-705.512"/>
</g>
<!-- Node6 -->
<g id="node6" class="node"><title>Node6</title>
<g id="a_node6"><a xlink:href="classmfem_1_1ceed_1_1MFMassIntegrator.html" target="_top" xlink:title="Represent a MassIntegrator with AssemblyLevel::None using libCEED. ">
<polygon fill="white" stroke="black" points="665,-684.5 665,-707.5 905,-707.5 905,-684.5 665,-684.5"/>
<text text-anchor="middle" x="785" y="-692.3" font-family="Helvetica,sans-Serif" font-size="14.00">mfem::ceed::MFMassIntegrator</text>
</a>
</g>
</g>
<!-- Node3&#45;&gt;Node6 -->
<g id="edge5" class="edge"><title>Node3&#45;&gt;Node6</title>
<path fill="none" stroke="midnightblue" d="M607.226,-696C626.104,-696 645.775,-696 664.846,-696"/>
<polygon fill="midnightblue" stroke="midnightblue" points="607.133,-692.5 597.133,-696 607.133,-699.5 607.133,-692.5"/>
</g>
<!-- Node7 -->
<g id="node7" class="node"><title>Node7</title>
<g id="a_node7"><a xlink:href="classmfem_1_1ceed_1_1MFVectorConvectionNLFIntegrator.html" target="_top" xlink:title="mfem::ceed::MFVectorConvection\lNLFIntegrator">
<polygon fill="white" stroke="black" points="656.5,-627 656.5,-665 913.5,-665 913.5,-627 656.5,-627"/>
<text text-anchor="start" x="664.5" y="-649.8" font-family="Helvetica,sans-Serif" font-size="14.00">mfem::ceed::MFVectorConvection</text>
<text text-anchor="middle" x="785" y="-634.8" font-family="Helvetica,sans-Serif" font-size="14.00">NLFIntegrator</text>
</a>
</g>
</g>
<!-- Node3&#45;&gt;Node7 -->
<g id="edge6" class="edge"><title>Node3&#45;&gt;Node7</title>
<path fill="none" stroke="midnightblue" d="M572.382,-682.739C603.649,-677.311 640.419,-670.927 674.459,-665.018"/>
<polygon fill="midnightblue" stroke="midnightblue" points="571.689,-679.307 562.435,-684.466 572.886,-686.204 571.689,-679.307"/>
</g>
<!-- Node10 -->
<g id="node10" class="node"><title>Node10</title>
<g id="a_node10"><a xlink:href="classmfem_1_1ceed_1_1PAConvectionIntegrator.html" target="_top" xlink:title="Represent a ConvectionIntegrator with AssemblyLevel::Partial using libCEED. ">
<polygon fill="white" stroke="black" points="680.5,-570 680.5,-608 889.5,-608 889.5,-570 680.5,-570"/>
<text text-anchor="start" x="688.5" y="-592.8" font-family="Helvetica,sans-Serif" font-size="14.00">mfem::ceed::PAConvection</text>
<text text-anchor="middle" x="785" y="-577.8" font-family="Helvetica,sans-Serif" font-size="14.00">Integrator</text>
</a>
</g>
</g>
<!-- Node9&#45;&gt;Node10 -->
<g id="edge9" class="edge"><title>Node9&#45;&gt;Node10</title>
<path fill="none" stroke="midnightblue" d="M596.56,-512.256C600.507,-513.977 604.338,-515.885 608,-518 629.29,-530.296 622.828,-547.503 644,-560 655.115,-566.561 667.492,-571.653 680.158,-575.602"/>
<polygon fill="midnightblue" stroke="midnightblue" points="597.755,-508.965 587.167,-508.57 595.198,-515.481 597.755,-508.965"/>
</g>
<!-- Node11 -->
<g id="node11" class="node"><title>Node11</title>
<g id="a_node11"><a xlink:href="classmfem_1_1ceed_1_1PADiffusionIntegrator.html" target="_top" xlink:title="Represent a DiffusionIntegrator with AssemblyLevel::Partial using libCEED. ">
<polygon fill="white" stroke="black" points="653,-527.5 653,-550.5 917,-550.5 917,-527.5 653,-527.5"/>
<text text-anchor="middle" x="785" y="-535.3" font-family="Helvetica,sans-Serif" font-size="14.00">mfem::ceed::PADiffusionIntegrator</text>
</a>
</g>
</g>
<!-- Node9&#45;&gt;Node11 -->
<g id="edge10" class="edge"><title>Node9&#45;&gt;Node11</title>
<path fill="none" stroke="midnightblue" d="M585.201,-510.009C623.543,-515.6 667.976,-522.08 705.098,-527.493"/>
<polygon fill="midnightblue" stroke="midnightblue" points="585.479,-506.512 575.078,-508.532 584.468,-513.439 585.479,-506.512"/>
</g>
<!-- Node12 -->
<g id="node12" class="node"><title>Node12</title>
<g id="a_node12"><a xlink:href="classmfem_1_1ceed_1_1PAMassIntegrator.html" target="_top" xlink:title="Represent a MassIntegrator with AssemblyLevel::Partial using libCEED. ">
<polygon fill="white" stroke="black" points="666.5,-485.5 666.5,-508.5 903.5,-508.5 903.5,-485.5 666.5,-485.5"/>
<text text-anchor="middle" x="785" y="-493.3" font-family="Helvetica,sans-Serif" font-size="14.00">mfem::ceed::PAMassIntegrator</text>
</a>
</g>
</g>
<!-- Node9&#45;&gt;Node12 -->
<g id="edge11" class="edge"><title>Node9&#45;&gt;Node12</title>
<path fill="none" stroke="midnightblue" d="M605.517,-497C625.422,-497 646.26,-497 666.387,-497"/>
<polygon fill="midnightblue" stroke="midnightblue" points="605.517,-493.5 595.517,-497 605.517,-500.5 605.517,-493.5"/>
</g>
<!-- Node13 -->
<g id="node13" class="node"><title>Node13</title>
<g id="a_node13"><a xlink:href="classmfem_1_1ceed_1_1PAVectorConvectionNLFIntegrator.html" target="_top" xlink:title="mfem::ceed::PAVectorConvection\lNLFIntegrator">
<polygon fill="white" stroke="black" points="658,-428 658,-466 912,-466 912,-428 658,-428"/>
<text text-anchor="start" x="666" y="-450.8" font-family="Helvetica,sans-Serif" font-size="14.00">mfem::ceed::PAVectorConvection</text>
<text text-anchor="middle" x="785" y="-435.8" font-family="Helvetica,sans-Serif" font-size="14.00">NLFIntegrator</text>
</a>
</g>
</g>
<!-- Node9&#45;&gt;Node13 -->
<g id="edge12" class="edge"><title>Node9&#45;&gt;Node13</title>
<path fill="none" stroke="midnightblue" d="M572.382,-483.739C603.649,-478.311 640.419,-471.927 674.459,-466.018"/>
<polygon fill="midnightblue" stroke="midnightblue" points="571.689,-480.307 562.435,-485.466 572.886,-487.204 571.689,-480.307"/>
</g>
<!-- Node15 -->
<g id="node15" class="node"><title>Node15</title>
<g id="a_node15"><a xlink:href="classmfem_1_1ceed_1_1MixedMFConvectionIntegrator.html" target="_top" xlink:title="mfem::ceed::MixedMFConvection\lIntegrator">
<polygon fill="white" stroke="black" points="658.5,-371 658.5,-409 911.5,-409 911.5,-371 658.5,-371"/>
<text text-anchor="start" x="666.5" y="-393.8" font-family="Helvetica,sans-Serif" font-size="14.00">mfem::ceed::MixedMFConvection</text>
<text text-anchor="middle" x="785" y="-378.8" font-family="Helvetica,sans-Serif" font-size="14.00">Integrator</text>
</a>
</g>
</g>
<!-- Node14&#45;&gt;Node15 -->
<g id="edge14" class="edge"><title>Node14&#45;&gt;Node15</title>
<path fill="none" stroke="midnightblue" d="M602.129,-354.005C630.181,-359.557 660.296,-365.517 687.791,-370.959"/>
<polygon fill="midnightblue" stroke="midnightblue" points="602.79,-350.568 592.3,-352.059 601.43,-357.434 602.79,-350.568"/>
</g>
<!-- Node16 -->
<g id="node16" class="node"><title>Node16</title>
<g id="a_node16"><a xlink:href="classmfem_1_1ceed_1_1MixedMFDiffusionIntegrator.html" target="_top" xlink:title="mfem::ceed::MixedMFDiffusion\lIntegrator">
<polygon fill="white" stroke="black" points="667,-314 667,-352 903,-352 903,-314 667,-314"/>
<text text-anchor="start" x="675" y="-336.8" font-family="Helvetica,sans-Serif" font-size="14.00">mfem::ceed::MixedMFDiffusion</text>
<text text-anchor="middle" x="785" y="-321.8" font-family="Helvetica,sans-Serif" font-size="14.00">Integrator</text>
</a>
</g>
</g>
<!-- Node14&#45;&gt;Node16 -->
<g id="edge15" class="edge"><title>Node14&#45;&gt;Node16</title>
<path fill="none" stroke="midnightblue" d="M617.772,-333C633.941,-333 650.494,-333 666.588,-333"/>
<polygon fill="midnightblue" stroke="midnightblue" points="617.761,-329.5 607.761,-333 617.76,-336.5 617.761,-329.5"/>
</g>
<!-- Node17 -->
<g id="node17" class="node"><title>Node17</title>
<g id="a_node17"><a xlink:href="classmfem_1_1ceed_1_1MixedMFMassIntegrator.html" target="_top" xlink:title="mfem::ceed::MixedMFMassIntegrator">
<polygon fill="white" stroke="black" points="644.5,-271.5 644.5,-294.5 925.5,-294.5 925.5,-271.5 644.5,-271.5"/>
<text text-anchor="middle" x="785" y="-279.3" font-family="Helvetica,sans-Serif" font-size="14.00">mfem::ceed::MixedMFMassIntegrator</text>
</a>
</g>
</g>
<!-- Node14&#45;&gt;Node17 -->
<g id="edge16" class="edge"><title>Node14&#45;&gt;Node17</title>
<path fill="none" stroke="midnightblue" d="M599.998,-312.016C614.75,-309.216 629.745,-306.464 644,-304 663.011,-300.713 683.527,-297.468 702.838,-294.547"/>
<polygon fill="midnightblue" stroke="midnightblue" points="599,-308.643 589.835,-313.959 600.315,-315.518 599,-308.643"/>
</g>
<!-- Node18 -->
<g id="node18" class="node"><title>Node18</title>
<g id="a_node18"><a xlink:href="classmfem_1_1ceed_1_1MixedMFVectorConvectionNLIntegrator.html" target="_top" xlink:title="mfem::ceed::MixedMFVector\lConvectionNLIntegrator">
<polygon fill="white" stroke="black" points="675.5,-214 675.5,-252 894.5,-252 894.5,-214 675.5,-214"/>
<text text-anchor="start" x="683.5" y="-236.8" font-family="Helvetica,sans-Serif" font-size="14.00">mfem::ceed::MixedMFVector</text>
<text text-anchor="middle" x="785" y="-221.8" font-family="Helvetica,sans-Serif" font-size="14.00">ConvectionNLIntegrator</text>
</a>
</g>
</g>
<!-- Node14&#45;&gt;Node18 -->
<g id="edge17" class="edge"><title>Node14&#45;&gt;Node18</title>
<path fill="none" stroke="midnightblue" d="M538.705,-309.086C567.659,-293.739 607.213,-274.427 644,-262 654.935,-258.306 666.516,-254.997 678.149,-252.055"/>
<polygon fill="midnightblue" stroke="midnightblue" points="536.854,-306.107 529.694,-313.916 540.161,-312.277 536.854,-306.107"/>
</g>
<!-- Node20 -->
<g id="node20" class="node"><title>Node20</title>
<g id="a_node20"><a xlink:href="classmfem_1_1ceed_1_1MixedPAConvectionIntegrator.html" target="_top" xlink:title="mfem::ceed::MixedPAConvection\lIntegrator">
<polygon fill="white" stroke="black" points="660,-157 660,-195 910,-195 910,-157 660,-157"/>
<text text-anchor="start" x="668" y="-179.8" font-family="Helvetica,sans-Serif" font-size="14.00">mfem::ceed::MixedPAConvection</text>
<text text-anchor="middle" x="785" y="-164.8" font-family="Helvetica,sans-Serif" font-size="14.00">Integrator</text>
</a>
</g>
</g>
<!-- Node19&#45;&gt;Node20 -->
<g id="edge19" class="edge"><title>Node19&#45;&gt;Node20</title>
<path fill="none" stroke="midnightblue" d="M602.129,-140.005C630.181,-145.557 660.296,-151.517 687.791,-156.959"/>
<polygon fill="midnightblue" stroke="midnightblue" points="602.79,-136.568 592.3,-138.059 601.43,-143.434 602.79,-136.568"/>
</g>
<!-- Node21 -->
<g id="node21" class="node"><title>Node21</title>
<g id="a_node21"><a xlink:href="classmfem_1_1ceed_1_1MixedPADiffusionIntegrator.html" target="_top" xlink:title="mfem::ceed::MixedPADiffusion\lIntegrator">
<polygon fill="white" stroke="black" points="668.5,-100 668.5,-138 901.5,-138 901.5,-100 668.5,-100"/>
<text text-anchor="start" x="676.5" y="-122.8" font-family="Helvetica,sans-Serif" font-size="14.00">mfem::ceed::MixedPADiffusion</text>
<text text-anchor="middle" x="785" y="-107.8" font-family="Helvetica,sans-Serif" font-size="14.00">Integrator</text>
</a>
</g>
</g>
<!-- Node19&#45;&gt;Node21 -->
<g id="edge20" class="edge"><title>Node19&#45;&gt;Node21</title>
<path fill="none" stroke="midnightblue" d="M618.102,-119C634.807,-119 651.915,-119 668.498,-119"/>
<polygon fill="midnightblue" stroke="midnightblue" points="617.761,-115.5 607.761,-119 617.76,-122.5 617.761,-115.5"/>
</g>
<!-- Node22 -->
<g id="node22" class="node"><title>Node22</title>
<g id="a_node22"><a xlink:href="classmfem_1_1ceed_1_1MixedPAMassIntegrator.html" target="_top" xlink:title="mfem::ceed::MixedPAMassIntegrator">
<polygon fill="white" stroke="black" points="646,-57.5 646,-80.5 924,-80.5 924,-57.5 646,-57.5"/>
<text text-anchor="middle" x="785" y="-65.3" font-family="Helvetica,sans-Serif" font-size="14.00">mfem::ceed::MixedPAMassIntegrator</text>
</a>
</g>
</g>
<!-- Node19&#45;&gt;Node22 -->
<g id="edge21" class="edge"><title>Node19&#45;&gt;Node22</title>
<path fill="none" stroke="midnightblue" d="M599.998,-98.0157C614.75,-95.2159 629.745,-92.4644 644,-90 663.011,-86.7132 683.527,-83.4676 702.838,-80.5469"/>
<polygon fill="midnightblue" stroke="midnightblue" points="599,-94.6429 589.835,-99.9588 600.315,-101.518 599,-94.6429"/>
</g>
<!-- Node23 -->
<g id="node23" class="node"><title>Node23</title>
<g id="a_node23"><a xlink:href="classmfem_1_1ceed_1_1MixedPAVectorConvectionNLIntegrator.html" target="_top" xlink:title="mfem::ceed::MixedPAVector\lConvectionNLIntegrator">
<polygon fill="white" stroke="black" points="677.5,-0 677.5,-38 892.5,-38 892.5,-0 677.5,-0"/>
<text text-anchor="start" x="685.5" y="-22.8" font-family="Helvetica,sans-Serif" font-size="14.00">mfem::ceed::MixedPAVector</text>
<text text-anchor="middle" x="785" y="-7.8" font-family="Helvetica,sans-Serif" font-size="14.00">ConvectionNLIntegrator</text>
</a>
</g>
</g>
<!-- Node19&#45;&gt;Node23 -->
<g id="edge22" class="edge"><title>Node19&#45;&gt;Node23</title>
<path fill="none" stroke="midnightblue" d="M538.705,-95.0862C567.659,-79.7389 607.213,-60.4273 644,-48 654.935,-44.306 666.516,-40.9972 678.149,-38.0555"/>
<polygon fill="midnightblue" stroke="midnightblue" points="536.854,-92.1071 529.694,-99.916 540.161,-98.2768 536.854,-92.1071"/>
</g>
</g>
</svg>
        <g id="navigator" transform="translate(0 0)" fill="#404254">
                <rect fill="#f2f5e9" fill-opacity="0.5" stroke="#606060" stroke-width=".5" x="0" y="0" width="60" height="60"/>
                <use id="zoomplus" xlink:href="#zoomPlus" x="17" y="9" onmousedown="handleZoom(evt,'in')"/>
                <use id="zoomminus" xlink:href="#zoomMin" x="42" y="9" onmousedown="handleZoom(evt,'out')"/>
                <use id="reset" xlink:href="#resetDef" x="30" y="36" onmousedown="handleReset()"/>
                <g id="arrowUp" xlink:href="#dirArrow" transform="translate(30 24)" onmousedown="handlePan(0,-1)">
                  <use xlink:href="#rim" fill="#404040">
                        <set attributeName="fill" to="#808080" begin="arrowUp.mouseover" end="arrowUp.mouseout"/>
                  </use>
                  <path fill="none" stroke="white" stroke-width="1.5" d="M0,-3.0v7 M-2.5,-0.5L0,-3.0L2.5,-0.5"/>
                </g>
                <g id="arrowRight" xlink:href="#dirArrow" transform="rotate(90) translate(36 -43)" onmousedown="handlePan(1,0)">
                  <use xlink:href="#rim" fill="#404040">
                        <set attributeName="fill" to="#808080" begin="arrowRight.mouseover" end="arrowRight.mouseout"/>
                  </use>
                  <path fill="none" stroke="white" stroke-width="1.5" d="M0,-3.0v7 M-2.5,-0.5L0,-3.0L2.5,-0.5"/>
                </g>
                <g id="arrowDown" xlink:href="#dirArrow" transform="rotate(180) translate(-30 -48)" onmousedown="handlePan(0,1)">
                  <use xlink:href="#rim" fill="#404040">
                        <set attributeName="fill" to="#808080" begin="arrowDown.mouseover" end="arrowDown.mouseout"/>
                  </use>
                  <path fill="none" stroke="white" stroke-width="1.5" d="M0,-3.0v7 M-2.5,-0.5L0,-3.0L2.5,-0.5"/>
                </g>
                <g id="arrowLeft" xlink:href="#dirArrow" transform="rotate(270) translate(-36 17)" onmousedown="handlePan(-1,0)">
                  <use xlink:href="#rim" fill="#404040">
                        <set attributeName="fill" to="#808080" begin="arrowLeft.mouseover" end="arrowLeft.mouseout"/>
                  </use>
                  <path fill="none" stroke="white" stroke-width="1.5" d="M0,-3.0v7 M-2.5,-0.5L0,-3.0L2.5,-0.5"/>
                </g>
        </g>
        <svg viewBox="0 0 15 15" width="100%" height="30px" preserveAspectRatio="xMaxYMin meet">
         <g id="arrow_out" transform="scale(0.3 0.3)">
          <a xlink:href="classmfem_1_1ceed_1_1Operator__inherit__graph_org.svg" target="_base">
           <rect id="button" ry="5" rx="5" y="6" x="6" height="38" width="38"
                fill="#f2f5e9" fill-opacity="0.5" stroke="#606060" stroke-width="1.0"/>
           <path id="arrow"
             d="M 11.500037,31.436501 C 11.940474,20.09759 22.043105,11.32322 32.158766,21.979434 L 37.068811,17.246167 C 37.068811,17.246167 37.088388,32 37.088388,32 L 22.160133,31.978069 C 22.160133,31.978069 26.997745,27.140456 26.997745,27.140456 C 18.528582,18.264221 13.291696,25.230495 11.500037,31.436501 z"
             style="fill:#404040;"/>
          </a>
         </g>
        </svg>
</svg>
