<?xml version="1.0" encoding="UTF-8" standalone="no"?>
<!DOCTYPE svg PUBLIC "-//W3C//DTD SVG 1.1//EN"
 "http://www.w3.org/Graphics/SVG/1.1/DTD/svg11.dtd">
<!-- Generated by graphviz version 2.30.1 (20200304.1809)
 -->
<!-- Title: mfem::IterativeSolver Pages: 1 -->
<svg width="1006pt" height="140pt"
 viewBox="0.00 0.00 1006.00 140.00" xmlns="http://www.w3.org/2000/svg" xmlns:xlink="http://www.w3.org/1999/xlink">
<g id="graph0" class="graph" transform="scale(1 1) rotate(0) translate(4 136)">
<title>mfem::IterativeSolver</title>
<polygon fill="white" stroke="white" points="-4,5 -4,-136 1003,-136 1003,5 -4,5"/>
<!-- Node25 -->
<g id="node1" class="node"><title>Node25</title>
<polygon fill="#bfbfbf" stroke="black" points="480.5,-79.5 480.5,-102.5 653.5,-102.5 653.5,-79.5 480.5,-79.5"/>
<text text-anchor="middle" x="567" y="-87.3" font-family="Helvetica,sans-Serif" font-size="14.00">mfem::IterativeSolver</text>
</g>
<!-- Node29 -->
<g id="node5" class="node"><title>Node29</title>
<g id="a_node5"><a xlink:href="classmfem_1_1IterativeSolverMonitor.html" target="_top" xlink:title="Abstract base class for an iterative solver monitor. ">
<polygon fill="white" stroke="black" points="770.5,-79.5 770.5,-102.5 997.5,-102.5 997.5,-79.5 770.5,-79.5"/>
<text text-anchor="middle" x="884" y="-87.3" font-family="Helvetica,sans-Serif" font-size="14.00">mfem::IterativeSolverMonitor</text>
</a>
</g>
</g>
<!-- Node25&#45;&gt;Node29 -->
<g id="edge6" class="edge"><title>Node25&#45;&gt;Node29</title>
<path fill="none" stroke="#9a32cd" stroke-dasharray="5,2" d="M663.938,-91C697.546,-91 735.592,-91 770.436,-91"/>
<polygon fill="#9a32cd" stroke="#9a32cd" points="663.659,-87.5001 653.659,-91 663.659,-94.5001 663.659,-87.5001"/>
<text text-anchor="middle" x="712" y="-94.8" font-family="Helvetica,sans-Serif" font-size="14.00"> iter_solver</text>
</g>
<!-- Node26 -->
<g id="node2" class="node"><title>Node26</title>
<g id="a_node2"><a xlink:href="classmfem_1_1Solver.html" target="_top" xlink:title="Base class for solvers. ">
<polygon fill="white" stroke="black" points="202.5,-108.5 202.5,-131.5 315.5,-131.5 315.5,-108.5 202.5,-108.5"/>
<text text-anchor="middle" x="259" y="-116.3" font-family="Helvetica,sans-Serif" font-size="14.00">mfem::Solver</text>
</a>
</g>
</g>
<!-- Node26&#45;&gt;Node25 -->
<g id="edge1" class="edge"><title>Node26&#45;&gt;Node25</title>
<path fill="none" stroke="midnightblue" d="M325.73,-127.013C365.418,-129.834 416.879,-130.987 462,-124 488.395,-119.913 517.263,-110.317 537.874,-102.521"/>
<polygon fill="midnightblue" stroke="midnightblue" points="325.882,-123.515 315.645,-126.243 325.349,-130.495 325.882,-123.515"/>
</g>
<!-- Node26&#45;&gt;Node25 -->
<g id="edge3" class="edge"><title>Node26&#45;&gt;Node25</title>
<path fill="none" stroke="#9a32cd" stroke-dasharray="5,2" d="M325.786,-109.76C338.447,-108.003 351.619,-106.32 364,-105 402.101,-100.938 444.378,-97.7965 480.366,-95.5287"/>
<polygon fill="#9a32cd" stroke="#9a32cd" points="325.177,-106.312 315.767,-111.181 326.159,-113.242 325.177,-106.312"/>
<text text-anchor="middle" x="413" y="-108.8" font-family="Helvetica,sans-Serif" font-size="14.00"> prec</text>
</g>
<!-- Node27 -->
<g id="node3" class="node"><title>Node27</title>
<g id="a_node3"><a xlink:href="classmfem_1_1Operator.html" target="_top" xlink:title="Abstract operator. ">
<polygon fill="white" stroke="black" points="0.5,-80.5 0.5,-103.5 133.5,-103.5 133.5,-80.5 0.5,-80.5"/>
<text text-anchor="middle" x="67" y="-88.3" font-family="Helvetica,sans-Serif" font-size="14.00">mfem::Operator</text>
</a>
</g>
</g>
<!-- Node27&#45;&gt;Node26 -->
<g id="edge2" class="edge"><title>Node27&#45;&gt;Node26</title>
<path fill="none" stroke="midnightblue" d="M143.777,-103.167C163.372,-106.055 184.105,-109.11 202.451,-111.814"/>
<polygon fill="midnightblue" stroke="midnightblue" points="144.057,-99.6706 133.653,-101.675 143.036,-106.596 144.057,-99.6706"/>
</g>
<!-- Node27&#45;&gt;Node25 -->
<g id="edge7" class="edge"><title>Node27&#45;&gt;Node25</title>
<path fill="none" stroke="#9a32cd" stroke-dasharray="5,2" d="M143.9,-85.4824C153.356,-84.8707 162.897,-84.3496 172,-84 278.134,-79.924 400.443,-83.3661 480.274,-86.7068"/>
<polygon fill="#9a32cd" stroke="#9a32cd" points="143.437,-82.0058 133.698,-86.1779 143.913,-88.9896 143.437,-82.0058"/>
<text text-anchor="middle" x="259" y="-87.8" font-family="Helvetica,sans-Serif" font-size="14.00"> oper</text>
</g>
<!-- Node28 -->
<g id="node4" class="node"><title>Node28</title>
<g id="a_node4"><a xlink:href="structmfem_1_1IterativeSolver_1_1PrintLevel.html" target="_top" xlink:title="Settings for the output behavior of the IterativeSolver. ">
<polygon fill="white" stroke="black" points="172.5,-0 172.5,-38 345.5,-38 345.5,-0 172.5,-0"/>
<text text-anchor="start" x="180.5" y="-22.8" font-family="Helvetica,sans-Serif" font-size="14.00">mfem::IterativeSolver</text>
<text text-anchor="middle" x="259" y="-7.8" font-family="Helvetica,sans-Serif" font-size="14.00">::PrintLevel</text>
</a>
</g>
</g>
<!-- Node28&#45;&gt;Node25 -->
<g id="edge4" class="edge"><title>Node28&#45;&gt;Node25</title>
<path fill="none" stroke="#9a32cd" stroke-dasharray="5,2" d="M355.512,-26.308C389.536,-30.3381 427.866,-36.5304 462,-46 491.384,-54.1519 523.311,-68.929 543.93,-79.3202"/>
<polygon fill="#9a32cd" stroke="#9a32cd" points="355.902,-22.8298 345.57,-25.1766 355.11,-29.7849 355.902,-22.8298"/>
<text text-anchor="middle" x="413" y="-49.8" font-family="Helvetica,sans-Serif" font-size="14.00"> print_options</text>
</g>
<!-- Node29&#45;&gt;Node25 -->
<g id="edge5" class="edge"><title>Node29&#45;&gt;Node25</title>
<path fill="none" stroke="#9a32cd" stroke-dasharray="5,2" d="M806.511,-78.1728C766.448,-73.0493 716.574,-69.1711 672,-73 656.39,-74.3409 639.607,-76.7939 624.175,-79.4666"/>
<polygon fill="#9a32cd" stroke="#9a32cd" points="806.102,-81.6492 816.476,-79.4983 807.025,-74.7103 806.102,-81.6492"/>
<text text-anchor="middle" x="712" y="-76.8" font-family="Helvetica,sans-Serif" font-size="14.00"> monitor</text>
</g>
</g>
</svg>
