<?xml version="1.0" encoding="UTF-8" standalone="no"?>
<!DOCTYPE svg PUBLIC "-//W3C//DTD SVG 1.1//EN"
 "http://www.w3.org/Graphics/SVG/1.1/DTD/svg11.dtd">
<!-- Generated by graphviz version 2.30.1 (20200304.1809)
 -->
<!-- Title: mfem::NURBSFiniteElement Pages: 1 -->
<!--zoomable 341 -->
<svg id="main" version="1.1" xmlns="http://www.w3.org/2000/svg" xmlns:xlink="http://www.w3.org/1999/xlink" xml:space="preserve" onload="init(evt)">
<style type="text/css"><![CDATA[
.edge:hover path { stroke: red; }
.edge:hover polygon { stroke: red; fill: red; }
]]></style>
<script type="text/javascript"><![CDATA[
var edges = document.getElementsByTagName('g');
if (edges && edges.length) {
  for (var i=0;i<edges.length;i++) {
    if (edges[i].id.substr(0,4)=='edge') {
      edges[i].setAttribute('class','edge');
    }
  }
}
]]></script>
        <defs>
                <circle id="rim" cx="0" cy="0" r="7"/>
                <circle id="rim2" cx="0" cy="0" r="3.5"/>
                <g id="zoomPlus">
                        <use xlink:href="#rim" fill="#404040">
                                <set attributeName="fill" to="#808080" begin="zoomplus.mouseover" end="zoomplus.mouseout"/>
                        </use>
                        <path d="M-4,0h8M0,-4v8" fill="none" stroke="white" stroke-width="1.5" pointer-events="none"/>
                </g>
                <g id="zoomMin">
                        <use xlink:href="#rim" fill="#404040">
                                <set attributeName="fill" to="#808080" begin="zoomminus.mouseover" end="zoomminus.mouseout"/>
                        </use>
                        <path d="M-4,0h8" fill="none" stroke="white" stroke-width="1.5" pointer-events="none"/>
                </g>
                <g id="dirArrow">
                        <path fill="none" stroke="white" stroke-width="1.5" d="M0,-3.0v7 M-2.5,-0.5L0,-3.0L2.5,-0.5"/>
                </g>
               <g id="resetDef">
                       <use xlink:href="#rim2" fill="#404040">
                               <set attributeName="fill" to="#808080" begin="reset.mouseover" end="reset.mouseout"/>
                       </use>
               </g>
        </defs>

<script type="text/javascript">
var viewWidth = 2476;
var viewHeight = 341;
var sectionId = 'dynsection-1';
</script>
<script xlink:href="svgpan.js"/>
<svg id="graph" class="graph">
<g id="viewport">
<title>mfem::NURBSFiniteElement</title>
<polygon fill="white" stroke="white" points="-4,5 -4,-337 2473,-337 2473,5 -4,5"/>
<!-- Node6 -->
<g id="node1" class="node"><title>Node6</title>
<polygon fill="#bfbfbf" stroke="black" points="2252.5,-63.5 2252.5,-86.5 2467.5,-86.5 2467.5,-63.5 2252.5,-63.5"/>
<text text-anchor="middle" x="2360" y="-71.3" font-family="Helvetica,sans-Serif" font-size="14.00">mfem::NURBSFiniteElement</text>
</g>
<!-- Node7 -->
<g id="node2" class="node"><title>Node7</title>
<g id="a_node2"><a xlink:href="classmfem_1_1ScalarFiniteElement.html" target="_top" xlink:title="Class for finite elements with basis functions that return scalar values. ">
<polygon fill="white" stroke="black" points="1392,-106.5 1392,-129.5 1602,-129.5 1602,-106.5 1392,-106.5"/>
<text text-anchor="middle" x="1497" y="-114.3" font-family="Helvetica,sans-Serif" font-size="14.00">mfem::ScalarFiniteElement</text>
</a>
</g>
</g>
<!-- Node7&#45;&gt;Node6 -->
<g id="edge1" class="edge"><title>Node7&#45;&gt;Node6</title>
<path fill="none" stroke="midnightblue" d="M1612.27,-116.051C1757.11,-112.993 2014.37,-105.604 2234,-89 2243.25,-88.3004 2252.88,-87.4472 2262.5,-86.5107"/>
<polygon fill="midnightblue" stroke="midnightblue" points="1611.97,-112.556 1602.04,-116.263 1612.11,-119.555 1611.97,-112.556"/>
</g>
<!-- Node8 -->
<g id="node3" class="node"><title>Node8</title>
<g id="a_node3"><a xlink:href="classmfem_1_1FiniteElement.html" target="_top" xlink:title="Abstract class for all finite elements. ">
<polygon fill="white" stroke="black" points="1114,-155.5 1114,-178.5 1280,-178.5 1280,-155.5 1114,-155.5"/>
<text text-anchor="middle" x="1197" y="-163.3" font-family="Helvetica,sans-Serif" font-size="14.00">mfem::FiniteElement</text>
</a>
</g>
</g>
<!-- Node8&#45;&gt;Node7 -->
<g id="edge2" class="edge"><title>Node8&#45;&gt;Node7</title>
<path fill="none" stroke="midnightblue" d="M1278.2,-153.812C1324.31,-146.23 1381.69,-136.797 1425.97,-129.515"/>
<polygon fill="midnightblue" stroke="midnightblue" points="1277.54,-150.374 1268.24,-155.45 1278.68,-157.281 1277.54,-150.374"/>
</g>
<!-- Node11 -->
<g id="node6" class="node"><title>Node11</title>
<g id="a_node6"><a xlink:href="classmfem_1_1DofToQuad.html" target="_top" xlink:title="Structure representing the matrices/tensors needed to evaluate (in reference space) the values...">
<polygon fill="white" stroke="black" points="1423,-219.5 1423,-242.5 1571,-242.5 1571,-219.5 1423,-219.5"/>
<text text-anchor="middle" x="1497" y="-227.3" font-family="Helvetica,sans-Serif" font-size="14.00">mfem::DofToQuad</text>
</a>
</g>
</g>
<!-- Node8&#45;&gt;Node11 -->
<g id="edge12" class="edge"><title>Node8&#45;&gt;Node11</title>
<path fill="none" stroke="#9a32cd" stroke-dasharray="5,2" d="M1261.73,-180.686C1315.49,-192.233 1391.59,-208.577 1442.31,-219.469"/>
<polygon fill="#9a32cd" stroke="#9a32cd" points="1262.13,-177.194 1251.62,-178.516 1260.66,-184.038 1262.13,-177.194"/>
<text text-anchor="middle" x="1342" y="-208.8" font-family="Helvetica,sans-Serif" font-size="14.00"> FE</text>
</g>
<!-- Node9 -->
<g id="node4" class="node"><title>Node9</title>
<g id="a_node4"><a xlink:href="classmfem_1_1Array.html" target="_top" xlink:title="mfem::Array\&lt; mfem::\lDofToQuad *\&gt;">
<polygon fill="white" stroke="black" points="2018,-166 2018,-204 2194,-204 2194,-166 2018,-166"/>
<text text-anchor="start" x="2026" y="-188.8" font-family="Helvetica,sans-Serif" font-size="14.00">mfem::Array&lt; mfem::</text>
<text text-anchor="middle" x="2106" y="-173.8" font-family="Helvetica,sans-Serif" font-size="14.00">DofToQuad *&gt;</text>
</a>
</g>
</g>
<!-- Node9&#45;&gt;Node8 -->
<g id="edge3" class="edge"><title>Node9&#45;&gt;Node8</title>
<path fill="none" stroke="#9a32cd" stroke-dasharray="5,2" d="M2007.57,-183.066C1827.92,-179.501 1447.56,-171.953 1280.09,-168.629"/>
<polygon fill="#9a32cd" stroke="#9a32cd" points="2007.73,-186.57 2017.8,-183.269 2007.87,-179.572 2007.73,-186.57"/>
<text text-anchor="middle" x="1680" y="-181.8" font-family="Helvetica,sans-Serif" font-size="14.00"> dof2quad_array</text>
</g>
<!-- Node10 -->
<g id="node5" class="node"><title>Node10</title>
<g id="a_node5"><a xlink:href="classmfem_1_1Memory.html" target="_top" xlink:title="mfem::Memory\&lt; mfem\l::DofToQuad *\&gt;">
<polygon fill="white" stroke="black" points="1758,-195 1758,-233 1944,-233 1944,-195 1758,-195"/>
<text text-anchor="start" x="1766" y="-217.8" font-family="Helvetica,sans-Serif" font-size="14.00">mfem::Memory&lt; mfem</text>
<text text-anchor="middle" x="1851" y="-202.8" font-family="Helvetica,sans-Serif" font-size="14.00">::DofToQuad *&gt;</text>
</a>
</g>
</g>
<!-- Node10&#45;&gt;Node9 -->
<g id="edge4" class="edge"><title>Node10&#45;&gt;Node9</title>
<path fill="none" stroke="#9a32cd" stroke-dasharray="5,2" d="M1954,-202.309C1975.09,-199.891 1997.13,-197.364 2017.65,-195.012"/>
<polygon fill="#9a32cd" stroke="#9a32cd" points="1953.59,-198.832 1944.05,-203.448 1954.39,-205.787 1953.59,-198.832"/>
<text text-anchor="middle" x="1981" y="-205.8" font-family="Helvetica,sans-Serif" font-size="14.00"> data</text>
</g>
<!-- Node11&#45;&gt;Node10 -->
<g id="edge5" class="edge"><title>Node11&#45;&gt;Node10</title>
<path fill="none" stroke="#9a32cd" stroke-dasharray="5,2" d="M1581.42,-226.971C1634.48,-224.408 1703.25,-221.088 1757.91,-218.448"/>
<polygon fill="#9a32cd" stroke="#9a32cd" points="1581.18,-223.479 1571.36,-227.457 1581.52,-230.47 1581.18,-223.479"/>
<text text-anchor="middle" x="1680" y="-229.8" font-family="Helvetica,sans-Serif" font-size="14.00"> h_ptr</text>
</g>
<!-- Node12 -->
<g id="node7" class="node"><title>Node12</title>
<g id="a_node7"><a xlink:href="classmfem_1_1IntegrationRule.html" target="_top" xlink:title="Class for an integration rule &#45; an Array of IntegrationPoint. ">
<polygon fill="white" stroke="black" points="814,-291.5 814,-314.5 992,-314.5 992,-291.5 814,-291.5"/>
<text text-anchor="middle" x="903" y="-299.3" font-family="Helvetica,sans-Serif" font-size="14.00">mfem::IntegrationRule</text>
</a>
</g>
</g>
<!-- Node12&#45;&gt;Node11 -->
<g id="edge6" class="edge"><title>Node12&#45;&gt;Node11</title>
<path fill="none" stroke="#9a32cd" stroke-dasharray="5,2" d="M1002.19,-313.462C1098.46,-320.809 1248.61,-324.448 1374,-293 1414.33,-282.886 1456.53,-257.627 1479.2,-242.655"/>
<polygon fill="#9a32cd" stroke="#9a32cd" points="1002.42,-309.969 992.171,-312.669 1001.86,-316.947 1002.42,-309.969"/>
<text text-anchor="middle" x="1197" y="-321.8" font-family="Helvetica,sans-Serif" font-size="14.00"> IntRule</text>
</g>
<!-- Node12&#45;&gt;Node8 -->
<g id="edge13" class="edge"><title>Node12&#45;&gt;Node8</title>
<path fill="none" stroke="#9a32cd" stroke-dasharray="5,2" d="M967.846,-288.727C1004.76,-278.05 1050.4,-260.463 1084,-233 1095.46,-223.638 1090.61,-214.438 1102,-205 1116.37,-193.097 1134.95,-184.536 1151.8,-178.59"/>
<polygon fill="#9a32cd" stroke="#9a32cd" points="966.866,-285.366 958.175,-291.425 968.747,-292.109 966.866,-285.366"/>
<text text-anchor="middle" x="1055" y="-269.8" font-family="Helvetica,sans-Serif" font-size="14.00"> Nodes</text>
</g>
<!-- Node13 -->
<g id="node8" class="node"><title>Node13</title>
<g id="a_node8"><a xlink:href="classmfem_1_1Array.html" target="_top" xlink:title="mfem::Array\&lt; Integration\lPoint \&gt;">
<polygon fill="white" stroke="black" points="556.5,-284 556.5,-322 759.5,-322 759.5,-284 556.5,-284"/>
<text text-anchor="start" x="564.5" y="-306.8" font-family="Helvetica,sans-Serif" font-size="14.00">mfem::Array&lt; Integration</text>
<text text-anchor="middle" x="658" y="-291.8" font-family="Helvetica,sans-Serif" font-size="14.00">Point &gt;</text>
</a>
</g>
</g>
<!-- Node13&#45;&gt;Node12 -->
<g id="edge7" class="edge"><title>Node13&#45;&gt;Node12</title>
<path fill="none" stroke="midnightblue" d="M769.783,-303C784.568,-303 799.567,-303 813.894,-303"/>
<polygon fill="midnightblue" stroke="midnightblue" points="769.592,-299.5 759.591,-303 769.591,-306.5 769.592,-299.5"/>
</g>
<!-- Node14 -->
<g id="node9" class="node"><title>Node14</title>
<g id="a_node9"><a xlink:href="classmfem_1_1Memory.html" target="_top" xlink:title="mfem::Memory\&lt; Integration\lPoint \&gt;">
<polygon fill="white" stroke="black" points="260,-284 260,-322 482,-322 482,-284 260,-284"/>
<text text-anchor="start" x="268" y="-306.8" font-family="Helvetica,sans-Serif" font-size="14.00">mfem::Memory&lt; Integration</text>
<text text-anchor="middle" x="371" y="-291.8" font-family="Helvetica,sans-Serif" font-size="14.00">Point &gt;</text>
</a>
</g>
</g>
<!-- Node14&#45;&gt;Node13 -->
<g id="edge8" class="edge"><title>Node14&#45;&gt;Node13</title>
<path fill="none" stroke="#9a32cd" stroke-dasharray="5,2" d="M492.278,-303C513.639,-303 535.683,-303 556.426,-303"/>
<polygon fill="#9a32cd" stroke="#9a32cd" points="492.188,-299.5 482.188,-303 492.188,-306.5 492.188,-299.5"/>
<text text-anchor="middle" x="519" y="-306.8" font-family="Helvetica,sans-Serif" font-size="14.00"> data</text>
</g>
<!-- Node15 -->
<g id="node10" class="node"><title>Node15</title>
<g id="a_node10"><a xlink:href="classmfem_1_1IntegrationPoint.html" target="_top" xlink:title="Class for integration point with weight. ">
<polygon fill="white" stroke="black" points="0,-291.5 0,-314.5 182,-314.5 182,-291.5 0,-291.5"/>
<text text-anchor="middle" x="91" y="-299.3" font-family="Helvetica,sans-Serif" font-size="14.00">mfem::IntegrationPoint</text>
</a>
</g>
</g>
<!-- Node15&#45;&gt;Node14 -->
<g id="edge9" class="edge"><title>Node15&#45;&gt;Node14</title>
<path fill="none" stroke="#9a32cd" stroke-dasharray="5,2" d="M192.526,-303C214.373,-303 237.597,-303 259.796,-303"/>
<polygon fill="#9a32cd" stroke="#9a32cd" points="192.259,-299.5 182.259,-303 192.259,-306.5 192.259,-299.5"/>
<text text-anchor="middle" x="221" y="-306.8" font-family="Helvetica,sans-Serif" font-size="14.00"> h_ptr</text>
</g>
<!-- Node16 -->
<g id="node11" class="node"><title>Node16</title>
<g id="a_node11"><a xlink:href="classmfem_1_1Array.html" target="_top" xlink:title="mfem::Array\&lt; double \&gt;">
<polygon fill="white" stroke="black" points="1102.5,-214.5 1102.5,-237.5 1291.5,-237.5 1291.5,-214.5 1102.5,-214.5"/>
<text text-anchor="middle" x="1197" y="-222.3" font-family="Helvetica,sans-Serif" font-size="14.00">mfem::Array&lt; double &gt;</text>
</a>
</g>
</g>
<!-- Node16&#45;&gt;Node11 -->
<g id="edge10" class="edge"><title>Node16&#45;&gt;Node11</title>
<path fill="none" stroke="#9a32cd" stroke-dasharray="5,2" d="M1301.91,-227.744C1341.82,-228.413 1386.49,-229.163 1422.9,-229.774"/>
<polygon fill="#9a32cd" stroke="#9a32cd" points="1301.94,-224.244 1291.88,-227.575 1301.82,-231.243 1301.94,-224.244"/>
<text text-anchor="middle" x="1342" y="-277.8" font-family="Helvetica,sans-Serif" font-size="14.00"> G</text>
<text text-anchor="middle" x="1342" y="-262.8" font-family="Helvetica,sans-Serif" font-size="14.00">Gt</text>
<text text-anchor="middle" x="1342" y="-247.8" font-family="Helvetica,sans-Serif" font-size="14.00">B</text>
<text text-anchor="middle" x="1342" y="-232.8" font-family="Helvetica,sans-Serif" font-size="14.00">Bt</text>
</g>
<!-- Node17 -->
<g id="node12" class="node"><title>Node17</title>
<g id="a_node12"><a xlink:href="classmfem_1_1Memory.html" target="_top" xlink:title="mfem::Memory\&lt; double \&gt;">
<polygon fill="white" stroke="black" points="798.5,-90.5 798.5,-113.5 1007.5,-113.5 1007.5,-90.5 798.5,-90.5"/>
<text text-anchor="middle" x="903" y="-98.3" font-family="Helvetica,sans-Serif" font-size="14.00">mfem::Memory&lt; double &gt;</text>
</a>
</g>
</g>
<!-- Node17&#45;&gt;Node16 -->
<g id="edge11" class="edge"><title>Node17&#45;&gt;Node16</title>
<path fill="none" stroke="#9a32cd" stroke-dasharray="5,2" d="M960.603,-117.163C977.44,-123.837 994.875,-133.169 1008,-146 1021.94,-159.628 1010.96,-173.598 1026,-186 1047.4,-203.649 1075.23,-213.792 1102.14,-219.539"/>
<polygon fill="#9a32cd" stroke="#9a32cd" points="961.389,-113.722 950.796,-113.533 958.959,-120.286 961.389,-113.722"/>
<text text-anchor="middle" x="1055" y="-217.8" font-family="Helvetica,sans-Serif" font-size="14.00"> data</text>
</g>
<!-- Node21 -->
<g id="node16" class="node"><title>Node21</title>
<g id="a_node16"><a xlink:href="classmfem_1_1Vector.html" target="_top" xlink:title="Vector data type. ">
<polygon fill="white" stroke="black" points="1140,-71.5 1140,-94.5 1254,-94.5 1254,-71.5 1140,-71.5"/>
<text text-anchor="middle" x="1197" y="-79.3" font-family="Helvetica,sans-Serif" font-size="14.00">mfem::Vector</text>
</a>
</g>
</g>
<!-- Node17&#45;&gt;Node21 -->
<g id="edge18" class="edge"><title>Node17&#45;&gt;Node21</title>
<path fill="none" stroke="#9a32cd" stroke-dasharray="5,2" d="M1018.01,-94.5813C1059.76,-91.8651 1105.17,-88.9102 1139.68,-86.665"/>
<polygon fill="#9a32cd" stroke="#9a32cd" points="1017.52,-91.1058 1007.77,-95.2478 1017.98,-98.091 1017.52,-91.1058"/>
<text text-anchor="middle" x="1055" y="-97.8" font-family="Helvetica,sans-Serif" font-size="14.00"> data</text>
</g>
<!-- Node18 -->
<g id="node13" class="node"><title>Node18</title>
<g id="a_node13"><a xlink:href="classmfem_1_1DenseMatrix.html" target="_top" xlink:title="Data type dense matrix using column&#45;major storage. ">
<polygon fill="white" stroke="black" points="824,-155.5 824,-178.5 982,-178.5 982,-155.5 824,-155.5"/>
<text text-anchor="middle" x="903" y="-163.3" font-family="Helvetica,sans-Serif" font-size="14.00">mfem::DenseMatrix</text>
</a>
</g>
</g>
<!-- Node18&#45;&gt;Node8 -->
<g id="edge14" class="edge"><title>Node18&#45;&gt;Node8</title>
<path fill="none" stroke="#9a32cd" stroke-dasharray="5,2" d="M992.442,-167C1031.07,-167 1076.09,-167 1113.96,-167"/>
<polygon fill="#9a32cd" stroke="#9a32cd" points="992.251,-163.5 982.251,-167 992.251,-170.5 992.251,-163.5"/>
<text text-anchor="middle" x="1055" y="-170.8" font-family="Helvetica,sans-Serif" font-size="14.00"> vshape</text>
</g>
<!-- Node19 -->
<g id="node14" class="node"><title>Node19</title>
<g id="a_node14"><a xlink:href="classmfem_1_1Matrix.html" target="_top" xlink:title="Abstract data type matrix. ">
<polygon fill="white" stroke="black" points="601.5,-155.5 601.5,-178.5 714.5,-178.5 714.5,-155.5 601.5,-155.5"/>
<text text-anchor="middle" x="658" y="-163.3" font-family="Helvetica,sans-Serif" font-size="14.00">mfem::Matrix</text>
</a>
</g>
</g>
<!-- Node19&#45;&gt;Node18 -->
<g id="edge15" class="edge"><title>Node19&#45;&gt;Node18</title>
<path fill="none" stroke="midnightblue" d="M724.872,-167C755.442,-167 792.005,-167 823.952,-167"/>
<polygon fill="midnightblue" stroke="midnightblue" points="724.749,-163.5 714.749,-167 724.749,-170.5 724.749,-163.5"/>
</g>
<!-- Node20 -->
<g id="node15" class="node"><title>Node20</title>
<g id="a_node15"><a xlink:href="classmfem_1_1Operator.html" target="_top" xlink:title="Abstract operator. ">
<polygon fill="white" stroke="black" points="304.5,-155.5 304.5,-178.5 437.5,-178.5 437.5,-155.5 304.5,-155.5"/>
<text text-anchor="middle" x="371" y="-163.3" font-family="Helvetica,sans-Serif" font-size="14.00">mfem::Operator</text>
</a>
</g>
</g>
<!-- Node20&#45;&gt;Node19 -->
<g id="edge16" class="edge"><title>Node20&#45;&gt;Node19</title>
<path fill="none" stroke="midnightblue" d="M447.822,-167C496.044,-167 557.418,-167 601.19,-167"/>
<polygon fill="midnightblue" stroke="midnightblue" points="447.743,-163.5 437.743,-167 447.743,-170.5 447.743,-163.5"/>
</g>
<!-- Node21&#45;&gt;Node7 -->
<g id="edge17" class="edge"><title>Node21&#45;&gt;Node7</title>
<path fill="none" stroke="#9a32cd" stroke-dasharray="5,2" d="M1264.05,-90.758C1303.38,-95.3773 1354.03,-101.326 1397.96,-106.485"/>
<polygon fill="#9a32cd" stroke="#9a32cd" points="1264.39,-87.2737 1254.05,-89.5832 1263.57,-94.2259 1264.39,-87.2737"/>
<text text-anchor="middle" x="1342" y="-107.8" font-family="Helvetica,sans-Serif" font-size="14.00"> c_shape</text>
</g>
<!-- Node24 -->
<g id="node19" class="node"><title>Node24</title>
<g id="a_node19"><a xlink:href="classmfem_1_1KnotVector.html" target="_top" xlink:title="mfem::KnotVector">
<polygon fill="white" stroke="black" points="1424,-15.5 1424,-38.5 1570,-38.5 1570,-15.5 1424,-15.5"/>
<text text-anchor="middle" x="1497" y="-23.3" font-family="Helvetica,sans-Serif" font-size="14.00">mfem::KnotVector</text>
</a>
</g>
</g>
<!-- Node21&#45;&gt;Node24 -->
<g id="edge22" class="edge"><title>Node21&#45;&gt;Node24</title>
<path fill="none" stroke="#9a32cd" stroke-dasharray="5,2" d="M1236.66,-67.922C1257.98,-60.1954 1285.1,-51.3175 1310,-46 1347.14,-38.067 1389.18,-33.4166 1423.89,-30.7053"/>
<polygon fill="#9a32cd" stroke="#9a32cd" points="1235.17,-64.7417 1227,-71.4877 1237.59,-71.3087 1235.17,-64.7417"/>
<text text-anchor="middle" x="1342" y="-49.8" font-family="Helvetica,sans-Serif" font-size="14.00"> knot</text>
</g>
<!-- Node21&#45;&gt;Node6 -->
<g id="edge23" class="edge"><title>Node21&#45;&gt;Node6</title>
<path fill="none" stroke="#9a32cd" stroke-dasharray="5,2" d="M1264.17,-80.2058C1324.55,-77.8983 1416.25,-75 1496,-75 1496,-75 1496,-75 2107,-75 2154.69,-75 2207.45,-75 2252.32,-75"/>
<polygon fill="#9a32cd" stroke="#9a32cd" points="1263.87,-76.7147 1254.01,-80.5997 1264.14,-83.7095 1263.87,-76.7147"/>
<text text-anchor="middle" x="1851" y="-78.8" font-family="Helvetica,sans-Serif" font-size="14.00"> weights</text>
</g>
<!-- Node22 -->
<g id="node17" class="node"><title>Node22</title>
<g id="a_node17"><a xlink:href="classmfem_1_1Array.html" target="_top" xlink:title="mfem::Array\&lt; const\l mfem::KnotVector *\&gt;">
<polygon fill="white" stroke="black" points="2018.5,-6 2018.5,-44 2193.5,-44 2193.5,-6 2018.5,-6"/>
<text text-anchor="start" x="2026.5" y="-28.8" font-family="Helvetica,sans-Serif" font-size="14.00">mfem::Array&lt; const</text>
<text text-anchor="middle" x="2106" y="-13.8" font-family="Helvetica,sans-Serif" font-size="14.00"> mfem::KnotVector *&gt;</text>
</a>
</g>
</g>
<!-- Node22&#45;&gt;Node6 -->
<g id="edge19" class="edge"><title>Node22&#45;&gt;Node6</title>
<path fill="none" stroke="#9a32cd" stroke-dasharray="5,2" d="M2203.44,-40.2807C2213.77,-42.1163 2224.12,-44.0384 2234,-46 2260.11,-51.1824 2289.08,-57.8457 2312.56,-63.478"/>
<polygon fill="#9a32cd" stroke="#9a32cd" points="2204.01,-36.8267 2193.55,-38.5488 2202.8,-43.7217 2204.01,-36.8267"/>
<text text-anchor="middle" x="2223" y="-49.8" font-family="Helvetica,sans-Serif" font-size="14.00"> kv</text>
</g>
<!-- Node23 -->
<g id="node18" class="node"><title>Node23</title>
<g id="a_node18"><a xlink:href="classmfem_1_1Memory.html" target="_top" xlink:title="mfem::Memory\&lt; const\l mfem::KnotVector *\&gt;">
<polygon fill="white" stroke="black" points="1760,-0 1760,-38 1942,-38 1942,-0 1760,-0"/>
<text text-anchor="start" x="1768" y="-22.8" font-family="Helvetica,sans-Serif" font-size="14.00">mfem::Memory&lt; const</text>
<text text-anchor="middle" x="1851" y="-7.8" font-family="Helvetica,sans-Serif" font-size="14.00"> mfem::KnotVector *&gt;</text>
</a>
</g>
</g>
<!-- Node23&#45;&gt;Node22 -->
<g id="edge20" class="edge"><title>Node23&#45;&gt;Node22</title>
<path fill="none" stroke="#9a32cd" stroke-dasharray="5,2" d="M1952.5,-21.3833C1974.22,-21.8985 1997.01,-22.439 2018.16,-22.9406"/>
<polygon fill="#9a32cd" stroke="#9a32cd" points="1952.35,-17.8789 1942.27,-21.1407 1952.18,-24.8769 1952.35,-17.8789"/>
<text text-anchor="middle" x="1981" y="-26.8" font-family="Helvetica,sans-Serif" font-size="14.00"> data</text>
</g>
<!-- Node24&#45;&gt;Node23 -->
<g id="edge21" class="edge"><title>Node24&#45;&gt;Node23</title>
<path fill="none" stroke="#9a32cd" stroke-dasharray="5,2" d="M1580.28,-25.13C1634.13,-23.9062 1704.5,-22.3069 1759.86,-21.0487"/>
<polygon fill="#9a32cd" stroke="#9a32cd" points="1580,-21.6354 1570.08,-25.3618 1580.16,-28.6336 1580,-21.6354"/>
<text text-anchor="middle" x="1680" y="-28.8" font-family="Helvetica,sans-Serif" font-size="14.00"> h_ptr</text>
</g>
</g>
</svg>
        <g id="navigator" transform="translate(0 0)" fill="#404254">
                <rect fill="#f2f5e9" fill-opacity="0.5" stroke="#606060" stroke-width=".5" x="0" y="0" width="60" height="60"/>
                <use id="zoomplus" xlink:href="#zoomPlus" x="17" y="9" onmousedown="handleZoom(evt,'in')"/>
                <use id="zoomminus" xlink:href="#zoomMin" x="42" y="9" onmousedown="handleZoom(evt,'out')"/>
                <use id="reset" xlink:href="#resetDef" x="30" y="36" onmousedown="handleReset()"/>
                <g id="arrowUp" xlink:href="#dirArrow" transform="translate(30 24)" onmousedown="handlePan(0,-1)">
                  <use xlink:href="#rim" fill="#404040">
                        <set attributeName="fill" to="#808080" begin="arrowUp.mouseover" end="arrowUp.mouseout"/>
                  </use>
                  <path fill="none" stroke="white" stroke-width="1.5" d="M0,-3.0v7 M-2.5,-0.5L0,-3.0L2.5,-0.5"/>
                </g>
                <g id="arrowRight" xlink:href="#dirArrow" transform="rotate(90) translate(36 -43)" onmousedown="handlePan(1,0)">
                  <use xlink:href="#rim" fill="#404040">
                        <set attributeName="fill" to="#808080" begin="arrowRight.mouseover" end="arrowRight.mouseout"/>
                  </use>
                  <path fill="none" stroke="white" stroke-width="1.5" d="M0,-3.0v7 M-2.5,-0.5L0,-3.0L2.5,-0.5"/>
                </g>
                <g id="arrowDown" xlink:href="#dirArrow" transform="rotate(180) translate(-30 -48)" onmousedown="handlePan(0,1)">
                  <use xlink:href="#rim" fill="#404040">
                        <set attributeName="fill" to="#808080" begin="arrowDown.mouseover" end="arrowDown.mouseout"/>
                  </use>
                  <path fill="none" stroke="white" stroke-width="1.5" d="M0,-3.0v7 M-2.5,-0.5L0,-3.0L2.5,-0.5"/>
                </g>
                <g id="arrowLeft" xlink:href="#dirArrow" transform="rotate(270) translate(-36 17)" onmousedown="handlePan(-1,0)">
                  <use xlink:href="#rim" fill="#404040">
                        <set attributeName="fill" to="#808080" begin="arrowLeft.mouseover" end="arrowLeft.mouseout"/>
                  </use>
                  <path fill="none" stroke="white" stroke-width="1.5" d="M0,-3.0v7 M-2.5,-0.5L0,-3.0L2.5,-0.5"/>
                </g>
        </g>
        <svg viewBox="0 0 15 15" width="100%" height="30px" preserveAspectRatio="xMaxYMin meet">
         <g id="arrow_out" transform="scale(0.3 0.3)">
          <a xlink:href="classmfem_1_1NURBSFiniteElement__coll__graph_org.svg" target="_base">
           <rect id="button" ry="5" rx="5" y="6" x="6" height="38" width="38"
                fill="#f2f5e9" fill-opacity="0.5" stroke="#606060" stroke-width="1.0"/>
           <path id="arrow"
             d="M 11.500037,31.436501 C 11.940474,20.09759 22.043105,11.32322 32.158766,21.979434 L 37.068811,17.246167 C 37.068811,17.246167 37.088388,32 37.088388,32 L 22.160133,31.978069 C 22.160133,31.978069 26.997745,27.140456 26.997745,27.140456 C 18.528582,18.264221 13.291696,25.230495 11.500037,31.436501 z"
             style="fill:#404040;"/>
          </a>
         </g>
        </svg>
</svg>
