<?xml version="1.0" encoding="UTF-8" standalone="no"?>
<!DOCTYPE svg PUBLIC "-//W3C//DTD SVG 1.1//EN"
 "http://www.w3.org/Graphics/SVG/1.1/DTD/svg11.dtd">
<!-- Generated by graphviz version 2.30.1 (20200304.1809)
 -->
<!-- Title: mfem::BiQuadPos2DFiniteElement Pages: 1 -->
<svg width="2322pt" height="241pt"
 viewBox="0.00 0.00 2322.00 241.00" xmlns="http://www.w3.org/2000/svg" xmlns:xlink="http://www.w3.org/1999/xlink">
<g id="graph0" class="graph" transform="scale(1 1) rotate(0) translate(4 237)">
<title>mfem::BiQuadPos2DFiniteElement</title>
<polygon fill="white" stroke="white" points="-4,5 -4,-237 2319,-237 2319,5 -4,5"/>
<!-- Node4 -->
<g id="node1" class="node"><title>Node4</title>
<polygon fill="#bfbfbf" stroke="black" points="2052,-6.5 2052,-29.5 2314,-29.5 2314,-6.5 2052,-6.5"/>
<text text-anchor="middle" x="2183" y="-14.3" font-family="Helvetica,sans-Serif" font-size="14.00">mfem::BiQuadPos2DFiniteElement</text>
</g>
<!-- Node5 -->
<g id="node2" class="node"><title>Node5</title>
<g id="a_node2"><a xlink:href="classmfem_1_1PositiveFiniteElement.html" target="_top" xlink:title="Class for finite elements utilizing the always positive Bernstein basis. ">
<polygon fill="white" stroke="black" points="1758,-6.5 1758,-29.5 1978,-29.5 1978,-6.5 1758,-6.5"/>
<text text-anchor="middle" x="1868" y="-14.3" font-family="Helvetica,sans-Serif" font-size="14.00">mfem::PositiveFiniteElement</text>
</a>
</g>
</g>
<!-- Node5&#45;&gt;Node4 -->
<g id="edge1" class="edge"><title>Node5&#45;&gt;Node4</title>
<path fill="none" stroke="midnightblue" d="M1988.17,-18C2008.99,-18 2030.74,-18 2051.84,-18"/>
<polygon fill="midnightblue" stroke="midnightblue" points="1988.03,-14.5001 1978.03,-18 1988.03,-21.5001 1988.03,-14.5001"/>
</g>
<!-- Node6 -->
<g id="node3" class="node"><title>Node6</title>
<g id="a_node3"><a xlink:href="classmfem_1_1ScalarFiniteElement.html" target="_top" xlink:title="Class for finite elements with basis functions that return scalar values. ">
<polygon fill="white" stroke="black" points="1392,-6.5 1392,-29.5 1602,-29.5 1602,-6.5 1392,-6.5"/>
<text text-anchor="middle" x="1497" y="-14.3" font-family="Helvetica,sans-Serif" font-size="14.00">mfem::ScalarFiniteElement</text>
</a>
</g>
</g>
<!-- Node6&#45;&gt;Node5 -->
<g id="edge2" class="edge"><title>Node6&#45;&gt;Node5</title>
<path fill="none" stroke="midnightblue" d="M1612.35,-18C1658.72,-18 1712.03,-18 1757.85,-18"/>
<polygon fill="midnightblue" stroke="midnightblue" points="1612.26,-14.5001 1602.26,-18 1612.26,-21.5001 1612.26,-14.5001"/>
</g>
<!-- Node7 -->
<g id="node4" class="node"><title>Node7</title>
<g id="a_node4"><a xlink:href="classmfem_1_1FiniteElement.html" target="_top" xlink:title="Abstract class for all finite elements. ">
<polygon fill="white" stroke="black" points="1114,-55.5 1114,-78.5 1280,-78.5 1280,-55.5 1114,-55.5"/>
<text text-anchor="middle" x="1197" y="-63.3" font-family="Helvetica,sans-Serif" font-size="14.00">mfem::FiniteElement</text>
</a>
</g>
</g>
<!-- Node7&#45;&gt;Node6 -->
<g id="edge3" class="edge"><title>Node7&#45;&gt;Node6</title>
<path fill="none" stroke="midnightblue" d="M1278.2,-53.8123C1324.31,-46.2304 1381.69,-36.7967 1425.97,-29.5151"/>
<polygon fill="midnightblue" stroke="midnightblue" points="1277.54,-50.3735 1268.24,-55.4497 1278.68,-57.2808 1277.54,-50.3735"/>
</g>
<!-- Node10 -->
<g id="node7" class="node"><title>Node10</title>
<g id="a_node7"><a xlink:href="classmfem_1_1DofToQuad.html" target="_top" xlink:title="Structure representing the matrices/tensors needed to evaluate (in reference space) the values...">
<polygon fill="white" stroke="black" points="1423,-119.5 1423,-142.5 1571,-142.5 1571,-119.5 1423,-119.5"/>
<text text-anchor="middle" x="1497" y="-127.3" font-family="Helvetica,sans-Serif" font-size="14.00">mfem::DofToQuad</text>
</a>
</g>
</g>
<!-- Node7&#45;&gt;Node10 -->
<g id="edge13" class="edge"><title>Node7&#45;&gt;Node10</title>
<path fill="none" stroke="#9a32cd" stroke-dasharray="5,2" d="M1261.73,-80.686C1315.49,-92.2334 1391.59,-108.577 1442.31,-119.469"/>
<polygon fill="#9a32cd" stroke="#9a32cd" points="1262.13,-77.1937 1251.62,-78.5158 1260.66,-84.0377 1262.13,-77.1937"/>
<text text-anchor="middle" x="1342" y="-108.8" font-family="Helvetica,sans-Serif" font-size="14.00"> FE</text>
</g>
<!-- Node8 -->
<g id="node5" class="node"><title>Node8</title>
<g id="a_node5"><a xlink:href="classmfem_1_1Array.html" target="_top" xlink:title="mfem::Array\&lt; mfem::\lDofToQuad *\&gt;">
<polygon fill="white" stroke="black" points="2095,-67 2095,-105 2271,-105 2271,-67 2095,-67"/>
<text text-anchor="start" x="2103" y="-89.8" font-family="Helvetica,sans-Serif" font-size="14.00">mfem::Array&lt; mfem::</text>
<text text-anchor="middle" x="2183" y="-74.8" font-family="Helvetica,sans-Serif" font-size="14.00">DofToQuad *&gt;</text>
</a>
</g>
</g>
<!-- Node8&#45;&gt;Node7 -->
<g id="edge4" class="edge"><title>Node8&#45;&gt;Node7</title>
<path fill="none" stroke="#9a32cd" stroke-dasharray="5,2" d="M2084.61,-84.1195C1890.96,-80.3803 1460.7,-72.0724 1280.2,-68.5872"/>
<polygon fill="#9a32cd" stroke="#9a32cd" points="2084.71,-87.6219 2094.77,-84.3158 2084.84,-80.6233 2084.71,-87.6219"/>
<text text-anchor="middle" x="1680" y="-81.8" font-family="Helvetica,sans-Serif" font-size="14.00"> dof2quad_array</text>
</g>
<!-- Node9 -->
<g id="node6" class="node"><title>Node9</title>
<g id="a_node6"><a xlink:href="classmfem_1_1Memory.html" target="_top" xlink:title="mfem::Memory\&lt; mfem\l::DofToQuad *\&gt;">
<polygon fill="white" stroke="black" points="1775,-95 1775,-133 1961,-133 1961,-95 1775,-95"/>
<text text-anchor="start" x="1783" y="-117.8" font-family="Helvetica,sans-Serif" font-size="14.00">mfem::Memory&lt; mfem</text>
<text text-anchor="middle" x="1868" y="-102.8" font-family="Helvetica,sans-Serif" font-size="14.00">::DofToQuad *&gt;</text>
</a>
</g>
</g>
<!-- Node9&#45;&gt;Node8 -->
<g id="edge5" class="edge"><title>Node9&#45;&gt;Node8</title>
<path fill="none" stroke="#9a32cd" stroke-dasharray="5,2" d="M1971.24,-104.854C2011.14,-101.285 2056.4,-97.2353 2094.73,-93.8065"/>
<polygon fill="#9a32cd" stroke="#9a32cd" points="1970.87,-101.373 1961.22,-105.751 1971.49,-108.345 1970.87,-101.373"/>
<text text-anchor="middle" x="2015" y="-106.8" font-family="Helvetica,sans-Serif" font-size="14.00"> data</text>
</g>
<!-- Node10&#45;&gt;Node9 -->
<g id="edge6" class="edge"><title>Node10&#45;&gt;Node9</title>
<path fill="none" stroke="#9a32cd" stroke-dasharray="5,2" d="M1581.49,-127.153C1639.02,-124.503 1715.48,-120.981 1774.79,-118.248"/>
<polygon fill="#9a32cd" stroke="#9a32cd" points="1581.17,-123.664 1571.34,-127.621 1581.49,-130.657 1581.17,-123.664"/>
<text text-anchor="middle" x="1680" y="-129.8" font-family="Helvetica,sans-Serif" font-size="14.00"> h_ptr</text>
</g>
<!-- Node11 -->
<g id="node8" class="node"><title>Node11</title>
<g id="a_node8"><a xlink:href="classmfem_1_1IntegrationRule.html" target="_top" xlink:title="Class for an integration rule &#45; an Array of IntegrationPoint. ">
<polygon fill="white" stroke="black" points="814,-191.5 814,-214.5 992,-214.5 992,-191.5 814,-191.5"/>
<text text-anchor="middle" x="903" y="-199.3" font-family="Helvetica,sans-Serif" font-size="14.00">mfem::IntegrationRule</text>
</a>
</g>
</g>
<!-- Node11&#45;&gt;Node10 -->
<g id="edge7" class="edge"><title>Node11&#45;&gt;Node10</title>
<path fill="none" stroke="#9a32cd" stroke-dasharray="5,2" d="M1002.19,-213.462C1098.46,-220.809 1248.61,-224.448 1374,-193 1414.33,-182.886 1456.53,-157.627 1479.2,-142.655"/>
<polygon fill="#9a32cd" stroke="#9a32cd" points="1002.42,-209.969 992.171,-212.669 1001.86,-216.947 1002.42,-209.969"/>
<text text-anchor="middle" x="1197" y="-221.8" font-family="Helvetica,sans-Serif" font-size="14.00"> IntRule</text>
</g>
<!-- Node11&#45;&gt;Node7 -->
<g id="edge14" class="edge"><title>Node11&#45;&gt;Node7</title>
<path fill="none" stroke="#9a32cd" stroke-dasharray="5,2" d="M967.846,-188.727C1004.76,-178.05 1050.4,-160.463 1084,-133 1095.46,-123.638 1090.61,-114.438 1102,-105 1116.37,-93.097 1134.95,-84.5362 1151.8,-78.5905"/>
<polygon fill="#9a32cd" stroke="#9a32cd" points="966.866,-185.366 958.175,-191.425 968.747,-192.109 966.866,-185.366"/>
<text text-anchor="middle" x="1055" y="-168.8" font-family="Helvetica,sans-Serif" font-size="14.00"> Nodes</text>
</g>
<!-- Node12 -->
<g id="node9" class="node"><title>Node12</title>
<g id="a_node9"><a xlink:href="classmfem_1_1Array.html" target="_top" xlink:title="mfem::Array\&lt; Integration\lPoint \&gt;">
<polygon fill="white" stroke="black" points="556.5,-184 556.5,-222 759.5,-222 759.5,-184 556.5,-184"/>
<text text-anchor="start" x="564.5" y="-206.8" font-family="Helvetica,sans-Serif" font-size="14.00">mfem::Array&lt; Integration</text>
<text text-anchor="middle" x="658" y="-191.8" font-family="Helvetica,sans-Serif" font-size="14.00">Point &gt;</text>
</a>
</g>
</g>
<!-- Node12&#45;&gt;Node11 -->
<g id="edge8" class="edge"><title>Node12&#45;&gt;Node11</title>
<path fill="none" stroke="midnightblue" d="M769.783,-203C784.568,-203 799.567,-203 813.894,-203"/>
<polygon fill="midnightblue" stroke="midnightblue" points="769.592,-199.5 759.591,-203 769.591,-206.5 769.592,-199.5"/>
</g>
<!-- Node13 -->
<g id="node10" class="node"><title>Node13</title>
<g id="a_node10"><a xlink:href="classmfem_1_1Memory.html" target="_top" xlink:title="mfem::Memory\&lt; Integration\lPoint \&gt;">
<polygon fill="white" stroke="black" points="260,-184 260,-222 482,-222 482,-184 260,-184"/>
<text text-anchor="start" x="268" y="-206.8" font-family="Helvetica,sans-Serif" font-size="14.00">mfem::Memory&lt; Integration</text>
<text text-anchor="middle" x="371" y="-191.8" font-family="Helvetica,sans-Serif" font-size="14.00">Point &gt;</text>
</a>
</g>
</g>
<!-- Node13&#45;&gt;Node12 -->
<g id="edge9" class="edge"><title>Node13&#45;&gt;Node12</title>
<path fill="none" stroke="#9a32cd" stroke-dasharray="5,2" d="M492.278,-203C513.639,-203 535.683,-203 556.426,-203"/>
<polygon fill="#9a32cd" stroke="#9a32cd" points="492.188,-199.5 482.188,-203 492.188,-206.5 492.188,-199.5"/>
<text text-anchor="middle" x="519" y="-206.8" font-family="Helvetica,sans-Serif" font-size="14.00"> data</text>
</g>
<!-- Node14 -->
<g id="node11" class="node"><title>Node14</title>
<g id="a_node11"><a xlink:href="classmfem_1_1IntegrationPoint.html" target="_top" xlink:title="Class for integration point with weight. ">
<polygon fill="white" stroke="black" points="0,-191.5 0,-214.5 182,-214.5 182,-191.5 0,-191.5"/>
<text text-anchor="middle" x="91" y="-199.3" font-family="Helvetica,sans-Serif" font-size="14.00">mfem::IntegrationPoint</text>
</a>
</g>
</g>
<!-- Node14&#45;&gt;Node13 -->
<g id="edge10" class="edge"><title>Node14&#45;&gt;Node13</title>
<path fill="none" stroke="#9a32cd" stroke-dasharray="5,2" d="M192.526,-203C214.373,-203 237.597,-203 259.796,-203"/>
<polygon fill="#9a32cd" stroke="#9a32cd" points="192.259,-199.5 182.259,-203 192.259,-206.5 192.259,-199.5"/>
<text text-anchor="middle" x="221" y="-206.8" font-family="Helvetica,sans-Serif" font-size="14.00"> h_ptr</text>
</g>
<!-- Node15 -->
<g id="node12" class="node"><title>Node15</title>
<g id="a_node12"><a xlink:href="classmfem_1_1Array.html" target="_top" xlink:title="mfem::Array\&lt; double \&gt;">
<polygon fill="white" stroke="black" points="1102.5,-114.5 1102.5,-137.5 1291.5,-137.5 1291.5,-114.5 1102.5,-114.5"/>
<text text-anchor="middle" x="1197" y="-122.3" font-family="Helvetica,sans-Serif" font-size="14.00">mfem::Array&lt; double &gt;</text>
</a>
</g>
</g>
<!-- Node15&#45;&gt;Node10 -->
<g id="edge11" class="edge"><title>Node15&#45;&gt;Node10</title>
<path fill="none" stroke="#9a32cd" stroke-dasharray="5,2" d="M1301.91,-127.744C1341.82,-128.413 1386.49,-129.163 1422.9,-129.774"/>
<polygon fill="#9a32cd" stroke="#9a32cd" points="1301.94,-124.244 1291.88,-127.575 1301.82,-131.243 1301.94,-124.244"/>
<text text-anchor="middle" x="1342" y="-177.8" font-family="Helvetica,sans-Serif" font-size="14.00"> G</text>
<text text-anchor="middle" x="1342" y="-162.8" font-family="Helvetica,sans-Serif" font-size="14.00">Gt</text>
<text text-anchor="middle" x="1342" y="-147.8" font-family="Helvetica,sans-Serif" font-size="14.00">B</text>
<text text-anchor="middle" x="1342" y="-132.8" font-family="Helvetica,sans-Serif" font-size="14.00">Bt</text>
</g>
<!-- Node16 -->
<g id="node13" class="node"><title>Node16</title>
<g id="a_node13"><a xlink:href="classmfem_1_1Memory.html" target="_top" xlink:title="mfem::Memory\&lt; double \&gt;">
<polygon fill="white" stroke="black" points="798.5,-7.5 798.5,-30.5 1007.5,-30.5 1007.5,-7.5 798.5,-7.5"/>
<text text-anchor="middle" x="903" y="-15.3" font-family="Helvetica,sans-Serif" font-size="14.00">mfem::Memory&lt; double &gt;</text>
</a>
</g>
</g>
<!-- Node16&#45;&gt;Node15 -->
<g id="edge12" class="edge"><title>Node16&#45;&gt;Node15</title>
<path fill="none" stroke="#9a32cd" stroke-dasharray="5,2" d="M990.554,-34.7096C996.818,-37.8291 1002.73,-41.5541 1008,-46 1022.9,-58.5735 1010.96,-73.5981 1026,-86 1047.4,-103.649 1075.23,-113.792 1102.14,-119.539"/>
<polygon fill="#9a32cd" stroke="#9a32cd" points="991.722,-31.3994 981.161,-30.5589 988.893,-37.8021 991.722,-31.3994"/>
<text text-anchor="middle" x="1055" y="-117.8" font-family="Helvetica,sans-Serif" font-size="14.00"> data</text>
</g>
<!-- Node20 -->
<g id="node17" class="node"><title>Node20</title>
<g id="a_node17"><a xlink:href="classmfem_1_1Vector.html" target="_top" xlink:title="Vector data type. ">
<polygon fill="white" stroke="black" points="1140,-0.5 1140,-23.5 1254,-23.5 1254,-0.5 1140,-0.5"/>
<text text-anchor="middle" x="1197" y="-8.3" font-family="Helvetica,sans-Serif" font-size="14.00">mfem::Vector</text>
</a>
</g>
</g>
<!-- Node16&#45;&gt;Node20 -->
<g id="edge19" class="edge"><title>Node16&#45;&gt;Node20</title>
<path fill="none" stroke="#9a32cd" stroke-dasharray="5,2" d="M1018.01,-16.2668C1059.76,-15.2661 1105.17,-14.1774 1139.68,-13.3503"/>
<polygon fill="#9a32cd" stroke="#9a32cd" points="1017.68,-12.7736 1007.77,-16.5124 1017.85,-19.7716 1017.68,-12.7736"/>
<text text-anchor="middle" x="1055" y="-19.8" font-family="Helvetica,sans-Serif" font-size="14.00"> data</text>
</g>
<!-- Node17 -->
<g id="node14" class="node"><title>Node17</title>
<g id="a_node14"><a xlink:href="classmfem_1_1DenseMatrix.html" target="_top" xlink:title="Data type dense matrix using column&#45;major storage. ">
<polygon fill="white" stroke="black" points="824,-55.5 824,-78.5 982,-78.5 982,-55.5 824,-55.5"/>
<text text-anchor="middle" x="903" y="-63.3" font-family="Helvetica,sans-Serif" font-size="14.00">mfem::DenseMatrix</text>
</a>
</g>
</g>
<!-- Node17&#45;&gt;Node7 -->
<g id="edge15" class="edge"><title>Node17&#45;&gt;Node7</title>
<path fill="none" stroke="#9a32cd" stroke-dasharray="5,2" d="M992.442,-67C1031.07,-67 1076.09,-67 1113.96,-67"/>
<polygon fill="#9a32cd" stroke="#9a32cd" points="992.251,-63.5001 982.251,-67 992.251,-70.5001 992.251,-63.5001"/>
<text text-anchor="middle" x="1055" y="-70.8" font-family="Helvetica,sans-Serif" font-size="14.00"> vshape</text>
</g>
<!-- Node18 -->
<g id="node15" class="node"><title>Node18</title>
<g id="a_node15"><a xlink:href="classmfem_1_1Matrix.html" target="_top" xlink:title="Abstract data type matrix. ">
<polygon fill="white" stroke="black" points="601.5,-55.5 601.5,-78.5 714.5,-78.5 714.5,-55.5 601.5,-55.5"/>
<text text-anchor="middle" x="658" y="-63.3" font-family="Helvetica,sans-Serif" font-size="14.00">mfem::Matrix</text>
</a>
</g>
</g>
<!-- Node18&#45;&gt;Node17 -->
<g id="edge16" class="edge"><title>Node18&#45;&gt;Node17</title>
<path fill="none" stroke="midnightblue" d="M724.872,-67C755.442,-67 792.005,-67 823.952,-67"/>
<polygon fill="midnightblue" stroke="midnightblue" points="724.749,-63.5001 714.749,-67 724.749,-70.5001 724.749,-63.5001"/>
</g>
<!-- Node19 -->
<g id="node16" class="node"><title>Node19</title>
<g id="a_node16"><a xlink:href="classmfem_1_1Operator.html" target="_top" xlink:title="Abstract operator. ">
<polygon fill="white" stroke="black" points="304.5,-55.5 304.5,-78.5 437.5,-78.5 437.5,-55.5 304.5,-55.5"/>
<text text-anchor="middle" x="371" y="-63.3" font-family="Helvetica,sans-Serif" font-size="14.00">mfem::Operator</text>
</a>
</g>
</g>
<!-- Node19&#45;&gt;Node18 -->
<g id="edge17" class="edge"><title>Node19&#45;&gt;Node18</title>
<path fill="none" stroke="midnightblue" d="M447.822,-67C496.044,-67 557.418,-67 601.19,-67"/>
<polygon fill="midnightblue" stroke="midnightblue" points="447.743,-63.5001 437.743,-67 447.743,-70.5001 447.743,-63.5001"/>
</g>
<!-- Node20&#45;&gt;Node6 -->
<g id="edge18" class="edge"><title>Node20&#45;&gt;Node6</title>
<path fill="none" stroke="#9a32cd" stroke-dasharray="5,2" d="M1264.34,-9.92931C1279.36,-9.54247 1295.22,-9.19785 1310,-9 1338.44,-8.61915 1345.57,-7.95295 1374,-9 1379.84,-9.21499 1385.83,-9.48764 1391.87,-9.8031"/>
<polygon fill="#9a32cd" stroke="#9a32cd" points="1264.01,-6.43677 1254.11,-10.2026 1264.2,-13.4343 1264.01,-6.43677"/>
<text text-anchor="middle" x="1342" y="-12.8" font-family="Helvetica,sans-Serif" font-size="14.00"> c_shape</text>
</g>
</g>
</svg>
