<?xml version="1.0" encoding="UTF-8" standalone="no"?>
<!DOCTYPE svg PUBLIC "-//W3C//DTD SVG 1.1//EN"
 "http://www.w3.org/Graphics/SVG/1.1/DTD/svg11.dtd">
<!-- Generated by graphviz version 2.30.1 (20200304.1809)
 -->
<!-- Title: mfem::MortarIntegrator Pages: 1 -->
<svg width="481pt" height="92pt"
 viewBox="0.00 0.00 481.00 92.00" xmlns="http://www.w3.org/2000/svg" xmlns:xlink="http://www.w3.org/1999/xlink">
<g id="graph0" class="graph" transform="scale(1 1) rotate(0) translate(4 88)">
<title>mfem::MortarIntegrator</title>
<polygon fill="white" stroke="white" points="-4,5 -4,-88 478,-88 478,5 -4,5"/>
<!-- Node1 -->
<g id="node1" class="node"><title>Node1</title>
<polygon fill="#bfbfbf" stroke="black" points="131,-60.5 131,-83.5 319,-83.5 319,-60.5 131,-60.5"/>
<text text-anchor="middle" x="225" y="-68.3" font-family="Helvetica,sans-Serif" font-size="14.00">mfem::MortarIntegrator</text>
</g>
<!-- Node2 -->
<g id="node2" class="node"><title>Node2</title>
<g id="a_node2"><a xlink:href="classmfem_1_1L2MortarIntegrator.html" target="_top" xlink:title="Integrator for scalar finite elements . ">
<polygon fill="white" stroke="black" points="-0.5,-0.5 -0.5,-23.5 204.5,-23.5 204.5,-0.5 -0.5,-0.5"/>
<text text-anchor="middle" x="102" y="-8.3" font-family="Helvetica,sans-Serif" font-size="14.00">mfem::L2MortarIntegrator</text>
</a>
</g>
</g>
<!-- Node1&#45;&gt;Node2 -->
<g id="edge1" class="edge"><title>Node1&#45;&gt;Node2</title>
<path fill="none" stroke="midnightblue" d="M193.627,-56.2064C172.049,-46.031 143.898,-32.7567 124.524,-23.6212"/>
<polygon fill="midnightblue" stroke="midnightblue" points="192.188,-59.3972 202.726,-60.4966 195.174,-53.0658 192.188,-59.3972"/>
</g>
<!-- Node3 -->
<g id="node3" class="node"><title>Node3</title>
<g id="a_node3"><a xlink:href="classmfem_1_1VectorL2MortarIntegrator.html" target="_top" xlink:title="Integrator for vector finite elements. Experimental. . ">
<polygon fill="white" stroke="black" points="222.5,-0.5 222.5,-23.5 473.5,-23.5 473.5,-0.5 222.5,-0.5"/>
<text text-anchor="middle" x="348" y="-8.3" font-family="Helvetica,sans-Serif" font-size="14.00">mfem::VectorL2MortarIntegrator</text>
</a>
</g>
</g>
<!-- Node1&#45;&gt;Node3 -->
<g id="edge2" class="edge"><title>Node1&#45;&gt;Node3</title>
<path fill="none" stroke="midnightblue" d="M256.373,-56.2064C277.951,-46.031 306.102,-32.7567 325.476,-23.6212"/>
<polygon fill="midnightblue" stroke="midnightblue" points="254.826,-53.0658 247.274,-60.4966 257.812,-59.3972 254.826,-53.0658"/>
</g>
</g>
</svg>
