<?xml version="1.0" encoding="UTF-8" standalone="no"?>
<!DOCTYPE svg PUBLIC "-//W3C//DTD SVG 1.1//EN"
 "http://www.w3.org/Graphics/SVG/1.1/DTD/svg11.dtd">
<!-- Generated by graphviz version 2.30.1 (20200304.1809)
 -->
<!-- Title: mfem::ComplexCholeskyFactors Pages: 1 -->
<svg width="254pt" height="170pt"
 viewBox="0.00 0.00 254.00 170.00" xmlns="http://www.w3.org/2000/svg" xmlns:xlink="http://www.w3.org/1999/xlink">
<g id="graph0" class="graph" transform="scale(1 1) rotate(0) translate(4 166)">
<title>mfem::ComplexCholeskyFactors</title>
<polygon fill="white" stroke="white" points="-4,5 -4,-166 251,-166 251,5 -4,5"/>
<!-- Node1 -->
<g id="node1" class="node"><title>Node1</title>
<polygon fill="#bfbfbf" stroke="black" points="0,-0.5 0,-23.5 246,-23.5 246,-0.5 0,-0.5"/>
<text text-anchor="middle" x="123" y="-8.3" font-family="Helvetica,sans-Serif" font-size="14.00">mfem::ComplexCholeskyFactors</text>
</g>
<!-- Node2 -->
<g id="node2" class="node"><title>Node2</title>
<g id="a_node2"><a xlink:href="classmfem_1_1ComplexFactors.html" target="_top" xlink:title="mfem::ComplexFactors">
<polygon fill="white" stroke="black" points="32,-62.5 32,-85.5 214,-85.5 214,-62.5 32,-62.5"/>
<text text-anchor="middle" x="123" y="-70.3" font-family="Helvetica,sans-Serif" font-size="14.00">mfem::ComplexFactors</text>
</a>
</g>
</g>
<!-- Node2&#45;&gt;Node1 -->
<g id="edge1" class="edge"><title>Node2&#45;&gt;Node1</title>
<path fill="none" stroke="midnightblue" d="M123,-52.2312C123,-42.5922 123,-31.5444 123,-23.6339"/>
<polygon fill="midnightblue" stroke="midnightblue" points="119.5,-52.2732 123,-62.2732 126.5,-52.2732 119.5,-52.2732"/>
</g>
<!-- Node3 -->
<g id="node3" class="node"><title>Node3</title>
<polygon fill="white" stroke="#bfbfbf" points="28,-138.5 28,-161.5 218,-161.5 218,-138.5 28,-138.5"/>
<text text-anchor="middle" x="123" y="-146.3" font-family="Helvetica,sans-Serif" font-size="14.00">std::complex&lt; double &gt;</text>
</g>
<!-- Node3&#45;&gt;Node2 -->
<g id="edge2" class="edge"><title>Node3&#45;&gt;Node2</title>
<path fill="none" stroke="#9a32cd" stroke-dasharray="5,2" d="M123,-128.277C123,-114.387 123,-96.675 123,-85.5827"/>
<polygon fill="#9a32cd" stroke="#9a32cd" points="119.5,-128.398 123,-138.398 126.5,-128.398 119.5,-128.398"/>
<text text-anchor="middle" x="141.5" y="-108.3" font-family="Helvetica,sans-Serif" font-size="14.00"> data</text>
</g>
</g>
</svg>
