<?xml version="1.0" encoding="UTF-8" standalone="no"?>
<!DOCTYPE svg PUBLIC "-//W3C//DTD SVG 1.1//EN"
 "http://www.w3.org/Graphics/SVG/1.1/DTD/svg11.dtd">
<!-- Generated by graphviz version 2.30.1 (20200304.1809)
 -->
<!-- Title: mfem::NCL2FaceRestriction Pages: 1 -->
<svg width="244pt" height="272pt"
 viewBox="0.00 0.00 244.00 272.00" xmlns="http://www.w3.org/2000/svg" xmlns:xlink="http://www.w3.org/1999/xlink">
<g id="graph0" class="graph" transform="scale(1 1) rotate(0) translate(4 268)">
<title>mfem::NCL2FaceRestriction</title>
<polygon fill="white" stroke="white" points="-4,5 -4,-268 241,-268 241,5 -4,5"/>
<!-- Node1 -->
<g id="node1" class="node"><title>Node1</title>
<polygon fill="#bfbfbf" stroke="black" points="11.5,-60.5 11.5,-83.5 224.5,-83.5 224.5,-60.5 11.5,-60.5"/>
<text text-anchor="middle" x="118" y="-68.3" font-family="Helvetica,sans-Serif" font-size="14.00">mfem::NCL2FaceRestriction</text>
</g>
<!-- Node5 -->
<g id="node5" class="node"><title>Node5</title>
<g id="a_node5"><a xlink:href="classmfem_1_1ParNCL2FaceRestriction.html" target="_top" xlink:title="Operator that extracts Face degrees of freedom for NCMesh in parallel. ">
<polygon fill="white" stroke="black" points="0,-0.5 0,-23.5 236,-23.5 236,-0.5 0,-0.5"/>
<text text-anchor="middle" x="118" y="-8.3" font-family="Helvetica,sans-Serif" font-size="14.00">mfem::ParNCL2FaceRestriction</text>
</a>
</g>
</g>
<!-- Node1&#45;&gt;Node5 -->
<g id="edge4" class="edge"><title>Node1&#45;&gt;Node5</title>
<path fill="none" stroke="midnightblue" d="M118,-50.1906C118,-41.1684 118,-30.9941 118,-23.5707"/>
<polygon fill="midnightblue" stroke="midnightblue" points="114.5,-50.3619 118,-60.3619 121.5,-50.3619 114.5,-50.3619"/>
</g>
<!-- Node2 -->
<g id="node2" class="node"><title>Node2</title>
<g id="a_node2"><a xlink:href="classmfem_1_1L2FaceRestriction.html" target="_top" xlink:title="Operator that extracts Face degrees of freedom for L2 spaces. ">
<polygon fill="white" stroke="black" points="21.5,-120.5 21.5,-143.5 214.5,-143.5 214.5,-120.5 21.5,-120.5"/>
<text text-anchor="middle" x="118" y="-128.3" font-family="Helvetica,sans-Serif" font-size="14.00">mfem::L2FaceRestriction</text>
</a>
</g>
</g>
<!-- Node2&#45;&gt;Node1 -->
<g id="edge1" class="edge"><title>Node2&#45;&gt;Node1</title>
<path fill="none" stroke="midnightblue" d="M118,-110.191C118,-101.168 118,-90.9941 118,-83.5707"/>
<polygon fill="midnightblue" stroke="midnightblue" points="114.5,-110.362 118,-120.362 121.5,-110.362 114.5,-110.362"/>
</g>
<!-- Node3 -->
<g id="node3" class="node"><title>Node3</title>
<g id="a_node3"><a xlink:href="classmfem_1_1FaceRestriction.html" target="_top" xlink:title="Base class for operators that extracts Face degrees of freedom. ">
<polygon fill="white" stroke="black" points="30,-180.5 30,-203.5 206,-203.5 206,-180.5 30,-180.5"/>
<text text-anchor="middle" x="118" y="-188.3" font-family="Helvetica,sans-Serif" font-size="14.00">mfem::FaceRestriction</text>
</a>
</g>
</g>
<!-- Node3&#45;&gt;Node2 -->
<g id="edge2" class="edge"><title>Node3&#45;&gt;Node2</title>
<path fill="none" stroke="midnightblue" d="M118,-170.191C118,-161.168 118,-150.994 118,-143.571"/>
<polygon fill="midnightblue" stroke="midnightblue" points="114.5,-170.362 118,-180.362 121.5,-170.362 114.5,-170.362"/>
</g>
<!-- Node4 -->
<g id="node4" class="node"><title>Node4</title>
<g id="a_node4"><a xlink:href="classmfem_1_1Operator.html" target="_top" xlink:title="Abstract operator. ">
<polygon fill="white" stroke="black" points="51.5,-240.5 51.5,-263.5 184.5,-263.5 184.5,-240.5 51.5,-240.5"/>
<text text-anchor="middle" x="118" y="-248.3" font-family="Helvetica,sans-Serif" font-size="14.00">mfem::Operator</text>
</a>
</g>
</g>
<!-- Node4&#45;&gt;Node3 -->
<g id="edge3" class="edge"><title>Node4&#45;&gt;Node3</title>
<path fill="none" stroke="midnightblue" d="M118,-230.191C118,-221.168 118,-210.994 118,-203.571"/>
<polygon fill="midnightblue" stroke="midnightblue" points="114.5,-230.362 118,-240.362 121.5,-230.362 114.5,-230.362"/>
</g>
</g>
</svg>
