<?xml version="1.0" encoding="UTF-8" standalone="no"?>
<!DOCTYPE svg PUBLIC "-//W3C//DTD SVG 1.1//EN"
 "http://www.w3.org/Graphics/SVG/1.1/DTD/svg11.dtd">
<!-- Generated by graphviz version 2.30.1 (20200304.1809)
 -->
<!-- Title: mfem::RT_QuadrilateralElement Pages: 1 -->
<!--zoomable 686 -->
<svg id="main" version="1.1" xmlns="http://www.w3.org/2000/svg" xmlns:xlink="http://www.w3.org/1999/xlink" xml:space="preserve" onload="init(evt)">
<style type="text/css"><![CDATA[
.edge:hover path { stroke: red; }
.edge:hover polygon { stroke: red; fill: red; }
]]></style>
<script type="text/javascript"><![CDATA[
var edges = document.getElementsByTagName('g');
if (edges && edges.length) {
  for (var i=0;i<edges.length;i++) {
    if (edges[i].id.substr(0,4)=='edge') {
      edges[i].setAttribute('class','edge');
    }
  }
}
]]></script>
        <defs>
                <circle id="rim" cx="0" cy="0" r="7"/>
                <circle id="rim2" cx="0" cy="0" r="3.5"/>
                <g id="zoomPlus">
                        <use xlink:href="#rim" fill="#404040">
                                <set attributeName="fill" to="#808080" begin="zoomplus.mouseover" end="zoomplus.mouseout"/>
                        </use>
                        <path d="M-4,0h8M0,-4v8" fill="none" stroke="white" stroke-width="1.5" pointer-events="none"/>
                </g>
                <g id="zoomMin">
                        <use xlink:href="#rim" fill="#404040">
                                <set attributeName="fill" to="#808080" begin="zoomminus.mouseover" end="zoomminus.mouseout"/>
                        </use>
                        <path d="M-4,0h8" fill="none" stroke="white" stroke-width="1.5" pointer-events="none"/>
                </g>
                <g id="dirArrow">
                        <path fill="none" stroke="white" stroke-width="1.5" d="M0,-3.0v7 M-2.5,-0.5L0,-3.0L2.5,-0.5"/>
                </g>
               <g id="resetDef">
                       <use xlink:href="#rim2" fill="#404040">
                               <set attributeName="fill" to="#808080" begin="reset.mouseover" end="reset.mouseout"/>
                       </use>
               </g>
        </defs>

<script type="text/javascript">
var viewWidth = 976;
var viewHeight = 686;
var sectionId = 'dynsection-1';
</script>
<script xlink:href="svgpan.js"/>
<svg id="graph" class="graph">
<g id="viewport">
<title>mfem::RT_QuadrilateralElement</title>
<polygon fill="white" stroke="white" points="-4,5 -4,-682 973,-682 973,5 -4,5"/>
<!-- Node5 -->
<g id="node1" class="node"><title>Node5</title>
<polygon fill="#bfbfbf" stroke="black" points="620.5,-8.5 620.5,-31.5 867.5,-31.5 867.5,-8.5 620.5,-8.5"/>
<text text-anchor="middle" x="744" y="-16.3" font-family="Helvetica,sans-Serif" font-size="14.00">mfem::RT_QuadrilateralElement</text>
</g>
<!-- Node6 -->
<g id="node2" class="node"><title>Node6</title>
<g id="a_node2"><a xlink:href="classmfem_1_1VectorTensorFiniteElement.html" target="_top" xlink:title="mfem::VectorTensorFinite\lElement">
<polygon fill="white" stroke="black" points="644,-93 644,-131 844,-131 844,-93 644,-93"/>
<text text-anchor="start" x="652" y="-115.8" font-family="Helvetica,sans-Serif" font-size="14.00">mfem::VectorTensorFinite</text>
<text text-anchor="middle" x="744" y="-100.8" font-family="Helvetica,sans-Serif" font-size="14.00">Element</text>
</a>
</g>
</g>
<!-- Node6&#45;&gt;Node5 -->
<g id="edge1" class="edge"><title>Node6&#45;&gt;Node5</title>
<path fill="none" stroke="midnightblue" d="M744,-82.5865C744,-65.2288 744,-44.0429 744,-31.586"/>
<polygon fill="midnightblue" stroke="midnightblue" points="740.5,-82.7871 744,-92.7872 747.5,-82.7872 740.5,-82.7871"/>
</g>
<!-- Node7 -->
<g id="node3" class="node"><title>Node7</title>
<g id="a_node3"><a xlink:href="classmfem_1_1VectorFiniteElement.html" target="_top" xlink:title="Intermediate class for finite elements whose basis functions return vector values. ">
<polygon fill="white" stroke="black" points="406,-187.5 406,-210.5 618,-210.5 618,-187.5 406,-187.5"/>
<text text-anchor="middle" x="512" y="-195.3" font-family="Helvetica,sans-Serif" font-size="14.00">mfem::VectorFiniteElement</text>
</a>
</g>
</g>
<!-- Node7&#45;&gt;Node6 -->
<g id="edge2" class="edge"><title>Node7&#45;&gt;Node6</title>
<path fill="none" stroke="midnightblue" d="M550.466,-183.907C590.016,-169.417 651.745,-146.8 694.82,-131.019"/>
<polygon fill="midnightblue" stroke="midnightblue" points="549.099,-180.68 540.914,-187.407 551.508,-187.253 549.099,-180.68"/>
</g>
<!-- Node8 -->
<g id="node4" class="node"><title>Node8</title>
<g id="a_node4"><a xlink:href="classmfem_1_1FiniteElement.html" target="_top" xlink:title="Abstract class for all finite elements. ">
<polygon fill="white" stroke="black" points="310,-321.5 310,-344.5 476,-344.5 476,-321.5 310,-321.5"/>
<text text-anchor="middle" x="393" y="-329.3" font-family="Helvetica,sans-Serif" font-size="14.00">mfem::FiniteElement</text>
</a>
</g>
</g>
<!-- Node8&#45;&gt;Node7 -->
<g id="edge3" class="edge"><title>Node8&#45;&gt;Node7</title>
<path fill="none" stroke="midnightblue" d="M409.526,-313.669C434.793,-285.641 482.225,-233.028 502.46,-210.582"/>
<polygon fill="midnightblue" stroke="midnightblue" points="406.835,-311.427 402.738,-321.198 412.034,-316.114 406.835,-311.427"/>
</g>
<!-- Node11 -->
<g id="node7" class="node"><title>Node11</title>
<g id="a_node7"><a xlink:href="classmfem_1_1DofToQuad.html" target="_top" xlink:title="Structure representing the matrices/tensors needed to evaluate (in reference space) the values...">
<polygon fill="white" stroke="black" points="165,-187.5 165,-210.5 313,-210.5 313,-187.5 165,-187.5"/>
<text text-anchor="middle" x="239" y="-195.3" font-family="Helvetica,sans-Serif" font-size="14.00">mfem::DofToQuad</text>
</a>
</g>
</g>
<!-- Node8&#45;&gt;Node11 -->
<g id="edge13" class="edge"><title>Node8&#45;&gt;Node11</title>
<path fill="none" stroke="#9a32cd" stroke-dasharray="5,2" d="M368.572,-315.611C358.562,-308.626 347.002,-300.205 337,-292 303.442,-264.47 266.914,-228.378 249.448,-210.699"/>
<polygon fill="#9a32cd" stroke="#9a32cd" points="366.67,-318.551 376.892,-321.339 370.64,-312.785 366.67,-318.551"/>
<text text-anchor="middle" x="348" y="-258.3" font-family="Helvetica,sans-Serif" font-size="14.00"> FE</text>
</g>
<!-- Node9 -->
<g id="node5" class="node"><title>Node9</title>
<g id="a_node5"><a xlink:href="classmfem_1_1Array.html" target="_top" xlink:title="mfem::Array\&lt; mfem::\lDofToQuad *\&gt;">
<polygon fill="white" stroke="black" points="242,-1 242,-39 418,-39 418,-1 242,-1"/>
<text text-anchor="start" x="250" y="-23.8" font-family="Helvetica,sans-Serif" font-size="14.00">mfem::Array&lt; mfem::</text>
<text text-anchor="middle" x="330" y="-8.8" font-family="Helvetica,sans-Serif" font-size="14.00">DofToQuad *&gt;</text>
</a>
</g>
</g>
<!-- Node9&#45;&gt;Node8 -->
<g id="edge4" class="edge"><title>Node9&#45;&gt;Node8</title>
<path fill="none" stroke="#9a32cd" stroke-dasharray="5,2" d="M335.763,-49.4501C349.19,-115.734 382.08,-278.092 390.831,-321.295"/>
<polygon fill="#9a32cd" stroke="#9a32cd" points="339.125,-48.4164 333.709,-39.3104 332.264,-49.8062 339.125,-48.4164"/>
<text text-anchor="middle" x="419.5" y="-154.3" font-family="Helvetica,sans-Serif" font-size="14.00"> dof2quad_array</text>
</g>
<!-- Node10 -->
<g id="node6" class="node"><title>Node10</title>
<g id="a_node6"><a xlink:href="classmfem_1_1Memory.html" target="_top" xlink:title="mfem::Memory\&lt; mfem\l::DofToQuad *\&gt;">
<polygon fill="white" stroke="black" points="149,-93 149,-131 335,-131 335,-93 149,-93"/>
<text text-anchor="start" x="157" y="-115.8" font-family="Helvetica,sans-Serif" font-size="14.00">mfem::Memory&lt; mfem</text>
<text text-anchor="middle" x="242" y="-100.8" font-family="Helvetica,sans-Serif" font-size="14.00">::DofToQuad *&gt;</text>
</a>
</g>
</g>
<!-- Node10&#45;&gt;Node9 -->
<g id="edge5" class="edge"><title>Node10&#45;&gt;Node9</title>
<path fill="none" stroke="#9a32cd" stroke-dasharray="5,2" d="M267.001,-85.4309C281.426,-70.6777 299.224,-52.4759 312.218,-39.1858"/>
<polygon fill="#9a32cd" stroke="#9a32cd" points="264.297,-83.1901 259.808,-92.7872 269.302,-88.084 264.297,-83.1901"/>
<text text-anchor="middle" x="310.5" y="-62.3" font-family="Helvetica,sans-Serif" font-size="14.00"> data</text>
</g>
<!-- Node11&#45;&gt;Node10 -->
<g id="edge6" class="edge"><title>Node11&#45;&gt;Node10</title>
<path fill="none" stroke="#9a32cd" stroke-dasharray="5,2" d="M239.74,-177.029C240.238,-162.937 240.886,-144.553 241.361,-131.101"/>
<polygon fill="#9a32cd" stroke="#9a32cd" points="236.235,-177.117 239.38,-187.235 243.231,-177.364 236.235,-177.117"/>
<text text-anchor="middle" x="262" y="-154.3" font-family="Helvetica,sans-Serif" font-size="14.00"> h_ptr</text>
</g>
<!-- Node12 -->
<g id="node8" class="node"><title>Node12</title>
<g id="a_node8"><a xlink:href="classmfem_1_1IntegrationRule.html" target="_top" xlink:title="Class for an integration rule &#45; an Array of IntegrationPoint. ">
<polygon fill="white" stroke="black" points="227,-408.5 227,-431.5 405,-431.5 405,-408.5 227,-408.5"/>
<text text-anchor="middle" x="316" y="-416.3" font-family="Helvetica,sans-Serif" font-size="14.00">mfem::IntegrationRule</text>
</a>
</g>
</g>
<!-- Node12&#45;&gt;Node11 -->
<g id="edge7" class="edge"><title>Node12&#45;&gt;Node11</title>
<path fill="none" stroke="#9a32cd" stroke-dasharray="5,2" d="M289.296,-402.828C273.673,-391.768 255.253,-375.583 246,-356 222.373,-305.995 231.956,-236.624 236.825,-210.505"/>
<polygon fill="#9a32cd" stroke="#9a32cd" points="287.363,-405.746 297.611,-408.435 291.276,-399.942 287.363,-405.746"/>
<text text-anchor="middle" x="273.5" y="-329.3" font-family="Helvetica,sans-Serif" font-size="14.00"> IntRule</text>
</g>
<!-- Node12&#45;&gt;Node8 -->
<g id="edge14" class="edge"><title>Node12&#45;&gt;Node8</title>
<path fill="none" stroke="#9a32cd" stroke-dasharray="5,2" d="M326.321,-399.355C331.129,-391.095 337.274,-381.648 344,-374 353.863,-362.786 367.076,-352.197 377.296,-344.735"/>
<polygon fill="#9a32cd" stroke="#9a32cd" points="323.133,-397.887 321.336,-408.329 329.252,-401.287 323.133,-397.887"/>
<text text-anchor="middle" x="369" y="-378.3" font-family="Helvetica,sans-Serif" font-size="14.00"> Nodes</text>
</g>
<!-- Node13 -->
<g id="node9" class="node"><title>Node13</title>
<g id="a_node9"><a xlink:href="classmfem_1_1Array.html" target="_top" xlink:title="mfem::Array\&lt; Integration\lPoint \&gt;">
<polygon fill="white" stroke="black" points="213.5,-471 213.5,-509 416.5,-509 416.5,-471 213.5,-471"/>
<text text-anchor="start" x="221.5" y="-493.8" font-family="Helvetica,sans-Serif" font-size="14.00">mfem::Array&lt; Integration</text>
<text text-anchor="middle" x="315" y="-478.8" font-family="Helvetica,sans-Serif" font-size="14.00">Point &gt;</text>
</a>
</g>
</g>
<!-- Node13&#45;&gt;Node12 -->
<g id="edge8" class="edge"><title>Node13&#45;&gt;Node12</title>
<path fill="none" stroke="midnightblue" d="M315.418,-460.599C315.567,-450.442 315.726,-439.6 315.841,-431.834"/>
<polygon fill="midnightblue" stroke="midnightblue" points="311.915,-460.727 315.268,-470.777 318.915,-460.83 311.915,-460.727"/>
</g>
<!-- Node14 -->
<g id="node10" class="node"><title>Node14</title>
<g id="a_node10"><a xlink:href="classmfem_1_1Memory.html" target="_top" xlink:title="mfem::Memory\&lt; Integration\lPoint \&gt;">
<polygon fill="white" stroke="black" points="204,-563 204,-601 426,-601 426,-563 204,-563"/>
<text text-anchor="start" x="212" y="-585.8" font-family="Helvetica,sans-Serif" font-size="14.00">mfem::Memory&lt; Integration</text>
<text text-anchor="middle" x="315" y="-570.8" font-family="Helvetica,sans-Serif" font-size="14.00">Point &gt;</text>
</a>
</g>
</g>
<!-- Node14&#45;&gt;Node13 -->
<g id="edge9" class="edge"><title>Node14&#45;&gt;Node13</title>
<path fill="none" stroke="#9a32cd" stroke-dasharray="5,2" d="M315,-552.548C315,-538.36 315,-521.622 315,-509.186"/>
<polygon fill="#9a32cd" stroke="#9a32cd" points="311.5,-552.787 315,-562.787 318.5,-552.787 311.5,-552.787"/>
<text text-anchor="middle" x="333.5" y="-532.3" font-family="Helvetica,sans-Serif" font-size="14.00"> data</text>
</g>
<!-- Node15 -->
<g id="node11" class="node"><title>Node15</title>
<g id="a_node11"><a xlink:href="classmfem_1_1IntegrationPoint.html" target="_top" xlink:title="Class for integration point with weight. ">
<polygon fill="white" stroke="black" points="224,-654.5 224,-677.5 406,-677.5 406,-654.5 224,-654.5"/>
<text text-anchor="middle" x="315" y="-662.3" font-family="Helvetica,sans-Serif" font-size="14.00">mfem::IntegrationPoint</text>
</a>
</g>
</g>
<!-- Node15&#45;&gt;Node14 -->
<g id="edge10" class="edge"><title>Node15&#45;&gt;Node14</title>
<path fill="none" stroke="#9a32cd" stroke-dasharray="5,2" d="M315,-644.213C315,-630.967 315,-613.968 315,-601.246"/>
<polygon fill="#9a32cd" stroke="#9a32cd" points="311.5,-644.28 315,-654.28 318.5,-644.28 311.5,-644.28"/>
<text text-anchor="middle" x="336" y="-624.3" font-family="Helvetica,sans-Serif" font-size="14.00"> h_ptr</text>
</g>
<!-- Node16 -->
<g id="node12" class="node"><title>Node16</title>
<g id="a_node12"><a xlink:href="classmfem_1_1Array.html" target="_top" xlink:title="mfem::Array\&lt; double \&gt;">
<polygon fill="white" stroke="black" points="10.5,-321.5 10.5,-344.5 199.5,-344.5 199.5,-321.5 10.5,-321.5"/>
<text text-anchor="middle" x="105" y="-329.3" font-family="Helvetica,sans-Serif" font-size="14.00">mfem::Array&lt; double &gt;</text>
</a>
</g>
</g>
<!-- Node16&#45;&gt;Node11 -->
<g id="edge11" class="edge"><title>Node16&#45;&gt;Node11</title>
<path fill="none" stroke="#9a32cd" stroke-dasharray="5,2" d="M122.836,-314.23C142.974,-294.191 176.748,-260.662 206,-232 213.296,-224.851 221.546,-216.851 227.972,-210.638"/>
<polygon fill="#9a32cd" stroke="#9a32cd" points="120.197,-311.918 115.579,-321.454 125.136,-316.879 120.197,-311.918"/>
<text text-anchor="middle" x="214.5" y="-280.8" font-family="Helvetica,sans-Serif" font-size="14.00"> G</text>
<text text-anchor="middle" x="214.5" y="-265.8" font-family="Helvetica,sans-Serif" font-size="14.00">Gt</text>
<text text-anchor="middle" x="214.5" y="-250.8" font-family="Helvetica,sans-Serif" font-size="14.00">B</text>
<text text-anchor="middle" x="214.5" y="-235.8" font-family="Helvetica,sans-Serif" font-size="14.00">Bt</text>
</g>
<!-- Node17 -->
<g id="node13" class="node"><title>Node17</title>
<g id="a_node13"><a xlink:href="classmfem_1_1Memory.html" target="_top" xlink:title="mfem::Memory\&lt; double \&gt;">
<polygon fill="white" stroke="black" points="-0.5,-408.5 -0.5,-431.5 208.5,-431.5 208.5,-408.5 -0.5,-408.5"/>
<text text-anchor="middle" x="104" y="-416.3" font-family="Helvetica,sans-Serif" font-size="14.00">mfem::Memory&lt; double &gt;</text>
</a>
</g>
</g>
<!-- Node17&#45;&gt;Node16 -->
<g id="edge12" class="edge"><title>Node17&#45;&gt;Node16</title>
<path fill="none" stroke="#9a32cd" stroke-dasharray="5,2" d="M104.245,-398.18C104.444,-381.249 104.717,-358.047 104.874,-344.678"/>
<polygon fill="#9a32cd" stroke="#9a32cd" points="100.745,-398.194 104.127,-408.235 107.744,-398.277 100.745,-398.194"/>
<text text-anchor="middle" x="123.5" y="-378.3" font-family="Helvetica,sans-Serif" font-size="14.00"> data</text>
</g>
<!-- Node18 -->
<g id="node14" class="node"><title>Node18</title>
<g id="a_node14"><a xlink:href="classmfem_1_1DenseMatrix.html" target="_top" xlink:title="Data type dense matrix using column&#45;major storage. ">
<polygon fill="white" stroke="black" points="432,-408.5 432,-431.5 590,-431.5 590,-408.5 432,-408.5"/>
<text text-anchor="middle" x="511" y="-416.3" font-family="Helvetica,sans-Serif" font-size="14.00">mfem::DenseMatrix</text>
</a>
</g>
</g>
<!-- Node18&#45;&gt;Node8 -->
<g id="edge15" class="edge"><title>Node18&#45;&gt;Node8</title>
<path fill="none" stroke="#9a32cd" stroke-dasharray="5,2" d="M467.194,-404.569C458.108,-400.578 448.903,-395.732 441,-390 423.585,-377.37 408.356,-357.2 399.943,-344.825"/>
<polygon fill="#9a32cd" stroke="#9a32cd" points="465.982,-407.855 476.562,-408.421 468.644,-401.381 465.982,-407.855"/>
<text text-anchor="middle" x="469.5" y="-378.3" font-family="Helvetica,sans-Serif" font-size="14.00"> vshape</text>
</g>
<!-- Node18&#45;&gt;Node7 -->
<g id="edge18" class="edge"><title>Node18&#45;&gt;Node7</title>
<path fill="none" stroke="#9a32cd" stroke-dasharray="5,2" d="M511.095,-398.265C511.303,-352.671 511.794,-245.035 511.951,-210.713"/>
<polygon fill="#9a32cd" stroke="#9a32cd" points="507.594,-398.421 511.048,-408.437 514.594,-398.453 507.594,-398.421"/>
<text text-anchor="middle" x="553" y="-344.3" font-family="Helvetica,sans-Serif" font-size="14.00"> curlshape</text>
<text text-anchor="middle" x="553" y="-329.3" font-family="Helvetica,sans-Serif" font-size="14.00">curlshape_J</text>
<text text-anchor="middle" x="553" y="-314.3" font-family="Helvetica,sans-Serif" font-size="14.00">JtJ</text>
</g>
<!-- Node19 -->
<g id="node15" class="node"><title>Node19</title>
<g id="a_node15"><a xlink:href="classmfem_1_1Matrix.html" target="_top" xlink:title="Abstract data type matrix. ">
<polygon fill="white" stroke="black" points="454.5,-478.5 454.5,-501.5 567.5,-501.5 567.5,-478.5 454.5,-478.5"/>
<text text-anchor="middle" x="511" y="-486.3" font-family="Helvetica,sans-Serif" font-size="14.00">mfem::Matrix</text>
</a>
</g>
</g>
<!-- Node19&#45;&gt;Node18 -->
<g id="edge16" class="edge"><title>Node19&#45;&gt;Node18</title>
<path fill="none" stroke="midnightblue" d="M511,-468.272C511,-456.228 511,-441.549 511,-431.775"/>
<polygon fill="midnightblue" stroke="midnightblue" points="507.5,-468.375 511,-478.375 514.5,-468.375 507.5,-468.375"/>
</g>
<!-- Node20 -->
<g id="node16" class="node"><title>Node20</title>
<g id="a_node16"><a xlink:href="classmfem_1_1Operator.html" target="_top" xlink:title="Abstract operator. ">
<polygon fill="white" stroke="black" points="444.5,-570.5 444.5,-593.5 577.5,-593.5 577.5,-570.5 444.5,-570.5"/>
<text text-anchor="middle" x="511" y="-578.3" font-family="Helvetica,sans-Serif" font-size="14.00">mfem::Operator</text>
</a>
</g>
</g>
<!-- Node20&#45;&gt;Node19 -->
<g id="edge17" class="edge"><title>Node20&#45;&gt;Node19</title>
<path fill="none" stroke="midnightblue" d="M511,-560.08C511,-541.799 511,-516.001 511,-501.664"/>
<polygon fill="midnightblue" stroke="midnightblue" points="507.5,-560.322 511,-570.322 514.5,-560.322 507.5,-560.322"/>
</g>
<!-- Node21 -->
<g id="node17" class="node"><title>Node21</title>
<g id="a_node17"><a xlink:href="classmfem_1_1TensorBasisElement.html" target="_top" xlink:title="mfem::TensorBasisElement">
<polygon fill="white" stroke="black" points="638,-187.5 638,-210.5 850,-210.5 850,-187.5 638,-187.5"/>
<text text-anchor="middle" x="744" y="-195.3" font-family="Helvetica,sans-Serif" font-size="14.00">mfem::TensorBasisElement</text>
</a>
</g>
</g>
<!-- Node21&#45;&gt;Node6 -->
<g id="edge19" class="edge"><title>Node21&#45;&gt;Node6</title>
<path fill="none" stroke="midnightblue" d="M744,-177.029C744,-162.937 744,-144.553 744,-131.101"/>
<polygon fill="midnightblue" stroke="midnightblue" points="740.5,-177.235 744,-187.235 747.5,-177.235 740.5,-177.235"/>
</g>
<!-- Node22 -->
<g id="node18" class="node"><title>Node22</title>
<g id="a_node18"><a xlink:href="classmfem_1_1Array.html" target="_top" xlink:title="mfem::Array\&lt; int \&gt;">
<polygon fill="white" stroke="black" points="618,-321.5 618,-344.5 776,-344.5 776,-321.5 618,-321.5"/>
<text text-anchor="middle" x="697" y="-329.3" font-family="Helvetica,sans-Serif" font-size="14.00">mfem::Array&lt; int &gt;</text>
</a>
</g>
</g>
<!-- Node22&#45;&gt;Node21 -->
<g id="edge20" class="edge"><title>Node22&#45;&gt;Node21</title>
<path fill="none" stroke="#9a32cd" stroke-dasharray="5,2" d="M691.971,-311.43C687.935,-290.22 684.866,-256.832 698,-232 702.821,-222.884 711.537,-215.831 720.094,-210.696"/>
<polygon fill="#9a32cd" stroke="#9a32cd" points="688.569,-312.259 694.09,-321.302 695.414,-310.79 688.569,-312.259"/>
<text text-anchor="middle" x="744" y="-265.8" font-family="Helvetica,sans-Serif" font-size="14.00"> dof_map</text>
<text text-anchor="middle" x="744" y="-250.8" font-family="Helvetica,sans-Serif" font-size="14.00">inv_dof_map</text>
</g>
<!-- Node23 -->
<g id="node19" class="node"><title>Node23</title>
<g id="a_node19"><a xlink:href="classmfem_1_1Memory.html" target="_top" xlink:title="mfem::Memory\&lt; int \&gt;">
<polygon fill="white" stroke="black" points="608,-408.5 608,-431.5 786,-431.5 786,-408.5 608,-408.5"/>
<text text-anchor="middle" x="697" y="-416.3" font-family="Helvetica,sans-Serif" font-size="14.00">mfem::Memory&lt; int &gt;</text>
</a>
</g>
</g>
<!-- Node23&#45;&gt;Node22 -->
<g id="edge21" class="edge"><title>Node23&#45;&gt;Node22</title>
<path fill="none" stroke="#9a32cd" stroke-dasharray="5,2" d="M697,-398.18C697,-381.249 697,-358.047 697,-344.678"/>
<polygon fill="#9a32cd" stroke="#9a32cd" points="693.5,-398.235 697,-408.235 700.5,-398.235 693.5,-398.235"/>
<text text-anchor="middle" x="715.5" y="-378.3" font-family="Helvetica,sans-Serif" font-size="14.00"> data</text>
</g>
<!-- Node24 -->
<g id="node20" class="node"><title>Node24</title>
<g id="a_node20"><a xlink:href="classmfem_1_1Poly__1D_1_1Basis.html" target="_top" xlink:title="Class for evaluating 1D nodal, positive (Bernstein), or integrated (Gerritsma) bases. ">
<polygon fill="white" stroke="black" points="797.5,-321.5 797.5,-344.5 968.5,-344.5 968.5,-321.5 797.5,-321.5"/>
<text text-anchor="middle" x="883" y="-329.3" font-family="Helvetica,sans-Serif" font-size="14.00">mfem::Poly_1D::Basis</text>
</a>
</g>
</g>
<!-- Node24&#45;&gt;Node21 -->
<g id="edge22" class="edge"><title>Node24&#45;&gt;Node21</title>
<path fill="none" stroke="#9a32cd" stroke-dasharray="5,2" d="M845.782,-316.814C834.042,-310.555 821.843,-302.312 813,-292 794.409,-270.321 807.612,-254.482 790,-232 783.161,-223.27 773.291,-215.969 764.445,-210.556"/>
<polygon fill="#9a32cd" stroke="#9a32cd" points="844.513,-320.092 855.025,-321.411 847.63,-313.824 844.513,-320.092"/>
<text text-anchor="middle" x="843" y="-258.3" font-family="Helvetica,sans-Serif" font-size="14.00"> basis1d</text>
</g>
<!-- Node24&#45;&gt;Node6 -->
<g id="edge23" class="edge"><title>Node24&#45;&gt;Node6</title>
<path fill="none" stroke="#9a32cd" stroke-dasharray="5,2" d="M885.349,-311.339C887.722,-280.393 887.649,-221.628 859,-184 841.091,-160.477 812.952,-142.91 788.992,-131.134"/>
<polygon fill="#9a32cd" stroke="#9a32cd" points="881.856,-311.11 884.413,-321.391 888.826,-311.759 881.856,-311.11"/>
<text text-anchor="middle" x="907.5" y="-202.8" font-family="Helvetica,sans-Serif" font-size="14.00"> cbasis1d</text>
<text text-anchor="middle" x="907.5" y="-187.8" font-family="Helvetica,sans-Serif" font-size="14.00">obasis1d</text>
</g>
</g>
</svg>
        <g id="navigator" transform="translate(0 0)" fill="#404254">
                <rect fill="#f2f5e9" fill-opacity="0.5" stroke="#606060" stroke-width=".5" x="0" y="0" width="60" height="60"/>
                <use id="zoomplus" xlink:href="#zoomPlus" x="17" y="9" onmousedown="handleZoom(evt,'in')"/>
                <use id="zoomminus" xlink:href="#zoomMin" x="42" y="9" onmousedown="handleZoom(evt,'out')"/>
                <use id="reset" xlink:href="#resetDef" x="30" y="36" onmousedown="handleReset()"/>
                <g id="arrowUp" xlink:href="#dirArrow" transform="translate(30 24)" onmousedown="handlePan(0,-1)">
                  <use xlink:href="#rim" fill="#404040">
                        <set attributeName="fill" to="#808080" begin="arrowUp.mouseover" end="arrowUp.mouseout"/>
                  </use>
                  <path fill="none" stroke="white" stroke-width="1.5" d="M0,-3.0v7 M-2.5,-0.5L0,-3.0L2.5,-0.5"/>
                </g>
                <g id="arrowRight" xlink:href="#dirArrow" transform="rotate(90) translate(36 -43)" onmousedown="handlePan(1,0)">
                  <use xlink:href="#rim" fill="#404040">
                        <set attributeName="fill" to="#808080" begin="arrowRight.mouseover" end="arrowRight.mouseout"/>
                  </use>
                  <path fill="none" stroke="white" stroke-width="1.5" d="M0,-3.0v7 M-2.5,-0.5L0,-3.0L2.5,-0.5"/>
                </g>
                <g id="arrowDown" xlink:href="#dirArrow" transform="rotate(180) translate(-30 -48)" onmousedown="handlePan(0,1)">
                  <use xlink:href="#rim" fill="#404040">
                        <set attributeName="fill" to="#808080" begin="arrowDown.mouseover" end="arrowDown.mouseout"/>
                  </use>
                  <path fill="none" stroke="white" stroke-width="1.5" d="M0,-3.0v7 M-2.5,-0.5L0,-3.0L2.5,-0.5"/>
                </g>
                <g id="arrowLeft" xlink:href="#dirArrow" transform="rotate(270) translate(-36 17)" onmousedown="handlePan(-1,0)">
                  <use xlink:href="#rim" fill="#404040">
                        <set attributeName="fill" to="#808080" begin="arrowLeft.mouseover" end="arrowLeft.mouseout"/>
                  </use>
                  <path fill="none" stroke="white" stroke-width="1.5" d="M0,-3.0v7 M-2.5,-0.5L0,-3.0L2.5,-0.5"/>
                </g>
        </g>
        <svg viewBox="0 0 15 15" width="100%" height="30px" preserveAspectRatio="xMaxYMin meet">
         <g id="arrow_out" transform="scale(0.3 0.3)">
          <a xlink:href="classmfem_1_1RT__QuadrilateralElement__coll__graph_org.svg" target="_base">
           <rect id="button" ry="5" rx="5" y="6" x="6" height="38" width="38"
                fill="#f2f5e9" fill-opacity="0.5" stroke="#606060" stroke-width="1.0"/>
           <path id="arrow"
             d="M 11.500037,31.436501 C 11.940474,20.09759 22.043105,11.32322 32.158766,21.979434 L 37.068811,17.246167 C 37.068811,17.246167 37.088388,32 37.088388,32 L 22.160133,31.978069 C 22.160133,31.978069 26.997745,27.140456 26.997745,27.140456 C 18.528582,18.264221 13.291696,25.230495 11.500037,31.436501 z"
             style="fill:#404040;"/>
          </a>
         </g>
        </svg>
</svg>
