<?xml version="1.0" encoding="UTF-8" standalone="no"?>
<!DOCTYPE svg PUBLIC "-//W3C//DTD SVG 1.1//EN"
 "http://www.w3.org/Graphics/SVG/1.1/DTD/svg11.dtd">
<!-- Generated by graphviz version 2.30.1 (20200304.1809)
 -->
<!-- Title: mfem::ComplexGridFunction Pages: 1 -->
<svg width="228pt" height="170pt"
 viewBox="0.00 0.00 228.00 170.00" xmlns="http://www.w3.org/2000/svg" xmlns:xlink="http://www.w3.org/1999/xlink">
<g id="graph0" class="graph" transform="scale(1 1) rotate(0) translate(4 166)">
<title>mfem::ComplexGridFunction</title>
<polygon fill="white" stroke="white" points="-4,5 -4,-166 225,-166 225,5 -4,5"/>
<!-- Node2 -->
<g id="node1" class="node"><title>Node2</title>
<polygon fill="#bfbfbf" stroke="black" points="-0.5,-0.5 -0.5,-23.5 220.5,-23.5 220.5,-0.5 -0.5,-0.5"/>
<text text-anchor="middle" x="110" y="-8.3" font-family="Helvetica,sans-Serif" font-size="14.00">mfem::ComplexGridFunction</text>
</g>
<!-- Node3 -->
<g id="node2" class="node"><title>Node3</title>
<g id="a_node2"><a xlink:href="classmfem_1_1Vector.html" target="_top" xlink:title="Vector data type. ">
<polygon fill="white" stroke="black" points="53,-62.5 53,-85.5 167,-85.5 167,-62.5 53,-62.5"/>
<text text-anchor="middle" x="110" y="-70.3" font-family="Helvetica,sans-Serif" font-size="14.00">mfem::Vector</text>
</a>
</g>
</g>
<!-- Node3&#45;&gt;Node2 -->
<g id="edge1" class="edge"><title>Node3&#45;&gt;Node2</title>
<path fill="none" stroke="midnightblue" d="M110,-52.2312C110,-42.5922 110,-31.5444 110,-23.6339"/>
<polygon fill="midnightblue" stroke="midnightblue" points="106.5,-52.2732 110,-62.2732 113.5,-52.2732 106.5,-52.2732"/>
</g>
<!-- Node4 -->
<g id="node3" class="node"><title>Node4</title>
<g id="a_node3"><a xlink:href="classmfem_1_1Memory.html" target="_top" xlink:title="mfem::Memory\&lt; double \&gt;">
<polygon fill="white" stroke="black" points="5.5,-138.5 5.5,-161.5 214.5,-161.5 214.5,-138.5 5.5,-138.5"/>
<text text-anchor="middle" x="110" y="-146.3" font-family="Helvetica,sans-Serif" font-size="14.00">mfem::Memory&lt; double &gt;</text>
</a>
</g>
</g>
<!-- Node4&#45;&gt;Node3 -->
<g id="edge2" class="edge"><title>Node4&#45;&gt;Node3</title>
<path fill="none" stroke="#9a32cd" stroke-dasharray="5,2" d="M110,-128.277C110,-114.387 110,-96.675 110,-85.5827"/>
<polygon fill="#9a32cd" stroke="#9a32cd" points="106.5,-128.398 110,-138.398 113.5,-128.398 106.5,-128.398"/>
<text text-anchor="middle" x="128.5" y="-108.3" font-family="Helvetica,sans-Serif" font-size="14.00"> data</text>
</g>
</g>
</svg>
