<?xml version="1.0" encoding="UTF-8" standalone="no"?>
<!DOCTYPE svg PUBLIC "-//W3C//DTD SVG 1.1//EN"
 "http://www.w3.org/Graphics/SVG/1.1/DTD/svg11.dtd">
<!-- Generated by graphviz version 2.30.1 (20200304.1809)
 -->
<!-- Title: mfem::TMOPNewtonSolver Pages: 1 -->
<svg width="216pt" height="332pt"
 viewBox="0.00 0.00 216.00 332.00" xmlns="http://www.w3.org/2000/svg" xmlns:xlink="http://www.w3.org/1999/xlink">
<g id="graph0" class="graph" transform="scale(1 1) rotate(0) translate(4 328)">
<title>mfem::TMOPNewtonSolver</title>
<polygon fill="white" stroke="white" points="-4,5 -4,-328 213,-328 213,5 -4,5"/>
<!-- Node1 -->
<g id="node1" class="node"><title>Node1</title>
<polygon fill="#bfbfbf" stroke="black" points="-0.5,-0.5 -0.5,-23.5 208.5,-23.5 208.5,-0.5 -0.5,-0.5"/>
<text text-anchor="middle" x="104" y="-8.3" font-family="Helvetica,sans-Serif" font-size="14.00">mfem::TMOPNewtonSolver</text>
</g>
<!-- Node2 -->
<g id="node2" class="node"><title>Node2</title>
<g id="a_node2"><a xlink:href="classmfem_1_1LBFGSSolver.html" target="_top" xlink:title="mfem::LBFGSSolver">
<polygon fill="white" stroke="black" points="24,-60.5 24,-83.5 184,-83.5 184,-60.5 24,-60.5"/>
<text text-anchor="middle" x="104" y="-68.3" font-family="Helvetica,sans-Serif" font-size="14.00">mfem::LBFGSSolver</text>
</a>
</g>
</g>
<!-- Node2&#45;&gt;Node1 -->
<g id="edge1" class="edge"><title>Node2&#45;&gt;Node1</title>
<path fill="none" stroke="midnightblue" d="M104,-50.1906C104,-41.1684 104,-30.9941 104,-23.5707"/>
<polygon fill="midnightblue" stroke="midnightblue" points="100.5,-50.3619 104,-60.3619 107.5,-50.3619 100.5,-50.3619"/>
</g>
<!-- Node3 -->
<g id="node3" class="node"><title>Node3</title>
<g id="a_node3"><a xlink:href="classmfem_1_1NewtonSolver.html" target="_top" xlink:title="Newton&#39;s method for solving F(x)=b for a given operator F. ">
<polygon fill="white" stroke="black" points="20,-120.5 20,-143.5 188,-143.5 188,-120.5 20,-120.5"/>
<text text-anchor="middle" x="104" y="-128.3" font-family="Helvetica,sans-Serif" font-size="14.00">mfem::NewtonSolver</text>
</a>
</g>
</g>
<!-- Node3&#45;&gt;Node2 -->
<g id="edge2" class="edge"><title>Node3&#45;&gt;Node2</title>
<path fill="none" stroke="midnightblue" d="M104,-110.191C104,-101.168 104,-90.9941 104,-83.5707"/>
<polygon fill="midnightblue" stroke="midnightblue" points="100.5,-110.362 104,-120.362 107.5,-110.362 100.5,-110.362"/>
</g>
<!-- Node4 -->
<g id="node4" class="node"><title>Node4</title>
<g id="a_node4"><a xlink:href="classmfem_1_1IterativeSolver.html" target="_top" xlink:title="Abstract base class for iterative solver. ">
<polygon fill="white" stroke="black" points="17.5,-180.5 17.5,-203.5 190.5,-203.5 190.5,-180.5 17.5,-180.5"/>
<text text-anchor="middle" x="104" y="-188.3" font-family="Helvetica,sans-Serif" font-size="14.00">mfem::IterativeSolver</text>
</a>
</g>
</g>
<!-- Node4&#45;&gt;Node3 -->
<g id="edge3" class="edge"><title>Node4&#45;&gt;Node3</title>
<path fill="none" stroke="midnightblue" d="M104,-170.191C104,-161.168 104,-150.994 104,-143.571"/>
<polygon fill="midnightblue" stroke="midnightblue" points="100.5,-170.362 104,-180.362 107.5,-170.362 100.5,-170.362"/>
</g>
<!-- Node5 -->
<g id="node5" class="node"><title>Node5</title>
<g id="a_node5"><a xlink:href="classmfem_1_1Solver.html" target="_top" xlink:title="Base class for solvers. ">
<polygon fill="white" stroke="black" points="47.5,-240.5 47.5,-263.5 160.5,-263.5 160.5,-240.5 47.5,-240.5"/>
<text text-anchor="middle" x="104" y="-248.3" font-family="Helvetica,sans-Serif" font-size="14.00">mfem::Solver</text>
</a>
</g>
</g>
<!-- Node5&#45;&gt;Node4 -->
<g id="edge4" class="edge"><title>Node5&#45;&gt;Node4</title>
<path fill="none" stroke="midnightblue" d="M104,-230.191C104,-221.168 104,-210.994 104,-203.571"/>
<polygon fill="midnightblue" stroke="midnightblue" points="100.5,-230.362 104,-240.362 107.5,-230.362 100.5,-230.362"/>
</g>
<!-- Node6 -->
<g id="node6" class="node"><title>Node6</title>
<g id="a_node6"><a xlink:href="classmfem_1_1Operator.html" target="_top" xlink:title="Abstract operator. ">
<polygon fill="white" stroke="black" points="37.5,-300.5 37.5,-323.5 170.5,-323.5 170.5,-300.5 37.5,-300.5"/>
<text text-anchor="middle" x="104" y="-308.3" font-family="Helvetica,sans-Serif" font-size="14.00">mfem::Operator</text>
</a>
</g>
</g>
<!-- Node6&#45;&gt;Node5 -->
<g id="edge5" class="edge"><title>Node6&#45;&gt;Node5</title>
<path fill="none" stroke="midnightblue" d="M104,-290.191C104,-281.168 104,-270.994 104,-263.571"/>
<polygon fill="midnightblue" stroke="midnightblue" points="100.5,-290.362 104,-300.362 107.5,-290.362 100.5,-290.362"/>
</g>
</g>
</svg>
