<?xml version="1.0" encoding="UTF-8" standalone="no"?>
<!DOCTYPE svg PUBLIC "-//W3C//DTD SVG 1.1//EN"
 "http://www.w3.org/Graphics/SVG/1.1/DTD/svg11.dtd">
<!-- Generated by graphviz version 2.30.1 (20200304.1809)
 -->
<!-- Title: mfem::SundialsSolver Pages: 1 -->
<svg width="216pt" height="246pt"
 viewBox="0.00 0.00 216.00 246.00" xmlns="http://www.w3.org/2000/svg" xmlns:xlink="http://www.w3.org/1999/xlink">
<g id="graph0" class="graph" transform="scale(1 1) rotate(0) translate(4 242)">
<title>mfem::SundialsSolver</title>
<polygon fill="white" stroke="white" points="-4,5 -4,-242 213,-242 213,5 -4,5"/>
<!-- Node1 -->
<g id="node1" class="node"><title>Node1</title>
<polygon fill="#bfbfbf" stroke="black" points="17.5,-0.5 17.5,-23.5 190.5,-23.5 190.5,-0.5 17.5,-0.5"/>
<text text-anchor="middle" x="104" y="-8.3" font-family="Helvetica,sans-Serif" font-size="14.00">mfem::SundialsSolver</text>
</g>
<!-- Node2 -->
<g id="node2" class="node"><title>Node2</title>
<g id="a_node2"><a xlink:href="classmfem_1_1SundialsNVector.html" target="_top" xlink:title="Vector interface for SUNDIALS N_Vectors. ">
<polygon fill="white" stroke="black" points="11.5,-76.5 11.5,-99.5 196.5,-99.5 196.5,-76.5 11.5,-76.5"/>
<text text-anchor="middle" x="104" y="-84.3" font-family="Helvetica,sans-Serif" font-size="14.00">mfem::SundialsNVector</text>
</a>
</g>
</g>
<!-- Node2&#45;&gt;Node1 -->
<g id="edge1" class="edge"><title>Node2&#45;&gt;Node1</title>
<path fill="none" stroke="#9a32cd" stroke-dasharray="5,2" d="M104,-66.2771C104,-52.3872 104,-34.675 104,-23.5827"/>
<polygon fill="#9a32cd" stroke="#9a32cd" points="100.5,-66.3976 104,-76.3976 107.5,-66.3976 100.5,-66.3976"/>
<text text-anchor="middle" x="111" y="-46.3" font-family="Helvetica,sans-Serif" font-size="14.00"> Y</text>
</g>
<!-- Node3 -->
<g id="node3" class="node"><title>Node3</title>
<g id="a_node3"><a xlink:href="classmfem_1_1Vector.html" target="_top" xlink:title="Vector data type. ">
<polygon fill="white" stroke="black" points="47,-138.5 47,-161.5 161,-161.5 161,-138.5 47,-138.5"/>
<text text-anchor="middle" x="104" y="-146.3" font-family="Helvetica,sans-Serif" font-size="14.00">mfem::Vector</text>
</a>
</g>
</g>
<!-- Node3&#45;&gt;Node2 -->
<g id="edge2" class="edge"><title>Node3&#45;&gt;Node2</title>
<path fill="none" stroke="midnightblue" d="M104,-128.231C104,-118.592 104,-107.544 104,-99.6339"/>
<polygon fill="midnightblue" stroke="midnightblue" points="100.5,-128.273 104,-138.273 107.5,-128.273 100.5,-128.273"/>
</g>
<!-- Node4 -->
<g id="node4" class="node"><title>Node4</title>
<g id="a_node4"><a xlink:href="classmfem_1_1Memory.html" target="_top" xlink:title="mfem::Memory\&lt; double \&gt;">
<polygon fill="white" stroke="black" points="-0.5,-214.5 -0.5,-237.5 208.5,-237.5 208.5,-214.5 -0.5,-214.5"/>
<text text-anchor="middle" x="104" y="-222.3" font-family="Helvetica,sans-Serif" font-size="14.00">mfem::Memory&lt; double &gt;</text>
</a>
</g>
</g>
<!-- Node4&#45;&gt;Node3 -->
<g id="edge3" class="edge"><title>Node4&#45;&gt;Node3</title>
<path fill="none" stroke="#9a32cd" stroke-dasharray="5,2" d="M104,-204.277C104,-190.387 104,-172.675 104,-161.583"/>
<polygon fill="#9a32cd" stroke="#9a32cd" points="100.5,-204.398 104,-214.398 107.5,-204.398 100.5,-204.398"/>
<text text-anchor="middle" x="122.5" y="-184.3" font-family="Helvetica,sans-Serif" font-size="14.00"> data</text>
</g>
</g>
</svg>
