<?xml version="1.0" encoding="UTF-8" standalone="no"?>
<!DOCTYPE svg PUBLIC "-//W3C//DTD SVG 1.1//EN"
 "http://www.w3.org/Graphics/SVG/1.1/DTD/svg11.dtd">
<!-- Generated by graphviz version 2.30.1 (20200304.1809)
 -->
<!-- Title: mfem::L2FaceRestriction Pages: 1 -->
<svg width="453pt" height="272pt"
 viewBox="0.00 0.00 453.00 272.00" xmlns="http://www.w3.org/2000/svg" xmlns:xlink="http://www.w3.org/1999/xlink">
<g id="graph0" class="graph" transform="scale(1 1) rotate(0) translate(4 268)">
<title>mfem::L2FaceRestriction</title>
<polygon fill="white" stroke="white" points="-4,5 -4,-268 450,-268 450,5 -4,5"/>
<!-- Node1 -->
<g id="node1" class="node"><title>Node1</title>
<polygon fill="#bfbfbf" stroke="black" points="125.5,-120.5 125.5,-143.5 318.5,-143.5 318.5,-120.5 125.5,-120.5"/>
<text text-anchor="middle" x="222" y="-128.3" font-family="Helvetica,sans-Serif" font-size="14.00">mfem::L2FaceRestriction</text>
</g>
<!-- Node4 -->
<g id="node4" class="node"><title>Node4</title>
<g id="a_node4"><a xlink:href="classmfem_1_1NCL2FaceRestriction.html" target="_top" xlink:title="Operator that extracts face degrees of freedom for L2 nonconforming spaces. ">
<polygon fill="white" stroke="black" points="-0.5,-60.5 -0.5,-83.5 212.5,-83.5 212.5,-60.5 -0.5,-60.5"/>
<text text-anchor="middle" x="106" y="-68.3" font-family="Helvetica,sans-Serif" font-size="14.00">mfem::NCL2FaceRestriction</text>
</a>
</g>
</g>
<!-- Node1&#45;&gt;Node4 -->
<g id="edge3" class="edge"><title>Node1&#45;&gt;Node4</title>
<path fill="none" stroke="midnightblue" d="M191.864,-115.932C171.586,-105.793 145.35,-92.6748 127.242,-83.6212"/>
<polygon fill="midnightblue" stroke="midnightblue" points="190.484,-119.155 200.993,-120.497 193.614,-112.894 190.484,-119.155"/>
</g>
<!-- Node6 -->
<g id="node6" class="node"><title>Node6</title>
<g id="a_node6"><a xlink:href="classmfem_1_1ParL2FaceRestriction.html" target="_top" xlink:title="Operator that extracts Face degrees of freedom in parallel. ">
<polygon fill="white" stroke="black" points="230.5,-60.5 230.5,-83.5 445.5,-83.5 445.5,-60.5 230.5,-60.5"/>
<text text-anchor="middle" x="338" y="-68.3" font-family="Helvetica,sans-Serif" font-size="14.00">mfem::ParL2FaceRestriction</text>
</a>
</g>
</g>
<!-- Node1&#45;&gt;Node6 -->
<g id="edge5" class="edge"><title>Node1&#45;&gt;Node6</title>
<path fill="none" stroke="midnightblue" d="M252.136,-115.932C272.414,-105.793 298.65,-92.6748 316.758,-83.6212"/>
<polygon fill="midnightblue" stroke="midnightblue" points="250.386,-112.894 243.007,-120.497 253.516,-119.155 250.386,-112.894"/>
</g>
<!-- Node2 -->
<g id="node2" class="node"><title>Node2</title>
<g id="a_node2"><a xlink:href="classmfem_1_1FaceRestriction.html" target="_top" xlink:title="Base class for operators that extracts Face degrees of freedom. ">
<polygon fill="white" stroke="black" points="134,-180.5 134,-203.5 310,-203.5 310,-180.5 134,-180.5"/>
<text text-anchor="middle" x="222" y="-188.3" font-family="Helvetica,sans-Serif" font-size="14.00">mfem::FaceRestriction</text>
</a>
</g>
</g>
<!-- Node2&#45;&gt;Node1 -->
<g id="edge1" class="edge"><title>Node2&#45;&gt;Node1</title>
<path fill="none" stroke="midnightblue" d="M222,-170.191C222,-161.168 222,-150.994 222,-143.571"/>
<polygon fill="midnightblue" stroke="midnightblue" points="218.5,-170.362 222,-180.362 225.5,-170.362 218.5,-170.362"/>
</g>
<!-- Node3 -->
<g id="node3" class="node"><title>Node3</title>
<g id="a_node3"><a xlink:href="classmfem_1_1Operator.html" target="_top" xlink:title="Abstract operator. ">
<polygon fill="white" stroke="black" points="155.5,-240.5 155.5,-263.5 288.5,-263.5 288.5,-240.5 155.5,-240.5"/>
<text text-anchor="middle" x="222" y="-248.3" font-family="Helvetica,sans-Serif" font-size="14.00">mfem::Operator</text>
</a>
</g>
</g>
<!-- Node3&#45;&gt;Node2 -->
<g id="edge2" class="edge"><title>Node3&#45;&gt;Node2</title>
<path fill="none" stroke="midnightblue" d="M222,-230.191C222,-221.168 222,-210.994 222,-203.571"/>
<polygon fill="midnightblue" stroke="midnightblue" points="218.5,-230.362 222,-240.362 225.5,-230.362 218.5,-230.362"/>
</g>
<!-- Node5 -->
<g id="node5" class="node"><title>Node5</title>
<g id="a_node5"><a xlink:href="classmfem_1_1ParNCL2FaceRestriction.html" target="_top" xlink:title="Operator that extracts Face degrees of freedom for NCMesh in parallel. ">
<polygon fill="white" stroke="black" points="104,-0.5 104,-23.5 340,-23.5 340,-0.5 104,-0.5"/>
<text text-anchor="middle" x="222" y="-8.3" font-family="Helvetica,sans-Serif" font-size="14.00">mfem::ParNCL2FaceRestriction</text>
</a>
</g>
</g>
<!-- Node4&#45;&gt;Node5 -->
<g id="edge4" class="edge"><title>Node4&#45;&gt;Node5</title>
<path fill="none" stroke="midnightblue" d="M136.136,-55.9319C156.414,-45.7932 182.65,-32.6748 200.758,-23.6212"/>
<polygon fill="midnightblue" stroke="midnightblue" points="134.386,-52.8939 127.007,-60.4966 137.516,-59.1549 134.386,-52.8939"/>
</g>
<!-- Node6&#45;&gt;Node5 -->
<g id="edge6" class="edge"><title>Node6&#45;&gt;Node5</title>
<path fill="none" stroke="midnightblue" d="M307.864,-55.9319C287.586,-45.7932 261.35,-32.6748 243.242,-23.6212"/>
<polygon fill="midnightblue" stroke="midnightblue" points="306.484,-59.1549 316.993,-60.4966 309.614,-52.8939 306.484,-59.1549"/>
</g>
</g>
</svg>
