<?xml version="1.0" encoding="UTF-8" standalone="no"?>
<!DOCTYPE svg PUBLIC "-//W3C//DTD SVG 1.1//EN"
 "http://www.w3.org/Graphics/SVG/1.1/DTD/svg11.dtd">
<!-- Generated by graphviz version 2.30.1 (20200304.1809)
 -->
<!-- Title: Graphical Class Hierarchy Pages: 1 -->
<svg width="810pt" height="272pt"
 viewBox="0.00 0.00 810.00 272.00" xmlns="http://www.w3.org/2000/svg" xmlns:xlink="http://www.w3.org/1999/xlink">
<g id="graph0" class="graph" transform="scale(1 1) rotate(0) translate(4 268)">
<title>Graphical Class Hierarchy</title>
<polygon fill="white" stroke="white" points="-4,5 -4,-268 807,-268 807,5 -4,5"/>
<!-- Node0 -->
<g id="node1" class="node"><title>Node0</title>
<g id="a_node1"><a xlink:href="classmfem_1_1SecondOrderODESolver.html" target="_top" xlink:title="Abstract class for solving systems of ODEs: d2x/dt2 = f(x,dx/dt,t) ">
<polygon fill="white" stroke="black" points="0.5,-130.5 0.5,-153.5 239.5,-153.5 239.5,-130.5 0.5,-130.5"/>
<text text-anchor="middle" x="120" y="-138.3" font-family="Helvetica,sans-Serif" font-size="14.00">mfem::SecondOrderODESolver</text>
</a>
</g>
</g>
<!-- Node1 -->
<g id="node2" class="node"><title>Node1</title>
<g id="a_node2"><a xlink:href="classmfem_1_1GeneralizedAlpha2Solver.html" target="_top" xlink:title="mfem::GeneralizedAlpha2Solver">
<polygon fill="white" stroke="black" points="276.5,-162.5 276.5,-185.5 525.5,-185.5 525.5,-162.5 276.5,-162.5"/>
<text text-anchor="middle" x="401" y="-170.3" font-family="Helvetica,sans-Serif" font-size="14.00">mfem::GeneralizedAlpha2Solver</text>
</a>
</g>
</g>
<!-- Node0&#45;&gt;Node1 -->
<g id="edge1" class="edge"><title>Node0&#45;&gt;Node1</title>
<path fill="none" stroke="midnightblue" d="M231.569,-154.682C254.03,-157.258 277.537,-159.954 299.622,-162.487"/>
<polygon fill="midnightblue" stroke="midnightblue" points="231.665,-151.17 221.331,-153.508 230.867,-158.124 231.665,-151.17"/>
</g>
<!-- Node5 -->
<g id="node6" class="node"><title>Node5</title>
<g id="a_node6"><a xlink:href="classmfem_1_1NewmarkSolver.html" target="_top" xlink:title="mfem::NewmarkSolver">
<polygon fill="white" stroke="black" points="310,-78.5 310,-101.5 492,-101.5 492,-78.5 310,-78.5"/>
<text text-anchor="middle" x="401" y="-86.3" font-family="Helvetica,sans-Serif" font-size="14.00">mfem::NewmarkSolver</text>
</a>
</g>
</g>
<!-- Node0&#45;&gt;Node5 -->
<g id="edge5" class="edge"><title>Node0&#45;&gt;Node5</title>
<path fill="none" stroke="midnightblue" d="M192.908,-128.598C237.918,-120.209 295.309,-109.512 338.254,-101.508"/>
<polygon fill="midnightblue" stroke="midnightblue" points="192.109,-125.186 182.919,-130.46 193.391,-132.068 192.109,-125.186"/>
</g>
<!-- Node2 -->
<g id="node3" class="node"><title>Node2</title>
<g id="a_node3"><a xlink:href="classmfem_1_1AverageAccelerationSolver.html" target="_top" xlink:title="The classical midpoint method. ">
<polygon fill="white" stroke="black" points="574,-226 574,-264 790,-264 790,-226 574,-226"/>
<text text-anchor="start" x="582" y="-248.8" font-family="Helvetica,sans-Serif" font-size="14.00">mfem::AverageAcceleration</text>
<text text-anchor="middle" x="682" y="-233.8" font-family="Helvetica,sans-Serif" font-size="14.00">Solver</text>
</a>
</g>
</g>
<!-- Node1&#45;&gt;Node2 -->
<g id="edge2" class="edge"><title>Node1&#45;&gt;Node2</title>
<path fill="none" stroke="midnightblue" d="M454.848,-188.123C485.998,-196.385 526.201,-206.94 562,-216 574.884,-219.261 588.57,-222.658 601.898,-225.93"/>
<polygon fill="midnightblue" stroke="midnightblue" points="455.632,-184.71 445.069,-185.526 453.835,-191.476 455.632,-184.71"/>
</g>
<!-- Node3 -->
<g id="node4" class="node"><title>Node3</title>
<g id="a_node4"><a xlink:href="classmfem_1_1HHTAlphaSolver.html" target="_top" xlink:title="mfem::HHTAlphaSolver">
<polygon fill="white" stroke="black" points="590.5,-183.5 590.5,-206.5 773.5,-206.5 773.5,-183.5 590.5,-183.5"/>
<text text-anchor="middle" x="682" y="-191.3" font-family="Helvetica,sans-Serif" font-size="14.00">mfem::HHTAlphaSolver</text>
</a>
</g>
</g>
<!-- Node1&#45;&gt;Node3 -->
<g id="edge3" class="edge"><title>Node1&#45;&gt;Node3</title>
<path fill="none" stroke="midnightblue" d="M535.802,-184.071C554.22,-185.457 572.77,-186.854 590.166,-188.163"/>
<polygon fill="midnightblue" stroke="midnightblue" points="535.826,-180.563 525.592,-183.303 535.301,-187.543 535.826,-180.563"/>
</g>
<!-- Node4 -->
<g id="node5" class="node"><title>Node4</title>
<g id="a_node5"><a xlink:href="classmfem_1_1WBZAlphaSolver.html" target="_top" xlink:title="mfem::WBZAlphaSolver">
<polygon fill="white" stroke="black" points="588,-141.5 588,-164.5 776,-164.5 776,-141.5 588,-141.5"/>
<text text-anchor="middle" x="682" y="-149.3" font-family="Helvetica,sans-Serif" font-size="14.00">mfem::WBZAlphaSolver</text>
</a>
</g>
</g>
<!-- Node1&#45;&gt;Node4 -->
<g id="edge4" class="edge"><title>Node1&#45;&gt;Node4</title>
<path fill="none" stroke="midnightblue" d="M535.881,-163.923C553.394,-162.605 571.025,-161.278 587.667,-160.025"/>
<polygon fill="midnightblue" stroke="midnightblue" points="535.301,-160.457 525.592,-164.697 535.826,-167.437 535.301,-160.457"/>
</g>
<!-- Node6 -->
<g id="node7" class="node"><title>Node6</title>
<g id="a_node7"><a xlink:href="classmfem_1_1CentralDifferenceSolver.html" target="_top" xlink:title="mfem::CentralDifferenceSolver">
<polygon fill="white" stroke="black" points="562.5,-99.5 562.5,-122.5 801.5,-122.5 801.5,-99.5 562.5,-99.5"/>
<text text-anchor="middle" x="682" y="-107.3" font-family="Helvetica,sans-Serif" font-size="14.00">mfem::CentralDifferenceSolver</text>
</a>
</g>
</g>
<!-- Node5&#45;&gt;Node6 -->
<g id="edge6" class="edge"><title>Node5&#45;&gt;Node6</title>
<path fill="none" stroke="midnightblue" d="M502.278,-97.5478C521.766,-99.0146 542.364,-100.565 562.377,-102.071"/>
<polygon fill="midnightblue" stroke="midnightblue" points="502.433,-94.0496 492.198,-96.7891 501.907,-101.03 502.433,-94.0496"/>
</g>
<!-- Node7 -->
<g id="node8" class="node"><title>Node7</title>
<g id="a_node8"><a xlink:href="classmfem_1_1FoxGoodwinSolver.html" target="_top" xlink:title="mfem::FoxGoodwinSolver">
<polygon fill="white" stroke="black" points="582,-57.5 582,-80.5 782,-80.5 782,-57.5 582,-57.5"/>
<text text-anchor="middle" x="682" y="-65.3" font-family="Helvetica,sans-Serif" font-size="14.00">mfem::FoxGoodwinSolver</text>
</a>
</g>
</g>
<!-- Node5&#45;&gt;Node7 -->
<g id="edge7" class="edge"><title>Node5&#45;&gt;Node7</title>
<path fill="none" stroke="midnightblue" d="M502.395,-82.4434C528.283,-80.4948 556.125,-78.3992 581.945,-76.4558"/>
<polygon fill="midnightblue" stroke="midnightblue" points="501.907,-78.9701 492.198,-83.2109 502.433,-85.9504 501.907,-78.9701"/>
</g>
<!-- Node8 -->
<g id="node9" class="node"><title>Node8</title>
<g id="a_node9"><a xlink:href="classmfem_1_1LinearAccelerationSolver.html" target="_top" xlink:title="mfem::LinearAcceleration\lSolver">
<polygon fill="white" stroke="black" points="581,-0 581,-38 783,-38 783,-0 581,-0"/>
<text text-anchor="start" x="589" y="-22.8" font-family="Helvetica,sans-Serif" font-size="14.00">mfem::LinearAcceleration</text>
<text text-anchor="middle" x="682" y="-7.8" font-family="Helvetica,sans-Serif" font-size="14.00">Solver</text>
</a>
</g>
</g>
<!-- Node5&#45;&gt;Node8 -->
<g id="edge8" class="edge"><title>Node5&#45;&gt;Node8</title>
<path fill="none" stroke="midnightblue" d="M454.848,-75.8768C485.998,-67.6147 526.201,-57.06 562,-48 574.884,-44.7393 588.57,-41.3423 601.898,-38.0697"/>
<polygon fill="midnightblue" stroke="midnightblue" points="453.835,-72.5243 445.069,-78.474 455.632,-79.2897 453.835,-72.5243"/>
</g>
</g>
</svg>
