<?xml version="1.0" encoding="UTF-8" standalone="no"?>
<!DOCTYPE svg PUBLIC "-//W3C//DTD SVG 1.1//EN"
 "http://www.w3.org/Graphics/SVG/1.1/DTD/svg11.dtd">
<!-- Generated by graphviz version 2.30.1 (20200304.1809)
 -->
<!-- Title: mfem::FieldEvaluator&lt; FESpace_t, VecLayout_t, IR, complex_t, real_t &gt;::AData&lt; 2, it_t &gt; Pages: 1 -->
<svg width="1142pt" height="249pt"
 viewBox="0.00 0.00 1142.00 249.00" xmlns="http://www.w3.org/2000/svg" xmlns:xlink="http://www.w3.org/1999/xlink">
<g id="graph0" class="graph" transform="scale(1 1) rotate(0) translate(4 245)">
<title>mfem::FieldEvaluator&lt; FESpace_t, VecLayout_t, IR, complex_t, real_t &gt;::AData&lt; 2, it_t &gt;</title>
<polygon fill="white" stroke="white" points="-4,5 -4,-245 1139,-245 1139,5 -4,5"/>
<!-- Node1 -->
<g id="node1" class="node"><title>Node1</title>
<polygon fill="#bfbfbf" stroke="black" points="944,-93 944,-161 1134,-161 1134,-93 944,-93"/>
<text text-anchor="start" x="952" y="-145.8" font-family="Helvetica,sans-Serif" font-size="14.00">mfem::FieldEvaluator</text>
<text text-anchor="start" x="952" y="-130.8" font-family="Helvetica,sans-Serif" font-size="14.00">&lt; FESpace_t, VecLayout</text>
<text text-anchor="start" x="952" y="-115.8" font-family="Helvetica,sans-Serif" font-size="14.00">_t, IR, complex_t, real</text>
<text text-anchor="middle" x="1039" y="-100.8" font-family="Helvetica,sans-Serif" font-size="14.00">_t &gt;::AData&lt; 2, it_t &gt;</text>
</g>
<!-- Node2 -->
<g id="node2" class="node"><title>Node2</title>
<g id="a_node2"><a xlink:href="structmfem_1_1TTensor3.html" target="_top" xlink:title="mfem::TTensor3\&lt; dofs,\l vdim, ne, vcomplex_t,\l true \&gt;">
<polygon fill="white" stroke="black" points="625.5,-130.5 625.5,-183.5 810.5,-183.5 810.5,-130.5 625.5,-130.5"/>
<text text-anchor="start" x="633.5" y="-168.3" font-family="Helvetica,sans-Serif" font-size="14.00">mfem::TTensor3&lt; dofs,</text>
<text text-anchor="start" x="633.5" y="-153.3" font-family="Helvetica,sans-Serif" font-size="14.00"> vdim, ne, vcomplex_t,</text>
<text text-anchor="middle" x="718" y="-138.3" font-family="Helvetica,sans-Serif" font-size="14.00"> true &gt;</text>
</a>
</g>
</g>
<!-- Node2&#45;&gt;Node1 -->
<g id="edge1" class="edge"><title>Node2&#45;&gt;Node1</title>
<path fill="none" stroke="#9a32cd" stroke-dasharray="5,2" d="M820.993,-147.408C860.372,-143.705 905.151,-139.494 943.763,-135.862"/>
<polygon fill="#9a32cd" stroke="#9a32cd" points="820.468,-143.942 810.84,-148.363 821.124,-150.911 820.468,-143.942"/>
<text text-anchor="middle" x="888" y="-147.8" font-family="Helvetica,sans-Serif" font-size="14.00"> val_dofs</text>
</g>
<!-- Node3 -->
<g id="node3" class="node"><title>Node3</title>
<g id="a_node3"><a xlink:href="structmfem_1_1TVector.html" target="_top" xlink:title="mfem::TVector\&lt; N1 *N2\l *N3, vcomplex_t,align \&gt;">
<polygon fill="white" stroke="black" points="310,-138 310,-176 504,-176 504,-138 310,-138"/>
<text text-anchor="start" x="318" y="-160.8" font-family="Helvetica,sans-Serif" font-size="14.00">mfem::TVector&lt; N1 *N2</text>
<text text-anchor="middle" x="407" y="-145.8" font-family="Helvetica,sans-Serif" font-size="14.00"> *N3, vcomplex_t,align &gt;</text>
</a>
</g>
</g>
<!-- Node3&#45;&gt;Node2 -->
<g id="edge2" class="edge"><title>Node3&#45;&gt;Node2</title>
<path fill="none" stroke="midnightblue" d="M514.175,-157C550.38,-157 590.521,-157 625.474,-157"/>
<polygon fill="midnightblue" stroke="midnightblue" points="514.076,-153.5 504.076,-157 514.076,-160.5 514.076,-153.5"/>
</g>
<!-- Node4 -->
<g id="node4" class="node"><title>Node4</title>
<g id="a_node4"><a xlink:href="structmfem_1_1StridedLayout1D.html" target="_top" xlink:title="mfem::StridedLayout1D\l\&lt; N1, S1 \&gt;">
<polygon fill="white" stroke="black" points="11,-75 11,-113 199,-113 199,-75 11,-75"/>
<text text-anchor="start" x="19" y="-97.8" font-family="Helvetica,sans-Serif" font-size="14.00">mfem::StridedLayout1D</text>
<text text-anchor="middle" x="105" y="-82.8" font-family="Helvetica,sans-Serif" font-size="14.00">&lt; N1, S1 &gt;</text>
</a>
</g>
</g>
<!-- Node4&#45;&gt;Node3 -->
<g id="edge3" class="edge"><title>Node4&#45;&gt;Node3</title>
<path fill="none" stroke="#9a32cd" stroke-dasharray="5,2" d="M209.175,-83.7618C232.939,-85.3898 257.293,-90.5295 278,-102 290.294,-108.81 284.492,-119.931 296,-128 301.417,-131.798 307.3,-135.099 313.435,-137.968"/>
<polygon fill="#9a32cd" stroke="#9a32cd" points="209.197,-80.2589 199.04,-83.2709 208.859,-87.2507 209.197,-80.2589"/>
<text text-anchor="middle" x="253" y="-105.8" font-family="Helvetica,sans-Serif" font-size="14.00"> layout</text>
</g>
<!-- Node9 -->
<g id="node9" class="node"><title>Node9</title>
<g id="a_node9"><a xlink:href="structmfem_1_1TVector.html" target="_top" xlink:title="mfem::TVector\&lt; N1 *N2\l *N3 *N4, vcomplex_t,\lfalse \&gt;">
<polygon fill="white" stroke="black" points="311.5,-65.5 311.5,-118.5 502.5,-118.5 502.5,-65.5 311.5,-65.5"/>
<text text-anchor="start" x="319.5" y="-103.3" font-family="Helvetica,sans-Serif" font-size="14.00">mfem::TVector&lt; N1 *N2</text>
<text text-anchor="start" x="319.5" y="-88.3" font-family="Helvetica,sans-Serif" font-size="14.00"> *N3 *N4, vcomplex_t,</text>
<text text-anchor="middle" x="407" y="-73.3" font-family="Helvetica,sans-Serif" font-size="14.00">false &gt;</text>
</a>
</g>
</g>
<!-- Node4&#45;&gt;Node9 -->
<g id="edge9" class="edge"><title>Node4&#45;&gt;Node9</title>
<path fill="none" stroke="#9a32cd" stroke-dasharray="5,2" d="M193.472,-73.0554C205.025,-70.9677 216.756,-69.1848 228,-68 255.134,-65.1407 284.515,-67.0399 311.436,-70.7786"/>
<polygon fill="#9a32cd" stroke="#9a32cd" points="192.558,-69.6659 183.382,-74.9612 193.858,-76.5443 192.558,-69.6659"/>
<text text-anchor="middle" x="253" y="-71.8" font-family="Helvetica,sans-Serif" font-size="14.00"> layout</text>
</g>
<!-- Node5 -->
<g id="node5" class="node"><title>Node5</title>
<polygon fill="white" stroke="#bfbfbf" points="74,-136.5 74,-159.5 136,-159.5 136,-136.5 74,-136.5"/>
<text text-anchor="middle" x="105" y="-144.3" font-family="Helvetica,sans-Serif" font-size="14.00">data_t</text>
</g>
<!-- Node5&#45;&gt;Node3 -->
<g id="edge4" class="edge"><title>Node5&#45;&gt;Node3</title>
<path fill="none" stroke="#9a32cd" stroke-dasharray="5,2" d="M146.094,-152.53C169.867,-154.987 200.611,-157.768 228,-159 254.551,-160.195 283.351,-160.361 309.893,-160.055"/>
<polygon fill="#9a32cd" stroke="#9a32cd" points="146.344,-149.037 136.031,-151.466 145.608,-155.998 146.344,-149.037"/>
<text text-anchor="middle" x="253" y="-164.8" font-family="Helvetica,sans-Serif" font-size="14.00"> data</text>
</g>
<!-- Node5&#45;&gt;Node9 -->
<g id="edge10" class="edge"><title>Node5&#45;&gt;Node9</title>
<path fill="none" stroke="#9a32cd" stroke-dasharray="5,2" d="M146.522,-142.422C181.461,-137.426 233.205,-129.58 278,-121 288.854,-118.921 300.189,-116.589 311.434,-114.174"/>
<polygon fill="#9a32cd" stroke="#9a32cd" points="145.655,-139.01 136.245,-143.879 146.637,-145.941 145.655,-139.01"/>
<text text-anchor="middle" x="253" y="-133.8" font-family="Helvetica,sans-Serif" font-size="14.00"> data</text>
</g>
<!-- Node6 -->
<g id="node6" class="node"><title>Node6</title>
<g id="a_node6"><a xlink:href="structmfem_1_1ColumnMajorLayout3D.html" target="_top" xlink:title="mfem::ColumnMajorLayout3\lD\&lt; N1, N2, N3 \&gt;">
<polygon fill="white" stroke="black" points="296.5,-195 296.5,-233 517.5,-233 517.5,-195 296.5,-195"/>
<text text-anchor="start" x="304.5" y="-217.8" font-family="Helvetica,sans-Serif" font-size="14.00">mfem::ColumnMajorLayout3</text>
<text text-anchor="middle" x="407" y="-202.8" font-family="Helvetica,sans-Serif" font-size="14.00">D&lt; N1, N2, N3 &gt;</text>
</a>
</g>
</g>
<!-- Node6&#45;&gt;Node2 -->
<g id="edge5" class="edge"><title>Node6&#45;&gt;Node2</title>
<path fill="none" stroke="#9a32cd" stroke-dasharray="5,2" d="M521.376,-193.086C555.636,-186.766 592.806,-179.91 625.452,-173.887"/>
<polygon fill="#9a32cd" stroke="#9a32cd" points="520.521,-189.685 511.322,-194.941 521.791,-196.568 520.521,-189.685"/>
<text text-anchor="middle" x="561" y="-192.8" font-family="Helvetica,sans-Serif" font-size="14.00"> layout</text>
</g>
<!-- Node7 -->
<g id="node7" class="node"><title>Node7</title>
<g id="a_node7"><a xlink:href="structmfem_1_1StridedLayout3D.html" target="_top" xlink:title="mfem::StridedLayout3D\l\&lt; N1, 1, N2, N1, N3,\l N1 *N2 \&gt;">
<polygon fill="white" stroke="black" points="11,-187.5 11,-240.5 199,-240.5 199,-187.5 11,-187.5"/>
<text text-anchor="start" x="19" y="-225.3" font-family="Helvetica,sans-Serif" font-size="14.00">mfem::StridedLayout3D</text>
<text text-anchor="start" x="19" y="-210.3" font-family="Helvetica,sans-Serif" font-size="14.00">&lt; N1, 1, N2, N1, N3,</text>
<text text-anchor="middle" x="105" y="-195.3" font-family="Helvetica,sans-Serif" font-size="14.00"> N1 *N2 &gt;</text>
</a>
</g>
</g>
<!-- Node7&#45;&gt;Node6 -->
<g id="edge6" class="edge"><title>Node7&#45;&gt;Node6</title>
<path fill="none" stroke="midnightblue" d="M209.506,-214C237.587,-214 268.082,-214 296.483,-214"/>
<polygon fill="midnightblue" stroke="midnightblue" points="209.277,-210.5 199.277,-214 209.277,-217.5 209.277,-210.5"/>
</g>
<!-- Node8 -->
<g id="node8" class="node"><title>Node8</title>
<g id="a_node8"><a xlink:href="structmfem_1_1TTensor4.html" target="_top" xlink:title="mfem::TTensor4\&lt; qpts,\l dim, vdim, ne, vcomplex_t \&gt;">
<polygon fill="white" stroke="black" points="604.5,-73 604.5,-111 831.5,-111 831.5,-73 604.5,-73"/>
<text text-anchor="start" x="612.5" y="-95.8" font-family="Helvetica,sans-Serif" font-size="14.00">mfem::TTensor4&lt; qpts,</text>
<text text-anchor="middle" x="718" y="-80.8" font-family="Helvetica,sans-Serif" font-size="14.00"> dim, vdim, ne, vcomplex_t &gt;</text>
</a>
</g>
</g>
<!-- Node8&#45;&gt;Node1 -->
<g id="edge7" class="edge"><title>Node8&#45;&gt;Node1</title>
<path fill="none" stroke="#9a32cd" stroke-dasharray="5,2" d="M841.876,-105.482C875.76,-109.199 911.975,-113.173 943.946,-116.681"/>
<polygon fill="#9a32cd" stroke="#9a32cd" points="842.238,-102.001 831.916,-104.389 841.475,-108.959 842.238,-102.001"/>
<text text-anchor="middle" x="888" y="-118.8" font-family="Helvetica,sans-Serif" font-size="14.00"> grad_qpts</text>
</g>
<!-- Node9&#45;&gt;Node8 -->
<g id="edge8" class="edge"><title>Node9&#45;&gt;Node8</title>
<path fill="none" stroke="midnightblue" d="M513.098,-92C542.52,-92 574.614,-92 604.449,-92"/>
<polygon fill="midnightblue" stroke="midnightblue" points="512.81,-88.5001 502.81,-92 512.81,-95.5001 512.81,-88.5001"/>
</g>
<!-- Node10 -->
<g id="node10" class="node"><title>Node10</title>
<g id="a_node10"><a xlink:href="structmfem_1_1ColumnMajorLayout4D.html" target="_top" xlink:title="mfem::ColumnMajorLayout4\lD\&lt; N1, N2, N3, N4 \&gt;">
<polygon fill="white" stroke="black" points="296.5,-8 296.5,-46 517.5,-46 517.5,-8 296.5,-8"/>
<text text-anchor="start" x="304.5" y="-30.8" font-family="Helvetica,sans-Serif" font-size="14.00">mfem::ColumnMajorLayout4</text>
<text text-anchor="middle" x="407" y="-15.8" font-family="Helvetica,sans-Serif" font-size="14.00">D&lt; N1, N2, N3, N4 &gt;</text>
</a>
</g>
</g>
<!-- Node10&#45;&gt;Node8 -->
<g id="edge11" class="edge"><title>Node10&#45;&gt;Node8</title>
<path fill="none" stroke="#9a32cd" stroke-dasharray="5,2" d="M508.683,-48.1793C546.684,-56.173 589.649,-65.2109 626.646,-72.9936"/>
<polygon fill="#9a32cd" stroke="#9a32cd" points="509.129,-44.6965 498.622,-46.063 507.688,-51.5466 509.129,-44.6965"/>
<text text-anchor="middle" x="561" y="-67.8" font-family="Helvetica,sans-Serif" font-size="14.00"> layout</text>
</g>
<!-- Node11 -->
<g id="node11" class="node"><title>Node11</title>
<g id="a_node11"><a xlink:href="structmfem_1_1StridedLayout4D.html" target="_top" xlink:title="mfem::StridedLayout4D\l\&lt; N1, 1, N2, N1, N3,\l N1 *N2, N4, N1 *N2 *N3 \&gt;">
<polygon fill="white" stroke="black" points="0.5,-0.5 0.5,-53.5 209.5,-53.5 209.5,-0.5 0.5,-0.5"/>
<text text-anchor="start" x="8.5" y="-38.3" font-family="Helvetica,sans-Serif" font-size="14.00">mfem::StridedLayout4D</text>
<text text-anchor="start" x="8.5" y="-23.3" font-family="Helvetica,sans-Serif" font-size="14.00">&lt; N1, 1, N2, N1, N3,</text>
<text text-anchor="middle" x="105" y="-8.3" font-family="Helvetica,sans-Serif" font-size="14.00"> N1 *N2, N4, N1 *N2 *N3 &gt;</text>
</a>
</g>
</g>
<!-- Node11&#45;&gt;Node10 -->
<g id="edge12" class="edge"><title>Node11&#45;&gt;Node10</title>
<path fill="none" stroke="midnightblue" d="M219.943,-27C245.03,-27 271.548,-27 296.457,-27"/>
<polygon fill="midnightblue" stroke="midnightblue" points="219.663,-23.5001 209.663,-27 219.663,-30.5001 219.663,-23.5001"/>
</g>
</g>
</svg>
