<?xml version="1.0" encoding="UTF-8" standalone="no"?>
<!DOCTYPE svg PUBLIC "-//W3C//DTD SVG 1.1//EN"
 "http://www.w3.org/Graphics/SVG/1.1/DTD/svg11.dtd">
<!-- Generated by graphviz version 2.30.1 (20200304.1809)
 -->
<!-- Title: mfem::TElementTransformation&lt; Mesh_t, IR, real_t &gt;::Result&lt; 2, it_t &gt; Pages: 1 -->
<svg width="1160pt" height="233pt"
 viewBox="0.00 0.00 1160.00 233.00" xmlns="http://www.w3.org/2000/svg" xmlns:xlink="http://www.w3.org/1999/xlink">
<g id="graph0" class="graph" transform="scale(1 1) rotate(0) translate(4 229)">
<title>mfem::TElementTransformation&lt; Mesh_t, IR, real_t &gt;::Result&lt; 2, it_t &gt;</title>
<polygon fill="white" stroke="white" points="-4,5 -4,-229 1157,-229 1157,5 -4,5"/>
<!-- Node1 -->
<g id="node1" class="node"><title>Node1</title>
<polygon fill="#bfbfbf" stroke="black" points="906.5,-87.5 906.5,-140.5 1151.5,-140.5 1151.5,-87.5 906.5,-87.5"/>
<text text-anchor="start" x="914.5" y="-125.3" font-family="Helvetica,sans-Serif" font-size="14.00">mfem::TElementTransformation</text>
<text text-anchor="start" x="914.5" y="-110.3" font-family="Helvetica,sans-Serif" font-size="14.00">&lt; Mesh_t, IR, real_t &gt;::Result</text>
<text text-anchor="middle" x="1029" y="-95.3" font-family="Helvetica,sans-Serif" font-size="14.00">&lt; 2, it_t &gt;</text>
</g>
<!-- Node2 -->
<g id="node2" class="node"><title>Node2</title>
<g id="a_node2"><a xlink:href="structmfem_1_1TTensor3.html" target="_top" xlink:title="mfem::TTensor3\&lt; dofs,\l sdim, ne, vreal_t \&gt;">
<polygon fill="white" stroke="black" points="604.5,-125 604.5,-163 789.5,-163 789.5,-125 604.5,-125"/>
<text text-anchor="start" x="612.5" y="-147.8" font-family="Helvetica,sans-Serif" font-size="14.00">mfem::TTensor3&lt; dofs,</text>
<text text-anchor="middle" x="697" y="-132.8" font-family="Helvetica,sans-Serif" font-size="14.00"> sdim, ne, vreal_t &gt;</text>
</a>
</g>
</g>
<!-- Node2&#45;&gt;Node1 -->
<g id="edge1" class="edge"><title>Node2&#45;&gt;Node1</title>
<path fill="none" stroke="#9a32cd" stroke-dasharray="5,2" d="M800.207,-134.708C833.79,-131.655 871.451,-128.232 906.332,-125.061"/>
<polygon fill="#9a32cd" stroke="#9a32cd" points="799.565,-131.252 789.923,-135.643 800.199,-138.224 799.565,-131.252"/>
<text text-anchor="middle" x="848" y="-137.8" font-family="Helvetica,sans-Serif" font-size="14.00"> nodes_dof</text>
</g>
<!-- Node3 -->
<g id="node3" class="node"><title>Node3</title>
<g id="a_node3"><a xlink:href="structmfem_1_1TVector.html" target="_top" xlink:title="mfem::TVector\&lt; N1 *N2\l *N3, vreal_t, false \&gt;">
<polygon fill="white" stroke="black" points="311.5,-122 311.5,-160 502.5,-160 502.5,-122 311.5,-122"/>
<text text-anchor="start" x="319.5" y="-144.8" font-family="Helvetica,sans-Serif" font-size="14.00">mfem::TVector&lt; N1 *N2</text>
<text text-anchor="middle" x="407" y="-129.8" font-family="Helvetica,sans-Serif" font-size="14.00"> *N3, vreal_t, false &gt;</text>
</a>
</g>
</g>
<!-- Node3&#45;&gt;Node2 -->
<g id="edge2" class="edge"><title>Node3&#45;&gt;Node2</title>
<path fill="none" stroke="midnightblue" d="M512.752,-142.091C542.691,-142.403 575.081,-142.74 604.183,-143.044"/>
<polygon fill="midnightblue" stroke="midnightblue" points="512.737,-138.591 502.701,-141.986 512.664,-145.591 512.737,-138.591"/>
</g>
<!-- Node4 -->
<g id="node4" class="node"><title>Node4</title>
<g id="a_node4"><a xlink:href="structmfem_1_1StridedLayout1D.html" target="_top" xlink:title="mfem::StridedLayout1D\l\&lt; N1, S1 \&gt;">
<polygon fill="white" stroke="black" points="11,-107 11,-145 199,-145 199,-107 11,-107"/>
<text text-anchor="start" x="19" y="-129.8" font-family="Helvetica,sans-Serif" font-size="14.00">mfem::StridedLayout1D</text>
<text text-anchor="middle" x="105" y="-114.8" font-family="Helvetica,sans-Serif" font-size="14.00">&lt; N1, S1 &gt;</text>
</a>
</g>
</g>
<!-- Node4&#45;&gt;Node3 -->
<g id="edge3" class="edge"><title>Node4&#45;&gt;Node3</title>
<path fill="none" stroke="#9a32cd" stroke-dasharray="5,2" d="M209.44,-131.172C242.559,-132.828 279.04,-134.652 311.488,-136.274"/>
<polygon fill="#9a32cd" stroke="#9a32cd" points="209.44,-127.668 199.277,-130.664 209.09,-134.659 209.44,-127.668"/>
<text text-anchor="middle" x="253" y="-138.8" font-family="Helvetica,sans-Serif" font-size="14.00"> layout</text>
</g>
<!-- Node8 -->
<g id="node8" class="node"><title>Node8</title>
<g id="a_node8"><a xlink:href="structmfem_1_1TVector.html" target="_top" xlink:title="mfem::TVector\&lt; N1 *N2\l *N3 *N4, vreal_t, align \&gt;">
<polygon fill="white" stroke="black" points="308.5,-65 308.5,-103 505.5,-103 505.5,-65 308.5,-65"/>
<text text-anchor="start" x="316.5" y="-87.8" font-family="Helvetica,sans-Serif" font-size="14.00">mfem::TVector&lt; N1 *N2</text>
<text text-anchor="middle" x="407" y="-72.8" font-family="Helvetica,sans-Serif" font-size="14.00"> *N3 *N4, vreal_t, align &gt;</text>
</a>
</g>
</g>
<!-- Node4&#45;&gt;Node8 -->
<g id="edge8" class="edge"><title>Node4&#45;&gt;Node8</title>
<path fill="none" stroke="#9a32cd" stroke-dasharray="5,2" d="M209.558,-111.502C241.589,-107.018 276.754,-102.094 308.37,-97.6682"/>
<polygon fill="#9a32cd" stroke="#9a32cd" points="208.696,-108.088 199.277,-112.941 209.666,-115.021 208.696,-108.088"/>
<text text-anchor="middle" x="253" y="-112.8" font-family="Helvetica,sans-Serif" font-size="14.00"> layout</text>
</g>
<!-- Node5 -->
<g id="node5" class="node"><title>Node5</title>
<g id="a_node5"><a xlink:href="structmfem_1_1ColumnMajorLayout3D.html" target="_top" xlink:title="mfem::ColumnMajorLayout3\lD\&lt; N1, N2, N3 \&gt;">
<polygon fill="white" stroke="black" points="296.5,-179 296.5,-217 517.5,-217 517.5,-179 296.5,-179"/>
<text text-anchor="start" x="304.5" y="-201.8" font-family="Helvetica,sans-Serif" font-size="14.00">mfem::ColumnMajorLayout3</text>
<text text-anchor="middle" x="407" y="-186.8" font-family="Helvetica,sans-Serif" font-size="14.00">D&lt; N1, N2, N3 &gt;</text>
</a>
</g>
</g>
<!-- Node5&#45;&gt;Node2 -->
<g id="edge4" class="edge"><title>Node5&#45;&gt;Node2</title>
<path fill="none" stroke="#9a32cd" stroke-dasharray="5,2" d="M519.413,-177.11C547.56,-171.832 577.461,-166.226 604.499,-161.156"/>
<polygon fill="#9a32cd" stroke="#9a32cd" points="518.722,-173.679 509.538,-178.962 520.012,-180.559 518.722,-173.679"/>
<text text-anchor="middle" x="561" y="-176.8" font-family="Helvetica,sans-Serif" font-size="14.00"> layout</text>
</g>
<!-- Node6 -->
<g id="node6" class="node"><title>Node6</title>
<g id="a_node6"><a xlink:href="structmfem_1_1StridedLayout3D.html" target="_top" xlink:title="mfem::StridedLayout3D\l\&lt; N1, 1, N2, N1, N3,\l N1 *N2 \&gt;">
<polygon fill="white" stroke="black" points="11,-171.5 11,-224.5 199,-224.5 199,-171.5 11,-171.5"/>
<text text-anchor="start" x="19" y="-209.3" font-family="Helvetica,sans-Serif" font-size="14.00">mfem::StridedLayout3D</text>
<text text-anchor="start" x="19" y="-194.3" font-family="Helvetica,sans-Serif" font-size="14.00">&lt; N1, 1, N2, N1, N3,</text>
<text text-anchor="middle" x="105" y="-179.3" font-family="Helvetica,sans-Serif" font-size="14.00"> N1 *N2 &gt;</text>
</a>
</g>
</g>
<!-- Node6&#45;&gt;Node5 -->
<g id="edge5" class="edge"><title>Node6&#45;&gt;Node5</title>
<path fill="none" stroke="midnightblue" d="M209.506,-198C237.587,-198 268.082,-198 296.483,-198"/>
<polygon fill="midnightblue" stroke="midnightblue" points="209.277,-194.5 199.277,-198 209.277,-201.5 209.277,-194.5"/>
</g>
<!-- Node7 -->
<g id="node7" class="node"><title>Node7</title>
<g id="a_node7"><a xlink:href="structmfem_1_1TTensor4.html" target="_top" xlink:title="mfem::TTensor4\&lt; qpts,\l dim, sdim, ne, vreal\l_t, true \&gt;">
<polygon fill="white" stroke="black" points="604.5,-52.5 604.5,-105.5 789.5,-105.5 789.5,-52.5 604.5,-52.5"/>
<text text-anchor="start" x="612.5" y="-90.3" font-family="Helvetica,sans-Serif" font-size="14.00">mfem::TTensor4&lt; qpts,</text>
<text text-anchor="start" x="612.5" y="-75.3" font-family="Helvetica,sans-Serif" font-size="14.00"> dim, sdim, ne, vreal</text>
<text text-anchor="middle" x="697" y="-60.3" font-family="Helvetica,sans-Serif" font-size="14.00">_t, true &gt;</text>
</a>
</g>
</g>
<!-- Node7&#45;&gt;Node1 -->
<g id="edge6" class="edge"><title>Node7&#45;&gt;Node1</title>
<path fill="none" stroke="#9a32cd" stroke-dasharray="5,2" d="M800.207,-89.8401C833.79,-93.4019 871.451,-97.3963 906.332,-101.096"/>
<polygon fill="#9a32cd" stroke="#9a32cd" points="800.237,-86.3237 789.923,-88.7495 799.498,-93.2847 800.237,-86.3237"/>
<text text-anchor="middle" x="848" y="-102.8" font-family="Helvetica,sans-Serif" font-size="14.00"> Jt</text>
</g>
<!-- Node8&#45;&gt;Node7 -->
<g id="edge7" class="edge"><title>Node8&#45;&gt;Node7</title>
<path fill="none" stroke="midnightblue" d="M515.73,-82.1297C544.915,-81.623 576.226,-81.0794 604.43,-80.5898"/>
<polygon fill="midnightblue" stroke="midnightblue" points="515.441,-78.6341 505.504,-82.3072 515.563,-85.633 515.441,-78.6341"/>
</g>
<!-- Node9 -->
<g id="node9" class="node"><title>Node9</title>
<g id="a_node9"><a xlink:href="structmfem_1_1ColumnMajorLayout4D.html" target="_top" xlink:title="mfem::ColumnMajorLayout4\lD\&lt; N1, N2, N3, N4 \&gt;">
<polygon fill="white" stroke="black" points="296.5,-8 296.5,-46 517.5,-46 517.5,-8 296.5,-8"/>
<text text-anchor="start" x="304.5" y="-30.8" font-family="Helvetica,sans-Serif" font-size="14.00">mfem::ColumnMajorLayout4</text>
<text text-anchor="middle" x="407" y="-15.8" font-family="Helvetica,sans-Serif" font-size="14.00">D&lt; N1, N2, N3, N4 &gt;</text>
</a>
</g>
</g>
<!-- Node9&#45;&gt;Node7 -->
<g id="edge9" class="edge"><title>Node9&#45;&gt;Node7</title>
<path fill="none" stroke="#9a32cd" stroke-dasharray="5,2" d="M523.781,-47.9049C550.525,-52.7336 578.62,-57.8064 604.179,-62.4212"/>
<polygon fill="#9a32cd" stroke="#9a32cd" points="524.068,-44.4002 513.605,-46.0676 522.824,-51.2888 524.068,-44.4002"/>
<text text-anchor="middle" x="561" y="-61.8" font-family="Helvetica,sans-Serif" font-size="14.00"> layout</text>
</g>
<!-- Node10 -->
<g id="node10" class="node"><title>Node10</title>
<g id="a_node10"><a xlink:href="structmfem_1_1StridedLayout4D.html" target="_top" xlink:title="mfem::StridedLayout4D\l\&lt; N1, 1, N2, N1, N3,\l N1 *N2, N4, N1 *N2 *N3 \&gt;">
<polygon fill="white" stroke="black" points="0.5,-0.5 0.5,-53.5 209.5,-53.5 209.5,-0.5 0.5,-0.5"/>
<text text-anchor="start" x="8.5" y="-38.3" font-family="Helvetica,sans-Serif" font-size="14.00">mfem::StridedLayout4D</text>
<text text-anchor="start" x="8.5" y="-23.3" font-family="Helvetica,sans-Serif" font-size="14.00">&lt; N1, 1, N2, N1, N3,</text>
<text text-anchor="middle" x="105" y="-8.3" font-family="Helvetica,sans-Serif" font-size="14.00"> N1 *N2, N4, N1 *N2 *N3 &gt;</text>
</a>
</g>
</g>
<!-- Node10&#45;&gt;Node9 -->
<g id="edge10" class="edge"><title>Node10&#45;&gt;Node9</title>
<path fill="none" stroke="midnightblue" d="M219.943,-27C245.03,-27 271.548,-27 296.457,-27"/>
<polygon fill="midnightblue" stroke="midnightblue" points="219.663,-23.5001 209.663,-27 219.663,-30.5001 219.663,-23.5001"/>
</g>
</g>
</svg>
