<?xml version="1.0" encoding="UTF-8" standalone="no"?>
<!DOCTYPE svg PUBLIC "-//W3C//DTD SVG 1.1//EN"
 "http://www.w3.org/Graphics/SVG/1.1/DTD/svg11.dtd">
<!-- Generated by graphviz version 2.30.1 (20200304.1809)
 -->
<!-- Title: mfem::Solver Pages: 1 -->
<svg width="858pt" height="1040pt"
 viewBox="0.00 0.00 858.00 1040.00" xmlns="http://www.w3.org/2000/svg" xmlns:xlink="http://www.w3.org/1999/xlink">
<g id="graph0" class="graph" transform="scale(1 1) rotate(0) translate(4 1036)">
<title>mfem::Solver</title>
<polygon fill="white" stroke="white" points="-4,5 -4,-1036 855,-1036 855,5 -4,5"/>
<!-- Node1 -->
<g id="node1" class="node"><title>Node1</title>
<polygon fill="#bfbfbf" stroke="black" points="170.5,-546.5 170.5,-569.5 283.5,-569.5 283.5,-546.5 170.5,-546.5"/>
<text text-anchor="middle" x="227" y="-554.3" font-family="Helvetica,sans-Serif" font-size="14.00">mfem::Solver</text>
</g>
<!-- Node3 -->
<g id="node3" class="node"><title>Node3</title>
<polygon fill="white" stroke="#bfbfbf" points="415,-940.5 415,-963.5 507,-963.5 507,-940.5 415,-940.5"/>
<text text-anchor="middle" x="461" y="-948.3" font-family="Helvetica,sans-Serif" font-size="14.00">DG_Solver</text>
</g>
<!-- Node1&#45;&gt;Node3 -->
<g id="edge2" class="edge"><title>Node1&#45;&gt;Node3</title>
<path fill="none" stroke="midnightblue" d="M231.744,-579.804C241.393,-650.307 269.926,-858.376 320,-904 356.88,-937.602 423.302,-931.118 449.225,-940.456"/>
<polygon fill="midnightblue" stroke="midnightblue" points="235.186,-579.146 230.357,-569.716 228.251,-580.099 235.186,-579.146"/>
</g>
<!-- Node1&#45;&gt;Node3 -->
<g id="edge3" class="edge"><title>Node1&#45;&gt;Node3</title>
<path fill="none" stroke="midnightblue" d="M230.683,-579.966C239.16,-651.522 267.937,-874.563 320,-922 345.253,-945.009 384.357,-949.222 414.825,-949.709"/>
<polygon fill="midnightblue" stroke="midnightblue" points="234.136,-579.357 229.496,-569.832 227.183,-580.171 234.136,-579.357"/>
</g>
<!-- Node1&#45;&gt;Node3 -->
<g id="edge4" class="edge"><title>Node1&#45;&gt;Node3</title>
<path fill="none" stroke="midnightblue" d="M229.85,-579.638C237.128,-653.311 266.071,-890.864 320,-940 348.704,-966.154 395.306,-968.023 426.778,-963.506"/>
<polygon fill="midnightblue" stroke="midnightblue" points="233.33,-579.26 228.9,-569.635 226.361,-579.922 233.33,-579.26"/>
</g>
<!-- Node1&#45;&gt;Node3 -->
<g id="edge5" class="edge"><title>Node1&#45;&gt;Node3</title>
<path fill="none" stroke="midnightblue" d="M229.326,-580.094C235.639,-658.823 264.668,-907.585 320,-958 359.423,-993.92 432.605,-984.033 453.987,-963.743"/>
<polygon fill="midnightblue" stroke="midnightblue" points="232.789,-579.469 228.559,-569.756 225.808,-579.987 232.789,-579.469"/>
</g>
<!-- Node4 -->
<g id="node4" class="node"><title>Node4</title>
<polygon fill="white" stroke="#bfbfbf" points="370.5,-898.5 370.5,-921.5 551.5,-921.5 551.5,-898.5 370.5,-898.5"/>
<text text-anchor="middle" x="461" y="-906.3" font-family="Helvetica,sans-Serif" font-size="14.00">JacobianPreconditioner</text>
</g>
<!-- Node1&#45;&gt;Node4 -->
<g id="edge6" class="edge"><title>Node1&#45;&gt;Node4</title>
<path fill="none" stroke="midnightblue" d="M231.525,-579.62C241.709,-645.256 273.443,-838.812 320,-880 333.99,-892.377 352.012,-899.256 370.44,-903.046"/>
<polygon fill="midnightblue" stroke="midnightblue" points="234.958,-578.917 229.976,-569.567 228.04,-579.984 234.958,-578.917"/>
</g>
<!-- Node1&#45;&gt;Node4 -->
<g id="edge7" class="edge"><title>Node1&#45;&gt;Node4</title>
<path fill="none" stroke="midnightblue" d="M230.447,-579.757C239.293,-648.158 271.654,-855.229 320,-898 348.624,-923.323 394.129,-925.631 425.446,-921.523"/>
<polygon fill="midnightblue" stroke="midnightblue" points="233.901,-579.165 229.19,-569.675 226.954,-580.031 233.901,-579.165"/>
</g>
<!-- Node5 -->
<g id="node5" class="node"><title>Node5</title>
<g id="a_node5"><a xlink:href="classmfem_1_1AmgXSolver.html" target="_top" xlink:title="mfem::AmgXSolver">
<polygon fill="white" stroke="black" points="383,-856.5 383,-879.5 539,-879.5 539,-856.5 383,-856.5"/>
<text text-anchor="middle" x="461" y="-864.3" font-family="Helvetica,sans-Serif" font-size="14.00">mfem::AmgXSolver</text>
</a>
</g>
</g>
<!-- Node1&#45;&gt;Node5 -->
<g id="edge8" class="edge"><title>Node1&#45;&gt;Node5</title>
<path fill="none" stroke="midnightblue" d="M227.722,-579.937C228.321,-634.542 238.06,-777.174 320,-847 337.304,-861.745 360.381,-868.577 382.8,-871.288"/>
<polygon fill="midnightblue" stroke="midnightblue" points="231.221,-579.675 227.71,-569.679 224.221,-579.683 231.221,-579.675"/>
</g>
<!-- Node6 -->
<g id="node6" class="node"><title>Node6</title>
<g id="a_node6"><a xlink:href="classmfem_1_1BlockDiagonalPreconditioner.html" target="_top" xlink:title="A class to handle Block diagonal preconditioners in a matrix&#45;free implementation. ...">
<polygon fill="white" stroke="black" points="324,-814.5 324,-837.5 598,-837.5 598,-814.5 324,-814.5"/>
<text text-anchor="middle" x="461" y="-822.3" font-family="Helvetica,sans-Serif" font-size="14.00">mfem::BlockDiagonalPreconditioner</text>
</a>
</g>
</g>
<!-- Node1&#45;&gt;Node6 -->
<g id="edge9" class="edge"><title>Node1&#45;&gt;Node6</title>
<path fill="none" stroke="midnightblue" d="M229.057,-579.724C232.69,-628.555 248.788,-747.229 320,-805 324.39,-808.561 329.121,-811.652 334.097,-814.329"/>
<polygon fill="midnightblue" stroke="midnightblue" points="232.543,-579.403 228.414,-569.645 225.558,-579.848 232.543,-579.403"/>
</g>
<!-- Node7 -->
<g id="node7" class="node"><title>Node7</title>
<g id="a_node7"><a xlink:href="classmfem_1_1BlockILU.html" target="_top" xlink:title="mfem::BlockILU">
<polygon fill="white" stroke="black" points="396.5,-772.5 396.5,-795.5 525.5,-795.5 525.5,-772.5 396.5,-772.5"/>
<text text-anchor="middle" x="461" y="-780.3" font-family="Helvetica,sans-Serif" font-size="14.00">mfem::BlockILU</text>
</a>
</g>
</g>
<!-- Node1&#45;&gt;Node7 -->
<g id="edge10" class="edge"><title>Node1&#45;&gt;Node7</title>
<path fill="none" stroke="midnightblue" d="M230.962,-579.658C237.998,-622.121 259.878,-716.152 320,-762 341.521,-778.411 370.396,-784.781 396.331,-786.708"/>
<polygon fill="midnightblue" stroke="midnightblue" points="234.392,-578.934 229.415,-569.581 227.473,-579.997 234.392,-578.934"/>
</g>
<!-- Node8 -->
<g id="node8" class="node"><title>Node8</title>
<g id="a_node8"><a xlink:href="classmfem_1_1BlockLowerTriangularPreconditioner.html" target="_top" xlink:title="A class to handle Block lower triangular preconditioners in a matrix&#45;free implementation. ">
<polygon fill="white" stroke="black" points="350,-715 350,-753 572,-753 572,-715 350,-715"/>
<text text-anchor="start" x="358" y="-737.8" font-family="Helvetica,sans-Serif" font-size="14.00">mfem::BlockLowerTriangular</text>
<text text-anchor="middle" x="461" y="-722.8" font-family="Helvetica,sans-Serif" font-size="14.00">Preconditioner</text>
</a>
</g>
</g>
<!-- Node1&#45;&gt;Node8 -->
<g id="edge11" class="edge"><title>Node1&#45;&gt;Node8</title>
<path fill="none" stroke="midnightblue" d="M235.109,-579.272C247.143,-611.818 274.732,-673.501 320,-705 329.067,-711.309 339.211,-716.301 349.786,-720.243"/>
<polygon fill="midnightblue" stroke="midnightblue" points="238.392,-578.056 231.746,-569.805 231.796,-580.399 238.392,-578.056"/>
</g>
<!-- Node9 -->
<g id="node9" class="node"><title>Node9</title>
<g id="a_node9"><a xlink:href="classmfem_1_1ComplexUMFPackSolver.html" target="_top" xlink:title="Interface with UMFPack solver specialized for ComplexSparseMatrix This approach avoids forming a mono...">
<polygon fill="white" stroke="black" points="341.5,-672.5 341.5,-695.5 580.5,-695.5 580.5,-672.5 341.5,-672.5"/>
<text text-anchor="middle" x="461" y="-680.3" font-family="Helvetica,sans-Serif" font-size="14.00">mfem::ComplexUMFPackSolver</text>
</a>
</g>
</g>
<!-- Node1&#45;&gt;Node9 -->
<g id="edge12" class="edge"><title>Node1&#45;&gt;Node9</title>
<path fill="none" stroke="midnightblue" d="M239.593,-578.353C254.71,-602.829 283.574,-643.096 320,-663 326.794,-666.712 334.035,-669.829 341.512,-672.44"/>
<polygon fill="midnightblue" stroke="midnightblue" points="242.451,-576.312 234.314,-569.526 236.443,-579.905 242.451,-576.312"/>
</g>
<!-- Node10 -->
<g id="node10" class="node"><title>Node10</title>
<g id="a_node10"><a xlink:href="classmfem_1_1CPardisoSolver.html" target="_top" xlink:title="MKL Parallel Direct Sparse Solver for Clusters. ">
<polygon fill="white" stroke="black" points="373.5,-630.5 373.5,-653.5 548.5,-653.5 548.5,-630.5 373.5,-630.5"/>
<text text-anchor="middle" x="461" y="-638.3" font-family="Helvetica,sans-Serif" font-size="14.00">mfem::CPardisoSolver</text>
</a>
</g>
</g>
<!-- Node1&#45;&gt;Node10 -->
<g id="edge13" class="edge"><title>Node1&#45;&gt;Node10</title>
<path fill="none" stroke="midnightblue" d="M248.83,-576.382C266.513,-590.921 293.216,-610.468 320,-621 336.697,-627.566 355.255,-632.095 373.256,-635.214"/>
<polygon fill="midnightblue" stroke="midnightblue" points="250.815,-573.477 240.913,-569.708 246.303,-578.829 250.815,-573.477"/>
</g>
<!-- Node11 -->
<g id="node11" class="node"><title>Node11</title>
<g id="a_node11"><a xlink:href="classmfem_1_1HypreSmoother.html" target="_top" xlink:title="Parallel smoothers in hypre. ">
<polygon fill="white" stroke="black" points="370,-588.5 370,-611.5 552,-611.5 552,-588.5 370,-588.5"/>
<text text-anchor="middle" x="461" y="-596.3" font-family="Helvetica,sans-Serif" font-size="14.00">mfem::HypreSmoother</text>
</a>
</g>
</g>
<!-- Node1&#45;&gt;Node11 -->
<g id="edge14" class="edge"><title>Node1&#45;&gt;Node11</title>
<path fill="none" stroke="midnightblue" d="M285.471,-571.821C296.88,-574.366 308.794,-576.884 320,-579 338.113,-582.421 357.629,-585.639 376.172,-588.481"/>
<polygon fill="midnightblue" stroke="midnightblue" points="286.133,-568.382 275.606,-569.587 284.586,-575.209 286.133,-568.382"/>
</g>
<!-- Node12 -->
<g id="node12" class="node"><title>Node12</title>
<g id="a_node12"><a xlink:href="classmfem_1_1HypreSolver.html" target="_top" xlink:title="Abstract class for hypre&#39;s solvers and preconditioners. ">
<polygon fill="white" stroke="black" points="383,-546.5 383,-569.5 539,-569.5 539,-546.5 383,-546.5"/>
<text text-anchor="middle" x="461" y="-554.3" font-family="Helvetica,sans-Serif" font-size="14.00">mfem::HypreSolver</text>
</a>
</g>
</g>
<!-- Node1&#45;&gt;Node12 -->
<g id="edge15" class="edge"><title>Node1&#45;&gt;Node12</title>
<path fill="none" stroke="midnightblue" d="M293.583,-558C321.395,-558 354.007,-558 382.956,-558"/>
<polygon fill="midnightblue" stroke="midnightblue" points="293.57,-554.5 283.57,-558 293.57,-561.5 293.57,-554.5"/>
</g>
<!-- Node24 -->
<g id="node24" class="node"><title>Node24</title>
<g id="a_node24"><a xlink:href="classmfem_1_1IterativeSolver.html" target="_top" xlink:title="Abstract base class for iterative solver. ">
<polygon fill="white" stroke="black" points="374.5,-504.5 374.5,-527.5 547.5,-527.5 547.5,-504.5 374.5,-504.5"/>
<text text-anchor="middle" x="461" y="-512.3" font-family="Helvetica,sans-Serif" font-size="14.00">mfem::IterativeSolver</text>
</a>
</g>
</g>
<!-- Node1&#45;&gt;Node24 -->
<g id="edge27" class="edge"><title>Node1&#45;&gt;Node24</title>
<path fill="none" stroke="midnightblue" d="M285.471,-544.179C296.88,-541.634 308.794,-539.116 320,-537 338.113,-533.579 357.629,-530.361 376.172,-527.519"/>
<polygon fill="midnightblue" stroke="midnightblue" points="284.586,-540.791 275.606,-546.413 286.133,-547.618 284.586,-540.791"/>
</g>
<!-- Node33 -->
<g id="node33" class="node"><title>Node33</title>
<g id="a_node33"><a xlink:href="classmfem_1_1KLUSolver.html" target="_top" xlink:title="Direct sparse solver using KLU. ">
<polygon fill="white" stroke="black" points="391,-462.5 391,-485.5 531,-485.5 531,-462.5 391,-462.5"/>
<text text-anchor="middle" x="461" y="-470.3" font-family="Helvetica,sans-Serif" font-size="14.00">mfem::KLUSolver</text>
</a>
</g>
</g>
<!-- Node1&#45;&gt;Node33 -->
<g id="edge36" class="edge"><title>Node1&#45;&gt;Node33</title>
<path fill="none" stroke="midnightblue" d="M248.83,-539.618C266.513,-525.079 293.216,-505.532 320,-495 342.186,-486.275 367.659,-481.147 390.743,-478.143"/>
<polygon fill="midnightblue" stroke="midnightblue" points="246.303,-537.171 240.913,-546.292 250.815,-542.523 246.303,-537.171"/>
</g>
<!-- Node34 -->
<g id="node34" class="node"><title>Node34</title>
<g id="a_node34"><a xlink:href="classmfem_1_1MatrixInverse.html" target="_top" xlink:title="Abstract data type for matrix inverse. ">
<polygon fill="white" stroke="black" points="378,-420.5 378,-443.5 544,-443.5 544,-420.5 378,-420.5"/>
<text text-anchor="middle" x="461" y="-428.3" font-family="Helvetica,sans-Serif" font-size="14.00">mfem::MatrixInverse</text>
</a>
</g>
</g>
<!-- Node1&#45;&gt;Node34 -->
<g id="edge37" class="edge"><title>Node1&#45;&gt;Node34</title>
<path fill="none" stroke="midnightblue" d="M239.593,-537.647C254.71,-513.171 283.574,-472.904 320,-453 337.47,-443.454 357.9,-437.847 377.669,-434.641"/>
<polygon fill="midnightblue" stroke="midnightblue" points="236.443,-536.095 234.314,-546.474 242.451,-539.688 236.443,-536.095"/>
</g>
<!-- Node37 -->
<g id="node37" class="node"><title>Node37</title>
<g id="a_node37"><a xlink:href="classmfem_1_1Multigrid.html" target="_top" xlink:title="Multigrid solver class. ">
<polygon fill="white" stroke="black" points="396,-378.5 396,-401.5 526,-401.5 526,-378.5 396,-378.5"/>
<text text-anchor="middle" x="461" y="-386.3" font-family="Helvetica,sans-Serif" font-size="14.00">mfem::Multigrid</text>
</a>
</g>
</g>
<!-- Node1&#45;&gt;Node37 -->
<g id="edge40" class="edge"><title>Node1&#45;&gt;Node37</title>
<path fill="none" stroke="midnightblue" d="M234.729,-536.906C246.389,-504.077 273.65,-441.383 320,-411 342.199,-396.448 370.585,-390.437 395.986,-388.35"/>
<polygon fill="midnightblue" stroke="midnightblue" points="231.394,-535.842 231.488,-546.436 238.021,-538.096 231.394,-535.842"/>
</g>
<!-- Node39 -->
<g id="node39" class="node"><title>Node39</title>
<g id="a_node39"><a xlink:href="classmfem_1_1navier_1_1OrthoSolver.html" target="_top" xlink:title="Solver wrapper which orthogonalizes the input and output vector. ">
<polygon fill="white" stroke="black" points="357,-336.5 357,-359.5 565,-359.5 565,-336.5 357,-336.5"/>
<text text-anchor="middle" x="461" y="-344.3" font-family="Helvetica,sans-Serif" font-size="14.00">mfem::navier::OrthoSolver</text>
</a>
</g>
</g>
<!-- Node1&#45;&gt;Node39 -->
<g id="edge43" class="edge"><title>Node1&#45;&gt;Node39</title>
<path fill="none" stroke="midnightblue" d="M231.791,-536.215C240.022,-496.005 263.535,-410.459 320,-369 330.896,-361 343.572,-355.468 356.761,-351.713"/>
<polygon fill="midnightblue" stroke="midnightblue" points="228.307,-535.799 229.86,-546.279 235.182,-537.118 228.307,-535.799"/>
</g>
<!-- Node40 -->
<g id="node40" class="node"><title>Node40</title>
<g id="a_node40"><a xlink:href="classmfem_1_1OperatorChebyshevSmoother.html" target="_top" xlink:title="Chebyshev accelerated smoothing with given vector, no matrix necessary. ">
<polygon fill="white" stroke="black" points="320,-294.5 320,-317.5 602,-317.5 602,-294.5 320,-294.5"/>
<text text-anchor="middle" x="461" y="-302.3" font-family="Helvetica,sans-Serif" font-size="14.00">mfem::OperatorChebyshevSmoother</text>
</a>
</g>
</g>
<!-- Node1&#45;&gt;Node40 -->
<g id="edge44" class="edge"><title>Node1&#45;&gt;Node40</title>
<path fill="none" stroke="midnightblue" d="M229.702,-536.092C234.586,-489.424 252.968,-380.143 320,-327 324.526,-323.412 329.401,-320.305 334.522,-317.623"/>
<polygon fill="midnightblue" stroke="midnightblue" points="226.194,-536.009 228.749,-546.292 233.164,-536.661 226.194,-536.009"/>
</g>
<!-- Node41 -->
<g id="node41" class="node"><title>Node41</title>
<g id="a_node41"><a xlink:href="classmfem_1_1OperatorJacobiSmoother.html" target="_top" xlink:title="Jacobi smoothing for a given bilinear form (no matrix necessary). ">
<polygon fill="white" stroke="black" points="338,-252.5 338,-275.5 584,-275.5 584,-252.5 338,-252.5"/>
<text text-anchor="middle" x="461" y="-260.3" font-family="Helvetica,sans-Serif" font-size="14.00">mfem::OperatorJacobiSmoother</text>
</a>
</g>
</g>
<!-- Node1&#45;&gt;Node41 -->
<g id="edge45" class="edge"><title>Node1&#45;&gt;Node41</title>
<path fill="none" stroke="midnightblue" d="M228.187,-536.2C229.912,-483.787 242.133,-350.231 320,-285 325.464,-280.423 331.486,-276.613 337.87,-273.456"/>
<polygon fill="midnightblue" stroke="midnightblue" points="224.684,-536.291 227.955,-546.368 231.682,-536.451 224.684,-536.291"/>
</g>
<!-- Node42 -->
<g id="node42" class="node"><title>Node42</title>
<g id="a_node42"><a xlink:href="classmfem_1_1PetscLinearSolver.html" target="_top" xlink:title="Abstract class for PETSc&#39;s linear solvers. ">
<polygon fill="white" stroke="black" points="363.5,-210.5 363.5,-233.5 558.5,-233.5 558.5,-210.5 363.5,-210.5"/>
<text text-anchor="middle" x="461" y="-218.3" font-family="Helvetica,sans-Serif" font-size="14.00">mfem::PetscLinearSolver</text>
</a>
</g>
</g>
<!-- Node1&#45;&gt;Node42 -->
<g id="edge46" class="edge"><title>Node1&#45;&gt;Node42</title>
<path fill="none" stroke="midnightblue" d="M231.286,-536.175C241.485,-471.447 274.657,-282.59 320,-243 332.219,-232.331 347.443,-225.768 363.31,-221.902"/>
<polygon fill="midnightblue" stroke="midnightblue" points="227.77,-536.015 229.7,-546.432 234.687,-537.084 227.77,-536.015"/>
</g>
<!-- Node44 -->
<g id="node44" class="node"><title>Node44</title>
<g id="a_node44"><a xlink:href="classmfem_1_1PetscNonlinearSolver.html" target="_top" xlink:title="Abstract class for PETSc&#39;s nonlinear solvers. ">
<polygon fill="white" stroke="black" points="351.5,-168.5 351.5,-191.5 570.5,-191.5 570.5,-168.5 351.5,-168.5"/>
<text text-anchor="middle" x="461" y="-176.3" font-family="Helvetica,sans-Serif" font-size="14.00">mfem::PetscNonlinearSolver</text>
</a>
</g>
</g>
<!-- Node1&#45;&gt;Node44 -->
<g id="edge48" class="edge"><title>Node1&#45;&gt;Node44</title>
<path fill="none" stroke="midnightblue" d="M230.5,-536.11C238.999,-465.684 269.119,-246.878 320,-201 329.035,-192.853 339.811,-187.072 351.316,-183.045"/>
<polygon fill="midnightblue" stroke="midnightblue" points="226.977,-536.095 229.281,-546.436 233.929,-536.915 226.977,-536.095"/>
</g>
<!-- Node45 -->
<g id="node45" class="node"><title>Node45</title>
<g id="a_node45"><a xlink:href="classmfem_1_1PetscPreconditioner.html" target="_top" xlink:title="Abstract class for PETSc&#39;s preconditioners. ">
<polygon fill="white" stroke="red" points="356.5,-126.5 356.5,-149.5 565.5,-149.5 565.5,-126.5 356.5,-126.5"/>
<text text-anchor="middle" x="461" y="-134.3" font-family="Helvetica,sans-Serif" font-size="14.00">mfem::PetscPreconditioner</text>
</a>
</g>
</g>
<!-- Node1&#45;&gt;Node45 -->
<g id="edge49" class="edge"><title>Node1&#45;&gt;Node45</title>
<path fill="none" stroke="midnightblue" d="M229.871,-536.052C236.796,-460.248 263.541,-211.233 320,-159 330.283,-149.486 342.928,-143.168 356.373,-139.094"/>
<polygon fill="midnightblue" stroke="midnightblue" points="226.359,-536.037 228.96,-546.307 233.331,-536.656 226.359,-536.037"/>
</g>
<!-- Node47 -->
<g id="node47" class="node"><title>Node47</title>
<g id="a_node47"><a xlink:href="classmfem_1_1STRUMPACKSolver.html" target="_top" xlink:title="mfem::STRUMPACKSolver">
<polygon fill="white" stroke="black" points="361,-84.5 361,-107.5 561,-107.5 561,-84.5 361,-84.5"/>
<text text-anchor="middle" x="461" y="-92.3" font-family="Helvetica,sans-Serif" font-size="14.00">mfem::STRUMPACKSolver</text>
</a>
</g>
</g>
<!-- Node1&#45;&gt;Node47 -->
<g id="edge51" class="edge"><title>Node1&#45;&gt;Node47</title>
<path fill="none" stroke="midnightblue" d="M229.363,-535.901C234.832,-454.855 257.957,-175.617 320,-117 331.344,-106.282 345.675,-99.5892 360.812,-95.584"/>
<polygon fill="midnightblue" stroke="midnightblue" points="225.839,-536.164 228.682,-546.37 232.824,-536.619 225.839,-536.164"/>
</g>
<!-- Node48 -->
<g id="node48" class="node"><title>Node48</title>
<g id="a_node48"><a xlink:href="classmfem_1_1SuperLUSolver.html" target="_top" xlink:title="mfem::SuperLUSolver">
<polygon fill="white" stroke="black" points="374.5,-42.5 374.5,-65.5 547.5,-65.5 547.5,-42.5 374.5,-42.5"/>
<text text-anchor="middle" x="461" y="-50.3" font-family="Helvetica,sans-Serif" font-size="14.00">mfem::SuperLUSolver</text>
</a>
</g>
</g>
<!-- Node1&#45;&gt;Node48 -->
<g id="edge52" class="edge"><title>Node1&#45;&gt;Node48</title>
<path fill="none" stroke="midnightblue" d="M228.924,-536.03C232.998,-450.341 252.275,-140.112 320,-75 334.617,-60.9471 354.352,-53.7708 374.389,-50.4984"/>
<polygon fill="midnightblue" stroke="midnightblue" points="225.421,-536.023 228.464,-546.171 232.414,-536.34 225.421,-536.023"/>
</g>
<!-- Node49 -->
<g id="node49" class="node"><title>Node49</title>
<g id="a_node49"><a xlink:href="classmfem_1_1UMFPackSolver.html" target="_top" xlink:title="Direct sparse solver using UMFPACK. ">
<polygon fill="white" stroke="black" points="373,-0.5 373,-23.5 549,-23.5 549,-0.5 373,-0.5"/>
<text text-anchor="middle" x="461" y="-8.3" font-family="Helvetica,sans-Serif" font-size="14.00">mfem::UMFPackSolver</text>
</a>
</g>
</g>
<!-- Node1&#45;&gt;Node49 -->
<g id="edge53" class="edge"><title>Node1&#45;&gt;Node49</title>
<path fill="none" stroke="midnightblue" d="M228.565,-535.896C231.352,-445.399 246.64,-104.578 320,-33 334.161,-19.183 353.259,-11.9791 372.79,-8.59555"/>
<polygon fill="midnightblue" stroke="midnightblue" points="225.061,-535.997 228.272,-546.093 232.058,-536.197 225.061,-535.997"/>
</g>
<!-- Node2 -->
<g id="node2" class="node"><title>Node2</title>
<g id="a_node2"><a xlink:href="classmfem_1_1Operator.html" target="_top" xlink:title="Abstract operator. ">
<polygon fill="white" stroke="black" points="0.5,-546.5 0.5,-569.5 133.5,-569.5 133.5,-546.5 0.5,-546.5"/>
<text text-anchor="middle" x="67" y="-554.3" font-family="Helvetica,sans-Serif" font-size="14.00">mfem::Operator</text>
</a>
</g>
</g>
<!-- Node2&#45;&gt;Node1 -->
<g id="edge1" class="edge"><title>Node2&#45;&gt;Node1</title>
<path fill="none" stroke="midnightblue" d="M143.723,-558C152.702,-558 161.737,-558 170.365,-558"/>
<polygon fill="midnightblue" stroke="midnightblue" points="143.634,-554.5 133.634,-558 143.634,-561.5 143.634,-554.5"/>
</g>
<!-- Node13 -->
<g id="node13" class="node"><title>Node13</title>
<g id="a_node13"><a xlink:href="classmfem_1_1HypreADS.html" target="_top" xlink:title="The Auxiliary&#45;space Divergence Solver in hypre. ">
<polygon fill="white" stroke="black" points="673.5,-1008.5 673.5,-1031.5 814.5,-1031.5 814.5,-1008.5 673.5,-1008.5"/>
<text text-anchor="middle" x="744" y="-1016.3" font-family="Helvetica,sans-Serif" font-size="14.00">mfem::HypreADS</text>
</a>
</g>
</g>
<!-- Node12&#45;&gt;Node13 -->
<g id="edge16" class="edge"><title>Node12&#45;&gt;Node13</title>
<path fill="none" stroke="midnightblue" d="M549.216,-553.587C569.03,-556.924 588.259,-564.359 602,-579 666.106,-647.304 575.569,-929.161 638,-999 647.23,-1009.33 659.981,-1015.42 673.421,-1018.87"/>
<polygon fill="midnightblue" stroke="midnightblue" points="549.524,-550.097 539.146,-552.232 548.59,-557.035 549.524,-550.097"/>
</g>
<!-- Node14 -->
<g id="node14" class="node"><title>Node14</title>
<g id="a_node14"><a xlink:href="classmfem_1_1HypreAMS.html" target="_top" xlink:title="The Auxiliary&#45;space Maxwell Solver in hypre. ">
<polygon fill="white" stroke="black" points="673,-966.5 673,-989.5 815,-989.5 815,-966.5 673,-966.5"/>
<text text-anchor="middle" x="744" y="-974.3" font-family="Helvetica,sans-Serif" font-size="14.00">mfem::HypreAMS</text>
</a>
</g>
</g>
<!-- Node12&#45;&gt;Node14 -->
<g id="edge17" class="edge"><title>Node12&#45;&gt;Node14</title>
<path fill="none" stroke="midnightblue" d="M549.12,-553.678C568.936,-557.013 588.19,-564.424 602,-579 660.035,-640.253 581.467,-894.358 638,-957 647.154,-967.144 659.708,-973.194 672.953,-976.665"/>
<polygon fill="midnightblue" stroke="midnightblue" points="549.429,-550.188 539.051,-552.321 548.494,-557.125 549.429,-550.188"/>
</g>
<!-- Node15 -->
<g id="node15" class="node"><title>Node15</title>
<g id="a_node15"><a xlink:href="classmfem_1_1HypreBoomerAMG.html" target="_top" xlink:title="The BoomerAMG solver in hypre. ">
<polygon fill="white" stroke="black" points="643.5,-924.5 643.5,-947.5 844.5,-947.5 844.5,-924.5 643.5,-924.5"/>
<text text-anchor="middle" x="744" y="-932.3" font-family="Helvetica,sans-Serif" font-size="14.00">mfem::HypreBoomerAMG</text>
</a>
</g>
</g>
<!-- Node12&#45;&gt;Node15 -->
<g id="edge18" class="edge"><title>Node12&#45;&gt;Node15</title>
<path fill="none" stroke="midnightblue" d="M549.312,-553.844C569.021,-557.201 588.177,-564.582 602,-579 705.937,-687.414 536.722,-804.098 638,-915 641.259,-918.569 644.94,-921.63 648.922,-924.249"/>
<polygon fill="midnightblue" stroke="midnightblue" points="549.68,-550.362 539.298,-552.472 548.73,-557.297 549.68,-550.362"/>
</g>
<!-- Node16 -->
<g id="node16" class="node"><title>Node16</title>
<g id="a_node16"><a xlink:href="classmfem_1_1HypreDiagScale.html" target="_top" xlink:title="Jacobi preconditioner in hypre. ">
<polygon fill="white" stroke="black" points="653,-882.5 653,-905.5 835,-905.5 835,-882.5 653,-882.5"/>
<text text-anchor="middle" x="744" y="-890.3" font-family="Helvetica,sans-Serif" font-size="14.00">mfem::HypreDiagScale</text>
</a>
</g>
</g>
<!-- Node12&#45;&gt;Node16 -->
<g id="edge19" class="edge"><title>Node12&#45;&gt;Node16</title>
<path fill="none" stroke="midnightblue" d="M549.16,-553.99C568.873,-557.345 588.069,-564.687 602,-579 693.818,-673.336 548.497,-776.465 638,-873 642.297,-877.635 647.305,-881.409 652.759,-884.47"/>
<polygon fill="midnightblue" stroke="midnightblue" points="549.53,-550.508 539.147,-552.617 548.579,-557.443 549.53,-550.508"/>
</g>
<!-- Node17 -->
<g id="node17" class="node"><title>Node17</title>
<g id="a_node17"><a xlink:href="classmfem_1_1HypreEuclid.html" target="_top" xlink:title="mfem::HypreEuclid">
<polygon fill="white" stroke="black" points="667.5,-840.5 667.5,-863.5 820.5,-863.5 820.5,-840.5 667.5,-840.5"/>
<text text-anchor="middle" x="744" y="-848.3" font-family="Helvetica,sans-Serif" font-size="14.00">mfem::HypreEuclid</text>
</a>
</g>
</g>
<!-- Node12&#45;&gt;Node17 -->
<g id="edge20" class="edge"><title>Node12&#45;&gt;Node17</title>
<path fill="none" stroke="midnightblue" d="M549.272,-554.24C568.881,-557.613 588,-564.902 602,-579 681.72,-659.279 560.25,-748.811 638,-831 645.985,-839.441 656.329,-845.011 667.405,-848.611"/>
<polygon fill="midnightblue" stroke="midnightblue" points="549.701,-550.766 539.313,-552.851 548.734,-557.699 549.701,-550.766"/>
</g>
<!-- Node18 -->
<g id="node18" class="node"><title>Node18</title>
<g id="a_node18"><a xlink:href="classmfem_1_1HypreFGMRES.html" target="_top" xlink:title="Flexible GMRES solver in hypre. ">
<polygon fill="white" stroke="black" points="659,-798.5 659,-821.5 829,-821.5 829,-798.5 659,-798.5"/>
<text text-anchor="middle" x="744" y="-806.3" font-family="Helvetica,sans-Serif" font-size="14.00">mfem::HypreFGMRES</text>
</a>
</g>
</g>
<!-- Node12&#45;&gt;Node18 -->
<g id="edge21" class="edge"><title>Node12&#45;&gt;Node18</title>
<path fill="none" stroke="midnightblue" d="M548.998,-554.516C568.614,-557.882 587.805,-565.098 602,-579 669.655,-645.256 571.972,-721.122 638,-789 643.963,-795.13 651.173,-799.735 658.989,-803.165"/>
<polygon fill="midnightblue" stroke="midnightblue" points="549.429,-551.042 539.041,-553.125 548.461,-557.975 549.429,-551.042"/>
</g>
<!-- Node19 -->
<g id="node19" class="node"><title>Node19</title>
<g id="a_node19"><a xlink:href="classmfem_1_1HypreGMRES.html" target="_top" xlink:title="GMRES solver in hypre. ">
<polygon fill="white" stroke="black" points="663,-756.5 663,-779.5 825,-779.5 825,-756.5 663,-756.5"/>
<text text-anchor="middle" x="744" y="-764.3" font-family="Helvetica,sans-Serif" font-size="14.00">mfem::HypreGMRES</text>
</a>
</g>
</g>
<!-- Node12&#45;&gt;Node19 -->
<g id="edge22" class="edge"><title>Node12&#45;&gt;Node19</title>
<path fill="none" stroke="midnightblue" d="M548.91,-554.985C568.429,-558.363 587.597,-565.466 602,-579 657.649,-631.291 583.636,-693.375 638,-747 645.015,-753.919 653.625,-758.873 662.87,-762.38"/>
<polygon fill="midnightblue" stroke="midnightblue" points="549.401,-551.52 539.008,-553.579 548.417,-558.45 549.401,-551.52"/>
</g>
<!-- Node20 -->
<g id="node20" class="node"><title>Node20</title>
<g id="a_node20"><a xlink:href="classmfem_1_1HypreIdentity.html" target="_top" xlink:title="The identity operator as a hypre solver. ">
<polygon fill="white" stroke="black" points="661.5,-714.5 661.5,-737.5 826.5,-737.5 826.5,-714.5 661.5,-714.5"/>
<text text-anchor="middle" x="744" y="-722.3" font-family="Helvetica,sans-Serif" font-size="14.00">mfem::HypreIdentity</text>
</a>
</g>
</g>
<!-- Node12&#45;&gt;Node20 -->
<g id="edge23" class="edge"><title>Node12&#45;&gt;Node20</title>
<path fill="none" stroke="midnightblue" d="M549.168,-555.834C568.401,-559.248 587.376,-566.155 602,-579 645.759,-617.433 595.186,-665.517 638,-705 644.765,-711.238 652.839,-715.849 661.464,-719.229"/>
<polygon fill="midnightblue" stroke="midnightblue" points="549.511,-552.347 539.108,-554.354 548.492,-559.273 549.511,-552.347"/>
</g>
<!-- Node21 -->
<g id="node21" class="node"><title>Node21</title>
<g id="a_node21"><a xlink:href="classmfem_1_1HypreILU.html" target="_top" xlink:title="Wrapper for Hypre&#39;s native parallel ILU preconditioner. ">
<polygon fill="white" stroke="black" points="677,-672.5 677,-695.5 811,-695.5 811,-672.5 677,-672.5"/>
<text text-anchor="middle" x="744" y="-680.3" font-family="Helvetica,sans-Serif" font-size="14.00">mfem::HypreILU</text>
</a>
</g>
</g>
<!-- Node12&#45;&gt;Node21 -->
<g id="edge24" class="edge"><title>Node12&#45;&gt;Node21</title>
<path fill="none" stroke="midnightblue" d="M548.98,-557.36C567.94,-560.774 586.841,-567.298 602,-579 634.152,-603.82 606.459,-637.408 638,-663 649.043,-671.961 662.863,-677.441 676.813,-680.721"/>
<polygon fill="midnightblue" stroke="midnightblue" points="549.493,-553.898 539.079,-555.847 548.435,-560.818 549.493,-553.898"/>
</g>
<!-- Node22 -->
<g id="node22" class="node"><title>Node22</title>
<g id="a_node22"><a xlink:href="classmfem_1_1HypreParaSails.html" target="_top" xlink:title="The ParaSails preconditioner in hypre. ">
<polygon fill="white" stroke="black" points="656,-630.5 656,-653.5 832,-653.5 832,-630.5 656,-630.5"/>
<text text-anchor="middle" x="744" y="-638.3" font-family="Helvetica,sans-Serif" font-size="14.00">mfem::HypreParaSails</text>
</a>
</g>
</g>
<!-- Node12&#45;&gt;Node22 -->
<g id="edge25" class="edge"><title>Node12&#45;&gt;Node22</title>
<path fill="none" stroke="midnightblue" d="M549.357,-561.362C567.552,-564.685 586.034,-570.163 602,-579 623.51,-590.906 616.785,-608.576 638,-621 644.497,-624.805 651.566,-627.931 658.864,-630.499"/>
<polygon fill="midnightblue" stroke="midnightblue" points="549.728,-557.876 539.296,-559.729 548.607,-564.786 549.728,-557.876"/>
</g>
<!-- Node23 -->
<g id="node23" class="node"><title>Node23</title>
<g id="a_node23"><a xlink:href="classmfem_1_1HyprePCG.html" target="_top" xlink:title="PCG solver in hypre. ">
<polygon fill="white" stroke="black" points="674,-588.5 674,-611.5 814,-611.5 814,-588.5 674,-588.5"/>
<text text-anchor="middle" x="744" y="-596.3" font-family="Helvetica,sans-Serif" font-size="14.00">mfem::HyprePCG</text>
</a>
</g>
</g>
<!-- Node12&#45;&gt;Node23 -->
<g id="edge26" class="edge"><title>Node12&#45;&gt;Node23</title>
<path fill="none" stroke="midnightblue" d="M549.185,-571.031C589.244,-577.019 636.093,-584.021 673.695,-589.641"/>
<polygon fill="midnightblue" stroke="midnightblue" points="549.564,-567.549 539.156,-569.532 548.529,-574.472 549.564,-567.549"/>
</g>
<!-- Node25 -->
<g id="node25" class="node"><title>Node25</title>
<g id="a_node25"><a xlink:href="classmfem_1_1BiCGSTABSolver.html" target="_top" xlink:title="BiCGSTAB method. ">
<polygon fill="white" stroke="black" points="651.5,-546.5 651.5,-569.5 836.5,-569.5 836.5,-546.5 651.5,-546.5"/>
<text text-anchor="middle" x="744" y="-554.3" font-family="Helvetica,sans-Serif" font-size="14.00">mfem::BiCGSTABSolver</text>
</a>
</g>
</g>
<!-- Node24&#45;&gt;Node25 -->
<g id="edge28" class="edge"><title>Node24&#45;&gt;Node25</title>
<path fill="none" stroke="midnightblue" d="M549.511,-529.08C586.812,-534.655 629.95,-541.103 666.016,-546.493"/>
<polygon fill="midnightblue" stroke="midnightblue" points="549.564,-525.549 539.156,-527.532 548.529,-532.472 549.564,-525.549"/>
</g>
<!-- Node26 -->
<g id="node26" class="node"><title>Node26</title>
<g id="a_node26"><a xlink:href="classmfem_1_1CGSolver.html" target="_top" xlink:title="Conjugate gradient method. ">
<polygon fill="white" stroke="black" points="677,-504.5 677,-527.5 811,-527.5 811,-504.5 677,-504.5"/>
<text text-anchor="middle" x="744" y="-512.3" font-family="Helvetica,sans-Serif" font-size="14.00">mfem::CGSolver</text>
</a>
</g>
</g>
<!-- Node24&#45;&gt;Node26 -->
<g id="edge29" class="edge"><title>Node24&#45;&gt;Node26</title>
<path fill="none" stroke="midnightblue" d="M558.186,-516C597.286,-516 641.488,-516 676.857,-516"/>
<polygon fill="midnightblue" stroke="midnightblue" points="557.836,-512.5 547.836,-516 557.836,-519.5 557.836,-512.5"/>
</g>
<!-- Node27 -->
<g id="node27" class="node"><title>Node27</title>
<g id="a_node27"><a xlink:href="classmfem_1_1FGMRESSolver.html" target="_top" xlink:title="FGMRES method. ">
<polygon fill="white" stroke="black" points="657.5,-462.5 657.5,-485.5 830.5,-485.5 830.5,-462.5 657.5,-462.5"/>
<text text-anchor="middle" x="744" y="-470.3" font-family="Helvetica,sans-Serif" font-size="14.00">mfem::FGMRESSolver</text>
</a>
</g>
</g>
<!-- Node24&#45;&gt;Node27 -->
<g id="edge30" class="edge"><title>Node24&#45;&gt;Node27</title>
<path fill="none" stroke="midnightblue" d="M549.511,-502.92C586.812,-497.345 629.95,-490.897 666.016,-485.507"/>
<polygon fill="midnightblue" stroke="midnightblue" points="548.529,-499.528 539.156,-504.468 549.564,-506.451 548.529,-499.528"/>
</g>
<!-- Node28 -->
<g id="node28" class="node"><title>Node28</title>
<g id="a_node28"><a xlink:href="classmfem_1_1GMRESSolver.html" target="_top" xlink:title="GMRES method. ">
<polygon fill="white" stroke="black" points="662,-420.5 662,-443.5 826,-443.5 826,-420.5 662,-420.5"/>
<text text-anchor="middle" x="744" y="-428.3" font-family="Helvetica,sans-Serif" font-size="14.00">mfem::GMRESSolver</text>
</a>
</g>
</g>
<!-- Node24&#45;&gt;Node28 -->
<g id="edge31" class="edge"><title>Node24&#45;&gt;Node28</title>
<path fill="none" stroke="midnightblue" d="M557.819,-510.935C573.215,-507.538 588.506,-502.469 602,-495 623.51,-483.094 616.785,-465.424 638,-453 645.379,-448.679 653.497,-445.232 661.849,-442.486"/>
<polygon fill="midnightblue" stroke="midnightblue" points="556.835,-507.562 547.704,-512.934 558.193,-514.429 556.835,-507.562"/>
</g>
<!-- Node29 -->
<g id="node29" class="node"><title>Node29</title>
<g id="a_node29"><a xlink:href="classmfem_1_1MINRESSolver.html" target="_top" xlink:title="MINRES method. ">
<polygon fill="white" stroke="black" points="660,-378.5 660,-401.5 828,-401.5 828,-378.5 660,-378.5"/>
<text text-anchor="middle" x="744" y="-386.3" font-family="Helvetica,sans-Serif" font-size="14.00">mfem::MINRESSolver</text>
</a>
</g>
</g>
<!-- Node24&#45;&gt;Node29 -->
<g id="edge32" class="edge"><title>Node24&#45;&gt;Node29</title>
<path fill="none" stroke="midnightblue" d="M557.782,-514.82C573.712,-511.078 589.192,-504.887 602,-495 634.152,-470.18 606.459,-436.592 638,-411 644.496,-405.729 651.953,-401.662 659.832,-398.539"/>
<polygon fill="midnightblue" stroke="midnightblue" points="556.927,-511.422 547.825,-516.844 558.322,-518.282 556.927,-511.422"/>
</g>
<!-- Node30 -->
<g id="node30" class="node"><title>Node30</title>
<g id="a_node30"><a xlink:href="classmfem_1_1NewtonSolver.html" target="_top" xlink:title="Newton&#39;s method for solving F(x)=b for a given operator F. ">
<polygon fill="white" stroke="red" points="660,-336.5 660,-359.5 828,-359.5 828,-336.5 660,-336.5"/>
<text text-anchor="middle" x="744" y="-344.3" font-family="Helvetica,sans-Serif" font-size="14.00">mfem::NewtonSolver</text>
</a>
</g>
</g>
<!-- Node24&#45;&gt;Node30 -->
<g id="edge33" class="edge"><title>Node24&#45;&gt;Node30</title>
<path fill="none" stroke="midnightblue" d="M557.963,-516.345C574.106,-512.499 589.613,-505.879 602,-495 645.759,-456.567 595.186,-408.483 638,-369 644.355,-363.14 651.865,-358.715 659.902,-355.399"/>
<polygon fill="midnightblue" stroke="midnightblue" points="556.958,-512.977 547.853,-518.394 558.349,-519.838 556.958,-512.977"/>
</g>
<!-- Node31 -->
<g id="node31" class="node"><title>Node31</title>
<g id="a_node31"><a xlink:href="classmfem_1_1OptimizationSolver.html" target="_top" xlink:title="Abstract solver for OptimizationProblems. ">
<polygon fill="white" stroke="red" points="642,-294.5 642,-317.5 846,-317.5 846,-294.5 642,-294.5"/>
<text text-anchor="middle" x="744" y="-302.3" font-family="Helvetica,sans-Serif" font-size="14.00">mfem::OptimizationSolver</text>
</a>
</g>
</g>
<!-- Node24&#45;&gt;Node31 -->
<g id="edge34" class="edge"><title>Node24&#45;&gt;Node31</title>
<path fill="none" stroke="midnightblue" d="M557.976,-517.158C574.277,-513.272 589.837,-506.429 602,-495 657.649,-442.709 583.636,-380.625 638,-327 641.706,-323.345 645.857,-320.238 650.312,-317.603"/>
<polygon fill="midnightblue" stroke="midnightblue" points="556.87,-513.81 547.755,-519.21 558.248,-520.673 556.87,-513.81"/>
</g>
<!-- Node32 -->
<g id="node32" class="node"><title>Node32</title>
<g id="a_node32"><a xlink:href="classmfem_1_1SLISolver.html" target="_top" xlink:title="Stationary linear iteration: x &lt;&#45; x + B (b &#45; A x) ">
<polygon fill="white" stroke="black" points="676.5,-252.5 676.5,-275.5 811.5,-275.5 811.5,-252.5 676.5,-252.5"/>
<text text-anchor="middle" x="744" y="-260.3" font-family="Helvetica,sans-Serif" font-size="14.00">mfem::SLISolver</text>
</a>
</g>
</g>
<!-- Node24&#45;&gt;Node32 -->
<g id="edge35" class="edge"><title>Node24&#45;&gt;Node32</title>
<path fill="none" stroke="midnightblue" d="M557.601,-517.742C574.145,-513.853 589.89,-506.86 602,-495 669.655,-428.744 571.972,-352.878 638,-285 648.176,-274.539 661.984,-268.52 676.24,-265.201"/>
<polygon fill="midnightblue" stroke="midnightblue" points="556.919,-514.309 547.79,-519.687 558.28,-521.176 556.919,-514.309"/>
</g>
<!-- Node35 -->
<g id="node35" class="node"><title>Node35</title>
<g id="a_node35"><a xlink:href="classmfem_1_1DenseMatrixInverse.html" target="_top" xlink:title="mfem::DenseMatrixInverse">
<polygon fill="white" stroke="black" points="638,-210.5 638,-233.5 850,-233.5 850,-210.5 638,-210.5"/>
<text text-anchor="middle" x="744" y="-218.3" font-family="Helvetica,sans-Serif" font-size="14.00">mfem::DenseMatrixInverse</text>
</a>
</g>
</g>
<!-- Node34&#45;&gt;Node35 -->
<g id="edge38" class="edge"><title>Node34&#45;&gt;Node35</title>
<path fill="none" stroke="midnightblue" d="M554.002,-434.045C571.734,-430.35 588.852,-423.354 602,-411 657.649,-358.709 583.636,-296.625 638,-243 641.706,-239.345 645.857,-236.238 650.312,-233.603"/>
<polygon fill="midnightblue" stroke="midnightblue" points="553.359,-430.604 544.11,-435.771 554.563,-437.5 553.359,-430.604"/>
</g>
<!-- Node36 -->
<g id="node36" class="node"><title>Node36</title>
<g id="a_node36"><a xlink:href="classmfem_1_1SparseSmoother.html" target="_top" xlink:title="mfem::SparseSmoother">
<polygon fill="white" stroke="red" points="650,-168.5 650,-191.5 838,-191.5 838,-168.5 650,-168.5"/>
<text text-anchor="middle" x="744" y="-176.3" font-family="Helvetica,sans-Serif" font-size="14.00">mfem::SparseSmoother</text>
</a>
</g>
</g>
<!-- Node34&#45;&gt;Node36 -->
<g id="edge39" class="edge"><title>Node34&#45;&gt;Node36</title>
<path fill="none" stroke="midnightblue" d="M554.091,-434.519C571.906,-430.815 589.036,-423.696 602,-411 669.655,-344.744 571.972,-268.878 638,-201 641.5,-197.402 645.429,-194.33 649.659,-191.712"/>
<polygon fill="midnightblue" stroke="midnightblue" points="553.402,-431.086 544.145,-436.239 554.595,-437.984 553.402,-431.086"/>
</g>
<!-- Node38 -->
<g id="node38" class="node"><title>Node38</title>
<polygon fill="white" stroke="#bfbfbf" points="673.5,-126.5 673.5,-149.5 814.5,-149.5 814.5,-126.5 673.5,-126.5"/>
<text text-anchor="middle" x="744" y="-134.3" font-family="Helvetica,sans-Serif" font-size="14.00">DiffusionMultigrid</text>
</g>
<!-- Node37&#45;&gt;Node38 -->
<g id="edge41" class="edge"><title>Node37&#45;&gt;Node38</title>
<path fill="none" stroke="midnightblue" d="M536.176,-386.676C560.023,-383.942 584.715,-376.928 602,-360 669.655,-293.744 571.972,-217.878 638,-150 647.463,-140.272 660.067,-134.385 673.251,-131.147"/>
<polygon fill="midnightblue" stroke="midnightblue" points="535.672,-383.208 526.031,-387.602 536.308,-390.179 535.672,-383.208"/>
</g>
<!-- Node37&#45;&gt;Node38 -->
<g id="edge42" class="edge"><title>Node37&#45;&gt;Node38</title>
<path fill="none" stroke="midnightblue" d="M503.134,-402.938C534.435,-406.406 576.364,-403.106 602,-378 669.655,-311.744 571.972,-235.878 638,-168 647.463,-158.272 660.067,-152.385 673.251,-148.73"/>
<polygon fill="midnightblue" stroke="midnightblue" points="503.352,-399.434 492.966,-401.523 502.388,-406.368 503.352,-399.434"/>
</g>
<!-- Node43 -->
<g id="node43" class="node"><title>Node43</title>
<g id="a_node43"><a xlink:href="classmfem_1_1PetscPCGSolver.html" target="_top" xlink:title="mfem::PetscPCGSolver">
<polygon fill="white" stroke="black" points="654.5,-84.5 654.5,-107.5 833.5,-107.5 833.5,-84.5 654.5,-84.5"/>
<text text-anchor="middle" x="744" y="-92.3" font-family="Helvetica,sans-Serif" font-size="14.00">mfem::PetscPCGSolver</text>
</a>
</g>
</g>
<!-- Node42&#45;&gt;Node43 -->
<g id="edge47" class="edge"><title>Node42&#45;&gt;Node43</title>
<path fill="none" stroke="midnightblue" d="M568.532,-217.879C580.6,-214.078 592.098,-208.643 602,-201 634.152,-176.18 606.459,-142.592 638,-117 642.98,-112.959 648.525,-109.626 654.392,-106.883"/>
<polygon fill="midnightblue" stroke="midnightblue" points="567.454,-214.546 558.751,-220.589 569.322,-221.292 567.454,-214.546"/>
</g>
<!-- Node46 -->
<g id="node46" class="node"><title>Node46</title>
<g id="a_node46"><a xlink:href="classmfem_1_1PetscBDDCSolver.html" target="_top" xlink:title="mfem::PetscBDDCSolver">
<polygon fill="white" stroke="black" points="648,-42.5 648,-65.5 840,-65.5 840,-42.5 648,-42.5"/>
<text text-anchor="middle" x="744" y="-50.3" font-family="Helvetica,sans-Serif" font-size="14.00">mfem::PetscBDDCSolver</text>
</a>
</g>
</g>
<!-- Node45&#45;&gt;Node46 -->
<g id="edge50" class="edge"><title>Node45&#45;&gt;Node46</title>
<path fill="none" stroke="midnightblue" d="M575.458,-128.227C584.723,-125.279 593.701,-121.593 602,-117 623.51,-105.094 616.785,-87.4242 638,-75 644.497,-71.1952 651.566,-68.0687 658.864,-65.5011"/>
<polygon fill="midnightblue" stroke="midnightblue" points="574.354,-124.902 565.716,-131.038 576.294,-131.628 574.354,-124.902"/>
</g>
</g>
</svg>
