<?xml version="1.0" encoding="UTF-8" standalone="no"?>
<!DOCTYPE svg PUBLIC "-//W3C//DTD SVG 1.1//EN"
 "http://www.w3.org/Graphics/SVG/1.1/DTD/svg11.dtd">
<!-- Generated by graphviz version 2.26.3 (20100126.1600)
 -->
<!-- Title: mfem::FiniteElementSpace Pages: 1 -->
<!--zoomable 687 -->
<svg id="main" version="1.1" xmlns="http://www.w3.org/2000/svg" xmlns:xlink="http://www.w3.org/1999/xlink" xml:space="preserve" onload="init(evt)">
<style type="text/css"><![CDATA[
.edge:hover path { stroke: red; }
.edge:hover polygon { stroke: red; fill: red; }
]]></style>
<script type="text/javascript"><![CDATA[
var edges = document.getElementsByTagName('g');
if (edges && edges.length) {
  for (var i=0;i<edges.length;i++) {
    if (edges[i].id.substr(0,4)=='edge') {
      edges[i].setAttribute('class','edge');
    }
  }
}
]]></script>
        <defs>
                <circle id="rim" cx="0" cy="0" r="7"/>
                <circle id="rim2" cx="0" cy="0" r="3.5"/>
                <g id="zoomPlus">
                        <use xlink:href="#rim" fill="#404040">
                                <set attributeName="fill" to="#808080" begin="zoomplus.mouseover" end="zoomplus.mouseout"/>
                        </use>
                        <path d="M-4,0h8M0,-4v8" fill="none" stroke="white" stroke-width="1.5" pointer-events="none"/>
                </g>
                <g id="zoomMin">
                        <use xlink:href="#rim" fill="#404040">
                                <set attributeName="fill" to="#808080" begin="zoomminus.mouseover" end="zoomminus.mouseout"/>
                        </use>
                        <path d="M-4,0h8" fill="none" stroke="white" stroke-width="1.5" pointer-events="none"/>
                </g>
                <g id="dirArrow">
                        <path fill="none" stroke="white" stroke-width="1.5" d="M0,-3.0v7 M-2.5,-0.5L0,-3.0L2.5,-0.5"/>
                </g>
               <g id="resetDef">
                       <use xlink:href="#rim2" fill="#404040">
                               <set attributeName="fill" to="#808080" begin="reset.mouseover" end="reset.mouseout"/>
                       </use>
               </g>
        </defs>

<script type="text/javascript">
var viewWidth = 1436;
var viewHeight = 687;
var sectionId = 'dynsection-1';
</script>
<script xlink:href="svgpan.js"/>
<svg id="graph" class="graph">
<g id="viewport">
<title>mfem::FiniteElementSpace</title>
<polygon fill="white" stroke="white" points="-4,5 -4,-683 1433,-683 1433,5 -4,5"/>
<!-- Node1 -->
<g id="node1" class="node"><title>Node1</title>
<polygon fill="#bfbfbf" stroke="black" points="338.5,-418 338.5,-442 521.5,-442 521.5,-418 338.5,-418"/>
<text text-anchor="middle" x="430" y="-425.4" font-family="Helvetica,sans-Serif" font-size="14.00">mfem::FiniteElementSpace</text>
</g>
<!-- Node5 -->
<g id="node9" class="node"><title>Node5</title>
<a xlink:href="classmfem_1_1NCMesh.html" target="_top" xlink:title="A class for non&#45;conforming AMR on higher&#45;order hexahedral, quadrilateral or triangular meshes...">
<polygon fill="white" stroke="red" points="717.5,-287 717.5,-311 830.5,-311 830.5,-287 717.5,-287"/>
<text text-anchor="middle" x="774" y="-294.4" font-family="Helvetica,sans-Serif" font-size="14.00">mfem::NCMesh</text>
</a>
</g>
<!-- Node1&#45;&gt;Node5 -->
<g id="edge14" class="edge"><title>Node1&#45;&gt;Node5</title>
<path fill="none" stroke="#9a32cd" stroke-dasharray="5,2" d="M468.09,-414.009C489.067,-405.571 515.705,-395.452 540,-388 582.772,-374.88 604.083,-394.176 638,-365 654.33,-350.952 639.294,-333.598 656,-320 673.025,-306.142 696.058,-300.139 717.256,-297.871"/>
<polygon fill="#9a32cd" stroke="#9a32cd" points="466.527,-410.866 458.581,-417.874 469.163,-417.35 466.527,-410.866"/>
<text text-anchor="middle" x="589" y="-391.4" font-family="Helvetica,sans-Serif" font-size="14.00"> space</text>
</g>
<!-- Node2 -->
<g id="node2" class="node"><title>Node2</title>
<a xlink:href="classmfem_1_1Mesh.html" target="_top" xlink:title="mfem::Mesh">
<polygon fill="white" stroke="red" points="1056.5,-302 1056.5,-326 1149.5,-326 1149.5,-302 1056.5,-302"/>
<text text-anchor="middle" x="1103" y="-309.4" font-family="Helvetica,sans-Serif" font-size="14.00">mfem::Mesh</text>
</a>
</g>
<!-- Node2&#45;&gt;Node1 -->
<g id="edge2" class="edge"><title>Node2&#45;&gt;Node1</title>
<path fill="none" stroke="#9a32cd" stroke-dasharray="5,2" d="M1093.26,-335.188C1082.75,-355.295 1063.97,-384.4 1038,-398 1015.57,-409.746 686.054,-421.837 521.749,-427.175"/>
<polygon fill="#9a32cd" stroke="#9a32cd" points="1096.44,-336.661 1097.75,-326.148 1090.17,-333.549 1096.44,-336.661"/>
<text text-anchor="middle" x="774" y="-425.4" font-family="Helvetica,sans-Serif" font-size="14.00"> mesh</text>
</g>
<!-- Node2&#45;&gt;Node2 -->
<g id="edge4" class="edge"><title>Node2&#45;&gt;Node2</title>
<path fill="none" stroke="#9a32cd" stroke-dasharray="5,2" d="M1084.87,-336.001C1086.72,-340.647 1092.76,-344 1103,-344 1119.8,-344 1125.31,-334.972 1119.53,-326.014"/>
<polygon fill="#9a32cd" stroke="#9a32cd" points="1088.34,-336.442 1086.47,-326.014 1081.43,-335.334 1088.34,-336.442"/>
<text text-anchor="middle" x="1103" y="-347.4" font-family="Helvetica,sans-Serif" font-size="14.00"> nc_coarse_level</text>
</g>
<!-- Node6 -->
<g id="node13" class="node"><title>Node6</title>
<a xlink:href="classmfem_1_1NURBSExtension.html" target="_top" xlink:title="mfem::NURBSExtension">
<polygon fill="white" stroke="red" points="1258.5,-341 1258.5,-365 1427.5,-365 1427.5,-341 1258.5,-341"/>
<text text-anchor="middle" x="1343" y="-348.4" font-family="Helvetica,sans-Serif" font-size="14.00">mfem::NURBSExtension</text>
</a>
</g>
<!-- Node2&#45;&gt;Node6 -->
<g id="edge18" class="edge"><title>Node2&#45;&gt;Node6</title>
<path fill="none" stroke="#9a32cd" stroke-dasharray="5,2" d="M1155.57,-328.371C1159.76,-329.326 1163.94,-330.218 1168,-331 1197.17,-336.622 1229.35,-341.142 1258.09,-344.588"/>
<polygon fill="#9a32cd" stroke="#9a32cd" points="1156.36,-324.962 1145.82,-326.046 1154.74,-331.771 1156.36,-324.962"/>
<text text-anchor="middle" x="1204" y="-346.4" font-family="Helvetica,sans-Serif" font-size="14.00"> patchTopo</text>
</g>
<!-- Node3 -->
<g id="node5" class="node"><title>Node3</title>
<a xlink:href="classmfem_1_1IsoparametricTransformation.html" target="_top" xlink:title="mfem::IsoparametricTransformation">
<polygon fill="white" stroke="red" points="656.5,-329 656.5,-353 891.5,-353 891.5,-329 656.5,-329"/>
<text text-anchor="middle" x="774" y="-336.4" font-family="Helvetica,sans-Serif" font-size="14.00">mfem::IsoparametricTransformation</text>
</a>
</g>
<!-- Node3&#45;&gt;Node2 -->
<g id="edge6" class="edge"><title>Node3&#45;&gt;Node2</title>
<path fill="none" stroke="#9a32cd" stroke-dasharray="5,2" d="M901.907,-330.503C956.163,-326.05 1016.01,-321.139 1056.2,-317.841"/>
<polygon fill="#9a32cd" stroke="#9a32cd" points="901.527,-327.022 891.847,-331.329 902.1,-333.999 901.527,-327.022"/>
<text text-anchor="middle" x="974" y="-381.4" font-family="Helvetica,sans-Serif" font-size="14.00"> FaceTransformation</text>
<text text-anchor="middle" x="974" y="-365.4" font-family="Helvetica,sans-Serif" font-size="14.00">Transformation2</text>
<text text-anchor="middle" x="974" y="-349.4" font-family="Helvetica,sans-Serif" font-size="14.00">Transformation</text>
<text text-anchor="middle" x="974" y="-333.4" font-family="Helvetica,sans-Serif" font-size="14.00">EdgeTransformation</text>
</g>
<!-- Node4 -->
<g id="node7" class="node"><title>Node4</title>
<a xlink:href="classmfem_1_1Array.html" target="_top" xlink:title="mfem::Array\&lt; int \&gt;">
<polygon fill="white" stroke="red" points="38,-358 38,-382 168,-382 168,-358 38,-358"/>
<text text-anchor="middle" x="103" y="-365.4" font-family="Helvetica,sans-Serif" font-size="14.00">mfem::Array&lt; int &gt;</text>
</a>
</g>
<!-- Node4&#45;&gt;Node1 -->
<g id="edge28" class="edge"><title>Node4&#45;&gt;Node1</title>
<path fill="none" stroke="#9a32cd" stroke-dasharray="5,2" d="M178.156,-376.804C220.151,-381.327 273.28,-388.251 320,-398 344.921,-403.2 372.421,-411.2 393.691,-417.9"/>
<polygon fill="#9a32cd" stroke="#9a32cd" points="178.317,-373.301 168.006,-375.733 177.583,-380.263 178.317,-373.301"/>
<text text-anchor="middle" x="272" y="-417.4" font-family="Helvetica,sans-Serif" font-size="14.00"> dof_ldof_array</text>
<text text-anchor="middle" x="272" y="-401.4" font-family="Helvetica,sans-Serif" font-size="14.00">dof_elem_array</text>
</g>
<!-- Node4&#45;&gt;Node2 -->
<g id="edge8" class="edge"><title>Node4&#45;&gt;Node2</title>
<path fill="none" stroke="#9a32cd" stroke-dasharray="5,2" d="M146.434,-354.704C224.161,-328.232 392.705,-274.896 540,-256 678.641,-238.214 917.699,-256.458 1038,-286 1052.56,-289.575 1068,-296.102 1080.18,-301.955"/>
<polygon fill="#9a32cd" stroke="#9a32cd" points="145.293,-351.395 136.968,-357.949 147.563,-358.017 145.293,-351.395"/>
<text text-anchor="middle" x="589" y="-323.4" font-family="Helvetica,sans-Serif" font-size="14.00"> fc_be_to_edge</text>
<text text-anchor="middle" x="589" y="-307.4" font-family="Helvetica,sans-Serif" font-size="14.00">attributes</text>
<text text-anchor="middle" x="589" y="-291.4" font-family="Helvetica,sans-Serif" font-size="14.00">be_to_edge</text>
<text text-anchor="middle" x="589" y="-275.4" font-family="Helvetica,sans-Serif" font-size="14.00">be_to_face</text>
<text text-anchor="middle" x="589" y="-259.4" font-family="Helvetica,sans-Serif" font-size="14.00">bdr_attributes</text>
</g>
<!-- Node4&#45;&gt;Node5 -->
<g id="edge12" class="edge"><title>Node4&#45;&gt;Node5</title>
<path fill="none" stroke="#9a32cd" stroke-dasharray="5,2" d="M178.192,-372.74C305.861,-376.249 558.877,-377.929 638,-340 648.784,-334.831 645.546,-325.807 656,-320 674.554,-309.694 697.055,-304.266 717.413,-301.466"/>
<polygon fill="#9a32cd" stroke="#9a32cd" points="178.198,-369.239 168.102,-372.451 177.998,-376.236 178.198,-369.239"/>
<text text-anchor="middle" x="430" y="-378.4" font-family="Helvetica,sans-Serif" font-size="14.00"> vertex_nodeId</text>
</g>
<!-- Node4&#45;&gt;Node6 -->
<g id="edge20" class="edge"><title>Node4&#45;&gt;Node6</title>
<path fill="none" stroke="#9a32cd" stroke-dasharray="5,2" d="M153.659,-385.839C172.251,-393.825 192.122,-405.245 206,-421 222.166,-439.352 205.155,-457.412 224,-473 295.293,-531.971 337.479,-503 430,-503 430,-503 430,-503 1103,-503 1206.92,-503 1302.94,-400.616 1333.19,-365.022"/>
<polygon fill="#9a32cd" stroke="#9a32cd" points="154.962,-382.59 144.38,-382.08 152.334,-389.078 154.962,-382.59"/>
<text text-anchor="middle" x="774" y="-666.4" font-family="Helvetica,sans-Serif" font-size="14.00"> v_spaceOffsets</text>
<text text-anchor="middle" x="774" y="-650.4" font-family="Helvetica,sans-Serif" font-size="14.00">p_meshOffsets</text>
<text text-anchor="middle" x="774" y="-634.4" font-family="Helvetica,sans-Serif" font-size="14.00">edge_to_knot</text>
<text text-anchor="middle" x="774" y="-618.4" font-family="Helvetica,sans-Serif" font-size="14.00">f_spaceOffsets</text>
<text text-anchor="middle" x="774" y="-602.4" font-family="Helvetica,sans-Serif" font-size="14.00">e_meshOffsets</text>
<text text-anchor="middle" x="774" y="-586.4" font-family="Helvetica,sans-Serif" font-size="14.00">el_to_patch</text>
<text text-anchor="middle" x="774" y="-570.4" font-family="Helvetica,sans-Serif" font-size="14.00">p_spaceOffsets</text>
<text text-anchor="middle" x="774" y="-554.4" font-family="Helvetica,sans-Serif" font-size="14.00">bel_to_patch</text>
<text text-anchor="middle" x="774" y="-538.4" font-family="Helvetica,sans-Serif" font-size="14.00">e_spaceOffsets</text>
<text text-anchor="middle" x="774" y="-522.4" font-family="Helvetica,sans-Serif" font-size="14.00">v_meshOffsets</text>
<text text-anchor="middle" x="774" y="-506.4" font-family="Helvetica,sans-Serif" font-size="14.00">...</text>
</g>
<!-- Node5&#45;&gt;Node2 -->
<g id="edge10" class="edge"><title>Node5&#45;&gt;Node2</title>
<path fill="none" stroke="#9a32cd" stroke-dasharray="5,2" d="M840.744,-292.881C894.318,-289.256 971.33,-286.939 1038,-296 1047.28,-297.261 1057.11,-299.492 1066.24,-301.964"/>
<polygon fill="#9a32cd" stroke="#9a32cd" points="840.413,-289.396 830.686,-293.596 840.909,-296.378 840.413,-289.396"/>
<text text-anchor="middle" x="974" y="-299.4" font-family="Helvetica,sans-Serif" font-size="14.00"> ncmesh</text>
</g>
<!-- Node6&#45;&gt;Node1 -->
<g id="edge32" class="edge"><title>Node6&#45;&gt;Node1</title>
<path fill="none" stroke="#9a32cd" stroke-dasharray="5,2" d="M1281.73,-367.333C1220.29,-381.45 1122.88,-403.144 1038,-419 973.428,-431.063 957.489,-436.873 892,-442 787.431,-450.186 760.873,-443.808 656,-442 604.421,-441.111 591.512,-440.76 540,-438 533.977,-437.677 527.771,-437.313 521.518,-436.922"/>
<polygon fill="#9a32cd" stroke="#9a32cd" points="1282.68,-370.703 1291.64,-365.048 1281.11,-363.882 1282.68,-370.703"/>
<text text-anchor="middle" x="974" y="-443.4" font-family="Helvetica,sans-Serif" font-size="14.00"> NURBSext</text>
</g>
<!-- Node6&#45;&gt;Node2 -->
<g id="edge16" class="edge"><title>Node6&#45;&gt;Node2</title>
<path fill="none" stroke="#9a32cd" stroke-dasharray="5,2" d="M1308.46,-336.839C1288.85,-328.545 1263.58,-319.3 1240,-315 1210.28,-309.581 1176.33,-309.293 1149.67,-310.378"/>
<polygon fill="#9a32cd" stroke="#9a32cd" points="1307.31,-340.156 1317.87,-340.933 1310.1,-333.736 1307.31,-340.156"/>
<text text-anchor="middle" x="1204" y="-318.4" font-family="Helvetica,sans-Serif" font-size="14.00"> NURBSext</text>
</g>
<!-- Node7 -->
<g id="node17" class="node"><title>Node7</title>
<a xlink:href="classmfem_1_1Table.html" target="_top" xlink:title="mfem::Table">
<polygon fill="white" stroke="black" points="57,-48 57,-72 149,-72 149,-48 57,-48"/>
<text text-anchor="middle" x="103" y="-55.4" font-family="Helvetica,sans-Serif" font-size="14.00">mfem::Table</text>
</a>
</g>
<!-- Node7&#45;&gt;Node1 -->
<g id="edge34" class="edge"><title>Node7&#45;&gt;Node1</title>
<path fill="none" stroke="#9a32cd" stroke-dasharray="5,2" d="M118.908,-80.1716C155.372,-126.596 247.437,-244.862 320,-347 328.353,-358.757 327.594,-364.014 338,-374 357.428,-392.643 384.109,-408.031 403.736,-417.928"/>
<polygon fill="#9a32cd" stroke="#9a32cd" points="121.503,-77.8106 112.57,-72.1144 116.001,-82.1382 121.503,-77.8106"/>
<text text-anchor="middle" x="272" y="-366.4" font-family="Helvetica,sans-Serif" font-size="14.00"> bdrElem_dof</text>
<text text-anchor="middle" x="272" y="-350.4" font-family="Helvetica,sans-Serif" font-size="14.00">elem_dof</text>
</g>
<!-- Node7&#45;&gt;Node2 -->
<g id="edge24" class="edge"><title>Node7&#45;&gt;Node2</title>
<path fill="none" stroke="#9a32cd" stroke-dasharray="5,2" d="M159.306,-53.3305C257.895,-43.3491 467.513,-29.706 638,-70 829.723,-115.313 871.587,-155.559 1038,-261 1057.19,-273.157 1077.13,-290.179 1089.78,-301.622"/>
<polygon fill="#9a32cd" stroke="#9a32cd" points="158.848,-49.8592 149.263,-54.3739 159.571,-56.8218 158.848,-49.8592"/>
<text text-anchor="middle" x="589" y="-233.4" font-family="Helvetica,sans-Serif" font-size="14.00"> el_to_face</text>
<text text-anchor="middle" x="589" y="-217.4" font-family="Helvetica,sans-Serif" font-size="14.00">el_to_edge</text>
<text text-anchor="middle" x="589" y="-201.4" font-family="Helvetica,sans-Serif" font-size="14.00">c_bel_to_edge</text>
<text text-anchor="middle" x="589" y="-185.4" font-family="Helvetica,sans-Serif" font-size="14.00">edge_vertex</text>
<text text-anchor="middle" x="589" y="-169.4" font-family="Helvetica,sans-Serif" font-size="14.00">face_edge</text>
<text text-anchor="middle" x="589" y="-153.4" font-family="Helvetica,sans-Serif" font-size="14.00">el_to_el</text>
<text text-anchor="middle" x="589" y="-137.4" font-family="Helvetica,sans-Serif" font-size="14.00">c_el_to_face</text>
<text text-anchor="middle" x="589" y="-121.4" font-family="Helvetica,sans-Serif" font-size="14.00">f_bel_to_edge</text>
<text text-anchor="middle" x="589" y="-105.4" font-family="Helvetica,sans-Serif" font-size="14.00">c_el_to_edge</text>
<text text-anchor="middle" x="589" y="-89.4" font-family="Helvetica,sans-Serif" font-size="14.00">f_el_to_face</text>
<text text-anchor="middle" x="589" y="-73.4" font-family="Helvetica,sans-Serif" font-size="14.00">...</text>
</g>
<!-- Node7&#45;&gt;Node6 -->
<g id="edge22" class="edge"><title>Node7&#45;&gt;Node6</title>
<path fill="none" stroke="#9a32cd" stroke-dasharray="5,2" d="M152.61,-45.0939C216.237,-27.3242 330.287,-0 430,-0 430,-0 430,-0 1103,-0 1271.59,-0 1330.08,-278.777 1341.01,-340.849"/>
<polygon fill="#9a32cd" stroke="#9a32cd" points="151.51,-41.7675 142.841,-47.8581 153.416,-48.5031 151.51,-41.7675"/>
<text text-anchor="middle" x="774" y="-19.4" font-family="Helvetica,sans-Serif" font-size="14.00"> el_dof</text>
<text text-anchor="middle" x="774" y="-3.4" font-family="Helvetica,sans-Serif" font-size="14.00">bel_dof</text>
</g>
<!-- Node8 -->
<g id="node20" class="node"><title>Node8</title>
<a xlink:href="classmfem_1_1SparseMatrix.html" target="_top" xlink:title="Data type sparse matrix. ">
<polygon fill="white" stroke="red" points="32.5,-430 32.5,-454 173.5,-454 173.5,-430 32.5,-430"/>
<text text-anchor="middle" x="103" y="-437.4" font-family="Helvetica,sans-Serif" font-size="14.00">mfem::SparseMatrix</text>
</a>
</g>
<!-- Node8&#45;&gt;Node1 -->
<g id="edge26" class="edge"><title>Node8&#45;&gt;Node1</title>
<path fill="none" stroke="#9a32cd" stroke-dasharray="5,2" d="M183.665,-439.04C230.555,-437.319 289.798,-435.145 338.434,-433.36"/>
<polygon fill="#9a32cd" stroke="#9a32cd" points="183.416,-435.546 173.552,-439.411 183.673,-442.542 183.416,-435.546"/>
<text text-anchor="middle" x="272" y="-456.4" font-family="Helvetica,sans-Serif" font-size="14.00"> cR</text>
<text text-anchor="middle" x="272" y="-440.4" font-family="Helvetica,sans-Serif" font-size="14.00">cP</text>
</g>
<!-- Node9 -->
<g id="node23" class="node"><title>Node9</title>
<a xlink:href="classmfem_1_1Array.html" target="_top" xlink:title="mfem::Array\&lt; mfem::\lRefinementData * \&gt;">
<polygon fill="white" stroke="red" points="30,-566 30,-606 176,-606 176,-566 30,-566"/>
<text text-anchor="start" x="38" y="-589.4" font-family="Helvetica,sans-Serif" font-size="14.00">mfem::Array&lt; mfem::</text>
<text text-anchor="middle" x="103" y="-573.4" font-family="Helvetica,sans-Serif" font-size="14.00">RefinementData * &gt;</text>
</a>
</g>
<!-- Node9&#45;&gt;Node1 -->
<g id="edge30" class="edge"><title>Node9&#45;&gt;Node1</title>
<path fill="none" stroke="#9a32cd" stroke-dasharray="5,2" d="M185.976,-570.185C227.815,-560.099 278.372,-544.59 320,-522 360.481,-500.032 399.9,-461.769 418.651,-442.235"/>
<polygon fill="#9a32cd" stroke="#9a32cd" points="185.025,-566.813 176.091,-572.507 186.626,-573.627 185.025,-566.813"/>
<text text-anchor="middle" x="272" y="-561.4" font-family="Helvetica,sans-Serif" font-size="14.00"> RefData</text>
</g>
<!-- Node10 -->
<g id="node27" class="node"><title>Node10</title>
<a xlink:href="classmfem_1_1FiniteElementCollection.html" target="_top" xlink:title="mfem::FiniteElementCollection">
<polygon fill="white" stroke="black" points="0.5,-524 0.5,-548 205.5,-548 205.5,-524 0.5,-524"/>
<text text-anchor="middle" x="103" y="-531.4" font-family="Helvetica,sans-Serif" font-size="14.00">mfem::FiniteElementCollection</text>
</a>
</g>
<!-- Node10&#45;&gt;Node1 -->
<g id="edge36" class="edge"><title>Node10&#45;&gt;Node1</title>
<path fill="none" stroke="#9a32cd" stroke-dasharray="5,2" d="M158.763,-521.299C202.85,-509.319 265.786,-491.424 320,-473 347.956,-463.499 379.266,-451.081 401.312,-442.034"/>
<polygon fill="#9a32cd" stroke="#9a32cd" points="157.835,-517.924 149.095,-523.913 159.662,-524.682 157.835,-517.924"/>
<text text-anchor="middle" x="272" y="-505.4" font-family="Helvetica,sans-Serif" font-size="14.00"> fec</text>
</g>
</g>
</svg>
        <g id="navigator" transform="translate(0 0)" fill="#404254">
                <rect fill="#f2f5e9" fill-opacity="0.5" stroke="#606060" stroke-width=".5" x="0" y="0" width="60" height="60"/>
                <use id="zoomplus" xlink:href="#zoomPlus" x="17" y="9" onmousedown="handleZoom(evt,'in')"/>
                <use id="zoomminus" xlink:href="#zoomMin" x="42" y="9" onmousedown="handleZoom(evt,'out')"/>
                <use id="reset" xlink:href="#resetDef" x="30" y="36" onmousedown="handleReset()"/>
                <g id="arrowUp" xlink:href="#dirArrow" transform="translate(30 24)" onmousedown="handlePan(0,-1)">
                  <use xlink:href="#rim" fill="#404040">
                        <set attributeName="fill" to="#808080" begin="arrowUp.mouseover" end="arrowUp.mouseout"/>
                  </use>
                  <path fill="none" stroke="white" stroke-width="1.5" d="M0,-3.0v7 M-2.5,-0.5L0,-3.0L2.5,-0.5"/>
                </g>
                <g id="arrowRight" xlink:href="#dirArrow" transform="rotate(90) translate(36 -43)" onmousedown="handlePan(1,0)">
                  <use xlink:href="#rim" fill="#404040">
                        <set attributeName="fill" to="#808080" begin="arrowRight.mouseover" end="arrowRight.mouseout"/>
                  </use>
                  <path fill="none" stroke="white" stroke-width="1.5" d="M0,-3.0v7 M-2.5,-0.5L0,-3.0L2.5,-0.5"/>
                </g>
                <g id="arrowDown" xlink:href="#dirArrow" transform="rotate(180) translate(-30 -48)" onmousedown="handlePan(0,1)">
                  <use xlink:href="#rim" fill="#404040">
                        <set attributeName="fill" to="#808080" begin="arrowDown.mouseover" end="arrowDown.mouseout"/>
                  </use>
                  <path fill="none" stroke="white" stroke-width="1.5" d="M0,-3.0v7 M-2.5,-0.5L0,-3.0L2.5,-0.5"/>
                </g>
                <g id="arrowLeft" xlink:href="#dirArrow" transform="rotate(270) translate(-36 17)" onmousedown="handlePan(-1,0)">
                  <use xlink:href="#rim" fill="#404040">
                        <set attributeName="fill" to="#808080" begin="arrowLeft.mouseover" end="arrowLeft.mouseout"/>
                  </use>
                  <path fill="none" stroke="white" stroke-width="1.5" d="M0,-3.0v7 M-2.5,-0.5L0,-3.0L2.5,-0.5"/>
                </g>
        </g>
        <svg viewBox="0 0 15 15" width="100%" height="30px" preserveAspectRatio="xMaxYMin meet">
         <g id="arrow_out" transform="scale(0.3 0.3)">
          <a xlink:href="classmfem_1_1FiniteElementSpace__coll__graph_org.svg" target="_base">
           <rect id="button" ry="5" rx="5" y="6" x="6" height="38" width="38"
                fill="#f2f5e9" fill-opacity="0.5" stroke="#606060" stroke-width="1.0"/>
           <path id="arrow"
             d="M 11.500037,31.436501 C 11.940474,20.09759 22.043105,11.32322 32.158766,21.979434 L 37.068811,17.246167 C 37.068811,17.246167 37.088388,32 37.088388,32 L 22.160133,31.978069 C 22.160133,31.978069 26.997745,27.140456 26.997745,27.140456 C 18.528582,18.264221 13.291696,25.230495 11.500037,31.436501 z"
             style="fill:#404040;"/>
          </a>
         </g>
        </svg>
</svg>
