<?xml version="1.0" encoding="UTF-8" standalone="no"?>
<!DOCTYPE svg PUBLIC "-//W3C//DTD SVG 1.1//EN"
 "http://www.w3.org/Graphics/SVG/1.1/DTD/svg11.dtd">
<!-- Generated by graphviz version 2.26.3 (20100126.1600)
 -->
<!-- Title: mfem::NURBS2DFiniteElement Pages: 1 -->
<svg width="398pt" height="492pt"
 viewBox="0.00 0.00 398.00 492.00" xmlns="http://www.w3.org/2000/svg" xmlns:xlink="http://www.w3.org/1999/xlink">
<g id="graph1" class="graph" transform="scale(1 1) rotate(0) translate(4 488)">
<title>mfem::NURBS2DFiniteElement</title>
<polygon fill="white" stroke="white" points="-4,5 -4,-488 395,-488 395,5 -4,5"/>
<!-- Node1 -->
<g id="node1" class="node"><title>Node1</title>
<polygon fill="#bfbfbf" stroke="black" points="179.5,-1 179.5,-25 390.5,-25 390.5,-1 179.5,-1"/>
<text text-anchor="middle" x="285" y="-8.4" font-family="Helvetica,sans-Serif" font-size="14.00">mfem::NURBS2DFiniteElement</text>
</g>
<!-- Node2 -->
<g id="node2" class="node"><title>Node2</title>
<a xlink:href="classmfem_1_1NURBSFiniteElement.html" target="_top" xlink:title="mfem::NURBSFiniteElement">
<polygon fill="white" stroke="black" points="89.5,-92 89.5,-116 282.5,-116 282.5,-92 89.5,-92"/>
<text text-anchor="middle" x="186" y="-99.4" font-family="Helvetica,sans-Serif" font-size="14.00">mfem::NURBSFiniteElement</text>
</a>
</g>
<!-- Node2&#45;&gt;Node1 -->
<g id="edge2" class="edge"><title>Node2&#45;&gt;Node1</title>
<path fill="none" stroke="midnightblue" d="M206.886,-84.802C226.507,-66.7665 255.263,-40.334 271.86,-25.0782"/>
<polygon fill="midnightblue" stroke="midnightblue" points="204.345,-82.3832 199.352,-91.7273 209.082,-87.5368 204.345,-82.3832"/>
</g>
<!-- Node3 -->
<g id="node4" class="node"><title>Node3</title>
<a xlink:href="classmfem_1_1FiniteElement.html" target="_top" xlink:title="Abstract class for Finite Elements. ">
<polygon fill="white" stroke="black" points="17,-197 17,-221 161,-221 161,-197 17,-197"/>
<text text-anchor="middle" x="89" y="-204.4" font-family="Helvetica,sans-Serif" font-size="14.00">mfem::FiniteElement</text>
</a>
</g>
<!-- Node3&#45;&gt;Node2 -->
<g id="edge4" class="edge"><title>Node3&#45;&gt;Node2</title>
<path fill="none" stroke="midnightblue" d="M107.115,-189.391C126.939,-167.933 158.101,-134.2 174.704,-116.228"/>
<polygon fill="midnightblue" stroke="midnightblue" points="104.342,-187.235 100.127,-196.955 109.484,-191.985 104.342,-187.235"/>
</g>
<!-- Node4 -->
<g id="node6" class="node"><title>Node4</title>
<a xlink:href="classmfem_1_1IntegrationRule.html" target="_top" xlink:title="Class for integration rule. ">
<polygon fill="white" stroke="black" points="10,-275 10,-299 162,-299 162,-275 10,-275"/>
<text text-anchor="middle" x="86" y="-282.4" font-family="Helvetica,sans-Serif" font-size="14.00">mfem::IntegrationRule</text>
</a>
</g>
<!-- Node4&#45;&gt;Node3 -->
<g id="edge6" class="edge"><title>Node4&#45;&gt;Node3</title>
<path fill="none" stroke="#9a32cd" stroke-dasharray="5,2" d="M86.8686,-264.417C87.4121,-250.285 88.091,-232.634 88.5345,-221.102"/>
<polygon fill="#9a32cd" stroke="#9a32cd" points="83.3558,-264.685 86.4688,-274.812 90.3506,-264.954 83.3558,-264.685"/>
<text text-anchor="middle" x="111" y="-243.4" font-family="Helvetica,sans-Serif" font-size="14.00"> Nodes</text>
</g>
<!-- Node5 -->
<g id="node8" class="node"><title>Node5</title>
<a xlink:href="classmfem_1_1Array.html" target="_top" xlink:title="mfem::Array\&lt; Integration\lPoint \&gt;">
<polygon fill="white" stroke="black" points="-0.5,-379 -0.5,-419 168.5,-419 168.5,-379 -0.5,-379"/>
<text text-anchor="start" x="7.5" y="-402.4" font-family="Helvetica,sans-Serif" font-size="14.00">mfem::Array&lt; Integration</text>
<text text-anchor="middle" x="84" y="-386.4" font-family="Helvetica,sans-Serif" font-size="14.00">Point &gt;</text>
</a>
</g>
<!-- Node5&#45;&gt;Node4 -->
<g id="edge8" class="edge"><title>Node5&#45;&gt;Node4</title>
<path fill="none" stroke="midnightblue" d="M84.5399,-368.764C84.9475,-345.939 85.4855,-315.812 85.7814,-299.239"/>
<polygon fill="midnightblue" stroke="midnightblue" points="81.0368,-368.916 84.3576,-378.977 88.0356,-369.041 81.0368,-368.916"/>
</g>
<!-- Node6 -->
<g id="node10" class="node"><title>Node6</title>
<a xlink:href="classmfem_1_1BaseArray.html" target="_top" xlink:title="Base class for array container. ">
<polygon fill="white" stroke="black" points="100.5,-459 100.5,-483 223.5,-483 223.5,-459 100.5,-459"/>
<text text-anchor="middle" x="162" y="-466.4" font-family="Helvetica,sans-Serif" font-size="14.00">mfem::BaseArray</text>
</a>
</g>
<!-- Node6&#45;&gt;Node5 -->
<g id="edge10" class="edge"><title>Node6&#45;&gt;Node5</title>
<path fill="none" stroke="midnightblue" d="M141.316,-451.907C130.384,-441.816 116.968,-429.432 105.865,-419.183"/>
<polygon fill="midnightblue" stroke="midnightblue" points="139.046,-454.575 148.768,-458.786 143.794,-449.432 139.046,-454.575"/>
</g>
<!-- Node8 -->
<g id="node14" class="node"><title>Node8</title>
<a xlink:href="classmfem_1_1Array.html" target="_top" xlink:title="mfem::Array\&lt; mfem::\lKnotVector * \&gt;">
<polygon fill="white" stroke="black" points="122,-319 122,-359 268,-359 268,-319 122,-319"/>
<text text-anchor="start" x="130" y="-342.4" font-family="Helvetica,sans-Serif" font-size="14.00">mfem::Array&lt; mfem::</text>
<text text-anchor="middle" x="195" y="-326.4" font-family="Helvetica,sans-Serif" font-size="14.00">KnotVector * &gt;</text>
</a>
</g>
<!-- Node6&#45;&gt;Node8 -->
<g id="edge16" class="edge"><title>Node6&#45;&gt;Node8</title>
<path fill="none" stroke="midnightblue" d="M168.762,-449.203C171.463,-440.2 174.516,-429.635 177,-420 182.323,-399.355 187.508,-375.508 190.935,-359.062"/>
<polygon fill="midnightblue" stroke="midnightblue" points="165.373,-448.318 165.808,-458.904 172.069,-450.358 165.373,-448.318"/>
</g>
<!-- Node7 -->
<g id="node12" class="node"><title>Node7</title>
<a xlink:href="classmfem_1_1Vector.html" target="_top" xlink:title="Vector data type. ">
<polygon fill="white" stroke="black" points="245,-197 245,-221 343,-221 343,-197 245,-197"/>
<text text-anchor="middle" x="294" y="-204.4" font-family="Helvetica,sans-Serif" font-size="14.00">mfem::Vector</text>
</a>
</g>
<!-- Node7&#45;&gt;Node1 -->
<g id="edge18" class="edge"><title>Node7&#45;&gt;Node1</title>
<path fill="none" stroke="#9a32cd" stroke-dasharray="5,2" d="M301.993,-187.095C302.821,-184.075 303.53,-180.985 304,-178 305.105,-170.975 304.451,-169.097 304,-162 300.761,-110.991 291.344,-50.7484 287.108,-25.3118"/>
<polygon fill="#9a32cd" stroke="#9a32cd" points="298.587,-186.255 298.892,-196.845 305.258,-188.376 298.587,-186.255"/>
<text text-anchor="middle" x="334.5" y="-131.4" font-family="Helvetica,sans-Serif" font-size="14.00"> dshape_x</text>
<text text-anchor="middle" x="334.5" y="-115.4" font-family="Helvetica,sans-Serif" font-size="14.00">dshape_y</text>
<text text-anchor="middle" x="334.5" y="-99.4" font-family="Helvetica,sans-Serif" font-size="14.00">shape_x</text>
<text text-anchor="middle" x="334.5" y="-83.4" font-family="Helvetica,sans-Serif" font-size="14.00">u</text>
<text text-anchor="middle" x="334.5" y="-67.4" font-family="Helvetica,sans-Serif" font-size="14.00">shape_y</text>
</g>
<!-- Node7&#45;&gt;Node2 -->
<g id="edge12" class="edge"><title>Node7&#45;&gt;Node2</title>
<path fill="none" stroke="#9a32cd" stroke-dasharray="5,2" d="M267.613,-190.821C262.283,-186.794 256.835,-182.407 252,-178 230.118,-158.053 207.846,-131.505 195.587,-116.231"/>
<polygon fill="#9a32cd" stroke="#9a32cd" points="265.652,-193.723 275.788,-196.805 269.786,-188.074 265.652,-193.723"/>
<text text-anchor="middle" x="278" y="-165.4" font-family="Helvetica,sans-Serif" font-size="14.00"> weights</text>
</g>
<!-- Node8&#45;&gt;Node2 -->
<g id="edge14" class="edge"><title>Node8&#45;&gt;Node2</title>
<path fill="none" stroke="#9a32cd" stroke-dasharray="5,2" d="M193.838,-308.66C191.838,-256.436 187.828,-151.734 186.466,-116.155"/>
<polygon fill="#9a32cd" stroke="#9a32cd" points="190.352,-309.105 194.233,-318.964 197.347,-308.837 190.352,-309.105"/>
<text text-anchor="middle" x="201.5" y="-243.4" font-family="Helvetica,sans-Serif" font-size="14.00"> kv</text>
</g>
</g>
</svg>
