<?xml version="1.0" encoding="UTF-8" standalone="no"?>
<!DOCTYPE svg PUBLIC "-//W3C//DTD SVG 1.1//EN"
 "http://www.w3.org/Graphics/SVG/1.1/DTD/svg11.dtd">
<!-- Generated by graphviz version 2.26.3 (20100126.1600)
 -->
<!-- Title: mfem::HyperelasticModel Pages: 1 -->
<svg width="210pt" height="190pt"
 viewBox="0.00 0.00 210.00 190.00" xmlns="http://www.w3.org/2000/svg" xmlns:xlink="http://www.w3.org/1999/xlink">
<g id="graph1" class="graph" transform="scale(1 1) rotate(0) translate(4 186)">
<title>mfem::HyperelasticModel</title>
<polygon fill="white" stroke="white" points="-4,5 -4,-186 207,-186 207,5 -4,5"/>
<!-- Node1 -->
<g id="node1" class="node"><title>Node1</title>
<polygon fill="#bfbfbf" stroke="black" points="14.5,-1 14.5,-25 187.5,-25 187.5,-1 14.5,-1"/>
<text text-anchor="middle" x="101" y="-8.4" font-family="Helvetica,sans-Serif" font-size="14.00">mfem::HyperelasticModel</text>
</g>
<!-- Node2 -->
<g id="node2" class="node"><title>Node2</title>
<a xlink:href="classmfem_1_1ElementTransformation.html" target="_top" xlink:title="mfem::ElementTransformation">
<polygon fill="white" stroke="black" points="0,-79 0,-103 202,-103 202,-79 0,-79"/>
<text text-anchor="middle" x="101" y="-86.4" font-family="Helvetica,sans-Serif" font-size="14.00">mfem::ElementTransformation</text>
</a>
</g>
<!-- Node2&#45;&gt;Node1 -->
<g id="edge2" class="edge"><title>Node2&#45;&gt;Node1</title>
<path fill="none" stroke="#9a32cd" stroke-dasharray="5,2" d="M101,-68.4171C101,-54.2848 101,-36.6343 101,-25.1019"/>
<polygon fill="#9a32cd" stroke="#9a32cd" points="97.5001,-68.8125 101,-78.8125 104.5,-68.8125 97.5001,-68.8125"/>
<text text-anchor="middle" x="108" y="-47.4" font-family="Helvetica,sans-Serif" font-size="14.00"> T</text>
</g>
<!-- Node3 -->
<g id="node4" class="node"><title>Node3</title>
<a xlink:href="classmfem_1_1IntegrationPoint.html" target="_top" xlink:title="Class for integration point with weight. ">
<polygon fill="white" stroke="black" points="23.5,-157 23.5,-181 178.5,-181 178.5,-157 23.5,-157"/>
<text text-anchor="middle" x="101" y="-164.4" font-family="Helvetica,sans-Serif" font-size="14.00">mfem::IntegrationPoint</text>
</a>
</g>
<!-- Node3&#45;&gt;Node2 -->
<g id="edge4" class="edge"><title>Node3&#45;&gt;Node2</title>
<path fill="none" stroke="#9a32cd" stroke-dasharray="5,2" d="M101,-146.417C101,-132.285 101,-114.634 101,-103.102"/>
<polygon fill="#9a32cd" stroke="#9a32cd" points="97.5001,-146.812 101,-156.812 104.5,-146.813 97.5001,-146.812"/>
<text text-anchor="middle" x="127" y="-125.4" font-family="Helvetica,sans-Serif" font-size="14.00"> IntPoint</text>
</g>
</g>
</svg>
