<?xml version="1.0" encoding="UTF-8" standalone="no"?>
<!DOCTYPE svg PUBLIC "-//W3C//DTD SVG 1.1//EN"
 "http://www.w3.org/Graphics/SVG/1.1/DTD/svg11.dtd">
<!-- Generated by graphviz version 2.26.3 (20100126.1600)
 -->
<!-- Title: mfem::L2_SegmentElement Pages: 1 -->
<svg width="196pt" height="158pt"
 viewBox="0.00 0.00 196.00 158.00" xmlns="http://www.w3.org/2000/svg" xmlns:xlink="http://www.w3.org/1999/xlink">
<g id="graph1" class="graph" transform="scale(1 1) rotate(0) translate(4 154)">
<title>mfem::L2_SegmentElement</title>
<polygon fill="white" stroke="white" points="-4,5 -4,-154 193,-154 193,5 -4,5"/>
<!-- Node1 -->
<g id="node1" class="node"><title>Node1</title>
<polygon fill="#bfbfbf" stroke="black" points="-0.5,-1 -0.5,-25 188.5,-25 188.5,-1 -0.5,-1"/>
<text text-anchor="middle" x="94" y="-8.4" font-family="Helvetica,sans-Serif" font-size="14.00">mfem::L2_SegmentElement</text>
</g>
<!-- Node2 -->
<g id="node2" class="node"><title>Node2</title>
<a xlink:href="classmfem_1_1NodalFiniteElement.html" target="_top" xlink:title="mfem::NodalFiniteElement">
<polygon fill="white" stroke="black" points="4,-63 4,-87 184,-87 184,-63 4,-63"/>
<text text-anchor="middle" x="94" y="-70.4" font-family="Helvetica,sans-Serif" font-size="14.00">mfem::NodalFiniteElement</text>
</a>
</g>
<!-- Node2&#45;&gt;Node1 -->
<g id="edge2" class="edge"><title>Node2&#45;&gt;Node1</title>
<path fill="none" stroke="midnightblue" d="M94,-52.63C94,-43.3865 94,-33.0306 94,-25.2238"/>
<polygon fill="midnightblue" stroke="midnightblue" points="90.5001,-52.7508 94,-62.7508 97.5001,-52.7508 90.5001,-52.7508"/>
</g>
<!-- Node3 -->
<g id="node4" class="node"><title>Node3</title>
<a xlink:href="classmfem_1_1FiniteElement.html" target="_top" xlink:title="Abstract class for Finite Elements. ">
<polygon fill="white" stroke="black" points="22,-125 22,-149 166,-149 166,-125 22,-125"/>
<text text-anchor="middle" x="94" y="-132.4" font-family="Helvetica,sans-Serif" font-size="14.00">mfem::FiniteElement</text>
</a>
</g>
<!-- Node3&#45;&gt;Node2 -->
<g id="edge4" class="edge"><title>Node3&#45;&gt;Node2</title>
<path fill="none" stroke="midnightblue" d="M94,-114.63C94,-105.386 94,-95.0306 94,-87.2238"/>
<polygon fill="midnightblue" stroke="midnightblue" points="90.5001,-114.751 94,-124.751 97.5001,-114.751 90.5001,-114.751"/>
</g>
</g>
</svg>
