<?xml version="1.0" encoding="UTF-8" standalone="no"?>
<!DOCTYPE svg PUBLIC "-//W3C//DTD SVG 1.1//EN"
 "http://www.w3.org/Graphics/SVG/1.1/DTD/svg11.dtd">
<!-- Generated by graphviz version 2.26.3 (20100126.1600)
 -->
<!-- Title: mfem::UMFPackSolver Pages: 1 -->
<svg width="291pt" height="328pt"
 viewBox="0.00 0.00 291.00 328.00" xmlns="http://www.w3.org/2000/svg" xmlns:xlink="http://www.w3.org/1999/xlink">
<g id="graph1" class="graph" transform="scale(1 1) rotate(0) translate(4 324)">
<title>mfem::UMFPackSolver</title>
<polygon fill="white" stroke="white" points="-4,5 -4,-324 288,-324 288,5 -4,5"/>
<!-- Node1 -->
<g id="node1" class="node"><title>Node1</title>
<polygon fill="#bfbfbf" stroke="black" points="-0.5,-1 -0.5,-25 158.5,-25 158.5,-1 -0.5,-1"/>
<text text-anchor="middle" x="79" y="-8.4" font-family="Helvetica,sans-Serif" font-size="14.00">mfem::UMFPackSolver</text>
</g>
<!-- Node2 -->
<g id="node2" class="node"><title>Node2</title>
<a xlink:href="classmfem_1_1Solver.html" target="_top" xlink:title="Base class for solvers. ">
<polygon fill="white" stroke="black" points="38,-187 38,-211 136,-211 136,-187 38,-187"/>
<text text-anchor="middle" x="87" y="-194.4" font-family="Helvetica,sans-Serif" font-size="14.00">mfem::Solver</text>
</a>
</g>
<!-- Node2&#45;&gt;Node1 -->
<g id="edge2" class="edge"><title>Node2&#45;&gt;Node1</title>
<path fill="none" stroke="midnightblue" d="M83.0747,-177.096C82.6435,-174.049 82.2653,-170.952 82,-168 77.2298,-114.923 78.0439,-51.2275 78.6576,-25.0901"/>
<polygon fill="midnightblue" stroke="midnightblue" points="79.6199,-177.657 84.6573,-186.978 86.5318,-176.55 79.6199,-177.657"/>
</g>
<!-- Node3 -->
<g id="node4" class="node"><title>Node3</title>
<a xlink:href="classmfem_1_1Operator.html" target="_top" xlink:title="Abstract operator. ">
<polygon fill="white" stroke="black" points="62.5,-295 62.5,-319 175.5,-319 175.5,-295 62.5,-295"/>
<text text-anchor="middle" x="119" y="-302.4" font-family="Helvetica,sans-Serif" font-size="14.00">mfem::Operator</text>
</a>
</g>
<!-- Node3&#45;&gt;Node2 -->
<g id="edge4" class="edge"><title>Node3&#45;&gt;Node2</title>
<path fill="none" stroke="midnightblue" d="M112.481,-284.998C105.887,-262.743 95.9319,-229.145 90.628,-211.244"/>
<polygon fill="midnightblue" stroke="midnightblue" points="109.132,-286.017 115.329,-294.611 115.844,-284.029 109.132,-286.017"/>
</g>
<!-- Node6 -->
<g id="node10" class="node"><title>Node6</title>
<a xlink:href="classmfem_1_1Matrix.html" target="_top" xlink:title="Abstract data type matrix. ">
<polygon fill="white" stroke="black" points="123.5,-231 123.5,-255 220.5,-255 220.5,-231 123.5,-231"/>
<text text-anchor="middle" x="172" y="-238.4" font-family="Helvetica,sans-Serif" font-size="14.00">mfem::Matrix</text>
</a>
</g>
<!-- Node3&#45;&gt;Node6 -->
<g id="edge12" class="edge"><title>Node3&#45;&gt;Node6</title>
<path fill="none" stroke="midnightblue" d="M135.415,-287.178C144.003,-276.807 154.252,-264.432 161.714,-255.42"/>
<polygon fill="midnightblue" stroke="midnightblue" points="132.651,-285.028 128.969,-294.962 138.043,-289.493 132.651,-285.028"/>
</g>
<!-- Node4 -->
<g id="node6" class="node"><title>Node4</title>
<a xlink:href="classmfem_1_1SparseMatrix.html" target="_top" xlink:title="Data type sparse matrix. ">
<polygon fill="white" stroke="black" points="103.5,-79 103.5,-103 244.5,-103 244.5,-79 103.5,-79"/>
<text text-anchor="middle" x="174" y="-86.4" font-family="Helvetica,sans-Serif" font-size="14.00">mfem::SparseMatrix</text>
</a>
</g>
<!-- Node4&#45;&gt;Node1 -->
<g id="edge6" class="edge"><title>Node4&#45;&gt;Node1</title>
<path fill="none" stroke="#9a32cd" stroke-dasharray="5,2" d="M150.986,-72.1044C133.173,-57.479 109.037,-37.662 93.7395,-25.1019"/>
<polygon fill="#9a32cd" stroke="#9a32cd" points="149.207,-75.1719 159.156,-78.8125 153.649,-69.7618 149.207,-75.1719"/>
<text text-anchor="middle" x="149.5" y="-47.4" font-family="Helvetica,sans-Serif" font-size="14.00"> mat</text>
</g>
<!-- Node5 -->
<g id="node8" class="node"><title>Node5</title>
<a xlink:href="classmfem_1_1AbstractSparseMatrix.html" target="_top" xlink:title="Abstract data type for sparse matrices. ">
<polygon fill="white" stroke="black" points="91,-143 91,-167 283,-167 283,-143 91,-143"/>
<text text-anchor="middle" x="187" y="-150.4" font-family="Helvetica,sans-Serif" font-size="14.00">mfem::AbstractSparseMatrix</text>
</a>
</g>
<!-- Node5&#45;&gt;Node4 -->
<g id="edge8" class="edge"><title>Node5&#45;&gt;Node4</title>
<path fill="none" stroke="midnightblue" d="M182.53,-132.995C180.522,-123.108 178.226,-111.807 176.523,-103.42"/>
<polygon fill="midnightblue" stroke="midnightblue" points="179.134,-133.859 184.555,-142.962 185.994,-132.465 179.134,-133.859"/>
</g>
<!-- Node6&#45;&gt;Node5 -->
<g id="edge10" class="edge"><title>Node6&#45;&gt;Node5</title>
<path fill="none" stroke="midnightblue" d="M175.823,-220.572C178.72,-203.578 182.589,-180.879 184.932,-167.132"/>
<polygon fill="midnightblue" stroke="midnightblue" points="172.316,-220.318 174.086,-230.764 179.216,-221.494 172.316,-220.318"/>
</g>
</g>
</svg>
