<?xml version="1.0" encoding="UTF-8" standalone="no"?>
<!DOCTYPE svg PUBLIC "-//W3C//DTD SVG 1.1//EN"
 "http://www.w3.org/Graphics/SVG/1.1/DTD/svg11.dtd">
<!-- Generated by graphviz version 2.26.3 (20100126.1600)
 -->
<!-- Title: mfem::AbstractSparseMatrix Pages: 1 -->
<svg width="296pt" height="220pt"
 viewBox="0.00 0.00 296.00 220.00" xmlns="http://www.w3.org/2000/svg" xmlns:xlink="http://www.w3.org/1999/xlink">
<g id="graph1" class="graph" transform="scale(1 1) rotate(0) translate(4 216)">
<title>mfem::AbstractSparseMatrix</title>
<polygon fill="white" stroke="white" points="-4,5 -4,-216 293,-216 293,5 -4,5"/>
<!-- Node1 -->
<g id="node1" class="node"><title>Node1</title>
<polygon fill="#bfbfbf" stroke="black" points="45,-63 45,-87 237,-87 237,-63 45,-63"/>
<text text-anchor="middle" x="141" y="-70.4" font-family="Helvetica,sans-Serif" font-size="14.00">mfem::AbstractSparseMatrix</text>
</g>
<!-- Node4 -->
<g id="node7" class="node"><title>Node4</title>
<a xlink:href="classmfem_1_1BlockMatrix.html" target="_top" xlink:title="mfem::BlockMatrix">
<polygon fill="white" stroke="black" points="-0.5,-1 -0.5,-25 130.5,-25 130.5,-1 -0.5,-1"/>
<text text-anchor="middle" x="65" y="-8.4" font-family="Helvetica,sans-Serif" font-size="14.00">mfem::BlockMatrix</text>
</a>
</g>
<!-- Node1&#45;&gt;Node4 -->
<g id="edge6" class="edge"><title>Node1&#45;&gt;Node4</title>
<path fill="none" stroke="midnightblue" d="M118.235,-56.4284C105.757,-46.2492 90.653,-33.9274 79.7254,-25.0128"/>
<polygon fill="midnightblue" stroke="midnightblue" points="116.024,-59.1415 125.985,-62.7508 120.449,-53.7175 116.024,-59.1415"/>
</g>
<!-- Node5 -->
<g id="node9" class="node"><title>Node5</title>
<a xlink:href="classmfem_1_1SparseMatrix.html" target="_top" xlink:title="Data type sparse matrix. ">
<polygon fill="white" stroke="black" points="147.5,-1 147.5,-25 288.5,-25 288.5,-1 147.5,-1"/>
<text text-anchor="middle" x="218" y="-8.4" font-family="Helvetica,sans-Serif" font-size="14.00">mfem::SparseMatrix</text>
</a>
</g>
<!-- Node1&#45;&gt;Node5 -->
<g id="edge8" class="edge"><title>Node1&#45;&gt;Node5</title>
<path fill="none" stroke="midnightblue" d="M164.065,-56.4284C176.707,-46.2492 192.009,-33.9274 203.081,-25.0128"/>
<polygon fill="midnightblue" stroke="midnightblue" points="161.807,-53.753 156.213,-62.7508 166.197,-59.2053 161.807,-53.753"/>
</g>
<!-- Node2 -->
<g id="node2" class="node"><title>Node2</title>
<a xlink:href="classmfem_1_1Matrix.html" target="_top" xlink:title="Abstract data type matrix. ">
<polygon fill="white" stroke="black" points="92.5,-125 92.5,-149 189.5,-149 189.5,-125 92.5,-125"/>
<text text-anchor="middle" x="141" y="-132.4" font-family="Helvetica,sans-Serif" font-size="14.00">mfem::Matrix</text>
</a>
</g>
<!-- Node2&#45;&gt;Node1 -->
<g id="edge2" class="edge"><title>Node2&#45;&gt;Node1</title>
<path fill="none" stroke="midnightblue" d="M141,-114.63C141,-105.386 141,-95.0306 141,-87.2238"/>
<polygon fill="midnightblue" stroke="midnightblue" points="137.5,-114.751 141,-124.751 144.5,-114.751 137.5,-114.751"/>
</g>
<!-- Node3 -->
<g id="node4" class="node"><title>Node3</title>
<a xlink:href="classmfem_1_1Operator.html" target="_top" xlink:title="Abstract operator. ">
<polygon fill="white" stroke="black" points="84.5,-187 84.5,-211 197.5,-211 197.5,-187 84.5,-187"/>
<text text-anchor="middle" x="141" y="-194.4" font-family="Helvetica,sans-Serif" font-size="14.00">mfem::Operator</text>
</a>
</g>
<!-- Node3&#45;&gt;Node2 -->
<g id="edge4" class="edge"><title>Node3&#45;&gt;Node2</title>
<path fill="none" stroke="midnightblue" d="M141,-176.63C141,-167.386 141,-157.031 141,-149.224"/>
<polygon fill="midnightblue" stroke="midnightblue" points="137.5,-176.751 141,-186.751 144.5,-176.751 137.5,-176.751"/>
</g>
</g>
</svg>
