<?xml version="1.0" encoding="UTF-8" standalone="no"?>
<!DOCTYPE svg PUBLIC "-//W3C//DTD SVG 1.1//EN"
 "http://www.w3.org/Graphics/SVG/1.1/DTD/svg11.dtd">
<!-- Generated by graphviz version 2.30.1 (20200304.1809)
 -->
<!-- Title: mfem::RT_FECollection Pages: 1 -->
<svg width="415pt" height="168pt"
 viewBox="0.00 0.00 415.00 168.00" xmlns="http://www.w3.org/2000/svg" xmlns:xlink="http://www.w3.org/1999/xlink">
<g id="graph0" class="graph" transform="scale(1 1) rotate(0) translate(4 164)">
<title>mfem::RT_FECollection</title>
<polygon fill="white" stroke="white" points="-4,5 -4,-164 412,-164 412,5 -4,5"/>
<!-- Node1 -->
<g id="node1" class="node"><title>Node1</title>
<polygon fill="#bfbfbf" stroke="black" points="96.5,-76.5 96.5,-99.5 277.5,-99.5 277.5,-76.5 96.5,-76.5"/>
<text text-anchor="middle" x="187" y="-84.3" font-family="Helvetica,sans-Serif" font-size="14.00">mfem::RT_FECollection</text>
</g>
<!-- Node3 -->
<g id="node3" class="node"><title>Node3</title>
<g id="a_node3"><a xlink:href="classmfem_1_1DG__Interface__FECollection.html" target="_top" xlink:title="mfem::DG_Interface\l_FECollection">
<polygon fill="white" stroke="black" points="-0.5,-1 -0.5,-39 162.5,-39 162.5,-1 -0.5,-1"/>
<text text-anchor="start" x="7.5" y="-23.8" font-family="Helvetica,sans-Serif" font-size="14.00">mfem::DG_Interface</text>
<text text-anchor="middle" x="81" y="-8.8" font-family="Helvetica,sans-Serif" font-size="14.00">_FECollection</text>
</a>
</g>
</g>
<!-- Node1&#45;&gt;Node3 -->
<g id="edge2" class="edge"><title>Node1&#45;&gt;Node3</title>
<path fill="none" stroke="midnightblue" d="M161.399,-71.0596C145.892,-61.4044 126.069,-49.0619 109.987,-39.0484"/>
<polygon fill="midnightblue" stroke="midnightblue" points="159.63,-74.0815 169.969,-76.396 163.33,-68.1392 159.63,-74.0815"/>
</g>
<!-- Node4 -->
<g id="node4" class="node"><title>Node4</title>
<g id="a_node4"><a xlink:href="classmfem_1_1RT__Trace__FECollection.html" target="_top" xlink:title="mfem::RT_Trace_FECollection">
<polygon fill="white" stroke="black" points="180.5,-8.5 180.5,-31.5 407.5,-31.5 407.5,-8.5 180.5,-8.5"/>
<text text-anchor="middle" x="294" y="-16.3" font-family="Helvetica,sans-Serif" font-size="14.00">mfem::RT_Trace_FECollection</text>
</a>
</g>
</g>
<!-- Node1&#45;&gt;Node4 -->
<g id="edge3" class="edge"><title>Node1&#45;&gt;Node4</title>
<path fill="none" stroke="midnightblue" d="M212.763,-71.1086C232.631,-58.8541 259.552,-42.2485 276.851,-31.5777"/>
<polygon fill="midnightblue" stroke="midnightblue" points="210.865,-68.1672 204.191,-76.396 214.54,-74.125 210.865,-68.1672"/>
</g>
<!-- Node2 -->
<g id="node2" class="node"><title>Node2</title>
<g id="a_node2"><a xlink:href="classmfem_1_1FiniteElementCollection.html" target="_top" xlink:title="mfem::FiniteElementCollection">
<polygon fill="white" stroke="black" points="69,-136.5 69,-159.5 305,-159.5 305,-136.5 69,-136.5"/>
<text text-anchor="middle" x="187" y="-144.3" font-family="Helvetica,sans-Serif" font-size="14.00">mfem::FiniteElementCollection</text>
</a>
</g>
</g>
<!-- Node2&#45;&gt;Node1 -->
<g id="edge1" class="edge"><title>Node2&#45;&gt;Node1</title>
<path fill="none" stroke="midnightblue" d="M187,-126.191C187,-117.168 187,-106.994 187,-99.5707"/>
<polygon fill="midnightblue" stroke="midnightblue" points="183.5,-126.362 187,-136.362 190.5,-126.362 183.5,-126.362"/>
</g>
</g>
</svg>
