<?xml version="1.0" encoding="UTF-8" standalone="no"?>
<!DOCTYPE svg PUBLIC "-//W3C//DTD SVG 1.1//EN"
 "http://www.w3.org/Graphics/SVG/1.1/DTD/svg11.dtd">
<!-- Generated by graphviz version 2.30.1 (20200304.1809)
 -->
<!-- Title: mfem::gzstreambase Pages: 1 -->
<svg width="338pt" height="232pt"
 viewBox="0.00 0.00 338.00 232.00" xmlns="http://www.w3.org/2000/svg" xmlns:xlink="http://www.w3.org/1999/xlink">
<g id="graph0" class="graph" transform="scale(1 1) rotate(0) translate(4 228)">
<title>mfem::gzstreambase</title>
<polygon fill="white" stroke="white" points="-4,5 -4,-228 335,-228 335,5 -4,5"/>
<!-- Node1 -->
<g id="node1" class="node"><title>Node1</title>
<polygon fill="#bfbfbf" stroke="black" points="106,-0.5 106,-23.5 276,-23.5 276,-0.5 106,-0.5"/>
<text text-anchor="middle" x="191" y="-8.3" font-family="Helvetica,sans-Serif" font-size="14.00">mfem::gzstreambase</text>
</g>
<!-- Node2 -->
<g id="node2" class="node"><title>Node2</title>
<g id="a_node2"><a xlink:title="STL class. ">
<polygon fill="white" stroke="#bfbfbf" points="68,-76.5 68,-99.5 136,-99.5 136,-76.5 68,-76.5"/>
<text text-anchor="middle" x="102" y="-84.3" font-family="Helvetica,sans-Serif" font-size="14.00">std::ios</text>
</a>
</g>
</g>
<!-- Node2&#45;&gt;Node1 -->
<g id="edge1" class="edge"><title>Node2&#45;&gt;Node1</title>
<path fill="none" stroke="midnightblue" d="M122.576,-69.8918C139.769,-55.5964 163.743,-35.6634 178.272,-23.5827"/>
<polygon fill="midnightblue" stroke="midnightblue" points="120.203,-67.313 114.752,-76.3976 124.679,-72.6955 120.203,-67.313"/>
</g>
<!-- Node3 -->
<g id="node3" class="node"><title>Node3</title>
<g id="a_node3"><a xlink:title="STL class. ">
<polygon fill="white" stroke="#bfbfbf" points="0,-138.5 0,-161.5 176,-161.5 176,-138.5 0,-138.5"/>
<text text-anchor="middle" x="88" y="-146.3" font-family="Helvetica,sans-Serif" font-size="14.00">std::basic_ios&lt; char &gt;</text>
</a>
</g>
</g>
<!-- Node3&#45;&gt;Node2 -->
<g id="edge2" class="edge"><title>Node3&#45;&gt;Node2</title>
<path fill="none" stroke="midnightblue" d="M92.846,-128.231C95.0952,-118.592 97.673,-107.544 99.5187,-99.6339"/>
<polygon fill="midnightblue" stroke="midnightblue" points="89.3668,-127.739 90.5029,-138.273 96.1837,-129.33 89.3668,-127.739"/>
</g>
<!-- Node4 -->
<g id="node4" class="node"><title>Node4</title>
<g id="a_node4"><a xlink:title="STL class. ">
<polygon fill="white" stroke="#bfbfbf" points="33,-200.5 33,-223.5 143,-223.5 143,-200.5 33,-200.5"/>
<text text-anchor="middle" x="88" y="-208.3" font-family="Helvetica,sans-Serif" font-size="14.00">std::ios_base</text>
</a>
</g>
</g>
<!-- Node4&#45;&gt;Node3 -->
<g id="edge3" class="edge"><title>Node4&#45;&gt;Node3</title>
<path fill="none" stroke="midnightblue" d="M88,-190.231C88,-180.592 88,-169.544 88,-161.634"/>
<polygon fill="midnightblue" stroke="midnightblue" points="84.5001,-190.273 88,-200.273 91.5001,-190.273 84.5001,-190.273"/>
</g>
<!-- Node5 -->
<g id="node5" class="node"><title>Node5</title>
<g id="a_node5"><a xlink:href="classmfem_1_1gzstreambuf.html" target="_top" xlink:title="mfem::gzstreambuf">
<polygon fill="white" stroke="black" points="171.5,-76.5 171.5,-99.5 330.5,-99.5 330.5,-76.5 171.5,-76.5"/>
<text text-anchor="middle" x="251" y="-84.3" font-family="Helvetica,sans-Serif" font-size="14.00">mfem::gzstreambuf</text>
</a>
</g>
</g>
<!-- Node5&#45;&gt;Node1 -->
<g id="edge4" class="edge"><title>Node5&#45;&gt;Node1</title>
<path fill="none" stroke="#9a32cd" stroke-dasharray="5,2" d="M235.846,-68.3106C224.371,-54.1571 209.02,-35.2241 199.581,-23.5827"/>
<polygon fill="#9a32cd" stroke="#9a32cd" points="233.387,-70.8343 242.403,-76.3976 238.824,-66.4257 233.387,-70.8343"/>
<text text-anchor="middle" x="241" y="-46.3" font-family="Helvetica,sans-Serif" font-size="14.00"> buf</text>
</g>
<!-- Node6 -->
<g id="node6" class="node"><title>Node6</title>
<polygon fill="white" stroke="#bfbfbf" points="194,-138.5 194,-161.5 316,-161.5 316,-138.5 194,-138.5"/>
<text text-anchor="middle" x="255" y="-146.3" font-family="Helvetica,sans-Serif" font-size="14.00">std::streambuf</text>
</g>
<!-- Node6&#45;&gt;Node5 -->
<g id="edge5" class="edge"><title>Node6&#45;&gt;Node5</title>
<path fill="none" stroke="midnightblue" d="M253.615,-128.231C252.973,-118.592 252.236,-107.544 251.709,-99.6339"/>
<polygon fill="midnightblue" stroke="midnightblue" points="250.127,-128.528 254.285,-138.273 257.112,-128.063 250.127,-128.528"/>
</g>
</g>
</svg>
