<?xml version="1.0" encoding="UTF-8" standalone="no"?>
<!DOCTYPE svg PUBLIC "-//W3C//DTD SVG 1.1//EN"
 "http://www.w3.org/Graphics/SVG/1.1/DTD/svg11.dtd">
<!-- Generated by graphviz version 2.30.1 (20200304.1809)
 -->
<!-- Title: mfem::miniapps::ElementMeshStream Pages: 1 -->
<svg width="324pt" height="456pt"
 viewBox="0.00 0.00 324.00 456.00" xmlns="http://www.w3.org/2000/svg" xmlns:xlink="http://www.w3.org/1999/xlink">
<g id="graph0" class="graph" transform="scale(1 1) rotate(0) translate(4 452)">
<title>mfem::miniapps::ElementMeshStream</title>
<polygon fill="white" stroke="white" points="-4,5 -4,-452 321,-452 321,5 -4,5"/>
<!-- Node1 -->
<g id="node1" class="node"><title>Node1</title>
<polygon fill="#bfbfbf" stroke="black" points="36.5,-1 36.5,-39 275.5,-39 275.5,-1 36.5,-1"/>
<text text-anchor="start" x="44.5" y="-23.8" font-family="Helvetica,sans-Serif" font-size="14.00">mfem::miniapps::ElementMesh</text>
<text text-anchor="middle" x="156" y="-8.8" font-family="Helvetica,sans-Serif" font-size="14.00">Stream</text>
</g>
<!-- Node2 -->
<g id="node2" class="node"><title>Node2</title>
<g id="a_node2"><a xlink:title="STL class. ">
<polygon fill="white" stroke="#bfbfbf" points="86.5,-76.5 86.5,-99.5 225.5,-99.5 225.5,-76.5 86.5,-76.5"/>
<text text-anchor="middle" x="156" y="-84.3" font-family="Helvetica,sans-Serif" font-size="14.00">std::stringstream</text>
</a>
</g>
</g>
<!-- Node2&#45;&gt;Node1 -->
<g id="edge1" class="edge"><title>Node2&#45;&gt;Node1</title>
<path fill="none" stroke="midnightblue" d="M156,-66.2742C156,-57.5413 156,-47.471 156,-39.0484"/>
<polygon fill="midnightblue" stroke="midnightblue" points="152.5,-66.3959 156,-76.396 159.5,-66.396 152.5,-66.3959"/>
</g>
<!-- Node3 -->
<g id="node3" class="node"><title>Node3</title>
<g id="a_node3"><a xlink:title="STL class. ">
<polygon fill="white" stroke="#bfbfbf" points="64.5,-137 64.5,-175 247.5,-175 247.5,-137 64.5,-137"/>
<text text-anchor="start" x="72.5" y="-159.8" font-family="Helvetica,sans-Serif" font-size="14.00">std::basic_stringstream</text>
<text text-anchor="middle" x="156" y="-144.8" font-family="Helvetica,sans-Serif" font-size="14.00">&lt; char &gt;</text>
</a>
</g>
</g>
<!-- Node3&#45;&gt;Node2 -->
<g id="edge2" class="edge"><title>Node3&#45;&gt;Node2</title>
<path fill="none" stroke="midnightblue" d="M156,-126.936C156,-117.342 156,-107.178 156,-99.7878"/>
<polygon fill="midnightblue" stroke="midnightblue" points="152.5,-126.965 156,-136.965 159.5,-126.965 152.5,-126.965"/>
</g>
<!-- Node4 -->
<g id="node4" class="node"><title>Node4</title>
<g id="a_node4"><a xlink:title="STL class. ">
<polygon fill="white" stroke="#bfbfbf" points="78.5,-213 78.5,-251 233.5,-251 233.5,-213 78.5,-213"/>
<text text-anchor="start" x="86.5" y="-235.8" font-family="Helvetica,sans-Serif" font-size="14.00">std::basic_iostream</text>
<text text-anchor="middle" x="156" y="-220.8" font-family="Helvetica,sans-Serif" font-size="14.00">&lt; Char &gt;</text>
</a>
</g>
</g>
<!-- Node4&#45;&gt;Node3 -->
<g id="edge3" class="edge"><title>Node4&#45;&gt;Node3</title>
<path fill="none" stroke="midnightblue" d="M156,-202.702C156,-193.431 156,-183.387 156,-175.082"/>
<polygon fill="midnightblue" stroke="midnightblue" points="152.5,-202.708 156,-212.708 159.5,-202.708 152.5,-202.708"/>
</g>
<!-- Node5 -->
<g id="node5" class="node"><title>Node5</title>
<g id="a_node5"><a xlink:title="STL class. ">
<polygon fill="white" stroke="#bfbfbf" points="0,-289 0,-327 146,-327 146,-289 0,-289"/>
<text text-anchor="start" x="8" y="-311.8" font-family="Helvetica,sans-Serif" font-size="14.00">std::basic_istream</text>
<text text-anchor="middle" x="73" y="-296.8" font-family="Helvetica,sans-Serif" font-size="14.00">&lt; Char &gt;</text>
</a>
</g>
</g>
<!-- Node5&#45;&gt;Node4 -->
<g id="edge4" class="edge"><title>Node5&#45;&gt;Node4</title>
<path fill="none" stroke="midnightblue" d="M101.09,-281.956C112.446,-271.831 125.303,-260.369 135.719,-251.082"/>
<polygon fill="midnightblue" stroke="midnightblue" points="98.6519,-279.441 93.5169,-288.708 103.31,-284.665 98.6519,-279.441"/>
</g>
<!-- Node6 -->
<g id="node6" class="node"><title>Node6</title>
<g id="a_node6"><a xlink:title="STL class. ">
<polygon fill="white" stroke="#bfbfbf" points="66.5,-364.5 66.5,-387.5 245.5,-387.5 245.5,-364.5 66.5,-364.5"/>
<text text-anchor="middle" x="156" y="-372.3" font-family="Helvetica,sans-Serif" font-size="14.00">std::basic_ios&lt; Char &gt;</text>
</a>
</g>
</g>
<!-- Node6&#45;&gt;Node5 -->
<g id="edge5" class="edge"><title>Node6&#45;&gt;Node5</title>
<path fill="none" stroke="midnightblue" d="M134.578,-357.966C122.655,-348.485 107.819,-336.688 95.6973,-327.048"/>
<polygon fill="midnightblue" stroke="midnightblue" points="132.659,-360.911 142.665,-364.396 137.016,-355.433 132.659,-360.911"/>
</g>
<!-- Node8 -->
<g id="node8" class="node"><title>Node8</title>
<g id="a_node8"><a xlink:title="STL class. ">
<polygon fill="white" stroke="#bfbfbf" points="164,-289 164,-327 316,-327 316,-289 164,-289"/>
<text text-anchor="start" x="172" y="-311.8" font-family="Helvetica,sans-Serif" font-size="14.00">std::basic_ostream</text>
<text text-anchor="middle" x="240" y="-296.8" font-family="Helvetica,sans-Serif" font-size="14.00">&lt; Char &gt;</text>
</a>
</g>
</g>
<!-- Node6&#45;&gt;Node8 -->
<g id="edge8" class="edge"><title>Node6&#45;&gt;Node8</title>
<path fill="none" stroke="midnightblue" d="M177.68,-357.966C189.747,-348.485 204.761,-336.688 217.029,-327.048"/>
<polygon fill="midnightblue" stroke="midnightblue" points="175.197,-355.466 169.496,-364.396 179.522,-360.97 175.197,-355.466"/>
</g>
<!-- Node7 -->
<g id="node7" class="node"><title>Node7</title>
<g id="a_node7"><a xlink:title="STL class. ">
<polygon fill="white" stroke="#bfbfbf" points="101,-424.5 101,-447.5 211,-447.5 211,-424.5 101,-424.5"/>
<text text-anchor="middle" x="156" y="-432.3" font-family="Helvetica,sans-Serif" font-size="14.00">std::ios_base</text>
</a>
</g>
</g>
<!-- Node7&#45;&gt;Node6 -->
<g id="edge6" class="edge"><title>Node7&#45;&gt;Node6</title>
<path fill="none" stroke="midnightblue" d="M156,-414.191C156,-405.168 156,-394.994 156,-387.571"/>
<polygon fill="midnightblue" stroke="midnightblue" points="152.5,-414.362 156,-424.362 159.5,-414.362 152.5,-414.362"/>
</g>
<!-- Node8&#45;&gt;Node4 -->
<g id="edge7" class="edge"><title>Node8&#45;&gt;Node4</title>
<path fill="none" stroke="midnightblue" d="M211.571,-281.956C200.079,-271.831 187.067,-260.369 176.525,-251.082"/>
<polygon fill="midnightblue" stroke="midnightblue" points="209.419,-284.724 219.236,-288.708 214.046,-279.471 209.419,-284.724"/>
</g>
</g>
</svg>
