<?xml version="1.0" encoding="UTF-8" standalone="no"?>
<!DOCTYPE svg PUBLIC "-//W3C//DTD SVG 1.1//EN"
 "http://www.w3.org/Graphics/SVG/1.1/DTD/svg11.dtd">
<!-- Generated by graphviz version 2.30.1 (20200304.1809)
 -->
<!-- Title: mfem::DataCollection Pages: 1 -->
<svg width="1386pt" height="486pt"
 viewBox="0.00 0.00 1386.00 486.36" xmlns="http://www.w3.org/2000/svg" xmlns:xlink="http://www.w3.org/1999/xlink">
<g id="graph0" class="graph" transform="scale(1 1) rotate(0) translate(4 482.358)">
<title>mfem::DataCollection</title>
<polygon fill="white" stroke="white" points="-4,5 -4,-482.358 1383,-482.358 1383,5 -4,5"/>
<!-- Node1 -->
<g id="node1" class="node"><title>Node1</title>
<polygon fill="#bfbfbf" stroke="black" points="1204.5,-88.8578 1204.5,-111.858 1377.5,-111.858 1377.5,-88.8578 1204.5,-88.8578"/>
<text text-anchor="middle" x="1291" y="-96.6578" font-family="Helvetica,sans-Serif" font-size="14.00">mfem::DataCollection</text>
</g>
<!-- Node2 -->
<g id="node2" class="node"><title>Node2</title>
<g id="a_node2"><a xlink:href="classmfem_1_1Mesh.html" target="_top" xlink:title="mfem::Mesh">
<polygon fill="white" stroke="red" points="927,-186.858 927,-209.858 1033,-209.858 1033,-186.858 927,-186.858"/>
<text text-anchor="middle" x="980" y="-194.658" font-family="Helvetica,sans-Serif" font-size="14.00">mfem::Mesh</text>
</a>
</g>
</g>
<!-- Node2&#45;&gt;Node1 -->
<g id="edge1" class="edge"><title>Node2&#45;&gt;Node1</title>
<path fill="none" stroke="#9a32cd" stroke-dasharray="5,2" d="M1031.67,-184.084C1073.3,-172.164 1133.71,-154.425 1186,-137.358 1210.59,-129.33 1238.17,-119.479 1258.74,-111.961"/>
<polygon fill="#9a32cd" stroke="#9a32cd" points="1030.69,-180.724 1022.04,-186.835 1032.61,-187.455 1030.69,-180.724"/>
<text text-anchor="middle" x="1140" y="-169.158" font-family="Helvetica,sans-Serif" font-size="14.00"> mesh</text>
</g>
<!-- Node3 -->
<g id="node3" class="node"><title>Node3</title>
<g id="a_node3"><a xlink:href="classmfem_1_1IsoparametricTransformation.html" target="_top" xlink:title="mfem::IsoparametricTransformation">
<polygon fill="white" stroke="red" points="424.5,-424.858 424.5,-447.858 701.5,-447.858 701.5,-424.858 424.5,-424.858"/>
<text text-anchor="middle" x="563" y="-432.658" font-family="Helvetica,sans-Serif" font-size="14.00">mfem::IsoparametricTransformation</text>
</a>
</g>
</g>
<!-- Node3&#45;&gt;Node2 -->
<g id="edge2" class="edge"><title>Node3&#45;&gt;Node2</title>
<path fill="none" stroke="#9a32cd" stroke-dasharray="5,2" d="M708.116,-422.925C761.602,-412.354 820.311,-393.589 866,-360.358 922.85,-319.009 961.113,-240 974.101,-210.161"/>
<polygon fill="#9a32cd" stroke="#9a32cd" points="707.368,-419.505 698.195,-424.806 708.671,-426.382 707.368,-419.505"/>
<text text-anchor="middle" x="793" y="-467.158" font-family="Helvetica,sans-Serif" font-size="14.00"> FaceTransformation</text>
<text text-anchor="middle" x="793" y="-452.158" font-family="Helvetica,sans-Serif" font-size="14.00">Transformation2</text>
<text text-anchor="middle" x="793" y="-437.158" font-family="Helvetica,sans-Serif" font-size="14.00">Transformation</text>
<text text-anchor="middle" x="793" y="-422.158" font-family="Helvetica,sans-Serif" font-size="14.00">EdgeTransformation</text>
</g>
<!-- Node4 -->
<g id="node4" class="node"><title>Node4</title>
<g id="a_node4"><a xlink:href="classmfem_1_1Array.html" target="_top" xlink:title="mfem::Array\&lt; int \&gt;">
<polygon fill="white" stroke="red" points="53,-253.858 53,-276.858 211,-276.858 211,-253.858 53,-253.858"/>
<text text-anchor="middle" x="132" y="-261.658" font-family="Helvetica,sans-Serif" font-size="14.00">mfem::Array&lt; int &gt;</text>
</a>
</g>
</g>
<!-- Node4&#45;&gt;Node2 -->
<g id="edge3" class="edge"><title>Node4&#45;&gt;Node2</title>
<path fill="none" stroke="#9a32cd" stroke-dasharray="5,2" d="M160.601,-282.074C189.623,-298.595 237.207,-322.75 282,-332.358 335.886,-343.916 351.174,-337.96 406,-332.358 613.677,-311.137 664.693,-292.637 866,-237.358 894.418,-229.554 926.078,-218.408 948.639,-210.029"/>
<polygon fill="#9a32cd" stroke="#9a32cd" points="162.265,-278.993 151.858,-277.006 158.755,-285.049 162.265,-278.993"/>
<text text-anchor="middle" x="563" y="-378.158" font-family="Helvetica,sans-Serif" font-size="14.00"> attributes</text>
<text text-anchor="middle" x="563" y="-363.158" font-family="Helvetica,sans-Serif" font-size="14.00">be_to_edge</text>
<text text-anchor="middle" x="563" y="-348.158" font-family="Helvetica,sans-Serif" font-size="14.00">be_to_face</text>
<text text-anchor="middle" x="563" y="-333.158" font-family="Helvetica,sans-Serif" font-size="14.00">bdr_attributes</text>
</g>
<!-- Node5 -->
<g id="node5" class="node"><title>Node5</title>
<g id="a_node5"><a xlink:href="classmfem_1_1NCMesh.html" target="_top" xlink:title="A class for non&#45;conforming AMR on higher&#45;order hexahedral, quadrilateral or triangular meshes...">
<polygon fill="white" stroke="red" points="500,-218.858 500,-241.858 626,-241.858 626,-218.858 500,-218.858"/>
<text text-anchor="middle" x="563" y="-226.658" font-family="Helvetica,sans-Serif" font-size="14.00">mfem::NCMesh</text>
</a>
</g>
</g>
<!-- Node4&#45;&gt;Node5 -->
<g id="edge5" class="edge"><title>Node4&#45;&gt;Node5</title>
<path fill="none" stroke="#9a32cd" stroke-dasharray="5,2" d="M221.375,-258.148C304.489,-251.367 426.784,-241.389 499.995,-235.417"/>
<polygon fill="#9a32cd" stroke="#9a32cd" points="220.869,-254.677 211.186,-258.979 221.438,-261.654 220.869,-254.677"/>
<text text-anchor="middle" x="344" y="-317.158" font-family="Helvetica,sans-Serif" font-size="14.00"> vertex_nodeId</text>
<text text-anchor="middle" x="344" y="-302.158" font-family="Helvetica,sans-Serif" font-size="14.00">coarse_elements</text>
<text text-anchor="middle" x="344" y="-287.158" font-family="Helvetica,sans-Serif" font-size="14.00">leaf_elements</text>
<text text-anchor="middle" x="344" y="-272.158" font-family="Helvetica,sans-Serif" font-size="14.00">boundary_faces</text>
<text text-anchor="middle" x="344" y="-257.158" font-family="Helvetica,sans-Serif" font-size="14.00">free_element_ids</text>
</g>
<!-- Node5&#45;&gt;Node2 -->
<g id="edge4" class="edge"><title>Node5&#45;&gt;Node2</title>
<path fill="none" stroke="#9a32cd" stroke-dasharray="5,2" d="M636.245,-224.787C719.289,-218.384 853.55,-208.031 926.962,-202.37"/>
<polygon fill="#9a32cd" stroke="#9a32cd" points="635.831,-221.309 626.13,-225.567 636.369,-228.288 635.831,-221.309"/>
<text text-anchor="middle" x="793" y="-222.158" font-family="Helvetica,sans-Serif" font-size="14.00"> ncmesh</text>
</g>
<!-- Node6 -->
<g id="node6" class="node"><title>Node6</title>
<g id="a_node6"><a xlink:href="structmfem_1_1CoarseFineTransformations.html" target="_top" xlink:title="Defines the coarse&#45;fine transformations of all fine elements. ">
<polygon fill="white" stroke="red" points="0,-197.858 0,-220.858 264,-220.858 264,-197.858 0,-197.858"/>
<text text-anchor="middle" x="132" y="-205.658" font-family="Helvetica,sans-Serif" font-size="14.00">mfem::CoarseFineTransformations</text>
</a>
</g>
</g>
<!-- Node6&#45;&gt;Node5 -->
<g id="edge6" class="edge"><title>Node6&#45;&gt;Node5</title>
<path fill="none" stroke="#9a32cd" stroke-dasharray="5,2" d="M274.362,-213.626C316.709,-215.15 363.251,-217.068 406,-219.358 436.907,-221.013 471.223,-223.376 499.783,-225.487"/>
<polygon fill="#9a32cd" stroke="#9a32cd" points="274.38,-210.125 264.262,-213.267 274.132,-217.12 274.38,-210.125"/>
<text text-anchor="middle" x="344" y="-223.158" font-family="Helvetica,sans-Serif" font-size="14.00"> transforms</text>
</g>
<!-- Node6&#45;&gt;Node2 -->
<g id="edge7" class="edge"><title>Node6&#45;&gt;Node2</title>
<path fill="none" stroke="#9a32cd" stroke-dasharray="5,2" d="M274.106,-200.619C321.7,-198.062 375.135,-195.616 424,-194.358 547.515,-191.177 578.448,-193.466 702,-194.358 780.393,-194.924 871.256,-196.391 926.928,-197.382"/>
<polygon fill="#9a32cd" stroke="#9a32cd" points="273.838,-197.128 264.043,-201.166 274.218,-204.118 273.838,-197.128"/>
<text text-anchor="middle" x="563" y="-198.158" font-family="Helvetica,sans-Serif" font-size="14.00"> CoarseFineTr</text>
</g>
<!-- Node7 -->
<g id="node7" class="node"><title>Node7</title>
<g id="a_node7"><a xlink:href="classmfem_1_1Array.html" target="_top" xlink:title="mfem::Array\&lt; mfem::\lElement * \&gt;">
<polygon fill="white" stroke="red" points="475,-106.358 475,-144.358 651,-144.358 651,-106.358 475,-106.358"/>
<text text-anchor="start" x="483" y="-129.158" font-family="Helvetica,sans-Serif" font-size="14.00">mfem::Array&lt; mfem::</text>
<text text-anchor="middle" x="563" y="-114.158" font-family="Helvetica,sans-Serif" font-size="14.00">Element * &gt;</text>
</a>
</g>
</g>
<!-- Node7&#45;&gt;Node2 -->
<g id="edge8" class="edge"><title>Node7&#45;&gt;Node2</title>
<path fill="none" stroke="#9a32cd" stroke-dasharray="5,2" d="M661.543,-115.408C736.362,-109.654 832.345,-106.908 866,-126.358 879.794,-134.33 872.086,-146.78 884,-157.358 899.045,-170.716 919.109,-180.233 936.921,-186.714"/>
<polygon fill="#9a32cd" stroke="#9a32cd" points="660.825,-111.954 651.135,-116.238 661.382,-118.932 660.825,-111.954"/>
<text text-anchor="middle" x="793" y="-160.158" font-family="Helvetica,sans-Serif" font-size="14.00"> boundary</text>
<text text-anchor="middle" x="793" y="-145.158" font-family="Helvetica,sans-Serif" font-size="14.00">elements</text>
<text text-anchor="middle" x="793" y="-130.158" font-family="Helvetica,sans-Serif" font-size="14.00">faces</text>
</g>
<!-- Node8 -->
<g id="node8" class="node"><title>Node8</title>
<polygon fill="white" stroke="#bfbfbf" points="884,-110.358 884,-148.358 1076,-148.358 1076,-110.358 884,-110.358"/>
<text text-anchor="start" x="892" y="-133.158" font-family="Helvetica,sans-Serif" font-size="14.00">std::map&lt; std::string,</text>
<text text-anchor="middle" x="980" y="-118.158" font-family="Helvetica,sans-Serif" font-size="14.00"> QuadratureFunction * &gt;</text>
</g>
<!-- Node8&#45;&gt;Node1 -->
<g id="edge9" class="edge"><title>Node8&#45;&gt;Node1</title>
<path fill="none" stroke="#9a32cd" stroke-dasharray="5,2" d="M1086.41,-119.465C1124.83,-115.859 1167.76,-111.83 1204.27,-108.404"/>
<polygon fill="#9a32cd" stroke="#9a32cd" points="1085.86,-116.001 1076.23,-120.42 1086.51,-122.97 1085.86,-116.001"/>
<text text-anchor="middle" x="1140" y="-122.158" font-family="Helvetica,sans-Serif" font-size="14.00"> q_field_map</text>
</g>
<!-- Node9 -->
<g id="node9" class="node"><title>Node9</title>
<g id="a_node9"><a xlink:title="STL class. ">
<polygon fill="white" stroke="#bfbfbf" points="519,-37.8578 519,-60.8578 607,-60.8578 607,-37.8578 519,-37.8578"/>
<text text-anchor="middle" x="563" y="-45.6578" font-family="Helvetica,sans-Serif" font-size="14.00">std::string</text>
</a>
</g>
</g>
<!-- Node9&#45;&gt;Node8 -->
<g id="edge10" class="edge"><title>Node9&#45;&gt;Node8</title>
<path fill="none" stroke="#9a32cd" stroke-dasharray="5,2" d="M617.07,-55.1244C690.834,-63.4461 820.425,-79.2611 866,-92.3578 874.414,-94.7758 875.798,-97.2964 884,-100.358 893.289,-103.825 903.199,-107.198 912.98,-110.344"/>
<polygon fill="#9a32cd" stroke="#9a32cd" points="617.374,-51.6367 607.047,-54.001 616.595,-58.5931 617.374,-51.6367"/>
<text text-anchor="middle" x="793" y="-96.1578" font-family="Helvetica,sans-Serif" font-size="14.00"> keys</text>
</g>
<!-- Node10 -->
<g id="node10" class="node"><title>Node10</title>
<polygon fill="white" stroke="#bfbfbf" points="894,-53.3578 894,-91.3578 1066,-91.3578 1066,-53.3578 894,-53.3578"/>
<text text-anchor="start" x="902" y="-76.1578" font-family="Helvetica,sans-Serif" font-size="14.00">std::map&lt; std::string,</text>
<text text-anchor="middle" x="980" y="-61.1578" font-family="Helvetica,sans-Serif" font-size="14.00"> GridFunction * &gt;</text>
</g>
<!-- Node9&#45;&gt;Node10 -->
<g id="edge12" class="edge"><title>Node9&#45;&gt;Node10</title>
<path fill="none" stroke="#9a32cd" stroke-dasharray="5,2" d="M617.206,-46.5078C677.656,-43.9715 779.185,-41.8403 866,-50.3578 875.05,-51.2458 884.453,-52.5131 893.797,-53.9968"/>
<polygon fill="#9a32cd" stroke="#9a32cd" points="616.975,-43.0145 607.138,-46.9501 617.282,-50.0077 616.975,-43.0145"/>
<text text-anchor="middle" x="793" y="-54.1578" font-family="Helvetica,sans-Serif" font-size="14.00"> keys</text>
</g>
<!-- Node9&#45;&gt;Node1 -->
<g id="edge13" class="edge"><title>Node9&#45;&gt;Node1</title>
<path fill="none" stroke="#9a32cd" stroke-dasharray="5,2" d="M617.085,-36.5678C710.692,-16.017 910.83,18.9333 1076,-13.3578 1150.59,-27.94 1232.01,-68.6051 1269.28,-88.7479"/>
<polygon fill="#9a32cd" stroke="#9a32cd" points="616.283,-33.1607 607.284,-38.7529 617.806,-39.9929 616.283,-33.1607"/>
<text text-anchor="middle" x="980" y="-32.1578" font-family="Helvetica,sans-Serif" font-size="14.00"> name</text>
<text text-anchor="middle" x="980" y="-17.1578" font-family="Helvetica,sans-Serif" font-size="14.00">prefix_path</text>
</g>
<!-- Node10&#45;&gt;Node1 -->
<g id="edge11" class="edge"><title>Node10&#45;&gt;Node1</title>
<path fill="none" stroke="#9a32cd" stroke-dasharray="5,2" d="M1076.45,-78.3208C1110.99,-80.7485 1150.29,-83.8214 1186,-87.3578 1191.98,-87.9495 1198.14,-88.6047 1204.34,-89.2971"/>
<polygon fill="#9a32cd" stroke="#9a32cd" points="1076.58,-74.8218 1066.36,-77.6208 1076.1,-81.805 1076.58,-74.8218"/>
<text text-anchor="middle" x="1140" y="-91.1578" font-family="Helvetica,sans-Serif" font-size="14.00"> field_map</text>
</g>
</g>
</svg>
