<?xml version="1.0" encoding="UTF-8" standalone="no"?>
<!DOCTYPE svg PUBLIC "-//W3C//DTD SVG 1.1//EN"
 "http://www.w3.org/Graphics/SVG/1.1/DTD/svg11.dtd">
<!-- Generated by graphviz version 2.30.1 (20200304.1809)
 -->
<!-- Title: mfem::GaussQuad2DFiniteElement Pages: 1 -->
<svg width="442pt" height="448pt"
 viewBox="0.00 0.00 442.00 448.00" xmlns="http://www.w3.org/2000/svg" xmlns:xlink="http://www.w3.org/1999/xlink">
<g id="graph0" class="graph" transform="scale(1 1) rotate(0) translate(4 444)">
<title>mfem::GaussQuad2DFiniteElement</title>
<polygon fill="white" stroke="white" points="-4,5 -4,-444 439,-444 439,5 -4,5"/>
<!-- Node1 -->
<g id="node1" class="node"><title>Node1</title>
<polygon fill="#bfbfbf" stroke="black" points="165.5,-0.5 165.5,-23.5 434.5,-23.5 434.5,-0.5 165.5,-0.5"/>
<text text-anchor="middle" x="300" y="-8.3" font-family="Helvetica,sans-Serif" font-size="14.00">mfem::GaussQuad2DFiniteElement</text>
</g>
<!-- Node2 -->
<g id="node2" class="node"><title>Node2</title>
<g id="a_node2"><a xlink:href="classmfem_1_1NodalFiniteElement.html" target="_top" xlink:title="mfem::NodalFiniteElement">
<polygon fill="white" stroke="black" points="196.5,-62.5 196.5,-85.5 403.5,-85.5 403.5,-62.5 196.5,-62.5"/>
<text text-anchor="middle" x="300" y="-70.3" font-family="Helvetica,sans-Serif" font-size="14.00">mfem::NodalFiniteElement</text>
</a>
</g>
</g>
<!-- Node2&#45;&gt;Node1 -->
<g id="edge1" class="edge"><title>Node2&#45;&gt;Node1</title>
<path fill="none" stroke="midnightblue" d="M300,-52.2312C300,-42.5922 300,-31.5444 300,-23.6339"/>
<polygon fill="midnightblue" stroke="midnightblue" points="296.5,-52.2732 300,-62.2732 303.5,-52.2732 296.5,-52.2732"/>
</g>
<!-- Node3 -->
<g id="node3" class="node"><title>Node3</title>
<g id="a_node3"><a xlink:href="classmfem_1_1ScalarFiniteElement.html" target="_top" xlink:title="mfem::ScalarFiniteElement">
<polygon fill="white" stroke="black" points="60,-138.5 60,-161.5 270,-161.5 270,-138.5 60,-138.5"/>
<text text-anchor="middle" x="165" y="-146.3" font-family="Helvetica,sans-Serif" font-size="14.00">mfem::ScalarFiniteElement</text>
</a>
</g>
</g>
<!-- Node3&#45;&gt;Node2 -->
<g id="edge2" class="edge"><title>Node3&#45;&gt;Node2</title>
<path fill="none" stroke="midnightblue" d="M193.408,-133.428C219.627,-119.056 257.853,-98.1027 280.694,-85.5827"/>
<polygon fill="midnightblue" stroke="midnightblue" points="191.429,-130.522 184.342,-138.398 194.794,-136.66 191.429,-130.522"/>
</g>
<!-- Node4 -->
<g id="node4" class="node"><title>Node4</title>
<g id="a_node4"><a xlink:href="classmfem_1_1FiniteElement.html" target="_top" xlink:title="Abstract class for Finite Elements. ">
<polygon fill="white" stroke="black" points="82,-200.5 82,-223.5 248,-223.5 248,-200.5 82,-200.5"/>
<text text-anchor="middle" x="165" y="-208.3" font-family="Helvetica,sans-Serif" font-size="14.00">mfem::FiniteElement</text>
</a>
</g>
</g>
<!-- Node4&#45;&gt;Node3 -->
<g id="edge3" class="edge"><title>Node4&#45;&gt;Node3</title>
<path fill="none" stroke="midnightblue" d="M165,-190.231C165,-180.592 165,-169.544 165,-161.634"/>
<polygon fill="midnightblue" stroke="midnightblue" points="161.5,-190.273 165,-200.273 168.5,-190.273 161.5,-190.273"/>
</g>
<!-- Node5 -->
<g id="node5" class="node"><title>Node5</title>
<g id="a_node5"><a xlink:href="classmfem_1_1IntegrationRule.html" target="_top" xlink:title="Class for an integration rule &#45; an Array of IntegrationPoint. ">
<polygon fill="white" stroke="black" points="12,-276.5 12,-299.5 190,-299.5 190,-276.5 12,-276.5"/>
<text text-anchor="middle" x="101" y="-284.3" font-family="Helvetica,sans-Serif" font-size="14.00">mfem::IntegrationRule</text>
</a>
</g>
</g>
<!-- Node5&#45;&gt;Node4 -->
<g id="edge4" class="edge"><title>Node5&#45;&gt;Node4</title>
<path fill="none" stroke="#9a32cd" stroke-dasharray="5,2" d="M116.818,-268.71C129.095,-254.515 145.684,-235.334 155.847,-223.583"/>
<polygon fill="#9a32cd" stroke="#9a32cd" points="114.064,-266.544 110.17,-276.398 119.358,-271.123 114.064,-266.544"/>
<text text-anchor="middle" x="164" y="-246.3" font-family="Helvetica,sans-Serif" font-size="14.00"> Nodes</text>
</g>
<!-- Node6 -->
<g id="node6" class="node"><title>Node6</title>
<g id="a_node6"><a xlink:href="classmfem_1_1Array.html" target="_top" xlink:title="mfem::Array\&lt; Integration\lPoint \&gt;">
<polygon fill="white" stroke="black" points="-0.5,-339 -0.5,-377 202.5,-377 202.5,-339 -0.5,-339"/>
<text text-anchor="start" x="7.5" y="-361.8" font-family="Helvetica,sans-Serif" font-size="14.00">mfem::Array&lt; Integration</text>
<text text-anchor="middle" x="101" y="-346.8" font-family="Helvetica,sans-Serif" font-size="14.00">Point &gt;</text>
</a>
</g>
</g>
<!-- Node6&#45;&gt;Node5 -->
<g id="edge5" class="edge"><title>Node6&#45;&gt;Node5</title>
<path fill="none" stroke="midnightblue" d="M101,-328.599C101,-318.442 101,-307.6 101,-299.834"/>
<polygon fill="midnightblue" stroke="midnightblue" points="97.5001,-328.777 101,-338.777 104.5,-328.777 97.5001,-328.777"/>
</g>
<!-- Node7 -->
<g id="node7" class="node"><title>Node7</title>
<g id="a_node7"><a xlink:href="classmfem_1_1BaseArray.html" target="_top" xlink:title="Base class for array container. ">
<polygon fill="white" stroke="black" points="29.5,-416.5 29.5,-439.5 172.5,-439.5 172.5,-416.5 29.5,-416.5"/>
<text text-anchor="middle" x="101" y="-424.3" font-family="Helvetica,sans-Serif" font-size="14.00">mfem::BaseArray</text>
</a>
</g>
</g>
<!-- Node7&#45;&gt;Node6 -->
<g id="edge6" class="edge"><title>Node7&#45;&gt;Node6</title>
<path fill="none" stroke="midnightblue" d="M101,-406.098C101,-396.869 101,-386.12 101,-377.223"/>
<polygon fill="midnightblue" stroke="midnightblue" points="97.5001,-406.375 101,-416.375 104.5,-406.375 97.5001,-406.375"/>
</g>
<!-- Node8 -->
<g id="node8" class="node"><title>Node8</title>
<g id="a_node8"><a xlink:href="classmfem_1_1DenseMatrix.html" target="_top" xlink:title="Data type dense matrix using column&#45;major storage. ">
<polygon fill="white" stroke="black" points="208,-276.5 208,-299.5 366,-299.5 366,-276.5 208,-276.5"/>
<text text-anchor="middle" x="287" y="-284.3" font-family="Helvetica,sans-Serif" font-size="14.00">mfem::DenseMatrix</text>
</a>
</g>
</g>
<!-- Node8&#45;&gt;Node4 -->
<g id="edge7" class="edge"><title>Node8&#45;&gt;Node4</title>
<path fill="none" stroke="#9a32cd" stroke-dasharray="5,2" d="M260.702,-271.049C237.029,-256.69 202.907,-235.993 182.447,-223.583"/>
<polygon fill="#9a32cd" stroke="#9a32cd" points="259.155,-274.204 269.52,-276.398 262.785,-268.219 259.155,-274.204"/>
<text text-anchor="middle" x="265.5" y="-246.3" font-family="Helvetica,sans-Serif" font-size="14.00"> vshape</text>
</g>
<!-- Node9 -->
<g id="node9" class="node"><title>Node9</title>
<g id="a_node9"><a xlink:href="classmfem_1_1Matrix.html" target="_top" xlink:title="Abstract data type matrix. ">
<polygon fill="white" stroke="red" points="230.5,-346.5 230.5,-369.5 343.5,-369.5 343.5,-346.5 230.5,-346.5"/>
<text text-anchor="middle" x="287" y="-354.3" font-family="Helvetica,sans-Serif" font-size="14.00">mfem::Matrix</text>
</a>
</g>
</g>
<!-- Node9&#45;&gt;Node8 -->
<g id="edge8" class="edge"><title>Node9&#45;&gt;Node8</title>
<path fill="none" stroke="midnightblue" d="M287,-336.272C287,-324.228 287,-309.549 287,-299.775"/>
<polygon fill="midnightblue" stroke="midnightblue" points="283.5,-336.375 287,-346.375 290.5,-336.375 283.5,-336.375"/>
</g>
<!-- Node10 -->
<g id="node10" class="node"><title>Node10</title>
<g id="a_node10"><a xlink:href="classmfem_1_1Vector.html" target="_top" xlink:title="Vector data type. ">
<polygon fill="white" stroke="black" points="288,-138.5 288,-161.5 402,-161.5 402,-138.5 288,-138.5"/>
<text text-anchor="middle" x="345" y="-146.3" font-family="Helvetica,sans-Serif" font-size="14.00">mfem::Vector</text>
</a>
</g>
</g>
<!-- Node10&#45;&gt;Node2 -->
<g id="edge9" class="edge"><title>Node10&#45;&gt;Node2</title>
<path fill="none" stroke="#9a32cd" stroke-dasharray="5,2" d="M333.145,-129.504C324.595,-115.445 313.381,-97.0044 306.435,-85.5827"/>
<polygon fill="#9a32cd" stroke="#9a32cd" points="330.366,-131.672 338.553,-138.398 336.347,-128.035 330.366,-131.672"/>
<text text-anchor="middle" x="358" y="-108.3" font-family="Helvetica,sans-Serif" font-size="14.00"> c_shape</text>
</g>
</g>
</svg>
