<?xml version="1.0" encoding="UTF-8" standalone="no"?>
<!DOCTYPE svg PUBLIC "-//W3C//DTD SVG 1.1//EN"
 "http://www.w3.org/Graphics/SVG/1.1/DTD/svg11.dtd">
<!-- Generated by graphviz version 2.30.1 (20200304.1809)
 -->
<!-- Title: mfem::MixedGradGradIntegrator Pages: 1 -->
<svg width="260pt" height="434pt"
 viewBox="0.00 0.00 260.00 434.00" xmlns="http://www.w3.org/2000/svg" xmlns:xlink="http://www.w3.org/1999/xlink">
<g id="graph0" class="graph" transform="scale(1 1) rotate(0) translate(4 430)">
<title>mfem::MixedGradGradIntegrator</title>
<polygon fill="white" stroke="white" points="-4,5 -4,-430 257,-430 257,5 -4,5"/>
<!-- Node1 -->
<g id="node1" class="node"><title>Node1</title>
<polygon fill="#bfbfbf" stroke="black" points="0,-0.5 0,-23.5 252,-23.5 252,-0.5 0,-0.5"/>
<text text-anchor="middle" x="126" y="-8.3" font-family="Helvetica,sans-Serif" font-size="14.00">mfem::MixedGradGradIntegrator</text>
</g>
<!-- Node2 -->
<g id="node2" class="node"><title>Node2</title>
<g id="a_node2"><a xlink:href="classmfem_1_1MixedVectorIntegrator.html" target="_top" xlink:title="mfem::MixedVectorIntegrator">
<polygon fill="white" stroke="black" points="12.5,-62.5 12.5,-85.5 239.5,-85.5 239.5,-62.5 12.5,-62.5"/>
<text text-anchor="middle" x="126" y="-70.3" font-family="Helvetica,sans-Serif" font-size="14.00">mfem::MixedVectorIntegrator</text>
</a>
</g>
</g>
<!-- Node2&#45;&gt;Node1 -->
<g id="edge1" class="edge"><title>Node2&#45;&gt;Node1</title>
<path fill="none" stroke="midnightblue" d="M126,-52.2312C126,-42.5922 126,-31.5444 126,-23.6339"/>
<polygon fill="midnightblue" stroke="midnightblue" points="122.5,-52.2732 126,-62.2732 129.5,-52.2732 122.5,-52.2732"/>
</g>
<!-- Node3 -->
<g id="node3" class="node"><title>Node3</title>
<g id="a_node3"><a xlink:href="classmfem_1_1BilinearFormIntegrator.html" target="_top" xlink:title="Abstract base class BilinearFormIntegrator. ">
<polygon fill="white" stroke="black" points="10.5,-124.5 10.5,-147.5 241.5,-147.5 241.5,-124.5 10.5,-124.5"/>
<text text-anchor="middle" x="126" y="-132.3" font-family="Helvetica,sans-Serif" font-size="14.00">mfem::BilinearFormIntegrator</text>
</a>
</g>
</g>
<!-- Node3&#45;&gt;Node2 -->
<g id="edge2" class="edge"><title>Node3&#45;&gt;Node2</title>
<path fill="none" stroke="midnightblue" d="M126,-114.231C126,-104.592 126,-93.5444 126,-85.6339"/>
<polygon fill="midnightblue" stroke="midnightblue" points="122.5,-114.273 126,-124.273 129.5,-114.273 122.5,-114.273"/>
</g>
<!-- Node4 -->
<g id="node4" class="node"><title>Node4</title>
<g id="a_node4"><a xlink:href="classmfem_1_1NonlinearFormIntegrator.html" target="_top" xlink:title="mfem::NonlinearFormIntegrator">
<polygon fill="white" stroke="black" points="3,-186.5 3,-209.5 249,-209.5 249,-186.5 3,-186.5"/>
<text text-anchor="middle" x="126" y="-194.3" font-family="Helvetica,sans-Serif" font-size="14.00">mfem::NonlinearFormIntegrator</text>
</a>
</g>
</g>
<!-- Node4&#45;&gt;Node3 -->
<g id="edge3" class="edge"><title>Node4&#45;&gt;Node3</title>
<path fill="none" stroke="midnightblue" d="M126,-176.231C126,-166.592 126,-155.544 126,-147.634"/>
<polygon fill="midnightblue" stroke="midnightblue" points="122.5,-176.273 126,-186.273 129.5,-176.273 122.5,-176.273"/>
</g>
<!-- Node5 -->
<g id="node5" class="node"><title>Node5</title>
<g id="a_node5"><a xlink:href="classmfem_1_1IntegrationRule.html" target="_top" xlink:title="Class for an integration rule &#45; an Array of IntegrationPoint. ">
<polygon fill="white" stroke="black" points="37,-262.5 37,-285.5 215,-285.5 215,-262.5 37,-262.5"/>
<text text-anchor="middle" x="126" y="-270.3" font-family="Helvetica,sans-Serif" font-size="14.00">mfem::IntegrationRule</text>
</a>
</g>
</g>
<!-- Node5&#45;&gt;Node4 -->
<g id="edge4" class="edge"><title>Node5&#45;&gt;Node4</title>
<path fill="none" stroke="#9a32cd" stroke-dasharray="5,2" d="M126,-252.277C126,-238.387 126,-220.675 126,-209.583"/>
<polygon fill="#9a32cd" stroke="#9a32cd" points="122.5,-252.398 126,-262.398 129.5,-252.398 122.5,-252.398"/>
<text text-anchor="middle" x="153.5" y="-232.3" font-family="Helvetica,sans-Serif" font-size="14.00"> IntRule</text>
</g>
<!-- Node6 -->
<g id="node6" class="node"><title>Node6</title>
<g id="a_node6"><a xlink:href="classmfem_1_1Array.html" target="_top" xlink:title="mfem::Array\&lt; Integration\lPoint \&gt;">
<polygon fill="white" stroke="black" points="24.5,-325 24.5,-363 227.5,-363 227.5,-325 24.5,-325"/>
<text text-anchor="start" x="32.5" y="-347.8" font-family="Helvetica,sans-Serif" font-size="14.00">mfem::Array&lt; Integration</text>
<text text-anchor="middle" x="126" y="-332.8" font-family="Helvetica,sans-Serif" font-size="14.00">Point &gt;</text>
</a>
</g>
</g>
<!-- Node6&#45;&gt;Node5 -->
<g id="edge5" class="edge"><title>Node6&#45;&gt;Node5</title>
<path fill="none" stroke="midnightblue" d="M126,-314.599C126,-304.442 126,-293.6 126,-285.834"/>
<polygon fill="midnightblue" stroke="midnightblue" points="122.5,-314.777 126,-324.777 129.5,-314.777 122.5,-314.777"/>
</g>
<!-- Node7 -->
<g id="node7" class="node"><title>Node7</title>
<g id="a_node7"><a xlink:href="classmfem_1_1BaseArray.html" target="_top" xlink:title="Base class for array container. ">
<polygon fill="white" stroke="black" points="54.5,-402.5 54.5,-425.5 197.5,-425.5 197.5,-402.5 54.5,-402.5"/>
<text text-anchor="middle" x="126" y="-410.3" font-family="Helvetica,sans-Serif" font-size="14.00">mfem::BaseArray</text>
</a>
</g>
</g>
<!-- Node7&#45;&gt;Node6 -->
<g id="edge6" class="edge"><title>Node7&#45;&gt;Node6</title>
<path fill="none" stroke="midnightblue" d="M126,-392.098C126,-382.869 126,-372.12 126,-363.223"/>
<polygon fill="midnightblue" stroke="midnightblue" points="122.5,-392.375 126,-402.375 129.5,-392.375 122.5,-392.375"/>
</g>
</g>
</svg>
