<?xml version="1.0" encoding="UTF-8" standalone="no"?>
<!DOCTYPE svg PUBLIC "-//W3C//DTD SVG 1.1//EN"
 "http://www.w3.org/Graphics/SVG/1.1/DTD/svg11.dtd">
<!-- Generated by graphviz version 2.30.1 (20200304.1809)
 -->
<!-- Title: mfem::VectorFEWeakDivergenceIntegrator Pages: 1 -->
<svg width="260pt" height="388pt"
 viewBox="0.00 0.00 260.00 388.00" xmlns="http://www.w3.org/2000/svg" xmlns:xlink="http://www.w3.org/1999/xlink">
<g id="graph0" class="graph" transform="scale(1 1) rotate(0) translate(4 384)">
<title>mfem::VectorFEWeakDivergenceIntegrator</title>
<polygon fill="white" stroke="white" points="-4,5 -4,-384 257,-384 257,5 -4,5"/>
<!-- Node1 -->
<g id="node1" class="node"><title>Node1</title>
<polygon fill="#bfbfbf" stroke="black" points="-0.5,-1 -0.5,-39 252.5,-39 252.5,-1 -0.5,-1"/>
<text text-anchor="start" x="7.5" y="-23.8" font-family="Helvetica,sans-Serif" font-size="14.00">mfem::VectorFEWeakDivergence</text>
<text text-anchor="middle" x="126" y="-8.8" font-family="Helvetica,sans-Serif" font-size="14.00">Integrator</text>
</g>
<!-- Node2 -->
<g id="node2" class="node"><title>Node2</title>
<g id="a_node2"><a xlink:href="classmfem_1_1BilinearFormIntegrator.html" target="_top" xlink:title="Abstract base class BilinearFormIntegrator. ">
<polygon fill="white" stroke="black" points="10.5,-78.5 10.5,-101.5 241.5,-101.5 241.5,-78.5 10.5,-78.5"/>
<text text-anchor="middle" x="126" y="-86.3" font-family="Helvetica,sans-Serif" font-size="14.00">mfem::BilinearFormIntegrator</text>
</a>
</g>
</g>
<!-- Node2&#45;&gt;Node1 -->
<g id="edge1" class="edge"><title>Node2&#45;&gt;Node1</title>
<path fill="none" stroke="midnightblue" d="M126,-68.098C126,-58.8689 126,-48.1198 126,-39.2228"/>
<polygon fill="midnightblue" stroke="midnightblue" points="122.5,-68.375 126,-78.375 129.5,-68.375 122.5,-68.375"/>
</g>
<!-- Node3 -->
<g id="node3" class="node"><title>Node3</title>
<g id="a_node3"><a xlink:href="classmfem_1_1NonlinearFormIntegrator.html" target="_top" xlink:title="mfem::NonlinearFormIntegrator">
<polygon fill="white" stroke="black" points="3,-140.5 3,-163.5 249,-163.5 249,-140.5 3,-140.5"/>
<text text-anchor="middle" x="126" y="-148.3" font-family="Helvetica,sans-Serif" font-size="14.00">mfem::NonlinearFormIntegrator</text>
</a>
</g>
</g>
<!-- Node3&#45;&gt;Node2 -->
<g id="edge2" class="edge"><title>Node3&#45;&gt;Node2</title>
<path fill="none" stroke="midnightblue" d="M126,-130.231C126,-120.592 126,-109.544 126,-101.634"/>
<polygon fill="midnightblue" stroke="midnightblue" points="122.5,-130.273 126,-140.273 129.5,-130.273 122.5,-130.273"/>
</g>
<!-- Node4 -->
<g id="node4" class="node"><title>Node4</title>
<g id="a_node4"><a xlink:href="classmfem_1_1IntegrationRule.html" target="_top" xlink:title="Class for an integration rule &#45; an Array of IntegrationPoint. ">
<polygon fill="white" stroke="black" points="37,-216.5 37,-239.5 215,-239.5 215,-216.5 37,-216.5"/>
<text text-anchor="middle" x="126" y="-224.3" font-family="Helvetica,sans-Serif" font-size="14.00">mfem::IntegrationRule</text>
</a>
</g>
</g>
<!-- Node4&#45;&gt;Node3 -->
<g id="edge3" class="edge"><title>Node4&#45;&gt;Node3</title>
<path fill="none" stroke="#9a32cd" stroke-dasharray="5,2" d="M126,-206.277C126,-192.387 126,-174.675 126,-163.583"/>
<polygon fill="#9a32cd" stroke="#9a32cd" points="122.5,-206.398 126,-216.398 129.5,-206.398 122.5,-206.398"/>
<text text-anchor="middle" x="153.5" y="-186.3" font-family="Helvetica,sans-Serif" font-size="14.00"> IntRule</text>
</g>
<!-- Node5 -->
<g id="node5" class="node"><title>Node5</title>
<g id="a_node5"><a xlink:href="classmfem_1_1Array.html" target="_top" xlink:title="mfem::Array\&lt; Integration\lPoint \&gt;">
<polygon fill="white" stroke="black" points="24.5,-279 24.5,-317 227.5,-317 227.5,-279 24.5,-279"/>
<text text-anchor="start" x="32.5" y="-301.8" font-family="Helvetica,sans-Serif" font-size="14.00">mfem::Array&lt; Integration</text>
<text text-anchor="middle" x="126" y="-286.8" font-family="Helvetica,sans-Serif" font-size="14.00">Point &gt;</text>
</a>
</g>
</g>
<!-- Node5&#45;&gt;Node4 -->
<g id="edge4" class="edge"><title>Node5&#45;&gt;Node4</title>
<path fill="none" stroke="midnightblue" d="M126,-268.599C126,-258.442 126,-247.6 126,-239.834"/>
<polygon fill="midnightblue" stroke="midnightblue" points="122.5,-268.777 126,-278.777 129.5,-268.777 122.5,-268.777"/>
</g>
<!-- Node6 -->
<g id="node6" class="node"><title>Node6</title>
<g id="a_node6"><a xlink:href="classmfem_1_1BaseArray.html" target="_top" xlink:title="Base class for array container. ">
<polygon fill="white" stroke="black" points="54.5,-356.5 54.5,-379.5 197.5,-379.5 197.5,-356.5 54.5,-356.5"/>
<text text-anchor="middle" x="126" y="-364.3" font-family="Helvetica,sans-Serif" font-size="14.00">mfem::BaseArray</text>
</a>
</g>
</g>
<!-- Node6&#45;&gt;Node5 -->
<g id="edge5" class="edge"><title>Node6&#45;&gt;Node5</title>
<path fill="none" stroke="midnightblue" d="M126,-346.098C126,-336.869 126,-326.12 126,-317.223"/>
<polygon fill="midnightblue" stroke="midnightblue" points="122.5,-346.375 126,-356.375 129.5,-346.375 122.5,-346.375"/>
</g>
</g>
</svg>
