<?xml version="1.0" encoding="UTF-8" standalone="no"?>
<!DOCTYPE svg PUBLIC "-//W3C//DTD SVG 1.1//EN"
 "http://www.w3.org/Graphics/SVG/1.1/DTD/svg11.dtd">
<!-- Generated by graphviz version 2.30.1 (20200304.1809)
 -->
<!-- Title: mfem::NonlinearFormIntegrator Pages: 1 -->
<svg width="254pt" height="248pt"
 viewBox="0.00 0.00 254.00 248.00" xmlns="http://www.w3.org/2000/svg" xmlns:xlink="http://www.w3.org/1999/xlink">
<g id="graph0" class="graph" transform="scale(1 1) rotate(0) translate(4 244)">
<title>mfem::NonlinearFormIntegrator</title>
<polygon fill="white" stroke="white" points="-4,5 -4,-244 251,-244 251,5 -4,5"/>
<!-- Node1 -->
<g id="node1" class="node"><title>Node1</title>
<polygon fill="#bfbfbf" stroke="black" points="0,-0.5 0,-23.5 246,-23.5 246,-0.5 0,-0.5"/>
<text text-anchor="middle" x="123" y="-8.3" font-family="Helvetica,sans-Serif" font-size="14.00">mfem::NonlinearFormIntegrator</text>
</g>
<!-- Node2 -->
<g id="node2" class="node"><title>Node2</title>
<g id="a_node2"><a xlink:href="classmfem_1_1IntegrationRule.html" target="_top" xlink:title="Class for an integration rule &#45; an Array of IntegrationPoint. ">
<polygon fill="white" stroke="black" points="34,-76.5 34,-99.5 212,-99.5 212,-76.5 34,-76.5"/>
<text text-anchor="middle" x="123" y="-84.3" font-family="Helvetica,sans-Serif" font-size="14.00">mfem::IntegrationRule</text>
</a>
</g>
</g>
<!-- Node2&#45;&gt;Node1 -->
<g id="edge1" class="edge"><title>Node2&#45;&gt;Node1</title>
<path fill="none" stroke="#9a32cd" stroke-dasharray="5,2" d="M123,-66.2771C123,-52.3872 123,-34.675 123,-23.5827"/>
<polygon fill="#9a32cd" stroke="#9a32cd" points="119.5,-66.3976 123,-76.3976 126.5,-66.3976 119.5,-66.3976"/>
<text text-anchor="middle" x="150.5" y="-46.3" font-family="Helvetica,sans-Serif" font-size="14.00"> IntRule</text>
</g>
<!-- Node3 -->
<g id="node3" class="node"><title>Node3</title>
<g id="a_node3"><a xlink:href="classmfem_1_1Array.html" target="_top" xlink:title="mfem::Array\&lt; Integration\lPoint \&gt;">
<polygon fill="white" stroke="black" points="21.5,-139 21.5,-177 224.5,-177 224.5,-139 21.5,-139"/>
<text text-anchor="start" x="29.5" y="-161.8" font-family="Helvetica,sans-Serif" font-size="14.00">mfem::Array&lt; Integration</text>
<text text-anchor="middle" x="123" y="-146.8" font-family="Helvetica,sans-Serif" font-size="14.00">Point &gt;</text>
</a>
</g>
</g>
<!-- Node3&#45;&gt;Node2 -->
<g id="edge2" class="edge"><title>Node3&#45;&gt;Node2</title>
<path fill="none" stroke="midnightblue" d="M123,-128.599C123,-118.442 123,-107.6 123,-99.8335"/>
<polygon fill="midnightblue" stroke="midnightblue" points="119.5,-128.777 123,-138.777 126.5,-128.777 119.5,-128.777"/>
</g>
<!-- Node4 -->
<g id="node4" class="node"><title>Node4</title>
<g id="a_node4"><a xlink:href="classmfem_1_1BaseArray.html" target="_top" xlink:title="Base class for array container. ">
<polygon fill="white" stroke="black" points="51.5,-216.5 51.5,-239.5 194.5,-239.5 194.5,-216.5 51.5,-216.5"/>
<text text-anchor="middle" x="123" y="-224.3" font-family="Helvetica,sans-Serif" font-size="14.00">mfem::BaseArray</text>
</a>
</g>
</g>
<!-- Node4&#45;&gt;Node3 -->
<g id="edge3" class="edge"><title>Node4&#45;&gt;Node3</title>
<path fill="none" stroke="midnightblue" d="M123,-206.098C123,-196.869 123,-186.12 123,-177.223"/>
<polygon fill="midnightblue" stroke="midnightblue" points="119.5,-206.375 123,-216.375 126.5,-206.375 119.5,-206.375"/>
</g>
</g>
</svg>
