<?xml version="1.0" encoding="UTF-8" standalone="no"?>
<!DOCTYPE svg PUBLIC "-//W3C//DTD SVG 1.1//EN"
 "http://www.w3.org/Graphics/SVG/1.1/DTD/svg11.dtd">
<!-- Generated by graphviz version 2.30.1 (20200304.1809)
 -->
<!-- Title: mfem::GridTransfer Pages: 1 -->
<svg width="519pt" height="92pt"
 viewBox="0.00 0.00 519.00 92.00" xmlns="http://www.w3.org/2000/svg" xmlns:xlink="http://www.w3.org/1999/xlink">
<g id="graph0" class="graph" transform="scale(1 1) rotate(0) translate(4 88)">
<title>mfem::GridTransfer</title>
<polygon fill="white" stroke="white" points="-4,5 -4,-88 516,-88 516,5 -4,5"/>
<!-- Node1 -->
<g id="node1" class="node"><title>Node1</title>
<polygon fill="#bfbfbf" stroke="black" points="177.5,-60.5 177.5,-83.5 334.5,-83.5 334.5,-60.5 177.5,-60.5"/>
<text text-anchor="middle" x="256" y="-68.3" font-family="Helvetica,sans-Serif" font-size="14.00">mfem::GridTransfer</text>
</g>
<!-- Node2 -->
<g id="node2" class="node"><title>Node2</title>
<g id="a_node2"><a xlink:href="classmfem_1_1InterpolationGridTransfer.html" target="_top" xlink:title="Transfer data between a coarse mesh and an embedded refined mesh using interpolation. ">
<polygon fill="white" stroke="black" points="0,-0.5 0,-23.5 248,-23.5 248,-0.5 0,-0.5"/>
<text text-anchor="middle" x="124" y="-8.3" font-family="Helvetica,sans-Serif" font-size="14.00">mfem::InterpolationGridTransfer</text>
</a>
</g>
</g>
<!-- Node1&#45;&gt;Node2 -->
<g id="edge1" class="edge"><title>Node1&#45;&gt;Node2</title>
<path fill="none" stroke="midnightblue" d="M222.643,-56.3431C199.445,-46.1502 169.057,-32.7977 148.172,-23.6212"/>
<polygon fill="midnightblue" stroke="midnightblue" points="221.533,-59.6782 232.096,-60.4966 224.349,-53.2695 221.533,-59.6782"/>
</g>
<!-- Node3 -->
<g id="node3" class="node"><title>Node3</title>
<g id="a_node3"><a xlink:href="classmfem_1_1L2ProjectionGridTransfer.html" target="_top" xlink:title="Transfer data between a coarse mesh and an embedded refined mesh using L2 projection. ">
<polygon fill="white" stroke="black" points="266.5,-0.5 266.5,-23.5 511.5,-23.5 511.5,-0.5 266.5,-0.5"/>
<text text-anchor="middle" x="389" y="-8.3" font-family="Helvetica,sans-Serif" font-size="14.00">mfem::L2ProjectionGridTransfer</text>
</a>
</g>
</g>
<!-- Node1&#45;&gt;Node3 -->
<g id="edge2" class="edge"><title>Node1&#45;&gt;Node3</title>
<path fill="none" stroke="midnightblue" d="M289.297,-56.4794C312.71,-46.2695 343.508,-32.8386 364.644,-23.6212"/>
<polygon fill="midnightblue" stroke="midnightblue" points="287.853,-53.291 280.085,-60.4966 290.651,-59.7075 287.853,-53.291"/>
</g>
</g>
</svg>
