<?xml version="1.0" encoding="UTF-8" standalone="no"?>
<!DOCTYPE svg PUBLIC "-//W3C//DTD SVG 1.1//EN"
 "http://www.w3.org/Graphics/SVG/1.1/DTD/svg11.dtd">
<!-- Generated by graphviz version 2.30.1 (20170916.1124)
 -->
<!-- Title: mfem::ScalarFiniteElement Pages: 1 -->
<svg width="972pt" height="188pt"
 viewBox="0.00 0.00 972.00 188.00" xmlns="http://www.w3.org/2000/svg" xmlns:xlink="http://www.w3.org/1999/xlink">
<g id="graph0" class="graph" transform="scale(1 1) rotate(0) translate(4 184)">
<title>mfem::ScalarFiniteElement</title>
<polygon fill="white" stroke="white" points="-4,5 -4,-184 969,-184 969,5 -4,5"/>
<!-- Node1 -->
<g id="node1" class="node"><title>Node1</title>
<polygon fill="#bfbfbf" stroke="black" points="782.5,-40.5 782.5,-63.5 963.5,-63.5 963.5,-40.5 782.5,-40.5"/>
<text text-anchor="middle" x="873" y="-48.3" font-family="Helvetica,sans-Serif" font-size="14.00">mfem::ScalarFiniteElement</text>
</g>
<!-- Node2 -->
<g id="node2" class="node"><title>Node2</title>
<g id="a_node2"><a xlink:href="classmfem_1_1FiniteElement.html" target="_top" xlink:title="Abstract class for Finite Elements. ">
<polygon fill="white" stroke="black" points="546.5,-64.5 546.5,-87.5 689.5,-87.5 689.5,-64.5 546.5,-64.5"/>
<text text-anchor="middle" x="618" y="-72.3" font-family="Helvetica,sans-Serif" font-size="14.00">mfem::FiniteElement</text>
</a>
</g>
</g>
<!-- Node2&#45;&gt;Node1 -->
<g id="edge1" class="edge"><title>Node2&#45;&gt;Node1</title>
<path fill="none" stroke="midnightblue" d="M700.068,-68.3098C726.252,-65.8259 755.432,-63.0578 782.209,-60.5177"/>
<polygon fill="midnightblue" stroke="midnightblue" points="699.436,-64.8539 689.811,-69.2827 700.097,-71.8226 699.436,-64.8539"/>
</g>
<!-- Node3 -->
<g id="node3" class="node"><title>Node3</title>
<g id="a_node3"><a xlink:href="classmfem_1_1IntegrationRule.html" target="_top" xlink:title="Class for an integration rule &#45; an Array of IntegrationPoint. ">
<polygon fill="white" stroke="black" points="247.5,-146.5 247.5,-169.5 398.5,-169.5 398.5,-146.5 247.5,-146.5"/>
<text text-anchor="middle" x="323" y="-154.3" font-family="Helvetica,sans-Serif" font-size="14.00">mfem::IntegrationRule</text>
</a>
</g>
</g>
<!-- Node3&#45;&gt;Node2 -->
<g id="edge2" class="edge"><title>Node3&#45;&gt;Node2</title>
<path fill="none" stroke="#9a32cd" stroke-dasharray="5,2" d="M400.606,-144.439C439.238,-136.762 486.565,-126.07 528,-113 550.342,-105.953 574.865,-95.5478 592.501,-87.5652"/>
<polygon fill="#9a32cd" stroke="#9a32cd" points="399.609,-141.068 390.468,-146.424 400.955,-147.937 399.609,-141.068"/>
<text text-anchor="middle" x="478" y="-141.8" font-family="Helvetica,sans-Serif" font-size="14.00"> Nodes</text>
</g>
<!-- Node4 -->
<g id="node4" class="node"><title>Node4</title>
<g id="a_node4"><a xlink:href="classmfem_1_1Array.html" target="_top" xlink:title="mfem::Array\&lt; Integration\lPoint \&gt;">
<polygon fill="white" stroke="red" points="0.5,-142 0.5,-180 167.5,-180 167.5,-142 0.5,-142"/>
<text text-anchor="start" x="8.5" y="-164.8" font-family="Helvetica,sans-Serif" font-size="14.00">mfem::Array&lt; Integration</text>
<text text-anchor="middle" x="84" y="-149.8" font-family="Helvetica,sans-Serif" font-size="14.00">Point &gt;</text>
</a>
</g>
</g>
<!-- Node4&#45;&gt;Node3 -->
<g id="edge3" class="edge"><title>Node4&#45;&gt;Node3</title>
<path fill="none" stroke="midnightblue" d="M177.695,-159.827C200.758,-159.535 225.191,-159.225 247.267,-158.946"/>
<polygon fill="midnightblue" stroke="midnightblue" points="177.513,-156.329 167.558,-159.955 177.602,-163.328 177.513,-156.329"/>
</g>
<!-- Node5 -->
<g id="node5" class="node"><title>Node5</title>
<g id="a_node5"><a xlink:href="classmfem_1_1Array.html" target="_top" xlink:title="mfem::Array\&lt; mfem::\lDofToQuad * \&gt;">
<polygon fill="white" stroke="black" points="250,-85 250,-123 396,-123 396,-85 250,-85"/>
<text text-anchor="start" x="258" y="-107.8" font-family="Helvetica,sans-Serif" font-size="14.00">mfem::Array&lt; mfem::</text>
<text text-anchor="middle" x="323" y="-92.8" font-family="Helvetica,sans-Serif" font-size="14.00">DofToQuad * &gt;</text>
</a>
</g>
</g>
<!-- Node5&#45;&gt;Node2 -->
<g id="edge4" class="edge"><title>Node5&#45;&gt;Node2</title>
<path fill="none" stroke="#9a32cd" stroke-dasharray="5,2" d="M406.185,-96.1461C450.353,-91.9253 504.251,-86.7746 546.493,-82.7378"/>
<polygon fill="#9a32cd" stroke="#9a32cd" points="405.673,-92.6791 396.051,-97.1146 406.339,-99.6473 405.673,-92.6791"/>
<text text-anchor="middle" x="478" y="-97.8" font-family="Helvetica,sans-Serif" font-size="14.00"> dof2quad_array</text>
</g>
<!-- Node6 -->
<g id="node6" class="node"><title>Node6</title>
<g id="a_node6"><a xlink:href="classmfem_1_1Memory.html" target="_top" xlink:title="mfem::Memory\&lt; mfem\l::DofToQuad * \&gt;">
<polygon fill="white" stroke="red" points="5.5,-85 5.5,-123 162.5,-123 162.5,-85 5.5,-85"/>
<text text-anchor="start" x="13.5" y="-107.8" font-family="Helvetica,sans-Serif" font-size="14.00">mfem::Memory&lt; mfem</text>
<text text-anchor="middle" x="84" y="-92.8" font-family="Helvetica,sans-Serif" font-size="14.00">::DofToQuad * &gt;</text>
</a>
</g>
</g>
<!-- Node6&#45;&gt;Node5 -->
<g id="edge5" class="edge"><title>Node6&#45;&gt;Node5</title>
<path fill="none" stroke="#9a32cd" stroke-dasharray="5,2" d="M172.606,-104C198.027,-104 225.488,-104 249.846,-104"/>
<polygon fill="#9a32cd" stroke="#9a32cd" points="172.603,-100.5 162.603,-104 172.603,-107.5 172.603,-100.5"/>
<text text-anchor="middle" x="202" y="-107.8" font-family="Helvetica,sans-Serif" font-size="14.00"> data</text>
</g>
<!-- Node7 -->
<g id="node7" class="node"><title>Node7</title>
<g id="a_node7"><a xlink:href="classmfem_1_1DenseMatrix.html" target="_top" xlink:title="Data type dense matrix using column&#45;major storage. ">
<polygon fill="white" stroke="black" points="255,-42.5 255,-65.5 391,-65.5 391,-42.5 255,-42.5"/>
<text text-anchor="middle" x="323" y="-50.3" font-family="Helvetica,sans-Serif" font-size="14.00">mfem::DenseMatrix</text>
</a>
</g>
</g>
<!-- Node7&#45;&gt;Node2 -->
<g id="edge6" class="edge"><title>Node7&#45;&gt;Node2</title>
<path fill="none" stroke="#9a32cd" stroke-dasharray="5,2" d="M401.2,-56.2358C439.405,-57.7363 486.186,-60.1632 528,-64 533.9,-64.5414 540.009,-65.1864 546.136,-65.8924"/>
<polygon fill="#9a32cd" stroke="#9a32cd" points="401.299,-52.7371 391.173,-55.8554 401.033,-59.7321 401.299,-52.7371"/>
<text text-anchor="middle" x="478" y="-67.8" font-family="Helvetica,sans-Serif" font-size="14.00"> vshape</text>
</g>
<!-- Node8 -->
<g id="node8" class="node"><title>Node8</title>
<g id="a_node8"><a xlink:href="classmfem_1_1Matrix.html" target="_top" xlink:title="Abstract data type matrix. ">
<polygon fill="white" stroke="red" points="35.5,-42.5 35.5,-65.5 132.5,-65.5 132.5,-42.5 35.5,-42.5"/>
<text text-anchor="middle" x="84" y="-50.3" font-family="Helvetica,sans-Serif" font-size="14.00">mfem::Matrix</text>
</a>
</g>
</g>
<!-- Node8&#45;&gt;Node7 -->
<g id="edge7" class="edge"><title>Node8&#45;&gt;Node7</title>
<path fill="none" stroke="midnightblue" d="M142.847,-54C176.612,-54 219.371,-54 254.647,-54"/>
<polygon fill="midnightblue" stroke="midnightblue" points="142.675,-50.5001 132.675,-54 142.675,-57.5001 142.675,-50.5001"/>
</g>
<!-- Node9 -->
<g id="node9" class="node"><title>Node9</title>
<g id="a_node9"><a xlink:href="classmfem_1_1Vector.html" target="_top" xlink:title="Vector data type. ">
<polygon fill="white" stroke="black" points="569,-11.5 569,-34.5 667,-34.5 667,-11.5 569,-11.5"/>
<text text-anchor="middle" x="618" y="-19.3" font-family="Helvetica,sans-Serif" font-size="14.00">mfem::Vector</text>
</a>
</g>
</g>
<!-- Node9&#45;&gt;Node1 -->
<g id="edge8" class="edge"><title>Node9&#45;&gt;Node1</title>
<path fill="none" stroke="#9a32cd" stroke-dasharray="5,2" d="M677.411,-29.6954C708.506,-33.2596 747.42,-37.7201 782.26,-41.7136"/>
<polygon fill="#9a32cd" stroke="#9a32cd" points="677.516,-26.1846 667.183,-28.5229 676.719,-33.139 677.516,-26.1846"/>
<text text-anchor="middle" x="736" y="-43.8" font-family="Helvetica,sans-Serif" font-size="14.00"> c_shape</text>
</g>
<!-- Node10 -->
<g id="node10" class="node"><title>Node10</title>
<g id="a_node10"><a xlink:href="classmfem_1_1Memory.html" target="_top" xlink:title="mfem::Memory\&lt; double \&gt;">
<polygon fill="white" stroke="black" points="236,-0.5 236,-23.5 410,-23.5 410,-0.5 236,-0.5"/>
<text text-anchor="middle" x="323" y="-8.3" font-family="Helvetica,sans-Serif" font-size="14.00">mfem::Memory&lt; double &gt;</text>
</a>
</g>
</g>
<!-- Node10&#45;&gt;Node9 -->
<g id="edge9" class="edge"><title>Node10&#45;&gt;Node9</title>
<path fill="none" stroke="#9a32cd" stroke-dasharray="5,2" d="M420.454,-15.6212C470.108,-17.4853 528.48,-19.6767 568.638,-21.1843"/>
<polygon fill="#9a32cd" stroke="#9a32cd" points="420.449,-12.1186 410.325,-15.2409 420.187,-19.1137 420.449,-12.1186"/>
<text text-anchor="middle" x="478" y="-23.8" font-family="Helvetica,sans-Serif" font-size="14.00"> data</text>
</g>
</g>
</svg>
