<?xml version="1.0" encoding="UTF-8" standalone="no"?>
<!DOCTYPE svg PUBLIC "-//W3C//DTD SVG 1.1//EN"
 "http://www.w3.org/Graphics/SVG/1.1/DTD/svg11.dtd">
<!-- Generated by graphviz version 2.30.1 (20200304.1809)
 -->
<!-- Title: mfem::MixedCrossCurlIntegrator Pages: 1 -->
<svg width="1912pt" height="176pt"
 viewBox="0.00 0.00 1912.00 176.00" xmlns="http://www.w3.org/2000/svg" xmlns:xlink="http://www.w3.org/1999/xlink">
<g id="graph0" class="graph" transform="scale(1 1) rotate(0) translate(4 172)">
<title>mfem::MixedCrossCurlIntegrator</title>
<polygon fill="white" stroke="white" points="-4,5 -4,-172 1909,-172 1909,5 -4,5"/>
<!-- Node1 -->
<g id="node1" class="node"><title>Node1</title>
<polygon fill="#bfbfbf" stroke="black" points="1654,-68.5 1654,-91.5 1904,-91.5 1904,-68.5 1654,-68.5"/>
<text text-anchor="middle" x="1779" y="-76.3" font-family="Helvetica,sans-Serif" font-size="14.00">mfem::MixedCrossCurlIntegrator</text>
</g>
<!-- Node2 -->
<g id="node2" class="node"><title>Node2</title>
<g id="a_node2"><a xlink:href="classmfem_1_1MixedVectorIntegrator.html" target="_top" xlink:title="mfem::MixedVectorIntegrator">
<polygon fill="white" stroke="black" points="1388.5,-68.5 1388.5,-91.5 1615.5,-91.5 1615.5,-68.5 1388.5,-68.5"/>
<text text-anchor="middle" x="1502" y="-76.3" font-family="Helvetica,sans-Serif" font-size="14.00">mfem::MixedVectorIntegrator</text>
</a>
</g>
</g>
<!-- Node2&#45;&gt;Node1 -->
<g id="edge1" class="edge"><title>Node2&#45;&gt;Node1</title>
<path fill="none" stroke="midnightblue" d="M1625.75,-80C1635.09,-80 1644.54,-80 1653.89,-80"/>
<polygon fill="midnightblue" stroke="midnightblue" points="1625.65,-76.5001 1615.65,-80 1625.65,-83.5001 1625.65,-76.5001"/>
</g>
<!-- Node3 -->
<g id="node3" class="node"><title>Node3</title>
<g id="a_node3"><a xlink:href="classmfem_1_1BilinearFormIntegrator.html" target="_top" xlink:title="Abstract base class BilinearFormIntegrator. ">
<polygon fill="white" stroke="black" points="1092.5,-137.5 1092.5,-160.5 1323.5,-160.5 1323.5,-137.5 1092.5,-137.5"/>
<text text-anchor="middle" x="1208" y="-145.3" font-family="Helvetica,sans-Serif" font-size="14.00">mfem::BilinearFormIntegrator</text>
</a>
</g>
</g>
<!-- Node3&#45;&gt;Node2 -->
<g id="edge2" class="edge"><title>Node3&#45;&gt;Node2</title>
<path fill="none" stroke="midnightblue" d="M1287.75,-135.529C1299.92,-133.185 1312.32,-130.644 1324,-128 1371.98,-117.135 1426.51,-101.901 1462.22,-91.5292"/>
<polygon fill="midnightblue" stroke="midnightblue" points="1286.78,-132.151 1277.6,-137.45 1288.08,-139.029 1286.78,-132.151"/>
</g>
<!-- Node4 -->
<g id="node4" class="node"><title>Node4</title>
<g id="a_node4"><a xlink:href="classmfem_1_1NonlinearFormIntegrator.html" target="_top" xlink:title="mfem::NonlinearFormIntegrator">
<polygon fill="white" stroke="black" points="808,-137.5 808,-160.5 1054,-160.5 1054,-137.5 808,-137.5"/>
<text text-anchor="middle" x="931" y="-145.3" font-family="Helvetica,sans-Serif" font-size="14.00">mfem::NonlinearFormIntegrator</text>
</a>
</g>
</g>
<!-- Node4&#45;&gt;Node3 -->
<g id="edge3" class="edge"><title>Node4&#45;&gt;Node3</title>
<path fill="none" stroke="midnightblue" d="M1064.31,-149C1073.62,-149 1082.97,-149 1092.18,-149"/>
<polygon fill="midnightblue" stroke="midnightblue" points="1064.22,-145.5 1054.22,-149 1064.22,-152.5 1064.22,-145.5"/>
</g>
<!-- Node5 -->
<g id="node5" class="node"><title>Node5</title>
<g id="a_node5"><a xlink:href="classmfem_1_1IntegrationRule.html" target="_top" xlink:title="Class for an integration rule &#45; an Array of IntegrationPoint. ">
<polygon fill="white" stroke="black" points="538,-137.5 538,-160.5 716,-160.5 716,-137.5 538,-137.5"/>
<text text-anchor="middle" x="627" y="-145.3" font-family="Helvetica,sans-Serif" font-size="14.00">mfem::IntegrationRule</text>
</a>
</g>
</g>
<!-- Node5&#45;&gt;Node4 -->
<g id="edge4" class="edge"><title>Node5&#45;&gt;Node4</title>
<path fill="none" stroke="#9a32cd" stroke-dasharray="5,2" d="M726.374,-149C752.352,-149 780.706,-149 807.778,-149"/>
<polygon fill="#9a32cd" stroke="#9a32cd" points="726.163,-145.5 716.163,-149 726.163,-152.5 726.163,-145.5"/>
<text text-anchor="middle" x="762" y="-152.8" font-family="Helvetica,sans-Serif" font-size="14.00"> IntRule</text>
</g>
<!-- Node6 -->
<g id="node6" class="node"><title>Node6</title>
<g id="a_node6"><a xlink:href="classmfem_1_1Array.html" target="_top" xlink:title="mfem::Array\&lt; Integration\lPoint \&gt;">
<polygon fill="white" stroke="black" points="296.5,-130 296.5,-168 499.5,-168 499.5,-130 296.5,-130"/>
<text text-anchor="start" x="304.5" y="-152.8" font-family="Helvetica,sans-Serif" font-size="14.00">mfem::Array&lt; Integration</text>
<text text-anchor="middle" x="398" y="-137.8" font-family="Helvetica,sans-Serif" font-size="14.00">Point &gt;</text>
</a>
</g>
</g>
<!-- Node6&#45;&gt;Node5 -->
<g id="edge5" class="edge"><title>Node6&#45;&gt;Node5</title>
<path fill="none" stroke="midnightblue" d="M509.798,-149C519.256,-149 528.739,-149 537.985,-149"/>
<polygon fill="midnightblue" stroke="midnightblue" points="509.557,-145.5 499.557,-149 509.557,-152.5 509.557,-145.5"/>
</g>
<!-- Node7 -->
<g id="node7" class="node"><title>Node7</title>
<g id="a_node7"><a xlink:href="classmfem_1_1Memory.html" target="_top" xlink:title="mfem::Memory\&lt; Integration\lPoint \&gt;">
<polygon fill="white" stroke="red" points="0,-130 0,-168 222,-168 222,-130 0,-130"/>
<text text-anchor="start" x="8" y="-152.8" font-family="Helvetica,sans-Serif" font-size="14.00">mfem::Memory&lt; Integration</text>
<text text-anchor="middle" x="111" y="-137.8" font-family="Helvetica,sans-Serif" font-size="14.00">Point &gt;</text>
</a>
</g>
</g>
<!-- Node7&#45;&gt;Node6 -->
<g id="edge6" class="edge"><title>Node7&#45;&gt;Node6</title>
<path fill="none" stroke="#9a32cd" stroke-dasharray="5,2" d="M232.278,-149C253.639,-149 275.683,-149 296.426,-149"/>
<polygon fill="#9a32cd" stroke="#9a32cd" points="232.188,-145.5 222.188,-149 232.188,-152.5 232.188,-145.5"/>
<text text-anchor="middle" x="259" y="-152.8" font-family="Helvetica,sans-Serif" font-size="14.00"> data</text>
</g>
<!-- Node8 -->
<g id="node8" class="node"><title>Node8</title>
<g id="a_node8"><a xlink:href="classmfem_1_1MatrixCoefficient.html" target="_top" xlink:title="mfem::MatrixCoefficient">
<polygon fill="white" stroke="black" points="1114,-95.5 1114,-118.5 1302,-118.5 1302,-95.5 1114,-95.5"/>
<text text-anchor="middle" x="1208" y="-103.3" font-family="Helvetica,sans-Serif" font-size="14.00">mfem::MatrixCoefficient</text>
</a>
</g>
</g>
<!-- Node8&#45;&gt;Node2 -->
<g id="edge7" class="edge"><title>Node8&#45;&gt;Node2</title>
<path fill="none" stroke="#9a32cd" stroke-dasharray="5,2" d="M1312.26,-97.4524C1336.86,-95.1771 1363.25,-92.7375 1388.26,-90.425"/>
<polygon fill="#9a32cd" stroke="#9a32cd" points="1311.83,-93.9768 1302.19,-98.3828 1312.47,-100.947 1311.83,-93.9768"/>
<text text-anchor="middle" x="1356" y="-98.8" font-family="Helvetica,sans-Serif" font-size="14.00"> MQ</text>
</g>
<!-- Node9 -->
<g id="node9" class="node"><title>Node9</title>
<g id="a_node9"><a xlink:href="classmfem_1_1VectorCoefficient.html" target="_top" xlink:title="mfem::VectorCoefficient">
<polygon fill="white" stroke="black" points="1113,-42.5 1113,-65.5 1303,-65.5 1303,-42.5 1113,-42.5"/>
<text text-anchor="middle" x="1208" y="-50.3" font-family="Helvetica,sans-Serif" font-size="14.00">mfem::VectorCoefficient</text>
</a>
</g>
</g>
<!-- Node9&#45;&gt;Node2 -->
<g id="edge8" class="edge"><title>Node9&#45;&gt;Node2</title>
<path fill="none" stroke="#9a32cd" stroke-dasharray="5,2" d="M1313.34,-51.8761C1332.23,-52.2795 1351.72,-53.2145 1370,-55 1397.42,-57.6792 1427.66,-63.2695 1452.16,-68.4857"/>
<polygon fill="#9a32cd" stroke="#9a32cd" points="1313.28,-48.3747 1303.22,-51.7082 1313.16,-55.3737 1313.28,-48.3747"/>
<text text-anchor="middle" x="1356" y="-73.8" font-family="Helvetica,sans-Serif" font-size="14.00"> VQ</text>
<text text-anchor="middle" x="1356" y="-58.8" font-family="Helvetica,sans-Serif" font-size="14.00">DQ</text>
</g>
<!-- Node10 -->
<g id="node10" class="node"><title>Node10</title>
<g id="a_node10"><a xlink:href="classmfem_1_1Coefficient.html" target="_top" xlink:title="Base class Coefficient that may optionally depend on time. ">
<polygon fill="white" stroke="black" points="1136,-0.5 1136,-23.5 1280,-23.5 1280,-0.5 1136,-0.5"/>
<text text-anchor="middle" x="1208" y="-8.3" font-family="Helvetica,sans-Serif" font-size="14.00">mfem::Coefficient</text>
</a>
</g>
</g>
<!-- Node10&#45;&gt;Node2 -->
<g id="edge9" class="edge"><title>Node10&#45;&gt;Node2</title>
<path fill="none" stroke="#9a32cd" stroke-dasharray="5,2" d="M1290.17,-20.5545C1315.89,-24.0748 1344.31,-28.8121 1370,-35 1406.12,-43.7011 1446.36,-58.2901 1472.58,-68.4909"/>
<polygon fill="#9a32cd" stroke="#9a32cd" points="1290.45,-17.0617 1280.08,-19.2163 1289.53,-24.0009 1290.45,-17.0617"/>
<text text-anchor="middle" x="1356" y="-38.8" font-family="Helvetica,sans-Serif" font-size="14.00"> Q</text>
</g>
</g>
</svg>
