<?xml version="1.0" encoding="UTF-8" standalone="no"?>
<!DOCTYPE svg PUBLIC "-//W3C//DTD SVG 1.1//EN"
 "http://www.w3.org/Graphics/SVG/1.1/DTD/svg11.dtd">
<!-- Generated by graphviz version 2.30.1 (20170916.1124)
 -->
<!-- Title: mfem::TensorBasisElement Pages: 1 -->
<svg width="698pt" height="242pt"
 viewBox="0.00 0.00 698.00 242.00" xmlns="http://www.w3.org/2000/svg" xmlns:xlink="http://www.w3.org/1999/xlink">
<g id="graph0" class="graph" transform="scale(1 1) rotate(0) translate(4 238)">
<title>mfem::TensorBasisElement</title>
<polygon fill="white" stroke="white" points="-4,5 -4,-238 695,-238 695,5 -4,5"/>
<!-- Node1 -->
<g id="node1" class="node"><title>Node1</title>
<polygon fill="#bfbfbf" stroke="black" points="0.5,-80.5 0.5,-103.5 185.5,-103.5 185.5,-80.5 0.5,-80.5"/>
<text text-anchor="middle" x="93" y="-88.3" font-family="Helvetica,sans-Serif" font-size="14.00">mfem::TensorBasisElement</text>
</g>
<!-- Node2 -->
<g id="node2" class="node"><title>Node2</title>
<g id="a_node2"><a xlink:href="classmfem_1_1NodalTensorFiniteElement.html" target="_top" xlink:title="mfem::NodalTensorFiniteElement">
<polygon fill="white" stroke="black" points="222,-105.5 222,-128.5 442,-128.5 442,-105.5 222,-105.5"/>
<text text-anchor="middle" x="332" y="-113.3" font-family="Helvetica,sans-Serif" font-size="14.00">mfem::NodalTensorFiniteElement</text>
</a>
</g>
</g>
<!-- Node1&#45;&gt;Node2 -->
<g id="edge1" class="edge"><title>Node1&#45;&gt;Node2</title>
<path fill="none" stroke="midnightblue" d="M195.71,-102.729C204.354,-103.641 213.119,-104.565 221.818,-105.483"/>
<polygon fill="midnightblue" stroke="midnightblue" points="195.942,-99.2341 185.63,-101.666 195.208,-106.195 195.942,-99.2341"/>
</g>
<!-- Node9 -->
<g id="node9" class="node"><title>Node9</title>
<g id="a_node9"><a xlink:href="classmfem_1_1PositiveTensorFiniteElement.html" target="_top" xlink:title="mfem::PositiveTensorFinite\lElement">
<polygon fill="white" stroke="red" points="241,-48 241,-86 423,-86 423,-48 241,-48"/>
<text text-anchor="start" x="249" y="-70.8" font-family="Helvetica,sans-Serif" font-size="14.00">mfem::PositiveTensorFinite</text>
<text text-anchor="middle" x="332" y="-55.8" font-family="Helvetica,sans-Serif" font-size="14.00">Element</text>
</a>
</g>
</g>
<!-- Node1&#45;&gt;Node9 -->
<g id="edge8" class="edge"><title>Node1&#45;&gt;Node9</title>
<path fill="none" stroke="midnightblue" d="M195.896,-81.2515C210.824,-79.6768 226.111,-78.0642 240.784,-76.5165"/>
<polygon fill="midnightblue" stroke="midnightblue" points="195.208,-77.8045 185.63,-82.3343 195.942,-84.7659 195.208,-77.8045"/>
</g>
<!-- Node3 -->
<g id="node3" class="node"><title>Node3</title>
<g id="a_node3"><a xlink:href="classmfem_1_1H1__HexahedronElement.html" target="_top" xlink:title="mfem::H1_HexahedronElement">
<polygon fill="white" stroke="black" points="480,-210.5 480,-233.5 688,-233.5 688,-210.5 480,-210.5"/>
<text text-anchor="middle" x="584" y="-218.3" font-family="Helvetica,sans-Serif" font-size="14.00">mfem::H1_HexahedronElement</text>
</a>
</g>
</g>
<!-- Node2&#45;&gt;Node3 -->
<g id="edge2" class="edge"><title>Node2&#45;&gt;Node3</title>
<path fill="none" stroke="midnightblue" d="M357.396,-134.507C385.249,-153.668 432.814,-183.928 478,-201 487.913,-204.745 498.616,-207.863 509.268,-210.449"/>
<polygon fill="midnightblue" stroke="midnightblue" points="359.28,-131.553 349.074,-128.706 355.277,-137.296 359.28,-131.553"/>
</g>
<!-- Node4 -->
<g id="node4" class="node"><title>Node4</title>
<g id="a_node4"><a xlink:href="classmfem_1_1H1__QuadrilateralElement.html" target="_top" xlink:title="mfem::H1_QuadrilateralElement">
<polygon fill="white" stroke="black" points="478,-168.5 478,-191.5 690,-191.5 690,-168.5 478,-168.5"/>
<text text-anchor="middle" x="584" y="-176.3" font-family="Helvetica,sans-Serif" font-size="14.00">mfem::H1_QuadrilateralElement</text>
</a>
</g>
</g>
<!-- Node2&#45;&gt;Node4 -->
<g id="edge3" class="edge"><title>Node2&#45;&gt;Node4</title>
<path fill="none" stroke="midnightblue" d="M379.356,-131.511C407.687,-140.109 444.75,-150.875 478,-159 491.815,-162.376 506.75,-165.609 520.901,-168.484"/>
<polygon fill="midnightblue" stroke="midnightblue" points="380.306,-128.142 369.719,-128.568 378.261,-134.837 380.306,-128.142"/>
</g>
<!-- Node5 -->
<g id="node5" class="node"><title>Node5</title>
<g id="a_node5"><a xlink:href="classmfem_1_1H1__SegmentElement.html" target="_top" xlink:title="mfem::H1_SegmentElement">
<polygon fill="white" stroke="black" points="489.5,-126.5 489.5,-149.5 678.5,-149.5 678.5,-126.5 489.5,-126.5"/>
<text text-anchor="middle" x="584" y="-134.3" font-family="Helvetica,sans-Serif" font-size="14.00">mfem::H1_SegmentElement</text>
</a>
</g>
</g>
<!-- Node2&#45;&gt;Node5 -->
<g id="edge4" class="edge"><title>Node2&#45;&gt;Node5</title>
<path fill="none" stroke="midnightblue" d="M452.588,-127.045C464.88,-128.078 477.241,-129.116 489.196,-130.12"/>
<polygon fill="midnightblue" stroke="midnightblue" points="452.548,-123.53 442.29,-126.18 451.962,-130.505 452.548,-123.53"/>
</g>
<!-- Node6 -->
<g id="node6" class="node"><title>Node6</title>
<g id="a_node6"><a xlink:href="classmfem_1_1L2__HexahedronElement.html" target="_top" xlink:title="mfem::L2_HexahedronElement">
<polygon fill="white" stroke="black" points="481,-84.5 481,-107.5 687,-107.5 687,-84.5 481,-84.5"/>
<text text-anchor="middle" x="584" y="-92.3" font-family="Helvetica,sans-Serif" font-size="14.00">mfem::L2_HexahedronElement</text>
</a>
</g>
</g>
<!-- Node2&#45;&gt;Node6 -->
<g id="edge5" class="edge"><title>Node2&#45;&gt;Node6</title>
<path fill="none" stroke="midnightblue" d="M452.483,-106.963C461.9,-106.172 471.36,-105.378 480.647,-104.598"/>
<polygon fill="midnightblue" stroke="midnightblue" points="451.962,-103.495 442.29,-107.82 452.548,-110.47 451.962,-103.495"/>
</g>
<!-- Node7 -->
<g id="node7" class="node"><title>Node7</title>
<g id="a_node7"><a xlink:href="classmfem_1_1L2__QuadrilateralElement.html" target="_top" xlink:title="mfem::L2_QuadrilateralElement">
<polygon fill="white" stroke="black" points="479,-42.5 479,-65.5 689,-65.5 689,-42.5 479,-42.5"/>
<text text-anchor="middle" x="584" y="-50.3" font-family="Helvetica,sans-Serif" font-size="14.00">mfem::L2_QuadrilateralElement</text>
</a>
</g>
</g>
<!-- Node2&#45;&gt;Node7 -->
<g id="edge6" class="edge"><title>Node2&#45;&gt;Node7</title>
<path fill="none" stroke="midnightblue" d="M416.229,-102.986C425.037,-100.68 433.774,-98.0318 442,-95 459.174,-88.6701 460.82,-81.3148 478,-75 488.208,-71.248 499.233,-68.1141 510.169,-65.5118"/>
<polygon fill="midnightblue" stroke="midnightblue" points="415.145,-99.6483 406.277,-105.446 416.825,-106.444 415.145,-99.6483"/>
</g>
<!-- Node8 -->
<g id="node8" class="node"><title>Node8</title>
<g id="a_node8"><a xlink:href="classmfem_1_1L2__SegmentElement.html" target="_top" xlink:title="mfem::L2_SegmentElement">
<polygon fill="white" stroke="black" points="490.5,-0.5 490.5,-23.5 677.5,-23.5 677.5,-0.5 490.5,-0.5"/>
<text text-anchor="middle" x="584" y="-8.3" font-family="Helvetica,sans-Serif" font-size="14.00">mfem::L2_SegmentElement</text>
</a>
</g>
</g>
<!-- Node2&#45;&gt;Node8 -->
<g id="edge7" class="edge"><title>Node2&#45;&gt;Node8</title>
<path fill="none" stroke="midnightblue" d="M432.148,-101.096C435.575,-99.2659 438.874,-97.2407 442,-95 467.897,-76.4356 452.086,-51.5416 478,-33 483.216,-29.2679 488.933,-26.1604 494.921,-23.5768"/>
<polygon fill="midnightblue" stroke="midnightblue" points="430.364,-98.0671 422.81,-105.496 433.348,-104.399 430.364,-98.0671"/>
</g>
</g>
</svg>
