<?xml version="1.0" encoding="UTF-8" standalone="no"?>
<!DOCTYPE svg PUBLIC "-//W3C//DTD SVG 1.1//EN"
 "http://www.w3.org/Graphics/SVG/1.1/DTD/svg11.dtd">
<!-- Generated by graphviz version 2.30.1 (20170916.1124)
 -->
<!-- Title: mfem::TPiecewiseConstCoefficient&lt; complex_t &gt; Pages: 1 -->
<svg width="300pt" height="200pt"
 viewBox="0.00 0.00 300.00 200.00" xmlns="http://www.w3.org/2000/svg" xmlns:xlink="http://www.w3.org/1999/xlink">
<g id="graph0" class="graph" transform="scale(1 1) rotate(0) translate(4 196)">
<title>mfem::TPiecewiseConstCoefficient&lt; complex_t &gt;</title>
<polygon fill="white" stroke="white" points="-4,5 -4,-196 297,-196 297,5 -4,5"/>
<!-- Node1 -->
<g id="node1" class="node"><title>Node1</title>
<polygon fill="#bfbfbf" stroke="black" points="-0.5,-1 -0.5,-39 226.5,-39 226.5,-1 -0.5,-1"/>
<text text-anchor="start" x="7.5" y="-23.8" font-family="Helvetica,sans-Serif" font-size="14.00">mfem::TPiecewiseConstCoefficient</text>
<text text-anchor="middle" x="113" y="-8.8" font-family="Helvetica,sans-Serif" font-size="14.00">&lt; complex_t &gt;</text>
</g>
<!-- Node2 -->
<g id="node2" class="node"><title>Node2</title>
<g id="a_node2"><a xlink:href="classmfem_1_1TCoefficient.html" target="_top" xlink:title="mfem::TCoefficient">
<polygon fill="white" stroke="black" points="6.5,-92.5 6.5,-115.5 137.5,-115.5 137.5,-92.5 6.5,-92.5"/>
<text text-anchor="middle" x="72" y="-100.3" font-family="Helvetica,sans-Serif" font-size="14.00">mfem::TCoefficient</text>
</a>
</g>
</g>
<!-- Node2&#45;&gt;Node1 -->
<g id="edge1" class="edge"><title>Node2&#45;&gt;Node1</title>
<path fill="none" stroke="midnightblue" d="M81.9985,-83.003C88.6755,-69.6489 97.3887,-52.2225 103.877,-39.2462"/>
<polygon fill="midnightblue" stroke="midnightblue" points="78.7017,-81.7704 77.36,-92.2799 84.9627,-84.9009 78.7017,-81.7704"/>
</g>
<!-- Node3 -->
<g id="node3" class="node"><title>Node3</title>
<g id="a_node3"><a xlink:href="classmfem_1_1Vector.html" target="_top" xlink:title="Vector data type. ">
<polygon fill="white" stroke="black" points="156,-92.5 156,-115.5 254,-115.5 254,-92.5 156,-92.5"/>
<text text-anchor="middle" x="205" y="-100.3" font-family="Helvetica,sans-Serif" font-size="14.00">mfem::Vector</text>
</a>
</g>
</g>
<!-- Node3&#45;&gt;Node1 -->
<g id="edge2" class="edge"><title>Node3&#45;&gt;Node1</title>
<path fill="none" stroke="#9a32cd" stroke-dasharray="5,2" d="M185.159,-85.3156C169.899,-71.7145 148.887,-52.9858 133.471,-39.2462"/>
<polygon fill="#9a32cd" stroke="#9a32cd" points="183.179,-88.239 192.973,-92.2799 187.836,-83.0134 183.179,-88.239"/>
<text text-anchor="middle" x="200" y="-62.3" font-family="Helvetica,sans-Serif" font-size="14.00"> constants</text>
</g>
<!-- Node4 -->
<g id="node4" class="node"><title>Node4</title>
<g id="a_node4"><a xlink:href="classmfem_1_1Memory.html" target="_top" xlink:title="mfem::Memory\&lt; double \&gt;">
<polygon fill="white" stroke="black" points="118,-168.5 118,-191.5 292,-191.5 292,-168.5 118,-168.5"/>
<text text-anchor="middle" x="205" y="-176.3" font-family="Helvetica,sans-Serif" font-size="14.00">mfem::Memory&lt; double &gt;</text>
</a>
</g>
</g>
<!-- Node4&#45;&gt;Node3 -->
<g id="edge3" class="edge"><title>Node4&#45;&gt;Node3</title>
<path fill="none" stroke="#9a32cd" stroke-dasharray="5,2" d="M205,-158.277C205,-144.387 205,-126.675 205,-115.583"/>
<polygon fill="#9a32cd" stroke="#9a32cd" points="201.5,-158.398 205,-168.398 208.5,-158.398 201.5,-158.398"/>
<text text-anchor="middle" x="220.5" y="-138.3" font-family="Helvetica,sans-Serif" font-size="14.00"> data</text>
</g>
</g>
</svg>
