<?xml version="1.0" encoding="UTF-8" standalone="no"?>
<!DOCTYPE svg PUBLIC "-//W3C//DTD SVG 1.1//EN"
 "http://www.w3.org/Graphics/SVG/1.1/DTD/svg11.dtd">
<!-- Generated by graphviz version 2.30.1 (20200304.1809)
 -->
<!-- Title: mfem::Mesh Pages: 1 -->
<svg width="313pt" height="152pt"
 viewBox="0.00 0.00 313.00 152.00" xmlns="http://www.w3.org/2000/svg" xmlns:xlink="http://www.w3.org/1999/xlink">
<g id="graph0" class="graph" transform="scale(1 1) rotate(0) translate(4 148)">
<title>mfem::Mesh</title>
<polygon fill="white" stroke="white" points="-4,5 -4,-148 310,-148 310,5 -4,5"/>
<!-- Node1 -->
<g id="node1" class="node"><title>Node1</title>
<polygon fill="#bfbfbf" stroke="black" points="105,-120.5 105,-143.5 211,-143.5 211,-120.5 105,-120.5"/>
<text text-anchor="middle" x="158" y="-128.3" font-family="Helvetica,sans-Serif" font-size="14.00">mfem::Mesh</text>
</g>
<!-- Node2 -->
<g id="node2" class="node"><title>Node2</title>
<g id="a_node2"><a xlink:href="classmfem_1_1ParMesh.html" target="_top" xlink:title="Class for parallel meshes. ">
<polygon fill="white" stroke="black" points="18,-60.5 18,-83.5 146,-83.5 146,-60.5 18,-60.5"/>
<text text-anchor="middle" x="82" y="-68.3" font-family="Helvetica,sans-Serif" font-size="14.00">mfem::ParMesh</text>
</a>
</g>
</g>
<!-- Node1&#45;&gt;Node2 -->
<g id="edge1" class="edge"><title>Node1&#45;&gt;Node2</title>
<path fill="none" stroke="midnightblue" d="M136.063,-114.259C123.098,-104.364 107.075,-92.1361 95.8512,-83.5707"/>
<polygon fill="midnightblue" stroke="midnightblue" points="133.988,-117.077 144.06,-120.362 138.234,-111.513 133.988,-117.077"/>
</g>
<!-- Node4 -->
<g id="node4" class="node"><title>Node4</title>
<g id="a_node4"><a xlink:href="classmfem_1_1PumiMesh.html" target="_top" xlink:title="Base class for PUMI meshes. ">
<polygon fill="white" stroke="black" points="164.5,-60.5 164.5,-83.5 305.5,-83.5 305.5,-60.5 164.5,-60.5"/>
<text text-anchor="middle" x="235" y="-68.3" font-family="Helvetica,sans-Serif" font-size="14.00">mfem::PumiMesh</text>
</a>
</g>
</g>
<!-- Node1&#45;&gt;Node4 -->
<g id="edge3" class="edge"><title>Node1&#45;&gt;Node4</title>
<path fill="none" stroke="midnightblue" d="M180.226,-114.259C193.361,-104.364 209.595,-92.1361 220.967,-83.5707"/>
<polygon fill="midnightblue" stroke="midnightblue" points="178.005,-111.55 172.123,-120.362 182.216,-117.141 178.005,-111.55"/>
</g>
<!-- Node3 -->
<g id="node3" class="node"><title>Node3</title>
<g id="a_node3"><a xlink:href="classmfem_1_1ParPumiMesh.html" target="_top" xlink:title="Class for PUMI parallel meshes. ">
<polygon fill="white" stroke="black" points="0,-0.5 0,-23.5 164,-23.5 164,-0.5 0,-0.5"/>
<text text-anchor="middle" x="82" y="-8.3" font-family="Helvetica,sans-Serif" font-size="14.00">mfem::ParPumiMesh</text>
</a>
</g>
</g>
<!-- Node2&#45;&gt;Node3 -->
<g id="edge2" class="edge"><title>Node2&#45;&gt;Node3</title>
<path fill="none" stroke="midnightblue" d="M82,-50.1906C82,-41.1684 82,-30.9941 82,-23.5707"/>
<polygon fill="midnightblue" stroke="midnightblue" points="78.5001,-50.3619 82,-60.3619 85.5001,-50.3619 78.5001,-50.3619"/>
</g>
</g>
</svg>
