<?xml version="1.0" encoding="UTF-8" standalone="no"?>
<!DOCTYPE svg PUBLIC "-//W3C//DTD SVG 1.1//EN"
 "http://www.w3.org/Graphics/SVG/1.1/DTD/svg11.dtd">
<!-- Generated by graphviz version 2.30.1 (20170916.1124)
 -->
<!-- Title: mfem::IterativeSolver Pages: 1 -->
<svg width="640pt" height="242pt"
 viewBox="0.00 0.00 640.00 242.00" xmlns="http://www.w3.org/2000/svg" xmlns:xlink="http://www.w3.org/1999/xlink">
<g id="graph0" class="graph" transform="scale(1 1) rotate(0) translate(4 238)">
<title>mfem::IterativeSolver</title>
<polygon fill="white" stroke="white" points="-4,5 -4,-238 637,-238 637,5 -4,5"/>
<!-- Node1 -->
<g id="node1" class="node"><title>Node1</title>
<polygon fill="#bfbfbf" stroke="black" points="284,-105.5 284,-128.5 430,-128.5 430,-105.5 284,-105.5"/>
<text text-anchor="middle" x="357" y="-113.3" font-family="Helvetica,sans-Serif" font-size="14.00">mfem::IterativeSolver</text>
</g>
<!-- Node4 -->
<g id="node4" class="node"><title>Node4</title>
<g id="a_node4"><a xlink:href="classmfem_1_1BiCGSTABSolver.html" target="_top" xlink:title="BiCGSTAB method. ">
<polygon fill="white" stroke="black" points="466,-210.5 466,-233.5 632,-233.5 632,-210.5 466,-210.5"/>
<text text-anchor="middle" x="549" y="-218.3" font-family="Helvetica,sans-Serif" font-size="14.00">mfem::BiCGSTABSolver</text>
</a>
</g>
</g>
<!-- Node1&#45;&gt;Node4 -->
<g id="edge3" class="edge"><title>Node1&#45;&gt;Node4</title>
<path fill="none" stroke="midnightblue" d="M376.851,-135.652C397.194,-154.763 431.356,-184.013 466,-201 473.653,-204.752 482.047,-207.882 490.454,-210.48"/>
<polygon fill="midnightblue" stroke="midnightblue" points="379.156,-133.014 369.511,-128.63 374.317,-138.072 379.156,-133.014"/>
</g>
<!-- Node5 -->
<g id="node5" class="node"><title>Node5</title>
<g id="a_node5"><a xlink:href="classmfem_1_1CGSolver.html" target="_top" xlink:title="Conjugate gradient method. ">
<polygon fill="white" stroke="black" points="489.5,-168.5 489.5,-191.5 608.5,-191.5 608.5,-168.5 489.5,-168.5"/>
<text text-anchor="middle" x="549" y="-176.3" font-family="Helvetica,sans-Serif" font-size="14.00">mfem::CGSolver</text>
</a>
</g>
</g>
<!-- Node1&#45;&gt;Node5 -->
<g id="edge4" class="edge"><title>Node1&#45;&gt;Node5</title>
<path fill="none" stroke="midnightblue" d="M394.576,-132.487C415.309,-140.946 441.858,-151.245 466,-159 476.494,-162.371 487.877,-165.569 498.727,-168.406"/>
<polygon fill="midnightblue" stroke="midnightblue" points="395.774,-129.196 385.195,-128.624 393.109,-135.668 395.774,-129.196"/>
</g>
<!-- Node6 -->
<g id="node6" class="node"><title>Node6</title>
<g id="a_node6"><a xlink:href="classmfem_1_1FGMRESSolver.html" target="_top" xlink:title="FGMRES method. ">
<polygon fill="white" stroke="black" points="470.5,-126.5 470.5,-149.5 627.5,-149.5 627.5,-126.5 470.5,-126.5"/>
<text text-anchor="middle" x="549" y="-134.3" font-family="Helvetica,sans-Serif" font-size="14.00">mfem::FGMRESSolver</text>
</a>
</g>
</g>
<!-- Node1&#45;&gt;Node6 -->
<g id="edge5" class="edge"><title>Node1&#45;&gt;Node6</title>
<path fill="none" stroke="midnightblue" d="M440.043,-126.068C450.066,-127.176 460.286,-128.305 470.244,-129.406"/>
<polygon fill="midnightblue" stroke="midnightblue" points="440.426,-122.589 430.102,-124.969 439.657,-129.547 440.426,-122.589"/>
</g>
<!-- Node7 -->
<g id="node7" class="node"><title>Node7</title>
<g id="a_node7"><a xlink:href="classmfem_1_1GMRESSolver.html" target="_top" xlink:title="GMRES method. ">
<polygon fill="white" stroke="black" points="474.5,-84.5 474.5,-107.5 623.5,-107.5 623.5,-84.5 474.5,-84.5"/>
<text text-anchor="middle" x="549" y="-92.3" font-family="Helvetica,sans-Serif" font-size="14.00">mfem::GMRESSolver</text>
</a>
</g>
</g>
<!-- Node1&#45;&gt;Node7 -->
<g id="edge6" class="edge"><title>Node1&#45;&gt;Node7</title>
<path fill="none" stroke="midnightblue" d="M440.048,-107.932C451.46,-106.67 463.125,-105.381 474.37,-104.138"/>
<polygon fill="midnightblue" stroke="midnightblue" points="439.657,-104.453 430.102,-109.031 440.426,-111.411 439.657,-104.453"/>
</g>
<!-- Node8 -->
<g id="node8" class="node"><title>Node8</title>
<g id="a_node8"><a xlink:href="classmfem_1_1MINRESSolver.html" target="_top" xlink:title="MINRES method. ">
<polygon fill="white" stroke="black" points="473.5,-42.5 473.5,-65.5 624.5,-65.5 624.5,-42.5 473.5,-42.5"/>
<text text-anchor="middle" x="549" y="-50.3" font-family="Helvetica,sans-Serif" font-size="14.00">mfem::MINRESSolver</text>
</a>
</g>
</g>
<!-- Node1&#45;&gt;Node8 -->
<g id="edge7" class="edge"><title>Node1&#45;&gt;Node8</title>
<path fill="none" stroke="midnightblue" d="M394.576,-101.513C415.309,-93.0541 441.858,-82.7545 466,-75 476.494,-71.6293 487.877,-68.4312 498.727,-65.5939"/>
<polygon fill="midnightblue" stroke="midnightblue" points="393.109,-98.3317 385.195,-105.376 395.774,-104.804 393.109,-98.3317"/>
</g>
<!-- Node9 -->
<g id="node9" class="node"><title>Node9</title>
<g id="a_node9"><a xlink:href="classmfem_1_1NewtonSolver.html" target="_top" xlink:title="Newton&#39;s method for solving F(x)=b for a given operator F. ">
<polygon fill="white" stroke="red" points="477.5,-0.5 477.5,-23.5 620.5,-23.5 620.5,-0.5 477.5,-0.5"/>
<text text-anchor="middle" x="549" y="-8.3" font-family="Helvetica,sans-Serif" font-size="14.00">mfem::NewtonSolver</text>
</a>
</g>
</g>
<!-- Node1&#45;&gt;Node9 -->
<g id="edge8" class="edge"><title>Node1&#45;&gt;Node9</title>
<path fill="none" stroke="midnightblue" d="M376.851,-98.3478C397.194,-79.2366 431.356,-49.9869 466,-33 473.653,-29.2476 482.047,-26.1175 490.454,-23.5204"/>
<polygon fill="midnightblue" stroke="midnightblue" points="374.317,-95.928 369.511,-105.37 379.156,-100.986 374.317,-95.928"/>
</g>
<!-- Node2 -->
<g id="node2" class="node"><title>Node2</title>
<g id="a_node2"><a xlink:href="classmfem_1_1Solver.html" target="_top" xlink:title="Base class for solvers. ">
<polygon fill="white" stroke="black" points="150,-105.5 150,-128.5 248,-128.5 248,-105.5 150,-105.5"/>
<text text-anchor="middle" x="199" y="-113.3" font-family="Helvetica,sans-Serif" font-size="14.00">mfem::Solver</text>
</a>
</g>
</g>
<!-- Node2&#45;&gt;Node1 -->
<g id="edge1" class="edge"><title>Node2&#45;&gt;Node1</title>
<path fill="none" stroke="midnightblue" d="M258.159,-117C266.582,-117 275.336,-117 283.991,-117"/>
<polygon fill="midnightblue" stroke="midnightblue" points="258.078,-113.5 248.078,-117 258.078,-120.5 258.078,-113.5"/>
</g>
<!-- Node3 -->
<g id="node3" class="node"><title>Node3</title>
<g id="a_node3"><a xlink:href="classmfem_1_1Operator.html" target="_top" xlink:title="Abstract operator. ">
<polygon fill="white" stroke="black" points="0.5,-105.5 0.5,-128.5 113.5,-128.5 113.5,-105.5 0.5,-105.5"/>
<text text-anchor="middle" x="57" y="-113.3" font-family="Helvetica,sans-Serif" font-size="14.00">mfem::Operator</text>
</a>
</g>
</g>
<!-- Node3&#45;&gt;Node2 -->
<g id="edge2" class="edge"><title>Node3&#45;&gt;Node2</title>
<path fill="none" stroke="midnightblue" d="M123.875,-117C132.574,-117 141.358,-117 149.688,-117"/>
<polygon fill="midnightblue" stroke="midnightblue" points="123.734,-113.5 113.734,-117 123.734,-120.5 123.734,-113.5"/>
</g>
</g>
</svg>
