<?xml version="1.0" encoding="UTF-8" standalone="no"?>
<!DOCTYPE svg PUBLIC "-//W3C//DTD SVG 1.1//EN"
 "http://www.w3.org/Graphics/SVG/1.1/DTD/svg11.dtd">
<!-- Generated by graphviz version 2.30.1 (20170916.1124)
 -->
<!-- Title: mfem::DGDirichletLFIntegrator Pages: 1 -->
<svg width="972pt" height="300pt"
 viewBox="0.00 0.00 972.00 300.00" xmlns="http://www.w3.org/2000/svg" xmlns:xlink="http://www.w3.org/1999/xlink">
<g id="graph0" class="graph" transform="scale(1 1) rotate(0) translate(4 296)">
<title>mfem::DGDirichletLFIntegrator</title>
<polygon fill="white" stroke="white" points="-4,5 -4,-296 969,-296 969,5 -4,5"/>
<!-- Node1 -->
<g id="node1" class="node"><title>Node1</title>
<polygon fill="#bfbfbf" stroke="black" points="760.5,-151.5 760.5,-174.5 963.5,-174.5 963.5,-151.5 760.5,-151.5"/>
<text text-anchor="middle" x="862" y="-159.3" font-family="Helvetica,sans-Serif" font-size="14.00">mfem::DGDirichletLFIntegrator</text>
</g>
<!-- Node2 -->
<g id="node2" class="node"><title>Node2</title>
<g id="a_node2"><a xlink:href="classmfem_1_1LinearFormIntegrator.html" target="_top" xlink:title="Abstract base class LinearFormIntegrator. ">
<polygon fill="white" stroke="black" points="464.5,-261.5 464.5,-284.5 651.5,-284.5 651.5,-261.5 464.5,-261.5"/>
<text text-anchor="middle" x="558" y="-269.3" font-family="Helvetica,sans-Serif" font-size="14.00">mfem::LinearFormIntegrator</text>
</a>
</g>
</g>
<!-- Node2&#45;&gt;Node1 -->
<g id="edge1" class="edge"><title>Node2&#45;&gt;Node1</title>
<path fill="none" stroke="midnightblue" d="M661.863,-261.789C688.546,-256.912 716.842,-249.942 742,-240 783.422,-223.63 825.758,-191.917 847.009,-174.739"/>
<polygon fill="midnightblue" stroke="midnightblue" points="660.975,-258.391 651.725,-263.558 662.178,-265.287 660.975,-258.391"/>
</g>
<!-- Node3 -->
<g id="node3" class="node"><title>Node3</title>
<g id="a_node3"><a xlink:href="classmfem_1_1IntegrationRule.html" target="_top" xlink:title="Class for an integration rule &#45; an Array of IntegrationPoint. ">
<polygon fill="white" stroke="black" points="217.5,-261.5 217.5,-284.5 368.5,-284.5 368.5,-261.5 217.5,-261.5"/>
<text text-anchor="middle" x="293" y="-269.3" font-family="Helvetica,sans-Serif" font-size="14.00">mfem::IntegrationRule</text>
</a>
</g>
</g>
<!-- Node3&#45;&gt;Node2 -->
<g id="edge2" class="edge"><title>Node3&#45;&gt;Node2</title>
<path fill="none" stroke="#9a32cd" stroke-dasharray="5,2" d="M378.951,-273C406.219,-273 436.554,-273 464.345,-273"/>
<polygon fill="#9a32cd" stroke="#9a32cd" points="378.662,-269.5 368.662,-273 378.662,-276.5 378.662,-269.5"/>
<text text-anchor="middle" x="422" y="-276.8" font-family="Helvetica,sans-Serif" font-size="14.00"> IntRule</text>
</g>
<!-- Node4 -->
<g id="node4" class="node"><title>Node4</title>
<g id="a_node4"><a xlink:href="classmfem_1_1Array.html" target="_top" xlink:title="mfem::Array\&lt; Integration\lPoint \&gt;">
<polygon fill="white" stroke="red" points="0.5,-254 0.5,-292 167.5,-292 167.5,-254 0.5,-254"/>
<text text-anchor="start" x="8.5" y="-276.8" font-family="Helvetica,sans-Serif" font-size="14.00">mfem::Array&lt; Integration</text>
<text text-anchor="middle" x="84" y="-261.8" font-family="Helvetica,sans-Serif" font-size="14.00">Point &gt;</text>
</a>
</g>
</g>
<!-- Node4&#45;&gt;Node3 -->
<g id="edge3" class="edge"><title>Node4&#45;&gt;Node3</title>
<path fill="none" stroke="midnightblue" d="M177.799,-273C191.079,-273 204.598,-273 217.466,-273"/>
<polygon fill="midnightblue" stroke="midnightblue" points="177.704,-269.5 167.704,-273 177.704,-276.5 177.704,-269.5"/>
</g>
<!-- Node5 -->
<g id="node5" class="node"><title>Node5</title>
<g id="a_node5"><a xlink:href="classmfem_1_1MatrixCoefficient.html" target="_top" xlink:title="mfem::MatrixCoefficient">
<polygon fill="white" stroke="black" points="477.5,-219.5 477.5,-242.5 638.5,-242.5 638.5,-219.5 477.5,-219.5"/>
<text text-anchor="middle" x="558" y="-227.3" font-family="Helvetica,sans-Serif" font-size="14.00">mfem::MatrixCoefficient</text>
</a>
</g>
</g>
<!-- Node5&#45;&gt;Node1 -->
<g id="edge4" class="edge"><title>Node5&#45;&gt;Node1</title>
<path fill="none" stroke="#9a32cd" stroke-dasharray="5,2" d="M648.624,-224.726C678.603,-221.44 712.011,-216.474 742,-209 775.743,-200.59 812.855,-185.194 836.513,-174.544"/>
<polygon fill="#9a32cd" stroke="#9a32cd" points="648.179,-221.254 638.599,-225.778 648.909,-228.216 648.179,-221.254"/>
<text text-anchor="middle" x="706" y="-224.8" font-family="Helvetica,sans-Serif" font-size="14.00"> MQ</text>
</g>
<!-- Node6 -->
<g id="node6" class="node"><title>Node6</title>
<g id="a_node6"><a xlink:href="classmfem_1_1DenseMatrix.html" target="_top" xlink:title="Data type dense matrix using column&#45;major storage. ">
<polygon fill="white" stroke="black" points="490,-151.5 490,-174.5 626,-174.5 626,-151.5 490,-151.5"/>
<text text-anchor="middle" x="558" y="-159.3" font-family="Helvetica,sans-Serif" font-size="14.00">mfem::DenseMatrix</text>
</a>
</g>
</g>
<!-- Node6&#45;&gt;Node1 -->
<g id="edge5" class="edge"><title>Node6&#45;&gt;Node1</title>
<path fill="none" stroke="#9a32cd" stroke-dasharray="5,2" d="M636.431,-163C674.129,-163 719.923,-163 760.301,-163"/>
<polygon fill="#9a32cd" stroke="#9a32cd" points="636.024,-159.5 626.024,-163 636.024,-166.5 636.024,-159.5"/>
<text text-anchor="middle" x="706" y="-196.8" font-family="Helvetica,sans-Serif" font-size="14.00"> mq</text>
<text text-anchor="middle" x="706" y="-181.8" font-family="Helvetica,sans-Serif" font-size="14.00">adjJ</text>
<text text-anchor="middle" x="706" y="-166.8" font-family="Helvetica,sans-Serif" font-size="14.00">dshape</text>
</g>
<!-- Node7 -->
<g id="node7" class="node"><title>Node7</title>
<g id="a_node7"><a xlink:href="classmfem_1_1Matrix.html" target="_top" xlink:title="Abstract data type matrix. ">
<polygon fill="white" stroke="red" points="244.5,-151.5 244.5,-174.5 341.5,-174.5 341.5,-151.5 244.5,-151.5"/>
<text text-anchor="middle" x="293" y="-159.3" font-family="Helvetica,sans-Serif" font-size="14.00">mfem::Matrix</text>
</a>
</g>
</g>
<!-- Node7&#45;&gt;Node6 -->
<g id="edge6" class="edge"><title>Node7&#45;&gt;Node6</title>
<path fill="none" stroke="midnightblue" d="M351.675,-163C392.445,-163 447.221,-163 489.943,-163"/>
<polygon fill="midnightblue" stroke="midnightblue" points="351.627,-159.5 341.627,-163 351.627,-166.5 351.627,-159.5"/>
</g>
<!-- Node8 -->
<g id="node8" class="node"><title>Node8</title>
<g id="a_node8"><a xlink:href="classmfem_1_1Vector.html" target="_top" xlink:title="Vector data type. ">
<polygon fill="white" stroke="black" points="509,-53.5 509,-76.5 607,-76.5 607,-53.5 509,-53.5"/>
<text text-anchor="middle" x="558" y="-61.3" font-family="Helvetica,sans-Serif" font-size="14.00">mfem::Vector</text>
</a>
</g>
</g>
<!-- Node8&#45;&gt;Node1 -->
<g id="edge7" class="edge"><title>Node8&#45;&gt;Node1</title>
<path fill="none" stroke="#9a32cd" stroke-dasharray="5,2" d="M617.076,-63.9893C653.859,-65.0438 701.881,-69.5934 742,-84 784.943,-99.4208 827.631,-133.486 848.246,-151.427"/>
<polygon fill="#9a32cd" stroke="#9a32cd" points="617.087,-60.4889 607.016,-63.7793 616.94,-67.4874 617.087,-60.4889"/>
<text text-anchor="middle" x="706" y="-147.8" font-family="Helvetica,sans-Serif" font-size="14.00"> dshape_dn</text>
<text text-anchor="middle" x="706" y="-132.8" font-family="Helvetica,sans-Serif" font-size="14.00">nh</text>
<text text-anchor="middle" x="706" y="-117.8" font-family="Helvetica,sans-Serif" font-size="14.00">nor</text>
<text text-anchor="middle" x="706" y="-102.8" font-family="Helvetica,sans-Serif" font-size="14.00">ni</text>
<text text-anchor="middle" x="706" y="-87.8" font-family="Helvetica,sans-Serif" font-size="14.00">shape</text>
</g>
<!-- Node9 -->
<g id="node9" class="node"><title>Node9</title>
<g id="a_node9"><a xlink:href="classmfem_1_1Memory.html" target="_top" xlink:title="mfem::Memory\&lt; double \&gt;">
<polygon fill="white" stroke="black" points="206,-53.5 206,-76.5 380,-76.5 380,-53.5 206,-53.5"/>
<text text-anchor="middle" x="293" y="-61.3" font-family="Helvetica,sans-Serif" font-size="14.00">mfem::Memory&lt; double &gt;</text>
</a>
</g>
</g>
<!-- Node9&#45;&gt;Node8 -->
<g id="edge8" class="edge"><title>Node9&#45;&gt;Node8</title>
<path fill="none" stroke="#9a32cd" stroke-dasharray="5,2" d="M390.246,-65C430.534,-65 475.588,-65 508.7,-65"/>
<polygon fill="#9a32cd" stroke="#9a32cd" points="390.116,-61.5001 380.116,-65 390.116,-68.5001 390.116,-61.5001"/>
<text text-anchor="middle" x="422" y="-68.8" font-family="Helvetica,sans-Serif" font-size="14.00"> data</text>
</g>
<!-- Node10 -->
<g id="node10" class="node"><title>Node10</title>
<g id="a_node10"><a xlink:href="classmfem_1_1Coefficient.html" target="_top" xlink:title="Base class Coefficient that may optionally depend on time. ">
<polygon fill="white" stroke="black" points="496.5,-0.5 496.5,-23.5 619.5,-23.5 619.5,-0.5 496.5,-0.5"/>
<text text-anchor="middle" x="558" y="-8.3" font-family="Helvetica,sans-Serif" font-size="14.00">mfem::Coefficient</text>
</a>
</g>
</g>
<!-- Node10&#45;&gt;Node1 -->
<g id="edge9" class="edge"><title>Node10&#45;&gt;Node1</title>
<path fill="none" stroke="#9a32cd" stroke-dasharray="5,2" d="M629.987,-9.73792C665.355,-11.3176 707.761,-17.4602 742,-35 796.01,-62.6682 838.261,-125.23 854.162,-151.277"/>
<polygon fill="#9a32cd" stroke="#9a32cd" points="629.845,-6.23134 619.734,-9.39691 629.612,-13.2275 629.845,-6.23134"/>
<text text-anchor="middle" x="706" y="-53.8" font-family="Helvetica,sans-Serif" font-size="14.00"> uD</text>
<text text-anchor="middle" x="706" y="-38.8" font-family="Helvetica,sans-Serif" font-size="14.00">Q</text>
</g>
</g>
</svg>
