<?xml version="1.0" encoding="UTF-8" standalone="no"?>
<!DOCTYPE svg PUBLIC "-//W3C//DTD SVG 1.1//EN"
 "http://www.w3.org/Graphics/SVG/1.1/DTD/svg11.dtd">
<!-- Generated by graphviz version 2.30.1 (20200304.1809)
 -->
<!-- Title: mfem::TMOP_QualityMetric Pages: 1 -->
<svg width="366pt" height="400pt"
 viewBox="0.00 0.00 366.00 400.00" xmlns="http://www.w3.org/2000/svg" xmlns:xlink="http://www.w3.org/1999/xlink">
<g id="graph0" class="graph" transform="scale(1 1) rotate(0) translate(4 396)">
<title>mfem::TMOP_QualityMetric</title>
<polygon fill="white" stroke="white" points="-4,5 -4,-396 363,-396 363,5 -4,5"/>
<!-- Node1 -->
<g id="node1" class="node"><title>Node1</title>
<polygon fill="#bfbfbf" stroke="black" points="135,-0.5 135,-23.5 345,-23.5 345,-0.5 135,-0.5"/>
<text text-anchor="middle" x="240" y="-8.3" font-family="Helvetica,sans-Serif" font-size="14.00">mfem::TMOP_QualityMetric</text>
</g>
<!-- Node2 -->
<g id="node2" class="node"><title>Node2</title>
<g id="a_node2"><a xlink:href="classmfem_1_1HyperelasticModel.html" target="_top" xlink:title="Abstract class for hyperelastic models. ">
<polygon fill="white" stroke="black" points="47,-62.5 47,-85.5 247,-85.5 247,-62.5 47,-62.5"/>
<text text-anchor="middle" x="147" y="-70.3" font-family="Helvetica,sans-Serif" font-size="14.00">mfem::HyperelasticModel</text>
</a>
</g>
</g>
<!-- Node2&#45;&gt;Node1 -->
<g id="edge1" class="edge"><title>Node2&#45;&gt;Node1</title>
<path fill="none" stroke="midnightblue" d="M172.162,-56.7663C188.482,-46.2376 209.279,-32.8203 223.517,-23.6339"/>
<polygon fill="midnightblue" stroke="midnightblue" points="170.132,-53.9108 163.627,-62.2732 173.927,-59.7929 170.132,-53.9108"/>
</g>
<!-- Node3 -->
<g id="node3" class="node"><title>Node3</title>
<g id="a_node3"><a xlink:href="classmfem_1_1ElementTransformation.html" target="_top" xlink:title="mfem::ElementTransformation">
<polygon fill="white" stroke="black" points="15,-138.5 15,-161.5 251,-161.5 251,-138.5 15,-138.5"/>
<text text-anchor="middle" x="133" y="-146.3" font-family="Helvetica,sans-Serif" font-size="14.00">mfem::ElementTransformation</text>
</a>
</g>
</g>
<!-- Node3&#45;&gt;Node2 -->
<g id="edge2" class="edge"><title>Node3&#45;&gt;Node2</title>
<path fill="none" stroke="#9a32cd" stroke-dasharray="5,2" d="M136.921,-128.277C139.548,-114.387 142.899,-96.675 144.998,-85.5827"/>
<polygon fill="#9a32cd" stroke="#9a32cd" points="133.426,-127.921 135.006,-138.398 140.304,-129.223 133.426,-127.921"/>
<text text-anchor="middle" x="153.5" y="-108.3" font-family="Helvetica,sans-Serif" font-size="14.00"> Ttr</text>
</g>
<!-- Node4 -->
<g id="node4" class="node"><title>Node4</title>
<g id="a_node4"><a xlink:href="classmfem_1_1IntegrationPoint.html" target="_top" xlink:title="Class for integration point with weight. ">
<polygon fill="white" stroke="black" points="0,-244.5 0,-267.5 182,-267.5 182,-244.5 0,-244.5"/>
<text text-anchor="middle" x="91" y="-252.3" font-family="Helvetica,sans-Serif" font-size="14.00">mfem::IntegrationPoint</text>
</a>
</g>
</g>
<!-- Node4&#45;&gt;Node3 -->
<g id="edge3" class="edge"><title>Node4&#45;&gt;Node3</title>
<path fill="none" stroke="#9a32cd" stroke-dasharray="5,2" d="M98.9576,-234.919C104.967,-219.801 113.442,-198.575 121,-180 123.464,-173.944 126.255,-167.193 128.525,-161.73"/>
<polygon fill="#9a32cd" stroke="#9a32cd" points="95.6692,-233.717 95.2328,-244.303 102.175,-236.3 95.6692,-233.717"/>
<text text-anchor="middle" x="150" y="-199.3" font-family="Helvetica,sans-Serif" font-size="14.00"> IntPoint</text>
</g>
<!-- Node5 -->
<g id="node5" class="node"><title>Node5</title>
<g id="a_node5"><a xlink:href="classmfem_1_1DenseMatrix.html" target="_top" xlink:title="Data type dense matrix using column&#45;major storage. ">
<polygon fill="white" stroke="black" points="200,-244.5 200,-267.5 358,-267.5 358,-244.5 200,-244.5"/>
<text text-anchor="middle" x="279" y="-252.3" font-family="Helvetica,sans-Serif" font-size="14.00">mfem::DenseMatrix</text>
</a>
</g>
</g>
<!-- Node5&#45;&gt;Node3 -->
<g id="edge4" class="edge"><title>Node5&#45;&gt;Node3</title>
<path fill="none" stroke="#9a32cd" stroke-dasharray="5,2" d="M249.98,-239.12C243.254,-235.088 236.241,-230.59 230,-226 205.41,-207.914 203.333,-198.429 179,-180 170.27,-173.388 160.007,-166.814 151.392,-161.601"/>
<polygon fill="#9a32cd" stroke="#9a32cd" points="248.472,-242.292 258.876,-244.294 251.991,-236.24 248.472,-242.292"/>
<text text-anchor="middle" x="247.5" y="-214.3" font-family="Helvetica,sans-Serif" font-size="14.00"> adjJ</text>
<text text-anchor="middle" x="247.5" y="-199.3" font-family="Helvetica,sans-Serif" font-size="14.00">dFdx</text>
<text text-anchor="middle" x="247.5" y="-184.3" font-family="Helvetica,sans-Serif" font-size="14.00">invJ</text>
</g>
<!-- Node5&#45;&gt;Node1 -->
<g id="edge7" class="edge"><title>Node5&#45;&gt;Node1</title>
<path fill="none" stroke="#9a32cd" stroke-dasharray="5,2" d="M277.875,-234.317C275.644,-198.747 269.643,-123.846 256,-62 253.031,-48.5421 247.844,-33.5438 244.182,-23.7284"/>
<polygon fill="#9a32cd" stroke="#9a32cd" points="274.388,-234.642 278.472,-244.418 281.376,-234.229 274.388,-234.642"/>
<text text-anchor="middle" x="276.5" y="-108.3" font-family="Helvetica,sans-Serif" font-size="14.00"> Jtr</text>
</g>
<!-- Node6 -->
<g id="node6" class="node"><title>Node6</title>
<g id="a_node6"><a xlink:href="classmfem_1_1Matrix.html" target="_top" xlink:title="Abstract data type matrix. ">
<polygon fill="white" stroke="black" points="222.5,-306.5 222.5,-329.5 335.5,-329.5 335.5,-306.5 222.5,-306.5"/>
<text text-anchor="middle" x="279" y="-314.3" font-family="Helvetica,sans-Serif" font-size="14.00">mfem::Matrix</text>
</a>
</g>
</g>
<!-- Node6&#45;&gt;Node5 -->
<g id="edge5" class="edge"><title>Node6&#45;&gt;Node5</title>
<path fill="none" stroke="midnightblue" d="M279,-296.231C279,-286.592 279,-275.544 279,-267.634"/>
<polygon fill="midnightblue" stroke="midnightblue" points="275.5,-296.273 279,-306.273 282.5,-296.273 275.5,-296.273"/>
</g>
<!-- Node7 -->
<g id="node7" class="node"><title>Node7</title>
<g id="a_node7"><a xlink:href="classmfem_1_1Operator.html" target="_top" xlink:title="Abstract operator. ">
<polygon fill="white" stroke="black" points="212.5,-368.5 212.5,-391.5 345.5,-391.5 345.5,-368.5 212.5,-368.5"/>
<text text-anchor="middle" x="279" y="-376.3" font-family="Helvetica,sans-Serif" font-size="14.00">mfem::Operator</text>
</a>
</g>
</g>
<!-- Node7&#45;&gt;Node6 -->
<g id="edge6" class="edge"><title>Node7&#45;&gt;Node6</title>
<path fill="none" stroke="midnightblue" d="M279,-358.231C279,-348.592 279,-337.544 279,-329.634"/>
<polygon fill="midnightblue" stroke="midnightblue" points="275.5,-358.273 279,-368.273 282.5,-358.273 275.5,-358.273"/>
</g>
</g>
</svg>
