<?xml version="1.0" encoding="UTF-8" standalone="no"?>
<!DOCTYPE svg PUBLIC "-//W3C//DTD SVG 1.1//EN"
 "http://www.w3.org/Graphics/SVG/1.1/DTD/svg11.dtd">
<!-- Generated by graphviz version 2.30.1 (20170916.1124)
 -->
<!-- Title: mfem::ElementRestriction Pages: 1 -->
<!--zoomable 588 -->
<svg id="main" version="1.1" xmlns="http://www.w3.org/2000/svg" xmlns:xlink="http://www.w3.org/1999/xlink" xml:space="preserve" onload="init(evt)">
<style type="text/css"><![CDATA[
.edge:hover path { stroke: red; }
.edge:hover polygon { stroke: red; fill: red; }
]]></style>
<script type="text/javascript"><![CDATA[
var edges = document.getElementsByTagName('g');
if (edges && edges.length) {
  for (var i=0;i<edges.length;i++) {
    if (edges[i].id.substr(0,4)=='edge') {
      edges[i].setAttribute('class','edge');
    }
  }
}
]]></script>
        <defs>
                <circle id="rim" cx="0" cy="0" r="7"/>
                <circle id="rim2" cx="0" cy="0" r="3.5"/>
                <g id="zoomPlus">
                        <use xlink:href="#rim" fill="#404040">
                                <set attributeName="fill" to="#808080" begin="zoomplus.mouseover" end="zoomplus.mouseout"/>
                        </use>
                        <path d="M-4,0h8M0,-4v8" fill="none" stroke="white" stroke-width="1.5" pointer-events="none"/>
                </g>
                <g id="zoomMin">
                        <use xlink:href="#rim" fill="#404040">
                                <set attributeName="fill" to="#808080" begin="zoomminus.mouseover" end="zoomminus.mouseout"/>
                        </use>
                        <path d="M-4,0h8" fill="none" stroke="white" stroke-width="1.5" pointer-events="none"/>
                </g>
                <g id="dirArrow">
                        <path fill="none" stroke="white" stroke-width="1.5" d="M0,-3.0v7 M-2.5,-0.5L0,-3.0L2.5,-0.5"/>
                </g>
               <g id="resetDef">
                       <use xlink:href="#rim2" fill="#404040">
                               <set attributeName="fill" to="#808080" begin="reset.mouseover" end="reset.mouseout"/>
                       </use>
               </g>
        </defs>

<script type="text/javascript">
var viewWidth = 1454;
var viewHeight = 588;
var sectionId = 'dynsection-1';
</script>
<script xlink:href="svgpan.js"/>
<svg id="graph" class="graph">
<g id="viewport">
<title>mfem::ElementRestriction</title>
<polygon fill="white" stroke="white" points="-4,5 -4,-583.876 1451,-583.876 1451,5 -4,5"/>
<!-- Node1 -->
<g id="node1" class="node"><title>Node1</title>
<polygon fill="#bfbfbf" stroke="black" points="1272.5,-516.376 1272.5,-539.376 1445.5,-539.376 1445.5,-516.376 1272.5,-516.376"/>
<text text-anchor="middle" x="1359" y="-524.176" font-family="Helvetica,sans-Serif" font-size="14.00">mfem::ElementRestriction</text>
</g>
<!-- Node2 -->
<g id="node2" class="node"><title>Node2</title>
<g id="a_node2"><a xlink:href="classmfem_1_1Operator.html" target="_top" xlink:title="Abstract operator. ">
<polygon fill="white" stroke="black" points="1066.5,-556.376 1066.5,-579.376 1179.5,-579.376 1179.5,-556.376 1066.5,-556.376"/>
<text text-anchor="middle" x="1123" y="-564.176" font-family="Helvetica,sans-Serif" font-size="14.00">mfem::Operator</text>
</a>
</g>
</g>
<!-- Node2&#45;&gt;Node1 -->
<g id="edge1" class="edge"><title>Node2&#45;&gt;Node1</title>
<path fill="none" stroke="midnightblue" d="M1189.74,-556.638C1221.23,-551.256 1258.88,-544.819 1290.58,-539.401"/>
<polygon fill="midnightblue" stroke="midnightblue" points="1189.02,-553.211 1179.75,-558.346 1190.2,-560.111 1189.02,-553.211"/>
</g>
<!-- Node3 -->
<g id="node3" class="node"><title>Node3</title>
<g id="a_node3"><a xlink:href="classmfem_1_1Array.html" target="_top" xlink:title="mfem::Array\&lt; int \&gt;">
<polygon fill="white" stroke="black" points="216,-319.376 216,-342.376 346,-342.376 346,-319.376 216,-319.376"/>
<text text-anchor="middle" x="281" y="-327.176" font-family="Helvetica,sans-Serif" font-size="14.00">mfem::Array&lt; int &gt;</text>
</a>
</g>
</g>
<!-- Node3&#45;&gt;Node1 -->
<g id="edge2" class="edge"><title>Node3&#45;&gt;Node1</title>
<path fill="none" stroke="#9a32cd" stroke-dasharray="5,2" d="M292.275,-351.391C305.69,-376.322 331.357,-418.229 364,-443.876 441.423,-504.709 470.537,-527.876 569,-527.876 569,-527.876 569,-527.876 1124,-527.876 1173.16,-527.876 1228.12,-527.876 1272.42,-527.876"/>
<polygon fill="#9a32cd" stroke="#9a32cd" points="295.329,-349.677 287.593,-342.438 289.126,-352.921 295.329,-349.677"/>
<text text-anchor="middle" x="838" y="-546.676" font-family="Helvetica,sans-Serif" font-size="14.00"> offsets</text>
<text text-anchor="middle" x="838" y="-531.676" font-family="Helvetica,sans-Serif" font-size="14.00">indices</text>
</g>
<!-- Node7 -->
<g id="node7" class="node"><title>Node7</title>
<g id="a_node7"><a xlink:href="classmfem_1_1Mesh.html" target="_top" xlink:title="mfem::Mesh">
<polygon fill="white" stroke="red" points="523.5,-152.376 523.5,-175.376 616.5,-175.376 616.5,-152.376 523.5,-152.376"/>
<text text-anchor="middle" x="570" y="-160.176" font-family="Helvetica,sans-Serif" font-size="14.00">mfem::Mesh</text>
</a>
</g>
</g>
<!-- Node3&#45;&gt;Node7 -->
<g id="edge7" class="edge"><title>Node3&#45;&gt;Node7</title>
<path fill="none" stroke="#9a32cd" stroke-dasharray="5,2" d="M298.781,-311.64C314.224,-295.016 338.534,-271.435 364,-256.876 420.623,-224.506 446.005,-242.719 504,-212.876 509.372,-210.112 536.569,-189.178 554.038,-175.581"/>
<polygon fill="#9a32cd" stroke="#9a32cd" points="296.074,-309.414 291.946,-319.171 301.258,-314.118 296.074,-309.414"/>
<text text-anchor="middle" x="434" y="-305.676" font-family="Helvetica,sans-Serif" font-size="14.00"> attributes</text>
<text text-anchor="middle" x="434" y="-290.676" font-family="Helvetica,sans-Serif" font-size="14.00">be_to_edge</text>
<text text-anchor="middle" x="434" y="-275.676" font-family="Helvetica,sans-Serif" font-size="14.00">be_to_face</text>
<text text-anchor="middle" x="434" y="-260.676" font-family="Helvetica,sans-Serif" font-size="14.00">bdr_attributes</text>
</g>
<!-- Node8 -->
<g id="node8" class="node"><title>Node8</title>
<g id="a_node8"><a xlink:href="classmfem_1_1NURBSExtension.html" target="_top" xlink:title="mfem::NURBSExtension">
<polygon fill="white" stroke="red" points="755,-190.376 755,-213.376 921,-213.376 921,-190.376 755,-190.376"/>
<text text-anchor="middle" x="838" y="-198.176" font-family="Helvetica,sans-Serif" font-size="14.00">mfem::NURBSExtension</text>
</a>
</g>
</g>
<!-- Node3&#45;&gt;Node8 -->
<g id="edge10" class="edge"><title>Node3&#45;&gt;Node8</title>
<path fill="none" stroke="#9a32cd" stroke-dasharray="5,2" d="M356.398,-336.965C400.638,-337.983 457.093,-334.64 504,-316.876 513.478,-313.287 513.075,-307.678 522,-302.876 608.766,-256.202 641.057,-269.774 732,-231.876 740.256,-228.436 741.599,-225.945 750,-222.876 759.778,-219.304 770.398,-216.163 780.748,-213.473"/>
<polygon fill="#9a32cd" stroke="#9a32cd" points="356.396,-333.463 346.292,-336.652 356.179,-340.46 356.396,-333.463"/>
<text text-anchor="middle" x="570" y="-456.676" font-family="Helvetica,sans-Serif" font-size="14.00"> slave</text>
<text text-anchor="middle" x="570" y="-441.676" font-family="Helvetica,sans-Serif" font-size="14.00">master</text>
<text text-anchor="middle" x="570" y="-426.676" font-family="Helvetica,sans-Serif" font-size="14.00">v_spaceOffsets</text>
<text text-anchor="middle" x="570" y="-411.676" font-family="Helvetica,sans-Serif" font-size="14.00">p_meshOffsets</text>
<text text-anchor="middle" x="570" y="-396.676" font-family="Helvetica,sans-Serif" font-size="14.00">edge_to_knot</text>
<text text-anchor="middle" x="570" y="-381.676" font-family="Helvetica,sans-Serif" font-size="14.00">f_spaceOffsets</text>
<text text-anchor="middle" x="570" y="-366.676" font-family="Helvetica,sans-Serif" font-size="14.00">e_meshOffsets</text>
<text text-anchor="middle" x="570" y="-351.676" font-family="Helvetica,sans-Serif" font-size="14.00">el_to_patch</text>
<text text-anchor="middle" x="570" y="-336.676" font-family="Helvetica,sans-Serif" font-size="14.00">p_spaceOffsets</text>
<text text-anchor="middle" x="570" y="-321.676" font-family="Helvetica,sans-Serif" font-size="14.00">bel_to_patch</text>
<text text-anchor="middle" x="570" y="-306.676" font-family="Helvetica,sans-Serif" font-size="14.00">...</text>
</g>
<!-- Node5 -->
<g id="node5" class="node"><title>Node5</title>
<g id="a_node5"><a xlink:href="classmfem_1_1FiniteElementSpace.html" target="_top" xlink:title="Class FiniteElementSpace &#45; responsible for providing FEM view of the mesh, mainly managing the set of...">
<polygon fill="white" stroke="red" points="1032.5,-190.376 1032.5,-213.376 1213.5,-213.376 1213.5,-190.376 1032.5,-190.376"/>
<text text-anchor="middle" x="1123" y="-198.176" font-family="Helvetica,sans-Serif" font-size="14.00">mfem::FiniteElementSpace</text>
</a>
</g>
</g>
<!-- Node3&#45;&gt;Node5 -->
<g id="edge17" class="edge"><title>Node3&#45;&gt;Node5</title>
<path fill="none" stroke="#9a32cd" stroke-dasharray="5,2" d="M302.415,-349.274C353.775,-393.292 493.175,-498.795 618,-467.876 828.32,-415.78 1047.64,-258.151 1106.64,-213.675"/>
<polygon fill="#9a32cd" stroke="#9a32cd" points="304.512,-346.46 294.673,-342.529 299.913,-351.737 304.512,-346.46"/>
<text text-anchor="middle" x="684" y="-479.676" font-family="Helvetica,sans-Serif" font-size="14.00"> dof_ldof_array</text>
<text text-anchor="middle" x="684" y="-464.676" font-family="Helvetica,sans-Serif" font-size="14.00">dof_elem_array</text>
</g>
<!-- Node4 -->
<g id="node4" class="node"><title>Node4</title>
<g id="a_node4"><a xlink:href="classmfem_1_1Memory.html" target="_top" xlink:title="mfem::Memory\&lt; int \&gt;">
<polygon fill="white" stroke="black" points="0,-106.376 0,-129.376 148,-129.376 148,-106.376 0,-106.376"/>
<text text-anchor="middle" x="74" y="-114.176" font-family="Helvetica,sans-Serif" font-size="14.00">mfem::Memory&lt; int &gt;</text>
</a>
</g>
</g>
<!-- Node4&#45;&gt;Node3 -->
<g id="edge3" class="edge"><title>Node4&#45;&gt;Node3</title>
<path fill="none" stroke="#9a32cd" stroke-dasharray="5,2" d="M93.3555,-136.948C134.879,-180.092 235.026,-284.147 268.721,-319.157"/>
<polygon fill="#9a32cd" stroke="#9a32cd" points="95.77,-134.41 86.3137,-129.632 90.7264,-139.264 95.77,-134.41"/>
<text text-anchor="middle" x="182" y="-247.676" font-family="Helvetica,sans-Serif" font-size="14.00"> data</text>
</g>
<!-- Node9 -->
<g id="node9" class="node"><title>Node9</title>
<g id="a_node9"><a xlink:href="classmfem_1_1Table.html" target="_top" xlink:title="mfem::Table">
<polygon fill="white" stroke="black" points="234.5,-106.376 234.5,-129.376 327.5,-129.376 327.5,-106.376 234.5,-106.376"/>
<text text-anchor="middle" x="281" y="-114.176" font-family="Helvetica,sans-Serif" font-size="14.00">mfem::Table</text>
</a>
</g>
</g>
<!-- Node4&#45;&gt;Node9 -->
<g id="edge12" class="edge"><title>Node4&#45;&gt;Node9</title>
<path fill="none" stroke="#9a32cd" stroke-dasharray="5,2" d="M158.37,-117.876C184.321,-117.876 211.968,-117.876 234.336,-117.876"/>
<polygon fill="#9a32cd" stroke="#9a32cd" points="158.142,-114.376 148.141,-117.876 158.141,-121.376 158.142,-114.376"/>
<text text-anchor="middle" x="182" y="-136.676" font-family="Helvetica,sans-Serif" font-size="14.00"> I</text>
<text text-anchor="middle" x="182" y="-121.676" font-family="Helvetica,sans-Serif" font-size="14.00">J</text>
</g>
<!-- Node10 -->
<g id="node10" class="node"><title>Node10</title>
<g id="a_node10"><a xlink:href="classmfem_1_1SparseMatrix.html" target="_top" xlink:title="Data type sparse matrix. ">
<polygon fill="white" stroke="red" points="364,-13.3764 364,-36.3764 504,-36.3764 504,-13.3764 364,-13.3764"/>
<text text-anchor="middle" x="434" y="-21.1764" font-family="Helvetica,sans-Serif" font-size="14.00">mfem::SparseMatrix</text>
</a>
</g>
</g>
<!-- Node4&#45;&gt;Node10 -->
<g id="edge16" class="edge"><title>Node4&#45;&gt;Node10</title>
<path fill="none" stroke="#9a32cd" stroke-dasharray="5,2" d="M112.613,-102.472C128.857,-96.1725 148.187,-89.144 166,-83.8764 234.399,-63.6496 314.483,-46.8419 368.973,-36.4074"/>
<polygon fill="#9a32cd" stroke="#9a32cd" points="110.963,-99.3594 102.939,-106.277 113.526,-105.874 110.963,-99.3594"/>
<text text-anchor="middle" x="182" y="-102.676" font-family="Helvetica,sans-Serif" font-size="14.00"> I</text>
<text text-anchor="middle" x="182" y="-87.6764" font-family="Helvetica,sans-Serif" font-size="14.00">J</text>
</g>
<!-- Node5&#45;&gt;Node1 -->
<g id="edge4" class="edge"><title>Node5&#45;&gt;Node1</title>
<path fill="none" stroke="#9a32cd" stroke-dasharray="5,2" d="M1138.39,-221.93C1182.47,-283.339 1314.72,-467.577 1349.53,-516.072"/>
<polygon fill="#9a32cd" stroke="#9a32cd" points="1141,-219.562 1132.33,-213.479 1135.32,-223.644 1141,-219.562"/>
<text text-anchor="middle" x="1243" y="-378.676" font-family="Helvetica,sans-Serif" font-size="14.00"> fes</text>
</g>
<!-- Node6 -->
<g id="node6" class="node"><title>Node6</title>
<g id="a_node6"><a xlink:href="classmfem_1_1Array.html" target="_top" xlink:title="mfem::Array\&lt; mfem::\lQuadratureInterpolator * \&gt;">
<polygon fill="white" stroke="red" points="750.5,-232.876 750.5,-270.876 925.5,-270.876 925.5,-232.876 750.5,-232.876"/>
<text text-anchor="start" x="758.5" y="-255.676" font-family="Helvetica,sans-Serif" font-size="14.00">mfem::Array&lt; mfem::</text>
<text text-anchor="middle" x="838" y="-240.676" font-family="Helvetica,sans-Serif" font-size="14.00">QuadratureInterpolator * &gt;</text>
</a>
</g>
</g>
<!-- Node6&#45;&gt;Node5 -->
<g id="edge5" class="edge"><title>Node6&#45;&gt;Node5</title>
<path fill="none" stroke="#9a32cd" stroke-dasharray="5,2" d="M935.826,-234.769C975.615,-227.739 1020.65,-219.782 1056.47,-213.455"/>
<polygon fill="#9a32cd" stroke="#9a32cd" points="935.071,-231.348 925.833,-236.535 936.289,-238.242 935.071,-231.348"/>
<text text-anchor="middle" x="979" y="-236.676" font-family="Helvetica,sans-Serif" font-size="14.00"> E2Q_array</text>
</g>
<!-- Node7&#45;&gt;Node5 -->
<g id="edge6" class="edge"><title>Node7&#45;&gt;Node5</title>
<path fill="none" stroke="#9a32cd" stroke-dasharray="5,2" d="M626.731,-154.737C629.862,-154.4 632.967,-154.108 636,-153.876 678.542,-150.623 689.354,-152.559 732,-153.876 818.346,-156.544 840.252,-155.388 926,-165.876 974.764,-171.841 1029.74,-182.265 1069.02,-190.366"/>
<polygon fill="#9a32cd" stroke="#9a32cd" points="626.217,-151.274 616.709,-155.948 627.056,-158.223 626.217,-151.274"/>
<text text-anchor="middle" x="838" y="-169.676" font-family="Helvetica,sans-Serif" font-size="14.00"> mesh</text>
</g>
<!-- Node7&#45;&gt;Node8 -->
<g id="edge9" class="edge"><title>Node7&#45;&gt;Node8</title>
<path fill="none" stroke="#9a32cd" stroke-dasharray="5,2" d="M627.091,-161.124C630.104,-161.028 633.088,-160.944 636,-160.876 678.655,-159.893 690.07,-152.98 732,-160.876 761.617,-166.454 793.598,-180.158 814.381,-190.193"/>
<polygon fill="#9a32cd" stroke="#9a32cd" points="626.667,-157.637 616.801,-161.497 626.921,-164.633 626.667,-157.637"/>
<text text-anchor="middle" x="684" y="-164.676" font-family="Helvetica,sans-Serif" font-size="14.00"> patchTopo</text>
</g>
<!-- Node8&#45;&gt;Node7 -->
<g id="edge8" class="edge"><title>Node8&#45;&gt;Node7</title>
<path fill="none" stroke="#9a32cd" stroke-dasharray="5,2" d="M744.973,-194.386C710.63,-190.914 671.394,-186.141 636,-179.876 629.019,-178.641 621.675,-177.086 614.536,-175.433"/>
<polygon fill="#9a32cd" stroke="#9a32cd" points="744.696,-197.876 754.991,-195.376 745.384,-190.91 744.696,-197.876"/>
<text text-anchor="middle" x="684" y="-196.676" font-family="Helvetica,sans-Serif" font-size="14.00"> NURBSext</text>
</g>
<!-- Node8&#45;&gt;Node5 -->
<g id="edge18" class="edge"><title>Node8&#45;&gt;Node5</title>
<path fill="none" stroke="#9a32cd" stroke-dasharray="5,2" d="M931.6,-201.876C963.977,-201.876 1000.25,-201.876 1032.38,-201.876"/>
<polygon fill="#9a32cd" stroke="#9a32cd" points="931.236,-198.376 921.235,-201.876 931.235,-205.376 931.236,-198.376"/>
<text text-anchor="middle" x="979" y="-205.676" font-family="Helvetica,sans-Serif" font-size="14.00"> NURBSext</text>
</g>
<!-- Node9&#45;&gt;Node8 -->
<g id="edge11" class="edge"><title>Node9&#45;&gt;Node8</title>
<path fill="none" stroke="#9a32cd" stroke-dasharray="5,2" d="M293.288,-138.223C306.824,-160.295 331.778,-194.324 364,-208.876 431.457,-239.341 638.415,-223.435 754.986,-211.354"/>
<polygon fill="#9a32cd" stroke="#9a32cd" points="296.291,-136.424 288.198,-129.587 290.26,-139.979 296.291,-136.424"/>
<text text-anchor="middle" x="570" y="-245.676" font-family="Helvetica,sans-Serif" font-size="14.00"> el_dof</text>
<text text-anchor="middle" x="570" y="-230.676" font-family="Helvetica,sans-Serif" font-size="14.00">bel_dof</text>
</g>
<!-- Node9&#45;&gt;Node7 -->
<g id="edge13" class="edge"><title>Node9&#45;&gt;Node7</title>
<path fill="none" stroke="#9a32cd" stroke-dasharray="5,2" d="M337.881,-109.142C383.64,-104.097 449.486,-101.713 504,-118.876 524.685,-125.389 544.597,-141.004 556.81,-152.005"/>
<polygon fill="#9a32cd" stroke="#9a32cd" points="337.378,-105.678 327.857,-110.326 338.198,-112.629 337.378,-105.678"/>
<text text-anchor="middle" x="434" y="-197.676" font-family="Helvetica,sans-Serif" font-size="14.00"> el_to_face</text>
<text text-anchor="middle" x="434" y="-182.676" font-family="Helvetica,sans-Serif" font-size="14.00">el_to_edge</text>
<text text-anchor="middle" x="434" y="-167.676" font-family="Helvetica,sans-Serif" font-size="14.00">edge_vertex</text>
<text text-anchor="middle" x="434" y="-152.676" font-family="Helvetica,sans-Serif" font-size="14.00">face_edge</text>
<text text-anchor="middle" x="434" y="-137.676" font-family="Helvetica,sans-Serif" font-size="14.00">el_to_el</text>
<text text-anchor="middle" x="434" y="-122.676" font-family="Helvetica,sans-Serif" font-size="14.00">bel_to_edge</text>
</g>
<!-- Node9&#45;&gt;Node5 -->
<g id="edge19" class="edge"><title>Node9&#45;&gt;Node5</title>
<path fill="none" stroke="#9a32cd" stroke-dasharray="5,2" d="M337.836,-105.492C346.554,-103.991 355.491,-102.699 364,-101.876 425.934,-95.8905 441.821,-99.5615 504,-101.876 732.231,-110.373 792.48,-109.284 1014,-164.876 1041.11,-171.679 1071.12,-182.212 1092.61,-190.303"/>
<polygon fill="#9a32cd" stroke="#9a32cd" points="336.951,-102.096 327.743,-107.335 338.209,-108.982 336.951,-102.096"/>
<text text-anchor="middle" x="684" y="-131.676" font-family="Helvetica,sans-Serif" font-size="14.00"> bdrElem_dof</text>
<text text-anchor="middle" x="684" y="-116.676" font-family="Helvetica,sans-Serif" font-size="14.00">elem_dof</text>
</g>
<!-- Node10&#45;&gt;Node5 -->
<g id="edge14" class="edge"><title>Node10&#45;&gt;Node5</title>
<path fill="none" stroke="#9a32cd" stroke-dasharray="5,2" d="M511.487,-11.8865C628.018,3.91091 853.399,18.4603 1014,-70.8764 1065.77,-99.6768 1102.83,-164.009 1116.36,-190.323"/>
<polygon fill="#9a32cd" stroke="#9a32cd" points="510.658,-8.46824 501.238,-13.3175 511.626,-15.401 510.658,-8.46824"/>
<text text-anchor="middle" x="684" y="-20.6764" font-family="Helvetica,sans-Serif" font-size="14.00"> cR</text>
<text text-anchor="middle" x="684" y="-5.67636" font-family="Helvetica,sans-Serif" font-size="14.00">cP</text>
</g>
<!-- Node10&#45;&gt;Node10 -->
<g id="edge15" class="edge"><title>Node10&#45;&gt;Node10</title>
<path fill="none" stroke="#9a32cd" stroke-dasharray="5,2" d="M409.077,-46.3486C411.249,-51.2672 419.557,-54.8764 434,-54.8764 457.109,-54.8764 464.512,-45.6369 456.207,-36.5778"/>
<polygon fill="#9a32cd" stroke="#9a32cd" points="412.487,-47.1499 411.793,-36.5778 405.742,-45.2748 412.487,-47.1499"/>
<text text-anchor="middle" x="434" y="-58.6764" font-family="Helvetica,sans-Serif" font-size="14.00"> At</text>
</g>
</g>
</svg>
        <g id="navigator" transform="translate(0 0)" fill="#404254">
                <rect fill="#f2f5e9" fill-opacity="0.5" stroke="#606060" stroke-width=".5" x="0" y="0" width="60" height="60"/>
                <use id="zoomplus" xlink:href="#zoomPlus" x="17" y="9" onmousedown="handleZoom(evt,'in')"/>
                <use id="zoomminus" xlink:href="#zoomMin" x="42" y="9" onmousedown="handleZoom(evt,'out')"/>
                <use id="reset" xlink:href="#resetDef" x="30" y="36" onmousedown="handleReset()"/>
                <g id="arrowUp" xlink:href="#dirArrow" transform="translate(30 24)" onmousedown="handlePan(0,-1)">
                  <use xlink:href="#rim" fill="#404040">
                        <set attributeName="fill" to="#808080" begin="arrowUp.mouseover" end="arrowUp.mouseout"/>
                  </use>
                  <path fill="none" stroke="white" stroke-width="1.5" d="M0,-3.0v7 M-2.5,-0.5L0,-3.0L2.5,-0.5"/>
                </g>
                <g id="arrowRight" xlink:href="#dirArrow" transform="rotate(90) translate(36 -43)" onmousedown="handlePan(1,0)">
                  <use xlink:href="#rim" fill="#404040">
                        <set attributeName="fill" to="#808080" begin="arrowRight.mouseover" end="arrowRight.mouseout"/>
                  </use>
                  <path fill="none" stroke="white" stroke-width="1.5" d="M0,-3.0v7 M-2.5,-0.5L0,-3.0L2.5,-0.5"/>
                </g>
                <g id="arrowDown" xlink:href="#dirArrow" transform="rotate(180) translate(-30 -48)" onmousedown="handlePan(0,1)">
                  <use xlink:href="#rim" fill="#404040">
                        <set attributeName="fill" to="#808080" begin="arrowDown.mouseover" end="arrowDown.mouseout"/>
                  </use>
                  <path fill="none" stroke="white" stroke-width="1.5" d="M0,-3.0v7 M-2.5,-0.5L0,-3.0L2.5,-0.5"/>
                </g>
                <g id="arrowLeft" xlink:href="#dirArrow" transform="rotate(270) translate(-36 17)" onmousedown="handlePan(-1,0)">
                  <use xlink:href="#rim" fill="#404040">
                        <set attributeName="fill" to="#808080" begin="arrowLeft.mouseover" end="arrowLeft.mouseout"/>
                  </use>
                  <path fill="none" stroke="white" stroke-width="1.5" d="M0,-3.0v7 M-2.5,-0.5L0,-3.0L2.5,-0.5"/>
                </g>
        </g>
        <svg viewBox="0 0 15 15" width="100%" height="30px" preserveAspectRatio="xMaxYMin meet">
         <g id="arrow_out" transform="scale(0.3 0.3)">
          <a xlink:href="classmfem_1_1ElementRestriction__coll__graph_org.svg" target="_base">
           <rect id="button" ry="5" rx="5" y="6" x="6" height="38" width="38"
                fill="#f2f5e9" fill-opacity="0.5" stroke="#606060" stroke-width="1.0"/>
           <path id="arrow"
             d="M 11.500037,31.436501 C 11.940474,20.09759 22.043105,11.32322 32.158766,21.979434 L 37.068811,17.246167 C 37.068811,17.246167 37.088388,32 37.088388,32 L 22.160133,31.978069 C 22.160133,31.978069 26.997745,27.140456 26.997745,27.140456 C 18.528582,18.264221 13.291696,25.230495 11.500037,31.436501 z"
             style="fill:#404040;"/>
          </a>
         </g>
        </svg>
</svg>
