<?xml version="1.0" encoding="UTF-8" standalone="no"?>
<!DOCTYPE svg PUBLIC "-//W3C//DTD SVG 1.1//EN"
 "http://www.w3.org/Graphics/SVG/1.1/DTD/svg11.dtd">
<!-- Generated by graphviz version 2.30.1 (20170916.1124)
 -->
<!-- Title: mfem::LumpedIntegrator Pages: 1 -->
<svg width="214pt" height="478pt"
 viewBox="0.00 0.00 214.00 478.00" xmlns="http://www.w3.org/2000/svg" xmlns:xlink="http://www.w3.org/1999/xlink">
<g id="graph0" class="graph" transform="scale(1 1) rotate(0) translate(4 474)">
<title>mfem::LumpedIntegrator</title>
<polygon fill="white" stroke="white" points="-4,5 -4,-474 211,-474 211,5 -4,5"/>
<!-- Node1 -->
<g id="node1" class="node"><title>Node1</title>
<polygon fill="#bfbfbf" stroke="black" points="19.5,-0.5 19.5,-23.5 186.5,-23.5 186.5,-0.5 19.5,-0.5"/>
<text text-anchor="middle" x="103" y="-8.3" font-family="Helvetica,sans-Serif" font-size="14.00">mfem::LumpedIntegrator</text>
</g>
<!-- Node2 -->
<g id="node2" class="node"><title>Node2</title>
<g id="a_node2"><a xlink:href="classmfem_1_1BilinearFormIntegrator.html" target="_top" xlink:title="Abstract base class BilinearFormIntegrator. ">
<polygon fill="white" stroke="black" points="6,-62.5 6,-85.5 200,-85.5 200,-62.5 6,-62.5"/>
<text text-anchor="middle" x="103" y="-70.3" font-family="Helvetica,sans-Serif" font-size="14.00">mfem::BilinearFormIntegrator</text>
</a>
</g>
</g>
<!-- Node2&#45;&gt;Node1 -->
<g id="edge1" class="edge"><title>Node2&#45;&gt;Node1</title>
<path fill="none" stroke="midnightblue" d="M103,-52.2312C103,-42.5922 103,-31.5444 103,-23.6339"/>
<polygon fill="midnightblue" stroke="midnightblue" points="99.5001,-52.2732 103,-62.2732 106.5,-52.2732 99.5001,-52.2732"/>
</g>
<!-- Node3 -->
<g id="node3" class="node"><title>Node3</title>
<g id="a_node3"><a xlink:href="classmfem_1_1NonlinearFormIntegrator.html" target="_top" xlink:title="mfem::NonlinearFormIntegrator">
<polygon fill="white" stroke="black" points="-0.5,-124.5 -0.5,-147.5 206.5,-147.5 206.5,-124.5 -0.5,-124.5"/>
<text text-anchor="middle" x="103" y="-132.3" font-family="Helvetica,sans-Serif" font-size="14.00">mfem::NonlinearFormIntegrator</text>
</a>
</g>
</g>
<!-- Node3&#45;&gt;Node2 -->
<g id="edge2" class="edge"><title>Node3&#45;&gt;Node2</title>
<path fill="none" stroke="midnightblue" d="M103,-114.231C103,-104.592 103,-93.5444 103,-85.6339"/>
<polygon fill="midnightblue" stroke="midnightblue" points="99.5001,-114.273 103,-124.273 106.5,-114.273 99.5001,-114.273"/>
</g>
<!-- Node4 -->
<g id="node4" class="node"><title>Node4</title>
<g id="a_node4"><a xlink:href="classmfem_1_1IntegrationRule.html" target="_top" xlink:title="Class for an integration rule &#45; an Array of IntegrationPoint. ">
<polygon fill="white" stroke="black" points="27.5,-200.5 27.5,-223.5 178.5,-223.5 178.5,-200.5 27.5,-200.5"/>
<text text-anchor="middle" x="103" y="-208.3" font-family="Helvetica,sans-Serif" font-size="14.00">mfem::IntegrationRule</text>
</a>
</g>
</g>
<!-- Node4&#45;&gt;Node3 -->
<g id="edge3" class="edge"><title>Node4&#45;&gt;Node3</title>
<path fill="none" stroke="#9a32cd" stroke-dasharray="5,2" d="M103,-190.277C103,-176.387 103,-158.675 103,-147.583"/>
<polygon fill="#9a32cd" stroke="#9a32cd" points="99.5001,-190.398 103,-200.398 106.5,-190.398 99.5001,-190.398"/>
<text text-anchor="middle" x="126.5" y="-170.3" font-family="Helvetica,sans-Serif" font-size="14.00"> IntRule</text>
</g>
<!-- Node5 -->
<g id="node5" class="node"><title>Node5</title>
<g id="a_node5"><a xlink:href="classmfem_1_1Array.html" target="_top" xlink:title="mfem::Array\&lt; Integration\lPoint \&gt;">
<polygon fill="white" stroke="black" points="19.5,-263 19.5,-301 186.5,-301 186.5,-263 19.5,-263"/>
<text text-anchor="start" x="27.5" y="-285.8" font-family="Helvetica,sans-Serif" font-size="14.00">mfem::Array&lt; Integration</text>
<text text-anchor="middle" x="103" y="-270.8" font-family="Helvetica,sans-Serif" font-size="14.00">Point &gt;</text>
</a>
</g>
</g>
<!-- Node5&#45;&gt;Node4 -->
<g id="edge4" class="edge"><title>Node5&#45;&gt;Node4</title>
<path fill="none" stroke="midnightblue" d="M103,-252.599C103,-242.442 103,-231.6 103,-223.834"/>
<polygon fill="midnightblue" stroke="midnightblue" points="99.5001,-252.777 103,-262.777 106.5,-252.777 99.5001,-252.777"/>
</g>
<!-- Node6 -->
<g id="node6" class="node"><title>Node6</title>
<g id="a_node6"><a xlink:href="classmfem_1_1Memory.html" target="_top" xlink:title="mfem::Memory\&lt; Integration\lPoint \&gt;">
<polygon fill="white" stroke="black" points="10.5,-355 10.5,-393 195.5,-393 195.5,-355 10.5,-355"/>
<text text-anchor="start" x="18.5" y="-377.8" font-family="Helvetica,sans-Serif" font-size="14.00">mfem::Memory&lt; Integration</text>
<text text-anchor="middle" x="103" y="-362.8" font-family="Helvetica,sans-Serif" font-size="14.00">Point &gt;</text>
</a>
</g>
</g>
<!-- Node6&#45;&gt;Node5 -->
<g id="edge5" class="edge"><title>Node6&#45;&gt;Node5</title>
<path fill="none" stroke="#9a32cd" stroke-dasharray="5,2" d="M103,-344.548C103,-330.36 103,-313.622 103,-301.186"/>
<polygon fill="#9a32cd" stroke="#9a32cd" points="99.5001,-344.787 103,-354.787 106.5,-344.787 99.5001,-344.787"/>
<text text-anchor="middle" x="118.5" y="-324.3" font-family="Helvetica,sans-Serif" font-size="14.00"> data</text>
</g>
<!-- Node7 -->
<g id="node7" class="node"><title>Node7</title>
<g id="a_node7"><a xlink:href="classmfem_1_1IntegrationPoint.html" target="_top" xlink:title="Class for integration point with weight. ">
<polygon fill="white" stroke="black" points="26,-446.5 26,-469.5 180,-469.5 180,-446.5 26,-446.5"/>
<text text-anchor="middle" x="103" y="-454.3" font-family="Helvetica,sans-Serif" font-size="14.00">mfem::IntegrationPoint</text>
</a>
</g>
</g>
<!-- Node7&#45;&gt;Node6 -->
<g id="edge6" class="edge"><title>Node7&#45;&gt;Node6</title>
<path fill="none" stroke="#9a32cd" stroke-dasharray="5,2" d="M103,-436.213C103,-422.967 103,-405.968 103,-393.246"/>
<polygon fill="#9a32cd" stroke="#9a32cd" points="99.5001,-436.28 103,-446.28 106.5,-436.28 99.5001,-436.28"/>
<text text-anchor="middle" x="120.5" y="-416.3" font-family="Helvetica,sans-Serif" font-size="14.00"> h_ptr</text>
</g>
</g>
</svg>
