<?xml version="1.0" encoding="UTF-8" standalone="no"?>
<!DOCTYPE svg PUBLIC "-//W3C//DTD SVG 1.1//EN"
 "http://www.w3.org/Graphics/SVG/1.1/DTD/svg11.dtd">
<!-- Generated by graphviz version 2.30.1 (20200304.1809)
 -->
<!-- Title: mfem::MassIntegrator Pages: 1 -->
<!--zoomable 307 -->
<svg id="main" version="1.1" xmlns="http://www.w3.org/2000/svg" xmlns:xlink="http://www.w3.org/1999/xlink" xml:space="preserve" onload="init(evt)">
<style type="text/css"><![CDATA[
.edge:hover path { stroke: red; }
.edge:hover polygon { stroke: red; fill: red; }
]]></style>
<script type="text/javascript"><![CDATA[
var edges = document.getElementsByTagName('g');
if (edges && edges.length) {
  for (var i=0;i<edges.length;i++) {
    if (edges[i].id.substr(0,4)=='edge') {
      edges[i].setAttribute('class','edge');
    }
  }
}
]]></script>
        <defs>
                <circle id="rim" cx="0" cy="0" r="7"/>
                <circle id="rim2" cx="0" cy="0" r="3.5"/>
                <g id="zoomPlus">
                        <use xlink:href="#rim" fill="#404040">
                                <set attributeName="fill" to="#808080" begin="zoomplus.mouseover" end="zoomplus.mouseout"/>
                        </use>
                        <path d="M-4,0h8M0,-4v8" fill="none" stroke="white" stroke-width="1.5" pointer-events="none"/>
                </g>
                <g id="zoomMin">
                        <use xlink:href="#rim" fill="#404040">
                                <set attributeName="fill" to="#808080" begin="zoomminus.mouseover" end="zoomminus.mouseout"/>
                        </use>
                        <path d="M-4,0h8" fill="none" stroke="white" stroke-width="1.5" pointer-events="none"/>
                </g>
                <g id="dirArrow">
                        <path fill="none" stroke="white" stroke-width="1.5" d="M0,-3.0v7 M-2.5,-0.5L0,-3.0L2.5,-0.5"/>
                </g>
               <g id="resetDef">
                       <use xlink:href="#rim2" fill="#404040">
                               <set attributeName="fill" to="#808080" begin="reset.mouseover" end="reset.mouseout"/>
                       </use>
               </g>
        </defs>

<script type="text/javascript">
var viewWidth = 1108;
var viewHeight = 307;
var sectionId = 'dynsection-1';
</script>
<script xlink:href="svgpan.js"/>
<svg id="graph" class="graph">
<g id="viewport">
<title>mfem::MassIntegrator</title>
<polygon fill="white" stroke="white" points="-4,5 -4,-303 1105,-303 1105,5 -4,5"/>
<!-- Node1 -->
<g id="node1" class="node"><title>Node1</title>
<polygon fill="#bfbfbf" stroke="black" points="924,-99.5 924,-122.5 1100,-122.5 1100,-99.5 924,-99.5"/>
<text text-anchor="middle" x="1012" y="-107.3" font-family="Helvetica,sans-Serif" font-size="14.00">mfem::MassIntegrator</text>
</g>
<!-- Node2 -->
<g id="node2" class="node"><title>Node2</title>
<g id="a_node2"><a xlink:href="classmfem_1_1BilinearFormIntegrator.html" target="_top" xlink:title="Abstract base class BilinearFormIntegrator. ">
<polygon fill="white" stroke="black" points="610.5,-251.5 610.5,-274.5 841.5,-274.5 841.5,-251.5 610.5,-251.5"/>
<text text-anchor="middle" x="726" y="-259.3" font-family="Helvetica,sans-Serif" font-size="14.00">mfem::BilinearFormIntegrator</text>
</a>
</g>
</g>
<!-- Node2&#45;&gt;Node1 -->
<g id="edge1" class="edge"><title>Node2&#45;&gt;Node1</title>
<path fill="none" stroke="midnightblue" d="M773.348,-248.227C794.705,-240.777 820.112,-230.99 842,-220 901.595,-190.078 966.338,-144.13 995.373,-122.726"/>
<polygon fill="midnightblue" stroke="midnightblue" points="772.173,-244.93 763.847,-251.481 774.441,-251.552 772.173,-244.93"/>
</g>
<!-- Node3 -->
<g id="node3" class="node"><title>Node3</title>
<g id="a_node3"><a xlink:href="classmfem_1_1NonlinearFormIntegrator.html" target="_top" xlink:title="mfem::NonlinearFormIntegrator">
<polygon fill="white" stroke="black" points="282,-275.5 282,-298.5 528,-298.5 528,-275.5 282,-275.5"/>
<text text-anchor="middle" x="405" y="-283.3" font-family="Helvetica,sans-Serif" font-size="14.00">mfem::NonlinearFormIntegrator</text>
</a>
</g>
</g>
<!-- Node3&#45;&gt;Node2 -->
<g id="edge2" class="edge"><title>Node3&#45;&gt;Node2</title>
<path fill="none" stroke="midnightblue" d="M538.566,-277.026C562.368,-275.236 586.995,-273.383 610.242,-271.634"/>
<polygon fill="midnightblue" stroke="midnightblue" points="538.131,-273.549 528.421,-277.79 538.656,-280.529 538.131,-273.549"/>
</g>
<!-- Node4 -->
<g id="node4" class="node"><title>Node4</title>
<g id="a_node4"><a xlink:href="classmfem_1_1IntegrationRule.html" target="_top" xlink:title="Class for an integration rule &#45; an Array of IntegrationPoint. ">
<polygon fill="white" stroke="red" points="6,-230.5 6,-253.5 184,-253.5 184,-230.5 6,-230.5"/>
<text text-anchor="middle" x="95" y="-238.3" font-family="Helvetica,sans-Serif" font-size="14.00">mfem::IntegrationRule</text>
</a>
</g>
</g>
<!-- Node4&#45;&gt;Node3 -->
<g id="edge3" class="edge"><title>Node4&#45;&gt;Node3</title>
<path fill="none" stroke="#9a32cd" stroke-dasharray="5,2" d="M184.824,-254.977C229.189,-261.459 282.404,-269.234 325.288,-275.5"/>
<polygon fill="#9a32cd" stroke="#9a32cd" points="185.319,-251.513 174.918,-253.53 184.307,-258.439 185.319,-251.513"/>
<text text-anchor="middle" x="236" y="-268.8" font-family="Helvetica,sans-Serif" font-size="14.00"> IntRule</text>
</g>
<!-- Node5 -->
<g id="node5" class="node"><title>Node5</title>
<g id="a_node5"><a xlink:href="classmfem_1_1GeometricFactors.html" target="_top" xlink:title="Structure for storing mesh geometric factors: coordinates, Jacobians, and determinants of the Jacobia...">
<polygon fill="white" stroke="black" points="629,-187.5 629,-210.5 823,-210.5 823,-187.5 629,-187.5"/>
<text text-anchor="middle" x="726" y="-195.3" font-family="Helvetica,sans-Serif" font-size="14.00">mfem::GeometricFactors</text>
</a>
</g>
</g>
<!-- Node4&#45;&gt;Node5 -->
<g id="edge6" class="edge"><title>Node4&#45;&gt;Node5</title>
<path fill="none" stroke="#9a32cd" stroke-dasharray="5,2" d="M194.484,-238.536C294.664,-234.568 454.329,-227.015 592,-215 606.249,-213.756 621.327,-212.187 636.014,-210.52"/>
<polygon fill="#9a32cd" stroke="#9a32cd" points="194.231,-235.044 184.376,-238.933 194.506,-242.038 194.231,-235.044"/>
<text text-anchor="middle" x="405" y="-237.8" font-family="Helvetica,sans-Serif" font-size="14.00"> IntRule</text>
</g>
<!-- Node8 -->
<g id="node8" class="node"><title>Node8</title>
<g id="a_node8"><a xlink:href="classmfem_1_1DofToQuad.html" target="_top" xlink:title="Structure representing the matrices/tensors needed to evaluate (in reference space) the values...">
<polygon fill="white" stroke="red" points="331,-61.5 331,-84.5 479,-84.5 479,-61.5 331,-61.5"/>
<text text-anchor="middle" x="405" y="-69.3" font-family="Helvetica,sans-Serif" font-size="14.00">mfem::DofToQuad</text>
</a>
</g>
</g>
<!-- Node4&#45;&gt;Node8 -->
<g id="edge9" class="edge"><title>Node4&#45;&gt;Node8</title>
<path fill="none" stroke="#9a32cd" stroke-dasharray="5,2" d="M131.513,-226.014C168.039,-208.252 224.955,-176.761 264,-137 274.895,-125.906 269.632,-116.424 282,-107 296.167,-96.2062 313.582,-88.8391 330.772,-83.8107"/>
<polygon fill="#9a32cd" stroke="#9a32cd" points="129.753,-222.975 122.237,-230.443 132.769,-229.292 129.753,-222.975"/>
<text text-anchor="middle" x="236" y="-184.8" font-family="Helvetica,sans-Serif" font-size="14.00"> IntRule</text>
</g>
<!-- Node5&#45;&gt;Node1 -->
<g id="edge4" class="edge"><title>Node5&#45;&gt;Node1</title>
<path fill="none" stroke="#9a32cd" stroke-dasharray="5,2" d="M773.807,-184.497C829.834,-167.136 922.512,-138.419 973.863,-122.507"/>
<polygon fill="#9a32cd" stroke="#9a32cd" points="772.644,-181.193 764.128,-187.496 774.716,-187.879 772.644,-181.193"/>
<text text-anchor="middle" x="883" y="-160.8" font-family="Helvetica,sans-Serif" font-size="14.00"> geom</text>
</g>
<!-- Node6 -->
<g id="node6" class="node"><title>Node6</title>
<g id="a_node6"><a xlink:href="classmfem_1_1Mesh.html" target="_top" xlink:title="mfem::Mesh">
<polygon fill="white" stroke="red" points="352,-182.5 352,-205.5 458,-205.5 458,-182.5 352,-182.5"/>
<text text-anchor="middle" x="405" y="-190.3" font-family="Helvetica,sans-Serif" font-size="14.00">mfem::Mesh</text>
</a>
</g>
</g>
<!-- Node6&#45;&gt;Node5 -->
<g id="edge5" class="edge"><title>Node6&#45;&gt;Node5</title>
<path fill="none" stroke="#9a32cd" stroke-dasharray="5,2" d="M468.369,-194.978C514.01,-195.693 576.787,-196.677 628.827,-197.493"/>
<polygon fill="#9a32cd" stroke="#9a32cd" points="468.373,-191.477 458.319,-194.82 468.263,-198.476 468.373,-191.477"/>
<text text-anchor="middle" x="569" y="-199.8" font-family="Helvetica,sans-Serif" font-size="14.00"> mesh</text>
</g>
<!-- Node7 -->
<g id="node7" class="node"><title>Node7</title>
<g id="a_node7"><a xlink:href="classmfem_1_1Vector.html" target="_top" xlink:title="Vector data type. ">
<polygon fill="white" stroke="red" points="348,-116.5 348,-139.5 462,-139.5 462,-116.5 348,-116.5"/>
<text text-anchor="middle" x="405" y="-124.3" font-family="Helvetica,sans-Serif" font-size="14.00">mfem::Vector</text>
</a>
</g>
</g>
<!-- Node7&#45;&gt;Node5 -->
<g id="edge7" class="edge"><title>Node7&#45;&gt;Node5</title>
<path fill="none" stroke="#9a32cd" stroke-dasharray="5,2" d="M472.281,-126.49C508.68,-127.683 554.01,-132.542 592,-147 601.223,-150.51 601.23,-155.476 610,-160 632.484,-171.597 659.157,-180.892 681.153,-187.494"/>
<polygon fill="#9a32cd" stroke="#9a32cd" points="472.348,-122.991 462.266,-126.246 472.177,-129.989 472.348,-122.991"/>
<text text-anchor="middle" x="569" y="-180.8" font-family="Helvetica,sans-Serif" font-size="14.00"> X</text>
<text text-anchor="middle" x="569" y="-165.8" font-family="Helvetica,sans-Serif" font-size="14.00">J</text>
<text text-anchor="middle" x="569" y="-150.8" font-family="Helvetica,sans-Serif" font-size="14.00">detJ</text>
</g>
<!-- Node7&#45;&gt;Node1 -->
<g id="edge11" class="edge"><title>Node7&#45;&gt;Node1</title>
<path fill="none" stroke="#9a32cd" stroke-dasharray="5,2" d="M472.38,-126.135C582.183,-123.049 801.614,-116.884 923.789,-113.451"/>
<polygon fill="#9a32cd" stroke="#9a32cd" points="472.001,-122.644 462.103,-126.424 472.197,-129.641 472.001,-122.644"/>
<text text-anchor="middle" x="726" y="-155.8" font-family="Helvetica,sans-Serif" font-size="14.00"> pa_data</text>
<text text-anchor="middle" x="726" y="-140.8" font-family="Helvetica,sans-Serif" font-size="14.00">te_shape</text>
<text text-anchor="middle" x="726" y="-125.8" font-family="Helvetica,sans-Serif" font-size="14.00">shape</text>
</g>
<!-- Node8&#45;&gt;Node1 -->
<g id="edge8" class="edge"><title>Node8&#45;&gt;Node1</title>
<path fill="none" stroke="#9a32cd" stroke-dasharray="5,2" d="M489.505,-76.5154C577.305,-80.42 719.448,-87.3317 842,-96 868.591,-97.8808 897.502,-100.306 923.769,-102.657"/>
<polygon fill="#9a32cd" stroke="#9a32cd" points="489.481,-73.011 479.336,-76.0658 489.171,-80.0042 489.481,-73.011"/>
<text text-anchor="middle" x="726" y="-99.8" font-family="Helvetica,sans-Serif" font-size="14.00"> maps</text>
</g>
<!-- Node9 -->
<g id="node9" class="node"><title>Node9</title>
<g id="a_node9"><a xlink:href="classmfem_1_1Array.html" target="_top" xlink:title="mfem::Array\&lt; double \&gt;">
<polygon fill="white" stroke="red" points="0.5,-61.5 0.5,-84.5 189.5,-84.5 189.5,-61.5 0.5,-61.5"/>
<text text-anchor="middle" x="95" y="-69.3" font-family="Helvetica,sans-Serif" font-size="14.00">mfem::Array&lt; double &gt;</text>
</a>
</g>
</g>
<!-- Node9&#45;&gt;Node8 -->
<g id="edge10" class="edge"><title>Node9&#45;&gt;Node8</title>
<path fill="none" stroke="#9a32cd" stroke-dasharray="5,2" d="M199.881,-73C242.864,-73 291.692,-73 330.813,-73"/>
<polygon fill="#9a32cd" stroke="#9a32cd" points="199.665,-69.5001 189.665,-73 199.665,-76.5001 199.665,-69.5001"/>
<text text-anchor="middle" x="236" y="-121.8" font-family="Helvetica,sans-Serif" font-size="14.00"> G</text>
<text text-anchor="middle" x="236" y="-106.8" font-family="Helvetica,sans-Serif" font-size="14.00">Gt</text>
<text text-anchor="middle" x="236" y="-91.8" font-family="Helvetica,sans-Serif" font-size="14.00">B</text>
<text text-anchor="middle" x="236" y="-76.8" font-family="Helvetica,sans-Serif" font-size="14.00">Bt</text>
</g>
<!-- Node10 -->
<g id="node10" class="node"><title>Node10</title>
<g id="a_node10"><a xlink:href="classmfem_1_1Coefficient.html" target="_top" xlink:title="Base class Coefficient that may optionally depend on time. ">
<polygon fill="white" stroke="black" points="654,-0.5 654,-23.5 798,-23.5 798,-0.5 654,-0.5"/>
<text text-anchor="middle" x="726" y="-8.3" font-family="Helvetica,sans-Serif" font-size="14.00">mfem::Coefficient</text>
</a>
</g>
</g>
<!-- Node10&#45;&gt;Node1 -->
<g id="edge12" class="edge"><title>Node10&#45;&gt;Node1</title>
<path fill="none" stroke="#9a32cd" stroke-dasharray="5,2" d="M808.427,-11.3724C839.833,-13.4899 875.472,-18.863 906,-31 945.185,-46.5788 982.284,-81.0912 1000.05,-99.2721"/>
<polygon fill="#9a32cd" stroke="#9a32cd" points="808.576,-7.87523 798.391,-10.7948 808.174,-14.8637 808.576,-7.87523"/>
<text text-anchor="middle" x="883" y="-34.8" font-family="Helvetica,sans-Serif" font-size="14.00"> Q</text>
</g>
</g>
</svg>
        <g id="navigator" transform="translate(0 0)" fill="#404254">
                <rect fill="#f2f5e9" fill-opacity="0.5" stroke="#606060" stroke-width=".5" x="0" y="0" width="60" height="60"/>
                <use id="zoomplus" xlink:href="#zoomPlus" x="17" y="9" onmousedown="handleZoom(evt,'in')"/>
                <use id="zoomminus" xlink:href="#zoomMin" x="42" y="9" onmousedown="handleZoom(evt,'out')"/>
                <use id="reset" xlink:href="#resetDef" x="30" y="36" onmousedown="handleReset()"/>
                <g id="arrowUp" xlink:href="#dirArrow" transform="translate(30 24)" onmousedown="handlePan(0,-1)">
                  <use xlink:href="#rim" fill="#404040">
                        <set attributeName="fill" to="#808080" begin="arrowUp.mouseover" end="arrowUp.mouseout"/>
                  </use>
                  <path fill="none" stroke="white" stroke-width="1.5" d="M0,-3.0v7 M-2.5,-0.5L0,-3.0L2.5,-0.5"/>
                </g>
                <g id="arrowRight" xlink:href="#dirArrow" transform="rotate(90) translate(36 -43)" onmousedown="handlePan(1,0)">
                  <use xlink:href="#rim" fill="#404040">
                        <set attributeName="fill" to="#808080" begin="arrowRight.mouseover" end="arrowRight.mouseout"/>
                  </use>
                  <path fill="none" stroke="white" stroke-width="1.5" d="M0,-3.0v7 M-2.5,-0.5L0,-3.0L2.5,-0.5"/>
                </g>
                <g id="arrowDown" xlink:href="#dirArrow" transform="rotate(180) translate(-30 -48)" onmousedown="handlePan(0,1)">
                  <use xlink:href="#rim" fill="#404040">
                        <set attributeName="fill" to="#808080" begin="arrowDown.mouseover" end="arrowDown.mouseout"/>
                  </use>
                  <path fill="none" stroke="white" stroke-width="1.5" d="M0,-3.0v7 M-2.5,-0.5L0,-3.0L2.5,-0.5"/>
                </g>
                <g id="arrowLeft" xlink:href="#dirArrow" transform="rotate(270) translate(-36 17)" onmousedown="handlePan(-1,0)">
                  <use xlink:href="#rim" fill="#404040">
                        <set attributeName="fill" to="#808080" begin="arrowLeft.mouseover" end="arrowLeft.mouseout"/>
                  </use>
                  <path fill="none" stroke="white" stroke-width="1.5" d="M0,-3.0v7 M-2.5,-0.5L0,-3.0L2.5,-0.5"/>
                </g>
        </g>
        <svg viewBox="0 0 15 15" width="100%" height="30px" preserveAspectRatio="xMaxYMin meet">
         <g id="arrow_out" transform="scale(0.3 0.3)">
          <a xlink:href="classmfem_1_1MassIntegrator__coll__graph_org.svg" target="_base">
           <rect id="button" ry="5" rx="5" y="6" x="6" height="38" width="38"
                fill="#f2f5e9" fill-opacity="0.5" stroke="#606060" stroke-width="1.0"/>
           <path id="arrow"
             d="M 11.500037,31.436501 C 11.940474,20.09759 22.043105,11.32322 32.158766,21.979434 L 37.068811,17.246167 C 37.068811,17.246167 37.088388,32 37.088388,32 L 22.160133,31.978069 C 22.160133,31.978069 26.997745,27.140456 26.997745,27.140456 C 18.528582,18.264221 13.291696,25.230495 11.500037,31.436501 z"
             style="fill:#404040;"/>
          </a>
         </g>
        </svg>
</svg>
