<?xml version="1.0" encoding="UTF-8" standalone="no"?>
<!DOCTYPE svg PUBLIC "-//W3C//DTD SVG 1.1//EN"
 "http://www.w3.org/Graphics/SVG/1.1/DTD/svg11.dtd">
<!-- Generated by graphviz version 2.30.1 (20200304.1809)
 -->
<!-- Title: mfem::NodalTensorFiniteElement Pages: 1 -->
<svg width="712pt" height="322pt"
 viewBox="0.00 0.00 712.00 322.00" xmlns="http://www.w3.org/2000/svg" xmlns:xlink="http://www.w3.org/1999/xlink">
<g id="graph0" class="graph" transform="scale(1 1) rotate(0) translate(4 318)">
<title>mfem::NodalTensorFiniteElement</title>
<polygon fill="white" stroke="white" points="-4,5 -4,-318 709,-318 709,5 -4,5"/>
<!-- Node1 -->
<g id="node1" class="node"><title>Node1</title>
<polygon fill="#bfbfbf" stroke="black" points="233,-0.5 233,-23.5 487,-23.5 487,-0.5 233,-0.5"/>
<text text-anchor="middle" x="360" y="-8.3" font-family="Helvetica,sans-Serif" font-size="14.00">mfem::NodalTensorFiniteElement</text>
</g>
<!-- Node2 -->
<g id="node2" class="node"><title>Node2</title>
<g id="a_node2"><a xlink:href="classmfem_1_1NodalFiniteElement.html" target="_top" xlink:title="mfem::NodalFiniteElement">
<polygon fill="white" stroke="black" points="117.5,-62.5 117.5,-85.5 324.5,-85.5 324.5,-62.5 117.5,-62.5"/>
<text text-anchor="middle" x="221" y="-70.3" font-family="Helvetica,sans-Serif" font-size="14.00">mfem::NodalFiniteElement</text>
</a>
</g>
</g>
<!-- Node2&#45;&gt;Node1 -->
<g id="edge1" class="edge"><title>Node2&#45;&gt;Node1</title>
<path fill="none" stroke="midnightblue" d="M254.935,-58.3516C279.764,-47.6341 312.883,-33.3383 335.247,-23.6846"/>
<polygon fill="midnightblue" stroke="midnightblue" points="253.325,-55.2348 245.53,-62.4113 256.099,-61.6616 253.325,-55.2348"/>
</g>
<!-- Node3 -->
<g id="node3" class="node"><title>Node3</title>
<g id="a_node3"><a xlink:href="classmfem_1_1ScalarFiniteElement.html" target="_top" xlink:title="mfem::ScalarFiniteElement">
<polygon fill="white" stroke="black" points="116,-138.5 116,-161.5 326,-161.5 326,-138.5 116,-138.5"/>
<text text-anchor="middle" x="221" y="-146.3" font-family="Helvetica,sans-Serif" font-size="14.00">mfem::ScalarFiniteElement</text>
</a>
</g>
</g>
<!-- Node3&#45;&gt;Node2 -->
<g id="edge2" class="edge"><title>Node3&#45;&gt;Node2</title>
<path fill="none" stroke="midnightblue" d="M221,-128.277C221,-114.387 221,-96.675 221,-85.5827"/>
<polygon fill="midnightblue" stroke="midnightblue" points="217.5,-128.398 221,-138.398 224.5,-128.398 217.5,-128.398"/>
</g>
<!-- Node4 -->
<g id="node4" class="node"><title>Node4</title>
<g id="a_node4"><a xlink:href="classmfem_1_1FiniteElement.html" target="_top" xlink:title="Abstract class for Finite Elements. ">
<polygon fill="white" stroke="red" points="6,-214.5 6,-237.5 172,-237.5 172,-214.5 6,-214.5"/>
<text text-anchor="middle" x="89" y="-222.3" font-family="Helvetica,sans-Serif" font-size="14.00">mfem::FiniteElement</text>
</a>
</g>
</g>
<!-- Node4&#45;&gt;Node3 -->
<g id="edge3" class="edge"><title>Node4&#45;&gt;Node3</title>
<path fill="none" stroke="midnightblue" d="M116.777,-209.428C142.413,-195.056 179.79,-174.103 202.123,-161.583"/>
<polygon fill="midnightblue" stroke="midnightblue" points="114.924,-206.455 107.912,-214.398 118.347,-212.56 114.924,-206.455"/>
</g>
<!-- Node5 -->
<g id="node5" class="node"><title>Node5</title>
<g id="a_node5"><a xlink:href="classmfem_1_1IntegrationRule.html" target="_top" xlink:title="Class for an integration rule &#45; an Array of IntegrationPoint. ">
<polygon fill="white" stroke="red" points="0,-290.5 0,-313.5 178,-313.5 178,-290.5 0,-290.5"/>
<text text-anchor="middle" x="89" y="-298.3" font-family="Helvetica,sans-Serif" font-size="14.00">mfem::IntegrationRule</text>
</a>
</g>
</g>
<!-- Node5&#45;&gt;Node4 -->
<g id="edge4" class="edge"><title>Node5&#45;&gt;Node4</title>
<path fill="none" stroke="#9a32cd" stroke-dasharray="5,2" d="M89,-280.277C89,-266.387 89,-248.675 89,-237.583"/>
<polygon fill="#9a32cd" stroke="#9a32cd" points="85.5001,-280.398 89,-290.398 92.5001,-280.398 85.5001,-280.398"/>
<text text-anchor="middle" x="114" y="-260.3" font-family="Helvetica,sans-Serif" font-size="14.00"> Nodes</text>
</g>
<!-- Node6 -->
<g id="node6" class="node"><title>Node6</title>
<g id="a_node6"><a xlink:href="classmfem_1_1Vector.html" target="_top" xlink:title="Vector data type. ">
<polygon fill="white" stroke="red" points="190,-214.5 190,-237.5 304,-237.5 304,-214.5 190,-214.5"/>
<text text-anchor="middle" x="247" y="-222.3" font-family="Helvetica,sans-Serif" font-size="14.00">mfem::Vector</text>
</a>
</g>
</g>
<!-- Node6&#45;&gt;Node3 -->
<g id="edge5" class="edge"><title>Node6&#45;&gt;Node3</title>
<path fill="none" stroke="#9a32cd" stroke-dasharray="5,2" d="M239.864,-204.689C234.962,-190.739 228.654,-172.785 224.718,-161.583"/>
<polygon fill="#9a32cd" stroke="#9a32cd" points="236.658,-206.123 243.275,-214.398 243.262,-203.803 236.658,-206.123"/>
<text text-anchor="middle" x="269" y="-184.3" font-family="Helvetica,sans-Serif" font-size="14.00"> c_shape</text>
</g>
<!-- Node7 -->
<g id="node7" class="node"><title>Node7</title>
<g id="a_node7"><a xlink:href="classmfem_1_1TensorBasisElement.html" target="_top" xlink:title="mfem::TensorBasisElement">
<polygon fill="white" stroke="black" points="343,-62.5 343,-85.5 555,-85.5 555,-62.5 343,-62.5"/>
<text text-anchor="middle" x="449" y="-70.3" font-family="Helvetica,sans-Serif" font-size="14.00">mfem::TensorBasisElement</text>
</a>
</g>
</g>
<!-- Node7&#45;&gt;Node1 -->
<g id="edge6" class="edge"><title>Node7&#45;&gt;Node1</title>
<path fill="none" stroke="midnightblue" d="M424.485,-56.4731C408.934,-45.9895 389.274,-32.7352 375.774,-23.6339"/>
<polygon fill="midnightblue" stroke="midnightblue" points="422.84,-59.5853 433.089,-62.2732 426.753,-53.7811 422.84,-59.5853"/>
</g>
<!-- Node8 -->
<g id="node8" class="node"><title>Node8</title>
<g id="a_node8"><a xlink:href="classmfem_1_1Array.html" target="_top" xlink:title="mfem::Array\&lt; int \&gt;">
<polygon fill="white" stroke="black" points="357,-138.5 357,-161.5 515,-161.5 515,-138.5 357,-138.5"/>
<text text-anchor="middle" x="436" y="-146.3" font-family="Helvetica,sans-Serif" font-size="14.00">mfem::Array&lt; int &gt;</text>
</a>
</g>
</g>
<!-- Node8&#45;&gt;Node7 -->
<g id="edge7" class="edge"><title>Node8&#45;&gt;Node7</title>
<path fill="none" stroke="#9a32cd" stroke-dasharray="5,2" d="M439.641,-128.277C442.081,-114.387 445.192,-96.675 447.141,-85.5827"/>
<polygon fill="#9a32cd" stroke="#9a32cd" points="436.146,-127.943 437.863,-138.398 443.04,-129.154 436.146,-127.943"/>
<text text-anchor="middle" x="478" y="-108.3" font-family="Helvetica,sans-Serif" font-size="14.00"> dof_map</text>
</g>
<!-- Node9 -->
<g id="node9" class="node"><title>Node9</title>
<g id="a_node9"><a xlink:href="classmfem_1_1Memory.html" target="_top" xlink:title="mfem::Memory\&lt; int \&gt;">
<polygon fill="white" stroke="black" points="347,-214.5 347,-237.5 525,-237.5 525,-214.5 347,-214.5"/>
<text text-anchor="middle" x="436" y="-222.3" font-family="Helvetica,sans-Serif" font-size="14.00">mfem::Memory&lt; int &gt;</text>
</a>
</g>
</g>
<!-- Node9&#45;&gt;Node8 -->
<g id="edge8" class="edge"><title>Node9&#45;&gt;Node8</title>
<path fill="none" stroke="#9a32cd" stroke-dasharray="5,2" d="M436,-204.277C436,-190.387 436,-172.675 436,-161.583"/>
<polygon fill="#9a32cd" stroke="#9a32cd" points="432.5,-204.398 436,-214.398 439.5,-204.398 432.5,-204.398"/>
<text text-anchor="middle" x="454.5" y="-184.3" font-family="Helvetica,sans-Serif" font-size="14.00"> data</text>
</g>
<!-- Node10 -->
<g id="node10" class="node"><title>Node10</title>
<g id="a_node10"><a xlink:href="classmfem_1_1Poly__1D_1_1Basis.html" target="_top" xlink:title="mfem::Poly_1D::Basis">
<polygon fill="white" stroke="black" points="533.5,-138.5 533.5,-161.5 704.5,-161.5 704.5,-138.5 533.5,-138.5"/>
<text text-anchor="middle" x="619" y="-146.3" font-family="Helvetica,sans-Serif" font-size="14.00">mfem::Poly_1D::Basis</text>
</a>
</g>
</g>
<!-- Node10&#45;&gt;Node7 -->
<g id="edge9" class="edge"><title>Node10&#45;&gt;Node7</title>
<path fill="none" stroke="#9a32cd" stroke-dasharray="5,2" d="M585.505,-134.332C565.367,-125.522 539.222,-114.098 516,-104 501.936,-97.884 486.199,-91.0708 473.512,-85.5858"/>
<polygon fill="#9a32cd" stroke="#9a32cd" points="584.305,-137.627 594.869,-138.43 587.111,-131.214 584.305,-137.627"/>
<text text-anchor="middle" x="581" y="-108.3" font-family="Helvetica,sans-Serif" font-size="14.00"> basis1d</text>
</g>
</g>
</svg>
