<?xml version="1.0" encoding="UTF-8" standalone="no"?>
<!DOCTYPE svg PUBLIC "-//W3C//DTD SVG 1.1//EN"
 "http://www.w3.org/Graphics/SVG/1.1/DTD/svg11.dtd">
<!-- Generated by graphviz version 2.30.1 (20170916.1124)
 -->
<!-- Title: mfem::EABilinearFormExtension Pages: 1 -->
<svg width="806pt" height="395pt"
 viewBox="0.00 0.00 806.00 395.00" xmlns="http://www.w3.org/2000/svg" xmlns:xlink="http://www.w3.org/1999/xlink">
<g id="graph0" class="graph" transform="scale(1 1) rotate(0) translate(4 391)">
<title>mfem::EABilinearFormExtension</title>
<polygon fill="white" stroke="white" points="-4,5 -4,-391 803,-391 803,5 -4,5"/>
<!-- Node1 -->
<g id="node1" class="node"><title>Node1</title>
<polygon fill="#bfbfbf" stroke="black" points="584,-363.5 584,-386.5 798,-386.5 798,-363.5 584,-363.5"/>
<text text-anchor="middle" x="691" y="-371.3" font-family="Helvetica,sans-Serif" font-size="14.00">mfem::EABilinearFormExtension</text>
</g>
<!-- Node2 -->
<g id="node2" class="node"><title>Node2</title>
<g id="a_node2"><a xlink:href="classmfem_1_1BilinearFormExtension.html" target="_top" xlink:title="Class extending the BilinearForm class to support the different AssemblyLevels. ">
<polygon fill="white" stroke="black" points="272,-338.5 272,-361.5 468,-361.5 468,-338.5 272,-338.5"/>
<text text-anchor="middle" x="370" y="-346.3" font-family="Helvetica,sans-Serif" font-size="14.00">mfem::BilinearFormExtension</text>
</a>
</g>
</g>
<!-- Node2&#45;&gt;Node1 -->
<g id="edge1" class="edge"><title>Node2&#45;&gt;Node1</title>
<path fill="none" stroke="midnightblue" d="M478.308,-360.357C480.897,-360.577 483.464,-360.792 486,-361 517.754,-363.608 552.317,-366.108 583.816,-368.255"/>
<polygon fill="midnightblue" stroke="midnightblue" points="478.498,-356.861 468.233,-359.486 477.894,-363.835 478.498,-356.861"/>
</g>
<!-- Node4 -->
<g id="node4" class="node"><title>Node4</title>
<g id="a_node4"><a xlink:href="classmfem_1_1BilinearForm.html" target="_top" xlink:title="mfem::BilinearForm">
<polygon fill="white" stroke="red" points="622.5,-213.5 622.5,-236.5 759.5,-236.5 759.5,-213.5 622.5,-213.5"/>
<text text-anchor="middle" x="691" y="-221.3" font-family="Helvetica,sans-Serif" font-size="14.00">mfem::BilinearForm</text>
</a>
</g>
</g>
<!-- Node2&#45;&gt;Node4 -->
<g id="edge11" class="edge"><title>Node2&#45;&gt;Node4</title>
<path fill="none" stroke="#9a32cd" stroke-dasharray="5,2" d="M478.338,-340.119C514.423,-335.734 549.657,-329.971 566,-323 614.206,-302.437 659.505,-258.005 679.401,-236.768"/>
<polygon fill="#9a32cd" stroke="#9a32cd" points="477.675,-336.673 468.153,-341.32 478.494,-343.625 477.675,-336.673"/>
<text text-anchor="middle" x="526" y="-341.8" font-family="Helvetica,sans-Serif" font-size="14.00"> ext</text>
</g>
<!-- Node3 -->
<g id="node3" class="node"><title>Node3</title>
<g id="a_node3"><a xlink:href="classmfem_1_1Operator.html" target="_top" xlink:title="Abstract operator. ">
<polygon fill="white" stroke="black" points="13.5,-316.5 13.5,-339.5 126.5,-339.5 126.5,-316.5 13.5,-316.5"/>
<text text-anchor="middle" x="70" y="-324.3" font-family="Helvetica,sans-Serif" font-size="14.00">mfem::Operator</text>
</a>
</g>
</g>
<!-- Node3&#45;&gt;Node2 -->
<g id="edge2" class="edge"><title>Node3&#45;&gt;Node2</title>
<path fill="none" stroke="midnightblue" d="M136.783,-332.856C176.443,-335.784 227.681,-339.567 271.934,-342.834"/>
<polygon fill="midnightblue" stroke="midnightblue" points="136.933,-329.358 126.702,-332.112 136.417,-336.339 136.933,-329.358"/>
</g>
<!-- Node5 -->
<g id="node5" class="node"><title>Node5</title>
<g id="a_node5"><a xlink:href="classmfem_1_1Matrix.html" target="_top" xlink:title="Abstract data type matrix. ">
<polygon fill="white" stroke="black" points="321.5,-296.5 321.5,-319.5 418.5,-319.5 418.5,-296.5 321.5,-296.5"/>
<text text-anchor="middle" x="370" y="-304.3" font-family="Helvetica,sans-Serif" font-size="14.00">mfem::Matrix</text>
</a>
</g>
</g>
<!-- Node3&#45;&gt;Node5 -->
<g id="edge5" class="edge"><title>Node3&#45;&gt;Node5</title>
<path fill="none" stroke="midnightblue" d="M136.854,-323.58C192.721,-319.831 271.526,-314.542 321.432,-311.193"/>
<polygon fill="midnightblue" stroke="midnightblue" points="136.445,-320.1 126.702,-324.262 136.914,-327.084 136.445,-320.1"/>
</g>
<!-- Node4&#45;&gt;Node2 -->
<g id="edge3" class="edge"><title>Node4&#45;&gt;Node2</title>
<path fill="none" stroke="#9a32cd" stroke-dasharray="5,2" d="M660.106,-241.253C635.378,-254.258 599.078,-272.349 566,-285 531.445,-298.216 517.126,-288.003 486,-308 475.658,-314.645 478.558,-322.704 468,-329 461.636,-332.795 454.674,-335.907 447.493,-338.459"/>
<polygon fill="#9a32cd" stroke="#9a32cd" points="661.793,-244.32 668.985,-236.54 658.511,-238.137 661.793,-244.32"/>
<text text-anchor="middle" x="526" y="-311.8" font-family="Helvetica,sans-Serif" font-size="14.00"> a</text>
</g>
<!-- Node5&#45;&gt;Node4 -->
<g id="edge4" class="edge"><title>Node5&#45;&gt;Node4</title>
<path fill="none" stroke="midnightblue" d="M429.102,-295.973C441.943,-293.161 455.457,-290.083 468,-287 532.702,-271.096 607.148,-249.653 651.295,-236.604"/>
<polygon fill="midnightblue" stroke="midnightblue" points="428.011,-292.628 418.979,-298.166 429.493,-299.469 428.011,-292.628"/>
</g>
<!-- Node6 -->
<g id="node6" class="node"><title>Node6</title>
<g id="a_node6"><a xlink:href="classmfem_1_1StaticCondensation.html" target="_top" xlink:title="mfem::StaticCondensation">
<polygon fill="white" stroke="black" points="282,-254.5 282,-277.5 458,-277.5 458,-254.5 282,-254.5"/>
<text text-anchor="middle" x="370" y="-262.3" font-family="Helvetica,sans-Serif" font-size="14.00">mfem::StaticCondensation</text>
</a>
</g>
</g>
<!-- Node6&#45;&gt;Node4 -->
<g id="edge6" class="edge"><title>Node6&#45;&gt;Node4</title>
<path fill="none" stroke="#9a32cd" stroke-dasharray="5,2" d="M438.78,-252.659C454.259,-249.881 470.667,-247.148 486,-245 531.286,-238.656 582.509,-233.642 622.298,-230.221"/>
<polygon fill="#9a32cd" stroke="#9a32cd" points="437.972,-249.248 428.762,-254.485 439.228,-256.135 437.972,-249.248"/>
<text text-anchor="middle" x="526" y="-248.8" font-family="Helvetica,sans-Serif" font-size="14.00"> static_cond</text>
</g>
<!-- Node7 -->
<g id="node7" class="node"><title>Node7</title>
<g id="a_node7"><a xlink:href="classmfem_1_1SparseMatrix.html" target="_top" xlink:title="Data type sparse matrix. ">
<polygon fill="white" stroke="red" points="0,-171.5 0,-194.5 140,-194.5 140,-171.5 0,-171.5"/>
<text text-anchor="middle" x="70" y="-179.3" font-family="Helvetica,sans-Serif" font-size="14.00">mfem::SparseMatrix</text>
</a>
</g>
</g>
<!-- Node7&#45;&gt;Node4 -->
<g id="edge7" class="edge"><title>Node7&#45;&gt;Node4</title>
<path fill="none" stroke="#9a32cd" stroke-dasharray="5,2" d="M150.348,-191.345C152.928,-191.573 155.484,-191.792 158,-192 324.694,-205.786 521.207,-216.556 622.332,-221.696"/>
<polygon fill="#9a32cd" stroke="#9a32cd" points="150.585,-187.852 140.308,-190.429 149.949,-194.824 150.585,-187.852"/>
<text text-anchor="middle" x="370" y="-231.8" font-family="Helvetica,sans-Serif" font-size="14.00"> mat</text>
<text text-anchor="middle" x="370" y="-216.8" font-family="Helvetica,sans-Serif" font-size="14.00">mat_e</text>
</g>
<!-- Node7&#45;&gt;Node7 -->
<g id="edge8" class="edge"><title>Node7&#45;&gt;Node7</title>
<path fill="none" stroke="#9a32cd" stroke-dasharray="5,2" d="M45.0767,-204.472C47.2489,-209.391 55.5566,-213 70,-213 93.1094,-213 100.512,-203.76 92.2067,-194.701"/>
<polygon fill="#9a32cd" stroke="#9a32cd" points="48.4866,-205.274 47.7933,-194.701 41.7425,-203.398 48.4866,-205.274"/>
<text text-anchor="middle" x="70" y="-216.8" font-family="Helvetica,sans-Serif" font-size="14.00"> At</text>
</g>
<!-- Node10 -->
<g id="node10" class="node"><title>Node10</title>
<g id="a_node10"><a xlink:href="classmfem_1_1FiniteElementSpace.html" target="_top" xlink:title="Class FiniteElementSpace &#45; responsible for providing FEM view of the mesh, mainly managing the set of...">
<polygon fill="white" stroke="red" points="279.5,-146.5 279.5,-169.5 460.5,-169.5 460.5,-146.5 279.5,-146.5"/>
<text text-anchor="middle" x="370" y="-154.3" font-family="Helvetica,sans-Serif" font-size="14.00">mfem::FiniteElementSpace</text>
</a>
</g>
</g>
<!-- Node7&#45;&gt;Node10 -->
<g id="edge13" class="edge"><title>Node7&#45;&gt;Node10</title>
<path fill="none" stroke="#9a32cd" stroke-dasharray="5,2" d="M120.841,-169.001C132.91,-166.159 145.84,-163.564 158,-162 197.61,-156.906 241.741,-155.425 279.364,-155.403"/>
<polygon fill="#9a32cd" stroke="#9a32cd" points="119.82,-165.647 110.941,-171.428 121.487,-172.446 119.82,-165.647"/>
<text text-anchor="middle" x="206" y="-180.8" font-family="Helvetica,sans-Serif" font-size="14.00"> cR</text>
<text text-anchor="middle" x="206" y="-165.8" font-family="Helvetica,sans-Serif" font-size="14.00">cP</text>
</g>
<!-- Node8 -->
<g id="node8" class="node"><title>Node8</title>
<g id="a_node8"><a xlink:href="classmfem_1_1Array.html" target="_top" xlink:title="mfem::Array\&lt; int \&gt;">
<polygon fill="white" stroke="red" points="5,-80.5 5,-103.5 135,-103.5 135,-80.5 5,-80.5"/>
<text text-anchor="middle" x="70" y="-88.3" font-family="Helvetica,sans-Serif" font-size="14.00">mfem::Array&lt; int &gt;</text>
</a>
</g>
</g>
<!-- Node8&#45;&gt;Node4 -->
<g id="edge9" class="edge"><title>Node8&#45;&gt;Node4</title>
<path fill="none" stroke="#9a32cd" stroke-dasharray="5,2" d="M145.516,-94.2653C178.746,-95.5312 218.359,-97.3912 254,-100 349.357,-106.98 375.142,-99.2174 468,-122 513.528,-133.17 523.343,-141.56 566,-161 603.035,-177.878 644.864,-200.166 669.245,-213.495"/>
<polygon fill="#9a32cd" stroke="#9a32cd" points="145.542,-90.764 135.419,-93.8914 145.283,-97.7592 145.542,-90.764"/>
<text text-anchor="middle" x="370" y="-125.8" font-family="Helvetica,sans-Serif" font-size="14.00"> vdofs</text>
</g>
<!-- Node8&#45;&gt;Node10 -->
<g id="edge14" class="edge"><title>Node8&#45;&gt;Node10</title>
<path fill="none" stroke="#9a32cd" stroke-dasharray="5,2" d="M145.528,-101.787C178.92,-106.794 218.656,-113.615 254,-122 282.091,-128.664 313.314,-138.605 336.129,-146.353"/>
<polygon fill="#9a32cd" stroke="#9a32cd" points="145.784,-98.2865 135.38,-100.291 144.763,-105.212 145.784,-98.2865"/>
<text text-anchor="middle" x="206" y="-140.8" font-family="Helvetica,sans-Serif" font-size="14.00"> dof_ldof_array</text>
<text text-anchor="middle" x="206" y="-125.8" font-family="Helvetica,sans-Serif" font-size="14.00">dof_elem_array</text>
</g>
<!-- Node9 -->
<g id="node9" class="node"><title>Node9</title>
<g id="a_node9"><a xlink:href="classmfem_1_1Array.html" target="_top" xlink:title="mfem::Array\&lt; mfem::\lArray\&lt; int \&gt; * \&gt;">
<polygon fill="white" stroke="red" points="297,-0 297,-38 443,-38 443,-0 297,-0"/>
<text text-anchor="start" x="305" y="-22.8" font-family="Helvetica,sans-Serif" font-size="14.00">mfem::Array&lt; mfem::</text>
<text text-anchor="middle" x="370" y="-7.8" font-family="Helvetica,sans-Serif" font-size="14.00">Array&lt; int &gt; * &gt;</text>
</a>
</g>
</g>
<!-- Node9&#45;&gt;Node4 -->
<g id="edge10" class="edge"><title>Node9&#45;&gt;Node4</title>
<path fill="none" stroke="#9a32cd" stroke-dasharray="5,2" d="M453.421,-7.89023C490.167,-6.84937 532.597,-11.3495 566,-31 638.868,-73.8677 675.971,-178.32 686.668,-213.338"/>
<polygon fill="#9a32cd" stroke="#9a32cd" points="453.063,-4.40219 443.22,-8.32275 453.359,-11.3959 453.063,-4.40219"/>
<text text-anchor="middle" x="526" y="-49.8" font-family="Helvetica,sans-Serif" font-size="14.00"> bfbfi_marker</text>
<text text-anchor="middle" x="526" y="-34.8" font-family="Helvetica,sans-Serif" font-size="14.00">bbfi_marker</text>
</g>
<!-- Node10&#45;&gt;Node4 -->
<g id="edge12" class="edge"><title>Node10&#45;&gt;Node4</title>
<path fill="none" stroke="#9a32cd" stroke-dasharray="5,2" d="M470.973,-162.489C501.741,-165.271 535.524,-169.76 566,-177 601.935,-185.537 641.389,-202.152 665.926,-213.414"/>
<polygon fill="#9a32cd" stroke="#9a32cd" points="470.925,-158.972 460.663,-161.61 470.33,-165.947 470.925,-158.972"/>
<text text-anchor="middle" x="526" y="-180.8" font-family="Helvetica,sans-Serif" font-size="14.00"> fes</text>
</g>
</g>
</svg>
