<?xml version="1.0" encoding="UTF-8" standalone="no"?>
<!DOCTYPE svg PUBLIC "-//W3C//DTD SVG 1.1//EN"
 "http://www.w3.org/Graphics/SVG/1.1/DTD/svg11.dtd">
<!-- Generated by graphviz version 2.30.1 (20170916.1124)
 -->
<!-- Title: mfem::InterpolationGridTransfer Pages: 1 -->
<svg width="827pt" height="402pt"
 viewBox="0.00 0.00 827.00 402.00" xmlns="http://www.w3.org/2000/svg" xmlns:xlink="http://www.w3.org/1999/xlink">
<g id="graph0" class="graph" transform="scale(1 1) rotate(0) translate(4 398)">
<title>mfem::InterpolationGridTransfer</title>
<polygon fill="white" stroke="white" points="-4,5 -4,-398 824,-398 824,5 -4,5"/>
<!-- Node1 -->
<g id="node1" class="node"><title>Node1</title>
<polygon fill="#bfbfbf" stroke="black" points="478,-0.5 478,-23.5 688,-23.5 688,-0.5 478,-0.5"/>
<text text-anchor="middle" x="583" y="-8.3" font-family="Helvetica,sans-Serif" font-size="14.00">mfem::InterpolationGridTransfer</text>
</g>
<!-- Node2 -->
<g id="node2" class="node"><title>Node2</title>
<g id="a_node2"><a xlink:href="classmfem_1_1GridTransfer.html" target="_top" xlink:title="Base class for transfer algorithms that construct transfer Operators between two finite element (FE) ...">
<polygon fill="white" stroke="black" points="419,-76.5 419,-99.5 555,-99.5 555,-76.5 419,-76.5"/>
<text text-anchor="middle" x="487" y="-84.3" font-family="Helvetica,sans-Serif" font-size="14.00">mfem::GridTransfer</text>
</a>
</g>
</g>
<!-- Node2&#45;&gt;Node1 -->
<g id="edge1" class="edge"><title>Node2&#45;&gt;Node1</title>
<path fill="none" stroke="midnightblue" d="M508.69,-70.2803C527.269,-55.9595 553.456,-35.7732 569.271,-23.5827"/>
<polygon fill="midnightblue" stroke="midnightblue" points="506.538,-67.5204 500.754,-76.3976 510.811,-73.0645 506.538,-67.5204"/>
</g>
<!-- Node3 -->
<g id="node3" class="node"><title>Node3</title>
<g id="a_node3"><a xlink:href="classmfem_1_1FiniteElementSpace.html" target="_top" xlink:title="Class FiniteElementSpace &#45; responsible for providing FEM view of the mesh, mainly managing the set of...">
<polygon fill="white" stroke="red" points="270.5,-169.5 270.5,-192.5 451.5,-192.5 451.5,-169.5 270.5,-169.5"/>
<text text-anchor="middle" x="361" y="-177.3" font-family="Helvetica,sans-Serif" font-size="14.00">mfem::FiniteElementSpace</text>
</a>
</g>
</g>
<!-- Node3&#45;&gt;Node2 -->
<g id="edge2" class="edge"><title>Node3&#45;&gt;Node2</title>
<path fill="none" stroke="#9a32cd" stroke-dasharray="5,2" d="M375.927,-161.036C387.201,-147.669 403.652,-130.071 421,-118 431.787,-110.494 444.829,-104.267 456.46,-99.5322"/>
<polygon fill="#9a32cd" stroke="#9a32cd" points="372.943,-159.155 369.31,-169.108 378.356,-163.593 372.943,-159.155"/>
<text text-anchor="middle" x="447.5" y="-136.8" font-family="Helvetica,sans-Serif" font-size="14.00"> ran_fes</text>
<text text-anchor="middle" x="447.5" y="-121.8" font-family="Helvetica,sans-Serif" font-size="14.00">dom_fes</text>
</g>
<!-- Node4 -->
<g id="node4" class="node"><title>Node4</title>
<g id="a_node4"><a xlink:href="classmfem_1_1Array.html" target="_top" xlink:title="mfem::Array\&lt; mfem::\lQuadratureInterpolator * \&gt;">
<polygon fill="white" stroke="red" points="-0.5,-279 -0.5,-317 174.5,-317 174.5,-279 -0.5,-279"/>
<text text-anchor="start" x="7.5" y="-301.8" font-family="Helvetica,sans-Serif" font-size="14.00">mfem::Array&lt; mfem::</text>
<text text-anchor="middle" x="87" y="-286.8" font-family="Helvetica,sans-Serif" font-size="14.00">QuadratureInterpolator * &gt;</text>
</a>
</g>
</g>
<!-- Node4&#45;&gt;Node3 -->
<g id="edge3" class="edge"><title>Node4&#45;&gt;Node3</title>
<path fill="none" stroke="#9a32cd" stroke-dasharray="5,2" d="M114.455,-272.211C136.752,-253.415 169.834,-228.432 203,-214 225.583,-204.173 251.311,-197.32 275.352,-192.559"/>
<polygon fill="#9a32cd" stroke="#9a32cd" points="112.058,-269.656 106.748,-278.825 116.616,-274.968 112.058,-269.656"/>
<text text-anchor="middle" x="238" y="-233.3" font-family="Helvetica,sans-Serif" font-size="14.00"> E2Q_array</text>
</g>
<!-- Node5 -->
<g id="node5" class="node"><title>Node5</title>
<g id="a_node5"><a xlink:href="classmfem_1_1Mesh.html" target="_top" xlink:title="mfem::Mesh">
<polygon fill="white" stroke="red" points="192.5,-286.5 192.5,-309.5 285.5,-309.5 285.5,-286.5 192.5,-286.5"/>
<text text-anchor="middle" x="239" y="-294.3" font-family="Helvetica,sans-Serif" font-size="14.00">mfem::Mesh</text>
</a>
</g>
</g>
<!-- Node5&#45;&gt;Node3 -->
<g id="edge4" class="edge"><title>Node5&#45;&gt;Node3</title>
<path fill="none" stroke="#9a32cd" stroke-dasharray="5,2" d="M256.77,-278.619C273.501,-261.511 299.443,-235.495 323,-214 331.028,-206.675 340.359,-198.809 347.765,-192.708"/>
<polygon fill="#9a32cd" stroke="#9a32cd" points="253.815,-276.636 249.347,-286.243 258.83,-281.519 253.815,-276.636"/>
<text text-anchor="middle" x="342" y="-233.3" font-family="Helvetica,sans-Serif" font-size="14.00"> mesh</text>
</g>
<!-- Node6 -->
<g id="node6" class="node"><title>Node6</title>
<g id="a_node6"><a xlink:href="classmfem_1_1SparseMatrix.html" target="_top" xlink:title="Data type sparse matrix. ">
<polygon fill="white" stroke="red" points="304,-286.5 304,-309.5 444,-309.5 444,-286.5 304,-286.5"/>
<text text-anchor="middle" x="374" y="-294.3" font-family="Helvetica,sans-Serif" font-size="14.00">mfem::SparseMatrix</text>
</a>
</g>
</g>
<!-- Node6&#45;&gt;Node3 -->
<g id="edge5" class="edge"><title>Node6&#45;&gt;Node3</title>
<path fill="none" stroke="#9a32cd" stroke-dasharray="5,2" d="M371.66,-276.303C368.878,-251.692 364.342,-211.566 362.197,-192.587"/>
<polygon fill="#9a32cd" stroke="#9a32cd" points="368.199,-276.844 372.8,-286.387 375.155,-276.057 368.199,-276.844"/>
<text text-anchor="middle" x="380.5" y="-240.8" font-family="Helvetica,sans-Serif" font-size="14.00"> cR</text>
<text text-anchor="middle" x="380.5" y="-225.8" font-family="Helvetica,sans-Serif" font-size="14.00">cP</text>
</g>
<!-- Node6&#45;&gt;Node6 -->
<g id="edge6" class="edge"><title>Node6&#45;&gt;Node6</title>
<path fill="none" stroke="#9a32cd" stroke-dasharray="5,2" d="M454.078,-304.02C459.024,-302.597 462,-300.59 462,-298 462,-293.957 454.749,-291.335 444.071,-290.135"/>
<polygon fill="#9a32cd" stroke="#9a32cd" points="453.271,-300.61 444.071,-305.865 454.54,-307.494 453.271,-300.61"/>
<text text-anchor="middle" x="470.5" y="-294.3" font-family="Helvetica,sans-Serif" font-size="14.00"> At</text>
</g>
<!-- Node7 -->
<g id="node7" class="node"><title>Node7</title>
<g id="a_node7"><a xlink:href="classmfem_1_1OperatorHandle.html" target="_top" xlink:title="Pointer to an Operator of a specified type. ">
<polygon fill="white" stroke="black" points="497,-286.5 497,-309.5 653,-309.5 653,-286.5 497,-286.5"/>
<text text-anchor="middle" x="575" y="-294.3" font-family="Helvetica,sans-Serif" font-size="14.00">mfem::OperatorHandle</text>
</a>
</g>
</g>
<!-- Node7&#45;&gt;Node3 -->
<g id="edge7" class="edge"><title>Node7&#45;&gt;Node3</title>
<path fill="none" stroke="#9a32cd" stroke-dasharray="5,2" d="M518.157,-284.23C476.683,-274.74 427.034,-262.95 423,-260 403.68,-245.872 410.073,-232.592 395,-214 388.67,-206.192 380.495,-198.44 373.748,-192.522"/>
<polygon fill="#9a32cd" stroke="#9a32cd" points="517.418,-287.651 527.946,-286.462 518.975,-280.826 517.418,-287.651"/>
<text text-anchor="middle" x="448.5" y="-248.3" font-family="Helvetica,sans-Serif" font-size="14.00"> Th</text>
<text text-anchor="middle" x="448.5" y="-233.3" font-family="Helvetica,sans-Serif" font-size="14.00">L2E_nat</text>
<text text-anchor="middle" x="448.5" y="-218.3" font-family="Helvetica,sans-Serif" font-size="14.00">L2E_lex</text>
</g>
<!-- Node7&#45;&gt;Node2 -->
<g id="edge9" class="edge"><title>Node7&#45;&gt;Node2</title>
<path fill="none" stroke="#9a32cd" stroke-dasharray="5,2" d="M557.444,-278.691C540.296,-259.649 514.945,-228.171 502,-196 488.625,-162.762 486.858,-119.559 486.823,-99.763"/>
<polygon fill="#9a32cd" stroke="#9a32cd" points="555.099,-281.311 564.451,-286.29 560.245,-276.566 555.099,-281.311"/>
<text text-anchor="middle" x="535.5" y="-184.8" font-family="Helvetica,sans-Serif" font-size="14.00"> bw_t_oper</text>
<text text-anchor="middle" x="535.5" y="-169.8" font-family="Helvetica,sans-Serif" font-size="14.00">fw_t_oper</text>
</g>
<!-- Node7&#45;&gt;Node1 -->
<g id="edge10" class="edge"><title>Node7&#45;&gt;Node1</title>
<path fill="none" stroke="#9a32cd" stroke-dasharray="5,2" d="M575.592,-275.995C577.182,-219.53 581.51,-65.9028 582.696,-23.7971"/>
<polygon fill="#9a32cd" stroke="#9a32cd" points="572.087,-276.119 575.304,-286.214 579.084,-276.316 572.087,-276.119"/>
<text text-anchor="middle" x="587.5" y="-136.8" font-family="Helvetica,sans-Serif" font-size="14.00"> F</text>
<text text-anchor="middle" x="587.5" y="-121.8" font-family="Helvetica,sans-Serif" font-size="14.00">B</text>
</g>
<!-- Node8 -->
<g id="node8" class="node"><title>Node8</title>
<g id="a_node8"><a xlink:href="classmfem_1_1Operator.html" target="_top" xlink:title="Abstract operator. ">
<polygon fill="white" stroke="black" points="518.5,-370.5 518.5,-393.5 631.5,-393.5 631.5,-370.5 518.5,-370.5"/>
<text text-anchor="middle" x="575" y="-378.3" font-family="Helvetica,sans-Serif" font-size="14.00">mfem::Operator</text>
</a>
</g>
</g>
<!-- Node8&#45;&gt;Node7 -->
<g id="edge8" class="edge"><title>Node8&#45;&gt;Node7</title>
<path fill="none" stroke="#9a32cd" stroke-dasharray="5,2" d="M575,-360.203C575,-344.114 575,-322.493 575,-309.723"/>
<polygon fill="#9a32cd" stroke="#9a32cd" points="571.5,-360.28 575,-370.28 578.5,-360.28 571.5,-360.28"/>
<text text-anchor="middle" x="590.5" y="-340.3" font-family="Helvetica,sans-Serif" font-size="14.00"> oper</text>
</g>
<!-- Node9 -->
<g id="node9" class="node"><title>Node9</title>
<g id="a_node9"><a xlink:href="classmfem_1_1BilinearFormIntegrator.html" target="_top" xlink:title="Abstract base class BilinearFormIntegrator. ">
<polygon fill="white" stroke="black" points="615,-76.5 615,-99.5 809,-99.5 809,-76.5 615,-76.5"/>
<text text-anchor="middle" x="712" y="-84.3" font-family="Helvetica,sans-Serif" font-size="14.00">mfem::BilinearFormIntegrator</text>
</a>
</g>
</g>
<!-- Node9&#45;&gt;Node1 -->
<g id="edge11" class="edge"><title>Node9&#45;&gt;Node1</title>
<path fill="none" stroke="#9a32cd" stroke-dasharray="5,2" d="M684.524,-71.2388C659.481,-56.8728 623.178,-36.0478 601.448,-23.5827"/>
<polygon fill="#9a32cd" stroke="#9a32cd" points="683.102,-74.4576 693.517,-76.3976 686.585,-68.3857 683.102,-74.4576"/>
<text text-anchor="middle" x="697" y="-46.3" font-family="Helvetica,sans-Serif" font-size="14.00"> mass_integ</text>
</g>
<!-- Node10 -->
<g id="node10" class="node"><title>Node10</title>
<g id="a_node10"><a xlink:href="classmfem_1_1NonlinearFormIntegrator.html" target="_top" xlink:title="mfem::NonlinearFormIntegrator">
<polygon fill="white" stroke="red" points="611.5,-169.5 611.5,-192.5 818.5,-192.5 818.5,-169.5 611.5,-169.5"/>
<text text-anchor="middle" x="715" y="-177.3" font-family="Helvetica,sans-Serif" font-size="14.00">mfem::NonlinearFormIntegrator</text>
</a>
</g>
</g>
<!-- Node10&#45;&gt;Node9 -->
<g id="edge12" class="edge"><title>Node10&#45;&gt;Node9</title>
<path fill="none" stroke="midnightblue" d="M714.309,-159.049C713.696,-140.433 712.824,-113.991 712.346,-99.5013"/>
<polygon fill="midnightblue" stroke="midnightblue" points="710.816,-159.325 714.644,-169.204 717.813,-159.094 710.816,-159.325"/>
</g>
</g>
</svg>
