<?xml version="1.0" encoding="UTF-8" standalone="no"?>
<!DOCTYPE svg PUBLIC "-//W3C//DTD SVG 1.1//EN"
 "http://www.w3.org/Graphics/SVG/1.1/DTD/svg11.dtd">
<!-- Generated by graphviz version 2.30.1 (20200304.1809)
 -->
<!-- Title: mfem::ifgzstream Pages: 1 -->
<svg width="210pt" height="348pt"
 viewBox="0.00 0.00 210.00 348.00" xmlns="http://www.w3.org/2000/svg" xmlns:xlink="http://www.w3.org/1999/xlink">
<g id="graph0" class="graph" transform="scale(1 1) rotate(0) translate(4 344)">
<title>mfem::ifgzstream</title>
<polygon fill="white" stroke="white" points="-4,5 -4,-344 207,-344 207,5 -4,5"/>
<!-- Node1 -->
<g id="node1" class="node"><title>Node1</title>
<polygon fill="#bfbfbf" stroke="black" points="28.5,-60.5 28.5,-83.5 173.5,-83.5 173.5,-60.5 28.5,-60.5"/>
<text text-anchor="middle" x="101" y="-68.3" font-family="Helvetica,sans-Serif" font-size="14.00">mfem::ifgzstream</text>
</g>
<!-- Node6 -->
<g id="node6" class="node"><title>Node6</title>
<g id="a_node6"><a xlink:href="classmfem_1_1named__ifgzstream.html" target="_top" xlink:title="mfem::named_ifgzstream">
<polygon fill="white" stroke="black" points="-0.5,-0.5 -0.5,-23.5 202.5,-23.5 202.5,-0.5 -0.5,-0.5"/>
<text text-anchor="middle" x="101" y="-8.3" font-family="Helvetica,sans-Serif" font-size="14.00">mfem::named_ifgzstream</text>
</a>
</g>
</g>
<!-- Node1&#45;&gt;Node6 -->
<g id="edge5" class="edge"><title>Node1&#45;&gt;Node6</title>
<path fill="none" stroke="midnightblue" d="M101,-50.1906C101,-41.1684 101,-30.9941 101,-23.5707"/>
<polygon fill="midnightblue" stroke="midnightblue" points="97.5001,-50.3619 101,-60.3619 104.5,-50.3619 97.5001,-50.3619"/>
</g>
<!-- Node2 -->
<g id="node2" class="node"><title>Node2</title>
<g id="a_node2"><a xlink:title="STL class. ">
<polygon fill="white" stroke="#bfbfbf" points="50,-120.5 50,-143.5 152,-143.5 152,-120.5 50,-120.5"/>
<text text-anchor="middle" x="101" y="-128.3" font-family="Helvetica,sans-Serif" font-size="14.00">std::istream</text>
</a>
</g>
</g>
<!-- Node2&#45;&gt;Node1 -->
<g id="edge1" class="edge"><title>Node2&#45;&gt;Node1</title>
<path fill="none" stroke="midnightblue" d="M101,-110.191C101,-101.168 101,-90.9941 101,-83.5707"/>
<polygon fill="midnightblue" stroke="midnightblue" points="97.5001,-110.362 101,-120.362 104.5,-110.362 97.5001,-110.362"/>
</g>
<!-- Node3 -->
<g id="node3" class="node"><title>Node3</title>
<g id="a_node3"><a xlink:title="STL class. ">
<polygon fill="white" stroke="#bfbfbf" points="28,-181 28,-219 174,-219 174,-181 28,-181"/>
<text text-anchor="start" x="36" y="-203.8" font-family="Helvetica,sans-Serif" font-size="14.00">std::basic_istream</text>
<text text-anchor="middle" x="101" y="-188.8" font-family="Helvetica,sans-Serif" font-size="14.00">&lt; char &gt;</text>
</a>
</g>
</g>
<!-- Node3&#45;&gt;Node2 -->
<g id="edge2" class="edge"><title>Node3&#45;&gt;Node2</title>
<path fill="none" stroke="midnightblue" d="M101,-170.936C101,-161.342 101,-151.178 101,-143.788"/>
<polygon fill="midnightblue" stroke="midnightblue" points="97.5001,-170.965 101,-180.965 104.5,-170.965 97.5001,-170.965"/>
</g>
<!-- Node4 -->
<g id="node4" class="node"><title>Node4</title>
<g id="a_node4"><a xlink:title="STL class. ">
<polygon fill="white" stroke="#bfbfbf" points="11.5,-256.5 11.5,-279.5 190.5,-279.5 190.5,-256.5 11.5,-256.5"/>
<text text-anchor="middle" x="101" y="-264.3" font-family="Helvetica,sans-Serif" font-size="14.00">std::basic_ios&lt; Char &gt;</text>
</a>
</g>
</g>
<!-- Node4&#45;&gt;Node3 -->
<g id="edge3" class="edge"><title>Node4&#45;&gt;Node3</title>
<path fill="none" stroke="midnightblue" d="M101,-246.274C101,-237.541 101,-227.471 101,-219.048"/>
<polygon fill="midnightblue" stroke="midnightblue" points="97.5001,-246.396 101,-256.396 104.5,-246.396 97.5001,-246.396"/>
</g>
<!-- Node5 -->
<g id="node5" class="node"><title>Node5</title>
<g id="a_node5"><a xlink:title="STL class. ">
<polygon fill="white" stroke="#bfbfbf" points="46,-316.5 46,-339.5 156,-339.5 156,-316.5 46,-316.5"/>
<text text-anchor="middle" x="101" y="-324.3" font-family="Helvetica,sans-Serif" font-size="14.00">std::ios_base</text>
</a>
</g>
</g>
<!-- Node5&#45;&gt;Node4 -->
<g id="edge4" class="edge"><title>Node5&#45;&gt;Node4</title>
<path fill="none" stroke="midnightblue" d="M101,-306.191C101,-297.168 101,-286.994 101,-279.571"/>
<polygon fill="midnightblue" stroke="midnightblue" points="97.5001,-306.362 101,-316.362 104.5,-306.362 97.5001,-306.362"/>
</g>
</g>
</svg>
