<?xml version="1.0" encoding="UTF-8" standalone="no"?>
<!DOCTYPE svg PUBLIC "-//W3C//DTD SVG 1.1//EN"
 "http://www.w3.org/Graphics/SVG/1.1/DTD/svg11.dtd">
<!-- Generated by graphviz version 2.30.1 (20200304.1809)
 -->
<!-- Title: mfem::ParFiniteElementSpace Pages: 1 -->
<svg width="1570pt" height="581pt"
 viewBox="0.00 0.00 1570.00 581.00" xmlns="http://www.w3.org/2000/svg" xmlns:xlink="http://www.w3.org/1999/xlink">
<g id="graph0" class="graph" transform="scale(1 1) rotate(0) translate(4 577)">
<title>mfem::ParFiniteElementSpace</title>
<polygon fill="white" stroke="white" points="-4,5 -4,-577 1567,-577 1567,5 -4,5"/>
<!-- Node1 -->
<g id="node1" class="node"><title>Node1</title>
<polygon fill="#bfbfbf" stroke="black" points="1330,-55.5 1330,-78.5 1562,-78.5 1562,-55.5 1330,-55.5"/>
<text text-anchor="middle" x="1446" y="-63.3" font-family="Helvetica,sans-Serif" font-size="14.00">mfem::ParFiniteElementSpace</text>
</g>
<!-- Node2 -->
<g id="node2" class="node"><title>Node2</title>
<g id="a_node2"><a xlink:href="classmfem_1_1FiniteElementSpace.html" target="_top" xlink:title="Class FiniteElementSpace &#45; responsible for providing FEM view of the mesh, mainly managing the set of...">
<polygon fill="white" stroke="red" points="908.5,-276.5 908.5,-299.5 1117.5,-299.5 1117.5,-276.5 908.5,-276.5"/>
<text text-anchor="middle" x="1013" y="-284.3" font-family="Helvetica,sans-Serif" font-size="14.00">mfem::FiniteElementSpace</text>
</a>
</g>
</g>
<!-- Node2&#45;&gt;Node1 -->
<g id="edge1" class="edge"><title>Node2&#45;&gt;Node1</title>
<path fill="none" stroke="midnightblue" d="M1045.5,-271.847C1128.32,-229.379 1350.72,-115.345 1422.4,-78.5892"/>
<polygon fill="midnightblue" stroke="midnightblue" points="1043.87,-268.752 1036.57,-276.429 1047.06,-274.981 1043.87,-268.752"/>
</g>
<!-- Node3 -->
<g id="node3" class="node"><title>Node3</title>
<g id="a_node3"><a xlink:href="classmfem_1_1Array.html" target="_top" xlink:title="mfem::Array\&lt; mfem::\lQuadratureInterpolator * \&gt;">
<polygon fill="white" stroke="red" points="568,-288 568,-326 780,-326 780,-288 568,-288"/>
<text text-anchor="start" x="576" y="-310.8" font-family="Helvetica,sans-Serif" font-size="14.00">mfem::Array&lt; mfem::</text>
<text text-anchor="middle" x="674" y="-295.8" font-family="Helvetica,sans-Serif" font-size="14.00">QuadratureInterpolator * &gt;</text>
</a>
</g>
</g>
<!-- Node3&#45;&gt;Node2 -->
<g id="edge2" class="edge"><title>Node3&#45;&gt;Node2</title>
<path fill="none" stroke="#9a32cd" stroke-dasharray="5,2" d="M790.405,-300.493C828.701,-298.334 871.073,-295.945 908.421,-293.84"/>
<polygon fill="#9a32cd" stroke="#9a32cd" points="790.03,-297.009 780.243,-301.066 790.424,-303.998 790.03,-297.009"/>
<text text-anchor="middle" x="850" y="-303.8" font-family="Helvetica,sans-Serif" font-size="14.00"> E2Q_array</text>
</g>
<!-- Node4 -->
<g id="node4" class="node"><title>Node4</title>
<g id="a_node4"><a xlink:href="classmfem_1_1Mesh.html" target="_top" xlink:title="mfem::Mesh">
<polygon fill="white" stroke="red" points="298,-234.5 298,-257.5 404,-257.5 404,-234.5 298,-234.5"/>
<text text-anchor="middle" x="351" y="-242.3" font-family="Helvetica,sans-Serif" font-size="14.00">mfem::Mesh</text>
</a>
</g>
</g>
<!-- Node4&#45;&gt;Node2 -->
<g id="edge3" class="edge"><title>Node4&#45;&gt;Node2</title>
<path fill="none" stroke="#9a32cd" stroke-dasharray="5,2" d="M414.195,-234.528C499.758,-220.547 658.374,-201.104 792,-221 862.886,-231.555 942.527,-260.248 983.795,-276.454"/>
<polygon fill="#9a32cd" stroke="#9a32cd" points="413.419,-231.108 404.129,-236.202 414.568,-238.014 413.419,-231.108"/>
<text text-anchor="middle" x="674" y="-224.8" font-family="Helvetica,sans-Serif" font-size="14.00"> mesh</text>
</g>
<!-- Node6 -->
<g id="node6" class="node"><title>Node6</title>
<g id="a_node6"><a xlink:href="classmfem_1_1NURBSExtension.html" target="_top" xlink:title="mfem::NURBSExtension">
<polygon fill="white" stroke="red" points="580,-245.5 580,-268.5 768,-268.5 768,-245.5 580,-245.5"/>
<text text-anchor="middle" x="674" y="-253.3" font-family="Helvetica,sans-Serif" font-size="14.00">mfem::NURBSExtension</text>
</a>
</g>
</g>
<!-- Node4&#45;&gt;Node6 -->
<g id="edge6" class="edge"><title>Node4&#45;&gt;Node6</title>
<path fill="none" stroke="#9a32cd" stroke-dasharray="5,2" d="M410.515,-259.23C415.061,-259.94 419.594,-260.546 424,-261 475.393,-266.297 533.063,-265.777 579.951,-263.716"/>
<polygon fill="#9a32cd" stroke="#9a32cd" points="411.034,-255.769 400.587,-257.533 409.855,-262.668 411.034,-255.769"/>
<text text-anchor="middle" x="481" y="-269.8" font-family="Helvetica,sans-Serif" font-size="14.00"> patchTopo</text>
</g>
<!-- Node5 -->
<g id="node5" class="node"><title>Node5</title>
<g id="a_node5"><a xlink:href="classmfem_1_1Array.html" target="_top" xlink:title="mfem::Array\&lt; int \&gt;">
<polygon fill="white" stroke="red" points="0,-384.5 0,-407.5 158,-407.5 158,-384.5 0,-384.5"/>
<text text-anchor="middle" x="79" y="-392.3" font-family="Helvetica,sans-Serif" font-size="14.00">mfem::Array&lt; int &gt;</text>
</a>
</g>
</g>
<!-- Node5&#45;&gt;Node4 -->
<g id="edge4" class="edge"><title>Node5&#45;&gt;Node4</title>
<path fill="none" stroke="#9a32cd" stroke-dasharray="5,2" d="M99.1724,-377.085C117.428,-360.143 146.436,-335.891 176,-322 218.06,-302.238 235.724,-318.295 278,-299 301.157,-288.431 324.193,-269.652 337.759,-257.52"/>
<polygon fill="#9a32cd" stroke="#9a32cd" points="96.423,-374.869 91.5777,-384.291 101.241,-379.947 96.423,-374.869"/>
<text text-anchor="middle" x="227" y="-370.8" font-family="Helvetica,sans-Serif" font-size="14.00"> attributes</text>
<text text-anchor="middle" x="227" y="-355.8" font-family="Helvetica,sans-Serif" font-size="14.00">be_to_edge</text>
<text text-anchor="middle" x="227" y="-340.8" font-family="Helvetica,sans-Serif" font-size="14.00">be_to_face</text>
<text text-anchor="middle" x="227" y="-325.8" font-family="Helvetica,sans-Serif" font-size="14.00">bdr_attributes</text>
</g>
<!-- Node5&#45;&gt;Node6 -->
<g id="edge7" class="edge"><title>Node5&#45;&gt;Node6</title>
<path fill="none" stroke="#9a32cd" stroke-dasharray="5,2" d="M168.369,-395.154C202.884,-393.422 242.599,-389.688 278,-382 398.526,-355.827 422.745,-328.908 538,-285 546.021,-281.944 547.737,-280.325 556,-278 568.913,-274.367 582.811,-271.225 596.362,-268.559"/>
<polygon fill="#9a32cd" stroke="#9a32cd" points="168.139,-391.661 158.308,-395.61 168.457,-398.654 168.139,-391.661"/>
<text text-anchor="middle" x="351" y="-530.8" font-family="Helvetica,sans-Serif" font-size="14.00"> slave</text>
<text text-anchor="middle" x="351" y="-515.8" font-family="Helvetica,sans-Serif" font-size="14.00">master</text>
<text text-anchor="middle" x="351" y="-500.8" font-family="Helvetica,sans-Serif" font-size="14.00">v_spaceOffsets</text>
<text text-anchor="middle" x="351" y="-485.8" font-family="Helvetica,sans-Serif" font-size="14.00">p_meshOffsets</text>
<text text-anchor="middle" x="351" y="-470.8" font-family="Helvetica,sans-Serif" font-size="14.00">edge_to_knot</text>
<text text-anchor="middle" x="351" y="-455.8" font-family="Helvetica,sans-Serif" font-size="14.00">f_spaceOffsets</text>
<text text-anchor="middle" x="351" y="-440.8" font-family="Helvetica,sans-Serif" font-size="14.00">e_meshOffsets</text>
<text text-anchor="middle" x="351" y="-425.8" font-family="Helvetica,sans-Serif" font-size="14.00">el_to_patch</text>
<text text-anchor="middle" x="351" y="-410.8" font-family="Helvetica,sans-Serif" font-size="14.00">p_spaceOffsets</text>
<text text-anchor="middle" x="351" y="-395.8" font-family="Helvetica,sans-Serif" font-size="14.00">bel_to_patch</text>
<text text-anchor="middle" x="351" y="-380.8" font-family="Helvetica,sans-Serif" font-size="14.00">...</text>
</g>
<!-- Node5&#45;&gt;Node2 -->
<g id="edge12" class="edge"><title>Node5&#45;&gt;Node2</title>
<path fill="none" stroke="#9a32cd" stroke-dasharray="5,2" d="M98.328,-414.784C133.076,-448.886 212.559,-519.869 296,-546 342.655,-560.611 357.452,-551.766 406,-546 628.123,-519.619 705.867,-535.002 890,-408 937.69,-375.107 983.513,-322.699 1002.64,-299.59"/>
<polygon fill="#9a32cd" stroke="#9a32cd" points="100.785,-412.291 91.2293,-407.714 95.8453,-417.251 100.785,-412.291"/>
<text text-anchor="middle" x="481" y="-561.8" font-family="Helvetica,sans-Serif" font-size="14.00"> dof_ldof_array</text>
<text text-anchor="middle" x="481" y="-546.8" font-family="Helvetica,sans-Serif" font-size="14.00">dof_elem_array</text>
</g>
<!-- Node6&#45;&gt;Node4 -->
<g id="edge5" class="edge"><title>Node6&#45;&gt;Node4</title>
<path fill="none" stroke="#9a32cd" stroke-dasharray="5,2" d="M569.55,-247.708C558.902,-247.01 548.238,-246.416 538,-246 492.829,-244.163 441.436,-244.335 404.136,-244.868"/>
<polygon fill="#9a32cd" stroke="#9a32cd" points="569.524,-251.214 579.74,-248.407 570.003,-244.231 569.524,-251.214"/>
<text text-anchor="middle" x="481" y="-249.8" font-family="Helvetica,sans-Serif" font-size="14.00"> NURBSext</text>
</g>
<!-- Node6&#45;&gt;Node2 -->
<g id="edge13" class="edge"><title>Node6&#45;&gt;Node2</title>
<path fill="none" stroke="#9a32cd" stroke-dasharray="5,2" d="M778.491,-266.52C819.715,-270.312 867.071,-274.668 908.314,-278.462"/>
<polygon fill="#9a32cd" stroke="#9a32cd" points="778.704,-263.025 768.426,-265.594 778.063,-269.995 778.704,-263.025"/>
<text text-anchor="middle" x="850" y="-280.8" font-family="Helvetica,sans-Serif" font-size="14.00"> NURBSext</text>
</g>
<!-- Node7 -->
<g id="node7" class="node"><title>Node7</title>
<g id="a_node7"><a xlink:href="classmfem_1_1Table.html" target="_top" xlink:title="mfem::Table">
<polygon fill="white" stroke="red" points="26,-145.5 26,-168.5 132,-168.5 132,-145.5 26,-145.5"/>
<text text-anchor="middle" x="79" y="-153.3" font-family="Helvetica,sans-Serif" font-size="14.00">mfem::Table</text>
</a>
</g>
</g>
<!-- Node7&#45;&gt;Node6 -->
<g id="edge8" class="edge"><title>Node7&#45;&gt;Node6</title>
<path fill="none" stroke="#9a32cd" stroke-dasharray="5,2" d="M142.342,-161.002C208.338,-165.996 315.292,-176.258 406,-195 474.162,-209.083 488.043,-224.955 556,-240 565.018,-241.997 574.481,-243.816 583.954,-245.46"/>
<polygon fill="#9a32cd" stroke="#9a32cd" points="142.341,-157.492 132.11,-160.245 141.825,-164.473 142.341,-157.492"/>
<text text-anchor="middle" x="351" y="-213.8" font-family="Helvetica,sans-Serif" font-size="14.00"> el_dof</text>
<text text-anchor="middle" x="351" y="-198.8" font-family="Helvetica,sans-Serif" font-size="14.00">bel_dof</text>
</g>
<!-- Node7&#45;&gt;Node4 -->
<g id="edge9" class="edge"><title>Node7&#45;&gt;Node4</title>
<path fill="none" stroke="#9a32cd" stroke-dasharray="5,2" d="M126.296,-171.716C142.005,-176.514 159.703,-181.707 176,-186 220.938,-197.838 234.933,-191.54 278,-209 286.689,-212.523 287.766,-215.516 296,-220 305.229,-225.026 315.582,-230.133 324.734,-234.475"/>
<polygon fill="#9a32cd" stroke="#9a32cd" points="126.882,-168.234 116.294,-168.633 124.82,-174.924 126.882,-168.234"/>
<text text-anchor="middle" x="227" y="-287.8" font-family="Helvetica,sans-Serif" font-size="14.00"> el_to_face</text>
<text text-anchor="middle" x="227" y="-272.8" font-family="Helvetica,sans-Serif" font-size="14.00">el_to_edge</text>
<text text-anchor="middle" x="227" y="-257.8" font-family="Helvetica,sans-Serif" font-size="14.00">edge_vertex</text>
<text text-anchor="middle" x="227" y="-242.8" font-family="Helvetica,sans-Serif" font-size="14.00">face_edge</text>
<text text-anchor="middle" x="227" y="-227.8" font-family="Helvetica,sans-Serif" font-size="14.00">el_to_el</text>
<text text-anchor="middle" x="227" y="-212.8" font-family="Helvetica,sans-Serif" font-size="14.00">bel_to_edge</text>
</g>
<!-- Node7&#45;&gt;Node2 -->
<g id="edge14" class="edge"><title>Node7&#45;&gt;Node2</title>
<path fill="none" stroke="#9a32cd" stroke-dasharray="5,2" d="M142.259,-157.817C181.258,-158.36 232.564,-159.132 278,-160 551.298,-165.224 631.278,-132.784 890,-221 930.254,-234.725 972.823,-261.246 995.497,-276.482"/>
<polygon fill="#9a32cd" stroke="#9a32cd" points="142.16,-154.315 132.112,-157.677 142.063,-161.315 142.16,-154.315"/>
<text text-anchor="middle" x="481" y="-178.8" font-family="Helvetica,sans-Serif" font-size="14.00"> bdrElem_dof</text>
<text text-anchor="middle" x="481" y="-163.8" font-family="Helvetica,sans-Serif" font-size="14.00">elem_dof</text>
</g>
<!-- Node7&#45;&gt;Node1 -->
<g id="edge17" class="edge"><title>Node7&#45;&gt;Node1</title>
<path fill="none" stroke="#9a32cd" stroke-dasharray="5,2" d="M108.835,-140.532C157.107,-114.558 258.05,-67 350,-67 350,-67 350,-67 1014,-67 1121,-67 1242.95,-67 1329.75,-67"/>
<polygon fill="#9a32cd" stroke="#9a32cd" points="106.995,-137.549 99.9008,-145.418 110.354,-143.69 106.995,-137.549"/>
<text text-anchor="middle" x="674" y="-100.8" font-family="Helvetica,sans-Serif" font-size="14.00"> face_nbr_ldof</text>
<text text-anchor="middle" x="674" y="-85.8" font-family="Helvetica,sans-Serif" font-size="14.00">send_face_nbr_ldof</text>
<text text-anchor="middle" x="674" y="-70.8" font-family="Helvetica,sans-Serif" font-size="14.00">face_nbr_element_dof</text>
</g>
<!-- Node8 -->
<g id="node8" class="node"><title>Node8</title>
<g id="a_node8"><a xlink:href="classmfem_1_1SparseMatrix.html" target="_top" xlink:title="Data type sparse matrix. ">
<polygon fill="white" stroke="red" points="593,-387.5 593,-410.5 755,-410.5 755,-387.5 593,-387.5"/>
<text text-anchor="middle" x="674" y="-395.3" font-family="Helvetica,sans-Serif" font-size="14.00">mfem::SparseMatrix</text>
</a>
</g>
</g>
<!-- Node8&#45;&gt;Node2 -->
<g id="edge10" class="edge"><title>Node8&#45;&gt;Node2</title>
<path fill="none" stroke="#9a32cd" stroke-dasharray="5,2" d="M753.705,-385.571C766.53,-383.182 779.654,-380.617 792,-378 835.868,-368.701 848.16,-370.134 890,-354 928.871,-339.011 970.92,-314.14 994.101,-299.588"/>
<polygon fill="#9a32cd" stroke="#9a32cd" points="752.706,-382.195 743.503,-387.446 753.971,-389.08 752.706,-382.195"/>
<text text-anchor="middle" x="850" y="-392.8" font-family="Helvetica,sans-Serif" font-size="14.00"> cR</text>
<text text-anchor="middle" x="850" y="-377.8" font-family="Helvetica,sans-Serif" font-size="14.00">cP</text>
</g>
<!-- Node8&#45;&gt;Node8 -->
<g id="edge11" class="edge"><title>Node8&#45;&gt;Node8</title>
<path fill="none" stroke="#9a32cd" stroke-dasharray="5,2" d="M641.55,-420.101C644.025,-425.208 654.841,-429 674,-429 703.906,-429 713.486,-419.76 702.738,-410.701"/>
<polygon fill="#9a32cd" stroke="#9a32cd" points="644.845,-421.288 645.262,-410.701 638.334,-418.717 644.845,-421.288"/>
<text text-anchor="middle" x="674" y="-432.8" font-family="Helvetica,sans-Serif" font-size="14.00"> At</text>
</g>
<!-- Node9 -->
<g id="node9" class="node"><title>Node9</title>
<g id="a_node9"><a xlink:href="classmfem_1_1FiniteElementCollection.html" target="_top" xlink:title="mfem::FiniteElementCollection">
<polygon fill="white" stroke="black" points="556,-345.5 556,-368.5 792,-368.5 792,-345.5 556,-345.5"/>
<text text-anchor="middle" x="674" y="-353.3" font-family="Helvetica,sans-Serif" font-size="14.00">mfem::FiniteElementCollection</text>
</a>
</g>
</g>
<!-- Node9&#45;&gt;Node2 -->
<g id="edge15" class="edge"><title>Node9&#45;&gt;Node2</title>
<path fill="none" stroke="#9a32cd" stroke-dasharray="5,2" d="M757.896,-343.819C797.943,-337.077 846.614,-328.333 890,-319 916.706,-313.255 946.419,-305.73 969.835,-299.532"/>
<polygon fill="#9a32cd" stroke="#9a32cd" points="757.195,-340.388 747.909,-345.489 758.349,-347.292 757.195,-340.388"/>
<text text-anchor="middle" x="850" y="-338.8" font-family="Helvetica,sans-Serif" font-size="14.00"> fec</text>
</g>
<!-- Node10 -->
<g id="node10" class="node"><title>Node10</title>
<g id="a_node10"><a xlink:href="classmfem_1_1Array.html" target="_top" xlink:title="mfem::Array\&lt; HYPRE\l_Int \&gt;">
<polygon fill="white" stroke="red" points="928,-0 928,-38 1098,-38 1098,-0 928,-0"/>
<text text-anchor="start" x="936" y="-22.8" font-family="Helvetica,sans-Serif" font-size="14.00">mfem::Array&lt; HYPRE</text>
<text text-anchor="middle" x="1013" y="-7.8" font-family="Helvetica,sans-Serif" font-size="14.00">_Int &gt;</text>
</a>
</g>
</g>
<!-- Node10&#45;&gt;Node1 -->
<g id="edge16" class="edge"><title>Node10&#45;&gt;Node1</title>
<path fill="none" stroke="#9a32cd" stroke-dasharray="5,2" d="M1108.17,-21.3671C1166.99,-23.7441 1244.18,-28.499 1312,-38 1341.61,-42.1474 1374.43,-49.2771 1400.06,-55.429"/>
<polygon fill="#9a32cd" stroke="#9a32cd" points="1108.28,-17.8688 1098.16,-20.978 1108.01,-24.8635 1108.28,-17.8688"/>
<text text-anchor="middle" x="1224" y="-41.8" font-family="Helvetica,sans-Serif" font-size="14.00"> face_nbr_glob_dof_map</text>
</g>
</g>
</svg>
