<?xml version="1.0" encoding="UTF-8" standalone="no"?>
<!DOCTYPE svg PUBLIC "-//W3C//DTD SVG 1.1//EN"
 "http://www.w3.org/Graphics/SVG/1.1/DTD/svg11.dtd">
<!-- Generated by graphviz version 2.30.1 (20170916.1124)
 -->
<!-- Title: mfem::NonlinearForm Pages: 1 -->
<svg width="992pt" height="411pt"
 viewBox="0.00 0.00 992.00 411.48" xmlns="http://www.w3.org/2000/svg" xmlns:xlink="http://www.w3.org/1999/xlink">
<g id="graph0" class="graph" transform="scale(1 1) rotate(0) translate(4 407.483)">
<title>mfem::NonlinearForm</title>
<polygon fill="white" stroke="white" points="-4,5 -4,-407.483 989,-407.483 989,5 -4,5"/>
<!-- Node1 -->
<g id="node1" class="node"><title>Node1</title>
<polygon fill="#bfbfbf" stroke="black" points="834.5,-218.5 834.5,-241.5 983.5,-241.5 983.5,-218.5 834.5,-218.5"/>
<text text-anchor="middle" x="909" y="-226.3" font-family="Helvetica,sans-Serif" font-size="14.00">mfem::NonlinearForm</text>
</g>
<!-- Node2 -->
<g id="node2" class="node"><title>Node2</title>
<g id="a_node2"><a xlink:href="classmfem_1_1Operator.html" target="_top" xlink:title="Abstract operator. ">
<polygon fill="white" stroke="black" points="568.5,-376.5 568.5,-399.5 681.5,-399.5 681.5,-376.5 568.5,-376.5"/>
<text text-anchor="middle" x="625" y="-384.3" font-family="Helvetica,sans-Serif" font-size="14.00">mfem::Operator</text>
</a>
</g>
</g>
<!-- Node2&#45;&gt;Node1 -->
<g id="edge1" class="edge"><title>Node2&#45;&gt;Node1</title>
<path fill="none" stroke="midnightblue" d="M688.432,-400.866C727.648,-405.597 777.845,-405.246 816,-383 871.158,-350.84 897.118,-271.367 905.155,-241.549"/>
<polygon fill="midnightblue" stroke="midnightblue" points="688.833,-397.388 678.456,-399.526 687.901,-404.326 688.833,-397.388"/>
</g>
<!-- Node2&#45;&gt;Node1 -->
<g id="edge12" class="edge"><title>Node2&#45;&gt;Node1</title>
<path fill="none" stroke="#9a32cd" stroke-dasharray="5,2" d="M688.761,-374.306C743.017,-362.389 813.2,-346.753 816,-345 858.477,-318.41 889.84,-265.125 902.208,-241.608"/>
<polygon fill="#9a32cd" stroke="#9a32cd" points="687.853,-370.922 678.835,-376.483 689.353,-377.759 687.853,-370.922"/>
<text text-anchor="middle" x="776" y="-366.8" font-family="Helvetica,sans-Serif" font-size="14.00"> P</text>
</g>
<!-- Node3 -->
<g id="node3" class="node"><title>Node3</title>
<g id="a_node3"><a xlink:href="classmfem_1_1SparseMatrix.html" target="_top" xlink:title="Data type sparse matrix. ">
<polygon fill="white" stroke="red" points="258,-192.5 258,-215.5 398,-215.5 398,-192.5 258,-192.5"/>
<text text-anchor="middle" x="328" y="-200.3" font-family="Helvetica,sans-Serif" font-size="14.00">mfem::SparseMatrix</text>
</a>
</g>
</g>
<!-- Node3&#45;&gt;Node1 -->
<g id="edge2" class="edge"><title>Node3&#45;&gt;Node1</title>
<path fill="none" stroke="#9a32cd" stroke-dasharray="5,2" d="M408.593,-203.919C487.264,-204.243 611.026,-205.841 718,-212 756.372,-214.209 798.98,-218.112 834.107,-221.72"/>
<polygon fill="#9a32cd" stroke="#9a32cd" points="408.287,-200.418 398.275,-203.882 408.262,-207.418 408.287,-200.418"/>
<text text-anchor="middle" x="625" y="-245.8" font-family="Helvetica,sans-Serif" font-size="14.00"> cGrad</text>
<text text-anchor="middle" x="625" y="-230.8" font-family="Helvetica,sans-Serif" font-size="14.00">Grad</text>
<text text-anchor="middle" x="625" y="-215.8" font-family="Helvetica,sans-Serif" font-size="14.00">cP</text>
</g>
<!-- Node3&#45;&gt;Node3 -->
<g id="edge5" class="edge"><title>Node3&#45;&gt;Node3</title>
<path fill="none" stroke="#9a32cd" stroke-dasharray="5,2" d="M309.074,-225.839C310.923,-230.569 317.231,-234 328,-234 345.672,-234 351.332,-224.76 344.982,-215.701"/>
<polygon fill="#9a32cd" stroke="#9a32cd" points="312.572,-226.182 311.018,-215.701 305.698,-224.863 312.572,-226.182"/>
<text text-anchor="middle" x="328" y="-237.8" font-family="Helvetica,sans-Serif" font-size="14.00"> At</text>
</g>
<!-- Node8 -->
<g id="node8" class="node"><title>Node8</title>
<g id="a_node8"><a xlink:href="classmfem_1_1FiniteElementSpace.html" target="_top" xlink:title="Class FiniteElementSpace &#45; responsible for providing FEM view of the mesh, mainly managing the set of...">
<polygon fill="white" stroke="red" points="534.5,-266.5 534.5,-289.5 715.5,-289.5 715.5,-266.5 534.5,-266.5"/>
<text text-anchor="middle" x="625" y="-274.3" font-family="Helvetica,sans-Serif" font-size="14.00">mfem::FiniteElementSpace</text>
</a>
</g>
</g>
<!-- Node3&#45;&gt;Node8 -->
<g id="edge9" class="edge"><title>Node3&#45;&gt;Node8</title>
<path fill="none" stroke="#9a32cd" stroke-dasharray="5,2" d="M391.641,-217.802C427.554,-225.904 473.423,-236.573 514,-247 517.531,-247.907 553.277,-257.994 583.077,-266.419"/>
<polygon fill="#9a32cd" stroke="#9a32cd" points="392.312,-214.365 381.788,-215.587 390.777,-221.195 392.312,-214.365"/>
<text text-anchor="middle" x="465" y="-265.8" font-family="Helvetica,sans-Serif" font-size="14.00"> cR</text>
<text text-anchor="middle" x="465" y="-250.8" font-family="Helvetica,sans-Serif" font-size="14.00">cP</text>
</g>
<!-- Node4 -->
<g id="node4" class="node"><title>Node4</title>
<g id="a_node4"><a xlink:href="classmfem_1_1AbstractSparseMatrix.html" target="_top" xlink:title="Abstract data type for sparse matrices. ">
<polygon fill="white" stroke="red" points="0.5,-193.5 0.5,-216.5 189.5,-216.5 189.5,-193.5 0.5,-193.5"/>
<text text-anchor="middle" x="95" y="-201.3" font-family="Helvetica,sans-Serif" font-size="14.00">mfem::AbstractSparseMatrix</text>
</a>
</g>
</g>
<!-- Node4&#45;&gt;Node3 -->
<g id="edge3" class="edge"><title>Node4&#45;&gt;Node3</title>
<path fill="none" stroke="midnightblue" d="M199.825,-204.551C219.436,-204.466 239.5,-204.379 257.725,-204.3"/>
<polygon fill="midnightblue" stroke="midnightblue" points="199.608,-201.051 189.624,-204.595 199.639,-208.051 199.608,-201.051"/>
</g>
<!-- Node5 -->
<g id="node5" class="node"><title>Node5</title>
<g id="a_node5"><a xlink:href="classmfem_1_1Memory.html" target="_top" xlink:title="mfem::Memory\&lt; double \&gt;">
<polygon fill="white" stroke="black" points="8,-138.5 8,-161.5 182,-161.5 182,-138.5 8,-138.5"/>
<text text-anchor="middle" x="95" y="-146.3" font-family="Helvetica,sans-Serif" font-size="14.00">mfem::Memory&lt; double &gt;</text>
</a>
</g>
</g>
<!-- Node5&#45;&gt;Node3 -->
<g id="edge4" class="edge"><title>Node5&#45;&gt;Node3</title>
<path fill="none" stroke="#9a32cd" stroke-dasharray="5,2" d="M155.183,-163.835C193.178,-172.717 241.94,-184.116 277.804,-192.5"/>
<polygon fill="#9a32cd" stroke="#9a32cd" points="155.806,-160.386 145.272,-161.518 154.213,-167.203 155.806,-160.386"/>
<text text-anchor="middle" x="224" y="-187.8" font-family="Helvetica,sans-Serif" font-size="14.00"> A</text>
</g>
<!-- Node10 -->
<g id="node10" class="node"><title>Node10</title>
<g id="a_node10"><a xlink:href="classmfem_1_1Vector.html" target="_top" xlink:title="Vector data type. ">
<polygon fill="white" stroke="black" points="416,-125.5 416,-148.5 514,-148.5 514,-125.5 416,-125.5"/>
<text text-anchor="middle" x="465" y="-133.3" font-family="Helvetica,sans-Serif" font-size="14.00">mfem::Vector</text>
</a>
</g>
</g>
<!-- Node5&#45;&gt;Node10 -->
<g id="edge14" class="edge"><title>Node5&#45;&gt;Node10</title>
<path fill="none" stroke="#9a32cd" stroke-dasharray="5,2" d="M192.709,-146.584C264.585,-144.045 359.592,-140.688 415.998,-138.696"/>
<polygon fill="#9a32cd" stroke="#9a32cd" points="192.15,-143.101 182.28,-146.952 192.397,-150.097 192.15,-143.101"/>
<text text-anchor="middle" x="224" y="-149.8" font-family="Helvetica,sans-Serif" font-size="14.00"> data</text>
</g>
<!-- Node6 -->
<g id="node6" class="node"><title>Node6</title>
<g id="a_node6"><a xlink:href="classmfem_1_1Array.html" target="_top" xlink:title="mfem::Array\&lt; int \&gt;">
<polygon fill="white" stroke="red" points="263,-299.5 263,-322.5 393,-322.5 393,-299.5 263,-299.5"/>
<text text-anchor="middle" x="328" y="-307.3" font-family="Helvetica,sans-Serif" font-size="14.00">mfem::Array&lt; int &gt;</text>
</a>
</g>
</g>
<!-- Node6&#45;&gt;Node1 -->
<g id="edge6" class="edge"><title>Node6&#45;&gt;Node1</title>
<path fill="none" stroke="#9a32cd" stroke-dasharray="5,2" d="M403.207,-319.194C407.532,-319.511 411.82,-319.784 416,-320 594.518,-329.209 647.838,-338.621 816,-278 842.608,-268.408 871.182,-252.528 889.303,-241.68"/>
<polygon fill="#9a32cd" stroke="#9a32cd" points="403.33,-315.693 393.083,-318.385 402.772,-322.671 403.33,-315.693"/>
<text text-anchor="middle" x="625" y="-329.8" font-family="Helvetica,sans-Serif" font-size="14.00"> ess_tdof_list</text>
</g>
<!-- Node6&#45;&gt;Node8 -->
<g id="edge10" class="edge"><title>Node6&#45;&gt;Node8</title>
<path fill="none" stroke="#9a32cd" stroke-dasharray="5,2" d="M380.318,-297.001C391.972,-294.273 404.35,-291.728 416,-290 454.553,-284.282 497.5,-281.252 534.313,-279.659"/>
<polygon fill="#9a32cd" stroke="#9a32cd" points="379.194,-293.672 370.3,-299.429 380.843,-300.475 379.194,-293.672"/>
<text text-anchor="middle" x="465" y="-308.8" font-family="Helvetica,sans-Serif" font-size="14.00"> dof_ldof_array</text>
<text text-anchor="middle" x="465" y="-293.8" font-family="Helvetica,sans-Serif" font-size="14.00">dof_elem_array</text>
</g>
<!-- Node7 -->
<g id="node7" class="node"><title>Node7</title>
<g id="a_node7"><a xlink:href="classmfem_1_1Array.html" target="_top" xlink:title="mfem::Array\&lt; mfem::\lArray\&lt; int \&gt; * \&gt;">
<polygon fill="white" stroke="red" points="552,-62 552,-100 698,-100 698,-62 552,-62"/>
<text text-anchor="start" x="560" y="-84.8" font-family="Helvetica,sans-Serif" font-size="14.00">mfem::Array&lt; mfem::</text>
<text text-anchor="middle" x="625" y="-69.8" font-family="Helvetica,sans-Serif" font-size="14.00">Array&lt; int &gt; * &gt;</text>
</a>
</g>
</g>
<!-- Node7&#45;&gt;Node1 -->
<g id="edge7" class="edge"><title>Node7&#45;&gt;Node1</title>
<path fill="none" stroke="#9a32cd" stroke-dasharray="5,2" d="M708.689,-79.0565C743.839,-81.5724 784.004,-89.1275 816,-108 861.241,-134.685 891.535,-193.073 902.939,-218.16"/>
<polygon fill="#9a32cd" stroke="#9a32cd" points="708.628,-75.547 698.439,-78.4528 708.216,-82.5348 708.628,-75.547"/>
<text text-anchor="middle" x="776" y="-111.8" font-family="Helvetica,sans-Serif" font-size="14.00"> bfnfi_marker</text>
</g>
<!-- Node8&#45;&gt;Node1 -->
<g id="edge8" class="edge"><title>Node8&#45;&gt;Node1</title>
<path fill="none" stroke="#9a32cd" stroke-dasharray="5,2" d="M703.984,-264.726C746.719,-257.452 799.176,-248.523 840.196,-241.541"/>
<polygon fill="#9a32cd" stroke="#9a32cd" points="703.176,-261.313 693.905,-266.442 704.35,-268.214 703.176,-261.313"/>
<text text-anchor="middle" x="776" y="-262.8" font-family="Helvetica,sans-Serif" font-size="14.00"> fes</text>
</g>
<!-- Node9 -->
<g id="node9" class="node"><title>Node9</title>
<g id="a_node9"><a xlink:href="classmfem_1_1Array.html" target="_top" xlink:title="mfem::Array\&lt; mfem::\lNonlinearFormIntegrator * \&gt;">
<polygon fill="white" stroke="red" points="532.5,-0 532.5,-38 717.5,-38 717.5,-0 532.5,-0"/>
<text text-anchor="start" x="540.5" y="-22.8" font-family="Helvetica,sans-Serif" font-size="14.00">mfem::Array&lt; mfem::</text>
<text text-anchor="middle" x="625" y="-7.8" font-family="Helvetica,sans-Serif" font-size="14.00">NonlinearFormIntegrator * &gt;</text>
</a>
</g>
</g>
<!-- Node9&#45;&gt;Node1 -->
<g id="edge11" class="edge"><title>Node9&#45;&gt;Node1</title>
<path fill="none" stroke="#9a32cd" stroke-dasharray="5,2" d="M728.23,-8.20218C758.71,-9.72247 790.699,-16.4908 816,-34 881.375,-79.2417 901.523,-183.51 906.553,-218.393"/>
<polygon fill="#9a32cd" stroke="#9a32cd" points="728.067,-4.69546 717.962,-7.87986 727.848,-11.692 728.067,-4.69546"/>
<text text-anchor="middle" x="776" y="-67.8" font-family="Helvetica,sans-Serif" font-size="14.00"> bfnfi</text>
<text text-anchor="middle" x="776" y="-52.8" font-family="Helvetica,sans-Serif" font-size="14.00">fnfi</text>
<text text-anchor="middle" x="776" y="-37.8" font-family="Helvetica,sans-Serif" font-size="14.00">dnfi</text>
</g>
<!-- Node10&#45;&gt;Node1 -->
<g id="edge13" class="edge"><title>Node10&#45;&gt;Node1</title>
<path fill="none" stroke="#9a32cd" stroke-dasharray="5,2" d="M524.718,-135.093C576.239,-134.64 652.887,-136.938 718,-151 763.663,-160.862 772.874,-171.042 816,-189 838.761,-198.478 864.359,-209.953 882.763,-218.35"/>
<polygon fill="#9a32cd" stroke="#9a32cd" points="524.394,-131.597 514.44,-135.223 524.483,-138.596 524.394,-131.597"/>
<text text-anchor="middle" x="625" y="-169.8" font-family="Helvetica,sans-Serif" font-size="14.00"> aux1</text>
<text text-anchor="middle" x="625" y="-154.8" font-family="Helvetica,sans-Serif" font-size="14.00">aux2</text>
</g>
</g>
</svg>
