<?xml version="1.0" encoding="UTF-8" standalone="no"?>
<!DOCTYPE svg PUBLIC "-//W3C//DTD SVG 1.1//EN"
 "http://www.w3.org/Graphics/SVG/1.1/DTD/svg11.dtd">
<!-- Generated by graphviz version 2.30.1 (20200304.1809)
 -->
<!-- Title: mfem::L2_FiniteElement_base&lt; G, P, L2_FE_type, L2Pos_FE_type, DOFS, TP &gt; Pages: 1 -->
<svg width="503pt" height="582pt"
 viewBox="0.00 0.00 503.00 582.00" xmlns="http://www.w3.org/2000/svg" xmlns:xlink="http://www.w3.org/1999/xlink">
<g id="graph0" class="graph" transform="scale(1 1) rotate(0) translate(4 578)">
<title>mfem::L2_FiniteElement_base&lt; G, P, L2_FE_type, L2Pos_FE_type, DOFS, TP &gt;</title>
<polygon fill="white" stroke="white" points="-4,5 -4,-578 500,-578 500,5 -4,5"/>
<!-- Node1 -->
<g id="node1" class="node"><title>Node1</title>
<polygon fill="#bfbfbf" stroke="black" points="277,-184.5 277,-237.5 495,-237.5 495,-184.5 277,-184.5"/>
<text text-anchor="start" x="285" y="-222.3" font-family="Helvetica,sans-Serif" font-size="14.00">mfem::L2_FiniteElement</text>
<text text-anchor="start" x="285" y="-207.3" font-family="Helvetica,sans-Serif" font-size="14.00">_base&lt; G, P, L2_FE_type,</text>
<text text-anchor="middle" x="386" y="-192.3" font-family="Helvetica,sans-Serif" font-size="14.00"> L2Pos_FE_type, DOFS, TP &gt;</text>
</g>
<!-- Node2 -->
<g id="node2" class="node"><title>Node2</title>
<g id="a_node2"><a xlink:href="classmfem_1_1FiniteElement.html" target="_top" xlink:title="Abstract class for Finite Elements. ">
<polygon fill="white" stroke="black" points="184,-304.5 184,-327.5 350,-327.5 350,-304.5 184,-304.5"/>
<text text-anchor="middle" x="267" y="-312.3" font-family="Helvetica,sans-Serif" font-size="14.00">mfem::FiniteElement</text>
</a>
</g>
</g>
<!-- Node2&#45;&gt;Node1 -->
<g id="edge1" class="edge"><title>Node2&#45;&gt;Node1</title>
<path fill="none" stroke="#9a32cd" stroke-dasharray="5,2" d="M287.02,-297.672C306.01,-281.235 334.777,-256.336 356.412,-237.61"/>
<polygon fill="#9a32cd" stroke="#9a32cd" points="284.557,-295.174 279.287,-304.365 289.139,-300.467 284.557,-295.174"/>
<text text-anchor="middle" x="370.5" y="-274.8" font-family="Helvetica,sans-Serif" font-size="14.00"> my_fe_1d</text>
<text text-anchor="middle" x="370.5" y="-259.8" font-family="Helvetica,sans-Serif" font-size="14.00">my_fe</text>
</g>
<!-- Node8 -->
<g id="node8" class="node"><title>Node8</title>
<g id="a_node8"><a xlink:href="classmfem_1_1DofToQuad.html" target="_top" xlink:title="Structure representing the matrices/tensors needed to evaluate (in reference space) the values...">
<polygon fill="white" stroke="red" points="54,-199.5 54,-222.5 202,-222.5 202,-199.5 54,-199.5"/>
<text text-anchor="middle" x="128" y="-207.3" font-family="Helvetica,sans-Serif" font-size="14.00">mfem::DofToQuad</text>
</a>
</g>
</g>
<!-- Node2&#45;&gt;Node8 -->
<g id="edge9" class="edge"><title>Node2&#45;&gt;Node8</title>
<path fill="none" stroke="#9a32cd" stroke-dasharray="5,2" d="M235.752,-299.748C228.111,-295.607 220.096,-290.902 213,-286 184.185,-266.092 154.109,-237.845 138.623,-222.654"/>
<polygon fill="#9a32cd" stroke="#9a32cd" points="234.319,-302.949 244.801,-304.495 237.571,-296.75 234.319,-302.949"/>
<text text-anchor="middle" x="224" y="-267.3" font-family="Helvetica,sans-Serif" font-size="14.00"> FE</text>
</g>
<!-- Node3 -->
<g id="node3" class="node"><title>Node3</title>
<g id="a_node3"><a xlink:href="classmfem_1_1IntegrationRule.html" target="_top" xlink:title="Class for an integration rule &#45; an Array of IntegrationPoint. ">
<polygon fill="white" stroke="black" points="22,-380.5 22,-403.5 200,-403.5 200,-380.5 22,-380.5"/>
<text text-anchor="middle" x="111" y="-388.3" font-family="Helvetica,sans-Serif" font-size="14.00">mfem::IntegrationRule</text>
</a>
</g>
</g>
<!-- Node3&#45;&gt;Node2 -->
<g id="edge2" class="edge"><title>Node3&#45;&gt;Node2</title>
<path fill="none" stroke="#9a32cd" stroke-dasharray="5,2" d="M142.638,-375.992C172.959,-361.609 217.95,-340.267 244.69,-327.583"/>
<polygon fill="#9a32cd" stroke="#9a32cd" points="140.886,-372.949 133.351,-380.398 143.886,-379.274 140.886,-372.949"/>
<text text-anchor="middle" x="228" y="-350.3" font-family="Helvetica,sans-Serif" font-size="14.00"> Nodes</text>
</g>
<!-- Node3&#45;&gt;Node8 -->
<g id="edge8" class="edge"><title>Node3&#45;&gt;Node8</title>
<path fill="none" stroke="#9a32cd" stroke-dasharray="5,2" d="M112.96,-370.366C116.582,-332.228 124.207,-251.941 126.971,-222.832"/>
<polygon fill="#9a32cd" stroke="#9a32cd" points="109.474,-370.053 112.013,-380.339 116.442,-370.715 109.474,-370.053"/>
<text text-anchor="middle" x="147.5" y="-312.3" font-family="Helvetica,sans-Serif" font-size="14.00"> IntRule</text>
</g>
<!-- Node4 -->
<g id="node4" class="node"><title>Node4</title>
<g id="a_node4"><a xlink:href="classmfem_1_1Array.html" target="_top" xlink:title="mfem::Array\&lt; Integration\lPoint \&gt;">
<polygon fill="white" stroke="black" points="9.5,-443 9.5,-481 212.5,-481 212.5,-443 9.5,-443"/>
<text text-anchor="start" x="17.5" y="-465.8" font-family="Helvetica,sans-Serif" font-size="14.00">mfem::Array&lt; Integration</text>
<text text-anchor="middle" x="111" y="-450.8" font-family="Helvetica,sans-Serif" font-size="14.00">Point &gt;</text>
</a>
</g>
</g>
<!-- Node4&#45;&gt;Node3 -->
<g id="edge3" class="edge"><title>Node4&#45;&gt;Node3</title>
<path fill="none" stroke="midnightblue" d="M111,-432.599C111,-422.442 111,-411.6 111,-403.834"/>
<polygon fill="midnightblue" stroke="midnightblue" points="107.5,-432.777 111,-442.777 114.5,-432.777 107.5,-432.777"/>
</g>
<!-- Node5 -->
<g id="node5" class="node"><title>Node5</title>
<g id="a_node5"><a xlink:href="classmfem_1_1Memory.html" target="_top" xlink:title="mfem::Memory\&lt; Integration\lPoint \&gt;">
<polygon fill="white" stroke="red" points="0,-535 0,-573 222,-573 222,-535 0,-535"/>
<text text-anchor="start" x="8" y="-557.8" font-family="Helvetica,sans-Serif" font-size="14.00">mfem::Memory&lt; Integration</text>
<text text-anchor="middle" x="111" y="-542.8" font-family="Helvetica,sans-Serif" font-size="14.00">Point &gt;</text>
</a>
</g>
</g>
<!-- Node5&#45;&gt;Node4 -->
<g id="edge4" class="edge"><title>Node5&#45;&gt;Node4</title>
<path fill="none" stroke="#9a32cd" stroke-dasharray="5,2" d="M111,-524.548C111,-510.36 111,-493.622 111,-481.186"/>
<polygon fill="#9a32cd" stroke="#9a32cd" points="107.5,-524.787 111,-534.787 114.5,-524.787 107.5,-524.787"/>
<text text-anchor="middle" x="129.5" y="-504.3" font-family="Helvetica,sans-Serif" font-size="14.00"> data</text>
</g>
<!-- Node6 -->
<g id="node6" class="node"><title>Node6</title>
<g id="a_node6"><a xlink:href="classmfem_1_1Array.html" target="_top" xlink:title="mfem::Array\&lt; mfem::\lDofToQuad * \&gt;">
<polygon fill="white" stroke="black" points="118,-1 118,-39 294,-39 294,-1 118,-1"/>
<text text-anchor="start" x="126" y="-23.8" font-family="Helvetica,sans-Serif" font-size="14.00">mfem::Array&lt; mfem::</text>
<text text-anchor="middle" x="206" y="-8.8" font-family="Helvetica,sans-Serif" font-size="14.00">DofToQuad * &gt;</text>
</a>
</g>
</g>
<!-- Node6&#45;&gt;Node2 -->
<g id="edge5" class="edge"><title>Node6&#45;&gt;Node2</title>
<path fill="none" stroke="#9a32cd" stroke-dasharray="5,2" d="M216.587,-48.8781C221.209,-61.8434 226.386,-77.5582 230,-92 250.101,-172.329 262.202,-271.733 265.835,-304.197"/>
<polygon fill="#9a32cd" stroke="#9a32cd" points="219.753,-47.3435 213.04,-39.1465 213.176,-49.7405 219.753,-47.3435"/>
<text text-anchor="middle" x="305.5" y="-154.3" font-family="Helvetica,sans-Serif" font-size="14.00"> dof2quad_array</text>
</g>
<!-- Node7 -->
<g id="node7" class="node"><title>Node7</title>
<g id="a_node7"><a xlink:href="classmfem_1_1Memory.html" target="_top" xlink:title="mfem::Memory\&lt; mfem\l::DofToQuad * \&gt;">
<polygon fill="white" stroke="black" points="35,-93 35,-131 221,-131 221,-93 35,-93"/>
<text text-anchor="start" x="43" y="-115.8" font-family="Helvetica,sans-Serif" font-size="14.00">mfem::Memory&lt; mfem</text>
<text text-anchor="middle" x="128" y="-100.8" font-family="Helvetica,sans-Serif" font-size="14.00">::DofToQuad * &gt;</text>
</a>
</g>
</g>
<!-- Node7&#45;&gt;Node6 -->
<g id="edge6" class="edge"><title>Node7&#45;&gt;Node6</title>
<path fill="none" stroke="#9a32cd" stroke-dasharray="5,2" d="M150.513,-85.0239C163.235,-70.3442 178.827,-52.354 190.239,-39.1858"/>
<polygon fill="#9a32cd" stroke="#9a32cd" points="147.689,-82.938 143.784,-92.7872 152.979,-87.5225 147.689,-82.938"/>
<text text-anchor="middle" x="190.5" y="-62.3" font-family="Helvetica,sans-Serif" font-size="14.00"> data</text>
</g>
<!-- Node8&#45;&gt;Node7 -->
<g id="edge7" class="edge"><title>Node8&#45;&gt;Node7</title>
<path fill="none" stroke="#9a32cd" stroke-dasharray="5,2" d="M128,-189.05C128,-171.763 128,-147.489 128,-131.051"/>
<polygon fill="#9a32cd" stroke="#9a32cd" points="124.5,-189.249 128,-199.249 131.5,-189.249 124.5,-189.249"/>
<text text-anchor="middle" x="149" y="-154.3" font-family="Helvetica,sans-Serif" font-size="14.00"> h_ptr</text>
</g>
<!-- Node9 -->
<g id="node9" class="node"><title>Node9</title>
<g id="a_node9"><a xlink:href="classmfem_1_1DenseMatrix.html" target="_top" xlink:title="Data type dense matrix using column&#45;major storage. ">
<polygon fill="white" stroke="black" points="218,-380.5 218,-403.5 376,-403.5 376,-380.5 218,-380.5"/>
<text text-anchor="middle" x="297" y="-388.3" font-family="Helvetica,sans-Serif" font-size="14.00">mfem::DenseMatrix</text>
</a>
</g>
</g>
<!-- Node9&#45;&gt;Node2 -->
<g id="edge10" class="edge"><title>Node9&#45;&gt;Node2</title>
<path fill="none" stroke="#9a32cd" stroke-dasharray="5,2" d="M288.931,-371.098C283.253,-357.091 275.876,-338.895 271.29,-327.583"/>
<polygon fill="#9a32cd" stroke="#9a32cd" points="285.701,-372.445 292.702,-380.398 292.188,-369.815 285.701,-372.445"/>
<text text-anchor="middle" x="312.5" y="-350.3" font-family="Helvetica,sans-Serif" font-size="14.00"> vshape</text>
</g>
<!-- Node10 -->
<g id="node10" class="node"><title>Node10</title>
<g id="a_node10"><a xlink:href="classmfem_1_1Matrix.html" target="_top" xlink:title="Abstract data type matrix. ">
<polygon fill="white" stroke="red" points="240.5,-450.5 240.5,-473.5 353.5,-473.5 353.5,-450.5 240.5,-450.5"/>
<text text-anchor="middle" x="297" y="-458.3" font-family="Helvetica,sans-Serif" font-size="14.00">mfem::Matrix</text>
</a>
</g>
</g>
<!-- Node10&#45;&gt;Node9 -->
<g id="edge11" class="edge"><title>Node10&#45;&gt;Node9</title>
<path fill="none" stroke="midnightblue" d="M297,-440.272C297,-428.228 297,-413.549 297,-403.775"/>
<polygon fill="midnightblue" stroke="midnightblue" points="293.5,-440.375 297,-450.375 300.5,-440.375 293.5,-440.375"/>
</g>
</g>
</svg>
