<?xml version="1.0" encoding="UTF-8" standalone="no"?>
<!DOCTYPE svg PUBLIC "-//W3C//DTD SVG 1.1//EN"
 "http://www.w3.org/Graphics/SVG/1.1/DTD/svg11.dtd">
<!-- Generated by graphviz version 2.30.1 (20170916.1124)
 -->
<!-- Title: mfem::IntegrationRule Pages: 1 -->
<svg width="192pt" height="278pt"
 viewBox="0.00 0.00 192.00 278.00" xmlns="http://www.w3.org/2000/svg" xmlns:xlink="http://www.w3.org/1999/xlink">
<g id="graph0" class="graph" transform="scale(1 1) rotate(0) translate(4 274)">
<title>mfem::IntegrationRule</title>
<polygon fill="white" stroke="white" points="-4,5 -4,-274 189,-274 189,5 -4,5"/>
<!-- Node1 -->
<g id="node1" class="node"><title>Node1</title>
<polygon fill="#bfbfbf" stroke="black" points="16.5,-0.5 16.5,-23.5 167.5,-23.5 167.5,-0.5 16.5,-0.5"/>
<text text-anchor="middle" x="92" y="-8.3" font-family="Helvetica,sans-Serif" font-size="14.00">mfem::IntegrationRule</text>
</g>
<!-- Node2 -->
<g id="node2" class="node"><title>Node2</title>
<g id="a_node2"><a xlink:href="classmfem_1_1Array.html" target="_top" xlink:title="mfem::Array\&lt; Integration\lPoint \&gt;">
<polygon fill="white" stroke="black" points="8.5,-63 8.5,-101 175.5,-101 175.5,-63 8.5,-63"/>
<text text-anchor="start" x="16.5" y="-85.8" font-family="Helvetica,sans-Serif" font-size="14.00">mfem::Array&lt; Integration</text>
<text text-anchor="middle" x="92" y="-70.8" font-family="Helvetica,sans-Serif" font-size="14.00">Point &gt;</text>
</a>
</g>
</g>
<!-- Node2&#45;&gt;Node1 -->
<g id="edge1" class="edge"><title>Node2&#45;&gt;Node1</title>
<path fill="none" stroke="midnightblue" d="M92,-52.5988C92,-42.4422 92,-31.6002 92,-23.8335"/>
<polygon fill="midnightblue" stroke="midnightblue" points="88.5001,-52.7772 92,-62.7772 95.5001,-52.7773 88.5001,-52.7772"/>
</g>
<!-- Node3 -->
<g id="node3" class="node"><title>Node3</title>
<g id="a_node3"><a xlink:href="classmfem_1_1Memory.html" target="_top" xlink:title="mfem::Memory\&lt; Integration\lPoint \&gt;">
<polygon fill="white" stroke="black" points="-0.5,-155 -0.5,-193 184.5,-193 184.5,-155 -0.5,-155"/>
<text text-anchor="start" x="7.5" y="-177.8" font-family="Helvetica,sans-Serif" font-size="14.00">mfem::Memory&lt; Integration</text>
<text text-anchor="middle" x="92" y="-162.8" font-family="Helvetica,sans-Serif" font-size="14.00">Point &gt;</text>
</a>
</g>
</g>
<!-- Node3&#45;&gt;Node2 -->
<g id="edge2" class="edge"><title>Node3&#45;&gt;Node2</title>
<path fill="none" stroke="#9a32cd" stroke-dasharray="5,2" d="M92,-144.548C92,-130.36 92,-113.622 92,-101.186"/>
<polygon fill="#9a32cd" stroke="#9a32cd" points="88.5001,-144.787 92,-154.787 95.5001,-144.787 88.5001,-144.787"/>
<text text-anchor="middle" x="107.5" y="-124.3" font-family="Helvetica,sans-Serif" font-size="14.00"> data</text>
</g>
<!-- Node4 -->
<g id="node4" class="node"><title>Node4</title>
<g id="a_node4"><a xlink:href="classmfem_1_1IntegrationPoint.html" target="_top" xlink:title="Class for integration point with weight. ">
<polygon fill="white" stroke="black" points="15,-246.5 15,-269.5 169,-269.5 169,-246.5 15,-246.5"/>
<text text-anchor="middle" x="92" y="-254.3" font-family="Helvetica,sans-Serif" font-size="14.00">mfem::IntegrationPoint</text>
</a>
</g>
</g>
<!-- Node4&#45;&gt;Node3 -->
<g id="edge3" class="edge"><title>Node4&#45;&gt;Node3</title>
<path fill="none" stroke="#9a32cd" stroke-dasharray="5,2" d="M92,-236.213C92,-222.967 92,-205.968 92,-193.246"/>
<polygon fill="#9a32cd" stroke="#9a32cd" points="88.5001,-236.28 92,-246.28 95.5001,-236.28 88.5001,-236.28"/>
<text text-anchor="middle" x="109.5" y="-216.3" font-family="Helvetica,sans-Serif" font-size="14.00"> h_ptr</text>
</g>
</g>
</svg>
