<?xml version="1.0" encoding="UTF-8" standalone="no"?>
<!DOCTYPE svg PUBLIC "-//W3C//DTD SVG 1.1//EN"
 "http://www.w3.org/Graphics/SVG/1.1/DTD/svg11.dtd">
<!-- Generated by graphviz version 2.30.1 (20170916.1124)
 -->
<!-- Title: mfem::DG_Interface_FECollection Pages: 1 -->
<svg width="210pt" height="168pt"
 viewBox="0.00 0.00 210.00 168.00" xmlns="http://www.w3.org/2000/svg" xmlns:xlink="http://www.w3.org/1999/xlink">
<g id="graph0" class="graph" transform="scale(1 1) rotate(0) translate(4 164)">
<title>mfem::DG_Interface_FECollection</title>
<polygon fill="white" stroke="white" points="-4,5 -4,-164 207,-164 207,5 -4,5"/>
<!-- Node1 -->
<g id="node1" class="node"><title>Node1</title>
<polygon fill="#bfbfbf" stroke="black" points="31,-1 31,-39 171,-39 171,-1 31,-1"/>
<text text-anchor="start" x="39" y="-23.8" font-family="Helvetica,sans-Serif" font-size="14.00">mfem::DG_Interface</text>
<text text-anchor="middle" x="101" y="-8.8" font-family="Helvetica,sans-Serif" font-size="14.00">_FECollection</text>
</g>
<!-- Node2 -->
<g id="node2" class="node"><title>Node2</title>
<g id="a_node2"><a xlink:href="classmfem_1_1RT__FECollection.html" target="_top" xlink:title="Arbitrary order H(div)&#45;conforming Raviart&#45;Thomas finite elements. ">
<polygon fill="white" stroke="black" points="20.5,-76.5 20.5,-99.5 181.5,-99.5 181.5,-76.5 20.5,-76.5"/>
<text text-anchor="middle" x="101" y="-84.3" font-family="Helvetica,sans-Serif" font-size="14.00">mfem::RT_FECollection</text>
</a>
</g>
</g>
<!-- Node2&#45;&gt;Node1 -->
<g id="edge1" class="edge"><title>Node2&#45;&gt;Node1</title>
<path fill="none" stroke="midnightblue" d="M101,-66.2742C101,-57.5413 101,-47.471 101,-39.0484"/>
<polygon fill="midnightblue" stroke="midnightblue" points="97.5001,-66.3959 101,-76.396 104.5,-66.396 97.5001,-66.3959"/>
</g>
<!-- Node3 -->
<g id="node3" class="node"><title>Node3</title>
<g id="a_node3"><a xlink:href="classmfem_1_1FiniteElementCollection.html" target="_top" xlink:title="mfem::FiniteElementCollection">
<polygon fill="white" stroke="black" points="0,-136.5 0,-159.5 202,-159.5 202,-136.5 0,-136.5"/>
<text text-anchor="middle" x="101" y="-144.3" font-family="Helvetica,sans-Serif" font-size="14.00">mfem::FiniteElementCollection</text>
</a>
</g>
</g>
<!-- Node3&#45;&gt;Node2 -->
<g id="edge2" class="edge"><title>Node3&#45;&gt;Node2</title>
<path fill="none" stroke="midnightblue" d="M101,-126.191C101,-117.168 101,-106.994 101,-99.5707"/>
<polygon fill="midnightblue" stroke="midnightblue" points="97.5001,-126.362 101,-136.362 104.5,-126.362 97.5001,-126.362"/>
</g>
</g>
</svg>
