<?xml version="1.0" encoding="UTF-8" standalone="no"?>
<!DOCTYPE svg PUBLIC "-//W3C//DTD SVG 1.1//EN"
 "http://www.w3.org/Graphics/SVG/1.1/DTD/svg11.dtd">
<!-- Generated by graphviz version 2.30.1 (20170916.1124)
 -->
<!-- Title: mfem::ParFiniteElementSpace Pages: 1 -->
<!--zoomable 580 -->
<svg id="main" version="1.1" xmlns="http://www.w3.org/2000/svg" xmlns:xlink="http://www.w3.org/1999/xlink" xml:space="preserve" onload="init(evt)">
<style type="text/css"><![CDATA[
.edge:hover path { stroke: red; }
.edge:hover polygon { stroke: red; fill: red; }
]]></style>
<script type="text/javascript"><![CDATA[
var edges = document.getElementsByTagName('g');
if (edges && edges.length) {
  for (var i=0;i<edges.length;i++) {
    if (edges[i].id.substr(0,4)=='edge') {
      edges[i].setAttribute('class','edge');
    }
  }
}
]]></script>
        <defs>
                <circle id="rim" cx="0" cy="0" r="7"/>
                <circle id="rim2" cx="0" cy="0" r="3.5"/>
                <g id="zoomPlus">
                        <use xlink:href="#rim" fill="#404040">
                                <set attributeName="fill" to="#808080" begin="zoomplus.mouseover" end="zoomplus.mouseout"/>
                        </use>
                        <path d="M-4,0h8M0,-4v8" fill="none" stroke="white" stroke-width="1.5" pointer-events="none"/>
                </g>
                <g id="zoomMin">
                        <use xlink:href="#rim" fill="#404040">
                                <set attributeName="fill" to="#808080" begin="zoomminus.mouseover" end="zoomminus.mouseout"/>
                        </use>
                        <path d="M-4,0h8" fill="none" stroke="white" stroke-width="1.5" pointer-events="none"/>
                </g>
                <g id="dirArrow">
                        <path fill="none" stroke="white" stroke-width="1.5" d="M0,-3.0v7 M-2.5,-0.5L0,-3.0L2.5,-0.5"/>
                </g>
               <g id="resetDef">
                       <use xlink:href="#rim2" fill="#404040">
                               <set attributeName="fill" to="#808080" begin="reset.mouseover" end="reset.mouseout"/>
                       </use>
               </g>
        </defs>

<script type="text/javascript">
var viewWidth = 1366;
var viewHeight = 580;
var sectionId = 'dynsection-1';
</script>
<script xlink:href="svgpan.js"/>
<svg id="graph" class="graph">
<g id="viewport">
<title>mfem::ParFiniteElementSpace</title>
<polygon fill="white" stroke="white" points="-4,5 -4,-576 1363,-576 1363,5 -4,5"/>
<!-- Node1 -->
<g id="node1" class="node"><title>Node1</title>
<polygon fill="#bfbfbf" stroke="black" points="1156,-55.5 1156,-78.5 1358,-78.5 1358,-55.5 1156,-55.5"/>
<text text-anchor="middle" x="1257" y="-63.3" font-family="Helvetica,sans-Serif" font-size="14.00">mfem::ParFiniteElementSpace</text>
</g>
<!-- Node2 -->
<g id="node2" class="node"><title>Node2</title>
<g id="a_node2"><a xlink:href="classmfem_1_1FiniteElementSpace.html" target="_top" xlink:title="Class FiniteElementSpace &#45; responsible for providing FEM view of the mesh, mainly managing the set of...">
<polygon fill="white" stroke="red" points="786.5,-276.5 786.5,-299.5 967.5,-299.5 967.5,-276.5 786.5,-276.5"/>
<text text-anchor="middle" x="877" y="-284.3" font-family="Helvetica,sans-Serif" font-size="14.00">mfem::FiniteElementSpace</text>
</a>
</g>
</g>
<!-- Node2&#45;&gt;Node1 -->
<g id="edge1" class="edge"><title>Node2&#45;&gt;Node1</title>
<path fill="none" stroke="midnightblue" d="M906.508,-271.333C979.737,-228.519 1173.09,-115.472 1235.95,-78.7228"/>
<polygon fill="midnightblue" stroke="midnightblue" points="904.657,-268.36 897.791,-276.429 908.19,-274.403 904.657,-268.36"/>
</g>
<!-- Node3 -->
<g id="node3" class="node"><title>Node3</title>
<g id="a_node3"><a xlink:href="classmfem_1_1Array.html" target="_top" xlink:title="mfem::Array\&lt; mfem::\lQuadratureInterpolator * \&gt;">
<polygon fill="white" stroke="red" points="491.5,-288 491.5,-326 666.5,-326 666.5,-288 491.5,-288"/>
<text text-anchor="start" x="499.5" y="-310.8" font-family="Helvetica,sans-Serif" font-size="14.00">mfem::Array&lt; mfem::</text>
<text text-anchor="middle" x="579" y="-295.8" font-family="Helvetica,sans-Serif" font-size="14.00">QuadratureInterpolator * &gt;</text>
</a>
</g>
</g>
<!-- Node3&#45;&gt;Node2 -->
<g id="edge2" class="edge"><title>Node3&#45;&gt;Node2</title>
<path fill="none" stroke="#9a32cd" stroke-dasharray="5,2" d="M677.094,-300.768C712.284,-298.509 751.847,-295.969 786.365,-293.754"/>
<polygon fill="#9a32cd" stroke="#9a32cd" points="676.565,-297.294 666.81,-301.428 677.013,-304.28 676.565,-297.294"/>
<text text-anchor="middle" x="733" y="-303.8" font-family="Helvetica,sans-Serif" font-size="14.00"> E2Q_array</text>
</g>
<!-- Node4 -->
<g id="node4" class="node"><title>Node4</title>
<g id="a_node4"><a xlink:href="classmfem_1_1Mesh.html" target="_top" xlink:title="mfem::Mesh">
<polygon fill="white" stroke="red" points="251.5,-234.5 251.5,-257.5 344.5,-257.5 344.5,-234.5 251.5,-234.5"/>
<text text-anchor="middle" x="298" y="-242.3" font-family="Helvetica,sans-Serif" font-size="14.00">mfem::Mesh</text>
</a>
</g>
</g>
<!-- Node4&#45;&gt;Node2 -->
<g id="edge3" class="edge"><title>Node4&#45;&gt;Node2</title>
<path fill="none" stroke="#9a32cd" stroke-dasharray="5,2" d="M354.899,-234.368C429.515,-220.651 565.554,-201.979 680,-221 743.677,-231.583 814.419,-260.265 851.012,-276.462"/>
<polygon fill="#9a32cd" stroke="#9a32cd" points="353.97,-230.981 344.787,-236.266 355.261,-237.861 353.97,-230.981"/>
<text text-anchor="middle" x="579" y="-224.8" font-family="Helvetica,sans-Serif" font-size="14.00"> mesh</text>
</g>
<!-- Node6 -->
<g id="node6" class="node"><title>Node6</title>
<g id="a_node6"><a xlink:href="classmfem_1_1NURBSExtension.html" target="_top" xlink:title="mfem::NURBSExtension">
<polygon fill="white" stroke="red" points="496,-245.5 496,-268.5 662,-268.5 662,-245.5 496,-245.5"/>
<text text-anchor="middle" x="579" y="-253.3" font-family="Helvetica,sans-Serif" font-size="14.00">mfem::NURBSExtension</text>
</a>
</g>
</g>
<!-- Node4&#45;&gt;Node6 -->
<g id="edge6" class="edge"><title>Node4&#45;&gt;Node6</title>
<path fill="none" stroke="#9a32cd" stroke-dasharray="5,2" d="M352.794,-259.4C356.57,-260.036 360.332,-260.582 364,-261 407.382,-265.941 456.023,-265.503 495.957,-263.584"/>
<polygon fill="#9a32cd" stroke="#9a32cd" points="353.294,-255.933 342.821,-257.532 352.005,-262.813 353.294,-255.933"/>
<text text-anchor="middle" x="412" y="-268.8" font-family="Helvetica,sans-Serif" font-size="14.00"> patchTopo</text>
</g>
<!-- Node5 -->
<g id="node5" class="node"><title>Node5</title>
<g id="a_node5"><a xlink:href="classmfem_1_1Array.html" target="_top" xlink:title="mfem::Array\&lt; int \&gt;">
<polygon fill="white" stroke="red" points="0,-384.5 0,-407.5 130,-407.5 130,-384.5 0,-384.5"/>
<text text-anchor="middle" x="65" y="-392.3" font-family="Helvetica,sans-Serif" font-size="14.00">mfem::Array&lt; int &gt;</text>
</a>
</g>
</g>
<!-- Node5&#45;&gt;Node4 -->
<g id="edge4" class="edge"><title>Node5&#45;&gt;Node4</title>
<path fill="none" stroke="#9a32cd" stroke-dasharray="5,2" d="M82.3932,-376.814C97.7368,-360.022 122.123,-336.16 148,-322 181.956,-303.419 197.589,-316.725 232,-299 252.97,-288.198 273.429,-269.844 285.626,-257.821"/>
<polygon fill="#9a32cd" stroke="#9a32cd" points="79.6595,-374.621 75.6203,-384.415 84.8859,-379.277 79.6595,-374.621"/>
<text text-anchor="middle" x="190" y="-370.8" font-family="Helvetica,sans-Serif" font-size="14.00"> attributes</text>
<text text-anchor="middle" x="190" y="-355.8" font-family="Helvetica,sans-Serif" font-size="14.00">be_to_edge</text>
<text text-anchor="middle" x="190" y="-340.8" font-family="Helvetica,sans-Serif" font-size="14.00">be_to_face</text>
<text text-anchor="middle" x="190" y="-325.8" font-family="Helvetica,sans-Serif" font-size="14.00">bdr_attributes</text>
</g>
<!-- Node5&#45;&gt;Node6 -->
<g id="edge7" class="edge"><title>Node5&#45;&gt;Node6</title>
<path fill="none" stroke="#9a32cd" stroke-dasharray="5,2" d="M140.269,-394.737C169.226,-392.95 202.487,-389.287 232,-382 289.621,-367.774 421.361,-295.737 478,-278 489.512,-274.395 501.964,-271.223 514.044,-268.509"/>
<polygon fill="#9a32cd" stroke="#9a32cd" points="140.011,-391.246 130.22,-395.293 140.398,-398.235 140.011,-391.246"/>
<text text-anchor="middle" x="298" y="-529.8" font-family="Helvetica,sans-Serif" font-size="14.00"> slave</text>
<text text-anchor="middle" x="298" y="-514.8" font-family="Helvetica,sans-Serif" font-size="14.00">master</text>
<text text-anchor="middle" x="298" y="-499.8" font-family="Helvetica,sans-Serif" font-size="14.00">v_spaceOffsets</text>
<text text-anchor="middle" x="298" y="-484.8" font-family="Helvetica,sans-Serif" font-size="14.00">p_meshOffsets</text>
<text text-anchor="middle" x="298" y="-469.8" font-family="Helvetica,sans-Serif" font-size="14.00">edge_to_knot</text>
<text text-anchor="middle" x="298" y="-454.8" font-family="Helvetica,sans-Serif" font-size="14.00">f_spaceOffsets</text>
<text text-anchor="middle" x="298" y="-439.8" font-family="Helvetica,sans-Serif" font-size="14.00">e_meshOffsets</text>
<text text-anchor="middle" x="298" y="-424.8" font-family="Helvetica,sans-Serif" font-size="14.00">el_to_patch</text>
<text text-anchor="middle" x="298" y="-409.8" font-family="Helvetica,sans-Serif" font-size="14.00">p_spaceOffsets</text>
<text text-anchor="middle" x="298" y="-394.8" font-family="Helvetica,sans-Serif" font-size="14.00">bel_to_patch</text>
<text text-anchor="middle" x="298" y="-379.8" font-family="Helvetica,sans-Serif" font-size="14.00">...</text>
</g>
<!-- Node5&#45;&gt;Node2 -->
<g id="edge12" class="edge"><title>Node5&#45;&gt;Node2</title>
<path fill="none" stroke="#9a32cd" stroke-dasharray="5,2" d="M81.7469,-415.456C110.75,-449.551 176.417,-518.943 250,-545 290.219,-559.242 303.718,-550.717 346,-545 541.55,-518.56 611.838,-527.633 768,-407 810.833,-373.912 850.77,-322.634 867.601,-299.736"/>
<polygon fill="#9a32cd" stroke="#9a32cd" points="84.2781,-413.027 75.1808,-407.597 78.9061,-417.515 84.2781,-413.027"/>
<text text-anchor="middle" x="412" y="-560.8" font-family="Helvetica,sans-Serif" font-size="14.00"> dof_ldof_array</text>
<text text-anchor="middle" x="412" y="-545.8" font-family="Helvetica,sans-Serif" font-size="14.00">dof_elem_array</text>
</g>
<!-- Node6&#45;&gt;Node4 -->
<g id="edge5" class="edge"><title>Node6&#45;&gt;Node4</title>
<path fill="none" stroke="#9a32cd" stroke-dasharray="5,2" d="M485.691,-247.567C477.014,-246.93 468.346,-246.388 460,-246 421.19,-244.195 377.06,-244.35 344.829,-244.869"/>
<polygon fill="#9a32cd" stroke="#9a32cd" points="485.622,-251.072 495.863,-248.355 486.163,-244.093 485.622,-251.072"/>
<text text-anchor="middle" x="412" y="-249.8" font-family="Helvetica,sans-Serif" font-size="14.00"> NURBSext</text>
</g>
<!-- Node6&#45;&gt;Node2 -->
<g id="edge13" class="edge"><title>Node6&#45;&gt;Node2</title>
<path fill="none" stroke="#9a32cd" stroke-dasharray="5,2" d="M672.164,-266.652C708.515,-270.459 750.133,-274.818 786.245,-278.6"/>
<polygon fill="#9a32cd" stroke="#9a32cd" points="672.37,-263.155 662.059,-265.594 671.64,-270.117 672.37,-263.155"/>
<text text-anchor="middle" x="733" y="-280.8" font-family="Helvetica,sans-Serif" font-size="14.00"> NURBSext</text>
</g>
<!-- Node7 -->
<g id="node7" class="node"><title>Node7</title>
<g id="a_node7"><a xlink:href="classmfem_1_1Table.html" target="_top" xlink:title="mfem::Table">
<polygon fill="white" stroke="red" points="18.5,-145.5 18.5,-168.5 111.5,-168.5 111.5,-145.5 18.5,-145.5"/>
<text text-anchor="middle" x="65" y="-153.3" font-family="Helvetica,sans-Serif" font-size="14.00">mfem::Table</text>
</a>
</g>
</g>
<!-- Node7&#45;&gt;Node6 -->
<g id="edge8" class="edge"><title>Node7&#45;&gt;Node6</title>
<path fill="none" stroke="#9a32cd" stroke-dasharray="5,2" d="M121.822,-161.369C178.755,-166.571 269.364,-176.917 346,-195 406.325,-209.234 417.921,-224.757 478,-240 485.852,-241.992 494.111,-243.817 502.377,-245.471"/>
<polygon fill="#9a32cd" stroke="#9a32cd" points="121.866,-157.859 111.594,-160.457 121.244,-164.832 121.866,-157.859"/>
<text text-anchor="middle" x="298" y="-213.8" font-family="Helvetica,sans-Serif" font-size="14.00"> el_dof</text>
<text text-anchor="middle" x="298" y="-198.8" font-family="Helvetica,sans-Serif" font-size="14.00">bel_dof</text>
</g>
<!-- Node7&#45;&gt;Node4 -->
<g id="edge9" class="edge"><title>Node7&#45;&gt;Node4</title>
<path fill="none" stroke="#9a32cd" stroke-dasharray="5,2" d="M106.666,-172.039C119.792,-176.716 134.45,-181.755 148,-186 184.937,-197.572 196.468,-193.645 232,-209 240.606,-212.719 241.896,-215.285 250,-220 258.221,-224.783 267.353,-229.882 275.364,-234.286"/>
<polygon fill="#9a32cd" stroke="#9a32cd" points="107.566,-168.643 96.972,-168.552 105.197,-175.23 107.566,-168.643"/>
<text text-anchor="middle" x="190" y="-287.8" font-family="Helvetica,sans-Serif" font-size="14.00"> el_to_face</text>
<text text-anchor="middle" x="190" y="-272.8" font-family="Helvetica,sans-Serif" font-size="14.00">el_to_edge</text>
<text text-anchor="middle" x="190" y="-257.8" font-family="Helvetica,sans-Serif" font-size="14.00">edge_vertex</text>
<text text-anchor="middle" x="190" y="-242.8" font-family="Helvetica,sans-Serif" font-size="14.00">face_edge</text>
<text text-anchor="middle" x="190" y="-227.8" font-family="Helvetica,sans-Serif" font-size="14.00">el_to_el</text>
<text text-anchor="middle" x="190" y="-212.8" font-family="Helvetica,sans-Serif" font-size="14.00">bel_to_edge</text>
</g>
<!-- Node7&#45;&gt;Node2 -->
<g id="edge14" class="edge"><title>Node7&#45;&gt;Node2</title>
<path fill="none" stroke="#9a32cd" stroke-dasharray="5,2" d="M122.069,-152.074C244.14,-143.465 541.203,-134.079 768,-221 804.056,-234.819 841.285,-261.054 861.235,-276.272"/>
<polygon fill="#9a32cd" stroke="#9a32cd" points="121.566,-148.601 111.848,-152.822 122.077,-155.583 121.566,-148.601"/>
<text text-anchor="middle" x="412" y="-173.8" font-family="Helvetica,sans-Serif" font-size="14.00"> bdrElem_dof</text>
<text text-anchor="middle" x="412" y="-158.8" font-family="Helvetica,sans-Serif" font-size="14.00">elem_dof</text>
</g>
<!-- Node7&#45;&gt;Node1 -->
<g id="edge17" class="edge"><title>Node7&#45;&gt;Node1</title>
<path fill="none" stroke="#9a32cd" stroke-dasharray="5,2" d="M91.3808,-139.878C132.618,-113.769 217.572,-67 297,-67 297,-67 297,-67 878,-67 972.172,-67 1079.54,-67 1155.72,-67"/>
<polygon fill="#9a32cd" stroke="#9a32cd" points="89.3003,-137.055 82.7958,-145.418 93.0959,-142.937 89.3003,-137.055"/>
<text text-anchor="middle" x="579" y="-100.8" font-family="Helvetica,sans-Serif" font-size="14.00"> face_nbr_ldof</text>
<text text-anchor="middle" x="579" y="-85.8" font-family="Helvetica,sans-Serif" font-size="14.00">send_face_nbr_ldof</text>
<text text-anchor="middle" x="579" y="-70.8" font-family="Helvetica,sans-Serif" font-size="14.00">face_nbr_element_dof</text>
</g>
<!-- Node8 -->
<g id="node8" class="node"><title>Node8</title>
<g id="a_node8"><a xlink:href="classmfem_1_1SparseMatrix.html" target="_top" xlink:title="Data type sparse matrix. ">
<polygon fill="white" stroke="red" points="509,-387.5 509,-410.5 649,-410.5 649,-387.5 509,-387.5"/>
<text text-anchor="middle" x="579" y="-395.3" font-family="Helvetica,sans-Serif" font-size="14.00">mfem::SparseMatrix</text>
</a>
</g>
</g>
<!-- Node8&#45;&gt;Node2 -->
<g id="edge10" class="edge"><title>Node8&#45;&gt;Node2</title>
<path fill="none" stroke="#9a32cd" stroke-dasharray="5,2" d="M647.639,-385.364C658.485,-383.014 669.569,-380.515 680,-378 719.41,-368.497 730.778,-370.063 768,-354 802.904,-338.938 839.954,-314.092 860.31,-299.565"/>
<polygon fill="#9a32cd" stroke="#9a32cd" points="646.816,-381.961 637.77,-387.477 648.281,-388.806 646.816,-381.961"/>
<text text-anchor="middle" x="733" y="-391.8" font-family="Helvetica,sans-Serif" font-size="14.00"> cR</text>
<text text-anchor="middle" x="733" y="-376.8" font-family="Helvetica,sans-Serif" font-size="14.00">cP</text>
</g>
<!-- Node8&#45;&gt;Node8 -->
<g id="edge11" class="edge"><title>Node8&#45;&gt;Node8</title>
<path fill="none" stroke="#9a32cd" stroke-dasharray="5,2" d="M550.778,-420.472C553.238,-425.391 562.645,-429 579,-429 605.168,-429 613.55,-419.76 604.146,-410.701"/>
<polygon fill="#9a32cd" stroke="#9a32cd" points="554.19,-421.291 553.854,-410.701 547.513,-419.189 554.19,-421.291"/>
<text text-anchor="middle" x="579" y="-432.8" font-family="Helvetica,sans-Serif" font-size="14.00"> At</text>
</g>
<!-- Node9 -->
<g id="node9" class="node"><title>Node9</title>
<g id="a_node9"><a xlink:href="classmfem_1_1FiniteElementCollection.html" target="_top" xlink:title="mfem::FiniteElementCollection">
<polygon fill="white" stroke="black" points="478,-345.5 478,-368.5 680,-368.5 680,-345.5 478,-345.5"/>
<text text-anchor="middle" x="579" y="-353.3" font-family="Helvetica,sans-Serif" font-size="14.00">mfem::FiniteElementCollection</text>
</a>
</g>
</g>
<!-- Node9&#45;&gt;Node2 -->
<g id="edge15" class="edge"><title>Node9&#45;&gt;Node2</title>
<path fill="none" stroke="#9a32cd" stroke-dasharray="5,2" d="M653.882,-343.485C688.655,-336.762 730.608,-328.13 768,-319 791.688,-313.216 817.992,-305.69 838.71,-299.501"/>
<polygon fill="#9a32cd" stroke="#9a32cd" points="652.967,-340.097 643.806,-345.419 654.287,-346.971 652.967,-340.097"/>
<text text-anchor="middle" x="733" y="-338.8" font-family="Helvetica,sans-Serif" font-size="14.00"> fec</text>
</g>
<!-- Node10 -->
<g id="node10" class="node"><title>Node10</title>
<g id="a_node10"><a xlink:href="classmfem_1_1Array.html" target="_top" xlink:title="mfem::Array\&lt; HYPRE\l_Int \&gt;">
<polygon fill="white" stroke="red" points="802,-0 802,-38 952,-38 952,-0 802,-0"/>
<text text-anchor="start" x="810" y="-22.8" font-family="Helvetica,sans-Serif" font-size="14.00">mfem::Array&lt; HYPRE</text>
<text text-anchor="middle" x="877" y="-7.8" font-family="Helvetica,sans-Serif" font-size="14.00">_Int &gt;</text>
</a>
</g>
</g>
<!-- Node10&#45;&gt;Node1 -->
<g id="edge16" class="edge"><title>Node10&#45;&gt;Node1</title>
<path fill="none" stroke="#9a32cd" stroke-dasharray="5,2" d="M962.076,-21.5622C1013.19,-24.0066 1079.64,-28.7637 1138,-38 1164.36,-42.1717 1193.48,-49.3016 1216.2,-55.4476"/>
<polygon fill="#9a32cd" stroke="#9a32cd" points="962.215,-18.065 952.065,-21.1035 961.894,-25.0576 962.215,-18.065"/>
<text text-anchor="middle" x="1062" y="-41.8" font-family="Helvetica,sans-Serif" font-size="14.00"> face_nbr_glob_dof_map</text>
</g>
</g>
</svg>
        <g id="navigator" transform="translate(0 0)" fill="#404254">
                <rect fill="#f2f5e9" fill-opacity="0.5" stroke="#606060" stroke-width=".5" x="0" y="0" width="60" height="60"/>
                <use id="zoomplus" xlink:href="#zoomPlus" x="17" y="9" onmousedown="handleZoom(evt,'in')"/>
                <use id="zoomminus" xlink:href="#zoomMin" x="42" y="9" onmousedown="handleZoom(evt,'out')"/>
                <use id="reset" xlink:href="#resetDef" x="30" y="36" onmousedown="handleReset()"/>
                <g id="arrowUp" xlink:href="#dirArrow" transform="translate(30 24)" onmousedown="handlePan(0,-1)">
                  <use xlink:href="#rim" fill="#404040">
                        <set attributeName="fill" to="#808080" begin="arrowUp.mouseover" end="arrowUp.mouseout"/>
                  </use>
                  <path fill="none" stroke="white" stroke-width="1.5" d="M0,-3.0v7 M-2.5,-0.5L0,-3.0L2.5,-0.5"/>
                </g>
                <g id="arrowRight" xlink:href="#dirArrow" transform="rotate(90) translate(36 -43)" onmousedown="handlePan(1,0)">
                  <use xlink:href="#rim" fill="#404040">
                        <set attributeName="fill" to="#808080" begin="arrowRight.mouseover" end="arrowRight.mouseout"/>
                  </use>
                  <path fill="none" stroke="white" stroke-width="1.5" d="M0,-3.0v7 M-2.5,-0.5L0,-3.0L2.5,-0.5"/>
                </g>
                <g id="arrowDown" xlink:href="#dirArrow" transform="rotate(180) translate(-30 -48)" onmousedown="handlePan(0,1)">
                  <use xlink:href="#rim" fill="#404040">
                        <set attributeName="fill" to="#808080" begin="arrowDown.mouseover" end="arrowDown.mouseout"/>
                  </use>
                  <path fill="none" stroke="white" stroke-width="1.5" d="M0,-3.0v7 M-2.5,-0.5L0,-3.0L2.5,-0.5"/>
                </g>
                <g id="arrowLeft" xlink:href="#dirArrow" transform="rotate(270) translate(-36 17)" onmousedown="handlePan(-1,0)">
                  <use xlink:href="#rim" fill="#404040">
                        <set attributeName="fill" to="#808080" begin="arrowLeft.mouseover" end="arrowLeft.mouseout"/>
                  </use>
                  <path fill="none" stroke="white" stroke-width="1.5" d="M0,-3.0v7 M-2.5,-0.5L0,-3.0L2.5,-0.5"/>
                </g>
        </g>
        <svg viewBox="0 0 15 15" width="100%" height="30px" preserveAspectRatio="xMaxYMin meet">
         <g id="arrow_out" transform="scale(0.3 0.3)">
          <a xlink:href="classmfem_1_1ParFiniteElementSpace__coll__graph_org.svg" target="_base">
           <rect id="button" ry="5" rx="5" y="6" x="6" height="38" width="38"
                fill="#f2f5e9" fill-opacity="0.5" stroke="#606060" stroke-width="1.0"/>
           <path id="arrow"
             d="M 11.500037,31.436501 C 11.940474,20.09759 22.043105,11.32322 32.158766,21.979434 L 37.068811,17.246167 C 37.068811,17.246167 37.088388,32 37.088388,32 L 22.160133,31.978069 C 22.160133,31.978069 26.997745,27.140456 26.997745,27.140456 C 18.528582,18.264221 13.291696,25.230495 11.500037,31.436501 z"
             style="fill:#404040;"/>
          </a>
         </g>
        </svg>
</svg>
