<?xml version="1.0" encoding="UTF-8" standalone="no"?>
<!DOCTYPE svg PUBLIC "-//W3C//DTD SVG 1.1//EN"
 "http://www.w3.org/Graphics/SVG/1.1/DTD/svg11.dtd">
<!-- Generated by graphviz version 2.30.1 (20200304.1809)
 -->
<!-- Title: mfem::miniapps::ParDiscreteInterpolationOperator Pages: 1 -->
<svg width="1792pt" height="271pt"
 viewBox="0.00 0.00 1792.00 271.00" xmlns="http://www.w3.org/2000/svg" xmlns:xlink="http://www.w3.org/1999/xlink">
<g id="graph0" class="graph" transform="scale(1 1) rotate(0) translate(4 267)">
<title>mfem::miniapps::ParDiscreteInterpolationOperator</title>
<polygon fill="white" stroke="white" points="-4,5 -4,-267 1789,-267 1789,5 -4,5"/>
<!-- Node1 -->
<g id="node1" class="node"><title>Node1</title>
<polygon fill="#bfbfbf" stroke="black" points="1560,-104 1560,-142 1784,-142 1784,-104 1560,-104"/>
<text text-anchor="start" x="1568" y="-126.8" font-family="Helvetica,sans-Serif" font-size="14.00">mfem::miniapps::ParDiscrete</text>
<text text-anchor="middle" x="1672" y="-111.8" font-family="Helvetica,sans-Serif" font-size="14.00">InterpolationOperator</text>
</g>
<!-- Node2 -->
<g id="node2" class="node"><title>Node2</title>
<g id="a_node2"><a xlink:href="classmfem_1_1ParDiscreteLinearOperator.html" target="_top" xlink:title="mfem::ParDiscreteLinearOperator">
<polygon fill="white" stroke="black" points="1262,-111.5 1262,-134.5 1522,-134.5 1522,-111.5 1262,-111.5"/>
<text text-anchor="middle" x="1392" y="-119.3" font-family="Helvetica,sans-Serif" font-size="14.00">mfem::ParDiscreteLinearOperator</text>
</a>
</g>
</g>
<!-- Node2&#45;&gt;Node1 -->
<g id="edge1" class="edge"><title>Node2&#45;&gt;Node1</title>
<path fill="none" stroke="midnightblue" d="M1532.3,-123C1541.59,-123 1550.88,-123 1560,-123"/>
<polygon fill="midnightblue" stroke="midnightblue" points="1532.23,-119.5 1522.23,-123 1532.23,-126.5 1532.23,-119.5"/>
</g>
<!-- Node3 -->
<g id="node3" class="node"><title>Node3</title>
<g id="a_node3"><a xlink:href="classmfem_1_1DiscreteLinearOperator.html" target="_top" xlink:title="mfem::DiscreteLinearOperator">
<polygon fill="white" stroke="black" points="986.5,-155.5 986.5,-178.5 1223.5,-178.5 1223.5,-155.5 986.5,-155.5"/>
<text text-anchor="middle" x="1105" y="-163.3" font-family="Helvetica,sans-Serif" font-size="14.00">mfem::DiscreteLinearOperator</text>
</a>
</g>
</g>
<!-- Node3&#45;&gt;Node2 -->
<g id="edge2" class="edge"><title>Node3&#45;&gt;Node2</title>
<path fill="none" stroke="midnightblue" d="M1190.5,-153.954C1230.48,-147.782 1277.8,-140.476 1316.43,-134.512"/>
<polygon fill="midnightblue" stroke="midnightblue" points="1189.86,-150.512 1180.51,-155.497 1190.93,-157.43 1189.86,-150.512"/>
</g>
<!-- Node4 -->
<g id="node4" class="node"><title>Node4</title>
<g id="a_node4"><a xlink:href="classmfem_1_1MixedBilinearForm.html" target="_top" xlink:title="mfem::MixedBilinearForm">
<polygon fill="white" stroke="red" points="732,-169.5 732,-192.5 932,-192.5 932,-169.5 732,-169.5"/>
<text text-anchor="middle" x="832" y="-177.3" font-family="Helvetica,sans-Serif" font-size="14.00">mfem::MixedBilinearForm</text>
</a>
</g>
</g>
<!-- Node4&#45;&gt;Node3 -->
<g id="edge3" class="edge"><title>Node4&#45;&gt;Node3</title>
<path fill="none" stroke="midnightblue" d="M942.729,-175.331C957.063,-174.591 971.797,-173.83 986.256,-173.083"/>
<polygon fill="midnightblue" stroke="midnightblue" points="942.178,-171.855 932.372,-175.866 942.539,-178.846 942.178,-171.855"/>
</g>
<!-- Node5 -->
<g id="node5" class="node"><title>Node5</title>
<g id="a_node5"><a xlink:href="classmfem_1_1Matrix.html" target="_top" xlink:title="Abstract data type matrix. ">
<polygon fill="white" stroke="red" points="342.5,-239.5 342.5,-262.5 455.5,-262.5 455.5,-239.5 342.5,-239.5"/>
<text text-anchor="middle" x="399" y="-247.3" font-family="Helvetica,sans-Serif" font-size="14.00">mfem::Matrix</text>
</a>
</g>
</g>
<!-- Node5&#45;&gt;Node4 -->
<g id="edge4" class="edge"><title>Node5&#45;&gt;Node4</title>
<path fill="none" stroke="midnightblue" d="M465.857,-247.59C526.582,-243.635 619,-235.558 698,-220 732.587,-213.189 771.144,-201.401 797.801,-192.563"/>
<polygon fill="midnightblue" stroke="midnightblue" points="465.404,-244.112 455.645,-248.236 465.846,-251.098 465.404,-244.112"/>
</g>
<!-- Node6 -->
<g id="node6" class="node"><title>Node6</title>
<g id="a_node6"><a xlink:href="classmfem_1_1SparseMatrix.html" target="_top" xlink:title="Data type sparse matrix. ">
<polygon fill="white" stroke="red" points="0,-171.5 0,-194.5 162,-194.5 162,-171.5 0,-171.5"/>
<text text-anchor="middle" x="81" y="-179.3" font-family="Helvetica,sans-Serif" font-size="14.00">mfem::SparseMatrix</text>
</a>
</g>
</g>
<!-- Node6&#45;&gt;Node4 -->
<g id="edge5" class="edge"><title>Node6&#45;&gt;Node4</title>
<path fill="none" stroke="#9a32cd" stroke-dasharray="5,2" d="M172.289,-191.603C174.887,-191.75 177.461,-191.884 180,-192 409.981,-202.538 467.974,-201.496 698,-192 708.996,-191.546 720.49,-190.882 731.919,-190.101"/>
<polygon fill="#9a32cd" stroke="#9a32cd" points="172.382,-188.102 162.181,-190.966 171.942,-195.088 172.382,-188.102"/>
<text text-anchor="middle" x="399" y="-202.8" font-family="Helvetica,sans-Serif" font-size="14.00"> mat</text>
</g>
<!-- Node6&#45;&gt;Node6 -->
<g id="edge6" class="edge"><title>Node6&#45;&gt;Node6</title>
<path fill="none" stroke="#9a32cd" stroke-dasharray="5,2" d="M54.2441,-204.472C56.576,-209.391 65.4946,-213 81,-213 105.809,-213 113.755,-203.76 104.84,-194.701"/>
<polygon fill="#9a32cd" stroke="#9a32cd" points="57.6541,-205.285 57.1605,-194.701 50.9466,-203.283 57.6541,-205.285"/>
<text text-anchor="middle" x="81" y="-216.8" font-family="Helvetica,sans-Serif" font-size="14.00"> At</text>
</g>
<!-- Node7 -->
<g id="node7" class="node"><title>Node7</title>
<g id="a_node7"><a xlink:href="classmfem_1_1FiniteElementSpace.html" target="_top" xlink:title="Class FiniteElementSpace &#45; responsible for providing FEM view of the mesh, mainly managing the set of...">
<polygon fill="white" stroke="red" points="294.5,-142.5 294.5,-165.5 503.5,-165.5 503.5,-142.5 294.5,-142.5"/>
<text text-anchor="middle" x="399" y="-150.3" font-family="Helvetica,sans-Serif" font-size="14.00">mfem::FiniteElementSpace</text>
</a>
</g>
</g>
<!-- Node6&#45;&gt;Node7 -->
<g id="edge8" class="edge"><title>Node6&#45;&gt;Node7</title>
<path fill="none" stroke="#9a32cd" stroke-dasharray="5,2" d="M137.857,-169.273C151.56,-166.393 166.245,-163.713 180,-162 217.113,-157.379 258.031,-155.132 294.297,-154.116"/>
<polygon fill="#9a32cd" stroke="#9a32cd" points="137.11,-165.854 128.079,-171.395 138.594,-172.695 137.11,-165.854"/>
<text text-anchor="middle" x="228" y="-180.8" font-family="Helvetica,sans-Serif" font-size="14.00"> cR</text>
<text text-anchor="middle" x="228" y="-165.8" font-family="Helvetica,sans-Serif" font-size="14.00">cP</text>
</g>
<!-- Node7&#45;&gt;Node4 -->
<g id="edge7" class="edge"><title>Node7&#45;&gt;Node4</title>
<path fill="none" stroke="#9a32cd" stroke-dasharray="5,2" d="M513.835,-153.988C569.452,-154.764 637.314,-156.868 698,-162 718.569,-163.739 740.811,-166.547 761.112,-169.476"/>
<polygon fill="#9a32cd" stroke="#9a32cd" points="513.641,-150.485 503.597,-153.858 513.552,-157.485 513.641,-150.485"/>
<text text-anchor="middle" x="610" y="-180.8" font-family="Helvetica,sans-Serif" font-size="14.00"> trial_fes</text>
<text text-anchor="middle" x="610" y="-165.8" font-family="Helvetica,sans-Serif" font-size="14.00">test_fes</text>
</g>
<!-- Node9 -->
<g id="node9" class="node"><title>Node9</title>
<g id="a_node9"><a xlink:href="classmfem_1_1ParFiniteElementSpace.html" target="_top" xlink:title="Abstract parallel finite element space. ">
<polygon fill="white" stroke="black" points="716,-66.5 716,-89.5 948,-89.5 948,-66.5 716,-66.5"/>
<text text-anchor="middle" x="832" y="-74.3" font-family="Helvetica,sans-Serif" font-size="14.00">mfem::ParFiniteElementSpace</text>
</a>
</g>
</g>
<!-- Node7&#45;&gt;Node9 -->
<g id="edge11" class="edge"><title>Node7&#45;&gt;Node9</title>
<path fill="none" stroke="midnightblue" d="M475.483,-140.69C557.642,-126.202 687.681,-103.272 765.632,-89.5266"/>
<polygon fill="midnightblue" stroke="midnightblue" points="474.7,-137.274 465.46,-142.457 475.916,-144.167 474.7,-137.274"/>
</g>
<!-- Node8 -->
<g id="node8" class="node"><title>Node8</title>
<g id="a_node8"><a xlink:href="classmfem_1_1Table.html" target="_top" xlink:title="mfem::Table">
<polygon fill="white" stroke="red" points="28,-80.5 28,-103.5 134,-103.5 134,-80.5 28,-80.5"/>
<text text-anchor="middle" x="81" y="-88.3" font-family="Helvetica,sans-Serif" font-size="14.00">mfem::Table</text>
</a>
</g>
</g>
<!-- Node8&#45;&gt;Node7 -->
<g id="edge9" class="edge"><title>Node8&#45;&gt;Node7</title>
<path fill="none" stroke="#9a32cd" stroke-dasharray="5,2" d="M144.122,-99.4238C182.352,-104.453 232.244,-111.844 276,-121 304.349,-126.932 335.899,-135.52 359.812,-142.449"/>
<polygon fill="#9a32cd" stroke="#9a32cd" points="144.533,-95.9478 134.166,-98.1327 143.633,-102.89 144.533,-95.9478"/>
<text text-anchor="middle" x="228" y="-139.8" font-family="Helvetica,sans-Serif" font-size="14.00"> bdrElem_dof</text>
<text text-anchor="middle" x="228" y="-124.8" font-family="Helvetica,sans-Serif" font-size="14.00">elem_dof</text>
</g>
<!-- Node8&#45;&gt;Node9 -->
<g id="edge13" class="edge"><title>Node8&#45;&gt;Node9</title>
<path fill="none" stroke="#9a32cd" stroke-dasharray="5,2" d="M144.405,-90.8185C186.635,-90.02 243.677,-88.9433 294,-88 439.437,-85.2738 607.031,-82.1568 715.772,-80.1376"/>
<polygon fill="#9a32cd" stroke="#9a32cd" points="144.206,-87.3216 134.274,-91.0101 144.338,-94.3203 144.206,-87.3216"/>
<text text-anchor="middle" x="399" y="-121.8" font-family="Helvetica,sans-Serif" font-size="14.00"> face_nbr_ldof</text>
<text text-anchor="middle" x="399" y="-106.8" font-family="Helvetica,sans-Serif" font-size="14.00">send_face_nbr_ldof</text>
<text text-anchor="middle" x="399" y="-91.8" font-family="Helvetica,sans-Serif" font-size="14.00">face_nbr_element_dof</text>
</g>
<!-- Node9&#45;&gt;Node2 -->
<g id="edge10" class="edge"><title>Node9&#45;&gt;Node2</title>
<path fill="none" stroke="#9a32cd" stroke-dasharray="5,2" d="M958.312,-88.1058C1048.72,-95.3966 1170.42,-105.211 1261.72,-112.574"/>
<polygon fill="#9a32cd" stroke="#9a32cd" points="958.529,-84.612 948.28,-87.2967 957.966,-91.5893 958.529,-84.612"/>
<text text-anchor="middle" x="1105" y="-128.8" font-family="Helvetica,sans-Serif" font-size="14.00"> range_fes</text>
<text text-anchor="middle" x="1105" y="-113.8" font-family="Helvetica,sans-Serif" font-size="14.00">domain_fes</text>
</g>
<!-- Node10 -->
<g id="node10" class="node"><title>Node10</title>
<g id="a_node10"><a xlink:href="classmfem_1_1Array.html" target="_top" xlink:title="mfem::Array\&lt; HYPRE\l_Int \&gt;">
<polygon fill="white" stroke="red" points="314,-0 314,-38 484,-38 484,-0 314,-0"/>
<text text-anchor="start" x="322" y="-22.8" font-family="Helvetica,sans-Serif" font-size="14.00">mfem::Array&lt; HYPRE</text>
<text text-anchor="middle" x="399" y="-7.8" font-family="Helvetica,sans-Serif" font-size="14.00">_Int &gt;</text>
</a>
</g>
</g>
<!-- Node10&#45;&gt;Node9 -->
<g id="edge12" class="edge"><title>Node10&#45;&gt;Node9</title>
<path fill="none" stroke="#9a32cd" stroke-dasharray="5,2" d="M494.251,-24.0141C553.1,-28.015 630.285,-34.8473 698,-46 729.167,-51.1332 763.848,-59.5699 789.979,-66.492"/>
<polygon fill="#9a32cd" stroke="#9a32cd" points="494.438,-20.5188 484.228,-23.3479 493.973,-27.5034 494.438,-20.5188"/>
<text text-anchor="middle" x="610" y="-49.8" font-family="Helvetica,sans-Serif" font-size="14.00"> face_nbr_glob_dof_map</text>
</g>
</g>
</svg>
