<?xml version="1.0" encoding="UTF-8" standalone="no"?>
<!DOCTYPE svg PUBLIC "-//W3C//DTD SVG 1.1//EN"
 "http://www.w3.org/Graphics/SVG/1.1/DTD/svg11.dtd">
<!-- Generated by graphviz version 2.30.1 (20200304.1809)
 -->
<!-- Title: mfem::BiCubic3DFiniteElement Pages: 1 -->
<svg width="246pt" height="272pt"
 viewBox="0.00 0.00 246.00 272.00" xmlns="http://www.w3.org/2000/svg" xmlns:xlink="http://www.w3.org/1999/xlink">
<g id="graph0" class="graph" transform="scale(1 1) rotate(0) translate(4 268)">
<title>mfem::BiCubic3DFiniteElement</title>
<polygon fill="white" stroke="white" points="-4,5 -4,-268 243,-268 243,5 -4,5"/>
<!-- Node1 -->
<g id="node1" class="node"><title>Node1</title>
<polygon fill="#bfbfbf" stroke="black" points="-0.5,-0.5 -0.5,-23.5 238.5,-23.5 238.5,-0.5 -0.5,-0.5"/>
<text text-anchor="middle" x="119" y="-8.3" font-family="Helvetica,sans-Serif" font-size="14.00">mfem::BiCubic3DFiniteElement</text>
</g>
<!-- Node2 -->
<g id="node2" class="node"><title>Node2</title>
<g id="a_node2"><a xlink:href="classmfem_1_1H1__WedgeElement.html" target="_top" xlink:title="mfem::H1_WedgeElement">
<polygon fill="white" stroke="black" points="17,-60.5 17,-83.5 221,-83.5 221,-60.5 17,-60.5"/>
<text text-anchor="middle" x="119" y="-68.3" font-family="Helvetica,sans-Serif" font-size="14.00">mfem::H1_WedgeElement</text>
</a>
</g>
</g>
<!-- Node2&#45;&gt;Node1 -->
<g id="edge1" class="edge"><title>Node2&#45;&gt;Node1</title>
<path fill="none" stroke="midnightblue" d="M119,-50.1906C119,-41.1684 119,-30.9941 119,-23.5707"/>
<polygon fill="midnightblue" stroke="midnightblue" points="115.5,-50.3619 119,-60.3619 122.5,-50.3619 115.5,-50.3619"/>
</g>
<!-- Node3 -->
<g id="node3" class="node"><title>Node3</title>
<g id="a_node3"><a xlink:href="classmfem_1_1NodalFiniteElement.html" target="_top" xlink:title="mfem::NodalFiniteElement">
<polygon fill="white" stroke="black" points="15.5,-120.5 15.5,-143.5 222.5,-143.5 222.5,-120.5 15.5,-120.5"/>
<text text-anchor="middle" x="119" y="-128.3" font-family="Helvetica,sans-Serif" font-size="14.00">mfem::NodalFiniteElement</text>
</a>
</g>
</g>
<!-- Node3&#45;&gt;Node2 -->
<g id="edge2" class="edge"><title>Node3&#45;&gt;Node2</title>
<path fill="none" stroke="midnightblue" d="M119,-110.191C119,-101.168 119,-90.9941 119,-83.5707"/>
<polygon fill="midnightblue" stroke="midnightblue" points="115.5,-110.362 119,-120.362 122.5,-110.362 115.5,-110.362"/>
</g>
<!-- Node4 -->
<g id="node4" class="node"><title>Node4</title>
<g id="a_node4"><a xlink:href="classmfem_1_1ScalarFiniteElement.html" target="_top" xlink:title="mfem::ScalarFiniteElement">
<polygon fill="white" stroke="black" points="14,-180.5 14,-203.5 224,-203.5 224,-180.5 14,-180.5"/>
<text text-anchor="middle" x="119" y="-188.3" font-family="Helvetica,sans-Serif" font-size="14.00">mfem::ScalarFiniteElement</text>
</a>
</g>
</g>
<!-- Node4&#45;&gt;Node3 -->
<g id="edge3" class="edge"><title>Node4&#45;&gt;Node3</title>
<path fill="none" stroke="midnightblue" d="M119,-170.191C119,-161.168 119,-150.994 119,-143.571"/>
<polygon fill="midnightblue" stroke="midnightblue" points="115.5,-170.362 119,-180.362 122.5,-170.362 115.5,-170.362"/>
</g>
<!-- Node5 -->
<g id="node5" class="node"><title>Node5</title>
<g id="a_node5"><a xlink:href="classmfem_1_1FiniteElement.html" target="_top" xlink:title="Abstract class for Finite Elements. ">
<polygon fill="white" stroke="black" points="36,-240.5 36,-263.5 202,-263.5 202,-240.5 36,-240.5"/>
<text text-anchor="middle" x="119" y="-248.3" font-family="Helvetica,sans-Serif" font-size="14.00">mfem::FiniteElement</text>
</a>
</g>
</g>
<!-- Node5&#45;&gt;Node4 -->
<g id="edge4" class="edge"><title>Node5&#45;&gt;Node4</title>
<path fill="none" stroke="midnightblue" d="M119,-230.191C119,-221.168 119,-210.994 119,-203.571"/>
<polygon fill="midnightblue" stroke="midnightblue" points="115.5,-230.362 119,-240.362 122.5,-230.362 115.5,-230.362"/>
</g>
</g>
</svg>
