<?xml version="1.0" encoding="UTF-8" standalone="no"?>
<!DOCTYPE svg PUBLIC "-//W3C//DTD SVG 1.1//EN"
 "http://www.w3.org/Graphics/SVG/1.1/DTD/svg11.dtd">
<!-- Generated by graphviz version 2.30.1 (20170916.1124)
 -->
<!-- Title: mfem::FiniteElementSpace Pages: 1 -->
<svg width="1062pt" height="662pt"
 viewBox="0.00 0.00 1062.00 662.00" xmlns="http://www.w3.org/2000/svg" xmlns:xlink="http://www.w3.org/1999/xlink">
<g id="graph0" class="graph" transform="scale(1 1) rotate(0) translate(4 658)">
<title>mfem::FiniteElementSpace</title>
<polygon fill="white" stroke="white" points="-4,5 -4,-658 1059,-658 1059,5 -4,5"/>
<!-- Node1 -->
<g id="node1" class="node"><title>Node1</title>
<polygon fill="#bfbfbf" stroke="black" points="872.5,-199.5 872.5,-222.5 1053.5,-222.5 1053.5,-199.5 872.5,-199.5"/>
<text text-anchor="middle" x="963" y="-207.3" font-family="Helvetica,sans-Serif" font-size="14.00">mfem::FiniteElementSpace</text>
</g>
<!-- Node2 -->
<g id="node2" class="node"><title>Node2</title>
<g id="a_node2"><a xlink:href="classmfem_1_1Array.html" target="_top" xlink:title="mfem::Array\&lt; mfem::\lQuadratureInterpolator * \&gt;">
<polygon fill="white" stroke="black" points="577.5,-613 577.5,-651 752.5,-651 752.5,-613 577.5,-613"/>
<text text-anchor="start" x="585.5" y="-635.8" font-family="Helvetica,sans-Serif" font-size="14.00">mfem::Array&lt; mfem::</text>
<text text-anchor="middle" x="665" y="-620.8" font-family="Helvetica,sans-Serif" font-size="14.00">QuadratureInterpolator * &gt;</text>
</a>
</g>
</g>
<!-- Node2&#45;&gt;Node1 -->
<g id="edge1" class="edge"><title>Node2&#45;&gt;Node1</title>
<path fill="none" stroke="#9a32cd" stroke-dasharray="5,2" d="M762.958,-633.258C795.398,-628.929 829.498,-618.519 854,-596 912.012,-542.682 952.061,-281.206 960.39,-222.65"/>
<polygon fill="#9a32cd" stroke="#9a32cd" points="762.488,-629.789 752.956,-634.412 763.291,-636.742 762.488,-629.789"/>
<text text-anchor="middle" x="819" y="-632.8" font-family="Helvetica,sans-Serif" font-size="14.00"> E2Q_array</text>
</g>
<!-- Node3 -->
<g id="node3" class="node"><title>Node3</title>
<g id="a_node3"><a xlink:href="classmfem_1_1Memory.html" target="_top" xlink:title="mfem::Memory\&lt; mfem\l::QuadratureInterpolator * \&gt;">
<polygon fill="white" stroke="red" points="250,-616 250,-654 432,-654 432,-616 250,-616"/>
<text text-anchor="start" x="258" y="-638.8" font-family="Helvetica,sans-Serif" font-size="14.00">mfem::Memory&lt; mfem</text>
<text text-anchor="middle" x="341" y="-623.8" font-family="Helvetica,sans-Serif" font-size="14.00">::QuadratureInterpolator * &gt;</text>
</a>
</g>
</g>
<!-- Node3&#45;&gt;Node2 -->
<g id="edge2" class="edge"><title>Node3&#45;&gt;Node2</title>
<path fill="none" stroke="#9a32cd" stroke-dasharray="5,2" d="M442.378,-634.065C485.598,-633.662 535.644,-633.196 577.23,-632.808"/>
<polygon fill="#9a32cd" stroke="#9a32cd" points="442.09,-630.567 432.123,-634.16 442.155,-637.567 442.09,-630.567"/>
<text text-anchor="middle" x="498" y="-636.8" font-family="Helvetica,sans-Serif" font-size="14.00"> data</text>
</g>
<!-- Node4 -->
<g id="node4" class="node"><title>Node4</title>
<g id="a_node4"><a xlink:href="classmfem_1_1Mesh.html" target="_top" xlink:title="mfem::Mesh">
<polygon fill="white" stroke="red" points="294.5,-263.5 294.5,-286.5 387.5,-286.5 387.5,-263.5 294.5,-263.5"/>
<text text-anchor="middle" x="341" y="-271.3" font-family="Helvetica,sans-Serif" font-size="14.00">mfem::Mesh</text>
</a>
</g>
</g>
<!-- Node4&#45;&gt;Node1 -->
<g id="edge3" class="edge"><title>Node4&#45;&gt;Node1</title>
<path fill="none" stroke="#9a32cd" stroke-dasharray="5,2" d="M398,-268.106C442.865,-262.663 507.437,-255.012 564,-249 669.777,-237.757 791.539,-226.358 872.241,-219.017"/>
<polygon fill="#9a32cd" stroke="#9a32cd" points="397.391,-264.654 387.887,-269.335 398.236,-271.603 397.391,-264.654"/>
<text text-anchor="middle" x="665" y="-252.8" font-family="Helvetica,sans-Serif" font-size="14.00"> mesh</text>
</g>
<!-- Node6 -->
<g id="node6" class="node"><title>Node6</title>
<g id="a_node6"><a xlink:href="classmfem_1_1NURBSExtension.html" target="_top" xlink:title="mfem::NURBSExtension">
<polygon fill="white" stroke="red" points="582,-273.5 582,-296.5 748,-296.5 748,-273.5 582,-273.5"/>
<text text-anchor="middle" x="665" y="-281.3" font-family="Helvetica,sans-Serif" font-size="14.00">mfem::NURBSExtension</text>
</a>
</g>
</g>
<!-- Node4&#45;&gt;Node6 -->
<g id="edge6" class="edge"><title>Node4&#45;&gt;Node6</title>
<path fill="none" stroke="#9a32cd" stroke-dasharray="5,2" d="M397.753,-284.239C414.501,-286.61 432.953,-288.822 450,-290 493.47,-293.004 542.012,-292.208 581.861,-290.462"/>
<polygon fill="#9a32cd" stroke="#9a32cd" points="397.974,-280.734 387.573,-282.75 396.962,-287.661 397.974,-280.734"/>
<text text-anchor="middle" x="498" y="-296.8" font-family="Helvetica,sans-Serif" font-size="14.00"> patchTopo</text>
</g>
<!-- Node5 -->
<g id="node5" class="node"><title>Node5</title>
<g id="a_node5"><a xlink:href="classmfem_1_1Array.html" target="_top" xlink:title="mfem::Array\&lt; int \&gt;">
<polygon fill="white" stroke="red" points="0,-414.5 0,-437.5 130,-437.5 130,-414.5 0,-414.5"/>
<text text-anchor="middle" x="65" y="-422.3" font-family="Helvetica,sans-Serif" font-size="14.00">mfem::Array&lt; int &gt;</text>
</a>
</g>
</g>
<!-- Node5&#45;&gt;Node4 -->
<g id="edge4" class="edge"><title>Node5&#45;&gt;Node4</title>
<path fill="none" stroke="#9a32cd" stroke-dasharray="5,2" d="M82.3932,-406.814C97.7368,-390.022 122.123,-366.16 148,-352 181.956,-333.419 195.849,-342.833 232,-329 263.718,-316.864 298.541,-298.463 319.839,-286.586"/>
<polygon fill="#9a32cd" stroke="#9a32cd" points="79.6595,-404.621 75.6203,-414.415 84.8859,-409.277 79.6595,-404.621"/>
<text text-anchor="middle" x="190" y="-400.8" font-family="Helvetica,sans-Serif" font-size="14.00"> attributes</text>
<text text-anchor="middle" x="190" y="-385.8" font-family="Helvetica,sans-Serif" font-size="14.00">be_to_edge</text>
<text text-anchor="middle" x="190" y="-370.8" font-family="Helvetica,sans-Serif" font-size="14.00">be_to_face</text>
<text text-anchor="middle" x="190" y="-355.8" font-family="Helvetica,sans-Serif" font-size="14.00">bdr_attributes</text>
</g>
<!-- Node5&#45;&gt;Node6 -->
<g id="edge7" class="edge"><title>Node5&#45;&gt;Node6</title>
<path fill="none" stroke="#9a32cd" stroke-dasharray="5,2" d="M140.157,-425.733C169.234,-424.085 202.61,-420.257 232,-412 240.611,-409.581 241.663,-406.24 250,-403 376.785,-353.729 532.547,-314.874 612.002,-296.528"/>
<polygon fill="#9a32cd" stroke="#9a32cd" points="139.881,-422.242 130.064,-426.229 140.224,-429.234 139.881,-422.242"/>
<text text-anchor="middle" x="341" y="-556.8" font-family="Helvetica,sans-Serif" font-size="14.00"> slave</text>
<text text-anchor="middle" x="341" y="-541.8" font-family="Helvetica,sans-Serif" font-size="14.00">master</text>
<text text-anchor="middle" x="341" y="-526.8" font-family="Helvetica,sans-Serif" font-size="14.00">v_spaceOffsets</text>
<text text-anchor="middle" x="341" y="-511.8" font-family="Helvetica,sans-Serif" font-size="14.00">p_meshOffsets</text>
<text text-anchor="middle" x="341" y="-496.8" font-family="Helvetica,sans-Serif" font-size="14.00">edge_to_knot</text>
<text text-anchor="middle" x="341" y="-481.8" font-family="Helvetica,sans-Serif" font-size="14.00">f_spaceOffsets</text>
<text text-anchor="middle" x="341" y="-466.8" font-family="Helvetica,sans-Serif" font-size="14.00">e_meshOffsets</text>
<text text-anchor="middle" x="341" y="-451.8" font-family="Helvetica,sans-Serif" font-size="14.00">el_to_patch</text>
<text text-anchor="middle" x="341" y="-436.8" font-family="Helvetica,sans-Serif" font-size="14.00">p_spaceOffsets</text>
<text text-anchor="middle" x="341" y="-421.8" font-family="Helvetica,sans-Serif" font-size="14.00">bel_to_patch</text>
<text text-anchor="middle" x="341" y="-406.8" font-family="Helvetica,sans-Serif" font-size="14.00">...</text>
</g>
<!-- Node5&#45;&gt;Node1 -->
<g id="edge12" class="edge"><title>Node5&#45;&gt;Node1</title>
<path fill="none" stroke="#9a32cd" stroke-dasharray="5,2" d="M82.8227,-445.519C112.58,-478.368 178.176,-543.508 250,-568 326.56,-594.107 354.556,-591.356 432,-568 670.455,-496.087 898.277,-275.753 950.732,-222.619"/>
<polygon fill="#9a32cd" stroke="#9a32cd" points="85.3107,-443.05 76.0475,-437.908 80.0821,-447.705 85.3107,-443.05"/>
<text text-anchor="middle" x="498" y="-580.8" font-family="Helvetica,sans-Serif" font-size="14.00"> dof_ldof_array</text>
<text text-anchor="middle" x="498" y="-565.8" font-family="Helvetica,sans-Serif" font-size="14.00">dof_elem_array</text>
</g>
<!-- Node6&#45;&gt;Node4 -->
<g id="edge5" class="edge"><title>Node6&#45;&gt;Node4</title>
<path fill="none" stroke="#9a32cd" stroke-dasharray="5,2" d="M571.681,-276.424C563.006,-275.845 554.342,-275.353 546,-275 491.684,-272.703 429.16,-273.16 387.8,-273.895"/>
<polygon fill="#9a32cd" stroke="#9a32cd" points="571.63,-279.929 581.851,-277.141 572.122,-272.947 571.63,-279.929"/>
<text text-anchor="middle" x="498" y="-278.8" font-family="Helvetica,sans-Serif" font-size="14.00"> NURBSext</text>
</g>
<!-- Node6&#45;&gt;Node1 -->
<g id="edge13" class="edge"><title>Node6&#45;&gt;Node1</title>
<path fill="none" stroke="#9a32cd" stroke-dasharray="5,2" d="M758.534,-273.797C789.223,-269.01 823.362,-262.518 854,-254 883.361,-245.837 915.66,-232.344 937.216,-222.648"/>
<polygon fill="#9a32cd" stroke="#9a32cd" points="757.63,-270.394 748.268,-275.355 758.68,-277.314 757.63,-270.394"/>
<text text-anchor="middle" x="819" y="-272.8" font-family="Helvetica,sans-Serif" font-size="14.00"> NURBSext</text>
</g>
<!-- Node7 -->
<g id="node7" class="node"><title>Node7</title>
<g id="a_node7"><a xlink:href="classmfem_1_1Table.html" target="_top" xlink:title="mfem::Table">
<polygon fill="white" stroke="red" points="18.5,-193.5 18.5,-216.5 111.5,-216.5 111.5,-193.5 18.5,-193.5"/>
<text text-anchor="middle" x="65" y="-201.3" font-family="Helvetica,sans-Serif" font-size="14.00">mfem::Table</text>
</a>
</g>
</g>
<!-- Node7&#45;&gt;Node6 -->
<g id="edge8" class="edge"><title>Node7&#45;&gt;Node6</title>
<path fill="none" stroke="#9a32cd" stroke-dasharray="5,2" d="M121.776,-203.259C194.02,-202.059 323.547,-203.501 432,-224 492.764,-235.485 504.008,-252.996 564,-268 571.944,-269.987 580.302,-271.813 588.66,-273.471"/>
<polygon fill="#9a32cd" stroke="#9a32cd" points="121.474,-199.764 111.542,-203.454 121.607,-206.763 121.474,-199.764"/>
<text text-anchor="middle" x="341" y="-242.8" font-family="Helvetica,sans-Serif" font-size="14.00"> el_dof</text>
<text text-anchor="middle" x="341" y="-227.8" font-family="Helvetica,sans-Serif" font-size="14.00">bel_dof</text>
</g>
<!-- Node7&#45;&gt;Node4 -->
<g id="edge9" class="edge"><title>Node7&#45;&gt;Node4</title>
<path fill="none" stroke="#9a32cd" stroke-dasharray="5,2" d="M122.069,-212.124C154.809,-217.35 196.526,-225.867 232,-239 240.582,-242.177 241.55,-245.485 250,-249 264.116,-254.871 280,-259.936 294.45,-263.996"/>
<polygon fill="#9a32cd" stroke="#9a32cd" points="122.19,-208.601 111.774,-210.541 121.126,-215.52 122.19,-208.601"/>
<text text-anchor="middle" x="190" y="-317.8" font-family="Helvetica,sans-Serif" font-size="14.00"> el_to_face</text>
<text text-anchor="middle" x="190" y="-302.8" font-family="Helvetica,sans-Serif" font-size="14.00">el_to_edge</text>
<text text-anchor="middle" x="190" y="-287.8" font-family="Helvetica,sans-Serif" font-size="14.00">edge_vertex</text>
<text text-anchor="middle" x="190" y="-272.8" font-family="Helvetica,sans-Serif" font-size="14.00">face_edge</text>
<text text-anchor="middle" x="190" y="-257.8" font-family="Helvetica,sans-Serif" font-size="14.00">el_to_el</text>
<text text-anchor="middle" x="190" y="-242.8" font-family="Helvetica,sans-Serif" font-size="14.00">bel_to_edge</text>
</g>
<!-- Node7&#45;&gt;Node1 -->
<g id="edge14" class="edge"><title>Node7&#45;&gt;Node1</title>
<path fill="none" stroke="#9a32cd" stroke-dasharray="5,2" d="M121.703,-200.474C130.497,-199.889 139.492,-199.367 148,-199 324.733,-191.371 369.135,-191.6 546,-195 658.548,-197.164 788.13,-202.617 872.359,-206.556"/>
<polygon fill="#9a32cd" stroke="#9a32cd" points="121.246,-196.997 111.514,-201.183 121.733,-203.98 121.246,-196.997"/>
<text text-anchor="middle" x="498" y="-213.8" font-family="Helvetica,sans-Serif" font-size="14.00"> bdrElem_dof</text>
<text text-anchor="middle" x="498" y="-198.8" font-family="Helvetica,sans-Serif" font-size="14.00">elem_dof</text>
</g>
<!-- Node8 -->
<g id="node8" class="node"><title>Node8</title>
<g id="a_node8"><a xlink:href="classmfem_1_1SparseMatrix.html" target="_top" xlink:title="Data type sparse matrix. ">
<polygon fill="white" stroke="red" points="595,-97.5 595,-120.5 735,-120.5 735,-97.5 595,-97.5"/>
<text text-anchor="middle" x="665" y="-105.3" font-family="Helvetica,sans-Serif" font-size="14.00">mfem::SparseMatrix</text>
</a>
</g>
</g>
<!-- Node8&#45;&gt;Node1 -->
<g id="edge10" class="edge"><title>Node8&#45;&gt;Node1</title>
<path fill="none" stroke="#9a32cd" stroke-dasharray="5,2" d="M745.314,-113.439C779.64,-117.323 819.721,-124.557 854,-138 891.925,-152.872 929.911,-182.92 949.123,-199.451"/>
<polygon fill="#9a32cd" stroke="#9a32cd" points="745.64,-109.955 735.328,-112.385 744.905,-116.916 745.64,-109.955"/>
<text text-anchor="middle" x="819" y="-156.8" font-family="Helvetica,sans-Serif" font-size="14.00"> cR</text>
<text text-anchor="middle" x="819" y="-141.8" font-family="Helvetica,sans-Serif" font-size="14.00">cP</text>
</g>
<!-- Node8&#45;&gt;Node8 -->
<g id="edge11" class="edge"><title>Node8&#45;&gt;Node8</title>
<path fill="none" stroke="#9a32cd" stroke-dasharray="5,2" d="M636.778,-130.472C639.238,-135.391 648.645,-139 665,-139 691.168,-139 699.55,-129.76 690.146,-120.701"/>
<polygon fill="#9a32cd" stroke="#9a32cd" points="640.19,-131.291 639.854,-120.701 633.513,-129.189 640.19,-131.291"/>
<text text-anchor="middle" x="665" y="-142.8" font-family="Helvetica,sans-Serif" font-size="14.00"> At</text>
</g>
<!-- Node9 -->
<g id="node9" class="node"><title>Node9</title>
<g id="a_node9"><a xlink:href="classmfem_1_1FiniteElementCollection.html" target="_top" xlink:title="mfem::FiniteElementCollection">
<polygon fill="white" stroke="black" points="564,-55.5 564,-78.5 766,-78.5 766,-55.5 564,-55.5"/>
<text text-anchor="middle" x="665" y="-63.3" font-family="Helvetica,sans-Serif" font-size="14.00">mfem::FiniteElementCollection</text>
</a>
</g>
</g>
<!-- Node9&#45;&gt;Node1 -->
<g id="edge15" class="edge"><title>Node9&#45;&gt;Node1</title>
<path fill="none" stroke="#9a32cd" stroke-dasharray="5,2" d="M776.46,-75.3834C802.923,-80.4762 830.344,-88.4811 854,-101 900.127,-125.411 938.646,-176.457 954.383,-199.398"/>
<polygon fill="#9a32cd" stroke="#9a32cd" points="776.837,-71.895 766.375,-73.5708 775.598,-78.7846 776.837,-71.895"/>
<text text-anchor="middle" x="819" y="-104.8" font-family="Helvetica,sans-Serif" font-size="14.00"> fec</text>
</g>
<!-- Node10 -->
<g id="node10" class="node"><title>Node10</title>
<g id="a_node10"><a xlink:href="classmfem_1_1OperatorHandle.html" target="_top" xlink:title="Pointer to an Operator of a specified type. ">
<polygon fill="white" stroke="red" points="587,-0.5 587,-23.5 743,-23.5 743,-0.5 587,-0.5"/>
<text text-anchor="middle" x="665" y="-8.3" font-family="Helvetica,sans-Serif" font-size="14.00">mfem::OperatorHandle</text>
</a>
</g>
</g>
<!-- Node10&#45;&gt;Node1 -->
<g id="edge16" class="edge"><title>Node10&#45;&gt;Node1</title>
<path fill="none" stroke="#9a32cd" stroke-dasharray="5,2" d="M753.703,-3.58152C787.314,-4.36433 824.609,-10.4623 854,-29 919.261,-70.1619 950.128,-166.263 959.113,-199.47"/>
<polygon fill="#9a32cd" stroke="#9a32cd" points="753.431,-0.0793906 743.404,-3.50134 753.376,-7.07918 753.431,-0.0793906"/>
<text text-anchor="middle" x="819" y="-62.8" font-family="Helvetica,sans-Serif" font-size="14.00"> Th</text>
<text text-anchor="middle" x="819" y="-47.8" font-family="Helvetica,sans-Serif" font-size="14.00">L2E_nat</text>
<text text-anchor="middle" x="819" y="-32.8" font-family="Helvetica,sans-Serif" font-size="14.00">L2E_lex</text>
</g>
</g>
</svg>
