<?xml version="1.0" encoding="UTF-8" standalone="no"?>
<!DOCTYPE svg PUBLIC "-//W3C//DTD SVG 1.1//EN"
 "http://www.w3.org/Graphics/SVG/1.1/DTD/svg11.dtd">
<!-- Generated by graphviz version 2.30.1 (20170916.1124)
 -->
<!-- Title: mfem::FiniteElement Pages: 1 -->
<svg width="622pt" height="242pt"
 viewBox="0.00 0.00 622.00 242.00" xmlns="http://www.w3.org/2000/svg" xmlns:xlink="http://www.w3.org/1999/xlink">
<g id="graph0" class="graph" transform="scale(1 1) rotate(0) translate(4 238)">
<title>mfem::FiniteElement</title>
<polygon fill="white" stroke="white" points="-4,5 -4,-238 619,-238 619,5 -4,5"/>
<!-- Node1 -->
<g id="node1" class="node"><title>Node1</title>
<polygon fill="#bfbfbf" stroke="black" points="0.5,-115.5 0.5,-138.5 143.5,-138.5 143.5,-115.5 0.5,-115.5"/>
<text text-anchor="middle" x="72" y="-123.3" font-family="Helvetica,sans-Serif" font-size="14.00">mfem::FiniteElement</text>
</g>
<!-- Node2 -->
<g id="node2" class="node"><title>Node2</title>
<g id="a_node2"><a xlink:href="classmfem_1_1ScalarFiniteElement.html" target="_top" xlink:title="mfem::ScalarFiniteElement">
<polygon fill="white" stroke="black" points="180.5,-147.5 180.5,-170.5 361.5,-170.5 361.5,-147.5 180.5,-147.5"/>
<text text-anchor="middle" x="271" y="-155.3" font-family="Helvetica,sans-Serif" font-size="14.00">mfem::ScalarFiniteElement</text>
</a>
</g>
</g>
<!-- Node1&#45;&gt;Node2 -->
<g id="edge1" class="edge"><title>Node1&#45;&gt;Node2</title>
<path fill="none" stroke="midnightblue" d="M153.813,-140.127C168.771,-142.557 184.292,-145.078 198.934,-147.456"/>
<polygon fill="midnightblue" stroke="midnightblue" points="153.997,-136.611 143.565,-138.462 152.875,-143.521 153.997,-136.611"/>
</g>
<!-- Node6 -->
<g id="node6" class="node"><title>Node6</title>
<g id="a_node6"><a xlink:href="classmfem_1_1VectorFiniteElement.html" target="_top" xlink:title="mfem::VectorFiniteElement">
<polygon fill="white" stroke="red" points="180,-63.5 180,-86.5 362,-86.5 362,-63.5 180,-63.5"/>
<text text-anchor="middle" x="271" y="-71.3" font-family="Helvetica,sans-Serif" font-size="14.00">mfem::VectorFiniteElement</text>
</a>
</g>
</g>
<!-- Node1&#45;&gt;Node6 -->
<g id="edge5" class="edge"><title>Node1&#45;&gt;Node6</title>
<path fill="none" stroke="midnightblue" d="M126.6,-112.852C157.93,-104.582 196.97,-94.277 226.402,-86.5082"/>
<polygon fill="midnightblue" stroke="midnightblue" points="125.496,-109.523 116.721,-115.46 127.283,-116.291 125.496,-109.523"/>
</g>
<!-- Node3 -->
<g id="node3" class="node"><title>Node3</title>
<g id="a_node3"><a xlink:href="classmfem_1_1NodalFiniteElement.html" target="_top" xlink:title="mfem::NodalFiniteElement">
<polygon fill="white" stroke="red" points="417,-210.5 417,-233.5 595,-233.5 595,-210.5 417,-210.5"/>
<text text-anchor="middle" x="506" y="-218.3" font-family="Helvetica,sans-Serif" font-size="14.00">mfem::NodalFiniteElement</text>
</a>
</g>
</g>
<!-- Node2&#45;&gt;Node3 -->
<g id="edge2" class="edge"><title>Node2&#45;&gt;Node3</title>
<path fill="none" stroke="midnightblue" d="M312.663,-174.027C337.154,-182.707 369.095,-193.38 398,-201 411.271,-204.499 425.608,-207.7 439.341,-210.492"/>
<polygon fill="midnightblue" stroke="midnightblue" points="313.587,-170.64 302.992,-170.566 311.228,-177.231 313.587,-170.64"/>
</g>
<!-- Node4 -->
<g id="node4" class="node"><title>Node4</title>
<g id="a_node4"><a xlink:href="classmfem_1_1NURBSFiniteElement.html" target="_top" xlink:title="mfem::NURBSFiniteElement">
<polygon fill="white" stroke="red" points="411,-168.5 411,-191.5 601,-191.5 601,-168.5 411,-168.5"/>
<text text-anchor="middle" x="506" y="-176.3" font-family="Helvetica,sans-Serif" font-size="14.00">mfem::NURBSFiniteElement</text>
</a>
</g>
</g>
<!-- Node2&#45;&gt;Node4 -->
<g id="edge3" class="edge"><title>Node2&#45;&gt;Node4</title>
<path fill="none" stroke="midnightblue" d="M371.974,-168.011C384.811,-169.167 397.92,-170.349 410.662,-171.497"/>
<polygon fill="midnightblue" stroke="midnightblue" points="372.024,-164.501 361.751,-167.089 371.396,-171.473 372.024,-164.501"/>
</g>
<!-- Node5 -->
<g id="node5" class="node"><title>Node5</title>
<g id="a_node5"><a xlink:href="classmfem_1_1PositiveFiniteElement.html" target="_top" xlink:title="mfem::PositiveFiniteElement">
<polygon fill="white" stroke="red" points="411,-126.5 411,-149.5 601,-149.5 601,-126.5 411,-126.5"/>
<text text-anchor="middle" x="506" y="-134.3" font-family="Helvetica,sans-Serif" font-size="14.00">mfem::PositiveFiniteElement</text>
</a>
</g>
</g>
<!-- Node2&#45;&gt;Node5 -->
<g id="edge4" class="edge"><title>Node2&#45;&gt;Node5</title>
<path fill="none" stroke="midnightblue" d="M371.974,-149.989C384.811,-148.833 397.92,-147.651 410.662,-146.503"/>
<polygon fill="midnightblue" stroke="midnightblue" points="371.396,-146.527 361.751,-150.911 372.024,-153.499 371.396,-146.527"/>
</g>
<!-- Node7 -->
<g id="node7" class="node"><title>Node7</title>
<g id="a_node7"><a xlink:href="classmfem_1_1ND__HexahedronElement.html" target="_top" xlink:title="mfem::ND_HexahedronElement">
<polygon fill="white" stroke="black" points="401,-84.5 401,-107.5 611,-107.5 611,-84.5 401,-84.5"/>
<text text-anchor="middle" x="506" y="-92.3" font-family="Helvetica,sans-Serif" font-size="14.00">mfem::ND_HexahedronElement</text>
</a>
</g>
</g>
<!-- Node6&#45;&gt;Node7 -->
<g id="edge6" class="edge"><title>Node6&#45;&gt;Node7</title>
<path fill="none" stroke="midnightblue" d="M372.268,-84.037C381.716,-84.8886 391.311,-85.7533 400.795,-86.6081"/>
<polygon fill="midnightblue" stroke="midnightblue" points="372.358,-80.531 362.084,-83.1191 371.729,-87.5028 372.358,-80.531"/>
</g>
<!-- Node8 -->
<g id="node8" class="node"><title>Node8</title>
<g id="a_node8"><a xlink:href="classmfem_1_1ND__QuadrilateralElement.html" target="_top" xlink:title="mfem::ND_QuadrilateralElement">
<polygon fill="white" stroke="black" points="398.5,-42.5 398.5,-65.5 613.5,-65.5 613.5,-42.5 398.5,-42.5"/>
<text text-anchor="middle" x="506" y="-50.3" font-family="Helvetica,sans-Serif" font-size="14.00">mfem::ND_QuadrilateralElement</text>
</a>
</g>
</g>
<!-- Node6&#45;&gt;Node8 -->
<g id="edge7" class="edge"><title>Node6&#45;&gt;Node8</title>
<path fill="none" stroke="midnightblue" d="M372.213,-65.9679C380.9,-65.185 389.71,-64.391 398.445,-63.6037"/>
<polygon fill="midnightblue" stroke="midnightblue" points="371.729,-62.4972 362.084,-66.8809 372.358,-69.469 371.729,-62.4972"/>
</g>
<!-- Node9 -->
<g id="node9" class="node"><title>Node9</title>
<g id="a_node9"><a xlink:href="classmfem_1_1ND__SegmentElement.html" target="_top" xlink:title="mfem::ND_SegmentElement">
<polygon fill="white" stroke="black" points="410.5,-0.5 410.5,-23.5 601.5,-23.5 601.5,-0.5 410.5,-0.5"/>
<text text-anchor="middle" x="506" y="-8.3" font-family="Helvetica,sans-Serif" font-size="14.00">mfem::ND_SegmentElement</text>
</a>
</g>
</g>
<!-- Node6&#45;&gt;Node9 -->
<g id="edge8" class="edge"><title>Node6&#45;&gt;Node9</title>
<path fill="none" stroke="midnightblue" d="M312.663,-59.9732C337.154,-51.2935 369.095,-40.6205 398,-33 411.271,-29.5011 425.608,-26.2998 439.341,-23.508"/>
<polygon fill="midnightblue" stroke="midnightblue" points="311.228,-56.7693 302.992,-63.4341 313.587,-63.36 311.228,-56.7693"/>
</g>
</g>
</svg>
