<?xml version="1.0" encoding="UTF-8" standalone="no"?>
<!DOCTYPE svg PUBLIC "-//W3C//DTD SVG 1.1//EN"
 "http://www.w3.org/Graphics/SVG/1.1/DTD/svg11.dtd">
<!-- Generated by graphviz version 2.30.1 (20170916.1124)
 -->
<!-- Title: Graphical Class Hierarchy Pages: 1 -->
<svg width="740pt" height="529pt"
 viewBox="0.00 0.00 740.00 529.00" xmlns="http://www.w3.org/2000/svg" xmlns:xlink="http://www.w3.org/1999/xlink">
<g id="graph0" class="graph" transform="scale(1 1) rotate(0) translate(4 525)">
<title>Graphical Class Hierarchy</title>
<polygon fill="white" stroke="white" points="-4,5 -4,-525 737,-525 737,5 -4,5"/>
<!-- Node1 -->
<g id="node1" class="node"><title>Node1</title>
<g id="a_node1"><a xlink:href="classmfem_1_1LinearFormIntegrator.html" target="_top" xlink:title="Abstract base class LinearFormIntegrator. ">
<polygon fill="white" stroke="black" points="0.5,-271.5 0.5,-294.5 187.5,-294.5 187.5,-271.5 0.5,-271.5"/>
<text text-anchor="middle" x="94" y="-279.3" font-family="Helvetica,sans-Serif" font-size="14.00">mfem::LinearFormIntegrator</text>
</a>
</g>
</g>
<!-- Node2 -->
<g id="node2" class="node"><title>Node2</title>
<g id="a_node2"><a xlink:href="classmfem_1_1BoundaryFlowIntegrator.html" target="_top" xlink:title="mfem::BoundaryFlowIntegrator">
<polygon fill="white" stroke="black" points="240.5,-497.5 240.5,-520.5 443.5,-520.5 443.5,-497.5 240.5,-497.5"/>
<text text-anchor="middle" x="342" y="-505.3" font-family="Helvetica,sans-Serif" font-size="14.00">mfem::BoundaryFlowIntegrator</text>
</a>
</g>
</g>
<!-- Node1&#45;&gt;Node2 -->
<g id="edge1" class="edge"><title>Node1&#45;&gt;Node2</title>
<path fill="none" stroke="midnightblue" d="M101.803,-304.276C116.579,-346.779 155.866,-442.047 224,-488 229.475,-491.693 235.409,-494.79 241.603,-497.384"/>
<polygon fill="midnightblue" stroke="midnightblue" points="105.078,-303.031 98.5724,-294.668 98.4427,-305.262 105.078,-303.031"/>
</g>
<!-- Node3 -->
<g id="node3" class="node"><title>Node3</title>
<g id="a_node3"><a xlink:href="classmfem_1_1BoundaryLFIntegrator.html" target="_top" xlink:title="Class for boundary integration L(v) := (g, v) ">
<polygon fill="white" stroke="black" points="246.5,-455.5 246.5,-478.5 437.5,-478.5 437.5,-455.5 246.5,-455.5"/>
<text text-anchor="middle" x="342" y="-463.3" font-family="Helvetica,sans-Serif" font-size="14.00">mfem::BoundaryLFIntegrator</text>
</a>
</g>
</g>
<!-- Node1&#45;&gt;Node3 -->
<g id="edge2" class="edge"><title>Node1&#45;&gt;Node3</title>
<path fill="none" stroke="midnightblue" d="M105.062,-303.847C123.371,-339.352 165.697,-411.094 224,-446 230.905,-450.134 238.422,-453.496 246.204,-456.225"/>
<polygon fill="midnightblue" stroke="midnightblue" points="108.16,-302.217 100.541,-294.855 101.905,-305.361 108.16,-302.217"/>
</g>
<!-- Node4 -->
<g id="node4" class="node"><title>Node4</title>
<g id="a_node4"><a xlink:href="classmfem_1_1BoundaryNormalLFIntegrator.html" target="_top" xlink:title="Class for boundary integration . ">
<polygon fill="white" stroke="black" points="224.5,-413.5 224.5,-436.5 459.5,-436.5 459.5,-413.5 224.5,-413.5"/>
<text text-anchor="middle" x="342" y="-421.3" font-family="Helvetica,sans-Serif" font-size="14.00">mfem::BoundaryNormalLFIntegrator</text>
</a>
</g>
</g>
<!-- Node1&#45;&gt;Node4 -->
<g id="edge3" class="edge"><title>Node1&#45;&gt;Node4</title>
<path fill="none" stroke="midnightblue" d="M110.182,-302.907C132.133,-330.161 175.463,-378.493 224,-403 232.395,-407.239 241.501,-410.665 250.802,-413.435"/>
<polygon fill="midnightblue" stroke="midnightblue" points="112.769,-300.537 103.826,-294.856 107.275,-304.874 112.769,-300.537"/>
</g>
<!-- Node5 -->
<g id="node5" class="node"><title>Node5</title>
<g id="a_node5"><a xlink:href="classmfem_1_1BoundaryTangentialLFIntegrator.html" target="_top" xlink:title="Class for boundary integration &#160;in 2D. ">
<polygon fill="white" stroke="black" points="252,-356 252,-394 432,-394 432,-356 252,-356"/>
<text text-anchor="start" x="260" y="-378.8" font-family="Helvetica,sans-Serif" font-size="14.00">mfem::BoundaryTangential</text>
<text text-anchor="middle" x="342" y="-363.8" font-family="Helvetica,sans-Serif" font-size="14.00">LFIntegrator</text>
</a>
</g>
</g>
<!-- Node1&#45;&gt;Node5 -->
<g id="edge4" class="edge"><title>Node1&#45;&gt;Node5</title>
<path fill="none" stroke="midnightblue" d="M124.244,-299.5C149.896,-313.429 188.534,-333.109 224,-346 233.932,-349.61 244.499,-352.925 255.063,-355.919"/>
<polygon fill="midnightblue" stroke="midnightblue" points="125.862,-296.395 115.411,-294.652 122.493,-302.532 125.862,-296.395"/>
</g>
<!-- Node6 -->
<g id="node6" class="node"><title>Node6</title>
<g id="a_node6"><a xlink:href="classmfem_1_1DeltaLFIntegrator.html" target="_top" xlink:title="Abstract class for integrators that support delta coefficients. ">
<polygon fill="white" stroke="black" points="260,-313.5 260,-336.5 424,-336.5 424,-313.5 260,-313.5"/>
<text text-anchor="middle" x="342" y="-321.3" font-family="Helvetica,sans-Serif" font-size="14.00">mfem::DeltaLFIntegrator</text>
</a>
</g>
</g>
<!-- Node1&#45;&gt;Node6 -->
<g id="edge5" class="edge"><title>Node1&#45;&gt;Node6</title>
<path fill="none" stroke="midnightblue" d="M172.45,-296.223C204.911,-301.765 242.301,-308.149 273.605,-313.493"/>
<polygon fill="midnightblue" stroke="midnightblue" points="172.992,-292.765 162.546,-294.532 171.814,-299.665 172.992,-292.765"/>
</g>
<!-- Node10 -->
<g id="node10" class="node"><title>Node10</title>
<g id="a_node10"><a xlink:href="classmfem_1_1DGDirichletLFIntegrator.html" target="_top" xlink:title="mfem::DGDirichletLFIntegrator">
<polygon fill="white" stroke="black" points="240.5,-271.5 240.5,-294.5 443.5,-294.5 443.5,-271.5 240.5,-271.5"/>
<text text-anchor="middle" x="342" y="-279.3" font-family="Helvetica,sans-Serif" font-size="14.00">mfem::DGDirichletLFIntegrator</text>
</a>
</g>
</g>
<!-- Node1&#45;&gt;Node10 -->
<g id="edge9" class="edge"><title>Node1&#45;&gt;Node10</title>
<path fill="none" stroke="midnightblue" d="M197.792,-283C211.821,-283 226.211,-283 240.203,-283"/>
<polygon fill="midnightblue" stroke="midnightblue" points="197.652,-279.5 187.652,-283 197.651,-286.5 197.652,-279.5"/>
</g>
<!-- Node11 -->
<g id="node11" class="node"><title>Node11</title>
<g id="a_node11"><a xlink:href="classmfem_1_1DGElasticityDirichletLFIntegrator.html" target="_top" xlink:title="mfem::DGElasticityDirichlet\lLFIntegrator">
<polygon fill="white" stroke="black" points="251,-214 251,-252 433,-252 433,-214 251,-214"/>
<text text-anchor="start" x="259" y="-236.8" font-family="Helvetica,sans-Serif" font-size="14.00">mfem::DGElasticityDirichlet</text>
<text text-anchor="middle" x="342" y="-221.8" font-family="Helvetica,sans-Serif" font-size="14.00">LFIntegrator</text>
</a>
</g>
</g>
<!-- Node1&#45;&gt;Node11 -->
<g id="edge10" class="edge"><title>Node1&#45;&gt;Node11</title>
<path fill="none" stroke="midnightblue" d="M161.628,-269.458C189.074,-263.879 221.299,-257.33 250.806,-251.332"/>
<polygon fill="midnightblue" stroke="midnightblue" points="160.849,-266.044 151.746,-271.466 162.243,-272.904 160.849,-266.044"/>
</g>
<!-- Node12 -->
<g id="node12" class="node"><title>Node12</title>
<g id="a_node12"><a xlink:href="classmfem_1_1VectorBoundaryFluxLFIntegrator.html" target="_top" xlink:title="mfem::VectorBoundaryFlux\lLFIntegrator">
<polygon fill="white" stroke="black" points="251,-157 251,-195 433,-195 433,-157 251,-157"/>
<text text-anchor="start" x="259" y="-179.8" font-family="Helvetica,sans-Serif" font-size="14.00">mfem::VectorBoundaryFlux</text>
<text text-anchor="middle" x="342" y="-164.8" font-family="Helvetica,sans-Serif" font-size="14.00">LFIntegrator</text>
</a>
</g>
</g>
<!-- Node1&#45;&gt;Node12 -->
<g id="edge11" class="edge"><title>Node1&#45;&gt;Node12</title>
<path fill="none" stroke="midnightblue" d="M119.024,-265.426C144.086,-247.844 185.079,-221.154 224,-205 232.891,-201.31 242.365,-198.01 251.924,-195.078"/>
<polygon fill="midnightblue" stroke="midnightblue" points="116.977,-262.587 110.853,-271.233 121.032,-268.293 116.977,-262.587"/>
</g>
<!-- Node13 -->
<g id="node13" class="node"><title>Node13</title>
<g id="a_node13"><a xlink:href="classmfem_1_1VectorBoundaryLFIntegrator.html" target="_top" xlink:title="mfem::VectorBoundaryLFIntegrator">
<polygon fill="white" stroke="black" points="227,-114.5 227,-137.5 457,-137.5 457,-114.5 227,-114.5"/>
<text text-anchor="middle" x="342" y="-122.3" font-family="Helvetica,sans-Serif" font-size="14.00">mfem::VectorBoundaryLFIntegrator</text>
</a>
</g>
</g>
<!-- Node1&#45;&gt;Node13 -->
<g id="edge12" class="edge"><title>Node1&#45;&gt;Node13</title>
<path fill="none" stroke="midnightblue" d="M108.051,-262.81C128.742,-232.593 172.094,-176.154 224,-148 231.812,-143.763 240.301,-140.328 249.019,-137.546"/>
<polygon fill="midnightblue" stroke="midnightblue" points="105.031,-261.03 102.373,-271.286 110.847,-264.926 105.031,-261.03"/>
</g>
<!-- Node14 -->
<g id="node14" class="node"><title>Node14</title>
<g id="a_node14"><a xlink:href="classmfem_1_1VectorFEBoundaryFluxLFIntegrator.html" target="_top" xlink:title="mfem::VectorFEBoundaryFlux\lLFIntegrator">
<polygon fill="white" stroke="black" points="242.5,-57 242.5,-95 441.5,-95 441.5,-57 242.5,-57"/>
<text text-anchor="start" x="250.5" y="-79.8" font-family="Helvetica,sans-Serif" font-size="14.00">mfem::VectorFEBoundaryFlux</text>
<text text-anchor="middle" x="342" y="-64.8" font-family="Helvetica,sans-Serif" font-size="14.00">LFIntegrator</text>
</a>
</g>
</g>
<!-- Node1&#45;&gt;Node14 -->
<g id="edge13" class="edge"><title>Node1&#45;&gt;Node14</title>
<path fill="none" stroke="midnightblue" d="M104.279,-261.766C121.887,-224.058 163.841,-145.57 224,-105 229.726,-101.139 235.919,-97.7911 242.365,-94.8888"/>
<polygon fill="midnightblue" stroke="midnightblue" points="100.918,-260.703 99.9633,-271.254 107.289,-263.601 100.918,-260.703"/>
</g>
<!-- Node15 -->
<g id="node15" class="node"><title>Node15</title>
<g id="a_node15"><a xlink:href="classmfem_1_1VectorFEBoundaryTangentLFIntegrator.html" target="_top" xlink:title="Class for boundary integration . ">
<polygon fill="white" stroke="black" points="230.5,-0 230.5,-38 453.5,-38 453.5,-0 230.5,-0"/>
<text text-anchor="start" x="238.5" y="-22.8" font-family="Helvetica,sans-Serif" font-size="14.00">mfem::VectorFEBoundaryTangent</text>
<text text-anchor="middle" x="342" y="-7.8" font-family="Helvetica,sans-Serif" font-size="14.00">LFIntegrator</text>
</a>
</g>
</g>
<!-- Node1&#45;&gt;Node15 -->
<g id="edge14" class="edge"><title>Node1&#45;&gt;Node15</title>
<path fill="none" stroke="midnightblue" d="M100.351,-261.534C113.162,-214.786 150.165,-103.448 224,-47 228.397,-43.6384 233.137,-40.6727 238.103,-38.057"/>
<polygon fill="midnightblue" stroke="midnightblue" points="96.8961,-260.909 97.7296,-271.471 103.665,-262.694 96.8961,-260.909"/>
</g>
<!-- Node7 -->
<g id="node7" class="node"><title>Node7</title>
<g id="a_node7"><a xlink:href="classmfem_1_1DomainLFIntegrator.html" target="_top" xlink:title="Class for domain integration L(v) := (f, v) ">
<polygon fill="white" stroke="black" points="524,-355.5 524,-378.5 704,-378.5 704,-355.5 524,-355.5"/>
<text text-anchor="middle" x="614" y="-363.3" font-family="Helvetica,sans-Serif" font-size="14.00">mfem::DomainLFIntegrator</text>
</a>
</g>
</g>
<!-- Node6&#45;&gt;Node7 -->
<g id="edge6" class="edge"><title>Node6&#45;&gt;Node7</title>
<path fill="none" stroke="midnightblue" d="M427.086,-338.08C462.926,-343.655 504.375,-350.103 539.03,-355.493"/>
<polygon fill="midnightblue" stroke="midnightblue" points="427.555,-334.611 417.136,-336.532 426.479,-341.528 427.555,-334.611"/>
</g>
<!-- Node8 -->
<g id="node8" class="node"><title>Node8</title>
<g id="a_node8"><a xlink:href="classmfem_1_1VectorDomainLFIntegrator.html" target="_top" xlink:title="mfem::VectorDomainLFIntegrator">
<polygon fill="white" stroke="black" points="504.5,-313.5 504.5,-336.5 723.5,-336.5 723.5,-313.5 504.5,-313.5"/>
<text text-anchor="middle" x="614" y="-321.3" font-family="Helvetica,sans-Serif" font-size="14.00">mfem::VectorDomainLFIntegrator</text>
</a>
</g>
</g>
<!-- Node6&#45;&gt;Node8 -->
<g id="edge7" class="edge"><title>Node6&#45;&gt;Node8</title>
<path fill="none" stroke="midnightblue" d="M434.183,-325C456.628,-325 480.885,-325 504.074,-325"/>
<polygon fill="midnightblue" stroke="midnightblue" points="434.009,-321.5 424.009,-325 434.009,-328.5 434.009,-321.5"/>
</g>
<!-- Node9 -->
<g id="node9" class="node"><title>Node9</title>
<g id="a_node9"><a xlink:href="classmfem_1_1VectorFEDomainLFIntegrator.html" target="_top" xlink:title=" for VectorFiniteElements (Nedelec, Raviart&#45;Thomas) ">
<polygon fill="white" stroke="black" points="496,-271.5 496,-294.5 732,-294.5 732,-271.5 496,-271.5"/>
<text text-anchor="middle" x="614" y="-279.3" font-family="Helvetica,sans-Serif" font-size="14.00">mfem::VectorFEDomainLFIntegrator</text>
</a>
</g>
</g>
<!-- Node6&#45;&gt;Node9 -->
<g id="edge8" class="edge"><title>Node6&#45;&gt;Node9</title>
<path fill="none" stroke="midnightblue" d="M427.086,-311.92C462.926,-306.345 504.375,-299.897 539.03,-294.507"/>
<polygon fill="midnightblue" stroke="midnightblue" points="426.479,-308.472 417.136,-313.468 427.555,-315.389 426.479,-308.472"/>
</g>
</g>
</svg>
