<?xml version="1.0" encoding="UTF-8" standalone="no"?>
<!DOCTYPE svg PUBLIC "-//W3C//DTD SVG 1.1//EN"
 "http://www.w3.org/Graphics/SVG/1.1/DTD/svg11.dtd">
<!-- Generated by graphviz version 2.30.1 (20170916.1124)
 -->
<!-- Title: mfem::TTensor3&lt; N1, N2, N3, data_t, align &gt; Pages: 1 -->
<svg width="170pt" height="124pt"
 viewBox="0.00 0.00 170.00 124.00" xmlns="http://www.w3.org/2000/svg" xmlns:xlink="http://www.w3.org/1999/xlink">
<g id="graph0" class="graph" transform="scale(1 1) rotate(0) translate(4 120)">
<title>mfem::TTensor3&lt; N1, N2, N3, data_t, align &gt;</title>
<polygon fill="white" stroke="white" points="-4,5 -4,-120 167,-120 167,5 -4,5"/>
<!-- Node1 -->
<g id="node1" class="node"><title>Node1</title>
<polygon fill="#bfbfbf" stroke="black" points="3.5,-1 3.5,-39 158.5,-39 158.5,-1 3.5,-1"/>
<text text-anchor="start" x="11.5" y="-23.8" font-family="Helvetica,sans-Serif" font-size="14.00">mfem::TTensor3&lt; N1,</text>
<text text-anchor="middle" x="81" y="-8.8" font-family="Helvetica,sans-Serif" font-size="14.00"> N2, N3, data_t, align &gt;</text>
</g>
<!-- Node2 -->
<g id="node2" class="node"><title>Node2</title>
<g id="a_node2"><a xlink:href="structmfem_1_1TVector.html" target="_top" xlink:title="mfem::TVector\&lt; N1 *N2\l *N3, data_t, align \&gt;">
<polygon fill="white" stroke="black" points="0,-77 0,-115 162,-115 162,-77 0,-77"/>
<text text-anchor="start" x="8" y="-99.8" font-family="Helvetica,sans-Serif" font-size="14.00">mfem::TVector&lt; N1 *N2</text>
<text text-anchor="middle" x="81" y="-84.8" font-family="Helvetica,sans-Serif" font-size="14.00"> *N3, data_t, align &gt;</text>
</a>
</g>
</g>
<!-- Node2&#45;&gt;Node1 -->
<g id="edge1" class="edge"><title>Node2&#45;&gt;Node1</title>
<path fill="none" stroke="midnightblue" d="M81,-66.7024C81,-57.4309 81,-47.3865 81,-39.0817"/>
<polygon fill="midnightblue" stroke="midnightblue" points="77.5001,-66.7078 81,-76.7079 84.5001,-66.7079 77.5001,-66.7078"/>
</g>
</g>
</svg>
