<?xml version="1.0" encoding="UTF-8" standalone="no"?>
<!DOCTYPE svg PUBLIC "-//W3C//DTD SVG 1.1//EN"
 "http://www.w3.org/Graphics/SVG/1.1/DTD/svg11.dtd">
<!-- Generated by graphviz version 2.26.3 (20100126.1600)
 -->
<!-- Title: G Pages: 1 -->
<!--zoomable 364 -->
<svg id="main" version="1.1" xmlns="http://www.w3.org/2000/svg" xmlns:xlink="http://www.w3.org/1999/xlink" xml:space="preserve" onload="init(evt)">
        <defs>
                <circle id="rim" cx="0" cy="0" r="7"/>
                <circle id="rim2" cx="0" cy="0" r="3.5"/>
                <g id="zoomPlus">
                        <use xlink:href="#rim" fill="#404040">
                                <set attributeName="fill" to="#808080" begin="zoomplus.mouseover" end="zoomplus.mouseout"/>
                        </use>
                        <path d="M-4,0h8M0,-4v8" fill="none" stroke="white" stroke-width="1.5" pointer-events="none"/>
                </g>
                <g id="zoomMin">
                        <use xlink:href="#rim" fill="#404040">
                                <set attributeName="fill" to="#808080" begin="zoomminus.mouseover" end="zoomminus.mouseout"/>
                        </use>
                        <path d="M-4,0h8" fill="none" stroke="white" stroke-width="1.5" pointer-events="none"/>
                </g>
                <g id="dirArrow">
                        <path fill="none" stroke="white" stroke-width="1.5" d="M0,-3.0v7 M-2.5,-0.5L0,-3.0L2.5,-0.5"/>
                </g>
               <g id="resetDef">
                       <use xlink:href="#rim2" fill="#404040">
                               <set attributeName="fill" to="#808080" begin="reset.mouseover" end="reset.mouseout"/>
                       </use>
               </g>
        </defs>

<script type="text/javascript">
var viewWidth = 508;
var viewHeight = 364;
var sectionId = 'dynsection-0';
</script>
<script xlink:href="svgpan.js"/>
<svg id="graph" class="graph">
<g id="viewport">
<title>G</title>
<polygon fill="white" stroke="white" points="-4,5 -4,-360 505.062,-360 505.062,5 -4,5"/>
<!-- Node1 -->
<g id="node1" class="node"><title>Node1</title>
<polygon fill="#bfbfbf" stroke="black" points="70.0624,-336.5 70.0624,-355.5 142.062,-355.5 142.062,-336.5 70.0624,-336.5"/>
<text text-anchor="middle" x="106.062" y="-342.5" font-family="FreeSans" font-size="10.00">cgsolver.cpp</text>
</g>
<!-- Node2 -->
<g id="node3" class="node"><title>Node2</title>
<polygon fill="white" stroke="#bfbfbf" points="44.5624,-0.5 44.5624,-19.5 99.5624,-19.5 99.5624,-0.5 44.5624,-0.5"/>
<text text-anchor="middle" x="72.0624" y="-6.5" font-family="FreeSans" font-size="10.00">iostream</text>
</g>
<!-- Node1&#45;&gt;Node2 -->
<g id="edge2" class="edge"><title>Node1&#45;&gt;Node2</title>
<path fill="none" stroke="midnightblue" d="M74.6114,-336.397C55.971,-329.186 33.2849,-317.503 19.0624,-300 -0.187272,-276.31 0.0624239,-264.525 0.0624239,-234 0.0624239,-234 0.0624239,-234 0.0624239,-122 0.0624239,-83.0554 31.2464,-46.8622 52.5693,-26.6662"/>
<polygon fill="midnightblue" stroke="midnightblue" points="55.1393,-29.0595 60.1731,-19.7368 50.4243,-23.8856 55.1393,-29.0595"/>
</g>
<!-- Node3 -->
<g id="node5" class="node"><title>Node3</title>
<polygon fill="white" stroke="#bfbfbf" points="27.5624,-280.5 27.5624,-299.5 78.5624,-299.5 78.5624,-280.5 27.5624,-280.5"/>
<text text-anchor="middle" x="53.0624" y="-286.5" font-family="FreeSans" font-size="10.00">iomanip</text>
</g>
<!-- Node1&#45;&gt;Node3 -->
<g id="edge4" class="edge"><title>Node1&#45;&gt;Node3</title>
<path fill="none" stroke="midnightblue" d="M96.8305,-336.246C89.2307,-328.216 78.2747,-316.639 69.2257,-307.078"/>
<polygon fill="midnightblue" stroke="midnightblue" points="71.6044,-304.5 62.1885,-299.643 66.5204,-309.311 71.6044,-304.5"/>
</g>
<!-- Node4 -->
<g id="node7" class="node"><title>Node4</title>
<a xlink:href="vector_8hpp.html" target="_top" xlink:title="vector.hpp">
<polygon fill="white" stroke="black" points="96.0624,-168.5 96.0624,-187.5 160.062,-187.5 160.062,-168.5 96.0624,-168.5"/>
<text text-anchor="middle" x="128.062" y="-174.5" font-family="FreeSans" font-size="10.00">vector.hpp</text>
</a>
</g>
<!-- Node1&#45;&gt;Node4 -->
<g id="edge6" class="edge"><title>Node1&#45;&gt;Node4</title>
<path fill="none" stroke="midnightblue" d="M107.308,-336.486C110.786,-309.929 120.655,-234.565 125.422,-198.166"/>
<polygon fill="midnightblue" stroke="midnightblue" points="128.947,-198.198 126.775,-187.828 122.007,-197.289 128.947,-198.198"/>
</g>
<!-- Node10 -->
<g id="node21" class="node"><title>Node10</title>
<a xlink:href="matrix_8hpp.html" target="_top" xlink:title="matrix.hpp">
<polygon fill="white" stroke="black" points="138.562,-280.5 138.562,-299.5 201.562,-299.5 201.562,-280.5 138.562,-280.5"/>
<text text-anchor="middle" x="170.062" y="-286.5" font-family="FreeSans" font-size="10.00">matrix.hpp</text>
</a>
</g>
<!-- Node1&#45;&gt;Node10 -->
<g id="edge22" class="edge"><title>Node1&#45;&gt;Node10</title>
<path fill="none" stroke="midnightblue" d="M117.21,-336.246C126.571,-328.055 140.148,-316.175 151.197,-306.507"/>
<polygon fill="midnightblue" stroke="midnightblue" points="153.821,-308.862 159.042,-299.643 149.212,-303.594 153.821,-308.862"/>
</g>
<!-- Node12 -->
<g id="node27" class="node"><title>Node12</title>
<a xlink:href="sparsemat_8hpp.html" target="_top" xlink:title="sparsemat.hpp">
<polygon fill="white" stroke="black" points="269.562,-280.5 269.562,-299.5 352.562,-299.5 352.562,-280.5 269.562,-280.5"/>
<text text-anchor="middle" x="311.062" y="-286.5" font-family="FreeSans" font-size="10.00">sparsemat.hpp</text>
</a>
</g>
<!-- Node1&#45;&gt;Node12 -->
<g id="edge30" class="edge"><title>Node1&#45;&gt;Node12</title>
<path fill="none" stroke="midnightblue" d="M141.303,-336.373C175.982,-326.9 229.051,-312.403 266.609,-302.143"/>
<polygon fill="midnightblue" stroke="midnightblue" points="267.557,-305.513 276.282,-299.501 265.713,-298.76 267.557,-305.513"/>
</g>
<!-- Node5 -->
<g id="node9" class="node"><title>Node5</title>
<polygon fill="white" stroke="#bfbfbf" points="69.5624,-112.5 69.5624,-131.5 116.562,-131.5 116.562,-112.5 69.5624,-112.5"/>
<text text-anchor="middle" x="93.0624" y="-118.5" font-family="FreeSans" font-size="10.00">math.h</text>
</g>
<!-- Node4&#45;&gt;Node5 -->
<g id="edge8" class="edge"><title>Node4&#45;&gt;Node5</title>
<path fill="none" stroke="midnightblue" d="M121.966,-168.246C117.148,-160.537 110.287,-149.56 104.459,-140.235"/>
<polygon fill="midnightblue" stroke="midnightblue" points="107.357,-138.268 99.0891,-131.643 101.421,-141.978 107.357,-138.268"/>
</g>
<!-- Node6 -->
<g id="node11" class="node"><title>Node6</title>
<a xlink:href="array_8hpp.html" target="_top" xlink:title="../general/array.hpp">
<polygon fill="white" stroke="black" points="133.562,-112.5 133.562,-131.5 236.562,-131.5 236.562,-112.5 133.562,-112.5"/>
<text text-anchor="middle" x="185.062" y="-118.5" font-family="FreeSans" font-size="10.00">../general/array.hpp</text>
</a>
</g>
<!-- Node4&#45;&gt;Node6 -->
<g id="edge10" class="edge"><title>Node4&#45;&gt;Node6</title>
<path fill="none" stroke="midnightblue" d="M137.991,-168.246C146.246,-160.135 158.183,-148.408 167.971,-138.792"/>
<polygon fill="midnightblue" stroke="midnightblue" points="170.567,-141.148 175.248,-131.643 165.661,-136.154 170.567,-141.148"/>
</g>
<!-- Node6&#45;&gt;Node2 -->
<g id="edge12" class="edge"><title>Node6&#45;&gt;Node2</title>
<path fill="none" stroke="midnightblue" d="M149.272,-112.363C129.509,-105.317 106.009,-93.8171 91.0624,-76 80.1783,-63.0253 75.523,-44.1319 73.5351,-29.881"/>
<polygon fill="midnightblue" stroke="midnightblue" points="76.9848,-29.222 72.4447,-19.6493 70.0242,-29.9639 76.9848,-29.222"/>
</g>
<!-- Node7 -->
<g id="node14" class="node"><title>Node7</title>
<polygon fill="white" stroke="#bfbfbf" points="99.5624,-56.5 99.5624,-75.5 144.562,-75.5 144.562,-56.5 99.5624,-56.5"/>
<text text-anchor="middle" x="122.062" y="-62.5" font-family="FreeSans" font-size="10.00">cstdlib</text>
</g>
<!-- Node6&#45;&gt;Node7 -->
<g id="edge14" class="edge"><title>Node6&#45;&gt;Node7</title>
<path fill="none" stroke="midnightblue" d="M174.089,-112.246C164.874,-104.055 151.509,-92.1749 140.633,-82.5069"/>
<polygon fill="midnightblue" stroke="midnightblue" points="142.71,-79.6704 132.91,-75.6427 138.059,-84.9023 142.71,-79.6704"/>
</g>
<!-- Node8 -->
<g id="node16" class="node"><title>Node8</title>
<polygon fill="white" stroke="#bfbfbf" points="162.062,-56.5 162.062,-75.5 208.062,-75.5 208.062,-56.5 162.062,-56.5"/>
<text text-anchor="middle" x="185.062" y="-62.5" font-family="FreeSans" font-size="10.00">cstring</text>
</g>
<!-- Node6&#45;&gt;Node8 -->
<g id="edge16" class="edge"><title>Node6&#45;&gt;Node8</title>
<path fill="none" stroke="midnightblue" d="M185.062,-112.246C185.062,-104.938 185.062,-94.6944 185.062,-85.7046"/>
<polygon fill="midnightblue" stroke="midnightblue" points="188.563,-85.6426 185.062,-75.6427 181.563,-85.6427 188.563,-85.6426"/>
</g>
<!-- Node9 -->
<g id="node18" class="node"><title>Node9</title>
<a xlink:href="error_8hpp.html" target="_top" xlink:title="error.hpp">
<polygon fill="white" stroke="black" points="226.062,-56.5 226.062,-75.5 282.062,-75.5 282.062,-56.5 226.062,-56.5"/>
<text text-anchor="middle" x="254.062" y="-62.5" font-family="FreeSans" font-size="10.00">error.hpp</text>
</a>
</g>
<!-- Node6&#45;&gt;Node9 -->
<g id="edge18" class="edge"><title>Node6&#45;&gt;Node9</title>
<path fill="none" stroke="midnightblue" d="M197.081,-112.246C207.272,-103.975 222.099,-91.9416 234.073,-82.2232"/>
<polygon fill="midnightblue" stroke="midnightblue" points="236.622,-84.662 242.181,-75.6427 232.211,-79.2268 236.622,-84.662"/>
</g>
<!-- Node9&#45;&gt;Node2 -->
<g id="edge20" class="edge"><title>Node9&#45;&gt;Node2</title>
<path fill="none" stroke="midnightblue" d="M226.024,-57.3727C194.805,-47.7668 144.194,-32.1943 109.582,-21.5446"/>
<polygon fill="midnightblue" stroke="midnightblue" points="110.421,-18.1409 99.8343,-18.5452 108.363,-24.8313 110.421,-18.1409"/>
</g>
<!-- Node10&#45;&gt;Node6 -->
<g id="edge24" class="edge"><title>Node10&#45;&gt;Node6</title>
<path fill="none" stroke="midnightblue" d="M184.436,-280.185C195.133,-271.941 208.903,-259.104 215.062,-244 229.395,-208.853 210.379,-165.114 196.73,-140.706"/>
<polygon fill="midnightblue" stroke="midnightblue" points="199.577,-138.642 191.496,-131.791 193.541,-142.187 199.577,-138.642"/>
</g>
<!-- Node11 -->
<g id="node24" class="node"><title>Node11</title>
<a xlink:href="operator_8hpp.html" target="_top" xlink:title="operator.hpp">
<polygon fill="white" stroke="black" points="133.562,-224.5 133.562,-243.5 206.562,-243.5 206.562,-224.5 133.562,-224.5"/>
<text text-anchor="middle" x="170.062" y="-230.5" font-family="FreeSans" font-size="10.00">operator.hpp</text>
</a>
</g>
<!-- Node10&#45;&gt;Node11 -->
<g id="edge26" class="edge"><title>Node10&#45;&gt;Node11</title>
<path fill="none" stroke="midnightblue" d="M170.062,-280.246C170.062,-272.938 170.062,-262.694 170.062,-253.705"/>
<polygon fill="midnightblue" stroke="midnightblue" points="173.563,-253.643 170.062,-243.643 166.563,-253.643 173.563,-253.643"/>
</g>
<!-- Node11&#45;&gt;Node4 -->
<g id="edge28" class="edge"><title>Node11&#45;&gt;Node4</title>
<path fill="none" stroke="midnightblue" d="M162.747,-224.246C156.845,-216.376 148.388,-205.101 141.303,-195.654"/>
<polygon fill="midnightblue" stroke="midnightblue" points="144.094,-193.543 135.294,-187.643 138.494,-197.743 144.094,-193.543"/>
</g>
<!-- Node13 -->
<g id="node29" class="node"><title>Node13</title>
<a xlink:href="mem__alloc_8hpp.html" target="_top" xlink:title="../general/mem_alloc.hpp">
<polygon fill="white" stroke="black" points="274.062,-168.5 274.062,-187.5 402.062,-187.5 402.062,-168.5 274.062,-168.5"/>
<text text-anchor="middle" x="338.062" y="-174.5" font-family="FreeSans" font-size="10.00">../general/mem_alloc.hpp</text>
</a>
</g>
<!-- Node12&#45;&gt;Node13 -->
<g id="edge32" class="edge"><title>Node12&#45;&gt;Node13</title>
<path fill="none" stroke="midnightblue" d="M304.031,-280.383C295.41,-267.336 282.894,-243.425 291.062,-224 296.06,-212.115 305.794,-201.765 315.113,-193.908"/>
<polygon fill="midnightblue" stroke="midnightblue" points="317.358,-196.595 323.066,-187.669 313.038,-191.087 317.358,-196.595"/>
</g>
<!-- Node14 -->
<g id="node31" class="node"><title>Node14</title>
<a xlink:href="table_8hpp.html" target="_top" xlink:title="../general/table.hpp">
<polygon fill="white" stroke="black" points="300.062,-224.5 300.062,-243.5 402.062,-243.5 402.062,-224.5 300.062,-224.5"/>
<text text-anchor="middle" x="351.062" y="-230.5" font-family="FreeSans" font-size="10.00">../general/table.hpp</text>
</a>
</g>
<!-- Node12&#45;&gt;Node14 -->
<g id="edge34" class="edge"><title>Node12&#45;&gt;Node14</title>
<path fill="none" stroke="midnightblue" d="M318.03,-280.246C323.594,-272.456 331.54,-261.331 338.245,-251.944"/>
<polygon fill="midnightblue" stroke="midnightblue" points="341.21,-253.814 344.175,-243.643 335.514,-249.746 341.21,-253.814"/>
</g>
<!-- Node15 -->
<g id="node34" class="node"><title>Node15</title>
<a xlink:href="densemat_8hpp.html" target="_top" xlink:title="densemat.hpp">
<polygon fill="white" stroke="black" points="420.062,-224.5 420.062,-243.5 500.062,-243.5 500.062,-224.5 420.062,-224.5"/>
<text text-anchor="middle" x="460.062" y="-230.5" font-family="FreeSans" font-size="10.00">densemat.hpp</text>
</a>
</g>
<!-- Node12&#45;&gt;Node15 -->
<g id="edge38" class="edge"><title>Node12&#45;&gt;Node15</title>
<path fill="none" stroke="midnightblue" d="M336.676,-280.373C361.131,-271.182 398.168,-257.262 425.283,-247.071"/>
<polygon fill="midnightblue" stroke="midnightblue" points="426.653,-250.296 434.783,-243.501 424.191,-243.743 426.653,-250.296"/>
</g>
<!-- Node14&#45;&gt;Node13 -->
<g id="edge36" class="edge"><title>Node14&#45;&gt;Node13</title>
<path fill="none" stroke="midnightblue" d="M348.798,-224.246C347.083,-216.858 344.671,-206.469 342.568,-197.409"/>
<polygon fill="midnightblue" stroke="midnightblue" points="345.972,-196.592 340.301,-187.643 339.153,-198.175 345.972,-196.592"/>
</g>
</g>
</svg>
        <g id="navigator" transform="translate(0 0)" fill="#404254">
                <rect fill="#f2f5e9" fill-opacity="0.5" stroke="#606060" stroke-width=".5" x="0" y="0" width="60" height="60"/>
                <use id="zoomplus" xlink:href="#zoomPlus" x="17" y="9" onmousedown="handleZoom(evt,'in')"/>
                <use id="zoomminus" xlink:href="#zoomMin" x="42" y="9" onmousedown="handleZoom(evt,'out')"/>
                <use id="reset" xlink:href="#resetDef" x="30" y="36" onmousedown="handleReset()"/>
                <g id="arrowUp" xlink:href="#dirArrow" transform="translate(30 24)" onmousedown="handlePan(0,-1)">
                  <use xlink:href="#rim" fill="#404040">
                        <set attributeName="fill" to="#808080" begin="arrowUp.mouseover" end="arrowUp.mouseout"/>
                  </use>
                  <path fill="none" stroke="white" stroke-width="1.5" d="M0,-3.0v7 M-2.5,-0.5L0,-3.0L2.5,-0.5"/>
                </g>
                <g id="arrowRight" xlink:href="#dirArrow" transform="rotate(90) translate(36 -43)" onmousedown="handlePan(1,0)">
                  <use xlink:href="#rim" fill="#404040">
                        <set attributeName="fill" to="#808080" begin="arrowRight.mouseover" end="arrowRight.mouseout"/>
                  </use>
                  <path fill="none" stroke="white" stroke-width="1.5" d="M0,-3.0v7 M-2.5,-0.5L0,-3.0L2.5,-0.5"/>
                </g>
                <g id="arrowDown" xlink:href="#dirArrow" transform="rotate(180) translate(-30 -48)" onmousedown="handlePan(0,1)">
                  <use xlink:href="#rim" fill="#404040">
                        <set attributeName="fill" to="#808080" begin="arrowDown.mouseover" end="arrowDown.mouseout"/>
                  </use>
                  <path fill="none" stroke="white" stroke-width="1.5" d="M0,-3.0v7 M-2.5,-0.5L0,-3.0L2.5,-0.5"/>
                </g>
                <g id="arrowLeft" xlink:href="#dirArrow" transform="rotate(270) translate(-36 17)" onmousedown="handlePan(-1,0)">
                  <use xlink:href="#rim" fill="#404040">
                        <set attributeName="fill" to="#808080" begin="arrowLeft.mouseover" end="arrowLeft.mouseout"/>
                  </use>
                  <path fill="none" stroke="white" stroke-width="1.5" d="M0,-3.0v7 M-2.5,-0.5L0,-3.0L2.5,-0.5"/>
                </g>
        </g>
</svg>
