<?xml version="1.0" encoding="UTF-8" standalone="no"?>
<!DOCTYPE svg PUBLIC "-//W3C//DTD SVG 1.1//EN"
 "http://www.w3.org/Graphics/SVG/1.1/DTD/svg11.dtd">
<!-- Generated by graphviz version 2.26.3 (20100126.1600)
 -->
<!-- Title: G Pages: 1 -->
<svg width="400pt" height="358pt"
 viewBox="0.00 0.00 400.00 358.00" xmlns="http://www.w3.org/2000/svg" xmlns:xlink="http://www.w3.org/1999/xlink">
<g id="graph1" class="graph" transform="scale(1 1) rotate(0) translate(4 354)">
<title>G</title>
<polygon fill="white" stroke="white" points="-4,5 -4,-354 397,-354 397,5 -4,5"/>
<!-- Node1 -->
<g id="node1" class="node"><title>Node1</title>
<polygon fill="#bfbfbf" stroke="black" points="114.5,-0.5 114.5,-19.5 275.5,-19.5 275.5,-0.5 114.5,-0.5"/>
<text text-anchor="middle" x="195" y="-6.5" font-family="FreeSans" font-size="10.00">QuadraticDiscont2DFECollection</text>
</g>
<!-- Node2 -->
<g id="node2" class="node"><title>Node2</title>
<a xlink:href="classFiniteElementCollection.html" target="_top" xlink:title="FiniteElementCollection">
<polygon fill="white" stroke="black" points="-0.5,-68.5 -0.5,-87.5 120.5,-87.5 120.5,-68.5 -0.5,-68.5"/>
<text text-anchor="middle" x="60" y="-74.5" font-family="FreeSans" font-size="10.00">FiniteElementCollection</text>
</a>
</g>
<!-- Node2&#45;&gt;Node1 -->
<g id="edge2" class="edge"><title>Node2&#45;&gt;Node1</title>
<path fill="none" stroke="midnightblue" d="M88.1586,-63.8164C114.517,-50.5396 153.171,-31.0697 176.041,-19.5497"/>
<polygon fill="midnightblue" stroke="midnightblue" points="86.4124,-60.777 79.0559,-68.4015 89.5614,-67.0287 86.4124,-60.777"/>
</g>
<!-- Node3 -->
<g id="node4" class="node"><title>Node3</title>
<a xlink:href="classQuad2DFiniteElement.html" target="_top" xlink:title="Class for quadratic FE on triangle.">
<polygon fill="white" stroke="black" points="138,-68.5 138,-87.5 252,-87.5 252,-68.5 138,-68.5"/>
<text text-anchor="middle" x="195" y="-74.5" font-family="FreeSans" font-size="10.00">Quad2DFiniteElement</text>
</a>
</g>
<!-- Node3&#45;&gt;Node1 -->
<g id="edge4" class="edge"><title>Node3&#45;&gt;Node1</title>
<path fill="none" stroke="#9a32cd" stroke-dasharray="5,2" d="M195,-58.1951C195,-45.5514 195,-29.7157 195,-19.7247"/>
<polygon fill="#9a32cd" stroke="#9a32cd" points="191.5,-58.2572 195,-68.2573 198.5,-58.2573 191.5,-58.2572"/>
<text text-anchor="middle" x="221.5" y="-40.5" font-family="FreeSans" font-size="10.00"> TriangleFE</text>
</g>
<!-- Node4 -->
<g id="node6" class="node"><title>Node4</title>
<a xlink:href="classNodalFiniteElement.html" target="_top" xlink:title="NodalFiniteElement">
<polygon fill="white" stroke="black" points="183,-126.5 183,-145.5 287,-145.5 287,-126.5 183,-126.5"/>
<text text-anchor="middle" x="235" y="-132.5" font-family="FreeSans" font-size="10.00">NodalFiniteElement</text>
</a>
</g>
<!-- Node4&#45;&gt;Node3 -->
<g id="edge6" class="edge"><title>Node4&#45;&gt;Node3</title>
<path fill="none" stroke="midnightblue" d="M222.59,-118.006C215.714,-108.036 207.433,-96.0281 201.749,-87.7856"/>
<polygon fill="midnightblue" stroke="midnightblue" points="219.836,-120.177 228.395,-126.422 225.599,-116.203 219.836,-120.177"/>
</g>
<!-- Node9 -->
<g id="node16" class="node"><title>Node9</title>
<a xlink:href="classBiQuad2DFiniteElement.html" target="_top" xlink:title="Class for bi&#45;quadratic FE on quadrilateral.">
<polygon fill="white" stroke="black" points="269.5,-68.5 269.5,-87.5 392.5,-87.5 392.5,-68.5 269.5,-68.5"/>
<text text-anchor="middle" x="331" y="-74.5" font-family="FreeSans" font-size="10.00">BiQuad2DFiniteElement</text>
</a>
</g>
<!-- Node4&#45;&gt;Node9 -->
<g id="edge18" class="edge"><title>Node4&#45;&gt;Node9</title>
<path fill="none" stroke="midnightblue" d="M259.423,-121.245C276.916,-110.676 299.969,-96.748 315.124,-87.5917"/>
<polygon fill="midnightblue" stroke="midnightblue" points="257.602,-118.256 250.852,-126.422 261.222,-124.247 257.602,-118.256"/>
</g>
<!-- Node5 -->
<g id="node8" class="node"><title>Node5</title>
<a xlink:href="classFiniteElement.html" target="_top" xlink:title="Abstract class for Finite Elements.">
<polygon fill="white" stroke="black" points="137,-194.5 137,-213.5 215,-213.5 215,-194.5 137,-194.5"/>
<text text-anchor="middle" x="176" y="-200.5" font-family="FreeSans" font-size="10.00">FiniteElement</text>
</a>
</g>
<!-- Node5&#45;&gt;Node4 -->
<g id="edge8" class="edge"><title>Node5&#45;&gt;Node4</title>
<path fill="none" stroke="midnightblue" d="M191.221,-186.457C202.47,-173.492 217.368,-156.321 226.562,-145.725"/>
<polygon fill="midnightblue" stroke="midnightblue" points="188.363,-184.41 184.453,-194.257 193.65,-188.998 188.363,-184.41"/>
</g>
<!-- Node6 -->
<g id="node10" class="node"><title>Node6</title>
<a xlink:href="classIntegrationRule.html" target="_top" xlink:title="Class for integration rule.">
<polygon fill="white" stroke="black" points="134,-262.5 134,-281.5 218,-281.5 218,-262.5 134,-262.5"/>
<text text-anchor="middle" x="176" y="-268.5" font-family="FreeSans" font-size="10.00">IntegrationRule</text>
</a>
</g>
<!-- Node6&#45;&gt;Node5 -->
<g id="edge10" class="edge"><title>Node6&#45;&gt;Node5</title>
<path fill="none" stroke="#9a32cd" stroke-dasharray="5,2" d="M176,-252.195C176,-239.551 176,-223.716 176,-213.725"/>
<polygon fill="#9a32cd" stroke="#9a32cd" points="172.5,-252.257 176,-262.257 179.5,-252.257 172.5,-252.257"/>
<text text-anchor="middle" x="192.5" y="-234.5" font-family="FreeSans" font-size="10.00"> Nodes</text>
</g>
<!-- Node7 -->
<g id="node12" class="node"><title>Node7</title>
<a xlink:href="classIntegrationPoint.html" target="_top" xlink:title="Class for integration point with weight.">
<polygon fill="white" stroke="black" points="133,-330.5 133,-349.5 219,-349.5 219,-330.5 133,-330.5"/>
<text text-anchor="middle" x="176" y="-336.5" font-family="FreeSans" font-size="10.00">IntegrationPoint</text>
</a>
</g>
<!-- Node7&#45;&gt;Node6 -->
<g id="edge12" class="edge"><title>Node7&#45;&gt;Node6</title>
<path fill="none" stroke="#9a32cd" stroke-dasharray="5,2" d="M176,-320.195C176,-307.551 176,-291.716 176,-281.725"/>
<polygon fill="#9a32cd" stroke="#9a32cd" points="172.5,-320.257 176,-330.257 179.5,-320.257 172.5,-320.257"/>
<text text-anchor="middle" x="197.5" y="-302.5" font-family="FreeSans" font-size="10.00"> IntPoints</text>
</g>
<!-- Node8 -->
<g id="node14" class="node"><title>Node8</title>
<a xlink:href="classVector.html" target="_top" xlink:title="Vector data type.">
<polygon fill="white" stroke="black" points="232.5,-194.5 232.5,-213.5 277.5,-213.5 277.5,-194.5 232.5,-194.5"/>
<text text-anchor="middle" x="255" y="-200.5" font-family="FreeSans" font-size="10.00">Vector</text>
</a>
</g>
<!-- Node8&#45;&gt;Node4 -->
<g id="edge14" class="edge"><title>Node8&#45;&gt;Node4</title>
<path fill="none" stroke="#9a32cd" stroke-dasharray="5,2" d="M249.287,-184.577C245.551,-171.872 240.828,-155.817 237.86,-145.725"/>
<polygon fill="#9a32cd" stroke="#9a32cd" points="245.955,-185.651 252.134,-194.257 252.671,-183.676 245.955,-185.651"/>
<text text-anchor="middle" x="267" y="-166.5" font-family="FreeSans" font-size="10.00"> c_shape</text>
</g>
<!-- Node9&#45;&gt;Node1 -->
<g id="edge16" class="edge"><title>Node9&#45;&gt;Node1</title>
<path fill="none" stroke="#9a32cd" stroke-dasharray="5,2" d="M302.906,-63.6713C287.834,-56.0105 268.928,-46.4427 252,-38 239.569,-31.7997 225.566,-24.9199 214.551,-19.5314"/>
<polygon fill="#9a32cd" stroke="#9a32cd" points="301.697,-66.9834 312.197,-68.3991 304.872,-60.7446 301.697,-66.9834"/>
<text text-anchor="middle" x="310" y="-40.5" font-family="FreeSans" font-size="10.00"> QuadrilateralFE</text>
</g>
</g>
</svg>
