<?xml version="1.0" encoding="UTF-8" standalone="no"?>
<!DOCTYPE svg PUBLIC "-//W3C//DTD SVG 1.1//EN"
 "http://www.w3.org/Graphics/SVG/1.1/DTD/svg11.dtd">
<!-- Generated by graphviz version 2.26.3 (20100126.1600)
 -->
<!-- Title: G Pages: 1 -->
<!--zoomable 140 -->
<svg id="main" version="1.1" xmlns="http://www.w3.org/2000/svg" xmlns:xlink="http://www.w3.org/1999/xlink" xml:space="preserve" onload="init(evt)">
        <defs>
                <circle id="rim" cx="0" cy="0" r="7"/>
                <circle id="rim2" cx="0" cy="0" r="3.5"/>
                <g id="zoomPlus">
                        <use xlink:href="#rim" fill="#404040">
                                <set attributeName="fill" to="#808080" begin="zoomplus.mouseover" end="zoomplus.mouseout"/>
                        </use>
                        <path d="M-4,0h8M0,-4v8" fill="none" stroke="white" stroke-width="1.5" pointer-events="none"/>
                </g>
                <g id="zoomMin">
                        <use xlink:href="#rim" fill="#404040">
                                <set attributeName="fill" to="#808080" begin="zoomminus.mouseover" end="zoomminus.mouseout"/>
                        </use>
                        <path d="M-4,0h8" fill="none" stroke="white" stroke-width="1.5" pointer-events="none"/>
                </g>
                <g id="dirArrow">
                        <path fill="none" stroke="white" stroke-width="1.5" d="M0,-3.0v7 M-2.5,-0.5L0,-3.0L2.5,-0.5"/>
                </g>
               <g id="resetDef">
                       <use xlink:href="#rim2" fill="#404040">
                               <set attributeName="fill" to="#808080" begin="reset.mouseover" end="reset.mouseout"/>
                       </use>
               </g>
        </defs>

<script type="text/javascript">
var viewWidth = 562;
var viewHeight = 140;
var sectionId = 'dynsection-0';
</script>
<script xlink:href="svgpan.js"/>
<svg id="graph" class="graph">
<g id="viewport">
<title>G</title>
<polygon fill="white" stroke="white" points="-4,5 -4,-136 559,-136 559,5 -4,5"/>
<!-- Node1 -->
<g id="node1" class="node"><title>Node1</title>
<polygon fill="#bfbfbf" stroke="black" points="251.5,-112.5 251.5,-131.5 304.5,-131.5 304.5,-112.5 251.5,-112.5"/>
<text text-anchor="middle" x="278" y="-118.5" font-family="FreeSans" font-size="10.00">Element</text>
</g>
<!-- Node2 -->
<g id="node3" class="node"><title>Node2</title>
<a xlink:href="classHexahedron.html" target="_top" xlink:title="Data type hexahedron element.">
<polygon fill="white" stroke="black" points="0,-56.5 0,-75.5 70,-75.5 70,-56.5 0,-56.5"/>
<text text-anchor="middle" x="35" y="-62.5" font-family="FreeSans" font-size="10.00">Hexahedron</text>
</a>
</g>
<!-- Node1&#45;&gt;Node2 -->
<g id="edge2" class="edge"><title>Node1&#45;&gt;Node2</title>
<path fill="none" stroke="midnightblue" d="M241.144,-113.506C194.818,-102.83 115.862,-84.635 70.2876,-74.1321"/>
<polygon fill="midnightblue" stroke="midnightblue" points="240.536,-116.958 251.066,-115.793 242.108,-110.137 240.536,-116.958"/>
</g>
<!-- Node3 -->
<g id="node5" class="node"><title>Node3</title>
<a xlink:href="classPoint.html" target="_top" xlink:title="Data type point element.">
<polygon fill="white" stroke="black" points="87.5,-56.5 87.5,-75.5 126.5,-75.5 126.5,-56.5 87.5,-56.5"/>
<text text-anchor="middle" x="107" y="-62.5" font-family="FreeSans" font-size="10.00">Point</text>
</a>
</g>
<!-- Node1&#45;&gt;Node3 -->
<g id="edge4" class="edge"><title>Node1&#45;&gt;Node3</title>
<path fill="none" stroke="midnightblue" d="M241.606,-110.644C212.643,-101.522 171.12,-88.256 135,-76 132.263,-75.0712 129.383,-74.0702 126.554,-73.0731"/>
<polygon fill="midnightblue" stroke="midnightblue" points="240.708,-114.031 251.298,-113.689 242.807,-107.353 240.708,-114.031"/>
</g>
<!-- Node4 -->
<g id="node7" class="node"><title>Node4</title>
<a xlink:href="classQuadrilateral.html" target="_top" xlink:title="Data type quadrilateral element.">
<polygon fill="white" stroke="black" points="143.5,-56.5 143.5,-75.5 216.5,-75.5 216.5,-56.5 143.5,-56.5"/>
<text text-anchor="middle" x="180" y="-62.5" font-family="FreeSans" font-size="10.00">Quadrilateral</text>
</a>
</g>
<!-- Node1&#45;&gt;Node4 -->
<g id="edge6" class="edge"><title>Node1&#45;&gt;Node4</title>
<path fill="none" stroke="midnightblue" d="M251.831,-107.046C234.394,-97.0824 211.989,-84.2794 196.875,-75.6427"/>
<polygon fill="midnightblue" stroke="midnightblue" points="250.511,-110.323 260.93,-112.246 253.984,-104.245 250.511,-110.323"/>
</g>
<!-- Node5 -->
<g id="node9" class="node"><title>Node5</title>
<a xlink:href="classRefinedElement.html" target="_top" xlink:title="RefinedElement">
<polygon fill="white" stroke="black" points="234,-56.5 234,-75.5 322,-75.5 322,-56.5 234,-56.5"/>
<text text-anchor="middle" x="278" y="-62.5" font-family="FreeSans" font-size="10.00">RefinedElement</text>
</a>
</g>
<!-- Node1&#45;&gt;Node5 -->
<g id="edge8" class="edge"><title>Node1&#45;&gt;Node5</title>
<path fill="none" stroke="midnightblue" d="M278,-102.158C278,-93.155 278,-82.9199 278,-75.6427"/>
<polygon fill="midnightblue" stroke="midnightblue" points="274.5,-102.246 278,-112.246 281.5,-102.246 274.5,-102.246"/>
</g>
<!-- Node9 -->
<g id="node17" class="node"><title>Node9</title>
<a xlink:href="classSegment.html" target="_top" xlink:title="Data type line segment element.">
<polygon fill="white" stroke="black" points="339.5,-56.5 339.5,-75.5 396.5,-75.5 396.5,-56.5 339.5,-56.5"/>
<text text-anchor="middle" x="368" y="-62.5" font-family="FreeSans" font-size="10.00">Segment</text>
</a>
</g>
<!-- Node1&#45;&gt;Node9 -->
<g id="edge16" class="edge"><title>Node1&#45;&gt;Node9</title>
<path fill="none" stroke="midnightblue" d="M302.478,-106.769C318.427,-96.8456 338.751,-84.1994 352.503,-75.6427"/>
<polygon fill="midnightblue" stroke="midnightblue" points="300.318,-103.991 293.677,-112.246 304.016,-109.934 300.318,-103.991"/>
</g>
<!-- Node10 -->
<g id="node19" class="node"><title>Node10</title>
<a xlink:href="classTetrahedron.html" target="_top" xlink:title="Data type tetrahedron element.">
<polygon fill="white" stroke="black" points="413.5,-56.5 413.5,-75.5 484.5,-75.5 484.5,-56.5 413.5,-56.5"/>
<text text-anchor="middle" x="449" y="-62.5" font-family="FreeSans" font-size="10.00">Tetrahedron</text>
</a>
</g>
<!-- Node1&#45;&gt;Node10 -->
<g id="edge18" class="edge"><title>Node1&#45;&gt;Node10</title>
<path fill="none" stroke="midnightblue" d="M314.428,-110.07C345.897,-99.7648 390.774,-85.0682 419.895,-75.5314"/>
<polygon fill="midnightblue" stroke="midnightblue" points="313.133,-106.812 304.719,-113.25 315.311,-113.464 313.133,-106.812"/>
</g>
<!-- Node11 -->
<g id="node21" class="node"><title>Node11</title>
<a xlink:href="classTriangle.html" target="_top" xlink:title="Data type triangle element.">
<polygon fill="white" stroke="black" points="501.5,-56.5 501.5,-75.5 554.5,-75.5 554.5,-56.5 501.5,-56.5"/>
<text text-anchor="middle" x="528" y="-62.5" font-family="FreeSans" font-size="10.00">Triangle</text>
</a>
</g>
<!-- Node1&#45;&gt;Node11 -->
<g id="edge20" class="edge"><title>Node1&#45;&gt;Node11</title>
<path fill="none" stroke="midnightblue" d="M314.589,-114.955C357.512,-106.509 430.73,-91.5384 493,-76 495.698,-75.3268 498.502,-74.5896 501.297,-73.8303"/>
<polygon fill="midnightblue" stroke="midnightblue" points="313.753,-111.552 304.612,-116.907 315.098,-118.421 313.753,-111.552"/>
</g>
<!-- Node6 -->
<g id="node11" class="node"><title>Node6</title>
<a xlink:href="classBisectedElement.html" target="_top" xlink:title="BisectedElement">
<polygon fill="white" stroke="black" points="116,-0.5 116,-19.5 208,-19.5 208,-0.5 116,-0.5"/>
<text text-anchor="middle" x="162" y="-6.5" font-family="FreeSans" font-size="10.00">BisectedElement</text>
</a>
</g>
<!-- Node5&#45;&gt;Node6 -->
<g id="edge10" class="edge"><title>Node5&#45;&gt;Node6</title>
<path fill="none" stroke="midnightblue" d="M248.946,-51.9741C227.944,-41.8348 200.131,-28.408 181.681,-19.5011"/>
<polygon fill="midnightblue" stroke="midnightblue" points="247.532,-55.1776 258.059,-56.3733 250.575,-48.8738 247.532,-55.1776"/>
</g>
<!-- Node7 -->
<g id="node13" class="node"><title>Node7</title>
<a xlink:href="classOctasectedElement.html" target="_top" xlink:title="OctasectedElement">
<polygon fill="white" stroke="black" points="226,-0.5 226,-19.5 330,-19.5 330,-0.5 226,-0.5"/>
<text text-anchor="middle" x="278" y="-6.5" font-family="FreeSans" font-size="10.00">OctasectedElement</text>
</a>
</g>
<!-- Node5&#45;&gt;Node7 -->
<g id="edge12" class="edge"><title>Node5&#45;&gt;Node7</title>
<path fill="none" stroke="midnightblue" d="M278,-46.1575C278,-37.155 278,-26.9199 278,-19.6427"/>
<polygon fill="midnightblue" stroke="midnightblue" points="274.5,-46.2455 278,-56.2455 281.5,-46.2456 274.5,-46.2455"/>
</g>
<!-- Node8 -->
<g id="node15" class="node"><title>Node8</title>
<a xlink:href="classQuadrisectedElement.html" target="_top" xlink:title="QuadrisectedElement">
<polygon fill="white" stroke="black" points="348,-0.5 348,-19.5 460,-19.5 460,-0.5 348,-0.5"/>
<text text-anchor="middle" x="404" y="-6.5" font-family="FreeSans" font-size="10.00">QuadrisectedElement</text>
</a>
</g>
<!-- Node5&#45;&gt;Node8 -->
<g id="edge14" class="edge"><title>Node5&#45;&gt;Node8</title>
<path fill="none" stroke="midnightblue" d="M308.944,-52.2473C331.827,-42.0771 362.401,-28.4883 382.622,-19.5011"/>
<polygon fill="midnightblue" stroke="midnightblue" points="307.377,-49.1135 299.66,-56.3733 310.22,-55.5102 307.377,-49.1135"/>
</g>
</g>
</svg>
        <g id="navigator" transform="translate(0 0)" fill="#404254">
                <rect fill="#f2f5e9" fill-opacity="0.5" stroke="#606060" stroke-width=".5" x="0" y="0" width="60" height="60"/>
                <use id="zoomplus" xlink:href="#zoomPlus" x="17" y="9" onmousedown="handleZoom(evt,'in')"/>
                <use id="zoomminus" xlink:href="#zoomMin" x="42" y="9" onmousedown="handleZoom(evt,'out')"/>
                <use id="reset" xlink:href="#resetDef" x="30" y="36" onmousedown="handleReset()"/>
                <g id="arrowUp" xlink:href="#dirArrow" transform="translate(30 24)" onmousedown="handlePan(0,-1)">
                  <use xlink:href="#rim" fill="#404040">
                        <set attributeName="fill" to="#808080" begin="arrowUp.mouseover" end="arrowUp.mouseout"/>
                  </use>
                  <path fill="none" stroke="white" stroke-width="1.5" d="M0,-3.0v7 M-2.5,-0.5L0,-3.0L2.5,-0.5"/>
                </g>
                <g id="arrowRight" xlink:href="#dirArrow" transform="rotate(90) translate(36 -43)" onmousedown="handlePan(1,0)">
                  <use xlink:href="#rim" fill="#404040">
                        <set attributeName="fill" to="#808080" begin="arrowRight.mouseover" end="arrowRight.mouseout"/>
                  </use>
                  <path fill="none" stroke="white" stroke-width="1.5" d="M0,-3.0v7 M-2.5,-0.5L0,-3.0L2.5,-0.5"/>
                </g>
                <g id="arrowDown" xlink:href="#dirArrow" transform="rotate(180) translate(-30 -48)" onmousedown="handlePan(0,1)">
                  <use xlink:href="#rim" fill="#404040">
                        <set attributeName="fill" to="#808080" begin="arrowDown.mouseover" end="arrowDown.mouseout"/>
                  </use>
                  <path fill="none" stroke="white" stroke-width="1.5" d="M0,-3.0v7 M-2.5,-0.5L0,-3.0L2.5,-0.5"/>
                </g>
                <g id="arrowLeft" xlink:href="#dirArrow" transform="rotate(270) translate(-36 17)" onmousedown="handlePan(-1,0)">
                  <use xlink:href="#rim" fill="#404040">
                        <set attributeName="fill" to="#808080" begin="arrowLeft.mouseover" end="arrowLeft.mouseout"/>
                  </use>
                  <path fill="none" stroke="white" stroke-width="1.5" d="M0,-3.0v7 M-2.5,-0.5L0,-3.0L2.5,-0.5"/>
                </g>
        </g>
</svg>
