<?xml version="1.0" encoding="UTF-8" standalone="no"?>
<!DOCTYPE svg PUBLIC "-//W3C//DTD SVG 1.1//EN"
 "http://www.w3.org/Graphics/SVG/1.1/DTD/svg11.dtd">
<!-- Generated by graphviz version 2.26.3 (20100126.1600)
 -->
<!-- Title: G Pages: 1 -->
<svg width="108pt" height="106pt"
 viewBox="0.00 0.00 108.00 106.00" xmlns="http://www.w3.org/2000/svg" xmlns:xlink="http://www.w3.org/1999/xlink">
<g id="graph1" class="graph" transform="scale(1 1) rotate(0) translate(4 102)">
<title>G</title>
<polygon fill="white" stroke="white" points="-4,5 -4,-102 105,-102 105,5 -4,5"/>
<!-- Node1 -->
<g id="node1" class="node"><title>Node1</title>
<polygon fill="#bfbfbf" stroke="black" points="0,-0.5 0,-19.5 88,-19.5 88,-0.5 0,-0.5"/>
<text text-anchor="middle" x="44" y="-6.5" font-family="FreeSans" font-size="10.00">RefinedElement</text>
</g>
<!-- Node2 -->
<g id="node2" class="node"><title>Node2</title>
<a xlink:href="classElement.html" target="_top" xlink:title="Abstract data type element.">
<polygon fill="white" stroke="black" points="17.5,-78.5 17.5,-97.5 70.5,-97.5 70.5,-78.5 17.5,-78.5"/>
<text text-anchor="middle" x="44" y="-84.5" font-family="FreeSans" font-size="10.00">Element</text>
</a>
</g>
<!-- Node2&#45;&gt;Node1 -->
<g id="edge2" class="edge"><title>Node2&#45;&gt;Node1</title>
<path fill="none" stroke="midnightblue" d="M42.4152,-68.2949C42.243,-65.5117 42.0958,-62.6848 42,-60 41.6515,-50.2284 41.6515,-47.7716 42,-38 42.2189,-31.8633 42.7068,-24.9845 43.1459,-19.5806"/>
<polygon fill="midnightblue" stroke="midnightblue" points="38.935,-68.6973 43.1459,-78.4194 45.9168,-68.1933 38.935,-68.6973"/>
</g>
<!-- Node2&#45;&gt;Node1 -->
<g id="edge4" class="edge"><title>Node2&#45;&gt;Node1</title>
<path fill="none" stroke="#9a32cd" stroke-dasharray="5,2" d="M44,-68.2866C44,-52.7395 44,-31.7276 44,-19.6426"/>
<polygon fill="#9a32cd" stroke="#9a32cd" points="40.5001,-68.4356 44,-78.4357 47.5001,-68.4357 40.5001,-68.4356"/>
<text text-anchor="middle" x="72" y="-51" font-family="FreeSans" font-size="10.00"> FirstChild</text>
<text text-anchor="middle" x="72" y="-40" font-family="FreeSans" font-size="10.00">CoarseElem</text>
</g>
</g>
</svg>
