<?xml version="1.0" encoding="UTF-8" standalone="no"?>
<!DOCTYPE svg PUBLIC "-//W3C//DTD SVG 1.1//EN"
 "http://www.w3.org/Graphics/SVG/1.1/DTD/svg11.dtd">
<!-- Generated by graphviz version 2.26.3 (20100126.1600)
 -->
<!-- Title: G Pages: 1 -->
<!--zoomable 157 -->
<svg id="main" version="1.1" xmlns="http://www.w3.org/2000/svg" xmlns:xlink="http://www.w3.org/1999/xlink" xml:space="preserve" onload="init(evt)">
        <defs>
                <circle id="rim" cx="0" cy="0" r="7"/>
                <circle id="rim2" cx="0" cy="0" r="3.5"/>
                <g id="zoomPlus">
                        <use xlink:href="#rim" fill="#404040">
                                <set attributeName="fill" to="#808080" begin="zoomplus.mouseover" end="zoomplus.mouseout"/>
                        </use>
                        <path d="M-4,0h8M0,-4v8" fill="none" stroke="white" stroke-width="1.5" pointer-events="none"/>
                </g>
                <g id="zoomMin">
                        <use xlink:href="#rim" fill="#404040">
                                <set attributeName="fill" to="#808080" begin="zoomminus.mouseover" end="zoomminus.mouseout"/>
                        </use>
                        <path d="M-4,0h8" fill="none" stroke="white" stroke-width="1.5" pointer-events="none"/>
                </g>
                <g id="dirArrow">
                        <path fill="none" stroke="white" stroke-width="1.5" d="M0,-3.0v7 M-2.5,-0.5L0,-3.0L2.5,-0.5"/>
                </g>
               <g id="resetDef">
                       <use xlink:href="#rim2" fill="#404040">
                               <set attributeName="fill" to="#808080" begin="reset.mouseover" end="reset.mouseout"/>
                       </use>
               </g>
        </defs>

<script type="text/javascript">
var viewWidth = 976;
var viewHeight = 157;
var sectionId = 'dynsection-1';
</script>
<script xlink:href="svgpan.js"/>
<svg id="graph" class="graph">
<g id="viewport">
<title>G</title>
<polygon fill="white" stroke="white" points="-4,5 -4,-153 973,-153 973,5 -4,5"/>
<!-- Node1 -->
<g id="node1" class="node"><title>Node1</title>
<polygon fill="#bfbfbf" stroke="black" points="858.5,-71.5 858.5,-90.5 967.5,-90.5 967.5,-71.5 858.5,-71.5"/>
<text text-anchor="middle" x="913" y="-77.5" font-family="FreeSans" font-size="10.00">RT1_3DFECollection</text>
</g>
<!-- Node2 -->
<g id="node2" class="node"><title>Node2</title>
<a xlink:href="classFiniteElementCollection.html" target="_top" xlink:title="FiniteElementCollection">
<polygon fill="white" stroke="black" points="623.5,-129.5 623.5,-148.5 744.5,-148.5 744.5,-129.5 623.5,-129.5"/>
<text text-anchor="middle" x="684" y="-135.5" font-family="FreeSans" font-size="10.00">FiniteElementCollection</text>
</a>
</g>
<!-- Node2&#45;&gt;Node1 -->
<g id="edge2" class="edge"><title>Node2&#45;&gt;Node1</title>
<path fill="none" stroke="midnightblue" d="M753.256,-127.669C780.519,-122.578 811.954,-115.919 840,-108 857.035,-103.19 875.752,-96.2322 889.968,-90.5848"/>
<polygon fill="midnightblue" stroke="midnightblue" points="752.619,-124.227 743.414,-129.473 753.882,-131.113 752.619,-124.227"/>
</g>
<!-- Node3 -->
<g id="node4" class="node"><title>Node3</title>
<a xlink:href="classRT1HexFiniteElement.html" target="_top" xlink:title="RT1HexFiniteElement">
<polygon fill="white" stroke="black" points="627,-15.5 627,-34.5 741,-34.5 741,-15.5 627,-15.5"/>
<text text-anchor="middle" x="684" y="-21.5" font-family="FreeSans" font-size="10.00">RT1HexFiniteElement</text>
</a>
</g>
<!-- Node3&#45;&gt;Node1 -->
<g id="edge4" class="edge"><title>Node3&#45;&gt;Node1</title>
<path fill="none" stroke="#9a32cd" stroke-dasharray="5,2" d="M751.273,-29.4113C779.148,-32.4284 811.55,-37.4966 840,-46 860.469,-52.118 882.366,-63.3098 896.78,-71.3933"/>
<polygon fill="#9a32cd" stroke="#9a32cd" points="751.527,-25.9191 741.224,-28.3899 750.819,-32.8832 751.527,-25.9191"/>
<text text-anchor="middle" x="803" y="-48" font-family="FreeSans" font-size="10.00"> HexahedronFE</text>
</g>
<!-- Node4 -->
<g id="node6" class="node"><title>Node4</title>
<a xlink:href="classVectorFiniteElement.html" target="_top" xlink:title="VectorFiniteElement">
<polygon fill="white" stroke="black" points="476,-15.5 476,-34.5 582,-34.5 582,-15.5 476,-15.5"/>
<text text-anchor="middle" x="529" y="-21.5" font-family="FreeSans" font-size="10.00">VectorFiniteElement</text>
</a>
</g>
<!-- Node4&#45;&gt;Node3 -->
<g id="edge6" class="edge"><title>Node4&#45;&gt;Node3</title>
<path fill="none" stroke="midnightblue" d="M592.614,-25C603.955,-25 615.707,-25 626.855,-25"/>
<polygon fill="midnightblue" stroke="midnightblue" points="592.342,-21.5001 582.342,-25 592.342,-28.5001 592.342,-21.5001"/>
</g>
<!-- Node5 -->
<g id="node8" class="node"><title>Node5</title>
<a xlink:href="classFiniteElement.html" target="_top" xlink:title="Abstract class for Finite Elements.">
<polygon fill="white" stroke="black" points="320,-48.5 320,-67.5 398,-67.5 398,-48.5 320,-48.5"/>
<text text-anchor="middle" x="359" y="-54.5" font-family="FreeSans" font-size="10.00">FiniteElement</text>
</a>
</g>
<!-- Node5&#45;&gt;Node4 -->
<g id="edge8" class="edge"><title>Node5&#45;&gt;Node4</title>
<path fill="none" stroke="midnightblue" d="M408.038,-48.4808C430.581,-44.1048 457.262,-38.9257 479.822,-34.5464"/>
<polygon fill="midnightblue" stroke="midnightblue" points="407.151,-45.0876 398.001,-50.4291 408.485,-51.9593 407.151,-45.0876"/>
</g>
<!-- Node12 -->
<g id="node22" class="node"><title>Node12</title>
<a xlink:href="classNodalFiniteElement.html" target="_top" xlink:title="NodalFiniteElement">
<polygon fill="white" stroke="black" points="477,-68.5 477,-87.5 581,-87.5 581,-68.5 477,-68.5"/>
<text text-anchor="middle" x="529" y="-74.5" font-family="FreeSans" font-size="10.00">NodalFiniteElement</text>
</a>
</g>
<!-- Node5&#45;&gt;Node12 -->
<g id="edge24" class="edge"><title>Node5&#45;&gt;Node12</title>
<path fill="none" stroke="midnightblue" d="M407.956,-63.7595C429.573,-66.3027 455.008,-69.2951 476.968,-71.8786"/>
<polygon fill="midnightblue" stroke="midnightblue" points="408.342,-60.2809 398.001,-62.5884 407.524,-67.2329 408.342,-60.2809"/>
</g>
<!-- Node6 -->
<g id="node10" class="node"><title>Node6</title>
<a xlink:href="classIntegrationRule.html" target="_top" xlink:title="Class for integration rule.">
<polygon fill="white" stroke="black" points="166,-48.5 166,-67.5 250,-67.5 250,-48.5 166,-48.5"/>
<text text-anchor="middle" x="208" y="-54.5" font-family="FreeSans" font-size="10.00">IntegrationRule</text>
</a>
</g>
<!-- Node6&#45;&gt;Node5 -->
<g id="edge10" class="edge"><title>Node6&#45;&gt;Node5</title>
<path fill="none" stroke="#9a32cd" stroke-dasharray="5,2" d="M260.323,-58C279.829,-58 301.621,-58 319.755,-58"/>
<polygon fill="#9a32cd" stroke="#9a32cd" points="260.062,-54.5001 250.062,-58 260.062,-61.5001 260.062,-54.5001"/>
<text text-anchor="middle" x="285" y="-60" font-family="FreeSans" font-size="10.00"> Nodes</text>
</g>
<!-- Node7 -->
<g id="node12" class="node"><title>Node7</title>
<a xlink:href="classIntegrationPoint.html" target="_top" xlink:title="Class for integration point with weight.">
<polygon fill="white" stroke="black" points="0,-48.5 0,-67.5 86,-67.5 86,-48.5 0,-48.5"/>
<text text-anchor="middle" x="43" y="-54.5" font-family="FreeSans" font-size="10.00">IntegrationPoint</text>
</a>
</g>
<!-- Node7&#45;&gt;Node6 -->
<g id="edge12" class="edge"><title>Node7&#45;&gt;Node6</title>
<path fill="none" stroke="#9a32cd" stroke-dasharray="5,2" d="M96.4187,-58C118.897,-58 144.679,-58 165.793,-58"/>
<polygon fill="#9a32cd" stroke="#9a32cd" points="96.3518,-54.5001 86.3518,-58 96.3518,-61.5001 96.3518,-54.5001"/>
<text text-anchor="middle" x="126" y="-60" font-family="FreeSans" font-size="10.00"> IntPoints</text>
</g>
<!-- Node8 -->
<g id="node14" class="node"><title>Node8</title>
<a xlink:href="classDenseMatrix.html" target="_top" xlink:title="Data type dense matrix.">
<polygon fill="white" stroke="black" points="322.5,-0.5 322.5,-19.5 395.5,-19.5 395.5,-0.5 322.5,-0.5"/>
<text text-anchor="middle" x="359" y="-6.5" font-family="FreeSans" font-size="10.00">DenseMatrix</text>
</a>
</g>
<!-- Node8&#45;&gt;Node4 -->
<g id="edge14" class="edge"><title>Node8&#45;&gt;Node4</title>
<path fill="none" stroke="#9a32cd" stroke-dasharray="5,2" d="M406.216,-8.70472C422.644,-8.72327 441.169,-9.27055 458,-11 467.623,-11.9888 477.881,-13.6494 487.521,-15.4881"/>
<polygon fill="#9a32cd" stroke="#9a32cd" points="405.743,-5.20716 395.762,-8.76178 405.781,-12.2071 405.743,-5.20716"/>
<text text-anchor="middle" x="437" y="-24" font-family="FreeSans" font-size="10.00"> Jinv</text>
<text text-anchor="middle" x="437" y="-13" font-family="FreeSans" font-size="10.00">vshape</text>
</g>
<!-- Node9 -->
<g id="node16" class="node"><title>Node9</title>
<a xlink:href="classMatrix.html" target="_top" xlink:title="Abstract data type matrix.">
<polygon fill="white" stroke="black" points="186,-0.5 186,-19.5 230,-19.5 230,-0.5 186,-0.5"/>
<text text-anchor="middle" x="208" y="-6.5" font-family="FreeSans" font-size="10.00">Matrix</text>
</a>
</g>
<!-- Node9&#45;&gt;Node8 -->
<g id="edge16" class="edge"><title>Node9&#45;&gt;Node8</title>
<path fill="none" stroke="midnightblue" d="M240.326,-10C264.377,-10 297.232,-10 322.275,-10"/>
<polygon fill="midnightblue" stroke="midnightblue" points="240.281,-6.5001 230.281,-10 240.281,-13.5001 240.281,-6.5001"/>
</g>
<!-- Node10 -->
<g id="node18" class="node"><title>Node10</title>
<a xlink:href="classOperator.html" target="_top" xlink:title="Abstract operator.">
<polygon fill="white" stroke="black" points="15,-0.5 15,-19.5 71,-19.5 71,-0.5 15,-0.5"/>
<text text-anchor="middle" x="43" y="-6.5" font-family="FreeSans" font-size="10.00">Operator</text>
</a>
</g>
<!-- Node10&#45;&gt;Node9 -->
<g id="edge18" class="edge"><title>Node10&#45;&gt;Node9</title>
<path fill="none" stroke="midnightblue" d="M81.3984,-10C113.818,-10 159.107,-10 185.812,-10"/>
<polygon fill="midnightblue" stroke="midnightblue" points="81.3645,-6.5001 71.3645,-10 81.3645,-13.5001 81.3645,-6.5001"/>
</g>
<!-- Node11 -->
<g id="node20" class="node"><title>Node11</title>
<a xlink:href="classLinear2DFiniteElement.html" target="_top" xlink:title="Class for linear FE on triangle.">
<polygon fill="white" stroke="black" points="625,-91.5 625,-110.5 743,-110.5 743,-91.5 625,-91.5"/>
<text text-anchor="middle" x="684" y="-97.5" font-family="FreeSans" font-size="10.00">Linear2DFiniteElement</text>
</a>
</g>
<!-- Node11&#45;&gt;Node1 -->
<g id="edge20" class="edge"><title>Node11&#45;&gt;Node1</title>
<path fill="none" stroke="#9a32cd" stroke-dasharray="5,2" d="M753.49,-94.931C787.105,-91.9952 826.876,-88.5217 858.297,-85.7776"/>
<polygon fill="#9a32cd" stroke="#9a32cd" points="752.929,-91.4666 743.271,-95.8235 753.538,-98.4401 752.929,-91.4666"/>
<text text-anchor="middle" x="803" y="-95" font-family="FreeSans" font-size="10.00"> TriangleFE</text>
</g>
<!-- Node12&#45;&gt;Node11 -->
<g id="edge22" class="edge"><title>Node12&#45;&gt;Node11</title>
<path fill="none" stroke="midnightblue" d="M591.118,-87.2175C602.252,-88.8697 613.829,-90.5875 624.876,-92.2268"/>
<polygon fill="midnightblue" stroke="midnightblue" points="591.449,-83.7284 581.044,-85.7227 590.422,-90.6526 591.449,-83.7284"/>
</g>
<!-- Node14 -->
<g id="node27" class="node"><title>Node14</title>
<a xlink:href="classBiLinear2DFiniteElement.html" target="_top" xlink:title="Class for bilinear FE on quadrilateral.">
<polygon fill="white" stroke="black" points="620.5,-53.5 620.5,-72.5 747.5,-72.5 747.5,-53.5 620.5,-53.5"/>
<text text-anchor="middle" x="684" y="-59.5" font-family="FreeSans" font-size="10.00">BiLinear2DFiniteElement</text>
</a>
</g>
<!-- Node12&#45;&gt;Node14 -->
<g id="edge30" class="edge"><title>Node12&#45;&gt;Node14</title>
<path fill="none" stroke="midnightblue" d="M591.25,-71.9758C600.798,-71.0518 610.668,-70.0966 620.249,-69.1695"/>
<polygon fill="midnightblue" stroke="midnightblue" points="590.66,-68.5164 581.044,-72.9635 591.335,-75.4839 590.66,-68.5164"/>
</g>
<!-- Node13 -->
<g id="node25" class="node"><title>Node13</title>
<a xlink:href="classVector.html" target="_top" xlink:title="Vector data type.">
<polygon fill="white" stroke="black" points="336.5,-95.5 336.5,-114.5 381.5,-114.5 381.5,-95.5 336.5,-95.5"/>
<text text-anchor="middle" x="359" y="-101.5" font-family="FreeSans" font-size="10.00">Vector</text>
</a>
</g>
<!-- Node13&#45;&gt;Node12 -->
<g id="edge26" class="edge"><title>Node13&#45;&gt;Node12</title>
<path fill="none" stroke="#9a32cd" stroke-dasharray="5,2" d="M391.638,-99.8163C415.779,-95.9821 449.153,-90.6816 476.959,-86.2654"/>
<polygon fill="#9a32cd" stroke="#9a32cd" points="390.902,-96.3893 381.575,-101.415 392,-103.303 390.902,-96.3893"/>
<text text-anchor="middle" x="437" y="-97" font-family="FreeSans" font-size="10.00"> c_shape</text>
</g>
<!-- Node14&#45;&gt;Node1 -->
<g id="edge28" class="edge"><title>Node14&#45;&gt;Node1</title>
<path fill="none" stroke="#9a32cd" stroke-dasharray="5,2" d="M757.732,-61.6484C783.791,-61.9024 813.262,-63.0214 840,-66 850.93,-67.2176 862.65,-69.2803 873.43,-71.4927"/>
<polygon fill="#9a32cd" stroke="#9a32cd" points="757.569,-58.1475 747.549,-61.5907 757.529,-65.1474 757.569,-58.1475"/>
<text text-anchor="middle" x="803" y="-68" font-family="FreeSans" font-size="10.00"> QuadrilateralFE</text>
</g>
</g>
</svg>
        <g id="navigator" transform="translate(0 0)" fill="#404254">
                <rect fill="#f2f5e9" fill-opacity="0.5" stroke="#606060" stroke-width=".5" x="0" y="0" width="60" height="60"/>
                <use id="zoomplus" xlink:href="#zoomPlus" x="17" y="9" onmousedown="handleZoom(evt,'in')"/>
                <use id="zoomminus" xlink:href="#zoomMin" x="42" y="9" onmousedown="handleZoom(evt,'out')"/>
                <use id="reset" xlink:href="#resetDef" x="30" y="36" onmousedown="handleReset()"/>
                <g id="arrowUp" xlink:href="#dirArrow" transform="translate(30 24)" onmousedown="handlePan(0,-1)">
                  <use xlink:href="#rim" fill="#404040">
                        <set attributeName="fill" to="#808080" begin="arrowUp.mouseover" end="arrowUp.mouseout"/>
                  </use>
                  <path fill="none" stroke="white" stroke-width="1.5" d="M0,-3.0v7 M-2.5,-0.5L0,-3.0L2.5,-0.5"/>
                </g>
                <g id="arrowRight" xlink:href="#dirArrow" transform="rotate(90) translate(36 -43)" onmousedown="handlePan(1,0)">
                  <use xlink:href="#rim" fill="#404040">
                        <set attributeName="fill" to="#808080" begin="arrowRight.mouseover" end="arrowRight.mouseout"/>
                  </use>
                  <path fill="none" stroke="white" stroke-width="1.5" d="M0,-3.0v7 M-2.5,-0.5L0,-3.0L2.5,-0.5"/>
                </g>
                <g id="arrowDown" xlink:href="#dirArrow" transform="rotate(180) translate(-30 -48)" onmousedown="handlePan(0,1)">
                  <use xlink:href="#rim" fill="#404040">
                        <set attributeName="fill" to="#808080" begin="arrowDown.mouseover" end="arrowDown.mouseout"/>
                  </use>
                  <path fill="none" stroke="white" stroke-width="1.5" d="M0,-3.0v7 M-2.5,-0.5L0,-3.0L2.5,-0.5"/>
                </g>
                <g id="arrowLeft" xlink:href="#dirArrow" transform="rotate(270) translate(-36 17)" onmousedown="handlePan(-1,0)">
                  <use xlink:href="#rim" fill="#404040">
                        <set attributeName="fill" to="#808080" begin="arrowLeft.mouseover" end="arrowLeft.mouseout"/>
                  </use>
                  <path fill="none" stroke="white" stroke-width="1.5" d="M0,-3.0v7 M-2.5,-0.5L0,-3.0L2.5,-0.5"/>
                </g>
        </g>
</svg>
