<?xml version="1.0" encoding="UTF-8" standalone="no"?>
<!DOCTYPE svg PUBLIC "-//W3C//DTD SVG 1.1//EN"
 "http://www.w3.org/Graphics/SVG/1.1/DTD/svg11.dtd">
<!-- Generated by graphviz version 2.26.3 (20100126.1600)
 -->
<!-- Title: G Pages: 1 -->
<svg width="130pt" height="140pt"
 viewBox="0.00 0.00 130.00 140.00" xmlns="http://www.w3.org/2000/svg" xmlns:xlink="http://www.w3.org/1999/xlink">
<g id="graph1" class="graph" transform="scale(1 1) rotate(0) translate(4 136)">
<title>G</title>
<polygon fill="white" stroke="white" points="-4,5 -4,-136 127,-136 127,5 -4,5"/>
<!-- Node1 -->
<g id="node1" class="node"><title>Node1</title>
<polygon fill="#bfbfbf" stroke="black" points="-0.5,-0.5 -0.5,-19.5 122.5,-19.5 122.5,-0.5 -0.5,-0.5"/>
<text text-anchor="middle" x="61" y="-6.5" font-family="FreeSans" font-size="10.00">L2_TetrahedronElement</text>
</g>
<!-- Node2 -->
<g id="node2" class="node"><title>Node2</title>
<a xlink:href="classNodalFiniteElement.html" target="_top" xlink:title="NodalFiniteElement">
<polygon fill="white" stroke="black" points="9,-56.5 9,-75.5 113,-75.5 113,-56.5 9,-56.5"/>
<text text-anchor="middle" x="61" y="-62.5" font-family="FreeSans" font-size="10.00">NodalFiniteElement</text>
</a>
</g>
<!-- Node2&#45;&gt;Node1 -->
<g id="edge2" class="edge"><title>Node2&#45;&gt;Node1</title>
<path fill="none" stroke="midnightblue" d="M61,-46.1575C61,-37.155 61,-26.9199 61,-19.6427"/>
<polygon fill="midnightblue" stroke="midnightblue" points="57.5001,-46.2455 61,-56.2455 64.5001,-46.2456 57.5001,-46.2455"/>
</g>
<!-- Node3 -->
<g id="node4" class="node"><title>Node3</title>
<a xlink:href="classFiniteElement.html" target="_top" xlink:title="Abstract class for Finite Elements.">
<polygon fill="white" stroke="black" points="22,-112.5 22,-131.5 100,-131.5 100,-112.5 22,-112.5"/>
<text text-anchor="middle" x="61" y="-118.5" font-family="FreeSans" font-size="10.00">FiniteElement</text>
</a>
</g>
<!-- Node3&#45;&gt;Node2 -->
<g id="edge4" class="edge"><title>Node3&#45;&gt;Node2</title>
<path fill="none" stroke="midnightblue" d="M61,-102.158C61,-93.155 61,-82.9199 61,-75.6427"/>
<polygon fill="midnightblue" stroke="midnightblue" points="57.5001,-102.246 61,-112.246 64.5001,-102.246 57.5001,-102.246"/>
</g>
</g>
</svg>
