<?xml version="1.0" encoding="UTF-8" standalone="no"?>
<!DOCTYPE svg PUBLIC "-//W3C//DTD SVG 1.1//EN"
 "http://www.w3.org/Graphics/SVG/1.1/DTD/svg11.dtd">
<!-- Generated by graphviz version 2.26.3 (20100126.1600)
 -->
<!-- Title: G Pages: 1 -->
<!--zoomable 955 -->
<svg id="main" version="1.1" xmlns="http://www.w3.org/2000/svg" xmlns:xlink="http://www.w3.org/1999/xlink" xml:space="preserve" onload="init(evt)">
        <defs>
                <circle id="rim" cx="0" cy="0" r="7"/>
                <circle id="rim2" cx="0" cy="0" r="3.5"/>
                <g id="zoomPlus">
                        <use xlink:href="#rim" fill="#404040">
                                <set attributeName="fill" to="#808080" begin="zoomplus.mouseover" end="zoomplus.mouseout"/>
                        </use>
                        <path d="M-4,0h8M0,-4v8" fill="none" stroke="white" stroke-width="1.5" pointer-events="none"/>
                </g>
                <g id="zoomMin">
                        <use xlink:href="#rim" fill="#404040">
                                <set attributeName="fill" to="#808080" begin="zoomminus.mouseover" end="zoomminus.mouseout"/>
                        </use>
                        <path d="M-4,0h8" fill="none" stroke="white" stroke-width="1.5" pointer-events="none"/>
                </g>
                <g id="dirArrow">
                        <path fill="none" stroke="white" stroke-width="1.5" d="M0,-3.0v7 M-2.5,-0.5L0,-3.0L2.5,-0.5"/>
                </g>
               <g id="resetDef">
                       <use xlink:href="#rim2" fill="#404040">
                               <set attributeName="fill" to="#808080" begin="reset.mouseover" end="reset.mouseout"/>
                       </use>
               </g>
        </defs>

<script type="text/javascript">
var viewWidth = 1942;
var viewHeight = 955;
var sectionId = 'dynsection-1';
</script>
<script xlink:href="svgpan.js"/>
<svg id="graph" class="graph">
<g id="viewport">
<title>G</title>
<polygon fill="white" stroke="white" points="-4,5 -4,-950.948 1939,-950.948 1939,5 -4,5"/>
<!-- Node1 -->
<g id="node1" class="node"><title>Node1</title>
<polygon fill="#bfbfbf" stroke="black" points="1318.5,-835.448 1318.5,-854.448 1467.5,-854.448 1467.5,-835.448 1318.5,-835.448"/>
<text text-anchor="middle" x="1393" y="-841.448" font-family="FreeSans" font-size="10.00">VectorGridFunctionCoefficient</text>
</g>
<!-- Node2 -->
<g id="node2" class="node"><title>Node2</title>
<a xlink:href="classVectorCoefficient.html" target="_top" xlink:title="VectorCoefficient">
<polygon fill="white" stroke="black" points="1037,-850.448 1037,-869.448 1129,-869.448 1129,-850.448 1037,-850.448"/>
<text text-anchor="middle" x="1083" y="-856.448" font-family="FreeSans" font-size="10.00">VectorCoefficient</text>
</a>
</g>
<!-- Node2&#45;&gt;Node1 -->
<g id="edge2" class="edge"><title>Node2&#45;&gt;Node1</title>
<path fill="none" stroke="midnightblue" d="M1139.33,-858.463C1183.15,-857.164 1245.47,-855.005 1300,-851.948 1305.98,-851.613 1312.18,-851.229 1318.4,-850.816"/>
<polygon fill="midnightblue" stroke="midnightblue" points="1139.06,-854.969 1129.17,-858.758 1139.26,-861.966 1139.06,-854.969"/>
</g>
<!-- Node3 -->
<g id="node4" class="node"><title>Node3</title>
<a xlink:href="classGridFunction.html" target="_top" xlink:title="Class for grid function &#45; Vector with asociated FE space.">
<polygon fill="white" stroke="black" points="1046.5,-802.448 1046.5,-821.448 1119.5,-821.448 1119.5,-802.448 1046.5,-802.448"/>
<text text-anchor="middle" x="1083" y="-808.448" font-family="FreeSans" font-size="10.00">GridFunction</text>
</a>
</g>
<!-- Node3&#45;&gt;Node1 -->
<g id="edge4" class="edge"><title>Node3&#45;&gt;Node1</title>
<path fill="none" stroke="#9a32cd" stroke-dasharray="5,2" d="M1129.96,-816.948C1179.9,-822.263 1259.6,-830.747 1318.19,-836.985"/>
<polygon fill="#9a32cd" stroke="#9a32cd" points="1130.09,-813.442 1119.78,-815.863 1129.35,-820.402 1130.09,-813.442"/>
<text text-anchor="middle" x="1237" y="-835.948" font-family="FreeSans" font-size="10.00"> GridFunc</text>
</g>
<!-- Node14 -->
<g id="node30" class="node"><title>Node14</title>
<a xlink:href="classMesh.html" target="_top" xlink:title="Mesh">
<polygon fill="white" stroke="black" points="1372.5,-577.448 1372.5,-596.448 1413.5,-596.448 1413.5,-577.448 1372.5,-577.448"/>
<text text-anchor="middle" x="1393" y="-583.448" font-family="FreeSans" font-size="10.00">Mesh</text>
</a>
</g>
<!-- Node3&#45;&gt;Node14 -->
<g id="edge82" class="edge"><title>Node3&#45;&gt;Node14</title>
<path fill="none" stroke="#9a32cd" stroke-dasharray="5,2" d="M1118.85,-798.862C1135.47,-793.124 1155.58,-786.642 1174,-781.948 1229.16,-767.892 1253.93,-792.386 1300,-758.948 1358.24,-716.675 1383.8,-626.461 1390.86,-596.699"/>
<polygon fill="#9a32cd" stroke="#9a32cd" points="1117.28,-795.704 1109,-802.316 1119.59,-802.31 1117.28,-795.704"/>
<text text-anchor="middle" x="1237" y="-783.948" font-family="FreeSans" font-size="10.00"> Nodes</text>
</g>
<!-- Node4 -->
<g id="node6" class="node"><title>Node4</title>
<a xlink:href="classVector.html" target="_top" xlink:title="Vector data type.">
<polygon fill="white" stroke="black" points="357.5,-802.448 357.5,-821.448 402.5,-821.448 402.5,-802.448 357.5,-802.448"/>
<text text-anchor="middle" x="380" y="-808.448" font-family="FreeSans" font-size="10.00">Vector</text>
</a>
</g>
<!-- Node4&#45;&gt;Node3 -->
<g id="edge6" class="edge"><title>Node4&#45;&gt;Node3</title>
<path fill="none" stroke="midnightblue" d="M412.671,-811.948C529.127,-811.948 923.503,-811.948 1046.23,-811.948"/>
<polygon fill="midnightblue" stroke="midnightblue" points="412.594,-808.448 402.594,-811.948 412.594,-815.448 412.594,-808.448"/>
</g>
<!-- Node7 -->
<g id="node12" class="node"><title>Node7</title>
<a xlink:href="classNURBSExtension.html" target="_top" xlink:title="NURBSExtension">
<polygon fill="white" stroke="black" points="1642.5,-332.448 1642.5,-351.448 1737.5,-351.448 1737.5,-332.448 1642.5,-332.448"/>
<text text-anchor="middle" x="1690" y="-338.448" font-family="FreeSans" font-size="10.00">NURBSExtension</text>
</a>
</g>
<!-- Node4&#45;&gt;Node7 -->
<g id="edge14" class="edge"><title>Node4&#45;&gt;Node7</title>
<path fill="none" stroke="#9a32cd" stroke-dasharray="5,2" d="M395.212,-829.052C427.237,-863.065 505.488,-935.948 588,-935.948 588,-935.948 588,-935.948 946,-935.948 975.275,-935.948 1446.34,-883.637 1468,-863.948 1493.69,-840.603 1473.61,-820.372 1486,-787.948 1531.87,-667.943 1572.27,-651.549 1624,-533.948 1653.8,-466.193 1679.12,-380.4 1687.26,-351.755"/>
<polygon fill="#9a32cd" stroke="#9a32cd" points="397.771,-826.664 388.423,-821.678 392.622,-831.406 397.771,-826.664"/>
<text text-anchor="middle" x="946" y="-937.948" font-family="FreeSans" font-size="10.00"> weights</text>
</g>
<!-- Node20 -->
<g id="node47" class="node"><title>Node20</title>
<a xlink:href="classIsoparametricTransformation.html" target="_top" xlink:title="IsoparametricTransformation">
<polygon fill="white" stroke="black" points="516.5,-713.448 516.5,-732.448 659.5,-732.448 659.5,-713.448 516.5,-713.448"/>
<text text-anchor="middle" x="588" y="-719.448" font-family="FreeSans" font-size="10.00">IsoparametricTransformation</text>
</a>
</g>
<!-- Node4&#45;&gt;Node20 -->
<g id="edge62" class="edge"><title>Node4&#45;&gt;Node20</title>
<path fill="none" stroke="#9a32cd" stroke-dasharray="5,2" d="M411.564,-798.443C454.01,-780.28 528.439,-748.434 565.586,-732.539"/>
<polygon fill="#9a32cd" stroke="#9a32cd" points="410.077,-795.272 402.26,-802.424 412.83,-801.708 410.077,-795.272"/>
<text text-anchor="middle" x="478" y="-779.948" font-family="FreeSans" font-size="10.00"> shape</text>
</g>
<!-- Node5 -->
<g id="node8" class="node"><title>Node5</title>
<a xlink:href="classFiniteElementCollection.html" target="_top" xlink:title="FiniteElementCollection">
<polygon fill="white" stroke="black" points="745.5,-869.448 745.5,-888.448 866.5,-888.448 866.5,-869.448 745.5,-869.448"/>
<text text-anchor="middle" x="806" y="-875.448" font-family="FreeSans" font-size="10.00">FiniteElementCollection</text>
</a>
</g>
<!-- Node5&#45;&gt;Node3 -->
<g id="edge8" class="edge"><title>Node5&#45;&gt;Node3</title>
<path fill="none" stroke="#9a32cd" stroke-dasharray="5,2" d="M855.231,-867.041C910.028,-853.786 997.313,-832.674 1046.39,-820.803"/>
<polygon fill="#9a32cd" stroke="#9a32cd" points="854.29,-863.667 845.393,-869.42 855.936,-870.471 854.29,-863.667"/>
<text text-anchor="middle" x="946" y="-856.948" font-family="FreeSans" font-size="10.00"> fec</text>
</g>
<!-- Node6 -->
<g id="node10" class="node"><title>Node6</title>
<a xlink:href="classFiniteElementSpace.html" target="_top" xlink:title="Abstract finite element space.">
<polygon fill="white" stroke="black" points="1828,-500.448 1828,-519.448 1934,-519.448 1934,-500.448 1828,-500.448"/>
<text text-anchor="middle" x="1881" y="-506.448" font-family="FreeSans" font-size="10.00">FiniteElementSpace</text>
</a>
</g>
<!-- Node5&#45;&gt;Node6 -->
<g id="edge94" class="edge"><title>Node5&#45;&gt;Node6</title>
<path fill="none" stroke="#9a32cd" stroke-dasharray="5,2" d="M864.159,-890.212C982.504,-910.471 1257.9,-943.925 1468,-863.948 1668.35,-787.684 1838.12,-568.33 1874.01,-519.611"/>
<polygon fill="#9a32cd" stroke="#9a32cd" points="864.67,-886.748 854.217,-888.478 863.467,-893.644 864.67,-886.748"/>
<text text-anchor="middle" x="1393" y="-903.948" font-family="FreeSans" font-size="10.00"> fec</text>
</g>
<!-- Node6&#45;&gt;Node3 -->
<g id="edge10" class="edge"><title>Node6&#45;&gt;Node3</title>
<path fill="none" stroke="#9a32cd" stroke-dasharray="5,2" d="M1857.74,-525.225C1781.58,-574.365 1531.23,-728.88 1300,-792.948 1238.41,-810.014 1163.57,-812.828 1119.81,-812.77"/>
<polygon fill="#9a32cd" stroke="#9a32cd" points="1860.06,-527.893 1866.55,-519.513 1856.25,-522.021 1860.06,-527.893"/>
<text text-anchor="middle" x="1555" y="-724.948" font-family="FreeSans" font-size="10.00"> fes</text>
</g>
<!-- Node7&#45;&gt;Node6 -->
<g id="edge12" class="edge"><title>Node7&#45;&gt;Node6</title>
<path fill="none" stroke="#9a32cd" stroke-dasharray="5,2" d="M1708.34,-358.083C1747.47,-392.501 1838.14,-472.25 1869.83,-500.12"/>
<polygon fill="#9a32cd" stroke="#9a32cd" points="1710.64,-355.439 1700.82,-351.462 1706.01,-360.695 1710.64,-355.439"/>
<text text-anchor="middle" x="1783" y="-446.948" font-family="FreeSans" font-size="10.00"> NURBSext</text>
</g>
<!-- Node7&#45;&gt;Node14 -->
<g id="edge44" class="edge"><title>Node7&#45;&gt;Node14</title>
<path fill="none" stroke="#9a32cd" stroke-dasharray="5,2" d="M1683.64,-361.07C1674.49,-385.492 1655.19,-427.192 1624,-448.948 1572.67,-484.756 1539.85,-445.064 1486,-476.948 1463.94,-490.007 1417.58,-552.689 1399.98,-577.146"/>
<polygon fill="#9a32cd" stroke="#9a32cd" points="1687,-362.078 1687.05,-351.483 1680.4,-359.737 1687,-362.078"/>
<text text-anchor="middle" x="1555" y="-478.948" font-family="FreeSans" font-size="10.00"> NURBSext</text>
</g>
<!-- Node8 -->
<g id="node15" class="node"><title>Node8</title>
<a xlink:href="classArray.html" target="_top" xlink:title="Array\&lt; bool \&gt;">
<polygon fill="white" stroke="black" points="1198.5,-238.448 1198.5,-257.448 1275.5,-257.448 1275.5,-238.448 1198.5,-238.448"/>
<text text-anchor="middle" x="1237" y="-244.448" font-family="FreeSans" font-size="10.00">Array&lt; bool &gt;</text>
</a>
</g>
<!-- Node8&#45;&gt;Node7 -->
<g id="edge16" class="edge"><title>Node8&#45;&gt;Node7</title>
<path fill="none" stroke="#9a32cd" stroke-dasharray="5,2" d="M1285.7,-250.316C1360.33,-255.114 1506.64,-269.168 1624,-308.948 1641.84,-314.994 1660.95,-324.978 1673.99,-332.383"/>
<polygon fill="#9a32cd" stroke="#9a32cd" points="1285.86,-246.819 1275.66,-249.699 1285.43,-253.806 1285.86,-246.819"/>
<text text-anchor="middle" x="1393" y="-283.948" font-family="FreeSans" font-size="10.00"> activeBdrElem</text>
<text text-anchor="middle" x="1393" y="-272.948" font-family="FreeSans" font-size="10.00">activeElem</text>
</g>
<!-- Node9 -->
<g id="node17" class="node"><title>Node9</title>
<a xlink:href="classBaseArray.html" target="_top" xlink:title="Base class for array container.">
<polygon fill="white" stroke="black" points="774.5,-357.448 774.5,-376.448 837.5,-376.448 837.5,-357.448 774.5,-357.448"/>
<text text-anchor="middle" x="806" y="-363.448" font-family="FreeSans" font-size="10.00">BaseArray</text>
</a>
</g>
<!-- Node9&#45;&gt;Node8 -->
<g id="edge18" class="edge"><title>Node9&#45;&gt;Node8</title>
<path fill="none" stroke="midnightblue" d="M847.199,-354.329C915.012,-333.752 1054.55,-292.233 1174,-261.948 1181.82,-259.966 1190.22,-257.991 1198.27,-256.176"/>
<polygon fill="midnightblue" stroke="midnightblue" points="845.884,-351.07 837.335,-357.328 847.92,-357.768 845.884,-351.07"/>
</g>
<!-- Node10 -->
<g id="node19" class="node"><title>Node10</title>
<a xlink:href="classArray.html" target="_top" xlink:title="Array\&lt; int \&gt;">
<polygon fill="white" stroke="black" points="1048.5,-440.448 1048.5,-459.448 1117.5,-459.448 1117.5,-440.448 1048.5,-440.448"/>
<text text-anchor="middle" x="1083" y="-446.448" font-family="FreeSans" font-size="10.00">Array&lt; int &gt;</text>
</a>
</g>
<!-- Node9&#45;&gt;Node10 -->
<g id="edge22" class="edge"><title>Node9&#45;&gt;Node10</title>
<path fill="none" stroke="midnightblue" d="M847.385,-379.349C903.033,-396.023 1000.79,-425.314 1051.1,-440.389"/>
<polygon fill="midnightblue" stroke="midnightblue" points="848.09,-375.906 837.506,-376.389 846.08,-382.612 848.09,-375.906"/>
</g>
<!-- Node11 -->
<g id="node22" class="node"><title>Node11</title>
<a xlink:href="classArray.html" target="_top" xlink:title="Array\&lt; KnotVector * \&gt;">
<polygon fill="white" stroke="black" points="1180,-90.4483 1180,-109.448 1294,-109.448 1294,-90.4483 1180,-90.4483"/>
<text text-anchor="middle" x="1237" y="-96.4483" font-family="FreeSans" font-size="10.00">Array&lt; KnotVector * &gt;</text>
</a>
</g>
<!-- Node9&#45;&gt;Node11 -->
<g id="edge26" class="edge"><title>Node9&#45;&gt;Node11</title>
<path fill="none" stroke="midnightblue" d="M821.899,-349.953C854.549,-315.782 932.613,-237.774 1010,-187.948 1077.23,-144.659 1098.13,-139.199 1174,-113.948 1178.89,-112.321 1184.06,-110.826 1189.24,-109.469"/>
<polygon fill="midnightblue" stroke="midnightblue" points="819.284,-347.623 814.946,-357.289 824.365,-352.439 819.284,-347.623"/>
</g>
<!-- Node12 -->
<g id="node25" class="node"><title>Node12</title>
<a xlink:href="classArray.html" target="_top" xlink:title="Array\&lt; NURBSPatch * \&gt;">
<polygon fill="white" stroke="black" points="1174.5,-65.4483 1174.5,-84.4483 1299.5,-84.4483 1299.5,-65.4483 1174.5,-65.4483"/>
<text text-anchor="middle" x="1237" y="-71.4483" font-family="FreeSans" font-size="10.00">Array&lt; NURBSPatch * &gt;</text>
</a>
</g>
<!-- Node9&#45;&gt;Node12 -->
<g id="edge30" class="edge"><title>Node9&#45;&gt;Node12</title>
<path fill="none" stroke="midnightblue" d="M813.474,-347.992C827.095,-315.073 858.431,-246.328 900,-198.948 940.216,-153.111 954.119,-141.354 1010,-116.948 1062.52,-94.0101 1127.2,-83.593 1174.06,-78.866"/>
<polygon fill="midnightblue" stroke="midnightblue" points="810.194,-346.766 809.683,-357.349 816.682,-349.395 810.194,-346.766"/>
</g>
<!-- Node15 -->
<g id="node32" class="node"><title>Node15</title>
<a xlink:href="classArray.html" target="_top" xlink:title="Array\&lt; Element * \&gt;">
<polygon fill="white" stroke="black" points="1032,-528.448 1032,-547.448 1134,-547.448 1134,-528.448 1032,-528.448"/>
<text text-anchor="middle" x="1083" y="-534.448" font-family="FreeSans" font-size="10.00">Array&lt; Element * &gt;</text>
</a>
</g>
<!-- Node9&#45;&gt;Node15 -->
<g id="edge38" class="edge"><title>Node9&#45;&gt;Node15</title>
<path fill="none" stroke="midnightblue" d="M830.203,-381.889C885.828,-416.228 1021.52,-499.998 1067.49,-528.371"/>
<polygon fill="midnightblue" stroke="midnightblue" points="832.034,-378.907 821.686,-376.632 828.357,-384.863 832.034,-378.907"/>
</g>
<!-- Node16 -->
<g id="node35" class="node"><title>Node16</title>
<a xlink:href="classArray.html" target="_top" xlink:title="Array\&lt; Vertex \&gt;">
<polygon fill="white" stroke="black" points="1039.5,-655.448 1039.5,-674.448 1126.5,-674.448 1126.5,-655.448 1039.5,-655.448"/>
<text text-anchor="middle" x="1083" y="-661.448" font-family="FreeSans" font-size="10.00">Array&lt; Vertex &gt;</text>
</a>
</g>
<!-- Node9&#45;&gt;Node16 -->
<g id="edge42" class="edge"><title>Node9&#45;&gt;Node16</title>
<path fill="none" stroke="midnightblue" d="M813.786,-385.875C835.927,-437.112 904.544,-579.086 1010,-644.948 1018.8,-650.447 1029.13,-654.457 1039.19,-657.373"/>
<polygon fill="midnightblue" stroke="midnightblue" points="816.995,-384.477 809.874,-376.631 810.548,-387.205 816.995,-384.477"/>
</g>
<!-- Node17 -->
<g id="node40" class="node"><title>Node17</title>
<a xlink:href="classArray.html" target="_top" xlink:title="Array\&lt; FaceInfo \&gt;">
<polygon fill="white" stroke="black" points="1034.5,-616.448 1034.5,-635.448 1131.5,-635.448 1131.5,-616.448 1034.5,-616.448"/>
<text text-anchor="middle" x="1083" y="-622.448" font-family="FreeSans" font-size="10.00">Array&lt; FaceInfo &gt;</text>
</a>
</g>
<!-- Node9&#45;&gt;Node17 -->
<g id="edge50" class="edge"><title>Node9&#45;&gt;Node17</title>
<path fill="none" stroke="midnightblue" d="M821.258,-383.958C839.486,-404.053 871.145,-438.254 900,-465.948 962.113,-525.562 1041.44,-591.768 1071.1,-616.204"/>
<polygon fill="midnightblue" stroke="midnightblue" points="823.831,-381.585 814.532,-376.509 818.636,-386.276 823.831,-381.585"/>
</g>
<!-- Node29 -->
<g id="node73" class="node"><title>Node29</title>
<a xlink:href="classArray.html" target="_top" xlink:title="Array\&lt; RefinementData * \&gt;">
<polygon fill="white" stroke="black" points="1486.5,-27.4483 1486.5,-46.4483 1623.5,-46.4483 1623.5,-27.4483 1486.5,-27.4483"/>
<text text-anchor="middle" x="1555" y="-33.4483" font-family="FreeSans" font-size="10.00">Array&lt; RefinementData * &gt;</text>
</a>
</g>
<!-- Node9&#45;&gt;Node29 -->
<g id="edge92" class="edge"><title>Node9&#45;&gt;Node29</title>
<path fill="none" stroke="midnightblue" d="M808.252,-346.89C814.433,-300.967 835.719,-187.146 900,-121.948 1068.66,49.1186 1399.93,-2.8774 1514.71,-27.4106"/>
<polygon fill="midnightblue" stroke="midnightblue" points="804.752,-346.675 806.989,-357.031 811.699,-347.54 804.752,-346.675"/>
</g>
<!-- Node10&#45;&gt;Node6 -->
<g id="edge88" class="edge"><title>Node10&#45;&gt;Node6</title>
<path fill="none" stroke="#9a32cd" stroke-dasharray="5,2" d="M1127.7,-459.657C1174.79,-469.434 1251.22,-484.03 1318,-490.948 1504.53,-510.273 1727.49,-511.308 1827.66,-510.61"/>
<polygon fill="#9a32cd" stroke="#9a32cd" points="1128.33,-456.213 1117.82,-457.588 1126.89,-463.064 1128.33,-456.213"/>
<text text-anchor="middle" x="1555" y="-520.948" font-family="FreeSans" font-size="10.00"> dof_ldof_array</text>
<text text-anchor="middle" x="1555" y="-509.948" font-family="FreeSans" font-size="10.00">dof_elem_array</text>
</g>
<!-- Node10&#45;&gt;Node7 -->
<g id="edge20" class="edge"><title>Node10&#45;&gt;Node7</title>
<path fill="none" stroke="#9a32cd" stroke-dasharray="5,2" d="M1087.14,-430.456C1095.95,-394.485 1120.3,-318.47 1174,-286.948 1222.29,-258.599 1245.79,-272.901 1300,-286.948 1308.86,-289.244 1309.3,-294.124 1318,-296.948 1348.2,-306.748 1548.73,-327.776 1642.2,-337.204"/>
<polygon fill="#9a32cd" stroke="#9a32cd" points="1083.72,-429.71 1084.89,-440.241 1090.54,-431.279 1083.72,-429.71"/>
<text text-anchor="middle" x="1393" y="-429.948" font-family="FreeSans" font-size="10.00"> v_spaceOffsets</text>
<text text-anchor="middle" x="1393" y="-418.948" font-family="FreeSans" font-size="10.00">p_meshOffsets</text>
<text text-anchor="middle" x="1393" y="-407.948" font-family="FreeSans" font-size="10.00">edge_to_knot</text>
<text text-anchor="middle" x="1393" y="-396.948" font-family="FreeSans" font-size="10.00">f_spaceOffsets</text>
<text text-anchor="middle" x="1393" y="-385.948" font-family="FreeSans" font-size="10.00">e_meshOffsets</text>
<text text-anchor="middle" x="1393" y="-374.948" font-family="FreeSans" font-size="10.00">el_to_patch</text>
<text text-anchor="middle" x="1393" y="-363.948" font-family="FreeSans" font-size="10.00">p_spaceOffsets</text>
<text text-anchor="middle" x="1393" y="-352.948" font-family="FreeSans" font-size="10.00">bel_to_patch</text>
<text text-anchor="middle" x="1393" y="-341.948" font-family="FreeSans" font-size="10.00">e_spaceOffsets</text>
<text text-anchor="middle" x="1393" y="-330.948" font-family="FreeSans" font-size="10.00">v_meshOffsets</text>
<text text-anchor="middle" x="1393" y="-319.948" font-family="FreeSans" font-size="10.00">...</text>
</g>
<!-- Node10&#45;&gt;Node14 -->
<g id="edge46" class="edge"><title>Node10&#45;&gt;Node14</title>
<path fill="none" stroke="#9a32cd" stroke-dasharray="5,2" d="M1111.92,-463.761C1129.51,-471.639 1152.63,-481.082 1174,-486.948 1228.61,-501.941 1249.44,-480.425 1300,-505.948 1310.1,-511.047 1309.66,-516.303 1318,-523.948 1339.56,-543.714 1366,-565.359 1381.04,-577.435"/>
<polygon fill="#9a32cd" stroke="#9a32cd" points="1113.32,-460.55 1102.77,-459.578 1110.41,-466.917 1113.32,-460.55"/>
<text text-anchor="middle" x="1237" y="-551.948" font-family="FreeSans" font-size="10.00"> fc_be_to_edge</text>
<text text-anchor="middle" x="1237" y="-540.948" font-family="FreeSans" font-size="10.00">attributes</text>
<text text-anchor="middle" x="1237" y="-529.948" font-family="FreeSans" font-size="10.00">be_to_edge</text>
<text text-anchor="middle" x="1237" y="-518.948" font-family="FreeSans" font-size="10.00">be_to_face</text>
<text text-anchor="middle" x="1237" y="-507.948" font-family="FreeSans" font-size="10.00">bdr_attributes</text>
</g>
<!-- Node28 -->
<g id="node69" class="node"><title>Node28</title>
<a xlink:href="classArray2D.html" target="_top" xlink:title="Array2D\&lt; int \&gt;">
<polygon fill="white" stroke="black" points="1352.5,-462.448 1352.5,-481.448 1433.5,-481.448 1433.5,-462.448 1352.5,-462.448"/>
<text text-anchor="middle" x="1393" y="-468.448" font-family="FreeSans" font-size="10.00">Array2D&lt; int &gt;</text>
</a>
</g>
<!-- Node10&#45;&gt;Node28 -->
<g id="edge86" class="edge"><title>Node10&#45;&gt;Node28</title>
<path fill="none" stroke="#9a32cd" stroke-dasharray="5,2" d="M1127.79,-447.327C1171.79,-445.418 1240.74,-444.203 1300,-450.948 1319.74,-453.195 1341.4,-457.95 1358.86,-462.367"/>
<polygon fill="#9a32cd" stroke="#9a32cd" points="1127.54,-443.835 1117.71,-447.796 1127.86,-450.828 1127.54,-443.835"/>
<text text-anchor="middle" x="1237" y="-452.948" font-family="FreeSans" font-size="10.00"> array1d</text>
</g>
<!-- Node11&#45;&gt;Node7 -->
<g id="edge24" class="edge"><title>Node11&#45;&gt;Node7</title>
<path fill="none" stroke="#9a32cd" stroke-dasharray="5,2" d="M1297.17,-111.366C1399.51,-131.23 1598.89,-172.022 1624,-192.948 1669.2,-230.626 1684.52,-305.441 1688.68,-332.172"/>
<polygon fill="#9a32cd" stroke="#9a32cd" points="1297.76,-107.916 1287.28,-109.453 1296.43,-114.788 1297.76,-107.916"/>
<text text-anchor="middle" x="1393" y="-148.948" font-family="FreeSans" font-size="10.00"> knotVectors</text>
</g>
<!-- Node12&#45;&gt;Node7 -->
<g id="edge28" class="edge"><title>Node12&#45;&gt;Node7</title>
<path fill="none" stroke="#9a32cd" stroke-dasharray="5,2" d="M1309.79,-70.9755C1357.18,-71.3113 1419.06,-77.4349 1468,-101.948 1478.4,-107.158 1475.83,-115.307 1486,-120.948 1540.73,-151.298 1576.98,-107.647 1624,-148.948 1653,-174.421 1680.47,-296.466 1687.99,-332.137"/>
<polygon fill="#9a32cd" stroke="#9a32cd" points="1309.6,-67.4757 1299.6,-70.9901 1309.61,-74.4757 1309.6,-67.4757"/>
<text text-anchor="middle" x="1393" y="-103.948" font-family="FreeSans" font-size="10.00"> patches</text>
</g>
<!-- Node13 -->
<g id="node28" class="node"><title>Node13</title>
<a xlink:href="classTable.html" target="_top" xlink:title="Table">
<polygon fill="white" stroke="black" points="1062,-197.448 1062,-216.448 1104,-216.448 1104,-197.448 1062,-197.448"/>
<text text-anchor="middle" x="1083" y="-203.448" font-family="FreeSans" font-size="10.00">Table</text>
</a>
</g>
<!-- Node13&#45;&gt;Node6 -->
<g id="edge96" class="edge"><title>Node13&#45;&gt;Node6</title>
<path fill="none" stroke="#9a32cd" stroke-dasharray="5,2" d="M1113.04,-193.32C1156.96,-174.216 1241.78,-140.417 1318,-127.948 1383.79,-117.186 1402.52,-115.414 1468,-127.948 1657.94,-164.309 1693.51,-242.589 1810,-396.948 1837.36,-433.196 1864.44,-480.178 1875.64,-500.21"/>
<polygon fill="#9a32cd" stroke="#9a32cd" points="1111.54,-190.155 1103.8,-197.387 1114.36,-196.563 1111.54,-190.155"/>
<text text-anchor="middle" x="1555" y="-196.948" font-family="FreeSans" font-size="10.00"> bdrElem_dof</text>
<text text-anchor="middle" x="1555" y="-185.948" font-family="FreeSans" font-size="10.00">elem_dof</text>
</g>
<!-- Node13&#45;&gt;Node7 -->
<g id="edge32" class="edge"><title>Node13&#45;&gt;Node7</title>
<path fill="none" stroke="#9a32cd" stroke-dasharray="5,2" d="M1114.25,-202.122C1202.09,-190.224 1455.79,-167.504 1624,-270.948 1650.38,-287.17 1672.93,-316.752 1683.53,-332.108"/>
<polygon fill="#9a32cd" stroke="#9a32cd" points="1113.55,-198.685 1104.14,-203.544 1114.53,-205.616 1113.55,-198.685"/>
<text text-anchor="middle" x="1393" y="-222.948" font-family="FreeSans" font-size="10.00"> el_dof</text>
<text text-anchor="middle" x="1393" y="-211.948" font-family="FreeSans" font-size="10.00">bel_dof</text>
</g>
<!-- Node13&#45;&gt;Node14 -->
<g id="edge78" class="edge"><title>Node13&#45;&gt;Node14</title>
<path fill="none" stroke="#9a32cd" stroke-dasharray="5,2" d="M1104.36,-222.664C1122.37,-235.513 1149.12,-253.663 1174,-266.948 1227.59,-295.569 1263.78,-271.174 1300,-319.948 1322.78,-350.625 1303.68,-455.522 1318,-490.948 1332.66,-527.226 1365.3,-561.205 1382.28,-577.263"/>
<polygon fill="#9a32cd" stroke="#9a32cd" points="1105.95,-219.495 1095.79,-216.482 1101.85,-225.172 1105.95,-219.495"/>
<text text-anchor="middle" x="1237" y="-431.948" font-family="FreeSans" font-size="10.00"> el_to_face</text>
<text text-anchor="middle" x="1237" y="-420.948" font-family="FreeSans" font-size="10.00">el_to_edge</text>
<text text-anchor="middle" x="1237" y="-409.948" font-family="FreeSans" font-size="10.00">c_bel_to_edge</text>
<text text-anchor="middle" x="1237" y="-398.948" font-family="FreeSans" font-size="10.00">edge_vertex</text>
<text text-anchor="middle" x="1237" y="-387.948" font-family="FreeSans" font-size="10.00">face_edge</text>
<text text-anchor="middle" x="1237" y="-376.948" font-family="FreeSans" font-size="10.00">el_to_el</text>
<text text-anchor="middle" x="1237" y="-365.948" font-family="FreeSans" font-size="10.00">c_el_to_face</text>
<text text-anchor="middle" x="1237" y="-354.948" font-family="FreeSans" font-size="10.00">f_bel_to_edge</text>
<text text-anchor="middle" x="1237" y="-343.948" font-family="FreeSans" font-size="10.00">c_el_to_edge</text>
<text text-anchor="middle" x="1237" y="-332.948" font-family="FreeSans" font-size="10.00">f_el_to_face</text>
<text text-anchor="middle" x="1237" y="-321.948" font-family="FreeSans" font-size="10.00">...</text>
</g>
<!-- Node14&#45;&gt;Node6 -->
<g id="edge98" class="edge"><title>Node14&#45;&gt;Node6</title>
<path fill="none" stroke="#9a32cd" stroke-dasharray="5,2" d="M1424.11,-582.733C1493.52,-573.224 1666.21,-548.973 1810,-523.948 1817.8,-522.591 1826.06,-521.054 1834.08,-519.508"/>
<polygon fill="#9a32cd" stroke="#9a32cd" points="1423.31,-579.31 1413.88,-584.131 1424.26,-586.245 1423.31,-579.31"/>
<text text-anchor="middle" x="1690" y="-551.948" font-family="FreeSans" font-size="10.00"> mesh</text>
</g>
<!-- Node14&#45;&gt;Node7 -->
<g id="edge34" class="edge"><title>Node14&#45;&gt;Node7</title>
<path fill="none" stroke="#9a32cd" stroke-dasharray="5,2" d="M1409.27,-569.872C1425.95,-551.591 1451.7,-521.124 1468,-490.948 1479.82,-469.061 1467.61,-454.705 1486,-437.948 1532.61,-395.47 1568.61,-435.095 1624,-404.948 1649.04,-391.318 1671.5,-365.709 1682.62,-351.705"/>
<polygon fill="#9a32cd" stroke="#9a32cd" points="1406.55,-567.659 1402.31,-577.369 1411.68,-572.422 1406.55,-567.659"/>
<text text-anchor="middle" x="1555" y="-439.948" font-family="FreeSans" font-size="10.00"> patchTopo</text>
</g>
<!-- Node15&#45;&gt;Node14 -->
<g id="edge36" class="edge"><title>Node15&#45;&gt;Node14</title>
<path fill="none" stroke="#9a32cd" stroke-dasharray="5,2" d="M1119.89,-550.612C1136.28,-555.792 1155.92,-561.392 1174,-564.948 1245.99,-579.112 1333.18,-584.405 1372.28,-586.167"/>
<polygon fill="#9a32cd" stroke="#9a32cd" points="1120.73,-547.208 1110.14,-547.463 1118.58,-553.869 1120.73,-547.208"/>
<text text-anchor="middle" x="1237" y="-604.948" font-family="FreeSans" font-size="10.00"> boundary</text>
<text text-anchor="middle" x="1237" y="-593.948" font-family="FreeSans" font-size="10.00">elements</text>
<text text-anchor="middle" x="1237" y="-582.948" font-family="FreeSans" font-size="10.00">faces</text>
</g>
<!-- Node16&#45;&gt;Node14 -->
<g id="edge40" class="edge"><title>Node16&#45;&gt;Node14</title>
<path fill="none" stroke="#9a32cd" stroke-dasharray="5,2" d="M1136.95,-671.338C1181.89,-674.654 1246.9,-674.724 1300,-655.948 1335.44,-643.415 1368.73,-612.375 1384.1,-596.553"/>
<polygon fill="#9a32cd" stroke="#9a32cd" points="1137.08,-667.837 1126.83,-670.511 1136.51,-674.814 1137.08,-667.837"/>
<text text-anchor="middle" x="1237" y="-674.948" font-family="FreeSans" font-size="10.00"> vertices</text>
</g>
<!-- Node17&#45;&gt;Node14 -->
<g id="edge48" class="edge"><title>Node17&#45;&gt;Node14</title>
<path fill="none" stroke="#9a32cd" stroke-dasharray="5,2" d="M1141.96,-629.749C1185.91,-631.339 1247.21,-630.924 1300,-620.948 1326.01,-616.033 1354.38,-604.727 1372.86,-596.499"/>
<polygon fill="#9a32cd" stroke="#9a32cd" points="1141.87,-626.242 1131.74,-629.332 1141.59,-633.237 1141.87,-626.242"/>
<text text-anchor="middle" x="1237" y="-642.948" font-family="FreeSans" font-size="10.00"> fc_faces_info</text>
<text text-anchor="middle" x="1237" y="-631.948" font-family="FreeSans" font-size="10.00">faces_info</text>
</g>
<!-- Node18 -->
<g id="node43" class="node"><title>Node18</title>
<a xlink:href="classFaceElementTransformations.html" target="_top" xlink:title="FaceElementTransformations">
<polygon fill="white" stroke="black" points="1010,-693.448 1010,-712.448 1156,-712.448 1156,-693.448 1010,-693.448"/>
<text text-anchor="middle" x="1083" y="-699.448" font-family="FreeSans" font-size="10.00">FaceElementTransformations</text>
</a>
</g>
<!-- Node18&#45;&gt;Node14 -->
<g id="edge52" class="edge"><title>Node18&#45;&gt;Node14</title>
<path fill="none" stroke="#9a32cd" stroke-dasharray="5,2" d="M1166.25,-711.344C1208.26,-712.151 1258.88,-707.699 1300,-687.948 1342.76,-667.41 1375.24,-617.772 1387.58,-596.685"/>
<polygon fill="#9a32cd" stroke="#9a32cd" points="1166.14,-707.84 1156.04,-711.043 1165.93,-714.837 1166.14,-707.84"/>
<text text-anchor="middle" x="1237" y="-712.948" font-family="FreeSans" font-size="10.00"> FaceElemTr</text>
</g>
<!-- Node19 -->
<g id="node45" class="node"><title>Node19</title>
<a xlink:href="classIntegrationPointTransformation.html" target="_top" xlink:title="IntegrationPointTransformation">
<polygon fill="white" stroke="black" points="730,-697.448 730,-716.448 882,-716.448 882,-697.448 730,-697.448"/>
<text text-anchor="middle" x="806" y="-703.448" font-family="FreeSans" font-size="10.00">IntegrationPointTransformation</text>
</a>
</g>
<!-- Node19&#45;&gt;Node18 -->
<g id="edge54" class="edge"><title>Node19&#45;&gt;Node18</title>
<path fill="none" stroke="#9a32cd" stroke-dasharray="5,2" d="M892.293,-704.106C894.891,-704.048 897.465,-703.996 900,-703.948 936.213,-703.272 976.463,-702.999 1009.97,-702.905"/>
<polygon fill="#9a32cd" stroke="#9a32cd" points="892.094,-700.609 882.18,-704.346 892.261,-707.607 892.094,-700.609"/>
<text text-anchor="middle" x="946" y="-716.948" font-family="FreeSans" font-size="10.00"> Loc1</text>
<text text-anchor="middle" x="946" y="-705.948" font-family="FreeSans" font-size="10.00">Loc2</text>
</g>
<!-- Node20&#45;&gt;Node14 -->
<g id="edge80" class="edge"><title>Node20&#45;&gt;Node14</title>
<path fill="none" stroke="#9a32cd" stroke-dasharray="5,2" d="M669.678,-732.859C833.016,-751.146 1193.4,-783.354 1300,-725.948 1353.17,-697.315 1381.33,-623.449 1390.03,-596.756"/>
<polygon fill="#9a32cd" stroke="#9a32cd" points="670.011,-729.374 659.681,-731.73 669.225,-736.33 670.011,-729.374"/>
<text text-anchor="middle" x="946" y="-780.948" font-family="FreeSans" font-size="10.00"> FaceTransformation</text>
<text text-anchor="middle" x="946" y="-769.948" font-family="FreeSans" font-size="10.00">Transformation2</text>
<text text-anchor="middle" x="946" y="-758.948" font-family="FreeSans" font-size="10.00">Transformation</text>
</g>
<!-- Node20&#45;&gt;Node19 -->
<g id="edge56" class="edge"><title>Node20&#45;&gt;Node19</title>
<path fill="none" stroke="#9a32cd" stroke-dasharray="5,2" d="M669.83,-716.942C689.481,-715.5 710.39,-713.966 729.775,-712.543"/>
<polygon fill="#9a32cd" stroke="#9a32cd" points="669.4,-713.464 659.683,-717.687 669.913,-720.446 669.4,-713.464"/>
<text text-anchor="middle" x="695" y="-716.948" font-family="FreeSans" font-size="10.00"> Transf</text>
</g>
<!-- Node21 -->
<g id="node49" class="node"><title>Node21</title>
<a xlink:href="classElementTransformation.html" target="_top" xlink:title="ElementTransformation">
<polygon fill="white" stroke="black" points="320.5,-675.448 320.5,-694.448 439.5,-694.448 439.5,-675.448 320.5,-675.448"/>
<text text-anchor="middle" x="380" y="-681.448" font-family="FreeSans" font-size="10.00">ElementTransformation</text>
</a>
</g>
<!-- Node21&#45;&gt;Node18 -->
<g id="edge76" class="edge"><title>Node21&#45;&gt;Node18</title>
<path fill="none" stroke="#9a32cd" stroke-dasharray="5,2" d="M449.728,-680.984C516.915,-677.704 621.424,-674.021 712,-676.948 787.674,-679.394 806.469,-682.687 882,-687.948 924.414,-690.903 971.843,-694.432 1009.97,-697.324"/>
<polygon fill="#9a32cd" stroke="#9a32cd" points="449.496,-677.491 439.683,-681.485 449.845,-684.482 449.496,-677.491"/>
<text text-anchor="middle" x="695" y="-700.948" font-family="FreeSans" font-size="10.00"> Elem1</text>
<text text-anchor="middle" x="695" y="-689.948" font-family="FreeSans" font-size="10.00">Elem2</text>
<text text-anchor="middle" x="695" y="-678.948" font-family="FreeSans" font-size="10.00">Face</text>
</g>
<!-- Node21&#45;&gt;Node20 -->
<g id="edge58" class="edge"><title>Node21&#45;&gt;Node20</title>
<path fill="none" stroke="midnightblue" d="M442.11,-696.295C471.953,-701.747 507.322,-708.209 535.76,-713.404"/>
<polygon fill="midnightblue" stroke="midnightblue" points="442.685,-692.843 432.219,-694.488 441.427,-699.729 442.685,-692.843"/>
</g>
<!-- Node22 -->
<g id="node51" class="node"><title>Node22</title>
<a xlink:href="classIntegrationPoint.html" target="_top" xlink:title="Class for integration point with weight.">
<polygon fill="white" stroke="black" points="0,-691.448 0,-710.448 86,-710.448 86,-691.448 0,-691.448"/>
<text text-anchor="middle" x="43" y="-697.448" font-family="FreeSans" font-size="10.00">IntegrationPoint</text>
</a>
</g>
<!-- Node22&#45;&gt;Node21 -->
<g id="edge60" class="edge"><title>Node22&#45;&gt;Node21</title>
<path fill="none" stroke="#9a32cd" stroke-dasharray="5,2" d="M96.2404,-697.746C117.882,-696.489 143.132,-695.08 166,-693.948 218.182,-691.366 277.545,-688.908 320.49,-687.214"/>
<polygon fill="#9a32cd" stroke="#9a32cd" points="96.0322,-694.252 86.2536,-698.33 96.4409,-701.24 96.0322,-694.252"/>
<text text-anchor="middle" x="208" y="-695.948" font-family="FreeSans" font-size="10.00"> IntPoint</text>
</g>
<!-- Node27 -->
<g id="node62" class="node"><title>Node27</title>
<a xlink:href="classIntegrationRule.html" target="_top" xlink:title="Class for integration rule.">
<polygon fill="white" stroke="black" points="166,-714.448 166,-733.448 250,-733.448 250,-714.448 166,-714.448"/>
<text text-anchor="middle" x="208" y="-720.448" font-family="FreeSans" font-size="10.00">IntegrationRule</text>
</a>
</g>
<!-- Node22&#45;&gt;Node27 -->
<g id="edge74" class="edge"><title>Node22&#45;&gt;Node27</title>
<path fill="none" stroke="#9a32cd" stroke-dasharray="5,2" d="M96.4187,-708.395C118.897,-711.528 144.679,-715.122 165.793,-718.065"/>
<polygon fill="#9a32cd" stroke="#9a32cd" points="96.7393,-704.905 86.3518,-706.991 95.7728,-711.838 96.7393,-704.905"/>
<text text-anchor="middle" x="126" y="-716.948" font-family="FreeSans" font-size="10.00"> IntPoints</text>
</g>
<!-- Node23 -->
<g id="node54" class="node"><title>Node23</title>
<a xlink:href="classDenseMatrix.html" target="_top" xlink:title="Data type dense matrix.">
<polygon fill="white" stroke="black" points="343.5,-608.448 343.5,-627.448 416.5,-627.448 416.5,-608.448 343.5,-608.448"/>
<text text-anchor="middle" x="380" y="-614.448" font-family="FreeSans" font-size="10.00">DenseMatrix</text>
</a>
</g>
<!-- Node23&#45;&gt;Node20 -->
<g id="edge64" class="edge"><title>Node23&#45;&gt;Node20</title>
<path fill="none" stroke="#9a32cd" stroke-dasharray="5,2" d="M421.202,-630.612C444.348,-638.386 473.432,-649.274 498,-661.948 527.524,-677.18 558.992,-700.3 575.776,-713.263"/>
<polygon fill="#9a32cd" stroke="#9a32cd" points="422.269,-627.278 411.676,-627.475 420.079,-633.927 422.269,-627.278"/>
<text text-anchor="middle" x="478" y="-685.948" font-family="FreeSans" font-size="10.00"> dFdx</text>
<text text-anchor="middle" x="478" y="-674.948" font-family="FreeSans" font-size="10.00">PointMat</text>
<text text-anchor="middle" x="478" y="-663.948" font-family="FreeSans" font-size="10.00">dshape</text>
</g>
<!-- Node24 -->
<g id="node56" class="node"><title>Node24</title>
<a xlink:href="classMatrix.html" target="_top" xlink:title="Abstract data type matrix.">
<polygon fill="white" stroke="black" points="186,-608.448 186,-627.448 230,-627.448 230,-608.448 186,-608.448"/>
<text text-anchor="middle" x="208" y="-614.448" font-family="FreeSans" font-size="10.00">Matrix</text>
</a>
</g>
<!-- Node24&#45;&gt;Node23 -->
<g id="edge66" class="edge"><title>Node24&#45;&gt;Node23</title>
<path fill="none" stroke="midnightblue" d="M240.237,-617.948C269.493,-617.948 312.611,-617.948 343.206,-617.948"/>
<polygon fill="midnightblue" stroke="midnightblue" points="240.134,-614.448 230.134,-617.948 240.134,-621.448 240.134,-614.448"/>
</g>
<!-- Node25 -->
<g id="node58" class="node"><title>Node25</title>
<a xlink:href="classOperator.html" target="_top" xlink:title="Abstract operator.">
<polygon fill="white" stroke="black" points="15,-608.448 15,-627.448 71,-627.448 71,-608.448 15,-608.448"/>
<text text-anchor="middle" x="43" y="-614.448" font-family="FreeSans" font-size="10.00">Operator</text>
</a>
</g>
<!-- Node25&#45;&gt;Node24 -->
<g id="edge68" class="edge"><title>Node25&#45;&gt;Node24</title>
<path fill="none" stroke="midnightblue" d="M81.3984,-617.948C113.818,-617.948 159.107,-617.948 185.812,-617.948"/>
<polygon fill="midnightblue" stroke="midnightblue" points="81.3645,-614.448 71.3645,-617.948 81.3645,-621.448 81.3645,-614.448"/>
</g>
<!-- Node26 -->
<g id="node60" class="node"><title>Node26</title>
<a xlink:href="classFiniteElement.html" target="_top" xlink:title="Abstract class for Finite Elements.">
<polygon fill="white" stroke="black" points="341,-714.448 341,-733.448 419,-733.448 419,-714.448 341,-714.448"/>
<text text-anchor="middle" x="380" y="-720.448" font-family="FreeSans" font-size="10.00">FiniteElement</text>
</a>
</g>
<!-- Node26&#45;&gt;Node20 -->
<g id="edge70" class="edge"><title>Node26&#45;&gt;Node20</title>
<path fill="none" stroke="#9a32cd" stroke-dasharray="5,2" d="M429.452,-723.711C455.374,-723.586 487.602,-723.431 516.218,-723.293"/>
<polygon fill="#9a32cd" stroke="#9a32cd" points="429.106,-720.212 419.123,-723.76 429.14,-727.212 429.106,-720.212"/>
<text text-anchor="middle" x="478" y="-724.948" font-family="FreeSans" font-size="10.00"> FElem</text>
</g>
<!-- Node27&#45;&gt;Node26 -->
<g id="edge72" class="edge"><title>Node27&#45;&gt;Node26</title>
<path fill="none" stroke="#9a32cd" stroke-dasharray="5,2" d="M260.11,-723.948C286.023,-723.948 316.823,-723.948 340.717,-723.948"/>
<polygon fill="#9a32cd" stroke="#9a32cd" points="260.076,-720.448 250.076,-723.948 260.076,-727.448 260.076,-720.448"/>
<text text-anchor="middle" x="285" y="-725.948" font-family="FreeSans" font-size="10.00"> Nodes</text>
</g>
<!-- Node28&#45;&gt;Node7 -->
<g id="edge84" class="edge"><title>Node28&#45;&gt;Node7</title>
<path fill="none" stroke="#9a32cd" stroke-dasharray="5,2" d="M1443.26,-463.463C1452.45,-459.944 1461.25,-454.971 1468,-447.948 1488.77,-426.337 1464.06,-403.37 1486,-382.948 1528.05,-343.817 1596.56,-337.478 1642.44,-338.293"/>
<polygon fill="#9a32cd" stroke="#9a32cd" points="1442.02,-460.186 1433.61,-466.63 1444.2,-466.836 1442.02,-460.186"/>
<text text-anchor="middle" x="1555" y="-395.948" font-family="FreeSans" font-size="10.00"> bel_to_IJK</text>
<text text-anchor="middle" x="1555" y="-384.948" font-family="FreeSans" font-size="10.00">el_to_IJK</text>
</g>
<!-- Node29&#45;&gt;Node6 -->
<g id="edge90" class="edge"><title>Node29&#45;&gt;Node6</title>
<path fill="none" stroke="#9a32cd" stroke-dasharray="5,2" d="M1633.63,-29.5054C1690.43,-28.7357 1764.82,-37.9916 1810,-83.9483 1870.71,-145.706 1879.67,-442.87 1880.84,-500.321"/>
<polygon fill="#9a32cd" stroke="#9a32cd" points="1633.51,-26.0071 1623.6,-29.7466 1633.68,-33.0051 1633.51,-26.0071"/>
<text text-anchor="middle" x="1690" y="-43.9483" font-family="FreeSans" font-size="10.00"> RefData</text>
</g>
</g>
</svg>
        <g id="navigator" transform="translate(0 0)" fill="#404254">
                <rect fill="#f2f5e9" fill-opacity="0.5" stroke="#606060" stroke-width=".5" x="0" y="0" width="60" height="60"/>
                <use id="zoomplus" xlink:href="#zoomPlus" x="17" y="9" onmousedown="handleZoom(evt,'in')"/>
                <use id="zoomminus" xlink:href="#zoomMin" x="42" y="9" onmousedown="handleZoom(evt,'out')"/>
                <use id="reset" xlink:href="#resetDef" x="30" y="36" onmousedown="handleReset()"/>
                <g id="arrowUp" xlink:href="#dirArrow" transform="translate(30 24)" onmousedown="handlePan(0,-1)">
                  <use xlink:href="#rim" fill="#404040">
                        <set attributeName="fill" to="#808080" begin="arrowUp.mouseover" end="arrowUp.mouseout"/>
                  </use>
                  <path fill="none" stroke="white" stroke-width="1.5" d="M0,-3.0v7 M-2.5,-0.5L0,-3.0L2.5,-0.5"/>
                </g>
                <g id="arrowRight" xlink:href="#dirArrow" transform="rotate(90) translate(36 -43)" onmousedown="handlePan(1,0)">
                  <use xlink:href="#rim" fill="#404040">
                        <set attributeName="fill" to="#808080" begin="arrowRight.mouseover" end="arrowRight.mouseout"/>
                  </use>
                  <path fill="none" stroke="white" stroke-width="1.5" d="M0,-3.0v7 M-2.5,-0.5L0,-3.0L2.5,-0.5"/>
                </g>
                <g id="arrowDown" xlink:href="#dirArrow" transform="rotate(180) translate(-30 -48)" onmousedown="handlePan(0,1)">
                  <use xlink:href="#rim" fill="#404040">
                        <set attributeName="fill" to="#808080" begin="arrowDown.mouseover" end="arrowDown.mouseout"/>
                  </use>
                  <path fill="none" stroke="white" stroke-width="1.5" d="M0,-3.0v7 M-2.5,-0.5L0,-3.0L2.5,-0.5"/>
                </g>
                <g id="arrowLeft" xlink:href="#dirArrow" transform="rotate(270) translate(-36 17)" onmousedown="handlePan(-1,0)">
                  <use xlink:href="#rim" fill="#404040">
                        <set attributeName="fill" to="#808080" begin="arrowLeft.mouseover" end="arrowLeft.mouseout"/>
                  </use>
                  <path fill="none" stroke="white" stroke-width="1.5" d="M0,-3.0v7 M-2.5,-0.5L0,-3.0L2.5,-0.5"/>
                </g>
        </g>
</svg>
