<?xml version="1.0" encoding="UTF-8" standalone="no"?>
<!DOCTYPE svg PUBLIC "-//W3C//DTD SVG 1.1//EN"
 "http://www.w3.org/Graphics/SVG/1.1/DTD/svg11.dtd">
<!-- Generated by graphviz version 2.26.3 (20100126.1600)
 -->
<!-- Title: G Pages: 1 -->
<svg width="388pt" height="252pt"
 viewBox="0.00 0.00 388.00 252.00" xmlns="http://www.w3.org/2000/svg" xmlns:xlink="http://www.w3.org/1999/xlink">
<g id="graph1" class="graph" transform="scale(1 1) rotate(0) translate(4 248)">
<title>G</title>
<polygon fill="white" stroke="white" points="-4,5 -4,-248 385,-248 385,5 -4,5"/>
<!-- Node1 -->
<g id="node1" class="node"><title>Node1</title>
<polygon fill="#bfbfbf" stroke="black" points="163,-168.5 163,-187.5 207,-187.5 207,-168.5 163,-168.5"/>
<text text-anchor="middle" x="185" y="-174.5" font-family="FreeSans" font-size="10.00">Matrix</text>
</g>
<!-- Node3 -->
<g id="node5" class="node"><title>Node3</title>
<a xlink:href="classBilinearForm.html" target="_top" xlink:title="BilinearForm">
<polygon fill="white" stroke="black" points="7.5,-112.5 7.5,-131.5 80.5,-131.5 80.5,-112.5 7.5,-112.5"/>
<text text-anchor="middle" x="44" y="-118.5" font-family="FreeSans" font-size="10.00">BilinearForm</text>
</a>
</g>
<!-- Node1&#45;&gt;Node3 -->
<g id="edge4" class="edge"><title>Node1&#45;&gt;Node3</title>
<path fill="none" stroke="midnightblue" d="M153.635,-165.543C127.853,-155.303 91.849,-141.004 68.2388,-131.627"/>
<polygon fill="midnightblue" stroke="midnightblue" points="152.383,-168.812 162.969,-169.25 154.967,-162.306 152.383,-168.812"/>
</g>
<!-- Node5 -->
<g id="node9" class="node"><title>Node5</title>
<a xlink:href="classDenseMatrix.html" target="_top" xlink:title="Data type dense matrix.">
<polygon fill="white" stroke="black" points="97.5,-112.5 97.5,-131.5 170.5,-131.5 170.5,-112.5 97.5,-112.5"/>
<text text-anchor="middle" x="134" y="-118.5" font-family="FreeSans" font-size="10.00">DenseMatrix</text>
</a>
</g>
<!-- Node1&#45;&gt;Node5 -->
<g id="edge8" class="edge"><title>Node1&#45;&gt;Node5</title>
<path fill="none" stroke="midnightblue" d="M169.325,-160.788C160.601,-151.208 150.065,-139.64 142.782,-131.643"/>
<polygon fill="midnightblue" stroke="midnightblue" points="166.795,-163.209 176.116,-168.246 171.971,-158.495 166.795,-163.209"/>
</g>
<!-- Node6 -->
<g id="node11" class="node"><title>Node6</title>
<a xlink:href="classMixedBilinearForm.html" target="_top" xlink:title="MixedBilinearForm">
<polygon fill="white" stroke="black" points="187.5,-112.5 187.5,-131.5 286.5,-131.5 286.5,-112.5 187.5,-112.5"/>
<text text-anchor="middle" x="237" y="-118.5" font-family="FreeSans" font-size="10.00">MixedBilinearForm</text>
</a>
</g>
<!-- Node1&#45;&gt;Node6 -->
<g id="edge10" class="edge"><title>Node1&#45;&gt;Node6</title>
<path fill="none" stroke="midnightblue" d="M200.982,-160.788C209.878,-151.208 220.62,-139.64 228.046,-131.643"/>
<polygon fill="midnightblue" stroke="midnightblue" points="198.297,-158.536 194.058,-168.246 203.427,-163.299 198.297,-158.536"/>
</g>
<!-- Node9 -->
<g id="node17" class="node"><title>Node9</title>
<a xlink:href="classSparseMatrix.html" target="_top" xlink:title="Data type sparse matrix.">
<polygon fill="white" stroke="black" points="304,-112.5 304,-131.5 380,-131.5 380,-112.5 304,-112.5"/>
<text text-anchor="middle" x="342" y="-118.5" font-family="FreeSans" font-size="10.00">SparseMatrix</text>
</a>
</g>
<!-- Node1&#45;&gt;Node9 -->
<g id="edge16" class="edge"><title>Node1&#45;&gt;Node9</title>
<path fill="none" stroke="midnightblue" d="M216.795,-166.659C245.731,-156.338 287.97,-141.272 315.223,-131.551"/>
<polygon fill="midnightblue" stroke="midnightblue" points="215.404,-163.439 207.161,-170.095 217.756,-170.032 215.404,-163.439"/>
</g>
<!-- Node2 -->
<g id="node2" class="node"><title>Node2</title>
<a xlink:href="classOperator.html" target="_top" xlink:title="Abstract operator.">
<polygon fill="white" stroke="black" points="157,-224.5 157,-243.5 213,-243.5 213,-224.5 157,-224.5"/>
<text text-anchor="middle" x="185" y="-230.5" font-family="FreeSans" font-size="10.00">Operator</text>
</a>
</g>
<!-- Node2&#45;&gt;Node1 -->
<g id="edge2" class="edge"><title>Node2&#45;&gt;Node1</title>
<path fill="none" stroke="midnightblue" d="M185,-214.158C185,-205.155 185,-194.92 185,-187.643"/>
<polygon fill="midnightblue" stroke="midnightblue" points="181.5,-214.246 185,-224.246 188.5,-214.246 181.5,-214.246"/>
</g>
<!-- Node4 -->
<g id="node7" class="node"><title>Node4</title>
<a xlink:href="classParBilinearForm.html" target="_top" xlink:title="Class for parallel bilinear form.">
<polygon fill="white" stroke="black" points="0,-56.5 0,-75.5 88,-75.5 88,-56.5 0,-56.5"/>
<text text-anchor="middle" x="44" y="-62.5" font-family="FreeSans" font-size="10.00">ParBilinearForm</text>
</a>
</g>
<!-- Node3&#45;&gt;Node4 -->
<g id="edge6" class="edge"><title>Node3&#45;&gt;Node4</title>
<path fill="none" stroke="midnightblue" d="M44,-102.158C44,-93.155 44,-82.9199 44,-75.6427"/>
<polygon fill="midnightblue" stroke="midnightblue" points="40.5001,-102.246 44,-112.246 47.5001,-102.246 40.5001,-102.246"/>
</g>
<!-- Node7 -->
<g id="node13" class="node"><title>Node7</title>
<a xlink:href="classDiscreteLinearOperator.html" target="_top" xlink:title="DiscreteLinearOperator">
<polygon fill="white" stroke="black" points="177,-56.5 177,-75.5 297,-75.5 297,-56.5 177,-56.5"/>
<text text-anchor="middle" x="237" y="-62.5" font-family="FreeSans" font-size="10.00">DiscreteLinearOperator</text>
</a>
</g>
<!-- Node6&#45;&gt;Node7 -->
<g id="edge12" class="edge"><title>Node6&#45;&gt;Node7</title>
<path fill="none" stroke="midnightblue" d="M237,-102.158C237,-93.155 237,-82.9199 237,-75.6427"/>
<polygon fill="midnightblue" stroke="midnightblue" points="233.5,-102.246 237,-112.246 240.5,-102.246 233.5,-102.246"/>
</g>
<!-- Node8 -->
<g id="node15" class="node"><title>Node8</title>
<a xlink:href="classParDiscreteLinearOperator.html" target="_top" xlink:title="ParDiscreteLinearOperator">
<polygon fill="white" stroke="black" points="169.5,-0.5 169.5,-19.5 304.5,-19.5 304.5,-0.5 169.5,-0.5"/>
<text text-anchor="middle" x="237" y="-6.5" font-family="FreeSans" font-size="10.00">ParDiscreteLinearOperator</text>
</a>
</g>
<!-- Node7&#45;&gt;Node8 -->
<g id="edge14" class="edge"><title>Node7&#45;&gt;Node8</title>
<path fill="none" stroke="midnightblue" d="M237,-46.1575C237,-37.155 237,-26.9199 237,-19.6427"/>
<polygon fill="midnightblue" stroke="midnightblue" points="233.5,-46.2455 237,-56.2455 240.5,-46.2456 233.5,-46.2455"/>
</g>
</g>
</svg>
