<?xml version="1.0" encoding="UTF-8" standalone="no"?>
<!DOCTYPE svg PUBLIC "-//W3C//DTD SVG 1.1//EN"
 "http://www.w3.org/Graphics/SVG/1.1/DTD/svg11.dtd">
<!-- Generated by graphviz version 2.26.3 (20100126.1600)
 -->
<!-- Title: G Pages: 1 -->
<svg width="198pt" height="176pt"
 viewBox="0.00 0.00 198.00 176.00" xmlns="http://www.w3.org/2000/svg" xmlns:xlink="http://www.w3.org/1999/xlink">
<g id="graph1" class="graph" transform="scale(1 1) rotate(0) translate(4 172)">
<title>G</title>
<polygon fill="white" stroke="white" points="-4,5 -4,-172 195,-172 195,5 -4,5"/>
<!-- Node1 -->
<g id="node1" class="node"><title>Node1</title>
<polygon fill="#bfbfbf" stroke="black" points="45,-0.5 45,-19.5 129,-19.5 129,-0.5 45,-0.5"/>
<text text-anchor="middle" x="87" y="-6.5" font-family="FreeSans" font-size="10.00">GroupTopology</text>
</g>
<!-- Node2 -->
<g id="node2" class="node"><title>Node2</title>
<a xlink:href="classArray.html" target="_top" xlink:title="Array\&lt; int \&gt;">
<polygon fill="white" stroke="black" points="-0.5,-90.5 -0.5,-109.5 68.5,-109.5 68.5,-90.5 -0.5,-90.5"/>
<text text-anchor="middle" x="34" y="-96.5" font-family="FreeSans" font-size="10.00">Array&lt; int &gt;</text>
</a>
</g>
<!-- Node2&#45;&gt;Node1 -->
<g id="edge2" class="edge"><title>Node2&#45;&gt;Node1</title>
<path fill="none" stroke="#9a32cd" stroke-dasharray="5,2" d="M29.4428,-80.1834C27.585,-67.2554 27.3843,-50.5199 35,-38 40.0089,-29.7656 48.3503,-23.8032 56.9017,-19.5545"/>
<polygon fill="#9a32cd" stroke="#9a32cd" points="26.0678,-81.1767 31.3472,-90.3625 32.9484,-79.8894 26.0678,-81.1767"/>
<text text-anchor="middle" x="76.5" y="-62.5" font-family="FreeSans" font-size="10.00"> group_mgroup</text>
<text text-anchor="middle" x="76.5" y="-51.5" font-family="FreeSans" font-size="10.00">lproc_proc</text>
<text text-anchor="middle" x="76.5" y="-40.5" font-family="FreeSans" font-size="10.00">groupmaster_lproc</text>
</g>
<!-- Node3 -->
<g id="node4" class="node"><title>Node3</title>
<a xlink:href="classBaseArray.html" target="_top" xlink:title="Base class for array container.">
<polygon fill="white" stroke="black" points="2.5,-148.5 2.5,-167.5 65.5,-167.5 65.5,-148.5 2.5,-148.5"/>
<text text-anchor="middle" x="34" y="-154.5" font-family="FreeSans" font-size="10.00">BaseArray</text>
</a>
</g>
<!-- Node3&#45;&gt;Node2 -->
<g id="edge4" class="edge"><title>Node3&#45;&gt;Node2</title>
<path fill="none" stroke="midnightblue" d="M34,-138.153C34,-128.58 34,-117.523 34,-109.786"/>
<polygon fill="midnightblue" stroke="midnightblue" points="30.5001,-138.422 34,-148.422 37.5001,-138.423 30.5001,-138.422"/>
</g>
<!-- Node4 -->
<g id="node6" class="node"><title>Node4</title>
<a xlink:href="classTable.html" target="_top" xlink:title="Table">
<polygon fill="white" stroke="black" points="119,-90.5 119,-109.5 161,-109.5 161,-90.5 119,-90.5"/>
<text text-anchor="middle" x="140" y="-96.5" font-family="FreeSans" font-size="10.00">Table</text>
</a>
</g>
<!-- Node4&#45;&gt;Node1 -->
<g id="edge6" class="edge"><title>Node4&#45;&gt;Node1</title>
<path fill="none" stroke="#9a32cd" stroke-dasharray="5,2" d="M135.607,-80.0156C132.175,-67.2613 126.534,-50.7842 118,-38 113.329,-31.003 106.527,-24.598 100.483,-19.6851"/>
<polygon fill="#9a32cd" stroke="#9a32cd" points="132.293,-81.1985 138.071,-90.0792 139.092,-79.5337 132.293,-81.1985"/>
<text text-anchor="middle" x="161.5" y="-51.5" font-family="FreeSans" font-size="10.00"> group_lproc</text>
</g>
</g>
</svg>
