<?xml version="1.0" encoding="UTF-8" standalone="no"?>
<!DOCTYPE svg PUBLIC "-//W3C//DTD SVG 1.1//EN"
 "http://www.w3.org/Graphics/SVG/1.1/DTD/svg11.dtd">
<!-- Generated by graphviz version 2.26.3 (20100126.1600)
 -->
<!-- Title: G Pages: 1 -->
<svg width="328pt" height="256pt"
 viewBox="0.00 0.00 328.00 256.00" xmlns="http://www.w3.org/2000/svg" xmlns:xlink="http://www.w3.org/1999/xlink">
<g id="graph1" class="graph" transform="scale(1 1) rotate(0) translate(4 252)">
<title>G</title>
<polygon fill="white" stroke="white" points="-4,5 -4,-252 325,-252 325,5 -4,5"/>
<!-- Node1 -->
<g id="node1" class="node"><title>Node1</title>
<a xlink:href="classLinearFormIntegrator.html" target="_top" xlink:title="Abstract base class LinearFormIntegrator.">
<polygon fill="white" stroke="black" points="0,-114.5 0,-133.5 110,-133.5 110,-114.5 0,-114.5"/>
<text text-anchor="middle" x="55" y="-120.5" font-family="FreeSans" font-size="10.00">LinearFormIntegrator</text>
</a>
</g>
<!-- Node2 -->
<g id="node3" class="node"><title>Node2</title>
<a xlink:href="classBoundaryLFIntegrator.html" target="_top" xlink:title="Class for boundary integration L(v) := (g, v)">
<polygon fill="white" stroke="black" points="176,-228.5 176,-247.5 290,-247.5 290,-228.5 176,-228.5"/>
<text text-anchor="middle" x="233" y="-234.5" font-family="FreeSans" font-size="10.00">BoundaryLFIntegrator</text>
</a>
</g>
<!-- Node1&#45;&gt;Node2 -->
<g id="edge2" class="edge"><title>Node1&#45;&gt;Node2</title>
<path fill="none" stroke="midnightblue" d="M67.0313,-141.958C82.6047,-163.72 111.834,-199.846 146,-219 155.17,-224.141 165.607,-227.891 175.991,-230.627"/>
<polygon fill="midnightblue" stroke="midnightblue" points="69.8024,-139.812 61.2184,-133.602 64.056,-143.81 69.8024,-139.812"/>
</g>
<!-- Node3 -->
<g id="node5" class="node"><title>Node3</title>
<a xlink:href="classDomainLFIntegrator.html" target="_top" xlink:title="Class for domain integration L(v) := (f, v)">
<polygon fill="white" stroke="black" points="180.5,-190.5 180.5,-209.5 285.5,-209.5 285.5,-190.5 180.5,-190.5"/>
<text text-anchor="middle" x="233" y="-196.5" font-family="FreeSans" font-size="10.00">DomainLFIntegrator</text>
</a>
</g>
<!-- Node1&#45;&gt;Node3 -->
<g id="edge4" class="edge"><title>Node1&#45;&gt;Node3</title>
<path fill="none" stroke="midnightblue" d="M75.6122,-139.825C93.3606,-152.714 120.13,-170.447 146,-181 156.736,-185.379 168.649,-188.823 180.127,-191.504"/>
<polygon fill="midnightblue" stroke="midnightblue" points="77.3226,-136.736 67.2056,-133.59 73.1526,-142.358 77.3226,-136.736"/>
</g>
<!-- Node4 -->
<g id="node7" class="node"><title>Node4</title>
<a xlink:href="classVectorBoundaryFluxLFIntegrator.html" target="_top" xlink:title="VectorBoundaryFluxLFIntegrator">
<polygon fill="white" stroke="black" points="152.5,-152.5 152.5,-171.5 313.5,-171.5 313.5,-152.5 152.5,-152.5"/>
<text text-anchor="middle" x="233" y="-158.5" font-family="FreeSans" font-size="10.00">VectorBoundaryFluxLFIntegrator</text>
</a>
</g>
<!-- Node1&#45;&gt;Node4 -->
<g id="edge6" class="edge"><title>Node1&#45;&gt;Node4</title>
<path fill="none" stroke="midnightblue" d="M109.716,-135.681C134.959,-141.07 164.545,-147.386 188.406,-152.48"/>
<polygon fill="midnightblue" stroke="midnightblue" points="110.427,-132.254 99.9169,-133.589 108.966,-139.1 110.427,-132.254"/>
</g>
<!-- Node5 -->
<g id="node9" class="node"><title>Node5</title>
<a xlink:href="classVectorBoundaryLFIntegrator.html" target="_top" xlink:title="VectorBoundaryLFIntegrator">
<polygon fill="white" stroke="black" points="162,-114.5 162,-133.5 304,-133.5 304,-114.5 162,-114.5"/>
<text text-anchor="middle" x="233" y="-120.5" font-family="FreeSans" font-size="10.00">VectorBoundaryLFIntegrator</text>
</a>
</g>
<!-- Node1&#45;&gt;Node5 -->
<g id="edge8" class="edge"><title>Node1&#45;&gt;Node5</title>
<path fill="none" stroke="midnightblue" d="M120.492,-124C133.989,-124 148.263,-124 161.946,-124"/>
<polygon fill="midnightblue" stroke="midnightblue" points="120.345,-120.5 110.345,-124 120.345,-127.5 120.345,-120.5"/>
</g>
<!-- Node6 -->
<g id="node11" class="node"><title>Node6</title>
<a xlink:href="classVectorDomainLFIntegrator.html" target="_top" xlink:title="VectorDomainLFIntegrator">
<polygon fill="white" stroke="black" points="166,-76.5 166,-95.5 300,-95.5 300,-76.5 166,-76.5"/>
<text text-anchor="middle" x="233" y="-82.5" font-family="FreeSans" font-size="10.00">VectorDomainLFIntegrator</text>
</a>
</g>
<!-- Node1&#45;&gt;Node6 -->
<g id="edge10" class="edge"><title>Node1&#45;&gt;Node6</title>
<path fill="none" stroke="midnightblue" d="M109.716,-112.319C134.959,-106.93 164.545,-100.614 188.406,-95.5201"/>
<polygon fill="midnightblue" stroke="midnightblue" points="108.966,-108.9 99.9169,-114.411 110.427,-115.746 108.966,-108.9"/>
</g>
<!-- Node7 -->
<g id="node13" class="node"><title>Node7</title>
<a xlink:href="classVectorFEBoundaryFluxLFIntegrator.html" target="_top" xlink:title="VectorFEBoundaryFluxLFIntegrator">
<polygon fill="white" stroke="black" points="146,-38.5 146,-57.5 320,-57.5 320,-38.5 146,-38.5"/>
<text text-anchor="middle" x="233" y="-44.5" font-family="FreeSans" font-size="10.00">VectorFEBoundaryFluxLFIntegrator</text>
</a>
</g>
<!-- Node1&#45;&gt;Node7 -->
<g id="edge12" class="edge"><title>Node1&#45;&gt;Node7</title>
<path fill="none" stroke="midnightblue" d="M75.6122,-108.175C93.3606,-95.2859 120.13,-77.5525 146,-67 155.305,-63.2045 165.493,-60.1116 175.517,-57.609"/>
<polygon fill="midnightblue" stroke="midnightblue" points="73.1526,-105.642 67.2056,-114.41 77.3226,-111.264 73.1526,-105.642"/>
</g>
<!-- Node8 -->
<g id="node15" class="node"><title>Node8</title>
<a xlink:href="classVectorFEDomainLFIntegrator.html" target="_top" xlink:title=" for VectorFiniteElements (Nedelec, Raviart&#45;Thomas)">
<polygon fill="white" stroke="black" points="160,-0.5 160,-19.5 306,-19.5 306,-0.5 160,-0.5"/>
<text text-anchor="middle" x="233" y="-6.5" font-family="FreeSans" font-size="10.00">VectorFEDomainLFIntegrator</text>
</a>
</g>
<!-- Node1&#45;&gt;Node8 -->
<g id="edge14" class="edge"><title>Node1&#45;&gt;Node8</title>
<path fill="none" stroke="midnightblue" d="M67.0313,-106.042C82.6047,-84.2802 111.834,-48.154 146,-29 152.878,-25.1443 160.468,-22.0708 168.214,-19.6208"/>
<polygon fill="midnightblue" stroke="midnightblue" points="64.056,-104.19 61.2184,-114.398 69.8024,-108.188 64.056,-104.19"/>
</g>
</g>
</svg>
