<?xml version="1.0" encoding="UTF-8" standalone="no"?>
<!DOCTYPE svg PUBLIC "-//W3C//DTD SVG 1.1//EN"
 "http://www.w3.org/Graphics/SVG/1.1/DTD/svg11.dtd">
<!-- Generated by graphviz version 2.26.3 (20100126.1600)
 -->
<!-- Title: G Pages: 1 -->
<!--zoomable 140 -->
<svg id="main" version="1.1" xmlns="http://www.w3.org/2000/svg" xmlns:xlink="http://www.w3.org/1999/xlink" xml:space="preserve" onload="init(evt)">
        <defs>
                <circle id="rim" cx="0" cy="0" r="7"/>
                <circle id="rim2" cx="0" cy="0" r="3.5"/>
                <g id="zoomPlus">
                        <use xlink:href="#rim" fill="#404040">
                                <set attributeName="fill" to="#808080" begin="zoomplus.mouseover" end="zoomplus.mouseout"/>
                        </use>
                        <path d="M-4,0h8M0,-4v8" fill="none" stroke="white" stroke-width="1.5" pointer-events="none"/>
                </g>
                <g id="zoomMin">
                        <use xlink:href="#rim" fill="#404040">
                                <set attributeName="fill" to="#808080" begin="zoomminus.mouseover" end="zoomminus.mouseout"/>
                        </use>
                        <path d="M-4,0h8" fill="none" stroke="white" stroke-width="1.5" pointer-events="none"/>
                </g>
                <g id="dirArrow">
                        <path fill="none" stroke="white" stroke-width="1.5" d="M0,-3.0v7 M-2.5,-0.5L0,-3.0L2.5,-0.5"/>
                </g>
               <g id="resetDef">
                       <use xlink:href="#rim2" fill="#404040">
                               <set attributeName="fill" to="#808080" begin="reset.mouseover" end="reset.mouseout"/>
                       </use>
               </g>
        </defs>

<script type="text/javascript">
var viewWidth = 558;
var viewHeight = 140;
var sectionId = 'dynsection-1';
</script>
<script xlink:href="svgpan.js"/>
<svg id="graph" class="graph">
<g id="viewport">
<title>G</title>
<polygon fill="white" stroke="white" points="-4,5 -4,-136 555,-136 555,5 -4,5"/>
<!-- Node1 -->
<g id="node1" class="node"><title>Node1</title>
<polygon fill="#bfbfbf" stroke="black" points="182.5,-112.5 182.5,-131.5 271.5,-131.5 271.5,-112.5 182.5,-112.5"/>
<text text-anchor="middle" x="227" y="-118.5" font-family="FreeSans" font-size="10.00">isockstream.hpp</text>
</g>
<!-- Node2 -->
<g id="node3" class="node"><title>Node2</title>
<a xlink:href="isockstream_8cpp.html" target="_top" xlink:title="isockstream.cpp">
<polygon fill="white" stroke="black" points="137,-56.5 137,-75.5 225,-75.5 225,-56.5 137,-56.5"/>
<text text-anchor="middle" x="181" y="-62.5" font-family="FreeSans" font-size="10.00">isockstream.cpp</text>
</a>
</g>
<!-- Node1&#45;&gt;Node2 -->
<g id="edge2" class="edge"><title>Node1&#45;&gt;Node2</title>
<path fill="none" stroke="midnightblue" d="M212.625,-104.5C204.803,-94.9775 195.424,-83.5596 188.921,-75.6427"/>
<polygon fill="midnightblue" stroke="midnightblue" points="209.935,-106.74 218.987,-112.246 215.345,-102.297 209.935,-106.74"/>
</g>
<!-- Node3 -->
<g id="node5" class="node"><title>Node3</title>
<a xlink:href="mfem_8hpp.html" target="_top" xlink:title="mfem.hpp">
<polygon fill="white" stroke="black" points="242.5,-56.5 242.5,-75.5 303.5,-75.5 303.5,-56.5 242.5,-56.5"/>
<text text-anchor="middle" x="273" y="-62.5" font-family="FreeSans" font-size="10.00">mfem.hpp</text>
</a>
</g>
<!-- Node1&#45;&gt;Node3 -->
<g id="edge4" class="edge"><title>Node1&#45;&gt;Node3</title>
<path fill="none" stroke="midnightblue" d="M241.375,-104.5C249.197,-94.9775 258.576,-83.5596 265.079,-75.6427"/>
<polygon fill="midnightblue" stroke="midnightblue" points="238.655,-102.297 235.013,-112.246 244.065,-106.74 238.655,-102.297"/>
</g>
<!-- Node4 -->
<g id="node7" class="node"><title>Node4</title>
<a xlink:href="ex1_8cpp.html" target="_top" xlink:title="ex1.cpp">
<polygon fill="white" stroke="black" points="-0.5,-0.5 -0.5,-19.5 50.5,-19.5 50.5,-0.5 -0.5,-0.5"/>
<text text-anchor="middle" x="25" y="-6.5" font-family="FreeSans" font-size="10.00">ex1.cpp</text>
</a>
</g>
<!-- Node3&#45;&gt;Node4 -->
<g id="edge6" class="edge"><title>Node3&#45;&gt;Node4</title>
<path fill="none" stroke="midnightblue" d="M232.62,-55.7651C154.935,-38.1874 133.036,-38.4688 59,-20 56.2539,-19.315 53.3969,-18.5532 50.5575,-17.7645"/>
<polygon fill="midnightblue" stroke="midnightblue" points="231.848,-59.1789 242.377,-57.9997 233.411,-52.3556 231.848,-59.1789"/>
</g>
<!-- Node5 -->
<g id="node9" class="node"><title>Node5</title>
<a xlink:href="ex1p_8cpp.html" target="_top" xlink:title="ex1p.cpp">
<polygon fill="white" stroke="black" points="67.5,-0.5 67.5,-19.5 124.5,-19.5 124.5,-0.5 67.5,-0.5"/>
<text text-anchor="middle" x="96" y="-6.5" font-family="FreeSans" font-size="10.00">ex1p.cpp</text>
</a>
</g>
<!-- Node3&#45;&gt;Node5 -->
<g id="edge8" class="edge"><title>Node3&#45;&gt;Node5</title>
<path fill="none" stroke="midnightblue" d="M232.78,-53.2752C199.789,-42.837 153.896,-28.3175 124.568,-19.0384"/>
<polygon fill="midnightblue" stroke="midnightblue" points="231.983,-56.6937 242.573,-56.3733 234.094,-50.0197 231.983,-56.6937"/>
</g>
<!-- Node6 -->
<g id="node11" class="node"><title>Node6</title>
<a xlink:href="ex2_8cpp.html" target="_top" xlink:title="ex2.cpp">
<polygon fill="white" stroke="black" points="141.5,-0.5 141.5,-19.5 192.5,-19.5 192.5,-0.5 141.5,-0.5"/>
<text text-anchor="middle" x="167" y="-6.5" font-family="FreeSans" font-size="10.00">ex2.cpp</text>
</a>
</g>
<!-- Node3&#45;&gt;Node6 -->
<g id="edge10" class="edge"><title>Node3&#45;&gt;Node6</title>
<path fill="none" stroke="midnightblue" d="M245.478,-51.46C226.509,-41.4388 201.827,-28.3993 185.252,-19.6427"/>
<polygon fill="midnightblue" stroke="midnightblue" points="244.059,-54.669 254.536,-56.2455 247.329,-48.4796 244.059,-54.669"/>
</g>
<!-- Node7 -->
<g id="node13" class="node"><title>Node7</title>
<a xlink:href="ex2p_8cpp.html" target="_top" xlink:title="ex2p.cpp">
<polygon fill="white" stroke="black" points="209.5,-0.5 209.5,-19.5 266.5,-19.5 266.5,-0.5 209.5,-0.5"/>
<text text-anchor="middle" x="238" y="-6.5" font-family="FreeSans" font-size="10.00">ex2p.cpp</text>
</a>
</g>
<!-- Node3&#45;&gt;Node7 -->
<g id="edge12" class="edge"><title>Node3&#45;&gt;Node7</title>
<path fill="none" stroke="midnightblue" d="M261.518,-47.6296C255.68,-38.2887 248.825,-27.3197 244.027,-19.6427"/>
<polygon fill="midnightblue" stroke="midnightblue" points="258.635,-49.6206 266.903,-56.2455 264.571,-45.9105 258.635,-49.6206"/>
</g>
<!-- Node8 -->
<g id="node15" class="node"><title>Node8</title>
<a xlink:href="ex3_8cpp.html" target="_top" xlink:title="ex3.cpp">
<polygon fill="white" stroke="black" points="283.5,-0.5 283.5,-19.5 334.5,-19.5 334.5,-0.5 283.5,-0.5"/>
<text text-anchor="middle" x="309" y="-6.5" font-family="FreeSans" font-size="10.00">ex3.cpp</text>
</a>
</g>
<!-- Node3&#45;&gt;Node8 -->
<g id="edge14" class="edge"><title>Node3&#45;&gt;Node8</title>
<path fill="none" stroke="midnightblue" d="M284.81,-47.6296C290.814,-38.2887 297.866,-27.3197 302.801,-19.6427"/>
<polygon fill="midnightblue" stroke="midnightblue" points="281.734,-45.9411 279.271,-56.2455 287.622,-49.7264 281.734,-45.9411"/>
</g>
<!-- Node9 -->
<g id="node17" class="node"><title>Node9</title>
<a xlink:href="ex3p_8cpp.html" target="_top" xlink:title="ex3p.cpp">
<polygon fill="white" stroke="black" points="351.5,-0.5 351.5,-19.5 408.5,-19.5 408.5,-0.5 351.5,-0.5"/>
<text text-anchor="middle" x="380" y="-6.5" font-family="FreeSans" font-size="10.00">ex3p.cpp</text>
</a>
</g>
<!-- Node3&#45;&gt;Node9 -->
<g id="edge16" class="edge"><title>Node3&#45;&gt;Node9</title>
<path fill="none" stroke="midnightblue" d="M300.52,-51.5971C319.702,-41.558 344.768,-28.4393 361.576,-19.6427"/>
<polygon fill="midnightblue" stroke="midnightblue" points="298.875,-48.5075 291.638,-56.2455 302.121,-54.7095 298.875,-48.5075"/>
</g>
<!-- Node10 -->
<g id="node19" class="node"><title>Node10</title>
<a xlink:href="ex4_8cpp.html" target="_top" xlink:title="ex4.cpp">
<polygon fill="white" stroke="black" points="425.5,-0.5 425.5,-19.5 476.5,-19.5 476.5,-0.5 425.5,-0.5"/>
<text text-anchor="middle" x="451" y="-6.5" font-family="FreeSans" font-size="10.00">ex4.cpp</text>
</a>
</g>
<!-- Node3&#45;&gt;Node10 -->
<g id="edge18" class="edge"><title>Node3&#45;&gt;Node10</title>
<path fill="none" stroke="midnightblue" d="M313.342,-53.3082C347.729,-42.4898 396.108,-27.2694 425.41,-18.0509"/>
<polygon fill="midnightblue" stroke="midnightblue" points="312.088,-50.0335 303.599,-56.3733 314.189,-56.7108 312.088,-50.0335"/>
</g>
<!-- Node11 -->
<g id="node21" class="node"><title>Node11</title>
<a xlink:href="ex4p_8cpp.html" target="_top" xlink:title="ex4p.cpp">
<polygon fill="white" stroke="black" points="493.5,-0.5 493.5,-19.5 550.5,-19.5 550.5,-0.5 493.5,-0.5"/>
<text text-anchor="middle" x="522" y="-6.5" font-family="FreeSans" font-size="10.00">ex4p.cpp</text>
</a>
</g>
<!-- Node3&#45;&gt;Node11 -->
<g id="edge20" class="edge"><title>Node3&#45;&gt;Node11</title>
<path fill="none" stroke="midnightblue" d="M313.677,-57.8076C356.457,-49.0435 425.671,-34.4444 485,-20 487.715,-19.3389 490.536,-18.6256 493.353,-17.8949"/>
<polygon fill="midnightblue" stroke="midnightblue" points="312.752,-54.4241 303.654,-59.8532 314.152,-61.2827 312.752,-54.4241"/>
</g>
</g>
</svg>
        <g id="navigator" transform="translate(0 0)" fill="#404254">
                <rect fill="#f2f5e9" fill-opacity="0.5" stroke="#606060" stroke-width=".5" x="0" y="0" width="60" height="60"/>
                <use id="zoomplus" xlink:href="#zoomPlus" x="17" y="9" onmousedown="handleZoom(evt,'in')"/>
                <use id="zoomminus" xlink:href="#zoomMin" x="42" y="9" onmousedown="handleZoom(evt,'out')"/>
                <use id="reset" xlink:href="#resetDef" x="30" y="36" onmousedown="handleReset()"/>
                <g id="arrowUp" xlink:href="#dirArrow" transform="translate(30 24)" onmousedown="handlePan(0,-1)">
                  <use xlink:href="#rim" fill="#404040">
                        <set attributeName="fill" to="#808080" begin="arrowUp.mouseover" end="arrowUp.mouseout"/>
                  </use>
                  <path fill="none" stroke="white" stroke-width="1.5" d="M0,-3.0v7 M-2.5,-0.5L0,-3.0L2.5,-0.5"/>
                </g>
                <g id="arrowRight" xlink:href="#dirArrow" transform="rotate(90) translate(36 -43)" onmousedown="handlePan(1,0)">
                  <use xlink:href="#rim" fill="#404040">
                        <set attributeName="fill" to="#808080" begin="arrowRight.mouseover" end="arrowRight.mouseout"/>
                  </use>
                  <path fill="none" stroke="white" stroke-width="1.5" d="M0,-3.0v7 M-2.5,-0.5L0,-3.0L2.5,-0.5"/>
                </g>
                <g id="arrowDown" xlink:href="#dirArrow" transform="rotate(180) translate(-30 -48)" onmousedown="handlePan(0,1)">
                  <use xlink:href="#rim" fill="#404040">
                        <set attributeName="fill" to="#808080" begin="arrowDown.mouseover" end="arrowDown.mouseout"/>
                  </use>
                  <path fill="none" stroke="white" stroke-width="1.5" d="M0,-3.0v7 M-2.5,-0.5L0,-3.0L2.5,-0.5"/>
                </g>
                <g id="arrowLeft" xlink:href="#dirArrow" transform="rotate(270) translate(-36 17)" onmousedown="handlePan(-1,0)">
                  <use xlink:href="#rim" fill="#404040">
                        <set attributeName="fill" to="#808080" begin="arrowLeft.mouseover" end="arrowLeft.mouseout"/>
                  </use>
                  <path fill="none" stroke="white" stroke-width="1.5" d="M0,-3.0v7 M-2.5,-0.5L0,-3.0L2.5,-0.5"/>
                </g>
        </g>
</svg>
