<?xml version="1.0" encoding="UTF-8" standalone="no"?>
<!DOCTYPE svg PUBLIC "-//W3C//DTD SVG 1.1//EN"
 "http://www.w3.org/Graphics/SVG/1.1/DTD/svg11.dtd">
<!-- Generated by graphviz version 2.26.3 (20100126.1600)
 -->
<!-- Title: G Pages: 1 -->
<svg width="261pt" height="140pt"
 viewBox="0.00 0.00 261.00 140.00" xmlns="http://www.w3.org/2000/svg" xmlns:xlink="http://www.w3.org/1999/xlink">
<g id="graph1" class="graph" transform="scale(1 1) rotate(0) translate(4 136)">
<title>G</title>
<polygon fill="white" stroke="white" points="-4,5 -4,-136 258,-136 258,5 -4,5"/>
<!-- Node1 -->
<g id="node1" class="node"><title>Node1</title>
<polygon fill="#bfbfbf" stroke="black" points="62.5,-112.5 62.5,-131.5 145.5,-131.5 145.5,-112.5 62.5,-112.5"/>
<text text-anchor="middle" x="104" y="-118.5" font-family="FreeSans" font-size="10.00">sparsemat.hpp</text>
</g>
<!-- Node2 -->
<g id="node3" class="node"><title>Node2</title>
<a xlink:href="mem__alloc_8hpp.html" target="_top" xlink:title="../general/mem_alloc.hpp">
<polygon fill="white" stroke="black" points="0,-0.5 0,-19.5 128,-19.5 128,-0.5 0,-0.5"/>
<text text-anchor="middle" x="64" y="-6.5" font-family="FreeSans" font-size="10.00">../general/mem_alloc.hpp</text>
</a>
</g>
<!-- Node1&#45;&gt;Node2 -->
<g id="edge2" class="edge"><title>Node1&#45;&gt;Node2</title>
<path fill="none" stroke="midnightblue" d="M83.2148,-112.376C69.313,-104.692 52.1309,-92.4793 44,-76 36.4243,-60.646 43.5526,-41.8515 51.3216,-28.2511"/>
<polygon fill="midnightblue" stroke="midnightblue" points="54.2905,-30.1047 56.6297,-19.7713 48.357,-26.3905 54.2905,-30.1047"/>
</g>
<!-- Node3 -->
<g id="node5" class="node"><title>Node3</title>
<a xlink:href="table_8hpp.html" target="_top" xlink:title="../general/table.hpp">
<polygon fill="white" stroke="black" points="53,-56.5 53,-75.5 155,-75.5 155,-56.5 53,-56.5"/>
<text text-anchor="middle" x="104" y="-62.5" font-family="FreeSans" font-size="10.00">../general/table.hpp</text>
</a>
</g>
<!-- Node1&#45;&gt;Node3 -->
<g id="edge4" class="edge"><title>Node1&#45;&gt;Node3</title>
<path fill="none" stroke="midnightblue" d="M104,-112.246C104,-104.938 104,-94.6944 104,-85.7046"/>
<polygon fill="midnightblue" stroke="midnightblue" points="107.5,-85.6426 104,-75.6427 100.5,-85.6427 107.5,-85.6426"/>
</g>
<!-- Node4 -->
<g id="node8" class="node"><title>Node4</title>
<a xlink:href="densemat_8hpp.html" target="_top" xlink:title="densemat.hpp">
<polygon fill="white" stroke="black" points="173,-56.5 173,-75.5 253,-75.5 253,-56.5 173,-56.5"/>
<text text-anchor="middle" x="213" y="-62.5" font-family="FreeSans" font-size="10.00">densemat.hpp</text>
</a>
</g>
<!-- Node1&#45;&gt;Node4 -->
<g id="edge8" class="edge"><title>Node1&#45;&gt;Node4</title>
<path fill="none" stroke="midnightblue" d="M122.986,-112.246C140.179,-103.413 165.724,-90.2887 185.213,-80.2758"/>
<polygon fill="midnightblue" stroke="midnightblue" points="186.936,-83.3257 194.231,-75.6427 183.737,-77.0993 186.936,-83.3257"/>
</g>
<!-- Node3&#45;&gt;Node2 -->
<g id="edge6" class="edge"><title>Node3&#45;&gt;Node2</title>
<path fill="none" stroke="midnightblue" d="M97.0325,-56.2455C91.4689,-48.4564 83.522,-37.3308 76.8171,-27.9439"/>
<polygon fill="midnightblue" stroke="midnightblue" points="79.5481,-25.7457 70.8876,-19.6427 73.852,-29.8144 79.5481,-25.7457"/>
</g>
</g>
</svg>
