<?xml version="1.0" encoding="UTF-8" standalone="no"?>
<!DOCTYPE svg PUBLIC "-//W3C//DTD SVG 1.1//EN"
 "http://www.w3.org/Graphics/SVG/1.1/DTD/svg11.dtd">
<!-- Generated by graphviz version 2.30.1 (20170916.1124)
 -->
<!-- Title: mfem::GnuTLS_socketbuf Pages: 1 -->
<svg width="389pt" height="292pt"
 viewBox="0.00 0.00 389.00 292.00" xmlns="http://www.w3.org/2000/svg" xmlns:xlink="http://www.w3.org/1999/xlink">
<g id="graph0" class="graph" transform="scale(1 1) rotate(0) translate(4 288)">
<title>mfem::GnuTLS_socketbuf</title>
<polygon fill="white" stroke="white" points="-4,5 -4,-288 386,-288 386,5 -4,5"/>
<!-- Node1 -->
<g id="node1" class="node"><title>Node1</title>
<polygon fill="#bfbfbf" stroke="black" points="152,-0.5 152,-23.5 328,-23.5 328,-0.5 152,-0.5"/>
<text text-anchor="middle" x="240" y="-8.3" font-family="Helvetica,sans-Serif" font-size="14.00">mfem::GnuTLS_socketbuf</text>
</g>
<!-- Node2 -->
<g id="node2" class="node"><title>Node2</title>
<g id="a_node2"><a xlink:href="classmfem_1_1socketbuf.html" target="_top" xlink:title="mfem::socketbuf">
<polygon fill="white" stroke="black" points="-0.5,-84.5 -0.5,-107.5 116.5,-107.5 116.5,-84.5 -0.5,-84.5"/>
<text text-anchor="middle" x="58" y="-92.3" font-family="Helvetica,sans-Serif" font-size="14.00">mfem::socketbuf</text>
</a>
</g>
</g>
<!-- Node2&#45;&gt;Node1 -->
<g id="edge1" class="edge"><title>Node2&#45;&gt;Node1</title>
<path fill="none" stroke="midnightblue" d="M90.6021,-80.3111C126.893,-63.9604 184.638,-37.9435 216.669,-23.5117"/>
<polygon fill="midnightblue" stroke="midnightblue" points="89.1003,-77.1489 81.4207,-84.4478 91.9758,-83.531 89.1003,-77.1489"/>
</g>
<!-- Node3 -->
<g id="node3" class="node"><title>Node3</title>
<polygon fill="white" stroke="#bfbfbf" points="7.5,-176.5 7.5,-199.5 84.5,-199.5 84.5,-176.5 7.5,-176.5"/>
<text text-anchor="middle" x="46" y="-184.3" font-family="Helvetica,sans-Serif" font-size="14.00">streambuf</text>
</g>
<!-- Node3&#45;&gt;Node2 -->
<g id="edge2" class="edge"><title>Node3&#45;&gt;Node2</title>
<path fill="none" stroke="midnightblue" d="M48.7548,-166.339C51.1944,-148.042 54.6576,-122.068 56.5782,-107.664"/>
<polygon fill="midnightblue" stroke="midnightblue" points="45.2761,-165.948 47.4237,-176.322 52.2147,-166.873 45.2761,-165.948"/>
</g>
<!-- Node4 -->
<g id="node4" class="node"><title>Node4</title>
<g id="a_node4"><a xlink:href="classmfem_1_1GnuTLS__session__params.html" target="_top" xlink:title="mfem::GnuTLS_session\l_params">
<polygon fill="white" stroke="black" points="158,-77 158,-115 322,-115 322,-77 158,-77"/>
<text text-anchor="start" x="166" y="-99.8" font-family="Helvetica,sans-Serif" font-size="14.00">mfem::GnuTLS_session</text>
<text text-anchor="middle" x="240" y="-84.8" font-family="Helvetica,sans-Serif" font-size="14.00">_params</text>
</a>
</g>
</g>
<!-- Node4&#45;&gt;Node1 -->
<g id="edge3" class="edge"><title>Node4&#45;&gt;Node1</title>
<path fill="none" stroke="#9a32cd" stroke-dasharray="5,2" d="M240,-66.6157C240,-51.8707 240,-34.7138 240,-23.8572"/>
<polygon fill="#9a32cd" stroke="#9a32cd" points="236.5,-66.8015 240,-76.8015 243.5,-66.8016 236.5,-66.8015"/>
<text text-anchor="middle" x="265" y="-46.3" font-family="Helvetica,sans-Serif" font-size="14.00"> params</text>
</g>
<!-- Node5 -->
<g id="node5" class="node"><title>Node5</title>
<g id="a_node5"><a xlink:href="classmfem_1_1GnuTLS__global__state.html" target="_top" xlink:title="mfem::GnuTLS_global\l_state">
<polygon fill="white" stroke="black" points="103,-169 103,-207 257,-207 257,-169 103,-169"/>
<text text-anchor="start" x="111" y="-191.8" font-family="Helvetica,sans-Serif" font-size="14.00">mfem::GnuTLS_global</text>
<text text-anchor="middle" x="180" y="-176.8" font-family="Helvetica,sans-Serif" font-size="14.00">_state</text>
</a>
</g>
</g>
<!-- Node5&#45;&gt;Node4 -->
<g id="edge4" class="edge"><title>Node5&#45;&gt;Node4</title>
<path fill="none" stroke="#9a32cd" stroke-dasharray="5,2" d="M197.863,-160.205C207.547,-145.68 219.26,-128.11 227.876,-115.186"/>
<polygon fill="#9a32cd" stroke="#9a32cd" points="194.777,-158.525 192.142,-168.787 200.601,-162.408 194.777,-158.525"/>
<text text-anchor="middle" x="231" y="-138.3" font-family="Helvetica,sans-Serif" font-size="14.00"> state</text>
</g>
<!-- Node6 -->
<g id="node6" class="node"><title>Node6</title>
<g id="a_node6"><a xlink:href="classmfem_1_1GnuTLS__status.html" target="_top" xlink:title="mfem::GnuTLS_status">
<polygon fill="white" stroke="black" points="216,-260.5 216,-283.5 370,-283.5 370,-260.5 216,-260.5"/>
<text text-anchor="middle" x="293" y="-268.3" font-family="Helvetica,sans-Serif" font-size="14.00">mfem::GnuTLS_status</text>
</a>
</g>
</g>
<!-- Node6&#45;&gt;Node5 -->
<g id="edge5" class="edge"><title>Node6&#45;&gt;Node5</title>
<path fill="none" stroke="#9a32cd" stroke-dasharray="5,2" d="M261.247,-255.58C253.744,-251.497 245.919,-246.86 239,-242 224.24,-231.632 209.136,-217.997 197.906,-207.153"/>
<polygon fill="#9a32cd" stroke="#9a32cd" points="260.006,-258.882 270.486,-260.433 263.261,-252.684 260.006,-258.882"/>
<text text-anchor="middle" x="259" y="-230.3" font-family="Helvetica,sans-Serif" font-size="14.00"> status</text>
</g>
<!-- Node6&#45;&gt;Node4 -->
<g id="edge6" class="edge"><title>Node6&#45;&gt;Node4</title>
<path fill="none" stroke="#9a32cd" stroke-dasharray="5,2" d="M288.208,-250.398C283.202,-229.488 274.857,-196.261 266,-168 260.308,-149.837 252.723,-129.471 247.215,-115.225"/>
<polygon fill="#9a32cd" stroke="#9a32cd" points="284.861,-251.452 290.567,-260.378 291.673,-249.842 284.861,-251.452"/>
<text text-anchor="middle" x="298" y="-184.3" font-family="Helvetica,sans-Serif" font-size="14.00"> status</text>
</g>
<!-- Node6&#45;&gt;Node1 -->
<g id="edge7" class="edge"><title>Node6&#45;&gt;Node1</title>
<path fill="none" stroke="#9a32cd" stroke-dasharray="5,2" d="M304.217,-251.358C323.285,-215.21 357.495,-136.33 331,-76 319.719,-50.3137 291.707,-33.4347 269.717,-23.6718"/>
<polygon fill="#9a32cd" stroke="#9a32cd" points="301.018,-249.914 299.303,-260.369 307.163,-253.265 301.018,-249.914"/>
<text text-anchor="middle" x="361" y="-138.3" font-family="Helvetica,sans-Serif" font-size="14.00"> status</text>
</g>
</g>
</svg>
