<?xml version="1.0" encoding="UTF-8" standalone="no"?>
<!DOCTYPE svg PUBLIC "-//W3C//DTD SVG 1.1//EN"
 "http://www.w3.org/Graphics/SVG/1.1/DTD/svg11.dtd">
<!-- Generated by graphviz version 2.30.1 (20140821.0912)
 -->
<!-- Title: mfem::MixedVectorWeakCurlIntegrator Pages: 1 -->
<svg width="214pt" height="450pt"
 viewBox="0.00 0.00 214.00 450.00" xmlns="http://www.w3.org/2000/svg" xmlns:xlink="http://www.w3.org/1999/xlink">
<g id="graph0" class="graph" transform="scale(1 1) rotate(0) translate(4 446)">
<title>mfem::MixedVectorWeakCurlIntegrator</title>
<polygon fill="white" stroke="white" points="-4,5 -4,-446 211,-446 211,5 -4,5"/>
<!-- Node1 -->
<g id="node1" class="node"><title>Node1</title>
<polygon fill="#bfbfbf" stroke="black" points="5.5,-1 5.5,-39 200.5,-39 200.5,-1 5.5,-1"/>
<text text-anchor="start" x="13.5" y="-23.8" font-family="Helvetica,sans-Serif" font-size="14.00">mfem::MixedVectorWeakCurl</text>
<text text-anchor="middle" x="103" y="-8.8" font-family="Helvetica,sans-Serif" font-size="14.00">Integrator</text>
</g>
<!-- Node2 -->
<g id="node2" class="node"><title>Node2</title>
<g id="a_node2"><a xlink:href="classmfem_1_1MixedVectorIntegrator.html" target="_top" xlink:title="mfem::MixedVectorIntegrator">
<polygon fill="white" stroke="black" points="6.5,-78.5 6.5,-101.5 199.5,-101.5 199.5,-78.5 6.5,-78.5"/>
<text text-anchor="middle" x="103" y="-86.3" font-family="Helvetica,sans-Serif" font-size="14.00">mfem::MixedVectorIntegrator</text>
</a>
</g>
</g>
<!-- Node2&#45;&gt;Node1 -->
<g id="edge1" class="edge"><title>Node2&#45;&gt;Node1</title>
<path fill="none" stroke="midnightblue" d="M103,-68.098C103,-58.8689 103,-48.1198 103,-39.2228"/>
<polygon fill="midnightblue" stroke="midnightblue" points="99.5001,-68.375 103,-78.375 106.5,-68.375 99.5001,-68.375"/>
</g>
<!-- Node3 -->
<g id="node3" class="node"><title>Node3</title>
<g id="a_node3"><a xlink:href="classmfem_1_1BilinearFormIntegrator.html" target="_top" xlink:title="Abstract base class BilinearFormIntegrator. ">
<polygon fill="white" stroke="black" points="6,-140.5 6,-163.5 200,-163.5 200,-140.5 6,-140.5"/>
<text text-anchor="middle" x="103" y="-148.3" font-family="Helvetica,sans-Serif" font-size="14.00">mfem::BilinearFormIntegrator</text>
</a>
</g>
</g>
<!-- Node3&#45;&gt;Node2 -->
<g id="edge2" class="edge"><title>Node3&#45;&gt;Node2</title>
<path fill="none" stroke="midnightblue" d="M103,-130.231C103,-120.592 103,-109.544 103,-101.634"/>
<polygon fill="midnightblue" stroke="midnightblue" points="99.5001,-130.273 103,-140.273 106.5,-130.273 99.5001,-130.273"/>
</g>
<!-- Node4 -->
<g id="node4" class="node"><title>Node4</title>
<g id="a_node4"><a xlink:href="classmfem_1_1NonlinearFormIntegrator.html" target="_top" xlink:title="mfem::NonlinearFormIntegrator">
<polygon fill="white" stroke="black" points="-0.5,-202.5 -0.5,-225.5 206.5,-225.5 206.5,-202.5 -0.5,-202.5"/>
<text text-anchor="middle" x="103" y="-210.3" font-family="Helvetica,sans-Serif" font-size="14.00">mfem::NonlinearFormIntegrator</text>
</a>
</g>
</g>
<!-- Node4&#45;&gt;Node3 -->
<g id="edge3" class="edge"><title>Node4&#45;&gt;Node3</title>
<path fill="none" stroke="midnightblue" d="M103,-192.231C103,-182.592 103,-171.544 103,-163.634"/>
<polygon fill="midnightblue" stroke="midnightblue" points="99.5001,-192.273 103,-202.273 106.5,-192.273 99.5001,-192.273"/>
</g>
<!-- Node5 -->
<g id="node5" class="node"><title>Node5</title>
<g id="a_node5"><a xlink:href="classmfem_1_1IntegrationRule.html" target="_top" xlink:title="Class for an integration rule &#45; an Array of IntegrationPoint. ">
<polygon fill="white" stroke="black" points="27.5,-278.5 27.5,-301.5 178.5,-301.5 178.5,-278.5 27.5,-278.5"/>
<text text-anchor="middle" x="103" y="-286.3" font-family="Helvetica,sans-Serif" font-size="14.00">mfem::IntegrationRule</text>
</a>
</g>
</g>
<!-- Node5&#45;&gt;Node4 -->
<g id="edge4" class="edge"><title>Node5&#45;&gt;Node4</title>
<path fill="none" stroke="#9a32cd" stroke-dasharray="5,2" d="M103,-268.277C103,-254.387 103,-236.675 103,-225.583"/>
<polygon fill="#9a32cd" stroke="#9a32cd" points="99.5001,-268.398 103,-278.398 106.5,-268.398 99.5001,-268.398"/>
<text text-anchor="middle" x="126.5" y="-248.3" font-family="Helvetica,sans-Serif" font-size="14.00"> IntRule</text>
</g>
<!-- Node6 -->
<g id="node6" class="node"><title>Node6</title>
<g id="a_node6"><a xlink:href="classmfem_1_1Array.html" target="_top" xlink:title="mfem::Array\&lt; Integration\lPoint \&gt;">
<polygon fill="white" stroke="black" points="19.5,-341 19.5,-379 186.5,-379 186.5,-341 19.5,-341"/>
<text text-anchor="start" x="27.5" y="-363.8" font-family="Helvetica,sans-Serif" font-size="14.00">mfem::Array&lt; Integration</text>
<text text-anchor="middle" x="103" y="-348.8" font-family="Helvetica,sans-Serif" font-size="14.00">Point &gt;</text>
</a>
</g>
</g>
<!-- Node6&#45;&gt;Node5 -->
<g id="edge5" class="edge"><title>Node6&#45;&gt;Node5</title>
<path fill="none" stroke="midnightblue" d="M103,-330.599C103,-320.442 103,-309.6 103,-301.834"/>
<polygon fill="midnightblue" stroke="midnightblue" points="99.5001,-330.777 103,-340.777 106.5,-330.777 99.5001,-330.777"/>
</g>
<!-- Node7 -->
<g id="node7" class="node"><title>Node7</title>
<g id="a_node7"><a xlink:href="classmfem_1_1BaseArray.html" target="_top" xlink:title="Base class for array container. ">
<polygon fill="white" stroke="black" points="42,-418.5 42,-441.5 164,-441.5 164,-418.5 42,-418.5"/>
<text text-anchor="middle" x="103" y="-426.3" font-family="Helvetica,sans-Serif" font-size="14.00">mfem::BaseArray</text>
</a>
</g>
</g>
<!-- Node7&#45;&gt;Node6 -->
<g id="edge6" class="edge"><title>Node7&#45;&gt;Node6</title>
<path fill="none" stroke="midnightblue" d="M103,-408.098C103,-398.869 103,-388.12 103,-379.223"/>
<polygon fill="midnightblue" stroke="midnightblue" points="99.5001,-408.375 103,-418.375 106.5,-408.375 99.5001,-408.375"/>
</g>
</g>
</svg>
