<?xml version="1.0" encoding="UTF-8" standalone="no"?>
<!DOCTYPE svg PUBLIC "-//W3C//DTD SVG 1.1//EN"
 "http://www.w3.org/Graphics/SVG/1.1/DTD/svg11.dtd">
<!-- Generated by graphviz version 2.26.3 (20100126.1600)
 -->
<!-- Title: mfem::GaussBiLinear2DFiniteElement Pages: 1 -->
<svg width="208pt" height="174pt"
 viewBox="0.00 0.00 208.00 174.00" xmlns="http://www.w3.org/2000/svg" xmlns:xlink="http://www.w3.org/1999/xlink">
<g id="graph1" class="graph" transform="scale(1 1) rotate(0) translate(4 170)">
<title>mfem::GaussBiLinear2DFiniteElement</title>
<polygon fill="white" stroke="white" points="-4,5 -4,-170 205,-170 205,5 -4,5"/>
<!-- Node1 -->
<g id="node1" class="node"><title>Node1</title>
<polygon fill="#bfbfbf" stroke="black" points="-0.5,-1 -0.5,-41 200.5,-41 200.5,-1 -0.5,-1"/>
<text text-anchor="start" x="7.5" y="-24.4" font-family="Helvetica,sans-Serif" font-size="14.00">mfem::GaussBiLinear2DFinite</text>
<text text-anchor="middle" x="100" y="-8.4" font-family="Helvetica,sans-Serif" font-size="14.00">Element</text>
</g>
<!-- Node2 -->
<g id="node2" class="node"><title>Node2</title>
<a xlink:href="classmfem_1_1NodalFiniteElement.html" target="_top" xlink:title="mfem::NodalFiniteElement">
<polygon fill="white" stroke="black" points="10,-79 10,-103 190,-103 190,-79 10,-79"/>
<text text-anchor="middle" x="100" y="-86.4" font-family="Helvetica,sans-Serif" font-size="14.00">mfem::NodalFiniteElement</text>
</a>
</g>
<!-- Node2&#45;&gt;Node1 -->
<g id="edge2" class="edge"><title>Node2&#45;&gt;Node1</title>
<path fill="none" stroke="midnightblue" d="M100,-68.5518C100,-59.7876 100,-49.813 100,-41.2704"/>
<polygon fill="midnightblue" stroke="midnightblue" points="96.5001,-68.8069 100,-78.8069 103.5,-68.807 96.5001,-68.8069"/>
</g>
<!-- Node3 -->
<g id="node4" class="node"><title>Node3</title>
<a xlink:href="classmfem_1_1FiniteElement.html" target="_top" xlink:title="Abstract class for Finite Elements. ">
<polygon fill="white" stroke="black" points="28,-141 28,-165 172,-165 172,-141 28,-141"/>
<text text-anchor="middle" x="100" y="-148.4" font-family="Helvetica,sans-Serif" font-size="14.00">mfem::FiniteElement</text>
</a>
</g>
<!-- Node3&#45;&gt;Node2 -->
<g id="edge4" class="edge"><title>Node3&#45;&gt;Node2</title>
<path fill="none" stroke="midnightblue" d="M100,-130.63C100,-121.386 100,-111.031 100,-103.224"/>
<polygon fill="midnightblue" stroke="midnightblue" points="96.5001,-130.751 100,-140.751 103.5,-130.751 96.5001,-130.751"/>
</g>
</g>
</svg>
