<?xml version="1.0" encoding="UTF-8" standalone="no"?>
<!DOCTYPE svg PUBLIC "-//W3C//DTD SVG 1.1//EN"
 "http://www.w3.org/Graphics/SVG/1.1/DTD/svg11.dtd">
<!-- Generated by graphviz version 2.26.3 (20100126.1600)
 -->
<!-- Title: G Pages: 1 -->
<svg width="128pt" height="106pt"
 viewBox="0.00 0.00 128.00 106.00" xmlns="http://www.w3.org/2000/svg" xmlns:xlink="http://www.w3.org/1999/xlink">
<g id="graph1" class="graph" transform="scale(1 1) rotate(0) translate(4 102)">
<title>G</title>
<polygon fill="white" stroke="white" points="-4,5 -4,-102 125,-102 125,5 -4,5"/>
<!-- Node1 -->
<g id="node1" class="node"><title>Node1</title>
<polygon fill="#bfbfbf" stroke="black" points="0,-0.5 0,-19.5 120,-19.5 120,-0.5 0,-0.5"/>
<text text-anchor="middle" x="60" y="-6.5" font-family="FreeSans" font-size="10.00">TransformedCoefficient</text>
</g>
<!-- Node2 -->
<g id="node2" class="node"><title>Node2</title>
<a xlink:href="classCoefficient.html" target="_top" xlink:title="Base class Coefficient.">
<polygon fill="white" stroke="black" points="28,-78.5 28,-97.5 92,-97.5 92,-78.5 28,-78.5"/>
<text text-anchor="middle" x="60" y="-84.5" font-family="FreeSans" font-size="10.00">Coefficient</text>
</a>
</g>
<!-- Node2&#45;&gt;Node1 -->
<g id="edge2" class="edge"><title>Node2&#45;&gt;Node1</title>
<path fill="none" stroke="midnightblue" d="M58.4152,-68.2949C58.243,-65.5117 58.0958,-62.6848 58,-60 57.6515,-50.2284 57.6515,-47.7716 58,-38 58.2189,-31.8633 58.7068,-24.9845 59.1459,-19.5806"/>
<polygon fill="midnightblue" stroke="midnightblue" points="54.935,-68.6973 59.1459,-78.4194 61.9168,-68.1933 54.935,-68.6973"/>
</g>
<!-- Node2&#45;&gt;Node1 -->
<g id="edge4" class="edge"><title>Node2&#45;&gt;Node1</title>
<path fill="none" stroke="#9a32cd" stroke-dasharray="5,2" d="M60,-68.2866C60,-52.7395 60,-31.7276 60,-19.6426"/>
<polygon fill="#9a32cd" stroke="#9a32cd" points="56.5001,-68.4356 60,-78.4357 63.5001,-68.4357 56.5001,-68.4356"/>
<text text-anchor="middle" x="69" y="-51" font-family="FreeSans" font-size="10.00"> Q1</text>
<text text-anchor="middle" x="69" y="-40" font-family="FreeSans" font-size="10.00">Q2</text>
</g>
</g>
</svg>
