<?xml version="1.0" encoding="UTF-8" standalone="no"?>
<!DOCTYPE svg PUBLIC "-//W3C//DTD SVG 1.1//EN"
 "http://www.w3.org/Graphics/SVG/1.1/DTD/svg11.dtd">
<!-- Generated by graphviz version 2.40.1 (20161225.0304)
 -->
<!-- Title: mfem::TMOP_QualityMetric Pages: 1 -->
<svg width="320pt" height="385pt"
 viewBox="0.00 0.00 320.10 385.00" xmlns="http://www.w3.org/2000/svg" xmlns:xlink="http://www.w3.org/1999/xlink">
<g id="graph0" class="graph" transform="scale(1 1) rotate(0) translate(4 381)">
<title>mfem::TMOP_QualityMetric</title>
<polygon fill="#ffffff" stroke="transparent" points="-4,4 -4,-381 316.103,-381 316.103,4 -4,4"/>
<!-- Node21 -->
<g id="node1" class="node">
<title>Node21</title>
<polygon fill="#bfbfbf" stroke="#000000" points="89.0791,-.5 89.0791,-22.5 277.7686,-22.5 277.7686,-.5 89.0791,-.5"/>
<text text-anchor="middle" x="183.4238" y="-7.3" font-family="Helvetica,sans-Serif" font-size="14.00" fill="#000000">mfem::TMOP_QualityMetric</text>
</g>
<!-- Node22 -->
<g id="node2" class="node">
<title>Node22</title>
<g id="a_node2"><a xlink:href="classmfem_1_1HyperelasticModel.html" target="_top" xlink:title="Abstract class for hyperelastic models. ">
<polygon fill="#ffffff" stroke="#000000" points="37.4551,-60.5 37.4551,-82.5 211.3926,-82.5 211.3926,-60.5 37.4551,-60.5"/>
<text text-anchor="middle" x="124.4238" y="-67.3" font-family="Helvetica,sans-Serif" font-size="14.00" fill="#000000">mfem::HyperelasticModel</text>
</a>
</g>
</g>
<!-- Node22&#45;&gt;Node21 -->
<g id="edge1" class="edge">
<title>Node22&#45;&gt;Node21</title>
<path fill="none" stroke="#191970" d="M142.5155,-53.1017C152.2264,-43.2262 163.8871,-31.3679 172.27,-22.8428"/>
<polygon fill="#191970" stroke="#191970" points="139.7612,-50.9108 135.2453,-60.4951 144.7524,-55.8188 139.7612,-50.9108"/>
</g>
<!-- Node23 -->
<g id="node3" class="node">
<title>Node23</title>
<g id="a_node3"><a xlink:href="classmfem_1_1ElementTransformation.html" target="_top" xlink:title="mfem::ElementTransformation">
<polygon fill="#ffffff" stroke="#000000" points="11.5391,-133.5 11.5391,-155.5 215.3086,-155.5 215.3086,-133.5 11.5391,-133.5"/>
<text text-anchor="middle" x="113.4238" y="-140.3" font-family="Helvetica,sans-Serif" font-size="14.00" fill="#000000">mfem::ElementTransformation</text>
</a>
</g>
</g>
<!-- Node23&#45;&gt;Node22 -->
<g id="edge2" class="edge">
<title>Node23&#45;&gt;Node22</title>
<path fill="none" stroke="#9a32cd" stroke-dasharray="5,2" d="M116.6271,-123.2419C118.6253,-109.981 121.1166,-93.4483 122.7374,-82.6915"/>
<polygon fill="#9a32cd" stroke="#9a32cd" points="113.1237,-123.003 115.0945,-133.4129 120.0455,-124.046 113.1237,-123.003"/>
<text text-anchor="middle" x="129.7974" y="-103.8" font-family="Helvetica,sans-Serif" font-size="14.00" fill="#000000"> Ttr</text>
</g>
<!-- Node24 -->
<g id="node4" class="node">
<title>Node24</title>
<g id="a_node4"><a xlink:href="classmfem_1_1IntegrationPoint.html" target="_top" xlink:title="Class for integration point with weight. ">
<polygon fill="#ffffff" stroke="#000000" points="0,-234.5 0,-256.5 156.8477,-256.5 156.8477,-234.5 0,-234.5"/>
<text text-anchor="middle" x="78.4238" y="-241.3" font-family="Helvetica,sans-Serif" font-size="14.00" fill="#000000">mfem::IntegrationPoint</text>
</a>
</g>
</g>
<!-- Node24&#45;&gt;Node23 -->
<g id="edge3" class="edge">
<title>Node24&#45;&gt;Node23</title>
<path fill="none" stroke="#9a32cd" stroke-dasharray="5,2" d="M85.0804,-224.4663C89.6761,-210.1736 96.0238,-190.8725 102.0586,-174 104.2397,-167.9019 106.8248,-161.1579 108.978,-155.6589"/>
<polygon fill="#9a32cd" stroke="#9a32cd" points="81.6492,-223.7057 81.9418,-234.2965 88.3176,-225.8348 81.6492,-223.7057"/>
<text text-anchor="middle" x="127.1064" y="-190.8" font-family="Helvetica,sans-Serif" font-size="14.00" fill="#000000"> IntPoint</text>
</g>
<!-- Node25 -->
<g id="node5" class="node">
<title>Node25</title>
<g id="a_node5"><a xlink:href="classmfem_1_1DenseMatrix.html" target="_top" xlink:title="Data type dense matrix using column&#45;major storage. ">
<polygon fill="#ffffff" stroke="#000000" points="174.7446,-234.5 174.7446,-256.5 312.103,-256.5 312.103,-234.5 174.7446,-234.5"/>
<text text-anchor="middle" x="243.4238" y="-241.3" font-family="Helvetica,sans-Serif" font-size="14.00" fill="#000000">mfem::DenseMatrix</text>
</a>
</g>
</g>
<!-- Node25&#45;&gt;Node21 -->
<g id="edge7" class="edge">
<title>Node25&#45;&gt;Node21</title>
<path fill="none" stroke="#9a32cd" stroke-dasharray="5,2" d="M244.323,-223.9442C245.0373,-188.3941 243.2195,-115.8486 220.4238,-60 214.5806,-45.6843 203.3678,-31.9225 194.8107,-22.7391"/>
<polygon fill="#9a32cd" stroke="#9a32cd" points="240.8194,-224.0204 244.0255,-234.1184 247.8164,-224.2251 240.8194,-224.0204"/>
<text text-anchor="middle" x="245.1445" y="-103.8" font-family="Helvetica,sans-Serif" font-size="14.00" fill="#000000"> Jtr</text>
</g>
<!-- Node25&#45;&gt;Node23 -->
<g id="edge4" class="edge">
<title>Node25&#45;&gt;Node23</title>
<path fill="none" stroke="#9a32cd" stroke-dasharray="5,2" d="M216.3083,-228.8652C210.242,-224.8461 203.9382,-220.4273 198.2998,-216 176.8143,-199.1294 174.4247,-191.4702 153.4238,-174 145.7289,-167.5988 136.7946,-160.9417 129.3241,-155.5749"/>
<polygon fill="#9a32cd" stroke="#9a32cd" points="214.6207,-231.9416 224.9211,-234.4221 218.4157,-226.0596 214.6207,-231.9416"/>
<text text-anchor="middle" x="212.9858" y="-204.8" font-family="Helvetica,sans-Serif" font-size="14.00" fill="#000000"> adjJ</text>
<text text-anchor="middle" x="212.9858" y="-190.8" font-family="Helvetica,sans-Serif" font-size="14.00" fill="#000000">dFdx</text>
<text text-anchor="middle" x="212.9858" y="-176.8" font-family="Helvetica,sans-Serif" font-size="14.00" fill="#000000">invJ</text>
</g>
<!-- Node26 -->
<g id="node6" class="node">
<title>Node26</title>
<g id="a_node6"><a xlink:href="classmfem_1_1Matrix.html" target="_top" xlink:title="Abstract data type matrix. ">
<polygon fill="#ffffff" stroke="#000000" points="194.979,-294.5 194.979,-316.5 291.8687,-316.5 291.8687,-294.5 194.979,-294.5"/>
<text text-anchor="middle" x="243.4238" y="-301.3" font-family="Helvetica,sans-Serif" font-size="14.00" fill="#000000">mfem::Matrix</text>
</a>
</g>
</g>
<!-- Node26&#45;&gt;Node25 -->
<g id="edge5" class="edge">
<title>Node26&#45;&gt;Node25</title>
<path fill="none" stroke="#191970" d="M243.4238,-284.4183C243.4238,-275.1393 243.4238,-264.6082 243.4238,-256.8428"/>
<polygon fill="#191970" stroke="#191970" points="239.9239,-284.495 243.4238,-294.4951 246.9239,-284.4951 239.9239,-284.495"/>
</g>
<!-- Node27 -->
<g id="node7" class="node">
<title>Node27</title>
<g id="a_node7"><a xlink:href="classmfem_1_1Operator.html" target="_top" xlink:title="Abstract operator. ">
<polygon fill="#ffffff" stroke="#000000" points="186.4102,-354.5 186.4102,-376.5 300.4375,-376.5 300.4375,-354.5 186.4102,-354.5"/>
<text text-anchor="middle" x="243.4238" y="-361.3" font-family="Helvetica,sans-Serif" font-size="14.00" fill="#000000">mfem::Operator</text>
</a>
</g>
</g>
<!-- Node27&#45;&gt;Node26 -->
<g id="edge6" class="edge">
<title>Node27&#45;&gt;Node26</title>
<path fill="none" stroke="#191970" d="M243.4238,-344.4183C243.4238,-335.1393 243.4238,-324.6082 243.4238,-316.8428"/>
<polygon fill="#191970" stroke="#191970" points="239.9239,-344.495 243.4238,-354.4951 246.9239,-344.4951 239.9239,-344.495"/>
</g>
</g>
</svg>
