<?xml version="1.0" encoding="UTF-8" standalone="no"?>
<!DOCTYPE svg PUBLIC "-//W3C//DTD SVG 1.1//EN"
 "http://www.w3.org/Graphics/SVG/1.1/DTD/svg11.dtd">
<!-- Generated by graphviz version 2.26.3 (20100126.1600)
 -->
<!-- Title: mfem::TBilinearForm&lt; meshType, solFESpace, IR, IntegratorType, solVecLayout_t, complex_t, real_t &gt; Pages: 1 -->
<svg width="750pt" height="188pt"
 viewBox="0.00 0.00 750.00 188.00" xmlns="http://www.w3.org/2000/svg" xmlns:xlink="http://www.w3.org/1999/xlink">
<g id="graph1" class="graph" transform="scale(1 1) rotate(0) translate(4 184)">
<title>mfem::TBilinearForm&lt; meshType, solFESpace, IR, IntegratorType, solVecLayout_t, complex_t, real_t &gt;</title>
<polygon fill="white" stroke="white" points="-4,5 -4,-184 747,-184 747,5 -4,5"/>
<!-- Node1 -->
<g id="node1" class="node"><title>Node1</title>
<polygon fill="#bfbfbf" stroke="black" points="520.5,-82 520.5,-154 741.5,-154 741.5,-82 520.5,-82"/>
<text text-anchor="start" x="528.5" y="-137.4" font-family="Helvetica,sans-Serif" font-size="14.00">mfem::TBilinearForm</text>
<text text-anchor="start" x="528.5" y="-121.4" font-family="Helvetica,sans-Serif" font-size="14.00">&lt; meshType, solFESpace,</text>
<text text-anchor="start" x="528.5" y="-105.4" font-family="Helvetica,sans-Serif" font-size="14.00"> IR, IntegratorType, solVecLayout</text>
<text text-anchor="middle" x="631" y="-89.4" font-family="Helvetica,sans-Serif" font-size="14.00">_t, complex_t, real_t &gt;</text>
</g>
<!-- Node2 -->
<g id="node2" class="node"><title>Node2</title>
<a xlink:href="classmfem_1_1Operator.html" target="_top" xlink:title="Abstract operator. ">
<polygon fill="white" stroke="black" points="266.5,-156 266.5,-180 379.5,-180 379.5,-156 266.5,-156"/>
<text text-anchor="middle" x="323" y="-163.4" font-family="Helvetica,sans-Serif" font-size="14.00">mfem::Operator</text>
</a>
</g>
<!-- Node2&#45;&gt;Node1 -->
<g id="edge2" class="edge"><title>Node2&#45;&gt;Node1</title>
<path fill="none" stroke="midnightblue" d="M389.795,-157.157C427.877,-150.975 476.572,-143.069 520.225,-135.983"/>
<polygon fill="midnightblue" stroke="midnightblue" points="389.161,-153.714 379.851,-158.771 390.283,-160.623 389.161,-153.714"/>
</g>
<!-- Node3 -->
<g id="node4" class="node"><title>Node3</title>
<a xlink:href="classmfem_1_1ShapeEvaluator.html" target="_top" xlink:title="mfem::ShapeEvaluator\l\&lt; meshFE_type, IR, real_t \&gt;">
<polygon fill="white" stroke="black" points="228,-98 228,-138 418,-138 418,-98 228,-98"/>
<text text-anchor="start" x="236" y="-121.4" font-family="Helvetica,sans-Serif" font-size="14.00">mfem::ShapeEvaluator</text>
<text text-anchor="middle" x="323" y="-105.4" font-family="Helvetica,sans-Serif" font-size="14.00">&lt; meshFE_type, IR, real_t &gt;</text>
</a>
</g>
<!-- Node3&#45;&gt;Node1 -->
<g id="edge4" class="edge"><title>Node3&#45;&gt;Node1</title>
<path fill="none" stroke="#9a32cd" stroke-dasharray="5,2" d="M428.701,-118C458.317,-118 490.585,-118 520.474,-118"/>
<polygon fill="#9a32cd" stroke="#9a32cd" points="428.344,-114.5 418.344,-118 428.344,-121.5 428.344,-114.5"/>
<text text-anchor="middle" x="469" y="-121.4" font-family="Helvetica,sans-Serif" font-size="14.00"> meshEval</text>
</g>
<!-- Node4 -->
<g id="node6" class="node"><title>Node4</title>
<a xlink:href="classmfem_1_1ShapeEvaluator__base.html" target="_top" xlink:title="mfem::ShapeEvaluator\l_base\&lt; meshFE_type,IR,\l meshFE_type::tensor_prod\l &amp;&amp;IR::tensor_prod, real_t \&gt;">
<polygon fill="white" stroke="black" points="0.5,-90 0.5,-162 189.5,-162 189.5,-90 0.5,-90"/>
<text text-anchor="start" x="8.5" y="-145.4" font-family="Helvetica,sans-Serif" font-size="14.00">mfem::ShapeEvaluator</text>
<text text-anchor="start" x="8.5" y="-129.4" font-family="Helvetica,sans-Serif" font-size="14.00">_base&lt; meshFE_type,IR,</text>
<text text-anchor="start" x="8.5" y="-113.4" font-family="Helvetica,sans-Serif" font-size="14.00"> meshFE_type::tensor_prod</text>
<text text-anchor="middle" x="95" y="-97.4" font-family="Helvetica,sans-Serif" font-size="14.00"> &amp;&amp;IR::tensor_prod, real_t &gt;</text>
</a>
</g>
<!-- Node4&#45;&gt;Node3 -->
<g id="edge6" class="edge"><title>Node4&#45;&gt;Node3</title>
<path fill="none" stroke="midnightblue" d="M199.811,-122.322C209.158,-121.994 218.589,-121.664 227.849,-121.339"/>
<polygon fill="midnightblue" stroke="midnightblue" points="199.583,-118.828 189.712,-122.677 199.828,-125.824 199.583,-118.828"/>
</g>
<!-- Node5 -->
<g id="node8" class="node"><title>Node5</title>
<a xlink:href="classmfem_1_1ShapeEvaluator.html" target="_top" xlink:title="mfem::ShapeEvaluator\l\&lt; solFE_type, IR, real_t \&gt;">
<polygon fill="white" stroke="black" points="236,-32 236,-72 410,-72 410,-32 236,-32"/>
<text text-anchor="start" x="244" y="-55.4" font-family="Helvetica,sans-Serif" font-size="14.00">mfem::ShapeEvaluator</text>
<text text-anchor="middle" x="323" y="-39.4" font-family="Helvetica,sans-Serif" font-size="14.00">&lt; solFE_type, IR, real_t &gt;</text>
</a>
</g>
<!-- Node5&#45;&gt;Node1 -->
<g id="edge8" class="edge"><title>Node5&#45;&gt;Node1</title>
<path fill="none" stroke="#9a32cd" stroke-dasharray="5,2" d="M420.206,-72.8299C451.996,-79.6419 487.54,-87.2585 520.251,-94.268"/>
<polygon fill="#9a32cd" stroke="#9a32cd" points="420.537,-69.3214 410.025,-70.6483 419.07,-76.166 420.537,-69.3214"/>
<text text-anchor="middle" x="469" y="-91.4" font-family="Helvetica,sans-Serif" font-size="14.00"> solEval</text>
</g>
<!-- Node6 -->
<g id="node10" class="node"><title>Node6</title>
<a xlink:href="classmfem_1_1ShapeEvaluator__base.html" target="_top" xlink:title="mfem::ShapeEvaluator\l_base\&lt; solFE_type,IR,\l solFE_type::tensor_prod\l &amp;&amp;IR::tensor_prod, real_t \&gt;">
<polygon fill="white" stroke="black" points="0.5,-0 0.5,-72 189.5,-72 189.5,-0 0.5,-0"/>
<text text-anchor="start" x="8.5" y="-55.4" font-family="Helvetica,sans-Serif" font-size="14.00">mfem::ShapeEvaluator</text>
<text text-anchor="start" x="8.5" y="-39.4" font-family="Helvetica,sans-Serif" font-size="14.00">_base&lt; solFE_type,IR,</text>
<text text-anchor="start" x="8.5" y="-23.4" font-family="Helvetica,sans-Serif" font-size="14.00"> solFE_type::tensor_prod</text>
<text text-anchor="middle" x="95" y="-7.4" font-family="Helvetica,sans-Serif" font-size="14.00"> &amp;&amp;IR::tensor_prod, real_t &gt;</text>
</a>
</g>
<!-- Node6&#45;&gt;Node5 -->
<g id="edge10" class="edge"><title>Node6&#45;&gt;Node5</title>
<path fill="none" stroke="midnightblue" d="M199.805,-43.3547C211.873,-44.2016 224.08,-45.0582 235.879,-45.8863"/>
<polygon fill="midnightblue" stroke="midnightblue" points="199.932,-39.8552 189.712,-42.6464 199.442,-46.838 199.932,-39.8552"/>
</g>
</g>
</svg>
