<?xml version="1.0" encoding="UTF-8" standalone="no"?>
<!DOCTYPE svg PUBLIC "-//W3C//DTD SVG 1.1//EN"
 "http://www.w3.org/Graphics/SVG/1.1/DTD/svg11.dtd">
<!-- Generated by graphviz version 2.30.1 (20170916.1124)
 -->
<!-- Title: mfem::OptimizationProblem Pages: 1 -->
<svg width="327pt" height="244pt"
 viewBox="0.00 0.00 327.00 244.00" xmlns="http://www.w3.org/2000/svg" xmlns:xlink="http://www.w3.org/1999/xlink">
<g id="graph0" class="graph" transform="scale(1 1) rotate(0) translate(4 240)">
<title>mfem::OptimizationProblem</title>
<polygon fill="white" stroke="white" points="-4,5 -4,-240 324,-240 324,5 -4,5"/>
<!-- Node1 -->
<g id="node1" class="node"><title>Node1</title>
<polygon fill="#bfbfbf" stroke="black" points="101,-0.5 101,-23.5 319,-23.5 319,-0.5 101,-0.5"/>
<text text-anchor="middle" x="210" y="-8.3" font-family="Helvetica,sans-Serif" font-size="14.00">mfem::OptimizationProblem</text>
</g>
<!-- Node2 -->
<g id="node2" class="node"><title>Node2</title>
<g id="a_node2"><a xlink:href="classmfem_1_1Vector.html" target="_top" xlink:title="Vector data type. ">
<polygon fill="white" stroke="black" points="47,-136.5 47,-159.5 161,-159.5 161,-136.5 47,-136.5"/>
<text text-anchor="middle" x="104" y="-144.3" font-family="Helvetica,sans-Serif" font-size="14.00">mfem::Vector</text>
</a>
</g>
</g>
<!-- Node2&#45;&gt;Node1 -->
<g id="edge1" class="edge"><title>Node2&#45;&gt;Node1</title>
<path fill="none" stroke="#9a32cd" stroke-dasharray="5,2" d="M117.965,-128.268C133.875,-107.079 160.806,-71.6591 185,-42 190.042,-35.819 195.85,-29.0606 200.599,-23.6242"/>
<polygon fill="#9a32cd" stroke="#9a32cd" points="115.054,-126.318 111.862,-136.42 120.657,-130.513 115.054,-126.318"/>
<text text-anchor="middle" x="200" y="-106.3" font-family="Helvetica,sans-Serif" font-size="14.00"> c_e</text>
<text text-anchor="middle" x="200" y="-91.3" font-family="Helvetica,sans-Serif" font-size="14.00">x_hi</text>
<text text-anchor="middle" x="200" y="-76.3" font-family="Helvetica,sans-Serif" font-size="14.00">x_lo</text>
<text text-anchor="middle" x="200" y="-61.3" font-family="Helvetica,sans-Serif" font-size="14.00">d_hi</text>
<text text-anchor="middle" x="200" y="-46.3" font-family="Helvetica,sans-Serif" font-size="14.00">d_lo</text>
</g>
<!-- Node3 -->
<g id="node3" class="node"><title>Node3</title>
<g id="a_node3"><a xlink:href="classmfem_1_1Memory.html" target="_top" xlink:title="mfem::Memory\&lt; double \&gt;">
<polygon fill="white" stroke="black" points="-0.5,-212.5 -0.5,-235.5 208.5,-235.5 208.5,-212.5 -0.5,-212.5"/>
<text text-anchor="middle" x="104" y="-220.3" font-family="Helvetica,sans-Serif" font-size="14.00">mfem::Memory&lt; double &gt;</text>
</a>
</g>
</g>
<!-- Node3&#45;&gt;Node2 -->
<g id="edge2" class="edge"><title>Node3&#45;&gt;Node2</title>
<path fill="none" stroke="#9a32cd" stroke-dasharray="5,2" d="M104,-202.277C104,-188.387 104,-170.675 104,-159.583"/>
<polygon fill="#9a32cd" stroke="#9a32cd" points="100.5,-202.398 104,-212.398 107.5,-202.398 100.5,-202.398"/>
<text text-anchor="middle" x="122.5" y="-182.3" font-family="Helvetica,sans-Serif" font-size="14.00"> data</text>
</g>
<!-- Node4 -->
<g id="node4" class="node"><title>Node4</title>
<g id="a_node4"><a xlink:href="classmfem_1_1Operator.html" target="_top" xlink:title="Abstract operator. ">
<polygon fill="white" stroke="black" points="179.5,-136.5 179.5,-159.5 312.5,-159.5 312.5,-136.5 179.5,-136.5"/>
<text text-anchor="middle" x="246" y="-144.3" font-family="Helvetica,sans-Serif" font-size="14.00">mfem::Operator</text>
</a>
</g>
</g>
<!-- Node4&#45;&gt;Node1 -->
<g id="edge3" class="edge"><title>Node4&#45;&gt;Node1</title>
<path fill="none" stroke="#9a32cd" stroke-dasharray="5,2" d="M240.54,-126.678C232.804,-97.8828 218.926,-46.2253 212.912,-23.8381"/>
<polygon fill="#9a32cd" stroke="#9a32cd" points="237.2,-127.736 243.175,-136.485 243.961,-125.92 237.2,-127.736"/>
<text text-anchor="middle" x="246" y="-83.8" font-family="Helvetica,sans-Serif" font-size="14.00"> D</text>
<text text-anchor="middle" x="246" y="-68.8" font-family="Helvetica,sans-Serif" font-size="14.00">C</text>
</g>
</g>
</svg>
