<?xml version="1.0" encoding="UTF-8" standalone="no"?>
<!DOCTYPE svg PUBLIC "-//W3C//DTD SVG 1.1//EN"
 "http://www.w3.org/Graphics/SVG/1.1/DTD/svg11.dtd">
<!-- Generated by graphviz version 2.30.1 (20140821.0912)
 -->
<!-- Title: mfem::SidreDataCollection Pages: 1 -->
<!--zoomable 363 -->
<svg id="main" version="1.1" xmlns="http://www.w3.org/2000/svg" xmlns:xlink="http://www.w3.org/1999/xlink" xml:space="preserve" onload="init(evt)">
<style type="text/css"><![CDATA[
.edge:hover path { stroke: red; }
.edge:hover polygon { stroke: red; fill: red; }
]]></style>
<script type="text/javascript"><![CDATA[
var edges = document.getElementsByTagName('g');
if (edges && edges.length) {
  for (var i=0;i<edges.length;i++) {
    if (edges[i].id.substr(0,4)=='edge') {
      edges[i].setAttribute('class','edge');
    }
  }
}
]]></script>
        <defs>
                <circle id="rim" cx="0" cy="0" r="7"/>
                <circle id="rim2" cx="0" cy="0" r="3.5"/>
                <g id="zoomPlus">
                        <use xlink:href="#rim" fill="#404040">
                                <set attributeName="fill" to="#808080" begin="zoomplus.mouseover" end="zoomplus.mouseout"/>
                        </use>
                        <path d="M-4,0h8M0,-4v8" fill="none" stroke="white" stroke-width="1.5" pointer-events="none"/>
                </g>
                <g id="zoomMin">
                        <use xlink:href="#rim" fill="#404040">
                                <set attributeName="fill" to="#808080" begin="zoomminus.mouseover" end="zoomminus.mouseout"/>
                        </use>
                        <path d="M-4,0h8" fill="none" stroke="white" stroke-width="1.5" pointer-events="none"/>
                </g>
                <g id="dirArrow">
                        <path fill="none" stroke="white" stroke-width="1.5" d="M0,-3.0v7 M-2.5,-0.5L0,-3.0L2.5,-0.5"/>
                </g>
               <g id="resetDef">
                       <use xlink:href="#rim2" fill="#404040">
                               <set attributeName="fill" to="#808080" begin="reset.mouseover" end="reset.mouseout"/>
                       </use>
               </g>
        </defs>

<script type="text/javascript">
var viewWidth = 1402;
var viewHeight = 363;
var sectionId = 'dynsection-1';
</script>
<script xlink:href="svgpan.js"/>
<svg id="graph" class="graph">
<g id="viewport">
<title>mfem::SidreDataCollection</title>
<polygon fill="white" stroke="white" points="-4,5 -4,-358.747 1399,-358.747 1399,5 -4,5"/>
<!-- Node1 -->
<g id="node1" class="node"><title>Node1</title>
<polygon fill="#bfbfbf" stroke="black" points="1214.5,-86.2472 1214.5,-109.247 1393.5,-109.247 1393.5,-86.2472 1214.5,-86.2472"/>
<text text-anchor="middle" x="1304" y="-94.0472" font-family="Helvetica,sans-Serif" font-size="14.00">mfem::SidreDataCollection</text>
</g>
<!-- Node2 -->
<g id="node2" class="node"><title>Node2</title>
<g id="a_node2"><a xlink:href="classmfem_1_1DataCollection.html" target="_top" xlink:title="mfem::DataCollection">
<polygon fill="white" stroke="black" points="1028.5,-86.2472 1028.5,-109.247 1175.5,-109.247 1175.5,-86.2472 1028.5,-86.2472"/>
<text text-anchor="middle" x="1102" y="-94.0472" font-family="Helvetica,sans-Serif" font-size="14.00">mfem::DataCollection</text>
</a>
</g>
</g>
<!-- Node2&#45;&gt;Node1 -->
<g id="edge1" class="edge"><title>Node2&#45;&gt;Node1</title>
<path fill="none" stroke="midnightblue" d="M1185.85,-97.7472C1195.23,-97.7472 1204.82,-97.7472 1214.28,-97.7472"/>
<polygon fill="midnightblue" stroke="midnightblue" points="1185.77,-94.2473 1175.77,-97.7472 1185.77,-101.247 1185.77,-94.2473"/>
</g>
<!-- Node3 -->
<g id="node3" class="node"><title>Node3</title>
<g id="a_node3"><a xlink:href="classmfem_1_1Mesh.html" target="_top" xlink:title="mfem::Mesh">
<polygon fill="white" stroke="red" points="784.5,-172.247 784.5,-195.247 877.5,-195.247 877.5,-172.247 784.5,-172.247"/>
<text text-anchor="middle" x="831" y="-180.047" font-family="Helvetica,sans-Serif" font-size="14.00">mfem::Mesh</text>
</a>
</g>
</g>
<!-- Node3&#45;&gt;Node2 -->
<g id="edge2" class="edge"><title>Node3&#45;&gt;Node2</title>
<path fill="none" stroke="#9a32cd" stroke-dasharray="5,2" d="M887.926,-170.152C923.249,-161.124 969.67,-148.444 1010,-134.747 1032.29,-127.179 1056.99,-117.018 1075.03,-109.259"/>
<polygon fill="#9a32cd" stroke="#9a32cd" points="886.641,-166.867 877.807,-172.717 888.36,-173.653 886.641,-166.867"/>
<text text-anchor="middle" x="970" y="-162.547" font-family="Helvetica,sans-Serif" font-size="14.00"> mesh</text>
</g>
<!-- Node4 -->
<g id="node4" class="node"><title>Node4</title>
<g id="a_node4"><a xlink:href="classmfem_1_1IsoparametricTransformation.html" target="_top" xlink:title="mfem::IsoparametricTransformation">
<polygon fill="white" stroke="red" points="354.5,-313.247 354.5,-336.247 587.5,-336.247 587.5,-313.247 354.5,-313.247"/>
<text text-anchor="middle" x="471" y="-321.047" font-family="Helvetica,sans-Serif" font-size="14.00">mfem::IsoparametricTransformation</text>
</a>
</g>
</g>
<!-- Node4&#45;&gt;Node3 -->
<g id="edge3" class="edge"><title>Node4&#45;&gt;Node3</title>
<path fill="none" stroke="#9a32cd" stroke-dasharray="5,2" d="M543.131,-311.046C596.844,-299.04 671.401,-278.765 732,-248.747 763.284,-233.251 796.5,-209.455 815.109,-195.361"/>
<polygon fill="#9a32cd" stroke="#9a32cd" points="542.369,-307.629 533.352,-313.192 543.87,-314.467 542.369,-307.629"/>
<text text-anchor="middle" x="669" y="-343.547" font-family="Helvetica,sans-Serif" font-size="14.00"> FaceTransformation</text>
<text text-anchor="middle" x="669" y="-328.547" font-family="Helvetica,sans-Serif" font-size="14.00">Transformation2</text>
<text text-anchor="middle" x="669" y="-313.547" font-family="Helvetica,sans-Serif" font-size="14.00">Transformation</text>
<text text-anchor="middle" x="669" y="-298.547" font-family="Helvetica,sans-Serif" font-size="14.00">EdgeTransformation</text>
</g>
<!-- Node5 -->
<g id="node5" class="node"><title>Node5</title>
<g id="a_node5"><a xlink:href="classmfem_1_1Array.html" target="_top" xlink:title="mfem::Array\&lt; int \&gt;">
<polygon fill="white" stroke="red" points="49,-202.247 49,-225.247 179,-225.247 179,-202.247 49,-202.247"/>
<text text-anchor="middle" x="114" y="-210.047" font-family="Helvetica,sans-Serif" font-size="14.00">mfem::Array&lt; int &gt;</text>
</a>
</g>
</g>
<!-- Node5&#45;&gt;Node3 -->
<g id="edge4" class="edge"><title>Node5&#45;&gt;Node3</title>
<path fill="none" stroke="#9a32cd" stroke-dasharray="5,2" d="M189.392,-218.413C207.879,-219.382 227.654,-220.257 246,-220.747 462.071,-226.516 517.367,-228.293 732,-202.747 749.209,-200.699 767.927,-197.352 784.35,-194.033"/>
<polygon fill="#9a32cd" stroke="#9a32cd" points="189.445,-214.911 179.271,-217.867 189.068,-221.901 189.445,-214.911"/>
<text text-anchor="middle" x="471" y="-272.547" font-family="Helvetica,sans-Serif" font-size="14.00"> attributes</text>
<text text-anchor="middle" x="471" y="-257.547" font-family="Helvetica,sans-Serif" font-size="14.00">be_to_edge</text>
<text text-anchor="middle" x="471" y="-242.547" font-family="Helvetica,sans-Serif" font-size="14.00">be_to_face</text>
<text text-anchor="middle" x="471" y="-227.547" font-family="Helvetica,sans-Serif" font-size="14.00">bdr_attributes</text>
</g>
<!-- Node6 -->
<g id="node6" class="node"><title>Node6</title>
<g id="a_node6"><a xlink:href="classmfem_1_1NCMesh.html" target="_top" xlink:title="A class for non&#45;conforming AMR on higher&#45;order hexahedral, quadrilateral or triangular meshes...">
<polygon fill="white" stroke="red" points="414.5,-172.247 414.5,-195.247 527.5,-195.247 527.5,-172.247 414.5,-172.247"/>
<text text-anchor="middle" x="471" y="-180.047" font-family="Helvetica,sans-Serif" font-size="14.00">mfem::NCMesh</text>
</a>
</g>
</g>
<!-- Node5&#45;&gt;Node6 -->
<g id="edge6" class="edge"><title>Node5&#45;&gt;Node6</title>
<path fill="none" stroke="#9a32cd" stroke-dasharray="5,2" d="M189.378,-207.462C256.504,-201.789 353.754,-193.571 414.361,-188.449"/>
<polygon fill="#9a32cd" stroke="#9a32cd" points="188.958,-203.985 179.288,-208.314 189.547,-210.96 188.958,-203.985"/>
<text text-anchor="middle" x="291" y="-205.547" font-family="Helvetica,sans-Serif" font-size="14.00"> vertex_nodeId</text>
</g>
<!-- Node6&#45;&gt;Node3 -->
<g id="edge5" class="edge"><title>Node6&#45;&gt;Node3</title>
<path fill="none" stroke="#9a32cd" stroke-dasharray="5,2" d="M537.792,-183.747C609.332,-183.747 721.792,-183.747 784.278,-183.747"/>
<polygon fill="#9a32cd" stroke="#9a32cd" points="537.545,-180.247 527.545,-183.747 537.545,-187.247 537.545,-180.247"/>
<text text-anchor="middle" x="669" y="-187.547" font-family="Helvetica,sans-Serif" font-size="14.00"> ncmesh</text>
</g>
<!-- Node7 -->
<g id="node7" class="node"><title>Node7</title>
<g id="a_node7"><a xlink:href="structmfem_1_1CoarseFineTransformations.html" target="_top" xlink:title="Defines the coarse&#45;fine transformations of all fine elements. ">
<polygon fill="white" stroke="red" points="0.5,-146.247 0.5,-169.247 227.5,-169.247 227.5,-146.247 0.5,-146.247"/>
<text text-anchor="middle" x="114" y="-154.047" font-family="Helvetica,sans-Serif" font-size="14.00">mfem::CoarseFineTransformations</text>
</a>
</g>
</g>
<!-- Node7&#45;&gt;Node6 -->
<g id="edge7" class="edge"><title>Node7&#45;&gt;Node6</title>
<path fill="none" stroke="#9a32cd" stroke-dasharray="5,2" d="M237.825,-161.696C269.816,-163.165 304.223,-165.135 336,-167.747 361.802,-169.868 390.296,-173.139 414.35,-176.173"/>
<polygon fill="#9a32cd" stroke="#9a32cd" points="237.676,-158.186 227.53,-161.236 237.364,-165.179 237.676,-158.186"/>
<text text-anchor="middle" x="291" y="-171.547" font-family="Helvetica,sans-Serif" font-size="14.00"> transforms</text>
</g>
<!-- Node7&#45;&gt;Node3 -->
<g id="edge8" class="edge"><title>Node7&#45;&gt;Node3</title>
<path fill="none" stroke="#9a32cd" stroke-dasharray="5,2" d="M237.924,-148.768C333.493,-143.329 469.331,-138.969 588,-147.747 656.836,-152.839 735.791,-165.972 784.283,-174.886"/>
<polygon fill="#9a32cd" stroke="#9a32cd" points="237.711,-145.274 227.931,-149.349 238.117,-152.262 237.711,-145.274"/>
<text text-anchor="middle" x="471" y="-151.547" font-family="Helvetica,sans-Serif" font-size="14.00"> CoarseFineTr</text>
</g>
<!-- Node8 -->
<g id="node8" class="node"><title>Node8</title>
<polygon fill="white" stroke="#bfbfbf" points="750,-107.747 750,-145.747 912,-145.747 912,-107.747 750,-107.747"/>
<text text-anchor="start" x="758" y="-130.547" font-family="Helvetica,sans-Serif" font-size="14.00">std::map&lt; std::string,</text>
<text text-anchor="middle" x="831" y="-115.547" font-family="Helvetica,sans-Serif" font-size="14.00"> QuadratureFunction * &gt;</text>
</g>
<!-- Node8&#45;&gt;Node2 -->
<g id="edge9" class="edge"><title>Node8&#45;&gt;Node2</title>
<path fill="none" stroke="#9a32cd" stroke-dasharray="5,2" d="M922.423,-116.999C956.92,-113.28 995.767,-109.092 1028.4,-105.574"/>
<polygon fill="#9a32cd" stroke="#9a32cd" points="921.912,-113.534 912.344,-118.085 922.662,-120.493 921.912,-113.534"/>
<text text-anchor="middle" x="970" y="-119.547" font-family="Helvetica,sans-Serif" font-size="14.00"> q_field_map</text>
</g>
<!-- Node9 -->
<g id="node9" class="node"><title>Node9</title>
<g id="a_node9"><a xlink:title="STL class. ">
<polygon fill="white" stroke="#bfbfbf" points="433.5,-54.2472 433.5,-77.2472 508.5,-77.2472 508.5,-54.2472 433.5,-54.2472"/>
<text text-anchor="middle" x="471" y="-62.0472" font-family="Helvetica,sans-Serif" font-size="14.00">std::string</text>
</a>
</g>
</g>
<!-- Node9&#45;&gt;Node8 -->
<g id="edge10" class="edge"><title>Node9&#45;&gt;Node8</title>
<path fill="none" stroke="#9a32cd" stroke-dasharray="5,2" d="M518.696,-71.7212C570.868,-78.6349 657.76,-90.8648 732,-104.747 737.828,-105.837 743.836,-107.025 749.874,-108.267"/>
<polygon fill="#9a32cd" stroke="#9a32cd" points="519.11,-68.2455 508.738,-70.4104 518.196,-75.1856 519.11,-68.2455"/>
<text text-anchor="middle" x="669" y="-108.547" font-family="Helvetica,sans-Serif" font-size="14.00"> keys</text>
</g>
<!-- Node10 -->
<g id="node10" class="node"><title>Node10</title>
<polygon fill="white" stroke="#bfbfbf" points="759.5,-50.7472 759.5,-88.7472 902.5,-88.7472 902.5,-50.7472 759.5,-50.7472"/>
<text text-anchor="start" x="767.5" y="-73.5472" font-family="Helvetica,sans-Serif" font-size="14.00">std::map&lt; std::string,</text>
<text text-anchor="middle" x="831" y="-58.5472" font-family="Helvetica,sans-Serif" font-size="14.00"> GridFunction * &gt;</text>
</g>
<!-- Node9&#45;&gt;Node10 -->
<g id="edge12" class="edge"><title>Node9&#45;&gt;Node10</title>
<path fill="none" stroke="#9a32cd" stroke-dasharray="5,2" d="M518.856,-65.5504C570.918,-65.4197 657.475,-65.4634 732,-66.7472 740.85,-66.8996 750.148,-67.1139 759.347,-67.3586"/>
<polygon fill="#9a32cd" stroke="#9a32cd" points="518.592,-62.0511 508.602,-65.5796 518.612,-69.051 518.592,-62.0511"/>
<text text-anchor="middle" x="669" y="-70.5472" font-family="Helvetica,sans-Serif" font-size="14.00"> keys</text>
</g>
<!-- Node9&#45;&gt;Node2 -->
<g id="edge13" class="edge"><title>Node9&#45;&gt;Node2</title>
<path fill="none" stroke="#9a32cd" stroke-dasharray="5,2" d="M514.224,-51.046C593.117,-25.6516 767.95,20.8155 912,-10.7472 978.865,-25.3979 1050.3,-66.03 1082.9,-86.1511"/>
<polygon fill="#9a32cd" stroke="#9a32cd" points="513.054,-47.746 504.638,-54.1809 515.23,-54.3992 513.054,-47.746"/>
<text text-anchor="middle" x="831" y="-29.5472" font-family="Helvetica,sans-Serif" font-size="14.00"> name</text>
<text text-anchor="middle" x="831" y="-14.5472" font-family="Helvetica,sans-Serif" font-size="14.00">prefix_path</text>
</g>
<!-- Node10&#45;&gt;Node2 -->
<g id="edge11" class="edge"><title>Node10&#45;&gt;Node2</title>
<path fill="none" stroke="#9a32cd" stroke-dasharray="5,2" d="M912.846,-75.5666C943.335,-78.0221 978.301,-81.1503 1010,-84.7472 1015.87,-85.4129 1021.94,-86.1578 1028.03,-86.945"/>
<polygon fill="#9a32cd" stroke="#9a32cd" points="912.935,-72.0627 902.69,-74.76 912.381,-79.0408 912.935,-72.0627"/>
<text text-anchor="middle" x="970" y="-88.5472" font-family="Helvetica,sans-Serif" font-size="14.00"> field_map</text>
</g>
</g>
</svg>
        <g id="navigator" transform="translate(0 0)" fill="#404254">
                <rect fill="#f2f5e9" fill-opacity="0.5" stroke="#606060" stroke-width=".5" x="0" y="0" width="60" height="60"/>
                <use id="zoomplus" xlink:href="#zoomPlus" x="17" y="9" onmousedown="handleZoom(evt,'in')"/>
                <use id="zoomminus" xlink:href="#zoomMin" x="42" y="9" onmousedown="handleZoom(evt,'out')"/>
                <use id="reset" xlink:href="#resetDef" x="30" y="36" onmousedown="handleReset()"/>
                <g id="arrowUp" xlink:href="#dirArrow" transform="translate(30 24)" onmousedown="handlePan(0,-1)">
                  <use xlink:href="#rim" fill="#404040">
                        <set attributeName="fill" to="#808080" begin="arrowUp.mouseover" end="arrowUp.mouseout"/>
                  </use>
                  <path fill="none" stroke="white" stroke-width="1.5" d="M0,-3.0v7 M-2.5,-0.5L0,-3.0L2.5,-0.5"/>
                </g>
                <g id="arrowRight" xlink:href="#dirArrow" transform="rotate(90) translate(36 -43)" onmousedown="handlePan(1,0)">
                  <use xlink:href="#rim" fill="#404040">
                        <set attributeName="fill" to="#808080" begin="arrowRight.mouseover" end="arrowRight.mouseout"/>
                  </use>
                  <path fill="none" stroke="white" stroke-width="1.5" d="M0,-3.0v7 M-2.5,-0.5L0,-3.0L2.5,-0.5"/>
                </g>
                <g id="arrowDown" xlink:href="#dirArrow" transform="rotate(180) translate(-30 -48)" onmousedown="handlePan(0,1)">
                  <use xlink:href="#rim" fill="#404040">
                        <set attributeName="fill" to="#808080" begin="arrowDown.mouseover" end="arrowDown.mouseout"/>
                  </use>
                  <path fill="none" stroke="white" stroke-width="1.5" d="M0,-3.0v7 M-2.5,-0.5L0,-3.0L2.5,-0.5"/>
                </g>
                <g id="arrowLeft" xlink:href="#dirArrow" transform="rotate(270) translate(-36 17)" onmousedown="handlePan(-1,0)">
                  <use xlink:href="#rim" fill="#404040">
                        <set attributeName="fill" to="#808080" begin="arrowLeft.mouseover" end="arrowLeft.mouseout"/>
                  </use>
                  <path fill="none" stroke="white" stroke-width="1.5" d="M0,-3.0v7 M-2.5,-0.5L0,-3.0L2.5,-0.5"/>
                </g>
        </g>
        <svg viewBox="0 0 15 15" width="100%" height="30px" preserveAspectRatio="xMaxYMin meet">
         <g id="arrow_out" transform="scale(0.3 0.3)">
          <a xlink:href="classmfem_1_1SidreDataCollection__coll__graph_org.svg" target="_base">
           <rect id="button" ry="5" rx="5" y="6" x="6" height="38" width="38"
                fill="#f2f5e9" fill-opacity="0.5" stroke="#606060" stroke-width="1.0"/>
           <path id="arrow"
             d="M 11.500037,31.436501 C 11.940474,20.09759 22.043105,11.32322 32.158766,21.979434 L 37.068811,17.246167 C 37.068811,17.246167 37.088388,32 37.088388,32 L 22.160133,31.978069 C 22.160133,31.978069 26.997745,27.140456 26.997745,27.140456 C 18.528582,18.264221 13.291696,25.230495 11.500037,31.436501 z"
             style="fill:#404040;"/>
          </a>
         </g>
        </svg>
</svg>
