<?xml version="1.0" encoding="UTF-8" standalone="no"?>
<!DOCTYPE svg PUBLIC "-//W3C//DTD SVG 1.1//EN"
 "http://www.w3.org/Graphics/SVG/1.1/DTD/svg11.dtd">
<!-- Generated by graphviz version 2.26.3 (20100126.1600)
 -->
<!-- Title: G Pages: 1 -->
<svg width="126pt" height="140pt"
 viewBox="0.00 0.00 126.00 140.00" xmlns="http://www.w3.org/2000/svg" xmlns:xlink="http://www.w3.org/1999/xlink">
<g id="graph1" class="graph" transform="scale(1 1) rotate(0) translate(4 136)">
<title>G</title>
<polygon fill="white" stroke="white" points="-4,5 -4,-136 123,-136 123,5 -4,5"/>
<!-- Node1 -->
<g id="node1" class="node"><title>Node1</title>
<polygon fill="#bfbfbf" stroke="black" points="0,-0.5 0,-19.5 118,-19.5 118,-0.5 0,-0.5"/>
<text text-anchor="middle" x="59" y="-6.5" font-family="FreeSans" font-size="10.00">Linear1DFiniteElement</text>
</g>
<!-- Node2 -->
<g id="node2" class="node"><title>Node2</title>
<a xlink:href="classNodalFiniteElement.html" target="_top" xlink:title="NodalFiniteElement">
<polygon fill="white" stroke="black" points="7,-56.5 7,-75.5 111,-75.5 111,-56.5 7,-56.5"/>
<text text-anchor="middle" x="59" y="-62.5" font-family="FreeSans" font-size="10.00">NodalFiniteElement</text>
</a>
</g>
<!-- Node2&#45;&gt;Node1 -->
<g id="edge2" class="edge"><title>Node2&#45;&gt;Node1</title>
<path fill="none" stroke="midnightblue" d="M59,-46.1575C59,-37.155 59,-26.9199 59,-19.6427"/>
<polygon fill="midnightblue" stroke="midnightblue" points="55.5001,-46.2455 59,-56.2455 62.5001,-46.2456 55.5001,-46.2455"/>
</g>
<!-- Node3 -->
<g id="node4" class="node"><title>Node3</title>
<a xlink:href="classFiniteElement.html" target="_top" xlink:title="Abstract class for Finite Elements.">
<polygon fill="white" stroke="black" points="20,-112.5 20,-131.5 98,-131.5 98,-112.5 20,-112.5"/>
<text text-anchor="middle" x="59" y="-118.5" font-family="FreeSans" font-size="10.00">FiniteElement</text>
</a>
</g>
<!-- Node3&#45;&gt;Node2 -->
<g id="edge4" class="edge"><title>Node3&#45;&gt;Node2</title>
<path fill="none" stroke="midnightblue" d="M59,-102.158C59,-93.155 59,-82.9199 59,-75.6427"/>
<polygon fill="midnightblue" stroke="midnightblue" points="55.5001,-102.246 59,-112.246 62.5001,-102.246 55.5001,-102.246"/>
</g>
</g>
</svg>
