<?xml version="1.0" encoding="UTF-8" standalone="no"?>
<!DOCTYPE svg PUBLIC "-//W3C//DTD SVG 1.1//EN"
 "http://www.w3.org/Graphics/SVG/1.1/DTD/svg11.dtd">
<!-- Generated by graphviz version 2.30.1 (20140821.0912)
 -->
<!-- Title: mfem::ParNonlinearForm Pages: 1 -->
<svg width="1266pt" height="297pt"
 viewBox="0.00 0.00 1266.00 296.62" xmlns="http://www.w3.org/2000/svg" xmlns:xlink="http://www.w3.org/1999/xlink">
<g id="graph0" class="graph" transform="scale(1 1) rotate(0) translate(4 292.624)">
<title>mfem::ParNonlinearForm</title>
<polygon fill="white" stroke="white" points="-4,5 -4,-292.624 1263,-292.624 1263,5 -4,5"/>
<!-- Node1 -->
<g id="node1" class="node"><title>Node1</title>
<polygon fill="#bfbfbf" stroke="black" points="1088,-132.124 1088,-155.124 1258,-155.124 1258,-132.124 1088,-132.124"/>
<text text-anchor="middle" x="1173" y="-139.924" font-family="Helvetica,sans-Serif" font-size="14.00">mfem::ParNonlinearForm</text>
</g>
<!-- Node2 -->
<g id="node2" class="node"><title>Node2</title>
<g id="a_node2"><a xlink:href="classmfem_1_1NonlinearForm.html" target="_top" xlink:title="mfem::NonlinearForm">
<polygon fill="white" stroke="black" points="650.5,-132.124 650.5,-155.124 799.5,-155.124 799.5,-132.124 650.5,-132.124"/>
<text text-anchor="middle" x="725" y="-139.924" font-family="Helvetica,sans-Serif" font-size="14.00">mfem::NonlinearForm</text>
</a>
</g>
</g>
<!-- Node2&#45;&gt;Node1 -->
<g id="edge1" class="edge"><title>Node2&#45;&gt;Node1</title>
<path fill="none" stroke="midnightblue" d="M810.121,-143.624C889.687,-143.624 1008.44,-143.624 1087.98,-143.624"/>
<polygon fill="midnightblue" stroke="midnightblue" points="809.648,-140.124 799.648,-143.624 809.648,-147.124 809.648,-140.124"/>
</g>
<!-- Node3 -->
<g id="node3" class="node"><title>Node3</title>
<g id="a_node3"><a xlink:href="classmfem_1_1Operator.html" target="_top" xlink:title="Abstract operator. ">
<polygon fill="white" stroke="black" points="13.5,-233.124 13.5,-256.124 126.5,-256.124 126.5,-233.124 13.5,-233.124"/>
<text text-anchor="middle" x="70" y="-240.924" font-family="Helvetica,sans-Serif" font-size="14.00">mfem::Operator</text>
</a>
</g>
</g>
<!-- Node3&#45;&gt;Node2 -->
<g id="edge2" class="edge"><title>Node3&#45;&gt;Node2</title>
<path fill="none" stroke="midnightblue" d="M136.786,-250.227C244.019,-256.999 461.623,-260.804 632,-199.624 661.565,-189.007 691.947,-168.208 709.341,-155.163"/>
<polygon fill="midnightblue" stroke="midnightblue" points="136.968,-246.731 126.759,-249.564 136.506,-253.716 136.968,-246.731"/>
</g>
<!-- Node6 -->
<g id="node6" class="node"><title>Node6</title>
<g id="a_node6"><a xlink:href="classmfem_1_1FiniteElementSpace.html" target="_top" xlink:title="mfem::FiniteElementSpace">
<polygon fill="white" stroke="red" points="274.5,-84.1239 274.5,-107.124 455.5,-107.124 455.5,-84.1239 274.5,-84.1239"/>
<text text-anchor="middle" x="365" y="-91.9239" font-family="Helvetica,sans-Serif" font-size="14.00">mfem::FiniteElementSpace</text>
</a>
</g>
</g>
<!-- Node3&#45;&gt;Node6 -->
<g id="edge8" class="edge"><title>Node3&#45;&gt;Node6</title>
<path fill="none" stroke="#9a32cd" stroke-dasharray="5,2" d="M99.6859,-227.74C135.914,-206.298 200.038,-167.955 254,-133.624 262.112,-128.463 263.267,-125.647 272,-121.624 284.663,-115.79 298.921,-110.985 312.364,-107.163"/>
<polygon fill="#9a32cd" stroke="#9a32cd" points="97.4976,-224.967 90.669,-233.068 101.059,-230.994 97.4976,-224.967"/>
<text text-anchor="middle" x="206" y="-196.424" font-family="Helvetica,sans-Serif" font-size="14.00"> T</text>
</g>
<!-- Node8 -->
<g id="node8" class="node"><title>Node8</title>
<g id="a_node8"><a xlink:href="classmfem_1_1OperatorHandle.html" target="_top" xlink:title="Pointer to an Operator of a specified type. ">
<polygon fill="white" stroke="black" points="476,-265.124 476,-288.124 632,-288.124 632,-265.124 476,-265.124"/>
<text text-anchor="middle" x="554" y="-272.924" font-family="Helvetica,sans-Serif" font-size="14.00">mfem::OperatorHandle</text>
</a>
</g>
</g>
<!-- Node3&#45;&gt;Node8 -->
<g id="edge11" class="edge"><title>Node3&#45;&gt;Node8</title>
<path fill="none" stroke="#9a32cd" stroke-dasharray="5,2" d="M136.916,-256.041C144.018,-257.029 151.149,-257.919 158,-258.624 268.113,-269.955 396.226,-274.153 475.977,-275.709"/>
<polygon fill="#9a32cd" stroke="#9a32cd" points="136.969,-252.512 126.569,-254.533 135.96,-259.439 136.969,-252.512"/>
<text text-anchor="middle" x="206" y="-270.424" font-family="Helvetica,sans-Serif" font-size="14.00"> oper</text>
</g>
<!-- Node4 -->
<g id="node4" class="node"><title>Node4</title>
<g id="a_node4"><a xlink:href="classmfem_1_1SparseMatrix.html" target="_top" xlink:title="Data type sparse matrix. ">
<polygon fill="white" stroke="red" points="0,-109.124 0,-132.124 140,-132.124 140,-109.124 0,-109.124"/>
<text text-anchor="middle" x="70" y="-116.924" font-family="Helvetica,sans-Serif" font-size="14.00">mfem::SparseMatrix</text>
</a>
</g>
</g>
<!-- Node4&#45;&gt;Node2 -->
<g id="edge3" class="edge"><title>Node4&#45;&gt;Node2</title>
<path fill="none" stroke="#9a32cd" stroke-dasharray="5,2" d="M150.339,-129.092C152.922,-129.284 155.481,-129.463 158,-129.624 334.323,-140.907 542.081,-143.248 650.201,-143.641"/>
<polygon fill="#9a32cd" stroke="#9a32cd" points="150.539,-125.597 140.291,-128.286 149.979,-132.575 150.539,-125.597"/>
<text text-anchor="middle" x="365" y="-145.424" font-family="Helvetica,sans-Serif" font-size="14.00"> Grad</text>
</g>
<!-- Node4&#45;&gt;Node6 -->
<g id="edge6" class="edge"><title>Node4&#45;&gt;Node6</title>
<path fill="none" stroke="#9a32cd" stroke-dasharray="5,2" d="M120.842,-106.628C132.911,-103.787 145.84,-101.191 158,-99.6239 195.961,-94.7331 238.177,-93.2319 274.459,-93.1412"/>
<polygon fill="#9a32cd" stroke="#9a32cd" points="119.82,-103.275 110.942,-109.056 121.488,-110.074 119.82,-103.275"/>
<text text-anchor="middle" x="206" y="-118.424" font-family="Helvetica,sans-Serif" font-size="14.00"> cR</text>
<text text-anchor="middle" x="206" y="-103.424" font-family="Helvetica,sans-Serif" font-size="14.00">cP</text>
</g>
<!-- Node5 -->
<g id="node5" class="node"><title>Node5</title>
<g id="a_node5"><a xlink:href="classmfem_1_1Array.html" target="_top" xlink:title="mfem::Array\&lt; int \&gt;">
<polygon fill="white" stroke="red" points="5,-18.1239 5,-41.1239 135,-41.1239 135,-18.1239 5,-18.1239"/>
<text text-anchor="middle" x="70" y="-25.9239" font-family="Helvetica,sans-Serif" font-size="14.00">mfem::Array&lt; int &gt;</text>
</a>
</g>
</g>
<!-- Node5&#45;&gt;Node2 -->
<g id="edge4" class="edge"><title>Node5&#45;&gt;Node2</title>
<path fill="none" stroke="#9a32cd" stroke-dasharray="5,2" d="M137.378,-16.3546C248.598,2.16087 475.748,23.7342 632,-70.6239 644.664,-78.2715 639.409,-88.2944 650,-98.6239 664.316,-112.587 683.731,-124.188 699.082,-132.112"/>
<polygon fill="#9a32cd" stroke="#9a32cd" points="136.574,-12.9413 127.307,-18.0762 137.753,-19.8412 136.574,-12.9413"/>
<text text-anchor="middle" x="365" y="-13.4239" font-family="Helvetica,sans-Serif" font-size="14.00"> ess_vdofs</text>
</g>
<!-- Node5&#45;&gt;Node6 -->
<g id="edge7" class="edge"><title>Node5&#45;&gt;Node6</title>
<path fill="none" stroke="#9a32cd" stroke-dasharray="5,2" d="M145.177,-39.1368C178.662,-44.1077 218.569,-50.9764 254,-59.6239 281.134,-66.2464 311.232,-76.2907 333.075,-84.0884"/>
<polygon fill="#9a32cd" stroke="#9a32cd" points="145.404,-35.633 135.004,-37.6552 144.395,-42.5599 145.404,-35.633"/>
<text text-anchor="middle" x="206" y="-78.4239" font-family="Helvetica,sans-Serif" font-size="14.00"> dof_ldof_array</text>
<text text-anchor="middle" x="206" y="-63.4239" font-family="Helvetica,sans-Serif" font-size="14.00">dof_elem_array</text>
</g>
<!-- Node6&#45;&gt;Node2 -->
<g id="edge5" class="edge"><title>Node6&#45;&gt;Node2</title>
<path fill="none" stroke="#9a32cd" stroke-dasharray="5,2" d="M465.854,-97.2331C516.065,-99.4363 577.645,-104.264 632,-114.624 652.893,-118.606 675.698,-125.774 693.376,-131.987"/>
<polygon fill="#9a32cd" stroke="#9a32cd" points="465.779,-93.7272 455.644,-96.8142 465.492,-100.721 465.779,-93.7272"/>
<text text-anchor="middle" x="554" y="-118.424" font-family="Helvetica,sans-Serif" font-size="14.00"> fes</text>
</g>
<!-- Node10 -->
<g id="node10" class="node"><title>Node10</title>
<g id="a_node10"><a xlink:href="classmfem_1_1GridFunction.html" target="_top" xlink:title="Class for grid function &#45; Vector with associated FE space. ">
<polygon fill="white" stroke="red" points="656.5,-66.1239 656.5,-89.1239 793.5,-89.1239 793.5,-66.1239 656.5,-66.1239"/>
<text text-anchor="middle" x="725" y="-73.9239" font-family="Helvetica,sans-Serif" font-size="14.00">mfem::GridFunction</text>
</a>
</g>
</g>
<!-- Node6&#45;&gt;Node10 -->
<g id="edge14" class="edge"><title>Node6&#45;&gt;Node10</title>
<path fill="none" stroke="#9a32cd" stroke-dasharray="5,2" d="M431.636,-82.3985C446.183,-79.996 461.566,-77.8613 476,-76.6239 545.08,-70.7017 562.668,-76.2471 632,-76.6239 639.827,-76.6664 648.028,-76.7293 656.173,-76.8032"/>
<polygon fill="#9a32cd" stroke="#9a32cd" points="430.985,-78.9588 421.72,-84.0968 432.167,-85.8583 430.985,-78.9588"/>
<text text-anchor="middle" x="554" y="-80.4239" font-family="Helvetica,sans-Serif" font-size="14.00"> fes</text>
</g>
<!-- Node7 -->
<g id="node7" class="node"><title>Node7</title>
<g id="a_node7"><a xlink:href="classmfem_1_1Array.html" target="_top" xlink:title="mfem::Array\&lt; mfem::\lNonlinearFormIntegrator * \&gt;">
<polygon fill="white" stroke="red" points="272.5,-177.624 272.5,-215.624 457.5,-215.624 457.5,-177.624 272.5,-177.624"/>
<text text-anchor="start" x="280.5" y="-200.424" font-family="Helvetica,sans-Serif" font-size="14.00">mfem::Array&lt; mfem::</text>
<text text-anchor="middle" x="365" y="-185.424" font-family="Helvetica,sans-Serif" font-size="14.00">NonlinearFormIntegrator * &gt;</text>
</a>
</g>
</g>
<!-- Node7&#45;&gt;Node2 -->
<g id="edge9" class="edge"><title>Node7&#45;&gt;Node2</title>
<path fill="none" stroke="#9a32cd" stroke-dasharray="5,2" d="M467.813,-181.829C517.364,-174.594 577.801,-165.721 632,-157.624 637.912,-156.741 644.037,-155.82 650.19,-154.892"/>
<polygon fill="#9a32cd" stroke="#9a32cd" points="467.122,-178.392 457.732,-183.3 468.133,-185.319 467.122,-178.392"/>
<text text-anchor="middle" x="554" y="-184.424" font-family="Helvetica,sans-Serif" font-size="14.00"> dfi</text>
</g>
<!-- Node8&#45;&gt;Node1 -->
<g id="edge10" class="edge"><title>Node8&#45;&gt;Node1</title>
<path fill="none" stroke="#9a32cd" stroke-dasharray="5,2" d="M618.329,-262.973C740.068,-236.731 1004.74,-179.678 1118.39,-155.18"/>
<polygon fill="#9a32cd" stroke="#9a32cd" points="617.445,-259.583 608.407,-265.112 618.92,-266.426 617.445,-259.583"/>
<text text-anchor="middle" x="840" y="-223.424" font-family="Helvetica,sans-Serif" font-size="14.00"> pGrad</text>
</g>
<!-- Node9 -->
<g id="node9" class="node"><title>Node9</title>
<g id="a_node9"><a xlink:href="classmfem_1_1ParGridFunction.html" target="_top" xlink:title="Class for parallel grid function. ">
<polygon fill="white" stroke="red" points="880,-83.1239 880,-106.124 1038,-106.124 1038,-83.1239 880,-83.1239"/>
<text text-anchor="middle" x="959" y="-90.9239" font-family="Helvetica,sans-Serif" font-size="14.00">mfem::ParGridFunction</text>
</a>
</g>
</g>
<!-- Node9&#45;&gt;Node1 -->
<g id="edge12" class="edge"><title>Node9&#45;&gt;Node1</title>
<path fill="none" stroke="#9a32cd" stroke-dasharray="5,2" d="M1048.16,-95.7938C1055.59,-96.7496 1062.96,-98.0017 1070,-99.6239 1099.51,-106.419 1131.18,-121.428 1151.27,-132.021"/>
<polygon fill="#9a32cd" stroke="#9a32cd" points="1048.33,-92.2909 1038,-94.6669 1047.55,-99.2482 1048.33,-92.2909"/>
<text text-anchor="middle" x="1063" y="-118.424" font-family="Helvetica,sans-Serif" font-size="14.00"> X</text>
<text text-anchor="middle" x="1063" y="-103.424" font-family="Helvetica,sans-Serif" font-size="14.00">Y</text>
</g>
<!-- Node10&#45;&gt;Node9 -->
<g id="edge13" class="edge"><title>Node10&#45;&gt;Node9</title>
<path fill="none" stroke="midnightblue" d="M803.716,-83.3186C828.269,-85.1177 855.399,-87.1057 879.973,-88.9064"/>
<polygon fill="midnightblue" stroke="midnightblue" points="803.957,-79.8269 793.728,-82.5867 803.445,-86.8082 803.957,-79.8269"/>
</g>
</g>
</svg>
