<?xml version="1.0" encoding="UTF-8" standalone="no"?>
<!DOCTYPE svg PUBLIC "-//W3C//DTD SVG 1.1//EN"
 "http://www.w3.org/Graphics/SVG/1.1/DTD/svg11.dtd">
<!-- Generated by graphviz version 2.30.1 (20140821.0912)
 -->
<!-- Title: mfem::SuperLUSolver Pages: 1 -->
<svg width="323pt" height="170pt"
 viewBox="0.00 0.00 323.00 170.00" xmlns="http://www.w3.org/2000/svg" xmlns:xlink="http://www.w3.org/1999/xlink">
<g id="graph0" class="graph" transform="scale(1 1) rotate(0) translate(4 166)">
<title>mfem::SuperLUSolver</title>
<polygon fill="white" stroke="white" points="-4,5 -4,-166 320,-166 320,5 -4,5"/>
<!-- Node1 -->
<g id="node1" class="node"><title>Node1</title>
<polygon fill="#bfbfbf" stroke="black" points="22.5,-0.5 22.5,-23.5 173.5,-23.5 173.5,-0.5 22.5,-0.5"/>
<text text-anchor="middle" x="98" y="-8.3" font-family="Helvetica,sans-Serif" font-size="14.00">mfem::SuperLUSolver</text>
</g>
<!-- Node2 -->
<g id="node2" class="node"><title>Node2</title>
<g id="a_node2"><a xlink:href="classmfem_1_1Solver.html" target="_top" xlink:title="Base class for solvers. ">
<polygon fill="white" stroke="black" points="0,-76.5 0,-99.5 98,-99.5 98,-76.5 0,-76.5"/>
<text text-anchor="middle" x="49" y="-84.3" font-family="Helvetica,sans-Serif" font-size="14.00">mfem::Solver</text>
</a>
</g>
</g>
<!-- Node2&#45;&gt;Node1 -->
<g id="edge1" class="edge"><title>Node2&#45;&gt;Node1</title>
<path fill="none" stroke="midnightblue" d="M61.6415,-67.9088C70.9834,-53.8005 83.3568,-35.1143 90.9925,-23.5827"/>
<polygon fill="midnightblue" stroke="midnightblue" points="58.6233,-66.1274 56.0205,-76.3976 64.4598,-69.9921 58.6233,-66.1274"/>
</g>
<!-- Node3 -->
<g id="node3" class="node"><title>Node3</title>
<g id="a_node3"><a xlink:href="classmfem_1_1Operator.html" target="_top" xlink:title="Abstract operator. ">
<polygon fill="white" stroke="black" points="93.5,-138.5 93.5,-161.5 206.5,-161.5 206.5,-138.5 93.5,-138.5"/>
<text text-anchor="middle" x="150" y="-146.3" font-family="Helvetica,sans-Serif" font-size="14.00">mfem::Operator</text>
</a>
</g>
</g>
<!-- Node3&#45;&gt;Node2 -->
<g id="edge2" class="edge"><title>Node3&#45;&gt;Node2</title>
<path fill="none" stroke="midnightblue" d="M123.164,-133.058C105.369,-122.486 82.5073,-108.905 66.9004,-99.6339"/>
<polygon fill="midnightblue" stroke="midnightblue" points="121.558,-136.175 131.943,-138.273 125.133,-130.157 121.558,-136.175"/>
</g>
<!-- Node4 -->
<g id="node4" class="node"><title>Node4</title>
<g id="a_node4"><a xlink:href="classmfem_1_1SuperLURowLocMatrix.html" target="_top" xlink:title="mfem::SuperLURowLocMatrix">
<polygon fill="white" stroke="black" points="116.5,-76.5 116.5,-99.5 315.5,-99.5 315.5,-76.5 116.5,-76.5"/>
<text text-anchor="middle" x="216" y="-84.3" font-family="Helvetica,sans-Serif" font-size="14.00">mfem::SuperLURowLocMatrix</text>
</a>
</g>
</g>
<!-- Node3&#45;&gt;Node4 -->
<g id="edge4" class="edge"><title>Node3&#45;&gt;Node4</title>
<path fill="none" stroke="midnightblue" d="M169.485,-131.286C180.795,-121.004 194.666,-108.395 204.303,-99.6339"/>
<polygon fill="midnightblue" stroke="midnightblue" points="166.845,-128.957 161.799,-138.273 171.553,-134.136 166.845,-128.957"/>
</g>
<!-- Node4&#45;&gt;Node1 -->
<g id="edge3" class="edge"><title>Node4&#45;&gt;Node1</title>
<path fill="none" stroke="#9a32cd" stroke-dasharray="5,2" d="M190.564,-71.0486C167.667,-56.6895 134.664,-35.9928 114.875,-23.5827"/>
<polygon fill="#9a32cd" stroke="#9a32cd" points="188.762,-74.0498 199.093,-76.3976 192.481,-68.1195 188.762,-74.0498"/>
<text text-anchor="middle" x="186" y="-46.3" font-family="Helvetica,sans-Serif" font-size="14.00"> APtr_</text>
</g>
</g>
</svg>
