<?xml version="1.0" encoding="UTF-8" standalone="no"?>
<!DOCTYPE svg PUBLIC "-//W3C//DTD SVG 1.1//EN"
 "http://www.w3.org/Graphics/SVG/1.1/DTD/svg11.dtd">
<!-- Generated by graphviz version 2.40.1 (20161225.0304)
 -->
<!-- Title: mfem::GroupConvectionIntegrator Pages: 1 -->
<svg width="236pt" height="149pt"
 viewBox="0.00 0.00 235.65 149.00" xmlns="http://www.w3.org/2000/svg" xmlns:xlink="http://www.w3.org/1999/xlink">
<g id="graph0" class="graph" transform="scale(1 1) rotate(0) translate(4 145)">
<title>mfem::GroupConvectionIntegrator</title>
<polygon fill="#ffffff" stroke="transparent" points="-4,4 -4,-145 231.6543,-145 231.6543,4 -4,4"/>
<!-- Node0 -->
<g id="node1" class="node">
<title>Node0</title>
<polygon fill="#bfbfbf" stroke="#000000" points="0,-.5 0,-22.5 227.6543,-22.5 227.6543,-.5 0,-.5"/>
<text text-anchor="middle" x="113.8271" y="-7.3" font-family="Helvetica,sans-Serif" font-size="14.00" fill="#000000">mfem::GroupConvectionIntegrator</text>
</g>
<!-- Node1 -->
<g id="node2" class="node">
<title>Node1</title>
<g id="a_node2"><a xlink:href="classmfem_1_1BilinearFormIntegrator.html" target="_top" xlink:title="Abstract base class BilinearFormIntegrator. ">
<polygon fill="#ffffff" stroke="#000000" points="14.7998,-59.5 14.7998,-81.5 212.8545,-81.5 212.8545,-59.5 14.7998,-59.5"/>
<text text-anchor="middle" x="113.8271" y="-66.3" font-family="Helvetica,sans-Serif" font-size="14.00" fill="#000000">mfem::BilinearFormIntegrator</text>
</a>
</g>
</g>
<!-- Node1&#45;&gt;Node0 -->
<g id="edge1" class="edge">
<title>Node1&#45;&gt;Node0</title>
<path fill="none" stroke="#191970" d="M113.8271,-49.198C113.8271,-40.1726 113.8271,-30.0351 113.8271,-22.5477"/>
<polygon fill="#191970" stroke="#191970" points="110.3272,-49.4025 113.8271,-59.4026 117.3272,-49.4026 110.3272,-49.4025"/>
</g>
<!-- Node2 -->
<g id="node3" class="node">
<title>Node2</title>
<g id="a_node3"><a xlink:href="classmfem_1_1NonlinearFormIntegrator.html" target="_top" xlink:title="mfem::NonlinearFormIntegrator">
<polygon fill="#ffffff" stroke="#000000" points="8.1826,-118.5 8.1826,-140.5 219.4717,-140.5 219.4717,-118.5 8.1826,-118.5"/>
<text text-anchor="middle" x="113.8271" y="-125.3" font-family="Helvetica,sans-Serif" font-size="14.00" fill="#000000">mfem::NonlinearFormIntegrator</text>
</a>
</g>
</g>
<!-- Node2&#45;&gt;Node1 -->
<g id="edge2" class="edge">
<title>Node2&#45;&gt;Node1</title>
<path fill="none" stroke="#191970" d="M113.8271,-108.198C113.8271,-99.1726 113.8271,-89.0351 113.8271,-81.5477"/>
<polygon fill="#191970" stroke="#191970" points="110.3272,-108.4025 113.8271,-118.4026 117.3272,-108.4026 110.3272,-108.4025"/>
</g>
</g>
</svg>
