<?xml version="1.0" encoding="UTF-8" standalone="no"?>
<!DOCTYPE svg PUBLIC "-//W3C//DTD SVG 1.1//EN"
 "http://www.w3.org/Graphics/SVG/1.1/DTD/svg11.dtd">
<!-- Generated by graphviz version 2.30.1 (20140821.0912)
 -->
<!-- Title: mfem::Element Pages: 1 -->
<svg width="292pt" height="242pt"
 viewBox="0.00 0.00 292.00 242.00" xmlns="http://www.w3.org/2000/svg" xmlns:xlink="http://www.w3.org/1999/xlink">
<g id="graph0" class="graph" transform="scale(1 1) rotate(0) translate(4 238)">
<title>mfem::Element</title>
<polygon fill="white" stroke="white" points="-4,5 -4,-238 289,-238 289,5 -4,5"/>
<!-- Node1 -->
<g id="node1" class="node"><title>Node1</title>
<polygon fill="#bfbfbf" stroke="black" points="0,-105.5 0,-128.5 110,-128.5 110,-105.5 0,-105.5"/>
<text text-anchor="middle" x="55" y="-113.3" font-family="Helvetica,sans-Serif" font-size="14.00">mfem::Element</text>
</g>
<!-- Node2 -->
<g id="node2" class="node"><title>Node2</title>
<g id="a_node2"><a xlink:href="classmfem_1_1Hexahedron.html" target="_top" xlink:title="Data type hexahedron element. ">
<polygon fill="white" stroke="black" points="148.5,-210.5 148.5,-233.5 281.5,-233.5 281.5,-210.5 148.5,-210.5"/>
<text text-anchor="middle" x="215" y="-218.3" font-family="Helvetica,sans-Serif" font-size="14.00">mfem::Hexahedron</text>
</a>
</g>
</g>
<!-- Node1&#45;&gt;Node2 -->
<g id="edge1" class="edge"><title>Node1&#45;&gt;Node2</title>
<path fill="none" stroke="midnightblue" d="M71.9065,-136.244C88.5554,-155.227 116.36,-183.823 146,-201 152.414,-204.717 159.557,-207.845 166.735,-210.457"/>
<polygon fill="midnightblue" stroke="midnightblue" points="74.4455,-133.828 65.2784,-128.517 69.1322,-138.386 74.4455,-133.828"/>
</g>
<!-- Node3 -->
<g id="node3" class="node"><title>Node3</title>
<g id="a_node3"><a xlink:href="classmfem_1_1Point.html" target="_top" xlink:title="Data type point element. ">
<polygon fill="white" stroke="black" points="170,-168.5 170,-191.5 260,-191.5 260,-168.5 170,-168.5"/>
<text text-anchor="middle" x="215" y="-176.3" font-family="Helvetica,sans-Serif" font-size="14.00">mfem::Point</text>
</a>
</g>
</g>
<!-- Node1&#45;&gt;Node3 -->
<g id="edge2" class="edge"><title>Node1&#45;&gt;Node3</title>
<path fill="none" stroke="midnightblue" d="M87.5344,-133.012C104.597,-141.344 126.182,-151.357 146,-159 154.761,-162.379 164.314,-165.602 173.416,-168.465"/>
<polygon fill="midnightblue" stroke="midnightblue" points="89.0767,-129.871 78.5605,-128.582 85.9779,-136.147 89.0767,-129.871"/>
</g>
<!-- Node4 -->
<g id="node4" class="node"><title>Node4</title>
<g id="a_node4"><a xlink:href="classmfem_1_1Quadrilateral.html" target="_top" xlink:title="Data type quadrilateral element. ">
<polygon fill="white" stroke="black" points="146.5,-126.5 146.5,-149.5 283.5,-149.5 283.5,-126.5 146.5,-126.5"/>
<text text-anchor="middle" x="215" y="-134.3" font-family="Helvetica,sans-Serif" font-size="14.00">mfem::Quadrilateral</text>
</a>
</g>
</g>
<!-- Node1&#45;&gt;Node4 -->
<g id="edge3" class="edge"><title>Node1&#45;&gt;Node4</title>
<path fill="none" stroke="midnightblue" d="M120.327,-125.55C128.921,-126.692 137.755,-127.866 146.403,-129.016"/>
<polygon fill="midnightblue" stroke="midnightblue" points="120.749,-122.075 110.375,-124.227 119.826,-129.014 120.749,-122.075"/>
</g>
<!-- Node5 -->
<g id="node5" class="node"><title>Node5</title>
<g id="a_node5"><a xlink:href="classmfem_1_1Segment.html" target="_top" xlink:title="Data type line segment element. ">
<polygon fill="white" stroke="black" points="158,-84.5 158,-107.5 272,-107.5 272,-84.5 158,-84.5"/>
<text text-anchor="middle" x="215" y="-92.3" font-family="Helvetica,sans-Serif" font-size="14.00">mfem::Segment</text>
</a>
</g>
</g>
<!-- Node1&#45;&gt;Node5 -->
<g id="edge4" class="edge"><title>Node1&#45;&gt;Node5</title>
<path fill="none" stroke="midnightblue" d="M120.621,-108.411C132.987,-106.767 145.841,-105.059 157.913,-103.455"/>
<polygon fill="midnightblue" stroke="midnightblue" points="119.826,-104.986 110.375,-109.773 120.749,-111.925 119.826,-104.986"/>
</g>
<!-- Node6 -->
<g id="node6" class="node"><title>Node6</title>
<g id="a_node6"><a xlink:href="classmfem_1_1Tetrahedron.html" target="_top" xlink:title="Data type tetrahedron element. ">
<polygon fill="white" stroke="black" points="148.5,-42.5 148.5,-65.5 281.5,-65.5 281.5,-42.5 148.5,-42.5"/>
<text text-anchor="middle" x="215" y="-50.3" font-family="Helvetica,sans-Serif" font-size="14.00">mfem::Tetrahedron</text>
</a>
</g>
</g>
<!-- Node1&#45;&gt;Node6 -->
<g id="edge5" class="edge"><title>Node1&#45;&gt;Node6</title>
<path fill="none" stroke="midnightblue" d="M87.5344,-100.988C104.597,-92.6556 126.182,-82.643 146,-75 154.761,-71.6211 164.314,-68.3976 173.416,-65.5351"/>
<polygon fill="midnightblue" stroke="midnightblue" points="85.9779,-97.8526 78.5605,-105.418 89.0767,-104.129 85.9779,-97.8526"/>
</g>
<!-- Node7 -->
<g id="node7" class="node"><title>Node7</title>
<g id="a_node7"><a xlink:href="classmfem_1_1Triangle.html" target="_top" xlink:title="Data type triangle element. ">
<polygon fill="white" stroke="black" points="161,-0.5 161,-23.5 269,-23.5 269,-0.5 161,-0.5"/>
<text text-anchor="middle" x="215" y="-8.3" font-family="Helvetica,sans-Serif" font-size="14.00">mfem::Triangle</text>
</a>
</g>
</g>
<!-- Node1&#45;&gt;Node7 -->
<g id="edge6" class="edge"><title>Node1&#45;&gt;Node7</title>
<path fill="none" stroke="midnightblue" d="M71.9065,-97.7557C88.5554,-78.773 116.36,-50.177 146,-33 152.414,-29.2828 159.557,-26.1545 166.735,-23.5432"/>
<polygon fill="midnightblue" stroke="midnightblue" points="69.1322,-95.6142 65.2784,-105.483 74.4455,-100.172 69.1322,-95.6142"/>
</g>
</g>
</svg>
