<?xml version="1.0" encoding="UTF-8" standalone="no"?>
<!DOCTYPE svg PUBLIC "-//W3C//DTD SVG 1.1//EN"
 "http://www.w3.org/Graphics/SVG/1.1/DTD/svg11.dtd">
<!-- Generated by graphviz version 2.40.1 (20161225.0304)
 -->
<!-- Title: mfem::SDIRK23Solver Pages: 1 -->
<svg width="296pt" height="251pt"
 viewBox="0.00 0.00 295.80 251.00" xmlns="http://www.w3.org/2000/svg" xmlns:xlink="http://www.w3.org/1999/xlink">
<g id="graph0" class="graph" transform="scale(1 1) rotate(0) translate(4 247)">
<title>mfem::SDIRK23Solver</title>
<polygon fill="#ffffff" stroke="transparent" points="-4,4 -4,-247 291.8018,-247 291.8018,4 -4,4"/>
<!-- Node2 -->
<g id="node1" class="node">
<title>Node2</title>
<polygon fill="#bfbfbf" stroke="#000000" points="94.1538,-.5 94.1538,-22.5 250.9741,-22.5 250.9741,-.5 94.1538,-.5"/>
<text text-anchor="middle" x="172.564" y="-7.3" font-family="Helvetica,sans-Serif" font-size="14.00" fill="#000000">mfem::SDIRK23Solver</text>
</g>
<!-- Node3 -->
<g id="node2" class="node">
<title>Node3</title>
<g id="a_node2"><a xlink:href="classmfem_1_1ODESolver.html" target="_top" xlink:title="Abstract class for solving systems of ODEs: dx/dt = f(x,t) ">
<polygon fill="#ffffff" stroke="#000000" points="42.1641,-87.5 42.1641,-109.5 170.9639,-109.5 170.9639,-87.5 42.1641,-87.5"/>
<text text-anchor="middle" x="106.564" y="-94.3" font-family="Helvetica,sans-Serif" font-size="14.00" fill="#000000">mfem::ODESolver</text>
</a>
</g>
</g>
<!-- Node3&#45;&gt;Node2 -->
<g id="edge1" class="edge">
<title>Node3&#45;&gt;Node2</title>
<path fill="none" stroke="#191970" d="M121.2116,-79.1917C134.3721,-61.8438 153.2424,-36.9694 164.0644,-22.7039"/>
<polygon fill="#191970" stroke="#191970" points="118.1784,-77.3991 114.9229,-87.4814 123.7552,-81.6298 118.1784,-77.3991"/>
</g>
<!-- Node4 -->
<g id="node3" class="node">
<title>Node4</title>
<g id="a_node3"><a xlink:href="classmfem_1_1TimeDependentOperator.html" target="_top" xlink:title="Base abstract class for time dependent operators. ">
<polygon fill="#ffffff" stroke="#000000" points="0,-160.5 0,-182.5 213.1279,-182.5 213.1279,-160.5 0,-160.5"/>
<text text-anchor="middle" x="106.564" y="-167.3" font-family="Helvetica,sans-Serif" font-size="14.00" fill="#000000">mfem::TimeDependentOperator</text>
</a>
</g>
</g>
<!-- Node4&#45;&gt;Node3 -->
<g id="edge2" class="edge">
<title>Node4&#45;&gt;Node3</title>
<path fill="none" stroke="#9a32cd" stroke-dasharray="5,2" d="M106.564,-150.2419C106.564,-136.981 106.564,-120.4483 106.564,-109.6915"/>
<polygon fill="#9a32cd" stroke="#9a32cd" points="103.0641,-150.4128 106.564,-160.4129 110.0641,-150.4129 103.0641,-150.4128"/>
<text text-anchor="middle" x="110.4536" y="-130.8" font-family="Helvetica,sans-Serif" font-size="14.00" fill="#000000"> f</text>
</g>
<!-- Node5 -->
<g id="node4" class="node">
<title>Node5</title>
<g id="a_node4"><a xlink:href="classmfem_1_1Operator.html" target="_top" xlink:title="Abstract operator. ">
<polygon fill="#ffffff" stroke="#000000" points="49.5503,-220.5 49.5503,-242.5 163.5776,-242.5 163.5776,-220.5 49.5503,-220.5"/>
<text text-anchor="middle" x="106.564" y="-227.3" font-family="Helvetica,sans-Serif" font-size="14.00" fill="#000000">mfem::Operator</text>
</a>
</g>
</g>
<!-- Node5&#45;&gt;Node4 -->
<g id="edge3" class="edge">
<title>Node5&#45;&gt;Node4</title>
<path fill="none" stroke="#191970" d="M106.564,-210.4183C106.564,-201.1393 106.564,-190.6082 106.564,-182.8428"/>
<polygon fill="#191970" stroke="#191970" points="103.0641,-210.495 106.564,-220.4951 110.0641,-210.4951 103.0641,-210.495"/>
</g>
<!-- Node6 -->
<g id="node5" class="node">
<title>Node6</title>
<g id="a_node5"><a xlink:href="classmfem_1_1Vector.html" target="_top" xlink:title="Vector data type. ">
<polygon fill="#ffffff" stroke="#000000" points="189.3262,-87.5 189.3262,-109.5 287.8018,-109.5 287.8018,-87.5 189.3262,-87.5"/>
<text text-anchor="middle" x="238.564" y="-94.3" font-family="Helvetica,sans-Serif" font-size="14.00" fill="#000000">mfem::Vector</text>
</a>
</g>
</g>
<!-- Node6&#45;&gt;Node2 -->
<g id="edge4" class="edge">
<title>Node6&#45;&gt;Node2</title>
<path fill="none" stroke="#9a32cd" stroke-dasharray="5,2" d="M223.9163,-79.1917C210.7558,-61.8438 191.8856,-36.9694 181.0635,-22.7039"/>
<polygon fill="#9a32cd" stroke="#9a32cd" points="221.3727,-81.6298 230.205,-87.4814 226.9495,-77.3991 221.3727,-81.6298"/>
<text text-anchor="middle" x="220.0088" y="-57.8" font-family="Helvetica,sans-Serif" font-size="14.00" fill="#000000"> y</text>
<text text-anchor="middle" x="220.0088" y="-43.8" font-family="Helvetica,sans-Serif" font-size="14.00" fill="#000000">k</text>
</g>
</g>
</svg>
