<?xml version="1.0" encoding="UTF-8" standalone="no"?>
<!DOCTYPE svg PUBLIC "-//W3C//DTD SVG 1.1//EN"
 "http://www.w3.org/Graphics/SVG/1.1/DTD/svg11.dtd">
<!-- Generated by graphviz version 2.30.1 (20140821.0912)
 -->
<!-- Title: mfem::H1_FiniteElement&lt; Geometry::SEGMENT, P &gt; Pages: 1 -->
<svg width="411pt" height="362pt"
 viewBox="0.00 0.00 411.00 362.00" xmlns="http://www.w3.org/2000/svg" xmlns:xlink="http://www.w3.org/1999/xlink">
<g id="graph0" class="graph" transform="scale(1 1) rotate(0) translate(4 358)">
<title>mfem::H1_FiniteElement&lt; Geometry::SEGMENT, P &gt;</title>
<polygon fill="white" stroke="white" points="-4,5 -4,-358 408,-358 408,5 -4,5"/>
<!-- Node1 -->
<g id="node1" class="node"><title>Node1</title>
<polygon fill="#bfbfbf" stroke="black" points="4,-1 4,-39 198,-39 198,-1 4,-1"/>
<text text-anchor="start" x="12" y="-23.8" font-family="Helvetica,sans-Serif" font-size="14.00">mfem::H1_FiniteElement</text>
<text text-anchor="middle" x="101" y="-8.8" font-family="Helvetica,sans-Serif" font-size="14.00">&lt; Geometry::SEGMENT, P &gt;</text>
</g>
<!-- Node2 -->
<g id="node2" class="node"><title>Node2</title>
<g id="a_node2"><a xlink:href="classmfem_1_1Array.html" target="_top" xlink:title="mfem::Array\&lt; int \&gt;">
<polygon fill="white" stroke="black" points="0,-210.5 0,-233.5 130,-233.5 130,-210.5 0,-210.5"/>
<text text-anchor="middle" x="65" y="-218.3" font-family="Helvetica,sans-Serif" font-size="14.00">mfem::Array&lt; int &gt;</text>
</a>
</g>
</g>
<!-- Node2&#45;&gt;Node1 -->
<g id="edge1" class="edge"><title>Node2&#45;&gt;Node1</title>
<path fill="none" stroke="#9a32cd" stroke-dasharray="5,2" d="M68.7364,-200.242C75.8029,-160.984 91.0159,-76.4671 97.7168,-39.24"/>
<polygon fill="#9a32cd" stroke="#9a32cd" points="65.2625,-199.785 66.9355,-210.247 72.1518,-201.025 65.2625,-199.785"/>
<text text-anchor="middle" x="123" y="-138.3" font-family="Helvetica,sans-Serif" font-size="14.00"> my_dof_map</text>
</g>
<!-- Node3 -->
<g id="node3" class="node"><title>Node3</title>
<g id="a_node3"><a xlink:href="classmfem_1_1BaseArray.html" target="_top" xlink:title="Base class for array container. ">
<polygon fill="white" stroke="black" points="37,-330.5 37,-353.5 159,-353.5 159,-330.5 37,-330.5"/>
<text text-anchor="middle" x="98" y="-338.3" font-family="Helvetica,sans-Serif" font-size="14.00">mfem::BaseArray</text>
</a>
</g>
</g>
<!-- Node3&#45;&gt;Node2 -->
<g id="edge2" class="edge"><title>Node3&#45;&gt;Node2</title>
<path fill="none" stroke="midnightblue" d="M90.924,-320.478C88.0106,-311.745 84.6944,-301.42 82,-292 76.1644,-271.598 70.4963,-247.463 67.4049,-233.822"/>
<polygon fill="midnightblue" stroke="midnightblue" points="87.6848,-321.825 94.2089,-330.173 94.3146,-319.578 87.6848,-321.825"/>
</g>
<!-- Node6 -->
<g id="node6" class="node"><title>Node6</title>
<g id="a_node6"><a xlink:href="classmfem_1_1Array.html" target="_top" xlink:title="mfem::Array\&lt; Integration\lPoint \&gt;">
<polygon fill="white" stroke="black" points="91.5,-253 91.5,-291 258.5,-291 258.5,-253 91.5,-253"/>
<text text-anchor="start" x="99.5" y="-275.8" font-family="Helvetica,sans-Serif" font-size="14.00">mfem::Array&lt; Integration</text>
<text text-anchor="middle" x="175" y="-260.8" font-family="Helvetica,sans-Serif" font-size="14.00">Point &gt;</text>
</a>
</g>
</g>
<!-- Node3&#45;&gt;Node6 -->
<g id="edge6" class="edge"><title>Node3&#45;&gt;Node6</title>
<path fill="none" stroke="midnightblue" d="M117.633,-323.662C128.873,-313.736 142.962,-301.293 154.365,-291.223"/>
<polygon fill="midnightblue" stroke="midnightblue" points="115.21,-321.132 110.031,-330.375 119.844,-326.379 115.21,-321.132"/>
</g>
<!-- Node4 -->
<g id="node4" class="node"><title>Node4</title>
<g id="a_node4"><a xlink:href="classmfem_1_1FiniteElement.html" target="_top" xlink:title="Abstract class for Finite Elements. ">
<polygon fill="white" stroke="black" points="101.5,-92.5 101.5,-115.5 244.5,-115.5 244.5,-92.5 101.5,-92.5"/>
<text text-anchor="middle" x="173" y="-100.3" font-family="Helvetica,sans-Serif" font-size="14.00">mfem::FiniteElement</text>
</a>
</g>
</g>
<!-- Node4&#45;&gt;Node1 -->
<g id="edge3" class="edge"><title>Node4&#45;&gt;Node1</title>
<path fill="none" stroke="#9a32cd" stroke-dasharray="5,2" d="M156.804,-84.5547C144.922,-71.0226 128.862,-52.7314 117.021,-39.2462"/>
<polygon fill="#9a32cd" stroke="#9a32cd" points="154.359,-87.0748 163.587,-92.2799 159.619,-82.4562 154.359,-87.0748"/>
<text text-anchor="middle" x="167" y="-62.3" font-family="Helvetica,sans-Serif" font-size="14.00"> my_fe</text>
</g>
<!-- Node5 -->
<g id="node5" class="node"><title>Node5</title>
<g id="a_node5"><a xlink:href="classmfem_1_1IntegrationRule.html" target="_top" xlink:title="Class for an integration rule &#45; an Array of IntegrationPoint. ">
<polygon fill="white" stroke="black" points="97.5,-168.5 97.5,-191.5 248.5,-191.5 248.5,-168.5 97.5,-168.5"/>
<text text-anchor="middle" x="173" y="-176.3" font-family="Helvetica,sans-Serif" font-size="14.00">mfem::IntegrationRule</text>
</a>
</g>
</g>
<!-- Node5&#45;&gt;Node4 -->
<g id="edge4" class="edge"><title>Node5&#45;&gt;Node4</title>
<path fill="none" stroke="#9a32cd" stroke-dasharray="5,2" d="M173,-158.277C173,-144.387 173,-126.675 173,-115.583"/>
<polygon fill="#9a32cd" stroke="#9a32cd" points="169.5,-158.398 173,-168.398 176.5,-158.398 169.5,-158.398"/>
<text text-anchor="middle" x="194.5" y="-138.3" font-family="Helvetica,sans-Serif" font-size="14.00"> Nodes</text>
</g>
<!-- Node6&#45;&gt;Node5 -->
<g id="edge5" class="edge"><title>Node6&#45;&gt;Node5</title>
<path fill="none" stroke="midnightblue" d="M174.369,-242.586C173.983,-225.229 173.512,-204.043 173.235,-191.586"/>
<polygon fill="midnightblue" stroke="midnightblue" points="170.874,-242.867 174.595,-252.787 177.872,-242.712 170.874,-242.867"/>
</g>
<!-- Node7 -->
<g id="node7" class="node"><title>Node7</title>
<g id="a_node7"><a xlink:href="classmfem_1_1DenseMatrix.html" target="_top" xlink:title="Data type dense matrix using column&#45;major storage. ">
<polygon fill="white" stroke="black" points="267,-168.5 267,-191.5 403,-191.5 403,-168.5 267,-168.5"/>
<text text-anchor="middle" x="335" y="-176.3" font-family="Helvetica,sans-Serif" font-size="14.00">mfem::DenseMatrix</text>
</a>
</g>
</g>
<!-- Node7&#45;&gt;Node4 -->
<g id="edge7" class="edge"><title>Node7&#45;&gt;Node4</title>
<path fill="none" stroke="#9a32cd" stroke-dasharray="5,2" d="M302.553,-164.179C271.063,-149.794 224.057,-128.322 196.168,-115.583"/>
<polygon fill="#9a32cd" stroke="#9a32cd" points="301.239,-167.426 311.789,-168.398 304.148,-161.059 301.239,-167.426"/>
<text text-anchor="middle" x="293" y="-138.3" font-family="Helvetica,sans-Serif" font-size="14.00"> vshape</text>
</g>
<!-- Node8 -->
<g id="node8" class="node"><title>Node8</title>
<g id="a_node8"><a xlink:href="classmfem_1_1Matrix.html" target="_top" xlink:title="Abstract data type matrix. ">
<polygon fill="white" stroke="black" points="286.5,-260.5 286.5,-283.5 383.5,-283.5 383.5,-260.5 286.5,-260.5"/>
<text text-anchor="middle" x="335" y="-268.3" font-family="Helvetica,sans-Serif" font-size="14.00">mfem::Matrix</text>
</a>
</g>
</g>
<!-- Node8&#45;&gt;Node7 -->
<g id="edge8" class="edge"><title>Node8&#45;&gt;Node7</title>
<path fill="none" stroke="midnightblue" d="M335,-250.08C335,-231.799 335,-206.001 335,-191.664"/>
<polygon fill="midnightblue" stroke="midnightblue" points="331.5,-250.322 335,-260.322 338.5,-250.322 331.5,-250.322"/>
</g>
<!-- Node9 -->
<g id="node9" class="node"><title>Node9</title>
<g id="a_node9"><a xlink:href="classmfem_1_1Operator.html" target="_top" xlink:title="Abstract operator. ">
<polygon fill="white" stroke="black" points="278.5,-330.5 278.5,-353.5 391.5,-353.5 391.5,-330.5 278.5,-330.5"/>
<text text-anchor="middle" x="335" y="-338.3" font-family="Helvetica,sans-Serif" font-size="14.00">mfem::Operator</text>
</a>
</g>
</g>
<!-- Node9&#45;&gt;Node8 -->
<g id="edge9" class="edge"><title>Node9&#45;&gt;Node8</title>
<path fill="none" stroke="midnightblue" d="M335,-320.272C335,-308.228 335,-293.549 335,-283.775"/>
<polygon fill="midnightblue" stroke="midnightblue" points="331.5,-320.375 335,-330.375 338.5,-320.375 331.5,-320.375"/>
</g>
</g>
</svg>
