<?xml version="1.0" encoding="UTF-8" standalone="no"?>
<!DOCTYPE svg PUBLIC "-//W3C//DTD SVG 1.1//EN"
 "http://www.w3.org/Graphics/SVG/1.1/DTD/svg11.dtd">
<!-- Generated by graphviz version 2.40.1 (20161225.0304)
 -->
<!-- Title: mfem::ParBilinearForm Pages: 1 -->
<svg width="740pt" height="368pt"
 viewBox="0.00 0.00 739.56 368.00" xmlns="http://www.w3.org/2000/svg" xmlns:xlink="http://www.w3.org/1999/xlink">
<g id="graph0" class="graph" transform="scale(1 1) rotate(0) translate(4 364)">
<title>mfem::ParBilinearForm</title>
<polygon fill="#ffffff" stroke="transparent" points="-4,4 -4,-364 735.5635,-364 735.5635,4 -4,4"/>
<!-- Node4 -->
<g id="node1" class="node">
<title>Node4</title>
<polygon fill="#bfbfbf" stroke="#000000" points="571.6465,-72.5 571.6465,-94.5 731.5635,-94.5 731.5635,-72.5 571.6465,-72.5"/>
<text text-anchor="middle" x="651.605" y="-79.3" font-family="Helvetica,sans-Serif" font-size="14.00" fill="#000000">mfem::ParBilinearForm</text>
</g>
<!-- Node5 -->
<g id="node2" class="node">
<title>Node5</title>
<g id="a_node2"><a xlink:href="classmfem_1_1BilinearForm.html" target="_top" xlink:title="mfem::BilinearForm">
<polygon fill="#ffffff" stroke="#ff0000" points="327.854,-191.5 327.854,-213.5 465.9849,-213.5 465.9849,-191.5 327.854,-191.5"/>
<text text-anchor="middle" x="396.9194" y="-198.3" font-family="Helvetica,sans-Serif" font-size="14.00" fill="#000000">mfem::BilinearForm</text>
</a>
</g>
</g>
<!-- Node5&#45;&gt;Node4 -->
<g id="edge1" class="edge">
<title>Node5&#45;&gt;Node4</title>
<path fill="none" stroke="#191970" d="M430.04,-187.0247C482.2118,-162.6478 582.2782,-115.8924 627.894,-94.5788"/>
<polygon fill="#191970" stroke="#191970" points="428.4579,-183.9006 420.8796,-191.3048 431.4211,-190.2425 428.4579,-183.9006"/>
</g>
<!-- Node6 -->
<g id="node3" class="node">
<title>Node6</title>
<g id="a_node3"><a xlink:href="classmfem_1_1Matrix.html" target="_top" xlink:title="Abstract data type matrix. ">
<polygon fill="#ffffff" stroke="#ff0000" points="54.4824,-337.5 54.4824,-359.5 151.3721,-359.5 151.3721,-337.5 54.4824,-337.5"/>
<text text-anchor="middle" x="102.9272" y="-344.3" font-family="Helvetica,sans-Serif" font-size="14.00" fill="#000000">mfem::Matrix</text>
</a>
</g>
</g>
<!-- Node6&#45;&gt;Node5 -->
<g id="edge2" class="edge">
<title>Node6&#45;&gt;Node5</title>
<path fill="none" stroke="#191970" d="M161.7993,-348.3847C202.5268,-345.9725 256.7089,-337.974 298.5645,-314.5 343.0283,-289.5631 377.3032,-236.6817 390.7401,-213.6312"/>
<polygon fill="#191970" stroke="#191970" points="161.5645,-344.892 151.7504,-348.8837 161.9117,-351.8834 161.5645,-344.892"/>
</g>
<!-- Node8 -->
<g id="node4" class="node">
<title>Node8</title>
<g id="a_node4"><a xlink:href="classmfem_1_1StaticCondensation.html" target="_top" xlink:title="mfem::StaticCondensation">
<polygon fill="#ffffff" stroke="#000000" points="12.8311,-296.5 12.8311,-318.5 193.0234,-318.5 193.0234,-296.5 12.8311,-296.5"/>
<text text-anchor="middle" x="102.9272" y="-303.3" font-family="Helvetica,sans-Serif" font-size="14.00" fill="#000000">mfem::StaticCondensation</text>
</a>
</g>
</g>
<!-- Node8&#45;&gt;Node5 -->
<g id="edge3" class="edge">
<title>Node8&#45;&gt;Node5</title>
<path fill="none" stroke="#9a32cd" stroke-dasharray="5,2" d="M203.2086,-301.1086C234.6365,-296.6272 268.8541,-289.0994 298.5645,-276.5 334.3691,-261.3162 368.9758,-230.3199 385.991,-213.6689"/>
<polygon fill="#9a32cd" stroke="#9a32cd" points="202.5597,-297.6642 193.1121,-302.4592 203.4878,-304.6024 202.5597,-297.6642"/>
<text text-anchor="middle" x="261.2095" y="-299.3" font-family="Helvetica,sans-Serif" font-size="14.00" fill="#000000"> static_cond</text>
</g>
<!-- Node9 -->
<g id="node5" class="node">
<title>Node9</title>
<g id="a_node5"><a xlink:href="classmfem_1_1Array.html" target="_top" xlink:title="mfem::Array\&lt; mfem::\lBilinearFormIntegrator *\&gt;">
<polygon fill="#ffffff" stroke="#ff0000" points="16.5327,-210.5 16.5327,-246.5 189.3218,-246.5 189.3218,-210.5 16.5327,-210.5"/>
<text text-anchor="start" x="24.5327" y="-231.3" font-family="Helvetica,sans-Serif" font-size="14.00" fill="#000000">mfem::Array&lt; mfem::</text>
<text text-anchor="middle" x="102.9272" y="-217.3" font-family="Helvetica,sans-Serif" font-size="14.00" fill="#000000">BilinearFormIntegrator *&gt;</text>
</a>
</g>
</g>
<!-- Node9&#45;&gt;Node5 -->
<g id="edge4" class="edge">
<title>Node9&#45;&gt;Node5</title>
<path fill="none" stroke="#9a32cd" stroke-dasharray="5,2" d="M199.7512,-219.9371C241.5575,-216.2399 289.5162,-211.9985 327.6662,-208.6246"/>
<polygon fill="#9a32cd" stroke="#9a32cd" points="199.1973,-216.4723 189.5445,-220.8398 199.814,-223.4451 199.1973,-216.4723"/>
<text text-anchor="middle" x="261.2095" y="-261.3" font-family="Helvetica,sans-Serif" font-size="14.00" fill="#000000"> dbfi</text>
<text text-anchor="middle" x="261.2095" y="-247.3" font-family="Helvetica,sans-Serif" font-size="14.00" fill="#000000">bbfi</text>
<text text-anchor="middle" x="261.2095" y="-233.3" font-family="Helvetica,sans-Serif" font-size="14.00" fill="#000000">bfbfi</text>
<text text-anchor="middle" x="261.2095" y="-219.3" font-family="Helvetica,sans-Serif" font-size="14.00" fill="#000000">fbfi</text>
</g>
<!-- Node11 -->
<g id="node6" class="node">
<title>Node11</title>
<g id="a_node6"><a xlink:href="classmfem_1_1SparseMatrix.html" target="_top" xlink:title="Data type sparse matrix. ">
<polygon fill="#ffffff" stroke="#ff0000" points="32.3032,-167.5 32.3032,-189.5 173.5513,-189.5 173.5513,-167.5 32.3032,-167.5"/>
<text text-anchor="middle" x="102.9272" y="-174.3" font-family="Helvetica,sans-Serif" font-size="14.00" fill="#000000">mfem::SparseMatrix</text>
</a>
</g>
</g>
<!-- Node11&#45;&gt;Node5 -->
<g id="edge5" class="edge">
<title>Node11&#45;&gt;Node5</title>
<path fill="none" stroke="#9a32cd" stroke-dasharray="5,2" d="M184.0556,-174.169C219.3519,-173.401 261.12,-173.9976 298.5645,-178.5 319.3309,-180.997 342.0436,-186.3585 360.4059,-191.3818"/>
<polygon fill="#9a32cd" stroke="#9a32cd" points="183.7089,-170.6767 173.8027,-174.4339 183.8897,-177.6743 183.7089,-170.6767"/>
<text text-anchor="middle" x="261.2095" y="-195.3" font-family="Helvetica,sans-Serif" font-size="14.00" fill="#000000"> mat</text>
<text text-anchor="middle" x="261.2095" y="-181.3" font-family="Helvetica,sans-Serif" font-size="14.00" fill="#000000">mat_e</text>
</g>
<!-- Node14 -->
<g id="node7" class="node">
<title>Node14</title>
<g id="a_node7"><a xlink:href="classmfem_1_1Array.html" target="_top" xlink:title="mfem::Array\&lt; int \&gt;">
<polygon fill="#ffffff" stroke="#ff0000" points="37.355,-126.5 37.355,-148.5 168.4995,-148.5 168.4995,-126.5 37.355,-126.5"/>
<text text-anchor="middle" x="102.9272" y="-133.3" font-family="Helvetica,sans-Serif" font-size="14.00" fill="#000000">mfem::Array&lt; int &gt;</text>
</a>
</g>
</g>
<!-- Node14&#45;&gt;Node5 -->
<g id="edge6" class="edge">
<title>Node14&#45;&gt;Node5</title>
<path fill="none" stroke="#9a32cd" stroke-dasharray="5,2" d="M178.8673,-138.2623C215.5747,-140.1963 259.9402,-144.8618 298.5645,-155.5 328.1223,-163.6411 359.6574,-180.2998 378.8308,-191.436"/>
<polygon fill="#9a32cd" stroke="#9a32cd" points="178.8812,-134.7592 168.7281,-137.7865 178.553,-141.7515 178.8812,-134.7592"/>
<text text-anchor="middle" x="261.2095" y="-158.3" font-family="Helvetica,sans-Serif" font-size="14.00" fill="#000000"> vdofs</text>
</g>
<!-- Node70 -->
<g id="node8" class="node">
<title>Node70</title>
<g id="a_node8"><a xlink:href="classmfem_1_1ParFiniteElementSpace.html" target="_top" xlink:title="Abstract parallel finite element space. ">
<polygon fill="#ffffff" stroke="#ff0000" points="0,-77.5 0,-99.5 205.8545,-99.5 205.8545,-77.5 0,-77.5"/>
<text text-anchor="middle" x="102.9272" y="-84.3" font-family="Helvetica,sans-Serif" font-size="14.00" fill="#000000">mfem::ParFiniteElementSpace</text>
</a>
</g>
</g>
<!-- Node70&#45;&gt;Node4 -->
<g id="edge7" class="edge">
<title>Node70&#45;&gt;Node4</title>
<path fill="none" stroke="#9a32cd" stroke-dasharray="5,2" d="M216.1946,-91.3954C218.7719,-91.4337 221.328,-91.4687 223.8545,-91.5 370.4174,-93.3177 407.1939,-97.4703 553.6465,-91.5 559.4432,-91.2637 565.4281,-90.949 571.4488,-90.581"/>
<polygon fill="#9a32cd" stroke="#9a32cd" points="216.2214,-87.8954 206.1658,-91.2324 216.1076,-94.8945 216.2214,-87.8954"/>
<text text-anchor="middle" x="396.9194" y="-97.3" font-family="Helvetica,sans-Serif" font-size="14.00" fill="#000000"> pfes</text>
</g>
<!-- Node72 -->
<g id="node10" class="node">
<title>Node72</title>
<g id="a_node10"><a xlink:href="classmfem_1_1ParGridFunction.html" target="_top" xlink:title="Class for parallel grid function. ">
<polygon fill="#ffffff" stroke="#ff0000" points="316.5645,-46.5 316.5645,-68.5 477.2744,-68.5 477.2744,-46.5 316.5645,-46.5"/>
<text text-anchor="middle" x="396.9194" y="-53.3" font-family="Helvetica,sans-Serif" font-size="14.00" fill="#000000">mfem::ParGridFunction</text>
</a>
</g>
</g>
<!-- Node70&#45;&gt;Node72 -->
<g id="edge10" class="edge">
<title>Node70&#45;&gt;Node72</title>
<path fill="none" stroke="#9a32cd" stroke-dasharray="5,2" d="M216.4026,-76.5346C249.6684,-73.0269 285.3534,-69.2641 316.1397,-66.0178"/>
<polygon fill="#9a32cd" stroke="#9a32cd" points="215.7423,-73.0847 206.1645,-77.6141 216.4764,-80.0461 215.7423,-73.0847"/>
<text text-anchor="middle" x="261.2095" y="-77.3" font-family="Helvetica,sans-Serif" font-size="14.00" fill="#000000"> pfes</text>
</g>
<!-- Node62 -->
<g id="node9" class="node">
<title>Node62</title>
<g id="a_node9"><a xlink:href="classmfem_1_1OperatorHandle.html" target="_top" xlink:title="Pointer to an Operator of a specified type. ">
<polygon fill="#ffffff" stroke="#ff0000" points="317.7231,-.5 317.7231,-22.5 476.1157,-22.5 476.1157,-.5 317.7231,-.5"/>
<text text-anchor="middle" x="396.9194" y="-7.3" font-family="Helvetica,sans-Serif" font-size="14.00" fill="#000000">mfem::OperatorHandle</text>
</a>
</g>
</g>
<!-- Node62&#45;&gt;Node4 -->
<g id="edge8" class="edge">
<title>Node62&#45;&gt;Node4</title>
<path fill="none" stroke="#9a32cd" stroke-dasharray="5,2" d="M486.5331,-13.3975C508.8415,-15.6788 532.4354,-19.6773 553.6465,-26.5 585.864,-36.8629 619.0093,-59.0314 637.2921,-72.4637"/>
<polygon fill="#9a32cd" stroke="#9a32cd" points="486.6649,-9.895 476.3868,-12.4663 486.0251,-16.8657 486.6649,-9.895"/>
<text text-anchor="middle" x="524.4604" y="-43.3" font-family="Helvetica,sans-Serif" font-size="14.00" fill="#000000"> p_mat_e</text>
<text text-anchor="middle" x="524.4604" y="-29.3" font-family="Helvetica,sans-Serif" font-size="14.00" fill="#000000">p_mat</text>
</g>
<!-- Node72&#45;&gt;Node4 -->
<g id="edge9" class="edge">
<title>Node72&#45;&gt;Node4</title>
<path fill="none" stroke="#9a32cd" stroke-dasharray="5,2" d="M487.8184,-58.466C509.4467,-59.39 532.4088,-60.9428 553.6465,-63.5 570.7072,-65.5543 589.2223,-69.0107 605.5156,-72.4776"/>
<polygon fill="#9a32cd" stroke="#9a32cd" points="487.7829,-54.9621 477.6551,-58.0729 487.5123,-61.9569 487.7829,-54.9621"/>
<text text-anchor="middle" x="524.4604" y="-80.3" font-family="Helvetica,sans-Serif" font-size="14.00" fill="#000000"> X</text>
<text text-anchor="middle" x="524.4604" y="-66.3" font-family="Helvetica,sans-Serif" font-size="14.00" fill="#000000">Y</text>
</g>
</g>
</svg>
