<?xml version="1.0" encoding="UTF-8" standalone="no"?>
<!DOCTYPE svg PUBLIC "-//W3C//DTD SVG 1.1//EN"
 "http://www.w3.org/Graphics/SVG/1.1/DTD/svg11.dtd">
<!-- Generated by graphviz version 2.26.3 (20100126.1600)
 -->
<!-- Title: mfem::NormalInterpolator Pages: 1 -->
<svg width="394pt" height="384pt"
 viewBox="0.00 0.00 394.00 384.00" xmlns="http://www.w3.org/2000/svg" xmlns:xlink="http://www.w3.org/1999/xlink">
<g id="graph1" class="graph" transform="scale(1 1) rotate(0) translate(4 380)">
<title>mfem::NormalInterpolator</title>
<polygon fill="white" stroke="white" points="-4,5 -4,-380 391,-380 391,5 -4,5"/>
<!-- Node1 -->
<g id="node1" class="node"><title>Node1</title>
<polygon fill="#bfbfbf" stroke="black" points="74.5,-1 74.5,-25 247.5,-25 247.5,-1 74.5,-1"/>
<text text-anchor="middle" x="161" y="-8.4" font-family="Helvetica,sans-Serif" font-size="14.00">mfem::NormalInterpolator</text>
</g>
<!-- Node2 -->
<g id="node2" class="node"><title>Node2</title>
<a xlink:href="classmfem_1_1DiscreteInterpolator.html" target="_top" xlink:title="mfem::DiscreteInterpolator">
<polygon fill="white" stroke="black" points="71.5,-65 71.5,-89 250.5,-89 250.5,-65 71.5,-65"/>
<text text-anchor="middle" x="161" y="-72.4" font-family="Helvetica,sans-Serif" font-size="14.00">mfem::DiscreteInterpolator</text>
</a>
</g>
<!-- Node2&#45;&gt;Node1 -->
<g id="edge2" class="edge"><title>Node2&#45;&gt;Node1</title>
<path fill="none" stroke="midnightblue" d="M161,-54.6785C161,-44.8681 161,-33.7179 161,-25.4205"/>
<polygon fill="midnightblue" stroke="midnightblue" points="157.5,-54.9621 161,-64.9621 164.5,-54.9621 157.5,-54.9621"/>
</g>
<!-- Node3 -->
<g id="node4" class="node"><title>Node3</title>
<a xlink:href="classmfem_1_1BilinearFormIntegrator.html" target="_top" xlink:title="Abstract base class BilinearFormIntegrator. ">
<polygon fill="white" stroke="black" points="63,-129 63,-153 259,-153 259,-129 63,-129"/>
<text text-anchor="middle" x="161" y="-136.4" font-family="Helvetica,sans-Serif" font-size="14.00">mfem::BilinearFormIntegrator</text>
</a>
</g>
<!-- Node3&#45;&gt;Node2 -->
<g id="edge4" class="edge"><title>Node3&#45;&gt;Node2</title>
<path fill="none" stroke="midnightblue" d="M161,-118.679C161,-108.868 161,-97.7179 161,-89.4205"/>
<polygon fill="midnightblue" stroke="midnightblue" points="157.5,-118.962 161,-128.962 164.5,-118.962 157.5,-118.962"/>
</g>
<!-- Node4 -->
<g id="node6" class="node"><title>Node4</title>
<a xlink:href="classmfem_1_1NonlinearFormIntegrator.html" target="_top" xlink:title="mfem::NonlinearFormIntegrator">
<polygon fill="white" stroke="black" points="-0.5,-207 -0.5,-231 208.5,-231 208.5,-207 -0.5,-207"/>
<text text-anchor="middle" x="104" y="-214.4" font-family="Helvetica,sans-Serif" font-size="14.00">mfem::NonlinearFormIntegrator</text>
</a>
</g>
<!-- Node4&#45;&gt;Node3 -->
<g id="edge6" class="edge"><title>Node4&#45;&gt;Node3</title>
<path fill="none" stroke="midnightblue" d="M118.989,-198.489C129.542,-184.047 143.312,-165.205 152.156,-153.102"/>
<polygon fill="midnightblue" stroke="midnightblue" points="115.981,-196.673 112.906,-206.812 121.632,-200.804 115.981,-196.673"/>
</g>
<!-- Node5 -->
<g id="node8" class="node"><title>Node5</title>
<a xlink:href="classmfem_1_1IntegrationRule.html" target="_top" xlink:title="Class for integration rule. ">
<polygon fill="white" stroke="black" points="226,-207 226,-231 378,-231 378,-207 226,-207"/>
<text text-anchor="middle" x="302" y="-214.4" font-family="Helvetica,sans-Serif" font-size="14.00">mfem::IntegrationRule</text>
</a>
</g>
<!-- Node5&#45;&gt;Node3 -->
<g id="edge8" class="edge"><title>Node5&#45;&gt;Node3</title>
<path fill="none" stroke="#9a32cd" stroke-dasharray="5,2" d="M271.362,-202.051C244.703,-187.304 206.716,-166.289 182.979,-153.159"/>
<polygon fill="#9a32cd" stroke="#9a32cd" points="269.833,-205.205 280.278,-206.983 273.222,-199.08 269.833,-205.205"/>
<text text-anchor="middle" x="268.5" y="-175.4" font-family="Helvetica,sans-Serif" font-size="14.00"> IntRule</text>
</g>
<!-- Node6 -->
<g id="node10" class="node"><title>Node6</title>
<a xlink:href="classmfem_1_1Array.html" target="_top" xlink:title="mfem::Array\&lt; Integration\lPoint \&gt;">
<polygon fill="white" stroke="black" points="217.5,-271 217.5,-311 386.5,-311 386.5,-271 217.5,-271"/>
<text text-anchor="start" x="225.5" y="-294.4" font-family="Helvetica,sans-Serif" font-size="14.00">mfem::Array&lt; Integration</text>
<text text-anchor="middle" x="302" y="-278.4" font-family="Helvetica,sans-Serif" font-size="14.00">Point &gt;</text>
</a>
</g>
<!-- Node6&#45;&gt;Node5 -->
<g id="edge10" class="edge"><title>Node6&#45;&gt;Node5</title>
<path fill="none" stroke="midnightblue" d="M302,-260.835C302,-250.364 302,-239.216 302,-231.064"/>
<polygon fill="midnightblue" stroke="midnightblue" points="298.5,-260.944 302,-270.944 305.5,-260.944 298.5,-260.944"/>
</g>
<!-- Node7 -->
<g id="node12" class="node"><title>Node7</title>
<a xlink:href="classmfem_1_1BaseArray.html" target="_top" xlink:title="Base class for array container. ">
<polygon fill="white" stroke="black" points="240.5,-351 240.5,-375 363.5,-375 363.5,-351 240.5,-351"/>
<text text-anchor="middle" x="302" y="-358.4" font-family="Helvetica,sans-Serif" font-size="14.00">mfem::BaseArray</text>
</a>
</g>
<!-- Node7&#45;&gt;Node6 -->
<g id="edge12" class="edge"><title>Node7&#45;&gt;Node6</title>
<path fill="none" stroke="midnightblue" d="M302,-340.601C302,-331.195 302,-320.338 302,-311.183"/>
<polygon fill="midnightblue" stroke="midnightblue" points="298.5,-340.786 302,-350.786 305.5,-340.786 298.5,-340.786"/>
</g>
</g>
</svg>
