<?xml version="1.0" encoding="UTF-8" standalone="no"?>
<!DOCTYPE svg PUBLIC "-//W3C//DTD SVG 1.1//EN"
 "http://www.w3.org/Graphics/SVG/1.1/DTD/svg11.dtd">
<!-- Generated by graphviz version 2.30.1 (20140821.0912)
 -->
<!-- Title: mfem::MixedWeakDivCrossIntegrator Pages: 1 -->
<svg width="252pt" height="434pt"
 viewBox="0.00 0.00 252.00 434.00" xmlns="http://www.w3.org/2000/svg" xmlns:xlink="http://www.w3.org/1999/xlink">
<g id="graph0" class="graph" transform="scale(1 1) rotate(0) translate(4 430)">
<title>mfem::MixedWeakDivCrossIntegrator</title>
<polygon fill="white" stroke="white" points="-4,5 -4,-430 249,-430 249,5 -4,5"/>
<!-- Node1 -->
<g id="node1" class="node"><title>Node1</title>
<polygon fill="#bfbfbf" stroke="black" points="0,-0.5 0,-23.5 244,-23.5 244,-0.5 0,-0.5"/>
<text text-anchor="middle" x="122" y="-8.3" font-family="Helvetica,sans-Serif" font-size="14.00">mfem::MixedWeakDivCrossIntegrator</text>
</g>
<!-- Node2 -->
<g id="node2" class="node"><title>Node2</title>
<g id="a_node2"><a xlink:href="classmfem_1_1MixedVectorIntegrator.html" target="_top" xlink:title="mfem::MixedVectorIntegrator">
<polygon fill="white" stroke="black" points="25.5,-62.5 25.5,-85.5 218.5,-85.5 218.5,-62.5 25.5,-62.5"/>
<text text-anchor="middle" x="122" y="-70.3" font-family="Helvetica,sans-Serif" font-size="14.00">mfem::MixedVectorIntegrator</text>
</a>
</g>
</g>
<!-- Node2&#45;&gt;Node1 -->
<g id="edge1" class="edge"><title>Node2&#45;&gt;Node1</title>
<path fill="none" stroke="midnightblue" d="M122,-52.2312C122,-42.5922 122,-31.5444 122,-23.6339"/>
<polygon fill="midnightblue" stroke="midnightblue" points="118.5,-52.2732 122,-62.2732 125.5,-52.2732 118.5,-52.2732"/>
</g>
<!-- Node3 -->
<g id="node3" class="node"><title>Node3</title>
<g id="a_node3"><a xlink:href="classmfem_1_1BilinearFormIntegrator.html" target="_top" xlink:title="Abstract base class BilinearFormIntegrator. ">
<polygon fill="white" stroke="black" points="25,-124.5 25,-147.5 219,-147.5 219,-124.5 25,-124.5"/>
<text text-anchor="middle" x="122" y="-132.3" font-family="Helvetica,sans-Serif" font-size="14.00">mfem::BilinearFormIntegrator</text>
</a>
</g>
</g>
<!-- Node3&#45;&gt;Node2 -->
<g id="edge2" class="edge"><title>Node3&#45;&gt;Node2</title>
<path fill="none" stroke="midnightblue" d="M122,-114.231C122,-104.592 122,-93.5444 122,-85.6339"/>
<polygon fill="midnightblue" stroke="midnightblue" points="118.5,-114.273 122,-124.273 125.5,-114.273 118.5,-114.273"/>
</g>
<!-- Node4 -->
<g id="node4" class="node"><title>Node4</title>
<g id="a_node4"><a xlink:href="classmfem_1_1NonlinearFormIntegrator.html" target="_top" xlink:title="mfem::NonlinearFormIntegrator">
<polygon fill="white" stroke="black" points="18.5,-186.5 18.5,-209.5 225.5,-209.5 225.5,-186.5 18.5,-186.5"/>
<text text-anchor="middle" x="122" y="-194.3" font-family="Helvetica,sans-Serif" font-size="14.00">mfem::NonlinearFormIntegrator</text>
</a>
</g>
</g>
<!-- Node4&#45;&gt;Node3 -->
<g id="edge3" class="edge"><title>Node4&#45;&gt;Node3</title>
<path fill="none" stroke="midnightblue" d="M122,-176.231C122,-166.592 122,-155.544 122,-147.634"/>
<polygon fill="midnightblue" stroke="midnightblue" points="118.5,-176.273 122,-186.273 125.5,-176.273 118.5,-176.273"/>
</g>
<!-- Node5 -->
<g id="node5" class="node"><title>Node5</title>
<g id="a_node5"><a xlink:href="classmfem_1_1IntegrationRule.html" target="_top" xlink:title="Class for an integration rule &#45; an Array of IntegrationPoint. ">
<polygon fill="white" stroke="black" points="46.5,-262.5 46.5,-285.5 197.5,-285.5 197.5,-262.5 46.5,-262.5"/>
<text text-anchor="middle" x="122" y="-270.3" font-family="Helvetica,sans-Serif" font-size="14.00">mfem::IntegrationRule</text>
</a>
</g>
</g>
<!-- Node5&#45;&gt;Node4 -->
<g id="edge4" class="edge"><title>Node5&#45;&gt;Node4</title>
<path fill="none" stroke="#9a32cd" stroke-dasharray="5,2" d="M122,-252.277C122,-238.387 122,-220.675 122,-209.583"/>
<polygon fill="#9a32cd" stroke="#9a32cd" points="118.5,-252.398 122,-262.398 125.5,-252.398 118.5,-252.398"/>
<text text-anchor="middle" x="145.5" y="-232.3" font-family="Helvetica,sans-Serif" font-size="14.00"> IntRule</text>
</g>
<!-- Node6 -->
<g id="node6" class="node"><title>Node6</title>
<g id="a_node6"><a xlink:href="classmfem_1_1Array.html" target="_top" xlink:title="mfem::Array\&lt; Integration\lPoint \&gt;">
<polygon fill="white" stroke="black" points="38.5,-325 38.5,-363 205.5,-363 205.5,-325 38.5,-325"/>
<text text-anchor="start" x="46.5" y="-347.8" font-family="Helvetica,sans-Serif" font-size="14.00">mfem::Array&lt; Integration</text>
<text text-anchor="middle" x="122" y="-332.8" font-family="Helvetica,sans-Serif" font-size="14.00">Point &gt;</text>
</a>
</g>
</g>
<!-- Node6&#45;&gt;Node5 -->
<g id="edge5" class="edge"><title>Node6&#45;&gt;Node5</title>
<path fill="none" stroke="midnightblue" d="M122,-314.599C122,-304.442 122,-293.6 122,-285.834"/>
<polygon fill="midnightblue" stroke="midnightblue" points="118.5,-314.777 122,-324.777 125.5,-314.777 118.5,-314.777"/>
</g>
<!-- Node7 -->
<g id="node7" class="node"><title>Node7</title>
<g id="a_node7"><a xlink:href="classmfem_1_1BaseArray.html" target="_top" xlink:title="Base class for array container. ">
<polygon fill="white" stroke="black" points="61,-402.5 61,-425.5 183,-425.5 183,-402.5 61,-402.5"/>
<text text-anchor="middle" x="122" y="-410.3" font-family="Helvetica,sans-Serif" font-size="14.00">mfem::BaseArray</text>
</a>
</g>
</g>
<!-- Node7&#45;&gt;Node6 -->
<g id="edge6" class="edge"><title>Node7&#45;&gt;Node6</title>
<path fill="none" stroke="midnightblue" d="M122,-392.098C122,-382.869 122,-372.12 122,-363.223"/>
<polygon fill="midnightblue" stroke="midnightblue" points="118.5,-392.375 122,-402.375 125.5,-392.375 118.5,-392.375"/>
</g>
</g>
</svg>
