<?xml version="1.0" encoding="UTF-8" standalone="no"?>
<!DOCTYPE svg PUBLIC "-//W3C//DTD SVG 1.1//EN"
 "http://www.w3.org/Graphics/SVG/1.1/DTD/svg11.dtd">
<!-- Generated by graphviz version 2.30.1 (20170916.1124)
 -->
<!-- Title: mfem::TMOP_Metric_skew2D Pages: 1 -->
<!--zoomable 462 -->
<svg id="main" version="1.1" xmlns="http://www.w3.org/2000/svg" xmlns:xlink="http://www.w3.org/1999/xlink" xml:space="preserve" onload="init(evt)">
<style type="text/css"><![CDATA[
.edge:hover path { stroke: red; }
.edge:hover polygon { stroke: red; fill: red; }
]]></style>
<script type="text/javascript"><![CDATA[
var edges = document.getElementsByTagName('g');
if (edges && edges.length) {
  for (var i=0;i<edges.length;i++) {
    if (edges[i].id.substr(0,4)=='edge') {
      edges[i].setAttribute('class','edge');
    }
  }
}
]]></script>
        <defs>
                <circle id="rim" cx="0" cy="0" r="7"/>
                <circle id="rim2" cx="0" cy="0" r="3.5"/>
                <g id="zoomPlus">
                        <use xlink:href="#rim" fill="#404040">
                                <set attributeName="fill" to="#808080" begin="zoomplus.mouseover" end="zoomplus.mouseout"/>
                        </use>
                        <path d="M-4,0h8M0,-4v8" fill="none" stroke="white" stroke-width="1.5" pointer-events="none"/>
                </g>
                <g id="zoomMin">
                        <use xlink:href="#rim" fill="#404040">
                                <set attributeName="fill" to="#808080" begin="zoomminus.mouseover" end="zoomminus.mouseout"/>
                        </use>
                        <path d="M-4,0h8" fill="none" stroke="white" stroke-width="1.5" pointer-events="none"/>
                </g>
                <g id="dirArrow">
                        <path fill="none" stroke="white" stroke-width="1.5" d="M0,-3.0v7 M-2.5,-0.5L0,-3.0L2.5,-0.5"/>
                </g>
               <g id="resetDef">
                       <use xlink:href="#rim2" fill="#404040">
                               <set attributeName="fill" to="#808080" begin="reset.mouseover" end="reset.mouseout"/>
                       </use>
               </g>
        </defs>

<script type="text/javascript">
var viewWidth = 316;
var viewHeight = 462;
var sectionId = 'dynsection-1';
</script>
<script xlink:href="svgpan.js"/>
<svg id="graph" class="graph">
<g id="viewport">
<title>mfem::TMOP_Metric_skew2D</title>
<polygon fill="white" stroke="white" points="-4,5 -4,-458 313,-458 313,5 -4,5"/>
<!-- Node1 -->
<g id="node1" class="node"><title>Node1</title>
<polygon fill="#bfbfbf" stroke="black" points="104,-0.5 104,-23.5 304,-23.5 304,-0.5 104,-0.5"/>
<text text-anchor="middle" x="204" y="-8.3" font-family="Helvetica,sans-Serif" font-size="14.00">mfem::TMOP_Metric_skew2D</text>
</g>
<!-- Node2 -->
<g id="node2" class="node"><title>Node2</title>
<g id="a_node2"><a xlink:href="classmfem_1_1TMOP__QualityMetric.html" target="_top" xlink:title="Abstract class for local mesh quality metrics in the target&#45;matrix optimization paradigm (TMOP) by P...">
<polygon fill="white" stroke="black" points="110,-62.5 110,-85.5 298,-85.5 298,-62.5 110,-62.5"/>
<text text-anchor="middle" x="204" y="-70.3" font-family="Helvetica,sans-Serif" font-size="14.00">mfem::TMOP_QualityMetric</text>
</a>
</g>
</g>
<!-- Node2&#45;&gt;Node1 -->
<g id="edge1" class="edge"><title>Node2&#45;&gt;Node1</title>
<path fill="none" stroke="midnightblue" d="M204,-52.2312C204,-42.5922 204,-31.5444 204,-23.6339"/>
<polygon fill="midnightblue" stroke="midnightblue" points="200.5,-52.2732 204,-62.2732 207.5,-52.2732 200.5,-52.2732"/>
</g>
<!-- Node3 -->
<g id="node3" class="node"><title>Node3</title>
<g id="a_node3"><a xlink:href="classmfem_1_1HyperelasticModel.html" target="_top" xlink:title="Abstract class for hyperelastic models. ">
<polygon fill="white" stroke="black" points="36.5,-124.5 36.5,-147.5 207.5,-147.5 207.5,-124.5 36.5,-124.5"/>
<text text-anchor="middle" x="122" y="-132.3" font-family="Helvetica,sans-Serif" font-size="14.00">mfem::HyperelasticModel</text>
</a>
</g>
</g>
<!-- Node3&#45;&gt;Node2 -->
<g id="edge2" class="edge"><title>Node3&#45;&gt;Node2</title>
<path fill="none" stroke="midnightblue" d="M144.989,-118.178C159.252,-107.742 177.145,-94.6502 189.467,-85.6339"/>
<polygon fill="midnightblue" stroke="midnightblue" points="142.663,-115.543 136.66,-124.273 146.797,-121.193 142.663,-115.543"/>
</g>
<!-- Node4 -->
<g id="node4" class="node"><title>Node4</title>
<g id="a_node4"><a xlink:href="classmfem_1_1ElementTransformation.html" target="_top" xlink:title="mfem::ElementTransformation">
<polygon fill="white" stroke="black" points="10.5,-200.5 10.5,-223.5 211.5,-223.5 211.5,-200.5 10.5,-200.5"/>
<text text-anchor="middle" x="111" y="-208.3" font-family="Helvetica,sans-Serif" font-size="14.00">mfem::ElementTransformation</text>
</a>
</g>
</g>
<!-- Node4&#45;&gt;Node3 -->
<g id="edge3" class="edge"><title>Node4&#45;&gt;Node3</title>
<path fill="none" stroke="#9a32cd" stroke-dasharray="5,2" d="M114.08,-190.277C116.145,-176.387 118.778,-158.675 120.427,-147.583"/>
<polygon fill="#9a32cd" stroke="#9a32cd" points="110.584,-189.992 112.576,-200.398 117.508,-191.021 110.584,-189.992"/>
<text text-anchor="middle" x="128.5" y="-170.3" font-family="Helvetica,sans-Serif" font-size="14.00"> Ttr</text>
</g>
<!-- Node5 -->
<g id="node5" class="node"><title>Node5</title>
<g id="a_node5"><a xlink:href="classmfem_1_1IntegrationPoint.html" target="_top" xlink:title="Class for integration point with weight. ">
<polygon fill="white" stroke="black" points="0,-306.5 0,-329.5 154,-329.5 154,-306.5 0,-306.5"/>
<text text-anchor="middle" x="77" y="-314.3" font-family="Helvetica,sans-Serif" font-size="14.00">mfem::IntegrationPoint</text>
</a>
</g>
</g>
<!-- Node5&#45;&gt;Node4 -->
<g id="edge4" class="edge"><title>Node5&#45;&gt;Node4</title>
<path fill="none" stroke="#9a32cd" stroke-dasharray="5,2" d="M82.9273,-296.392C87.3749,-281.259 93.7488,-260.247 100,-242 102.094,-235.887 104.642,-229.133 106.758,-223.682"/>
<polygon fill="#9a32cd" stroke="#9a32cd" points="79.4927,-295.669 80.0585,-306.248 86.2138,-297.625 79.4927,-295.669"/>
<text text-anchor="middle" x="125" y="-261.3" font-family="Helvetica,sans-Serif" font-size="14.00"> IntPoint</text>
</g>
<!-- Node6 -->
<g id="node6" class="node"><title>Node6</title>
<g id="a_node6"><a xlink:href="classmfem_1_1DenseMatrix.html" target="_top" xlink:title="Data type dense matrix using column&#45;major storage. ">
<polygon fill="white" stroke="black" points="172,-306.5 172,-329.5 308,-329.5 308,-306.5 172,-306.5"/>
<text text-anchor="middle" x="240" y="-314.3" font-family="Helvetica,sans-Serif" font-size="14.00">mfem::DenseMatrix</text>
</a>
</g>
</g>
<!-- Node6&#45;&gt;Node4 -->
<g id="edge5" class="edge"><title>Node6&#45;&gt;Node4</title>
<path fill="none" stroke="#9a32cd" stroke-dasharray="5,2" d="M212.801,-300.866C206.759,-296.904 200.516,-292.501 195,-288 172.841,-269.918 171.542,-260.813 150,-242 142.628,-235.562 133.929,-229.004 126.62,-223.757"/>
<polygon fill="#9a32cd" stroke="#9a32cd" points="211.08,-303.919 221.401,-306.314 214.826,-298.006 211.08,-303.919"/>
<text text-anchor="middle" x="210.5" y="-276.3" font-family="Helvetica,sans-Serif" font-size="14.00"> adjJ</text>
<text text-anchor="middle" x="210.5" y="-261.3" font-family="Helvetica,sans-Serif" font-size="14.00">dFdx</text>
<text text-anchor="middle" x="210.5" y="-246.3" font-family="Helvetica,sans-Serif" font-size="14.00">invJ</text>
</g>
<!-- Node6&#45;&gt;Node2 -->
<g id="edge8" class="edge"><title>Node6&#45;&gt;Node2</title>
<path fill="none" stroke="#9a32cd" stroke-dasharray="5,2" d="M238.235,-296.42C235.02,-261.004 227.467,-186.327 216,-124 213.559,-110.735 209.713,-95.6973 207.035,-85.8202"/>
<polygon fill="#9a32cd" stroke="#9a32cd" points="234.757,-296.822 239.125,-306.474 241.729,-296.204 234.757,-296.822"/>
<text text-anchor="middle" x="234.5" y="-170.3" font-family="Helvetica,sans-Serif" font-size="14.00"> Jtr</text>
</g>
<!-- Node7 -->
<g id="node7" class="node"><title>Node7</title>
<g id="a_node7"><a xlink:href="classmfem_1_1Matrix.html" target="_top" xlink:title="Abstract data type matrix. ">
<polygon fill="white" stroke="black" points="191.5,-368.5 191.5,-391.5 288.5,-391.5 288.5,-368.5 191.5,-368.5"/>
<text text-anchor="middle" x="240" y="-376.3" font-family="Helvetica,sans-Serif" font-size="14.00">mfem::Matrix</text>
</a>
</g>
</g>
<!-- Node7&#45;&gt;Node6 -->
<g id="edge6" class="edge"><title>Node7&#45;&gt;Node6</title>
<path fill="none" stroke="midnightblue" d="M240,-358.231C240,-348.592 240,-337.544 240,-329.634"/>
<polygon fill="midnightblue" stroke="midnightblue" points="236.5,-358.273 240,-368.273 243.5,-358.273 236.5,-358.273"/>
</g>
<!-- Node8 -->
<g id="node8" class="node"><title>Node8</title>
<g id="a_node8"><a xlink:href="classmfem_1_1Operator.html" target="_top" xlink:title="Abstract operator. ">
<polygon fill="white" stroke="black" points="183.5,-430.5 183.5,-453.5 296.5,-453.5 296.5,-430.5 183.5,-430.5"/>
<text text-anchor="middle" x="240" y="-438.3" font-family="Helvetica,sans-Serif" font-size="14.00">mfem::Operator</text>
</a>
</g>
</g>
<!-- Node8&#45;&gt;Node7 -->
<g id="edge7" class="edge"><title>Node8&#45;&gt;Node7</title>
<path fill="none" stroke="midnightblue" d="M240,-420.231C240,-410.592 240,-399.544 240,-391.634"/>
<polygon fill="midnightblue" stroke="midnightblue" points="236.5,-420.273 240,-430.273 243.5,-420.273 236.5,-420.273"/>
</g>
</g>
</svg>
        <g id="navigator" transform="translate(0 0)" fill="#404254">
                <rect fill="#f2f5e9" fill-opacity="0.5" stroke="#606060" stroke-width=".5" x="0" y="0" width="60" height="60"/>
                <use id="zoomplus" xlink:href="#zoomPlus" x="17" y="9" onmousedown="handleZoom(evt,'in')"/>
                <use id="zoomminus" xlink:href="#zoomMin" x="42" y="9" onmousedown="handleZoom(evt,'out')"/>
                <use id="reset" xlink:href="#resetDef" x="30" y="36" onmousedown="handleReset()"/>
                <g id="arrowUp" xlink:href="#dirArrow" transform="translate(30 24)" onmousedown="handlePan(0,-1)">
                  <use xlink:href="#rim" fill="#404040">
                        <set attributeName="fill" to="#808080" begin="arrowUp.mouseover" end="arrowUp.mouseout"/>
                  </use>
                  <path fill="none" stroke="white" stroke-width="1.5" d="M0,-3.0v7 M-2.5,-0.5L0,-3.0L2.5,-0.5"/>
                </g>
                <g id="arrowRight" xlink:href="#dirArrow" transform="rotate(90) translate(36 -43)" onmousedown="handlePan(1,0)">
                  <use xlink:href="#rim" fill="#404040">
                        <set attributeName="fill" to="#808080" begin="arrowRight.mouseover" end="arrowRight.mouseout"/>
                  </use>
                  <path fill="none" stroke="white" stroke-width="1.5" d="M0,-3.0v7 M-2.5,-0.5L0,-3.0L2.5,-0.5"/>
                </g>
                <g id="arrowDown" xlink:href="#dirArrow" transform="rotate(180) translate(-30 -48)" onmousedown="handlePan(0,1)">
                  <use xlink:href="#rim" fill="#404040">
                        <set attributeName="fill" to="#808080" begin="arrowDown.mouseover" end="arrowDown.mouseout"/>
                  </use>
                  <path fill="none" stroke="white" stroke-width="1.5" d="M0,-3.0v7 M-2.5,-0.5L0,-3.0L2.5,-0.5"/>
                </g>
                <g id="arrowLeft" xlink:href="#dirArrow" transform="rotate(270) translate(-36 17)" onmousedown="handlePan(-1,0)">
                  <use xlink:href="#rim" fill="#404040">
                        <set attributeName="fill" to="#808080" begin="arrowLeft.mouseover" end="arrowLeft.mouseout"/>
                  </use>
                  <path fill="none" stroke="white" stroke-width="1.5" d="M0,-3.0v7 M-2.5,-0.5L0,-3.0L2.5,-0.5"/>
                </g>
        </g>
        <svg viewBox="0 0 15 15" width="100%" height="30px" preserveAspectRatio="xMaxYMin meet">
         <g id="arrow_out" transform="scale(0.3 0.3)">
          <a xlink:href="classmfem_1_1TMOP__Metric__skew2D__coll__graph_org.svg" target="_base">
           <rect id="button" ry="5" rx="5" y="6" x="6" height="38" width="38"
                fill="#f2f5e9" fill-opacity="0.5" stroke="#606060" stroke-width="1.0"/>
           <path id="arrow"
             d="M 11.500037,31.436501 C 11.940474,20.09759 22.043105,11.32322 32.158766,21.979434 L 37.068811,17.246167 C 37.068811,17.246167 37.088388,32 37.088388,32 L 22.160133,31.978069 C 22.160133,31.978069 26.997745,27.140456 26.997745,27.140456 C 18.528582,18.264221 13.291696,25.230495 11.500037,31.436501 z"
             style="fill:#404040;"/>
          </a>
         </g>
        </svg>
</svg>
