<?xml version="1.0" encoding="UTF-8" standalone="no"?>
<!DOCTYPE svg PUBLIC "-//W3C//DTD SVG 1.1//EN"
 "http://www.w3.org/Graphics/SVG/1.1/DTD/svg11.dtd">
<!-- Generated by graphviz version 2.40.1 (20161225.0304)
 -->
<!-- Title: mfem::BlockLowerTriangularPreconditioner Pages: 1 -->
<svg width="202pt" height="163pt"
 viewBox="0.00 0.00 201.66 163.00" xmlns="http://www.w3.org/2000/svg" xmlns:xlink="http://www.w3.org/1999/xlink">
<g id="graph0" class="graph" transform="scale(1 1) rotate(0) translate(4 159)">
<title>mfem::BlockLowerTriangularPreconditioner</title>
<polygon fill="#ffffff" stroke="transparent" points="-4,4 -4,-159 197.6592,-159 197.6592,4 -4,4"/>
<!-- Node0 -->
<g id="node1" class="node">
<title>Node0</title>
<polygon fill="#bfbfbf" stroke="#000000" points="0,-.5 0,-36.5 193.6592,-36.5 193.6592,-.5 0,-.5"/>
<text text-anchor="start" x="8" y="-21.3" font-family="Helvetica,sans-Serif" font-size="14.00" fill="#000000">mfem::BlockLowerTriangular</text>
<text text-anchor="middle" x="96.8296" y="-7.3" font-family="Helvetica,sans-Serif" font-size="14.00" fill="#000000">Preconditioner</text>
</g>
<!-- Node1 -->
<g id="node2" class="node">
<title>Node1</title>
<g id="a_node2"><a xlink:href="classmfem_1_1Solver.html" target="_top" xlink:title="Base class for solvers. ">
<polygon fill="#ffffff" stroke="#000000" points="47.5986,-73.5 47.5986,-95.5 146.0605,-95.5 146.0605,-73.5 47.5986,-73.5"/>
<text text-anchor="middle" x="96.8296" y="-80.3" font-family="Helvetica,sans-Serif" font-size="14.00" fill="#000000">mfem::Solver</text>
</a>
</g>
</g>
<!-- Node1&#45;&gt;Node0 -->
<g id="edge1" class="edge">
<title>Node1&#45;&gt;Node0</title>
<path fill="none" stroke="#191970" d="M96.8296,-63.0379C96.8296,-54.5464 96.8296,-44.8888 96.8296,-36.7423"/>
<polygon fill="#191970" stroke="#191970" points="93.3297,-63.304 96.8296,-73.304 100.3297,-63.304 93.3297,-63.304"/>
</g>
<!-- Node2 -->
<g id="node3" class="node">
<title>Node2</title>
<g id="a_node3"><a xlink:href="classmfem_1_1Operator.html" target="_top" xlink:title="Abstract operator. ">
<polygon fill="#ffffff" stroke="#000000" points="39.8159,-132.5 39.8159,-154.5 153.8433,-154.5 153.8433,-132.5 39.8159,-132.5"/>
<text text-anchor="middle" x="96.8296" y="-139.3" font-family="Helvetica,sans-Serif" font-size="14.00" fill="#000000">mfem::Operator</text>
</a>
</g>
</g>
<!-- Node2&#45;&gt;Node1 -->
<g id="edge2" class="edge">
<title>Node2&#45;&gt;Node1</title>
<path fill="none" stroke="#191970" d="M96.8296,-122.198C96.8296,-113.1726 96.8296,-103.0351 96.8296,-95.5477"/>
<polygon fill="#191970" stroke="#191970" points="93.3297,-122.4025 96.8296,-132.4026 100.3297,-122.4026 93.3297,-122.4025"/>
</g>
</g>
</svg>
