<?xml version="1.0" encoding="UTF-8" standalone="no"?>
<!DOCTYPE svg PUBLIC "-//W3C//DTD SVG 1.1//EN"
 "http://www.w3.org/Graphics/SVG/1.1/DTD/svg11.dtd">
<!-- Generated by graphviz version 2.30.1 (20170916.1124)
 -->
<!-- Title: mfem::PetscBDDCSolverParams Pages: 1 -->
<!--zoomable 562 -->
<svg id="main" version="1.1" xmlns="http://www.w3.org/2000/svg" xmlns:xlink="http://www.w3.org/1999/xlink" xml:space="preserve" onload="init(evt)">
<style type="text/css"><![CDATA[
.edge:hover path { stroke: red; }
.edge:hover polygon { stroke: red; fill: red; }
]]></style>
<script type="text/javascript"><![CDATA[
var edges = document.getElementsByTagName('g');
if (edges && edges.length) {
  for (var i=0;i<edges.length;i++) {
    if (edges[i].id.substr(0,4)=='edge') {
      edges[i].setAttribute('class','edge');
    }
  }
}
]]></script>
        <defs>
                <circle id="rim" cx="0" cy="0" r="7"/>
                <circle id="rim2" cx="0" cy="0" r="3.5"/>
                <g id="zoomPlus">
                        <use xlink:href="#rim" fill="#404040">
                                <set attributeName="fill" to="#808080" begin="zoomplus.mouseover" end="zoomplus.mouseout"/>
                        </use>
                        <path d="M-4,0h8M0,-4v8" fill="none" stroke="white" stroke-width="1.5" pointer-events="none"/>
                </g>
                <g id="zoomMin">
                        <use xlink:href="#rim" fill="#404040">
                                <set attributeName="fill" to="#808080" begin="zoomminus.mouseover" end="zoomminus.mouseout"/>
                        </use>
                        <path d="M-4,0h8" fill="none" stroke="white" stroke-width="1.5" pointer-events="none"/>
                </g>
                <g id="dirArrow">
                        <path fill="none" stroke="white" stroke-width="1.5" d="M0,-3.0v7 M-2.5,-0.5L0,-3.0L2.5,-0.5"/>
                </g>
               <g id="resetDef">
                       <use xlink:href="#rim2" fill="#404040">
                               <set attributeName="fill" to="#808080" begin="reset.mouseover" end="reset.mouseout"/>
                       </use>
               </g>
        </defs>

<script type="text/javascript">
var viewWidth = 872;
var viewHeight = 562;
var sectionId = 'dynsection-0';
</script>
<script xlink:href="svgpan.js"/>
<svg id="graph" class="graph">
<g id="viewport">
<title>mfem::PetscBDDCSolverParams</title>
<polygon fill="white" stroke="white" points="-4,5 -4,-558 869.392,-558 869.392,5 -4,5"/>
<!-- Node1 -->
<g id="node1" class="node"><title>Node1</title>
<polygon fill="#bfbfbf" stroke="black" points="508.892,-0.5 508.892,-23.5 753.892,-23.5 753.892,-0.5 508.892,-0.5"/>
<text text-anchor="middle" x="631.392" y="-8.3" font-family="Helvetica,sans-Serif" font-size="14.00">mfem::PetscBDDCSolverParams</text>
</g>
<!-- Node2 -->
<g id="node2" class="node"><title>Node2</title>
<g id="a_node2"><a xlink:href="classmfem_1_1Array.html" target="_top" xlink:title="mfem::Array\&lt; int \&gt;">
<polygon fill="white" stroke="black" points="526.392,-440.5 526.392,-463.5 684.392,-463.5 684.392,-440.5 526.392,-440.5"/>
<text text-anchor="middle" x="605.392" y="-448.3" font-family="Helvetica,sans-Serif" font-size="14.00">mfem::Array&lt; int &gt;</text>
</a>
</g>
</g>
<!-- Node2&#45;&gt;Node1 -->
<g id="edge1" class="edge"><title>Node2&#45;&gt;Node1</title>
<path fill="none" stroke="#9a32cd" stroke-dasharray="5,2" d="M652.306,-437.189C711.14,-416.638 804.392,-371.93 804.392,-295 804.392,-295 804.392,-295 804.392,-87 804.392,-52.0463 774.169,-33.384 738.988,-23.501"/>
<polygon fill="#9a32cd" stroke="#9a32cd" points="651.173,-433.878 642.823,-440.398 653.417,-440.508 651.173,-433.878"/>
<text text-anchor="middle" x="834.392" y="-175.8" font-family="Helvetica,sans-Serif" font-size="14.00"> ess_dof</text>
<text text-anchor="middle" x="834.392" y="-160.8" font-family="Helvetica,sans-Serif" font-size="14.00">nat_dof</text>
</g>
<!-- Node7 -->
<g id="node7" class="node"><title>Node7</title>
<g id="a_node7"><a xlink:href="classmfem_1_1Mesh.html" target="_top" xlink:title="mfem::Mesh">
<polygon fill="white" stroke="red" points="521.392,-282.5 521.392,-305.5 627.392,-305.5 627.392,-282.5 521.392,-282.5"/>
<text text-anchor="middle" x="574.392" y="-290.3" font-family="Helvetica,sans-Serif" font-size="14.00">mfem::Mesh</text>
</a>
</g>
</g>
<!-- Node2&#45;&gt;Node7 -->
<g id="edge7" class="edge"><title>Node2&#45;&gt;Node7</title>
<path fill="none" stroke="#9a32cd" stroke-dasharray="5,2" d="M561.084,-435.086C556.051,-431.528 551.59,-427.215 548.392,-422 527.482,-387.901 536.332,-370.139 548.392,-332 551.517,-322.119 558.332,-312.591 564.201,-305.678"/>
<polygon fill="#9a32cd" stroke="#9a32cd" points="559.591,-438.271 569.972,-440.388 563.177,-432.259 559.591,-438.271"/>
<text text-anchor="middle" x="598.892" y="-395.8" font-family="Helvetica,sans-Serif" font-size="14.00"> attributes</text>
<text text-anchor="middle" x="598.892" y="-380.8" font-family="Helvetica,sans-Serif" font-size="14.00">be_to_edge</text>
<text text-anchor="middle" x="598.892" y="-365.8" font-family="Helvetica,sans-Serif" font-size="14.00">be_to_face</text>
<text text-anchor="middle" x="598.892" y="-350.8" font-family="Helvetica,sans-Serif" font-size="14.00">bdr_attributes</text>
</g>
<!-- Node5 -->
<g id="node5" class="node"><title>Node5</title>
<g id="a_node5"><a xlink:href="classmfem_1_1FiniteElementSpace.html" target="_top" xlink:title="Class FiniteElementSpace &#45; responsible for providing FEM view of the mesh, mainly managing the set of...">
<polygon fill="white" stroke="red" points="292.892,-160.5 292.892,-183.5 501.892,-183.5 501.892,-160.5 292.892,-160.5"/>
<text text-anchor="middle" x="397.392" y="-168.3" font-family="Helvetica,sans-Serif" font-size="14.00">mfem::FiniteElementSpace</text>
</a>
</g>
</g>
<!-- Node2&#45;&gt;Node5 -->
<g id="edge13" class="edge"><title>Node2&#45;&gt;Node5</title>
<path fill="none" stroke="#9a32cd" stroke-dasharray="5,2" d="M639.018,-434.265C643.179,-430.785 646.854,-426.712 649.392,-422 680.703,-363.864 664.628,-333.69 636.392,-274 620.957,-241.371 617.156,-228.881 586.392,-210 561.315,-194.609 531.146,-185.428 502.348,-180.005"/>
<polygon fill="#9a32cd" stroke="#9a32cd" points="636.725,-431.6 630.59,-440.238 640.773,-437.311 636.725,-431.6"/>
<text text-anchor="middle" x="711.892" y="-297.8" font-family="Helvetica,sans-Serif" font-size="14.00"> dof_ldof_array</text>
<text text-anchor="middle" x="711.892" y="-282.8" font-family="Helvetica,sans-Serif" font-size="14.00">dof_elem_array</text>
</g>
<!-- Node3 -->
<g id="node3" class="node"><title>Node3</title>
<g id="a_node3"><a xlink:href="classmfem_1_1Memory.html" target="_top" xlink:title="mfem::Memory\&lt; int \&gt;">
<polygon fill="white" stroke="black" points="239.392,-530.5 239.392,-553.5 417.392,-553.5 417.392,-530.5 239.392,-530.5"/>
<text text-anchor="middle" x="328.392" y="-538.3" font-family="Helvetica,sans-Serif" font-size="14.00">mfem::Memory&lt; int &gt;</text>
</a>
</g>
</g>
<!-- Node3&#45;&gt;Node2 -->
<g id="edge2" class="edge"><title>Node3&#45;&gt;Node2</title>
<path fill="none" stroke="#9a32cd" stroke-dasharray="5,2" d="M371.398,-527.338C426.832,-509.727 522.039,-479.481 572.217,-463.54"/>
<polygon fill="#9a32cd" stroke="#9a32cd" points="370.001,-524.109 361.53,-530.473 372.12,-530.78 370.001,-524.109"/>
<text text-anchor="middle" x="526.892" y="-493.3" font-family="Helvetica,sans-Serif" font-size="14.00"> data</text>
</g>
<!-- Node8 -->
<g id="node8" class="node"><title>Node8</title>
<g id="a_node8"><a xlink:href="classmfem_1_1Table.html" target="_top" xlink:title="mfem::Table">
<polygon fill="white" stroke="black" points="82.3922,-440.5 82.3922,-463.5 188.392,-463.5 188.392,-440.5 82.3922,-440.5"/>
<text text-anchor="middle" x="135.392" y="-448.3" font-family="Helvetica,sans-Serif" font-size="14.00">mfem::Table</text>
</a>
</g>
</g>
<!-- Node3&#45;&gt;Node8 -->
<g id="edge9" class="edge"><title>Node3&#45;&gt;Node8</title>
<path fill="none" stroke="#9a32cd" stroke-dasharray="5,2" d="M295.783,-526.132C256.819,-508.365 192.617,-479.092 158.455,-463.516"/>
<polygon fill="#9a32cd" stroke="#9a32cd" points="294.561,-529.421 305.112,-530.385 297.465,-523.052 294.561,-529.421"/>
<text text-anchor="middle" x="266.392" y="-500.8" font-family="Helvetica,sans-Serif" font-size="14.00"> I</text>
<text text-anchor="middle" x="266.392" y="-485.8" font-family="Helvetica,sans-Serif" font-size="14.00">J</text>
</g>
<!-- Node9 -->
<g id="node9" class="node"><title>Node9</title>
<g id="a_node9"><a xlink:href="classmfem_1_1SparseMatrix.html" target="_top" xlink:title="Data type sparse matrix. ">
<polygon fill="white" stroke="red" points="247.392,-365.5 247.392,-388.5 409.392,-388.5 409.392,-365.5 247.392,-365.5"/>
<text text-anchor="middle" x="328.392" y="-373.3" font-family="Helvetica,sans-Serif" font-size="14.00">mfem::SparseMatrix</text>
</a>
</g>
</g>
<!-- Node3&#45;&gt;Node9 -->
<g id="edge12" class="edge"><title>Node3&#45;&gt;Node9</title>
<path fill="none" stroke="#9a32cd" stroke-dasharray="5,2" d="M328.392,-520.21C328.392,-485.041 328.392,-415.049 328.392,-388.522"/>
<polygon fill="#9a32cd" stroke="#9a32cd" points="324.892,-520.305 328.392,-530.305 331.892,-520.305 324.892,-520.305"/>
<text text-anchor="middle" x="333.392" y="-500.8" font-family="Helvetica,sans-Serif" font-size="14.00"> I</text>
<text text-anchor="middle" x="333.392" y="-485.8" font-family="Helvetica,sans-Serif" font-size="14.00">J</text>
</g>
<!-- Node4 -->
<g id="node4" class="node"><title>Node4</title>
<g id="a_node4"><a xlink:href="classmfem_1_1ParFiniteElementSpace.html" target="_top" xlink:title="Abstract parallel finite element space. ">
<polygon fill="white" stroke="black" points="173.392,-76.5 173.392,-99.5 405.392,-99.5 405.392,-76.5 173.392,-76.5"/>
<text text-anchor="middle" x="289.392" y="-84.3" font-family="Helvetica,sans-Serif" font-size="14.00">mfem::ParFiniteElementSpace</text>
</a>
</g>
</g>
<!-- Node4&#45;&gt;Node1 -->
<g id="edge3" class="edge"><title>Node4&#45;&gt;Node1</title>
<path fill="none" stroke="#9a32cd" stroke-dasharray="5,2" d="M347.894,-74.3416C414.104,-60.0156 520.762,-36.9375 582.646,-23.5473"/>
<polygon fill="#9a32cd" stroke="#9a32cd" points="347.063,-70.9405 338.029,-76.4762 348.543,-77.7821 347.063,-70.9405"/>
<text text-anchor="middle" x="521.892" y="-46.3" font-family="Helvetica,sans-Serif" font-size="14.00"> fespace</text>
</g>
<!-- Node5&#45;&gt;Node4 -->
<g id="edge4" class="edge"><title>Node5&#45;&gt;Node4</title>
<path fill="none" stroke="midnightblue" d="M393.116,-150.115C389.908,-139.233 384.457,-126.466 375.392,-118 366.526,-109.719 355.212,-103.795 343.727,-99.5608"/>
<polygon fill="midnightblue" stroke="midnightblue" points="389.803,-151.29 395.628,-160.14 396.593,-149.589 389.803,-151.29"/>
</g>
<!-- Node6 -->
<g id="node6" class="node"><title>Node6</title>
<g id="a_node6"><a xlink:href="classmfem_1_1Array.html" target="_top" xlink:title="mfem::Array\&lt; mfem::\lQuadratureInterpolator * \&gt;">
<polygon fill="white" stroke="red" points="291.392,-275 291.392,-313 503.392,-313 503.392,-275 291.392,-275"/>
<text text-anchor="start" x="299.392" y="-297.8" font-family="Helvetica,sans-Serif" font-size="14.00">mfem::Array&lt; mfem::</text>
<text text-anchor="middle" x="397.392" y="-282.8" font-family="Helvetica,sans-Serif" font-size="14.00">QuadratureInterpolator * &gt;</text>
</a>
</g>
</g>
<!-- Node6&#45;&gt;Node5 -->
<g id="edge5" class="edge"><title>Node6&#45;&gt;Node5</title>
<path fill="none" stroke="#9a32cd" stroke-dasharray="5,2" d="M397.392,-264.737C397.392,-238.721 397.392,-201.527 397.392,-183.541"/>
<polygon fill="#9a32cd" stroke="#9a32cd" points="393.892,-264.775 397.392,-274.775 400.892,-264.775 393.892,-264.775"/>
<text text-anchor="middle" x="437.392" y="-229.3" font-family="Helvetica,sans-Serif" font-size="14.00"> E2Q_array</text>
</g>
<!-- Node7&#45;&gt;Node5 -->
<g id="edge6" class="edge"><title>Node7&#45;&gt;Node5</title>
<path fill="none" stroke="#9a32cd" stroke-dasharray="5,2" d="M557.393,-274.789C539.715,-256.623 510.588,-228.787 481.392,-210 464.507,-199.135 443.895,-190.002 427.314,-183.528"/>
<polygon fill="#9a32cd" stroke="#9a32cd" points="555.225,-277.585 564.669,-282.388 560.281,-272.744 555.225,-277.585"/>
<text text-anchor="middle" x="559.892" y="-229.3" font-family="Helvetica,sans-Serif" font-size="14.00"> mesh</text>
</g>
<!-- Node8&#45;&gt;Node7 -->
<g id="edge8" class="edge"><title>Node8&#45;&gt;Node7</title>
<path fill="none" stroke="#9a32cd" stroke-dasharray="5,2" d="M134.57,-430.058C133.866,-399.511 134.645,-344.954 148.392,-332 177.863,-304.229 472.505,-320.986 512.392,-314 523.37,-312.077 535.13,-308.8 545.425,-305.504"/>
<polygon fill="#9a32cd" stroke="#9a32cd" points="131.084,-430.564 134.889,-440.453 138.081,-430.35 131.084,-430.564"/>
<text text-anchor="middle" x="193.392" y="-410.8" font-family="Helvetica,sans-Serif" font-size="14.00"> el_to_face</text>
<text text-anchor="middle" x="193.392" y="-395.8" font-family="Helvetica,sans-Serif" font-size="14.00">el_to_edge</text>
<text text-anchor="middle" x="193.392" y="-380.8" font-family="Helvetica,sans-Serif" font-size="14.00">edge_vertex</text>
<text text-anchor="middle" x="193.392" y="-365.8" font-family="Helvetica,sans-Serif" font-size="14.00">face_edge</text>
<text text-anchor="middle" x="193.392" y="-350.8" font-family="Helvetica,sans-Serif" font-size="14.00">el_to_el</text>
<text text-anchor="middle" x="193.392" y="-335.8" font-family="Helvetica,sans-Serif" font-size="14.00">bel_to_edge</text>
</g>
<!-- Node8&#45;&gt;Node5 -->
<g id="edge14" class="edge"><title>Node8&#45;&gt;Node5</title>
<path fill="none" stroke="#9a32cd" stroke-dasharray="5,2" d="M130.989,-430.31C124.56,-393.983 117.172,-318.386 155.392,-274 200.546,-221.562 277.394,-195.787 332.381,-183.5"/>
<polygon fill="#9a32cd" stroke="#9a32cd" points="127.575,-431.087 132.902,-440.245 134.448,-429.764 127.575,-431.087"/>
<text text-anchor="middle" x="203.392" y="-297.8" font-family="Helvetica,sans-Serif" font-size="14.00"> bdrElem_dof</text>
<text text-anchor="middle" x="203.392" y="-282.8" font-family="Helvetica,sans-Serif" font-size="14.00">elem_dof</text>
</g>
<!-- Node8&#45;&gt;Node4 -->
<g id="edge16" class="edge"><title>Node8&#45;&gt;Node4</title>
<path fill="none" stroke="#9a32cd" stroke-dasharray="5,2" d="M114.267,-433.721C68.4669,-394.073 -32.449,-293.548 11.3922,-210 46.7343,-142.649 130.751,-112.779 197.234,-99.5367"/>
<polygon fill="#9a32cd" stroke="#9a32cd" points="112.242,-436.593 122.13,-440.397 116.773,-431.257 112.242,-436.593"/>
<text text-anchor="middle" x="91.3922" y="-244.3" font-family="Helvetica,sans-Serif" font-size="14.00"> face_nbr_ldof</text>
<text text-anchor="middle" x="91.3922" y="-229.3" font-family="Helvetica,sans-Serif" font-size="14.00">send_face_nbr_ldof</text>
<text text-anchor="middle" x="91.3922" y="-214.3" font-family="Helvetica,sans-Serif" font-size="14.00">face_nbr_element_dof</text>
</g>
<!-- Node9&#45;&gt;Node5 -->
<g id="edge10" class="edge"><title>Node9&#45;&gt;Node5</title>
<path fill="none" stroke="#9a32cd" stroke-dasharray="5,2" d="M301.427,-359.636C286.294,-348.789 268.807,-333.059 260.392,-314 253.212,-297.737 252.376,-289.868 260.392,-274 283.442,-228.371 337.904,-198.287 370.796,-183.577"/>
<polygon fill="#9a32cd" stroke="#9a32cd" points="299.74,-362.721 309.978,-365.446 303.674,-356.931 299.74,-362.721"/>
<text text-anchor="middle" x="271.392" y="-297.8" font-family="Helvetica,sans-Serif" font-size="14.00"> cR</text>
<text text-anchor="middle" x="271.392" y="-282.8" font-family="Helvetica,sans-Serif" font-size="14.00">cP</text>
</g>
<!-- Node9&#45;&gt;Node9 -->
<g id="edge11" class="edge"><title>Node9&#45;&gt;Node9</title>
<path fill="none" stroke="#9a32cd" stroke-dasharray="5,2" d="M373.829,-389.966C401.366,-392.939 427.392,-388.617 427.392,-377 427.392,-363.956 394.581,-360.109 363.661,-365.459"/>
<polygon fill="#9a32cd" stroke="#9a32cd" points="374.05,-386.463 363.661,-388.541 373.078,-393.395 374.05,-386.463"/>
<text text-anchor="middle" x="437.392" y="-373.3" font-family="Helvetica,sans-Serif" font-size="14.00"> At</text>
</g>
<!-- Node10 -->
<g id="node10" class="node"><title>Node10</title>
<g id="a_node10"><a xlink:href="classmfem_1_1Array.html" target="_top" xlink:title="mfem::Array\&lt; HYPRE\l_Int \&gt;">
<polygon fill="white" stroke="red" points="104.392,-153 104.392,-191 274.392,-191 274.392,-153 104.392,-153"/>
<text text-anchor="start" x="112.392" y="-175.8" font-family="Helvetica,sans-Serif" font-size="14.00">mfem::Array&lt; HYPRE</text>
<text text-anchor="middle" x="189.392" y="-160.8" font-family="Helvetica,sans-Serif" font-size="14.00">_Int &gt;</text>
</a>
</g>
</g>
<!-- Node10&#45;&gt;Node4 -->
<g id="edge15" class="edge"><title>Node10&#45;&gt;Node4</title>
<path fill="none" stroke="#9a32cd" stroke-dasharray="5,2" d="M189.247,-142.756C190.534,-133.94 193.427,-124.764 199.392,-118 206.668,-109.751 216.3,-103.834 226.556,-99.5924"/>
<polygon fill="#9a32cd" stroke="#9a32cd" points="185.756,-142.51 188.386,-152.773 192.73,-143.11 185.756,-142.51"/>
<text text-anchor="middle" x="287.392" y="-122.3" font-family="Helvetica,sans-Serif" font-size="14.00"> face_nbr_glob_dof_map</text>
</g>
</g>
</svg>
        <g id="navigator" transform="translate(0 0)" fill="#404254">
                <rect fill="#f2f5e9" fill-opacity="0.5" stroke="#606060" stroke-width=".5" x="0" y="0" width="60" height="60"/>
                <use id="zoomplus" xlink:href="#zoomPlus" x="17" y="9" onmousedown="handleZoom(evt,'in')"/>
                <use id="zoomminus" xlink:href="#zoomMin" x="42" y="9" onmousedown="handleZoom(evt,'out')"/>
                <use id="reset" xlink:href="#resetDef" x="30" y="36" onmousedown="handleReset()"/>
                <g id="arrowUp" xlink:href="#dirArrow" transform="translate(30 24)" onmousedown="handlePan(0,-1)">
                  <use xlink:href="#rim" fill="#404040">
                        <set attributeName="fill" to="#808080" begin="arrowUp.mouseover" end="arrowUp.mouseout"/>
                  </use>
                  <path fill="none" stroke="white" stroke-width="1.5" d="M0,-3.0v7 M-2.5,-0.5L0,-3.0L2.5,-0.5"/>
                </g>
                <g id="arrowRight" xlink:href="#dirArrow" transform="rotate(90) translate(36 -43)" onmousedown="handlePan(1,0)">
                  <use xlink:href="#rim" fill="#404040">
                        <set attributeName="fill" to="#808080" begin="arrowRight.mouseover" end="arrowRight.mouseout"/>
                  </use>
                  <path fill="none" stroke="white" stroke-width="1.5" d="M0,-3.0v7 M-2.5,-0.5L0,-3.0L2.5,-0.5"/>
                </g>
                <g id="arrowDown" xlink:href="#dirArrow" transform="rotate(180) translate(-30 -48)" onmousedown="handlePan(0,1)">
                  <use xlink:href="#rim" fill="#404040">
                        <set attributeName="fill" to="#808080" begin="arrowDown.mouseover" end="arrowDown.mouseout"/>
                  </use>
                  <path fill="none" stroke="white" stroke-width="1.5" d="M0,-3.0v7 M-2.5,-0.5L0,-3.0L2.5,-0.5"/>
                </g>
                <g id="arrowLeft" xlink:href="#dirArrow" transform="rotate(270) translate(-36 17)" onmousedown="handlePan(-1,0)">
                  <use xlink:href="#rim" fill="#404040">
                        <set attributeName="fill" to="#808080" begin="arrowLeft.mouseover" end="arrowLeft.mouseout"/>
                  </use>
                  <path fill="none" stroke="white" stroke-width="1.5" d="M0,-3.0v7 M-2.5,-0.5L0,-3.0L2.5,-0.5"/>
                </g>
        </g>
        <svg viewBox="0 0 15 15" width="100%" height="30px" preserveAspectRatio="xMaxYMin meet">
         <g id="arrow_out" transform="scale(0.3 0.3)">
          <a xlink:href="classmfem_1_1PetscBDDCSolverParams__coll__graph_org.svg" target="_base">
           <rect id="button" ry="5" rx="5" y="6" x="6" height="38" width="38"
                fill="#f2f5e9" fill-opacity="0.5" stroke="#606060" stroke-width="1.0"/>
           <path id="arrow"
             d="M 11.500037,31.436501 C 11.940474,20.09759 22.043105,11.32322 32.158766,21.979434 L 37.068811,17.246167 C 37.068811,17.246167 37.088388,32 37.088388,32 L 22.160133,31.978069 C 22.160133,31.978069 26.997745,27.140456 26.997745,27.140456 C 18.528582,18.264221 13.291696,25.230495 11.500037,31.436501 z"
             style="fill:#404040;"/>
          </a>
         </g>
        </svg>
</svg>
