<?xml version="1.0" encoding="UTF-8" standalone="no"?>
<!DOCTYPE svg PUBLIC "-//W3C//DTD SVG 1.1//EN"
 "http://www.w3.org/Graphics/SVG/1.1/DTD/svg11.dtd">
<!-- Generated by graphviz version 2.30.1 (20140821.0912)
 -->
<!-- Title: mfem::NonlinearForm Pages: 1 -->
<!--zoomable 338 -->
<svg id="main" version="1.1" xmlns="http://www.w3.org/2000/svg" xmlns:xlink="http://www.w3.org/1999/xlink" xml:space="preserve" onload="init(evt)">
<style type="text/css"><![CDATA[
.edge:hover path { stroke: red; }
.edge:hover polygon { stroke: red; fill: red; }
]]></style>
<script type="text/javascript"><![CDATA[
var edges = document.getElementsByTagName('g');
if (edges && edges.length) {
  for (var i=0;i<edges.length;i++) {
    if (edges[i].id.substr(0,4)=='edge') {
      edges[i].setAttribute('class','edge');
    }
  }
}
]]></script>
        <defs>
                <circle id="rim" cx="0" cy="0" r="7"/>
                <circle id="rim2" cx="0" cy="0" r="3.5"/>
                <g id="zoomPlus">
                        <use xlink:href="#rim" fill="#404040">
                                <set attributeName="fill" to="#808080" begin="zoomplus.mouseover" end="zoomplus.mouseout"/>
                        </use>
                        <path d="M-4,0h8M0,-4v8" fill="none" stroke="white" stroke-width="1.5" pointer-events="none"/>
                </g>
                <g id="zoomMin">
                        <use xlink:href="#rim" fill="#404040">
                                <set attributeName="fill" to="#808080" begin="zoomminus.mouseover" end="zoomminus.mouseout"/>
                        </use>
                        <path d="M-4,0h8" fill="none" stroke="white" stroke-width="1.5" pointer-events="none"/>
                </g>
                <g id="dirArrow">
                        <path fill="none" stroke="white" stroke-width="1.5" d="M0,-3.0v7 M-2.5,-0.5L0,-3.0L2.5,-0.5"/>
                </g>
               <g id="resetDef">
                       <use xlink:href="#rim2" fill="#404040">
                               <set attributeName="fill" to="#808080" begin="reset.mouseover" end="reset.mouseout"/>
                       </use>
               </g>
        </defs>

<script type="text/javascript">
var viewWidth = 1212;
var viewHeight = 338;
var sectionId = 'dynsection-1';
</script>
<script xlink:href="svgpan.js"/>
<svg id="graph" class="graph">
<g id="viewport">
<title>mfem::NonlinearForm</title>
<polygon fill="white" stroke="white" points="-4,5 -4,-334.321 1209,-334.321 1209,5 -4,5"/>
<!-- Node1 -->
<g id="node1" class="node"><title>Node1</title>
<polygon fill="#bfbfbf" stroke="black" points="1054.5,-81.8208 1054.5,-104.821 1203.5,-104.821 1203.5,-81.8208 1054.5,-81.8208"/>
<text text-anchor="middle" x="1129" y="-89.6208" font-family="Helvetica,sans-Serif" font-size="14.00">mfem::NonlinearForm</text>
</g>
<!-- Node2 -->
<g id="node2" class="node"><title>Node2</title>
<g id="a_node2"><a xlink:href="classmfem_1_1Operator.html" target="_top" xlink:title="Abstract operator. ">
<polygon fill="white" stroke="black" points="585.5,-88.8208 585.5,-111.821 698.5,-111.821 698.5,-88.8208 585.5,-88.8208"/>
<text text-anchor="middle" x="642" y="-96.6208" font-family="Helvetica,sans-Serif" font-size="14.00">mfem::Operator</text>
</a>
</g>
</g>
<!-- Node2&#45;&gt;Node1 -->
<g id="edge1" class="edge"><title>Node2&#45;&gt;Node1</title>
<path fill="none" stroke="midnightblue" d="M708.734,-99.3721C798.894,-98.0708 960.426,-95.7394 1054.49,-94.3818"/>
<polygon fill="midnightblue" stroke="midnightblue" points="708.584,-95.8738 698.636,-99.5178 708.685,-102.873 708.584,-95.8738"/>
</g>
<!-- Node8 -->
<g id="node8" class="node"><title>Node8</title>
<g id="a_node8"><a xlink:href="classmfem_1_1FiniteElementSpace.html" target="_top" xlink:title="mfem::FiniteElementSpace">
<polygon fill="white" stroke="red" points="814.5,-140.821 814.5,-163.821 995.5,-163.821 995.5,-140.821 814.5,-140.821"/>
<text text-anchor="middle" x="905" y="-148.621" font-family="Helvetica,sans-Serif" font-size="14.00">mfem::FiniteElementSpace</text>
</a>
</g>
</g>
<!-- Node2&#45;&gt;Node8 -->
<g id="edge12" class="edge"><title>Node2&#45;&gt;Node8</title>
<path fill="none" stroke="#9a32cd" stroke-dasharray="5,2" d="M708.674,-108.532C735.829,-112.357 767.555,-117.384 796,-123.321 819.186,-128.16 844.801,-134.973 865.264,-140.78"/>
<polygon fill="#9a32cd" stroke="#9a32cd" points="708.893,-105.029 698.507,-107.125 707.933,-111.963 708.893,-105.029"/>
<text text-anchor="middle" x="763" y="-127.121" font-family="Helvetica,sans-Serif" font-size="14.00"> T</text>
</g>
<!-- Node3 -->
<g id="node3" class="node"><title>Node3</title>
<g id="a_node3"><a xlink:href="classmfem_1_1SparseMatrix.html" target="_top" xlink:title="Data type sparse matrix. ">
<polygon fill="white" stroke="black" points="572,-256.821 572,-279.821 712,-279.821 712,-256.821 572,-256.821"/>
<text text-anchor="middle" x="642" y="-264.621" font-family="Helvetica,sans-Serif" font-size="14.00">mfem::SparseMatrix</text>
</a>
</g>
</g>
<!-- Node3&#45;&gt;Node1 -->
<g id="edge2" class="edge"><title>Node3&#45;&gt;Node1</title>
<path fill="none" stroke="#9a32cd" stroke-dasharray="5,2" d="M722.349,-265.503C746.26,-263.467 772.412,-260.044 796,-254.321 925.485,-222.904 1063.73,-136.254 1111.02,-104.865"/>
<polygon fill="#9a32cd" stroke="#9a32cd" points="721.948,-262.023 712.252,-266.293 722.495,-269.002 721.948,-262.023"/>
<text text-anchor="middle" x="905" y="-252.121" font-family="Helvetica,sans-Serif" font-size="14.00"> Grad</text>
</g>
<!-- Node3&#45;&gt;Node8 -->
<g id="edge10" class="edge"><title>Node3&#45;&gt;Node8</title>
<path fill="none" stroke="#9a32cd" stroke-dasharray="5,2" d="M674.715,-252.22C698.979,-239.912 728.541,-224.941 730,-224.321 758.59,-212.173 767.16,-212.861 796,-201.321 825.439,-189.541 858.542,-174.202 880.247,-163.849"/>
<polygon fill="#9a32cd" stroke="#9a32cd" points="673.078,-249.126 665.744,-256.772 676.246,-255.368 673.078,-249.126"/>
<text text-anchor="middle" x="763" y="-243.121" font-family="Helvetica,sans-Serif" font-size="14.00"> cR</text>
<text text-anchor="middle" x="763" y="-228.121" font-family="Helvetica,sans-Serif" font-size="14.00">cP</text>
</g>
<!-- Node4 -->
<g id="node4" class="node"><title>Node4</title>
<g id="a_node4"><a xlink:href="classmfem_1_1AbstractSparseMatrix.html" target="_top" xlink:title="Abstract data type for sparse matrices. ">
<polygon fill="white" stroke="red" points="160.5,-306.821 160.5,-329.821 349.5,-329.821 349.5,-306.821 160.5,-306.821"/>
<text text-anchor="middle" x="255" y="-314.621" font-family="Helvetica,sans-Serif" font-size="14.00">mfem::AbstractSparseMatrix</text>
</a>
</g>
</g>
<!-- Node4&#45;&gt;Node3 -->
<g id="edge3" class="edge"><title>Node4&#45;&gt;Node3</title>
<path fill="none" stroke="midnightblue" d="M359.814,-310.379C417.257,-305.269 489.807,-297.636 554,-287.321 566.669,-285.285 580.269,-282.572 592.863,-279.835"/>
<polygon fill="midnightblue" stroke="midnightblue" points="359.291,-306.912 349.636,-311.273 359.903,-313.885 359.291,-306.912"/>
</g>
<!-- Node5 -->
<g id="node5" class="node"><title>Node5</title>
<g id="a_node5"><a xlink:href="classmfem_1_1MemAlloc.html" target="_top" xlink:title="mfem::MemAlloc\&lt; Elem,\l Num \&gt;">
<polygon fill="white" stroke="black" points="171.5,-249.321 171.5,-287.321 338.5,-287.321 338.5,-249.321 171.5,-249.321"/>
<text text-anchor="start" x="179.5" y="-272.121" font-family="Helvetica,sans-Serif" font-size="14.00">mfem::MemAlloc&lt; Elem,</text>
<text text-anchor="middle" x="255" y="-257.121" font-family="Helvetica,sans-Serif" font-size="14.00"> Num &gt;</text>
</a>
</g>
</g>
<!-- Node5&#45;&gt;Node3 -->
<g id="edge4" class="edge"><title>Node5&#45;&gt;Node3</title>
<path fill="none" stroke="#9a32cd" stroke-dasharray="5,2" d="M348.969,-268.321C417.594,-268.321 509.499,-268.321 571.742,-268.321"/>
<polygon fill="#9a32cd" stroke="#9a32cd" points="348.592,-264.821 338.592,-268.321 348.592,-271.821 348.592,-264.821"/>
<text text-anchor="middle" x="461" y="-272.121" font-family="Helvetica,sans-Serif" font-size="14.00"> NodesMem</text>
</g>
<!-- Node6 -->
<g id="node6" class="node"><title>Node6</title>
<g id="a_node6"><a xlink:href="classmfem_1_1Array.html" target="_top" xlink:title="mfem::Array\&lt; int \&gt;">
<polygon fill="white" stroke="black" points="190,-94.8208 190,-117.821 320,-117.821 320,-94.8208 190,-94.8208"/>
<text text-anchor="middle" x="255" y="-102.621" font-family="Helvetica,sans-Serif" font-size="14.00">mfem::Array&lt; int &gt;</text>
</a>
</g>
</g>
<!-- Node6&#45;&gt;Node1 -->
<g id="edge5" class="edge"><title>Node6&#45;&gt;Node1</title>
<path fill="none" stroke="#9a32cd" stroke-dasharray="5,2" d="M330.044,-98.1983C394.011,-91.6117 488.974,-82.8613 572,-79.3208 744.683,-71.957 947.712,-81.7357 1054.22,-88.2844"/>
<polygon fill="#9a32cd" stroke="#9a32cd" points="329.636,-94.7218 320.051,-99.2357 330.359,-101.684 329.636,-94.7218"/>
<text text-anchor="middle" x="763" y="-82.1208" font-family="Helvetica,sans-Serif" font-size="14.00"> ess_vdofs</text>
</g>
<!-- Node9 -->
<g id="node9" class="node"><title>Node9</title>
<g id="a_node9"><a xlink:href="classmfem_1_1Mesh.html" target="_top" xlink:title="mfem::Mesh">
<polygon fill="white" stroke="red" points="595.5,-200.821 595.5,-223.821 688.5,-223.821 688.5,-200.821 595.5,-200.821"/>
<text text-anchor="middle" x="642" y="-208.621" font-family="Helvetica,sans-Serif" font-size="14.00">mfem::Mesh</text>
</a>
</g>
</g>
<!-- Node6&#45;&gt;Node9 -->
<g id="edge9" class="edge"><title>Node6&#45;&gt;Node9</title>
<path fill="none" stroke="#9a32cd" stroke-dasharray="5,2" d="M283.484,-123.196C305.568,-136.032 337.779,-153.166 368,-163.321 445.368,-189.319 539.964,-202.371 595.057,-208.223"/>
<polygon fill="#9a32cd" stroke="#9a32cd" points="285.065,-120.064 274.675,-117.99 281.504,-126.091 285.065,-120.064"/>
<text text-anchor="middle" x="461" y="-252.121" font-family="Helvetica,sans-Serif" font-size="14.00"> attributes</text>
<text text-anchor="middle" x="461" y="-237.121" font-family="Helvetica,sans-Serif" font-size="14.00">be_to_edge</text>
<text text-anchor="middle" x="461" y="-222.121" font-family="Helvetica,sans-Serif" font-size="14.00">be_to_face</text>
<text text-anchor="middle" x="461" y="-207.121" font-family="Helvetica,sans-Serif" font-size="14.00">bdr_attributes</text>
</g>
<!-- Node6&#45;&gt;Node8 -->
<g id="edge11" class="edge"><title>Node6&#45;&gt;Node8</title>
<path fill="none" stroke="#9a32cd" stroke-dasharray="5,2" d="M330.383,-111.601C450.231,-120.109 685.633,-136.819 814.485,-145.966"/>
<polygon fill="#9a32cd" stroke="#9a32cd" points="330.426,-108.095 320.204,-110.878 329.931,-115.078 330.426,-108.095"/>
<text text-anchor="middle" x="642" y="-157.121" font-family="Helvetica,sans-Serif" font-size="14.00"> dof_ldof_array</text>
<text text-anchor="middle" x="642" y="-142.121" font-family="Helvetica,sans-Serif" font-size="14.00">dof_elem_array</text>
</g>
<!-- Node7 -->
<g id="node7" class="node"><title>Node7</title>
<g id="a_node7"><a xlink:href="classmfem_1_1BaseArray.html" target="_top" xlink:title="Base class for array container. ">
<polygon fill="white" stroke="black" points="0,-53.8208 0,-76.8208 122,-76.8208 122,-53.8208 0,-53.8208"/>
<text text-anchor="middle" x="61" y="-61.6208" font-family="Helvetica,sans-Serif" font-size="14.00">mfem::BaseArray</text>
</a>
</g>
</g>
<!-- Node7&#45;&gt;Node6 -->
<g id="edge6" class="edge"><title>Node7&#45;&gt;Node6</title>
<path fill="none" stroke="midnightblue" d="M126.076,-79.0037C150.079,-84.1294 177.087,-89.8966 200.079,-94.8065"/>
<polygon fill="midnightblue" stroke="midnightblue" points="126.504,-75.5163 115.994,-76.8507 125.042,-82.3619 126.504,-75.5163"/>
</g>
<!-- Node10 -->
<g id="node10" class="node"><title>Node10</title>
<g id="a_node10"><a xlink:href="classmfem_1_1Array.html" target="_top" xlink:title="mfem::Array\&lt; mfem::\lNonlinearFormIntegrator * \&gt;">
<polygon fill="white" stroke="black" points="368.5,-0.320808 368.5,-38.3208 553.5,-38.3208 553.5,-0.320808 368.5,-0.320808"/>
<text text-anchor="start" x="376.5" y="-23.1208" font-family="Helvetica,sans-Serif" font-size="14.00">mfem::Array&lt; mfem::</text>
<text text-anchor="middle" x="461" y="-8.12081" font-family="Helvetica,sans-Serif" font-size="14.00">NonlinearFormIntegrator * &gt;</text>
</a>
</g>
</g>
<!-- Node7&#45;&gt;Node10 -->
<g id="edge14" class="edge"><title>Node7&#45;&gt;Node10</title>
<path fill="none" stroke="midnightblue" d="M132.273,-57.1988C198.001,-49.6021 296.547,-38.2123 368.411,-29.9065"/>
<polygon fill="midnightblue" stroke="midnightblue" points="131.548,-53.7593 122.016,-58.3843 132.351,-60.713 131.548,-53.7593"/>
</g>
<!-- Node8&#45;&gt;Node1 -->
<g id="edge7" class="edge"><title>Node8&#45;&gt;Node1</title>
<path fill="none" stroke="#9a32cd" stroke-dasharray="5,2" d="M959.27,-138.163C997.553,-127.989 1048.53,-114.441 1084.4,-104.908"/>
<polygon fill="#9a32cd" stroke="#9a32cd" points="958.096,-134.854 949.331,-140.805 959.894,-141.619 958.096,-134.854"/>
<text text-anchor="middle" x="1025" y="-127.121" font-family="Helvetica,sans-Serif" font-size="14.00"> fes</text>
</g>
<!-- Node9&#45;&gt;Node8 -->
<g id="edge8" class="edge"><title>Node9&#45;&gt;Node8</title>
<path fill="none" stroke="#9a32cd" stroke-dasharray="5,2" d="M688.621,-197.776C701.892,-193.793 716.461,-189.658 730,-186.321 764.966,-177.702 804.315,-169.859 836.738,-163.884"/>
<polygon fill="#9a32cd" stroke="#9a32cd" points="687.311,-194.516 678.763,-200.777 689.349,-201.213 687.311,-194.516"/>
<text text-anchor="middle" x="763" y="-190.121" font-family="Helvetica,sans-Serif" font-size="14.00"> mesh</text>
</g>
<!-- Node10&#45;&gt;Node1 -->
<g id="edge13" class="edge"><title>Node10&#45;&gt;Node1</title>
<path fill="none" stroke="#9a32cd" stroke-dasharray="5,2" d="M563.765,-7.36092C680.691,2.79685 876.906,8.76513 1036,-41.3208 1064.88,-50.4113 1094.75,-69.3855 1112.34,-81.7262"/>
<polygon fill="#9a32cd" stroke="#9a32cd" points="563.394,-3.88004 553.746,-8.25848 564.019,-10.8521 563.394,-3.88004"/>
<text text-anchor="middle" x="763" y="-6.12081" font-family="Helvetica,sans-Serif" font-size="14.00"> dfi</text>
</g>
</g>
</svg>
        <g id="navigator" transform="translate(0 0)" fill="#404254">
                <rect fill="#f2f5e9" fill-opacity="0.5" stroke="#606060" stroke-width=".5" x="0" y="0" width="60" height="60"/>
                <use id="zoomplus" xlink:href="#zoomPlus" x="17" y="9" onmousedown="handleZoom(evt,'in')"/>
                <use id="zoomminus" xlink:href="#zoomMin" x="42" y="9" onmousedown="handleZoom(evt,'out')"/>
                <use id="reset" xlink:href="#resetDef" x="30" y="36" onmousedown="handleReset()"/>
                <g id="arrowUp" xlink:href="#dirArrow" transform="translate(30 24)" onmousedown="handlePan(0,-1)">
                  <use xlink:href="#rim" fill="#404040">
                        <set attributeName="fill" to="#808080" begin="arrowUp.mouseover" end="arrowUp.mouseout"/>
                  </use>
                  <path fill="none" stroke="white" stroke-width="1.5" d="M0,-3.0v7 M-2.5,-0.5L0,-3.0L2.5,-0.5"/>
                </g>
                <g id="arrowRight" xlink:href="#dirArrow" transform="rotate(90) translate(36 -43)" onmousedown="handlePan(1,0)">
                  <use xlink:href="#rim" fill="#404040">
                        <set attributeName="fill" to="#808080" begin="arrowRight.mouseover" end="arrowRight.mouseout"/>
                  </use>
                  <path fill="none" stroke="white" stroke-width="1.5" d="M0,-3.0v7 M-2.5,-0.5L0,-3.0L2.5,-0.5"/>
                </g>
                <g id="arrowDown" xlink:href="#dirArrow" transform="rotate(180) translate(-30 -48)" onmousedown="handlePan(0,1)">
                  <use xlink:href="#rim" fill="#404040">
                        <set attributeName="fill" to="#808080" begin="arrowDown.mouseover" end="arrowDown.mouseout"/>
                  </use>
                  <path fill="none" stroke="white" stroke-width="1.5" d="M0,-3.0v7 M-2.5,-0.5L0,-3.0L2.5,-0.5"/>
                </g>
                <g id="arrowLeft" xlink:href="#dirArrow" transform="rotate(270) translate(-36 17)" onmousedown="handlePan(-1,0)">
                  <use xlink:href="#rim" fill="#404040">
                        <set attributeName="fill" to="#808080" begin="arrowLeft.mouseover" end="arrowLeft.mouseout"/>
                  </use>
                  <path fill="none" stroke="white" stroke-width="1.5" d="M0,-3.0v7 M-2.5,-0.5L0,-3.0L2.5,-0.5"/>
                </g>
        </g>
        <svg viewBox="0 0 15 15" width="100%" height="30px" preserveAspectRatio="xMaxYMin meet">
         <g id="arrow_out" transform="scale(0.3 0.3)">
          <a xlink:href="classmfem_1_1NonlinearForm__coll__graph_org.svg" target="_base">
           <rect id="button" ry="5" rx="5" y="6" x="6" height="38" width="38"
                fill="#f2f5e9" fill-opacity="0.5" stroke="#606060" stroke-width="1.0"/>
           <path id="arrow"
             d="M 11.500037,31.436501 C 11.940474,20.09759 22.043105,11.32322 32.158766,21.979434 L 37.068811,17.246167 C 37.068811,17.246167 37.088388,32 37.088388,32 L 22.160133,31.978069 C 22.160133,31.978069 26.997745,27.140456 26.997745,27.140456 C 18.528582,18.264221 13.291696,25.230495 11.500037,31.436501 z"
             style="fill:#404040;"/>
          </a>
         </g>
        </svg>
</svg>
