<?xml version="1.0" encoding="UTF-8" standalone="no"?>
<!DOCTYPE svg PUBLIC "-//W3C//DTD SVG 1.1//EN"
 "http://www.w3.org/Graphics/SVG/1.1/DTD/svg11.dtd">
<!-- Generated by graphviz version 2.26.3 (20100126.1600)
 -->
<!-- Title: mfem::ParNCMesh::ElementValueMessage&lt; ValueType, RefTypes, Tag &gt; Pages: 1 -->
<svg width="1084pt" height="303pt"
 viewBox="0.00 0.00 1084.00 303.00" xmlns="http://www.w3.org/2000/svg" xmlns:xlink="http://www.w3.org/1999/xlink">
<g id="graph1" class="graph" transform="scale(1 1) rotate(0) translate(4 299)">
<title>mfem::ParNCMesh::ElementValueMessage&lt; ValueType, RefTypes, Tag &gt;</title>
<polygon fill="white" stroke="white" points="-4,5 -4,-299 1081,-299 1081,5 -4,5"/>
<!-- Node1 -->
<g id="node1" class="node"><title>Node1</title>
<polygon fill="#bfbfbf" stroke="black" points="882.5,-186 882.5,-242 1075.5,-242 1075.5,-186 882.5,-186"/>
<text text-anchor="start" x="890.5" y="-225.4" font-family="Helvetica,sans-Serif" font-size="14.00">mfem::ParNCMesh::Element</text>
<text text-anchor="start" x="890.5" y="-209.4" font-family="Helvetica,sans-Serif" font-size="14.00">ValueMessage&lt; ValueType,</text>
<text text-anchor="middle" x="979" y="-193.4" font-family="Helvetica,sans-Serif" font-size="14.00"> RefTypes, Tag &gt;</text>
</g>
<!-- Node2 -->
<g id="node2" class="node"><title>Node2</title>
<a xlink:href="structmfem_1_1VarMessage.html" target="_top" xlink:title="Variable&#45;length MPI message containing unspecific binary data. ">
<polygon fill="white" stroke="black" points="600.5,-267 600.5,-291 783.5,-291 783.5,-267 600.5,-267"/>
<text text-anchor="middle" x="692" y="-274.4" font-family="Helvetica,sans-Serif" font-size="14.00">mfem::VarMessage&lt; Tag &gt;</text>
</a>
</g>
<!-- Node2&#45;&gt;Node1 -->
<g id="edge2" class="edge"><title>Node2&#45;&gt;Node1</title>
<path fill="none" stroke="midnightblue" d="M775.007,-265.21C803.357,-260.063 835.176,-253.801 864,-247 870.469,-245.474 877.118,-243.813 883.8,-242.076"/>
<polygon fill="midnightblue" stroke="midnightblue" points="774.358,-261.771 765.134,-266.984 775.595,-268.661 774.358,-261.771"/>
</g>
<!-- Node3 -->
<g id="node4" class="node"><title>Node3</title>
<a xlink:title="STL class. ">
<polygon fill="white" stroke="#bfbfbf" points="306.5,-267 306.5,-291 383.5,-291 383.5,-267 306.5,-267"/>
<text text-anchor="middle" x="345" y="-274.4" font-family="Helvetica,sans-Serif" font-size="14.00">std::string</text>
</a>
</g>
<!-- Node3&#45;&gt;Node2 -->
<g id="edge4" class="edge"><title>Node3&#45;&gt;Node2</title>
<path fill="none" stroke="#9a32cd" stroke-dasharray="5,2" d="M394.019,-279C447.437,-279 534.104,-279 600.236,-279"/>
<polygon fill="#9a32cd" stroke="#9a32cd" points="393.795,-275.5 383.795,-279 393.795,-282.5 393.795,-275.5"/>
<text text-anchor="middle" x="515" y="-282.4" font-family="Helvetica,sans-Serif" font-size="14.00"> data</text>
</g>
<!-- Node4 -->
<g id="node6" class="node"><title>Node4</title>
<polygon fill="white" stroke="#bfbfbf" points="608,-225 608,-249 776,-249 776,-225 608,-225"/>
<text text-anchor="middle" x="692" y="-232.4" font-family="Helvetica,sans-Serif" font-size="14.00">std::vector&lt; ValueType &gt;</text>
</g>
<!-- Node4&#45;&gt;Node1 -->
<g id="edge6" class="edge"><title>Node4&#45;&gt;Node1</title>
<path fill="none" stroke="#9a32cd" stroke-dasharray="5,2" d="M786.476,-229.429C817.279,-226.96 851.508,-224.217 882.461,-221.737"/>
<polygon fill="#9a32cd" stroke="#9a32cd" points="785.859,-225.967 776.17,-230.255 786.418,-232.945 785.859,-225.967"/>
<text text-anchor="middle" x="833" y="-230.4" font-family="Helvetica,sans-Serif" font-size="14.00"> values</text>
</g>
<!-- Node5 -->
<g id="node8" class="node"><title>Node5</title>
<polygon fill="white" stroke="#bfbfbf" points="625,-167 625,-207 759,-207 759,-167 625,-167"/>
<text text-anchor="start" x="633" y="-190.4" font-family="Helvetica,sans-Serif" font-size="14.00">std::vector&lt; mfem::</text>
<text text-anchor="middle" x="692" y="-174.4" font-family="Helvetica,sans-Serif" font-size="14.00">Element * &gt;</text>
</g>
<!-- Node5&#45;&gt;Node1 -->
<g id="edge8" class="edge"><title>Node5&#45;&gt;Node1</title>
<path fill="none" stroke="#9a32cd" stroke-dasharray="5,2" d="M769.647,-194.18C799.188,-196.923 833.152,-200.09 864,-203 869.99,-203.565 876.156,-204.149 882.374,-204.739"/>
<polygon fill="#9a32cd" stroke="#9a32cd" points="769.676,-190.667 759.395,-193.228 769.029,-197.638 769.676,-190.667"/>
<text text-anchor="middle" x="833" y="-206.4" font-family="Helvetica,sans-Serif" font-size="14.00"> elements</text>
</g>
<!-- Node6 -->
<g id="node10" class="node"><title>Node6</title>
<a xlink:href="classmfem_1_1Element.html" target="_top" xlink:title="Abstract data type element. ">
<polygon fill="white" stroke="black" points="290,-200 290,-224 400,-224 400,-200 290,-200"/>
<text text-anchor="middle" x="345" y="-207.4" font-family="Helvetica,sans-Serif" font-size="14.00">mfem::Element</text>
</a>
</g>
<!-- Node6&#45;&gt;Node5 -->
<g id="edge10" class="edge"><title>Node6&#45;&gt;Node5</title>
<path fill="none" stroke="#9a32cd" stroke-dasharray="5,2" d="M410.703,-207.266C472.046,-202.847 563.166,-196.282 624.943,-191.831"/>
<polygon fill="#9a32cd" stroke="#9a32cd" points="410.089,-203.801 400.367,-208.011 410.593,-210.783 410.089,-203.801"/>
<text text-anchor="middle" x="515" y="-206.4" font-family="Helvetica,sans-Serif" font-size="14.00"> elements</text>
</g>
<!-- Node7 -->
<g id="node12" class="node"><title>Node7</title>
<a xlink:href="classmfem_1_1ParNCMesh.html" target="_top" xlink:title="A parallel extension of the NCMesh class. ">
<polygon fill="white" stroke="red" points="625,-87 625,-111 759,-111 759,-87 625,-87"/>
<text text-anchor="middle" x="692" y="-94.4" font-family="Helvetica,sans-Serif" font-size="14.00">mfem::ParNCMesh</text>
</a>
</g>
<!-- Node7&#45;&gt;Node1 -->
<g id="edge12" class="edge"><title>Node7&#45;&gt;Node1</title>
<path fill="none" stroke="#9a32cd" stroke-dasharray="5,2" d="M731.731,-114.92C777.468,-133.247 853.432,-163.685 909.116,-185.998"/>
<polygon fill="#9a32cd" stroke="#9a32cd" points="732.756,-111.56 722.172,-111.09 730.152,-118.058 732.756,-111.56"/>
<text text-anchor="middle" x="833" y="-169.4" font-family="Helvetica,sans-Serif" font-size="14.00"> pncmesh</text>
</g>
<!-- Node8 -->
<g id="node14" class="node"><title>Node8</title>
<a xlink:href="classmfem_1_1NCMesh.html" target="_top" xlink:title="A class for non&#45;conforming AMR on higher&#45;order hexahedral, quadrilateral or triangular meshes...">
<polygon fill="white" stroke="red" points="288.5,-58 288.5,-82 401.5,-82 401.5,-58 288.5,-58"/>
<text text-anchor="middle" x="345" y="-65.4" font-family="Helvetica,sans-Serif" font-size="14.00">mfem::NCMesh</text>
</a>
</g>
<!-- Node8&#45;&gt;Node7 -->
<g id="edge14" class="edge"><title>Node8&#45;&gt;Node7</title>
<path fill="none" stroke="midnightblue" d="M411.857,-75.5874C473.135,-80.7087 563.408,-88.2531 624.796,-93.3835"/>
<polygon fill="midnightblue" stroke="midnightblue" points="411.781,-72.069 401.524,-74.7239 411.198,-79.0447 411.781,-72.069"/>
</g>
<!-- Node9 -->
<g id="node16" class="node"><title>Node9</title>
<a xlink:href="classmfem_1_1Array.html" target="_top" xlink:title="mfem::Array\&lt; int \&gt;">
<polygon fill="white" stroke="red" points="0,-86 0,-110 130,-110 130,-86 0,-86"/>
<text text-anchor="middle" x="65" y="-93.4" font-family="Helvetica,sans-Serif" font-size="14.00">mfem::Array&lt; int &gt;</text>
</a>
</g>
<!-- Node9&#45;&gt;Node7 -->
<g id="edge20" class="edge"><title>Node9&#45;&gt;Node7</title>
<path fill="none" stroke="#9a32cd" stroke-dasharray="5,2" d="M140.31,-103.682C142.904,-103.802 145.473,-103.909 148,-104 189.751,-105.507 200.223,-104.232 242,-104 377.944,-103.245 536.978,-101.206 624.911,-99.9779"/>
<polygon fill="#9a32cd" stroke="#9a32cd" points="140.387,-100.182 130.22,-103.161 140.026,-107.172 140.387,-100.182"/>
<text text-anchor="middle" x="345" y="-154.4" font-family="Helvetica,sans-Serif" font-size="14.00"> face_owner</text>
<text text-anchor="middle" x="345" y="-138.4" font-family="Helvetica,sans-Serif" font-size="14.00">vertex_owner</text>
<text text-anchor="middle" x="345" y="-122.4" font-family="Helvetica,sans-Serif" font-size="14.00">edge_owner</text>
<text text-anchor="middle" x="345" y="-106.4" font-family="Helvetica,sans-Serif" font-size="14.00">old_index_or_rank</text>
</g>
<!-- Node9&#45;&gt;Node8 -->
<g id="edge16" class="edge"><title>Node9&#45;&gt;Node8</title>
<path fill="none" stroke="#9a32cd" stroke-dasharray="5,2" d="M140.313,-88.8303C142.906,-88.5451 145.474,-88.2675 148,-88 195.302,-82.9906 249.083,-78.1329 288.488,-74.7291"/>
<polygon fill="#9a32cd" stroke="#9a32cd" points="139.771,-85.369 130.224,-89.962 140.552,-92.3254 139.771,-85.369"/>
<text text-anchor="middle" x="195" y="-91.4" font-family="Helvetica,sans-Serif" font-size="14.00"> vertex_nodeId</text>
</g>
<!-- Node10 -->
<g id="node18" class="node"><title>Node10</title>
<polygon fill="white" stroke="#bfbfbf" points="260,-0 260,-40 430,-40 430,-0 260,-0"/>
<text text-anchor="start" x="268" y="-23.4" font-family="Helvetica,sans-Serif" font-size="14.00">std::map&lt; int, Rebalance</text>
<text text-anchor="middle" x="345" y="-7.4" font-family="Helvetica,sans-Serif" font-size="14.00">DofMessage &gt;</text>
</g>
<!-- Node10&#45;&gt;Node7 -->
<g id="edge18" class="edge"><title>Node10&#45;&gt;Node7</title>
<path fill="none" stroke="#9a32cd" stroke-dasharray="5,2" d="M440.178,-21.1436C484.077,-23.7144 536.438,-29.71 582,-43 616.15,-52.9613 652.263,-73.5504 673.435,-86.796"/>
<polygon fill="#9a32cd" stroke="#9a32cd" points="440.253,-17.6427 430.08,-20.6033 439.879,-24.6327 440.253,-17.6427"/>
<text text-anchor="middle" x="515" y="-62.4" font-family="Helvetica,sans-Serif" font-size="14.00"> recv_rebalance_dofs</text>
<text text-anchor="middle" x="515" y="-46.4" font-family="Helvetica,sans-Serif" font-size="14.00">send_rebalance_dofs</text>
</g>
</g>
</svg>
