<?xml version="1.0" encoding="UTF-8" standalone="no"?>
<!DOCTYPE svg PUBLIC "-//W3C//DTD SVG 1.1//EN"
 "http://www.w3.org/Graphics/SVG/1.1/DTD/svg11.dtd">
<!-- Generated by graphviz version 2.30.1 (20170916.1124)
 -->
<!-- Title: mfem::VectorFEBoundaryTangentLFIntegrator Pages: 1 -->
<svg width="264pt" height="432pt"
 viewBox="0.00 0.00 264.00 432.00" xmlns="http://www.w3.org/2000/svg" xmlns:xlink="http://www.w3.org/1999/xlink">
<g id="graph0" class="graph" transform="scale(1 1) rotate(0) translate(4 428)">
<title>mfem::VectorFEBoundaryTangentLFIntegrator</title>
<polygon fill="white" stroke="white" points="-4,5 -4,-428 261,-428 261,5 -4,5"/>
<!-- Node1 -->
<g id="node1" class="node"><title>Node1</title>
<polygon fill="#bfbfbf" stroke="black" points="-0.5,-1 -0.5,-39 256.5,-39 256.5,-1 -0.5,-1"/>
<text text-anchor="start" x="7.5" y="-23.8" font-family="Helvetica,sans-Serif" font-size="14.00">mfem::VectorFEBoundaryTangent</text>
<text text-anchor="middle" x="128" y="-8.8" font-family="Helvetica,sans-Serif" font-size="14.00">LFIntegrator</text>
</g>
<!-- Node2 -->
<g id="node2" class="node"><title>Node2</title>
<g id="a_node2"><a xlink:href="classmfem_1_1LinearFormIntegrator.html" target="_top" xlink:title="Abstract base class LinearFormIntegrator. ">
<polygon fill="white" stroke="black" points="17,-78.5 17,-101.5 239,-101.5 239,-78.5 17,-78.5"/>
<text text-anchor="middle" x="128" y="-86.3" font-family="Helvetica,sans-Serif" font-size="14.00">mfem::LinearFormIntegrator</text>
</a>
</g>
</g>
<!-- Node2&#45;&gt;Node1 -->
<g id="edge1" class="edge"><title>Node2&#45;&gt;Node1</title>
<path fill="none" stroke="midnightblue" d="M128,-68.098C128,-58.8689 128,-48.1198 128,-39.2228"/>
<polygon fill="midnightblue" stroke="midnightblue" points="124.5,-68.375 128,-78.375 131.5,-68.375 124.5,-68.375"/>
</g>
<!-- Node3 -->
<g id="node3" class="node"><title>Node3</title>
<g id="a_node3"><a xlink:href="classmfem_1_1IntegrationRule.html" target="_top" xlink:title="Class for an integration rule &#45; an Array of IntegrationPoint. ">
<polygon fill="white" stroke="black" points="39,-154.5 39,-177.5 217,-177.5 217,-154.5 39,-154.5"/>
<text text-anchor="middle" x="128" y="-162.3" font-family="Helvetica,sans-Serif" font-size="14.00">mfem::IntegrationRule</text>
</a>
</g>
</g>
<!-- Node3&#45;&gt;Node2 -->
<g id="edge2" class="edge"><title>Node3&#45;&gt;Node2</title>
<path fill="none" stroke="#9a32cd" stroke-dasharray="5,2" d="M128,-144.277C128,-130.387 128,-112.675 128,-101.583"/>
<polygon fill="#9a32cd" stroke="#9a32cd" points="124.5,-144.398 128,-154.398 131.5,-144.398 124.5,-144.398"/>
<text text-anchor="middle" x="155.5" y="-124.3" font-family="Helvetica,sans-Serif" font-size="14.00"> IntRule</text>
</g>
<!-- Node4 -->
<g id="node4" class="node"><title>Node4</title>
<g id="a_node4"><a xlink:href="classmfem_1_1Array.html" target="_top" xlink:title="mfem::Array\&lt; Integration\lPoint \&gt;">
<polygon fill="white" stroke="black" points="26.5,-217 26.5,-255 229.5,-255 229.5,-217 26.5,-217"/>
<text text-anchor="start" x="34.5" y="-239.8" font-family="Helvetica,sans-Serif" font-size="14.00">mfem::Array&lt; Integration</text>
<text text-anchor="middle" x="128" y="-224.8" font-family="Helvetica,sans-Serif" font-size="14.00">Point &gt;</text>
</a>
</g>
</g>
<!-- Node4&#45;&gt;Node3 -->
<g id="edge3" class="edge"><title>Node4&#45;&gt;Node3</title>
<path fill="none" stroke="midnightblue" d="M128,-206.599C128,-196.442 128,-185.6 128,-177.834"/>
<polygon fill="midnightblue" stroke="midnightblue" points="124.5,-206.777 128,-216.777 131.5,-206.777 124.5,-206.777"/>
</g>
<!-- Node5 -->
<g id="node5" class="node"><title>Node5</title>
<g id="a_node5"><a xlink:href="classmfem_1_1Memory.html" target="_top" xlink:title="mfem::Memory\&lt; Integration\lPoint \&gt;">
<polygon fill="white" stroke="black" points="17,-309 17,-347 239,-347 239,-309 17,-309"/>
<text text-anchor="start" x="25" y="-331.8" font-family="Helvetica,sans-Serif" font-size="14.00">mfem::Memory&lt; Integration</text>
<text text-anchor="middle" x="128" y="-316.8" font-family="Helvetica,sans-Serif" font-size="14.00">Point &gt;</text>
</a>
</g>
</g>
<!-- Node5&#45;&gt;Node4 -->
<g id="edge4" class="edge"><title>Node5&#45;&gt;Node4</title>
<path fill="none" stroke="#9a32cd" stroke-dasharray="5,2" d="M128,-298.548C128,-284.36 128,-267.622 128,-255.186"/>
<polygon fill="#9a32cd" stroke="#9a32cd" points="124.5,-298.787 128,-308.787 131.5,-298.787 124.5,-298.787"/>
<text text-anchor="middle" x="146.5" y="-278.3" font-family="Helvetica,sans-Serif" font-size="14.00"> data</text>
</g>
<!-- Node6 -->
<g id="node6" class="node"><title>Node6</title>
<g id="a_node6"><a xlink:href="classmfem_1_1IntegrationPoint.html" target="_top" xlink:title="Class for integration point with weight. ">
<polygon fill="white" stroke="black" points="37,-400.5 37,-423.5 219,-423.5 219,-400.5 37,-400.5"/>
<text text-anchor="middle" x="128" y="-408.3" font-family="Helvetica,sans-Serif" font-size="14.00">mfem::IntegrationPoint</text>
</a>
</g>
</g>
<!-- Node6&#45;&gt;Node5 -->
<g id="edge5" class="edge"><title>Node6&#45;&gt;Node5</title>
<path fill="none" stroke="#9a32cd" stroke-dasharray="5,2" d="M128,-390.213C128,-376.967 128,-359.968 128,-347.246"/>
<polygon fill="#9a32cd" stroke="#9a32cd" points="124.5,-390.28 128,-400.28 131.5,-390.28 124.5,-390.28"/>
<text text-anchor="middle" x="149" y="-370.3" font-family="Helvetica,sans-Serif" font-size="14.00"> h_ptr</text>
</g>
</g>
</svg>
