<?xml version="1.0" encoding="UTF-8" standalone="no"?>
<!DOCTYPE svg PUBLIC "-//W3C//DTD SVG 1.1//EN"
 "http://www.w3.org/Graphics/SVG/1.1/DTD/svg11.dtd">
<!-- Generated by graphviz version 2.30.1 (20140821.0912)
 -->
<!-- Title: mfem::ParFiniteElementSpace Pages: 1 -->
<svg width="1368pt" height="552pt"
 viewBox="0.00 0.00 1368.00 552.00" xmlns="http://www.w3.org/2000/svg" xmlns:xlink="http://www.w3.org/1999/xlink">
<g id="graph0" class="graph" transform="scale(1 1) rotate(0) translate(4 548)">
<title>mfem::ParFiniteElementSpace</title>
<polygon fill="white" stroke="white" points="-4,5 -4,-548 1365,-548 1365,5 -4,5"/>
<!-- Node1 -->
<g id="node1" class="node"><title>Node1</title>
<polygon fill="#bfbfbf" stroke="black" points="1158,-55.5 1158,-78.5 1360,-78.5 1360,-55.5 1158,-55.5"/>
<text text-anchor="middle" x="1259" y="-63.3" font-family="Helvetica,sans-Serif" font-size="14.00">mfem::ParFiniteElementSpace</text>
</g>
<!-- Node2 -->
<g id="node2" class="node"><title>Node2</title>
<g id="a_node2"><a xlink:href="classmfem_1_1FiniteElementSpace.html" target="_top" xlink:title="mfem::FiniteElementSpace">
<polygon fill="white" stroke="black" points="788.5,-329.5 788.5,-352.5 969.5,-352.5 969.5,-329.5 788.5,-329.5"/>
<text text-anchor="middle" x="879" y="-337.3" font-family="Helvetica,sans-Serif" font-size="14.00">mfem::FiniteElementSpace</text>
</a>
</g>
</g>
<!-- Node2&#45;&gt;Node1 -->
<g id="edge1" class="edge"><title>Node2&#45;&gt;Node1</title>
<path fill="none" stroke="midnightblue" d="M904.659,-323.126C976.188,-271.276 1182.43,-121.781 1241.82,-78.7296"/>
<polygon fill="midnightblue" stroke="midnightblue" points="902.285,-320.524 896.242,-329.227 906.393,-326.191 902.285,-320.524"/>
</g>
<!-- Node3 -->
<g id="node3" class="node"><title>Node3</title>
<g id="a_node3"><a xlink:href="classmfem_1_1Mesh.html" target="_top" xlink:title="mfem::Mesh">
<polygon fill="white" stroke="red" points="252.5,-266.5 252.5,-289.5 345.5,-289.5 345.5,-266.5 252.5,-266.5"/>
<text text-anchor="middle" x="299" y="-274.3" font-family="Helvetica,sans-Serif" font-size="14.00">mfem::Mesh</text>
</a>
</g>
</g>
<!-- Node3&#45;&gt;Node2 -->
<g id="edge2" class="edge"><title>Node3&#45;&gt;Node2</title>
<path fill="none" stroke="#9a32cd" stroke-dasharray="5,2" d="M355.949,-270.745C359.346,-270.452 362.716,-270.198 366,-270 408.589,-267.428 419.344,-269.031 462,-270 559.853,-272.223 585.592,-263.096 682,-280 742.902,-290.678 811.281,-314.901 849.028,-329.405"/>
<polygon fill="#9a32cd" stroke="#9a32cd" points="355.353,-267.286 345.736,-271.732 356.027,-274.254 355.353,-267.286"/>
<text text-anchor="middle" x="581" y="-283.8" font-family="Helvetica,sans-Serif" font-size="14.00"> mesh</text>
</g>
<!-- Node5 -->
<g id="node5" class="node"><title>Node5</title>
<g id="a_node5"><a xlink:href="classmfem_1_1NURBSExtension.html" target="_top" xlink:title="mfem::NURBSExtension">
<polygon fill="white" stroke="red" points="498,-304.5 498,-327.5 664,-327.5 664,-304.5 498,-304.5"/>
<text text-anchor="middle" x="581" y="-312.3" font-family="Helvetica,sans-Serif" font-size="14.00">mfem::NURBSExtension</text>
</a>
</g>
</g>
<!-- Node3&#45;&gt;Node5 -->
<g id="edge5" class="edge"><title>Node3&#45;&gt;Node5</title>
<path fill="none" stroke="#9a32cd" stroke-dasharray="5,2" d="M353.937,-291.704C358.006,-292.545 362.06,-293.323 366,-294 409.251,-301.431 457.882,-306.675 497.842,-310.174"/>
<polygon fill="#9a32cd" stroke="#9a32cd" points="354.365,-288.215 343.849,-289.507 352.875,-295.055 354.365,-288.215"/>
<text text-anchor="middle" x="414" y="-310.8" font-family="Helvetica,sans-Serif" font-size="14.00"> patchTopo</text>
</g>
<!-- Node4 -->
<g id="node4" class="node"><title>Node4</title>
<g id="a_node4"><a xlink:href="classmfem_1_1Array.html" target="_top" xlink:title="mfem::Array\&lt; int \&gt;">
<polygon fill="white" stroke="red" points="0,-374.5 0,-397.5 130,-397.5 130,-374.5 0,-374.5"/>
<text text-anchor="middle" x="65" y="-382.3" font-family="Helvetica,sans-Serif" font-size="14.00">mfem::Array&lt; int &gt;</text>
</a>
</g>
</g>
<!-- Node4&#45;&gt;Node3 -->
<g id="edge3" class="edge"><title>Node4&#45;&gt;Node3</title>
<path fill="none" stroke="#9a32cd" stroke-dasharray="5,2" d="M82.2461,-366.538C97.4912,-349.561 121.815,-325.583 148,-312 165.955,-302.686 215.192,-292.488 252.398,-285.715"/>
<polygon fill="#9a32cd" stroke="#9a32cd" points="79.4668,-364.399 75.5232,-374.233 84.7383,-369.005 79.4668,-364.399"/>
<text text-anchor="middle" x="190" y="-360.8" font-family="Helvetica,sans-Serif" font-size="14.00"> attributes</text>
<text text-anchor="middle" x="190" y="-345.8" font-family="Helvetica,sans-Serif" font-size="14.00">be_to_edge</text>
<text text-anchor="middle" x="190" y="-330.8" font-family="Helvetica,sans-Serif" font-size="14.00">be_to_face</text>
<text text-anchor="middle" x="190" y="-315.8" font-family="Helvetica,sans-Serif" font-size="14.00">bdr_attributes</text>
</g>
<!-- Node4&#45;&gt;Node5 -->
<g id="edge6" class="edge"><title>Node4&#45;&gt;Node5</title>
<path fill="none" stroke="#9a32cd" stroke-dasharray="5,2" d="M140.377,-387.626C169.622,-386.248 203.057,-382.11 232,-372 241.077,-368.829 241.002,-363.39 250,-360 293.946,-343.445 415.068,-330.178 497.68,-322.696"/>
<polygon fill="#9a32cd" stroke="#9a32cd" points="140.084,-384.135 130.221,-388.004 140.344,-391.13 140.084,-384.135"/>
<text text-anchor="middle" x="299" y="-513.8" font-family="Helvetica,sans-Serif" font-size="14.00"> v_spaceOffsets</text>
<text text-anchor="middle" x="299" y="-498.8" font-family="Helvetica,sans-Serif" font-size="14.00">p_meshOffsets</text>
<text text-anchor="middle" x="299" y="-483.8" font-family="Helvetica,sans-Serif" font-size="14.00">edge_to_knot</text>
<text text-anchor="middle" x="299" y="-468.8" font-family="Helvetica,sans-Serif" font-size="14.00">f_spaceOffsets</text>
<text text-anchor="middle" x="299" y="-453.8" font-family="Helvetica,sans-Serif" font-size="14.00">e_meshOffsets</text>
<text text-anchor="middle" x="299" y="-438.8" font-family="Helvetica,sans-Serif" font-size="14.00">el_to_patch</text>
<text text-anchor="middle" x="299" y="-423.8" font-family="Helvetica,sans-Serif" font-size="14.00">p_spaceOffsets</text>
<text text-anchor="middle" x="299" y="-408.8" font-family="Helvetica,sans-Serif" font-size="14.00">bel_to_patch</text>
<text text-anchor="middle" x="299" y="-393.8" font-family="Helvetica,sans-Serif" font-size="14.00">e_spaceOffsets</text>
<text text-anchor="middle" x="299" y="-378.8" font-family="Helvetica,sans-Serif" font-size="14.00">v_meshOffsets</text>
<text text-anchor="middle" x="299" y="-363.8" font-family="Helvetica,sans-Serif" font-size="14.00">...</text>
</g>
<!-- Node4&#45;&gt;Node2 -->
<g id="edge10" class="edge"><title>Node4&#45;&gt;Node2</title>
<path fill="none" stroke="#9a32cd" stroke-dasharray="5,2" d="M82.4932,-405.187C125.499,-452.773 244.881,-569.282 348,-525 426.283,-491.384 403.733,-423.968 480,-386 493.637,-379.211 675.12,-360.629 788.254,-349.581"/>
<polygon fill="#9a32cd" stroke="#9a32cd" points="85.071,-402.818 75.8142,-397.664 79.8365,-407.466 85.071,-402.818"/>
<text text-anchor="middle" x="414" y="-532.8" font-family="Helvetica,sans-Serif" font-size="14.00"> dof_ldof_array</text>
<text text-anchor="middle" x="414" y="-517.8" font-family="Helvetica,sans-Serif" font-size="14.00">dof_elem_array</text>
</g>
<!-- Node5&#45;&gt;Node3 -->
<g id="edge4" class="edge"><title>Node5&#45;&gt;Node3</title>
<path fill="none" stroke="#9a32cd" stroke-dasharray="5,2" d="M541.853,-300.859C519.077,-292.626 489.347,-283.273 462,-279 423.096,-272.921 378.294,-273.192 345.679,-274.685"/>
<polygon fill="#9a32cd" stroke="#9a32cd" points="540.885,-304.232 551.478,-304.42 543.314,-297.667 540.885,-304.232"/>
<text text-anchor="middle" x="414" y="-282.8" font-family="Helvetica,sans-Serif" font-size="14.00"> NURBSext</text>
</g>
<!-- Node5&#45;&gt;Node2 -->
<g id="edge11" class="edge"><title>Node5&#45;&gt;Node2</title>
<path fill="none" stroke="#9a32cd" stroke-dasharray="5,2" d="M674.164,-323.784C710.515,-326.854 752.133,-330.369 788.245,-333.419"/>
<polygon fill="#9a32cd" stroke="#9a32cd" points="674.319,-320.285 664.059,-322.931 673.729,-327.26 674.319,-320.285"/>
<text text-anchor="middle" x="735" y="-335.8" font-family="Helvetica,sans-Serif" font-size="14.00"> NURBSext</text>
</g>
<!-- Node6 -->
<g id="node6" class="node"><title>Node6</title>
<g id="a_node6"><a xlink:href="classmfem_1_1Table.html" target="_top" xlink:title="mfem::Table">
<polygon fill="white" stroke="black" points="18.5,-140.5 18.5,-163.5 111.5,-163.5 111.5,-140.5 18.5,-140.5"/>
<text text-anchor="middle" x="65" y="-148.3" font-family="Helvetica,sans-Serif" font-size="14.00">mfem::Table</text>
</a>
</g>
</g>
<!-- Node6&#45;&gt;Node5 -->
<g id="edge7" class="edge"><title>Node6&#45;&gt;Node5</title>
<path fill="none" stroke="#9a32cd" stroke-dasharray="5,2" d="M121.877,-158.037C154.384,-162.303 195.933,-169.057 232,-179 337.979,-208.216 377.638,-199.514 462,-270 473.641,-279.727 467.41,-290.537 480,-299 485.481,-302.684 491.501,-305.654 497.786,-308.039"/>
<polygon fill="#9a32cd" stroke="#9a32cd" points="122.02,-154.527 111.658,-156.739 121.137,-161.472 122.02,-154.527"/>
<text text-anchor="middle" x="299" y="-225.8" font-family="Helvetica,sans-Serif" font-size="14.00"> el_dof</text>
<text text-anchor="middle" x="299" y="-210.8" font-family="Helvetica,sans-Serif" font-size="14.00">bel_dof</text>
</g>
<!-- Node6&#45;&gt;Node3 -->
<g id="edge8" class="edge"><title>Node6&#45;&gt;Node3</title>
<path fill="none" stroke="#9a32cd" stroke-dasharray="5,2" d="M113.531,-166.357C124.8,-169.637 136.8,-173.03 148,-176 185.095,-185.838 199.91,-174.952 232,-196 243.149,-203.313 241.747,-209.528 250,-220 262.782,-236.22 278.071,-254.512 287.903,-266.14"/>
<polygon fill="#9a32cd" stroke="#9a32cd" points="114.435,-162.975 103.854,-163.517 112.464,-169.692 114.435,-162.975"/>
<text text-anchor="middle" x="190" y="-274.8" font-family="Helvetica,sans-Serif" font-size="14.00"> el_to_face</text>
<text text-anchor="middle" x="190" y="-259.8" font-family="Helvetica,sans-Serif" font-size="14.00">el_to_edge</text>
<text text-anchor="middle" x="190" y="-244.8" font-family="Helvetica,sans-Serif" font-size="14.00">edge_vertex</text>
<text text-anchor="middle" x="190" y="-229.8" font-family="Helvetica,sans-Serif" font-size="14.00">face_edge</text>
<text text-anchor="middle" x="190" y="-214.8" font-family="Helvetica,sans-Serif" font-size="14.00">el_to_el</text>
<text text-anchor="middle" x="190" y="-199.8" font-family="Helvetica,sans-Serif" font-size="14.00">bel_to_edge</text>
</g>
<!-- Node6&#45;&gt;Node2 -->
<g id="edge12" class="edge"><title>Node6&#45;&gt;Node2</title>
<path fill="none" stroke="#9a32cd" stroke-dasharray="5,2" d="M121.95,-153.738C154.154,-154.893 195.376,-156.637 232,-159 334.395,-165.608 361.474,-158.433 462,-179 603.137,-207.875 638.197,-221.849 770,-280 802.902,-294.516 838.837,-316.052 859.846,-329.272"/>
<polygon fill="#9a32cd" stroke="#9a32cd" points="121.944,-150.235 111.828,-153.383 121.699,-157.231 121.944,-150.235"/>
<text text-anchor="middle" x="414" y="-197.8" font-family="Helvetica,sans-Serif" font-size="14.00"> bdrElem_dof</text>
<text text-anchor="middle" x="414" y="-182.8" font-family="Helvetica,sans-Serif" font-size="14.00">elem_dof</text>
</g>
<!-- Node6&#45;&gt;Node1 -->
<g id="edge16" class="edge"><title>Node6&#45;&gt;Node1</title>
<path fill="none" stroke="#9a32cd" stroke-dasharray="5,2" d="M92.9045,-135.078C134.972,-110.285 219.636,-67 298,-67 298,-67 298,-67 880,-67 974.172,-67 1081.54,-67 1157.72,-67"/>
<polygon fill="#9a32cd" stroke="#9a32cd" points="90.8823,-132.21 84.112,-140.359 94.4867,-138.211 90.8823,-132.21"/>
<text text-anchor="middle" x="581" y="-100.8" font-family="Helvetica,sans-Serif" font-size="14.00"> face_nbr_ldof</text>
<text text-anchor="middle" x="581" y="-85.8" font-family="Helvetica,sans-Serif" font-size="14.00">send_face_nbr_ldof</text>
<text text-anchor="middle" x="581" y="-70.8" font-family="Helvetica,sans-Serif" font-size="14.00">face_nbr_element_dof</text>
</g>
<!-- Node7 -->
<g id="node7" class="node"><title>Node7</title>
<g id="a_node7"><a xlink:href="classmfem_1_1SparseMatrix.html" target="_top" xlink:title="Data type sparse matrix. ">
<polygon fill="white" stroke="red" points="511,-479.5 511,-502.5 651,-502.5 651,-479.5 511,-479.5"/>
<text text-anchor="middle" x="581" y="-487.3" font-family="Helvetica,sans-Serif" font-size="14.00">mfem::SparseMatrix</text>
</a>
</g>
</g>
<!-- Node7&#45;&gt;Node2 -->
<g id="edge9" class="edge"><title>Node7&#45;&gt;Node2</title>
<path fill="none" stroke="#9a32cd" stroke-dasharray="5,2" d="M661.241,-484.58C696.248,-479.178 736.882,-469.248 770,-451 815.474,-425.944 854.049,-375.693 870.066,-352.822"/>
<polygon fill="#9a32cd" stroke="#9a32cd" points="660.449,-481.158 651.051,-486.05 661.449,-488.086 660.449,-481.158"/>
<text text-anchor="middle" x="735" y="-494.8" font-family="Helvetica,sans-Serif" font-size="14.00"> cR</text>
<text text-anchor="middle" x="735" y="-479.8" font-family="Helvetica,sans-Serif" font-size="14.00">cP</text>
</g>
<!-- Node8 -->
<g id="node8" class="node"><title>Node8</title>
<g id="a_node8"><a xlink:href="classmfem_1_1FiniteElementCollection.html" target="_top" xlink:title="mfem::FiniteElementCollection">
<polygon fill="white" stroke="black" points="480,-437.5 480,-460.5 682,-460.5 682,-437.5 480,-437.5"/>
<text text-anchor="middle" x="581" y="-445.3" font-family="Helvetica,sans-Serif" font-size="14.00">mfem::FiniteElementCollection</text>
</a>
</g>
</g>
<!-- Node8&#45;&gt;Node2 -->
<g id="edge13" class="edge"><title>Node8&#45;&gt;Node2</title>
<path fill="none" stroke="#9a32cd" stroke-dasharray="5,2" d="M692.14,-435.506C718.251,-430.25 745.593,-422.993 770,-413 807.121,-397.802 844.834,-368.93 864.37,-352.746"/>
<polygon fill="#9a32cd" stroke="#9a32cd" points="691.357,-432.093 682.201,-437.425 692.684,-438.966 691.357,-432.093"/>
<text text-anchor="middle" x="735" y="-435.8" font-family="Helvetica,sans-Serif" font-size="14.00"> fec</text>
</g>
<!-- Node9 -->
<g id="node9" class="node"><title>Node9</title>
<g id="a_node9"><a xlink:href="classmfem_1_1Operator.html" target="_top" xlink:title="Abstract operator. ">
<polygon fill="white" stroke="black" points="524.5,-395.5 524.5,-418.5 637.5,-418.5 637.5,-395.5 524.5,-395.5"/>
<text text-anchor="middle" x="581" y="-403.3" font-family="Helvetica,sans-Serif" font-size="14.00">mfem::Operator</text>
</a>
</g>
</g>
<!-- Node9&#45;&gt;Node2 -->
<g id="edge14" class="edge"><title>Node9&#45;&gt;Node2</title>
<path fill="none" stroke="#9a32cd" stroke-dasharray="5,2" d="M647.726,-401.446C684.129,-397.49 729.981,-391.051 770,-381 798.701,-373.792 830.313,-361.549 851.878,-352.502"/>
<polygon fill="#9a32cd" stroke="#9a32cd" points="647.301,-397.971 637.722,-402.497 648.033,-404.933 647.301,-397.971"/>
<text text-anchor="middle" x="735" y="-397.8" font-family="Helvetica,sans-Serif" font-size="14.00"> T</text>
</g>
<!-- Node10 -->
<g id="node10" class="node"><title>Node10</title>
<g id="a_node10"><a xlink:href="classmfem_1_1Array.html" target="_top" xlink:title="mfem::Array\&lt; HYPRE\l_Int \&gt;">
<polygon fill="white" stroke="red" points="804,-0 804,-38 954,-38 954,-0 804,-0"/>
<text text-anchor="start" x="812" y="-22.8" font-family="Helvetica,sans-Serif" font-size="14.00">mfem::Array&lt; HYPRE</text>
<text text-anchor="middle" x="879" y="-7.8" font-family="Helvetica,sans-Serif" font-size="14.00">_Int &gt;</text>
</a>
</g>
</g>
<!-- Node10&#45;&gt;Node1 -->
<g id="edge15" class="edge"><title>Node10&#45;&gt;Node1</title>
<path fill="none" stroke="#9a32cd" stroke-dasharray="5,2" d="M964.076,-21.5622C1015.19,-24.0066 1081.64,-28.7637 1140,-38 1166.36,-42.1717 1195.48,-49.3016 1218.2,-55.4476"/>
<polygon fill="#9a32cd" stroke="#9a32cd" points="964.215,-18.065 954.065,-21.1035 963.894,-25.0576 964.215,-18.065"/>
<text text-anchor="middle" x="1064" y="-41.8" font-family="Helvetica,sans-Serif" font-size="14.00"> face_nbr_glob_dof_map</text>
</g>
</g>
</svg>
