<?xml version="1.0" encoding="UTF-8" standalone="no"?>
<!DOCTYPE svg PUBLIC "-//W3C//DTD SVG 1.1//EN"
 "http://www.w3.org/Graphics/SVG/1.1/DTD/svg11.dtd">
<!-- Generated by graphviz version 2.30.1 (20170916.1124)
 -->
<!-- Title: mfem::VectorMassIntegrator Pages: 1 -->
<!--zoomable 165 -->
<svg id="main" version="1.1" xmlns="http://www.w3.org/2000/svg" xmlns:xlink="http://www.w3.org/1999/xlink" xml:space="preserve" onload="init(evt)">
<style type="text/css"><![CDATA[
.edge:hover path { stroke: red; }
.edge:hover polygon { stroke: red; fill: red; }
]]></style>
<script type="text/javascript"><![CDATA[
var edges = document.getElementsByTagName('g');
if (edges && edges.length) {
  for (var i=0;i<edges.length;i++) {
    if (edges[i].id.substr(0,4)=='edge') {
      edges[i].setAttribute('class','edge');
    }
  }
}
]]></script>
        <defs>
                <circle id="rim" cx="0" cy="0" r="7"/>
                <circle id="rim2" cx="0" cy="0" r="3.5"/>
                <g id="zoomPlus">
                        <use xlink:href="#rim" fill="#404040">
                                <set attributeName="fill" to="#808080" begin="zoomplus.mouseover" end="zoomplus.mouseout"/>
                        </use>
                        <path d="M-4,0h8M0,-4v8" fill="none" stroke="white" stroke-width="1.5" pointer-events="none"/>
                </g>
                <g id="zoomMin">
                        <use xlink:href="#rim" fill="#404040">
                                <set attributeName="fill" to="#808080" begin="zoomminus.mouseover" end="zoomminus.mouseout"/>
                        </use>
                        <path d="M-4,0h8" fill="none" stroke="white" stroke-width="1.5" pointer-events="none"/>
                </g>
                <g id="dirArrow">
                        <path fill="none" stroke="white" stroke-width="1.5" d="M0,-3.0v7 M-2.5,-0.5L0,-3.0L2.5,-0.5"/>
                </g>
               <g id="resetDef">
                       <use xlink:href="#rim2" fill="#404040">
                               <set attributeName="fill" to="#808080" begin="reset.mouseover" end="reset.mouseout"/>
                       </use>
               </g>
        </defs>

<script type="text/javascript">
var viewWidth = 1624;
var viewHeight = 165;
var sectionId = 'dynsection-1';
</script>
<script xlink:href="svgpan.js"/>
<svg id="graph" class="graph">
<g id="viewport">
<title>mfem::VectorMassIntegrator</title>
<polygon fill="white" stroke="white" points="-4,5 -4,-161 1621,-161 1621,5 -4,5"/>
<!-- Node1 -->
<g id="node1" class="node"><title>Node1</title>
<polygon fill="#bfbfbf" stroke="black" points="1426.5,-63.5 1426.5,-86.5 1615.5,-86.5 1615.5,-63.5 1426.5,-63.5"/>
<text text-anchor="middle" x="1521" y="-71.3" font-family="Helvetica,sans-Serif" font-size="14.00">mfem::VectorMassIntegrator</text>
</g>
<!-- Node2 -->
<g id="node2" class="node"><title>Node2</title>
<g id="a_node2"><a xlink:href="classmfem_1_1BilinearFormIntegrator.html" target="_top" xlink:title="Abstract base class BilinearFormIntegrator. ">
<polygon fill="white" stroke="black" points="1168,-126.5 1168,-149.5 1362,-149.5 1362,-126.5 1168,-126.5"/>
<text text-anchor="middle" x="1265" y="-134.3" font-family="Helvetica,sans-Serif" font-size="14.00">mfem::BilinearFormIntegrator</text>
</a>
</g>
</g>
<!-- Node2&#45;&gt;Node1 -->
<g id="edge1" class="edge"><title>Node2&#45;&gt;Node1</title>
<path fill="none" stroke="midnightblue" d="M1329.47,-124.298C1340.33,-121.901 1351.5,-119.405 1362,-117 1382.49,-112.309 1387.65,-111.249 1408,-106 1431.83,-99.8538 1458.39,-92.5252 1479.66,-86.5371"/>
<polygon fill="midnightblue" stroke="midnightblue" points="1328.63,-120.9 1319.61,-126.465 1330.13,-127.737 1328.63,-120.9"/>
</g>
<!-- Node3 -->
<g id="node3" class="node"><title>Node3</title>
<g id="a_node3"><a xlink:href="classmfem_1_1NonlinearFormIntegrator.html" target="_top" xlink:title="mfem::NonlinearFormIntegrator">
<polygon fill="white" stroke="black" points="922.5,-126.5 922.5,-149.5 1129.5,-149.5 1129.5,-126.5 922.5,-126.5"/>
<text text-anchor="middle" x="1026" y="-134.3" font-family="Helvetica,sans-Serif" font-size="14.00">mfem::NonlinearFormIntegrator</text>
</a>
</g>
</g>
<!-- Node3&#45;&gt;Node2 -->
<g id="edge2" class="edge"><title>Node3&#45;&gt;Node2</title>
<path fill="none" stroke="midnightblue" d="M1139.68,-138C1149.03,-138 1158.42,-138 1167.63,-138"/>
<polygon fill="midnightblue" stroke="midnightblue" points="1139.57,-134.5 1129.57,-138 1139.57,-141.5 1139.57,-134.5"/>
</g>
<!-- Node4 -->
<g id="node4" class="node"><title>Node4</title>
<g id="a_node4"><a xlink:href="classmfem_1_1IntegrationRule.html" target="_top" xlink:title="Class for an integration rule &#45; an Array of IntegrationPoint. ">
<polygon fill="white" stroke="black" points="686.5,-126.5 686.5,-149.5 837.5,-149.5 837.5,-126.5 686.5,-126.5"/>
<text text-anchor="middle" x="762" y="-134.3" font-family="Helvetica,sans-Serif" font-size="14.00">mfem::IntegrationRule</text>
</a>
</g>
</g>
<!-- Node4&#45;&gt;Node3 -->
<g id="edge3" class="edge"><title>Node4&#45;&gt;Node3</title>
<path fill="none" stroke="#9a32cd" stroke-dasharray="5,2" d="M847.762,-138C871.531,-138 897.631,-138 922.322,-138"/>
<polygon fill="#9a32cd" stroke="#9a32cd" points="847.728,-134.5 837.728,-138 847.728,-141.5 847.728,-134.5"/>
<text text-anchor="middle" x="880" y="-141.8" font-family="Helvetica,sans-Serif" font-size="14.00"> IntRule</text>
</g>
<!-- Node5 -->
<g id="node5" class="node"><title>Node5</title>
<g id="a_node5"><a xlink:href="classmfem_1_1Array.html" target="_top" xlink:title="mfem::Array\&lt; Integration\lPoint \&gt;">
<polygon fill="white" stroke="black" points="480.5,-119 480.5,-157 647.5,-157 647.5,-119 480.5,-119"/>
<text text-anchor="start" x="488.5" y="-141.8" font-family="Helvetica,sans-Serif" font-size="14.00">mfem::Array&lt; Integration</text>
<text text-anchor="middle" x="564" y="-126.8" font-family="Helvetica,sans-Serif" font-size="14.00">Point &gt;</text>
</a>
</g>
</g>
<!-- Node5&#45;&gt;Node4 -->
<g id="edge4" class="edge"><title>Node5&#45;&gt;Node4</title>
<path fill="none" stroke="midnightblue" d="M657.563,-138C667.208,-138 676.923,-138 686.334,-138"/>
<polygon fill="midnightblue" stroke="midnightblue" points="657.554,-134.5 647.554,-138 657.554,-141.5 657.554,-134.5"/>
</g>
<!-- Node6 -->
<g id="node6" class="node"><title>Node6</title>
<g id="a_node6"><a xlink:href="classmfem_1_1Memory.html" target="_top" xlink:title="mfem::Memory\&lt; Integration\lPoint \&gt;">
<polygon fill="white" stroke="black" points="226.5,-119 226.5,-157 411.5,-157 411.5,-119 226.5,-119"/>
<text text-anchor="start" x="234.5" y="-141.8" font-family="Helvetica,sans-Serif" font-size="14.00">mfem::Memory&lt; Integration</text>
<text text-anchor="middle" x="319" y="-126.8" font-family="Helvetica,sans-Serif" font-size="14.00">Point &gt;</text>
</a>
</g>
</g>
<!-- Node6&#45;&gt;Node5 -->
<g id="edge5" class="edge"><title>Node6&#45;&gt;Node5</title>
<path fill="none" stroke="#9a32cd" stroke-dasharray="5,2" d="M421.673,-138C441.23,-138 461.491,-138 480.355,-138"/>
<polygon fill="#9a32cd" stroke="#9a32cd" points="421.522,-134.5 411.522,-138 421.522,-141.5 421.522,-134.5"/>
<text text-anchor="middle" x="446" y="-141.8" font-family="Helvetica,sans-Serif" font-size="14.00"> data</text>
</g>
<!-- Node7 -->
<g id="node7" class="node"><title>Node7</title>
<g id="a_node7"><a xlink:href="classmfem_1_1IntegrationPoint.html" target="_top" xlink:title="Class for integration point with weight. ">
<polygon fill="white" stroke="black" points="0,-126.5 0,-149.5 154,-149.5 154,-126.5 0,-126.5"/>
<text text-anchor="middle" x="77" y="-134.3" font-family="Helvetica,sans-Serif" font-size="14.00">mfem::IntegrationPoint</text>
</a>
</g>
</g>
<!-- Node7&#45;&gt;Node6 -->
<g id="edge6" class="edge"><title>Node7&#45;&gt;Node6</title>
<path fill="none" stroke="#9a32cd" stroke-dasharray="5,2" d="M164.348,-138C184.495,-138 206.018,-138 226.384,-138"/>
<polygon fill="#9a32cd" stroke="#9a32cd" points="164.267,-134.5 154.267,-138 164.267,-141.5 164.267,-134.5"/>
<text text-anchor="middle" x="190" y="-141.8" font-family="Helvetica,sans-Serif" font-size="14.00"> h_ptr</text>
</g>
<!-- Node8 -->
<g id="node8" class="node"><title>Node8</title>
<g id="a_node8"><a xlink:href="classmfem_1_1MatrixCoefficient.html" target="_top" xlink:title="mfem::MatrixCoefficient">
<polygon fill="white" stroke="black" points="1184.5,-84.5 1184.5,-107.5 1345.5,-107.5 1345.5,-84.5 1184.5,-84.5"/>
<text text-anchor="middle" x="1265" y="-92.3" font-family="Helvetica,sans-Serif" font-size="14.00">mfem::MatrixCoefficient</text>
</a>
</g>
</g>
<!-- Node8&#45;&gt;Node1 -->
<g id="edge7" class="edge"><title>Node8&#45;&gt;Node1</title>
<path fill="none" stroke="#9a32cd" stroke-dasharray="5,2" d="M1355.71,-88.5829C1378.62,-86.6893 1403.3,-84.6488 1426.39,-82.7395"/>
<polygon fill="#9a32cd" stroke="#9a32cd" points="1355.35,-85.1009 1345.67,-89.4131 1355.92,-92.0771 1355.35,-85.1009"/>
<text text-anchor="middle" x="1394" y="-90.8" font-family="Helvetica,sans-Serif" font-size="14.00"> MQ</text>
</g>
<!-- Node9 -->
<g id="node9" class="node"><title>Node9</title>
<g id="a_node9"><a xlink:href="classmfem_1_1VectorCoefficient.html" target="_top" xlink:title="mfem::VectorCoefficient">
<polygon fill="white" stroke="black" points="1184,-42.5 1184,-65.5 1346,-65.5 1346,-42.5 1184,-42.5"/>
<text text-anchor="middle" x="1265" y="-50.3" font-family="Helvetica,sans-Serif" font-size="14.00">mfem::VectorCoefficient</text>
</a>
</g>
</g>
<!-- Node9&#45;&gt;Node1 -->
<g id="edge8" class="edge"><title>Node9&#45;&gt;Node1</title>
<path fill="none" stroke="#9a32cd" stroke-dasharray="5,2" d="M1355.99,-61.4405C1378.75,-63.3217 1403.24,-65.3464 1426.17,-67.2428"/>
<polygon fill="#9a32cd" stroke="#9a32cd" points="1356.27,-57.9517 1346.02,-60.6157 1355.7,-64.9279 1356.27,-57.9517"/>
<text text-anchor="middle" x="1394" y="-69.8" font-family="Helvetica,sans-Serif" font-size="14.00"> VQ</text>
</g>
<!-- Node10 -->
<g id="node10" class="node"><title>Node10</title>
<g id="a_node10"><a xlink:href="classmfem_1_1Coefficient.html" target="_top" xlink:title="Base class Coefficient that may optionally depend on time. ">
<polygon fill="white" stroke="black" points="1203.5,-0.5 1203.5,-23.5 1326.5,-23.5 1326.5,-0.5 1203.5,-0.5"/>
<text text-anchor="middle" x="1265" y="-8.3" font-family="Helvetica,sans-Serif" font-size="14.00">mfem::Coefficient</text>
</a>
</g>
</g>
<!-- Node10&#45;&gt;Node1 -->
<g id="edge9" class="edge"><title>Node10&#45;&gt;Node1</title>
<path fill="none" stroke="#9a32cd" stroke-dasharray="5,2" d="M1330.43,-25.7244C1341,-28.081 1351.82,-30.5588 1362,-33 1401.88,-42.5605 1447.08,-54.7096 1478.89,-63.479"/>
<polygon fill="#9a32cd" stroke="#9a32cd" points="1330.93,-22.25 1320.41,-23.5073 1329.42,-29.0848 1330.93,-22.25"/>
<text text-anchor="middle" x="1394" y="-47.8" font-family="Helvetica,sans-Serif" font-size="14.00"> Q</text>
</g>
</g>
</svg>
        <g id="navigator" transform="translate(0 0)" fill="#404254">
                <rect fill="#f2f5e9" fill-opacity="0.5" stroke="#606060" stroke-width=".5" x="0" y="0" width="60" height="60"/>
                <use id="zoomplus" xlink:href="#zoomPlus" x="17" y="9" onmousedown="handleZoom(evt,'in')"/>
                <use id="zoomminus" xlink:href="#zoomMin" x="42" y="9" onmousedown="handleZoom(evt,'out')"/>
                <use id="reset" xlink:href="#resetDef" x="30" y="36" onmousedown="handleReset()"/>
                <g id="arrowUp" xlink:href="#dirArrow" transform="translate(30 24)" onmousedown="handlePan(0,-1)">
                  <use xlink:href="#rim" fill="#404040">
                        <set attributeName="fill" to="#808080" begin="arrowUp.mouseover" end="arrowUp.mouseout"/>
                  </use>
                  <path fill="none" stroke="white" stroke-width="1.5" d="M0,-3.0v7 M-2.5,-0.5L0,-3.0L2.5,-0.5"/>
                </g>
                <g id="arrowRight" xlink:href="#dirArrow" transform="rotate(90) translate(36 -43)" onmousedown="handlePan(1,0)">
                  <use xlink:href="#rim" fill="#404040">
                        <set attributeName="fill" to="#808080" begin="arrowRight.mouseover" end="arrowRight.mouseout"/>
                  </use>
                  <path fill="none" stroke="white" stroke-width="1.5" d="M0,-3.0v7 M-2.5,-0.5L0,-3.0L2.5,-0.5"/>
                </g>
                <g id="arrowDown" xlink:href="#dirArrow" transform="rotate(180) translate(-30 -48)" onmousedown="handlePan(0,1)">
                  <use xlink:href="#rim" fill="#404040">
                        <set attributeName="fill" to="#808080" begin="arrowDown.mouseover" end="arrowDown.mouseout"/>
                  </use>
                  <path fill="none" stroke="white" stroke-width="1.5" d="M0,-3.0v7 M-2.5,-0.5L0,-3.0L2.5,-0.5"/>
                </g>
                <g id="arrowLeft" xlink:href="#dirArrow" transform="rotate(270) translate(-36 17)" onmousedown="handlePan(-1,0)">
                  <use xlink:href="#rim" fill="#404040">
                        <set attributeName="fill" to="#808080" begin="arrowLeft.mouseover" end="arrowLeft.mouseout"/>
                  </use>
                  <path fill="none" stroke="white" stroke-width="1.5" d="M0,-3.0v7 M-2.5,-0.5L0,-3.0L2.5,-0.5"/>
                </g>
        </g>
        <svg viewBox="0 0 15 15" width="100%" height="30px" preserveAspectRatio="xMaxYMin meet">
         <g id="arrow_out" transform="scale(0.3 0.3)">
          <a xlink:href="classmfem_1_1VectorMassIntegrator__coll__graph_org.svg" target="_base">
           <rect id="button" ry="5" rx="5" y="6" x="6" height="38" width="38"
                fill="#f2f5e9" fill-opacity="0.5" stroke="#606060" stroke-width="1.0"/>
           <path id="arrow"
             d="M 11.500037,31.436501 C 11.940474,20.09759 22.043105,11.32322 32.158766,21.979434 L 37.068811,17.246167 C 37.068811,17.246167 37.088388,32 37.088388,32 L 22.160133,31.978069 C 22.160133,31.978069 26.997745,27.140456 26.997745,27.140456 C 18.528582,18.264221 13.291696,25.230495 11.500037,31.436501 z"
             style="fill:#404040;"/>
          </a>
         </g>
        </svg>
</svg>
