<?xml version="1.0" encoding="UTF-8" standalone="no"?>
<!DOCTYPE svg PUBLIC "-//W3C//DTD SVG 1.1//EN"
 "http://www.w3.org/Graphics/SVG/1.1/DTD/svg11.dtd">
<!-- Generated by graphviz version 2.40.1 (20161225.0304)
 -->
<!-- Title: mfem::L2Pos_TriangleElement Pages: 1 -->
<svg width="362pt" height="431pt"
 viewBox="0.00 0.00 362.46 431.00" xmlns="http://www.w3.org/2000/svg" xmlns:xlink="http://www.w3.org/1999/xlink">
<g id="graph0" class="graph" transform="scale(1 1) rotate(0) translate(4 427)">
<title>mfem::L2Pos_TriangleElement</title>
<polygon fill="#ffffff" stroke="transparent" points="-4,4 -4,-427 358.4634,-427 358.4634,4 -4,4"/>
<!-- Node4 -->
<g id="node1" class="node">
<title>Node4</title>
<polygon fill="#bfbfbf" stroke="#000000" points="131.3823,-.5 131.3823,-22.5 339.0688,-22.5 339.0688,-.5 131.3823,-.5"/>
<text text-anchor="middle" x="235.2256" y="-7.3" font-family="Helvetica,sans-Serif" font-size="14.00" fill="#000000">mfem::L2Pos_TriangleElement</text>
</g>
<!-- Node5 -->
<g id="node2" class="node">
<title>Node5</title>
<g id="a_node2"><a xlink:href="classmfem_1_1PositiveFiniteElement.html" target="_top" xlink:title="mfem::PositiveFiniteElement">
<polygon fill="#ffffff" stroke="#000000" points="138.5293,-60.5 138.5293,-82.5 331.9219,-82.5 331.9219,-60.5 138.5293,-60.5"/>
<text text-anchor="middle" x="235.2256" y="-67.3" font-family="Helvetica,sans-Serif" font-size="14.00" fill="#000000">mfem::PositiveFiniteElement</text>
</a>
</g>
</g>
<!-- Node5&#45;&gt;Node4 -->
<g id="edge1" class="edge">
<title>Node5&#45;&gt;Node4</title>
<path fill="none" stroke="#191970" d="M235.2256,-50.4183C235.2256,-41.1393 235.2256,-30.6082 235.2256,-22.8428"/>
<polygon fill="#191970" stroke="#191970" points="231.7257,-50.495 235.2256,-60.4951 238.7257,-50.4951 231.7257,-50.495"/>
</g>
<!-- Node6 -->
<g id="node3" class="node">
<title>Node6</title>
<g id="a_node3"><a xlink:href="classmfem_1_1ScalarFiniteElement.html" target="_top" xlink:title="mfem::ScalarFiniteElement">
<polygon fill="#ffffff" stroke="#000000" points="143.1982,-120.5 143.1982,-142.5 327.2529,-142.5 327.2529,-120.5 143.1982,-120.5"/>
<text text-anchor="middle" x="235.2256" y="-127.3" font-family="Helvetica,sans-Serif" font-size="14.00" fill="#000000">mfem::ScalarFiniteElement</text>
</a>
</g>
</g>
<!-- Node6&#45;&gt;Node5 -->
<g id="edge2" class="edge">
<title>Node6&#45;&gt;Node5</title>
<path fill="none" stroke="#191970" d="M235.2256,-110.4183C235.2256,-101.1393 235.2256,-90.6082 235.2256,-82.8428"/>
<polygon fill="#191970" stroke="#191970" points="231.7257,-110.495 235.2256,-120.4951 238.7257,-110.4951 231.7257,-110.495"/>
</g>
<!-- Node7 -->
<g id="node4" class="node">
<title>Node7</title>
<g id="a_node4"><a xlink:href="classmfem_1_1FiniteElement.html" target="_top" xlink:title="Abstract class for Finite Elements. ">
<polygon fill="#ffffff" stroke="#000000" points="94.0396,-193.5 94.0396,-215.5 238.4116,-215.5 238.4116,-193.5 94.0396,-193.5"/>
<text text-anchor="middle" x="166.2256" y="-200.3" font-family="Helvetica,sans-Serif" font-size="14.00" fill="#000000">mfem::FiniteElement</text>
</a>
</g>
</g>
<!-- Node7&#45;&gt;Node6 -->
<g id="edge3" class="edge">
<title>Node7&#45;&gt;Node6</title>
<path fill="none" stroke="#191970" d="M183.7351,-185.9755C196.6386,-172.3239 213.7682,-154.2013 224.6473,-142.6915"/>
<polygon fill="#191970" stroke="#191970" points="181.0308,-183.7413 176.7052,-193.4129 186.118,-188.5497 181.0308,-183.7413"/>
</g>
<!-- Node8 -->
<g id="node5" class="node">
<title>Node8</title>
<g id="a_node5"><a xlink:href="classmfem_1_1IntegrationRule.html" target="_top" xlink:title="Class for an integration rule &#45; an Array of IntegrationPoint. ">
<polygon fill="#ffffff" stroke="#000000" points="8.3604,-266.5 8.3604,-288.5 162.0908,-288.5 162.0908,-266.5 8.3604,-266.5"/>
<text text-anchor="middle" x="85.2256" y="-273.3" font-family="Helvetica,sans-Serif" font-size="14.00" fill="#000000">mfem::IntegrationRule</text>
</a>
</g>
</g>
<!-- Node8&#45;&gt;Node7 -->
<g id="edge4" class="edge">
<title>Node8&#45;&gt;Node7</title>
<path fill="none" stroke="#9a32cd" stroke-dasharray="5,2" d="M105.3568,-259.357C120.5513,-245.6632 140.9172,-227.3088 153.8077,-215.6915"/>
<polygon fill="#9a32cd" stroke="#9a32cd" points="102.613,-257.1182 97.5277,-266.4129 107.2993,-262.3181 102.613,-257.1182"/>
<text text-anchor="middle" x="155.4048" y="-236.8" font-family="Helvetica,sans-Serif" font-size="14.00" fill="#000000"> Nodes</text>
</g>
<!-- Node9 -->
<g id="node6" class="node">
<title>Node9</title>
<g id="a_node6"><a xlink:href="classmfem_1_1Array.html" target="_top" xlink:title="mfem::Array\&lt; Integration\lPoint \&gt;">
<polygon fill="#ffffff" stroke="#000000" points="0,-326.5 0,-362.5 170.4512,-362.5 170.4512,-326.5 0,-326.5"/>
<text text-anchor="start" x="8" y="-347.3" font-family="Helvetica,sans-Serif" font-size="14.00" fill="#000000">mfem::Array&lt; Integration</text>
<text text-anchor="middle" x="85.2256" y="-333.3" font-family="Helvetica,sans-Serif" font-size="14.00" fill="#000000">Point &gt;</text>
</a>
</g>
</g>
<!-- Node9&#45;&gt;Node8 -->
<g id="edge5" class="edge">
<title>Node9&#45;&gt;Node8</title>
<path fill="none" stroke="#191970" d="M85.2256,-316.1463C85.2256,-306.5368 85.2256,-296.3485 85.2256,-288.8467"/>
<polygon fill="#191970" stroke="#191970" points="81.7257,-316.1919 85.2256,-326.192 88.7257,-316.192 81.7257,-316.1919"/>
</g>
<!-- Node10 -->
<g id="node7" class="node">
<title>Node10</title>
<g id="a_node7"><a xlink:href="classmfem_1_1BaseArray.html" target="_top" xlink:title="Base class for array container. ">
<polygon fill="#ffffff" stroke="#000000" points="23.1567,-400.5 23.1567,-422.5 147.2944,-422.5 147.2944,-400.5 23.1567,-400.5"/>
<text text-anchor="middle" x="85.2256" y="-407.3" font-family="Helvetica,sans-Serif" font-size="14.00" fill="#000000">mfem::BaseArray</text>
</a>
</g>
</g>
<!-- Node10&#45;&gt;Node9 -->
<g id="edge6" class="edge">
<title>Node10&#45;&gt;Node9</title>
<path fill="none" stroke="#191970" d="M85.2256,-390.151C85.2256,-381.3013 85.2256,-371.1428 85.2256,-362.6588"/>
<polygon fill="#191970" stroke="#191970" points="81.7257,-390.4363 85.2256,-400.4363 88.7257,-390.4363 81.7257,-390.4363"/>
</g>
<!-- Node11 -->
<g id="node8" class="node">
<title>Node11</title>
<g id="a_node8"><a xlink:href="classmfem_1_1DenseMatrix.html" target="_top" xlink:title="Data type dense matrix using column&#45;major storage. ">
<polygon fill="#ffffff" stroke="#000000" points="180.5464,-266.5 180.5464,-288.5 317.9048,-288.5 317.9048,-266.5 180.5464,-266.5"/>
<text text-anchor="middle" x="249.2256" y="-273.3" font-family="Helvetica,sans-Serif" font-size="14.00" fill="#000000">mfem::DenseMatrix</text>
</a>
</g>
</g>
<!-- Node11&#45;&gt;Node7 -->
<g id="edge7" class="edge">
<title>Node11&#45;&gt;Node7</title>
<path fill="none" stroke="#9a32cd" stroke-dasharray="5,2" d="M229.0284,-259.7362C213.4147,-246.0037 192.2812,-227.4164 178.9501,-215.6915"/>
<polygon fill="#9a32cd" stroke="#9a32cd" points="226.7992,-262.4367 236.6197,-266.4129 231.4222,-257.1805 226.7992,-262.4367"/>
<text text-anchor="middle" x="239.7427" y="-236.8" font-family="Helvetica,sans-Serif" font-size="14.00" fill="#000000"> vshape</text>
</g>
<!-- Node12 -->
<g id="node9" class="node">
<title>Node12</title>
<g id="a_node9"><a xlink:href="classmfem_1_1Matrix.html" target="_top" xlink:title="Abstract data type matrix. ">
<polygon fill="#ffffff" stroke="#ff0000" points="200.7808,-333.5 200.7808,-355.5 297.6704,-355.5 297.6704,-333.5 200.7808,-333.5"/>
<text text-anchor="middle" x="249.2256" y="-340.3" font-family="Helvetica,sans-Serif" font-size="14.00" fill="#000000">mfem::Matrix</text>
</a>
</g>
</g>
<!-- Node12&#45;&gt;Node11 -->
<g id="edge8" class="edge">
<title>Node12&#45;&gt;Node11</title>
<path fill="none" stroke="#191970" d="M249.2256,-323.3603C249.2256,-311.914 249.2256,-298.2284 249.2256,-288.8041"/>
<polygon fill="#191970" stroke="#191970" points="245.7257,-323.4363 249.2256,-333.4363 252.7257,-323.4363 245.7257,-323.4363"/>
</g>
<!-- Node14 -->
<g id="node10" class="node">
<title>Node14</title>
<g id="a_node10"><a xlink:href="classmfem_1_1Vector.html" target="_top" xlink:title="Vector data type. ">
<polygon fill="#ffffff" stroke="#000000" points="255.9878,-193.5 255.9878,-215.5 354.4634,-215.5 354.4634,-193.5 255.9878,-193.5"/>
<text text-anchor="middle" x="305.2256" y="-200.3" font-family="Helvetica,sans-Serif" font-size="14.00" fill="#000000">mfem::Vector</text>
</a>
</g>
</g>
<!-- Node14&#45;&gt;Node6 -->
<g id="edge9" class="edge">
<title>Node14&#45;&gt;Node6</title>
<path fill="none" stroke="#9a32cd" stroke-dasharray="5,2" d="M287.4623,-185.9755C274.3718,-172.3239 256.9939,-154.2013 245.9571,-142.6915"/>
<polygon fill="#9a32cd" stroke="#9a32cd" points="285.1466,-188.6175 294.5941,-193.4129 290.1991,-183.7726 285.1466,-188.6175"/>
<text text-anchor="middle" x="304.6357" y="-163.8" font-family="Helvetica,sans-Serif" font-size="14.00" fill="#000000"> c_shape</text>
</g>
</g>
</svg>
