<?xml version="1.0" encoding="UTF-8" standalone="no"?>
<!DOCTYPE svg PUBLIC "-//W3C//DTD SVG 1.1//EN"
 "http://www.w3.org/Graphics/SVG/1.1/DTD/svg11.dtd">
<!-- Generated by graphviz version 2.40.1 (20161225.0304)
 -->
<!-- Title: mfem::miniapps::RT_FESpace Pages: 1 -->
<!--zoomable 624 -->
<svg id="main" version="1.1" xmlns="http://www.w3.org/2000/svg" xmlns:xlink="http://www.w3.org/1999/xlink" xml:space="preserve" onload="init(evt)">
<style type="text/css"><![CDATA[
.edge:hover path { stroke: red; }
.edge:hover polygon { stroke: red; fill: red; }
]]></style>
<script type="text/javascript"><![CDATA[
var edges = document.getElementsByTagName('g');
if (edges && edges.length) {
  for (var i=0;i<edges.length;i++) {
    if (edges[i].id.substr(0,4)=='edge') {
      edges[i].setAttribute('class','edge');
    }
  }
}
]]></script>
        <defs>
                <circle id="rim" cx="0" cy="0" r="7"/>
                <circle id="rim2" cx="0" cy="0" r="3.5"/>
                <g id="zoomPlus">
                        <use xlink:href="#rim" fill="#404040">
                                <set attributeName="fill" to="#808080" begin="zoomplus.mouseover" end="zoomplus.mouseout"/>
                        </use>
                        <path d="M-4,0h8M0,-4v8" fill="none" stroke="white" stroke-width="1.5" pointer-events="none"/>
                </g>
                <g id="zoomMin">
                        <use xlink:href="#rim" fill="#404040">
                                <set attributeName="fill" to="#808080" begin="zoomminus.mouseover" end="zoomminus.mouseout"/>
                        </use>
                        <path d="M-4,0h8" fill="none" stroke="white" stroke-width="1.5" pointer-events="none"/>
                </g>
                <g id="dirArrow">
                        <path fill="none" stroke="white" stroke-width="1.5" d="M0,-3.0v7 M-2.5,-0.5L0,-3.0L2.5,-0.5"/>
                </g>
               <g id="resetDef">
                       <use xlink:href="#rim2" fill="#404040">
                               <set attributeName="fill" to="#808080" begin="reset.mouseover" end="reset.mouseout"/>
                       </use>
               </g>
        </defs>

<script type="text/javascript">
var viewWidth = 1319;
var viewHeight = 624;
var sectionId = 'dynsection-1';
</script>
<script xlink:href="svgpan.js"/>
<svg id="graph" class="graph">
<g id="viewport">
<title>mfem::miniapps::RT_FESpace</title>
<polygon fill="#ffffff" stroke="transparent" points="-4,4 -4,-619.5 1314.7617,-619.5 1314.7617,4 -4,4"/>
<!-- Node2 -->
<g id="node1" class="node">
<title>Node2</title>
<polygon fill="#bfbfbf" stroke="#000000" points="1169.7598,-116.5 1169.7598,-152.5 1310.7617,-152.5 1310.7617,-116.5 1169.7598,-116.5"/>
<text text-anchor="start" x="1177.7598" y="-137.3" font-family="Helvetica,sans-Serif" font-size="14.00" fill="#000000">mfem::miniapps::RT</text>
<text text-anchor="middle" x="1240.2607" y="-123.3" font-family="Helvetica,sans-Serif" font-size="14.00" fill="#000000">_FESpace</text>
</g>
<!-- Node3 -->
<g id="node2" class="node">
<title>Node3</title>
<g id="a_node2"><a xlink:href="classmfem_1_1FiniteElementSpace.html" target="_top" xlink:title="Class FiniteElementSpace &#45; responsible for providing FEM view of the mesh, mainly managing the set of...">
<polygon fill="#ffffff" stroke="#000000" points="948.6914,-123.5 948.6914,-145.5 1132.7598,-145.5 1132.7598,-123.5 948.6914,-123.5"/>
<text text-anchor="middle" x="1040.7256" y="-130.3" font-family="Helvetica,sans-Serif" font-size="14.00" fill="#000000">mfem::FiniteElementSpace</text>
</a>
</g>
</g>
<!-- Node3&#45;&gt;Node2 -->
<g id="edge1" class="edge">
<title>Node3&#45;&gt;Node2</title>
<path fill="none" stroke="#191970" d="M1143.0551,-134.5C1152.0529,-134.5 1161.0228,-134.5 1169.6719,-134.5"/>
<polygon fill="#191970" stroke="#191970" points="1142.9002,-131.0001 1132.9002,-134.5 1142.9002,-138.0001 1142.9002,-131.0001"/>
</g>
<!-- Node4 -->
<g id="node3" class="node">
<title>Node4</title>
<g id="a_node3"><a xlink:href="classmfem_1_1Mesh.html" target="_top" xlink:title="mfem::Mesh">
<polygon fill="#ffffff" stroke="#ff0000" points="405.4229,-252.5 405.4229,-274.5 498.4365,-274.5 498.4365,-252.5 405.4229,-252.5"/>
<text text-anchor="middle" x="451.9297" y="-259.3" font-family="Helvetica,sans-Serif" font-size="14.00" fill="#000000">mfem::Mesh</text>
</a>
</g>
</g>
<!-- Node4&#45;&gt;Node3 -->
<g id="edge2" class="edge">
<title>Node4&#45;&gt;Node3</title>
<path fill="none" stroke="#9a32cd" stroke-dasharray="5,2" d="M480.9073,-247.8755C492.7505,-242.024 506.7572,-235.7673 519.9961,-231.5 602.5979,-204.8748 846.4723,-164.7804 968.9014,-145.5526"/>
<polygon fill="#9a32cd" stroke="#9a32cd" points="479.2599,-244.7866 471.929,-252.4358 482.4299,-251.0277 479.2599,-244.7866"/>
<text text-anchor="middle" x="738.1953" y="-205.3" font-family="Helvetica,sans-Serif" font-size="14.00" fill="#000000"> mesh</text>
</g>
<!-- Node39 -->
<g id="node6" class="node">
<title>Node39</title>
<g id="a_node6"><a xlink:href="classmfem_1_1NURBSExtension.html" target="_top" xlink:title="mfem::NURBSExtension">
<polygon fill="#ffffff" stroke="#ff0000" points="653.561,-238.5 653.561,-260.5 822.8296,-260.5 822.8296,-238.5 653.561,-238.5"/>
<text text-anchor="middle" x="738.1953" y="-245.3" font-family="Helvetica,sans-Serif" font-size="14.00" fill="#000000">mfem::NURBSExtension</text>
</a>
</g>
</g>
<!-- Node4&#45;&gt;Node39 -->
<g id="edge6" class="edge">
<title>Node4&#45;&gt;Node39</title>
<path fill="none" stroke="#9a32cd" stroke-dasharray="5,2" d="M489.1317,-249.1651C499.0147,-245.9987 509.7833,-243.1095 519.9961,-241.5 563.7133,-234.6105 612.938,-235.6688 653.5542,-238.8587"/>
<polygon fill="#9a32cd" stroke="#9a32cd" points="487.9507,-245.8697 479.5974,-252.3868 490.1916,-252.5014 487.9507,-245.8697"/>
<text text-anchor="middle" x="568.6338" y="-244.3" font-family="Helvetica,sans-Serif" font-size="14.00" fill="#000000"> patchTopo</text>
</g>
<!-- Node5 -->
<g id="node4" class="node">
<title>Node5</title>
<g id="a_node4"><a xlink:href="classmfem_1_1IsoparametricTransformation.html" target="_top" xlink:title="mfem::IsoparametricTransformation">
<polygon fill="#ffffff" stroke="#ff0000" points="0,-298.5 0,-320.5 237.2178,-320.5 237.2178,-298.5 0,-298.5"/>
<text text-anchor="middle" x="118.6089" y="-305.3" font-family="Helvetica,sans-Serif" font-size="14.00" fill="#000000">mfem::IsoparametricTransformation</text>
</a>
</g>
</g>
<!-- Node5&#45;&gt;Node4 -->
<g id="edge3" class="edge">
<title>Node5&#45;&gt;Node4</title>
<path fill="none" stroke="#9a32cd" stroke-dasharray="5,2" d="M247.5089,-305.4568C291.1546,-302.3327 339.9518,-296.8993 383.8633,-287.5 397.9538,-284.4839 413.1205,-279.3345 425.553,-274.577"/>
<polygon fill="#9a32cd" stroke="#9a32cd" points="247.1467,-301.9733 237.4081,-306.1456 247.623,-308.957 247.1467,-301.9733"/>
<text text-anchor="middle" x="319.5405" y="-348.3" font-family="Helvetica,sans-Serif" font-size="14.00" fill="#000000"> FaceTransformation</text>
<text text-anchor="middle" x="319.5405" y="-334.3" font-family="Helvetica,sans-Serif" font-size="14.00" fill="#000000">Transformation2</text>
<text text-anchor="middle" x="319.5405" y="-320.3" font-family="Helvetica,sans-Serif" font-size="14.00" fill="#000000">Transformation</text>
<text text-anchor="middle" x="319.5405" y="-306.3" font-family="Helvetica,sans-Serif" font-size="14.00" fill="#000000">EdgeTransformation</text>
</g>
<!-- Node11 -->
<g id="node5" class="node">
<title>Node11</title>
<g id="a_node5"><a xlink:href="classmfem_1_1Array.html" target="_top" xlink:title="mfem::Array\&lt; int \&gt;">
<polygon fill="#ffffff" stroke="#ff0000" points="53.0366,-448.5 53.0366,-470.5 184.1812,-470.5 184.1812,-448.5 53.0366,-448.5"/>
<text text-anchor="middle" x="118.6089" y="-455.3" font-family="Helvetica,sans-Serif" font-size="14.00" fill="#000000">mfem::Array&lt; int &gt;</text>
</a>
</g>
</g>
<!-- Node11&#45;&gt;Node3 -->
<g id="edge11" class="edge">
<title>Node11&#45;&gt;Node3</title>
<path fill="none" stroke="#9a32cd" stroke-dasharray="5,2" d="M139.4923,-477.2411C197.1251,-523.9631 363.3202,-643.5935 501.9961,-595.5 768.3304,-503.1339 989.2599,-207.1307 1032.8996,-145.72"/>
<polygon fill="#9a32cd" stroke="#9a32cd" points="141.4379,-474.3092 131.4933,-470.6546 136.9883,-479.7131 141.4379,-474.3092"/>
<text text-anchor="middle" x="568.6338" y="-604.3" font-family="Helvetica,sans-Serif" font-size="14.00" fill="#000000"> dof_ldof_array</text>
<text text-anchor="middle" x="568.6338" y="-590.3" font-family="Helvetica,sans-Serif" font-size="14.00" fill="#000000">dof_elem_array</text>
</g>
<!-- Node11&#45;&gt;Node4 -->
<g id="edge4" class="edge">
<title>Node11&#45;&gt;Node4</title>
<path fill="none" stroke="#9a32cd" stroke-dasharray="5,2" d="M145.2433,-443.0596C172.0877,-427.1718 215.1646,-403.5095 255.2178,-389.5 310.2786,-370.2411 335.273,-395.7736 383.8633,-363.5 417.6267,-341.0744 439.1684,-295.6249 447.7262,-274.6134"/>
<polygon fill="#9a32cd" stroke="#9a32cd" points="143.2344,-440.1831 136.4567,-448.3265 146.8333,-446.1871 143.2344,-440.1831"/>
<text text-anchor="middle" x="319.5405" y="-434.3" font-family="Helvetica,sans-Serif" font-size="14.00" fill="#000000"> attributes</text>
<text text-anchor="middle" x="319.5405" y="-420.3" font-family="Helvetica,sans-Serif" font-size="14.00" fill="#000000">be_to_edge</text>
<text text-anchor="middle" x="319.5405" y="-406.3" font-family="Helvetica,sans-Serif" font-size="14.00" fill="#000000">be_to_face</text>
<text text-anchor="middle" x="319.5405" y="-392.3" font-family="Helvetica,sans-Serif" font-size="14.00" fill="#000000">bdr_attributes</text>
</g>
<!-- Node11&#45;&gt;Node39 -->
<g id="edge7" class="edge">
<title>Node11&#45;&gt;Node39</title>
<path fill="none" stroke="#9a32cd" stroke-dasharray="5,2" d="M194.4349,-464.4337C248.3093,-465.799 321.8079,-463.2768 383.8633,-445.5 527.8125,-404.2632 677.5168,-295.9609 723.7468,-260.7416"/>
<polygon fill="#9a32cd" stroke="#9a32cd" points="194.3732,-460.9303 184.2713,-464.1244 194.1602,-467.9271 194.3732,-460.9303"/>
<text text-anchor="middle" x="451.9297" y="-580.3" font-family="Helvetica,sans-Serif" font-size="14.00" fill="#000000"> v_spaceOffsets</text>
<text text-anchor="middle" x="451.9297" y="-566.3" font-family="Helvetica,sans-Serif" font-size="14.00" fill="#000000">p_meshOffsets</text>
<text text-anchor="middle" x="451.9297" y="-552.3" font-family="Helvetica,sans-Serif" font-size="14.00" fill="#000000">edge_to_knot</text>
<text text-anchor="middle" x="451.9297" y="-538.3" font-family="Helvetica,sans-Serif" font-size="14.00" fill="#000000">f_spaceOffsets</text>
<text text-anchor="middle" x="451.9297" y="-524.3" font-family="Helvetica,sans-Serif" font-size="14.00" fill="#000000">e_meshOffsets</text>
<text text-anchor="middle" x="451.9297" y="-510.3" font-family="Helvetica,sans-Serif" font-size="14.00" fill="#000000">el_to_patch</text>
<text text-anchor="middle" x="451.9297" y="-496.3" font-family="Helvetica,sans-Serif" font-size="14.00" fill="#000000">p_spaceOffsets</text>
<text text-anchor="middle" x="451.9297" y="-482.3" font-family="Helvetica,sans-Serif" font-size="14.00" fill="#000000">bel_to_patch</text>
<text text-anchor="middle" x="451.9297" y="-468.3" font-family="Helvetica,sans-Serif" font-size="14.00" fill="#000000">e_spaceOffsets</text>
<text text-anchor="middle" x="451.9297" y="-454.3" font-family="Helvetica,sans-Serif" font-size="14.00" fill="#000000">v_meshOffsets</text>
<text text-anchor="middle" x="451.9297" y="-440.3" font-family="Helvetica,sans-Serif" font-size="14.00" fill="#000000">...</text>
</g>
<!-- Node39&#45;&gt;Node3 -->
<g id="edge12" class="edge">
<title>Node39&#45;&gt;Node3</title>
<path fill="none" stroke="#9a32cd" stroke-dasharray="5,2" d="M833.4009,-244.2176C865.29,-239.9782 900.4117,-232.5229 930.6914,-219.5 972.3808,-201.57 1012.181,-164.1336 1030.3835,-145.5106"/>
<polygon fill="#9a32cd" stroke="#9a32cd" points="832.6653,-240.7819 823.1711,-245.484 833.5253,-247.7289 832.6653,-240.7819"/>
<text text-anchor="middle" x="894.9053" y="-242.3" font-family="Helvetica,sans-Serif" font-size="14.00" fill="#000000"> NURBSext</text>
</g>
<!-- Node39&#45;&gt;Node4 -->
<g id="edge5" class="edge">
<title>Node39&#45;&gt;Node4</title>
<path fill="none" stroke="#9a32cd" stroke-dasharray="5,2" d="M643.1043,-257.8893C634.3749,-258.5007 625.6626,-259.0519 617.2715,-259.5 577.273,-261.6359 531.7701,-262.6317 498.6388,-263.0958"/>
<polygon fill="#9a32cd" stroke="#9a32cd" points="643.6212,-261.3611 653.3417,-257.1465 643.1146,-254.3794 643.6212,-261.3611"/>
<text text-anchor="middle" x="568.6338" y="-265.3" font-family="Helvetica,sans-Serif" font-size="14.00" fill="#000000"> NURBSext</text>
</g>
<!-- Node24 -->
<g id="node7" class="node">
<title>Node24</title>
<g id="a_node7"><a xlink:href="classmfem_1_1Table.html" target="_top" xlink:title="mfem::Table">
<polygon fill="#ffffff" stroke="#000000" points="72.4849,-158.5 72.4849,-180.5 164.7329,-180.5 164.7329,-158.5 72.4849,-158.5"/>
<text text-anchor="middle" x="118.6089" y="-165.3" font-family="Helvetica,sans-Serif" font-size="14.00" fill="#000000">mfem::Table</text>
</a>
</g>
</g>
<!-- Node24&#45;&gt;Node3 -->
<g id="edge13" class="edge">
<title>Node24&#45;&gt;Node3</title>
<path fill="none" stroke="#9a32cd" stroke-dasharray="5,2" d="M175.162,-167.3535C329.4479,-161.4974 758.7446,-145.2029 948.5067,-138.0003"/>
<polygon fill="#9a32cd" stroke="#9a32cd" points="174.8288,-163.8635 164.9687,-167.7404 175.0943,-170.8585 174.8288,-163.8635"/>
<text text-anchor="middle" x="568.6338" y="-170.3" font-family="Helvetica,sans-Serif" font-size="14.00" fill="#000000"> bdrElem_dof</text>
<text text-anchor="middle" x="568.6338" y="-156.3" font-family="Helvetica,sans-Serif" font-size="14.00" fill="#000000">elem_dof</text>
</g>
<!-- Node24&#45;&gt;Node4 -->
<g id="edge9" class="edge">
<title>Node24&#45;&gt;Node4</title>
<path fill="none" stroke="#9a32cd" stroke-dasharray="5,2" d="M175.1858,-173.9877C247.4438,-180.0137 365.3995,-190.9511 383.8633,-199.5 397.3313,-205.7358 426.3263,-235.7605 441.7674,-252.3768"/>
<polygon fill="#9a32cd" stroke="#9a32cd" points="175.128,-170.471 164.8736,-173.1351 174.5512,-177.4472 175.128,-170.471"/>
<text text-anchor="middle" x="319.5405" y="-272.3" font-family="Helvetica,sans-Serif" font-size="14.00" fill="#000000"> el_to_face</text>
<text text-anchor="middle" x="319.5405" y="-258.3" font-family="Helvetica,sans-Serif" font-size="14.00" fill="#000000">el_to_edge</text>
<text text-anchor="middle" x="319.5405" y="-244.3" font-family="Helvetica,sans-Serif" font-size="14.00" fill="#000000">edge_vertex</text>
<text text-anchor="middle" x="319.5405" y="-230.3" font-family="Helvetica,sans-Serif" font-size="14.00" fill="#000000">face_edge</text>
<text text-anchor="middle" x="319.5405" y="-216.3" font-family="Helvetica,sans-Serif" font-size="14.00" fill="#000000">el_to_el</text>
<text text-anchor="middle" x="319.5405" y="-202.3" font-family="Helvetica,sans-Serif" font-size="14.00" fill="#000000">bel_to_edge</text>
</g>
<!-- Node24&#45;&gt;Node39 -->
<g id="edge8" class="edge">
<title>Node24&#45;&gt;Node39</title>
<path fill="none" stroke="#9a32cd" stroke-dasharray="5,2" d="M174.7939,-170.3262C228.6106,-171.6221 312.0206,-174.9507 383.8633,-183.5 494.3093,-196.6431 622.2064,-223.3535 690.0744,-238.4544"/>
<polygon fill="#9a32cd" stroke="#9a32cd" points="174.8448,-166.8265 164.7684,-170.1001 174.6869,-173.8247 174.8448,-166.8265"/>
<text text-anchor="middle" x="451.9297" y="-216.3" font-family="Helvetica,sans-Serif" font-size="14.00" fill="#000000"> el_dof</text>
<text text-anchor="middle" x="451.9297" y="-202.3" font-family="Helvetica,sans-Serif" font-size="14.00" fill="#000000">bel_dof</text>
</g>
<!-- Node54 -->
<g id="node8" class="node">
<title>Node54</title>
<g id="a_node8"><a xlink:href="classmfem_1_1SparseMatrix.html" target="_top" xlink:title="Data type sparse matrix. ">
<polygon fill="#ffffff" stroke="#ff0000" points="667.5713,-82.5 667.5713,-104.5 808.8193,-104.5 808.8193,-82.5 667.5713,-82.5"/>
<text text-anchor="middle" x="738.1953" y="-89.3" font-family="Helvetica,sans-Serif" font-size="14.00" fill="#000000">mfem::SparseMatrix</text>
</a>
</g>
</g>
<!-- Node54&#45;&gt;Node3 -->
<g id="edge10" class="edge">
<title>Node54&#45;&gt;Node3</title>
<path fill="none" stroke="#9a32cd" stroke-dasharray="5,2" d="M819.2137,-86.3961C853.8188,-85.0804 894.4964,-85.827 930.6914,-92.5 962.463,-98.3575 996.9308,-112.9833 1018.6642,-123.3228"/>
<polygon fill="#9a32cd" stroke="#9a32cd" points="818.9886,-82.9026 809.1535,-86.8424 819.2988,-89.8957 818.9886,-82.9026"/>
<text text-anchor="middle" x="894.9053" y="-109.3" font-family="Helvetica,sans-Serif" font-size="14.00" fill="#000000"> cR</text>
<text text-anchor="middle" x="894.9053" y="-95.3" font-family="Helvetica,sans-Serif" font-size="14.00" fill="#000000">cP</text>
</g>
<!-- Node53 -->
<g id="node9" class="node">
<title>Node53</title>
<g id="a_node9"><a xlink:href="classmfem_1_1FiniteElementCollection.html" target="_top" xlink:title="mfem::FiniteElementCollection">
<polygon fill="#ffffff" stroke="#000000" points="635.2715,-41.5 635.2715,-63.5 841.1191,-63.5 841.1191,-41.5 635.2715,-41.5"/>
<text text-anchor="middle" x="738.1953" y="-48.3" font-family="Helvetica,sans-Serif" font-size="14.00" fill="#000000">mfem::FiniteElementCollection</text>
</a>
</g>
</g>
<!-- Node53&#45;&gt;Node3 -->
<g id="edge14" class="edge">
<title>Node53&#45;&gt;Node3</title>
<path fill="none" stroke="#9a32cd" stroke-dasharray="5,2" d="M851.4027,-52.4738C877.885,-54.8792 905.6589,-59.4164 930.6914,-67.5 968.7892,-79.8027 1007.4061,-107.6576 1027.1898,-123.301"/>
<polygon fill="#9a32cd" stroke="#9a32cd" points="851.5758,-48.9764 841.3247,-51.6533 851.0077,-55.9533 851.5758,-48.9764"/>
<text text-anchor="middle" x="894.9053" y="-70.3" font-family="Helvetica,sans-Serif" font-size="14.00" fill="#000000"> fec</text>
</g>
<!-- Node57 -->
<g id="node10" class="node">
<title>Node57</title>
<g id="a_node10"><a xlink:href="classmfem_1_1OperatorHandle.html" target="_top" xlink:title="Pointer to an Operator of a specified type. ">
<polygon fill="#ffffff" stroke="#ff0000" points="658.999,-.5 658.999,-22.5 817.3916,-22.5 817.3916,-.5 658.999,-.5"/>
<text text-anchor="middle" x="738.1953" y="-7.3" font-family="Helvetica,sans-Serif" font-size="14.00" fill="#000000">mfem::OperatorHandle</text>
</a>
</g>
</g>
<!-- Node57&#45;&gt;Node3 -->
<g id="edge15" class="edge">
<title>Node57&#45;&gt;Node3</title>
<path fill="none" stroke="#9a32cd" stroke-dasharray="5,2" d="M827.7264,-11.4678C861.2573,-14.293 898.9023,-20.9843 930.6914,-35.5 975.806,-56.1004 1015.4369,-101.9084 1032.2105,-123.2068"/>
<polygon fill="#9a32cd" stroke="#9a32cd" points="827.6938,-7.956 817.4634,-10.7108 827.1788,-14.937 827.6938,-7.956"/>
<text text-anchor="middle" x="894.9053" y="-38.3" font-family="Helvetica,sans-Serif" font-size="14.00" fill="#000000"> Th</text>
</g>
</g>
</svg>
        <g id="navigator" transform="translate(0 0)" fill="#404254">
                <rect fill="#f2f5e9" fill-opacity="0.5" stroke="#606060" stroke-width=".5" x="0" y="0" width="60" height="60"/>
                <use id="zoomplus" xlink:href="#zoomPlus" x="17" y="9" onmousedown="handleZoom(evt,'in')"/>
                <use id="zoomminus" xlink:href="#zoomMin" x="42" y="9" onmousedown="handleZoom(evt,'out')"/>
                <use id="reset" xlink:href="#resetDef" x="30" y="36" onmousedown="handleReset()"/>
                <g id="arrowUp" xlink:href="#dirArrow" transform="translate(30 24)" onmousedown="handlePan(0,-1)">
                  <use xlink:href="#rim" fill="#404040">
                        <set attributeName="fill" to="#808080" begin="arrowUp.mouseover" end="arrowUp.mouseout"/>
                  </use>
                  <path fill="none" stroke="white" stroke-width="1.5" d="M0,-3.0v7 M-2.5,-0.5L0,-3.0L2.5,-0.5"/>
                </g>
                <g id="arrowRight" xlink:href="#dirArrow" transform="rotate(90) translate(36 -43)" onmousedown="handlePan(1,0)">
                  <use xlink:href="#rim" fill="#404040">
                        <set attributeName="fill" to="#808080" begin="arrowRight.mouseover" end="arrowRight.mouseout"/>
                  </use>
                  <path fill="none" stroke="white" stroke-width="1.5" d="M0,-3.0v7 M-2.5,-0.5L0,-3.0L2.5,-0.5"/>
                </g>
                <g id="arrowDown" xlink:href="#dirArrow" transform="rotate(180) translate(-30 -48)" onmousedown="handlePan(0,1)">
                  <use xlink:href="#rim" fill="#404040">
                        <set attributeName="fill" to="#808080" begin="arrowDown.mouseover" end="arrowDown.mouseout"/>
                  </use>
                  <path fill="none" stroke="white" stroke-width="1.5" d="M0,-3.0v7 M-2.5,-0.5L0,-3.0L2.5,-0.5"/>
                </g>
                <g id="arrowLeft" xlink:href="#dirArrow" transform="rotate(270) translate(-36 17)" onmousedown="handlePan(-1,0)">
                  <use xlink:href="#rim" fill="#404040">
                        <set attributeName="fill" to="#808080" begin="arrowLeft.mouseover" end="arrowLeft.mouseout"/>
                  </use>
                  <path fill="none" stroke="white" stroke-width="1.5" d="M0,-3.0v7 M-2.5,-0.5L0,-3.0L2.5,-0.5"/>
                </g>
        </g>
        <svg viewBox="0 0 15 15" width="100%" height="30px" preserveAspectRatio="xMaxYMin meet">
         <g id="arrow_out" transform="scale(0.3 0.3)">
          <a xlink:href="classmfem_1_1miniapps_1_1RT__FESpace__coll__graph_org.svg" target="_base">
           <rect id="button" ry="5" rx="5" y="6" x="6" height="38" width="38"
                fill="#f2f5e9" fill-opacity="0.5" stroke="#606060" stroke-width="1.0"/>
           <path id="arrow"
             d="M 11.500037,31.436501 C 11.940474,20.09759 22.043105,11.32322 32.158766,21.979434 L 37.068811,17.246167 C 37.068811,17.246167 37.088388,32 37.088388,32 L 22.160133,31.978069 C 22.160133,31.978069 26.997745,27.140456 26.997745,27.140456 C 18.528582,18.264221 13.291696,25.230495 11.500037,31.436501 z"
             style="fill:#404040;"/>
          </a>
         </g>
        </svg>
</svg>
