<?xml version="1.0" encoding="UTF-8" standalone="no"?>
<!DOCTYPE svg PUBLIC "-//W3C//DTD SVG 1.1//EN"
 "http://www.w3.org/Graphics/SVG/1.1/DTD/svg11.dtd">
<!-- Generated by graphviz version 2.26.3 (20100126.1600)
 -->
<!-- Title: mfem::TCoefficient Pages: 1 -->
<svg width="410pt" height="222pt"
 viewBox="0.00 0.00 410.00 222.00" xmlns="http://www.w3.org/2000/svg" xmlns:xlink="http://www.w3.org/1999/xlink">
<g id="graph1" class="graph" transform="scale(1 1) rotate(0) translate(4 218)">
<title>mfem::TCoefficient</title>
<polygon fill="white" stroke="white" points="-4,5 -4,-218 407,-218 407,5 -4,5"/>
<!-- Node1 -->
<g id="node1" class="node"><title>Node1</title>
<polygon fill="#bfbfbf" stroke="black" points="0.5,-95 0.5,-119 133.5,-119 133.5,-95 0.5,-95"/>
<text text-anchor="middle" x="67" y="-102.4" font-family="Helvetica,sans-Serif" font-size="14.00">mfem::TCoefficient</text>
</g>
<!-- Node2 -->
<g id="node3" class="node"><title>Node2</title>
<a xlink:href="classmfem_1_1TConstantCoefficient.html" target="_top" xlink:title="mfem::TConstantCoefficient\l\&lt; complex_t \&gt;">
<polygon fill="white" stroke="black" points="192,-174 192,-214 380,-214 380,-174 192,-174"/>
<text text-anchor="start" x="200" y="-197.4" font-family="Helvetica,sans-Serif" font-size="14.00">mfem::TConstantCoefficient</text>
<text text-anchor="middle" x="286" y="-181.4" font-family="Helvetica,sans-Serif" font-size="14.00">&lt; complex_t &gt;</text>
</a>
</g>
<!-- Node1&#45;&gt;Node2 -->
<g id="edge2" class="edge"><title>Node1&#45;&gt;Node2</title>
<path fill="none" stroke="midnightblue" d="M93.5153,-124.557C113.757,-137.299 142.719,-154.138 170,-165 178.197,-168.264 186.869,-171.243 195.633,-173.942"/>
<polygon fill="midnightblue" stroke="midnightblue" points="95.1769,-121.466 84.8663,-119.028 91.4063,-127.363 95.1769,-121.466"/>
</g>
<!-- Node3 -->
<g id="node5" class="node"><title>Node3</title>
<a xlink:href="classmfem_1_1TFunctionCoefficient.html" target="_top" xlink:title="mfem::TFunctionCoefficient\l\&lt; Func, complex_t \&gt;">
<polygon fill="white" stroke="black" points="193,-116 193,-156 379,-156 379,-116 193,-116"/>
<text text-anchor="start" x="201" y="-139.4" font-family="Helvetica,sans-Serif" font-size="14.00">mfem::TFunctionCoefficient</text>
<text text-anchor="middle" x="286" y="-123.4" font-family="Helvetica,sans-Serif" font-size="14.00">&lt; Func, complex_t &gt;</text>
</a>
</g>
<!-- Node1&#45;&gt;Node3 -->
<g id="edge4" class="edge"><title>Node1&#45;&gt;Node3</title>
<path fill="none" stroke="midnightblue" d="M143.814,-117.172C159.6,-119.262 176.385,-121.485 192.68,-123.643"/>
<polygon fill="midnightblue" stroke="midnightblue" points="143.972,-113.662 133.599,-115.819 143.053,-120.602 143.972,-113.662"/>
</g>
<!-- Node4 -->
<g id="node7" class="node"><title>Node4</title>
<a xlink:href="classmfem_1_1TGridFunctionCoefficient.html" target="_top" xlink:title="mfem::TGridFunctionCoefficient\l\&lt; FieldEval \&gt;">
<polygon fill="white" stroke="black" points="180,-58 180,-98 392,-98 392,-58 180,-58"/>
<text text-anchor="start" x="188" y="-81.4" font-family="Helvetica,sans-Serif" font-size="14.00">mfem::TGridFunctionCoefficient</text>
<text text-anchor="middle" x="286" y="-65.4" font-family="Helvetica,sans-Serif" font-size="14.00">&lt; FieldEval &gt;</text>
</a>
</g>
<!-- Node1&#45;&gt;Node4 -->
<g id="edge6" class="edge"><title>Node1&#45;&gt;Node4</title>
<path fill="none" stroke="midnightblue" d="M143.692,-96.8444C155.354,-95.3001 167.564,-93.6833 179.72,-92.0736"/>
<polygon fill="midnightblue" stroke="midnightblue" points="143.053,-93.3984 133.599,-98.1809 143.972,-100.338 143.053,-93.3984"/>
</g>
<!-- Node5 -->
<g id="node9" class="node"><title>Node5</title>
<a xlink:href="classmfem_1_1TPiecewiseConstCoefficient.html" target="_top" xlink:title="mfem::TPiecewiseConstCoefficient\l\&lt; complex_t \&gt;">
<polygon fill="white" stroke="black" points="170,-0 170,-40 402,-40 402,-0 170,-0"/>
<text text-anchor="start" x="178" y="-23.4" font-family="Helvetica,sans-Serif" font-size="14.00">mfem::TPiecewiseConstCoefficient</text>
<text text-anchor="middle" x="286" y="-7.4" font-family="Helvetica,sans-Serif" font-size="14.00">&lt; complex_t &gt;</text>
</a>
</g>
<!-- Node1&#45;&gt;Node5 -->
<g id="edge8" class="edge"><title>Node1&#45;&gt;Node5</title>
<path fill="none" stroke="midnightblue" d="M93.5153,-89.4426C113.757,-76.7013 142.719,-59.8622 170,-49 178.197,-45.7365 186.869,-42.7573 195.633,-40.0579"/>
<polygon fill="midnightblue" stroke="midnightblue" points="91.4063,-86.6368 84.8663,-94.9722 95.1769,-92.5345 91.4063,-86.6368"/>
</g>
</g>
</svg>
