<?xml version="1.0" encoding="UTF-8" standalone="no"?>
<!DOCTYPE svg PUBLIC "-//W3C//DTD SVG 1.1//EN"
 "http://www.w3.org/Graphics/SVG/1.1/DTD/svg11.dtd">
<!-- Generated by graphviz version 2.40.1 (20161225.0304)
 -->
<!-- Title: mfem::MixedDotProductIntegrator Pages: 1 -->
<svg width="243pt" height="208pt"
 viewBox="0.00 0.00 243.43 208.00" xmlns="http://www.w3.org/2000/svg" xmlns:xlink="http://www.w3.org/1999/xlink">
<g id="graph0" class="graph" transform="scale(1 1) rotate(0) translate(4 204)">
<title>mfem::MixedDotProductIntegrator</title>
<polygon fill="#ffffff" stroke="transparent" points="-4,4 -4,-204 239.4268,-204 239.4268,4 -4,4"/>
<!-- Node0 -->
<g id="node1" class="node">
<title>Node0</title>
<polygon fill="#bfbfbf" stroke="#000000" points="4.6724,-.5 4.6724,-22.5 230.7544,-22.5 230.7544,-.5 4.6724,-.5"/>
<text text-anchor="middle" x="117.7134" y="-7.3" font-family="Helvetica,sans-Serif" font-size="14.00" fill="#000000">mfem::MixedDotProductIntegrator</text>
</g>
<!-- Node1 -->
<g id="node2" class="node">
<title>Node1</title>
<g id="a_node2"><a xlink:href="classmfem_1_1MixedScalarVectorIntegrator.html" target="_top" xlink:title="mfem::MixedScalarVectorIntegrator">
<polygon fill="#ffffff" stroke="#000000" points="0,-59.5 0,-81.5 235.4268,-81.5 235.4268,-59.5 0,-59.5"/>
<text text-anchor="middle" x="117.7134" y="-66.3" font-family="Helvetica,sans-Serif" font-size="14.00" fill="#000000">mfem::MixedScalarVectorIntegrator</text>
</a>
</g>
</g>
<!-- Node1&#45;&gt;Node0 -->
<g id="edge1" class="edge">
<title>Node1&#45;&gt;Node0</title>
<path fill="none" stroke="#191970" d="M117.7134,-49.198C117.7134,-40.1726 117.7134,-30.0351 117.7134,-22.5477"/>
<polygon fill="#191970" stroke="#191970" points="114.2135,-49.4025 117.7134,-59.4026 121.2135,-49.4026 114.2135,-49.4025"/>
</g>
<!-- Node2 -->
<g id="node3" class="node">
<title>Node2</title>
<g id="a_node3"><a xlink:href="classmfem_1_1BilinearFormIntegrator.html" target="_top" xlink:title="Abstract base class BilinearFormIntegrator. ">
<polygon fill="#ffffff" stroke="#000000" points="18.686,-118.5 18.686,-140.5 216.7407,-140.5 216.7407,-118.5 18.686,-118.5"/>
<text text-anchor="middle" x="117.7134" y="-125.3" font-family="Helvetica,sans-Serif" font-size="14.00" fill="#000000">mfem::BilinearFormIntegrator</text>
</a>
</g>
</g>
<!-- Node2&#45;&gt;Node1 -->
<g id="edge2" class="edge">
<title>Node2&#45;&gt;Node1</title>
<path fill="none" stroke="#191970" d="M117.7134,-108.198C117.7134,-99.1726 117.7134,-89.0351 117.7134,-81.5477"/>
<polygon fill="#191970" stroke="#191970" points="114.2135,-108.4025 117.7134,-118.4026 121.2135,-108.4026 114.2135,-108.4025"/>
</g>
<!-- Node3 -->
<g id="node4" class="node">
<title>Node3</title>
<g id="a_node4"><a xlink:href="classmfem_1_1NonlinearFormIntegrator.html" target="_top" xlink:title="mfem::NonlinearFormIntegrator">
<polygon fill="#ffffff" stroke="#000000" points="12.0688,-177.5 12.0688,-199.5 223.3579,-199.5 223.3579,-177.5 12.0688,-177.5"/>
<text text-anchor="middle" x="117.7134" y="-184.3" font-family="Helvetica,sans-Serif" font-size="14.00" fill="#000000">mfem::NonlinearFormIntegrator</text>
</a>
</g>
</g>
<!-- Node3&#45;&gt;Node2 -->
<g id="edge3" class="edge">
<title>Node3&#45;&gt;Node2</title>
<path fill="none" stroke="#191970" d="M117.7134,-167.198C117.7134,-158.1726 117.7134,-148.0351 117.7134,-140.5477"/>
<polygon fill="#191970" stroke="#191970" points="114.2135,-167.4025 117.7134,-177.4026 121.2135,-167.4026 114.2135,-167.4025"/>
</g>
</g>
</svg>
