<?xml version="1.0" encoding="UTF-8" standalone="no"?>
<!DOCTYPE svg PUBLIC "-//W3C//DTD SVG 1.1//EN"
 "http://www.w3.org/Graphics/SVG/1.1/DTD/svg11.dtd">
<!-- Generated by graphviz version 2.40.1 (20161225.0304)
 -->
<!-- Title: mfem::HashTable&lt; T &gt;::const_iterator Pages: 1 -->
<svg width="171pt" height="413pt"
 viewBox="0.00 0.00 171.09 413.00" xmlns="http://www.w3.org/2000/svg" xmlns:xlink="http://www.w3.org/1999/xlink">
<g id="graph0" class="graph" transform="scale(1 1) rotate(0) translate(4 409)">
<title>mfem::HashTable&lt; T &gt;::const_iterator</title>
<polygon fill="#ffffff" stroke="transparent" points="-4,4 -4,-409 167.0889,-409 167.0889,4 -4,4"/>
<!-- Node3 -->
<g id="node1" class="node">
<title>Node3</title>
<polygon fill="#bfbfbf" stroke="#000000" points="8.8936,-.5 8.8936,-36.5 154.1953,-36.5 154.1953,-.5 8.8936,-.5"/>
<text text-anchor="start" x="16.8936" y="-21.3" font-family="Helvetica,sans-Serif" font-size="14.00" fill="#000000">mfem::HashTable&lt; T</text>
<text text-anchor="middle" x="81.5444" y="-7.3" font-family="Helvetica,sans-Serif" font-size="14.00" fill="#000000"> &gt;::const_iterator</text>
</g>
<!-- Node4 -->
<g id="node2" class="node">
<title>Node4</title>
<g id="a_node2"><a xlink:href="classmfem_1_1BlockArray_1_1const__iterator.html" target="_top" xlink:title="mfem::BlockArray\&lt; T\l \&gt;::const_iterator">
<polygon fill="#ffffff" stroke="#000000" points="8.1279,-74.5 8.1279,-110.5 154.9609,-110.5 154.9609,-74.5 8.1279,-74.5"/>
<text text-anchor="start" x="16.1279" y="-95.3" font-family="Helvetica,sans-Serif" font-size="14.00" fill="#000000">mfem::BlockArray&lt; T</text>
<text text-anchor="middle" x="81.5444" y="-81.3" font-family="Helvetica,sans-Serif" font-size="14.00" fill="#000000"> &gt;::const_iterator</text>
</a>
</g>
</g>
<!-- Node4&#45;&gt;Node3 -->
<g id="edge1" class="edge">
<title>Node4&#45;&gt;Node3</title>
<path fill="none" stroke="#191970" d="M81.5444,-64.2024C81.5444,-54.9309 81.5444,-44.8865 81.5444,-36.5817"/>
<polygon fill="#191970" stroke="#191970" points="78.0445,-64.2078 81.5444,-74.2079 85.0445,-64.2079 78.0445,-64.2078"/>
</g>
<!-- Node5 -->
<g id="node3" class="node">
<title>Node5</title>
<g id="a_node3"><a xlink:href="classmfem_1_1BlockArray_1_1iterator__base.html" target="_top" xlink:title="mfem::BlockArray\&lt; T\l \&gt;::iterator_base\&lt; const\l BlockArray, const T \&gt;">
<polygon fill="#ffffff" stroke="#000000" points="0,-148.5 0,-198.5 163.0889,-198.5 163.0889,-148.5 0,-148.5"/>
<text text-anchor="start" x="8" y="-183.3" font-family="Helvetica,sans-Serif" font-size="14.00" fill="#000000">mfem::BlockArray&lt; T</text>
<text text-anchor="start" x="8" y="-169.3" font-family="Helvetica,sans-Serif" font-size="14.00" fill="#000000"> &gt;::iterator_base&lt; const</text>
<text text-anchor="middle" x="81.5444" y="-155.3" font-family="Helvetica,sans-Serif" font-size="14.00" fill="#000000"> BlockArray, const T &gt;</text>
</a>
</g>
</g>
<!-- Node5&#45;&gt;Node4 -->
<g id="edge2" class="edge">
<title>Node5&#45;&gt;Node4</title>
<path fill="none" stroke="#191970" d="M81.5444,-138.2625C81.5444,-128.763 81.5444,-118.8705 81.5444,-110.7237"/>
<polygon fill="#191970" stroke="#191970" points="78.0445,-138.3151 81.5444,-148.3151 85.0445,-138.3151 78.0445,-138.3151"/>
</g>
<!-- Node6 -->
<g id="node4" class="node">
<title>Node6</title>
<g id="a_node4"><a xlink:href="classmfem_1_1BlockArray.html" target="_top" xlink:title="mfem::BlockArray\&lt; T \&gt;">
<polygon fill="#ffffff" stroke="#000000" points="2.2183,-249.5 2.2183,-271.5 160.8706,-271.5 160.8706,-249.5 2.2183,-249.5"/>
<text text-anchor="middle" x="81.5444" y="-256.3" font-family="Helvetica,sans-Serif" font-size="14.00" fill="#000000">mfem::BlockArray&lt; T &gt;</text>
</a>
</g>
</g>
<!-- Node6&#45;&gt;Node5 -->
<g id="edge3" class="edge">
<title>Node6&#45;&gt;Node5</title>
<path fill="none" stroke="#9a32cd" stroke-dasharray="5,2" d="M81.5444,-239.2956C81.5444,-227.0285 81.5444,-211.5195 81.5444,-198.6403"/>
<polygon fill="#9a32cd" stroke="#9a32cd" points="78.0445,-239.4814 81.5444,-249.4814 85.0445,-239.4814 78.0445,-239.4814"/>
<text text-anchor="middle" x="99.4375" y="-219.8" font-family="Helvetica,sans-Serif" font-size="14.00" fill="#000000"> array</text>
</g>
<!-- Node7 -->
<g id="node5" class="node">
<title>Node7</title>
<g id="a_node5"><a xlink:href="classmfem_1_1Array.html" target="_top" xlink:title="mfem::Array\&lt; T *\&gt;">
<polygon fill="#ffffff" stroke="#000000" points="16.6113,-322.5 16.6113,-344.5 146.4775,-344.5 146.4775,-322.5 16.6113,-322.5"/>
<text text-anchor="middle" x="81.5444" y="-329.3" font-family="Helvetica,sans-Serif" font-size="14.00" fill="#000000">mfem::Array&lt; T *&gt;</text>
</a>
</g>
</g>
<!-- Node7&#45;&gt;Node6 -->
<g id="edge4" class="edge">
<title>Node7&#45;&gt;Node6</title>
<path fill="none" stroke="#9a32cd" stroke-dasharray="5,2" d="M81.5444,-312.2419C81.5444,-298.981 81.5444,-282.4483 81.5444,-271.6915"/>
<polygon fill="#9a32cd" stroke="#9a32cd" points="78.0445,-312.4128 81.5444,-322.4129 85.0445,-312.4129 78.0445,-312.4128"/>
<text text-anchor="middle" x="103.3306" y="-292.8" font-family="Helvetica,sans-Serif" font-size="14.00" fill="#000000"> blocks</text>
</g>
<!-- Node8 -->
<g id="node6" class="node">
<title>Node8</title>
<g id="a_node6"><a xlink:href="classmfem_1_1BaseArray.html" target="_top" xlink:title="Base class for array container. ">
<polygon fill="#ffffff" stroke="#000000" points="19.4756,-382.5 19.4756,-404.5 143.6133,-404.5 143.6133,-382.5 19.4756,-382.5"/>
<text text-anchor="middle" x="81.5444" y="-389.3" font-family="Helvetica,sans-Serif" font-size="14.00" fill="#000000">mfem::BaseArray</text>
</a>
</g>
</g>
<!-- Node8&#45;&gt;Node7 -->
<g id="edge5" class="edge">
<title>Node8&#45;&gt;Node7</title>
<path fill="none" stroke="#191970" d="M81.5444,-372.4183C81.5444,-363.1393 81.5444,-352.6082 81.5444,-344.8428"/>
<polygon fill="#191970" stroke="#191970" points="78.0445,-372.495 81.5444,-382.4951 85.0445,-372.4951 78.0445,-372.495"/>
</g>
</g>
</svg>
