<?xml version="1.0" encoding="UTF-8" standalone="no"?>
<!DOCTYPE svg PUBLIC "-//W3C//DTD SVG 1.1//EN"
 "http://www.w3.org/Graphics/SVG/1.1/DTD/svg11.dtd">
<!-- Generated by graphviz version 2.30.1 (20140821.0912)
 -->
<!-- Title: mfem::L2_FiniteElement&lt; Geometry::SEGMENT, P &gt; Pages: 1 -->
<svg width="1296pt" height="89pt"
 viewBox="0.00 0.00 1296.00 89.00" xmlns="http://www.w3.org/2000/svg" xmlns:xlink="http://www.w3.org/1999/xlink">
<g id="graph0" class="graph" transform="scale(1 1) rotate(0) translate(4 85)">
<title>mfem::L2_FiniteElement&lt; Geometry::SEGMENT, P &gt;</title>
<polygon fill="white" stroke="white" points="-4,5 -4,-85 1293,-85 1293,5 -4,5"/>
<!-- Node1 -->
<g id="node1" class="node"><title>Node1</title>
<polygon fill="#bfbfbf" stroke="black" points="1094,-19 1094,-57 1288,-57 1288,-19 1094,-19"/>
<text text-anchor="start" x="1102" y="-41.8" font-family="Helvetica,sans-Serif" font-size="14.00">mfem::L2_FiniteElement</text>
<text text-anchor="middle" x="1191" y="-26.8" font-family="Helvetica,sans-Serif" font-size="14.00">&lt; Geometry::SEGMENT, P &gt;</text>
</g>
<!-- Node2 -->
<g id="node2" class="node"><title>Node2</title>
<g id="a_node2"><a xlink:href="classmfem_1_1L2__FiniteElement__base.html" target="_top" xlink:title="mfem::L2_FiniteElement\l_base\&lt; Geometry::SEGMENT,\l P, L2_SegmentElement, L2Pos\l_SegmentElement, P+1, true \&gt;">
<polygon fill="white" stroke="black" points="846,-4 846,-72 1056,-72 1056,-4 846,-4"/>
<text text-anchor="start" x="854" y="-56.8" font-family="Helvetica,sans-Serif" font-size="14.00">mfem::L2_FiniteElement</text>
<text text-anchor="start" x="854" y="-41.8" font-family="Helvetica,sans-Serif" font-size="14.00">_base&lt; Geometry::SEGMENT,</text>
<text text-anchor="start" x="854" y="-26.8" font-family="Helvetica,sans-Serif" font-size="14.00"> P, L2_SegmentElement, L2Pos</text>
<text text-anchor="middle" x="951" y="-11.8" font-family="Helvetica,sans-Serif" font-size="14.00">_SegmentElement, P+1, true &gt;</text>
</a>
</g>
</g>
<!-- Node2&#45;&gt;Node1 -->
<g id="edge1" class="edge"><title>Node2&#45;&gt;Node1</title>
<path fill="none" stroke="midnightblue" d="M1066.05,-38C1075.29,-38 1084.58,-38 1093.68,-38"/>
<polygon fill="midnightblue" stroke="midnightblue" points="1066.04,-34.5001 1056.04,-38 1066.04,-41.5001 1066.04,-34.5001"/>
</g>
<!-- Node3 -->
<g id="node3" class="node"><title>Node3</title>
<g id="a_node3"><a xlink:href="classmfem_1_1FiniteElement.html" target="_top" xlink:title="Abstract class for Finite Elements. ">
<polygon fill="white" stroke="black" points="602.5,-26.5 602.5,-49.5 745.5,-49.5 745.5,-26.5 602.5,-26.5"/>
<text text-anchor="middle" x="674" y="-34.3" font-family="Helvetica,sans-Serif" font-size="14.00">mfem::FiniteElement</text>
</a>
</g>
</g>
<!-- Node3&#45;&gt;Node2 -->
<g id="edge2" class="edge"><title>Node3&#45;&gt;Node2</title>
<path fill="none" stroke="#9a32cd" stroke-dasharray="5,2" d="M756.015,-38C784.189,-38 816.194,-38 845.968,-38"/>
<polygon fill="#9a32cd" stroke="#9a32cd" points="755.819,-34.5001 745.819,-38 755.819,-41.5001 755.819,-34.5001"/>
<text text-anchor="middle" x="796" y="-56.8" font-family="Helvetica,sans-Serif" font-size="14.00"> my_fe_1d</text>
<text text-anchor="middle" x="796" y="-41.8" font-family="Helvetica,sans-Serif" font-size="14.00">my_fe</text>
</g>
<!-- Node4 -->
<g id="node4" class="node"><title>Node4</title>
<g id="a_node4"><a xlink:href="classmfem_1_1IntegrationRule.html" target="_top" xlink:title="Class for an integration rule &#45; an Array of IntegrationPoint. ">
<polygon fill="white" stroke="black" points="366.5,-47.5 366.5,-70.5 517.5,-70.5 517.5,-47.5 366.5,-47.5"/>
<text text-anchor="middle" x="442" y="-55.3" font-family="Helvetica,sans-Serif" font-size="14.00">mfem::IntegrationRule</text>
</a>
</g>
</g>
<!-- Node4&#45;&gt;Node3 -->
<g id="edge3" class="edge"><title>Node4&#45;&gt;Node3</title>
<path fill="none" stroke="#9a32cd" stroke-dasharray="5,2" d="M527.676,-51.2687C552.178,-49.0315 578.658,-46.6138 602.217,-44.4628"/>
<polygon fill="#9a32cd" stroke="#9a32cd" points="527.315,-47.787 517.674,-52.1819 527.951,-54.7581 527.315,-47.787"/>
<text text-anchor="middle" x="560" y="-53.8" font-family="Helvetica,sans-Serif" font-size="14.00"> Nodes</text>
</g>
<!-- Node5 -->
<g id="node5" class="node"><title>Node5</title>
<g id="a_node5"><a xlink:href="classmfem_1_1Array.html" target="_top" xlink:title="mfem::Array\&lt; Integration\lPoint \&gt;">
<polygon fill="white" stroke="black" points="160.5,-43 160.5,-81 327.5,-81 327.5,-43 160.5,-43"/>
<text text-anchor="start" x="168.5" y="-65.8" font-family="Helvetica,sans-Serif" font-size="14.00">mfem::Array&lt; Integration</text>
<text text-anchor="middle" x="244" y="-50.8" font-family="Helvetica,sans-Serif" font-size="14.00">Point &gt;</text>
</a>
</g>
</g>
<!-- Node5&#45;&gt;Node4 -->
<g id="edge4" class="edge"><title>Node5&#45;&gt;Node4</title>
<path fill="none" stroke="midnightblue" d="M337.563,-60.5832C347.208,-60.4356 356.923,-60.2869 366.334,-60.1428"/>
<polygon fill="midnightblue" stroke="midnightblue" points="337.499,-57.0837 327.554,-60.7364 337.606,-64.0829 337.499,-57.0837"/>
</g>
<!-- Node6 -->
<g id="node6" class="node"><title>Node6</title>
<g id="a_node6"><a xlink:href="classmfem_1_1BaseArray.html" target="_top" xlink:title="Base class for array container. ">
<polygon fill="white" stroke="black" points="0,-50.5 0,-73.5 122,-73.5 122,-50.5 0,-50.5"/>
<text text-anchor="middle" x="61" y="-58.3" font-family="Helvetica,sans-Serif" font-size="14.00">mfem::BaseArray</text>
</a>
</g>
</g>
<!-- Node6&#45;&gt;Node5 -->
<g id="edge5" class="edge"><title>Node6&#45;&gt;Node5</title>
<path fill="none" stroke="midnightblue" d="M132.232,-62C141.407,-62 150.875,-62 160.232,-62"/>
<polygon fill="midnightblue" stroke="midnightblue" points="132.019,-58.5001 122.019,-62 132.019,-65.5001 132.019,-58.5001"/>
</g>
<!-- Node7 -->
<g id="node7" class="node"><title>Node7</title>
<g id="a_node7"><a xlink:href="classmfem_1_1DenseMatrix.html" target="_top" xlink:title="Data type dense matrix using column&#45;major storage. ">
<polygon fill="white" stroke="black" points="374,-5.5 374,-28.5 510,-28.5 510,-5.5 374,-5.5"/>
<text text-anchor="middle" x="442" y="-13.3" font-family="Helvetica,sans-Serif" font-size="14.00">mfem::DenseMatrix</text>
</a>
</g>
</g>
<!-- Node7&#45;&gt;Node3 -->
<g id="edge6" class="edge"><title>Node7&#45;&gt;Node3</title>
<path fill="none" stroke="#9a32cd" stroke-dasharray="5,2" d="M520.137,-22.541C540.885,-24.1616 563.309,-26.0311 584,-28 589.882,-28.5597 595.979,-29.1736 602.097,-29.8132"/>
<polygon fill="#9a32cd" stroke="#9a32cd" points="520.341,-19.0464 510.101,-21.7661 519.802,-26.0256 520.341,-19.0464"/>
<text text-anchor="middle" x="560" y="-31.8" font-family="Helvetica,sans-Serif" font-size="14.00"> vshape</text>
</g>
<!-- Node8 -->
<g id="node8" class="node"><title>Node8</title>
<g id="a_node8"><a xlink:href="classmfem_1_1Matrix.html" target="_top" xlink:title="Abstract data type matrix. ">
<polygon fill="white" stroke="black" points="195.5,-0.5 195.5,-23.5 292.5,-23.5 292.5,-0.5 195.5,-0.5"/>
<text text-anchor="middle" x="244" y="-8.3" font-family="Helvetica,sans-Serif" font-size="14.00">mfem::Matrix</text>
</a>
</g>
</g>
<!-- Node8&#45;&gt;Node7 -->
<g id="edge7" class="edge"><title>Node8&#45;&gt;Node7</title>
<path fill="none" stroke="midnightblue" d="M302.985,-13.4792C325.213,-14.0463 350.758,-14.6979 373.78,-15.2852"/>
<polygon fill="midnightblue" stroke="midnightblue" points="302.782,-9.973 292.696,-13.2167 302.604,-16.9707 302.782,-9.973"/>
</g>
<!-- Node9 -->
<g id="node9" class="node"><title>Node9</title>
<g id="a_node9"><a xlink:href="classmfem_1_1Operator.html" target="_top" xlink:title="Abstract operator. ">
<polygon fill="white" stroke="black" points="4.5,-0.5 4.5,-23.5 117.5,-23.5 117.5,-0.5 4.5,-0.5"/>
<text text-anchor="middle" x="61" y="-8.3" font-family="Helvetica,sans-Serif" font-size="14.00">mfem::Operator</text>
</a>
</g>
</g>
<!-- Node9&#45;&gt;Node8 -->
<g id="edge8" class="edge"><title>Node9&#45;&gt;Node8</title>
<path fill="none" stroke="midnightblue" d="M127.87,-12C150.203,-12 174.702,-12 195.338,-12"/>
<polygon fill="midnightblue" stroke="midnightblue" points="127.783,-8.5001 117.783,-12 127.783,-15.5001 127.783,-8.5001"/>
</g>
</g>
</svg>
