<?xml version="1.0" encoding="UTF-8" standalone="no"?>
<!DOCTYPE svg PUBLIC "-//W3C//DTD SVG 1.1//EN"
 "http://www.w3.org/Graphics/SVG/1.1/DTD/svg11.dtd">
<!-- Generated by graphviz version 2.30.1 (20140821.0912)
 -->
<!-- Title: mfem::ParMesh Pages: 1 -->
<svg width="1060pt" height="799pt"
 viewBox="0.00 0.00 1060.00 799.29" xmlns="http://www.w3.org/2000/svg" xmlns:xlink="http://www.w3.org/1999/xlink">
<g id="graph0" class="graph" transform="scale(1 1) rotate(0) translate(4 795.292)">
<title>mfem::ParMesh</title>
<polygon fill="white" stroke="white" points="-4,5 -4,-795.292 1057,-795.292 1057,5 -4,5"/>
<!-- Node1 -->
<g id="node1" class="node"><title>Node1</title>
<polygon fill="#bfbfbf" stroke="black" points="938,-320.792 938,-343.792 1052,-343.792 1052,-320.792 938,-320.792"/>
<text text-anchor="middle" x="995" y="-328.592" font-family="Helvetica,sans-Serif" font-size="14.00">mfem::ParMesh</text>
</g>
<!-- Node2 -->
<g id="node2" class="node"><title>Node2</title>
<g id="a_node2"><a xlink:href="classmfem_1_1Mesh.html" target="_top" xlink:title="mfem::Mesh">
<polygon fill="white" stroke="red" points="718.5,-413.792 718.5,-436.792 811.5,-436.792 811.5,-413.792 718.5,-413.792"/>
<text text-anchor="middle" x="765" y="-421.592" font-family="Helvetica,sans-Serif" font-size="14.00">mfem::Mesh</text>
</a>
</g>
</g>
<!-- Node2&#45;&gt;Node1 -->
<g id="edge1" class="edge"><title>Node2&#45;&gt;Node1</title>
<path fill="none" stroke="midnightblue" d="M803.932,-409.82C849.463,-391.248 924.771,-360.531 965.586,-343.883"/>
<polygon fill="midnightblue" stroke="midnightblue" points="802.353,-406.684 794.415,-413.702 804.997,-413.166 802.353,-406.684"/>
</g>
<!-- Node3 -->
<g id="node3" class="node"><title>Node3</title>
<g id="a_node3"><a xlink:href="classmfem_1_1IsoparametricTransformation.html" target="_top" xlink:title="mfem::IsoparametricTransformation">
<polygon fill="white" stroke="red" points="264.5,-477.792 264.5,-500.792 497.5,-500.792 497.5,-477.792 264.5,-477.792"/>
<text text-anchor="middle" x="381" y="-485.592" font-family="Helvetica,sans-Serif" font-size="14.00">mfem::IsoparametricTransformation</text>
</a>
</g>
</g>
<!-- Node3&#45;&gt;Node2 -->
<g id="edge2" class="edge"><title>Node3&#45;&gt;Node2</title>
<path fill="none" stroke="#9a32cd" stroke-dasharray="5,2" d="M448.634,-475.824C470.106,-471.628 494.029,-467.106 516,-463.292 553.927,-456.71 657.702,-441.103 718.319,-432.07"/>
<polygon fill="#9a32cd" stroke="#9a32cd" points="447.771,-472.426 438.634,-477.788 449.121,-479.295 447.771,-472.426"/>
<text text-anchor="middle" x="593" y="-512.092" font-family="Helvetica,sans-Serif" font-size="14.00"> FaceTransformation</text>
<text text-anchor="middle" x="593" y="-497.092" font-family="Helvetica,sans-Serif" font-size="14.00">Transformation2</text>
<text text-anchor="middle" x="593" y="-482.092" font-family="Helvetica,sans-Serif" font-size="14.00">Transformation</text>
<text text-anchor="middle" x="593" y="-467.092" font-family="Helvetica,sans-Serif" font-size="14.00">EdgeTransformation</text>
</g>
<!-- Node4 -->
<g id="node4" class="node"><title>Node4</title>
<g id="a_node4"><a xlink:href="classmfem_1_1Array.html" target="_top" xlink:title="mfem::Array\&lt; int \&gt;">
<polygon fill="white" stroke="red" points="0,-364.792 0,-387.792 130,-387.792 130,-364.792 0,-364.792"/>
<text text-anchor="middle" x="65" y="-372.592" font-family="Helvetica,sans-Serif" font-size="14.00">mfem::Array&lt; int &gt;</text>
</a>
</g>
</g>
<!-- Node4&#45;&gt;Node2 -->
<g id="edge3" class="edge"><title>Node4&#45;&gt;Node2</title>
<path fill="none" stroke="#9a32cd" stroke-dasharray="5,2" d="M85.7779,-395.261C119.275,-426.003 190.709,-485.74 264,-510.292 349.593,-538.966 586.967,-558.703 670,-523.292 711.853,-505.443 744.027,-458.807 757.328,-436.934"/>
<polygon fill="#9a32cd" stroke="#9a32cd" points="87.8035,-392.364 78.1009,-388.109 83.0319,-397.486 87.8035,-392.364"/>
<text text-anchor="middle" x="381" y="-591.092" font-family="Helvetica,sans-Serif" font-size="14.00"> attributes</text>
<text text-anchor="middle" x="381" y="-576.092" font-family="Helvetica,sans-Serif" font-size="14.00">be_to_edge</text>
<text text-anchor="middle" x="381" y="-561.092" font-family="Helvetica,sans-Serif" font-size="14.00">be_to_face</text>
<text text-anchor="middle" x="381" y="-546.092" font-family="Helvetica,sans-Serif" font-size="14.00">bdr_attributes</text>
</g>
<!-- Node5 -->
<g id="node5" class="node"><title>Node5</title>
<g id="a_node5"><a xlink:href="classmfem_1_1NCMesh.html" target="_top" xlink:title="A class for non&#45;conforming AMR on higher&#45;order hexahedral, quadrilateral or triangular meshes...">
<polygon fill="white" stroke="red" points="324.5,-155.792 324.5,-178.792 437.5,-178.792 437.5,-155.792 324.5,-155.792"/>
<text text-anchor="middle" x="381" y="-163.592" font-family="Helvetica,sans-Serif" font-size="14.00">mfem::NCMesh</text>
</a>
</g>
</g>
<!-- Node4&#45;&gt;Node5 -->
<g id="edge5" class="edge"><title>Node4&#45;&gt;Node5</title>
<path fill="none" stroke="#9a32cd" stroke-dasharray="5,2" d="M68.2738,-354.378C73.787,-313.607 91.8547,-226.591 148,-186.292 175.25,-166.734 264.709,-164.551 324.243,-165.434"/>
<polygon fill="#9a32cd" stroke="#9a32cd" points="64.7936,-354.004 67.0543,-364.354 71.7419,-354.853 64.7936,-354.004"/>
<text text-anchor="middle" x="197" y="-190.092" font-family="Helvetica,sans-Serif" font-size="14.00"> vertex_nodeId</text>
</g>
<!-- Node4&#45;&gt;Node1 -->
<g id="edge11" class="edge"><title>Node4&#45;&gt;Node1</title>
<path fill="none" stroke="#9a32cd" stroke-dasharray="5,2" d="M72.8811,-397.67C92.2608,-453.817 153.227,-605.137 264,-663.292 356.082,-711.635 394.192,-669.606 498,-663.292 651.74,-653.942 715.231,-708.775 842,-621.292 944.415,-550.616 982.951,-388.674 991.857,-343.932"/>
<polygon fill="#9a32cd" stroke="#9a32cd" points="76.152,-396.415 69.6501,-388.05 69.5163,-398.644 76.152,-396.415"/>
<text text-anchor="middle" x="593" y="-780.092" font-family="Helvetica,sans-Serif" font-size="14.00"> svert_lvert</text>
<text text-anchor="start" x="535" y="-765.092" font-family="Helvetica,sans-Serif" font-size="14.00">face_nbr_vertices</text>
<text text-anchor="middle" x="593" y="-750.092" font-family="Helvetica,sans-Serif" font-size="14.00">_offset</text>
<text text-anchor="start" x="535" y="-735.092" font-family="Helvetica,sans-Serif" font-size="14.00">face_nbr_elements</text>
<text text-anchor="middle" x="593" y="-720.092" font-family="Helvetica,sans-Serif" font-size="14.00">_offset</text>
<text text-anchor="middle" x="593" y="-705.092" font-family="Helvetica,sans-Serif" font-size="14.00">sface_lface</text>
<text text-anchor="middle" x="593" y="-690.092" font-family="Helvetica,sans-Serif" font-size="14.00">sedge_ledge</text>
<text text-anchor="middle" x="593" y="-675.092" font-family="Helvetica,sans-Serif" font-size="14.00">face_nbr_group</text>
</g>
<!-- Node10 -->
<g id="node10" class="node"><title>Node10</title>
<g id="a_node10"><a xlink:href="classmfem_1_1ParNCMesh.html" target="_top" xlink:title="A parallel extension of the NCMesh class. ">
<polygon fill="white" stroke="red" points="698,-225.792 698,-248.792 832,-248.792 832,-225.792 698,-225.792"/>
<text text-anchor="middle" x="765" y="-233.592" font-family="Helvetica,sans-Serif" font-size="14.00">mfem::ParNCMesh</text>
</a>
</g>
</g>
<!-- Node4&#45;&gt;Node10 -->
<g id="edge17" class="edge"><title>Node4&#45;&gt;Node10</title>
<path fill="none" stroke="#9a32cd" stroke-dasharray="5,2" d="M82.8913,-357.133C114.447,-322.913 186.229,-252.259 264,-224.292 423.543,-166.92 630.573,-204.625 719.846,-225.751"/>
<polygon fill="#9a32cd" stroke="#9a32cd" points="80.225,-354.863 76.0952,-364.62 85.408,-359.568 80.225,-354.863"/>
<text text-anchor="middle" x="381" y="-273.092" font-family="Helvetica,sans-Serif" font-size="14.00"> face_owner</text>
<text text-anchor="middle" x="381" y="-258.092" font-family="Helvetica,sans-Serif" font-size="14.00">vertex_owner</text>
<text text-anchor="middle" x="381" y="-243.092" font-family="Helvetica,sans-Serif" font-size="14.00">edge_owner</text>
<text text-anchor="middle" x="381" y="-228.092" font-family="Helvetica,sans-Serif" font-size="14.00">old_index_or_rank</text>
</g>
<!-- Node5&#45;&gt;Node2 -->
<g id="edge4" class="edge"><title>Node5&#45;&gt;Node2</title>
<path fill="none" stroke="#9a32cd" stroke-dasharray="5,2" d="M447.707,-178.032C528.004,-191.776 655.1,-215.777 670,-232.292 714.682,-281.819 651.271,-325.611 688,-381.292 697.822,-396.183 714.541,-406.653 729.801,-413.633"/>
<polygon fill="#9a32cd" stroke="#9a32cd" points="448.118,-174.552 437.673,-176.326 446.945,-181.453 448.118,-174.552"/>
<text text-anchor="middle" x="593" y="-236.092" font-family="Helvetica,sans-Serif" font-size="14.00"> ncmesh</text>
</g>
<!-- Node5&#45;&gt;Node10 -->
<g id="edge16" class="edge"><title>Node5&#45;&gt;Node10</title>
<path fill="none" stroke="midnightblue" d="M447.65,-155.732C509.54,-148.359 602.598,-146.677 670,-187.292 682.993,-195.122 675.855,-207.203 688,-216.292 693.041,-220.065 698.725,-223.16 704.657,-225.699"/>
<polygon fill="midnightblue" stroke="midnightblue" points="447.091,-152.275 437.614,-157.01 447.976,-159.219 447.091,-152.275"/>
</g>
<!-- Node6 -->
<g id="node6" class="node"><title>Node6</title>
<g id="a_node6"><a xlink:href="classmfem_1_1Table.html" target="_top" xlink:title="mfem::Table">
<polygon fill="white" stroke="black" points="18.5,-97.7924 18.5,-120.792 111.5,-120.792 111.5,-97.7924 18.5,-97.7924"/>
<text text-anchor="middle" x="65" y="-105.592" font-family="Helvetica,sans-Serif" font-size="14.00">mfem::Table</text>
</a>
</g>
</g>
<!-- Node6&#45;&gt;Node5 -->
<g id="edge6" class="edge"><title>Node6&#45;&gt;Node5</title>
<path fill="none" stroke="#9a32cd" stroke-dasharray="5,2" d="M121.955,-109.656C158.2,-111.375 205.939,-116.465 246,-130.292 254.863,-133.351 255.309,-137.776 264,-141.292 283.036,-148.996 304.798,-154.638 324.291,-158.659"/>
<polygon fill="#9a32cd" stroke="#9a32cd" points="121.708,-106.143 111.576,-109.24 121.428,-113.138 121.708,-106.143"/>
<text text-anchor="middle" x="197" y="-149.092" font-family="Helvetica,sans-Serif" font-size="14.00"> element_vertex</text>
<text text-anchor="middle" x="197" y="-134.092" font-family="Helvetica,sans-Serif" font-size="14.00">derefinements</text>
</g>
<!-- Node6&#45;&gt;Node2 -->
<g id="edge9" class="edge"><title>Node6&#45;&gt;Node2</title>
<path fill="none" stroke="#9a32cd" stroke-dasharray="5,2" d="M76.7374,-129.807C102.229,-176.236 171.268,-289.353 264,-341.292 355.864,-392.745 411.948,-317.618 498,-378.292 511.654,-387.92 501.88,-402.363 516,-411.292 548.483,-431.836 655.966,-430.558 718.257,-427.887"/>
<polygon fill="#9a32cd" stroke="#9a32cd" points="79.7928,-128.099 71.966,-120.958 73.6314,-131.421 79.7928,-128.099"/>
<text text-anchor="middle" x="381" y="-457.092" font-family="Helvetica,sans-Serif" font-size="14.00"> el_to_face</text>
<text text-anchor="middle" x="381" y="-442.092" font-family="Helvetica,sans-Serif" font-size="14.00">el_to_edge</text>
<text text-anchor="middle" x="381" y="-427.092" font-family="Helvetica,sans-Serif" font-size="14.00">edge_vertex</text>
<text text-anchor="middle" x="381" y="-412.092" font-family="Helvetica,sans-Serif" font-size="14.00">face_edge</text>
<text text-anchor="middle" x="381" y="-397.092" font-family="Helvetica,sans-Serif" font-size="14.00">el_to_el</text>
<text text-anchor="middle" x="381" y="-382.092" font-family="Helvetica,sans-Serif" font-size="14.00">bel_to_edge</text>
</g>
<!-- Node6&#45;&gt;Node1 -->
<g id="edge14" class="edge"><title>Node6&#45;&gt;Node1</title>
<path fill="none" stroke="#9a32cd" stroke-dasharray="5,2" d="M100.586,-93.6173C194.732,-53.2267 462.438,46.3724 670,-25.2924 803.457,-71.371 824.077,-117.693 920,-221.292 950.055,-253.752 976.455,-299.565 987.923,-320.736"/>
<polygon fill="#9a32cd" stroke="#9a32cd" points="99.0297,-90.4773 91.2531,-97.6728 101.82,-96.8974 99.0297,-90.4773"/>
<text text-anchor="middle" x="593" y="-89.0924" font-family="Helvetica,sans-Serif" font-size="14.00"> send_face_nbr_vertices</text>
<text text-anchor="middle" x="593" y="-74.0924" font-family="Helvetica,sans-Serif" font-size="14.00">send_face_nbr_elements</text>
<text text-anchor="middle" x="593" y="-59.0924" font-family="Helvetica,sans-Serif" font-size="14.00">group_sface</text>
<text text-anchor="middle" x="593" y="-44.0924" font-family="Helvetica,sans-Serif" font-size="14.00">group_sedge</text>
<text text-anchor="middle" x="593" y="-29.0924" font-family="Helvetica,sans-Serif" font-size="14.00">group_svert</text>
</g>
<!-- Node6&#45;&gt;Node10 -->
<g id="edge19" class="edge"><title>Node6&#45;&gt;Node10</title>
<path fill="none" stroke="#9a32cd" stroke-dasharray="5,2" d="M121.834,-102.888C204.456,-94.6229 363.961,-83.3086 498,-101.292 576.543,-111.83 614.188,-92.0333 670,-148.292 692.018,-170.487 666.014,-194.067 688,-216.292 691.755,-220.088 696.129,-223.214 700.847,-225.787"/>
<polygon fill="#9a32cd" stroke="#9a32cd" points="121.255,-99.4292 111.663,-103.929 121.968,-106.393 121.255,-99.4292"/>
<text text-anchor="middle" x="381" y="-135.092" font-family="Helvetica,sans-Serif" font-size="14.00"> edge_group</text>
<text text-anchor="middle" x="381" y="-120.092" font-family="Helvetica,sans-Serif" font-size="14.00">face_group</text>
<text text-anchor="middle" x="381" y="-105.092" font-family="Helvetica,sans-Serif" font-size="14.00">vertex_group</text>
</g>
<!-- Node7 -->
<g id="node7" class="node"><title>Node7</title>
<g id="a_node7"><a xlink:href="classmfem_1_1Array.html" target="_top" xlink:title="mfem::Array\&lt; mfem::\lElement * \&gt;">
<polygon fill="white" stroke="red" points="308,-294.292 308,-332.292 454,-332.292 454,-294.292 308,-294.292"/>
<text text-anchor="start" x="316" y="-317.092" font-family="Helvetica,sans-Serif" font-size="14.00">mfem::Array&lt; mfem::</text>
<text text-anchor="middle" x="381" y="-302.092" font-family="Helvetica,sans-Serif" font-size="14.00">Element * &gt;</text>
</a>
</g>
</g>
<!-- Node7&#45;&gt;Node2 -->
<g id="edge7" class="edge"><title>Node7&#45;&gt;Node2</title>
<path fill="none" stroke="#9a32cd" stroke-dasharray="5,2" d="M464.09,-332.652C481.198,-336.41 499.152,-340.152 516,-343.292 584.032,-355.971 606.853,-337.979 670,-366.292 679.502,-370.553 679.463,-375.329 688,-381.292 705.373,-393.429 726.286,-405.358 741.773,-413.726"/>
<polygon fill="#9a32cd" stroke="#9a32cd" points="464.65,-329.191 454.129,-330.441 463.133,-336.024 464.65,-329.191"/>
<text text-anchor="middle" x="593" y="-400.092" font-family="Helvetica,sans-Serif" font-size="14.00"> boundary</text>
<text text-anchor="middle" x="593" y="-385.092" font-family="Helvetica,sans-Serif" font-size="14.00">elements</text>
<text text-anchor="middle" x="593" y="-370.092" font-family="Helvetica,sans-Serif" font-size="14.00">faces</text>
</g>
<!-- Node7&#45;&gt;Node1 -->
<g id="edge12" class="edge"><title>Node7&#45;&gt;Node1</title>
<path fill="none" stroke="#9a32cd" stroke-dasharray="5,2" d="M464.758,-316.484C481.708,-317.109 499.429,-317.741 516,-318.292 668.468,-323.37 848.326,-328.371 937.703,-330.79"/>
<polygon fill="#9a32cd" stroke="#9a32cd" points="464.444,-312.97 454.321,-316.097 464.185,-319.966 464.444,-312.97"/>
<text text-anchor="middle" x="765" y="-362.092" font-family="Helvetica,sans-Serif" font-size="14.00"> shared_faces</text>
<text text-anchor="middle" x="765" y="-347.092" font-family="Helvetica,sans-Serif" font-size="14.00">shared_edges</text>
<text text-anchor="middle" x="765" y="-332.092" font-family="Helvetica,sans-Serif" font-size="14.00">face_nbr_elements</text>
</g>
<!-- Node7&#45;&gt;Node10 -->
<g id="edge18" class="edge"><title>Node7&#45;&gt;Node10</title>
<path fill="none" stroke="#9a32cd" stroke-dasharray="5,2" d="M458.012,-291.446C471.364,-287.486 485.107,-283.329 498,-279.292 506.047,-276.773 507.795,-275.239 516,-273.292 524.824,-271.199 627.374,-256.559 697.806,-246.605"/>
<polygon fill="#9a32cd" stroke="#9a32cd" points="456.977,-288.103 448.377,-294.291 458.959,-294.816 456.977,-288.103"/>
<text text-anchor="middle" x="593" y="-307.092" font-family="Helvetica,sans-Serif" font-size="14.00"> ghost_layer</text>
<text text-anchor="middle" x="593" y="-292.092" font-family="Helvetica,sans-Serif" font-size="14.00">tmp_neighbors</text>
<text text-anchor="middle" x="593" y="-277.092" font-family="Helvetica,sans-Serif" font-size="14.00">boundary_layer</text>
</g>
<!-- Node8 -->
<g id="node8" class="node"><title>Node8</title>
<g id="a_node8"><a xlink:href="classmfem_1_1Array.html" target="_top" xlink:title="mfem::Array\&lt; mfem::\lVertex \&gt;">
<polygon fill="white" stroke="red" points="308,-616.292 308,-654.292 454,-654.292 454,-616.292 308,-616.292"/>
<text text-anchor="start" x="316" y="-639.092" font-family="Helvetica,sans-Serif" font-size="14.00">mfem::Array&lt; mfem::</text>
<text text-anchor="middle" x="381" y="-624.092" font-family="Helvetica,sans-Serif" font-size="14.00">Vertex &gt;</text>
</a>
</g>
</g>
<!-- Node8&#45;&gt;Node2 -->
<g id="edge8" class="edge"><title>Node8&#45;&gt;Node2</title>
<path fill="none" stroke="#9a32cd" stroke-dasharray="5,2" d="M458.963,-613.485C542.742,-589.652 665.505,-554.413 670,-551.292 714.39,-520.477 746.346,-461.955 758.547,-437.019"/>
<polygon fill="#9a32cd" stroke="#9a32cd" points="457.867,-610.158 449.205,-616.259 459.781,-616.891 457.867,-610.158"/>
<text text-anchor="middle" x="593" y="-599.092" font-family="Helvetica,sans-Serif" font-size="14.00"> vertices</text>
</g>
<!-- Node8&#45;&gt;Node1 -->
<g id="edge13" class="edge"><title>Node8&#45;&gt;Node1</title>
<path fill="none" stroke="#9a32cd" stroke-dasharray="5,2" d="M464.229,-642.049C523.641,-643.81 604.604,-639.648 670,-612.292 820.546,-549.319 951.125,-388.487 985.3,-343.905"/>
<polygon fill="#9a32cd" stroke="#9a32cd" points="464.261,-638.548 454.142,-641.687 464.01,-645.544 464.261,-638.548"/>
<text text-anchor="middle" x="765" y="-606.092" font-family="Helvetica,sans-Serif" font-size="14.00"> face_nbr_vertices</text>
</g>
<!-- Node9 -->
<g id="node9" class="node"><title>Node9</title>
<g id="a_node9"><a xlink:href="classmfem_1_1GroupTopology.html" target="_top" xlink:title="mfem::GroupTopology">
<polygon fill="white" stroke="black" points="688.5,-183.792 688.5,-206.792 841.5,-206.792 841.5,-183.792 688.5,-183.792"/>
<text text-anchor="middle" x="765" y="-191.592" font-family="Helvetica,sans-Serif" font-size="14.00">mfem::GroupTopology</text>
</a>
</g>
</g>
<!-- Node9&#45;&gt;Node1 -->
<g id="edge10" class="edge"><title>Node9&#45;&gt;Node1</title>
<path fill="none" stroke="#9a32cd" stroke-dasharray="5,2" d="M824.76,-209.973C830.652,-211.907 836.488,-214.016 842,-216.292 878.789,-231.483 888.138,-236.438 920,-260.292 944.967,-278.985 970.181,-305.529 983.772,-320.617"/>
<polygon fill="#9a32cd" stroke="#9a32cd" points="825.43,-206.516 814.842,-206.887 823.35,-213.2 825.43,-206.516"/>
<text text-anchor="middle" x="890" y="-264.092" font-family="Helvetica,sans-Serif" font-size="14.00"> gtopo</text>
</g>
<!-- Node10&#45;&gt;Node1 -->
<g id="edge15" class="edge"><title>Node10&#45;&gt;Node1</title>
<path fill="none" stroke="#9a32cd" stroke-dasharray="5,2" d="M803.213,-252.798C848.883,-271.827 925.281,-303.659 966.171,-320.697"/>
<polygon fill="#9a32cd" stroke="#9a32cd" points="804.534,-249.557 793.957,-248.941 801.842,-256.018 804.534,-249.557"/>
<text text-anchor="middle" x="890" y="-303.092" font-family="Helvetica,sans-Serif" font-size="14.00"> pncmesh</text>
</g>
</g>
</svg>
