<?xml version="1.0" encoding="UTF-8" standalone="no"?>
<!DOCTYPE svg PUBLIC "-//W3C//DTD SVG 1.1//EN"
 "http://www.w3.org/Graphics/SVG/1.1/DTD/svg11.dtd">
<!-- Generated by graphviz version 2.26.3 (20100126.1600)
 -->
<!-- Title: mfem::L2_FiniteElement&lt; Geometry::TETRAHEDRON, P &gt; Pages: 1 -->
<svg width="522pt" height="96pt"
 viewBox="0.00 0.00 522.00 96.00" xmlns="http://www.w3.org/2000/svg" xmlns:xlink="http://www.w3.org/1999/xlink">
<g id="graph1" class="graph" transform="scale(1 1) rotate(0) translate(4 92)">
<title>mfem::L2_FiniteElement&lt; Geometry::TETRAHEDRON, P &gt;</title>
<polygon fill="white" stroke="white" points="-4,5 -4,-92 519,-92 519,5 -4,5"/>
<!-- Node1 -->
<g id="node1" class="node"><title>Node1</title>
<polygon fill="#bfbfbf" stroke="black" points="282,-24 282,-64 514,-64 514,-24 282,-24"/>
<text text-anchor="start" x="290" y="-47.4" font-family="Helvetica,sans-Serif" font-size="14.00">mfem::L2_FiniteElement</text>
<text text-anchor="middle" x="398" y="-31.4" font-family="Helvetica,sans-Serif" font-size="14.00">&lt; Geometry::TETRAHEDRON, P &gt;</text>
</g>
<!-- Node2 -->
<g id="node2" class="node"><title>Node2</title>
<a xlink:href="classmfem_1_1L2__FiniteElement__base.html" target="_top" xlink:title="mfem::L2_FiniteElement\l_base\&lt; Geometry::TETRAHEDRON,\l P, L2_TetrahedronElement,\l L2Pos_TetrahedronElement,\l((P+1)*(P+2)*(P+3))/6, false \&gt;">
<polygon fill="white" stroke="black" points="0,-0 0,-88 246,-88 246,-0 0,-0"/>
<text text-anchor="start" x="8" y="-71.4" font-family="Helvetica,sans-Serif" font-size="14.00">mfem::L2_FiniteElement</text>
<text text-anchor="start" x="8" y="-55.4" font-family="Helvetica,sans-Serif" font-size="14.00">_base&lt; Geometry::TETRAHEDRON,</text>
<text text-anchor="start" x="8" y="-39.4" font-family="Helvetica,sans-Serif" font-size="14.00"> P, L2_TetrahedronElement,</text>
<text text-anchor="start" x="8" y="-23.4" font-family="Helvetica,sans-Serif" font-size="14.00"> L2Pos_TetrahedronElement,</text>
<text text-anchor="middle" x="123" y="-7.4" font-family="Helvetica,sans-Serif" font-size="14.00">((P+1)*(P+2)*(P+3))/6, false &gt;</text>
</a>
</g>
<!-- Node2&#45;&gt;Node1 -->
<g id="edge2" class="edge"><title>Node2&#45;&gt;Node1</title>
<path fill="none" stroke="midnightblue" d="M256.064,-44C264.633,-44 273.226,-44 281.708,-44"/>
<polygon fill="midnightblue" stroke="midnightblue" points="256.022,-40.5001 246.022,-44 256.022,-47.5001 256.022,-40.5001"/>
</g>
</g>
</svg>
