<?xml version="1.0" encoding="UTF-8" standalone="no"?>
<!DOCTYPE svg PUBLIC "-//W3C//DTD SVG 1.1//EN"
 "http://www.w3.org/Graphics/SVG/1.1/DTD/svg11.dtd">
<!-- Generated by graphviz version 2.30.1 (20140821.0912)
 -->
<!-- Title: mfem::MixedScalarWeakGradientIntegrator Pages: 1 -->
<svg width="230pt" height="228pt"
 viewBox="0.00 0.00 230.00 228.00" xmlns="http://www.w3.org/2000/svg" xmlns:xlink="http://www.w3.org/1999/xlink">
<g id="graph0" class="graph" transform="scale(1 1) rotate(0) translate(4 224)">
<title>mfem::MixedScalarWeakGradientIntegrator</title>
<polygon fill="white" stroke="white" points="-4,5 -4,-224 227,-224 227,5 -4,5"/>
<!-- Node1 -->
<g id="node1" class="node"><title>Node1</title>
<polygon fill="#bfbfbf" stroke="black" points="0,-1 0,-39 222,-39 222,-1 0,-1"/>
<text text-anchor="start" x="8" y="-23.8" font-family="Helvetica,sans-Serif" font-size="14.00">mfem::MixedScalarWeakGradient</text>
<text text-anchor="middle" x="111" y="-8.8" font-family="Helvetica,sans-Serif" font-size="14.00">Integrator</text>
</g>
<!-- Node2 -->
<g id="node2" class="node"><title>Node2</title>
<g id="a_node2"><a xlink:href="classmfem_1_1MixedScalarIntegrator.html" target="_top" xlink:title="mfem::MixedScalarIntegrator">
<polygon fill="white" stroke="black" points="15,-76.5 15,-99.5 207,-99.5 207,-76.5 15,-76.5"/>
<text text-anchor="middle" x="111" y="-84.3" font-family="Helvetica,sans-Serif" font-size="14.00">mfem::MixedScalarIntegrator</text>
</a>
</g>
</g>
<!-- Node2&#45;&gt;Node1 -->
<g id="edge1" class="edge"><title>Node2&#45;&gt;Node1</title>
<path fill="none" stroke="midnightblue" d="M111,-66.2742C111,-57.5413 111,-47.471 111,-39.0484"/>
<polygon fill="midnightblue" stroke="midnightblue" points="107.5,-66.3959 111,-76.396 114.5,-66.396 107.5,-66.3959"/>
</g>
<!-- Node3 -->
<g id="node3" class="node"><title>Node3</title>
<g id="a_node3"><a xlink:href="classmfem_1_1BilinearFormIntegrator.html" target="_top" xlink:title="Abstract base class BilinearFormIntegrator. ">
<polygon fill="white" stroke="black" points="14,-136.5 14,-159.5 208,-159.5 208,-136.5 14,-136.5"/>
<text text-anchor="middle" x="111" y="-144.3" font-family="Helvetica,sans-Serif" font-size="14.00">mfem::BilinearFormIntegrator</text>
</a>
</g>
</g>
<!-- Node3&#45;&gt;Node2 -->
<g id="edge2" class="edge"><title>Node3&#45;&gt;Node2</title>
<path fill="none" stroke="midnightblue" d="M111,-126.191C111,-117.168 111,-106.994 111,-99.5707"/>
<polygon fill="midnightblue" stroke="midnightblue" points="107.5,-126.362 111,-136.362 114.5,-126.362 107.5,-126.362"/>
</g>
<!-- Node4 -->
<g id="node4" class="node"><title>Node4</title>
<g id="a_node4"><a xlink:href="classmfem_1_1NonlinearFormIntegrator.html" target="_top" xlink:title="mfem::NonlinearFormIntegrator">
<polygon fill="white" stroke="black" points="7.5,-196.5 7.5,-219.5 214.5,-219.5 214.5,-196.5 7.5,-196.5"/>
<text text-anchor="middle" x="111" y="-204.3" font-family="Helvetica,sans-Serif" font-size="14.00">mfem::NonlinearFormIntegrator</text>
</a>
</g>
</g>
<!-- Node4&#45;&gt;Node3 -->
<g id="edge3" class="edge"><title>Node4&#45;&gt;Node3</title>
<path fill="none" stroke="midnightblue" d="M111,-186.191C111,-177.168 111,-166.994 111,-159.571"/>
<polygon fill="midnightblue" stroke="midnightblue" points="107.5,-186.362 111,-196.362 114.5,-186.362 107.5,-186.362"/>
</g>
</g>
</svg>
