<?xml version="1.0" encoding="UTF-8" standalone="no"?>
<!DOCTYPE svg PUBLIC "-//W3C//DTD SVG 1.1//EN"
 "http://www.w3.org/Graphics/SVG/1.1/DTD/svg11.dtd">
<!-- Generated by graphviz version 2.40.1 (20161225.0304)
 -->
<!-- Title: mfem::PetscSolver Pages: 1 -->
<svg width="344pt" height="178pt"
 viewBox="0.00 0.00 343.77 178.00" xmlns="http://www.w3.org/2000/svg" xmlns:xlink="http://www.w3.org/1999/xlink">
<g id="graph0" class="graph" transform="scale(1 1) rotate(0) translate(4 174)">
<title>mfem::PetscSolver</title>
<polygon fill="#ffffff" stroke="transparent" points="-4,4 -4,-174 339.772,-174 339.772,4 -4,4"/>
<!-- Node8 -->
<g id="node1" class="node">
<title>Node8</title>
<polygon fill="#bfbfbf" stroke="#000000" points="58.3965,-.5 58.3965,-22.5 191.8721,-22.5 191.8721,-.5 58.3965,-.5"/>
<text text-anchor="middle" x="125.1343" y="-7.3" font-family="Helvetica,sans-Serif" font-size="14.00" fill="#000000">mfem::PetscSolver</text>
</g>
<!-- Node9 -->
<g id="node2" class="node">
<title>Node9</title>
<g id="a_node2"><a xlink:href="classmfem_1_1PetscBCHandler.html" target="_top" xlink:title="Helper class for handling essential boundary conditions. ">
<polygon fill="#ffffff" stroke="#000000" points="0,-87.5 0,-109.5 162.2686,-109.5 162.2686,-87.5 0,-87.5"/>
<text text-anchor="middle" x="81.1343" y="-94.3" font-family="Helvetica,sans-Serif" font-size="14.00" fill="#000000">mfem::PetscBCHandler</text>
</a>
</g>
</g>
<!-- Node9&#45;&gt;Node8 -->
<g id="edge1" class="edge">
<title>Node9&#45;&gt;Node8</title>
<path fill="none" stroke="#9a32cd" stroke-dasharray="5,2" d="M91.3861,-78.2293C100.1329,-60.9346 112.3856,-36.7076 119.4679,-22.7039"/>
<polygon fill="#9a32cd" stroke="#9a32cd" points="88.0968,-76.9781 86.7069,-87.4814 94.3434,-80.1373 88.0968,-76.9781"/>
<text text-anchor="middle" x="142.8237" y="-50.8" font-family="Helvetica,sans-Serif" font-size="14.00" fill="#000000"> bchandler</text>
</g>
<!-- Node10 -->
<g id="node3" class="node">
<title>Node10</title>
<g id="a_node3"><a xlink:href="classmfem_1_1PetscParVector.html" target="_top" xlink:title="Wrapper for PETSc&#39;s vector class. ">
<polygon fill="#ffffff" stroke="#000000" points="180.4966,-87.5 180.4966,-109.5 335.772,-109.5 335.772,-87.5 180.4966,-87.5"/>
<text text-anchor="middle" x="258.1343" y="-94.3" font-family="Helvetica,sans-Serif" font-size="14.00" fill="#000000">mfem::PetscParVector</text>
</a>
</g>
</g>
<!-- Node10&#45;&gt;Node8 -->
<g id="edge2" class="edge">
<title>Node10&#45;&gt;Node8</title>
<path fill="none" stroke="#9a32cd" stroke-dasharray="5,2" d="M235.9858,-81.1925C220.4389,-69.3415 198.9648,-53.5597 179.1343,-41 168.7557,-34.4267 156.8045,-27.806 146.788,-22.5071"/>
<polygon fill="#9a32cd" stroke="#9a32cd" points="233.9039,-84.0067 243.9652,-87.3265 238.1702,-78.457 233.9039,-84.0067"/>
<text text-anchor="middle" x="224.748" y="-57.8" font-family="Helvetica,sans-Serif" font-size="14.00" fill="#000000"> X</text>
<text text-anchor="middle" x="224.748" y="-43.8" font-family="Helvetica,sans-Serif" font-size="14.00" fill="#000000">B</text>
</g>
<!-- Node11 -->
<g id="node4" class="node">
<title>Node11</title>
<g id="a_node4"><a xlink:href="classmfem_1_1Vector.html" target="_top" xlink:title="Vector data type. ">
<polygon fill="#ffffff" stroke="#000000" points="208.8965,-147.5 208.8965,-169.5 307.3721,-169.5 307.3721,-147.5 208.8965,-147.5"/>
<text text-anchor="middle" x="258.1343" y="-154.3" font-family="Helvetica,sans-Serif" font-size="14.00" fill="#000000">mfem::Vector</text>
</a>
</g>
</g>
<!-- Node11&#45;&gt;Node10 -->
<g id="edge3" class="edge">
<title>Node11&#45;&gt;Node10</title>
<path fill="none" stroke="#191970" d="M258.1343,-137.4183C258.1343,-128.1393 258.1343,-117.6082 258.1343,-109.8428"/>
<polygon fill="#191970" stroke="#191970" points="254.6344,-137.495 258.1343,-147.4951 261.6344,-137.4951 254.6344,-137.495"/>
</g>
</g>
</svg>
