<?xml version="1.0" encoding="UTF-8" standalone="no"?>
<!DOCTYPE svg PUBLIC "-//W3C//DTD SVG 1.1//EN"
 "http://www.w3.org/Graphics/SVG/1.1/DTD/svg11.dtd">
<!-- Generated by graphviz version 2.30.1 (20140821.0912)
 -->
<!-- Title: mfem::ParGridFunction Pages: 1 -->
<svg width="166pt" height="152pt"
 viewBox="0.00 0.00 166.00 152.00" xmlns="http://www.w3.org/2000/svg" xmlns:xlink="http://www.w3.org/1999/xlink">
<g id="graph0" class="graph" transform="scale(1 1) rotate(0) translate(4 148)">
<title>mfem::ParGridFunction</title>
<polygon fill="white" stroke="white" points="-4,5 -4,-148 163,-148 163,5 -4,5"/>
<!-- Node1 -->
<g id="node1" class="node"><title>Node1</title>
<polygon fill="#bfbfbf" stroke="black" points="0,-0.5 0,-23.5 158,-23.5 158,-0.5 0,-0.5"/>
<text text-anchor="middle" x="79" y="-8.3" font-family="Helvetica,sans-Serif" font-size="14.00">mfem::ParGridFunction</text>
</g>
<!-- Node2 -->
<g id="node2" class="node"><title>Node2</title>
<g id="a_node2"><a xlink:href="classmfem_1_1GridFunction.html" target="_top" xlink:title="Class for grid function &#45; Vector with associated FE space. ">
<polygon fill="white" stroke="black" points="10.5,-60.5 10.5,-83.5 147.5,-83.5 147.5,-60.5 10.5,-60.5"/>
<text text-anchor="middle" x="79" y="-68.3" font-family="Helvetica,sans-Serif" font-size="14.00">mfem::GridFunction</text>
</a>
</g>
</g>
<!-- Node2&#45;&gt;Node1 -->
<g id="edge1" class="edge"><title>Node2&#45;&gt;Node1</title>
<path fill="none" stroke="midnightblue" d="M79,-50.1906C79,-41.1684 79,-30.9941 79,-23.5707"/>
<polygon fill="midnightblue" stroke="midnightblue" points="75.5001,-50.3619 79,-60.3619 82.5001,-50.3619 75.5001,-50.3619"/>
</g>
<!-- Node3 -->
<g id="node3" class="node"><title>Node3</title>
<g id="a_node3"><a xlink:href="classmfem_1_1Vector.html" target="_top" xlink:title="Vector data type. ">
<polygon fill="white" stroke="black" points="30,-120.5 30,-143.5 128,-143.5 128,-120.5 30,-120.5"/>
<text text-anchor="middle" x="79" y="-128.3" font-family="Helvetica,sans-Serif" font-size="14.00">mfem::Vector</text>
</a>
</g>
</g>
<!-- Node3&#45;&gt;Node2 -->
<g id="edge2" class="edge"><title>Node3&#45;&gt;Node2</title>
<path fill="none" stroke="midnightblue" d="M79,-110.191C79,-101.168 79,-90.9941 79,-83.5707"/>
<polygon fill="midnightblue" stroke="midnightblue" points="75.5001,-110.362 79,-120.362 82.5001,-110.362 75.5001,-110.362"/>
</g>
</g>
</svg>
