<?xml version="1.0" encoding="UTF-8" standalone="no"?>
<!DOCTYPE svg PUBLIC "-//W3C//DTD SVG 1.1//EN"
 "http://www.w3.org/Graphics/SVG/1.1/DTD/svg11.dtd">
<!-- Generated by graphviz version 2.30.1 (20200304.1809)
 -->
<!-- Title: mfem::CGSolver Pages: 1 -->
<svg width="459pt" height="276pt"
 viewBox="0.00 0.00 459.00 276.00" xmlns="http://www.w3.org/2000/svg" xmlns:xlink="http://www.w3.org/1999/xlink">
<g id="graph0" class="graph" transform="scale(1 1) rotate(0) translate(4 272)">
<title>mfem::CGSolver</title>
<polygon fill="white" stroke="white" points="-4,5 -4,-272 456,-272 456,5 -4,5"/>
<!-- Node1 -->
<g id="node1" class="node"><title>Node1</title>
<polygon fill="#bfbfbf" stroke="black" points="256,-0.5 256,-23.5 390,-23.5 390,-0.5 256,-0.5"/>
<text text-anchor="middle" x="323" y="-8.3" font-family="Helvetica,sans-Serif" font-size="14.00">mfem::CGSolver</text>
</g>
<!-- Node2 -->
<g id="node2" class="node"><title>Node2</title>
<g id="a_node2"><a xlink:href="classmfem_1_1IterativeSolver.html" target="_top" xlink:title="Abstract base class for iterative solver. ">
<polygon fill="white" stroke="black" points="54.5,-106.5 54.5,-129.5 227.5,-129.5 227.5,-106.5 54.5,-106.5"/>
<text text-anchor="middle" x="141" y="-114.3" font-family="Helvetica,sans-Serif" font-size="14.00">mfem::IterativeSolver</text>
</a>
</g>
</g>
<!-- Node2&#45;&gt;Node1 -->
<g id="edge1" class="edge"><title>Node2&#45;&gt;Node1</title>
<path fill="none" stroke="midnightblue" d="M206.921,-103.586C219.68,-99.5832 232.611,-94.4749 244,-88 274.086,-70.8958 301.528,-39.9201 314.731,-23.6452"/>
<polygon fill="midnightblue" stroke="midnightblue" points="205.833,-100.258 197.226,-106.437 207.807,-106.974 205.833,-100.258"/>
</g>
<!-- Node5 -->
<g id="node5" class="node"><title>Node5</title>
<g id="a_node5"><a xlink:href="classmfem_1_1IterativeSolverMonitor.html" target="_top" xlink:title="Abstract base class for an iterative solver monitor. ">
<polygon fill="white" stroke="black" points="-0.5,-0.5 -0.5,-23.5 226.5,-23.5 226.5,-0.5 -0.5,-0.5"/>
<text text-anchor="middle" x="113" y="-8.3" font-family="Helvetica,sans-Serif" font-size="14.00">mfem::IterativeSolverMonitor</text>
</a>
</g>
</g>
<!-- Node2&#45;&gt;Node5 -->
<g id="edge6" class="edge"><title>Node2&#45;&gt;Node5</title>
<path fill="none" stroke="#9a32cd" stroke-dasharray="5,2" d="M99.4869,-101.113C94.5196,-97.5333 90.1141,-93.2071 87,-88 76.5067,-70.4539 79.6937,-61.0943 87,-42 89.6582,-35.0531 94.8324,-28.7219 99.8697,-23.7598"/>
<polygon fill="#9a32cd" stroke="#9a32cd" points="97.8878,-104.237 108.248,-106.455 101.532,-98.2604 97.8878,-104.237"/>
<text text-anchor="middle" x="127" y="-61.3" font-family="Helvetica,sans-Serif" font-size="14.00"> iter_solver</text>
</g>
<!-- Node3 -->
<g id="node3" class="node"><title>Node3</title>
<g id="a_node3"><a xlink:href="classmfem_1_1Solver.html" target="_top" xlink:title="Base class for solvers. ">
<polygon fill="white" stroke="black" points="36.5,-182.5 36.5,-205.5 149.5,-205.5 149.5,-182.5 36.5,-182.5"/>
<text text-anchor="middle" x="93" y="-190.3" font-family="Helvetica,sans-Serif" font-size="14.00">mfem::Solver</text>
</a>
</g>
</g>
<!-- Node3&#45;&gt;Node2 -->
<g id="edge2" class="edge"><title>Node3&#45;&gt;Node2</title>
<path fill="none" stroke="midnightblue" d="M97.9435,-172.532C100.47,-164.467 104.075,-155.387 109,-148 113.658,-141.013 120.366,-134.589 126.438,-129.573"/>
<polygon fill="midnightblue" stroke="midnightblue" points="94.5286,-171.749 95.2223,-182.321 101.273,-173.624 94.5286,-171.749"/>
</g>
<!-- Node3&#45;&gt;Node2 -->
<g id="edge4" class="edge"><title>Node3&#45;&gt;Node2</title>
<path fill="none" stroke="#9a32cd" stroke-dasharray="5,2" d="M105.383,-173.909C114.535,-159.801 126.656,-141.114 134.136,-129.583"/>
<polygon fill="#9a32cd" stroke="#9a32cd" points="102.383,-172.103 99.8772,-182.398 108.256,-175.913 102.383,-172.103"/>
<text text-anchor="middle" x="140.5" y="-152.3" font-family="Helvetica,sans-Serif" font-size="14.00"> prec</text>
</g>
<!-- Node4 -->
<g id="node4" class="node"><title>Node4</title>
<g id="a_node4"><a xlink:href="classmfem_1_1Operator.html" target="_top" xlink:title="Abstract operator. ">
<polygon fill="white" stroke="black" points="89.5,-244.5 89.5,-267.5 222.5,-267.5 222.5,-244.5 89.5,-244.5"/>
<text text-anchor="middle" x="156" y="-252.3" font-family="Helvetica,sans-Serif" font-size="14.00">mfem::Operator</text>
</a>
</g>
</g>
<!-- Node4&#45;&gt;Node3 -->
<g id="edge3" class="edge"><title>Node4&#45;&gt;Node3</title>
<path fill="none" stroke="midnightblue" d="M137.4,-237.286C126.605,-227.004 113.365,-214.395 104.166,-205.634"/>
<polygon fill="midnightblue" stroke="midnightblue" points="135.082,-239.911 144.737,-244.273 139.909,-234.842 135.082,-239.911"/>
</g>
<!-- Node4&#45;&gt;Node2 -->
<g id="edge7" class="edge"><title>Node4&#45;&gt;Node2</title>
<path fill="none" stroke="#9a32cd" stroke-dasharray="5,2" d="M161.892,-234.443C167.165,-212.447 172.698,-176.83 163,-148 160.703,-141.172 156.089,-134.674 151.677,-129.567"/>
<polygon fill="#9a32cd" stroke="#9a32cd" points="158.452,-233.767 159.317,-244.327 165.226,-235.532 158.452,-233.767"/>
<text text-anchor="middle" x="188" y="-190.3" font-family="Helvetica,sans-Serif" font-size="14.00"> oper</text>
</g>
<!-- Node5&#45;&gt;Node2 -->
<g id="edge5" class="edge"><title>Node5&#45;&gt;Node2</title>
<path fill="none" stroke="#9a32cd" stroke-dasharray="5,2" d="M158.251,-28.9251C163.301,-32.4768 167.777,-36.7852 171,-42 181.748,-59.3911 178.984,-69.1788 171,-88 167.945,-95.2023 162.128,-101.489 156.424,-106.351"/>
<polygon fill="#9a32cd" stroke="#9a32cd" points="159.716,-25.7251 149.33,-23.6358 156.146,-31.7464 159.716,-25.7251"/>
<text text-anchor="middle" x="209.5" y="-61.3" font-family="Helvetica,sans-Serif" font-size="14.00"> monitor</text>
</g>
<!-- Node6 -->
<g id="node6" class="node"><title>Node6</title>
<g id="a_node6"><a xlink:href="classmfem_1_1Vector.html" target="_top" xlink:title="Vector data type. ">
<polygon fill="white" stroke="black" points="284,-106.5 284,-129.5 398,-129.5 398,-106.5 284,-106.5"/>
<text text-anchor="middle" x="341" y="-114.3" font-family="Helvetica,sans-Serif" font-size="14.00">mfem::Vector</text>
</a>
</g>
</g>
<!-- Node6&#45;&gt;Node1 -->
<g id="edge8" class="edge"><title>Node6&#45;&gt;Node1</title>
<path fill="none" stroke="#9a32cd" stroke-dasharray="5,2" d="M337.415,-96.2851C333.614,-74.327 327.764,-40.5226 324.822,-23.5248"/>
<polygon fill="#9a32cd" stroke="#9a32cd" points="333.987,-97.0053 339.141,-106.262 340.885,-95.8115 333.987,-97.0053"/>
<text text-anchor="middle" x="342.5" y="-76.3" font-family="Helvetica,sans-Serif" font-size="14.00"> z</text>
<text text-anchor="middle" x="342.5" y="-61.3" font-family="Helvetica,sans-Serif" font-size="14.00">r</text>
<text text-anchor="middle" x="342.5" y="-46.3" font-family="Helvetica,sans-Serif" font-size="14.00">d</text>
</g>
<!-- Node7 -->
<g id="node7" class="node"><title>Node7</title>
<g id="a_node7"><a xlink:href="classmfem_1_1Memory.html" target="_top" xlink:title="mfem::Memory\&lt; double \&gt;">
<polygon fill="white" stroke="black" points="242.5,-182.5 242.5,-205.5 451.5,-205.5 451.5,-182.5 242.5,-182.5"/>
<text text-anchor="middle" x="347" y="-190.3" font-family="Helvetica,sans-Serif" font-size="14.00">mfem::Memory&lt; double &gt;</text>
</a>
</g>
</g>
<!-- Node7&#45;&gt;Node6 -->
<g id="edge9" class="edge"><title>Node7&#45;&gt;Node6</title>
<path fill="none" stroke="#9a32cd" stroke-dasharray="5,2" d="M345.32,-172.277C344.194,-158.387 342.757,-140.675 341.858,-129.583"/>
<polygon fill="#9a32cd" stroke="#9a32cd" points="341.844,-172.713 346.14,-182.398 348.821,-172.147 341.844,-172.713"/>
<text text-anchor="middle" x="363.5" y="-152.3" font-family="Helvetica,sans-Serif" font-size="14.00"> data</text>
</g>
</g>
</svg>
