<?xml version="1.0" encoding="UTF-8" standalone="no"?>
<!DOCTYPE svg PUBLIC "-//W3C//DTD SVG 1.1//EN"
 "http://www.w3.org/Graphics/SVG/1.1/DTD/svg11.dtd">
<!-- Generated by graphviz version 2.30.1 (20140821.0912)
 -->
<!-- Title: mfem::GridFunctionCoefficient Pages: 1 -->
<svg width="208pt" height="168pt"
 viewBox="0.00 0.00 208.00 168.00" xmlns="http://www.w3.org/2000/svg" xmlns:xlink="http://www.w3.org/1999/xlink">
<g id="graph0" class="graph" transform="scale(1 1) rotate(0) translate(4 164)">
<title>mfem::GridFunctionCoefficient</title>
<polygon fill="white" stroke="white" points="-4,5 -4,-164 205,-164 205,5 -4,5"/>
<!-- Node1 -->
<g id="node1" class="node"><title>Node1</title>
<polygon fill="#bfbfbf" stroke="black" points="-0.5,-76.5 -0.5,-99.5 200.5,-99.5 200.5,-76.5 -0.5,-76.5"/>
<text text-anchor="middle" x="100" y="-84.3" font-family="Helvetica,sans-Serif" font-size="14.00">mfem::GridFunctionCoefficient</text>
</g>
<!-- Node3 -->
<g id="node3" class="node"><title>Node3</title>
<g id="a_node3"><a xlink:href="classmfem_1_1electromagnetics_1_1ScaledGFCoefficient.html" target="_top" xlink:title="mfem::electromagnetics\l::ScaledGFCoefficient">
<polygon fill="white" stroke="black" points="19,-1 19,-39 181,-39 181,-1 19,-1"/>
<text text-anchor="start" x="27" y="-23.8" font-family="Helvetica,sans-Serif" font-size="14.00">mfem::electromagnetics</text>
<text text-anchor="middle" x="100" y="-8.8" font-family="Helvetica,sans-Serif" font-size="14.00">::ScaledGFCoefficient</text>
</a>
</g>
</g>
<!-- Node1&#45;&gt;Node3 -->
<g id="edge2" class="edge"><title>Node1&#45;&gt;Node3</title>
<path fill="none" stroke="midnightblue" d="M100,-66.2742C100,-57.5413 100,-47.471 100,-39.0484"/>
<polygon fill="midnightblue" stroke="midnightblue" points="96.5001,-66.3959 100,-76.396 103.5,-66.396 96.5001,-66.3959"/>
</g>
<!-- Node2 -->
<g id="node2" class="node"><title>Node2</title>
<g id="a_node2"><a xlink:href="classmfem_1_1Coefficient.html" target="_top" xlink:title="Base class Coefficient that may optionally depend on time. ">
<polygon fill="white" stroke="black" points="38.5,-136.5 38.5,-159.5 161.5,-159.5 161.5,-136.5 38.5,-136.5"/>
<text text-anchor="middle" x="100" y="-144.3" font-family="Helvetica,sans-Serif" font-size="14.00">mfem::Coefficient</text>
</a>
</g>
</g>
<!-- Node2&#45;&gt;Node1 -->
<g id="edge1" class="edge"><title>Node2&#45;&gt;Node1</title>
<path fill="none" stroke="midnightblue" d="M100,-126.191C100,-117.168 100,-106.994 100,-99.5707"/>
<polygon fill="midnightblue" stroke="midnightblue" points="96.5001,-126.362 100,-136.362 103.5,-126.362 96.5001,-126.362"/>
</g>
</g>
</svg>
