<?xml version="1.0" encoding="UTF-8" standalone="no"?>
<!DOCTYPE svg PUBLIC "-//W3C//DTD SVG 1.1//EN"
 "http://www.w3.org/Graphics/SVG/1.1/DTD/svg11.dtd">
<!-- Generated by graphviz version 2.40.1 (20161225.0304)
 -->
<!-- Title: mfem::H1_FECollection Pages: 1 -->
<svg width="444pt" height="311pt"
 viewBox="0.00 0.00 443.60 311.00" xmlns="http://www.w3.org/2000/svg" xmlns:xlink="http://www.w3.org/1999/xlink">
<g id="graph0" class="graph" transform="scale(1 1) rotate(0) translate(4 307)">
<title>mfem::H1_FECollection</title>
<polygon fill="#ffffff" stroke="transparent" points="-4,4 -4,-307 439.603,-307 439.603,4 -4,4"/>
<!-- Node4 -->
<g id="node1" class="node">
<title>Node4</title>
<polygon fill="#bfbfbf" stroke="#000000" points="37.0103,-.5 37.0103,-22.5 200.8374,-22.5 200.8374,-.5 37.0103,-.5"/>
<text text-anchor="middle" x="118.9238" y="-7.3" font-family="Helvetica,sans-Serif" font-size="14.00" fill="#000000">mfem::H1_FECollection</text>
</g>
<!-- Node5 -->
<g id="node2" class="node">
<title>Node5</title>
<g id="a_node2"><a xlink:href="classmfem_1_1FiniteElementCollection.html" target="_top" xlink:title="mfem::FiniteElementCollection">
<polygon fill="#ffffff" stroke="#000000" points="0,-73.5 0,-95.5 205.8477,-95.5 205.8477,-73.5 0,-73.5"/>
<text text-anchor="middle" x="102.9238" y="-80.3" font-family="Helvetica,sans-Serif" font-size="14.00" fill="#000000">mfem::FiniteElementCollection</text>
</a>
</g>
</g>
<!-- Node5&#45;&gt;Node4 -->
<g id="edge1" class="edge">
<title>Node5&#45;&gt;Node4</title>
<path fill="none" stroke="#191970" d="M107.4962,-63.6387C110.417,-50.3122 114.0897,-33.5559 116.4709,-22.6915"/>
<polygon fill="#191970" stroke="#191970" points="104.0761,-62.8954 105.3539,-73.4129 110.9138,-64.3941 104.0761,-62.8954"/>
</g>
<!-- Node6 -->
<g id="node3" class="node">
<title>Node6</title>
<g id="a_node3"><a xlink:href="classmfem_1_1FiniteElement.html" target="_top" xlink:title="Abstract class for Finite Elements. ">
<polygon fill="#ffffff" stroke="#000000" points="223.7378,-73.5 223.7378,-95.5 368.1099,-95.5 368.1099,-73.5 223.7378,-73.5"/>
<text text-anchor="middle" x="295.9238" y="-80.3" font-family="Helvetica,sans-Serif" font-size="14.00" fill="#000000">mfem::FiniteElement</text>
</a>
</g>
</g>
<!-- Node6&#45;&gt;Node4 -->
<g id="edge2" class="edge">
<title>Node6&#45;&gt;Node4</title>
<path fill="none" stroke="#9a32cd" stroke-dasharray="5,2" d="M259.5205,-69.4862C225.7008,-55.5379 176.12,-35.0894 145.7687,-22.5716"/>
<polygon fill="#9a32cd" stroke="#9a32cd" points="258.4622,-72.8357 269.0413,-73.4129 261.1312,-66.3644 258.4622,-72.8357"/>
<text text-anchor="middle" x="267.8892" y="-43.8" font-family="Helvetica,sans-Serif" font-size="14.00" fill="#000000"> H1_Elements</text>
</g>
<!-- Node7 -->
<g id="node4" class="node">
<title>Node7</title>
<g id="a_node4"><a xlink:href="classmfem_1_1IntegrationRule.html" target="_top" xlink:title="Class for an integration rule &#45; an Array of IntegrationPoint. ">
<polygon fill="#ffffff" stroke="#000000" points="126.0586,-146.5 126.0586,-168.5 279.7891,-168.5 279.7891,-146.5 126.0586,-146.5"/>
<text text-anchor="middle" x="202.9238" y="-153.3" font-family="Helvetica,sans-Serif" font-size="14.00" fill="#000000">mfem::IntegrationRule</text>
</a>
</g>
</g>
<!-- Node7&#45;&gt;Node6 -->
<g id="edge3" class="edge">
<title>Node7&#45;&gt;Node6</title>
<path fill="none" stroke="#9a32cd" stroke-dasharray="5,2" d="M225.0745,-140.1129C242.6141,-126.3453 266.5919,-107.524 281.6662,-95.6915"/>
<polygon fill="#9a32cd" stroke="#9a32cd" points="222.7536,-137.4852 217.0485,-146.4129 227.0757,-142.9915 222.7536,-137.4852"/>
<text text-anchor="middle" x="280.103" y="-116.8" font-family="Helvetica,sans-Serif" font-size="14.00" fill="#000000"> Nodes</text>
</g>
<!-- Node8 -->
<g id="node5" class="node">
<title>Node8</title>
<g id="a_node5"><a xlink:href="classmfem_1_1Array.html" target="_top" xlink:title="mfem::Array\&lt; Integration\lPoint \&gt;">
<polygon fill="#ffffff" stroke="#000000" points="117.6982,-206.5 117.6982,-242.5 288.1494,-242.5 288.1494,-206.5 117.6982,-206.5"/>
<text text-anchor="start" x="125.6982" y="-227.3" font-family="Helvetica,sans-Serif" font-size="14.00" fill="#000000">mfem::Array&lt; Integration</text>
<text text-anchor="middle" x="202.9238" y="-213.3" font-family="Helvetica,sans-Serif" font-size="14.00" fill="#000000">Point &gt;</text>
</a>
</g>
</g>
<!-- Node8&#45;&gt;Node7 -->
<g id="edge4" class="edge">
<title>Node8&#45;&gt;Node7</title>
<path fill="none" stroke="#191970" d="M202.9238,-196.1463C202.9238,-186.5368 202.9238,-176.3485 202.9238,-168.8467"/>
<polygon fill="#191970" stroke="#191970" points="199.4239,-196.1919 202.9238,-206.192 206.4239,-196.192 199.4239,-196.1919"/>
</g>
<!-- Node9 -->
<g id="node6" class="node">
<title>Node9</title>
<g id="a_node6"><a xlink:href="classmfem_1_1BaseArray.html" target="_top" xlink:title="Base class for array container. ">
<polygon fill="#ffffff" stroke="#000000" points="140.855,-280.5 140.855,-302.5 264.9927,-302.5 264.9927,-280.5 140.855,-280.5"/>
<text text-anchor="middle" x="202.9238" y="-287.3" font-family="Helvetica,sans-Serif" font-size="14.00" fill="#000000">mfem::BaseArray</text>
</a>
</g>
</g>
<!-- Node9&#45;&gt;Node8 -->
<g id="edge5" class="edge">
<title>Node9&#45;&gt;Node8</title>
<path fill="none" stroke="#191970" d="M202.9238,-270.151C202.9238,-261.3013 202.9238,-251.1428 202.9238,-242.6588"/>
<polygon fill="#191970" stroke="#191970" points="199.4239,-270.4363 202.9238,-280.4363 206.4239,-270.4363 199.4239,-270.4363"/>
</g>
<!-- Node10 -->
<g id="node7" class="node">
<title>Node10</title>
<g id="a_node7"><a xlink:href="classmfem_1_1DenseMatrix.html" target="_top" xlink:title="Data type dense matrix using column&#45;major storage. ">
<polygon fill="#ffffff" stroke="#000000" points="298.2446,-146.5 298.2446,-168.5 435.603,-168.5 435.603,-146.5 298.2446,-146.5"/>
<text text-anchor="middle" x="366.9238" y="-153.3" font-family="Helvetica,sans-Serif" font-size="14.00" fill="#000000">mfem::DenseMatrix</text>
</a>
</g>
</g>
<!-- Node10&#45;&gt;Node6 -->
<g id="edge6" class="edge">
<title>Node10&#45;&gt;Node6</title>
<path fill="none" stroke="#9a32cd" stroke-dasharray="5,2" d="M348.9068,-138.9755C335.6293,-125.3239 318.0031,-107.2013 306.8087,-95.6915"/>
<polygon fill="#9a32cd" stroke="#9a32cd" points="346.6592,-141.6845 356.1405,-146.4129 351.6773,-136.804 346.6592,-141.6845"/>
<text text-anchor="middle" x="362.4409" y="-116.8" font-family="Helvetica,sans-Serif" font-size="14.00" fill="#000000"> vshape</text>
</g>
<!-- Node11 -->
<g id="node8" class="node">
<title>Node11</title>
<g id="a_node8"><a xlink:href="classmfem_1_1Matrix.html" target="_top" xlink:title="Abstract data type matrix. ">
<polygon fill="#ffffff" stroke="#000000" points="318.479,-213.5 318.479,-235.5 415.3687,-235.5 415.3687,-213.5 318.479,-213.5"/>
<text text-anchor="middle" x="366.9238" y="-220.3" font-family="Helvetica,sans-Serif" font-size="14.00" fill="#000000">mfem::Matrix</text>
</a>
</g>
</g>
<!-- Node11&#45;&gt;Node10 -->
<g id="edge7" class="edge">
<title>Node11&#45;&gt;Node10</title>
<path fill="none" stroke="#191970" d="M366.9238,-203.3603C366.9238,-191.914 366.9238,-178.2284 366.9238,-168.8041"/>
<polygon fill="#191970" stroke="#191970" points="363.4239,-203.4363 366.9238,-213.4363 370.4239,-203.4363 363.4239,-203.4363"/>
</g>
<!-- Node12 -->
<g id="node9" class="node">
<title>Node12</title>
<g id="a_node9"><a xlink:href="classmfem_1_1Operator.html" target="_top" xlink:title="Abstract operator. ">
<polygon fill="#ffffff" stroke="#000000" points="309.9102,-280.5 309.9102,-302.5 423.9375,-302.5 423.9375,-280.5 309.9102,-280.5"/>
<text text-anchor="middle" x="366.9238" y="-287.3" font-family="Helvetica,sans-Serif" font-size="14.00" fill="#000000">mfem::Operator</text>
</a>
</g>
</g>
<!-- Node12&#45;&gt;Node11 -->
<g id="edge8" class="edge">
<title>Node12&#45;&gt;Node11</title>
<path fill="none" stroke="#191970" d="M366.9238,-270.3603C366.9238,-258.914 366.9238,-245.2284 366.9238,-235.8041"/>
<polygon fill="#191970" stroke="#191970" points="363.4239,-270.4363 366.9238,-280.4363 370.4239,-270.4363 363.4239,-270.4363"/>
</g>
</g>
</svg>
