<?xml version="1.0" encoding="UTF-8" standalone="no"?>
<!DOCTYPE svg PUBLIC "-//W3C//DTD SVG 1.1//EN"
 "http://www.w3.org/Graphics/SVG/1.1/DTD/svg11.dtd">
<!-- Generated by graphviz version 2.40.1 (20161225.0304)
 -->
<!-- Title: mfem::InverseElementTransformation Pages: 1 -->
<svg width="361pt" height="325pt"
 viewBox="0.00 0.00 360.72 325.00" xmlns="http://www.w3.org/2000/svg" xmlns:xlink="http://www.w3.org/1999/xlink">
<g id="graph0" class="graph" transform="scale(1 1) rotate(0) translate(4 321)">
<title>mfem::InverseElementTransformation</title>
<polygon fill="#ffffff" stroke="transparent" points="-4,4 -4,-321 356.7246,-321 356.7246,4 -4,4"/>
<!-- Node1 -->
<g id="node1" class="node">
<title>Node1</title>
<polygon fill="#bfbfbf" stroke="#000000" points="0,-.5 0,-22.5 249.6797,-22.5 249.6797,-.5 0,-.5"/>
<text text-anchor="middle" x="124.8398" y="-7.3" font-family="Helvetica,sans-Serif" font-size="14.00" fill="#000000">mfem::InverseElementTransformation</text>
</g>
<!-- Node2 -->
<g id="node2" class="node">
<title>Node2</title>
<g id="a_node2"><a xlink:href="classmfem_1_1IntegrationPoint.html" target="_top" xlink:title="Class for integration point with weight. ">
<polygon fill="#ffffff" stroke="#000000" points="30.416,-174.5 30.416,-196.5 187.2637,-196.5 187.2637,-174.5 30.416,-174.5"/>
<text text-anchor="middle" x="108.8398" y="-181.3" font-family="Helvetica,sans-Serif" font-size="14.00" fill="#000000">mfem::IntegrationPoint</text>
</a>
</g>
</g>
<!-- Node2&#45;&gt;Node1 -->
<g id="edge1" class="edge">
<title>Node2&#45;&gt;Node1</title>
<path fill="none" stroke="#9a32cd" stroke-dasharray="5,2" d="M110.1359,-164.1323C111.581,-141.4828 114.1324,-104.6801 117.2676,-73 119.0051,-55.4431 121.6241,-35.1414 123.2821,-22.817"/>
<polygon fill="#9a32cd" stroke="#9a32cd" points="106.6307,-164.1086 109.5007,-174.3073 113.6171,-164.5448 106.6307,-164.1086"/>
<text text-anchor="middle" x="128.126" y="-80.3" font-family="Helvetica,sans-Serif" font-size="14.00" fill="#000000"> ip0</text>
</g>
<!-- Node3 -->
<g id="node3" class="node">
<title>Node3</title>
<g id="a_node3"><a xlink:href="classmfem_1_1ElementTransformation.html" target="_top" xlink:title="mfem::ElementTransformation">
<polygon fill="#ffffff" stroke="#000000" points="148.9551,-73.5 148.9551,-95.5 352.7246,-95.5 352.7246,-73.5 148.9551,-73.5"/>
<text text-anchor="middle" x="250.8398" y="-80.3" font-family="Helvetica,sans-Serif" font-size="14.00" fill="#000000">mfem::ElementTransformation</text>
</a>
</g>
</g>
<!-- Node2&#45;&gt;Node3 -->
<g id="edge3" class="edge">
<title>Node2&#45;&gt;Node3</title>
<path fill="none" stroke="#9a32cd" stroke-dasharray="5,2" d="M130.0522,-167.9657C148.4879,-153.0117 176.1395,-131.258 201.4746,-114 210.8813,-107.5922 221.6995,-101.0414 230.8066,-95.7457"/>
<polygon fill="#9a32cd" stroke="#9a32cd" points="127.8048,-165.2822 122.2717,-174.3174 132.2316,-170.7047 127.8048,-165.2822"/>
<text text-anchor="middle" x="226.5225" y="-130.8" font-family="Helvetica,sans-Serif" font-size="14.00" fill="#000000"> IntPoint</text>
</g>
<!-- Node3&#45;&gt;Node1 -->
<g id="edge2" class="edge">
<title>Node3&#45;&gt;Node1</title>
<path fill="none" stroke="#9a32cd" stroke-dasharray="5,2" d="M222.7537,-68.2279C198.8469,-54.3771 165.1368,-34.8467 144.1566,-22.6915"/>
<polygon fill="#9a32cd" stroke="#9a32cd" points="221.2959,-71.4282 231.7032,-73.4129 224.805,-65.3713 221.2959,-71.4282"/>
<text text-anchor="middle" x="204.9375" y="-43.8" font-family="Helvetica,sans-Serif" font-size="14.00" fill="#000000"> T</text>
</g>
<!-- Node4 -->
<g id="node4" class="node">
<title>Node4</title>
<g id="a_node4"><a xlink:href="classmfem_1_1DenseMatrix.html" target="_top" xlink:title="Data type dense matrix using column&#45;major storage. ">
<polygon fill="#ffffff" stroke="#000000" points="205.1606,-174.5 205.1606,-196.5 342.519,-196.5 342.519,-174.5 205.1606,-174.5"/>
<text text-anchor="middle" x="273.8398" y="-181.3" font-family="Helvetica,sans-Serif" font-size="14.00" fill="#000000">mfem::DenseMatrix</text>
</a>
</g>
</g>
<!-- Node4&#45;&gt;Node3 -->
<g id="edge4" class="edge">
<title>Node4&#45;&gt;Node3</title>
<path fill="none" stroke="#9a32cd" stroke-dasharray="5,2" d="M269.0467,-164.4518C264.2874,-143.5521 257.1721,-112.307 253.4005,-95.7448"/>
<polygon fill="#9a32cd" stroke="#9a32cd" points="265.6575,-165.3321 271.2906,-174.3053 272.4827,-163.7778 265.6575,-165.3321"/>
<text text-anchor="middle" x="282.4019" y="-144.8" font-family="Helvetica,sans-Serif" font-size="14.00" fill="#000000"> adjJ</text>
<text text-anchor="middle" x="282.4019" y="-130.8" font-family="Helvetica,sans-Serif" font-size="14.00" fill="#000000">dFdx</text>
<text text-anchor="middle" x="282.4019" y="-116.8" font-family="Helvetica,sans-Serif" font-size="14.00" fill="#000000">invJ</text>
</g>
<!-- Node5 -->
<g id="node5" class="node">
<title>Node5</title>
<g id="a_node5"><a xlink:href="classmfem_1_1Matrix.html" target="_top" xlink:title="Abstract data type matrix. ">
<polygon fill="#ffffff" stroke="#000000" points="225.395,-234.5 225.395,-256.5 322.2847,-256.5 322.2847,-234.5 225.395,-234.5"/>
<text text-anchor="middle" x="273.8398" y="-241.3" font-family="Helvetica,sans-Serif" font-size="14.00" fill="#000000">mfem::Matrix</text>
</a>
</g>
</g>
<!-- Node5&#45;&gt;Node4 -->
<g id="edge5" class="edge">
<title>Node5&#45;&gt;Node4</title>
<path fill="none" stroke="#191970" d="M273.8398,-224.4183C273.8398,-215.1393 273.8398,-204.6082 273.8398,-196.8428"/>
<polygon fill="#191970" stroke="#191970" points="270.3399,-224.495 273.8398,-234.4951 277.3399,-224.4951 270.3399,-224.495"/>
</g>
<!-- Node6 -->
<g id="node6" class="node">
<title>Node6</title>
<g id="a_node6"><a xlink:href="classmfem_1_1Operator.html" target="_top" xlink:title="Abstract operator. ">
<polygon fill="#ffffff" stroke="#000000" points="216.8262,-294.5 216.8262,-316.5 330.8535,-316.5 330.8535,-294.5 216.8262,-294.5"/>
<text text-anchor="middle" x="273.8398" y="-301.3" font-family="Helvetica,sans-Serif" font-size="14.00" fill="#000000">mfem::Operator</text>
</a>
</g>
</g>
<!-- Node6&#45;&gt;Node5 -->
<g id="edge6" class="edge">
<title>Node6&#45;&gt;Node5</title>
<path fill="none" stroke="#191970" d="M273.8398,-284.4183C273.8398,-275.1393 273.8398,-264.6082 273.8398,-256.8428"/>
<polygon fill="#191970" stroke="#191970" points="270.3399,-284.495 273.8398,-294.4951 277.3399,-284.4951 270.3399,-284.495"/>
</g>
</g>
</svg>
