<?xml version="1.0" encoding="UTF-8" standalone="no"?>
<!DOCTYPE svg PUBLIC "-//W3C//DTD SVG 1.1//EN"
 "http://www.w3.org/Graphics/SVG/1.1/DTD/svg11.dtd">
<!-- Generated by graphviz version 2.40.1 (20161225.0304)
 -->
<!-- Title: mfem::PetscBDDCSolver Pages: 1 -->
<svg width="266pt" height="208pt"
 viewBox="0.00 0.00 265.75 208.00" xmlns="http://www.w3.org/2000/svg" xmlns:xlink="http://www.w3.org/1999/xlink">
<g id="graph0" class="graph" transform="scale(1 1) rotate(0) translate(4 204)">
<title>mfem::PetscBDDCSolver</title>
<polygon fill="#ffffff" stroke="transparent" points="-4,4 -4,-204 261.7515,-204 261.7515,4 -4,4"/>
<!-- Node0 -->
<g id="node1" class="node">
<title>Node0</title>
<polygon fill="#bfbfbf" stroke="#000000" points="47.1655,-.5 47.1655,-22.5 220.3101,-22.5 220.3101,-.5 47.1655,-.5"/>
<text text-anchor="middle" x="133.7378" y="-7.3" font-family="Helvetica,sans-Serif" font-size="14.00" fill="#000000">mfem::PetscBDDCSolver</text>
</g>
<!-- Node1 -->
<g id="node2" class="node">
<title>Node1</title>
<g id="a_node2"><a xlink:href="classmfem_1_1PetscPreconditioner.html" target="_top" xlink:title="Abstract class for PETSc&#39;s preconditioners. ">
<polygon fill="#ffffff" stroke="#000000" points="41.7036,-59.5 41.7036,-81.5 225.772,-81.5 225.772,-59.5 41.7036,-59.5"/>
<text text-anchor="middle" x="133.7378" y="-66.3" font-family="Helvetica,sans-Serif" font-size="14.00" fill="#000000">mfem::PetscPreconditioner</text>
</a>
</g>
</g>
<!-- Node1&#45;&gt;Node0 -->
<g id="edge1" class="edge">
<title>Node1&#45;&gt;Node0</title>
<path fill="none" stroke="#191970" d="M133.7378,-49.198C133.7378,-40.1726 133.7378,-30.0351 133.7378,-22.5477"/>
<polygon fill="#191970" stroke="#191970" points="130.2379,-49.4025 133.7378,-59.4026 137.2379,-49.4026 130.2379,-49.4025"/>
</g>
<!-- Node2 -->
<g id="node3" class="node">
<title>Node2</title>
<g id="a_node3"><a xlink:href="classmfem_1_1PetscSolver.html" target="_top" xlink:title="Abstract class for PETSc&#39;s solvers. ">
<polygon fill="#ffffff" stroke="#000000" points="0,-118.5 0,-140.5 133.4756,-140.5 133.4756,-118.5 0,-118.5"/>
<text text-anchor="middle" x="66.7378" y="-125.3" font-family="Helvetica,sans-Serif" font-size="14.00" fill="#000000">mfem::PetscSolver</text>
</a>
</g>
</g>
<!-- Node2&#45;&gt;Node1 -->
<g id="edge2" class="edge">
<title>Node2&#45;&gt;Node1</title>
<path fill="none" stroke="#191970" d="M86.9493,-111.7018C98.089,-101.8923 111.5682,-90.0225 121.1921,-81.5477"/>
<polygon fill="#191970" stroke="#191970" points="84.5318,-109.167 79.34,-118.4026 89.158,-114.4204 84.5318,-109.167"/>
</g>
<!-- Node3 -->
<g id="node4" class="node">
<title>Node3</title>
<g id="a_node4"><a xlink:href="classmfem_1_1Solver.html" target="_top" xlink:title="Base class for solvers. ">
<polygon fill="#ffffff" stroke="#000000" points="151.5068,-118.5 151.5068,-140.5 249.9688,-140.5 249.9688,-118.5 151.5068,-118.5"/>
<text text-anchor="middle" x="200.7378" y="-125.3" font-family="Helvetica,sans-Serif" font-size="14.00" fill="#000000">mfem::Solver</text>
</a>
</g>
</g>
<!-- Node3&#45;&gt;Node1 -->
<g id="edge3" class="edge">
<title>Node3&#45;&gt;Node1</title>
<path fill="none" stroke="#191970" d="M180.5263,-111.7018C169.3866,-101.8923 155.9074,-90.0225 146.2835,-81.5477"/>
<polygon fill="#191970" stroke="#191970" points="178.3176,-114.4204 188.1356,-118.4026 182.9438,-109.167 178.3176,-114.4204"/>
</g>
<!-- Node4 -->
<g id="node5" class="node">
<title>Node4</title>
<g id="a_node5"><a xlink:href="classmfem_1_1Operator.html" target="_top" xlink:title="Abstract operator. ">
<polygon fill="#ffffff" stroke="#000000" points="143.7241,-177.5 143.7241,-199.5 257.7515,-199.5 257.7515,-177.5 143.7241,-177.5"/>
<text text-anchor="middle" x="200.7378" y="-184.3" font-family="Helvetica,sans-Serif" font-size="14.00" fill="#000000">mfem::Operator</text>
</a>
</g>
</g>
<!-- Node4&#45;&gt;Node3 -->
<g id="edge4" class="edge">
<title>Node4&#45;&gt;Node3</title>
<path fill="none" stroke="#191970" d="M200.7378,-167.198C200.7378,-158.1726 200.7378,-148.0351 200.7378,-140.5477"/>
<polygon fill="#191970" stroke="#191970" points="197.2379,-167.4025 200.7378,-177.4026 204.2379,-167.4026 197.2379,-167.4025"/>
</g>
</g>
</svg>
