<?xml version="1.0" encoding="UTF-8" standalone="no"?>
<!DOCTYPE svg PUBLIC "-//W3C//DTD SVG 1.1//EN"
 "http://www.w3.org/Graphics/SVG/1.1/DTD/svg11.dtd">
<!-- Generated by graphviz version 2.40.1 (20161225.0304)
 -->
<!-- Title: mfem::UMFPackSolver Pages: 1 -->
<svg width="478pt" height="333pt"
 viewBox="0.00 0.00 478.00 333.00" xmlns="http://www.w3.org/2000/svg" xmlns:xlink="http://www.w3.org/1999/xlink">
<g id="graph0" class="graph" transform="scale(1 1) rotate(0) translate(4 329)">
<title>mfem::UMFPackSolver</title>
<polygon fill="#ffffff" stroke="transparent" points="-4,4 -4,-329 473.998,-329 473.998,4 -4,4"/>
<!-- Node3 -->
<g id="node1" class="node">
<title>Node3</title>
<polygon fill="#bfbfbf" stroke="#000000" points="0,-.5 0,-22.5 159.9102,-22.5 159.9102,-.5 0,-.5"/>
<text text-anchor="middle" x="79.9551" y="-7.3" font-family="Helvetica,sans-Serif" font-size="14.00" fill="#000000">mfem::UMFPackSolver</text>
</g>
<!-- Node4 -->
<g id="node2" class="node">
<title>Node4</title>
<g id="a_node2"><a xlink:href="classmfem_1_1Solver.html" target="_top" xlink:title="Base class for solvers. ">
<polygon fill="#ffffff" stroke="#000000" points="38.7241,-201.5 38.7241,-223.5 137.186,-223.5 137.186,-201.5 38.7241,-201.5"/>
<text text-anchor="middle" x="87.9551" y="-208.3" font-family="Helvetica,sans-Serif" font-size="14.00" fill="#000000">mfem::Solver</text>
</a>
</g>
</g>
<!-- Node4&#45;&gt;Node3 -->
<g id="edge1" class="edge">
<title>Node4&#45;&gt;Node3</title>
<path fill="none" stroke="#191970" d="M83.9577,-191.2207C83.5547,-188.4631 83.2033,-185.6702 82.9551,-183 77.3597,-122.8084 78.7518,-50.2378 79.5681,-22.769"/>
<polygon fill="#191970" stroke="#191970" points="80.55,-192.0631 85.6573,-201.3456 87.4534,-190.9042 80.55,-192.0631"/>
</g>
<!-- Node5 -->
<g id="node3" class="node">
<title>Node5</title>
<g id="a_node3"><a xlink:href="classmfem_1_1Operator.html" target="_top" xlink:title="Abstract operator. ">
<polygon fill="#ffffff" stroke="#000000" points="54.9414,-302.5 54.9414,-324.5 168.9688,-324.5 168.9688,-302.5 54.9414,-302.5"/>
<text text-anchor="middle" x="111.9551" y="-309.3" font-family="Helvetica,sans-Serif" font-size="14.00" fill="#000000">mfem::Operator</text>
</a>
</g>
</g>
<!-- Node5&#45;&gt;Node4 -->
<g id="edge2" class="edge">
<title>Node5&#45;&gt;Node4</title>
<path fill="none" stroke="#191970" d="M106.9535,-292.4518C101.9873,-271.5521 94.5627,-240.307 90.6271,-223.7448"/>
<polygon fill="#191970" stroke="#191970" points="103.5778,-293.3854 109.295,-302.3053 110.3882,-291.7671 103.5778,-293.3854"/>
</g>
<!-- Node8 -->
<g id="node6" class="node">
<title>Node8</title>
<g id="a_node6"><a xlink:href="classmfem_1_1Matrix.html" target="_top" xlink:title="Abstract data type matrix. ">
<polygon fill="#ffffff" stroke="#000000" points="133.5103,-242.5 133.5103,-264.5 230.3999,-264.5 230.3999,-242.5 133.5103,-242.5"/>
<text text-anchor="middle" x="181.9551" y="-249.3" font-family="Helvetica,sans-Serif" font-size="14.00" fill="#000000">mfem::Matrix</text>
</a>
</g>
</g>
<!-- Node5&#45;&gt;Node8 -->
<g id="edge6" class="edge">
<title>Node5&#45;&gt;Node8</title>
<path fill="none" stroke="#191970" d="M132.3994,-295.9763C144.1159,-285.9336 158.4805,-273.6211 168.7218,-264.8428"/>
<polygon fill="#191970" stroke="#191970" points="130.109,-293.3297 124.7942,-302.4951 134.6645,-298.6445 130.109,-293.3297"/>
</g>
<!-- Node6 -->
<g id="node4" class="node">
<title>Node6</title>
<g id="a_node4"><a xlink:href="classmfem_1_1SparseMatrix.html" target="_top" xlink:title="Data type sparse matrix. ">
<polygon fill="#ffffff" stroke="#000000" points="117.3311,-73.5 117.3311,-95.5 258.5791,-95.5 258.5791,-73.5 117.3311,-73.5"/>
<text text-anchor="middle" x="187.9551" y="-80.3" font-family="Helvetica,sans-Serif" font-size="14.00" fill="#000000">mfem::SparseMatrix</text>
</a>
</g>
</g>
<!-- Node6&#45;&gt;Node3 -->
<g id="edge3" class="edge">
<title>Node6&#45;&gt;Node3</title>
<path fill="none" stroke="#9a32cd" stroke-dasharray="5,2" d="M163.0608,-67.6733C142.6245,-53.8599 114.2566,-34.6853 96.5123,-22.6915"/>
<polygon fill="#9a32cd" stroke="#9a32cd" points="161.3072,-70.7126 171.5522,-73.4129 165.2273,-64.9131 161.3072,-70.7126"/>
<text text-anchor="middle" x="157.5688" y="-43.8" font-family="Helvetica,sans-Serif" font-size="14.00" fill="#000000"> mat</text>
</g>
<!-- Node7 -->
<g id="node5" class="node">
<title>Node7</title>
<g id="a_node5"><a xlink:href="classmfem_1_1AbstractSparseMatrix.html" target="_top" xlink:title="Abstract data type for sparse matrices. ">
<polygon fill="#ffffff" stroke="#000000" points="91.6553,-153.5 91.6553,-175.5 284.2549,-175.5 284.2549,-153.5 91.6553,-153.5"/>
<text text-anchor="middle" x="187.9551" y="-160.3" font-family="Helvetica,sans-Serif" font-size="14.00" fill="#000000">mfem::AbstractSparseMatrix</text>
</a>
</g>
</g>
<!-- Node7&#45;&gt;Node6 -->
<g id="edge4" class="edge">
<title>Node7&#45;&gt;Node6</title>
<path fill="none" stroke="#191970" d="M187.9551,-143.2222C187.9551,-127.8783 187.9551,-107.7881 187.9551,-95.5292"/>
<polygon fill="#191970" stroke="#191970" points="184.4552,-143.3763 187.9551,-153.3763 191.4552,-143.3764 184.4552,-143.3763"/>
</g>
<!-- Node8&#45;&gt;Node7 -->
<g id="edge5" class="edge">
<title>Node8&#45;&gt;Node7</title>
<path fill="none" stroke="#191970" d="M183.3907,-232.205C184.5886,-214.4356 186.2486,-189.8124 187.2013,-175.6804"/>
<polygon fill="#191970" stroke="#191970" points="179.8956,-232.0153 182.715,-242.2281 186.8798,-232.4862 179.8956,-232.0153"/>
</g>
<!-- Node9 -->
<g id="node7" class="node">
<title>Node9</title>
<g id="a_node7"><a xlink:href="classmfem_1_1MemAlloc.html" target="_top" xlink:title="mfem::MemAlloc\&lt; Elem,\l Num \&gt;">
<polygon fill="#ffffff" stroke="#000000" points="301.9121,-146.5 301.9121,-182.5 469.998,-182.5 469.998,-146.5 301.9121,-146.5"/>
<text text-anchor="start" x="309.9121" y="-167.3" font-family="Helvetica,sans-Serif" font-size="14.00" fill="#000000">mfem::MemAlloc&lt; Elem,</text>
<text text-anchor="middle" x="385.9551" y="-153.3" font-family="Helvetica,sans-Serif" font-size="14.00" fill="#000000"> Num &gt;</text>
</a>
</g>
</g>
<!-- Node9&#45;&gt;Node6 -->
<g id="edge7" class="edge">
<title>Node9&#45;&gt;Node6</title>
<path fill="none" stroke="#9a32cd" stroke-dasharray="5,2" d="M331.6876,-142.5738C293.9558,-127.3286 245.2468,-107.6482 215.3253,-95.5587"/>
<polygon fill="#9a32cd" stroke="#9a32cd" points="330.4428,-145.8457 341.0258,-146.3468 333.0652,-139.3554 330.4428,-145.8457"/>
<text text-anchor="middle" x="330.6895" y="-116.8" font-family="Helvetica,sans-Serif" font-size="14.00" fill="#000000"> NodesMem</text>
</g>
</g>
</svg>
