<?xml version="1.0" encoding="UTF-8" standalone="no"?>
<!DOCTYPE svg PUBLIC "-//W3C//DTD SVG 1.1//EN"
 "http://www.w3.org/Graphics/SVG/1.1/DTD/svg11.dtd">
<!-- Generated by graphviz version 2.40.1 (20161225.0304)
 -->
<!-- Title: mfem::MINRESSolver Pages: 1 -->
<svg width="161pt" height="208pt"
 viewBox="0.00 0.00 160.91 208.00" xmlns="http://www.w3.org/2000/svg" xmlns:xlink="http://www.w3.org/1999/xlink">
<g id="graph0" class="graph" transform="scale(1 1) rotate(0) translate(4 204)">
<title>mfem::MINRESSolver</title>
<polygon fill="#ffffff" stroke="transparent" points="-4,4 -4,-204 156.9102,-204 156.9102,4 -4,4"/>
<!-- Node0 -->
<g id="node1" class="node">
<title>Node0</title>
<polygon fill="#bfbfbf" stroke="#000000" points="0,-.5 0,-22.5 152.9102,-22.5 152.9102,-.5 0,-.5"/>
<text text-anchor="middle" x="76.4551" y="-7.3" font-family="Helvetica,sans-Serif" font-size="14.00" fill="#000000">mfem::MINRESSolver</text>
</g>
<!-- Node1 -->
<g id="node2" class="node">
<title>Node1</title>
<g id="a_node2"><a xlink:href="classmfem_1_1IterativeSolver.html" target="_top" xlink:title="Abstract base class for iterative solver. ">
<polygon fill="#ffffff" stroke="#000000" points="2.3242,-59.5 2.3242,-81.5 150.5859,-81.5 150.5859,-59.5 2.3242,-59.5"/>
<text text-anchor="middle" x="76.4551" y="-66.3" font-family="Helvetica,sans-Serif" font-size="14.00" fill="#000000">mfem::IterativeSolver</text>
</a>
</g>
</g>
<!-- Node1&#45;&gt;Node0 -->
<g id="edge1" class="edge">
<title>Node1&#45;&gt;Node0</title>
<path fill="none" stroke="#191970" d="M76.4551,-49.198C76.4551,-40.1726 76.4551,-30.0351 76.4551,-22.5477"/>
<polygon fill="#191970" stroke="#191970" points="72.9552,-49.4025 76.4551,-59.4026 79.9552,-49.4026 72.9552,-49.4025"/>
</g>
<!-- Node2 -->
<g id="node3" class="node">
<title>Node2</title>
<g id="a_node3"><a xlink:href="classmfem_1_1Solver.html" target="_top" xlink:title="Base class for solvers. ">
<polygon fill="#ffffff" stroke="#000000" points="27.2241,-118.5 27.2241,-140.5 125.686,-140.5 125.686,-118.5 27.2241,-118.5"/>
<text text-anchor="middle" x="76.4551" y="-125.3" font-family="Helvetica,sans-Serif" font-size="14.00" fill="#000000">mfem::Solver</text>
</a>
</g>
</g>
<!-- Node2&#45;&gt;Node1 -->
<g id="edge2" class="edge">
<title>Node2&#45;&gt;Node1</title>
<path fill="none" stroke="#191970" d="M76.4551,-108.198C76.4551,-99.1726 76.4551,-89.0351 76.4551,-81.5477"/>
<polygon fill="#191970" stroke="#191970" points="72.9552,-108.4025 76.4551,-118.4026 79.9552,-108.4026 72.9552,-108.4025"/>
</g>
<!-- Node3 -->
<g id="node4" class="node">
<title>Node3</title>
<g id="a_node4"><a xlink:href="classmfem_1_1Operator.html" target="_top" xlink:title="Abstract operator. ">
<polygon fill="#ffffff" stroke="#000000" points="19.4414,-177.5 19.4414,-199.5 133.4688,-199.5 133.4688,-177.5 19.4414,-177.5"/>
<text text-anchor="middle" x="76.4551" y="-184.3" font-family="Helvetica,sans-Serif" font-size="14.00" fill="#000000">mfem::Operator</text>
</a>
</g>
</g>
<!-- Node3&#45;&gt;Node2 -->
<g id="edge3" class="edge">
<title>Node3&#45;&gt;Node2</title>
<path fill="none" stroke="#191970" d="M76.4551,-167.198C76.4551,-158.1726 76.4551,-148.0351 76.4551,-140.5477"/>
<polygon fill="#191970" stroke="#191970" points="72.9552,-167.4025 76.4551,-177.4026 79.9552,-167.4026 72.9552,-167.4025"/>
</g>
</g>
</svg>
