<?xml version="1.0" encoding="UTF-8" standalone="no"?>
<!DOCTYPE svg PUBLIC "-//W3C//DTD SVG 1.1//EN"
 "http://www.w3.org/Graphics/SVG/1.1/DTD/svg11.dtd">
<!-- Generated by graphviz version 2.30.1 (20200304.1809)
 -->
<!-- Title: mfem::NodalFiniteElement Pages: 1 -->
<svg width="2224pt" height="282pt"
 viewBox="0.00 0.00 2224.00 282.00" xmlns="http://www.w3.org/2000/svg" xmlns:xlink="http://www.w3.org/1999/xlink">
<g id="graph0" class="graph" transform="scale(1 1) rotate(0) translate(4 278)">
<title>mfem::NodalFiniteElement</title>
<polygon fill="white" stroke="white" points="-4,5 -4,-278 2221,-278 2221,5 -4,5"/>
<!-- Node1 -->
<g id="node1" class="node"><title>Node1</title>
<polygon fill="#bfbfbf" stroke="black" points="1758.5,-21.5 1758.5,-44.5 1965.5,-44.5 1965.5,-21.5 1758.5,-21.5"/>
<text text-anchor="middle" x="1862" y="-29.3" font-family="Helvetica,sans-Serif" font-size="14.00">mfem::NodalFiniteElement</text>
</g>
<!-- Node2 -->
<g id="node2" class="node"><title>Node2</title>
<g id="a_node2"><a xlink:href="classmfem_1_1ScalarFiniteElement.html" target="_top" xlink:title="Class for finite elements with basis functions that return scalar values. ">
<polygon fill="white" stroke="black" points="1392,-42.5 1392,-65.5 1602,-65.5 1602,-42.5 1392,-42.5"/>
<text text-anchor="middle" x="1497" y="-50.3" font-family="Helvetica,sans-Serif" font-size="14.00">mfem::ScalarFiniteElement</text>
</a>
</g>
</g>
<!-- Node2&#45;&gt;Node1 -->
<g id="edge1" class="edge"><title>Node2&#45;&gt;Node1</title>
<path fill="none" stroke="midnightblue" d="M1612.2,-47.3934C1658.97,-44.6875 1712.69,-41.5797 1758.22,-38.946"/>
<polygon fill="midnightblue" stroke="midnightblue" points="1611.8,-43.9104 1602.02,-47.9822 1612.21,-50.8988 1611.8,-43.9104"/>
</g>
<!-- Node3 -->
<g id="node3" class="node"><title>Node3</title>
<g id="a_node3"><a xlink:href="classmfem_1_1FiniteElement.html" target="_top" xlink:title="Abstract class for all finite elements. ">
<polygon fill="white" stroke="black" points="1114,-110.5 1114,-133.5 1280,-133.5 1280,-110.5 1114,-110.5"/>
<text text-anchor="middle" x="1197" y="-118.3" font-family="Helvetica,sans-Serif" font-size="14.00">mfem::FiniteElement</text>
</a>
</g>
</g>
<!-- Node3&#45;&gt;Node2 -->
<g id="edge2" class="edge"><title>Node3&#45;&gt;Node2</title>
<path fill="none" stroke="midnightblue" d="M1257.16,-108.196C1274.21,-104.237 1292.84,-99.9292 1310,-96 1355.5,-85.5817 1407.3,-73.8987 1444.66,-65.5046"/>
<polygon fill="midnightblue" stroke="midnightblue" points="1256.28,-104.808 1247.33,-110.481 1257.86,-111.626 1256.28,-104.808"/>
</g>
<!-- Node10 -->
<g id="node10" class="node"><title>Node10</title>
<g id="a_node10"><a xlink:href="classmfem_1_1DofToQuad.html" target="_top" xlink:title="Structure representing the matrices/tensors needed to evaluate (in reference space) the values...">
<polygon fill="white" stroke="black" points="1423,-163.5 1423,-186.5 1571,-186.5 1571,-163.5 1423,-163.5"/>
<text text-anchor="middle" x="1497" y="-171.3" font-family="Helvetica,sans-Serif" font-size="14.00">mfem::DofToQuad</text>
</a>
</g>
</g>
<!-- Node3&#45;&gt;Node10 -->
<g id="edge13" class="edge"><title>Node3&#45;&gt;Node10</title>
<path fill="none" stroke="#9a32cd" stroke-dasharray="5,2" d="M1272.53,-135.256C1321.34,-143.936 1384.49,-155.168 1431.21,-163.477"/>
<polygon fill="#9a32cd" stroke="#9a32cd" points="1273.12,-131.805 1262.66,-133.5 1271.89,-138.697 1273.12,-131.805"/>
<text text-anchor="middle" x="1342" y="-157.8" font-family="Helvetica,sans-Serif" font-size="14.00"> FE</text>
</g>
<!-- Node4 -->
<g id="node4" class="node"><title>Node4</title>
<g id="a_node4"><a xlink:href="classmfem_1_1IntegrationRule.html" target="_top" xlink:title="Class for an integration rule &#45; an Array of IntegrationPoint. ">
<polygon fill="white" stroke="black" points="814,-221.5 814,-244.5 992,-244.5 992,-221.5 814,-221.5"/>
<text text-anchor="middle" x="903" y="-229.3" font-family="Helvetica,sans-Serif" font-size="14.00">mfem::IntegrationRule</text>
</a>
</g>
</g>
<!-- Node4&#45;&gt;Node3 -->
<g id="edge3" class="edge"><title>Node4&#45;&gt;Node3</title>
<path fill="none" stroke="#9a32cd" stroke-dasharray="5,2" d="M1002.16,-222.586C1030.82,-215.735 1060.67,-204.471 1084,-186 1097.41,-175.387 1088.88,-162.968 1102,-152 1111.72,-143.868 1123.68,-137.931 1135.77,-133.599"/>
<polygon fill="#9a32cd" stroke="#9a32cd" points="1001.08,-219.239 992.083,-224.83 1002.6,-226.072 1001.08,-219.239"/>
<text text-anchor="middle" x="1055" y="-218.8" font-family="Helvetica,sans-Serif" font-size="14.00"> Nodes</text>
</g>
<!-- Node4&#45;&gt;Node10 -->
<g id="edge10" class="edge"><title>Node4&#45;&gt;Node10</title>
<path fill="none" stroke="#9a32cd" stroke-dasharray="5,2" d="M982.598,-245.909C1077.06,-258.719 1239.64,-272.103 1374,-239 1415.11,-228.873 1457.69,-202.155 1480.06,-186.629"/>
<polygon fill="#9a32cd" stroke="#9a32cd" points="982.935,-242.422 972.548,-244.513 981.972,-249.356 982.935,-242.422"/>
<text text-anchor="middle" x="1197" y="-262.8" font-family="Helvetica,sans-Serif" font-size="14.00"> IntRule</text>
</g>
<!-- Node5 -->
<g id="node5" class="node"><title>Node5</title>
<g id="a_node5"><a xlink:href="classmfem_1_1Array.html" target="_top" xlink:title="mfem::Array\&lt; Integration\lPoint \&gt;">
<polygon fill="white" stroke="black" points="556.5,-214 556.5,-252 759.5,-252 759.5,-214 556.5,-214"/>
<text text-anchor="start" x="564.5" y="-236.8" font-family="Helvetica,sans-Serif" font-size="14.00">mfem::Array&lt; Integration</text>
<text text-anchor="middle" x="658" y="-221.8" font-family="Helvetica,sans-Serif" font-size="14.00">Point &gt;</text>
</a>
</g>
</g>
<!-- Node5&#45;&gt;Node4 -->
<g id="edge4" class="edge"><title>Node5&#45;&gt;Node4</title>
<path fill="none" stroke="midnightblue" d="M769.783,-233C784.568,-233 799.567,-233 813.894,-233"/>
<polygon fill="midnightblue" stroke="midnightblue" points="769.592,-229.5 759.591,-233 769.591,-236.5 769.592,-229.5"/>
</g>
<!-- Node6 -->
<g id="node6" class="node"><title>Node6</title>
<g id="a_node6"><a xlink:href="classmfem_1_1Memory.html" target="_top" xlink:title="mfem::Memory\&lt; Integration\lPoint \&gt;">
<polygon fill="white" stroke="black" points="260,-214 260,-252 482,-252 482,-214 260,-214"/>
<text text-anchor="start" x="268" y="-236.8" font-family="Helvetica,sans-Serif" font-size="14.00">mfem::Memory&lt; Integration</text>
<text text-anchor="middle" x="371" y="-221.8" font-family="Helvetica,sans-Serif" font-size="14.00">Point &gt;</text>
</a>
</g>
</g>
<!-- Node6&#45;&gt;Node5 -->
<g id="edge5" class="edge"><title>Node6&#45;&gt;Node5</title>
<path fill="none" stroke="#9a32cd" stroke-dasharray="5,2" d="M492.278,-233C513.639,-233 535.683,-233 556.426,-233"/>
<polygon fill="#9a32cd" stroke="#9a32cd" points="492.188,-229.5 482.188,-233 492.188,-236.5 492.188,-229.5"/>
<text text-anchor="middle" x="519" y="-236.8" font-family="Helvetica,sans-Serif" font-size="14.00"> data</text>
</g>
<!-- Node7 -->
<g id="node7" class="node"><title>Node7</title>
<g id="a_node7"><a xlink:href="classmfem_1_1IntegrationPoint.html" target="_top" xlink:title="Class for integration point with weight. ">
<polygon fill="white" stroke="black" points="0,-221.5 0,-244.5 182,-244.5 182,-221.5 0,-221.5"/>
<text text-anchor="middle" x="91" y="-229.3" font-family="Helvetica,sans-Serif" font-size="14.00">mfem::IntegrationPoint</text>
</a>
</g>
</g>
<!-- Node7&#45;&gt;Node6 -->
<g id="edge6" class="edge"><title>Node7&#45;&gt;Node6</title>
<path fill="none" stroke="#9a32cd" stroke-dasharray="5,2" d="M192.526,-233C214.373,-233 237.597,-233 259.796,-233"/>
<polygon fill="#9a32cd" stroke="#9a32cd" points="192.259,-229.5 182.259,-233 192.259,-236.5 192.259,-229.5"/>
<text text-anchor="middle" x="221" y="-236.8" font-family="Helvetica,sans-Serif" font-size="14.00"> h_ptr</text>
</g>
<!-- Node8 -->
<g id="node8" class="node"><title>Node8</title>
<g id="a_node8"><a xlink:href="classmfem_1_1Array.html" target="_top" xlink:title="mfem::Array\&lt; mfem::\lDofToQuad * \&gt;">
<polygon fill="white" stroke="black" points="2040,-109 2040,-147 2216,-147 2216,-109 2040,-109"/>
<text text-anchor="start" x="2048" y="-131.8" font-family="Helvetica,sans-Serif" font-size="14.00">mfem::Array&lt; mfem::</text>
<text text-anchor="middle" x="2128" y="-116.8" font-family="Helvetica,sans-Serif" font-size="14.00">DofToQuad * &gt;</text>
</a>
</g>
</g>
<!-- Node8&#45;&gt;Node3 -->
<g id="edge7" class="edge"><title>Node8&#45;&gt;Node3</title>
<path fill="none" stroke="#9a32cd" stroke-dasharray="5,2" d="M2029.74,-127.372C1846.08,-126.186 1451.28,-123.636 1280.04,-122.53"/>
<polygon fill="#9a32cd" stroke="#9a32cd" points="2029.91,-130.873 2039.93,-127.438 2029.96,-123.873 2029.91,-130.873"/>
<text text-anchor="middle" x="1680" y="-129.8" font-family="Helvetica,sans-Serif" font-size="14.00"> dof2quad_array</text>
</g>
<!-- Node9 -->
<g id="node9" class="node"><title>Node9</title>
<g id="a_node9"><a xlink:href="classmfem_1_1Memory.html" target="_top" xlink:title="mfem::Memory\&lt; mfem\l::DofToQuad * \&gt;">
<polygon fill="white" stroke="black" points="1769,-139 1769,-177 1955,-177 1955,-139 1769,-139"/>
<text text-anchor="start" x="1777" y="-161.8" font-family="Helvetica,sans-Serif" font-size="14.00">mfem::Memory&lt; mfem</text>
<text text-anchor="middle" x="1862" y="-146.8" font-family="Helvetica,sans-Serif" font-size="14.00">::DofToQuad * &gt;</text>
</a>
</g>
</g>
<!-- Node9&#45;&gt;Node8 -->
<g id="edge8" class="edge"><title>Node9&#45;&gt;Node8</title>
<path fill="none" stroke="#9a32cd" stroke-dasharray="5,2" d="M1965.37,-146.367C1989.89,-143.581 2015.83,-140.633 2039.6,-137.932"/>
<polygon fill="#9a32cd" stroke="#9a32cd" points="1964.88,-142.901 1955.33,-147.507 1965.67,-149.856 1964.88,-142.901"/>
<text text-anchor="middle" x="2003" y="-147.8" font-family="Helvetica,sans-Serif" font-size="14.00"> data</text>
</g>
<!-- Node10&#45;&gt;Node9 -->
<g id="edge9" class="edge"><title>Node10&#45;&gt;Node9</title>
<path fill="none" stroke="#9a32cd" stroke-dasharray="5,2" d="M1581.25,-171.101C1637.2,-168.481 1710.98,-165.026 1768.72,-162.322"/>
<polygon fill="#9a32cd" stroke="#9a32cd" points="1580.85,-167.616 1571.02,-171.58 1581.17,-174.609 1580.85,-167.616"/>
<text text-anchor="middle" x="1680" y="-173.8" font-family="Helvetica,sans-Serif" font-size="14.00"> h_ptr</text>
</g>
<!-- Node11 -->
<g id="node11" class="node"><title>Node11</title>
<g id="a_node11"><a xlink:href="classmfem_1_1Array.html" target="_top" xlink:title="mfem::Array\&lt; double \&gt;">
<polygon fill="white" stroke="black" points="1102.5,-161.5 1102.5,-184.5 1291.5,-184.5 1291.5,-161.5 1102.5,-161.5"/>
<text text-anchor="middle" x="1197" y="-169.3" font-family="Helvetica,sans-Serif" font-size="14.00">mfem::Array&lt; double &gt;</text>
</a>
</g>
</g>
<!-- Node11&#45;&gt;Node10 -->
<g id="edge11" class="edge"><title>Node11&#45;&gt;Node10</title>
<path fill="none" stroke="#9a32cd" stroke-dasharray="5,2" d="M1301.91,-173.697C1341.82,-173.965 1386.49,-174.265 1422.9,-174.509"/>
<polygon fill="#9a32cd" stroke="#9a32cd" points="1301.9,-170.197 1291.88,-173.63 1301.86,-177.197 1301.9,-170.197"/>
<text text-anchor="middle" x="1342" y="-223.8" font-family="Helvetica,sans-Serif" font-size="14.00"> G</text>
<text text-anchor="middle" x="1342" y="-208.8" font-family="Helvetica,sans-Serif" font-size="14.00">Gt</text>
<text text-anchor="middle" x="1342" y="-193.8" font-family="Helvetica,sans-Serif" font-size="14.00">B</text>
<text text-anchor="middle" x="1342" y="-178.8" font-family="Helvetica,sans-Serif" font-size="14.00">Bt</text>
</g>
<!-- Node12 -->
<g id="node12" class="node"><title>Node12</title>
<g id="a_node12"><a xlink:href="classmfem_1_1Memory.html" target="_top" xlink:title="mfem::Memory\&lt; double \&gt;">
<polygon fill="white" stroke="black" points="798.5,-63.5 798.5,-86.5 1007.5,-86.5 1007.5,-63.5 798.5,-63.5"/>
<text text-anchor="middle" x="903" y="-71.3" font-family="Helvetica,sans-Serif" font-size="14.00">mfem::Memory&lt; double &gt;</text>
</a>
</g>
</g>
<!-- Node12&#45;&gt;Node11 -->
<g id="edge12" class="edge"><title>Node12&#45;&gt;Node11</title>
<path fill="none" stroke="#9a32cd" stroke-dasharray="5,2" d="M992.701,-90.9317C998.168,-93.7706 1003.34,-97.0992 1008,-101 1022.95,-113.506 1010.68,-128.94 1026,-141 1047.59,-158 1075.46,-166.935 1102.37,-171.4"/>
<polygon fill="#9a32cd" stroke="#9a32cd" points="993.803,-87.587 983.255,-86.6017 990.887,-93.9504 993.803,-87.587"/>
<text text-anchor="middle" x="1055" y="-170.8" font-family="Helvetica,sans-Serif" font-size="14.00"> data</text>
</g>
<!-- Node16 -->
<g id="node16" class="node"><title>Node16</title>
<g id="a_node16"><a xlink:href="classmfem_1_1Vector.html" target="_top" xlink:title="Vector data type. ">
<polygon fill="white" stroke="black" points="1140,-49.5 1140,-72.5 1254,-72.5 1254,-49.5 1140,-49.5"/>
<text text-anchor="middle" x="1197" y="-57.3" font-family="Helvetica,sans-Serif" font-size="14.00">mfem::Vector</text>
</a>
</g>
</g>
<!-- Node12&#45;&gt;Node16 -->
<g id="edge18" class="edge"><title>Node12&#45;&gt;Node16</title>
<path fill="none" stroke="#9a32cd" stroke-dasharray="5,2" d="M1018.01,-69.5336C1059.76,-67.5322 1105.17,-65.3549 1139.68,-63.7005"/>
<polygon fill="#9a32cd" stroke="#9a32cd" points="1017.59,-66.0497 1007.77,-70.0247 1017.93,-73.0417 1017.59,-66.0497"/>
<text text-anchor="middle" x="1055" y="-72.8" font-family="Helvetica,sans-Serif" font-size="14.00"> data</text>
</g>
<!-- Node13 -->
<g id="node13" class="node"><title>Node13</title>
<g id="a_node13"><a xlink:href="classmfem_1_1DenseMatrix.html" target="_top" xlink:title="Data type dense matrix using column&#45;major storage. ">
<polygon fill="white" stroke="black" points="824,-110.5 824,-133.5 982,-133.5 982,-110.5 824,-110.5"/>
<text text-anchor="middle" x="903" y="-118.3" font-family="Helvetica,sans-Serif" font-size="14.00">mfem::DenseMatrix</text>
</a>
</g>
</g>
<!-- Node13&#45;&gt;Node3 -->
<g id="edge14" class="edge"><title>Node13&#45;&gt;Node3</title>
<path fill="none" stroke="#9a32cd" stroke-dasharray="5,2" d="M992.442,-122C1031.07,-122 1076.09,-122 1113.96,-122"/>
<polygon fill="#9a32cd" stroke="#9a32cd" points="992.251,-118.5 982.251,-122 992.251,-125.5 992.251,-118.5"/>
<text text-anchor="middle" x="1055" y="-125.8" font-family="Helvetica,sans-Serif" font-size="14.00"> vshape</text>
</g>
<!-- Node14 -->
<g id="node14" class="node"><title>Node14</title>
<g id="a_node14"><a xlink:href="classmfem_1_1Matrix.html" target="_top" xlink:title="Abstract data type matrix. ">
<polygon fill="white" stroke="black" points="601.5,-110.5 601.5,-133.5 714.5,-133.5 714.5,-110.5 601.5,-110.5"/>
<text text-anchor="middle" x="658" y="-118.3" font-family="Helvetica,sans-Serif" font-size="14.00">mfem::Matrix</text>
</a>
</g>
</g>
<!-- Node14&#45;&gt;Node13 -->
<g id="edge15" class="edge"><title>Node14&#45;&gt;Node13</title>
<path fill="none" stroke="midnightblue" d="M724.872,-122C755.442,-122 792.005,-122 823.952,-122"/>
<polygon fill="midnightblue" stroke="midnightblue" points="724.749,-118.5 714.749,-122 724.749,-125.5 724.749,-118.5"/>
</g>
<!-- Node15 -->
<g id="node15" class="node"><title>Node15</title>
<g id="a_node15"><a xlink:href="classmfem_1_1Operator.html" target="_top" xlink:title="Abstract operator. ">
<polygon fill="white" stroke="black" points="304.5,-110.5 304.5,-133.5 437.5,-133.5 437.5,-110.5 304.5,-110.5"/>
<text text-anchor="middle" x="371" y="-118.3" font-family="Helvetica,sans-Serif" font-size="14.00">mfem::Operator</text>
</a>
</g>
</g>
<!-- Node15&#45;&gt;Node14 -->
<g id="edge16" class="edge"><title>Node15&#45;&gt;Node14</title>
<path fill="none" stroke="midnightblue" d="M447.822,-122C496.044,-122 557.418,-122 601.19,-122"/>
<polygon fill="midnightblue" stroke="midnightblue" points="447.743,-118.5 437.743,-122 447.743,-125.5 447.743,-118.5"/>
</g>
<!-- Node16&#45;&gt;Node2 -->
<g id="edge17" class="edge"><title>Node16&#45;&gt;Node2</title>
<path fill="none" stroke="#9a32cd" stroke-dasharray="5,2" d="M1264.31,-55.4786C1279.32,-54.447 1295.2,-53.5279 1310,-53 1336.46,-52.0561 1365.06,-51.8195 1391.7,-51.9339"/>
<polygon fill="#9a32cd" stroke="#9a32cd" points="1263.8,-52.0057 1254.07,-56.2073 1264.3,-58.988 1263.8,-52.0057"/>
<text text-anchor="middle" x="1342" y="-56.8" font-family="Helvetica,sans-Serif" font-size="14.00"> c_shape</text>
</g>
<!-- Node17 -->
<g id="node17" class="node"><title>Node17</title>
<g id="a_node17"><a xlink:href="classmfem_1_1Array.html" target="_top" xlink:title="mfem::Array\&lt; int \&gt;">
<polygon fill="white" stroke="black" points="1418,-0.5 1418,-23.5 1576,-23.5 1576,-0.5 1418,-0.5"/>
<text text-anchor="middle" x="1497" y="-8.3" font-family="Helvetica,sans-Serif" font-size="14.00">mfem::Array&lt; int &gt;</text>
</a>
</g>
</g>
<!-- Node17&#45;&gt;Node1 -->
<g id="edge19" class="edge"><title>Node17&#45;&gt;Node1</title>
<path fill="none" stroke="#9a32cd" stroke-dasharray="5,2" d="M1586.46,-14.6074C1632.3,-16.2242 1689.19,-18.6428 1740,-22 1746,-22.3964 1752.16,-22.8408 1758.38,-23.3177"/>
<polygon fill="#9a32cd" stroke="#9a32cd" points="1586.37,-11.1023 1576.25,-14.2543 1586.12,-18.0981 1586.37,-11.1023"/>
<text text-anchor="middle" x="1680" y="-25.8" font-family="Helvetica,sans-Serif" font-size="14.00"> lex_ordering</text>
</g>
<!-- Node18 -->
<g id="node18" class="node"><title>Node18</title>
<g id="a_node18"><a xlink:href="classmfem_1_1Memory.html" target="_top" xlink:title="mfem::Memory\&lt; int \&gt;">
<polygon fill="white" stroke="black" points="1108,-0.5 1108,-23.5 1286,-23.5 1286,-0.5 1108,-0.5"/>
<text text-anchor="middle" x="1197" y="-8.3" font-family="Helvetica,sans-Serif" font-size="14.00">mfem::Memory&lt; int &gt;</text>
</a>
</g>
</g>
<!-- Node18&#45;&gt;Node17 -->
<g id="edge20" class="edge"><title>Node18&#45;&gt;Node17</title>
<path fill="none" stroke="#9a32cd" stroke-dasharray="5,2" d="M1296.36,-12C1335.76,-12 1380.51,-12 1417.65,-12"/>
<polygon fill="#9a32cd" stroke="#9a32cd" points="1296.2,-8.5001 1286.2,-12 1296.2,-15.5001 1296.2,-8.5001"/>
<text text-anchor="middle" x="1342" y="-15.8" font-family="Helvetica,sans-Serif" font-size="14.00"> data</text>
</g>
</g>
</svg>
