<?xml version="1.0" encoding="UTF-8" standalone="no"?>
<!DOCTYPE svg PUBLIC "-//W3C//DTD SVG 1.1//EN"
 "http://www.w3.org/Graphics/SVG/1.1/DTD/svg11.dtd">
<!-- Generated by graphviz version 2.40.1 (20161225.0304)
 -->
<!-- Title: mfem::FieldEvaluator_base&lt; FESpace_t, VecLayout_t, IR, complex_t, real_t &gt; Pages: 1 -->
<svg width="691pt" height="73pt"
 viewBox="0.00 0.00 690.52 73.00" xmlns="http://www.w3.org/2000/svg" xmlns:xlink="http://www.w3.org/1999/xlink">
<g id="graph0" class="graph" transform="scale(1 1) rotate(0) translate(4 69)">
<title>mfem::FieldEvaluator_base&lt; FESpace_t, VecLayout_t, IR, complex_t, real_t &gt;</title>
<polygon fill="#ffffff" stroke="transparent" points="-4,4 -4,-69 686.5176,-69 686.5176,4 -4,4"/>
<!-- Node2 -->
<g id="node1" class="node">
<title>Node2</title>
<polygon fill="#bfbfbf" stroke="#000000" points="473.874,-7.5 473.874,-57.5 682.5176,-57.5 682.5176,-7.5 473.874,-7.5"/>
<text text-anchor="start" x="481.874" y="-42.3" font-family="Helvetica,sans-Serif" font-size="14.00" fill="#000000">mfem::FieldEvaluator</text>
<text text-anchor="start" x="481.874" y="-28.3" font-family="Helvetica,sans-Serif" font-size="14.00" fill="#000000">_base&lt; FESpace_t, VecLayout</text>
<text text-anchor="middle" x="578.1958" y="-14.3" font-family="Helvetica,sans-Serif" font-size="14.00" fill="#000000">_t, IR, complex_t, real_t &gt;</text>
</g>
<!-- Node3 -->
<g id="node2" class="node">
<title>Node3</title>
<g id="a_node2"><a xlink:href="classmfem_1_1ShapeEvaluator.html" target="_top" xlink:title="mfem::ShapeEvaluator\l\&lt; FE_type, IR, real_t \&gt;">
<polygon fill="#ffffff" stroke="#000000" points="210.1992,-14.5 210.1992,-50.5 368.6055,-50.5 368.6055,-14.5 210.1992,-14.5"/>
<text text-anchor="start" x="218.1992" y="-35.3" font-family="Helvetica,sans-Serif" font-size="14.00" fill="#000000">mfem::ShapeEvaluator</text>
<text text-anchor="middle" x="289.4023" y="-21.3" font-family="Helvetica,sans-Serif" font-size="14.00" fill="#000000">&lt; FE_type, IR, real_t &gt;</text>
</a>
</g>
</g>
<!-- Node3&#45;&gt;Node2 -->
<g id="edge1" class="edge">
<title>Node3&#45;&gt;Node2</title>
<path fill="none" stroke="#9a32cd" stroke-dasharray="5,2" d="M378.7304,-32.5C408.7617,-32.5 442.531,-32.5 473.6269,-32.5"/>
<polygon fill="#9a32cd" stroke="#9a32cd" points="378.6984,-29.0001 368.6984,-32.5 378.6984,-36.0001 378.6984,-29.0001"/>
<text text-anchor="middle" x="421.2397" y="-35.3" font-family="Helvetica,sans-Serif" font-size="14.00" fill="#000000"> shapeEval</text>
</g>
<!-- Node4 -->
<g id="node3" class="node">
<title>Node4</title>
<g id="a_node3"><a xlink:href="classmfem_1_1ShapeEvaluator__base.html" target="_top" xlink:title="mfem::ShapeEvaluator\l_base\&lt; FE_type, IR, FE\l_type ::tensor_prod &amp;&amp;IR\l::tensor_prod, real_t \&gt;">
<polygon fill="#ffffff" stroke="#000000" points="0,-.5 0,-64.5 173.1992,-64.5 173.1992,-.5 0,-.5"/>
<text text-anchor="start" x="8" y="-49.3" font-family="Helvetica,sans-Serif" font-size="14.00" fill="#000000">mfem::ShapeEvaluator</text>
<text text-anchor="start" x="8" y="-35.3" font-family="Helvetica,sans-Serif" font-size="14.00" fill="#000000">_base&lt; FE_type, IR, FE</text>
<text text-anchor="start" x="8" y="-21.3" font-family="Helvetica,sans-Serif" font-size="14.00" fill="#000000">_type ::tensor_prod &amp;&amp;IR</text>
<text text-anchor="middle" x="86.5996" y="-7.3" font-family="Helvetica,sans-Serif" font-size="14.00" fill="#000000">::tensor_prod, real_t &gt;</text>
</a>
</g>
</g>
<!-- Node4&#45;&gt;Node3 -->
<g id="edge2" class="edge">
<title>Node4&#45;&gt;Node3</title>
<path fill="none" stroke="#191970" d="M183.5033,-32.5C192.4036,-32.5 201.3503,-32.5 210.0682,-32.5"/>
<polygon fill="#191970" stroke="#191970" points="183.4888,-29.0001 173.4888,-32.5 183.4887,-36.0001 183.4888,-29.0001"/>
</g>
</g>
</svg>
