<?xml version="1.0" encoding="UTF-8" standalone="no"?>
<!DOCTYPE svg PUBLIC "-//W3C//DTD SVG 1.1//EN"
 "http://www.w3.org/Graphics/SVG/1.1/DTD/svg11.dtd">
<!-- Generated by graphviz version 2.40.1 (20161225.0304)
 -->
<!-- Title: mfem::BoundaryNormalLFIntegrator Pages: 1 -->
<svg width="248pt" height="298pt"
 viewBox="0.00 0.00 248.09 298.00" xmlns="http://www.w3.org/2000/svg" xmlns:xlink="http://www.w3.org/1999/xlink">
<g id="graph0" class="graph" transform="scale(1 1) rotate(0) translate(4 294)">
<title>mfem::BoundaryNormalLFIntegrator</title>
<polygon fill="#ffffff" stroke="transparent" points="-4,4 -4,-294 244.0889,-294 244.0889,4 -4,4"/>
<!-- Node2 -->
<g id="node1" class="node">
<title>Node2</title>
<polygon fill="#bfbfbf" stroke="#000000" points="0,-.5 0,-22.5 240.0889,-22.5 240.0889,-.5 0,-.5"/>
<text text-anchor="middle" x="120.0444" y="-7.3" font-family="Helvetica,sans-Serif" font-size="14.00" fill="#000000">mfem::BoundaryNormalLFIntegrator</text>
</g>
<!-- Node3 -->
<g id="node2" class="node">
<title>Node3</title>
<g id="a_node2"><a xlink:href="classmfem_1_1LinearFormIntegrator.html" target="_top" xlink:title="Abstract base class LinearFormIntegrator. ">
<polygon fill="#ffffff" stroke="#000000" points="24.9033,-60.5 24.9033,-82.5 215.1855,-82.5 215.1855,-60.5 24.9033,-60.5"/>
<text text-anchor="middle" x="120.0444" y="-67.3" font-family="Helvetica,sans-Serif" font-size="14.00" fill="#000000">mfem::LinearFormIntegrator</text>
</a>
</g>
</g>
<!-- Node3&#45;&gt;Node2 -->
<g id="edge1" class="edge">
<title>Node3&#45;&gt;Node2</title>
<path fill="none" stroke="#191970" d="M120.0444,-50.4183C120.0444,-41.1393 120.0444,-30.6082 120.0444,-22.8428"/>
<polygon fill="#191970" stroke="#191970" points="116.5445,-50.495 120.0444,-60.4951 123.5445,-50.4951 116.5445,-50.495"/>
</g>
<!-- Node4 -->
<g id="node3" class="node">
<title>Node4</title>
<g id="a_node3"><a xlink:href="classmfem_1_1IntegrationRule.html" target="_top" xlink:title="Class for an integration rule &#45; an Array of IntegrationPoint. ">
<polygon fill="#ffffff" stroke="#000000" points="43.1792,-133.5 43.1792,-155.5 196.9097,-155.5 196.9097,-133.5 43.1792,-133.5"/>
<text text-anchor="middle" x="120.0444" y="-140.3" font-family="Helvetica,sans-Serif" font-size="14.00" fill="#000000">mfem::IntegrationRule</text>
</a>
</g>
</g>
<!-- Node4&#45;&gt;Node3 -->
<g id="edge2" class="edge">
<title>Node4&#45;&gt;Node3</title>
<path fill="none" stroke="#9a32cd" stroke-dasharray="5,2" d="M120.0444,-123.2419C120.0444,-109.981 120.0444,-93.4483 120.0444,-82.6915"/>
<polygon fill="#9a32cd" stroke="#9a32cd" points="116.5445,-123.4128 120.0444,-133.4129 123.5445,-123.4129 116.5445,-123.4128"/>
<text text-anchor="middle" x="144.1685" y="-103.8" font-family="Helvetica,sans-Serif" font-size="14.00" fill="#000000"> IntRule</text>
</g>
<!-- Node5 -->
<g id="node4" class="node">
<title>Node5</title>
<g id="a_node4"><a xlink:href="classmfem_1_1Array.html" target="_top" xlink:title="mfem::Array\&lt; Integration\lPoint \&gt;">
<polygon fill="#ffffff" stroke="#000000" points="34.8188,-193.5 34.8188,-229.5 205.27,-229.5 205.27,-193.5 34.8188,-193.5"/>
<text text-anchor="start" x="42.8188" y="-214.3" font-family="Helvetica,sans-Serif" font-size="14.00" fill="#000000">mfem::Array&lt; Integration</text>
<text text-anchor="middle" x="120.0444" y="-200.3" font-family="Helvetica,sans-Serif" font-size="14.00" fill="#000000">Point &gt;</text>
</a>
</g>
</g>
<!-- Node5&#45;&gt;Node4 -->
<g id="edge3" class="edge">
<title>Node5&#45;&gt;Node4</title>
<path fill="none" stroke="#191970" d="M120.0444,-183.1463C120.0444,-173.5368 120.0444,-163.3485 120.0444,-155.8467"/>
<polygon fill="#191970" stroke="#191970" points="116.5445,-183.1919 120.0444,-193.192 123.5445,-183.192 116.5445,-183.1919"/>
</g>
<!-- Node6 -->
<g id="node5" class="node">
<title>Node6</title>
<g id="a_node5"><a xlink:href="classmfem_1_1BaseArray.html" target="_top" xlink:title="Base class for array container. ">
<polygon fill="#ffffff" stroke="#000000" points="57.9756,-267.5 57.9756,-289.5 182.1133,-289.5 182.1133,-267.5 57.9756,-267.5"/>
<text text-anchor="middle" x="120.0444" y="-274.3" font-family="Helvetica,sans-Serif" font-size="14.00" fill="#000000">mfem::BaseArray</text>
</a>
</g>
</g>
<!-- Node6&#45;&gt;Node5 -->
<g id="edge4" class="edge">
<title>Node6&#45;&gt;Node5</title>
<path fill="none" stroke="#191970" d="M120.0444,-257.151C120.0444,-248.3013 120.0444,-238.1428 120.0444,-229.6588"/>
<polygon fill="#191970" stroke="#191970" points="116.5445,-257.4363 120.0444,-267.4363 123.5445,-257.4363 116.5445,-257.4363"/>
</g>
</g>
</svg>
