<?xml version="1.0" encoding="UTF-8" standalone="no"?>
<!DOCTYPE svg PUBLIC "-//W3C//DTD SVG 1.1//EN"
 "http://www.w3.org/Graphics/SVG/1.1/DTD/svg11.dtd">
<!-- Generated by graphviz version 2.30.1 (20170916.1124)
 -->
<!-- Title: mfem::PetscBDDCSolverParams Pages: 1 -->
<!--zoomable 562 -->
<svg id="main" version="1.1" xmlns="http://www.w3.org/2000/svg" xmlns:xlink="http://www.w3.org/1999/xlink" xml:space="preserve" onload="init(evt)">
<style type="text/css"><![CDATA[
.edge:hover path { stroke: red; }
.edge:hover polygon { stroke: red; fill: red; }
]]></style>
<script type="text/javascript"><![CDATA[
var edges = document.getElementsByTagName('g');
if (edges && edges.length) {
  for (var i=0;i<edges.length;i++) {
    if (edges[i].id.substr(0,4)=='edge') {
      edges[i].setAttribute('class','edge');
    }
  }
}
]]></script>
        <defs>
                <circle id="rim" cx="0" cy="0" r="7"/>
                <circle id="rim2" cx="0" cy="0" r="3.5"/>
                <g id="zoomPlus">
                        <use xlink:href="#rim" fill="#404040">
                                <set attributeName="fill" to="#808080" begin="zoomplus.mouseover" end="zoomplus.mouseout"/>
                        </use>
                        <path d="M-4,0h8M0,-4v8" fill="none" stroke="white" stroke-width="1.5" pointer-events="none"/>
                </g>
                <g id="zoomMin">
                        <use xlink:href="#rim" fill="#404040">
                                <set attributeName="fill" to="#808080" begin="zoomminus.mouseover" end="zoomminus.mouseout"/>
                        </use>
                        <path d="M-4,0h8" fill="none" stroke="white" stroke-width="1.5" pointer-events="none"/>
                </g>
                <g id="dirArrow">
                        <path fill="none" stroke="white" stroke-width="1.5" d="M0,-3.0v7 M-2.5,-0.5L0,-3.0L2.5,-0.5"/>
                </g>
               <g id="resetDef">
                       <use xlink:href="#rim2" fill="#404040">
                               <set attributeName="fill" to="#808080" begin="reset.mouseover" end="reset.mouseout"/>
                       </use>
               </g>
        </defs>

<script type="text/javascript">
var viewWidth = 757;
var viewHeight = 562;
var sectionId = 'dynsection-0';
</script>
<script xlink:href="svgpan.js"/>
<svg id="graph" class="graph">
<g id="viewport">
<title>mfem::PetscBDDCSolverParams</title>
<polygon fill="white" stroke="white" points="-4,5 -4,-558 754.461,-558 754.461,5 -4,5"/>
<!-- Node1 -->
<g id="node1" class="node"><title>Node1</title>
<polygon fill="#bfbfbf" stroke="black" points="436.961,-0.5 436.961,-23.5 653.961,-23.5 653.961,-0.5 436.961,-0.5"/>
<text text-anchor="middle" x="545.461" y="-8.3" font-family="Helvetica,sans-Serif" font-size="14.00">mfem::PetscBDDCSolverParams</text>
</g>
<!-- Node2 -->
<g id="node2" class="node"><title>Node2</title>
<g id="a_node2"><a xlink:href="classmfem_1_1Array.html" target="_top" xlink:title="mfem::Array\&lt; int \&gt;">
<polygon fill="white" stroke="black" points="460.461,-440.5 460.461,-463.5 590.461,-463.5 590.461,-440.5 460.461,-440.5"/>
<text text-anchor="middle" x="525.461" y="-448.3" font-family="Helvetica,sans-Serif" font-size="14.00">mfem::Array&lt; int &gt;</text>
</a>
</g>
</g>
<!-- Node2&#45;&gt;Node1 -->
<g id="edge1" class="edge"><title>Node2&#45;&gt;Node1</title>
<path fill="none" stroke="#9a32cd" stroke-dasharray="5,2" d="M563.611,-436.373C614.282,-414.161 697.461,-366.769 697.461,-295 697.461,-295 697.461,-295 697.461,-87 697.461,-51.6332 663.784,-33.1654 628.133,-23.5237"/>
<polygon fill="#9a32cd" stroke="#9a32cd" points="562.083,-433.22 554.25,-440.354 564.822,-439.662 562.083,-433.22"/>
<text text-anchor="middle" x="723.461" y="-175.8" font-family="Helvetica,sans-Serif" font-size="14.00"> ess_dof</text>
<text text-anchor="middle" x="723.461" y="-160.8" font-family="Helvetica,sans-Serif" font-size="14.00">nat_dof</text>
</g>
<!-- Node7 -->
<g id="node7" class="node"><title>Node7</title>
<g id="a_node7"><a xlink:href="classmfem_1_1Mesh.html" target="_top" xlink:title="mfem::Mesh">
<polygon fill="white" stroke="red" points="444.961,-282.5 444.961,-305.5 537.961,-305.5 537.961,-282.5 444.961,-282.5"/>
<text text-anchor="middle" x="491.461" y="-290.3" font-family="Helvetica,sans-Serif" font-size="14.00">mfem::Mesh</text>
</a>
</g>
</g>
<!-- Node2&#45;&gt;Node7 -->
<g id="edge7" class="edge"><title>Node2&#45;&gt;Node7</title>
<path fill="none" stroke="#9a32cd" stroke-dasharray="5,2" d="M488.891,-434.754C484.32,-431.204 480.272,-426.982 477.461,-422 455.88,-383.747 476.057,-328.695 486.308,-305.712"/>
<polygon fill="#9a32cd" stroke="#9a32cd" points="487.248,-437.863 497.526,-440.434 491.095,-432.015 487.248,-437.863"/>
<text text-anchor="middle" x="518.961" y="-395.8" font-family="Helvetica,sans-Serif" font-size="14.00"> attributes</text>
<text text-anchor="middle" x="518.961" y="-380.8" font-family="Helvetica,sans-Serif" font-size="14.00">be_to_edge</text>
<text text-anchor="middle" x="518.961" y="-365.8" font-family="Helvetica,sans-Serif" font-size="14.00">be_to_face</text>
<text text-anchor="middle" x="518.961" y="-350.8" font-family="Helvetica,sans-Serif" font-size="14.00">bdr_attributes</text>
</g>
<!-- Node5 -->
<g id="node5" class="node"><title>Node5</title>
<g id="a_node5"><a xlink:href="classmfem_1_1FiniteElementSpace.html" target="_top" xlink:title="Class FiniteElementSpace &#45; responsible for providing FEM view of the mesh, mainly managing the set of...">
<polygon fill="white" stroke="red" points="248.961,-160.5 248.961,-183.5 429.961,-183.5 429.961,-160.5 248.961,-160.5"/>
<text text-anchor="middle" x="339.461" y="-168.3" font-family="Helvetica,sans-Serif" font-size="14.00">mfem::FiniteElementSpace</text>
</a>
</g>
</g>
<!-- Node2&#45;&gt;Node5 -->
<g id="edge13" class="edge"><title>Node2&#45;&gt;Node5</title>
<path fill="none" stroke="#9a32cd" stroke-dasharray="5,2" d="M552.031,-433.589C555.442,-430.17 558.443,-426.294 560.461,-422 588.57,-362.206 573.376,-334.341 546.461,-274 532.4,-242.476 531.031,-229.372 502.461,-210 481.206,-195.587 455.166,-186.717 430.19,-181.281"/>
<polygon fill="#9a32cd" stroke="#9a32cd" points="549.47,-431.173 544.133,-440.325 554.013,-436.499 549.47,-431.173"/>
<text text-anchor="middle" x="611.961" y="-297.8" font-family="Helvetica,sans-Serif" font-size="14.00"> dof_ldof_array</text>
<text text-anchor="middle" x="611.961" y="-282.8" font-family="Helvetica,sans-Serif" font-size="14.00">dof_elem_array</text>
</g>
<!-- Node3 -->
<g id="node3" class="node"><title>Node3</title>
<g id="a_node3"><a xlink:href="classmfem_1_1Memory.html" target="_top" xlink:title="mfem::Memory\&lt; int \&gt;">
<polygon fill="white" stroke="black" points="203.461,-530.5 203.461,-553.5 351.461,-553.5 351.461,-530.5 203.461,-530.5"/>
<text text-anchor="middle" x="277.461" y="-538.3" font-family="Helvetica,sans-Serif" font-size="14.00">mfem::Memory&lt; int &gt;</text>
</a>
</g>
</g>
<!-- Node3&#45;&gt;Node2 -->
<g id="edge2" class="edge"><title>Node3&#45;&gt;Node2</title>
<path fill="none" stroke="#9a32cd" stroke-dasharray="5,2" d="M316.845,-527.025C366.624,-509.362 451.184,-479.356 495.827,-463.516"/>
<polygon fill="#9a32cd" stroke="#9a32cd" points="315.63,-523.742 307.376,-530.385 317.971,-530.339 315.63,-523.742"/>
<text text-anchor="middle" x="453.961" y="-493.3" font-family="Helvetica,sans-Serif" font-size="14.00"> data</text>
</g>
<!-- Node8 -->
<g id="node8" class="node"><title>Node8</title>
<g id="a_node8"><a xlink:href="classmfem_1_1Table.html" target="_top" xlink:title="mfem::Table">
<polygon fill="white" stroke="black" points="63.9612,-440.5 63.9612,-463.5 156.961,-463.5 156.961,-440.5 63.9612,-440.5"/>
<text text-anchor="middle" x="110.461" y="-448.3" font-family="Helvetica,sans-Serif" font-size="14.00">mfem::Table</text>
</a>
</g>
</g>
<!-- Node3&#45;&gt;Node8 -->
<g id="edge9" class="edge"><title>Node3&#45;&gt;Node8</title>
<path fill="none" stroke="#9a32cd" stroke-dasharray="5,2" d="M248.383,-525.677C214.59,-507.87 159.727,-478.96 130.417,-463.516"/>
<polygon fill="#9a32cd" stroke="#9a32cd" points="246.839,-528.82 257.317,-530.385 250.102,-522.627 246.839,-528.82"/>
<text text-anchor="middle" x="223.461" y="-500.8" font-family="Helvetica,sans-Serif" font-size="14.00"> I</text>
<text text-anchor="middle" x="223.461" y="-485.8" font-family="Helvetica,sans-Serif" font-size="14.00">J</text>
</g>
<!-- Node9 -->
<g id="node9" class="node"><title>Node9</title>
<g id="a_node9"><a xlink:href="classmfem_1_1SparseMatrix.html" target="_top" xlink:title="Data type sparse matrix. ">
<polygon fill="white" stroke="red" points="207.461,-365.5 207.461,-388.5 347.461,-388.5 347.461,-365.5 207.461,-365.5"/>
<text text-anchor="middle" x="277.461" y="-373.3" font-family="Helvetica,sans-Serif" font-size="14.00">mfem::SparseMatrix</text>
</a>
</g>
</g>
<!-- Node3&#45;&gt;Node9 -->
<g id="edge12" class="edge"><title>Node3&#45;&gt;Node9</title>
<path fill="none" stroke="#9a32cd" stroke-dasharray="5,2" d="M277.461,-520.21C277.461,-485.041 277.461,-415.049 277.461,-388.522"/>
<polygon fill="#9a32cd" stroke="#9a32cd" points="273.961,-520.305 277.461,-530.305 280.961,-520.305 273.961,-520.305"/>
<text text-anchor="middle" x="281.461" y="-500.8" font-family="Helvetica,sans-Serif" font-size="14.00"> I</text>
<text text-anchor="middle" x="281.461" y="-485.8" font-family="Helvetica,sans-Serif" font-size="14.00">J</text>
</g>
<!-- Node4 -->
<g id="node4" class="node"><title>Node4</title>
<g id="a_node4"><a xlink:href="classmfem_1_1ParFiniteElementSpace.html" target="_top" xlink:title="Abstract parallel finite element space. ">
<polygon fill="white" stroke="black" points="141.461,-76.5 141.461,-99.5 343.461,-99.5 343.461,-76.5 141.461,-76.5"/>
<text text-anchor="middle" x="242.461" y="-84.3" font-family="Helvetica,sans-Serif" font-size="14.00">mfem::ParFiniteElementSpace</text>
</a>
</g>
</g>
<!-- Node4&#45;&gt;Node1 -->
<g id="edge3" class="edge"><title>Node4&#45;&gt;Node1</title>
<path fill="none" stroke="#9a32cd" stroke-dasharray="5,2" d="M295.366,-74.0794C354.011,-59.7569 447.499,-36.9248 502.029,-23.6073"/>
<polygon fill="#9a32cd" stroke="#9a32cd" points="294.436,-70.7035 285.552,-76.4762 296.097,-77.5037 294.436,-70.7035"/>
<text text-anchor="middle" x="447.461" y="-46.3" font-family="Helvetica,sans-Serif" font-size="14.00"> fespace</text>
</g>
<!-- Node5&#45;&gt;Node4 -->
<g id="edge4" class="edge"><title>Node5&#45;&gt;Node4</title>
<path fill="none" stroke="midnightblue" d="M334.604,-150.276C331.134,-139.443 325.449,-126.67 316.461,-118 308.02,-109.857 297.026,-103.924 286.105,-99.6318"/>
<polygon fill="midnightblue" stroke="midnightblue" points="331.324,-151.544 337.375,-160.241 338.068,-149.668 331.324,-151.544"/>
</g>
<!-- Node6 -->
<g id="node6" class="node"><title>Node6</title>
<g id="a_node6"><a xlink:href="classmfem_1_1Array.html" target="_top" xlink:title="mfem::Array\&lt; mfem::\lQuadratureInterpolator * \&gt;">
<polygon fill="white" stroke="red" points="251.961,-275 251.961,-313 426.961,-313 426.961,-275 251.961,-275"/>
<text text-anchor="start" x="259.961" y="-297.8" font-family="Helvetica,sans-Serif" font-size="14.00">mfem::Array&lt; mfem::</text>
<text text-anchor="middle" x="339.461" y="-282.8" font-family="Helvetica,sans-Serif" font-size="14.00">QuadratureInterpolator * &gt;</text>
</a>
</g>
</g>
<!-- Node6&#45;&gt;Node5 -->
<g id="edge5" class="edge"><title>Node6&#45;&gt;Node5</title>
<path fill="none" stroke="#9a32cd" stroke-dasharray="5,2" d="M339.461,-264.737C339.461,-238.721 339.461,-201.527 339.461,-183.541"/>
<polygon fill="#9a32cd" stroke="#9a32cd" points="335.961,-264.775 339.461,-274.775 342.961,-264.775 335.961,-264.775"/>
<text text-anchor="middle" x="374.461" y="-229.3" font-family="Helvetica,sans-Serif" font-size="14.00"> E2Q_array</text>
</g>
<!-- Node7&#45;&gt;Node5 -->
<g id="edge6" class="edge"><title>Node7&#45;&gt;Node5</title>
<path fill="none" stroke="#9a32cd" stroke-dasharray="5,2" d="M477.209,-274.364C462.656,-256.242 438.676,-228.776 413.461,-210 398.945,-199.191 380.792,-190.059 366.098,-183.572"/>
<polygon fill="#9a32cd" stroke="#9a32cd" points="474.624,-276.738 483.561,-282.43 480.124,-272.408 474.624,-276.738"/>
<text text-anchor="middle" x="479.461" y="-229.3" font-family="Helvetica,sans-Serif" font-size="14.00"> mesh</text>
</g>
<!-- Node8&#45;&gt;Node7 -->
<g id="edge8" class="edge"><title>Node8&#45;&gt;Node7</title>
<path fill="none" stroke="#9a32cd" stroke-dasharray="5,2" d="M109.653,-430.072C108.966,-399.544 109.767,-345.01 123.461,-332 148.635,-308.083 401.377,-320.639 435.461,-314 445.337,-312.077 455.858,-308.841 465.083,-305.581"/>
<polygon fill="#9a32cd" stroke="#9a32cd" points="106.166,-430.57 109.965,-440.46 113.163,-430.359 106.166,-430.57"/>
<text text-anchor="middle" x="160.961" y="-410.8" font-family="Helvetica,sans-Serif" font-size="14.00"> el_to_face</text>
<text text-anchor="middle" x="160.961" y="-395.8" font-family="Helvetica,sans-Serif" font-size="14.00">el_to_edge</text>
<text text-anchor="middle" x="160.961" y="-380.8" font-family="Helvetica,sans-Serif" font-size="14.00">edge_vertex</text>
<text text-anchor="middle" x="160.961" y="-365.8" font-family="Helvetica,sans-Serif" font-size="14.00">face_edge</text>
<text text-anchor="middle" x="160.961" y="-350.8" font-family="Helvetica,sans-Serif" font-size="14.00">el_to_el</text>
<text text-anchor="middle" x="160.961" y="-335.8" font-family="Helvetica,sans-Serif" font-size="14.00">bel_to_edge</text>
</g>
<!-- Node8&#45;&gt;Node5 -->
<g id="edge14" class="edge"><title>Node8&#45;&gt;Node5</title>
<path fill="none" stroke="#9a32cd" stroke-dasharray="5,2" d="M106.287,-430.098C100.356,-393.99 93.9071,-319.444 130.461,-274 171.128,-223.444 243.308,-196.53 291.279,-183.517"/>
<polygon fill="#9a32cd" stroke="#9a32cd" points="102.923,-431.164 108.14,-440.385 109.812,-429.923 102.923,-431.164"/>
<text text-anchor="middle" x="171.461" y="-297.8" font-family="Helvetica,sans-Serif" font-size="14.00"> bdrElem_dof</text>
<text text-anchor="middle" x="171.461" y="-282.8" font-family="Helvetica,sans-Serif" font-size="14.00">elem_dof</text>
</g>
<!-- Node8&#45;&gt;Node4 -->
<g id="edge16" class="edge"><title>Node8&#45;&gt;Node4</title>
<path fill="none" stroke="#9a32cd" stroke-dasharray="5,2" d="M92.4799,-432.959C54.7116,-392.78 -26.5206,-292.932 9.4612,-210 38.1711,-143.828 120.422,-113.229 179.048,-99.5092"/>
<polygon fill="#9a32cd" stroke="#9a32cd" points="90.1635,-435.6 99.6145,-440.389 95.2125,-430.752 90.1635,-435.6"/>
<text text-anchor="middle" x="77.4612" y="-244.3" font-family="Helvetica,sans-Serif" font-size="14.00"> face_nbr_ldof</text>
<text text-anchor="middle" x="77.4612" y="-229.3" font-family="Helvetica,sans-Serif" font-size="14.00">send_face_nbr_ldof</text>
<text text-anchor="middle" x="77.4612" y="-214.3" font-family="Helvetica,sans-Serif" font-size="14.00">face_nbr_element_dof</text>
</g>
<!-- Node9&#45;&gt;Node5 -->
<g id="edge10" class="edge"><title>Node9&#45;&gt;Node5</title>
<path fill="none" stroke="#9a32cd" stroke-dasharray="5,2" d="M255.162,-358.627C242.662,-347.415 228.255,-331.656 221.461,-314 215.077,-297.408 214.027,-290.149 221.461,-274 241.42,-230.644 290.189,-198.959 318.387,-183.532"/>
<polygon fill="#9a32cd" stroke="#9a32cd" points="253.121,-361.486 263.001,-365.312 257.663,-356.16 253.121,-361.486"/>
<text text-anchor="middle" x="231.961" y="-297.8" font-family="Helvetica,sans-Serif" font-size="14.00"> cR</text>
<text text-anchor="middle" x="231.961" y="-282.8" font-family="Helvetica,sans-Serif" font-size="14.00">cP</text>
</g>
<!-- Node9&#45;&gt;Node9 -->
<g id="edge11" class="edge"><title>Node9&#45;&gt;Node9</title>
<path fill="none" stroke="#9a32cd" stroke-dasharray="5,2" d="M319.015,-390.102C343.056,-392.8 365.461,-388.433 365.461,-377 365.461,-363.992 336.457,-360.13 309.04,-365.415"/>
<polygon fill="#9a32cd" stroke="#9a32cd" points="319.452,-386.629 309.04,-388.585 318.399,-393.549 319.452,-386.629"/>
<text text-anchor="middle" x="373.961" y="-373.3" font-family="Helvetica,sans-Serif" font-size="14.00"> At</text>
</g>
<!-- Node10 -->
<g id="node10" class="node"><title>Node10</title>
<g id="a_node10"><a xlink:href="classmfem_1_1Array.html" target="_top" xlink:title="mfem::Array\&lt; HYPRE\l_Int \&gt;">
<polygon fill="white" stroke="red" points="80.4612,-153 80.4612,-191 230.461,-191 230.461,-153 80.4612,-153"/>
<text text-anchor="start" x="88.4612" y="-175.8" font-family="Helvetica,sans-Serif" font-size="14.00">mfem::Array&lt; HYPRE</text>
<text text-anchor="middle" x="155.461" y="-160.8" font-family="Helvetica,sans-Serif" font-size="14.00">_Int &gt;</text>
</a>
</g>
</g>
<!-- Node10&#45;&gt;Node4 -->
<g id="edge15" class="edge"><title>Node10&#45;&gt;Node4</title>
<path fill="none" stroke="#9a32cd" stroke-dasharray="5,2" d="M155.51,-142.922C156.81,-134.118 159.661,-124.906 165.461,-118 172.443,-109.686 182.066,-103.753 192.146,-99.5195"/>
<polygon fill="#9a32cd" stroke="#9a32cd" points="152.022,-142.635 154.612,-152.909 158.993,-143.262 152.022,-142.635"/>
<text text-anchor="middle" x="240.961" y="-122.3" font-family="Helvetica,sans-Serif" font-size="14.00"> face_nbr_glob_dof_map</text>
</g>
</g>
</svg>
        <g id="navigator" transform="translate(0 0)" fill="#404254">
                <rect fill="#f2f5e9" fill-opacity="0.5" stroke="#606060" stroke-width=".5" x="0" y="0" width="60" height="60"/>
                <use id="zoomplus" xlink:href="#zoomPlus" x="17" y="9" onmousedown="handleZoom(evt,'in')"/>
                <use id="zoomminus" xlink:href="#zoomMin" x="42" y="9" onmousedown="handleZoom(evt,'out')"/>
                <use id="reset" xlink:href="#resetDef" x="30" y="36" onmousedown="handleReset()"/>
                <g id="arrowUp" xlink:href="#dirArrow" transform="translate(30 24)" onmousedown="handlePan(0,-1)">
                  <use xlink:href="#rim" fill="#404040">
                        <set attributeName="fill" to="#808080" begin="arrowUp.mouseover" end="arrowUp.mouseout"/>
                  </use>
                  <path fill="none" stroke="white" stroke-width="1.5" d="M0,-3.0v7 M-2.5,-0.5L0,-3.0L2.5,-0.5"/>
                </g>
                <g id="arrowRight" xlink:href="#dirArrow" transform="rotate(90) translate(36 -43)" onmousedown="handlePan(1,0)">
                  <use xlink:href="#rim" fill="#404040">
                        <set attributeName="fill" to="#808080" begin="arrowRight.mouseover" end="arrowRight.mouseout"/>
                  </use>
                  <path fill="none" stroke="white" stroke-width="1.5" d="M0,-3.0v7 M-2.5,-0.5L0,-3.0L2.5,-0.5"/>
                </g>
                <g id="arrowDown" xlink:href="#dirArrow" transform="rotate(180) translate(-30 -48)" onmousedown="handlePan(0,1)">
                  <use xlink:href="#rim" fill="#404040">
                        <set attributeName="fill" to="#808080" begin="arrowDown.mouseover" end="arrowDown.mouseout"/>
                  </use>
                  <path fill="none" stroke="white" stroke-width="1.5" d="M0,-3.0v7 M-2.5,-0.5L0,-3.0L2.5,-0.5"/>
                </g>
                <g id="arrowLeft" xlink:href="#dirArrow" transform="rotate(270) translate(-36 17)" onmousedown="handlePan(-1,0)">
                  <use xlink:href="#rim" fill="#404040">
                        <set attributeName="fill" to="#808080" begin="arrowLeft.mouseover" end="arrowLeft.mouseout"/>
                  </use>
                  <path fill="none" stroke="white" stroke-width="1.5" d="M0,-3.0v7 M-2.5,-0.5L0,-3.0L2.5,-0.5"/>
                </g>
        </g>
        <svg viewBox="0 0 15 15" width="100%" height="30px" preserveAspectRatio="xMaxYMin meet">
         <g id="arrow_out" transform="scale(0.3 0.3)">
          <a xlink:href="classmfem_1_1PetscBDDCSolverParams__coll__graph_org.svg" target="_base">
           <rect id="button" ry="5" rx="5" y="6" x="6" height="38" width="38"
                fill="#f2f5e9" fill-opacity="0.5" stroke="#606060" stroke-width="1.0"/>
           <path id="arrow"
             d="M 11.500037,31.436501 C 11.940474,20.09759 22.043105,11.32322 32.158766,21.979434 L 37.068811,17.246167 C 37.068811,17.246167 37.088388,32 37.088388,32 L 22.160133,31.978069 C 22.160133,31.978069 26.997745,27.140456 26.997745,27.140456 C 18.528582,18.264221 13.291696,25.230495 11.500037,31.436501 z"
             style="fill:#404040;"/>
          </a>
         </g>
        </svg>
</svg>
