<?xml version="1.0" encoding="UTF-8" standalone="no"?>
<!DOCTYPE svg PUBLIC "-//W3C//DTD SVG 1.1//EN"
 "http://www.w3.org/Graphics/SVG/1.1/DTD/svg11.dtd">
<!-- Generated by graphviz version 2.26.3 (20100126.1600)
 -->
<!-- Title: G Pages: 1 -->
<!--zoomable 951 -->
<svg id="main" version="1.1" xmlns="http://www.w3.org/2000/svg" xmlns:xlink="http://www.w3.org/1999/xlink" xml:space="preserve" onload="init(evt)">
        <defs>
                <circle id="rim" cx="0" cy="0" r="7"/>
                <circle id="rim2" cx="0" cy="0" r="3.5"/>
                <g id="zoomPlus">
                        <use xlink:href="#rim" fill="#404040">
                                <set attributeName="fill" to="#808080" begin="zoomplus.mouseover" end="zoomplus.mouseout"/>
                        </use>
                        <path d="M-4,0h8M0,-4v8" fill="none" stroke="white" stroke-width="1.5" pointer-events="none"/>
                </g>
                <g id="zoomMin">
                        <use xlink:href="#rim" fill="#404040">
                                <set attributeName="fill" to="#808080" begin="zoomminus.mouseover" end="zoomminus.mouseout"/>
                        </use>
                        <path d="M-4,0h8" fill="none" stroke="white" stroke-width="1.5" pointer-events="none"/>
                </g>
                <g id="dirArrow">
                        <path fill="none" stroke="white" stroke-width="1.5" d="M0,-3.0v7 M-2.5,-0.5L0,-3.0L2.5,-0.5"/>
                </g>
               <g id="resetDef">
                       <use xlink:href="#rim2" fill="#404040">
                               <set attributeName="fill" to="#808080" begin="reset.mouseover" end="reset.mouseout"/>
                       </use>
               </g>
        </defs>

<script type="text/javascript">
var viewWidth = 1912;
var viewHeight = 951;
var sectionId = 'dynsection-1';
</script>
<script xlink:href="svgpan.js"/>
<svg id="graph" class="graph">
<g id="viewport">
<title>G</title>
<polygon fill="white" stroke="white" points="-4,5 -4,-947.084 1909,-947.084 1909,5 -4,5"/>
<!-- Node1 -->
<g id="node1" class="node"><title>Node1</title>
<polygon fill="#bfbfbf" stroke="black" points="1318,-831.584 1318,-850.584 1438,-850.584 1438,-831.584 1318,-831.584"/>
<text text-anchor="middle" x="1378" y="-837.584" font-family="FreeSans" font-size="10.00">GridFunctionCoefficient</text>
</g>
<!-- Node2 -->
<g id="node2" class="node"><title>Node2</title>
<a xlink:href="classCoefficient.html" target="_top" xlink:title="Base class Coefficient.">
<polygon fill="white" stroke="black" points="1051,-846.584 1051,-865.584 1115,-865.584 1115,-846.584 1051,-846.584"/>
<text text-anchor="middle" x="1083" y="-852.584" font-family="FreeSans" font-size="10.00">Coefficient</text>
</a>
</g>
<!-- Node2&#45;&gt;Node1 -->
<g id="edge2" class="edge"><title>Node2&#45;&gt;Node1</title>
<path fill="none" stroke="midnightblue" d="M1125.28,-855.184C1169.03,-854.098 1239.35,-851.921 1300,-848.084 1305.83,-847.715 1311.91,-847.273 1317.98,-846.792"/>
<polygon fill="midnightblue" stroke="midnightblue" points="1124.93,-851.692 1115.01,-855.431 1125.1,-858.69 1124.93,-851.692"/>
</g>
<!-- Node3 -->
<g id="node4" class="node"><title>Node3</title>
<a xlink:href="classGridFunction.html" target="_top" xlink:title="Class for grid function &#45; Vector with asociated FE space.">
<polygon fill="white" stroke="black" points="1046.5,-798.584 1046.5,-817.584 1119.5,-817.584 1119.5,-798.584 1046.5,-798.584"/>
<text text-anchor="middle" x="1083" y="-804.584" font-family="FreeSans" font-size="10.00">GridFunction</text>
</a>
</g>
<!-- Node3&#45;&gt;Node1 -->
<g id="edge4" class="edge"><title>Node3&#45;&gt;Node1</title>
<path fill="none" stroke="#9a32cd" stroke-dasharray="5,2" d="M1129.84,-813.324C1180.79,-819.023 1262.37,-828.149 1317.98,-834.37"/>
<polygon fill="#9a32cd" stroke="#9a32cd" points="1130.09,-809.831 1119.77,-812.197 1129.31,-816.787 1130.09,-809.831"/>
<text text-anchor="middle" x="1237" y="-834.084" font-family="FreeSans" font-size="10.00"> GridF</text>
</g>
<!-- Node14 -->
<g id="node30" class="node"><title>Node14</title>
<a xlink:href="classMesh.html" target="_top" xlink:title="Mesh">
<polygon fill="white" stroke="black" points="1357.5,-573.584 1357.5,-592.584 1398.5,-592.584 1398.5,-573.584 1357.5,-573.584"/>
<text text-anchor="middle" x="1378" y="-579.584" font-family="FreeSans" font-size="10.00">Mesh</text>
</a>
</g>
<!-- Node3&#45;&gt;Node14 -->
<g id="edge82" class="edge"><title>Node3&#45;&gt;Node14</title>
<path fill="none" stroke="#9a32cd" stroke-dasharray="5,2" d="M1118.85,-794.998C1135.47,-789.26 1155.58,-782.779 1174,-778.084 1229.16,-764.028 1255.13,-790.112 1300,-755.084 1354.79,-712.313 1372.33,-622.426 1376.74,-592.79"/>
<polygon fill="#9a32cd" stroke="#9a32cd" points="1117.28,-791.84 1109,-798.452 1119.59,-798.446 1117.28,-791.84"/>
<text text-anchor="middle" x="1237" y="-780.084" font-family="FreeSans" font-size="10.00"> Nodes</text>
</g>
<!-- Node4 -->
<g id="node6" class="node"><title>Node4</title>
<a xlink:href="classVector.html" target="_top" xlink:title="Vector data type.">
<polygon fill="white" stroke="black" points="357.5,-798.584 357.5,-817.584 402.5,-817.584 402.5,-798.584 357.5,-798.584"/>
<text text-anchor="middle" x="380" y="-804.584" font-family="FreeSans" font-size="10.00">Vector</text>
</a>
</g>
<!-- Node4&#45;&gt;Node3 -->
<g id="edge6" class="edge"><title>Node4&#45;&gt;Node3</title>
<path fill="none" stroke="midnightblue" d="M412.671,-808.084C529.127,-808.084 923.503,-808.084 1046.23,-808.084"/>
<polygon fill="midnightblue" stroke="midnightblue" points="412.594,-804.585 402.594,-808.084 412.594,-811.585 412.594,-804.585"/>
</g>
<!-- Node7 -->
<g id="node12" class="node"><title>Node7</title>
<a xlink:href="classNURBSExtension.html" target="_top" xlink:title="NURBSExtension">
<polygon fill="white" stroke="black" points="1612.5,-328.584 1612.5,-347.584 1707.5,-347.584 1707.5,-328.584 1612.5,-328.584"/>
<text text-anchor="middle" x="1660" y="-334.584" font-family="FreeSans" font-size="10.00">NURBSExtension</text>
</a>
</g>
<!-- Node4&#45;&gt;Node7 -->
<g id="edge14" class="edge"><title>Node4&#45;&gt;Node7</title>
<path fill="none" stroke="#9a32cd" stroke-dasharray="5,2" d="M395.212,-825.188C427.237,-859.201 505.488,-932.084 588,-932.084 588,-932.084 588,-932.084 946,-932.084 973.624,-932.084 1417.63,-878.747 1438,-860.084 1463.59,-836.633 1443.63,-816.519 1456,-784.084 1501.91,-663.676 1542.12,-647.044 1594,-529.084 1623.66,-461.644 1649.07,-376.322 1657.25,-347.837"/>
<polygon fill="#9a32cd" stroke="#9a32cd" points="397.771,-822.8 388.423,-817.814 392.622,-827.542 397.771,-822.8"/>
<text text-anchor="middle" x="946" y="-934.084" font-family="FreeSans" font-size="10.00"> weights</text>
</g>
<!-- Node20 -->
<g id="node47" class="node"><title>Node20</title>
<a xlink:href="classIsoparametricTransformation.html" target="_top" xlink:title="IsoparametricTransformation">
<polygon fill="white" stroke="black" points="516.5,-709.584 516.5,-728.584 659.5,-728.584 659.5,-709.584 516.5,-709.584"/>
<text text-anchor="middle" x="588" y="-715.584" font-family="FreeSans" font-size="10.00">IsoparametricTransformation</text>
</a>
</g>
<!-- Node4&#45;&gt;Node20 -->
<g id="edge62" class="edge"><title>Node4&#45;&gt;Node20</title>
<path fill="none" stroke="#9a32cd" stroke-dasharray="5,2" d="M411.564,-794.579C454.01,-776.417 528.439,-744.57 565.586,-728.675"/>
<polygon fill="#9a32cd" stroke="#9a32cd" points="410.077,-791.408 402.26,-798.56 412.83,-797.844 410.077,-791.408"/>
<text text-anchor="middle" x="478" y="-776.084" font-family="FreeSans" font-size="10.00"> shape</text>
</g>
<!-- Node5 -->
<g id="node8" class="node"><title>Node5</title>
<a xlink:href="classFiniteElementCollection.html" target="_top" xlink:title="FiniteElementCollection">
<polygon fill="white" stroke="black" points="745.5,-865.584 745.5,-884.584 866.5,-884.584 866.5,-865.584 745.5,-865.584"/>
<text text-anchor="middle" x="806" y="-871.584" font-family="FreeSans" font-size="10.00">FiniteElementCollection</text>
</a>
</g>
<!-- Node5&#45;&gt;Node3 -->
<g id="edge8" class="edge"><title>Node5&#45;&gt;Node3</title>
<path fill="none" stroke="#9a32cd" stroke-dasharray="5,2" d="M855.231,-863.177C910.028,-849.922 997.313,-828.81 1046.39,-816.939"/>
<polygon fill="#9a32cd" stroke="#9a32cd" points="854.29,-859.803 845.393,-865.556 855.936,-866.607 854.29,-859.803"/>
<text text-anchor="middle" x="946" y="-853.084" font-family="FreeSans" font-size="10.00"> fec</text>
</g>
<!-- Node6 -->
<g id="node10" class="node"><title>Node6</title>
<a xlink:href="classFiniteElementSpace.html" target="_top" xlink:title="Abstract finite element space.">
<polygon fill="white" stroke="black" points="1798,-496.584 1798,-515.584 1904,-515.584 1904,-496.584 1798,-496.584"/>
<text text-anchor="middle" x="1851" y="-502.584" font-family="FreeSans" font-size="10.00">FiniteElementSpace</text>
</a>
</g>
<!-- Node5&#45;&gt;Node6 -->
<g id="edge94" class="edge"><title>Node5&#45;&gt;Node6</title>
<path fill="none" stroke="#9a32cd" stroke-dasharray="5,2" d="M868.516,-886.222C984.728,-904.224 1240.18,-930.995 1438,-860.084 1639.8,-787.748 1808.45,-565.356 1844.07,-515.899"/>
<polygon fill="#9a32cd" stroke="#9a32cd" points="868.804,-882.724 858.38,-884.619 867.71,-889.638 868.804,-882.724"/>
<text text-anchor="middle" x="1378" y="-892.084" font-family="FreeSans" font-size="10.00"> fec</text>
</g>
<!-- Node6&#45;&gt;Node3 -->
<g id="edge10" class="edge"><title>Node6&#45;&gt;Node3</title>
<path fill="none" stroke="#9a32cd" stroke-dasharray="5,2" d="M1829.08,-521.386C1757.26,-570.604 1520.96,-725.329 1300,-789.084 1238.59,-806.803 1163.69,-809.408 1119.88,-809.132"/>
<polygon fill="#9a32cd" stroke="#9a32cd" points="1831.13,-524.223 1837.38,-515.666 1827.16,-518.46 1831.13,-524.223"/>
<text text-anchor="middle" x="1525" y="-732.084" font-family="FreeSans" font-size="10.00"> fes</text>
</g>
<!-- Node7&#45;&gt;Node6 -->
<g id="edge12" class="edge"><title>Node7&#45;&gt;Node6</title>
<path fill="none" stroke="#9a32cd" stroke-dasharray="5,2" d="M1678.34,-354.219C1717.47,-388.637 1808.14,-468.386 1839.83,-496.257"/>
<polygon fill="#9a32cd" stroke="#9a32cd" points="1680.64,-351.575 1670.82,-347.598 1676.01,-356.831 1680.64,-351.575"/>
<text text-anchor="middle" x="1753" y="-443.084" font-family="FreeSans" font-size="10.00"> NURBSext</text>
</g>
<!-- Node7&#45;&gt;Node14 -->
<g id="edge44" class="edge"><title>Node7&#45;&gt;Node14</title>
<path fill="none" stroke="#9a32cd" stroke-dasharray="5,2" d="M1653.64,-357.206C1644.49,-381.628 1625.19,-423.328 1594,-445.084 1542.67,-480.892 1508.45,-438.94 1456,-473.084 1416.76,-498.63 1391.23,-551.399 1381.93,-573.263"/>
<polygon fill="#9a32cd" stroke="#9a32cd" points="1657,-358.214 1657.05,-347.619 1650.4,-355.873 1657,-358.214"/>
<text text-anchor="middle" x="1525" y="-475.084" font-family="FreeSans" font-size="10.00"> NURBSext</text>
</g>
<!-- Node8 -->
<g id="node15" class="node"><title>Node8</title>
<a xlink:href="classArray.html" target="_top" xlink:title="Array\&lt; bool \&gt;">
<polygon fill="white" stroke="black" points="1198.5,-234.584 1198.5,-253.584 1275.5,-253.584 1275.5,-234.584 1198.5,-234.584"/>
<text text-anchor="middle" x="1237" y="-240.584" font-family="FreeSans" font-size="10.00">Array&lt; bool &gt;</text>
</a>
</g>
<!-- Node8&#45;&gt;Node7 -->
<g id="edge16" class="edge"><title>Node8&#45;&gt;Node7</title>
<path fill="none" stroke="#9a32cd" stroke-dasharray="5,2" d="M1286.02,-247.556C1355.95,-253.597 1487.66,-269.036 1594,-305.084 1611.84,-311.13 1630.95,-321.114 1643.99,-328.519"/>
<polygon fill="#9a32cd" stroke="#9a32cd" points="1286.01,-244.043 1275.75,-246.699 1285.43,-251.019 1286.01,-244.043"/>
<text text-anchor="middle" x="1378" y="-279.084" font-family="FreeSans" font-size="10.00"> activeBdrElem</text>
<text text-anchor="middle" x="1378" y="-268.084" font-family="FreeSans" font-size="10.00">activeElem</text>
</g>
<!-- Node9 -->
<g id="node17" class="node"><title>Node9</title>
<a xlink:href="classBaseArray.html" target="_top" xlink:title="Base class for array container.">
<polygon fill="white" stroke="black" points="774.5,-353.584 774.5,-372.584 837.5,-372.584 837.5,-353.584 774.5,-353.584"/>
<text text-anchor="middle" x="806" y="-359.584" font-family="FreeSans" font-size="10.00">BaseArray</text>
</a>
</g>
<!-- Node9&#45;&gt;Node8 -->
<g id="edge18" class="edge"><title>Node9&#45;&gt;Node8</title>
<path fill="none" stroke="midnightblue" d="M847.199,-350.465C915.012,-329.888 1054.55,-288.369 1174,-258.084 1181.82,-256.102 1190.22,-254.127 1198.27,-252.312"/>
<polygon fill="midnightblue" stroke="midnightblue" points="845.884,-347.206 837.335,-353.464 847.92,-353.904 845.884,-347.206"/>
</g>
<!-- Node10 -->
<g id="node19" class="node"><title>Node10</title>
<a xlink:href="classArray.html" target="_top" xlink:title="Array\&lt; int \&gt;">
<polygon fill="white" stroke="black" points="1048.5,-436.584 1048.5,-455.584 1117.5,-455.584 1117.5,-436.584 1048.5,-436.584"/>
<text text-anchor="middle" x="1083" y="-442.584" font-family="FreeSans" font-size="10.00">Array&lt; int &gt;</text>
</a>
</g>
<!-- Node9&#45;&gt;Node10 -->
<g id="edge22" class="edge"><title>Node9&#45;&gt;Node10</title>
<path fill="none" stroke="midnightblue" d="M847.385,-375.485C903.033,-392.159 1000.79,-421.45 1051.1,-436.525"/>
<polygon fill="midnightblue" stroke="midnightblue" points="848.09,-372.042 837.506,-372.525 846.08,-378.748 848.09,-372.042"/>
</g>
<!-- Node11 -->
<g id="node22" class="node"><title>Node11</title>
<a xlink:href="classArray.html" target="_top" xlink:title="Array\&lt; KnotVector * \&gt;">
<polygon fill="white" stroke="black" points="1180,-86.5844 1180,-105.584 1294,-105.584 1294,-86.5844 1180,-86.5844"/>
<text text-anchor="middle" x="1237" y="-92.5844" font-family="FreeSans" font-size="10.00">Array&lt; KnotVector * &gt;</text>
</a>
</g>
<!-- Node9&#45;&gt;Node11 -->
<g id="edge26" class="edge"><title>Node9&#45;&gt;Node11</title>
<path fill="none" stroke="midnightblue" d="M821.899,-346.089C854.549,-311.918 932.613,-233.91 1010,-184.084 1077.23,-140.795 1098.13,-135.335 1174,-110.084 1178.89,-108.457 1184.06,-106.962 1189.24,-105.605"/>
<polygon fill="midnightblue" stroke="midnightblue" points="819.284,-343.759 814.946,-353.425 824.365,-348.575 819.284,-343.759"/>
</g>
<!-- Node12 -->
<g id="node25" class="node"><title>Node12</title>
<a xlink:href="classArray.html" target="_top" xlink:title="Array\&lt; NURBSPatch * \&gt;">
<polygon fill="white" stroke="black" points="1174.5,-61.5844 1174.5,-80.5844 1299.5,-80.5844 1299.5,-61.5844 1174.5,-61.5844"/>
<text text-anchor="middle" x="1237" y="-67.5844" font-family="FreeSans" font-size="10.00">Array&lt; NURBSPatch * &gt;</text>
</a>
</g>
<!-- Node9&#45;&gt;Node12 -->
<g id="edge30" class="edge"><title>Node9&#45;&gt;Node12</title>
<path fill="none" stroke="midnightblue" d="M813.474,-344.128C827.095,-311.209 858.431,-242.464 900,-195.084 940.216,-149.248 954.119,-137.49 1010,-113.084 1062.52,-90.1462 1127.2,-79.7291 1174.06,-75.0021"/>
<polygon fill="midnightblue" stroke="midnightblue" points="810.194,-342.903 809.683,-353.485 816.682,-345.531 810.194,-342.903"/>
</g>
<!-- Node15 -->
<g id="node32" class="node"><title>Node15</title>
<a xlink:href="classArray.html" target="_top" xlink:title="Array\&lt; Element * \&gt;">
<polygon fill="white" stroke="black" points="1032,-524.584 1032,-543.584 1134,-543.584 1134,-524.584 1032,-524.584"/>
<text text-anchor="middle" x="1083" y="-530.584" font-family="FreeSans" font-size="10.00">Array&lt; Element * &gt;</text>
</a>
</g>
<!-- Node9&#45;&gt;Node15 -->
<g id="edge38" class="edge"><title>Node9&#45;&gt;Node15</title>
<path fill="none" stroke="midnightblue" d="M830.203,-378.025C885.828,-412.365 1021.52,-496.134 1067.49,-524.507"/>
<polygon fill="midnightblue" stroke="midnightblue" points="832.034,-375.043 821.686,-372.768 828.357,-380.999 832.034,-375.043"/>
</g>
<!-- Node16 -->
<g id="node35" class="node"><title>Node16</title>
<a xlink:href="classArray.html" target="_top" xlink:title="Array\&lt; Vertex \&gt;">
<polygon fill="white" stroke="black" points="1039.5,-651.584 1039.5,-670.584 1126.5,-670.584 1126.5,-651.584 1039.5,-651.584"/>
<text text-anchor="middle" x="1083" y="-657.584" font-family="FreeSans" font-size="10.00">Array&lt; Vertex &gt;</text>
</a>
</g>
<!-- Node9&#45;&gt;Node16 -->
<g id="edge42" class="edge"><title>Node9&#45;&gt;Node16</title>
<path fill="none" stroke="midnightblue" d="M813.786,-382.011C835.927,-433.248 904.544,-575.222 1010,-641.084 1018.8,-646.584 1029.13,-650.593 1039.19,-653.509"/>
<polygon fill="midnightblue" stroke="midnightblue" points="816.995,-380.613 809.874,-372.768 810.548,-383.341 816.995,-380.613"/>
</g>
<!-- Node17 -->
<g id="node40" class="node"><title>Node17</title>
<a xlink:href="classArray.html" target="_top" xlink:title="Array\&lt; FaceInfo \&gt;">
<polygon fill="white" stroke="black" points="1034.5,-612.584 1034.5,-631.584 1131.5,-631.584 1131.5,-612.584 1034.5,-612.584"/>
<text text-anchor="middle" x="1083" y="-618.584" font-family="FreeSans" font-size="10.00">Array&lt; FaceInfo &gt;</text>
</a>
</g>
<!-- Node9&#45;&gt;Node17 -->
<g id="edge50" class="edge"><title>Node9&#45;&gt;Node17</title>
<path fill="none" stroke="midnightblue" d="M821.258,-380.094C839.486,-400.189 871.145,-434.39 900,-462.084 962.113,-521.698 1041.44,-587.904 1071.1,-612.341"/>
<polygon fill="midnightblue" stroke="midnightblue" points="823.831,-377.721 814.532,-372.645 818.636,-382.412 823.831,-377.721"/>
</g>
<!-- Node29 -->
<g id="node73" class="node"><title>Node29</title>
<a xlink:href="classArray.html" target="_top" xlink:title="Array\&lt; RefinementData * \&gt;">
<polygon fill="white" stroke="black" points="1456.5,-23.5844 1456.5,-42.5844 1593.5,-42.5844 1593.5,-23.5844 1456.5,-23.5844"/>
<text text-anchor="middle" x="1525" y="-29.5844" font-family="FreeSans" font-size="10.00">Array&lt; RefinementData * &gt;</text>
</a>
</g>
<!-- Node9&#45;&gt;Node29 -->
<g id="edge92" class="edge"><title>Node9&#45;&gt;Node29</title>
<path fill="none" stroke="midnightblue" d="M808.252,-343.026C814.433,-297.103 835.719,-183.282 900,-118.084 1059.34,43.5257 1370.31,-0.824364 1482.97,-23.576"/>
<polygon fill="midnightblue" stroke="midnightblue" points="804.752,-342.811 806.989,-353.167 811.699,-343.676 804.752,-342.811"/>
</g>
<!-- Node10&#45;&gt;Node6 -->
<g id="edge88" class="edge"><title>Node10&#45;&gt;Node6</title>
<path fill="none" stroke="#9a32cd" stroke-dasharray="5,2" d="M1127.7,-455.767C1174.79,-465.523 1251.23,-480.103 1318,-487.084 1492.97,-505.38 1701.82,-506.984 1797.88,-506.595"/>
<polygon fill="#9a32cd" stroke="#9a32cd" points="1128.33,-452.323 1117.83,-453.703 1126.9,-459.175 1128.33,-452.323"/>
<text text-anchor="middle" x="1525" y="-516.084" font-family="FreeSans" font-size="10.00"> dof_ldof_array</text>
<text text-anchor="middle" x="1525" y="-505.084" font-family="FreeSans" font-size="10.00">dof_elem_array</text>
</g>
<!-- Node10&#45;&gt;Node7 -->
<g id="edge20" class="edge"><title>Node10&#45;&gt;Node7</title>
<path fill="none" stroke="#9a32cd" stroke-dasharray="5,2" d="M1087.14,-426.592C1095.95,-390.621 1120.3,-314.606 1174,-283.084 1222.29,-254.736 1245.5,-270.218 1300,-283.084 1308.71,-285.139 1309.45,-289.453 1318,-292.084 1371.97,-308.699 1531.88,-325.786 1612.46,-333.642"/>
<polygon fill="#9a32cd" stroke="#9a32cd" points="1083.72,-425.847 1084.89,-436.377 1090.54,-427.415 1083.72,-425.847"/>
<text text-anchor="middle" x="1378" y="-425.084" font-family="FreeSans" font-size="10.00"> v_spaceOffsets</text>
<text text-anchor="middle" x="1378" y="-414.084" font-family="FreeSans" font-size="10.00">p_meshOffsets</text>
<text text-anchor="middle" x="1378" y="-403.084" font-family="FreeSans" font-size="10.00">edge_to_knot</text>
<text text-anchor="middle" x="1378" y="-392.084" font-family="FreeSans" font-size="10.00">f_spaceOffsets</text>
<text text-anchor="middle" x="1378" y="-381.084" font-family="FreeSans" font-size="10.00">e_meshOffsets</text>
<text text-anchor="middle" x="1378" y="-370.084" font-family="FreeSans" font-size="10.00">el_to_patch</text>
<text text-anchor="middle" x="1378" y="-359.084" font-family="FreeSans" font-size="10.00">p_spaceOffsets</text>
<text text-anchor="middle" x="1378" y="-348.084" font-family="FreeSans" font-size="10.00">bel_to_patch</text>
<text text-anchor="middle" x="1378" y="-337.084" font-family="FreeSans" font-size="10.00">e_spaceOffsets</text>
<text text-anchor="middle" x="1378" y="-326.084" font-family="FreeSans" font-size="10.00">v_meshOffsets</text>
<text text-anchor="middle" x="1378" y="-315.084" font-family="FreeSans" font-size="10.00">...</text>
</g>
<!-- Node10&#45;&gt;Node14 -->
<g id="edge46" class="edge"><title>Node10&#45;&gt;Node14</title>
<path fill="none" stroke="#9a32cd" stroke-dasharray="5,2" d="M1111.92,-459.897C1129.51,-467.775 1152.63,-477.218 1174,-483.084 1228.61,-498.077 1249.69,-476.085 1300,-502.084 1302.17,-503.205 1348.56,-552.013 1368.75,-573.313"/>
<polygon fill="#9a32cd" stroke="#9a32cd" points="1113.32,-456.686 1102.77,-455.714 1110.41,-463.053 1113.32,-456.686"/>
<text text-anchor="middle" x="1237" y="-548.084" font-family="FreeSans" font-size="10.00"> fc_be_to_edge</text>
<text text-anchor="middle" x="1237" y="-537.084" font-family="FreeSans" font-size="10.00">attributes</text>
<text text-anchor="middle" x="1237" y="-526.084" font-family="FreeSans" font-size="10.00">be_to_edge</text>
<text text-anchor="middle" x="1237" y="-515.084" font-family="FreeSans" font-size="10.00">be_to_face</text>
<text text-anchor="middle" x="1237" y="-504.084" font-family="FreeSans" font-size="10.00">bdr_attributes</text>
</g>
<!-- Node28 -->
<g id="node69" class="node"><title>Node28</title>
<a xlink:href="classArray2D.html" target="_top" xlink:title="Array2D\&lt; int \&gt;">
<polygon fill="white" stroke="black" points="1337.5,-458.584 1337.5,-477.584 1418.5,-477.584 1418.5,-458.584 1337.5,-458.584"/>
<text text-anchor="middle" x="1378" y="-464.584" font-family="FreeSans" font-size="10.00">Array2D&lt; int &gt;</text>
</a>
</g>
<!-- Node10&#45;&gt;Node28 -->
<g id="edge86" class="edge"><title>Node10&#45;&gt;Node28</title>
<path fill="none" stroke="#9a32cd" stroke-dasharray="5,2" d="M1127.86,-442.934C1171.9,-440.63 1240.89,-439.128 1300,-447.084 1316.68,-449.329 1334.86,-454.084 1349.47,-458.502"/>
<polygon fill="#9a32cd" stroke="#9a32cd" points="1127.56,-439.446 1117.77,-443.5 1127.95,-446.435 1127.56,-439.446"/>
<text text-anchor="middle" x="1237" y="-449.084" font-family="FreeSans" font-size="10.00"> array1d</text>
</g>
<!-- Node11&#45;&gt;Node7 -->
<g id="edge24" class="edge"><title>Node11&#45;&gt;Node7</title>
<path fill="none" stroke="#9a32cd" stroke-dasharray="5,2" d="M1292.3,-107.721C1386.66,-127.983 1570.9,-169.452 1594,-189.084 1638.84,-227.19 1654.39,-301.737 1658.64,-328.353"/>
<polygon fill="#9a32cd" stroke="#9a32cd" points="1292.86,-104.263 1282.35,-105.593 1291.4,-111.108 1292.86,-104.263"/>
<text text-anchor="middle" x="1378" y="-142.084" font-family="FreeSans" font-size="10.00"> knotVectors</text>
</g>
<!-- Node12&#45;&gt;Node7 -->
<g id="edge28" class="edge"><title>Node12&#45;&gt;Node7</title>
<path fill="none" stroke="#9a32cd" stroke-dasharray="5,2" d="M1309.96,-70.1525C1349.64,-72.3091 1398.54,-79.4402 1438,-99.0844 1448.13,-104.126 1446.03,-111.732 1456,-117.084 1511.14,-146.692 1546.98,-103.783 1594,-145.084 1623,-170.557 1650.47,-292.602 1657.99,-328.273"/>
<polygon fill="#9a32cd" stroke="#9a32cd" points="1309.96,-66.6492 1299.81,-69.6973 1309.65,-73.6422 1309.96,-66.6492"/>
<text text-anchor="middle" x="1378" y="-101.084" font-family="FreeSans" font-size="10.00"> patches</text>
</g>
<!-- Node13 -->
<g id="node28" class="node"><title>Node13</title>
<a xlink:href="classTable.html" target="_top" xlink:title="Table">
<polygon fill="white" stroke="black" points="1062,-193.584 1062,-212.584 1104,-212.584 1104,-193.584 1062,-193.584"/>
<text text-anchor="middle" x="1083" y="-199.584" font-family="FreeSans" font-size="10.00">Table</text>
</a>
</g>
<!-- Node13&#45;&gt;Node6 -->
<g id="edge96" class="edge"><title>Node13&#45;&gt;Node6</title>
<path fill="none" stroke="#9a32cd" stroke-dasharray="5,2" d="M1110.52,-189.128C1170.03,-160.679 1315.23,-100.581 1438,-124.084 1627.94,-160.445 1663.51,-238.725 1780,-393.084 1807.36,-429.332 1834.44,-476.314 1845.64,-496.346"/>
<polygon fill="#9a32cd" stroke="#9a32cd" points="1108.86,-186.044 1101.4,-193.565 1111.92,-192.339 1108.86,-186.044"/>
<text text-anchor="middle" x="1525" y="-193.084" font-family="FreeSans" font-size="10.00"> bdrElem_dof</text>
<text text-anchor="middle" x="1525" y="-182.084" font-family="FreeSans" font-size="10.00">elem_dof</text>
</g>
<!-- Node13&#45;&gt;Node7 -->
<g id="edge32" class="edge"><title>Node13&#45;&gt;Node7</title>
<path fill="none" stroke="#9a32cd" stroke-dasharray="5,2" d="M1114.15,-198.624C1198.49,-188.184 1435.57,-169.839 1594,-266.084 1620.96,-282.46 1643.58,-313.048 1653.94,-328.552"/>
<polygon fill="#9a32cd" stroke="#9a32cd" points="1113.65,-195.159 1104.19,-199.91 1114.55,-202.101 1113.65,-195.159"/>
<text text-anchor="middle" x="1378" y="-220.084" font-family="FreeSans" font-size="10.00"> el_dof</text>
<text text-anchor="middle" x="1378" y="-209.084" font-family="FreeSans" font-size="10.00">bel_dof</text>
</g>
<!-- Node13&#45;&gt;Node14 -->
<g id="edge78" class="edge"><title>Node13&#45;&gt;Node14</title>
<path fill="none" stroke="#9a32cd" stroke-dasharray="5,2" d="M1104.36,-218.8C1122.37,-231.649 1149.12,-249.799 1174,-263.084 1227.59,-291.705 1263.78,-267.31 1300,-316.084 1322.78,-346.761 1305.56,-450.958 1318,-487.084 1329.97,-521.834 1356.47,-557.041 1369.88,-573.495"/>
<polygon fill="#9a32cd" stroke="#9a32cd" points="1105.95,-215.631 1095.79,-212.618 1101.85,-221.308 1105.95,-215.631"/>
<text text-anchor="middle" x="1237" y="-428.084" font-family="FreeSans" font-size="10.00"> el_to_face</text>
<text text-anchor="middle" x="1237" y="-417.084" font-family="FreeSans" font-size="10.00">el_to_edge</text>
<text text-anchor="middle" x="1237" y="-406.084" font-family="FreeSans" font-size="10.00">c_bel_to_edge</text>
<text text-anchor="middle" x="1237" y="-395.084" font-family="FreeSans" font-size="10.00">edge_vertex</text>
<text text-anchor="middle" x="1237" y="-384.084" font-family="FreeSans" font-size="10.00">face_edge</text>
<text text-anchor="middle" x="1237" y="-373.084" font-family="FreeSans" font-size="10.00">el_to_el</text>
<text text-anchor="middle" x="1237" y="-362.084" font-family="FreeSans" font-size="10.00">c_el_to_face</text>
<text text-anchor="middle" x="1237" y="-351.084" font-family="FreeSans" font-size="10.00">f_bel_to_edge</text>
<text text-anchor="middle" x="1237" y="-340.084" font-family="FreeSans" font-size="10.00">c_el_to_edge</text>
<text text-anchor="middle" x="1237" y="-329.084" font-family="FreeSans" font-size="10.00">f_el_to_face</text>
<text text-anchor="middle" x="1237" y="-318.084" font-family="FreeSans" font-size="10.00">...</text>
</g>
<!-- Node14&#45;&gt;Node6 -->
<g id="edge98" class="edge"><title>Node14&#45;&gt;Node6</title>
<path fill="none" stroke="#9a32cd" stroke-dasharray="5,2" d="M1408.47,-578.727C1475.67,-569.023 1641.66,-544.553 1780,-520.084 1787.79,-518.706 1796.05,-517.158 1804.07,-515.607"/>
<polygon fill="#9a32cd" stroke="#9a32cd" points="1407.95,-575.266 1398.55,-580.155 1408.94,-582.194 1407.95,-575.266"/>
<text text-anchor="middle" x="1660" y="-549.084" font-family="FreeSans" font-size="10.00"> mesh</text>
</g>
<!-- Node14&#45;&gt;Node7 -->
<g id="edge34" class="edge"><title>Node14&#45;&gt;Node7</title>
<path fill="none" stroke="#9a32cd" stroke-dasharray="5,2" d="M1390.91,-565.243C1404.06,-546.487 1424.39,-515.773 1438,-487.084 1448.66,-464.609 1437.61,-450.841 1456,-434.084 1502.61,-391.606 1538.61,-431.232 1594,-401.084 1619.04,-387.454 1641.5,-361.845 1652.62,-347.841"/>
<polygon fill="#9a32cd" stroke="#9a32cd" points="1388.04,-563.249 1385.1,-573.429 1393.74,-567.304 1388.04,-563.249"/>
<text text-anchor="middle" x="1525" y="-436.084" font-family="FreeSans" font-size="10.00"> patchTopo</text>
</g>
<!-- Node15&#45;&gt;Node14 -->
<g id="edge36" class="edge"><title>Node15&#45;&gt;Node14</title>
<path fill="none" stroke="#9a32cd" stroke-dasharray="5,2" d="M1120.26,-546.801C1136.59,-551.937 1156.07,-557.489 1174,-561.084 1240.19,-574.358 1320.17,-580.035 1357.25,-582.089"/>
<polygon fill="#9a32cd" stroke="#9a32cd" points="1121.14,-543.407 1110.55,-543.677 1119,-550.071 1121.14,-543.407"/>
<text text-anchor="middle" x="1237" y="-601.084" font-family="FreeSans" font-size="10.00"> boundary</text>
<text text-anchor="middle" x="1237" y="-590.084" font-family="FreeSans" font-size="10.00">elements</text>
<text text-anchor="middle" x="1237" y="-579.084" font-family="FreeSans" font-size="10.00">faces</text>
</g>
<!-- Node16&#45;&gt;Node14 -->
<g id="edge40" class="edge"><title>Node16&#45;&gt;Node14</title>
<path fill="none" stroke="#9a32cd" stroke-dasharray="5,2" d="M1136.99,-669.02C1182.23,-673.382 1247.63,-674.252 1300,-653.084 1331.55,-640.334 1358.62,-608.86 1370.93,-592.82"/>
<polygon fill="#9a32cd" stroke="#9a32cd" points="1137.11,-665.514 1126.8,-667.946 1136.38,-672.475 1137.11,-665.514"/>
<text text-anchor="middle" x="1237" y="-673.084" font-family="FreeSans" font-size="10.00"> vertices</text>
</g>
<!-- Node17&#45;&gt;Node14 -->
<g id="edge48" class="edge"><title>Node17&#45;&gt;Node14</title>
<path fill="none" stroke="#9a32cd" stroke-dasharray="5,2" d="M1142.15,-626.824C1186.2,-628.888 1247.53,-628.654 1300,-617.084 1322.22,-612.185 1345.93,-600.877 1361.3,-592.643"/>
<polygon fill="#9a32cd" stroke="#9a32cd" points="1142.08,-623.315 1131.91,-626.288 1141.71,-630.305 1142.08,-623.315"/>
<text text-anchor="middle" x="1237" y="-640.084" font-family="FreeSans" font-size="10.00"> fc_faces_info</text>
<text text-anchor="middle" x="1237" y="-629.084" font-family="FreeSans" font-size="10.00">faces_info</text>
</g>
<!-- Node18 -->
<g id="node43" class="node"><title>Node18</title>
<a xlink:href="classFaceElementTransformations.html" target="_top" xlink:title="FaceElementTransformations">
<polygon fill="white" stroke="black" points="1010,-689.584 1010,-708.584 1156,-708.584 1156,-689.584 1010,-689.584"/>
<text text-anchor="middle" x="1083" y="-695.584" font-family="FreeSans" font-size="10.00">FaceElementTransformations</text>
</a>
</g>
<!-- Node18&#45;&gt;Node14 -->
<g id="edge52" class="edge"><title>Node18&#45;&gt;Node14</title>
<path fill="none" stroke="#9a32cd" stroke-dasharray="5,2" d="M1154.83,-709.386C1199.18,-712.334 1255.85,-709.703 1300,-686.084 1339.56,-664.922 1364.91,-613.96 1374.11,-592.676"/>
<polygon fill="#9a32cd" stroke="#9a32cd" points="1154.94,-705.884 1144.7,-708.603 1154.4,-712.863 1154.94,-705.884"/>
<text text-anchor="middle" x="1237" y="-712.084" font-family="FreeSans" font-size="10.00"> FaceElemTr</text>
</g>
<!-- Node19 -->
<g id="node45" class="node"><title>Node19</title>
<a xlink:href="classIntegrationPointTransformation.html" target="_top" xlink:title="IntegrationPointTransformation">
<polygon fill="white" stroke="black" points="730,-693.584 730,-712.584 882,-712.584 882,-693.584 730,-693.584"/>
<text text-anchor="middle" x="806" y="-699.584" font-family="FreeSans" font-size="10.00">IntegrationPointTransformation</text>
</a>
</g>
<!-- Node19&#45;&gt;Node18 -->
<g id="edge54" class="edge"><title>Node19&#45;&gt;Node18</title>
<path fill="none" stroke="#9a32cd" stroke-dasharray="5,2" d="M892.293,-700.242C894.891,-700.184 897.465,-700.132 900,-700.084 936.213,-699.408 976.463,-699.135 1009.97,-699.042"/>
<polygon fill="#9a32cd" stroke="#9a32cd" points="892.094,-696.745 882.18,-700.483 892.261,-703.743 892.094,-696.745"/>
<text text-anchor="middle" x="946" y="-713.084" font-family="FreeSans" font-size="10.00"> Loc1</text>
<text text-anchor="middle" x="946" y="-702.084" font-family="FreeSans" font-size="10.00">Loc2</text>
</g>
<!-- Node20&#45;&gt;Node14 -->
<g id="edge80" class="edge"><title>Node20&#45;&gt;Node14</title>
<path fill="none" stroke="#9a32cd" stroke-dasharray="5,2" d="M667.94,-729.863C830.996,-750.242 1195.39,-787.096 1300,-725.084 1350.57,-695.108 1370.56,-619.432 1376.19,-592.655"/>
<polygon fill="#9a32cd" stroke="#9a32cd" points="668.327,-726.384 657.967,-728.606 667.451,-733.329 668.327,-726.384"/>
<text text-anchor="middle" x="946" y="-781.084" font-family="FreeSans" font-size="10.00"> FaceTransformation</text>
<text text-anchor="middle" x="946" y="-770.084" font-family="FreeSans" font-size="10.00">Transformation2</text>
<text text-anchor="middle" x="946" y="-759.084" font-family="FreeSans" font-size="10.00">Transformation</text>
</g>
<!-- Node20&#45;&gt;Node19 -->
<g id="edge56" class="edge"><title>Node20&#45;&gt;Node19</title>
<path fill="none" stroke="#9a32cd" stroke-dasharray="5,2" d="M669.83,-713.079C689.481,-711.636 710.39,-710.102 729.775,-708.679"/>
<polygon fill="#9a32cd" stroke="#9a32cd" points="669.4,-709.601 659.683,-713.823 669.913,-716.582 669.4,-709.601"/>
<text text-anchor="middle" x="695" y="-713.084" font-family="FreeSans" font-size="10.00"> Transf</text>
</g>
<!-- Node21 -->
<g id="node49" class="node"><title>Node21</title>
<a xlink:href="classElementTransformation.html" target="_top" xlink:title="ElementTransformation">
<polygon fill="white" stroke="black" points="320.5,-671.584 320.5,-690.584 439.5,-690.584 439.5,-671.584 320.5,-671.584"/>
<text text-anchor="middle" x="380" y="-677.584" font-family="FreeSans" font-size="10.00">ElementTransformation</text>
</a>
</g>
<!-- Node21&#45;&gt;Node18 -->
<g id="edge76" class="edge"><title>Node21&#45;&gt;Node18</title>
<path fill="none" stroke="#9a32cd" stroke-dasharray="5,2" d="M449.728,-677.12C516.915,-673.84 621.424,-670.157 712,-673.084 787.674,-675.53 806.469,-678.823 882,-684.084 924.414,-687.039 971.843,-690.568 1009.97,-693.46"/>
<polygon fill="#9a32cd" stroke="#9a32cd" points="449.496,-673.627 439.683,-677.621 449.845,-680.618 449.496,-673.627"/>
<text text-anchor="middle" x="695" y="-697.084" font-family="FreeSans" font-size="10.00"> Elem1</text>
<text text-anchor="middle" x="695" y="-686.084" font-family="FreeSans" font-size="10.00">Elem2</text>
<text text-anchor="middle" x="695" y="-675.084" font-family="FreeSans" font-size="10.00">Face</text>
</g>
<!-- Node21&#45;&gt;Node20 -->
<g id="edge58" class="edge"><title>Node21&#45;&gt;Node20</title>
<path fill="none" stroke="midnightblue" d="M442.11,-692.431C471.953,-697.884 507.322,-704.345 535.76,-709.541"/>
<polygon fill="midnightblue" stroke="midnightblue" points="442.685,-688.979 432.219,-690.624 441.427,-695.865 442.685,-688.979"/>
</g>
<!-- Node22 -->
<g id="node51" class="node"><title>Node22</title>
<a xlink:href="classIntegrationPoint.html" target="_top" xlink:title="Class for integration point with weight.">
<polygon fill="white" stroke="black" points="0,-687.584 0,-706.584 86,-706.584 86,-687.584 0,-687.584"/>
<text text-anchor="middle" x="43" y="-693.584" font-family="FreeSans" font-size="10.00">IntegrationPoint</text>
</a>
</g>
<!-- Node22&#45;&gt;Node21 -->
<g id="edge60" class="edge"><title>Node22&#45;&gt;Node21</title>
<path fill="none" stroke="#9a32cd" stroke-dasharray="5,2" d="M96.2404,-693.882C117.882,-692.625 143.132,-691.216 166,-690.084 218.182,-687.502 277.545,-685.044 320.49,-683.351"/>
<polygon fill="#9a32cd" stroke="#9a32cd" points="96.0322,-690.388 86.2536,-694.466 96.4409,-697.376 96.0322,-690.388"/>
<text text-anchor="middle" x="208" y="-692.084" font-family="FreeSans" font-size="10.00"> IntPoint</text>
</g>
<!-- Node27 -->
<g id="node62" class="node"><title>Node27</title>
<a xlink:href="classIntegrationRule.html" target="_top" xlink:title="Class for integration rule.">
<polygon fill="white" stroke="black" points="166,-710.584 166,-729.584 250,-729.584 250,-710.584 166,-710.584"/>
<text text-anchor="middle" x="208" y="-716.584" font-family="FreeSans" font-size="10.00">IntegrationRule</text>
</a>
</g>
<!-- Node22&#45;&gt;Node27 -->
<g id="edge74" class="edge"><title>Node22&#45;&gt;Node27</title>
<path fill="none" stroke="#9a32cd" stroke-dasharray="5,2" d="M96.4187,-704.531C118.897,-707.664 144.679,-711.258 165.793,-714.201"/>
<polygon fill="#9a32cd" stroke="#9a32cd" points="96.7393,-701.042 86.3518,-703.127 95.7728,-707.975 96.7393,-701.042"/>
<text text-anchor="middle" x="126" y="-713.084" font-family="FreeSans" font-size="10.00"> IntPoints</text>
</g>
<!-- Node23 -->
<g id="node54" class="node"><title>Node23</title>
<a xlink:href="classDenseMatrix.html" target="_top" xlink:title="Data type dense matrix.">
<polygon fill="white" stroke="black" points="343.5,-604.584 343.5,-623.584 416.5,-623.584 416.5,-604.584 343.5,-604.584"/>
<text text-anchor="middle" x="380" y="-610.584" font-family="FreeSans" font-size="10.00">DenseMatrix</text>
</a>
</g>
<!-- Node23&#45;&gt;Node20 -->
<g id="edge64" class="edge"><title>Node23&#45;&gt;Node20</title>
<path fill="none" stroke="#9a32cd" stroke-dasharray="5,2" d="M421.202,-626.748C444.348,-634.522 473.432,-645.41 498,-658.084 527.524,-673.316 558.992,-696.436 575.776,-709.399"/>
<polygon fill="#9a32cd" stroke="#9a32cd" points="422.269,-623.415 411.676,-623.611 420.079,-630.063 422.269,-623.415"/>
<text text-anchor="middle" x="478" y="-682.084" font-family="FreeSans" font-size="10.00"> dFdx</text>
<text text-anchor="middle" x="478" y="-671.084" font-family="FreeSans" font-size="10.00">PointMat</text>
<text text-anchor="middle" x="478" y="-660.084" font-family="FreeSans" font-size="10.00">dshape</text>
</g>
<!-- Node24 -->
<g id="node56" class="node"><title>Node24</title>
<a xlink:href="classMatrix.html" target="_top" xlink:title="Abstract data type matrix.">
<polygon fill="white" stroke="black" points="186,-604.584 186,-623.584 230,-623.584 230,-604.584 186,-604.584"/>
<text text-anchor="middle" x="208" y="-610.584" font-family="FreeSans" font-size="10.00">Matrix</text>
</a>
</g>
<!-- Node24&#45;&gt;Node23 -->
<g id="edge66" class="edge"><title>Node24&#45;&gt;Node23</title>
<path fill="none" stroke="midnightblue" d="M240.237,-614.084C269.493,-614.084 312.611,-614.084 343.206,-614.084"/>
<polygon fill="midnightblue" stroke="midnightblue" points="240.134,-610.585 230.134,-614.084 240.134,-617.585 240.134,-610.585"/>
</g>
<!-- Node25 -->
<g id="node58" class="node"><title>Node25</title>
<a xlink:href="classOperator.html" target="_top" xlink:title="Abstract operator.">
<polygon fill="white" stroke="black" points="15,-604.584 15,-623.584 71,-623.584 71,-604.584 15,-604.584"/>
<text text-anchor="middle" x="43" y="-610.584" font-family="FreeSans" font-size="10.00">Operator</text>
</a>
</g>
<!-- Node25&#45;&gt;Node24 -->
<g id="edge68" class="edge"><title>Node25&#45;&gt;Node24</title>
<path fill="none" stroke="midnightblue" d="M81.3984,-614.084C113.818,-614.084 159.107,-614.084 185.812,-614.084"/>
<polygon fill="midnightblue" stroke="midnightblue" points="81.3645,-610.585 71.3645,-614.084 81.3645,-617.585 81.3645,-610.585"/>
</g>
<!-- Node26 -->
<g id="node60" class="node"><title>Node26</title>
<a xlink:href="classFiniteElement.html" target="_top" xlink:title="Abstract class for Finite Elements.">
<polygon fill="white" stroke="black" points="341,-710.584 341,-729.584 419,-729.584 419,-710.584 341,-710.584"/>
<text text-anchor="middle" x="380" y="-716.584" font-family="FreeSans" font-size="10.00">FiniteElement</text>
</a>
</g>
<!-- Node26&#45;&gt;Node20 -->
<g id="edge70" class="edge"><title>Node26&#45;&gt;Node20</title>
<path fill="none" stroke="#9a32cd" stroke-dasharray="5,2" d="M429.452,-719.847C455.374,-719.722 487.602,-719.567 516.218,-719.43"/>
<polygon fill="#9a32cd" stroke="#9a32cd" points="429.106,-716.348 419.123,-719.896 429.14,-723.348 429.106,-716.348"/>
<text text-anchor="middle" x="478" y="-721.084" font-family="FreeSans" font-size="10.00"> FElem</text>
</g>
<!-- Node27&#45;&gt;Node26 -->
<g id="edge72" class="edge"><title>Node27&#45;&gt;Node26</title>
<path fill="none" stroke="#9a32cd" stroke-dasharray="5,2" d="M260.11,-720.084C286.023,-720.084 316.823,-720.084 340.717,-720.084"/>
<polygon fill="#9a32cd" stroke="#9a32cd" points="260.076,-716.585 250.076,-720.084 260.076,-723.585 260.076,-716.585"/>
<text text-anchor="middle" x="285" y="-722.084" font-family="FreeSans" font-size="10.00"> Nodes</text>
</g>
<!-- Node28&#45;&gt;Node7 -->
<g id="edge84" class="edge"><title>Node28&#45;&gt;Node7</title>
<path fill="none" stroke="#9a32cd" stroke-dasharray="5,2" d="M1426.02,-453.84C1430.47,-451.126 1434.58,-447.905 1438,-444.084 1458,-421.751 1434.06,-399.506 1456,-379.084 1498.05,-339.953 1566.56,-333.614 1612.44,-334.429"/>
<polygon fill="#9a32cd" stroke="#9a32cd" points="1424.4,-450.736 1417.15,-458.459 1427.64,-456.945 1424.4,-450.736"/>
<text text-anchor="middle" x="1525" y="-392.084" font-family="FreeSans" font-size="10.00"> bel_to_IJK</text>
<text text-anchor="middle" x="1525" y="-381.084" font-family="FreeSans" font-size="10.00">el_to_IJK</text>
</g>
<!-- Node29&#45;&gt;Node6 -->
<g id="edge90" class="edge"><title>Node29&#45;&gt;Node6</title>
<path fill="none" stroke="#9a32cd" stroke-dasharray="5,2" d="M1603.63,-25.6415C1660.43,-24.8718 1734.82,-34.1277 1780,-80.0844 1840.71,-141.842 1849.67,-439.006 1850.84,-496.457"/>
<polygon fill="#9a32cd" stroke="#9a32cd" points="1603.51,-22.1432 1593.6,-25.8827 1603.68,-29.1412 1603.51,-22.1432"/>
<text text-anchor="middle" x="1660" y="-40.0844" font-family="FreeSans" font-size="10.00"> RefData</text>
</g>
</g>
</svg>
        <g id="navigator" transform="translate(0 0)" fill="#404254">
                <rect fill="#f2f5e9" fill-opacity="0.5" stroke="#606060" stroke-width=".5" x="0" y="0" width="60" height="60"/>
                <use id="zoomplus" xlink:href="#zoomPlus" x="17" y="9" onmousedown="handleZoom(evt,'in')"/>
                <use id="zoomminus" xlink:href="#zoomMin" x="42" y="9" onmousedown="handleZoom(evt,'out')"/>
                <use id="reset" xlink:href="#resetDef" x="30" y="36" onmousedown="handleReset()"/>
                <g id="arrowUp" xlink:href="#dirArrow" transform="translate(30 24)" onmousedown="handlePan(0,-1)">
                  <use xlink:href="#rim" fill="#404040">
                        <set attributeName="fill" to="#808080" begin="arrowUp.mouseover" end="arrowUp.mouseout"/>
                  </use>
                  <path fill="none" stroke="white" stroke-width="1.5" d="M0,-3.0v7 M-2.5,-0.5L0,-3.0L2.5,-0.5"/>
                </g>
                <g id="arrowRight" xlink:href="#dirArrow" transform="rotate(90) translate(36 -43)" onmousedown="handlePan(1,0)">
                  <use xlink:href="#rim" fill="#404040">
                        <set attributeName="fill" to="#808080" begin="arrowRight.mouseover" end="arrowRight.mouseout"/>
                  </use>
                  <path fill="none" stroke="white" stroke-width="1.5" d="M0,-3.0v7 M-2.5,-0.5L0,-3.0L2.5,-0.5"/>
                </g>
                <g id="arrowDown" xlink:href="#dirArrow" transform="rotate(180) translate(-30 -48)" onmousedown="handlePan(0,1)">
                  <use xlink:href="#rim" fill="#404040">
                        <set attributeName="fill" to="#808080" begin="arrowDown.mouseover" end="arrowDown.mouseout"/>
                  </use>
                  <path fill="none" stroke="white" stroke-width="1.5" d="M0,-3.0v7 M-2.5,-0.5L0,-3.0L2.5,-0.5"/>
                </g>
                <g id="arrowLeft" xlink:href="#dirArrow" transform="rotate(270) translate(-36 17)" onmousedown="handlePan(-1,0)">
                  <use xlink:href="#rim" fill="#404040">
                        <set attributeName="fill" to="#808080" begin="arrowLeft.mouseover" end="arrowLeft.mouseout"/>
                  </use>
                  <path fill="none" stroke="white" stroke-width="1.5" d="M0,-3.0v7 M-2.5,-0.5L0,-3.0L2.5,-0.5"/>
                </g>
        </g>
</svg>
