<?xml version="1.0" encoding="UTF-8" standalone="no"?>
<!DOCTYPE svg PUBLIC "-//W3C//DTD SVG 1.1//EN"
 "http://www.w3.org/Graphics/SVG/1.1/DTD/svg11.dtd">
<!-- Generated by graphviz version 2.40.1 (20161225.0304)
 -->
<!-- Title: mfem::CrouzeixRaviartQuadFiniteElement Pages: 1 -->
<svg width="201pt" height="222pt"
 viewBox="0.00 0.00 200.61 222.00" xmlns="http://www.w3.org/2000/svg" xmlns:xlink="http://www.w3.org/1999/xlink">
<g id="graph0" class="graph" transform="scale(1 1) rotate(0) translate(4 218)">
<title>mfem::CrouzeixRaviartQuadFiniteElement</title>
<polygon fill="#ffffff" stroke="transparent" points="-4,4 -4,-218 196.6133,-218 196.6133,4 -4,4"/>
<!-- Node0 -->
<g id="node1" class="node">
<title>Node0</title>
<polygon fill="#bfbfbf" stroke="#000000" points="0,-.5 0,-36.5 192.6133,-36.5 192.6133,-.5 0,-.5"/>
<text text-anchor="start" x="8" y="-21.3" font-family="Helvetica,sans-Serif" font-size="14.00" fill="#000000">mfem::CrouzeixRaviartQuad</text>
<text text-anchor="middle" x="96.3066" y="-7.3" font-family="Helvetica,sans-Serif" font-size="14.00" fill="#000000">FiniteElement</text>
</g>
<!-- Node1 -->
<g id="node2" class="node">
<title>Node1</title>
<g id="a_node2"><a xlink:href="classmfem_1_1NodalFiniteElement.html" target="_top" xlink:title="mfem::NodalFiniteElement">
<polygon fill="#ffffff" stroke="#000000" points="5.8311,-73.5 5.8311,-95.5 186.7822,-95.5 186.7822,-73.5 5.8311,-73.5"/>
<text text-anchor="middle" x="96.3066" y="-80.3" font-family="Helvetica,sans-Serif" font-size="14.00" fill="#000000">mfem::NodalFiniteElement</text>
</a>
</g>
</g>
<!-- Node1&#45;&gt;Node0 -->
<g id="edge1" class="edge">
<title>Node1&#45;&gt;Node0</title>
<path fill="none" stroke="#191970" d="M96.3066,-63.0379C96.3066,-54.5464 96.3066,-44.8888 96.3066,-36.7423"/>
<polygon fill="#191970" stroke="#191970" points="92.8067,-63.304 96.3066,-73.304 99.8067,-63.304 92.8067,-63.304"/>
</g>
<!-- Node2 -->
<g id="node3" class="node">
<title>Node2</title>
<g id="a_node3"><a xlink:href="classmfem_1_1ScalarFiniteElement.html" target="_top" xlink:title="mfem::ScalarFiniteElement">
<polygon fill="#ffffff" stroke="#000000" points="4.2793,-132.5 4.2793,-154.5 188.334,-154.5 188.334,-132.5 4.2793,-132.5"/>
<text text-anchor="middle" x="96.3066" y="-139.3" font-family="Helvetica,sans-Serif" font-size="14.00" fill="#000000">mfem::ScalarFiniteElement</text>
</a>
</g>
</g>
<!-- Node2&#45;&gt;Node1 -->
<g id="edge2" class="edge">
<title>Node2&#45;&gt;Node1</title>
<path fill="none" stroke="#191970" d="M96.3066,-122.198C96.3066,-113.1726 96.3066,-103.0351 96.3066,-95.5477"/>
<polygon fill="#191970" stroke="#191970" points="92.8067,-122.4025 96.3066,-132.4026 99.8067,-122.4026 92.8067,-122.4025"/>
</g>
<!-- Node3 -->
<g id="node4" class="node">
<title>Node3</title>
<g id="a_node4"><a xlink:href="classmfem_1_1FiniteElement.html" target="_top" xlink:title="Abstract class for Finite Elements. ">
<polygon fill="#ffffff" stroke="#000000" points="24.1206,-191.5 24.1206,-213.5 168.4927,-213.5 168.4927,-191.5 24.1206,-191.5"/>
<text text-anchor="middle" x="96.3066" y="-198.3" font-family="Helvetica,sans-Serif" font-size="14.00" fill="#000000">mfem::FiniteElement</text>
</a>
</g>
</g>
<!-- Node3&#45;&gt;Node2 -->
<g id="edge3" class="edge">
<title>Node3&#45;&gt;Node2</title>
<path fill="none" stroke="#191970" d="M96.3066,-181.198C96.3066,-172.1726 96.3066,-162.0351 96.3066,-154.5477"/>
<polygon fill="#191970" stroke="#191970" points="92.8067,-181.4025 96.3066,-191.4026 99.8067,-181.4026 92.8067,-181.4025"/>
</g>
</g>
</svg>
