<?xml version="1.0" encoding="UTF-8" standalone="no"?>
<!DOCTYPE svg PUBLIC "-//W3C//DTD SVG 1.1//EN"
 "http://www.w3.org/Graphics/SVG/1.1/DTD/svg11.dtd">
<!-- Generated by graphviz version 2.30.1 (20140821.0912)
 -->
<!-- Title: mfem::DataCollection Pages: 1 -->
<svg width="1184pt" height="419pt"
 viewBox="0.00 0.00 1184.00 418.65" xmlns="http://www.w3.org/2000/svg" xmlns:xlink="http://www.w3.org/1999/xlink">
<g id="graph0" class="graph" transform="scale(1 1) rotate(0) translate(4 414.645)">
<title>mfem::DataCollection</title>
<polygon fill="white" stroke="white" points="-4,5 -4,-414.645 1181,-414.645 1181,5 -4,5"/>
<!-- Node1 -->
<g id="node1" class="node"><title>Node1</title>
<polygon fill="#bfbfbf" stroke="black" points="1028.5,-88.1451 1028.5,-111.145 1175.5,-111.145 1175.5,-88.1451 1028.5,-88.1451"/>
<text text-anchor="middle" x="1102" y="-95.9451" font-family="Helvetica,sans-Serif" font-size="14.00">mfem::DataCollection</text>
</g>
<!-- Node2 -->
<g id="node2" class="node"><title>Node2</title>
<g id="a_node2"><a xlink:href="classmfem_1_1Mesh.html" target="_top" xlink:title="mfem::Mesh">
<polygon fill="white" stroke="red" points="784.5,-186.145 784.5,-209.145 877.5,-209.145 877.5,-186.145 784.5,-186.145"/>
<text text-anchor="middle" x="831" y="-193.945" font-family="Helvetica,sans-Serif" font-size="14.00">mfem::Mesh</text>
</a>
</g>
</g>
<!-- Node2&#45;&gt;Node1 -->
<g id="edge1" class="edge"><title>Node2&#45;&gt;Node1</title>
<path fill="none" stroke="#9a32cd" stroke-dasharray="5,2" d="M877.424,-182.858C913.542,-170.914 965.256,-153.393 1010,-136.645 1031.56,-128.574 1055.69,-118.726 1073.68,-111.22"/>
<polygon fill="#9a32cd" stroke="#9a32cd" points="876.071,-179.619 867.669,-186.074 878.262,-186.267 876.071,-179.619"/>
<text text-anchor="middle" x="970" y="-168.445" font-family="Helvetica,sans-Serif" font-size="14.00"> mesh</text>
</g>
<!-- Node3 -->
<g id="node3" class="node"><title>Node3</title>
<g id="a_node3"><a xlink:href="classmfem_1_1IsoparametricTransformation.html" target="_top" xlink:title="mfem::IsoparametricTransformation">
<polygon fill="white" stroke="red" points="354.5,-364.145 354.5,-387.145 587.5,-387.145 587.5,-364.145 354.5,-364.145"/>
<text text-anchor="middle" x="471" y="-371.945" font-family="Helvetica,sans-Serif" font-size="14.00">mfem::IsoparametricTransformation</text>
</a>
</g>
</g>
<!-- Node3&#45;&gt;Node2 -->
<g id="edge2" class="edge"><title>Node3&#45;&gt;Node2</title>
<path fill="none" stroke="#9a32cd" stroke-dasharray="5,2" d="M563.41,-362.12C615.837,-351.258 681.128,-332.238 732,-299.645 771.287,-274.475 806.24,-230.481 821.651,-209.469"/>
<polygon fill="#9a32cd" stroke="#9a32cd" points="562.557,-358.721 553.441,-364.119 563.934,-365.584 562.557,-358.721"/>
<text text-anchor="middle" x="669" y="-399.445" font-family="Helvetica,sans-Serif" font-size="14.00"> FaceTransformation</text>
<text text-anchor="middle" x="669" y="-384.445" font-family="Helvetica,sans-Serif" font-size="14.00">Transformation2</text>
<text text-anchor="middle" x="669" y="-369.445" font-family="Helvetica,sans-Serif" font-size="14.00">Transformation</text>
<text text-anchor="middle" x="669" y="-354.445" font-family="Helvetica,sans-Serif" font-size="14.00">EdgeTransformation</text>
</g>
<!-- Node4 -->
<g id="node4" class="node"><title>Node4</title>
<g id="a_node4"><a xlink:href="classmfem_1_1Array.html" target="_top" xlink:title="mfem::Array\&lt; int \&gt;">
<polygon fill="white" stroke="red" points="49,-253.145 49,-276.145 179,-276.145 179,-253.145 49,-253.145"/>
<text text-anchor="middle" x="114" y="-260.945" font-family="Helvetica,sans-Serif" font-size="14.00">mfem::Array&lt; int &gt;</text>
</a>
</g>
</g>
<!-- Node4&#45;&gt;Node2 -->
<g id="edge3" class="edge"><title>Node4&#45;&gt;Node2</title>
<path fill="none" stroke="#9a32cd" stroke-dasharray="5,2" d="M189.399,-268.645C207.886,-269.475 227.66,-270.225 246,-270.645 462.471,-275.6 521.567,-287.658 732,-236.645 758.338,-230.26 786.977,-218.223 806.454,-209.203"/>
<polygon fill="#9a32cd" stroke="#9a32cd" points="189.429,-265.142 179.278,-268.176 189.106,-272.135 189.429,-265.142"/>
<text text-anchor="middle" x="471" y="-323.445" font-family="Helvetica,sans-Serif" font-size="14.00"> attributes</text>
<text text-anchor="middle" x="471" y="-308.445" font-family="Helvetica,sans-Serif" font-size="14.00">be_to_edge</text>
<text text-anchor="middle" x="471" y="-293.445" font-family="Helvetica,sans-Serif" font-size="14.00">be_to_face</text>
<text text-anchor="middle" x="471" y="-278.445" font-family="Helvetica,sans-Serif" font-size="14.00">bdr_attributes</text>
</g>
<!-- Node5 -->
<g id="node5" class="node"><title>Node5</title>
<g id="a_node5"><a xlink:href="classmfem_1_1NCMesh.html" target="_top" xlink:title="A class for non&#45;conforming AMR on higher&#45;order hexahedral, quadrilateral or triangular meshes...">
<polygon fill="white" stroke="red" points="414.5,-218.145 414.5,-241.145 527.5,-241.145 527.5,-218.145 414.5,-218.145"/>
<text text-anchor="middle" x="471" y="-225.945" font-family="Helvetica,sans-Serif" font-size="14.00">mfem::NCMesh</text>
</a>
</g>
</g>
<!-- Node4&#45;&gt;Node5 -->
<g id="edge5" class="edge"><title>Node4&#45;&gt;Node5</title>
<path fill="none" stroke="#9a32cd" stroke-dasharray="5,2" d="M189.378,-257.312C256.504,-250.694 353.754,-241.106 414.361,-235.131"/>
<polygon fill="#9a32cd" stroke="#9a32cd" points="188.896,-253.843 179.288,-258.307 189.583,-260.809 188.896,-253.843"/>
<text text-anchor="middle" x="291" y="-255.445" font-family="Helvetica,sans-Serif" font-size="14.00"> vertex_nodeId</text>
</g>
<!-- Node5&#45;&gt;Node2 -->
<g id="edge4" class="edge"><title>Node5&#45;&gt;Node2</title>
<path fill="none" stroke="#9a32cd" stroke-dasharray="5,2" d="M537.792,-223.764C609.332,-217.37 721.792,-207.317 784.278,-201.732"/>
<polygon fill="#9a32cd" stroke="#9a32cd" points="537.193,-220.304 527.545,-224.68 537.817,-227.276 537.193,-220.304"/>
<text text-anchor="middle" x="669" y="-221.445" font-family="Helvetica,sans-Serif" font-size="14.00"> ncmesh</text>
</g>
<!-- Node6 -->
<g id="node6" class="node"><title>Node6</title>
<g id="a_node6"><a xlink:href="structmfem_1_1CoarseFineTransformations.html" target="_top" xlink:title="Defines the coarse&#45;fine transformations of all fine elements. ">
<polygon fill="white" stroke="red" points="0.5,-197.145 0.5,-220.145 227.5,-220.145 227.5,-197.145 0.5,-197.145"/>
<text text-anchor="middle" x="114" y="-204.945" font-family="Helvetica,sans-Serif" font-size="14.00">mfem::CoarseFineTransformations</text>
</a>
</g>
</g>
<!-- Node6&#45;&gt;Node5 -->
<g id="edge6" class="edge"><title>Node6&#45;&gt;Node5</title>
<path fill="none" stroke="#9a32cd" stroke-dasharray="5,2" d="M238.027,-213.41C269.945,-214.866 304.267,-216.625 336,-218.645 361.741,-220.283 390.226,-222.557 414.291,-224.612"/>
<polygon fill="#9a32cd" stroke="#9a32cd" points="237.903,-209.901 227.756,-212.948 237.588,-216.894 237.903,-209.901"/>
<text text-anchor="middle" x="291" y="-222.445" font-family="Helvetica,sans-Serif" font-size="14.00"> transforms</text>
</g>
<!-- Node6&#45;&gt;Node2 -->
<g id="edge7" class="edge"><title>Node6&#45;&gt;Node2</title>
<path fill="none" stroke="#9a32cd" stroke-dasharray="5,2" d="M238.088,-199.439C275.308,-197.055 316.302,-194.827 354,-193.645 511.975,-188.693 699.575,-193.372 784.369,-196.056"/>
<polygon fill="#9a32cd" stroke="#9a32cd" points="237.448,-195.973 227.696,-200.115 237.903,-202.959 237.448,-195.973"/>
<text text-anchor="middle" x="471" y="-197.445" font-family="Helvetica,sans-Serif" font-size="14.00"> CoarseFineTr</text>
</g>
<!-- Node7 -->
<g id="node7" class="node"><title>Node7</title>
<g id="a_node7"><a xlink:href="classmfem_1_1Array.html" target="_top" xlink:title="mfem::Array\&lt; mfem::\lElement * \&gt;">
<polygon fill="white" stroke="red" points="398,-105.645 398,-143.645 544,-143.645 544,-105.645 398,-105.645"/>
<text text-anchor="start" x="406" y="-128.445" font-family="Helvetica,sans-Serif" font-size="14.00">mfem::Array&lt; mfem::</text>
<text text-anchor="middle" x="471" y="-113.445" font-family="Helvetica,sans-Serif" font-size="14.00">Element * &gt;</text>
</a>
</g>
</g>
<!-- Node7&#45;&gt;Node2 -->
<g id="edge8" class="edge"><title>Node7&#45;&gt;Node2</title>
<path fill="none" stroke="#9a32cd" stroke-dasharray="5,2" d="M554.386,-116.251C619.025,-111.25 702.79,-108.754 732,-125.645 745.792,-133.621 738.443,-145.679 750,-156.645 763.586,-169.536 782.013,-179.35 797.757,-186.14"/>
<polygon fill="#9a32cd" stroke="#9a32cd" points="553.874,-112.78 544.187,-117.072 554.436,-119.758 553.874,-112.78"/>
<text text-anchor="middle" x="669" y="-159.445" font-family="Helvetica,sans-Serif" font-size="14.00"> boundary</text>
<text text-anchor="middle" x="669" y="-144.445" font-family="Helvetica,sans-Serif" font-size="14.00">elements</text>
<text text-anchor="middle" x="669" y="-129.445" font-family="Helvetica,sans-Serif" font-size="14.00">faces</text>
</g>
<!-- Node8 -->
<g id="node8" class="node"><title>Node8</title>
<polygon fill="white" stroke="#bfbfbf" points="750,-109.645 750,-147.645 912,-147.645 912,-109.645 750,-109.645"/>
<text text-anchor="start" x="758" y="-132.445" font-family="Helvetica,sans-Serif" font-size="14.00">std::map&lt; std::string,</text>
<text text-anchor="middle" x="831" y="-117.445" font-family="Helvetica,sans-Serif" font-size="14.00"> QuadratureFunction * &gt;</text>
</g>
<!-- Node8&#45;&gt;Node1 -->
<g id="edge9" class="edge"><title>Node8&#45;&gt;Node1</title>
<path fill="none" stroke="#9a32cd" stroke-dasharray="5,2" d="M922.423,-118.897C956.92,-115.178 995.767,-110.99 1028.4,-107.472"/>
<polygon fill="#9a32cd" stroke="#9a32cd" points="921.912,-115.432 912.344,-119.983 922.662,-122.391 921.912,-115.432"/>
<text text-anchor="middle" x="970" y="-121.445" font-family="Helvetica,sans-Serif" font-size="14.00"> q_field_map</text>
</g>
<!-- Node9 -->
<g id="node9" class="node"><title>Node9</title>
<g id="a_node9"><a xlink:title="STL class. ">
<polygon fill="white" stroke="#bfbfbf" points="433.5,-37.1451 433.5,-60.1451 508.5,-60.1451 508.5,-37.1451 433.5,-37.1451"/>
<text text-anchor="middle" x="471" y="-44.9451" font-family="Helvetica,sans-Serif" font-size="14.00">std::string</text>
</a>
</g>
</g>
<!-- Node9&#45;&gt;Node8 -->
<g id="edge10" class="edge"><title>Node9&#45;&gt;Node8</title>
<path fill="none" stroke="#9a32cd" stroke-dasharray="5,2" d="M518.6,-54.2552C571.033,-61.1327 658.485,-74.3086 732,-93.6451 737.001,-94.9606 757.133,-102.101 777.861,-109.593"/>
<polygon fill="#9a32cd" stroke="#9a32cd" points="518.961,-50.7728 508.595,-52.9638 518.065,-57.7152 518.961,-50.7728"/>
<text text-anchor="middle" x="669" y="-97.4451" font-family="Helvetica,sans-Serif" font-size="14.00"> keys</text>
</g>
<!-- Node10 -->
<g id="node10" class="node"><title>Node10</title>
<polygon fill="white" stroke="#bfbfbf" points="759.5,-52.6451 759.5,-90.6451 902.5,-90.6451 902.5,-52.6451 759.5,-52.6451"/>
<text text-anchor="start" x="767.5" y="-75.4451" font-family="Helvetica,sans-Serif" font-size="14.00">std::map&lt; std::string,</text>
<text text-anchor="middle" x="831" y="-60.4451" font-family="Helvetica,sans-Serif" font-size="14.00"> GridFunction * &gt;</text>
</g>
<!-- Node9&#45;&gt;Node10 -->
<g id="edge12" class="edge"><title>Node9&#45;&gt;Node10</title>
<path fill="none" stroke="#9a32cd" stroke-dasharray="5,2" d="M519.03,-45.775C571.244,-43.2969 657.934,-41.2896 732,-49.6451 740.924,-50.6518 750.223,-52.1438 759.386,-53.8851"/>
<polygon fill="#9a32cd" stroke="#9a32cd" points="518.557,-42.2942 508.744,-46.2906 518.907,-49.2854 518.557,-42.2942"/>
<text text-anchor="middle" x="669" y="-53.4451" font-family="Helvetica,sans-Serif" font-size="14.00"> keys</text>
</g>
<!-- Node9&#45;&gt;Node1 -->
<g id="edge13" class="edge"><title>Node9&#45;&gt;Node1</title>
<path fill="none" stroke="#9a32cd" stroke-dasharray="5,2" d="M518.59,-35.911C599.565,-15.7488 771.098,18.2278 912,-12.6451 978.865,-27.2958 1050.3,-67.928 1082.9,-88.0491"/>
<polygon fill="#9a32cd" stroke="#9a32cd" points="517.54,-32.5664 508.706,-38.4161 519.26,-39.3518 517.54,-32.5664"/>
<text text-anchor="middle" x="831" y="-31.4451" font-family="Helvetica,sans-Serif" font-size="14.00"> name</text>
<text text-anchor="middle" x="831" y="-16.4451" font-family="Helvetica,sans-Serif" font-size="14.00">prefix_path</text>
</g>
<!-- Node10&#45;&gt;Node1 -->
<g id="edge11" class="edge"><title>Node10&#45;&gt;Node1</title>
<path fill="none" stroke="#9a32cd" stroke-dasharray="5,2" d="M912.846,-77.4646C943.335,-79.92 978.301,-83.0483 1010,-86.6451 1015.87,-87.3109 1021.94,-88.0557 1028.03,-88.8429"/>
<polygon fill="#9a32cd" stroke="#9a32cd" points="912.935,-73.9607 902.69,-76.6579 912.381,-80.9387 912.935,-73.9607"/>
<text text-anchor="middle" x="970" y="-90.4451" font-family="Helvetica,sans-Serif" font-size="14.00"> field_map</text>
</g>
</g>
</svg>
