<?xml version="1.0" encoding="UTF-8" standalone="no"?>
<!DOCTYPE svg PUBLIC "-//W3C//DTD SVG 1.1//EN"
 "http://www.w3.org/Graphics/SVG/1.1/DTD/svg11.dtd">
<!-- Generated by graphviz version 2.30.1 (20140821.0912)
 -->
<!-- Title: mfem::MassIntegrator Pages: 1 -->
<svg width="482pt" height="338pt"
 viewBox="0.00 0.00 482.00 338.00" xmlns="http://www.w3.org/2000/svg" xmlns:xlink="http://www.w3.org/1999/xlink">
<g id="graph0" class="graph" transform="scale(1 1) rotate(0) translate(4 334)">
<title>mfem::MassIntegrator</title>
<polygon fill="white" stroke="white" points="-4,5 -4,-334 479,-334 479,5 -4,5"/>
<!-- Node1 -->
<g id="node1" class="node"><title>Node1</title>
<polygon fill="#bfbfbf" stroke="black" points="208,-0.5 208,-23.5 358,-23.5 358,-0.5 208,-0.5"/>
<text text-anchor="middle" x="283" y="-8.3" font-family="Helvetica,sans-Serif" font-size="14.00">mfem::MassIntegrator</text>
</g>
<!-- Node2 -->
<g id="node2" class="node"><title>Node2</title>
<g id="a_node2"><a xlink:href="classmfem_1_1BilinearFormIntegrator.html" target="_top" xlink:title="Abstract base class BilinearFormIntegrator. ">
<polygon fill="white" stroke="black" points="22,-90.5 22,-113.5 216,-113.5 216,-90.5 22,-90.5"/>
<text text-anchor="middle" x="119" y="-98.3" font-family="Helvetica,sans-Serif" font-size="14.00">mfem::BilinearFormIntegrator</text>
</a>
</g>
</g>
<!-- Node2&#45;&gt;Node1 -->
<g id="edge1" class="edge"><title>Node2&#45;&gt;Node1</title>
<path fill="none" stroke="midnightblue" d="M147.982,-85.4486C181.202,-67.6235 234.743,-38.8942 263.403,-23.5155"/>
<polygon fill="midnightblue" stroke="midnightblue" points="145.939,-82.5729 138.782,-90.3851 149.249,-88.741 145.939,-82.5729"/>
</g>
<!-- Node3 -->
<g id="node3" class="node"><title>Node3</title>
<g id="a_node3"><a xlink:href="classmfem_1_1NonlinearFormIntegrator.html" target="_top" xlink:title="mfem::NonlinearFormIntegrator">
<polygon fill="white" stroke="black" points="-0.5,-166.5 -0.5,-189.5 206.5,-189.5 206.5,-166.5 -0.5,-166.5"/>
<text text-anchor="middle" x="103" y="-174.3" font-family="Helvetica,sans-Serif" font-size="14.00">mfem::NonlinearFormIntegrator</text>
</a>
</g>
</g>
<!-- Node3&#45;&gt;Node2 -->
<g id="edge2" class="edge"><title>Node3&#45;&gt;Node2</title>
<path fill="none" stroke="midnightblue" d="M107.481,-156.277C110.484,-142.387 114.314,-124.675 116.712,-113.583"/>
<polygon fill="midnightblue" stroke="midnightblue" points="103.985,-155.884 105.292,-166.398 110.827,-157.363 103.985,-155.884"/>
</g>
<!-- Node4 -->
<g id="node4" class="node"><title>Node4</title>
<g id="a_node4"><a xlink:href="classmfem_1_1IntegrationRule.html" target="_top" xlink:title="Class for an integration rule &#45; an Array of IntegrationPoint. ">
<polygon fill="white" stroke="black" points="224.5,-166.5 224.5,-189.5 375.5,-189.5 375.5,-166.5 224.5,-166.5"/>
<text text-anchor="middle" x="300" y="-174.3" font-family="Helvetica,sans-Serif" font-size="14.00">mfem::IntegrationRule</text>
</a>
</g>
</g>
<!-- Node4&#45;&gt;Node2 -->
<g id="edge3" class="edge"><title>Node4&#45;&gt;Node2</title>
<path fill="none" stroke="#9a32cd" stroke-dasharray="5,2" d="M264.654,-162.549C229.471,-148.165 176.314,-126.432 144.885,-113.583"/>
<polygon fill="#9a32cd" stroke="#9a32cd" points="263.486,-165.853 274.067,-166.398 266.135,-159.374 263.486,-165.853"/>
<text text-anchor="middle" x="249.5" y="-136.3" font-family="Helvetica,sans-Serif" font-size="14.00"> IntRule</text>
</g>
<!-- Node5 -->
<g id="node5" class="node"><title>Node5</title>
<g id="a_node5"><a xlink:href="classmfem_1_1Array.html" target="_top" xlink:title="mfem::Array\&lt; Integration\lPoint \&gt;">
<polygon fill="white" stroke="black" points="216.5,-229 216.5,-267 383.5,-267 383.5,-229 216.5,-229"/>
<text text-anchor="start" x="224.5" y="-251.8" font-family="Helvetica,sans-Serif" font-size="14.00">mfem::Array&lt; Integration</text>
<text text-anchor="middle" x="300" y="-236.8" font-family="Helvetica,sans-Serif" font-size="14.00">Point &gt;</text>
</a>
</g>
</g>
<!-- Node5&#45;&gt;Node4 -->
<g id="edge4" class="edge"><title>Node5&#45;&gt;Node4</title>
<path fill="none" stroke="midnightblue" d="M300,-218.599C300,-208.442 300,-197.6 300,-189.834"/>
<polygon fill="midnightblue" stroke="midnightblue" points="296.5,-218.777 300,-228.777 303.5,-218.777 296.5,-218.777"/>
</g>
<!-- Node6 -->
<g id="node6" class="node"><title>Node6</title>
<g id="a_node6"><a xlink:href="classmfem_1_1BaseArray.html" target="_top" xlink:title="Base class for array container. ">
<polygon fill="white" stroke="black" points="239,-306.5 239,-329.5 361,-329.5 361,-306.5 239,-306.5"/>
<text text-anchor="middle" x="300" y="-314.3" font-family="Helvetica,sans-Serif" font-size="14.00">mfem::BaseArray</text>
</a>
</g>
</g>
<!-- Node6&#45;&gt;Node5 -->
<g id="edge5" class="edge"><title>Node6&#45;&gt;Node5</title>
<path fill="none" stroke="midnightblue" d="M300,-296.098C300,-286.869 300,-276.12 300,-267.223"/>
<polygon fill="midnightblue" stroke="midnightblue" points="296.5,-296.375 300,-306.375 303.5,-296.375 296.5,-296.375"/>
</g>
<!-- Node7 -->
<g id="node7" class="node"><title>Node7</title>
<g id="a_node7"><a xlink:href="classmfem_1_1Vector.html" target="_top" xlink:title="Vector data type. ">
<polygon fill="white" stroke="black" points="234,-90.5 234,-113.5 332,-113.5 332,-90.5 234,-90.5"/>
<text text-anchor="middle" x="283" y="-98.3" font-family="Helvetica,sans-Serif" font-size="14.00">mfem::Vector</text>
</a>
</g>
</g>
<!-- Node7&#45;&gt;Node1 -->
<g id="edge6" class="edge"><title>Node7&#45;&gt;Node1</title>
<path fill="none" stroke="#9a32cd" stroke-dasharray="5,2" d="M283,-79.9639C283,-62.2023 283,-37.5043 283,-23.6039"/>
<polygon fill="#9a32cd" stroke="#9a32cd" points="279.5,-80.2094 283,-90.2095 286.5,-80.2095 279.5,-80.2094"/>
<text text-anchor="middle" x="313" y="-60.8" font-family="Helvetica,sans-Serif" font-size="14.00"> te_shape</text>
<text text-anchor="middle" x="313" y="-45.8" font-family="Helvetica,sans-Serif" font-size="14.00">shape</text>
</g>
<!-- Node8 -->
<g id="node8" class="node"><title>Node8</title>
<g id="a_node8"><a xlink:href="classmfem_1_1Coefficient.html" target="_top" xlink:title="Base class Coefficient that may optionally depend on time. ">
<polygon fill="white" stroke="black" points="350.5,-90.5 350.5,-113.5 473.5,-113.5 473.5,-90.5 350.5,-90.5"/>
<text text-anchor="middle" x="412" y="-98.3" font-family="Helvetica,sans-Serif" font-size="14.00">mfem::Coefficient</text>
</a>
</g>
</g>
<!-- Node8&#45;&gt;Node1 -->
<g id="edge7" class="edge"><title>Node8&#45;&gt;Node1</title>
<path fill="none" stroke="#9a32cd" stroke-dasharray="5,2" d="M395.249,-83.0628C382.799,-70.4469 364.932,-53.7805 347,-42 335.989,-34.7663 322.878,-28.4747 311.398,-23.6177"/>
<polygon fill="#9a32cd" stroke="#9a32cd" points="392.788,-85.5534 402.253,-90.3147 397.823,-80.6903 392.788,-85.5534"/>
<text text-anchor="middle" x="391" y="-53.3" font-family="Helvetica,sans-Serif" font-size="14.00"> Q</text>
</g>
</g>
</svg>
