<?xml version="1.0" encoding="UTF-8" standalone="no"?>
<!DOCTYPE svg PUBLIC "-//W3C//DTD SVG 1.1//EN"
 "http://www.w3.org/Graphics/SVG/1.1/DTD/svg11.dtd">
<!-- Generated by graphviz version 2.30.1 (20170916.1124)
 -->
<!-- Title: mfem::ScalarFiniteElement Pages: 1 -->
<svg width="1128pt" height="188pt"
 viewBox="0.00 0.00 1128.00 188.00" xmlns="http://www.w3.org/2000/svg" xmlns:xlink="http://www.w3.org/1999/xlink">
<g id="graph0" class="graph" transform="scale(1 1) rotate(0) translate(4 184)">
<title>mfem::ScalarFiniteElement</title>
<polygon fill="white" stroke="white" points="-4,5 -4,-184 1125,-184 1125,5 -4,5"/>
<!-- Node1 -->
<g id="node1" class="node"><title>Node1</title>
<polygon fill="#bfbfbf" stroke="black" points="910,-40.5 910,-63.5 1120,-63.5 1120,-40.5 910,-40.5"/>
<text text-anchor="middle" x="1015" y="-48.3" font-family="Helvetica,sans-Serif" font-size="14.00">mfem::ScalarFiniteElement</text>
</g>
<!-- Node2 -->
<g id="node2" class="node"><title>Node2</title>
<g id="a_node2"><a xlink:href="classmfem_1_1FiniteElement.html" target="_top" xlink:title="Abstract class for Finite Elements. ">
<polygon fill="white" stroke="black" points="644,-64.5 644,-87.5 810,-87.5 810,-64.5 644,-64.5"/>
<text text-anchor="middle" x="727" y="-72.3" font-family="Helvetica,sans-Serif" font-size="14.00">mfem::FiniteElement</text>
</a>
</g>
</g>
<!-- Node2&#45;&gt;Node1 -->
<g id="edge1" class="edge"><title>Node2&#45;&gt;Node1</title>
<path fill="none" stroke="midnightblue" d="M820.677,-68.2229C849.137,-65.8346 880.646,-63.1906 909.821,-60.7423"/>
<polygon fill="midnightblue" stroke="midnightblue" points="820.012,-64.7664 810.339,-69.0904 820.597,-71.7418 820.012,-64.7664"/>
</g>
<!-- Node3 -->
<g id="node3" class="node"><title>Node3</title>
<g id="a_node3"><a xlink:href="classmfem_1_1IntegrationRule.html" target="_top" xlink:title="Class for an integration rule &#45; an Array of IntegrationPoint. ">
<polygon fill="white" stroke="black" points="294,-146.5 294,-169.5 472,-169.5 472,-146.5 294,-146.5"/>
<text text-anchor="middle" x="383" y="-154.3" font-family="Helvetica,sans-Serif" font-size="14.00">mfem::IntegrationRule</text>
</a>
</g>
</g>
<!-- Node3&#45;&gt;Node2 -->
<g id="edge2" class="edge"><title>Node3&#45;&gt;Node2</title>
<path fill="none" stroke="#9a32cd" stroke-dasharray="5,2" d="M474.799,-144.884C520.568,-137.323 576.682,-126.602 626,-113 650.983,-106.11 678.548,-95.6898 698.399,-87.6617"/>
<polygon fill="#9a32cd" stroke="#9a32cd" points="474.205,-141.434 464.898,-146.497 475.331,-148.343 474.205,-141.434"/>
<text text-anchor="middle" x="566" y="-142.8" font-family="Helvetica,sans-Serif" font-size="14.00"> Nodes</text>
</g>
<!-- Node4 -->
<g id="node4" class="node"><title>Node4</title>
<g id="a_node4"><a xlink:href="classmfem_1_1Array.html" target="_top" xlink:title="mfem::Array\&lt; Integration\lPoint \&gt;">
<polygon fill="white" stroke="red" points="0.5,-142 0.5,-180 203.5,-180 203.5,-142 0.5,-142"/>
<text text-anchor="start" x="8.5" y="-164.8" font-family="Helvetica,sans-Serif" font-size="14.00">mfem::Array&lt; Integration</text>
<text text-anchor="middle" x="102" y="-149.8" font-family="Helvetica,sans-Serif" font-size="14.00">Point &gt;</text>
</a>
</g>
</g>
<!-- Node4&#45;&gt;Node3 -->
<g id="edge3" class="edge"><title>Node4&#45;&gt;Node3</title>
<path fill="none" stroke="midnightblue" d="M213.839,-159.808C240.436,-159.522 268.485,-159.221 293.89,-158.947"/>
<polygon fill="midnightblue" stroke="midnightblue" points="213.687,-156.31 203.725,-159.917 213.762,-163.309 213.687,-156.31"/>
</g>
<!-- Node5 -->
<g id="node5" class="node"><title>Node5</title>
<g id="a_node5"><a xlink:href="classmfem_1_1Array.html" target="_top" xlink:title="mfem::Array\&lt; mfem::\lDofToQuad * \&gt;">
<polygon fill="white" stroke="black" points="295,-85 295,-123 471,-123 471,-85 295,-85"/>
<text text-anchor="start" x="303" y="-107.8" font-family="Helvetica,sans-Serif" font-size="14.00">mfem::Array&lt; mfem::</text>
<text text-anchor="middle" x="383" y="-92.8" font-family="Helvetica,sans-Serif" font-size="14.00">DofToQuad * &gt;</text>
</a>
</g>
</g>
<!-- Node5&#45;&gt;Node2 -->
<g id="edge4" class="edge"><title>Node5&#45;&gt;Node2</title>
<path fill="none" stroke="#9a32cd" stroke-dasharray="5,2" d="M481.31,-96.0331C532.698,-91.8259 595.065,-86.7198 643.973,-82.7157"/>
<polygon fill="#9a32cd" stroke="#9a32cd" points="480.867,-92.5576 471.186,-96.862 481.438,-99.5342 480.867,-92.5576"/>
<text text-anchor="middle" x="566" y="-97.8" font-family="Helvetica,sans-Serif" font-size="14.00"> dof2quad_array</text>
</g>
<!-- Node6 -->
<g id="node6" class="node"><title>Node6</title>
<g id="a_node6"><a xlink:href="classmfem_1_1Memory.html" target="_top" xlink:title="mfem::Memory\&lt; mfem\l::DofToQuad * \&gt;">
<polygon fill="white" stroke="red" points="9,-85 9,-123 195,-123 195,-85 9,-85"/>
<text text-anchor="start" x="17" y="-107.8" font-family="Helvetica,sans-Serif" font-size="14.00">mfem::Memory&lt; mfem</text>
<text text-anchor="middle" x="102" y="-92.8" font-family="Helvetica,sans-Serif" font-size="14.00">::DofToQuad * &gt;</text>
</a>
</g>
</g>
<!-- Node6&#45;&gt;Node5 -->
<g id="edge5" class="edge"><title>Node6&#45;&gt;Node5</title>
<path fill="none" stroke="#9a32cd" stroke-dasharray="5,2" d="M205.39,-104C234.706,-104 266.38,-104 294.7,-104"/>
<polygon fill="#9a32cd" stroke="#9a32cd" points="205.128,-100.5 195.128,-104 205.128,-107.5 205.128,-100.5"/>
<text text-anchor="middle" x="241" y="-107.8" font-family="Helvetica,sans-Serif" font-size="14.00"> data</text>
</g>
<!-- Node7 -->
<g id="node7" class="node"><title>Node7</title>
<g id="a_node7"><a xlink:href="classmfem_1_1DenseMatrix.html" target="_top" xlink:title="Data type dense matrix using column&#45;major storage. ">
<polygon fill="white" stroke="black" points="304,-42.5 304,-65.5 462,-65.5 462,-42.5 304,-42.5"/>
<text text-anchor="middle" x="383" y="-50.3" font-family="Helvetica,sans-Serif" font-size="14.00">mfem::DenseMatrix</text>
</a>
</g>
</g>
<!-- Node7&#45;&gt;Node2 -->
<g id="edge6" class="edge"><title>Node7&#45;&gt;Node2</title>
<path fill="none" stroke="#9a32cd" stroke-dasharray="5,2" d="M472.237,-55.9904C518.142,-57.4449 575.148,-59.9045 626,-64 631.839,-64.4702 637.862,-65.0229 643.921,-65.6284"/>
<polygon fill="#9a32cd" stroke="#9a32cd" points="472.122,-52.4854 462.019,-55.6774 471.907,-59.4821 472.122,-52.4854"/>
<text text-anchor="middle" x="566" y="-67.8" font-family="Helvetica,sans-Serif" font-size="14.00"> vshape</text>
</g>
<!-- Node8 -->
<g id="node8" class="node"><title>Node8</title>
<g id="a_node8"><a xlink:href="classmfem_1_1Matrix.html" target="_top" xlink:title="Abstract data type matrix. ">
<polygon fill="white" stroke="red" points="45.5,-42.5 45.5,-65.5 158.5,-65.5 158.5,-42.5 45.5,-42.5"/>
<text text-anchor="middle" x="102" y="-50.3" font-family="Helvetica,sans-Serif" font-size="14.00">mfem::Matrix</text>
</a>
</g>
</g>
<!-- Node8&#45;&gt;Node7 -->
<g id="edge7" class="edge"><title>Node8&#45;&gt;Node7</title>
<path fill="none" stroke="midnightblue" d="M168.811,-54C209.264,-54 261.312,-54 303.853,-54"/>
<polygon fill="midnightblue" stroke="midnightblue" points="168.789,-50.5001 158.789,-54 168.789,-57.5001 168.789,-50.5001"/>
</g>
<!-- Node9 -->
<g id="node9" class="node"><title>Node9</title>
<g id="a_node9"><a xlink:href="classmfem_1_1Vector.html" target="_top" xlink:title="Vector data type. ">
<polygon fill="white" stroke="black" points="670,-11.5 670,-34.5 784,-34.5 784,-11.5 670,-11.5"/>
<text text-anchor="middle" x="727" y="-19.3" font-family="Helvetica,sans-Serif" font-size="14.00">mfem::Vector</text>
</a>
</g>
</g>
<!-- Node9&#45;&gt;Node1 -->
<g id="edge8" class="edge"><title>Node9&#45;&gt;Node1</title>
<path fill="none" stroke="#9a32cd" stroke-dasharray="5,2" d="M794.523,-29.7453C828.809,-33.2219 871.405,-37.541 909.923,-41.4467"/>
<polygon fill="#9a32cd" stroke="#9a32cd" points="794.465,-26.2216 784.163,-28.6949 793.759,-33.1859 794.465,-26.2216"/>
<text text-anchor="middle" x="860" y="-43.8" font-family="Helvetica,sans-Serif" font-size="14.00"> c_shape</text>
</g>
<!-- Node10 -->
<g id="node10" class="node"><title>Node10</title>
<g id="a_node10"><a xlink:href="classmfem_1_1Memory.html" target="_top" xlink:title="mfem::Memory\&lt; double \&gt;">
<polygon fill="white" stroke="black" points="278.5,-0.5 278.5,-23.5 487.5,-23.5 487.5,-0.5 278.5,-0.5"/>
<text text-anchor="middle" x="383" y="-8.3" font-family="Helvetica,sans-Serif" font-size="14.00">mfem::Memory&lt; double &gt;</text>
</a>
</g>
</g>
<!-- Node10&#45;&gt;Node9 -->
<g id="edge9" class="edge"><title>Node10&#45;&gt;Node9</title>
<path fill="none" stroke="#9a32cd" stroke-dasharray="5,2" d="M497.849,-15.6618C555.712,-17.5229 623.441,-19.7013 669.988,-21.1984"/>
<polygon fill="#9a32cd" stroke="#9a32cd" points="497.647,-12.1536 487.539,-15.3302 497.422,-19.15 497.647,-12.1536"/>
<text text-anchor="middle" x="566" y="-23.8" font-family="Helvetica,sans-Serif" font-size="14.00"> data</text>
</g>
</g>
</svg>
