<?xml version="1.0" encoding="UTF-8" standalone="no"?>
<!DOCTYPE svg PUBLIC "-//W3C//DTD SVG 1.1//EN"
 "http://www.w3.org/Graphics/SVG/1.1/DTD/svg11.dtd">
<!-- Generated by graphviz version 2.30.1 (20170916.1124)
 -->
<!-- Title: mfem::ParNCMesh::ElementSet Pages: 1 -->
<svg width="1424pt" height="439pt"
 viewBox="0.00 0.00 1424.00 438.58" xmlns="http://www.w3.org/2000/svg" xmlns:xlink="http://www.w3.org/1999/xlink">
<g id="graph0" class="graph" transform="scale(1 1) rotate(0) translate(4 434.582)">
<title>mfem::ParNCMesh::ElementSet</title>
<polygon fill="white" stroke="white" points="-4,5 -4,-434.582 1421,-434.582 1421,5 -4,5"/>
<!-- Node1 -->
<g id="node1" class="node"><title>Node1</title>
<polygon fill="#bfbfbf" stroke="black" points="1176,-158.082 1176,-181.082 1416,-181.082 1416,-158.082 1176,-158.082"/>
<text text-anchor="middle" x="1296" y="-165.882" font-family="Helvetica,sans-Serif" font-size="14.00">mfem::ParNCMesh::ElementSet</text>
</g>
<!-- Node2 -->
<g id="node2" class="node"><title>Node2</title>
<g id="a_node2"><a xlink:href="classmfem_1_1Array.html" target="_top" xlink:title="mfem::Array\&lt; unsigned\l char \&gt;">
<polygon fill="white" stroke="black" points="888.5,-295.582 888.5,-333.582 1077.5,-333.582 1077.5,-295.582 888.5,-295.582"/>
<text text-anchor="start" x="896.5" y="-318.382" font-family="Helvetica,sans-Serif" font-size="14.00">mfem::Array&lt; unsigned</text>
<text text-anchor="middle" x="983" y="-303.382" font-family="Helvetica,sans-Serif" font-size="14.00"> char &gt;</text>
</a>
</g>
</g>
<!-- Node2&#45;&gt;Node1 -->
<g id="edge1" class="edge"><title>Node2&#45;&gt;Node1</title>
<path fill="none" stroke="#9a32cd" stroke-dasharray="5,2" d="M1034.16,-291.196C1101.66,-259.725 1219.14,-204.951 1270.16,-181.162"/>
<polygon fill="#9a32cd" stroke="#9a32cd" points="1032.56,-288.079 1024.98,-295.477 1035.52,-294.423 1032.56,-288.079"/>
<text text-anchor="middle" x="1127" y="-263.382" font-family="Helvetica,sans-Serif" font-size="14.00"> data</text>
</g>
<!-- Node3 -->
<g id="node3" class="node"><title>Node3</title>
<g id="a_node3"><a xlink:href="classmfem_1_1Memory.html" target="_top" xlink:title="mfem::Memory\&lt; unsigned\l char \&gt;">
<polygon fill="white" stroke="black" points="531.5,-391.582 531.5,-429.582 740.5,-429.582 740.5,-391.582 531.5,-391.582"/>
<text text-anchor="start" x="539.5" y="-414.382" font-family="Helvetica,sans-Serif" font-size="14.00">mfem::Memory&lt; unsigned</text>
<text text-anchor="middle" x="636" y="-399.382" font-family="Helvetica,sans-Serif" font-size="14.00"> char &gt;</text>
</a>
</g>
</g>
<!-- Node3&#45;&gt;Node2 -->
<g id="edge2" class="edge"><title>Node3&#45;&gt;Node2</title>
<path fill="none" stroke="#9a32cd" stroke-dasharray="5,2" d="M721.919,-388.913C737.276,-384.888 753.131,-380.665 768,-376.582 818.542,-362.704 875.533,-346.148 917.988,-333.636"/>
<polygon fill="#9a32cd" stroke="#9a32cd" points="720.705,-385.612 711.914,-391.525 722.474,-392.385 720.705,-385.612"/>
<text text-anchor="middle" x="828" y="-374.382" font-family="Helvetica,sans-Serif" font-size="14.00"> data</text>
</g>
<!-- Node4 -->
<g id="node4" class="node"><title>Node4</title>
<g id="a_node4"><a xlink:href="classmfem_1_1Array.html" target="_top" xlink:title="mfem::Array\&lt; int \&gt;">
<polygon fill="white" stroke="black" points="252,-215.082 252,-238.082 410,-238.082 410,-215.082 252,-215.082"/>
<text text-anchor="middle" x="331" y="-222.882" font-family="Helvetica,sans-Serif" font-size="14.00">mfem::Array&lt; int &gt;</text>
</a>
</g>
</g>
<!-- Node4&#45;&gt;Node1 -->
<g id="edge3" class="edge"><title>Node4&#45;&gt;Node1</title>
<path fill="none" stroke="#9a32cd" stroke-dasharray="5,2" d="M343.167,-206.107C366.636,-165.512 425.464,-75.7998 504,-41.5819 789.356,82.7476 1180.15,-108.038 1274.09,-158.08"/>
<polygon fill="#9a32cd" stroke="#9a32cd" points="340.087,-204.441 338.212,-214.869 346.181,-207.887 340.087,-204.441"/>
<text text-anchor="middle" x="828" y="-18.3819" font-family="Helvetica,sans-Serif" font-size="14.00"> ref_path</text>
</g>
<!-- Node6 -->
<g id="node6" class="node"><title>Node6</title>
<g id="a_node6"><a xlink:href="classmfem_1_1NCMesh.html" target="_top" xlink:title="A class for non&#45;conforming AMR on higher&#45;order hexahedral, prismatic, quadrilateral or triangular mes...">
<polygon fill="white" stroke="red" points="920,-158.082 920,-181.082 1046,-181.082 1046,-158.082 920,-158.082"/>
<text text-anchor="middle" x="983" y="-165.882" font-family="Helvetica,sans-Serif" font-size="14.00">mfem::NCMesh</text>
</a>
</g>
</g>
<!-- Node4&#45;&gt;Node6 -->
<g id="edge8" class="edge"><title>Node4&#45;&gt;Node6</title>
<path fill="none" stroke="#9a32cd" stroke-dasharray="5,2" d="M386.573,-240.35C486.3,-262.784 703.075,-298.821 870,-236.582 907.153,-222.729 945.849,-196.507 966.616,-181.299"/>
<polygon fill="#9a32cd" stroke="#9a32cd" points="387.248,-236.914 376.719,-238.092 385.684,-243.737 387.248,-236.914"/>
<text text-anchor="middle" x="636" y="-350.382" font-family="Helvetica,sans-Serif" font-size="14.00"> vertex_nodeId</text>
<text text-anchor="middle" x="636" y="-335.382" font-family="Helvetica,sans-Serif" font-size="14.00">coarse_elements</text>
<text text-anchor="middle" x="636" y="-320.382" font-family="Helvetica,sans-Serif" font-size="14.00">root_state</text>
<text text-anchor="middle" x="636" y="-305.382" font-family="Helvetica,sans-Serif" font-size="14.00">leaf_elements</text>
<text text-anchor="middle" x="636" y="-290.382" font-family="Helvetica,sans-Serif" font-size="14.00">boundary_faces</text>
<text text-anchor="middle" x="636" y="-275.382" font-family="Helvetica,sans-Serif" font-size="14.00">free_element_ids</text>
</g>
<!-- Node9 -->
<g id="node9" class="node"><title>Node9</title>
<g id="a_node9"><a xlink:href="classmfem_1_1HashTable.html" target="_top" xlink:title="mfem::HashTable\&lt; mfem\l::NCMesh::Node \&gt;">
<polygon fill="white" stroke="red" points="535.5,-207.582 535.5,-245.582 736.5,-245.582 736.5,-207.582 535.5,-207.582"/>
<text text-anchor="start" x="543.5" y="-230.382" font-family="Helvetica,sans-Serif" font-size="14.00">mfem::HashTable&lt; mfem</text>
<text text-anchor="middle" x="636" y="-215.382" font-family="Helvetica,sans-Serif" font-size="14.00">::NCMesh::Node &gt;</text>
</a>
</g>
</g>
<!-- Node4&#45;&gt;Node9 -->
<g id="edge10" class="edge"><title>Node4&#45;&gt;Node9</title>
<path fill="none" stroke="#9a32cd" stroke-dasharray="5,2" d="M420.059,-226.582C456.198,-226.582 498.216,-226.582 535.465,-226.582"/>
<polygon fill="#9a32cd" stroke="#9a32cd" points="420.03,-223.082 410.03,-226.582 420.03,-230.082 420.03,-223.082"/>
<text text-anchor="middle" x="457" y="-230.382" font-family="Helvetica,sans-Serif" font-size="14.00"> unused</text>
</g>
<!-- Node5 -->
<g id="node5" class="node"><title>Node5</title>
<g id="a_node5"><a xlink:href="classmfem_1_1Memory.html" target="_top" xlink:title="mfem::Memory\&lt; int \&gt;">
<polygon fill="white" stroke="black" points="0,-215.082 0,-238.082 178,-238.082 178,-215.082 0,-215.082"/>
<text text-anchor="middle" x="89" y="-222.882" font-family="Helvetica,sans-Serif" font-size="14.00">mfem::Memory&lt; int &gt;</text>
</a>
</g>
</g>
<!-- Node5&#45;&gt;Node4 -->
<g id="edge4" class="edge"><title>Node5&#45;&gt;Node4</title>
<path fill="none" stroke="#9a32cd" stroke-dasharray="5,2" d="M188.03,-226.582C209.306,-226.582 231.536,-226.582 251.921,-226.582"/>
<polygon fill="#9a32cd" stroke="#9a32cd" points="188.004,-223.082 178.004,-226.582 188.004,-230.082 188.004,-223.082"/>
<text text-anchor="middle" x="215" y="-230.382" font-family="Helvetica,sans-Serif" font-size="14.00"> data</text>
</g>
<!-- Node6&#45;&gt;Node1 -->
<g id="edge5" class="edge"><title>Node6&#45;&gt;Node1</title>
<path fill="none" stroke="#9a32cd" stroke-dasharray="5,2" d="M1056.46,-169.582C1091.99,-169.582 1135.7,-169.582 1175.96,-169.582"/>
<polygon fill="#9a32cd" stroke="#9a32cd" points="1056.19,-166.082 1046.19,-169.582 1056.19,-173.082 1056.19,-166.082"/>
<text text-anchor="middle" x="1127" y="-173.382" font-family="Helvetica,sans-Serif" font-size="14.00"> ncmesh</text>
</g>
<!-- Node7 -->
<g id="node7" class="node"><title>Node7</title>
<g id="a_node7"><a xlink:href="classmfem_1_1Array.html" target="_top" xlink:title="mfem::Array\&lt; mfem::\lTriple\&lt; int, int, int \&gt; \&gt;">
<polygon fill="white" stroke="red" points="548,-150.582 548,-188.582 724,-188.582 724,-150.582 548,-150.582"/>
<text text-anchor="start" x="556" y="-173.382" font-family="Helvetica,sans-Serif" font-size="14.00">mfem::Array&lt; mfem::</text>
<text text-anchor="middle" x="636" y="-158.382" font-family="Helvetica,sans-Serif" font-size="14.00">Triple&lt; int, int, int &gt; &gt;</text>
</a>
</g>
</g>
<!-- Node7&#45;&gt;Node6 -->
<g id="edge6" class="edge"><title>Node7&#45;&gt;Node6</title>
<path fill="none" stroke="#9a32cd" stroke-dasharray="5,2" d="M734.244,-169.582C793.837,-169.582 868.334,-169.582 919.997,-169.582"/>
<polygon fill="#9a32cd" stroke="#9a32cd" points="734.058,-166.082 724.058,-169.582 734.058,-173.082 734.058,-166.082"/>
<text text-anchor="middle" x="828" y="-173.382" font-family="Helvetica,sans-Serif" font-size="14.00"> reparents</text>
</g>
<!-- Node8 -->
<g id="node8" class="node"><title>Node8</title>
<g id="a_node8"><a xlink:href="classmfem_1_1Array.html" target="_top" xlink:title="mfem::Array\&lt; mfem::\lRefinement \&gt;">
<polygon fill="white" stroke="red" points="548,-93.5819 548,-131.582 724,-131.582 724,-93.5819 548,-93.5819"/>
<text text-anchor="start" x="556" y="-116.382" font-family="Helvetica,sans-Serif" font-size="14.00">mfem::Array&lt; mfem::</text>
<text text-anchor="middle" x="636" y="-101.382" font-family="Helvetica,sans-Serif" font-size="14.00">Refinement &gt;</text>
</a>
</g>
</g>
<!-- Node8&#45;&gt;Node6 -->
<g id="edge7" class="edge"><title>Node8&#45;&gt;Node6</title>
<path fill="none" stroke="#9a32cd" stroke-dasharray="5,2" d="M734.062,-128.27C775.896,-135.068 825.365,-143.156 870,-150.582 886.148,-153.268 903.598,-156.21 919.808,-158.959"/>
<polygon fill="#9a32cd" stroke="#9a32cd" points="734.587,-124.809 724.155,-126.661 733.464,-131.719 734.587,-124.809"/>
<text text-anchor="middle" x="828" y="-154.382" font-family="Helvetica,sans-Serif" font-size="14.00"> ref_stack</text>
</g>
<!-- Node9&#45;&gt;Node6 -->
<g id="edge9" class="edge"><title>Node9&#45;&gt;Node6</title>
<path fill="none" stroke="#9a32cd" stroke-dasharray="5,2" d="M746.816,-208.82C785.732,-202.486 829.825,-195.266 870,-188.582 886.148,-185.895 903.598,-182.954 919.808,-180.205"/>
<polygon fill="#9a32cd" stroke="#9a32cd" points="745.823,-205.435 736.514,-210.495 746.947,-212.344 745.823,-205.435"/>
<text text-anchor="middle" x="828" y="-221.382" font-family="Helvetica,sans-Serif" font-size="14.00"> shadow</text>
<text text-anchor="middle" x="828" y="-206.382" font-family="Helvetica,sans-Serif" font-size="14.00">nodes</text>
</g>
<!-- Node10 -->
<g id="node10" class="node"><title>Node10</title>
<g id="a_node10"><a xlink:href="structmfem_1_1CoarseFineTransformations.html" target="_top" xlink:title="Defines the coarse&#45;fine transformations of all fine elements. ">
<polygon fill="white" stroke="red" points="504,-51.0819 504,-74.0819 768,-74.0819 768,-51.0819 504,-51.0819"/>
<text text-anchor="middle" x="636" y="-58.8819" font-family="Helvetica,sans-Serif" font-size="14.00">mfem::CoarseFineTransformations</text>
</a>
</g>
</g>
<!-- Node10&#45;&gt;Node6 -->
<g id="edge11" class="edge"><title>Node10&#45;&gt;Node6</title>
<path fill="none" stroke="#9a32cd" stroke-dasharray="5,2" d="M732.428,-75.9149C744.467,-78.1724 756.565,-80.7258 768,-83.5819 814.5,-95.1955 825.472,-100.852 870,-118.582 900.966,-130.911 935.782,-147.153 958.257,-157.96"/>
<polygon fill="#9a32cd" stroke="#9a32cd" points="732.809,-72.427 722.345,-74.088 731.561,-79.3149 732.809,-72.427"/>
<text text-anchor="middle" x="828" y="-122.382" font-family="Helvetica,sans-Serif" font-size="14.00"> transforms</text>
</g>
</g>
</svg>
