<?xml version="1.0" encoding="UTF-8" standalone="no"?>
<!DOCTYPE svg PUBLIC "-//W3C//DTD SVG 1.1//EN"
 "http://www.w3.org/Graphics/SVG/1.1/DTD/svg11.dtd">
<!-- Generated by graphviz version 2.40.1 (20161225.0304)
 -->
<!-- Title: mfem::MixedBilinearForm Pages: 1 -->
<svg width="530pt" height="413pt"
 viewBox="0.00 0.00 530.49 413.00" xmlns="http://www.w3.org/2000/svg" xmlns:xlink="http://www.w3.org/1999/xlink">
<g id="graph0" class="graph" transform="scale(1 1) rotate(0) translate(4 409)">
<title>mfem::MixedBilinearForm</title>
<polygon fill="#ffffff" stroke="transparent" points="-4,4 -4,-409 526.4893,-409 526.4893,4 -4,4"/>
<!-- Node0 -->
<g id="node1" class="node">
<title>Node0</title>
<polygon fill="#bfbfbf" stroke="#000000" points="226.1206,-264.5 226.1206,-286.5 401.5962,-286.5 401.5962,-264.5 226.1206,-264.5"/>
<text text-anchor="middle" x="313.8584" y="-271.3" font-family="Helvetica,sans-Serif" font-size="14.00" fill="#000000">mfem::MixedBilinearForm</text>
</g>
<!-- Node3 -->
<g id="node4" class="node">
<title>Node3</title>
<g id="a_node4"><a xlink:href="classmfem_1_1DiscreteLinearOperator.html" target="_top" xlink:title="mfem::DiscreteLinearOperator">
<polygon fill="#ffffff" stroke="#000000" points="102.7139,-205.5 102.7139,-227.5 307.0029,-227.5 307.0029,-205.5 102.7139,-205.5"/>
<text text-anchor="middle" x="204.8584" y="-212.3" font-family="Helvetica,sans-Serif" font-size="14.00" fill="#000000">mfem::DiscreteLinearOperator</text>
</a>
</g>
</g>
<!-- Node0&#45;&gt;Node3 -->
<g id="edge3" class="edge">
<title>Node0&#45;&gt;Node3</title>
<path fill="none" stroke="#191970" d="M284.36,-259.533C265.647,-249.4039 241.9134,-236.5573 225.2685,-227.5477"/>
<polygon fill="#191970" stroke="#191970" points="282.8959,-262.7203 293.3563,-264.4026 286.2281,-256.5642 282.8959,-262.7203"/>
</g>
<!-- Node9 -->
<g id="node9" class="node">
<title>Node9</title>
<g id="a_node9"><a xlink:href="classmfem_1_1ParMixedBilinearForm.html" target="_top" xlink:title="Class for parallel bilinear form using different test and trial FE spaces. ">
<polygon fill="#ffffff" stroke="#000000" points="325.2275,-205.5 325.2275,-227.5 522.4893,-227.5 522.4893,-205.5 325.2275,-205.5"/>
<text text-anchor="middle" x="423.8584" y="-212.3" font-family="Helvetica,sans-Serif" font-size="14.00" fill="#000000">mfem::ParMixedBilinearForm</text>
</a>
</g>
</g>
<!-- Node0&#45;&gt;Node9 -->
<g id="edge8" class="edge">
<title>Node0&#45;&gt;Node9</title>
<path fill="none" stroke="#191970" d="M343.3691,-259.6715C362.2933,-249.5213 386.3867,-236.5984 403.261,-227.5477"/>
<polygon fill="#191970" stroke="#191970" points="341.7066,-256.5915 334.5486,-264.4026 345.0153,-262.7602 341.7066,-256.5915"/>
</g>
<!-- Node1 -->
<g id="node2" class="node">
<title>Node1</title>
<g id="a_node2"><a xlink:href="classmfem_1_1Matrix.html" target="_top" xlink:title="Abstract data type matrix. ">
<polygon fill="#ffffff" stroke="#000000" points="265.4136,-323.5 265.4136,-345.5 362.3032,-345.5 362.3032,-323.5 265.4136,-323.5"/>
<text text-anchor="middle" x="313.8584" y="-330.3" font-family="Helvetica,sans-Serif" font-size="14.00" fill="#000000">mfem::Matrix</text>
</a>
</g>
</g>
<!-- Node1&#45;&gt;Node0 -->
<g id="edge1" class="edge">
<title>Node1&#45;&gt;Node0</title>
<path fill="none" stroke="#191970" d="M313.8584,-313.198C313.8584,-304.1726 313.8584,-294.0351 313.8584,-286.5477"/>
<polygon fill="#191970" stroke="#191970" points="310.3585,-313.4025 313.8584,-323.4026 317.3585,-313.4026 310.3585,-313.4025"/>
</g>
<!-- Node2 -->
<g id="node3" class="node">
<title>Node2</title>
<g id="a_node3"><a xlink:href="classmfem_1_1Operator.html" target="_top" xlink:title="Abstract operator. ">
<polygon fill="#ffffff" stroke="#000000" points="256.8447,-382.5 256.8447,-404.5 370.8721,-404.5 370.8721,-382.5 256.8447,-382.5"/>
<text text-anchor="middle" x="313.8584" y="-389.3" font-family="Helvetica,sans-Serif" font-size="14.00" fill="#000000">mfem::Operator</text>
</a>
</g>
</g>
<!-- Node2&#45;&gt;Node1 -->
<g id="edge2" class="edge">
<title>Node2&#45;&gt;Node1</title>
<path fill="none" stroke="#191970" d="M313.8584,-372.198C313.8584,-363.1726 313.8584,-353.0351 313.8584,-345.5477"/>
<polygon fill="#191970" stroke="#191970" points="310.3585,-372.4025 313.8584,-382.4026 317.3585,-372.4026 310.3585,-372.4025"/>
</g>
<!-- Node4 -->
<g id="node5" class="node">
<title>Node4</title>
<g id="a_node5"><a xlink:href="classmfem_1_1ParDiscreteLinearOperator.html" target="_top" xlink:title="mfem::ParDiscreteLinearOperator">
<polygon fill="#ffffff" stroke="#000000" points="91.8208,-146.5 91.8208,-168.5 317.896,-168.5 317.896,-146.5 91.8208,-146.5"/>
<text text-anchor="middle" x="204.8584" y="-153.3" font-family="Helvetica,sans-Serif" font-size="14.00" fill="#000000">mfem::ParDiscreteLinearOperator</text>
</a>
</g>
</g>
<!-- Node3&#45;&gt;Node4 -->
<g id="edge4" class="edge">
<title>Node3&#45;&gt;Node4</title>
<path fill="none" stroke="#191970" d="M204.8584,-195.198C204.8584,-186.1726 204.8584,-176.0351 204.8584,-168.5477"/>
<polygon fill="#191970" stroke="#191970" points="201.3585,-195.4025 204.8584,-205.4026 208.3585,-195.4026 201.3585,-195.4025"/>
</g>
<!-- Node5 -->
<g id="node6" class="node">
<title>Node5</title>
<g id="a_node6"><a xlink:href="classmfem_1_1miniapps_1_1ParDiscreteInterpolationOperator.html" target="_top" xlink:title="mfem::miniapps::ParDiscrete\lInterpolationOperator">
<polygon fill="#ffffff" stroke="#ff0000" points="107,-73.5 107,-109.5 302.7168,-109.5 302.7168,-73.5 107,-73.5"/>
<text text-anchor="start" x="115" y="-94.3" font-family="Helvetica,sans-Serif" font-size="14.00" fill="#000000">mfem::miniapps::ParDiscrete</text>
<text text-anchor="middle" x="204.8584" y="-80.3" font-family="Helvetica,sans-Serif" font-size="14.00" fill="#000000">InterpolationOperator</text>
</a>
</g>
</g>
<!-- Node4&#45;&gt;Node5 -->
<g id="edge5" class="edge">
<title>Node4&#45;&gt;Node5</title>
<path fill="none" stroke="#191970" d="M204.8584,-136.0379C204.8584,-127.5464 204.8584,-117.8888 204.8584,-109.7423"/>
<polygon fill="#191970" stroke="#191970" points="201.3585,-136.304 204.8584,-146.304 208.3585,-136.304 201.3585,-136.304"/>
</g>
<!-- Node6 -->
<g id="node7" class="node">
<title>Node6</title>
<g id="a_node7"><a xlink:href="classmfem_1_1miniapps_1_1ParDiscreteCurlOperator.html" target="_top" xlink:title="mfem::miniapps::ParDiscrete\lCurlOperator">
<polygon fill="#ffffff" stroke="#000000" points="0,-.5 0,-36.5 195.7168,-36.5 195.7168,-.5 0,-.5"/>
<text text-anchor="start" x="8" y="-21.3" font-family="Helvetica,sans-Serif" font-size="14.00" fill="#000000">mfem::miniapps::ParDiscrete</text>
<text text-anchor="middle" x="97.8584" y="-7.3" font-family="Helvetica,sans-Serif" font-size="14.00" fill="#000000">CurlOperator</text>
</a>
</g>
</g>
<!-- Node5&#45;&gt;Node6 -->
<g id="edge6" class="edge">
<title>Node5&#45;&gt;Node6</title>
<path fill="none" stroke="#191970" d="M169.9732,-67.6998C155.1487,-57.5859 138.1458,-45.9858 124.3744,-36.5904"/>
<polygon fill="#191970" stroke="#191970" points="168.1758,-70.7105 178.409,-73.4551 172.1208,-64.928 168.1758,-70.7105"/>
</g>
<!-- Node7 -->
<g id="node8" class="node">
<title>Node7</title>
<g id="a_node8"><a xlink:href="classmfem_1_1miniapps_1_1ParDiscreteDivOperator.html" target="_top" xlink:title="mfem::miniapps::ParDiscrete\lDivOperator">
<polygon fill="#ffffff" stroke="#000000" points="214,-.5 214,-36.5 409.7168,-36.5 409.7168,-.5 214,-.5"/>
<text text-anchor="start" x="222" y="-21.3" font-family="Helvetica,sans-Serif" font-size="14.00" fill="#000000">mfem::miniapps::ParDiscrete</text>
<text text-anchor="middle" x="311.8584" y="-7.3" font-family="Helvetica,sans-Serif" font-size="14.00" fill="#000000">DivOperator</text>
</a>
</g>
</g>
<!-- Node5&#45;&gt;Node7 -->
<g id="edge7" class="edge">
<title>Node5&#45;&gt;Node7</title>
<path fill="none" stroke="#191970" d="M239.7436,-67.6998C254.5681,-57.5859 271.571,-45.9858 285.3424,-36.5904"/>
<polygon fill="#191970" stroke="#191970" points="237.596,-64.928 231.3078,-73.4551 241.541,-70.7105 237.596,-64.928"/>
</g>
</g>
</svg>
