<?xml version="1.0" encoding="UTF-8" standalone="no"?>
<!DOCTYPE svg PUBLIC "-//W3C//DTD SVG 1.1//EN"
 "http://www.w3.org/Graphics/SVG/1.1/DTD/svg11.dtd">
<!-- Generated by graphviz version 2.26.3 (20100126.1600)
 -->
<!-- Title: G Pages: 1 -->
<!--zoomable 1000 -->
<svg id="main" version="1.1" xmlns="http://www.w3.org/2000/svg" xmlns:xlink="http://www.w3.org/1999/xlink" xml:space="preserve" onload="init(evt)">
        <defs>
                <circle id="rim" cx="0" cy="0" r="7"/>
                <circle id="rim2" cx="0" cy="0" r="3.5"/>
                <g id="zoomPlus">
                        <use xlink:href="#rim" fill="#404040">
                                <set attributeName="fill" to="#808080" begin="zoomplus.mouseover" end="zoomplus.mouseout"/>
                        </use>
                        <path d="M-4,0h8M0,-4v8" fill="none" stroke="white" stroke-width="1.5" pointer-events="none"/>
                </g>
                <g id="zoomMin">
                        <use xlink:href="#rim" fill="#404040">
                                <set attributeName="fill" to="#808080" begin="zoomminus.mouseover" end="zoomminus.mouseout"/>
                        </use>
                        <path d="M-4,0h8" fill="none" stroke="white" stroke-width="1.5" pointer-events="none"/>
                </g>
                <g id="dirArrow">
                        <path fill="none" stroke="white" stroke-width="1.5" d="M0,-3.0v7 M-2.5,-0.5L0,-3.0L2.5,-0.5"/>
                </g>
               <g id="resetDef">
                       <use xlink:href="#rim2" fill="#404040">
                               <set attributeName="fill" to="#808080" begin="reset.mouseover" end="reset.mouseout"/>
                       </use>
               </g>
        </defs>

<script type="text/javascript">
var viewWidth = 2182;
var viewHeight = 1000;
var sectionId = 'dynsection-1';
</script>
<script xlink:href="svgpan.js"/>
<svg id="graph" class="graph">
<g id="viewport">
<title>G</title>
<polygon fill="white" stroke="white" points="-4,5 -4,-996 2179,-996 2179,5 -4,5"/>
<!-- Node1 -->
<g id="node1" class="node"><title>Node1</title>
<polygon fill="#bfbfbf" stroke="black" points="2100.5,-115.5 2100.5,-134.5 2173.5,-134.5 2173.5,-115.5 2100.5,-115.5"/>
<text text-anchor="middle" x="2137" y="-121.5" font-family="FreeSans" font-size="10.00">BilinearForm</text>
</g>
<!-- Node2 -->
<g id="node2" class="node"><title>Node2</title>
<a xlink:href="classMatrix.html" target="_top" xlink:title="Abstract data type matrix.">
<polygon fill="white" stroke="black" points="186,-77.5 186,-96.5 230,-96.5 230,-77.5 186,-77.5"/>
<text text-anchor="middle" x="208" y="-83.5" font-family="FreeSans" font-size="10.00">Matrix</text>
</a>
</g>
<!-- Node2&#45;&gt;Node1 -->
<g id="edge2" class="edge"><title>Node2&#45;&gt;Node1</title>
<path fill="none" stroke="midnightblue" d="M240.703,-87C275.305,-87 331.499,-87 380,-87 380,-87 380,-87 1993,-87 2037.47,-87 2087.19,-104.154 2115.03,-115.411"/>
<polygon fill="midnightblue" stroke="midnightblue" points="240.265,-83.5001 230.265,-87 240.265,-90.5001 240.265,-83.5001"/>
</g>
<!-- Node7 -->
<g id="node12" class="node"><title>Node7</title>
<a xlink:href="classDenseMatrix.html" target="_top" xlink:title="Data type dense matrix.">
<polygon fill="white" stroke="black" points="343.5,-39.5 343.5,-58.5 416.5,-58.5 416.5,-39.5 343.5,-39.5"/>
<text text-anchor="middle" x="380" y="-45.5" font-family="FreeSans" font-size="10.00">DenseMatrix</text>
</a>
</g>
<!-- Node2&#45;&gt;Node7 -->
<g id="edge14" class="edge"><title>Node2&#45;&gt;Node7</title>
<path fill="none" stroke="midnightblue" d="M239.99,-79.4225C249.038,-77.31 258.899,-75.0367 268,-73 293.131,-67.376 321.496,-61.3005 343.393,-56.6694"/>
<polygon fill="midnightblue" stroke="midnightblue" points="239.14,-76.0267 230.203,-81.718 240.738,-82.8417 239.14,-76.0267"/>
</g>
<!-- Node31 -->
<g id="node86" class="node"><title>Node31</title>
<a xlink:href="classSparseMatrix.html" target="_top" xlink:title="Data type sparse matrix.">
<polygon fill="white" stroke="black" points="342,-115.5 342,-134.5 418,-134.5 418,-115.5 342,-115.5"/>
<text text-anchor="middle" x="380" y="-121.5" font-family="FreeSans" font-size="10.00">SparseMatrix</text>
</a>
</g>
<!-- Node2&#45;&gt;Node31 -->
<g id="edge114" class="edge"><title>Node2&#45;&gt;Node31</title>
<path fill="none" stroke="midnightblue" d="M240.1,-94.0918C268.942,-100.464 311.336,-109.83 341.89,-116.58"/>
<polygon fill="midnightblue" stroke="midnightblue" points="240.653,-90.6298 230.134,-91.89 239.143,-97.465 240.653,-90.6298"/>
</g>
<!-- Node3 -->
<g id="node4" class="node"><title>Node3</title>
<a xlink:href="classOperator.html" target="_top" xlink:title="Abstract operator.">
<polygon fill="white" stroke="black" points="15,-77.5 15,-96.5 71,-96.5 71,-77.5 15,-77.5"/>
<text text-anchor="middle" x="43" y="-83.5" font-family="FreeSans" font-size="10.00">Operator</text>
</a>
</g>
<!-- Node3&#45;&gt;Node2 -->
<g id="edge4" class="edge"><title>Node3&#45;&gt;Node2</title>
<path fill="none" stroke="midnightblue" d="M81.3984,-87C113.818,-87 159.107,-87 185.812,-87"/>
<polygon fill="midnightblue" stroke="midnightblue" points="81.3645,-83.5001 71.3645,-87 81.3645,-90.5001 81.3645,-83.5001"/>
</g>
<!-- Node4 -->
<g id="node6" class="node"><title>Node4</title>
<a xlink:href="classArray.html" target="_top" xlink:title="Array\&lt; int \&gt;">
<polygon fill="white" stroke="black" points="1090.5,-778.5 1090.5,-797.5 1159.5,-797.5 1159.5,-778.5 1090.5,-778.5"/>
<text text-anchor="middle" x="1125" y="-784.5" font-family="FreeSans" font-size="10.00">Array&lt; int &gt;</text>
</a>
</g>
<!-- Node4&#45;&gt;Node1 -->
<g id="edge6" class="edge"><title>Node4&#45;&gt;Node1</title>
<path fill="none" stroke="#9a32cd" stroke-dasharray="5,2" d="M1139.45,-805.456C1155.89,-823.956 1184.55,-852.345 1216,-866 1275.07,-891.647 1295.74,-877.809 1360,-882 1405.25,-884.951 1416.66,-883.556 1462,-884 1564.32,-885.003 1824.19,-893.059 1922,-863 2000.84,-838.773 2038.02,-838.772 2082,-769 2117.38,-712.873 2134.33,-210.822 2136.71,-134.664"/>
<polygon fill="#9a32cd" stroke="#9a32cd" points="1141.98,-803.025 1132.8,-797.74 1136.68,-807.598 1141.98,-803.025"/>
<text text-anchor="middle" x="1679" y="-887" font-family="FreeSans" font-size="10.00"> vdofs</text>
</g>
<!-- Node8 -->
<g id="node15" class="node"><title>Node8</title>
<a xlink:href="classFiniteElementSpace.html" target="_top" xlink:title="Abstract finite element space.">
<polygon fill="white" stroke="black" points="1940,-486.5 1940,-505.5 2046,-505.5 2046,-486.5 1940,-486.5"/>
<text text-anchor="middle" x="1993" y="-492.5" font-family="FreeSans" font-size="10.00">FiniteElementSpace</text>
</a>
</g>
<!-- Node4&#45;&gt;Node8 -->
<g id="edge94" class="edge"><title>Node4&#45;&gt;Node8</title>
<path fill="none" stroke="#9a32cd" stroke-dasharray="5,2" d="M1149.93,-802.677C1203.94,-832.561 1335.59,-895.113 1444,-864 1695.47,-791.829 1934.48,-556.31 1983.76,-505.654"/>
<polygon fill="#9a32cd" stroke="#9a32cd" points="1151.5,-799.54 1141.07,-797.674 1148.06,-805.637 1151.5,-799.54"/>
<text text-anchor="middle" x="1531" y="-871" font-family="FreeSans" font-size="10.00"> dof_ldof_array</text>
<text text-anchor="middle" x="1531" y="-860" font-family="FreeSans" font-size="10.00">dof_elem_array</text>
</g>
<!-- Node9 -->
<g id="node17" class="node"><title>Node9</title>
<a xlink:href="classNURBSExtension.html" target="_top" xlink:title="NURBSExtension">
<polygon fill="white" stroke="black" points="1631.5,-560.5 1631.5,-579.5 1726.5,-579.5 1726.5,-560.5 1631.5,-560.5"/>
<text text-anchor="middle" x="1679" y="-566.5" font-family="FreeSans" font-size="10.00">NURBSExtension</text>
</a>
</g>
<!-- Node4&#45;&gt;Node9 -->
<g id="edge26" class="edge"><title>Node4&#45;&gt;Node9</title>
<path fill="none" stroke="#9a32cd" stroke-dasharray="5,2" d="M1169.9,-790.957C1184.59,-791.793 1200.98,-792.588 1216,-793 1271.98,-794.537 1296.18,-825.201 1342,-793 1361.32,-779.419 1341.77,-758.018 1360,-743 1443.3,-674.375 1510.85,-766.829 1600,-706 1646.69,-674.143 1669.53,-604.885 1676.56,-579.539"/>
<polygon fill="#9a32cd" stroke="#9a32cd" points="1169.74,-787.442 1159.55,-790.346 1169.33,-794.43 1169.74,-787.442"/>
<text text-anchor="middle" x="1402" y="-855" font-family="FreeSans" font-size="10.00"> v_spaceOffsets</text>
<text text-anchor="middle" x="1402" y="-844" font-family="FreeSans" font-size="10.00">p_meshOffsets</text>
<text text-anchor="middle" x="1402" y="-833" font-family="FreeSans" font-size="10.00">edge_to_knot</text>
<text text-anchor="middle" x="1402" y="-822" font-family="FreeSans" font-size="10.00">f_spaceOffsets</text>
<text text-anchor="middle" x="1402" y="-811" font-family="FreeSans" font-size="10.00">e_meshOffsets</text>
<text text-anchor="middle" x="1402" y="-800" font-family="FreeSans" font-size="10.00">el_to_patch</text>
<text text-anchor="middle" x="1402" y="-789" font-family="FreeSans" font-size="10.00">p_spaceOffsets</text>
<text text-anchor="middle" x="1402" y="-778" font-family="FreeSans" font-size="10.00">bel_to_patch</text>
<text text-anchor="middle" x="1402" y="-767" font-family="FreeSans" font-size="10.00">e_spaceOffsets</text>
<text text-anchor="middle" x="1402" y="-756" font-family="FreeSans" font-size="10.00">v_meshOffsets</text>
<text text-anchor="middle" x="1402" y="-745" font-family="FreeSans" font-size="10.00">...</text>
</g>
<!-- Node15 -->
<g id="node33" class="node"><title>Node15</title>
<a xlink:href="classMesh.html" target="_top" xlink:title="Mesh">
<polygon fill="white" stroke="black" points="1381.5,-483.5 1381.5,-502.5 1422.5,-502.5 1422.5,-483.5 1381.5,-483.5"/>
<text text-anchor="middle" x="1402" y="-489.5" font-family="FreeSans" font-size="10.00">Mesh</text>
</a>
</g>
<!-- Node4&#45;&gt;Node15 -->
<g id="edge50" class="edge"><title>Node4&#45;&gt;Node15</title>
<path fill="none" stroke="#9a32cd" stroke-dasharray="5,2" d="M1131.69,-768.548C1143.45,-737.584 1170.93,-677.664 1216,-649 1263.73,-618.64 1301.71,-670.705 1342,-631 1378.54,-594.997 1330.86,-559.215 1360,-517 1365.15,-509.535 1373.43,-504.098 1381.28,-500.305"/>
<polygon fill="#9a32cd" stroke="#9a32cd" points="1128.32,-767.6 1128.19,-778.194 1134.89,-769.991 1128.32,-767.6"/>
<text text-anchor="middle" x="1279" y="-695" font-family="FreeSans" font-size="10.00"> fc_be_to_edge</text>
<text text-anchor="middle" x="1279" y="-684" font-family="FreeSans" font-size="10.00">attributes</text>
<text text-anchor="middle" x="1279" y="-673" font-family="FreeSans" font-size="10.00">be_to_edge</text>
<text text-anchor="middle" x="1279" y="-662" font-family="FreeSans" font-size="10.00">be_to_face</text>
<text text-anchor="middle" x="1279" y="-651" font-family="FreeSans" font-size="10.00">bdr_attributes</text>
</g>
<!-- Node28 -->
<g id="node72" class="node"><title>Node28</title>
<a xlink:href="classArray2D.html" target="_top" xlink:title="Array2D\&lt; int \&gt;">
<polygon fill="white" stroke="black" points="1361.5,-673.5 1361.5,-692.5 1442.5,-692.5 1442.5,-673.5 1361.5,-673.5"/>
<text text-anchor="middle" x="1402" y="-679.5" font-family="FreeSans" font-size="10.00">Array2D&lt; int &gt;</text>
</a>
</g>
<!-- Node4&#45;&gt;Node28 -->
<g id="edge92" class="edge"><title>Node4&#45;&gt;Node28</title>
<path fill="none" stroke="#9a32cd" stroke-dasharray="5,2" d="M1170.16,-784.49C1229.83,-779.471 1328.95,-769.665 1342,-759 1360.94,-743.523 1344.39,-725.824 1360,-707 1364.93,-701.053 1371.74,-696.281 1378.45,-692.607"/>
<polygon fill="#9a32cd" stroke="#9a32cd" points="1169.55,-781.029 1159.87,-785.341 1170.13,-788.005 1169.55,-781.029"/>
<text text-anchor="middle" x="1279" y="-781" font-family="FreeSans" font-size="10.00"> array1d</text>
</g>
<!-- Node5 -->
<g id="node8" class="node"><title>Node5</title>
<a xlink:href="classBaseArray.html" target="_top" xlink:title="Base class for array container.">
<polygon fill="white" stroke="black" points="816.5,-584.5 816.5,-603.5 879.5,-603.5 879.5,-584.5 816.5,-584.5"/>
<text text-anchor="middle" x="848" y="-590.5" font-family="FreeSans" font-size="10.00">BaseArray</text>
</a>
</g>
<!-- Node5&#45;&gt;Node4 -->
<g id="edge8" class="edge"><title>Node5&#45;&gt;Node4</title>
<path fill="none" stroke="midnightblue" d="M853.407,-613.342C864.124,-647.842 891.503,-719.679 942,-755 986.31,-785.994 1050.98,-790.557 1090.4,-790.008"/>
<polygon fill="midnightblue" stroke="midnightblue" points="856.701,-612.141 850.505,-603.547 849.99,-614.129 856.701,-612.141"/>
</g>
<!-- Node11 -->
<g id="node21" class="node"><title>Node11</title>
<a xlink:href="classArray.html" target="_top" xlink:title="Array\&lt; bool \&gt;">
<polygon fill="white" stroke="black" points="1240.5,-738.5 1240.5,-757.5 1317.5,-757.5 1317.5,-738.5 1240.5,-738.5"/>
<text text-anchor="middle" x="1279" y="-744.5" font-family="FreeSans" font-size="10.00">Array&lt; bool &gt;</text>
</a>
</g>
<!-- Node5&#45;&gt;Node11 -->
<g id="edge24" class="edge"><title>Node5&#45;&gt;Node11</title>
<path fill="none" stroke="midnightblue" d="M869.874,-609.455C888.483,-622.175 916.217,-640.142 942,-653 1043.45,-703.596 1175.94,-730.892 1240.4,-741.984"/>
<polygon fill="midnightblue" stroke="midnightblue" points="871.736,-606.487 861.52,-603.677 867.754,-612.244 871.736,-606.487"/>
</g>
<!-- Node12 -->
<g id="node25" class="node"><title>Node12</title>
<a xlink:href="classArray.html" target="_top" xlink:title="Array\&lt; KnotVector * \&gt;">
<polygon fill="white" stroke="black" points="1222,-713.5 1222,-732.5 1336,-732.5 1336,-713.5 1222,-713.5"/>
<text text-anchor="middle" x="1279" y="-719.5" font-family="FreeSans" font-size="10.00">Array&lt; KnotVector * &gt;</text>
</a>
</g>
<!-- Node5&#45;&gt;Node12 -->
<g id="edge30" class="edge"><title>Node5&#45;&gt;Node12</title>
<path fill="none" stroke="midnightblue" d="M885.961,-606.753C903.055,-612.435 923.51,-619.152 942,-625 1063.32,-663.373 1093.16,-674.804 1216,-708 1222.84,-709.848 1230.13,-711.695 1237.23,-713.429"/>
<polygon fill="midnightblue" stroke="midnightblue" points="886.918,-603.383 876.324,-603.541 884.705,-610.024 886.918,-603.383"/>
</g>
<!-- Node13 -->
<g id="node28" class="node"><title>Node13</title>
<a xlink:href="classArray.html" target="_top" xlink:title="Array\&lt; NURBSPatch * \&gt;">
<polygon fill="white" stroke="black" points="1216.5,-610.5 1216.5,-629.5 1341.5,-629.5 1341.5,-610.5 1216.5,-610.5"/>
<text text-anchor="middle" x="1279" y="-616.5" font-family="FreeSans" font-size="10.00">Array&lt; NURBSPatch * &gt;</text>
</a>
</g>
<!-- Node5&#45;&gt;Node13 -->
<g id="edge34" class="edge"><title>Node5&#45;&gt;Node13</title>
<path fill="none" stroke="midnightblue" d="M889.916,-601.182C906.14,-603.714 924.891,-606.341 942,-608 1037.42,-617.25 1148.65,-619.576 1216.43,-620.052"/>
<polygon fill="midnightblue" stroke="midnightblue" points="890.09,-597.665 879.663,-599.542 888.985,-604.577 890.09,-597.665"/>
</g>
<!-- Node16 -->
<g id="node35" class="node"><title>Node16</title>
<a xlink:href="classArray.html" target="_top" xlink:title="Array\&lt; Element * \&gt;">
<polygon fill="white" stroke="black" points="1074,-508.5 1074,-527.5 1176,-527.5 1176,-508.5 1074,-508.5"/>
<text text-anchor="middle" x="1125" y="-514.5" font-family="FreeSans" font-size="10.00">Array&lt; Element * &gt;</text>
</a>
</g>
<!-- Node5&#45;&gt;Node16 -->
<g id="edge42" class="edge"><title>Node5&#45;&gt;Node16</title>
<path fill="none" stroke="midnightblue" d="M887.524,-581.346C904.272,-576.104 924.034,-570.075 942,-565 991.244,-551.089 1048.43,-536.679 1085.59,-527.544"/>
<polygon fill="midnightblue" stroke="midnightblue" points="886.015,-578.152 877.528,-584.493 888.117,-584.829 886.015,-578.152"/>
</g>
<!-- Node17 -->
<g id="node38" class="node"><title>Node17</title>
<a xlink:href="classArray.html" target="_top" xlink:title="Array\&lt; Vertex \&gt;">
<polygon fill="white" stroke="black" points="1081.5,-584.5 1081.5,-603.5 1168.5,-603.5 1168.5,-584.5 1081.5,-584.5"/>
<text text-anchor="middle" x="1125" y="-590.5" font-family="FreeSans" font-size="10.00">Array&lt; Vertex &gt;</text>
</a>
</g>
<!-- Node5&#45;&gt;Node17 -->
<g id="edge46" class="edge"><title>Node5&#45;&gt;Node17</title>
<path fill="none" stroke="midnightblue" d="M889.632,-594C941.214,-594 1028.7,-594 1081.25,-594"/>
<polygon fill="midnightblue" stroke="midnightblue" points="889.506,-590.5 879.506,-594 889.506,-597.5 889.506,-590.5"/>
</g>
<!-- Node18 -->
<g id="node43" class="node"><title>Node18</title>
<a xlink:href="classArray.html" target="_top" xlink:title="Array\&lt; FaceInfo \&gt;">
<polygon fill="white" stroke="black" points="1076.5,-546.5 1076.5,-565.5 1173.5,-565.5 1173.5,-546.5 1076.5,-546.5"/>
<text text-anchor="middle" x="1125" y="-552.5" font-family="FreeSans" font-size="10.00">Array&lt; FaceInfo &gt;</text>
</a>
</g>
<!-- Node5&#45;&gt;Node18 -->
<g id="edge54" class="edge"><title>Node5&#45;&gt;Node18</title>
<path fill="none" stroke="midnightblue" d="M889.641,-588.288C939.644,-581.428 1023.38,-569.941 1076.32,-562.678"/>
<polygon fill="midnightblue" stroke="midnightblue" points="888.937,-584.851 879.506,-589.678 889.889,-591.786 888.937,-584.851"/>
</g>
<!-- Node29 -->
<g id="node76" class="node"><title>Node29</title>
<a xlink:href="classArray.html" target="_top" xlink:title="Array\&lt; RefinementData * \&gt;">
<polygon fill="white" stroke="black" points="1462.5,-195.5 1462.5,-214.5 1599.5,-214.5 1599.5,-195.5 1462.5,-195.5"/>
<text text-anchor="middle" x="1531" y="-201.5" font-family="FreeSans" font-size="10.00">Array&lt; RefinementData * &gt;</text>
</a>
</g>
<!-- Node5&#45;&gt;Node29 -->
<g id="edge98" class="edge"><title>Node5&#45;&gt;Node29</title>
<path fill="none" stroke="midnightblue" d="M865.628,-576.888C883.235,-558.736 909.681,-528.396 924,-497 941.47,-458.695 926.064,-442.968 942,-404 975.502,-322.08 976.707,-284.522 1052,-238 1190.99,-152.121 1397.93,-178.4 1487.3,-195.436"/>
<polygon fill="midnightblue" stroke="midnightblue" points="862.8,-574.768 858.236,-584.33 867.766,-579.701 862.8,-574.768"/>
</g>
<!-- Node30 -->
<g id="node83" class="node"><title>Node30</title>
<a xlink:href="classArray.html" target="_top" xlink:title="Array\&lt; BilinearFormIntegrator * \&gt;">
<polygon fill="white" stroke="black" points="1758,-157.5 1758,-176.5 1922,-176.5 1922,-157.5 1758,-157.5"/>
<text text-anchor="middle" x="1840" y="-163.5" font-family="FreeSans" font-size="10.00">Array&lt; BilinearFormIntegrator * &gt;</text>
</a>
</g>
<!-- Node5&#45;&gt;Node30 -->
<g id="edge110" class="edge"><title>Node5&#45;&gt;Node30</title>
<path fill="none" stroke="midnightblue" d="M866.704,-576.926C884.932,-559.004 911.65,-529.023 924,-497 944.123,-444.825 912.404,-293.447 942,-246 989.267,-170.226 1035.69,-163 1125,-163 1125,-163 1125,-163 1531,-163 1607.85,-163 1695.45,-164.252 1757.7,-165.356"/>
<polygon fill="midnightblue" stroke="midnightblue" points="863.823,-574.838 859.009,-584.276 868.658,-579.9 863.823,-574.838"/>
</g>
<!-- Node6 -->
<g id="node10" class="node"><title>Node6</title>
<a xlink:href="classDenseTensor.html" target="_top" xlink:title="Rank 3 tensor (array of matrices)">
<polygon fill="white" stroke="black" points="678.5,-0.5 678.5,-19.5 753.5,-19.5 753.5,-0.5 678.5,-0.5"/>
<text text-anchor="middle" x="716" y="-6.5" font-family="FreeSans" font-size="10.00">DenseTensor</text>
</a>
</g>
<!-- Node6&#45;&gt;Node1 -->
<g id="edge10" class="edge"><title>Node6&#45;&gt;Node1</title>
<path fill="none" stroke="#9a32cd" stroke-dasharray="5,2" d="M763.873,-10C818.204,-10 909.477,-10 988,-10 988,-10 988,-10 1993,-10 2034.09,-10 2049.24,-10.199 2082,-35 2110.32,-56.4437 2127.3,-97.072 2133.87,-115.494"/>
<polygon fill="#9a32cd" stroke="#9a32cd" points="763.842,-6.5001 753.842,-10 763.842,-13.5001 763.842,-6.5001"/>
<text text-anchor="middle" x="1402" y="-12" font-family="FreeSans" font-size="10.00"> element_matrices</text>
</g>
<!-- Node7&#45;&gt;Node1 -->
<g id="edge106" class="edge"><title>Node7&#45;&gt;Node1</title>
<path fill="none" stroke="#9a32cd" stroke-dasharray="5,2" d="M427.061,-49C469.219,-49 532.739,-49 588,-49 588,-49 588,-49 1993,-49 2033.97,-49 2046.25,-52.9864 2082,-73 2101.72,-84.0413 2119.77,-103.719 2129.49,-115.445"/>
<polygon fill="#9a32cd" stroke="#9a32cd" points="426.821,-45.5001 416.821,-49 426.821,-52.5001 426.821,-45.5001"/>
<text text-anchor="middle" x="1279" y="-51" font-family="FreeSans" font-size="10.00"> elemmat</text>
</g>
<!-- Node7&#45;&gt;Node6 -->
<g id="edge12" class="edge"><title>Node7&#45;&gt;Node6</title>
<path fill="none" stroke="#9a32cd" stroke-dasharray="5,2" d="M414,-36.0154C427.499,-31.4139 443.29,-26.7101 458,-24 535.422,-9.73636 627.945,-8.44987 678.477,-9.05118"/>
<polygon fill="#9a32cd" stroke="#9a32cd" points="412.445,-32.8522 404.179,-39.4795 414.774,-39.4536 412.445,-32.8522"/>
<text text-anchor="middle" x="478" y="-26" font-family="FreeSans" font-size="10.00"> Mk</text>
</g>
<!-- Node21 -->
<g id="node50" class="node"><title>Node21</title>
<a xlink:href="classIsoparametricTransformation.html" target="_top" xlink:title="IsoparametricTransformation">
<polygon fill="white" stroke="black" points="516.5,-460.5 516.5,-479.5 659.5,-479.5 659.5,-460.5 516.5,-460.5"/>
<text text-anchor="middle" x="588" y="-466.5" font-family="FreeSans" font-size="10.00">IsoparametricTransformation</text>
</a>
</g>
<!-- Node7&#45;&gt;Node21 -->
<g id="edge68" class="edge"><title>Node7&#45;&gt;Node21</title>
<path fill="none" stroke="#9a32cd" stroke-dasharray="5,2" d="M400.817,-64.924C413.484,-75.4694 429.241,-90.2264 440,-106 526.107,-232.239 574.839,-416.247 585.677,-460.277"/>
<polygon fill="#9a32cd" stroke="#9a32cd" points="403.003,-62.1905 393.023,-58.634 398.607,-67.6379 403.003,-62.1905"/>
<text text-anchor="middle" x="478" y="-233" font-family="FreeSans" font-size="10.00"> dFdx</text>
<text text-anchor="middle" x="478" y="-222" font-family="FreeSans" font-size="10.00">PointMat</text>
<text text-anchor="middle" x="478" y="-211" font-family="FreeSans" font-size="10.00">dshape</text>
</g>
<!-- Node8&#45;&gt;Node1 -->
<g id="edge16" class="edge"><title>Node8&#45;&gt;Node1</title>
<path fill="none" stroke="#9a32cd" stroke-dasharray="5,2" d="M2000.34,-477.099C2026.38,-410.013 2113.83,-184.682 2133.19,-134.823"/>
<polygon fill="#9a32cd" stroke="#9a32cd" points="1997.06,-475.867 1996.7,-486.456 2003.59,-478.4 1997.06,-475.867"/>
<text text-anchor="middle" x="2073" y="-312" font-family="FreeSans" font-size="10.00"> fes</text>
</g>
<!-- Node26 -->
<g id="node66" class="node"><title>Node26</title>
<a xlink:href="classGridFunction.html" target="_top" xlink:title="Class for grid function &#45; Vector with asociated FE space.">
<polygon fill="white" stroke="black" points="2100.5,-924.5 2100.5,-943.5 2173.5,-943.5 2173.5,-924.5 2100.5,-924.5"/>
<text text-anchor="middle" x="2137" y="-930.5" font-family="FreeSans" font-size="10.00">GridFunction</text>
</a>
</g>
<!-- Node8&#45;&gt;Node26 -->
<g id="edge88" class="edge"><title>Node8&#45;&gt;Node26</title>
<path fill="none" stroke="#9a32cd" stroke-dasharray="5,2" d="M1999.33,-515.245C2024.29,-591.162 2115.44,-868.436 2133.78,-924.194"/>
<polygon fill="#9a32cd" stroke="#9a32cd" points="2002.59,-513.962 1996.14,-505.556 1995.94,-516.149 2002.59,-513.962"/>
<text text-anchor="middle" x="2073" y="-756" font-family="FreeSans" font-size="10.00"> fes</text>
</g>
<!-- Node9&#45;&gt;Node8 -->
<g id="edge18" class="edge"><title>Node9&#45;&gt;Node8</title>
<path fill="none" stroke="#9a32cd" stroke-dasharray="5,2" d="M1729.34,-558.136C1791.24,-543.548 1895.11,-519.07 1952.25,-505.603"/>
<polygon fill="#9a32cd" stroke="#9a32cd" points="1728.34,-554.777 1719.41,-560.477 1729.94,-561.59 1728.34,-554.777"/>
<text text-anchor="middle" x="1840" y="-552" font-family="FreeSans" font-size="10.00"> NURBSext</text>
</g>
<!-- Node9&#45;&gt;Node15 -->
<g id="edge48" class="edge"><title>Node9&#45;&gt;Node15</title>
<path fill="none" stroke="#9a32cd" stroke-dasharray="5,2" d="M1655.76,-555.061C1640.48,-545.904 1619.74,-534.691 1600,-528 1541.11,-508.034 1523.16,-516.21 1462,-505 1448.83,-502.587 1434.09,-499.642 1422.52,-497.274"/>
<polygon fill="#9a32cd" stroke="#9a32cd" points="1654.16,-558.184 1664.51,-560.439 1657.82,-552.22 1654.16,-558.184"/>
<text text-anchor="middle" x="1531" y="-530" font-family="FreeSans" font-size="10.00"> NURBSext</text>
</g>
<!-- Node10 -->
<g id="node19" class="node"><title>Node10</title>
<a xlink:href="classVector.html" target="_top" xlink:title="Vector data type.">
<polygon fill="white" stroke="black" points="357.5,-918.5 357.5,-937.5 402.5,-937.5 402.5,-918.5 357.5,-918.5"/>
<text text-anchor="middle" x="380" y="-924.5" font-family="FreeSans" font-size="10.00">Vector</text>
</a>
</g>
<!-- Node10&#45;&gt;Node9 -->
<g id="edge20" class="edge"><title>Node10&#45;&gt;Node9</title>
<path fill="none" stroke="#9a32cd" stroke-dasharray="5,2" d="M412.998,-928C454.019,-928 526.177,-928 588,-928 588,-928 588,-928 1125,-928 1269.26,-928 1314.42,-931.409 1444,-868 1527.15,-827.313 1543.79,-803.547 1600,-730 1638.94,-679.05 1666.56,-605.884 1675.71,-579.742"/>
<polygon fill="#9a32cd" stroke="#9a32cd" points="412.776,-924.5 402.776,-928 412.776,-931.5 412.776,-924.5"/>
<text text-anchor="middle" x="988" y="-930" font-family="FreeSans" font-size="10.00"> weights</text>
</g>
<!-- Node10&#45;&gt;Node21 -->
<g id="edge66" class="edge"><title>Node10&#45;&gt;Node21</title>
<path fill="none" stroke="#9a32cd" stroke-dasharray="5,2" d="M388.686,-908.873C424.226,-830.617 557.893,-536.294 583.68,-479.513"/>
<polygon fill="#9a32cd" stroke="#9a32cd" points="385.293,-907.882 384.344,-918.434 391.666,-910.776 385.293,-907.882"/>
<text text-anchor="middle" x="478" y="-755" font-family="FreeSans" font-size="10.00"> shape</text>
</g>
<!-- Node10&#45;&gt;Node26 -->
<g id="edge84" class="edge"><title>Node10&#45;&gt;Node26</title>
<path fill="none" stroke="midnightblue" d="M407.181,-942.082C446.139,-960.925 520.604,-992 588,-992 588,-992 588,-992 1993,-992 2044.21,-992 2098.73,-960.051 2123.43,-943.578"/>
<polygon fill="midnightblue" stroke="midnightblue" points="408.583,-938.871 398.067,-937.581 405.483,-945.148 408.583,-938.871"/>
</g>
<!-- Node11&#45;&gt;Node9 -->
<g id="edge22" class="edge"><title>Node11&#45;&gt;Node9</title>
<path fill="none" stroke="#9a32cd" stroke-dasharray="5,2" d="M1327.14,-743.595C1332.69,-741.364 1337.84,-738.266 1342,-734 1371.08,-704.166 1330.84,-671.756 1360,-642 1379.1,-622.513 1573.44,-596.238 1600,-590 1613.91,-586.733 1629.14,-582.931 1642.49,-579.524"/>
<polygon fill="#9a32cd" stroke="#9a32cd" points="1326.04,-740.272 1317.53,-746.584 1328.12,-746.956 1326.04,-740.272"/>
<text text-anchor="middle" x="1402" y="-655" font-family="FreeSans" font-size="10.00"> activeBdrElem</text>
<text text-anchor="middle" x="1402" y="-644" font-family="FreeSans" font-size="10.00">activeElem</text>
</g>
<!-- Node12&#45;&gt;Node9 -->
<g id="edge28" class="edge"><title>Node12&#45;&gt;Node9</title>
<path fill="none" stroke="#9a32cd" stroke-dasharray="5,2" d="M1342.37,-705.278C1368.84,-667.242 1326.75,-630.958 1360,-600 1379.41,-581.924 1547.01,-574.129 1631.18,-571.33"/>
<polygon fill="#9a32cd" stroke="#9a32cd" points="1339.31,-703.485 1335.63,-713.42 1344.7,-707.949 1339.31,-703.485"/>
<text text-anchor="middle" x="1402" y="-602" font-family="FreeSans" font-size="10.00"> knotVectors</text>
</g>
<!-- Node13&#45;&gt;Node9 -->
<g id="edge32" class="edge"><title>Node13&#45;&gt;Node9</title>
<path fill="none" stroke="#9a32cd" stroke-dasharray="5,2" d="M1341.22,-604.696C1341.48,-604.468 1341.74,-604.235 1342,-604 1359.75,-587.79 1340.38,-566.883 1360,-553 1381.56,-537.745 1547.68,-554.607 1631.27,-564.235"/>
<polygon fill="#9a32cd" stroke="#9a32cd" points="1339.12,-601.891 1332.87,-610.446 1343.09,-607.656 1339.12,-601.891"/>
<text text-anchor="middle" x="1402" y="-555" font-family="FreeSans" font-size="10.00"> patches</text>
</g>
<!-- Node14 -->
<g id="node31" class="node"><title>Node14</title>
<a xlink:href="classTable.html" target="_top" xlink:title="Table">
<polygon fill="white" stroke="black" points="1104,-247.5 1104,-266.5 1146,-266.5 1146,-247.5 1104,-247.5"/>
<text text-anchor="middle" x="1125" y="-253.5" font-family="FreeSans" font-size="10.00">Table</text>
</a>
</g>
<!-- Node14&#45;&gt;Node8 -->
<g id="edge102" class="edge"><title>Node14&#45;&gt;Node8</title>
<path fill="none" stroke="#9a32cd" stroke-dasharray="5,2" d="M1155.99,-251.923C1198.22,-245.8 1276.15,-237.346 1342,-246 1609.68,-281.176 1904.99,-444.77 1976.68,-486.362"/>
<polygon fill="#9a32cd" stroke="#9a32cd" points="1155.42,-248.469 1146.05,-253.417 1156.46,-255.391 1155.42,-248.469"/>
<text text-anchor="middle" x="1531" y="-323" font-family="FreeSans" font-size="10.00"> bdrElem_dof</text>
<text text-anchor="middle" x="1531" y="-312" font-family="FreeSans" font-size="10.00">elem_dof</text>
</g>
<!-- Node14&#45;&gt;Node9 -->
<g id="edge36" class="edge"><title>Node14&#45;&gt;Node9</title>
<path fill="none" stroke="#9a32cd" stroke-dasharray="5,2" d="M1156.42,-253.332C1199.77,-249.52 1279.62,-247.04 1342,-271 1505.92,-333.963 1641.51,-516.44 1672.39,-560.393"/>
<polygon fill="#9a32cd" stroke="#9a32cd" points="1155.84,-249.872 1146.22,-254.314 1156.51,-256.839 1155.84,-249.872"/>
<text text-anchor="middle" x="1402" y="-338" font-family="FreeSans" font-size="10.00"> el_dof</text>
<text text-anchor="middle" x="1402" y="-327" font-family="FreeSans" font-size="10.00">bel_dof</text>
</g>
<!-- Node14&#45;&gt;Node15 -->
<g id="edge78" class="edge"><title>Node14&#45;&gt;Node15</title>
<path fill="none" stroke="#9a32cd" stroke-dasharray="5,2" d="M1156.28,-261.009C1214.68,-268.617 1335.06,-284.928 1342,-291 1372.22,-317.437 1394.73,-447.043 1400.53,-483.464"/>
<polygon fill="#9a32cd" stroke="#9a32cd" points="1156.51,-257.509 1146.14,-259.694 1155.61,-264.451 1156.51,-257.509"/>
<text text-anchor="middle" x="1279" y="-403" font-family="FreeSans" font-size="10.00"> el_to_face</text>
<text text-anchor="middle" x="1279" y="-392" font-family="FreeSans" font-size="10.00">el_to_edge</text>
<text text-anchor="middle" x="1279" y="-381" font-family="FreeSans" font-size="10.00">c_bel_to_edge</text>
<text text-anchor="middle" x="1279" y="-370" font-family="FreeSans" font-size="10.00">edge_vertex</text>
<text text-anchor="middle" x="1279" y="-359" font-family="FreeSans" font-size="10.00">face_edge</text>
<text text-anchor="middle" x="1279" y="-348" font-family="FreeSans" font-size="10.00">el_to_el</text>
<text text-anchor="middle" x="1279" y="-337" font-family="FreeSans" font-size="10.00">c_el_to_face</text>
<text text-anchor="middle" x="1279" y="-326" font-family="FreeSans" font-size="10.00">f_bel_to_edge</text>
<text text-anchor="middle" x="1279" y="-315" font-family="FreeSans" font-size="10.00">c_el_to_edge</text>
<text text-anchor="middle" x="1279" y="-304" font-family="FreeSans" font-size="10.00">f_el_to_face</text>
<text text-anchor="middle" x="1279" y="-293" font-family="FreeSans" font-size="10.00">...</text>
</g>
<!-- Node15&#45;&gt;Node8 -->
<g id="edge104" class="edge"><title>Node15&#45;&gt;Node8</title>
<path fill="none" stroke="#9a32cd" stroke-dasharray="5,2" d="M1432.42,-482.003C1441.78,-479.131 1452.2,-476.438 1462,-475 1635.44,-449.545 1843.92,-473.443 1939.9,-487.457"/>
<polygon fill="#9a32cd" stroke="#9a32cd" points="1431.19,-478.723 1422.76,-485.14 1433.36,-485.38 1431.19,-478.723"/>
<text text-anchor="middle" x="1679" y="-468" font-family="FreeSans" font-size="10.00"> mesh</text>
</g>
<!-- Node15&#45;&gt;Node9 -->
<g id="edge38" class="edge"><title>Node15&#45;&gt;Node9</title>
<path fill="none" stroke="#9a32cd" stroke-dasharray="5,2" d="M1432.59,-486.37C1472.68,-479.164 1544.45,-471.453 1600,-494 1633.68,-507.67 1661.08,-543.248 1672.82,-560.433"/>
<polygon fill="#9a32cd" stroke="#9a32cd" points="1431.8,-482.957 1422.63,-488.267 1433.11,-489.833 1431.8,-482.957"/>
<text text-anchor="middle" x="1531" y="-496" font-family="FreeSans" font-size="10.00"> patchTopo</text>
</g>
<!-- Node16&#45;&gt;Node15 -->
<g id="edge40" class="edge"><title>Node16&#45;&gt;Node15</title>
<path fill="none" stroke="#9a32cd" stroke-dasharray="5,2" d="M1172.1,-505.861C1180.72,-503.605 1189.64,-501.25 1198,-499 1206.02,-496.843 1207.78,-495.143 1216,-494 1275.49,-485.728 1346.72,-488.948 1381.23,-491.328"/>
<polygon fill="#9a32cd" stroke="#9a32cd" points="1170.96,-502.541 1162.17,-508.451 1172.73,-509.315 1170.96,-502.541"/>
<text text-anchor="middle" x="1279" y="-518" font-family="FreeSans" font-size="10.00"> boundary</text>
<text text-anchor="middle" x="1279" y="-507" font-family="FreeSans" font-size="10.00">elements</text>
<text text-anchor="middle" x="1279" y="-496" font-family="FreeSans" font-size="10.00">faces</text>
</g>
<!-- Node17&#45;&gt;Node15 -->
<g id="edge44" class="edge"><title>Node17&#45;&gt;Node15</title>
<path fill="none" stroke="#9a32cd" stroke-dasharray="5,2" d="M1178.61,-591.592C1238.73,-588.422 1329.52,-582.045 1342,-572 1362.04,-555.872 1343.75,-536.935 1360,-517 1365.62,-510.1 1373.79,-504.8 1381.43,-500.957"/>
<polygon fill="#9a32cd" stroke="#9a32cd" points="1178.31,-588.103 1168.5,-592.11 1178.67,-595.094 1178.31,-588.103"/>
<text text-anchor="middle" x="1279" y="-591" font-family="FreeSans" font-size="10.00"> vertices</text>
</g>
<!-- Node18&#45;&gt;Node15 -->
<g id="edge52" class="edge"><title>Node18&#45;&gt;Node15</title>
<path fill="none" stroke="#9a32cd" stroke-dasharray="5,2" d="M1183.72,-550.692C1237.71,-545.351 1313.57,-536.555 1342,-527 1343.18,-526.604 1368.06,-512.426 1385.4,-502.505"/>
<polygon fill="#9a32cd" stroke="#9a32cd" points="1183.18,-547.228 1173.57,-551.681 1183.86,-554.195 1183.18,-547.228"/>
<text text-anchor="middle" x="1279" y="-560" font-family="FreeSans" font-size="10.00"> fc_faces_info</text>
<text text-anchor="middle" x="1279" y="-549" font-family="FreeSans" font-size="10.00">faces_info</text>
</g>
<!-- Node19 -->
<g id="node46" class="node"><title>Node19</title>
<a xlink:href="classFaceElementTransformations.html" target="_top" xlink:title="FaceElementTransformations">
<polygon fill="white" stroke="black" points="1052,-470.5 1052,-489.5 1198,-489.5 1198,-470.5 1052,-470.5"/>
<text text-anchor="middle" x="1125" y="-476.5" font-family="FreeSans" font-size="10.00">FaceElementTransformations</text>
</a>
</g>
<!-- Node19&#45;&gt;Node15 -->
<g id="edge56" class="edge"><title>Node19&#45;&gt;Node15</title>
<path fill="none" stroke="#9a32cd" stroke-dasharray="5,2" d="M1166.61,-467.888C1210.79,-456.934 1282.34,-444.675 1342,-460 1359.5,-464.496 1377.37,-475.286 1389,-483.312"/>
<polygon fill="#9a32cd" stroke="#9a32cd" points="1165.61,-464.53 1156.8,-470.411 1167.36,-471.31 1165.61,-464.53"/>
<text text-anchor="middle" x="1279" y="-462" font-family="FreeSans" font-size="10.00"> FaceElemTr</text>
</g>
<!-- Node20 -->
<g id="node48" class="node"><title>Node20</title>
<a xlink:href="classIntegrationPointTransformation.html" target="_top" xlink:title="IntegrationPointTransformation">
<polygon fill="white" stroke="black" points="772,-468.5 772,-487.5 924,-487.5 924,-468.5 772,-468.5"/>
<text text-anchor="middle" x="848" y="-474.5" font-family="FreeSans" font-size="10.00">IntegrationPointTransformation</text>
</a>
</g>
<!-- Node20&#45;&gt;Node19 -->
<g id="edge58" class="edge"><title>Node20&#45;&gt;Node19</title>
<path fill="none" stroke="#9a32cd" stroke-dasharray="5,2" d="M934.522,-478.625C972.226,-478.897 1015.94,-479.213 1051.98,-479.473"/>
<polygon fill="#9a32cd" stroke="#9a32cd" points="934.083,-475.122 924.058,-478.549 934.032,-482.121 934.083,-475.122"/>
<text text-anchor="middle" x="988" y="-492" font-family="FreeSans" font-size="10.00"> Loc1</text>
<text text-anchor="middle" x="988" y="-481" font-family="FreeSans" font-size="10.00">Loc2</text>
</g>
<!-- Node21&#45;&gt;Node15 -->
<g id="edge80" class="edge"><title>Node21&#45;&gt;Node15</title>
<path fill="none" stroke="#9a32cd" stroke-dasharray="5,2" d="M633.036,-457.924C752.623,-428.107 1086.46,-359.581 1342,-448 1362.67,-455.153 1382.05,-472.297 1392.93,-483.239"/>
<polygon fill="#9a32cd" stroke="#9a32cd" points="631.97,-454.584 623.133,-460.428 633.686,-461.37 631.97,-454.584"/>
<text text-anchor="middle" x="988" y="-431" font-family="FreeSans" font-size="10.00"> FaceTransformation</text>
<text text-anchor="middle" x="988" y="-420" font-family="FreeSans" font-size="10.00">Transformation2</text>
<text text-anchor="middle" x="988" y="-409" font-family="FreeSans" font-size="10.00">Transformation</text>
</g>
<!-- Node21&#45;&gt;Node20 -->
<g id="edge60" class="edge"><title>Node21&#45;&gt;Node20</title>
<path fill="none" stroke="#9a32cd" stroke-dasharray="5,2" d="M670.14,-472.527C702.733,-473.53 739.99,-474.677 771.956,-475.66"/>
<polygon fill="#9a32cd" stroke="#9a32cd" points="669.837,-469.017 659.734,-472.207 669.622,-476.013 669.837,-469.017"/>
<text text-anchor="middle" x="716" y="-476" font-family="FreeSans" font-size="10.00"> Transf</text>
</g>
<!-- Node22 -->
<g id="node52" class="node"><title>Node22</title>
<a xlink:href="classElementTransformation.html" target="_top" xlink:title="ElementTransformation">
<polygon fill="white" stroke="black" points="320.5,-504.5 320.5,-523.5 439.5,-523.5 439.5,-504.5 320.5,-504.5"/>
<text text-anchor="middle" x="380" y="-510.5" font-family="FreeSans" font-size="10.00">ElementTransformation</text>
</a>
</g>
<!-- Node22&#45;&gt;Node19 -->
<g id="edge76" class="edge"><title>Node22&#45;&gt;Node19</title>
<path fill="none" stroke="#9a32cd" stroke-dasharray="5,2" d="M449.793,-520.009C570.077,-528.818 823.768,-540.602 1034,-505 1042.31,-503.592 1043.92,-501.397 1052,-499 1063.05,-495.725 1075.13,-492.456 1086.22,-489.576"/>
<polygon fill="#9a32cd" stroke="#9a32cd" points="449.854,-516.503 439.62,-519.247 449.331,-523.484 449.854,-516.503"/>
<text text-anchor="middle" x="716" y="-553" font-family="FreeSans" font-size="10.00"> Elem1</text>
<text text-anchor="middle" x="716" y="-542" font-family="FreeSans" font-size="10.00">Elem2</text>
<text text-anchor="middle" x="716" y="-531" font-family="FreeSans" font-size="10.00">Face</text>
</g>
<!-- Node22&#45;&gt;Node21 -->
<g id="edge62" class="edge"><title>Node22&#45;&gt;Node21</title>
<path fill="none" stroke="midnightblue" d="M435.271,-502.308C468.918,-495.19 511.358,-486.213 542.955,-479.529"/>
<polygon fill="midnightblue" stroke="midnightblue" points="434.192,-498.959 425.133,-504.453 435.641,-505.807 434.192,-498.959"/>
</g>
<!-- Node23 -->
<g id="node54" class="node"><title>Node23</title>
<a xlink:href="classIntegrationPoint.html" target="_top" xlink:title="Class for integration point with weight.">
<polygon fill="white" stroke="black" points="0,-491.5 0,-510.5 86,-510.5 86,-491.5 0,-491.5"/>
<text text-anchor="middle" x="43" y="-497.5" font-family="FreeSans" font-size="10.00">IntegrationPoint</text>
</a>
</g>
<!-- Node23&#45;&gt;Node22 -->
<g id="edge64" class="edge"><title>Node23&#45;&gt;Node22</title>
<path fill="none" stroke="#9a32cd" stroke-dasharray="5,2" d="M96.1928,-503.052C157.105,-505.402 256.652,-509.242 320.204,-511.693"/>
<polygon fill="#9a32cd" stroke="#9a32cd" points="96.1511,-499.548 86.0236,-502.66 95.8812,-506.543 96.1511,-499.548"/>
<text text-anchor="middle" x="208" y="-510" font-family="FreeSans" font-size="10.00"> IntPoint</text>
</g>
<!-- Node25 -->
<g id="node60" class="node"><title>Node25</title>
<a xlink:href="classIntegrationRule.html" target="_top" xlink:title="Class for integration rule.">
<polygon fill="white" stroke="black" points="166,-458.5 166,-477.5 250,-477.5 250,-458.5 166,-458.5"/>
<text text-anchor="middle" x="208" y="-464.5" font-family="FreeSans" font-size="10.00">IntegrationRule</text>
</a>
</g>
<!-- Node23&#45;&gt;Node25 -->
<g id="edge74" class="edge"><title>Node23&#45;&gt;Node25</title>
<path fill="none" stroke="#9a32cd" stroke-dasharray="5,2" d="M96.4187,-490.316C118.897,-485.821 144.679,-480.664 165.793,-476.441"/>
<polygon fill="#9a32cd" stroke="#9a32cd" points="95.4712,-486.936 86.3518,-492.33 96.8441,-493.8 95.4712,-486.936"/>
<text text-anchor="middle" x="126" y="-490" font-family="FreeSans" font-size="10.00"> IntPoints</text>
</g>
<!-- Node24 -->
<g id="node58" class="node"><title>Node24</title>
<a xlink:href="classFiniteElement.html" target="_top" xlink:title="Abstract class for Finite Elements.">
<polygon fill="white" stroke="black" points="341,-458.5 341,-477.5 419,-477.5 419,-458.5 341,-458.5"/>
<text text-anchor="middle" x="380" y="-464.5" font-family="FreeSans" font-size="10.00">FiniteElement</text>
</a>
</g>
<!-- Node24&#45;&gt;Node21 -->
<g id="edge70" class="edge"><title>Node24&#45;&gt;Node21</title>
<path fill="none" stroke="#9a32cd" stroke-dasharray="5,2" d="M429.127,-468.387C450.315,-468.562 475.378,-468.778 498,-469 503.938,-469.058 510.095,-469.121 516.277,-469.186"/>
<polygon fill="#9a32cd" stroke="#9a32cd" points="429.093,-464.887 419.065,-468.305 429.036,-471.887 429.093,-464.887"/>
<text text-anchor="middle" x="478" y="-471" font-family="FreeSans" font-size="10.00"> FElem</text>
</g>
<!-- Node25&#45;&gt;Node24 -->
<g id="edge72" class="edge"><title>Node25&#45;&gt;Node24</title>
<path fill="none" stroke="#9a32cd" stroke-dasharray="5,2" d="M260.11,-468C286.023,-468 316.823,-468 340.717,-468"/>
<polygon fill="#9a32cd" stroke="#9a32cd" points="260.076,-464.5 250.076,-468 260.076,-471.5 260.076,-464.5"/>
<text text-anchor="middle" x="285" y="-470" font-family="FreeSans" font-size="10.00"> Nodes</text>
</g>
<!-- Node26&#45;&gt;Node15 -->
<g id="edge82" class="edge"><title>Node26&#45;&gt;Node15</title>
<path fill="none" stroke="#9a32cd" stroke-dasharray="5,2" d="M2090.25,-939.451C2087.46,-939.667 2084.69,-939.853 2082,-940 2018.98,-943.427 2003.11,-940.49 1940,-940 1868.44,-939.444 1672.51,-981.375 1618,-935 1583.27,-905.453 1621.85,-874.022 1600,-834 1559.92,-760.573 1499.6,-780.729 1462,-706 1429.04,-640.497 1473.16,-609.279 1444,-542 1437.14,-526.168 1423.33,-511.652 1413.42,-502.598"/>
<polygon fill="#9a32cd" stroke="#9a32cd" points="2090.71,-942.924 2100.36,-938.558 2090.09,-935.951 2090.71,-942.924"/>
<text text-anchor="middle" x="1840" y="-957" font-family="FreeSans" font-size="10.00"> Nodes</text>
</g>
<!-- Node27 -->
<g id="node69" class="node"><title>Node27</title>
<a xlink:href="classFiniteElementCollection.html" target="_top" xlink:title="FiniteElementCollection">
<polygon fill="white" stroke="black" points="1618.5,-906.5 1618.5,-925.5 1739.5,-925.5 1739.5,-906.5 1618.5,-906.5"/>
<text text-anchor="middle" x="1679" y="-912.5" font-family="FreeSans" font-size="10.00">FiniteElementCollection</text>
</a>
</g>
<!-- Node27&#45;&gt;Node8 -->
<g id="edge100" class="edge"><title>Node27&#45;&gt;Node8</title>
<path fill="none" stroke="#9a32cd" stroke-dasharray="5,2" d="M1717.98,-903.147C1784.86,-880.942 1915,-837.001 1922,-829 1966.26,-778.384 1987.93,-554.747 1992.2,-505.581"/>
<polygon fill="#9a32cd" stroke="#9a32cd" points="1716.6,-899.918 1708.21,-906.387 1718.8,-906.562 1716.6,-899.918"/>
<text text-anchor="middle" x="1840" y="-890" font-family="FreeSans" font-size="10.00"> fec</text>
</g>
<!-- Node27&#45;&gt;Node26 -->
<g id="edge86" class="edge"><title>Node27&#45;&gt;Node26</title>
<path fill="none" stroke="#9a32cd" stroke-dasharray="5,2" d="M1749.86,-918.101C1823.78,-920.388 1943.05,-924.349 2046,-929 2063.86,-929.807 2083.68,-930.876 2100.26,-931.818"/>
<polygon fill="#9a32cd" stroke="#9a32cd" points="1749.84,-914.598 1739.73,-917.789 1749.62,-921.595 1749.84,-914.598"/>
<text text-anchor="middle" x="1993" y="-931" font-family="FreeSans" font-size="10.00"> fec</text>
</g>
<!-- Node28&#45;&gt;Node9 -->
<g id="edge90" class="edge"><title>Node28&#45;&gt;Node9</title>
<path fill="none" stroke="#9a32cd" stroke-dasharray="5,2" d="M1452.71,-681.891C1494.34,-679.132 1553.77,-670.846 1600,-647 1632.17,-630.406 1659.9,-596.345 1672.21,-579.652"/>
<polygon fill="#9a32cd" stroke="#9a32cd" points="1452.3,-678.408 1442.52,-682.479 1452.71,-685.396 1452.3,-678.408"/>
<text text-anchor="middle" x="1531" y="-693" font-family="FreeSans" font-size="10.00"> bel_to_IJK</text>
<text text-anchor="middle" x="1531" y="-682" font-family="FreeSans" font-size="10.00">el_to_IJK</text>
</g>
<!-- Node29&#45;&gt;Node8 -->
<g id="edge96" class="edge"><title>Node29&#45;&gt;Node8</title>
<path fill="none" stroke="#9a32cd" stroke-dasharray="5,2" d="M1609.88,-200.484C1710.24,-196.454 1876.07,-196.086 1922,-234 1962.7,-267.602 1986.54,-442.994 1991.86,-486.317"/>
<polygon fill="#9a32cd" stroke="#9a32cd" points="1609.63,-196.992 1599.78,-200.911 1609.92,-203.986 1609.63,-196.992"/>
<text text-anchor="middle" x="1679" y="-202" font-family="FreeSans" font-size="10.00"> RefData</text>
</g>
<!-- Node30&#45;&gt;Node1 -->
<g id="edge108" class="edge"><title>Node30&#45;&gt;Node1</title>
<path fill="none" stroke="#9a32cd" stroke-dasharray="5,2" d="M1932.28,-159.255C1977.6,-154.707 2032.89,-148.049 2082,-139 2088.69,-137.768 2095.76,-136.183 2102.54,-134.525"/>
<polygon fill="#9a32cd" stroke="#9a32cd" points="1931.79,-155.787 1922.18,-160.251 1932.47,-162.753 1931.79,-155.787"/>
<text text-anchor="middle" x="1993" y="-193" font-family="FreeSans" font-size="10.00"> dbfi</text>
<text text-anchor="middle" x="1993" y="-182" font-family="FreeSans" font-size="10.00">bbfi</text>
<text text-anchor="middle" x="1993" y="-171" font-family="FreeSans" font-size="10.00">bfbfi</text>
<text text-anchor="middle" x="1993" y="-160" font-family="FreeSans" font-size="10.00">fbfi</text>
</g>
<!-- Node31&#45;&gt;Node1 -->
<g id="edge112" class="edge"><title>Node31&#45;&gt;Node1</title>
<path fill="none" stroke="#9a32cd" stroke-dasharray="5,2" d="M428.594,-125C470.748,-125 533.405,-125 588,-125 588,-125 588,-125 1993,-125 2029.5,-125 2071.2,-125 2100.3,-125"/>
<polygon fill="#9a32cd" stroke="#9a32cd" points="428.336,-121.5 418.336,-125 428.336,-128.5 428.336,-121.5"/>
<text text-anchor="middle" x="1279" y="-138" font-family="FreeSans" font-size="10.00"> mat</text>
<text text-anchor="middle" x="1279" y="-127" font-family="FreeSans" font-size="10.00">mat_e</text>
</g>
<!-- Node32 -->
<g id="node89" class="node"><title>Node32</title>
<a xlink:href="classRowNode.html" target="_top" xlink:title="RowNode">
<polygon fill="white" stroke="black" points="178,-135.5 178,-154.5 238,-154.5 238,-135.5 178,-135.5"/>
<text text-anchor="middle" x="208" y="-141.5" font-family="FreeSans" font-size="10.00">RowNode</text>
</a>
</g>
<!-- Node32&#45;&gt;Node31 -->
<g id="edge116" class="edge"><title>Node32&#45;&gt;Node31</title>
<path fill="none" stroke="#9a32cd" stroke-dasharray="5,2" d="M248.306,-140.313C276.551,-137.029 314.063,-132.667 341.825,-129.439"/>
<polygon fill="#9a32cd" stroke="#9a32cd" points="247.883,-136.839 238.354,-141.47 248.692,-143.792 247.883,-136.839"/>
<text text-anchor="middle" x="285" y="-150" font-family="FreeSans" font-size="10.00"> Node</text>
<text text-anchor="middle" x="285" y="-139" font-family="FreeSans" font-size="10.00">Rows</text>
</g>
<!-- Node32&#45;&gt;Node32 -->
<g id="edge118" class="edge"><title>Node32&#45;&gt;Node32</title>
<path fill="none" stroke="#9a32cd" stroke-dasharray="5,2" d="M194.004,-164.766C195.103,-169.497 199.769,-173 208,-173 221.508,-173 225.412,-163.565 219.714,-154.757"/>
<polygon fill="#9a32cd" stroke="#9a32cd" points="197.476,-165.285 196.286,-154.757 190.651,-163.729 197.476,-165.285"/>
<text text-anchor="middle" x="208" y="-175" font-family="FreeSans" font-size="10.00"> Prev</text>
</g>
</g>
</svg>
        <g id="navigator" transform="translate(0 0)" fill="#404254">
                <rect fill="#f2f5e9" fill-opacity="0.5" stroke="#606060" stroke-width=".5" x="0" y="0" width="60" height="60"/>
                <use id="zoomplus" xlink:href="#zoomPlus" x="17" y="9" onmousedown="handleZoom(evt,'in')"/>
                <use id="zoomminus" xlink:href="#zoomMin" x="42" y="9" onmousedown="handleZoom(evt,'out')"/>
                <use id="reset" xlink:href="#resetDef" x="30" y="36" onmousedown="handleReset()"/>
                <g id="arrowUp" xlink:href="#dirArrow" transform="translate(30 24)" onmousedown="handlePan(0,-1)">
                  <use xlink:href="#rim" fill="#404040">
                        <set attributeName="fill" to="#808080" begin="arrowUp.mouseover" end="arrowUp.mouseout"/>
                  </use>
                  <path fill="none" stroke="white" stroke-width="1.5" d="M0,-3.0v7 M-2.5,-0.5L0,-3.0L2.5,-0.5"/>
                </g>
                <g id="arrowRight" xlink:href="#dirArrow" transform="rotate(90) translate(36 -43)" onmousedown="handlePan(1,0)">
                  <use xlink:href="#rim" fill="#404040">
                        <set attributeName="fill" to="#808080" begin="arrowRight.mouseover" end="arrowRight.mouseout"/>
                  </use>
                  <path fill="none" stroke="white" stroke-width="1.5" d="M0,-3.0v7 M-2.5,-0.5L0,-3.0L2.5,-0.5"/>
                </g>
                <g id="arrowDown" xlink:href="#dirArrow" transform="rotate(180) translate(-30 -48)" onmousedown="handlePan(0,1)">
                  <use xlink:href="#rim" fill="#404040">
                        <set attributeName="fill" to="#808080" begin="arrowDown.mouseover" end="arrowDown.mouseout"/>
                  </use>
                  <path fill="none" stroke="white" stroke-width="1.5" d="M0,-3.0v7 M-2.5,-0.5L0,-3.0L2.5,-0.5"/>
                </g>
                <g id="arrowLeft" xlink:href="#dirArrow" transform="rotate(270) translate(-36 17)" onmousedown="handlePan(-1,0)">
                  <use xlink:href="#rim" fill="#404040">
                        <set attributeName="fill" to="#808080" begin="arrowLeft.mouseover" end="arrowLeft.mouseout"/>
                  </use>
                  <path fill="none" stroke="white" stroke-width="1.5" d="M0,-3.0v7 M-2.5,-0.5L0,-3.0L2.5,-0.5"/>
                </g>
        </g>
</svg>
