<?xml version="1.0" encoding="UTF-8" standalone="no"?>
<!DOCTYPE svg PUBLIC "-//W3C//DTD SVG 1.1//EN"
 "http://www.w3.org/Graphics/SVG/1.1/DTD/svg11.dtd">
<!-- Generated by graphviz version 2.40.1 (20161225.0304)
 -->
<!-- Title: mfem::BlockDiagonalPreconditioner Pages: 1 -->
<svg width="247pt" height="149pt"
 viewBox="0.00 0.00 246.55 149.00" xmlns="http://www.w3.org/2000/svg" xmlns:xlink="http://www.w3.org/1999/xlink">
<g id="graph0" class="graph" transform="scale(1 1) rotate(0) translate(4 145)">
<title>mfem::BlockDiagonalPreconditioner</title>
<polygon fill="#ffffff" stroke="transparent" points="-4,4 -4,-145 242.5508,-145 242.5508,4 -4,4"/>
<!-- Node3 -->
<g id="node1" class="node">
<title>Node3</title>
<polygon fill="#bfbfbf" stroke="#000000" points="0,-.5 0,-22.5 238.5508,-22.5 238.5508,-.5 0,-.5"/>
<text text-anchor="middle" x="119.2754" y="-7.3" font-family="Helvetica,sans-Serif" font-size="14.00" fill="#000000">mfem::BlockDiagonalPreconditioner</text>
</g>
<!-- Node4 -->
<g id="node2" class="node">
<title>Node4</title>
<g id="a_node2"><a xlink:href="classmfem_1_1Solver.html" target="_top" xlink:title="Base class for solvers. ">
<polygon fill="#ffffff" stroke="#000000" points="70.0444,-59.5 70.0444,-81.5 168.5063,-81.5 168.5063,-59.5 70.0444,-59.5"/>
<text text-anchor="middle" x="119.2754" y="-66.3" font-family="Helvetica,sans-Serif" font-size="14.00" fill="#000000">mfem::Solver</text>
</a>
</g>
</g>
<!-- Node4&#45;&gt;Node3 -->
<g id="edge1" class="edge">
<title>Node4&#45;&gt;Node3</title>
<path fill="none" stroke="#191970" d="M119.2754,-49.198C119.2754,-40.1726 119.2754,-30.0351 119.2754,-22.5477"/>
<polygon fill="#191970" stroke="#191970" points="115.7755,-49.4025 119.2754,-59.4026 122.7755,-49.4026 115.7755,-49.4025"/>
</g>
<!-- Node5 -->
<g id="node3" class="node">
<title>Node5</title>
<g id="a_node3"><a xlink:href="classmfem_1_1Operator.html" target="_top" xlink:title="Abstract operator. ">
<polygon fill="#ffffff" stroke="#000000" points="62.2617,-118.5 62.2617,-140.5 176.2891,-140.5 176.2891,-118.5 62.2617,-118.5"/>
<text text-anchor="middle" x="119.2754" y="-125.3" font-family="Helvetica,sans-Serif" font-size="14.00" fill="#000000">mfem::Operator</text>
</a>
</g>
</g>
<!-- Node5&#45;&gt;Node4 -->
<g id="edge2" class="edge">
<title>Node5&#45;&gt;Node4</title>
<path fill="none" stroke="#191970" d="M119.2754,-108.198C119.2754,-99.1726 119.2754,-89.0351 119.2754,-81.5477"/>
<polygon fill="#191970" stroke="#191970" points="115.7755,-108.4025 119.2754,-118.4026 122.7755,-108.4026 115.7755,-108.4025"/>
</g>
</g>
</svg>
