<?xml version="1.0" encoding="UTF-8" standalone="no"?>
<!DOCTYPE svg PUBLIC "-//W3C//DTD SVG 1.1//EN"
 "http://www.w3.org/Graphics/SVG/1.1/DTD/svg11.dtd">
<!-- Generated by graphviz version 2.40.1 (20161225.0304)
 -->
<!-- Title: mfem::MixedBilinearForm Pages: 1 -->
<!--zoomable 413 -->
<svg id="main" version="1.1" xmlns="http://www.w3.org/2000/svg" xmlns:xlink="http://www.w3.org/1999/xlink" xml:space="preserve" onload="init(evt)">
<style type="text/css"><![CDATA[
.edge:hover path { stroke: red; }
.edge:hover polygon { stroke: red; fill: red; }
]]></style>
<script type="text/javascript"><![CDATA[
var edges = document.getElementsByTagName('g');
if (edges && edges.length) {
  for (var i=0;i<edges.length;i++) {
    if (edges[i].id.substr(0,4)=='edge') {
      edges[i].setAttribute('class','edge');
    }
  }
}
]]></script>
        <defs>
                <circle id="rim" cx="0" cy="0" r="7"/>
                <circle id="rim2" cx="0" cy="0" r="3.5"/>
                <g id="zoomPlus">
                        <use xlink:href="#rim" fill="#404040">
                                <set attributeName="fill" to="#808080" begin="zoomplus.mouseover" end="zoomplus.mouseout"/>
                        </use>
                        <path d="M-4,0h8M0,-4v8" fill="none" stroke="white" stroke-width="1.5" pointer-events="none"/>
                </g>
                <g id="zoomMin">
                        <use xlink:href="#rim" fill="#404040">
                                <set attributeName="fill" to="#808080" begin="zoomminus.mouseover" end="zoomminus.mouseout"/>
                        </use>
                        <path d="M-4,0h8" fill="none" stroke="white" stroke-width="1.5" pointer-events="none"/>
                </g>
                <g id="dirArrow">
                        <path fill="none" stroke="white" stroke-width="1.5" d="M0,-3.0v7 M-2.5,-0.5L0,-3.0L2.5,-0.5"/>
                </g>
               <g id="resetDef">
                       <use xlink:href="#rim2" fill="#404040">
                               <set attributeName="fill" to="#808080" begin="reset.mouseover" end="reset.mouseout"/>
                       </use>
               </g>
        </defs>

<script type="text/javascript">
var viewWidth = 530;
var viewHeight = 413;
var sectionId = 'dynsection-0';
</script>
<script xlink:href="svgpan.js"/>
<svg id="graph" class="graph">
<g id="viewport">
<title>mfem::MixedBilinearForm</title>
<polygon fill="#ffffff" stroke="transparent" points="-4,4 -4,-409 526.4893,-409 526.4893,4 -4,4"/>
<!-- Node0 -->
<g id="node1" class="node">
<title>Node0</title>
<polygon fill="#bfbfbf" stroke="#000000" points="226.1206,-264.5 226.1206,-286.5 401.5962,-286.5 401.5962,-264.5 226.1206,-264.5"/>
<text text-anchor="middle" x="313.8584" y="-271.3" font-family="Helvetica,sans-Serif" font-size="14.00" fill="#000000">mfem::MixedBilinearForm</text>
</g>
<!-- Node3 -->
<g id="node4" class="node">
<title>Node3</title>
<g id="a_node4"><a xlink:href="classmfem_1_1DiscreteLinearOperator.html" target="_top" xlink:title="mfem::DiscreteLinearOperator">
<polygon fill="#ffffff" stroke="#000000" points="102.7139,-205.5 102.7139,-227.5 307.0029,-227.5 307.0029,-205.5 102.7139,-205.5"/>
<text text-anchor="middle" x="204.8584" y="-212.3" font-family="Helvetica,sans-Serif" font-size="14.00" fill="#000000">mfem::DiscreteLinearOperator</text>
</a>
</g>
</g>
<!-- Node0&#45;&gt;Node3 -->
<g id="edge3" class="edge">
<title>Node0&#45;&gt;Node3</title>
<path fill="none" stroke="#191970" d="M284.36,-259.533C265.647,-249.4039 241.9134,-236.5573 225.2685,-227.5477"/>
<polygon fill="#191970" stroke="#191970" points="282.8959,-262.7203 293.3563,-264.4026 286.2281,-256.5642 282.8959,-262.7203"/>
</g>
<!-- Node9 -->
<g id="node9" class="node">
<title>Node9</title>
<g id="a_node9"><a xlink:href="classmfem_1_1ParMixedBilinearForm.html" target="_top" xlink:title="Class for parallel bilinear form using different test and trial FE spaces. ">
<polygon fill="#ffffff" stroke="#000000" points="325.2275,-205.5 325.2275,-227.5 522.4893,-227.5 522.4893,-205.5 325.2275,-205.5"/>
<text text-anchor="middle" x="423.8584" y="-212.3" font-family="Helvetica,sans-Serif" font-size="14.00" fill="#000000">mfem::ParMixedBilinearForm</text>
</a>
</g>
</g>
<!-- Node0&#45;&gt;Node9 -->
<g id="edge8" class="edge">
<title>Node0&#45;&gt;Node9</title>
<path fill="none" stroke="#191970" d="M343.3691,-259.6715C362.2933,-249.5213 386.3867,-236.5984 403.261,-227.5477"/>
<polygon fill="#191970" stroke="#191970" points="341.7066,-256.5915 334.5486,-264.4026 345.0153,-262.7602 341.7066,-256.5915"/>
</g>
<!-- Node1 -->
<g id="node2" class="node">
<title>Node1</title>
<g id="a_node2"><a xlink:href="classmfem_1_1Matrix.html" target="_top" xlink:title="Abstract data type matrix. ">
<polygon fill="#ffffff" stroke="#000000" points="265.4136,-323.5 265.4136,-345.5 362.3032,-345.5 362.3032,-323.5 265.4136,-323.5"/>
<text text-anchor="middle" x="313.8584" y="-330.3" font-family="Helvetica,sans-Serif" font-size="14.00" fill="#000000">mfem::Matrix</text>
</a>
</g>
</g>
<!-- Node1&#45;&gt;Node0 -->
<g id="edge1" class="edge">
<title>Node1&#45;&gt;Node0</title>
<path fill="none" stroke="#191970" d="M313.8584,-313.198C313.8584,-304.1726 313.8584,-294.0351 313.8584,-286.5477"/>
<polygon fill="#191970" stroke="#191970" points="310.3585,-313.4025 313.8584,-323.4026 317.3585,-313.4026 310.3585,-313.4025"/>
</g>
<!-- Node2 -->
<g id="node3" class="node">
<title>Node2</title>
<g id="a_node3"><a xlink:href="classmfem_1_1Operator.html" target="_top" xlink:title="Abstract operator. ">
<polygon fill="#ffffff" stroke="#000000" points="256.8447,-382.5 256.8447,-404.5 370.8721,-404.5 370.8721,-382.5 256.8447,-382.5"/>
<text text-anchor="middle" x="313.8584" y="-389.3" font-family="Helvetica,sans-Serif" font-size="14.00" fill="#000000">mfem::Operator</text>
</a>
</g>
</g>
<!-- Node2&#45;&gt;Node1 -->
<g id="edge2" class="edge">
<title>Node2&#45;&gt;Node1</title>
<path fill="none" stroke="#191970" d="M313.8584,-372.198C313.8584,-363.1726 313.8584,-353.0351 313.8584,-345.5477"/>
<polygon fill="#191970" stroke="#191970" points="310.3585,-372.4025 313.8584,-382.4026 317.3585,-372.4026 310.3585,-372.4025"/>
</g>
<!-- Node4 -->
<g id="node5" class="node">
<title>Node4</title>
<g id="a_node5"><a xlink:href="classmfem_1_1ParDiscreteLinearOperator.html" target="_top" xlink:title="mfem::ParDiscreteLinearOperator">
<polygon fill="#ffffff" stroke="#000000" points="91.8208,-146.5 91.8208,-168.5 317.896,-168.5 317.896,-146.5 91.8208,-146.5"/>
<text text-anchor="middle" x="204.8584" y="-153.3" font-family="Helvetica,sans-Serif" font-size="14.00" fill="#000000">mfem::ParDiscreteLinearOperator</text>
</a>
</g>
</g>
<!-- Node3&#45;&gt;Node4 -->
<g id="edge4" class="edge">
<title>Node3&#45;&gt;Node4</title>
<path fill="none" stroke="#191970" d="M204.8584,-195.198C204.8584,-186.1726 204.8584,-176.0351 204.8584,-168.5477"/>
<polygon fill="#191970" stroke="#191970" points="201.3585,-195.4025 204.8584,-205.4026 208.3585,-195.4026 201.3585,-195.4025"/>
</g>
<!-- Node5 -->
<g id="node6" class="node">
<title>Node5</title>
<g id="a_node6"><a xlink:href="classmfem_1_1miniapps_1_1ParDiscreteInterpolationOperator.html" target="_top" xlink:title="mfem::miniapps::ParDiscrete\lInterpolationOperator">
<polygon fill="#ffffff" stroke="#ff0000" points="107,-73.5 107,-109.5 302.7168,-109.5 302.7168,-73.5 107,-73.5"/>
<text text-anchor="start" x="115" y="-94.3" font-family="Helvetica,sans-Serif" font-size="14.00" fill="#000000">mfem::miniapps::ParDiscrete</text>
<text text-anchor="middle" x="204.8584" y="-80.3" font-family="Helvetica,sans-Serif" font-size="14.00" fill="#000000">InterpolationOperator</text>
</a>
</g>
</g>
<!-- Node4&#45;&gt;Node5 -->
<g id="edge5" class="edge">
<title>Node4&#45;&gt;Node5</title>
<path fill="none" stroke="#191970" d="M204.8584,-136.0379C204.8584,-127.5464 204.8584,-117.8888 204.8584,-109.7423"/>
<polygon fill="#191970" stroke="#191970" points="201.3585,-136.304 204.8584,-146.304 208.3585,-136.304 201.3585,-136.304"/>
</g>
<!-- Node6 -->
<g id="node7" class="node">
<title>Node6</title>
<g id="a_node7"><a xlink:href="classmfem_1_1miniapps_1_1ParDiscreteCurlOperator.html" target="_top" xlink:title="mfem::miniapps::ParDiscrete\lCurlOperator">
<polygon fill="#ffffff" stroke="#000000" points="0,-.5 0,-36.5 195.7168,-36.5 195.7168,-.5 0,-.5"/>
<text text-anchor="start" x="8" y="-21.3" font-family="Helvetica,sans-Serif" font-size="14.00" fill="#000000">mfem::miniapps::ParDiscrete</text>
<text text-anchor="middle" x="97.8584" y="-7.3" font-family="Helvetica,sans-Serif" font-size="14.00" fill="#000000">CurlOperator</text>
</a>
</g>
</g>
<!-- Node5&#45;&gt;Node6 -->
<g id="edge6" class="edge">
<title>Node5&#45;&gt;Node6</title>
<path fill="none" stroke="#191970" d="M169.9732,-67.6998C155.1487,-57.5859 138.1458,-45.9858 124.3744,-36.5904"/>
<polygon fill="#191970" stroke="#191970" points="168.1758,-70.7105 178.409,-73.4551 172.1208,-64.928 168.1758,-70.7105"/>
</g>
<!-- Node7 -->
<g id="node8" class="node">
<title>Node7</title>
<g id="a_node8"><a xlink:href="classmfem_1_1miniapps_1_1ParDiscreteDivOperator.html" target="_top" xlink:title="mfem::miniapps::ParDiscrete\lDivOperator">
<polygon fill="#ffffff" stroke="#000000" points="214,-.5 214,-36.5 409.7168,-36.5 409.7168,-.5 214,-.5"/>
<text text-anchor="start" x="222" y="-21.3" font-family="Helvetica,sans-Serif" font-size="14.00" fill="#000000">mfem::miniapps::ParDiscrete</text>
<text text-anchor="middle" x="311.8584" y="-7.3" font-family="Helvetica,sans-Serif" font-size="14.00" fill="#000000">DivOperator</text>
</a>
</g>
</g>
<!-- Node5&#45;&gt;Node7 -->
<g id="edge7" class="edge">
<title>Node5&#45;&gt;Node7</title>
<path fill="none" stroke="#191970" d="M239.7436,-67.6998C254.5681,-57.5859 271.571,-45.9858 285.3424,-36.5904"/>
<polygon fill="#191970" stroke="#191970" points="237.596,-64.928 231.3078,-73.4551 241.541,-70.7105 237.596,-64.928"/>
</g>
</g>
</svg>
        <g id="navigator" transform="translate(0 0)" fill="#404254">
                <rect fill="#f2f5e9" fill-opacity="0.5" stroke="#606060" stroke-width=".5" x="0" y="0" width="60" height="60"/>
                <use id="zoomplus" xlink:href="#zoomPlus" x="17" y="9" onmousedown="handleZoom(evt,'in')"/>
                <use id="zoomminus" xlink:href="#zoomMin" x="42" y="9" onmousedown="handleZoom(evt,'out')"/>
                <use id="reset" xlink:href="#resetDef" x="30" y="36" onmousedown="handleReset()"/>
                <g id="arrowUp" xlink:href="#dirArrow" transform="translate(30 24)" onmousedown="handlePan(0,-1)">
                  <use xlink:href="#rim" fill="#404040">
                        <set attributeName="fill" to="#808080" begin="arrowUp.mouseover" end="arrowUp.mouseout"/>
                  </use>
                  <path fill="none" stroke="white" stroke-width="1.5" d="M0,-3.0v7 M-2.5,-0.5L0,-3.0L2.5,-0.5"/>
                </g>
                <g id="arrowRight" xlink:href="#dirArrow" transform="rotate(90) translate(36 -43)" onmousedown="handlePan(1,0)">
                  <use xlink:href="#rim" fill="#404040">
                        <set attributeName="fill" to="#808080" begin="arrowRight.mouseover" end="arrowRight.mouseout"/>
                  </use>
                  <path fill="none" stroke="white" stroke-width="1.5" d="M0,-3.0v7 M-2.5,-0.5L0,-3.0L2.5,-0.5"/>
                </g>
                <g id="arrowDown" xlink:href="#dirArrow" transform="rotate(180) translate(-30 -48)" onmousedown="handlePan(0,1)">
                  <use xlink:href="#rim" fill="#404040">
                        <set attributeName="fill" to="#808080" begin="arrowDown.mouseover" end="arrowDown.mouseout"/>
                  </use>
                  <path fill="none" stroke="white" stroke-width="1.5" d="M0,-3.0v7 M-2.5,-0.5L0,-3.0L2.5,-0.5"/>
                </g>
                <g id="arrowLeft" xlink:href="#dirArrow" transform="rotate(270) translate(-36 17)" onmousedown="handlePan(-1,0)">
                  <use xlink:href="#rim" fill="#404040">
                        <set attributeName="fill" to="#808080" begin="arrowLeft.mouseover" end="arrowLeft.mouseout"/>
                  </use>
                  <path fill="none" stroke="white" stroke-width="1.5" d="M0,-3.0v7 M-2.5,-0.5L0,-3.0L2.5,-0.5"/>
                </g>
        </g>
        <svg viewBox="0 0 15 15" width="100%" height="30px" preserveAspectRatio="xMaxYMin meet">
         <g id="arrow_out" transform="scale(0.3 0.3)">
          <a xlink:href="classmfem_1_1MixedBilinearForm__inherit__graph_org.svg" target="_base">
           <rect id="button" ry="5" rx="5" y="6" x="6" height="38" width="38"
                fill="#f2f5e9" fill-opacity="0.5" stroke="#606060" stroke-width="1.0"/>
           <path id="arrow"
             d="M 11.500037,31.436501 C 11.940474,20.09759 22.043105,11.32322 32.158766,21.979434 L 37.068811,17.246167 C 37.068811,17.246167 37.088388,32 37.088388,32 L 22.160133,31.978069 C 22.160133,31.978069 26.997745,27.140456 26.997745,27.140456 C 18.528582,18.264221 13.291696,25.230495 11.500037,31.436501 z"
             style="fill:#404040;"/>
          </a>
         </g>
        </svg>
</svg>
