<?xml version="1.0" encoding="UTF-8" standalone="no"?>
<!DOCTYPE svg PUBLIC "-//W3C//DTD SVG 1.1//EN"
 "http://www.w3.org/Graphics/SVG/1.1/DTD/svg11.dtd">
<!-- Generated by graphviz version 2.40.1 (20161225.0304)
 -->
<!-- Title: mfem::RT_HexahedronElement Pages: 1 -->
<svg width="221pt" height="149pt"
 viewBox="0.00 0.00 220.62 149.00" xmlns="http://www.w3.org/2000/svg" xmlns:xlink="http://www.w3.org/1999/xlink">
<g id="graph0" class="graph" transform="scale(1 1) rotate(0) translate(4 145)">
<title>mfem::RT_HexahedronElement</title>
<polygon fill="#ffffff" stroke="transparent" points="-4,4 -4,-145 216.6152,-145 216.6152,4 -4,4"/>
<!-- Node0 -->
<g id="node1" class="node">
<title>Node0</title>
<polygon fill="#bfbfbf" stroke="#000000" points="0,-.5 0,-22.5 212.6152,-22.5 212.6152,-.5 0,-.5"/>
<text text-anchor="middle" x="106.3076" y="-7.3" font-family="Helvetica,sans-Serif" font-size="14.00" fill="#000000">mfem::RT_HexahedronElement</text>
</g>
<!-- Node1 -->
<g id="node2" class="node">
<title>Node1</title>
<g id="a_node2"><a xlink:href="classmfem_1_1VectorFiniteElement.html" target="_top" xlink:title="mfem::VectorFiniteElement">
<polygon fill="#ffffff" stroke="#000000" points="14.2734,-59.5 14.2734,-81.5 198.3418,-81.5 198.3418,-59.5 14.2734,-59.5"/>
<text text-anchor="middle" x="106.3076" y="-66.3" font-family="Helvetica,sans-Serif" font-size="14.00" fill="#000000">mfem::VectorFiniteElement</text>
</a>
</g>
</g>
<!-- Node1&#45;&gt;Node0 -->
<g id="edge1" class="edge">
<title>Node1&#45;&gt;Node0</title>
<path fill="none" stroke="#191970" d="M106.3076,-49.198C106.3076,-40.1726 106.3076,-30.0351 106.3076,-22.5477"/>
<polygon fill="#191970" stroke="#191970" points="102.8077,-49.4025 106.3076,-59.4026 109.8077,-49.4026 102.8077,-49.4025"/>
</g>
<!-- Node2 -->
<g id="node3" class="node">
<title>Node2</title>
<g id="a_node3"><a xlink:href="classmfem_1_1FiniteElement.html" target="_top" xlink:title="Abstract class for Finite Elements. ">
<polygon fill="#ffffff" stroke="#000000" points="34.1216,-118.5 34.1216,-140.5 178.4937,-140.5 178.4937,-118.5 34.1216,-118.5"/>
<text text-anchor="middle" x="106.3076" y="-125.3" font-family="Helvetica,sans-Serif" font-size="14.00" fill="#000000">mfem::FiniteElement</text>
</a>
</g>
</g>
<!-- Node2&#45;&gt;Node1 -->
<g id="edge2" class="edge">
<title>Node2&#45;&gt;Node1</title>
<path fill="none" stroke="#191970" d="M106.3076,-108.198C106.3076,-99.1726 106.3076,-89.0351 106.3076,-81.5477"/>
<polygon fill="#191970" stroke="#191970" points="102.8077,-108.4025 106.3076,-118.4026 109.8077,-108.4026 102.8077,-108.4025"/>
</g>
</g>
</svg>
