<?xml version="1.0" encoding="UTF-8" standalone="no"?>
<!DOCTYPE svg PUBLIC "-//W3C//DTD SVG 1.1//EN"
 "http://www.w3.org/Graphics/SVG/1.1/DTD/svg11.dtd">
<!-- Generated by graphviz version 2.30.1 (20140821.0912)
 -->
<!-- Title: mfem::VectorDeltaCoefficient Pages: 1 -->
<svg width="460pt" height="184pt"
 viewBox="0.00 0.00 460.00 184.00" xmlns="http://www.w3.org/2000/svg" xmlns:xlink="http://www.w3.org/1999/xlink">
<g id="graph0" class="graph" transform="scale(1 1) rotate(0) translate(4 180)">
<title>mfem::VectorDeltaCoefficient</title>
<polygon fill="white" stroke="white" points="-4,5 -4,-180 457,-180 457,5 -4,5"/>
<!-- Node1 -->
<g id="node1" class="node"><title>Node1</title>
<polygon fill="#bfbfbf" stroke="black" points="161,-0.5 161,-23.5 355,-23.5 355,-0.5 161,-0.5"/>
<text text-anchor="middle" x="258" y="-8.3" font-family="Helvetica,sans-Serif" font-size="14.00">mfem::VectorDeltaCoefficient</text>
</g>
<!-- Node2 -->
<g id="node2" class="node"><title>Node2</title>
<g id="a_node2"><a xlink:href="classmfem_1_1VectorCoefficient.html" target="_top" xlink:title="mfem::VectorCoefficient">
<polygon fill="white" stroke="black" points="0,-76.5 0,-99.5 162,-99.5 162,-76.5 0,-76.5"/>
<text text-anchor="middle" x="81" y="-84.3" font-family="Helvetica,sans-Serif" font-size="14.00">mfem::VectorCoefficient</text>
</a>
</g>
</g>
<!-- Node2&#45;&gt;Node1 -->
<g id="edge1" class="edge"><title>Node2&#45;&gt;Node1</title>
<path fill="none" stroke="midnightblue" d="M116.007,-72.3642C150.414,-57.9796 202.084,-36.3772 232.687,-23.5827"/>
<polygon fill="midnightblue" stroke="midnightblue" points="114.236,-69.3111 106.36,-76.3976 116.936,-75.7694 114.236,-69.3111"/>
</g>
<!-- Node3 -->
<g id="node3" class="node"><title>Node3</title>
<g id="a_node3"><a xlink:href="classmfem_1_1DeltaCoefficient.html" target="_top" xlink:title="Delta function coefficient. ">
<polygon fill="white" stroke="black" points="180.5,-76.5 180.5,-99.5 335.5,-99.5 335.5,-76.5 180.5,-76.5"/>
<text text-anchor="middle" x="258" y="-84.3" font-family="Helvetica,sans-Serif" font-size="14.00">mfem::DeltaCoefficient</text>
</a>
</g>
</g>
<!-- Node3&#45;&gt;Node1 -->
<g id="edge2" class="edge"><title>Node3&#45;&gt;Node1</title>
<path fill="none" stroke="#9a32cd" stroke-dasharray="5,2" d="M258,-66.2771C258,-52.3872 258,-34.675 258,-23.5827"/>
<polygon fill="#9a32cd" stroke="#9a32cd" points="254.5,-66.3976 258,-76.3976 261.5,-66.3976 254.5,-66.3976"/>
<text text-anchor="middle" x="264" y="-46.3" font-family="Helvetica,sans-Serif" font-size="14.00"> d</text>
</g>
<!-- Node4 -->
<g id="node4" class="node"><title>Node4</title>
<g id="a_node4"><a xlink:href="classmfem_1_1Coefficient.html" target="_top" xlink:title="Base class Coefficient that may optionally depend on time. ">
<polygon fill="white" stroke="black" points="196.5,-152.5 196.5,-175.5 319.5,-175.5 319.5,-152.5 196.5,-152.5"/>
<text text-anchor="middle" x="258" y="-160.3" font-family="Helvetica,sans-Serif" font-size="14.00">mfem::Coefficient</text>
</a>
</g>
</g>
<!-- Node4&#45;&gt;Node3 -->
<g id="edge3" class="edge"><title>Node4&#45;&gt;Node3</title>
<path fill="none" stroke="midnightblue" d="M256.391,-142.178C256.229,-139.429 256.091,-136.648 256,-134 255.755,-126.893 255.755,-125.107 256,-118 256.208,-111.948 256.661,-105.197 257.083,-99.7331"/>
<polygon fill="midnightblue" stroke="midnightblue" points="252.907,-142.53 257.083,-152.267 259.89,-142.051 252.907,-142.53"/>
</g>
<!-- Node4&#45;&gt;Node3 -->
<g id="edge4" class="edge"><title>Node4&#45;&gt;Node3</title>
<path fill="none" stroke="#9a32cd" stroke-dasharray="5,2" d="M258,-142.277C258,-128.387 258,-110.675 258,-99.5827"/>
<polygon fill="#9a32cd" stroke="#9a32cd" points="254.5,-142.398 258,-152.398 261.5,-142.398 254.5,-142.398"/>
<text text-anchor="middle" x="279.5" y="-122.3" font-family="Helvetica,sans-Serif" font-size="14.00"> weight</text>
</g>
<!-- Node5 -->
<g id="node5" class="node"><title>Node5</title>
<g id="a_node5"><a xlink:href="classmfem_1_1Vector.html" target="_top" xlink:title="Vector data type. ">
<polygon fill="white" stroke="black" points="354,-76.5 354,-99.5 452,-99.5 452,-76.5 354,-76.5"/>
<text text-anchor="middle" x="403" y="-84.3" font-family="Helvetica,sans-Serif" font-size="14.00">mfem::Vector</text>
</a>
</g>
</g>
<!-- Node5&#45;&gt;Node1 -->
<g id="edge5" class="edge"><title>Node5&#45;&gt;Node1</title>
<path fill="none" stroke="#9a32cd" stroke-dasharray="5,2" d="M373.226,-71.805C345.048,-57.4247 303.484,-36.2125 278.736,-23.5827"/>
<polygon fill="#9a32cd" stroke="#9a32cd" points="371.727,-74.9693 382.225,-76.3976 374.909,-68.7344 371.727,-74.9693"/>
<text text-anchor="middle" x="353.5" y="-46.3" font-family="Helvetica,sans-Serif" font-size="14.00"> dir</text>
</g>
</g>
</svg>
