<?xml version="1.0" encoding="UTF-8" standalone="no"?>
<!DOCTYPE svg PUBLIC "-//W3C//DTD SVG 1.1//EN"
 "http://www.w3.org/Graphics/SVG/1.1/DTD/svg11.dtd">
<!-- Generated by graphviz version 2.30.1 (20140821.0912)
 -->
<!-- Title: mfem::HypreSolver Pages: 1 -->
<svg width="451pt" height="184pt"
 viewBox="0.00 0.00 451.00 184.00" xmlns="http://www.w3.org/2000/svg" xmlns:xlink="http://www.w3.org/1999/xlink">
<g id="graph0" class="graph" transform="scale(1 1) rotate(0) translate(4 180)">
<title>mfem::HypreSolver</title>
<polygon fill="white" stroke="white" points="-4,5 -4,-180 448,-180 448,5 -4,5"/>
<!-- Node1 -->
<g id="node1" class="node"><title>Node1</title>
<polygon fill="#bfbfbf" stroke="black" points="126,-0.5 126,-23.5 260,-23.5 260,-0.5 126,-0.5"/>
<text text-anchor="middle" x="193" y="-8.3" font-family="Helvetica,sans-Serif" font-size="14.00">mfem::HypreSolver</text>
</g>
<!-- Node2 -->
<g id="node2" class="node"><title>Node2</title>
<g id="a_node2"><a xlink:href="classmfem_1_1Solver.html" target="_top" xlink:title="Base class for solvers. ">
<polygon fill="white" stroke="black" points="0,-90.5 0,-113.5 98,-113.5 98,-90.5 0,-90.5"/>
<text text-anchor="middle" x="49" y="-98.3" font-family="Helvetica,sans-Serif" font-size="14.00">mfem::Solver</text>
</a>
</g>
</g>
<!-- Node2&#45;&gt;Node1 -->
<g id="edge1" class="edge"><title>Node2&#45;&gt;Node1</title>
<path fill="none" stroke="midnightblue" d="M75.1773,-85.0028C104.307,-67.2011 150.559,-38.9361 175.569,-23.6525"/>
<polygon fill="midnightblue" stroke="midnightblue" points="73.0775,-82.1841 66.3698,-90.3851 76.7277,-88.1571 73.0775,-82.1841"/>
</g>
<!-- Node3 -->
<g id="node3" class="node"><title>Node3</title>
<g id="a_node3"><a xlink:href="classmfem_1_1Operator.html" target="_top" xlink:title="Abstract operator. ">
<polygon fill="white" stroke="black" points="64.5,-152.5 64.5,-175.5 177.5,-175.5 177.5,-152.5 64.5,-152.5"/>
<text text-anchor="middle" x="121" y="-160.3" font-family="Helvetica,sans-Serif" font-size="14.00">mfem::Operator</text>
</a>
</g>
</g>
<!-- Node3&#45;&gt;Node2 -->
<g id="edge2" class="edge"><title>Node3&#45;&gt;Node2</title>
<path fill="none" stroke="midnightblue" d="M100.102,-145.585C87.6994,-135.25 72.376,-122.48 61.7607,-113.634"/>
<polygon fill="midnightblue" stroke="midnightblue" points="98.205,-148.56 108.128,-152.273 102.686,-143.183 98.205,-148.56"/>
</g>
<!-- Node4 -->
<g id="node4" class="node"><title>Node4</title>
<g id="a_node4"><a xlink:href="classmfem_1_1HypreParMatrix.html" target="_top" xlink:title="Wrapper for hypre&#39;s ParCSR matrix class. ">
<polygon fill="white" stroke="black" points="116,-90.5 116,-113.5 270,-113.5 270,-90.5 116,-90.5"/>
<text text-anchor="middle" x="193" y="-98.3" font-family="Helvetica,sans-Serif" font-size="14.00">mfem::HypreParMatrix</text>
</a>
</g>
</g>
<!-- Node3&#45;&gt;Node4 -->
<g id="edge4" class="edge"><title>Node3&#45;&gt;Node4</title>
<path fill="none" stroke="midnightblue" d="M141.898,-145.585C154.301,-135.25 169.624,-122.48 180.239,-113.634"/>
<polygon fill="midnightblue" stroke="midnightblue" points="139.314,-143.183 133.872,-152.273 143.795,-148.56 139.314,-143.183"/>
</g>
<!-- Node4&#45;&gt;Node1 -->
<g id="edge3" class="edge"><title>Node4&#45;&gt;Node1</title>
<path fill="none" stroke="#9a32cd" stroke-dasharray="5,2" d="M193,-79.9639C193,-62.2023 193,-37.5043 193,-23.6039"/>
<polygon fill="#9a32cd" stroke="#9a32cd" points="189.5,-80.2094 193,-90.2095 196.5,-80.2095 189.5,-80.2094"/>
<text text-anchor="middle" x="199.5" y="-53.3" font-family="Helvetica,sans-Serif" font-size="14.00"> A</text>
</g>
<!-- Node5 -->
<g id="node5" class="node"><title>Node5</title>
<g id="a_node5"><a xlink:href="classmfem_1_1HypreParVector.html" target="_top" xlink:title="Wrapper for hypre&#39;s parallel vector class. ">
<polygon fill="white" stroke="black" points="288.5,-90.5 288.5,-113.5 443.5,-113.5 443.5,-90.5 288.5,-90.5"/>
<text text-anchor="middle" x="366" y="-98.3" font-family="Helvetica,sans-Serif" font-size="14.00">mfem::HypreParVector</text>
</a>
</g>
</g>
<!-- Node5&#45;&gt;Node1 -->
<g id="edge5" class="edge"><title>Node5&#45;&gt;Node1</title>
<path fill="none" stroke="#9a32cd" stroke-dasharray="5,2" d="M335.877,-85.6775C300.87,-67.8703 244.035,-38.9602 213.673,-23.5155"/>
<polygon fill="#9a32cd" stroke="#9a32cd" points="334.632,-88.9708 345.132,-90.3851 337.806,-82.7316 334.632,-88.9708"/>
<text text-anchor="middle" x="312.5" y="-60.8" font-family="Helvetica,sans-Serif" font-size="14.00"> X</text>
<text text-anchor="middle" x="312.5" y="-45.8" font-family="Helvetica,sans-Serif" font-size="14.00">B</text>
</g>
<!-- Node6 -->
<g id="node6" class="node"><title>Node6</title>
<g id="a_node6"><a xlink:href="classmfem_1_1Vector.html" target="_top" xlink:title="Vector data type. ">
<polygon fill="white" stroke="black" points="317,-152.5 317,-175.5 415,-175.5 415,-152.5 317,-152.5"/>
<text text-anchor="middle" x="366" y="-160.3" font-family="Helvetica,sans-Serif" font-size="14.00">mfem::Vector</text>
</a>
</g>
</g>
<!-- Node6&#45;&gt;Node5 -->
<g id="edge6" class="edge"><title>Node6&#45;&gt;Node5</title>
<path fill="none" stroke="midnightblue" d="M366,-142.231C366,-132.592 366,-121.544 366,-113.634"/>
<polygon fill="midnightblue" stroke="midnightblue" points="362.5,-142.273 366,-152.273 369.5,-142.273 362.5,-142.273"/>
</g>
</g>
</svg>
