<?xml version="1.0" encoding="UTF-8" standalone="no"?>
<!DOCTYPE svg PUBLIC "-//W3C//DTD SVG 1.1//EN"
 "http://www.w3.org/Graphics/SVG/1.1/DTD/svg11.dtd">
<!-- Generated by graphviz version 2.30.1 (20170916.1124)
 -->
<!-- Title: mfem::DGElasticityIntegrator Pages: 1 -->
<!--zoomable 380 -->
<svg id="main" version="1.1" xmlns="http://www.w3.org/2000/svg" xmlns:xlink="http://www.w3.org/1999/xlink" xml:space="preserve" onload="init(evt)">
<style type="text/css"><![CDATA[
.edge:hover path { stroke: red; }
.edge:hover polygon { stroke: red; fill: red; }
]]></style>
<script type="text/javascript"><![CDATA[
var edges = document.getElementsByTagName('g');
if (edges && edges.length) {
  for (var i=0;i<edges.length;i++) {
    if (edges[i].id.substr(0,4)=='edge') {
      edges[i].setAttribute('class','edge');
    }
  }
}
]]></script>
        <defs>
                <circle id="rim" cx="0" cy="0" r="7"/>
                <circle id="rim2" cx="0" cy="0" r="3.5"/>
                <g id="zoomPlus">
                        <use xlink:href="#rim" fill="#404040">
                                <set attributeName="fill" to="#808080" begin="zoomplus.mouseover" end="zoomplus.mouseout"/>
                        </use>
                        <path d="M-4,0h8M0,-4v8" fill="none" stroke="white" stroke-width="1.5" pointer-events="none"/>
                </g>
                <g id="zoomMin">
                        <use xlink:href="#rim" fill="#404040">
                                <set attributeName="fill" to="#808080" begin="zoomminus.mouseover" end="zoomminus.mouseout"/>
                        </use>
                        <path d="M-4,0h8" fill="none" stroke="white" stroke-width="1.5" pointer-events="none"/>
                </g>
                <g id="dirArrow">
                        <path fill="none" stroke="white" stroke-width="1.5" d="M0,-3.0v7 M-2.5,-0.5L0,-3.0L2.5,-0.5"/>
                </g>
               <g id="resetDef">
                       <use xlink:href="#rim2" fill="#404040">
                               <set attributeName="fill" to="#808080" begin="reset.mouseover" end="reset.mouseout"/>
                       </use>
               </g>
        </defs>

<script type="text/javascript">
var viewWidth = 619;
var viewHeight = 380;
var sectionId = 'dynsection-1';
</script>
<script xlink:href="svgpan.js"/>
<svg id="graph" class="graph">
<g id="viewport">
<title>mfem::DGElasticityIntegrator</title>
<polygon fill="white" stroke="white" points="-4,5 -4,-376 616,-376 616,5 -4,5"/>
<!-- Node1 -->
<g id="node1" class="node"><title>Node1</title>
<polygon fill="#bfbfbf" stroke="black" points="257.5,-0.5 257.5,-23.5 448.5,-23.5 448.5,-0.5 257.5,-0.5"/>
<text text-anchor="middle" x="353" y="-8.3" font-family="Helvetica,sans-Serif" font-size="14.00">mfem::DGElasticityIntegrator</text>
</g>
<!-- Node2 -->
<g id="node2" class="node"><title>Node2</title>
<g id="a_node2"><a xlink:href="classmfem_1_1BilinearFormIntegrator.html" target="_top" xlink:title="Abstract base class BilinearFormIntegrator. ">
<polygon fill="white" stroke="black" points="6,-196.5 6,-219.5 200,-219.5 200,-196.5 6,-196.5"/>
<text text-anchor="middle" x="103" y="-204.3" font-family="Helvetica,sans-Serif" font-size="14.00">mfem::BilinearFormIntegrator</text>
</a>
</g>
</g>
<!-- Node2&#45;&gt;Node1 -->
<g id="edge1" class="edge"><title>Node2&#45;&gt;Node1</title>
<path fill="none" stroke="midnightblue" d="M118.532,-188.737C147.52,-155.611 213.095,-85.0669 281,-42 292.835,-34.4938 306.937,-28.3002 319.511,-23.5916"/>
<polygon fill="midnightblue" stroke="midnightblue" points="115.872,-186.463 111.972,-196.314 121.164,-191.045 115.872,-186.463"/>
</g>
<!-- Node3 -->
<g id="node3" class="node"><title>Node3</title>
<g id="a_node3"><a xlink:href="classmfem_1_1NonlinearFormIntegrator.html" target="_top" xlink:title="mfem::NonlinearFormIntegrator">
<polygon fill="white" stroke="black" points="-0.5,-272.5 -0.5,-295.5 206.5,-295.5 206.5,-272.5 -0.5,-272.5"/>
<text text-anchor="middle" x="103" y="-280.3" font-family="Helvetica,sans-Serif" font-size="14.00">mfem::NonlinearFormIntegrator</text>
</a>
</g>
</g>
<!-- Node3&#45;&gt;Node2 -->
<g id="edge2" class="edge"><title>Node3&#45;&gt;Node2</title>
<path fill="none" stroke="midnightblue" d="M103,-262.277C103,-248.387 103,-230.675 103,-219.583"/>
<polygon fill="midnightblue" stroke="midnightblue" points="99.5001,-262.398 103,-272.398 106.5,-262.398 99.5001,-262.398"/>
</g>
<!-- Node4 -->
<g id="node4" class="node"><title>Node4</title>
<g id="a_node4"><a xlink:href="classmfem_1_1IntegrationRule.html" target="_top" xlink:title="Class for an integration rule &#45; an Array of IntegrationPoint. ">
<polygon fill="white" stroke="red" points="27.5,-348.5 27.5,-371.5 178.5,-371.5 178.5,-348.5 27.5,-348.5"/>
<text text-anchor="middle" x="103" y="-356.3" font-family="Helvetica,sans-Serif" font-size="14.00">mfem::IntegrationRule</text>
</a>
</g>
</g>
<!-- Node4&#45;&gt;Node3 -->
<g id="edge3" class="edge"><title>Node4&#45;&gt;Node3</title>
<path fill="none" stroke="#9a32cd" stroke-dasharray="5,2" d="M103,-338.277C103,-324.387 103,-306.675 103,-295.583"/>
<polygon fill="#9a32cd" stroke="#9a32cd" points="99.5001,-338.398 103,-348.398 106.5,-338.398 99.5001,-338.398"/>
<text text-anchor="middle" x="126.5" y="-318.3" font-family="Helvetica,sans-Serif" font-size="14.00"> IntRule</text>
</g>
<!-- Node5 -->
<g id="node5" class="node"><title>Node5</title>
<g id="a_node5"><a xlink:href="classmfem_1_1DenseMatrix.html" target="_top" xlink:title="Data type dense matrix using column&#45;major storage. ">
<polygon fill="white" stroke="black" points="218,-196.5 218,-219.5 354,-219.5 354,-196.5 218,-196.5"/>
<text text-anchor="middle" x="286" y="-204.3" font-family="Helvetica,sans-Serif" font-size="14.00">mfem::DenseMatrix</text>
</a>
</g>
</g>
<!-- Node5&#45;&gt;Node1 -->
<g id="edge4" class="edge"><title>Node5&#45;&gt;Node1</title>
<path fill="none" stroke="#9a32cd" stroke-dasharray="5,2" d="M284.995,-186.184C284.367,-153.152 287.148,-87.7908 315,-42 319.485,-34.626 326.598,-28.4573 333.462,-23.7315"/>
<polygon fill="#9a32cd" stroke="#9a32cd" points="281.505,-186.551 285.323,-196.434 288.501,-186.327 281.505,-186.551"/>
<text text-anchor="middle" x="352" y="-143.8" font-family="Helvetica,sans-Serif" font-size="14.00"> dshape1</text>
<text text-anchor="middle" x="352" y="-128.8" font-family="Helvetica,sans-Serif" font-size="14.00">dshape2</text>
<text text-anchor="middle" x="352" y="-113.8" font-family="Helvetica,sans-Serif" font-size="14.00">jmat</text>
<text text-anchor="middle" x="352" y="-98.8" font-family="Helvetica,sans-Serif" font-size="14.00">adjJ</text>
<text text-anchor="middle" x="352" y="-83.8" font-family="Helvetica,sans-Serif" font-size="14.00">dshape1_ps</text>
<text text-anchor="middle" x="352" y="-68.8" font-family="Helvetica,sans-Serif" font-size="14.00">dshape2_ps</text>
</g>
<!-- Node6 -->
<g id="node6" class="node"><title>Node6</title>
<g id="a_node6"><a xlink:href="classmfem_1_1Matrix.html" target="_top" xlink:title="Abstract data type matrix. ">
<polygon fill="white" stroke="black" points="227.5,-272.5 227.5,-295.5 324.5,-295.5 324.5,-272.5 227.5,-272.5"/>
<text text-anchor="middle" x="276" y="-280.3" font-family="Helvetica,sans-Serif" font-size="14.00">mfem::Matrix</text>
</a>
</g>
</g>
<!-- Node6&#45;&gt;Node5 -->
<g id="edge5" class="edge"><title>Node6&#45;&gt;Node5</title>
<path fill="none" stroke="midnightblue" d="M278.8,-262.277C280.677,-248.387 283.071,-230.675 284.57,-219.583"/>
<polygon fill="midnightblue" stroke="midnightblue" points="275.304,-262.019 277.433,-272.398 282.24,-262.956 275.304,-262.019"/>
</g>
<!-- Node7 -->
<g id="node7" class="node"><title>Node7</title>
<g id="a_node7"><a xlink:href="classmfem_1_1Operator.html" target="_top" xlink:title="Abstract operator. ">
<polygon fill="white" stroke="black" points="219.5,-348.5 219.5,-371.5 332.5,-371.5 332.5,-348.5 219.5,-348.5"/>
<text text-anchor="middle" x="276" y="-356.3" font-family="Helvetica,sans-Serif" font-size="14.00">mfem::Operator</text>
</a>
</g>
</g>
<!-- Node7&#45;&gt;Node6 -->
<g id="edge6" class="edge"><title>Node7&#45;&gt;Node6</title>
<path fill="none" stroke="midnightblue" d="M276,-338.277C276,-324.387 276,-306.675 276,-295.583"/>
<polygon fill="midnightblue" stroke="midnightblue" points="272.5,-338.398 276,-348.398 279.5,-338.398 272.5,-338.398"/>
</g>
<!-- Node8 -->
<g id="node8" class="node"><title>Node8</title>
<g id="a_node8"><a xlink:href="classmfem_1_1Vector.html" target="_top" xlink:title="Vector data type. ">
<polygon fill="white" stroke="black" points="372,-196.5 372,-219.5 470,-219.5 470,-196.5 372,-196.5"/>
<text text-anchor="middle" x="421" y="-204.3" font-family="Helvetica,sans-Serif" font-size="14.00">mfem::Vector</text>
</a>
</g>
</g>
<!-- Node8&#45;&gt;Node1 -->
<g id="edge7" class="edge"><title>Node8&#45;&gt;Node1</title>
<path fill="none" stroke="#9a32cd" stroke-dasharray="5,2" d="M421.405,-186.247C421.127,-153.303 416.743,-88.0605 389,-42 384.611,-34.7126 377.684,-28.4881 371.074,-23.6957"/>
<polygon fill="#9a32cd" stroke="#9a32cd" points="417.904,-186.455 421.364,-196.469 424.904,-186.483 417.904,-186.455"/>
<text text-anchor="middle" x="467.5" y="-166.3" font-family="Helvetica,sans-Serif" font-size="14.00"> dshape2_dnM</text>
<text text-anchor="middle" x="467.5" y="-151.3" font-family="Helvetica,sans-Serif" font-size="14.00">dshape1_dnM</text>
<text text-anchor="middle" x="467.5" y="-136.3" font-family="Helvetica,sans-Serif" font-size="14.00">shape1</text>
<text text-anchor="middle" x="467.5" y="-121.3" font-family="Helvetica,sans-Serif" font-size="14.00">shape2</text>
<text text-anchor="middle" x="467.5" y="-106.3" font-family="Helvetica,sans-Serif" font-size="14.00">nor</text>
<text text-anchor="middle" x="467.5" y="-91.3" font-family="Helvetica,sans-Serif" font-size="14.00">nM1</text>
<text text-anchor="middle" x="467.5" y="-76.3" font-family="Helvetica,sans-Serif" font-size="14.00">nM2</text>
<text text-anchor="middle" x="467.5" y="-61.3" font-family="Helvetica,sans-Serif" font-size="14.00">nL1</text>
<text text-anchor="middle" x="467.5" y="-46.3" font-family="Helvetica,sans-Serif" font-size="14.00">nL2</text>
</g>
<!-- Node9 -->
<g id="node9" class="node"><title>Node9</title>
<g id="a_node9"><a xlink:href="classmfem_1_1Memory.html" target="_top" xlink:title="mfem::Memory\&lt; double \&gt;">
<polygon fill="white" stroke="black" points="343,-272.5 343,-295.5 517,-295.5 517,-272.5 343,-272.5"/>
<text text-anchor="middle" x="430" y="-280.3" font-family="Helvetica,sans-Serif" font-size="14.00">mfem::Memory&lt; double &gt;</text>
</a>
</g>
</g>
<!-- Node9&#45;&gt;Node8 -->
<g id="edge8" class="edge"><title>Node9&#45;&gt;Node8</title>
<path fill="none" stroke="#9a32cd" stroke-dasharray="5,2" d="M427.48,-262.277C425.79,-248.387 423.636,-230.675 422.287,-219.583"/>
<polygon fill="#9a32cd" stroke="#9a32cd" points="424.029,-262.893 428.711,-272.398 430.978,-262.048 424.029,-262.893"/>
<text text-anchor="middle" x="442.5" y="-242.3" font-family="Helvetica,sans-Serif" font-size="14.00"> data</text>
</g>
<!-- Node10 -->
<g id="node10" class="node"><title>Node10</title>
<g id="a_node10"><a xlink:href="classmfem_1_1Coefficient.html" target="_top" xlink:title="Base class Coefficient that may optionally depend on time. ">
<polygon fill="white" stroke="black" points="488.5,-196.5 488.5,-219.5 611.5,-219.5 611.5,-196.5 488.5,-196.5"/>
<text text-anchor="middle" x="550" y="-204.3" font-family="Helvetica,sans-Serif" font-size="14.00">mfem::Coefficient</text>
</a>
</g>
</g>
<!-- Node10&#45;&gt;Node1 -->
<g id="edge9" class="edge"><title>Node10&#45;&gt;Node1</title>
<path fill="none" stroke="#9a32cd" stroke-dasharray="5,2" d="M552.579,-186.212C555.66,-151.149 556.202,-80.3341 517,-42 506.509,-31.7408 478.556,-25.058 448.637,-20.7284"/>
<polygon fill="#9a32cd" stroke="#9a32cd" points="549.088,-185.946 551.537,-196.254 556.05,-186.668 549.088,-185.946"/>
<text text-anchor="middle" x="576" y="-113.8" font-family="Helvetica,sans-Serif" font-size="14.00"> mu</text>
<text text-anchor="middle" x="576" y="-98.8" font-family="Helvetica,sans-Serif" font-size="14.00">lambda</text>
</g>
</g>
</svg>
        <g id="navigator" transform="translate(0 0)" fill="#404254">
                <rect fill="#f2f5e9" fill-opacity="0.5" stroke="#606060" stroke-width=".5" x="0" y="0" width="60" height="60"/>
                <use id="zoomplus" xlink:href="#zoomPlus" x="17" y="9" onmousedown="handleZoom(evt,'in')"/>
                <use id="zoomminus" xlink:href="#zoomMin" x="42" y="9" onmousedown="handleZoom(evt,'out')"/>
                <use id="reset" xlink:href="#resetDef" x="30" y="36" onmousedown="handleReset()"/>
                <g id="arrowUp" xlink:href="#dirArrow" transform="translate(30 24)" onmousedown="handlePan(0,-1)">
                  <use xlink:href="#rim" fill="#404040">
                        <set attributeName="fill" to="#808080" begin="arrowUp.mouseover" end="arrowUp.mouseout"/>
                  </use>
                  <path fill="none" stroke="white" stroke-width="1.5" d="M0,-3.0v7 M-2.5,-0.5L0,-3.0L2.5,-0.5"/>
                </g>
                <g id="arrowRight" xlink:href="#dirArrow" transform="rotate(90) translate(36 -43)" onmousedown="handlePan(1,0)">
                  <use xlink:href="#rim" fill="#404040">
                        <set attributeName="fill" to="#808080" begin="arrowRight.mouseover" end="arrowRight.mouseout"/>
                  </use>
                  <path fill="none" stroke="white" stroke-width="1.5" d="M0,-3.0v7 M-2.5,-0.5L0,-3.0L2.5,-0.5"/>
                </g>
                <g id="arrowDown" xlink:href="#dirArrow" transform="rotate(180) translate(-30 -48)" onmousedown="handlePan(0,1)">
                  <use xlink:href="#rim" fill="#404040">
                        <set attributeName="fill" to="#808080" begin="arrowDown.mouseover" end="arrowDown.mouseout"/>
                  </use>
                  <path fill="none" stroke="white" stroke-width="1.5" d="M0,-3.0v7 M-2.5,-0.5L0,-3.0L2.5,-0.5"/>
                </g>
                <g id="arrowLeft" xlink:href="#dirArrow" transform="rotate(270) translate(-36 17)" onmousedown="handlePan(-1,0)">
                  <use xlink:href="#rim" fill="#404040">
                        <set attributeName="fill" to="#808080" begin="arrowLeft.mouseover" end="arrowLeft.mouseout"/>
                  </use>
                  <path fill="none" stroke="white" stroke-width="1.5" d="M0,-3.0v7 M-2.5,-0.5L0,-3.0L2.5,-0.5"/>
                </g>
        </g>
        <svg viewBox="0 0 15 15" width="100%" height="30px" preserveAspectRatio="xMaxYMin meet">
         <g id="arrow_out" transform="scale(0.3 0.3)">
          <a xlink:href="classmfem_1_1DGElasticityIntegrator__coll__graph_org.svg" target="_base">
           <rect id="button" ry="5" rx="5" y="6" x="6" height="38" width="38"
                fill="#f2f5e9" fill-opacity="0.5" stroke="#606060" stroke-width="1.0"/>
           <path id="arrow"
             d="M 11.500037,31.436501 C 11.940474,20.09759 22.043105,11.32322 32.158766,21.979434 L 37.068811,17.246167 C 37.068811,17.246167 37.088388,32 37.088388,32 L 22.160133,31.978069 C 22.160133,31.978069 26.997745,27.140456 26.997745,27.140456 C 18.528582,18.264221 13.291696,25.230495 11.500037,31.436501 z"
             style="fill:#404040;"/>
          </a>
         </g>
        </svg>
</svg>
