<?xml version="1.0" encoding="UTF-8" standalone="no"?>
<!DOCTYPE svg PUBLIC "-//W3C//DTD SVG 1.1//EN"
 "http://www.w3.org/Graphics/SVG/1.1/DTD/svg11.dtd">
<!-- Generated by graphviz version 2.40.1 (20161225.0304)
 -->
<!-- Title: mfem::VisItFieldInfo Pages: 1 -->
<svg width="152pt" height="178pt"
 viewBox="0.00 0.00 151.66 178.00" xmlns="http://www.w3.org/2000/svg" xmlns:xlink="http://www.w3.org/1999/xlink">
<g id="graph0" class="graph" transform="scale(1 1) rotate(0) translate(4 174)">
<title>mfem::VisItFieldInfo</title>
<polygon fill="#ffffff" stroke="transparent" points="-4,4 -4,-174 147.6592,-174 147.6592,4 -4,4"/>
<!-- Node1 -->
<g id="node1" class="node">
<title>Node1</title>
<polygon fill="#bfbfbf" stroke="#000000" points="0,-.5 0,-22.5 139.457,-22.5 139.457,-.5 0,-.5"/>
<text text-anchor="middle" x="69.7285" y="-7.3" font-family="Helvetica,sans-Serif" font-size="14.00" fill="#000000">mfem::VisItFieldInfo</text>
</g>
<!-- Node2 -->
<g id="node2" class="node">
<title>Node2</title>
<g id="a_node2"><a xlink:title="STL class. ">
<polygon fill="#ffffff" stroke="#bfbfbf" points="31.3838,-73.5 31.3838,-95.5 108.0732,-95.5 108.0732,-73.5 31.3838,-73.5"/>
<text text-anchor="middle" x="69.7285" y="-80.3" font-family="Helvetica,sans-Serif" font-size="14.00" fill="#000000">std::string</text>
</a>
</g>
</g>
<!-- Node2&#45;&gt;Node1 -->
<g id="edge1" class="edge">
<title>Node2&#45;&gt;Node1</title>
<path fill="none" stroke="#9a32cd" stroke-dasharray="5,2" d="M69.7285,-63.2419C69.7285,-49.981 69.7285,-33.4483 69.7285,-22.6915"/>
<polygon fill="#9a32cd" stroke="#9a32cd" points="66.2286,-63.4128 69.7285,-73.4129 73.2286,-63.4129 66.2286,-63.4128"/>
<text text-anchor="middle" x="106.6938" y="-43.8" font-family="Helvetica,sans-Serif" font-size="14.00" fill="#000000"> association</text>
</g>
<!-- Node3 -->
<g id="node3" class="node">
<title>Node3</title>
<g id="a_node3"><a xlink:title="STL class. ">
<polygon fill="#ffffff" stroke="#bfbfbf" points="7.0615,-133.5 7.0615,-169.5 132.3955,-169.5 132.3955,-133.5 7.0615,-133.5"/>
<text text-anchor="start" x="15.0615" y="-154.3" font-family="Helvetica,sans-Serif" font-size="14.00" fill="#000000">std::basic_string&lt;</text>
<text text-anchor="middle" x="69.7285" y="-140.3" font-family="Helvetica,sans-Serif" font-size="14.00" fill="#000000"> char &gt;</text>
</a>
</g>
</g>
<!-- Node3&#45;&gt;Node2 -->
<g id="edge2" class="edge">
<title>Node3&#45;&gt;Node2</title>
<path fill="none" stroke="#191970" d="M69.7285,-123.1463C69.7285,-113.5368 69.7285,-103.3485 69.7285,-95.8467"/>
<polygon fill="#191970" stroke="#191970" points="66.2286,-123.1919 69.7285,-133.192 73.2286,-123.192 66.2286,-123.1919"/>
</g>
</g>
</svg>
