<?xml version="1.0" encoding="UTF-8" standalone="no"?>
<!DOCTYPE svg PUBLIC "-//W3C//DTD SVG 1.1//EN"
 "http://www.w3.org/Graphics/SVG/1.1/DTD/svg11.dtd">
<!-- Generated by graphviz version 2.30.1 (20140821.0912)
 -->
<!-- Title: mfem::MixedScalarMassIntegrator Pages: 1 -->
<svg width="232pt" height="434pt"
 viewBox="0.00 0.00 232.00 434.00" xmlns="http://www.w3.org/2000/svg" xmlns:xlink="http://www.w3.org/1999/xlink">
<g id="graph0" class="graph" transform="scale(1 1) rotate(0) translate(4 430)">
<title>mfem::MixedScalarMassIntegrator</title>
<polygon fill="white" stroke="white" points="-4,5 -4,-430 229,-430 229,5 -4,5"/>
<!-- Node1 -->
<g id="node1" class="node"><title>Node1</title>
<polygon fill="#bfbfbf" stroke="black" points="-0.5,-0.5 -0.5,-23.5 224.5,-23.5 224.5,-0.5 -0.5,-0.5"/>
<text text-anchor="middle" x="112" y="-8.3" font-family="Helvetica,sans-Serif" font-size="14.00">mfem::MixedScalarMassIntegrator</text>
</g>
<!-- Node2 -->
<g id="node2" class="node"><title>Node2</title>
<g id="a_node2"><a xlink:href="classmfem_1_1MixedScalarIntegrator.html" target="_top" xlink:title="mfem::MixedScalarIntegrator">
<polygon fill="white" stroke="black" points="16,-62.5 16,-85.5 208,-85.5 208,-62.5 16,-62.5"/>
<text text-anchor="middle" x="112" y="-70.3" font-family="Helvetica,sans-Serif" font-size="14.00">mfem::MixedScalarIntegrator</text>
</a>
</g>
</g>
<!-- Node2&#45;&gt;Node1 -->
<g id="edge1" class="edge"><title>Node2&#45;&gt;Node1</title>
<path fill="none" stroke="midnightblue" d="M112,-52.2312C112,-42.5922 112,-31.5444 112,-23.6339"/>
<polygon fill="midnightblue" stroke="midnightblue" points="108.5,-52.2732 112,-62.2732 115.5,-52.2732 108.5,-52.2732"/>
</g>
<!-- Node3 -->
<g id="node3" class="node"><title>Node3</title>
<g id="a_node3"><a xlink:href="classmfem_1_1BilinearFormIntegrator.html" target="_top" xlink:title="Abstract base class BilinearFormIntegrator. ">
<polygon fill="white" stroke="black" points="15,-124.5 15,-147.5 209,-147.5 209,-124.5 15,-124.5"/>
<text text-anchor="middle" x="112" y="-132.3" font-family="Helvetica,sans-Serif" font-size="14.00">mfem::BilinearFormIntegrator</text>
</a>
</g>
</g>
<!-- Node3&#45;&gt;Node2 -->
<g id="edge2" class="edge"><title>Node3&#45;&gt;Node2</title>
<path fill="none" stroke="midnightblue" d="M112,-114.231C112,-104.592 112,-93.5444 112,-85.6339"/>
<polygon fill="midnightblue" stroke="midnightblue" points="108.5,-114.273 112,-124.273 115.5,-114.273 108.5,-114.273"/>
</g>
<!-- Node4 -->
<g id="node4" class="node"><title>Node4</title>
<g id="a_node4"><a xlink:href="classmfem_1_1NonlinearFormIntegrator.html" target="_top" xlink:title="mfem::NonlinearFormIntegrator">
<polygon fill="white" stroke="black" points="8.5,-186.5 8.5,-209.5 215.5,-209.5 215.5,-186.5 8.5,-186.5"/>
<text text-anchor="middle" x="112" y="-194.3" font-family="Helvetica,sans-Serif" font-size="14.00">mfem::NonlinearFormIntegrator</text>
</a>
</g>
</g>
<!-- Node4&#45;&gt;Node3 -->
<g id="edge3" class="edge"><title>Node4&#45;&gt;Node3</title>
<path fill="none" stroke="midnightblue" d="M112,-176.231C112,-166.592 112,-155.544 112,-147.634"/>
<polygon fill="midnightblue" stroke="midnightblue" points="108.5,-176.273 112,-186.273 115.5,-176.273 108.5,-176.273"/>
</g>
<!-- Node5 -->
<g id="node5" class="node"><title>Node5</title>
<g id="a_node5"><a xlink:href="classmfem_1_1IntegrationRule.html" target="_top" xlink:title="Class for an integration rule &#45; an Array of IntegrationPoint. ">
<polygon fill="white" stroke="black" points="36.5,-262.5 36.5,-285.5 187.5,-285.5 187.5,-262.5 36.5,-262.5"/>
<text text-anchor="middle" x="112" y="-270.3" font-family="Helvetica,sans-Serif" font-size="14.00">mfem::IntegrationRule</text>
</a>
</g>
</g>
<!-- Node5&#45;&gt;Node4 -->
<g id="edge4" class="edge"><title>Node5&#45;&gt;Node4</title>
<path fill="none" stroke="#9a32cd" stroke-dasharray="5,2" d="M112,-252.277C112,-238.387 112,-220.675 112,-209.583"/>
<polygon fill="#9a32cd" stroke="#9a32cd" points="108.5,-252.398 112,-262.398 115.5,-252.398 108.5,-252.398"/>
<text text-anchor="middle" x="135.5" y="-232.3" font-family="Helvetica,sans-Serif" font-size="14.00"> IntRule</text>
</g>
<!-- Node6 -->
<g id="node6" class="node"><title>Node6</title>
<g id="a_node6"><a xlink:href="classmfem_1_1Array.html" target="_top" xlink:title="mfem::Array\&lt; Integration\lPoint \&gt;">
<polygon fill="white" stroke="black" points="28.5,-325 28.5,-363 195.5,-363 195.5,-325 28.5,-325"/>
<text text-anchor="start" x="36.5" y="-347.8" font-family="Helvetica,sans-Serif" font-size="14.00">mfem::Array&lt; Integration</text>
<text text-anchor="middle" x="112" y="-332.8" font-family="Helvetica,sans-Serif" font-size="14.00">Point &gt;</text>
</a>
</g>
</g>
<!-- Node6&#45;&gt;Node5 -->
<g id="edge5" class="edge"><title>Node6&#45;&gt;Node5</title>
<path fill="none" stroke="midnightblue" d="M112,-314.599C112,-304.442 112,-293.6 112,-285.834"/>
<polygon fill="midnightblue" stroke="midnightblue" points="108.5,-314.777 112,-324.777 115.5,-314.777 108.5,-314.777"/>
</g>
<!-- Node7 -->
<g id="node7" class="node"><title>Node7</title>
<g id="a_node7"><a xlink:href="classmfem_1_1BaseArray.html" target="_top" xlink:title="Base class for array container. ">
<polygon fill="white" stroke="black" points="51,-402.5 51,-425.5 173,-425.5 173,-402.5 51,-402.5"/>
<text text-anchor="middle" x="112" y="-410.3" font-family="Helvetica,sans-Serif" font-size="14.00">mfem::BaseArray</text>
</a>
</g>
</g>
<!-- Node7&#45;&gt;Node6 -->
<g id="edge6" class="edge"><title>Node7&#45;&gt;Node6</title>
<path fill="none" stroke="midnightblue" d="M112,-392.098C112,-382.869 112,-372.12 112,-363.223"/>
<polygon fill="midnightblue" stroke="midnightblue" points="108.5,-392.375 112,-402.375 115.5,-392.375 108.5,-392.375"/>
</g>
</g>
</svg>
