<?xml version="1.0" encoding="UTF-8" standalone="no"?>
<!DOCTYPE svg PUBLIC "-//W3C//DTD SVG 1.1//EN"
 "http://www.w3.org/Graphics/SVG/1.1/DTD/svg11.dtd">
<!-- Generated by graphviz version 2.26.3 (20100126.1600)
 -->
<!-- Title: mfem::TIntegrator&lt; coeff_t, kernel_t &gt; Pages: 1 -->
<svg width="196pt" height="208pt"
 viewBox="0.00 0.00 196.00 208.00" xmlns="http://www.w3.org/2000/svg" xmlns:xlink="http://www.w3.org/1999/xlink">
<g id="graph1" class="graph" transform="scale(1 1) rotate(0) translate(4 204)">
<title>mfem::TIntegrator&lt; coeff_t, kernel_t &gt;</title>
<polygon fill="white" stroke="white" points="-4,5 -4,-204 193,-204 193,5 -4,5"/>
<!-- Node1 -->
<g id="node1" class="node"><title>Node1</title>
<polygon fill="#bfbfbf" stroke="black" points="27,-1 27,-41 161,-41 161,-1 27,-1"/>
<text text-anchor="start" x="35" y="-24.4" font-family="Helvetica,sans-Serif" font-size="14.00">mfem::TIntegrator&lt;</text>
<text text-anchor="middle" x="94" y="-8.4" font-family="Helvetica,sans-Serif" font-size="14.00"> coeff_t, kernel_t &gt;</text>
</g>
<!-- Node2 -->
<g id="node2" class="node"><title>Node2</title>
<a xlink:href="classmfem_1_1TConstantCoefficient.html" target="_top" xlink:title="mfem::TConstantCoefficient\l\&lt; complex_t \&gt;">
<polygon fill="white" stroke="black" points="0,-95 0,-135 188,-135 188,-95 0,-95"/>
<text text-anchor="start" x="8" y="-118.4" font-family="Helvetica,sans-Serif" font-size="14.00">mfem::TConstantCoefficient</text>
<text text-anchor="middle" x="94" y="-102.4" font-family="Helvetica,sans-Serif" font-size="14.00">&lt; complex_t &gt;</text>
</a>
</g>
<!-- Node2&#45;&gt;Node1 -->
<g id="edge2" class="edge"><title>Node2&#45;&gt;Node1</title>
<path fill="none" stroke="#9a32cd" stroke-dasharray="5,2" d="M94,-84.2843C94,-70.0794 94,-53.6101 94,-41.0339"/>
<polygon fill="#9a32cd" stroke="#9a32cd" points="90.5001,-84.6034 94,-94.6034 97.5001,-84.6034 90.5001,-84.6034"/>
<text text-anchor="middle" x="112" y="-63.4" font-family="Helvetica,sans-Serif" font-size="14.00"> coeff</text>
</g>
<!-- Node3 -->
<g id="node4" class="node"><title>Node3</title>
<a xlink:href="classmfem_1_1TCoefficient.html" target="_top" xlink:title="mfem::TCoefficient">
<polygon fill="white" stroke="black" points="27.5,-175 27.5,-199 160.5,-199 160.5,-175 27.5,-175"/>
<text text-anchor="middle" x="94" y="-182.4" font-family="Helvetica,sans-Serif" font-size="14.00">mfem::TCoefficient</text>
</a>
</g>
<!-- Node3&#45;&gt;Node2 -->
<g id="edge4" class="edge"><title>Node3&#45;&gt;Node2</title>
<path fill="none" stroke="midnightblue" d="M94,-164.601C94,-155.195 94,-144.338 94,-135.183"/>
<polygon fill="midnightblue" stroke="midnightblue" points="90.5001,-164.786 94,-174.786 97.5001,-164.786 90.5001,-164.786"/>
</g>
</g>
</svg>
