<?xml version="1.0" encoding="UTF-8" standalone="no"?>
<!DOCTYPE svg PUBLIC "-//W3C//DTD SVG 1.1//EN"
 "http://www.w3.org/Graphics/SVG/1.1/DTD/svg11.dtd">
<!-- Generated by graphviz version 2.26.3 (20100126.1600)
 -->
<!-- Title: mfem::PositiveFiniteElement Pages: 1 -->
<!--zoomable 316 -->
<svg id="main" version="1.1" xmlns="http://www.w3.org/2000/svg" xmlns:xlink="http://www.w3.org/1999/xlink" xml:space="preserve" onload="init(evt)">
<style type="text/css"><![CDATA[
.edge:hover path { stroke: red; }
.edge:hover polygon { stroke: red; fill: red; }
]]></style>
<script type="text/javascript"><![CDATA[
var edges = document.getElementsByTagName('g');
if (edges && edges.length) {
  for (var i=0;i<edges.length;i++) {
    if (edges[i].id.substr(0,4)=='edge') {
      edges[i].setAttribute('class','edge');
    }
  }
}
]]></script>
        <defs>
                <circle id="rim" cx="0" cy="0" r="7"/>
                <circle id="rim2" cx="0" cy="0" r="3.5"/>
                <g id="zoomPlus">
                        <use xlink:href="#rim" fill="#404040">
                                <set attributeName="fill" to="#808080" begin="zoomplus.mouseover" end="zoomplus.mouseout"/>
                        </use>
                        <path d="M-4,0h8M0,-4v8" fill="none" stroke="white" stroke-width="1.5" pointer-events="none"/>
                </g>
                <g id="zoomMin">
                        <use xlink:href="#rim" fill="#404040">
                                <set attributeName="fill" to="#808080" begin="zoomminus.mouseover" end="zoomminus.mouseout"/>
                        </use>
                        <path d="M-4,0h8" fill="none" stroke="white" stroke-width="1.5" pointer-events="none"/>
                </g>
                <g id="dirArrow">
                        <path fill="none" stroke="white" stroke-width="1.5" d="M0,-3.0v7 M-2.5,-0.5L0,-3.0L2.5,-0.5"/>
                </g>
               <g id="resetDef">
                       <use xlink:href="#rim2" fill="#404040">
                               <set attributeName="fill" to="#808080" begin="reset.mouseover" end="reset.mouseout"/>
                       </use>
               </g>
        </defs>

<script type="text/javascript">
var viewWidth = 650;
var viewHeight = 316;
var sectionId = 'dynsection-0';
</script>
<script xlink:href="svgpan.js"/>
<svg id="graph" class="graph">
<g id="viewport">
<title>mfem::PositiveFiniteElement</title>
<polygon fill="white" stroke="white" points="-4,5 -4,-312 647,-312 647,5 -4,5"/>
<!-- Node1 -->
<g id="node1" class="node"><title>Node1</title>
<polygon fill="#bfbfbf" stroke="black" points="180,-142 180,-166 372,-166 372,-142 180,-142"/>
<text text-anchor="middle" x="276" y="-149.4" font-family="Helvetica,sans-Serif" font-size="14.00">mfem::PositiveFiniteElement</text>
</g>
<!-- Node3 -->
<g id="node5" class="node"><title>Node3</title>
<a xlink:href="classmfem_1_1H1Pos__HexahedronElement.html" target="_top" xlink:title="mfem::H1Pos_HexahedronElement">
<polygon fill="white" stroke="black" points="408,-284 408,-308 642,-308 642,-284 408,-284"/>
<text text-anchor="middle" x="525" y="-291.4" font-family="Helvetica,sans-Serif" font-size="14.00">mfem::H1Pos_HexahedronElement</text>
</a>
</g>
<!-- Node1&#45;&gt;Node3 -->
<g id="edge4" class="edge"><title>Node1&#45;&gt;Node3</title>
<path fill="none" stroke="midnightblue" d="M291.626,-174.189C314.152,-201.744 358.514,-250.496 408,-275 415.12,-278.526 422.745,-281.466 430.562,-283.917"/>
<polygon fill="midnightblue" stroke="midnightblue" points="294.342,-171.981 285.355,-166.369 288.881,-176.36 294.342,-171.981"/>
</g>
<!-- Node4 -->
<g id="node7" class="node"><title>Node4</title>
<a xlink:href="classmfem_1_1H1Pos__QuadrilateralElement.html" target="_top" xlink:title="mfem::H1Pos_Quadrilateral\lElement">
<polygon fill="white" stroke="black" points="431.5,-226 431.5,-266 618.5,-266 618.5,-226 431.5,-226"/>
<text text-anchor="start" x="439.5" y="-249.4" font-family="Helvetica,sans-Serif" font-size="14.00">mfem::H1Pos_Quadrilateral</text>
<text text-anchor="middle" x="525" y="-233.4" font-family="Helvetica,sans-Serif" font-size="14.00">Element</text>
</a>
</g>
<!-- Node1&#45;&gt;Node4 -->
<g id="edge6" class="edge"><title>Node1&#45;&gt;Node4</title>
<path fill="none" stroke="midnightblue" d="M306.907,-170.953C333.184,-184.826 372.233,-204.181 408,-217 416.964,-220.212 426.437,-223.199 435.955,-225.939"/>
<polygon fill="midnightblue" stroke="midnightblue" points="308.304,-167.732 297.834,-166.113 305.009,-173.908 308.304,-167.732"/>
</g>
<!-- Node5 -->
<g id="node9" class="node"><title>Node5</title>
<a xlink:href="classmfem_1_1H1Pos__SegmentElement.html" target="_top" xlink:title="mfem::H1Pos_SegmentElement">
<polygon fill="white" stroke="black" points="417.5,-184 417.5,-208 632.5,-208 632.5,-184 417.5,-184"/>
<text text-anchor="middle" x="525" y="-191.4" font-family="Helvetica,sans-Serif" font-size="14.00">mfem::H1Pos_SegmentElement</text>
</a>
</g>
<!-- Node1&#45;&gt;Node5 -->
<g id="edge8" class="edge"><title>Node1&#45;&gt;Node5</title>
<path fill="none" stroke="midnightblue" d="M357.289,-167.711C388.369,-172.954 423.55,-178.888 453.636,-183.963"/>
<polygon fill="midnightblue" stroke="midnightblue" points="357.796,-164.248 347.353,-166.036 356.632,-171.15 357.796,-164.248"/>
</g>
<!-- Node6 -->
<g id="node11" class="node"><title>Node6</title>
<a xlink:href="classmfem_1_1L2Pos__HexahedronElement.html" target="_top" xlink:title="mfem::L2Pos_HexahedronElement">
<polygon fill="white" stroke="black" points="409.5,-142 409.5,-166 640.5,-166 640.5,-142 409.5,-142"/>
<text text-anchor="middle" x="525" y="-149.4" font-family="Helvetica,sans-Serif" font-size="14.00">mfem::L2Pos_HexahedronElement</text>
</a>
</g>
<!-- Node1&#45;&gt;Node6 -->
<g id="edge10" class="edge"><title>Node1&#45;&gt;Node6</title>
<path fill="none" stroke="midnightblue" d="M382.336,-154C391.31,-154 400.412,-154 409.451,-154"/>
<polygon fill="midnightblue" stroke="midnightblue" points="382.27,-150.5 372.27,-154 382.27,-157.5 382.27,-150.5"/>
</g>
<!-- Node7 -->
<g id="node13" class="node"><title>Node7</title>
<a xlink:href="classmfem_1_1L2Pos__QuadrilateralElement.html" target="_top" xlink:title="mfem::L2Pos_Quadrilateral\lElement">
<polygon fill="white" stroke="black" points="432.5,-84 432.5,-124 617.5,-124 617.5,-84 432.5,-84"/>
<text text-anchor="start" x="440.5" y="-107.4" font-family="Helvetica,sans-Serif" font-size="14.00">mfem::L2Pos_Quadrilateral</text>
<text text-anchor="middle" x="525" y="-91.4" font-family="Helvetica,sans-Serif" font-size="14.00">Element</text>
</a>
</g>
<!-- Node1&#45;&gt;Node7 -->
<g id="edge12" class="edge"><title>Node1&#45;&gt;Node7</title>
<path fill="none" stroke="midnightblue" d="M345.971,-139.95C372.663,-134.59 403.522,-128.393 432.022,-122.67"/>
<polygon fill="midnightblue" stroke="midnightblue" points="345.074,-136.56 335.959,-141.96 346.452,-143.423 345.074,-136.56"/>
</g>
<!-- Node8 -->
<g id="node15" class="node"><title>Node8</title>
<a xlink:href="classmfem_1_1L2Pos__SegmentElement.html" target="_top" xlink:title="mfem::L2Pos_SegmentElement">
<polygon fill="white" stroke="black" points="419,-42 419,-66 631,-66 631,-42 419,-42"/>
<text text-anchor="middle" x="525" y="-49.4" font-family="Helvetica,sans-Serif" font-size="14.00">mfem::L2Pos_SegmentElement</text>
</a>
</g>
<!-- Node1&#45;&gt;Node8 -->
<g id="edge14" class="edge"><title>Node1&#45;&gt;Node8</title>
<path fill="none" stroke="midnightblue" d="M299.976,-135.977C325.433,-117.752 367.506,-90.1703 408,-75 417.469,-71.4524 427.6,-68.4935 437.793,-66.0279"/>
<polygon fill="midnightblue" stroke="midnightblue" points="297.725,-133.287 291.694,-141.998 301.841,-138.949 297.725,-133.287"/>
</g>
<!-- Node9 -->
<g id="node17" class="node"><title>Node9</title>
<a xlink:href="classmfem_1_1L2Pos__TetrahedronElement.html" target="_top" xlink:title="mfem::L2Pos_TetrahedronElement">
<polygon fill="white" stroke="black" points="410,-0 410,-24 640,-24 640,-0 410,-0"/>
<text text-anchor="middle" x="525" y="-7.4" font-family="Helvetica,sans-Serif" font-size="14.00">mfem::L2Pos_TetrahedronElement</text>
</a>
</g>
<!-- Node1&#45;&gt;Node9 -->
<g id="edge16" class="edge"><title>Node1&#45;&gt;Node9</title>
<path fill="none" stroke="midnightblue" d="M291.626,-133.811C314.152,-106.256 358.514,-57.5036 408,-33 415.12,-29.4743 422.745,-26.5342 430.562,-24.0831"/>
<polygon fill="midnightblue" stroke="midnightblue" points="288.881,-131.64 285.355,-141.631 294.342,-136.019 288.881,-131.64"/>
</g>
<!-- Node2 -->
<g id="node2" class="node"><title>Node2</title>
<a xlink:href="classmfem_1_1FiniteElement.html" target="_top" xlink:title="Abstract class for Finite Elements. ">
<polygon fill="white" stroke="black" points="0,-142 0,-166 144,-166 144,-142 0,-142"/>
<text text-anchor="middle" x="72" y="-149.4" font-family="Helvetica,sans-Serif" font-size="14.00">mfem::FiniteElement</text>
</a>
</g>
<!-- Node2&#45;&gt;Node1 -->
<g id="edge2" class="edge"><title>Node2&#45;&gt;Node1</title>
<path fill="none" stroke="midnightblue" d="M154.373,-154C162.794,-154 171.4,-154 179.951,-154"/>
<polygon fill="midnightblue" stroke="midnightblue" points="154.21,-150.5 144.21,-154 154.21,-157.5 154.21,-150.5"/>
</g>
</g>
</svg>
        <g id="navigator" transform="translate(0 0)" fill="#404254">
                <rect fill="#f2f5e9" fill-opacity="0.5" stroke="#606060" stroke-width=".5" x="0" y="0" width="60" height="60"/>
                <use id="zoomplus" xlink:href="#zoomPlus" x="17" y="9" onmousedown="handleZoom(evt,'in')"/>
                <use id="zoomminus" xlink:href="#zoomMin" x="42" y="9" onmousedown="handleZoom(evt,'out')"/>
                <use id="reset" xlink:href="#resetDef" x="30" y="36" onmousedown="handleReset()"/>
                <g id="arrowUp" xlink:href="#dirArrow" transform="translate(30 24)" onmousedown="handlePan(0,-1)">
                  <use xlink:href="#rim" fill="#404040">
                        <set attributeName="fill" to="#808080" begin="arrowUp.mouseover" end="arrowUp.mouseout"/>
                  </use>
                  <path fill="none" stroke="white" stroke-width="1.5" d="M0,-3.0v7 M-2.5,-0.5L0,-3.0L2.5,-0.5"/>
                </g>
                <g id="arrowRight" xlink:href="#dirArrow" transform="rotate(90) translate(36 -43)" onmousedown="handlePan(1,0)">
                  <use xlink:href="#rim" fill="#404040">
                        <set attributeName="fill" to="#808080" begin="arrowRight.mouseover" end="arrowRight.mouseout"/>
                  </use>
                  <path fill="none" stroke="white" stroke-width="1.5" d="M0,-3.0v7 M-2.5,-0.5L0,-3.0L2.5,-0.5"/>
                </g>
                <g id="arrowDown" xlink:href="#dirArrow" transform="rotate(180) translate(-30 -48)" onmousedown="handlePan(0,1)">
                  <use xlink:href="#rim" fill="#404040">
                        <set attributeName="fill" to="#808080" begin="arrowDown.mouseover" end="arrowDown.mouseout"/>
                  </use>
                  <path fill="none" stroke="white" stroke-width="1.5" d="M0,-3.0v7 M-2.5,-0.5L0,-3.0L2.5,-0.5"/>
                </g>
                <g id="arrowLeft" xlink:href="#dirArrow" transform="rotate(270) translate(-36 17)" onmousedown="handlePan(-1,0)">
                  <use xlink:href="#rim" fill="#404040">
                        <set attributeName="fill" to="#808080" begin="arrowLeft.mouseover" end="arrowLeft.mouseout"/>
                  </use>
                  <path fill="none" stroke="white" stroke-width="1.5" d="M0,-3.0v7 M-2.5,-0.5L0,-3.0L2.5,-0.5"/>
                </g>
        </g>
        <svg viewBox="0 0 15 15" width="100%" height="30px" preserveAspectRatio="xMaxYMin meet">
         <g id="arrow_out" transform="scale(0.3 0.3)">
          <a xlink:href="classmfem_1_1PositiveFiniteElement__inherit__graph_org.svg" target="_base">
           <rect id="button" ry="5" rx="5" y="6" x="6" height="38" width="38"
                fill="#f2f5e9" fill-opacity="0.5" stroke="#606060" stroke-width="1.0"/>
           <path id="arrow"
             d="M 11.500037,31.436501 C 11.940474,20.09759 22.043105,11.32322 32.158766,21.979434 L 37.068811,17.246167 C 37.068811,17.246167 37.088388,32 37.088388,32 L 22.160133,31.978069 C 22.160133,31.978069 26.997745,27.140456 26.997745,27.140456 C 18.528582,18.264221 13.291696,25.230495 11.500037,31.436501 z"
             style="fill:#404040;"/>
          </a>
         </g>
        </svg>
</svg>
