<?xml version="1.0" encoding="UTF-8" standalone="no"?>
<!DOCTYPE svg PUBLIC "-//W3C//DTD SVG 1.1//EN"
 "http://www.w3.org/Graphics/SVG/1.1/DTD/svg11.dtd">
<!-- Generated by graphviz version 2.26.3 (20100126.1600)
 -->
<!-- Title: mfem::BilinearForm Pages: 1 -->
<!--zoomable 440 -->
<svg id="main" version="1.1" xmlns="http://www.w3.org/2000/svg" xmlns:xlink="http://www.w3.org/1999/xlink" xml:space="preserve" onload="init(evt)">
<style type="text/css"><![CDATA[
.edge:hover path { stroke: red; }
.edge:hover polygon { stroke: red; fill: red; }
]]></style>
<script type="text/javascript"><![CDATA[
var edges = document.getElementsByTagName('g');
if (edges && edges.length) {
  for (var i=0;i<edges.length;i++) {
    if (edges[i].id.substr(0,4)=='edge') {
      edges[i].setAttribute('class','edge');
    }
  }
}
]]></script>
        <defs>
                <circle id="rim" cx="0" cy="0" r="7"/>
                <circle id="rim2" cx="0" cy="0" r="3.5"/>
                <g id="zoomPlus">
                        <use xlink:href="#rim" fill="#404040">
                                <set attributeName="fill" to="#808080" begin="zoomplus.mouseover" end="zoomplus.mouseout"/>
                        </use>
                        <path d="M-4,0h8M0,-4v8" fill="none" stroke="white" stroke-width="1.5" pointer-events="none"/>
                </g>
                <g id="zoomMin">
                        <use xlink:href="#rim" fill="#404040">
                                <set attributeName="fill" to="#808080" begin="zoomminus.mouseover" end="zoomminus.mouseout"/>
                        </use>
                        <path d="M-4,0h8" fill="none" stroke="white" stroke-width="1.5" pointer-events="none"/>
                </g>
                <g id="dirArrow">
                        <path fill="none" stroke="white" stroke-width="1.5" d="M0,-3.0v7 M-2.5,-0.5L0,-3.0L2.5,-0.5"/>
                </g>
               <g id="resetDef">
                       <use xlink:href="#rim2" fill="#404040">
                               <set attributeName="fill" to="#808080" begin="reset.mouseover" end="reset.mouseout"/>
                       </use>
               </g>
        </defs>

<script type="text/javascript">
var viewWidth = 1012;
var viewHeight = 440;
var sectionId = 'dynsection-1';
</script>
<script xlink:href="svgpan.js"/>
<svg id="graph" class="graph">
<g id="viewport">
<title>mfem::BilinearForm</title>
<polygon fill="white" stroke="white" points="-4,5 -4,-436.364 1009,-436.364 1009,5 -4,5"/>
<!-- Node1 -->
<g id="node1" class="node"><title>Node1</title>
<polygon fill="#bfbfbf" stroke="black" points="866,-210.058 866,-234.058 1004,-234.058 1004,-210.058 866,-210.058"/>
<text text-anchor="middle" x="935" y="-217.458" font-family="Helvetica,sans-Serif" font-size="14.00">mfem::BilinearForm</text>
</g>
<!-- Node2 -->
<g id="node2" class="node"><title>Node2</title>
<a xlink:href="classmfem_1_1Matrix.html" target="_top" xlink:title="Abstract data type matrix. ">
<polygon fill="white" stroke="red" points="317.5,-343.058 317.5,-367.058 414.5,-367.058 414.5,-343.058 317.5,-343.058"/>
<text text-anchor="middle" x="366" y="-350.458" font-family="Helvetica,sans-Serif" font-size="14.00">mfem::Matrix</text>
</a>
</g>
<!-- Node2&#45;&gt;Node1 -->
<g id="edge2" class="edge"><title>Node2&#45;&gt;Node1</title>
<path fill="none" stroke="midnightblue" d="M402.31,-370.971C487.399,-405.621 703.4,-478.015 848,-390.058 906.088,-354.725 927.119,-266.69 933.042,-234.283"/>
<polygon fill="midnightblue" stroke="midnightblue" points="403.645,-367.736 393.067,-367.145 400.968,-374.204 403.645,-367.736"/>
</g>
<!-- Node7 -->
<g id="node14" class="node"><title>Node7</title>
<a xlink:href="classmfem_1_1DenseMatrix.html" target="_top" xlink:title="Data type dense matrix using column&#45;major storage. ">
<polygon fill="white" stroke="black" points="555.5,-310.058 555.5,-334.058 692.5,-334.058 692.5,-310.058 555.5,-310.058"/>
<text text-anchor="middle" x="624" y="-317.458" font-family="Helvetica,sans-Serif" font-size="14.00">mfem::DenseMatrix</text>
</a>
</g>
<!-- Node2&#45;&gt;Node7 -->
<g id="edge18" class="edge"><title>Node2&#45;&gt;Node7</title>
<path fill="none" stroke="midnightblue" d="M424.624,-347.56C463.441,-342.595 514.509,-336.063 555.242,-330.853"/>
<polygon fill="midnightblue" stroke="midnightblue" points="424.003,-344.111 414.528,-348.851 424.891,-351.054 424.003,-344.111"/>
</g>
<!-- Node3 -->
<g id="node4" class="node"><title>Node3</title>
<a xlink:href="classmfem_1_1StaticCondensation.html" target="_top" xlink:title="mfem::StaticCondensation">
<polygon fill="white" stroke="black" points="534.5,-352.058 534.5,-376.058 713.5,-376.058 713.5,-352.058 534.5,-352.058"/>
<text text-anchor="middle" x="624" y="-359.458" font-family="Helvetica,sans-Serif" font-size="14.00">mfem::StaticCondensation</text>
</a>
</g>
<!-- Node3&#45;&gt;Node1 -->
<g id="edge4" class="edge"><title>Node3&#45;&gt;Node1</title>
<path fill="none" stroke="#9a32cd" stroke-dasharray="5,2" d="M723.923,-371.003C764.74,-369.615 810.958,-362.312 848,-341.058 891.73,-315.967 919.676,-259.024 930.235,-234.109"/>
<polygon fill="#9a32cd" stroke="#9a32cd" points="723.589,-367.51 713.671,-371.233 723.747,-374.508 723.589,-367.51"/>
<text text-anchor="middle" x="790" y="-373.458" font-family="Helvetica,sans-Serif" font-size="14.00"> static_cond</text>
</g>
<!-- Node4 -->
<g id="node6" class="node"><title>Node4</title>
<a xlink:href="classmfem_1_1SparseMatrix.html" target="_top" xlink:title="Data type sparse matrix. ">
<polygon fill="white" stroke="red" points="0.5,-234.058 0.5,-258.058 141.5,-258.058 141.5,-234.058 0.5,-234.058"/>
<text text-anchor="middle" x="71" y="-241.458" font-family="Helvetica,sans-Serif" font-size="14.00">mfem::SparseMatrix</text>
</a>
</g>
<!-- Node4&#45;&gt;Node1 -->
<g id="edge6" class="edge"><title>Node4&#45;&gt;Node1</title>
<path fill="none" stroke="#9a32cd" stroke-dasharray="5,2" d="M139.305,-259.98C178.528,-267.265 228.819,-275.41 274,-279.058 495.008,-296.905 757.392,-255.682 873.961,-234.134"/>
<polygon fill="#9a32cd" stroke="#9a32cd" points="139.8,-256.512 129.325,-258.101 138.505,-263.391 139.8,-256.512"/>
<text text-anchor="middle" x="496" y="-300.458" font-family="Helvetica,sans-Serif" font-size="14.00"> mat</text>
<text text-anchor="middle" x="496" y="-284.458" font-family="Helvetica,sans-Serif" font-size="14.00">mat_e</text>
</g>
<!-- Node6 -->
<g id="node10" class="node"><title>Node6</title>
<a xlink:href="classmfem_1_1FiniteElementSpace.html" target="_top" xlink:title="mfem::FiniteElementSpace">
<polygon fill="white" stroke="red" points="274.5,-186.058 274.5,-210.058 457.5,-210.058 457.5,-186.058 274.5,-186.058"/>
<text text-anchor="middle" x="366" y="-193.458" font-family="Helvetica,sans-Serif" font-size="14.00">mfem::FiniteElementSpace</text>
</a>
</g>
<!-- Node4&#45;&gt;Node6 -->
<g id="edge12" class="edge"><title>Node4&#45;&gt;Node6</title>
<path fill="none" stroke="#9a32cd" stroke-dasharray="5,2" d="M97.2251,-228.339C114.295,-217.888 137.496,-205.646 160,-200.058 196.707,-190.944 238.24,-189.018 274.348,-189.898"/>
<polygon fill="#9a32cd" stroke="#9a32cd" points="94.999,-225.606 88.4162,-233.908 98.7392,-231.523 94.999,-225.606"/>
<text text-anchor="middle" x="208" y="-219.458" font-family="Helvetica,sans-Serif" font-size="14.00"> cR</text>
<text text-anchor="middle" x="208" y="-203.458" font-family="Helvetica,sans-Serif" font-size="14.00">cP</text>
</g>
<!-- Node9 -->
<g id="node19" class="node"><title>Node9</title>
<a xlink:href="classmfem_1_1Hybridization.html" target="_top" xlink:title="mfem::Hybridization">
<polygon fill="white" stroke="red" points="554.5,-162.058 554.5,-186.058 693.5,-186.058 693.5,-162.058 554.5,-162.058"/>
<text text-anchor="middle" x="624" y="-169.458" font-family="Helvetica,sans-Serif" font-size="14.00">mfem::Hybridization</text>
</a>
</g>
<!-- Node4&#45;&gt;Node9 -->
<g id="edge24" class="edge"><title>Node4&#45;&gt;Node9</title>
<path fill="none" stroke="#9a32cd" stroke-dasharray="5,2" d="M151.941,-247.157C242.021,-246.665 391.32,-240.72 516,-211.058 530.461,-207.618 565.055,-195.506 591.223,-186.066"/>
<polygon fill="#9a32cd" stroke="#9a32cd" points="151.783,-243.657 141.795,-247.19 151.807,-250.657 151.783,-243.657"/>
<text text-anchor="middle" x="366" y="-262.458" font-family="Helvetica,sans-Serif" font-size="14.00"> H</text>
<text text-anchor="middle" x="366" y="-246.458" font-family="Helvetica,sans-Serif" font-size="14.00">Ct</text>
</g>
<!-- Node5 -->
<g id="node8" class="node"><title>Node5</title>
<a xlink:href="classmfem_1_1Array.html" target="_top" xlink:title="mfem::Array\&lt; int \&gt;">
<polygon fill="white" stroke="red" points="6,-92.0583 6,-116.058 136,-116.058 136,-92.0583 6,-92.0583"/>
<text text-anchor="middle" x="71" y="-99.4583" font-family="Helvetica,sans-Serif" font-size="14.00">mfem::Array&lt; int &gt;</text>
</a>
</g>
<!-- Node5&#45;&gt;Node1 -->
<g id="edge8" class="edge"><title>Node5&#45;&gt;Node1</title>
<path fill="none" stroke="#9a32cd" stroke-dasharray="5,2" d="M146.053,-92.325C317.239,-67.1034 730.795,-15.3475 848,-84.0583 897.11,-112.849 922.735,-181.502 931.479,-209.673"/>
<polygon fill="#9a32cd" stroke="#9a32cd" points="145.493,-88.8696 136.115,-93.7995 146.521,-95.7938 145.493,-88.8696"/>
<text text-anchor="middle" x="496" y="-58.4583" font-family="Helvetica,sans-Serif" font-size="14.00"> vdofs</text>
</g>
<!-- Node5&#45;&gt;Node6 -->
<g id="edge14" class="edge"><title>Node5&#45;&gt;Node6</title>
<path fill="none" stroke="#9a32cd" stroke-dasharray="5,2" d="M140.06,-118.222C184.023,-128.021 236.277,-141.352 256,-153.058 266.003,-158.996 264.046,-166.039 274,-172.058 283.658,-177.899 294.676,-182.471 305.651,-186.037"/>
<polygon fill="#9a32cd" stroke="#9a32cd" points="140.764,-114.793 130.246,-116.062 139.26,-121.63 140.764,-114.793"/>
<text text-anchor="middle" x="208" y="-172.458" font-family="Helvetica,sans-Serif" font-size="14.00"> dof_ldof_array</text>
<text text-anchor="middle" x="208" y="-156.458" font-family="Helvetica,sans-Serif" font-size="14.00">dof_elem_array</text>
</g>
<!-- Node5&#45;&gt;Node9 -->
<g id="edge26" class="edge"><title>Node5&#45;&gt;Node9</title>
<path fill="none" stroke="#9a32cd" stroke-dasharray="5,2" d="M146.333,-98.5704C224.885,-94.5289 351.212,-92.7751 458,-113.058 484.846,-118.157 554.614,-145.657 594.636,-161.941"/>
<polygon fill="#9a32cd" stroke="#9a32cd" points="145.844,-95.0917 136.048,-99.1268 146.222,-102.081 145.844,-95.0917"/>
<text text-anchor="middle" x="366" y="-164.458" font-family="Helvetica,sans-Serif" font-size="14.00"> Af_f_offsets</text>
<text text-anchor="middle" x="366" y="-148.458" font-family="Helvetica,sans-Serif" font-size="14.00">hat_dofs_marker</text>
<text text-anchor="middle" x="366" y="-132.458" font-family="Helvetica,sans-Serif" font-size="14.00">hat_offsets</text>
<text text-anchor="middle" x="366" y="-116.458" font-family="Helvetica,sans-Serif" font-size="14.00">Af_offsets</text>
</g>
<!-- Node6&#45;&gt;Node1 -->
<g id="edge10" class="edge"><title>Node6&#45;&gt;Node1</title>
<path fill="none" stroke="#9a32cd" stroke-dasharray="5,2" d="M467.709,-206.56C470.502,-206.735 473.27,-206.902 476,-207.058 614.106,-214.96 775.843,-219.041 865.745,-220.851"/>
<polygon fill="#9a32cd" stroke="#9a32cd" points="467.719,-203.053 457.511,-205.888 467.259,-210.038 467.719,-203.053"/>
<text text-anchor="middle" x="624" y="-219.458" font-family="Helvetica,sans-Serif" font-size="14.00"> fes</text>
</g>
<!-- Node6&#45;&gt;Node9 -->
<g id="edge28" class="edge"><title>Node6&#45;&gt;Node9</title>
<path fill="none" stroke="#9a32cd" stroke-dasharray="5,2" d="M423.538,-183.773C440.341,-180.216 458.81,-176.895 476,-175.058 501.422,-172.342 529.44,-171.586 554.196,-171.677"/>
<polygon fill="#9a32cd" stroke="#9a32cd" points="422.34,-180.452 413.318,-186.008 423.835,-187.291 422.34,-180.452"/>
<text text-anchor="middle" x="496" y="-194.458" font-family="Helvetica,sans-Serif" font-size="14.00"> c_fes</text>
<text text-anchor="middle" x="496" y="-178.458" font-family="Helvetica,sans-Serif" font-size="14.00">fes</text>
</g>
<!-- Node7&#45;&gt;Node1 -->
<g id="edge16" class="edge"><title>Node7&#45;&gt;Node1</title>
<path fill="none" stroke="#9a32cd" stroke-dasharray="5,2" d="M702.718,-324.005C747.035,-322.426 802.452,-315.865 848,-296.058 880.549,-281.904 910.115,-251.364 924.956,-234.274"/>
<polygon fill="#9a32cd" stroke="#9a32cd" points="702.472,-320.51 692.573,-324.287 702.667,-327.508 702.472,-320.51"/>
<text text-anchor="middle" x="790" y="-324.458" font-family="Helvetica,sans-Serif" font-size="14.00"> elemmat</text>
</g>
<!-- Node8 -->
<g id="node17" class="node"><title>Node8</title>
<a xlink:href="classmfem_1_1Array.html" target="_top" xlink:title="mfem::Array\&lt; mfem::\lBilinearFormIntegrator * \&gt;">
<polygon fill="white" stroke="red" points="536.5,-86.0583 536.5,-126.058 711.5,-126.058 711.5,-86.0583 536.5,-86.0583"/>
<text text-anchor="start" x="544.5" y="-109.458" font-family="Helvetica,sans-Serif" font-size="14.00">mfem::Array&lt; mfem::</text>
<text text-anchor="middle" x="624" y="-93.4583" font-family="Helvetica,sans-Serif" font-size="14.00">BilinearFormIntegrator * &gt;</text>
</a>
</g>
<!-- Node8&#45;&gt;Node1 -->
<g id="edge20" class="edge"><title>Node8&#45;&gt;Node1</title>
<path fill="none" stroke="#9a32cd" stroke-dasharray="5,2" d="M721.696,-89.2169C762.667,-86.6413 809.604,-89.8418 848,-109.058 891.396,-130.777 919.34,-185.478 930.054,-209.925"/>
<polygon fill="#9a32cd" stroke="#9a32cd" points="721.402,-85.729 711.691,-89.966 721.925,-92.7095 721.402,-85.729"/>
<text text-anchor="middle" x="790" y="-160.458" font-family="Helvetica,sans-Serif" font-size="14.00"> dbfi</text>
<text text-anchor="middle" x="790" y="-144.458" font-family="Helvetica,sans-Serif" font-size="14.00">bbfi</text>
<text text-anchor="middle" x="790" y="-128.458" font-family="Helvetica,sans-Serif" font-size="14.00">bfbfi</text>
<text text-anchor="middle" x="790" y="-112.458" font-family="Helvetica,sans-Serif" font-size="14.00">fbfi</text>
</g>
<!-- Node9&#45;&gt;Node1 -->
<g id="edge22" class="edge"><title>Node9&#45;&gt;Node1</title>
<path fill="none" stroke="#9a32cd" stroke-dasharray="5,2" d="M703.663,-175.591C746.766,-177.637 800.714,-182.171 848,-192.058 867.861,-196.211 889.428,-203.627 906.12,-210.046"/>
<polygon fill="#9a32cd" stroke="#9a32cd" points="703.659,-172.088 693.515,-175.146 703.352,-179.081 703.659,-172.088"/>
<text text-anchor="middle" x="790" y="-195.458" font-family="Helvetica,sans-Serif" font-size="14.00"> hybridization</text>
</g>
<!-- Node10 -->
<g id="node24" class="node"><title>Node10</title>
<a xlink:href="classmfem_1_1DenseTensor.html" target="_top" xlink:title="Rank 3 tensor (array of matrices) ">
<polygon fill="white" stroke="black" points="553.5,-6.05826 553.5,-30.0583 694.5,-30.0583 694.5,-6.05826 553.5,-6.05826"/>
<text text-anchor="middle" x="624" y="-13.4583" font-family="Helvetica,sans-Serif" font-size="14.00">mfem::DenseTensor</text>
</a>
</g>
<!-- Node10&#45;&gt;Node1 -->
<g id="edge30" class="edge"><title>Node10&#45;&gt;Node1</title>
<path fill="none" stroke="#9a32cd" stroke-dasharray="5,2" d="M685.465,-4.46537C733.801,2.62896 800.659,4.11603 848,-28.0583 912.264,-71.7335 929.666,-174.751 933.822,-209.991"/>
<polygon fill="#9a32cd" stroke="#9a32cd" points="684.774,-1.03116 675.445,-6.05424 685.87,-7.94477 684.774,-1.03116"/>
<text text-anchor="middle" x="790" y="-31.4583" font-family="Helvetica,sans-Serif" font-size="14.00"> element_matrices</text>
</g>
</g>
</svg>
        <g id="navigator" transform="translate(0 0)" fill="#404254">
                <rect fill="#f2f5e9" fill-opacity="0.5" stroke="#606060" stroke-width=".5" x="0" y="0" width="60" height="60"/>
                <use id="zoomplus" xlink:href="#zoomPlus" x="17" y="9" onmousedown="handleZoom(evt,'in')"/>
                <use id="zoomminus" xlink:href="#zoomMin" x="42" y="9" onmousedown="handleZoom(evt,'out')"/>
                <use id="reset" xlink:href="#resetDef" x="30" y="36" onmousedown="handleReset()"/>
                <g id="arrowUp" xlink:href="#dirArrow" transform="translate(30 24)" onmousedown="handlePan(0,-1)">
                  <use xlink:href="#rim" fill="#404040">
                        <set attributeName="fill" to="#808080" begin="arrowUp.mouseover" end="arrowUp.mouseout"/>
                  </use>
                  <path fill="none" stroke="white" stroke-width="1.5" d="M0,-3.0v7 M-2.5,-0.5L0,-3.0L2.5,-0.5"/>
                </g>
                <g id="arrowRight" xlink:href="#dirArrow" transform="rotate(90) translate(36 -43)" onmousedown="handlePan(1,0)">
                  <use xlink:href="#rim" fill="#404040">
                        <set attributeName="fill" to="#808080" begin="arrowRight.mouseover" end="arrowRight.mouseout"/>
                  </use>
                  <path fill="none" stroke="white" stroke-width="1.5" d="M0,-3.0v7 M-2.5,-0.5L0,-3.0L2.5,-0.5"/>
                </g>
                <g id="arrowDown" xlink:href="#dirArrow" transform="rotate(180) translate(-30 -48)" onmousedown="handlePan(0,1)">
                  <use xlink:href="#rim" fill="#404040">
                        <set attributeName="fill" to="#808080" begin="arrowDown.mouseover" end="arrowDown.mouseout"/>
                  </use>
                  <path fill="none" stroke="white" stroke-width="1.5" d="M0,-3.0v7 M-2.5,-0.5L0,-3.0L2.5,-0.5"/>
                </g>
                <g id="arrowLeft" xlink:href="#dirArrow" transform="rotate(270) translate(-36 17)" onmousedown="handlePan(-1,0)">
                  <use xlink:href="#rim" fill="#404040">
                        <set attributeName="fill" to="#808080" begin="arrowLeft.mouseover" end="arrowLeft.mouseout"/>
                  </use>
                  <path fill="none" stroke="white" stroke-width="1.5" d="M0,-3.0v7 M-2.5,-0.5L0,-3.0L2.5,-0.5"/>
                </g>
        </g>
        <svg viewBox="0 0 15 15" width="100%" height="30px" preserveAspectRatio="xMaxYMin meet">
         <g id="arrow_out" transform="scale(0.3 0.3)">
          <a xlink:href="classmfem_1_1BilinearForm__coll__graph_org.svg" target="_base">
           <rect id="button" ry="5" rx="5" y="6" x="6" height="38" width="38"
                fill="#f2f5e9" fill-opacity="0.5" stroke="#606060" stroke-width="1.0"/>
           <path id="arrow"
             d="M 11.500037,31.436501 C 11.940474,20.09759 22.043105,11.32322 32.158766,21.979434 L 37.068811,17.246167 C 37.068811,17.246167 37.088388,32 37.088388,32 L 22.160133,31.978069 C 22.160133,31.978069 26.997745,27.140456 26.997745,27.140456 C 18.528582,18.264221 13.291696,25.230495 11.500037,31.436501 z"
             style="fill:#404040;"/>
          </a>
         </g>
        </svg>
</svg>
