<?xml version="1.0" encoding="UTF-8" standalone="no"?>
<!DOCTYPE svg PUBLIC "-//W3C//DTD SVG 1.1//EN"
 "http://www.w3.org/Graphics/SVG/1.1/DTD/svg11.dtd">
<!-- Generated by graphviz version 2.30.1 (20140821.0912)
 -->
<!-- Title: mfem::igzstream Pages: 1 -->
<svg width="327pt" height="288pt"
 viewBox="0.00 0.00 327.00 288.00" xmlns="http://www.w3.org/2000/svg" xmlns:xlink="http://www.w3.org/1999/xlink">
<g id="graph0" class="graph" transform="scale(1 1) rotate(0) translate(4 284)">
<title>mfem::igzstream</title>
<polygon fill="white" stroke="white" points="-4,5 -4,-284 324,-284 324,5 -4,5"/>
<!-- Node1 -->
<g id="node1" class="node"><title>Node1</title>
<polygon fill="#bfbfbf" stroke="black" points="92.5,-0.5 92.5,-23.5 211.5,-23.5 211.5,-0.5 92.5,-0.5"/>
<text text-anchor="middle" x="152" y="-8.3" font-family="Helvetica,sans-Serif" font-size="14.00">mfem::igzstream</text>
</g>
<!-- Node2 -->
<g id="node2" class="node"><title>Node2</title>
<g id="a_node2"><a xlink:href="classmfem_1_1gzstreambase.html" target="_top" xlink:title="mfem::gzstreambase">
<polygon fill="white" stroke="black" points="12.5,-60.5 12.5,-83.5 157.5,-83.5 157.5,-60.5 12.5,-60.5"/>
<text text-anchor="middle" x="85" y="-68.3" font-family="Helvetica,sans-Serif" font-size="14.00">mfem::gzstreambase</text>
</a>
</g>
</g>
<!-- Node2&#45;&gt;Node1 -->
<g id="edge1" class="edge"><title>Node2&#45;&gt;Node1</title>
<path fill="none" stroke="midnightblue" d="M104.995,-53.6908C116.306,-43.8996 130.083,-31.973 139.789,-23.5707"/>
<polygon fill="midnightblue" stroke="midnightblue" points="102.559,-51.1706 97.2888,-60.3619 107.14,-56.4631 102.559,-51.1706"/>
</g>
<!-- Node3 -->
<g id="node3" class="node"><title>Node3</title>
<g id="a_node3"><a xlink:title="STL class. ">
<polygon fill="white" stroke="#bfbfbf" points="46.5,-128.5 46.5,-151.5 105.5,-151.5 105.5,-128.5 46.5,-128.5"/>
<text text-anchor="middle" x="76" y="-136.3" font-family="Helvetica,sans-Serif" font-size="14.00">std::ios</text>
</a>
</g>
</g>
<!-- Node3&#45;&gt;Node2 -->
<g id="edge2" class="edge"><title>Node3&#45;&gt;Node2</title>
<path fill="none" stroke="midnightblue" d="M78.8159,-118.35C80.377,-106.902 82.2541,-93.1367 83.5277,-83.797"/>
<polygon fill="midnightblue" stroke="midnightblue" points="75.3293,-118.015 77.446,-128.396 82.2651,-118.961 75.3293,-118.015"/>
</g>
<!-- Node4 -->
<g id="node4" class="node"><title>Node4</title>
<g id="a_node4"><a xlink:title="STL class. ">
<polygon fill="white" stroke="#bfbfbf" points="-0.5,-196.5 -0.5,-219.5 148.5,-219.5 148.5,-196.5 -0.5,-196.5"/>
<text text-anchor="middle" x="74" y="-204.3" font-family="Helvetica,sans-Serif" font-size="14.00">std::basic_ios&lt; char &gt;</text>
</a>
</g>
</g>
<!-- Node4&#45;&gt;Node3 -->
<g id="edge3" class="edge"><title>Node4&#45;&gt;Node3</title>
<path fill="none" stroke="midnightblue" d="M74.6258,-186.35C74.9727,-174.902 75.3898,-161.137 75.6728,-151.797"/>
<polygon fill="midnightblue" stroke="midnightblue" points="71.1259,-186.295 74.3213,-196.396 78.1227,-186.507 71.1259,-186.295"/>
</g>
<!-- Node5 -->
<g id="node5" class="node"><title>Node5</title>
<g id="a_node5"><a xlink:title="STL class. ">
<polygon fill="white" stroke="#bfbfbf" points="110,-256.5 110,-279.5 206,-279.5 206,-256.5 110,-256.5"/>
<text text-anchor="middle" x="158" y="-264.3" font-family="Helvetica,sans-Serif" font-size="14.00">std::ios_base</text>
</a>
</g>
</g>
<!-- Node5&#45;&gt;Node4 -->
<g id="edge4" class="edge"><title>Node5&#45;&gt;Node4</title>
<path fill="none" stroke="midnightblue" d="M134.162,-250.541C119.762,-240.597 101.833,-228.218 89.3092,-219.571"/>
<polygon fill="midnightblue" stroke="midnightblue" points="132.375,-253.56 142.593,-256.362 136.353,-247.8 132.375,-253.56"/>
</g>
<!-- Node8 -->
<g id="node8" class="node"><title>Node8</title>
<g id="a_node8"><a xlink:title="STL class. ">
<polygon fill="white" stroke="#bfbfbf" points="167,-196.5 167,-219.5 319,-219.5 319,-196.5 167,-196.5"/>
<text text-anchor="middle" x="243" y="-204.3" font-family="Helvetica,sans-Serif" font-size="14.00">std::basic_ios&lt; Char &gt;</text>
</a>
</g>
</g>
<!-- Node5&#45;&gt;Node8 -->
<g id="edge8" class="edge"><title>Node5&#45;&gt;Node8</title>
<path fill="none" stroke="midnightblue" d="M182.121,-250.541C196.694,-240.597 214.836,-228.218 227.509,-219.571"/>
<polygon fill="midnightblue" stroke="midnightblue" points="179.878,-247.834 173.59,-256.362 183.823,-253.617 179.878,-247.834"/>
</g>
<!-- Node6 -->
<g id="node6" class="node"><title>Node6</title>
<g id="a_node6"><a xlink:title="STL class. ">
<polygon fill="white" stroke="#bfbfbf" points="192.5,-60.5 192.5,-83.5 279.5,-83.5 279.5,-60.5 192.5,-60.5"/>
<text text-anchor="middle" x="236" y="-68.3" font-family="Helvetica,sans-Serif" font-size="14.00">std::istream</text>
</a>
</g>
</g>
<!-- Node6&#45;&gt;Node1 -->
<g id="edge5" class="edge"><title>Node6&#45;&gt;Node1</title>
<path fill="none" stroke="midnightblue" d="M212.162,-54.5407C197.762,-44.5973 179.833,-32.2177 167.309,-23.5707"/>
<polygon fill="midnightblue" stroke="midnightblue" points="210.375,-57.5601 220.593,-60.3619 214.353,-51.7998 210.375,-57.5601"/>
</g>
<!-- Node7 -->
<g id="node7" class="node"><title>Node7</title>
<g id="a_node7"><a xlink:title="STL class. ">
<polygon fill="white" stroke="#bfbfbf" points="177,-121 177,-159 303,-159 303,-121 177,-121"/>
<text text-anchor="start" x="185" y="-143.8" font-family="Helvetica,sans-Serif" font-size="14.00">std::basic_istream</text>
<text text-anchor="middle" x="240" y="-128.8" font-family="Helvetica,sans-Serif" font-size="14.00">&lt; char &gt;</text>
</a>
</g>
</g>
<!-- Node7&#45;&gt;Node6 -->
<g id="edge6" class="edge"><title>Node7&#45;&gt;Node6</title>
<path fill="none" stroke="midnightblue" d="M238.299,-110.936C237.718,-101.342 237.102,-91.1778 236.654,-83.7878"/>
<polygon fill="midnightblue" stroke="midnightblue" points="234.808,-111.195 238.907,-120.965 241.796,-110.772 234.808,-111.195"/>
</g>
<!-- Node8&#45;&gt;Node7 -->
<g id="edge7" class="edge"><title>Node8&#45;&gt;Node7</title>
<path fill="none" stroke="midnightblue" d="M242.058,-186.274C241.661,-177.541 241.203,-167.471 240.82,-159.048"/>
<polygon fill="midnightblue" stroke="midnightblue" points="238.567,-186.565 242.518,-196.396 245.56,-186.247 238.567,-186.565"/>
</g>
</g>
</svg>
