<?xml version="1.0" encoding="UTF-8" standalone="no"?>
<!DOCTYPE svg PUBLIC "-//W3C//DTD SVG 1.1//EN"
 "http://www.w3.org/Graphics/SVG/1.1/DTD/svg11.dtd">
<!-- Generated by graphviz version 2.26.3 (20100126.1600)
 -->
<!-- Title: mfem::H1_FiniteElement&lt; Geometry::TETRAHEDRON, P &gt; Pages: 1 -->
<svg width="240pt" height="350pt"
 viewBox="0.00 0.00 240.00 350.00" xmlns="http://www.w3.org/2000/svg" xmlns:xlink="http://www.w3.org/1999/xlink">
<g id="graph1" class="graph" transform="scale(1 1) rotate(0) translate(4 346)">
<title>mfem::H1_FiniteElement&lt; Geometry::TETRAHEDRON, P &gt;</title>
<polygon fill="white" stroke="white" points="-4,5 -4,-346 237,-346 237,5 -4,5"/>
<!-- Node1 -->
<g id="node1" class="node"><title>Node1</title>
<polygon fill="#bfbfbf" stroke="black" points="0,-1 0,-41 232,-41 232,-1 0,-1"/>
<text text-anchor="start" x="8" y="-24.4" font-family="Helvetica,sans-Serif" font-size="14.00">mfem::H1_FiniteElement</text>
<text text-anchor="middle" x="116" y="-8.4" font-family="Helvetica,sans-Serif" font-size="14.00">&lt; Geometry::TETRAHEDRON, P &gt;</text>
</g>
<!-- Node2 -->
<g id="node2" class="node"><title>Node2</title>
<a xlink:href="classmfem_1_1FiniteElement.html" target="_top" xlink:title="Abstract class for Finite Elements. ">
<polygon fill="white" stroke="black" points="44,-95 44,-119 188,-119 188,-95 44,-95"/>
<text text-anchor="middle" x="116" y="-102.4" font-family="Helvetica,sans-Serif" font-size="14.00">mfem::FiniteElement</text>
</a>
</g>
<!-- Node2&#45;&gt;Node1 -->
<g id="edge2" class="edge"><title>Node2&#45;&gt;Node1</title>
<path fill="none" stroke="#9a32cd" stroke-dasharray="5,2" d="M116,-84.4073C116,-71.0285 116,-54.2183 116,-41.2685"/>
<polygon fill="#9a32cd" stroke="#9a32cd" points="112.5,-84.6783 116,-94.6783 119.5,-84.6783 112.5,-84.6783"/>
<text text-anchor="middle" x="137.5" y="-63.4" font-family="Helvetica,sans-Serif" font-size="14.00"> my_fe</text>
</g>
<!-- Node3 -->
<g id="node4" class="node"><title>Node3</title>
<a xlink:href="classmfem_1_1IntegrationRule.html" target="_top" xlink:title="Class for integration rule. ">
<polygon fill="white" stroke="black" points="40,-173 40,-197 192,-197 192,-173 40,-173"/>
<text text-anchor="middle" x="116" y="-180.4" font-family="Helvetica,sans-Serif" font-size="14.00">mfem::IntegrationRule</text>
</a>
</g>
<!-- Node3&#45;&gt;Node2 -->
<g id="edge4" class="edge"><title>Node3&#45;&gt;Node2</title>
<path fill="none" stroke="#9a32cd" stroke-dasharray="5,2" d="M116,-162.417C116,-148.285 116,-130.634 116,-119.102"/>
<polygon fill="#9a32cd" stroke="#9a32cd" points="112.5,-162.812 116,-172.812 119.5,-162.813 112.5,-162.812"/>
<text text-anchor="middle" x="139" y="-141.4" font-family="Helvetica,sans-Serif" font-size="14.00"> Nodes</text>
</g>
<!-- Node4 -->
<g id="node6" class="node"><title>Node4</title>
<a xlink:href="classmfem_1_1Array.html" target="_top" xlink:title="mfem::Array\&lt; Integration\lPoint \&gt;">
<polygon fill="white" stroke="black" points="31.5,-237 31.5,-277 200.5,-277 200.5,-237 31.5,-237"/>
<text text-anchor="start" x="39.5" y="-260.4" font-family="Helvetica,sans-Serif" font-size="14.00">mfem::Array&lt; Integration</text>
<text text-anchor="middle" x="116" y="-244.4" font-family="Helvetica,sans-Serif" font-size="14.00">Point &gt;</text>
</a>
</g>
<!-- Node4&#45;&gt;Node3 -->
<g id="edge6" class="edge"><title>Node4&#45;&gt;Node3</title>
<path fill="none" stroke="midnightblue" d="M116,-226.835C116,-216.364 116,-205.216 116,-197.064"/>
<polygon fill="midnightblue" stroke="midnightblue" points="112.5,-226.944 116,-236.944 119.5,-226.944 112.5,-226.944"/>
</g>
<!-- Node5 -->
<g id="node8" class="node"><title>Node5</title>
<a xlink:href="classmfem_1_1BaseArray.html" target="_top" xlink:title="Base class for array container. ">
<polygon fill="white" stroke="black" points="54.5,-317 54.5,-341 177.5,-341 177.5,-317 54.5,-317"/>
<text text-anchor="middle" x="116" y="-324.4" font-family="Helvetica,sans-Serif" font-size="14.00">mfem::BaseArray</text>
</a>
</g>
<!-- Node5&#45;&gt;Node4 -->
<g id="edge8" class="edge"><title>Node5&#45;&gt;Node4</title>
<path fill="none" stroke="midnightblue" d="M116,-306.601C116,-297.195 116,-286.338 116,-277.183"/>
<polygon fill="midnightblue" stroke="midnightblue" points="112.5,-306.786 116,-316.786 119.5,-306.786 112.5,-306.786"/>
</g>
</g>
</svg>
