<?xml version="1.0" encoding="UTF-8" standalone="no"?>
<!DOCTYPE svg PUBLIC "-//W3C//DTD SVG 1.1//EN"
 "http://www.w3.org/Graphics/SVG/1.1/DTD/svg11.dtd">
<!-- Generated by graphviz version 2.26.3 (20100126.1600)
 -->
<!-- Title: mfem::H1_FiniteElement&lt; Geometry::SQUARE, P &gt; Pages: 1 -->
<svg width="280pt" height="390pt"
 viewBox="0.00 0.00 280.00 390.00" xmlns="http://www.w3.org/2000/svg" xmlns:xlink="http://www.w3.org/1999/xlink">
<g id="graph1" class="graph" transform="scale(1 1) rotate(0) translate(4 386)">
<title>mfem::H1_FiniteElement&lt; Geometry::SQUARE, P &gt;</title>
<polygon fill="white" stroke="white" points="-4,5 -4,-386 277,-386 277,5 -4,5"/>
<!-- Node1 -->
<g id="node1" class="node"><title>Node1</title>
<polygon fill="#bfbfbf" stroke="black" points="0,-1 0,-41 184,-41 184,-1 0,-1"/>
<text text-anchor="start" x="8" y="-24.4" font-family="Helvetica,sans-Serif" font-size="14.00">mfem::H1_FiniteElement</text>
<text text-anchor="middle" x="92" y="-8.4" font-family="Helvetica,sans-Serif" font-size="14.00">&lt; Geometry::SQUARE, P &gt;</text>
</g>
<!-- Node2 -->
<g id="node2" class="node"><title>Node2</title>
<a xlink:href="classmfem_1_1Array.html" target="_top" xlink:title="mfem::Array\&lt; int \&gt;">
<polygon fill="white" stroke="black" points="11,-233 11,-257 141,-257 141,-233 11,-233"/>
<text text-anchor="middle" x="76" y="-240.4" font-family="Helvetica,sans-Serif" font-size="14.00">mfem::Array&lt; int &gt;</text>
</a>
</g>
<!-- Node2&#45;&gt;Node1 -->
<g id="edge2" class="edge"><title>Node2&#45;&gt;Node1</title>
<path fill="none" stroke="#9a32cd" stroke-dasharray="5,2" d="M77.5828,-222.841C80.6966,-179.248 87.575,-82.9507 90.5651,-41.088"/>
<polygon fill="#9a32cd" stroke="#9a32cd" points="74.0817,-222.733 76.8602,-232.957 81.0639,-223.232 74.0817,-222.733"/>
<text text-anchor="middle" x="126" y="-157.4" font-family="Helvetica,sans-Serif" font-size="14.00"> my_dof_map</text>
</g>
<!-- Node3 -->
<g id="node4" class="node"><title>Node3</title>
<a xlink:href="classmfem_1_1BaseArray.html" target="_top" xlink:title="Base class for array container. ">
<polygon fill="white" stroke="black" points="48.5,-357 48.5,-381 171.5,-381 171.5,-357 48.5,-357"/>
<text text-anchor="middle" x="110" y="-364.4" font-family="Helvetica,sans-Serif" font-size="14.00">mfem::BaseArray</text>
</a>
</g>
<!-- Node3&#45;&gt;Node2 -->
<g id="edge4" class="edge"><title>Node3&#45;&gt;Node2</title>
<path fill="none" stroke="midnightblue" d="M103.412,-347.156C100.737,-338.147 97.6573,-327.589 95,-318 89.0895,-296.672 82.7024,-271.69 79.0438,-257.173"/>
<polygon fill="midnightblue" stroke="midnightblue" points="100.098,-348.293 106.316,-356.871 106.805,-346.288 100.098,-348.293"/>
</g>
<!-- Node6 -->
<g id="node10" class="node"><title>Node6</title>
<a xlink:href="classmfem_1_1Array.html" target="_top" xlink:title="mfem::Array\&lt; Integration\lPoint \&gt;">
<polygon fill="white" stroke="black" points="103.5,-277 103.5,-317 272.5,-317 272.5,-277 103.5,-277"/>
<text text-anchor="start" x="111.5" y="-300.4" font-family="Helvetica,sans-Serif" font-size="14.00">mfem::Array&lt; Integration</text>
<text text-anchor="middle" x="188" y="-284.4" font-family="Helvetica,sans-Serif" font-size="14.00">Point &gt;</text>
</a>
</g>
<!-- Node3&#45;&gt;Node6 -->
<g id="edge12" class="edge"><title>Node3&#45;&gt;Node6</title>
<path fill="none" stroke="midnightblue" d="M130.684,-349.907C141.616,-339.816 155.032,-327.432 166.135,-317.183"/>
<polygon fill="midnightblue" stroke="midnightblue" points="128.206,-347.432 123.232,-356.786 132.954,-352.575 128.206,-347.432"/>
</g>
<!-- Node4 -->
<g id="node6" class="node"><title>Node4</title>
<a xlink:href="classmfem_1_1FiniteElement.html" target="_top" xlink:title="Abstract class for Finite Elements. ">
<polygon fill="white" stroke="black" points="108,-111 108,-135 252,-135 252,-111 108,-111"/>
<text text-anchor="middle" x="180" y="-118.4" font-family="Helvetica,sans-Serif" font-size="14.00">mfem::FiniteElement</text>
</a>
</g>
<!-- Node4&#45;&gt;Node1 -->
<g id="edge6" class="edge"><title>Node4&#45;&gt;Node1</title>
<path fill="none" stroke="#9a32cd" stroke-dasharray="5,2" d="M162.615,-102.849C147.202,-84.9845 124.81,-59.0296 109.394,-41.1614"/>
<polygon fill="#9a32cd" stroke="#9a32cd" points="160.377,-105.613 169.56,-110.899 165.677,-101.041 160.377,-105.613"/>
<text text-anchor="middle" x="184" y="-79.4" font-family="Helvetica,sans-Serif" font-size="14.00"> my_fe_1d</text>
<text text-anchor="middle" x="184" y="-63.4" font-family="Helvetica,sans-Serif" font-size="14.00">my_fe</text>
</g>
<!-- Node5 -->
<g id="node8" class="node"><title>Node5</title>
<a xlink:href="classmfem_1_1IntegrationRule.html" target="_top" xlink:title="Class for integration rule. ">
<polygon fill="white" stroke="black" points="111,-189 111,-213 263,-213 263,-189 111,-189"/>
<text text-anchor="middle" x="187" y="-196.4" font-family="Helvetica,sans-Serif" font-size="14.00">mfem::IntegrationRule</text>
</a>
</g>
<!-- Node5&#45;&gt;Node4 -->
<g id="edge8" class="edge"><title>Node5&#45;&gt;Node4</title>
<path fill="none" stroke="#9a32cd" stroke-dasharray="5,2" d="M185.011,-178.836C183.736,-164.635 182.131,-146.749 181.086,-135.102"/>
<polygon fill="#9a32cd" stroke="#9a32cd" points="181.526,-179.165 185.906,-188.812 188.498,-178.54 181.526,-179.165"/>
<text text-anchor="middle" x="207" y="-157.4" font-family="Helvetica,sans-Serif" font-size="14.00"> Nodes</text>
</g>
<!-- Node6&#45;&gt;Node5 -->
<g id="edge10" class="edge"><title>Node6&#45;&gt;Node5</title>
<path fill="none" stroke="midnightblue" d="M187.683,-266.526C187.494,-248.431 187.265,-226.485 187.126,-213.14"/>
<polygon fill="midnightblue" stroke="midnightblue" points="184.184,-266.678 187.788,-276.641 191.183,-266.605 184.184,-266.678"/>
</g>
</g>
</svg>
