<?xml version="1.0" encoding="UTF-8" standalone="no"?>
<!DOCTYPE svg PUBLIC "-//W3C//DTD SVG 1.1//EN"
 "http://www.w3.org/Graphics/SVG/1.1/DTD/svg11.dtd">
<!-- Generated by graphviz version 2.26.3 (20100126.1600)
 -->
<!-- Title: mfem::SuperLUSolver Pages: 1 -->
<svg width="160pt" height="158pt"
 viewBox="0.00 0.00 160.00 158.00" xmlns="http://www.w3.org/2000/svg" xmlns:xlink="http://www.w3.org/1999/xlink">
<g id="graph1" class="graph" transform="scale(1 1) rotate(0) translate(4 154)">
<title>mfem::SuperLUSolver</title>
<polygon fill="white" stroke="white" points="-4,5 -4,-154 157,-154 157,5 -4,5"/>
<!-- Node1 -->
<g id="node1" class="node"><title>Node1</title>
<polygon fill="#bfbfbf" stroke="black" points="0,-1 0,-25 152,-25 152,-1 0,-1"/>
<text text-anchor="middle" x="76" y="-8.4" font-family="Helvetica,sans-Serif" font-size="14.00">mfem::SuperLUSolver</text>
</g>
<!-- Node2 -->
<g id="node2" class="node"><title>Node2</title>
<a xlink:href="classmfem_1_1Solver.html" target="_top" xlink:title="Base class for solvers. ">
<polygon fill="white" stroke="black" points="27,-63 27,-87 125,-87 125,-63 27,-63"/>
<text text-anchor="middle" x="76" y="-70.4" font-family="Helvetica,sans-Serif" font-size="14.00">mfem::Solver</text>
</a>
</g>
<!-- Node2&#45;&gt;Node1 -->
<g id="edge2" class="edge"><title>Node2&#45;&gt;Node1</title>
<path fill="none" stroke="midnightblue" d="M76,-52.63C76,-43.3865 76,-33.0306 76,-25.2238"/>
<polygon fill="midnightblue" stroke="midnightblue" points="72.5001,-52.7508 76,-62.7508 79.5001,-52.7508 72.5001,-52.7508"/>
</g>
<!-- Node3 -->
<g id="node4" class="node"><title>Node3</title>
<a xlink:href="classmfem_1_1Operator.html" target="_top" xlink:title="Abstract operator. ">
<polygon fill="white" stroke="black" points="19.5,-125 19.5,-149 132.5,-149 132.5,-125 19.5,-125"/>
<text text-anchor="middle" x="76" y="-132.4" font-family="Helvetica,sans-Serif" font-size="14.00">mfem::Operator</text>
</a>
</g>
<!-- Node3&#45;&gt;Node2 -->
<g id="edge4" class="edge"><title>Node3&#45;&gt;Node2</title>
<path fill="none" stroke="midnightblue" d="M76,-114.63C76,-105.386 76,-95.0306 76,-87.2238"/>
<polygon fill="midnightblue" stroke="midnightblue" points="72.5001,-114.751 76,-124.751 79.5001,-114.751 72.5001,-114.751"/>
</g>
</g>
</svg>
