<?xml version="1.0" encoding="UTF-8" standalone="no"?>
<!DOCTYPE svg PUBLIC "-//W3C//DTD SVG 1.1//EN"
 "http://www.w3.org/Graphics/SVG/1.1/DTD/svg11.dtd">
<!-- Generated by graphviz version 2.30.1 (20170916.1124)
 -->
<!-- Title: mfem::ParNCMesh::RebalanceMessage Pages: 1 -->
<svg width="214pt" height="198pt"
 viewBox="0.00 0.00 214.00 198.00" xmlns="http://www.w3.org/2000/svg" xmlns:xlink="http://www.w3.org/1999/xlink">
<g id="graph0" class="graph" transform="scale(1 1) rotate(0) translate(4 194)">
<title>mfem::ParNCMesh::RebalanceMessage</title>
<polygon fill="white" stroke="white" points="-4,5 -4,-194 211,-194 211,5 -4,5"/>
<!-- Node1 -->
<g id="node1" class="node"><title>Node1</title>
<polygon fill="#bfbfbf" stroke="black" points="0,-1 0,-39 206,-39 206,-1 0,-1"/>
<text text-anchor="start" x="8" y="-23.8" font-family="Helvetica,sans-Serif" font-size="14.00">mfem::ParNCMesh::Rebalance</text>
<text text-anchor="middle" x="103" y="-8.8" font-family="Helvetica,sans-Serif" font-size="14.00">Message</text>
</g>
<!-- Node2 -->
<g id="node2" class="node"><title>Node2</title>
<g id="a_node2"><a xlink:href="classmfem_1_1ParNCMesh_1_1ElementValueMessage.html" target="_top" xlink:title="mfem::ParNCMesh::Element\lValueMessage\&lt; int, true,\l 157 \&gt;">
<polygon fill="white" stroke="black" points="7.5,-76.5 7.5,-129.5 198.5,-129.5 198.5,-76.5 7.5,-76.5"/>
<text text-anchor="start" x="15.5" y="-114.3" font-family="Helvetica,sans-Serif" font-size="14.00">mfem::ParNCMesh::Element</text>
<text text-anchor="start" x="15.5" y="-99.3" font-family="Helvetica,sans-Serif" font-size="14.00">ValueMessage&lt; int, true,</text>
<text text-anchor="middle" x="103" y="-84.3" font-family="Helvetica,sans-Serif" font-size="14.00"> 157 &gt;</text>
</a>
</g>
</g>
<!-- Node2&#45;&gt;Node1 -->
<g id="edge1" class="edge"><title>Node2&#45;&gt;Node1</title>
<path fill="none" stroke="midnightblue" d="M103,-66.3553C103,-56.904 103,-47.0949 103,-39.0268"/>
<polygon fill="midnightblue" stroke="midnightblue" points="99.5001,-66.3711 103,-76.3711 106.5,-66.3711 99.5001,-66.3711"/>
</g>
<!-- Node3 -->
<g id="node3" class="node"><title>Node3</title>
<g id="a_node3"><a xlink:href="structmfem_1_1VarMessage.html" target="_top" xlink:title="Variable&#45;length MPI message containing unspecific binary data. ">
<polygon fill="white" stroke="black" points="11.5,-166.5 11.5,-189.5 194.5,-189.5 194.5,-166.5 11.5,-166.5"/>
<text text-anchor="middle" x="103" y="-174.3" font-family="Helvetica,sans-Serif" font-size="14.00">mfem::VarMessage&lt; Tag &gt;</text>
</a>
</g>
</g>
<!-- Node3&#45;&gt;Node2 -->
<g id="edge2" class="edge"><title>Node3&#45;&gt;Node2</title>
<path fill="none" stroke="midnightblue" d="M103,-156.021C103,-147.797 103,-138.283 103,-129.657"/>
<polygon fill="midnightblue" stroke="midnightblue" points="99.5001,-156.229 103,-166.229 106.5,-156.229 99.5001,-156.229"/>
</g>
</g>
</svg>
