<?xml version="1.0" encoding="UTF-8" standalone="no"?>
<!DOCTYPE svg PUBLIC "-//W3C//DTD SVG 1.1//EN"
 "http://www.w3.org/Graphics/SVG/1.1/DTD/svg11.dtd">
<!-- Generated by graphviz version 2.40.1 (20161225.0304)
 -->
<!-- Title: mfem::HyperelasticModel Pages: 1 -->
<svg width="320pt" height="325pt"
 viewBox="0.00 0.00 320.10 325.00" xmlns="http://www.w3.org/2000/svg" xmlns:xlink="http://www.w3.org/1999/xlink">
<g id="graph0" class="graph" transform="scale(1 1) rotate(0) translate(4 321)">
<title>mfem::HyperelasticModel</title>
<polygon fill="#ffffff" stroke="transparent" points="-4,4 -4,-321 316.103,-321 316.103,4 -4,4"/>
<!-- Node23 -->
<g id="node1" class="node">
<title>Node23</title>
<polygon fill="#bfbfbf" stroke="#000000" points="50.4551,-.5 50.4551,-22.5 224.3926,-22.5 224.3926,-.5 50.4551,-.5"/>
<text text-anchor="middle" x="137.4238" y="-7.3" font-family="Helvetica,sans-Serif" font-size="14.00" fill="#000000">mfem::HyperelasticModel</text>
</g>
<!-- Node24 -->
<g id="node2" class="node">
<title>Node24</title>
<g id="a_node2"><a xlink:href="classmfem_1_1ElementTransformation.html" target="_top" xlink:title="mfem::ElementTransformation">
<polygon fill="#ffffff" stroke="#000000" points="35.5391,-73.5 35.5391,-95.5 239.3086,-95.5 239.3086,-73.5 35.5391,-73.5"/>
<text text-anchor="middle" x="137.4238" y="-80.3" font-family="Helvetica,sans-Serif" font-size="14.00" fill="#000000">mfem::ElementTransformation</text>
</a>
</g>
</g>
<!-- Node24&#45;&gt;Node23 -->
<g id="edge1" class="edge">
<title>Node24&#45;&gt;Node23</title>
<path fill="none" stroke="#9a32cd" stroke-dasharray="5,2" d="M137.4238,-63.2419C137.4238,-49.981 137.4238,-33.4483 137.4238,-22.6915"/>
<polygon fill="#9a32cd" stroke="#9a32cd" points="133.9239,-63.4128 137.4238,-73.4129 140.9239,-63.4129 133.9239,-63.4128"/>
<text text-anchor="middle" x="147.7974" y="-43.8" font-family="Helvetica,sans-Serif" font-size="14.00" fill="#000000"> Ttr</text>
</g>
<!-- Node25 -->
<g id="node3" class="node">
<title>Node25</title>
<g id="a_node3"><a xlink:href="classmfem_1_1IntegrationPoint.html" target="_top" xlink:title="Class for integration point with weight. ">
<polygon fill="#ffffff" stroke="#000000" points="0,-174.5 0,-196.5 156.8477,-196.5 156.8477,-174.5 0,-174.5"/>
<text text-anchor="middle" x="78.4238" y="-181.3" font-family="Helvetica,sans-Serif" font-size="14.00" fill="#000000">mfem::IntegrationPoint</text>
</a>
</g>
</g>
<!-- Node25&#45;&gt;Node24 -->
<g id="edge2" class="edge">
<title>Node25&#45;&gt;Node24</title>
<path fill="none" stroke="#9a32cd" stroke-dasharray="5,2" d="M90.0535,-165.5916C102.2553,-144.7037 121.0026,-112.6109 130.8551,-95.7448"/>
<polygon fill="#9a32cd" stroke="#9a32cd" points="86.9852,-163.9052 84.9633,-174.3053 93.0295,-167.4361 86.9852,-163.9052"/>
<text text-anchor="middle" x="145.1064" y="-130.8" font-family="Helvetica,sans-Serif" font-size="14.00" fill="#000000"> IntPoint</text>
</g>
<!-- Node26 -->
<g id="node4" class="node">
<title>Node26</title>
<g id="a_node4"><a xlink:href="classmfem_1_1DenseMatrix.html" target="_top" xlink:title="Data type dense matrix using column&#45;major storage. ">
<polygon fill="#ffffff" stroke="#000000" points="174.7446,-174.5 174.7446,-196.5 312.103,-196.5 312.103,-174.5 174.7446,-174.5"/>
<text text-anchor="middle" x="243.4238" y="-181.3" font-family="Helvetica,sans-Serif" font-size="14.00" fill="#000000">mfem::DenseMatrix</text>
</a>
</g>
</g>
<!-- Node26&#45;&gt;Node24 -->
<g id="edge3" class="edge">
<title>Node26&#45;&gt;Node24</title>
<path fill="none" stroke="#9a32cd" stroke-dasharray="5,2" d="M226.699,-166.8754C213.0979,-152.053 193.1582,-131.0424 174.4238,-114 167.3744,-107.5872 159.1166,-100.929 152.1929,-95.5645"/>
<polygon fill="#9a32cd" stroke="#9a32cd" points="224.2359,-169.3689 233.5552,-174.4089 229.4129,-164.6574 224.2359,-169.3689"/>
<text text-anchor="middle" x="230.9858" y="-144.8" font-family="Helvetica,sans-Serif" font-size="14.00" fill="#000000"> adjJ</text>
<text text-anchor="middle" x="230.9858" y="-130.8" font-family="Helvetica,sans-Serif" font-size="14.00" fill="#000000">dFdx</text>
<text text-anchor="middle" x="230.9858" y="-116.8" font-family="Helvetica,sans-Serif" font-size="14.00" fill="#000000">invJ</text>
</g>
<!-- Node27 -->
<g id="node5" class="node">
<title>Node27</title>
<g id="a_node5"><a xlink:href="classmfem_1_1Matrix.html" target="_top" xlink:title="Abstract data type matrix. ">
<polygon fill="#ffffff" stroke="#000000" points="194.979,-234.5 194.979,-256.5 291.8687,-256.5 291.8687,-234.5 194.979,-234.5"/>
<text text-anchor="middle" x="243.4238" y="-241.3" font-family="Helvetica,sans-Serif" font-size="14.00" fill="#000000">mfem::Matrix</text>
</a>
</g>
</g>
<!-- Node27&#45;&gt;Node26 -->
<g id="edge4" class="edge">
<title>Node27&#45;&gt;Node26</title>
<path fill="none" stroke="#191970" d="M243.4238,-224.4183C243.4238,-215.1393 243.4238,-204.6082 243.4238,-196.8428"/>
<polygon fill="#191970" stroke="#191970" points="239.9239,-224.495 243.4238,-234.4951 246.9239,-224.4951 239.9239,-224.495"/>
</g>
<!-- Node28 -->
<g id="node6" class="node">
<title>Node28</title>
<g id="a_node6"><a xlink:href="classmfem_1_1Operator.html" target="_top" xlink:title="Abstract operator. ">
<polygon fill="#ffffff" stroke="#000000" points="186.4102,-294.5 186.4102,-316.5 300.4375,-316.5 300.4375,-294.5 186.4102,-294.5"/>
<text text-anchor="middle" x="243.4238" y="-301.3" font-family="Helvetica,sans-Serif" font-size="14.00" fill="#000000">mfem::Operator</text>
</a>
</g>
</g>
<!-- Node28&#45;&gt;Node27 -->
<g id="edge5" class="edge">
<title>Node28&#45;&gt;Node27</title>
<path fill="none" stroke="#191970" d="M243.4238,-284.4183C243.4238,-275.1393 243.4238,-264.6082 243.4238,-256.8428"/>
<polygon fill="#191970" stroke="#191970" points="239.9239,-284.495 243.4238,-294.4951 246.9239,-284.4951 239.9239,-284.495"/>
</g>
</g>
</svg>
