<?xml version="1.0" encoding="UTF-8" standalone="no"?>
<!DOCTYPE svg PUBLIC "-//W3C//DTD SVG 1.1//EN"
 "http://www.w3.org/Graphics/SVG/1.1/DTD/svg11.dtd">
<!-- Generated by graphviz version 2.30.1 (20200304.1809)
 -->
<!-- Title: mfem::IterativeSolver Pages: 1 -->
<!--zoomable 326 -->
<svg id="main" version="1.1" xmlns="http://www.w3.org/2000/svg" xmlns:xlink="http://www.w3.org/1999/xlink" xml:space="preserve" onload="init(evt)">
<style type="text/css"><![CDATA[
.edge:hover path { stroke: red; }
.edge:hover polygon { stroke: red; fill: red; }
]]></style>
<script type="text/javascript"><![CDATA[
var edges = document.getElementsByTagName('g');
if (edges && edges.length) {
  for (var i=0;i<edges.length;i++) {
    if (edges[i].id.substr(0,4)=='edge') {
      edges[i].setAttribute('class','edge');
    }
  }
}
]]></script>
        <defs>
                <circle id="rim" cx="0" cy="0" r="7"/>
                <circle id="rim2" cx="0" cy="0" r="3.5"/>
                <g id="zoomPlus">
                        <use xlink:href="#rim" fill="#404040">
                                <set attributeName="fill" to="#808080" begin="zoomplus.mouseover" end="zoomplus.mouseout"/>
                        </use>
                        <path d="M-4,0h8M0,-4v8" fill="none" stroke="white" stroke-width="1.5" pointer-events="none"/>
                </g>
                <g id="zoomMin">
                        <use xlink:href="#rim" fill="#404040">
                                <set attributeName="fill" to="#808080" begin="zoomminus.mouseover" end="zoomminus.mouseout"/>
                        </use>
                        <path d="M-4,0h8" fill="none" stroke="white" stroke-width="1.5" pointer-events="none"/>
                </g>
                <g id="dirArrow">
                        <path fill="none" stroke="white" stroke-width="1.5" d="M0,-3.0v7 M-2.5,-0.5L0,-3.0L2.5,-0.5"/>
                </g>
               <g id="resetDef">
                       <use xlink:href="#rim2" fill="#404040">
                               <set attributeName="fill" to="#808080" begin="reset.mouseover" end="reset.mouseout"/>
                       </use>
               </g>
        </defs>

<script type="text/javascript">
var viewWidth = 1218;
var viewHeight = 326;
var sectionId = 'dynsection-0';
</script>
<script xlink:href="svgpan.js"/>
<svg id="graph" class="graph">
<g id="viewport">
<title>mfem::IterativeSolver</title>
<polygon fill="white" stroke="white" points="-4,5 -4,-322 1215,-322 1215,5 -4,5"/>
<!-- Node1 -->
<g id="node1" class="node"><title>Node1</title>
<polygon fill="#bfbfbf" stroke="black" points="320.5,-147.5 320.5,-170.5 493.5,-170.5 493.5,-147.5 320.5,-147.5"/>
<text text-anchor="middle" x="407" y="-155.3" font-family="Helvetica,sans-Serif" font-size="14.00">mfem::IterativeSolver</text>
</g>
<!-- Node4 -->
<g id="node4" class="node"><title>Node4</title>
<g id="a_node4"><a xlink:href="classmfem_1_1BiCGSTABSolver.html" target="_top" xlink:title="BiCGSTAB method. ">
<polygon fill="white" stroke="black" points="539.5,-294.5 539.5,-317.5 724.5,-317.5 724.5,-294.5 539.5,-294.5"/>
<text text-anchor="middle" x="632" y="-302.3" font-family="Helvetica,sans-Serif" font-size="14.00">mfem::BiCGSTABSolver</text>
</a>
</g>
</g>
<!-- Node1&#45;&gt;Node4 -->
<g id="edge3" class="edge"><title>Node1&#45;&gt;Node4</title>
<path fill="none" stroke="midnightblue" d="M421.323,-178.937C441.374,-207.261 482.103,-258.631 530,-285 536.903,-288.801 544.417,-291.915 552.128,-294.467"/>
<polygon fill="midnightblue" stroke="midnightblue" points="424.128,-176.84 415.557,-170.612 418.374,-180.825 424.128,-176.84"/>
</g>
<!-- Node5 -->
<g id="node5" class="node"><title>Node5</title>
<g id="a_node5"><a xlink:href="classmfem_1_1CGSolver.html" target="_top" xlink:title="Conjugate gradient method. ">
<polygon fill="white" stroke="black" points="565,-252.5 565,-275.5 699,-275.5 699,-252.5 565,-252.5"/>
<text text-anchor="middle" x="632" y="-260.3" font-family="Helvetica,sans-Serif" font-size="14.00">mfem::CGSolver</text>
</a>
</g>
</g>
<!-- Node1&#45;&gt;Node5 -->
<g id="edge4" class="edge"><title>Node1&#45;&gt;Node5</title>
<path fill="none" stroke="midnightblue" d="M428.972,-177.369C452.119,-196.656 491.251,-226.435 530,-243 540.951,-247.682 553.028,-251.348 564.907,-254.211"/>
<polygon fill="midnightblue" stroke="midnightblue" points="431.09,-174.577 421.198,-170.782 426.565,-179.917 431.09,-174.577"/>
</g>
<!-- Node6 -->
<g id="node6" class="node"><title>Node6</title>
<g id="a_node6"><a xlink:href="classmfem_1_1FGMRESSolver.html" target="_top" xlink:title="FGMRES method. ">
<polygon fill="white" stroke="black" points="545.5,-210.5 545.5,-233.5 718.5,-233.5 718.5,-210.5 545.5,-210.5"/>
<text text-anchor="middle" x="632" y="-218.3" font-family="Helvetica,sans-Serif" font-size="14.00">mfem::FGMRESSolver</text>
</a>
</g>
</g>
<!-- Node1&#45;&gt;Node6 -->
<g id="edge5" class="edge"><title>Node1&#45;&gt;Node6</title>
<path fill="none" stroke="midnightblue" d="M447.679,-174.086C471.346,-182.725 502.123,-193.337 530,-201 542.606,-204.466 556.236,-207.662 569.28,-210.462"/>
<polygon fill="midnightblue" stroke="midnightblue" points="448.593,-170.693 438,-170.519 446.172,-177.261 448.593,-170.693"/>
</g>
<!-- Node7 -->
<g id="node7" class="node"><title>Node7</title>
<g id="a_node7"><a xlink:href="classmfem_1_1GMRESSolver.html" target="_top" xlink:title="GMRES method. ">
<polygon fill="white" stroke="black" points="550,-168.5 550,-191.5 714,-191.5 714,-168.5 550,-168.5"/>
<text text-anchor="middle" x="632" y="-176.3" font-family="Helvetica,sans-Serif" font-size="14.00">mfem::GMRESSolver</text>
</a>
</g>
</g>
<!-- Node1&#45;&gt;Node7 -->
<g id="edge6" class="edge"><title>Node1&#45;&gt;Node7</title>
<path fill="none" stroke="midnightblue" d="M503.596,-168.002C518.946,-169.448 534.708,-170.932 549.683,-172.342"/>
<polygon fill="midnightblue" stroke="midnightblue" points="503.864,-164.512 493.58,-167.059 503.208,-171.481 503.864,-164.512"/>
</g>
<!-- Node8 -->
<g id="node8" class="node"><title>Node8</title>
<g id="a_node8"><a xlink:href="classmfem_1_1MINRESSolver.html" target="_top" xlink:title="MINRES method. ">
<polygon fill="white" stroke="black" points="548,-126.5 548,-149.5 716,-149.5 716,-126.5 548,-126.5"/>
<text text-anchor="middle" x="632" y="-134.3" font-family="Helvetica,sans-Serif" font-size="14.00">mfem::MINRESSolver</text>
</a>
</g>
</g>
<!-- Node1&#45;&gt;Node8 -->
<g id="edge7" class="edge"><title>Node1&#45;&gt;Node8</title>
<path fill="none" stroke="midnightblue" d="M503.684,-149.989C518.383,-148.605 533.456,-147.186 547.854,-145.83"/>
<polygon fill="midnightblue" stroke="midnightblue" points="503.208,-146.519 493.58,-150.941 503.864,-153.488 503.208,-146.519"/>
</g>
<!-- Node9 -->
<g id="node9" class="node"><title>Node9</title>
<g id="a_node9"><a xlink:href="classmfem_1_1NewtonSolver.html" target="_top" xlink:title="Newton&#39;s method for solving F(x)=b for a given operator F. ">
<polygon fill="white" stroke="black" points="548,-84.5 548,-107.5 716,-107.5 716,-84.5 548,-84.5"/>
<text text-anchor="middle" x="632" y="-92.3" font-family="Helvetica,sans-Serif" font-size="14.00">mfem::NewtonSolver</text>
</a>
</g>
</g>
<!-- Node1&#45;&gt;Node9 -->
<g id="edge8" class="edge"><title>Node1&#45;&gt;Node9</title>
<path fill="none" stroke="midnightblue" d="M447.679,-143.914C471.346,-135.275 502.123,-124.663 530,-117 542.606,-113.534 556.236,-110.338 569.28,-107.538"/>
<polygon fill="midnightblue" stroke="midnightblue" points="446.172,-140.739 438,-147.481 448.593,-147.307 446.172,-140.739"/>
</g>
<!-- Node13 -->
<g id="node13" class="node"><title>Node13</title>
<g id="a_node13"><a xlink:href="classmfem_1_1OptimizationSolver.html" target="_top" xlink:title="Abstract solver for OptimizationProblems. ">
<polygon fill="white" stroke="black" points="530,-42.5 530,-65.5 734,-65.5 734,-42.5 530,-42.5"/>
<text text-anchor="middle" x="632" y="-50.3" font-family="Helvetica,sans-Serif" font-size="14.00">mfem::OptimizationSolver</text>
</a>
</g>
</g>
<!-- Node1&#45;&gt;Node13 -->
<g id="edge12" class="edge"><title>Node1&#45;&gt;Node13</title>
<path fill="none" stroke="midnightblue" d="M428.972,-140.631C452.119,-121.344 491.251,-91.5654 530,-75 538.81,-71.2335 548.349,-68.1241 557.928,-65.5617"/>
<polygon fill="midnightblue" stroke="midnightblue" points="426.565,-138.083 421.198,-147.218 431.09,-143.423 426.565,-138.083"/>
</g>
<!-- Node16 -->
<g id="node16" class="node"><title>Node16</title>
<g id="a_node16"><a xlink:href="classmfem_1_1SLISolver.html" target="_top" xlink:title="Stationary linear iteration: x &lt;&#45; x + B (b &#45; A x) ">
<polygon fill="white" stroke="black" points="564.5,-0.5 564.5,-23.5 699.5,-23.5 699.5,-0.5 564.5,-0.5"/>
<text text-anchor="middle" x="632" y="-8.3" font-family="Helvetica,sans-Serif" font-size="14.00">mfem::SLISolver</text>
</a>
</g>
</g>
<!-- Node1&#45;&gt;Node16 -->
<g id="edge15" class="edge"><title>Node1&#45;&gt;Node16</title>
<path fill="none" stroke="midnightblue" d="M421.323,-139.063C441.374,-110.739 482.103,-59.3694 530,-33 540.512,-27.2128 552.439,-23.0164 564.322,-19.9745"/>
<polygon fill="midnightblue" stroke="midnightblue" points="418.374,-137.175 415.557,-147.388 424.128,-141.16 418.374,-137.175"/>
</g>
<!-- Node2 -->
<g id="node2" class="node"><title>Node2</title>
<g id="a_node2"><a xlink:href="classmfem_1_1Solver.html" target="_top" xlink:title="Base class for solvers. ">
<polygon fill="white" stroke="black" points="170.5,-147.5 170.5,-170.5 283.5,-170.5 283.5,-147.5 170.5,-147.5"/>
<text text-anchor="middle" x="227" y="-155.3" font-family="Helvetica,sans-Serif" font-size="14.00">mfem::Solver</text>
</a>
</g>
</g>
<!-- Node2&#45;&gt;Node1 -->
<g id="edge1" class="edge"><title>Node2&#45;&gt;Node1</title>
<path fill="none" stroke="midnightblue" d="M294.109,-159C302.676,-159 311.548,-159 320.375,-159"/>
<polygon fill="midnightblue" stroke="midnightblue" points="293.832,-155.5 283.832,-159 293.832,-162.5 293.832,-155.5"/>
</g>
<!-- Node3 -->
<g id="node3" class="node"><title>Node3</title>
<g id="a_node3"><a xlink:href="classmfem_1_1Operator.html" target="_top" xlink:title="Abstract operator. ">
<polygon fill="white" stroke="black" points="0.5,-147.5 0.5,-170.5 133.5,-170.5 133.5,-147.5 0.5,-147.5"/>
<text text-anchor="middle" x="67" y="-155.3" font-family="Helvetica,sans-Serif" font-size="14.00">mfem::Operator</text>
</a>
</g>
</g>
<!-- Node3&#45;&gt;Node2 -->
<g id="edge2" class="edge"><title>Node3&#45;&gt;Node2</title>
<path fill="none" stroke="midnightblue" d="M143.723,-159C152.702,-159 161.737,-159 170.365,-159"/>
<polygon fill="midnightblue" stroke="midnightblue" points="143.634,-155.5 133.634,-159 143.634,-162.5 143.634,-155.5"/>
</g>
<!-- Node10 -->
<g id="node10" class="node"><title>Node10</title>
<g id="a_node10"><a xlink:href="classmfem_1_1KINSolver.html" target="_top" xlink:title="Interface to the KINSOL library – nonlinear solver methods. ">
<polygon fill="white" stroke="black" points="798.5,-126.5 798.5,-149.5 935.5,-149.5 935.5,-126.5 798.5,-126.5"/>
<text text-anchor="middle" x="867" y="-134.3" font-family="Helvetica,sans-Serif" font-size="14.00">mfem::KINSolver</text>
</a>
</g>
</g>
<!-- Node9&#45;&gt;Node10 -->
<g id="edge9" class="edge"><title>Node9&#45;&gt;Node10</title>
<path fill="none" stroke="midnightblue" d="M707.153,-109.367C737.713,-114.875 772.772,-121.195 802.166,-126.493"/>
<polygon fill="midnightblue" stroke="midnightblue" points="707.439,-105.862 696.976,-107.532 706.197,-112.751 707.439,-105.862"/>
</g>
<!-- Node11 -->
<g id="node11" class="node"><title>Node11</title>
<g id="a_node11"><a xlink:href="classmfem_1_1LBFGSSolver.html" target="_top" xlink:title="mfem::LBFGSSolver">
<polygon fill="white" stroke="black" points="787,-84.5 787,-107.5 947,-107.5 947,-84.5 787,-84.5"/>
<text text-anchor="middle" x="867" y="-92.3" font-family="Helvetica,sans-Serif" font-size="14.00">mfem::LBFGSSolver</text>
</a>
</g>
</g>
<!-- Node9&#45;&gt;Node11 -->
<g id="edge10" class="edge"><title>Node9&#45;&gt;Node11</title>
<path fill="none" stroke="midnightblue" d="M726.212,-96C746.286,-96 767.322,-96 786.802,-96"/>
<polygon fill="midnightblue" stroke="midnightblue" points="726.132,-92.5001 716.132,-96 726.132,-99.5001 726.132,-92.5001"/>
</g>
<!-- Node12 -->
<g id="node12" class="node"><title>Node12</title>
<g id="a_node12"><a xlink:href="classmfem_1_1TMOPNewtonSolver.html" target="_top" xlink:title="mfem::TMOPNewtonSolver">
<polygon fill="white" stroke="black" points="1000.5,-84.5 1000.5,-107.5 1209.5,-107.5 1209.5,-84.5 1000.5,-84.5"/>
<text text-anchor="middle" x="1105" y="-92.3" font-family="Helvetica,sans-Serif" font-size="14.00">mfem::TMOPNewtonSolver</text>
</a>
</g>
</g>
<!-- Node11&#45;&gt;Node12 -->
<g id="edge11" class="edge"><title>Node11&#45;&gt;Node12</title>
<path fill="none" stroke="midnightblue" d="M957.332,-96C971.346,-96 985.934,-96 1000.24,-96"/>
<polygon fill="midnightblue" stroke="midnightblue" points="957.241,-92.5001 947.241,-96 957.241,-99.5001 957.241,-92.5001"/>
</g>
<!-- Node14 -->
<g id="node14" class="node"><title>Node14</title>
<g id="a_node14"><a xlink:href="classmfem_1_1HiopNlpOptimizer.html" target="_top" xlink:title="Adapts the HiOp functionality to the MFEM OptimizationSolver interface. ">
<polygon fill="white" stroke="black" points="770,-42.5 770,-65.5 964,-65.5 964,-42.5 770,-42.5"/>
<text text-anchor="middle" x="867" y="-50.3" font-family="Helvetica,sans-Serif" font-size="14.00">mfem::HiopNlpOptimizer</text>
</a>
</g>
</g>
<!-- Node13&#45;&gt;Node14 -->
<g id="edge13" class="edge"><title>Node13&#45;&gt;Node14</title>
<path fill="none" stroke="midnightblue" d="M744.446,-54C752.886,-54 761.362,-54 769.695,-54"/>
<polygon fill="midnightblue" stroke="midnightblue" points="744.181,-50.5001 734.181,-54 744.181,-57.5001 744.181,-50.5001"/>
</g>
<!-- Node15 -->
<g id="node15" class="node"><title>Node15</title>
<g id="a_node15"><a xlink:href="classmfem_1_1SLBQPOptimizer.html" target="_top" xlink:title="mfem::SLBQPOptimizer">
<polygon fill="white" stroke="black" points="774.5,-0.5 774.5,-23.5 959.5,-23.5 959.5,-0.5 774.5,-0.5"/>
<text text-anchor="middle" x="867" y="-8.3" font-family="Helvetica,sans-Serif" font-size="14.00">mfem::SLBQPOptimizer</text>
</a>
</g>
</g>
<!-- Node13&#45;&gt;Node15 -->
<g id="edge14" class="edge"><title>Node13&#45;&gt;Node15</title>
<path fill="none" stroke="midnightblue" d="M707.153,-40.6334C737.713,-35.1248 772.772,-28.805 802.166,-23.5065"/>
<polygon fill="midnightblue" stroke="midnightblue" points="706.197,-37.2492 696.976,-42.4678 707.439,-44.1382 706.197,-37.2492"/>
</g>
</g>
</svg>
        <g id="navigator" transform="translate(0 0)" fill="#404254">
                <rect fill="#f2f5e9" fill-opacity="0.5" stroke="#606060" stroke-width=".5" x="0" y="0" width="60" height="60"/>
                <use id="zoomplus" xlink:href="#zoomPlus" x="17" y="9" onmousedown="handleZoom(evt,'in')"/>
                <use id="zoomminus" xlink:href="#zoomMin" x="42" y="9" onmousedown="handleZoom(evt,'out')"/>
                <use id="reset" xlink:href="#resetDef" x="30" y="36" onmousedown="handleReset()"/>
                <g id="arrowUp" xlink:href="#dirArrow" transform="translate(30 24)" onmousedown="handlePan(0,-1)">
                  <use xlink:href="#rim" fill="#404040">
                        <set attributeName="fill" to="#808080" begin="arrowUp.mouseover" end="arrowUp.mouseout"/>
                  </use>
                  <path fill="none" stroke="white" stroke-width="1.5" d="M0,-3.0v7 M-2.5,-0.5L0,-3.0L2.5,-0.5"/>
                </g>
                <g id="arrowRight" xlink:href="#dirArrow" transform="rotate(90) translate(36 -43)" onmousedown="handlePan(1,0)">
                  <use xlink:href="#rim" fill="#404040">
                        <set attributeName="fill" to="#808080" begin="arrowRight.mouseover" end="arrowRight.mouseout"/>
                  </use>
                  <path fill="none" stroke="white" stroke-width="1.5" d="M0,-3.0v7 M-2.5,-0.5L0,-3.0L2.5,-0.5"/>
                </g>
                <g id="arrowDown" xlink:href="#dirArrow" transform="rotate(180) translate(-30 -48)" onmousedown="handlePan(0,1)">
                  <use xlink:href="#rim" fill="#404040">
                        <set attributeName="fill" to="#808080" begin="arrowDown.mouseover" end="arrowDown.mouseout"/>
                  </use>
                  <path fill="none" stroke="white" stroke-width="1.5" d="M0,-3.0v7 M-2.5,-0.5L0,-3.0L2.5,-0.5"/>
                </g>
                <g id="arrowLeft" xlink:href="#dirArrow" transform="rotate(270) translate(-36 17)" onmousedown="handlePan(-1,0)">
                  <use xlink:href="#rim" fill="#404040">
                        <set attributeName="fill" to="#808080" begin="arrowLeft.mouseover" end="arrowLeft.mouseout"/>
                  </use>
                  <path fill="none" stroke="white" stroke-width="1.5" d="M0,-3.0v7 M-2.5,-0.5L0,-3.0L2.5,-0.5"/>
                </g>
        </g>
        <svg viewBox="0 0 15 15" width="100%" height="30px" preserveAspectRatio="xMaxYMin meet">
         <g id="arrow_out" transform="scale(0.3 0.3)">
          <a xlink:href="classmfem_1_1IterativeSolver__inherit__graph_org.svg" target="_base">
           <rect id="button" ry="5" rx="5" y="6" x="6" height="38" width="38"
                fill="#f2f5e9" fill-opacity="0.5" stroke="#606060" stroke-width="1.0"/>
           <path id="arrow"
             d="M 11.500037,31.436501 C 11.940474,20.09759 22.043105,11.32322 32.158766,21.979434 L 37.068811,17.246167 C 37.068811,17.246167 37.088388,32 37.088388,32 L 22.160133,31.978069 C 22.160133,31.978069 26.997745,27.140456 26.997745,27.140456 C 18.528582,18.264221 13.291696,25.230495 11.500037,31.436501 z"
             style="fill:#404040;"/>
          </a>
         </g>
        </svg>
</svg>
