<?xml version="1.0" encoding="UTF-8" standalone="no"?>
<!DOCTYPE svg PUBLIC "-//W3C//DTD SVG 1.1//EN"
 "http://www.w3.org/Graphics/SVG/1.1/DTD/svg11.dtd">
<!-- Generated by graphviz version 2.26.3 (20100126.1600)
 -->
<!-- Title: mfem::KLUSolver Pages: 1 -->
<svg width="132pt" height="158pt"
 viewBox="0.00 0.00 132.00 158.00" xmlns="http://www.w3.org/2000/svg" xmlns:xlink="http://www.w3.org/1999/xlink">
<g id="graph1" class="graph" transform="scale(1 1) rotate(0) translate(4 154)">
<title>mfem::KLUSolver</title>
<polygon fill="white" stroke="white" points="-4,5 -4,-154 129,-154 129,5 -4,5"/>
<!-- Node1 -->
<g id="node1" class="node"><title>Node1</title>
<polygon fill="#bfbfbf" stroke="black" points="-0.5,-1 -0.5,-25 124.5,-25 124.5,-1 -0.5,-1"/>
<text text-anchor="middle" x="62" y="-8.4" font-family="Helvetica,sans-Serif" font-size="14.00">mfem::KLUSolver</text>
</g>
<!-- Node2 -->
<g id="node2" class="node"><title>Node2</title>
<a xlink:href="classmfem_1_1Solver.html" target="_top" xlink:title="Base class for solvers. ">
<polygon fill="white" stroke="black" points="13,-63 13,-87 111,-87 111,-63 13,-63"/>
<text text-anchor="middle" x="62" y="-70.4" font-family="Helvetica,sans-Serif" font-size="14.00">mfem::Solver</text>
</a>
</g>
<!-- Node2&#45;&gt;Node1 -->
<g id="edge2" class="edge"><title>Node2&#45;&gt;Node1</title>
<path fill="none" stroke="midnightblue" d="M62,-52.63C62,-43.3865 62,-33.0306 62,-25.2238"/>
<polygon fill="midnightblue" stroke="midnightblue" points="58.5001,-52.7508 62,-62.7508 65.5001,-52.7508 58.5001,-52.7508"/>
</g>
<!-- Node3 -->
<g id="node4" class="node"><title>Node3</title>
<a xlink:href="classmfem_1_1Operator.html" target="_top" xlink:title="Abstract operator. ">
<polygon fill="white" stroke="black" points="5.5,-125 5.5,-149 118.5,-149 118.5,-125 5.5,-125"/>
<text text-anchor="middle" x="62" y="-132.4" font-family="Helvetica,sans-Serif" font-size="14.00">mfem::Operator</text>
</a>
</g>
<!-- Node3&#45;&gt;Node2 -->
<g id="edge4" class="edge"><title>Node3&#45;&gt;Node2</title>
<path fill="none" stroke="midnightblue" d="M62,-114.63C62,-105.386 62,-95.0306 62,-87.2238"/>
<polygon fill="midnightblue" stroke="midnightblue" points="58.5001,-114.751 62,-124.751 65.5001,-114.751 58.5001,-114.751"/>
</g>
</g>
</svg>
