<?xml version="1.0" encoding="UTF-8" standalone="no"?>
<!DOCTYPE svg PUBLIC "-//W3C//DTD SVG 1.1//EN"
 "http://www.w3.org/Graphics/SVG/1.1/DTD/svg11.dtd">
<!-- Generated by graphviz version 2.40.1 (20161225.0304)
 -->
<!-- Title: mfem::MixedWeakGradDotIntegrator Pages: 1 -->
<svg width="252pt" height="208pt"
 viewBox="0.00 0.00 252.50 208.00" xmlns="http://www.w3.org/2000/svg" xmlns:xlink="http://www.w3.org/1999/xlink">
<g id="graph0" class="graph" transform="scale(1 1) rotate(0) translate(4 204)">
<title>mfem::MixedWeakGradDotIntegrator</title>
<polygon fill="#ffffff" stroke="transparent" points="-4,4 -4,-204 248.498,-204 248.498,4 -4,4"/>
<!-- Node0 -->
<g id="node1" class="node">
<title>Node0</title>
<polygon fill="#bfbfbf" stroke="#000000" points="0,-.5 0,-22.5 244.498,-22.5 244.498,-.5 0,-.5"/>
<text text-anchor="middle" x="122.249" y="-7.3" font-family="Helvetica,sans-Serif" font-size="14.00" fill="#000000">mfem::MixedWeakGradDotIntegrator</text>
</g>
<!-- Node1 -->
<g id="node2" class="node">
<title>Node1</title>
<g id="a_node2"><a xlink:href="classmfem_1_1MixedScalarVectorIntegrator.html" target="_top" xlink:title="mfem::MixedScalarVectorIntegrator">
<polygon fill="#ffffff" stroke="#000000" points="4.5356,-59.5 4.5356,-81.5 239.9624,-81.5 239.9624,-59.5 4.5356,-59.5"/>
<text text-anchor="middle" x="122.249" y="-66.3" font-family="Helvetica,sans-Serif" font-size="14.00" fill="#000000">mfem::MixedScalarVectorIntegrator</text>
</a>
</g>
</g>
<!-- Node1&#45;&gt;Node0 -->
<g id="edge1" class="edge">
<title>Node1&#45;&gt;Node0</title>
<path fill="none" stroke="#191970" d="M122.249,-49.198C122.249,-40.1726 122.249,-30.0351 122.249,-22.5477"/>
<polygon fill="#191970" stroke="#191970" points="118.7491,-49.4025 122.249,-59.4026 125.7491,-49.4026 118.7491,-49.4025"/>
</g>
<!-- Node2 -->
<g id="node3" class="node">
<title>Node2</title>
<g id="a_node3"><a xlink:href="classmfem_1_1BilinearFormIntegrator.html" target="_top" xlink:title="Abstract base class BilinearFormIntegrator. ">
<polygon fill="#ffffff" stroke="#000000" points="23.2217,-118.5 23.2217,-140.5 221.2764,-140.5 221.2764,-118.5 23.2217,-118.5"/>
<text text-anchor="middle" x="122.249" y="-125.3" font-family="Helvetica,sans-Serif" font-size="14.00" fill="#000000">mfem::BilinearFormIntegrator</text>
</a>
</g>
</g>
<!-- Node2&#45;&gt;Node1 -->
<g id="edge2" class="edge">
<title>Node2&#45;&gt;Node1</title>
<path fill="none" stroke="#191970" d="M122.249,-108.198C122.249,-99.1726 122.249,-89.0351 122.249,-81.5477"/>
<polygon fill="#191970" stroke="#191970" points="118.7491,-108.4025 122.249,-118.4026 125.7491,-108.4026 118.7491,-108.4025"/>
</g>
<!-- Node3 -->
<g id="node4" class="node">
<title>Node3</title>
<g id="a_node4"><a xlink:href="classmfem_1_1NonlinearFormIntegrator.html" target="_top" xlink:title="mfem::NonlinearFormIntegrator">
<polygon fill="#ffffff" stroke="#000000" points="16.6045,-177.5 16.6045,-199.5 227.8936,-199.5 227.8936,-177.5 16.6045,-177.5"/>
<text text-anchor="middle" x="122.249" y="-184.3" font-family="Helvetica,sans-Serif" font-size="14.00" fill="#000000">mfem::NonlinearFormIntegrator</text>
</a>
</g>
</g>
<!-- Node3&#45;&gt;Node2 -->
<g id="edge3" class="edge">
<title>Node3&#45;&gt;Node2</title>
<path fill="none" stroke="#191970" d="M122.249,-167.198C122.249,-158.1726 122.249,-148.0351 122.249,-140.5477"/>
<polygon fill="#191970" stroke="#191970" points="118.7491,-167.4025 122.249,-177.4026 125.7491,-167.4026 118.7491,-167.4025"/>
</g>
</g>
</svg>
