<?xml version="1.0" encoding="UTF-8" standalone="no"?>
<!DOCTYPE svg PUBLIC "-//W3C//DTD SVG 1.1//EN"
 "http://www.w3.org/Graphics/SVG/1.1/DTD/svg11.dtd">
<!-- Generated by graphviz version 2.30.1 (20140821.0912)
 -->
<!-- Title: mfem::VectorFEBoundaryFluxLFIntegrator Pages: 1 -->
<svg width="206pt" height="326pt"
 viewBox="0.00 0.00 206.00 326.00" xmlns="http://www.w3.org/2000/svg" xmlns:xlink="http://www.w3.org/1999/xlink">
<g id="graph0" class="graph" transform="scale(1 1) rotate(0) translate(4 322)">
<title>mfem::VectorFEBoundaryFluxLFIntegrator</title>
<polygon fill="white" stroke="white" points="-4,5 -4,-322 203,-322 203,5 -4,5"/>
<!-- Node1 -->
<g id="node1" class="node"><title>Node1</title>
<polygon fill="#bfbfbf" stroke="black" points="-0.5,-1 -0.5,-39 198.5,-39 198.5,-1 -0.5,-1"/>
<text text-anchor="start" x="7.5" y="-23.8" font-family="Helvetica,sans-Serif" font-size="14.00">mfem::VectorFEBoundaryFlux</text>
<text text-anchor="middle" x="99" y="-8.8" font-family="Helvetica,sans-Serif" font-size="14.00">LFIntegrator</text>
</g>
<!-- Node2 -->
<g id="node2" class="node"><title>Node2</title>
<g id="a_node2"><a xlink:href="classmfem_1_1LinearFormIntegrator.html" target="_top" xlink:title="Abstract base class LinearFormIntegrator. ">
<polygon fill="white" stroke="black" points="5.5,-78.5 5.5,-101.5 192.5,-101.5 192.5,-78.5 5.5,-78.5"/>
<text text-anchor="middle" x="99" y="-86.3" font-family="Helvetica,sans-Serif" font-size="14.00">mfem::LinearFormIntegrator</text>
</a>
</g>
</g>
<!-- Node2&#45;&gt;Node1 -->
<g id="edge1" class="edge"><title>Node2&#45;&gt;Node1</title>
<path fill="none" stroke="midnightblue" d="M99,-68.098C99,-58.8689 99,-48.1198 99,-39.2228"/>
<polygon fill="midnightblue" stroke="midnightblue" points="95.5001,-68.375 99,-78.375 102.5,-68.375 95.5001,-68.375"/>
</g>
<!-- Node3 -->
<g id="node3" class="node"><title>Node3</title>
<g id="a_node3"><a xlink:href="classmfem_1_1IntegrationRule.html" target="_top" xlink:title="Class for an integration rule &#45; an Array of IntegrationPoint. ">
<polygon fill="white" stroke="black" points="23.5,-154.5 23.5,-177.5 174.5,-177.5 174.5,-154.5 23.5,-154.5"/>
<text text-anchor="middle" x="99" y="-162.3" font-family="Helvetica,sans-Serif" font-size="14.00">mfem::IntegrationRule</text>
</a>
</g>
</g>
<!-- Node3&#45;&gt;Node2 -->
<g id="edge2" class="edge"><title>Node3&#45;&gt;Node2</title>
<path fill="none" stroke="#9a32cd" stroke-dasharray="5,2" d="M99,-144.277C99,-130.387 99,-112.675 99,-101.583"/>
<polygon fill="#9a32cd" stroke="#9a32cd" points="95.5001,-144.398 99,-154.398 102.5,-144.398 95.5001,-144.398"/>
<text text-anchor="middle" x="122.5" y="-124.3" font-family="Helvetica,sans-Serif" font-size="14.00"> IntRule</text>
</g>
<!-- Node4 -->
<g id="node4" class="node"><title>Node4</title>
<g id="a_node4"><a xlink:href="classmfem_1_1Array.html" target="_top" xlink:title="mfem::Array\&lt; Integration\lPoint \&gt;">
<polygon fill="white" stroke="black" points="15.5,-217 15.5,-255 182.5,-255 182.5,-217 15.5,-217"/>
<text text-anchor="start" x="23.5" y="-239.8" font-family="Helvetica,sans-Serif" font-size="14.00">mfem::Array&lt; Integration</text>
<text text-anchor="middle" x="99" y="-224.8" font-family="Helvetica,sans-Serif" font-size="14.00">Point &gt;</text>
</a>
</g>
</g>
<!-- Node4&#45;&gt;Node3 -->
<g id="edge3" class="edge"><title>Node4&#45;&gt;Node3</title>
<path fill="none" stroke="midnightblue" d="M99,-206.599C99,-196.442 99,-185.6 99,-177.834"/>
<polygon fill="midnightblue" stroke="midnightblue" points="95.5001,-206.777 99,-216.777 102.5,-206.777 95.5001,-206.777"/>
</g>
<!-- Node5 -->
<g id="node5" class="node"><title>Node5</title>
<g id="a_node5"><a xlink:href="classmfem_1_1BaseArray.html" target="_top" xlink:title="Base class for array container. ">
<polygon fill="white" stroke="black" points="38,-294.5 38,-317.5 160,-317.5 160,-294.5 38,-294.5"/>
<text text-anchor="middle" x="99" y="-302.3" font-family="Helvetica,sans-Serif" font-size="14.00">mfem::BaseArray</text>
</a>
</g>
</g>
<!-- Node5&#45;&gt;Node4 -->
<g id="edge4" class="edge"><title>Node5&#45;&gt;Node4</title>
<path fill="none" stroke="midnightblue" d="M99,-284.098C99,-274.869 99,-264.12 99,-255.223"/>
<polygon fill="midnightblue" stroke="midnightblue" points="95.5001,-284.375 99,-294.375 102.5,-284.375 95.5001,-284.375"/>
</g>
</g>
</svg>
