<?xml version="1.0" encoding="UTF-8" standalone="no"?>
<!DOCTYPE svg PUBLIC "-//W3C//DTD SVG 1.1//EN"
 "http://www.w3.org/Graphics/SVG/1.1/DTD/svg11.dtd">
<!-- Generated by graphviz version 2.30.1 (20170916.1124)
 -->
<!-- Title: mfem::VectorInnerProductInterpolator Pages: 1 -->
<!--zoomable 570 -->
<svg id="main" version="1.1" xmlns="http://www.w3.org/2000/svg" xmlns:xlink="http://www.w3.org/1999/xlink" xml:space="preserve" onload="init(evt)">
<style type="text/css"><![CDATA[
.edge:hover path { stroke: red; }
.edge:hover polygon { stroke: red; fill: red; }
]]></style>
<script type="text/javascript"><![CDATA[
var edges = document.getElementsByTagName('g');
if (edges && edges.length) {
  for (var i=0;i<edges.length;i++) {
    if (edges[i].id.substr(0,4)=='edge') {
      edges[i].setAttribute('class','edge');
    }
  }
}
]]></script>
        <defs>
                <circle id="rim" cx="0" cy="0" r="7"/>
                <circle id="rim2" cx="0" cy="0" r="3.5"/>
                <g id="zoomPlus">
                        <use xlink:href="#rim" fill="#404040">
                                <set attributeName="fill" to="#808080" begin="zoomplus.mouseover" end="zoomplus.mouseout"/>
                        </use>
                        <path d="M-4,0h8M0,-4v8" fill="none" stroke="white" stroke-width="1.5" pointer-events="none"/>
                </g>
                <g id="zoomMin">
                        <use xlink:href="#rim" fill="#404040">
                                <set attributeName="fill" to="#808080" begin="zoomminus.mouseover" end="zoomminus.mouseout"/>
                        </use>
                        <path d="M-4,0h8" fill="none" stroke="white" stroke-width="1.5" pointer-events="none"/>
                </g>
                <g id="dirArrow">
                        <path fill="none" stroke="white" stroke-width="1.5" d="M0,-3.0v7 M-2.5,-0.5L0,-3.0L2.5,-0.5"/>
                </g>
               <g id="resetDef">
                       <use xlink:href="#rim2" fill="#404040">
                               <set attributeName="fill" to="#808080" begin="reset.mouseover" end="reset.mouseout"/>
                       </use>
               </g>
        </defs>

<script type="text/javascript">
var viewWidth = 445;
var viewHeight = 570;
var sectionId = 'dynsection-1';
</script>
<script xlink:href="svgpan.js"/>
<svg id="graph" class="graph">
<g id="viewport">
<title>mfem::VectorInnerProductInterpolator</title>
<polygon fill="white" stroke="white" points="-4,5 -4,-566 442,-566 442,5 -4,5"/>
<!-- Node1 -->
<g id="node1" class="node"><title>Node1</title>
<polygon fill="#bfbfbf" stroke="black" points="184,-1 184,-39 390,-39 390,-1 184,-1"/>
<text text-anchor="start" x="192" y="-23.8" font-family="Helvetica,sans-Serif" font-size="14.00">mfem::VectorInnerProduct</text>
<text text-anchor="middle" x="287" y="-8.8" font-family="Helvetica,sans-Serif" font-size="14.00">Interpolator</text>
</g>
<!-- Node2 -->
<g id="node2" class="node"><title>Node2</title>
<g id="a_node2"><a xlink:href="classmfem_1_1DiscreteInterpolator.html" target="_top" xlink:title="mfem::DiscreteInterpolator">
<polygon fill="white" stroke="black" points="17,-92.5 17,-115.5 229,-115.5 229,-92.5 17,-92.5"/>
<text text-anchor="middle" x="123" y="-100.3" font-family="Helvetica,sans-Serif" font-size="14.00">mfem::DiscreteInterpolator</text>
</a>
</g>
</g>
<!-- Node2&#45;&gt;Node1 -->
<g id="edge1" class="edge"><title>Node2&#45;&gt;Node1</title>
<path fill="none" stroke="midnightblue" d="M153.277,-87.8615C180.883,-74.0586 221.705,-53.6473 250.978,-39.0111"/>
<polygon fill="midnightblue" stroke="midnightblue" points="151.483,-84.8451 144.104,-92.4478 154.614,-91.1061 151.483,-84.8451"/>
</g>
<!-- Node3 -->
<g id="node3" class="node"><title>Node3</title>
<g id="a_node3"><a xlink:href="classmfem_1_1BilinearFormIntegrator.html" target="_top" xlink:title="Abstract base class BilinearFormIntegrator. ">
<polygon fill="white" stroke="black" points="7.5,-154.5 7.5,-177.5 238.5,-177.5 238.5,-154.5 7.5,-154.5"/>
<text text-anchor="middle" x="123" y="-162.3" font-family="Helvetica,sans-Serif" font-size="14.00">mfem::BilinearFormIntegrator</text>
</a>
</g>
</g>
<!-- Node3&#45;&gt;Node2 -->
<g id="edge2" class="edge"><title>Node3&#45;&gt;Node2</title>
<path fill="none" stroke="midnightblue" d="M123,-144.231C123,-134.592 123,-123.544 123,-115.634"/>
<polygon fill="midnightblue" stroke="midnightblue" points="119.5,-144.273 123,-154.273 126.5,-144.273 119.5,-144.273"/>
</g>
<!-- Node4 -->
<g id="node4" class="node"><title>Node4</title>
<g id="a_node4"><a xlink:href="classmfem_1_1NonlinearFormIntegrator.html" target="_top" xlink:title="mfem::NonlinearFormIntegrator">
<polygon fill="white" stroke="black" points="0,-216.5 0,-239.5 246,-239.5 246,-216.5 0,-216.5"/>
<text text-anchor="middle" x="123" y="-224.3" font-family="Helvetica,sans-Serif" font-size="14.00">mfem::NonlinearFormIntegrator</text>
</a>
</g>
</g>
<!-- Node4&#45;&gt;Node3 -->
<g id="edge3" class="edge"><title>Node4&#45;&gt;Node3</title>
<path fill="none" stroke="midnightblue" d="M123,-206.231C123,-196.592 123,-185.544 123,-177.634"/>
<polygon fill="midnightblue" stroke="midnightblue" points="119.5,-206.273 123,-216.273 126.5,-206.273 119.5,-206.273"/>
</g>
<!-- Node5 -->
<g id="node5" class="node"><title>Node5</title>
<g id="a_node5"><a xlink:href="classmfem_1_1IntegrationRule.html" target="_top" xlink:title="Class for an integration rule &#45; an Array of IntegrationPoint. ">
<polygon fill="white" stroke="black" points="34,-292.5 34,-315.5 212,-315.5 212,-292.5 34,-292.5"/>
<text text-anchor="middle" x="123" y="-300.3" font-family="Helvetica,sans-Serif" font-size="14.00">mfem::IntegrationRule</text>
</a>
</g>
</g>
<!-- Node5&#45;&gt;Node4 -->
<g id="edge4" class="edge"><title>Node5&#45;&gt;Node4</title>
<path fill="none" stroke="#9a32cd" stroke-dasharray="5,2" d="M123,-282.277C123,-268.387 123,-250.675 123,-239.583"/>
<polygon fill="#9a32cd" stroke="#9a32cd" points="119.5,-282.398 123,-292.398 126.5,-282.398 119.5,-282.398"/>
<text text-anchor="middle" x="150.5" y="-262.3" font-family="Helvetica,sans-Serif" font-size="14.00"> IntRule</text>
</g>
<!-- Node6 -->
<g id="node6" class="node"><title>Node6</title>
<g id="a_node6"><a xlink:href="classmfem_1_1Array.html" target="_top" xlink:title="mfem::Array\&lt; Integration\lPoint \&gt;">
<polygon fill="white" stroke="black" points="21.5,-355 21.5,-393 224.5,-393 224.5,-355 21.5,-355"/>
<text text-anchor="start" x="29.5" y="-377.8" font-family="Helvetica,sans-Serif" font-size="14.00">mfem::Array&lt; Integration</text>
<text text-anchor="middle" x="123" y="-362.8" font-family="Helvetica,sans-Serif" font-size="14.00">Point &gt;</text>
</a>
</g>
</g>
<!-- Node6&#45;&gt;Node5 -->
<g id="edge5" class="edge"><title>Node6&#45;&gt;Node5</title>
<path fill="none" stroke="midnightblue" d="M123,-344.599C123,-334.442 123,-323.6 123,-315.834"/>
<polygon fill="midnightblue" stroke="midnightblue" points="119.5,-344.777 123,-354.777 126.5,-344.777 119.5,-344.777"/>
</g>
<!-- Node7 -->
<g id="node7" class="node"><title>Node7</title>
<g id="a_node7"><a xlink:href="classmfem_1_1Memory.html" target="_top" xlink:title="mfem::Memory\&lt; Integration\lPoint \&gt;">
<polygon fill="white" stroke="black" points="12,-447 12,-485 234,-485 234,-447 12,-447"/>
<text text-anchor="start" x="20" y="-469.8" font-family="Helvetica,sans-Serif" font-size="14.00">mfem::Memory&lt; Integration</text>
<text text-anchor="middle" x="123" y="-454.8" font-family="Helvetica,sans-Serif" font-size="14.00">Point &gt;</text>
</a>
</g>
</g>
<!-- Node7&#45;&gt;Node6 -->
<g id="edge6" class="edge"><title>Node7&#45;&gt;Node6</title>
<path fill="none" stroke="#9a32cd" stroke-dasharray="5,2" d="M123,-436.548C123,-422.36 123,-405.622 123,-393.186"/>
<polygon fill="#9a32cd" stroke="#9a32cd" points="119.5,-436.787 123,-446.787 126.5,-436.787 119.5,-436.787"/>
<text text-anchor="middle" x="141.5" y="-416.3" font-family="Helvetica,sans-Serif" font-size="14.00"> data</text>
</g>
<!-- Node8 -->
<g id="node8" class="node"><title>Node8</title>
<g id="a_node8"><a xlink:href="classmfem_1_1IntegrationPoint.html" target="_top" xlink:title="Class for integration point with weight. ">
<polygon fill="white" stroke="black" points="32,-538.5 32,-561.5 214,-561.5 214,-538.5 32,-538.5"/>
<text text-anchor="middle" x="123" y="-546.3" font-family="Helvetica,sans-Serif" font-size="14.00">mfem::IntegrationPoint</text>
</a>
</g>
</g>
<!-- Node8&#45;&gt;Node7 -->
<g id="edge7" class="edge"><title>Node8&#45;&gt;Node7</title>
<path fill="none" stroke="#9a32cd" stroke-dasharray="5,2" d="M123,-528.213C123,-514.967 123,-497.968 123,-485.246"/>
<polygon fill="#9a32cd" stroke="#9a32cd" points="119.5,-528.28 123,-538.28 126.5,-528.28 119.5,-528.28"/>
<text text-anchor="middle" x="144" y="-508.3" font-family="Helvetica,sans-Serif" font-size="14.00"> h_ptr</text>
</g>
<!-- Node9 -->
<g id="node9" class="node"><title>Node9</title>
<g id="a_node9"><a xlink:href="classmfem_1_1VectorCoefficient.html" target="_top" xlink:title="mfem::VectorCoefficient">
<polygon fill="white" stroke="black" points="247,-92.5 247,-115.5 437,-115.5 437,-92.5 247,-92.5"/>
<text text-anchor="middle" x="342" y="-100.3" font-family="Helvetica,sans-Serif" font-size="14.00">mfem::VectorCoefficient</text>
</a>
</g>
</g>
<!-- Node9&#45;&gt;Node1 -->
<g id="edge8" class="edge"><title>Node9&#45;&gt;Node1</title>
<path fill="none" stroke="#9a32cd" stroke-dasharray="5,2" d="M329.111,-83.7837C320.09,-70.334 308.113,-52.477 299.238,-39.2462"/>
<polygon fill="#9a32cd" stroke="#9a32cd" points="326.333,-85.9247 334.81,-92.2799 332.146,-82.0254 326.333,-85.9247"/>
<text text-anchor="middle" x="334" y="-62.3" font-family="Helvetica,sans-Serif" font-size="14.00"> VQ</text>
</g>
</g>
</svg>
        <g id="navigator" transform="translate(0 0)" fill="#404254">
                <rect fill="#f2f5e9" fill-opacity="0.5" stroke="#606060" stroke-width=".5" x="0" y="0" width="60" height="60"/>
                <use id="zoomplus" xlink:href="#zoomPlus" x="17" y="9" onmousedown="handleZoom(evt,'in')"/>
                <use id="zoomminus" xlink:href="#zoomMin" x="42" y="9" onmousedown="handleZoom(evt,'out')"/>
                <use id="reset" xlink:href="#resetDef" x="30" y="36" onmousedown="handleReset()"/>
                <g id="arrowUp" xlink:href="#dirArrow" transform="translate(30 24)" onmousedown="handlePan(0,-1)">
                  <use xlink:href="#rim" fill="#404040">
                        <set attributeName="fill" to="#808080" begin="arrowUp.mouseover" end="arrowUp.mouseout"/>
                  </use>
                  <path fill="none" stroke="white" stroke-width="1.5" d="M0,-3.0v7 M-2.5,-0.5L0,-3.0L2.5,-0.5"/>
                </g>
                <g id="arrowRight" xlink:href="#dirArrow" transform="rotate(90) translate(36 -43)" onmousedown="handlePan(1,0)">
                  <use xlink:href="#rim" fill="#404040">
                        <set attributeName="fill" to="#808080" begin="arrowRight.mouseover" end="arrowRight.mouseout"/>
                  </use>
                  <path fill="none" stroke="white" stroke-width="1.5" d="M0,-3.0v7 M-2.5,-0.5L0,-3.0L2.5,-0.5"/>
                </g>
                <g id="arrowDown" xlink:href="#dirArrow" transform="rotate(180) translate(-30 -48)" onmousedown="handlePan(0,1)">
                  <use xlink:href="#rim" fill="#404040">
                        <set attributeName="fill" to="#808080" begin="arrowDown.mouseover" end="arrowDown.mouseout"/>
                  </use>
                  <path fill="none" stroke="white" stroke-width="1.5" d="M0,-3.0v7 M-2.5,-0.5L0,-3.0L2.5,-0.5"/>
                </g>
                <g id="arrowLeft" xlink:href="#dirArrow" transform="rotate(270) translate(-36 17)" onmousedown="handlePan(-1,0)">
                  <use xlink:href="#rim" fill="#404040">
                        <set attributeName="fill" to="#808080" begin="arrowLeft.mouseover" end="arrowLeft.mouseout"/>
                  </use>
                  <path fill="none" stroke="white" stroke-width="1.5" d="M0,-3.0v7 M-2.5,-0.5L0,-3.0L2.5,-0.5"/>
                </g>
        </g>
        <svg viewBox="0 0 15 15" width="100%" height="30px" preserveAspectRatio="xMaxYMin meet">
         <g id="arrow_out" transform="scale(0.3 0.3)">
          <a xlink:href="classmfem_1_1VectorInnerProductInterpolator__coll__graph_org.svg" target="_base">
           <rect id="button" ry="5" rx="5" y="6" x="6" height="38" width="38"
                fill="#f2f5e9" fill-opacity="0.5" stroke="#606060" stroke-width="1.0"/>
           <path id="arrow"
             d="M 11.500037,31.436501 C 11.940474,20.09759 22.043105,11.32322 32.158766,21.979434 L 37.068811,17.246167 C 37.068811,17.246167 37.088388,32 37.088388,32 L 22.160133,31.978069 C 22.160133,31.978069 26.997745,27.140456 26.997745,27.140456 C 18.528582,18.264221 13.291696,25.230495 11.500037,31.436501 z"
             style="fill:#404040;"/>
          </a>
         </g>
        </svg>
</svg>
