<?xml version="1.0" encoding="UTF-8" standalone="no"?>
<!DOCTYPE svg PUBLIC "-//W3C//DTD SVG 1.1//EN"
 "http://www.w3.org/Graphics/SVG/1.1/DTD/svg11.dtd">
<!-- Generated by graphviz version 2.30.1 (20140821.0912)
 -->
<!-- Title: mfem::ParNonlinearForm Pages: 1 -->
<svg width="1036pt" height="359pt"
 viewBox="0.00 0.00 1036.00 359.00" xmlns="http://www.w3.org/2000/svg" xmlns:xlink="http://www.w3.org/1999/xlink">
<g id="graph0" class="graph" transform="scale(1 1) rotate(0) translate(4 355)">
<title>mfem::ParNonlinearForm</title>
<polygon fill="white" stroke="white" points="-4,5 -4,-355 1033,-355 1033,5 -4,5"/>
<!-- Node1 -->
<g id="node1" class="node"><title>Node1</title>
<polygon fill="#bfbfbf" stroke="black" points="858,-196.5 858,-219.5 1028,-219.5 1028,-196.5 858,-196.5"/>
<text text-anchor="middle" x="943" y="-204.3" font-family="Helvetica,sans-Serif" font-size="14.00">mfem::ParNonlinearForm</text>
</g>
<!-- Node2 -->
<g id="node2" class="node"><title>Node2</title>
<g id="a_node2"><a xlink:href="classmfem_1_1NonlinearForm.html" target="_top" xlink:title="mfem::NonlinearForm">
<polygon fill="white" stroke="black" points="654.5,-194.5 654.5,-217.5 803.5,-217.5 803.5,-194.5 654.5,-194.5"/>
<text text-anchor="middle" x="729" y="-202.3" font-family="Helvetica,sans-Serif" font-size="14.00">mfem::NonlinearForm</text>
</a>
</g>
</g>
<!-- Node2&#45;&gt;Node1 -->
<g id="edge1" class="edge"><title>Node2&#45;&gt;Node1</title>
<path fill="none" stroke="midnightblue" d="M813.916,-206.792C828.308,-206.927 843.269,-207.069 857.672,-207.204"/>
<polygon fill="midnightblue" stroke="midnightblue" points="813.585,-203.288 803.552,-206.694 813.519,-210.288 813.585,-203.288"/>
</g>
<!-- Node3 -->
<g id="node3" class="node"><title>Node3</title>
<g id="a_node3"><a xlink:href="classmfem_1_1Operator.html" target="_top" xlink:title="Abstract operator. ">
<polygon fill="white" stroke="black" points="13.5,-295.5 13.5,-318.5 126.5,-318.5 126.5,-295.5 13.5,-295.5"/>
<text text-anchor="middle" x="70" y="-303.3" font-family="Helvetica,sans-Serif" font-size="14.00">mfem::Operator</text>
</a>
</g>
</g>
<!-- Node3&#45;&gt;Node2 -->
<g id="edge2" class="edge"><title>Node3&#45;&gt;Node2</title>
<path fill="none" stroke="midnightblue" d="M136.887,-308.764C276.091,-311.971 590.771,-316.276 632,-291 646.243,-282.268 638.722,-270.325 650,-258 665.601,-240.95 687.894,-226.816 704.654,-217.608"/>
<polygon fill="midnightblue" stroke="midnightblue" points="136.852,-305.263 126.773,-308.526 136.688,-312.261 136.852,-305.263"/>
</g>
<!-- Node7 -->
<g id="node7" class="node"><title>Node7</title>
<g id="a_node7"><a xlink:href="classmfem_1_1FiniteElementSpace.html" target="_top" xlink:title="mfem::FiniteElementSpace">
<polygon fill="white" stroke="red" points="274.5,-146.5 274.5,-169.5 455.5,-169.5 455.5,-146.5 274.5,-146.5"/>
<text text-anchor="middle" x="365" y="-154.3" font-family="Helvetica,sans-Serif" font-size="14.00">mfem::FiniteElementSpace</text>
</a>
</g>
</g>
<!-- Node3&#45;&gt;Node7 -->
<g id="edge9" class="edge"><title>Node3&#45;&gt;Node7</title>
<path fill="none" stroke="#9a32cd" stroke-dasharray="5,2" d="M99.6859,-290.116C135.914,-268.674 200.038,-230.331 254,-196 262.112,-190.839 263.267,-188.023 272,-184 284.663,-178.166 298.921,-173.362 312.364,-169.539"/>
<polygon fill="#9a32cd" stroke="#9a32cd" points="97.4976,-287.343 90.669,-295.444 101.059,-293.37 97.4976,-287.343"/>
<text text-anchor="middle" x="206" y="-258.8" font-family="Helvetica,sans-Serif" font-size="14.00"> T</text>
</g>
<!-- Node9 -->
<g id="node9" class="node"><title>Node9</title>
<g id="a_node9"><a xlink:href="classmfem_1_1OperatorHandle.html" target="_top" xlink:title="Pointer to an Operator of a specified type. ">
<polygon fill="white" stroke="black" points="476,-327.5 476,-350.5 632,-350.5 632,-327.5 476,-327.5"/>
<text text-anchor="middle" x="554" y="-335.3" font-family="Helvetica,sans-Serif" font-size="14.00">mfem::OperatorHandle</text>
</a>
</g>
</g>
<!-- Node3&#45;&gt;Node9 -->
<g id="edge12" class="edge"><title>Node3&#45;&gt;Node9</title>
<path fill="none" stroke="#9a32cd" stroke-dasharray="5,2" d="M136.916,-318.417C144.018,-319.405 151.149,-320.295 158,-321 268.113,-332.331 396.226,-336.529 475.977,-338.085"/>
<polygon fill="#9a32cd" stroke="#9a32cd" points="136.969,-314.888 126.569,-316.909 135.96,-321.815 136.969,-314.888"/>
<text text-anchor="middle" x="206" y="-332.8" font-family="Helvetica,sans-Serif" font-size="14.00"> oper</text>
</g>
<!-- Node4 -->
<g id="node4" class="node"><title>Node4</title>
<g id="a_node4"><a xlink:href="classmfem_1_1SparseMatrix.html" target="_top" xlink:title="Data type sparse matrix. ">
<polygon fill="white" stroke="red" points="0,-80.5 0,-103.5 140,-103.5 140,-80.5 0,-80.5"/>
<text text-anchor="middle" x="70" y="-88.3" font-family="Helvetica,sans-Serif" font-size="14.00">mfem::SparseMatrix</text>
</a>
</g>
</g>
<!-- Node4&#45;&gt;Node2 -->
<g id="edge3" class="edge"><title>Node4&#45;&gt;Node2</title>
<path fill="none" stroke="#9a32cd" stroke-dasharray="5,2" d="M150.398,-94.3677C182.584,-95.6149 220.093,-97.4331 254,-100 423.285,-112.815 492.015,-58.9499 632,-155 644.508,-163.583 637.879,-174.879 650,-184 655.621,-188.23 662.022,-191.647 668.684,-194.407"/>
<polygon fill="#9a32cd" stroke="#9a32cd" points="150.271,-90.8605 140.147,-93.9826 150.008,-97.8556 150.271,-90.8605"/>
<text text-anchor="middle" x="365" y="-106.8" font-family="Helvetica,sans-Serif" font-size="14.00"> Grad</text>
</g>
<!-- Node4&#45;&gt;Node7 -->
<g id="edge7" class="edge"><title>Node4&#45;&gt;Node7</title>
<path fill="none" stroke="#9a32cd" stroke-dasharray="5,2" d="M150.462,-102.305C182.808,-107.204 220.415,-113.803 254,-122 281.134,-128.623 311.232,-138.667 333.075,-146.465"/>
<polygon fill="#9a32cd" stroke="#9a32cd" points="150.562,-98.7819 140.156,-100.775 149.534,-105.706 150.562,-98.7819"/>
<text text-anchor="middle" x="206" y="-140.8" font-family="Helvetica,sans-Serif" font-size="14.00"> cR</text>
<text text-anchor="middle" x="206" y="-125.8" font-family="Helvetica,sans-Serif" font-size="14.00">cP</text>
</g>
<!-- Node5 -->
<g id="node5" class="node"><title>Node5</title>
<g id="a_node5"><a xlink:href="classmfem_1_1Array.html" target="_top" xlink:title="mfem::Array\&lt; int \&gt;">
<polygon fill="white" stroke="red" points="5,-171.5 5,-194.5 135,-194.5 135,-171.5 5,-171.5"/>
<text text-anchor="middle" x="70" y="-179.3" font-family="Helvetica,sans-Serif" font-size="14.00">mfem::Array&lt; int &gt;</text>
</a>
</g>
</g>
<!-- Node5&#45;&gt;Node2 -->
<g id="edge4" class="edge"><title>Node5&#45;&gt;Node2</title>
<path fill="none" stroke="#9a32cd" stroke-dasharray="5,2" d="M145.214,-191.072C149.537,-191.419 153.823,-191.733 158,-192 335.816,-203.363 545.378,-205.668 654.133,-206.036"/>
<polygon fill="#9a32cd" stroke="#9a32cd" points="145.355,-187.571 135.093,-190.206 144.759,-194.546 145.355,-187.571"/>
<text text-anchor="middle" x="365" y="-207.8" font-family="Helvetica,sans-Serif" font-size="14.00"> ess_vdofs</text>
</g>
<!-- Node5&#45;&gt;Node7 -->
<g id="edge8" class="edge"><title>Node5&#45;&gt;Node7</title>
<path fill="none" stroke="#9a32cd" stroke-dasharray="5,2" d="M120.842,-169.005C132.911,-166.163 145.84,-163.567 158,-162 195.961,-157.109 238.177,-155.608 274.459,-155.517"/>
<polygon fill="#9a32cd" stroke="#9a32cd" points="119.82,-165.651 110.942,-171.432 121.488,-172.45 119.82,-165.651"/>
<text text-anchor="middle" x="206" y="-180.8" font-family="Helvetica,sans-Serif" font-size="14.00"> dof_ldof_array</text>
<text text-anchor="middle" x="206" y="-165.8" font-family="Helvetica,sans-Serif" font-size="14.00">dof_elem_array</text>
</g>
<!-- Node6 -->
<g id="node6" class="node"><title>Node6</title>
<g id="a_node6"><a xlink:href="classmfem_1_1Array.html" target="_top" xlink:title="mfem::Array\&lt; mfem::\lArray\&lt; int \&gt; * \&gt;">
<polygon fill="white" stroke="red" points="292,-0 292,-38 438,-38 438,-0 292,-0"/>
<text text-anchor="start" x="300" y="-22.8" font-family="Helvetica,sans-Serif" font-size="14.00">mfem::Array&lt; mfem::</text>
<text text-anchor="middle" x="365" y="-7.8" font-family="Helvetica,sans-Serif" font-size="14.00">Array&lt; int &gt; * &gt;</text>
</a>
</g>
</g>
<!-- Node6&#45;&gt;Node2 -->
<g id="edge5" class="edge"><title>Node6&#45;&gt;Node2</title>
<path fill="none" stroke="#9a32cd" stroke-dasharray="5,2" d="M448.224,-3.06289C507.257,3.25384 584.485,0.177933 632,-46 676.356,-89.1079 609.551,-137.206 650,-184 653.588,-188.151 657.894,-191.548 662.614,-194.325"/>
<polygon fill="#9a32cd" stroke="#9a32cd" points="447.693,0.39879 438.171,-4.24697 448.511,-6.55316 447.693,0.39879"/>
<text text-anchor="middle" x="554" y="-49.8" font-family="Helvetica,sans-Serif" font-size="14.00"> bfnfi_marker</text>
</g>
<!-- Node7&#45;&gt;Node2 -->
<g id="edge6" class="edge"><title>Node7&#45;&gt;Node2</title>
<path fill="none" stroke="#9a32cd" stroke-dasharray="5,2" d="M465.873,-158.085C516.217,-159.9 577.908,-164.841 632,-177 640.375,-178.882 641.86,-181.276 650,-184 660.941,-187.661 672.876,-191.234 684.045,-194.4"/>
<polygon fill="#9a32cd" stroke="#9a32cd" points="465.744,-154.579 455.636,-157.753 465.517,-161.575 465.744,-154.579"/>
<text text-anchor="middle" x="554" y="-180.8" font-family="Helvetica,sans-Serif" font-size="14.00"> fes</text>
</g>
<!-- Node8 -->
<g id="node8" class="node"><title>Node8</title>
<g id="a_node8"><a xlink:href="classmfem_1_1Array.html" target="_top" xlink:title="mfem::Array\&lt; mfem::\lNonlinearFormIntegrator * \&gt;">
<polygon fill="white" stroke="red" points="272.5,-240 272.5,-278 457.5,-278 457.5,-240 272.5,-240"/>
<text text-anchor="start" x="280.5" y="-262.8" font-family="Helvetica,sans-Serif" font-size="14.00">mfem::Array&lt; mfem::</text>
<text text-anchor="middle" x="365" y="-247.8" font-family="Helvetica,sans-Serif" font-size="14.00">NonlinearFormIntegrator * &gt;</text>
</a>
</g>
</g>
<!-- Node8&#45;&gt;Node2 -->
<g id="edge10" class="edge"><title>Node8&#45;&gt;Node2</title>
<path fill="none" stroke="#9a32cd" stroke-dasharray="5,2" d="M467.953,-244.073C527.216,-235.397 600.548,-224.66 654.217,-216.803"/>
<polygon fill="#9a32cd" stroke="#9a32cd" points="467.203,-240.646 457.816,-245.557 468.217,-247.572 467.203,-240.646"/>
<text text-anchor="middle" x="554" y="-275.8" font-family="Helvetica,sans-Serif" font-size="14.00"> bfnfi</text>
<text text-anchor="middle" x="554" y="-260.8" font-family="Helvetica,sans-Serif" font-size="14.00">fnfi</text>
<text text-anchor="middle" x="554" y="-245.8" font-family="Helvetica,sans-Serif" font-size="14.00">dnfi</text>
</g>
<!-- Node9&#45;&gt;Node1 -->
<g id="edge11" class="edge"><title>Node9&#45;&gt;Node1</title>
<path fill="none" stroke="#9a32cd" stroke-dasharray="5,2" d="M618.013,-324.923C622.764,-323.663 627.469,-322.35 632,-321 737.679,-289.511 859.711,-241.484 913.748,-219.596"/>
<polygon fill="#9a32cd" stroke="#9a32cd" points="617.054,-321.556 608.239,-327.434 618.795,-328.336 617.054,-321.556"/>
<text text-anchor="middle" x="729" y="-319.8" font-family="Helvetica,sans-Serif" font-size="14.00"> pGrad</text>
</g>
<!-- Node10 -->
<g id="node10" class="node"><title>Node10</title>
<g id="a_node10"><a xlink:href="classmfem_1_1ParGridFunction.html" target="_top" xlink:title="Class for parallel grid function. ">
<polygon fill="white" stroke="red" points="650,-151.5 650,-174.5 808,-174.5 808,-151.5 650,-151.5"/>
<text text-anchor="middle" x="729" y="-159.3" font-family="Helvetica,sans-Serif" font-size="14.00">mfem::ParGridFunction</text>
</a>
</g>
</g>
<!-- Node10&#45;&gt;Node1 -->
<g id="edge13" class="edge"><title>Node10&#45;&gt;Node1</title>
<path fill="none" stroke="#9a32cd" stroke-dasharray="5,2" d="M818.261,-169.136C825.648,-170.221 832.974,-171.498 840,-173 865.815,-178.518 894.135,-188.576 914.371,-196.498"/>
<polygon fill="#9a32cd" stroke="#9a32cd" points="818.55,-165.644 808.171,-167.773 817.612,-172.581 818.55,-165.644"/>
<text text-anchor="middle" x="833" y="-191.8" font-family="Helvetica,sans-Serif" font-size="14.00"> X</text>
<text text-anchor="middle" x="833" y="-176.8" font-family="Helvetica,sans-Serif" font-size="14.00">Y</text>
</g>
</g>
</svg>
