<?xml version="1.0" encoding="UTF-8" standalone="no"?>
<!DOCTYPE svg PUBLIC "-//W3C//DTD SVG 1.1//EN"
 "http://www.w3.org/Graphics/SVG/1.1/DTD/svg11.dtd">
<!-- Generated by graphviz version 2.40.1 (20161225.0304)
 -->
<!-- Title: mfem::VectorDeltaCoefficient Pages: 1 -->
<svg width="465pt" height="177pt"
 viewBox="0.00 0.00 464.55 177.00" xmlns="http://www.w3.org/2000/svg" xmlns:xlink="http://www.w3.org/1999/xlink">
<g id="graph0" class="graph" transform="scale(1 1) rotate(0) translate(4 173)">
<title>mfem::VectorDeltaCoefficient</title>
<polygon fill="#ffffff" stroke="transparent" points="-4,4 -4,-173 460.5479,-173 460.5479,4 -4,4"/>
<!-- Node2 -->
<g id="node1" class="node">
<title>Node2</title>
<polygon fill="#bfbfbf" stroke="#000000" points="162.6587,-.5 162.6587,-22.5 359.9614,-22.5 359.9614,-.5 162.6587,-.5"/>
<text text-anchor="middle" x="261.3101" y="-7.3" font-family="Helvetica,sans-Serif" font-size="14.00" fill="#000000">mfem::VectorDeltaCoefficient</text>
</g>
<!-- Node3 -->
<g id="node2" class="node">
<title>Node3</title>
<g id="a_node2"><a xlink:href="classmfem_1_1VectorCoefficient.html" target="_top" xlink:title="mfem::VectorCoefficient">
<polygon fill="#ffffff" stroke="#000000" points="0,-73.5 0,-95.5 164.6201,-95.5 164.6201,-73.5 0,-73.5"/>
<text text-anchor="middle" x="82.3101" y="-80.3" font-family="Helvetica,sans-Serif" font-size="14.00" fill="#000000">mfem::VectorCoefficient</text>
</a>
</g>
</g>
<!-- Node3&#45;&gt;Node2 -->
<g id="edge1" class="edge">
<title>Node3&#45;&gt;Node2</title>
<path fill="none" stroke="#191970" d="M119.1248,-69.4862C153.3266,-55.5379 203.4676,-35.0894 234.1618,-22.5716"/>
<polygon fill="#191970" stroke="#191970" points="117.4342,-66.3957 109.4963,-73.4129 120.0776,-72.8774 117.4342,-66.3957"/>
</g>
<!-- Node4 -->
<g id="node3" class="node">
<title>Node4</title>
<g id="a_node3"><a xlink:href="classmfem_1_1DeltaCoefficient.html" target="_top" xlink:title="Delta function coefficient. ">
<polygon fill="#ffffff" stroke="#000000" points="182.5068,-73.5 182.5068,-95.5 340.1133,-95.5 340.1133,-73.5 182.5068,-73.5"/>
<text text-anchor="middle" x="261.3101" y="-80.3" font-family="Helvetica,sans-Serif" font-size="14.00" fill="#000000">mfem::DeltaCoefficient</text>
</a>
</g>
</g>
<!-- Node4&#45;&gt;Node2 -->
<g id="edge2" class="edge">
<title>Node4&#45;&gt;Node2</title>
<path fill="none" stroke="#9a32cd" stroke-dasharray="5,2" d="M261.3101,-63.2419C261.3101,-49.981 261.3101,-33.4483 261.3101,-22.6915"/>
<polygon fill="#9a32cd" stroke="#9a32cd" points="257.8102,-63.4128 261.3101,-73.4129 264.8102,-63.4129 257.8102,-63.4128"/>
<text text-anchor="middle" x="267.1479" y="-43.8" font-family="Helvetica,sans-Serif" font-size="14.00" fill="#000000"> d</text>
</g>
<!-- Node5 -->
<g id="node4" class="node">
<title>Node5</title>
<g id="a_node4"><a xlink:href="classmfem_1_1Coefficient.html" target="_top" xlink:title="Base class Coefficient that may optionally depend on time. ">
<polygon fill="#ffffff" stroke="#000000" points="197.8481,-146.5 197.8481,-168.5 322.772,-168.5 322.772,-146.5 197.8481,-146.5"/>
<text text-anchor="middle" x="260.3101" y="-153.3" font-family="Helvetica,sans-Serif" font-size="14.00" fill="#000000">mfem::Coefficient</text>
</a>
</g>
</g>
<!-- Node5&#45;&gt;Node4 -->
<g id="edge3" class="edge">
<title>Node5&#45;&gt;Node4</title>
<path fill="none" stroke="#191970" d="M258.5098,-136.2163C258.1311,-129.1466 257.9432,-121.2342 258.3101,-114 258.6177,-107.9332 259.2792,-101.1916 259.9029,-95.6862"/>
<polygon fill="#191970" stroke="#191970" points="255.0331,-136.6768 259.2099,-146.4135 262.0167,-136.1972 255.0331,-136.6768"/>
</g>
<!-- Node5&#45;&gt;Node4 -->
<g id="edge4" class="edge">
<title>Node5&#45;&gt;Node4</title>
<path fill="none" stroke="#9a32cd" stroke-dasharray="5,2" d="M260.6013,-136.2419C260.7829,-122.981 261.0094,-106.4483 261.1568,-95.6915"/>
<polygon fill="#9a32cd" stroke="#9a32cd" points="257.0993,-136.3658 260.4619,-146.4129 264.0987,-136.4618 257.0993,-136.3658"/>
<text text-anchor="middle" x="283.4893" y="-116.8" font-family="Helvetica,sans-Serif" font-size="14.00" fill="#000000"> weight</text>
</g>
<!-- Node6 -->
<g id="node5" class="node">
<title>Node6</title>
<g id="a_node5"><a xlink:href="classmfem_1_1Vector.html" target="_top" xlink:title="Vector data type. ">
<polygon fill="#ffffff" stroke="#000000" points="358.0723,-73.5 358.0723,-95.5 456.5479,-95.5 456.5479,-73.5 358.0723,-73.5"/>
<text text-anchor="middle" x="407.3101" y="-80.3" font-family="Helvetica,sans-Serif" font-size="14.00" fill="#000000">mfem::Vector</text>
</a>
</g>
</g>
<!-- Node6&#45;&gt;Node2 -->
<g id="edge5" class="edge">
<title>Node6&#45;&gt;Node2</title>
<path fill="none" stroke="#9a32cd" stroke-dasharray="5,2" d="M375.8629,-68.7764C348.1039,-54.8969 308.3261,-35.008 283.693,-22.6915"/>
<polygon fill="#9a32cd" stroke="#9a32cd" points="374.6263,-72.0712 385.1358,-73.4129 377.7568,-65.8102 374.6263,-72.0712"/>
<text text-anchor="middle" x="358.0342" y="-43.8" font-family="Helvetica,sans-Serif" font-size="14.00" fill="#000000"> dir</text>
</g>
</g>
</svg>
