<?xml version="1.0" encoding="UTF-8" standalone="no"?>
<!DOCTYPE svg PUBLIC "-//W3C//DTD SVG 1.1//EN"
 "http://www.w3.org/Graphics/SVG/1.1/DTD/svg11.dtd">
<!-- Generated by graphviz version 2.30.1 (20140821.0912)
 -->
<!-- Title: mfem::OutStream Pages: 1 -->
<svg width="160pt" height="288pt"
 viewBox="0.00 0.00 160.00 288.00" xmlns="http://www.w3.org/2000/svg" xmlns:xlink="http://www.w3.org/1999/xlink">
<g id="graph0" class="graph" transform="scale(1 1) rotate(0) translate(4 284)">
<title>mfem::OutStream</title>
<polygon fill="white" stroke="white" points="-4,5 -4,-284 157,-284 157,5 -4,5"/>
<!-- Node1 -->
<g id="node1" class="node"><title>Node1</title>
<polygon fill="#bfbfbf" stroke="black" points="13,-0.5 13,-23.5 139,-23.5 139,-0.5 13,-0.5"/>
<text text-anchor="middle" x="76" y="-8.3" font-family="Helvetica,sans-Serif" font-size="14.00">mfem::OutStream</text>
</g>
<!-- Node2 -->
<g id="node2" class="node"><title>Node2</title>
<g id="a_node2"><a xlink:title="STL class. ">
<polygon fill="white" stroke="#bfbfbf" points="30,-60.5 30,-83.5 122,-83.5 122,-60.5 30,-60.5"/>
<text text-anchor="middle" x="76" y="-68.3" font-family="Helvetica,sans-Serif" font-size="14.00">std::ostream</text>
</a>
</g>
</g>
<!-- Node2&#45;&gt;Node1 -->
<g id="edge1" class="edge"><title>Node2&#45;&gt;Node1</title>
<path fill="none" stroke="midnightblue" d="M76,-50.1906C76,-41.1684 76,-30.9941 76,-23.5707"/>
<polygon fill="midnightblue" stroke="midnightblue" points="72.5001,-50.3619 76,-60.3619 79.5001,-50.3619 72.5001,-50.3619"/>
</g>
<!-- Node3 -->
<g id="node3" class="node"><title>Node3</title>
<g id="a_node3"><a xlink:title="STL class. ">
<polygon fill="white" stroke="#bfbfbf" points="10.5,-121 10.5,-159 141.5,-159 141.5,-121 10.5,-121"/>
<text text-anchor="start" x="18.5" y="-143.8" font-family="Helvetica,sans-Serif" font-size="14.00">std::basic_ostream</text>
<text text-anchor="middle" x="76" y="-128.8" font-family="Helvetica,sans-Serif" font-size="14.00">&lt; char &gt;</text>
</a>
</g>
</g>
<!-- Node3&#45;&gt;Node2 -->
<g id="edge2" class="edge"><title>Node3&#45;&gt;Node2</title>
<path fill="none" stroke="midnightblue" d="M76,-110.936C76,-101.342 76,-91.1778 76,-83.7878"/>
<polygon fill="midnightblue" stroke="midnightblue" points="72.5001,-110.965 76,-120.965 79.5001,-110.965 72.5001,-110.965"/>
</g>
<!-- Node4 -->
<g id="node4" class="node"><title>Node4</title>
<g id="a_node4"><a xlink:title="STL class. ">
<polygon fill="white" stroke="#bfbfbf" points="0,-196.5 0,-219.5 152,-219.5 152,-196.5 0,-196.5"/>
<text text-anchor="middle" x="76" y="-204.3" font-family="Helvetica,sans-Serif" font-size="14.00">std::basic_ios&lt; Char &gt;</text>
</a>
</g>
</g>
<!-- Node4&#45;&gt;Node3 -->
<g id="edge3" class="edge"><title>Node4&#45;&gt;Node3</title>
<path fill="none" stroke="midnightblue" d="M76,-186.274C76,-177.541 76,-167.471 76,-159.048"/>
<polygon fill="midnightblue" stroke="midnightblue" points="72.5001,-186.396 76,-196.396 79.5001,-186.396 72.5001,-186.396"/>
</g>
<!-- Node5 -->
<g id="node5" class="node"><title>Node5</title>
<g id="a_node5"><a xlink:title="STL class. ">
<polygon fill="white" stroke="#bfbfbf" points="28,-256.5 28,-279.5 124,-279.5 124,-256.5 28,-256.5"/>
<text text-anchor="middle" x="76" y="-264.3" font-family="Helvetica,sans-Serif" font-size="14.00">std::ios_base</text>
</a>
</g>
</g>
<!-- Node5&#45;&gt;Node4 -->
<g id="edge4" class="edge"><title>Node5&#45;&gt;Node4</title>
<path fill="none" stroke="midnightblue" d="M76,-246.191C76,-237.168 76,-226.994 76,-219.571"/>
<polygon fill="midnightblue" stroke="midnightblue" points="72.5001,-246.362 76,-256.362 79.5001,-246.362 72.5001,-246.362"/>
</g>
</g>
</svg>
