<?xml version="1.0" encoding="UTF-8" standalone="no"?>
<!DOCTYPE svg PUBLIC "-//W3C//DTD SVG 1.1//EN"
 "http://www.w3.org/Graphics/SVG/1.1/DTD/svg11.dtd">
<!-- Generated by graphviz version 2.40.1 (20161225.0304)
 -->
<!-- Title: mfem::DGElasticityDirichletLFIntegrator Pages: 1 -->
<!--zoomable 280 -->
<svg id="main" version="1.1" xmlns="http://www.w3.org/2000/svg" xmlns:xlink="http://www.w3.org/1999/xlink" xml:space="preserve" onload="init(evt)">
<style type="text/css"><![CDATA[
.edge:hover path { stroke: red; }
.edge:hover polygon { stroke: red; fill: red; }
]]></style>
<script type="text/javascript"><![CDATA[
var edges = document.getElementsByTagName('g');
if (edges && edges.length) {
  for (var i=0;i<edges.length;i++) {
    if (edges[i].id.substr(0,4)=='edge') {
      edges[i].setAttribute('class','edge');
    }
  }
}
]]></script>
        <defs>
                <circle id="rim" cx="0" cy="0" r="7"/>
                <circle id="rim2" cx="0" cy="0" r="3.5"/>
                <g id="zoomPlus">
                        <use xlink:href="#rim" fill="#404040">
                                <set attributeName="fill" to="#808080" begin="zoomplus.mouseover" end="zoomplus.mouseout"/>
                        </use>
                        <path d="M-4,0h8M0,-4v8" fill="none" stroke="white" stroke-width="1.5" pointer-events="none"/>
                </g>
                <g id="zoomMin">
                        <use xlink:href="#rim" fill="#404040">
                                <set attributeName="fill" to="#808080" begin="zoomminus.mouseover" end="zoomminus.mouseout"/>
                        </use>
                        <path d="M-4,0h8" fill="none" stroke="white" stroke-width="1.5" pointer-events="none"/>
                </g>
                <g id="dirArrow">
                        <path fill="none" stroke="white" stroke-width="1.5" d="M0,-3.0v7 M-2.5,-0.5L0,-3.0L2.5,-0.5"/>
                </g>
               <g id="resetDef">
                       <use xlink:href="#rim2" fill="#404040">
                               <set attributeName="fill" to="#808080" begin="reset.mouseover" end="reset.mouseout"/>
                       </use>
               </g>
        </defs>

<script type="text/javascript">
var viewWidth = 938;
var viewHeight = 280;
var sectionId = 'dynsection-1';
</script>
<script xlink:href="svgpan.js"/>
<svg id="graph" class="graph">
<g id="viewport">
<title>mfem::DGElasticityDirichletLFIntegrator</title>
<polygon fill="#ffffff" stroke="transparent" points="-4,4 -4,-276 934.4697,-276 934.4697,4 -4,4"/>
<!-- Node2 -->
<g id="node1" class="node">
<title>Node2</title>
<polygon fill="#bfbfbf" stroke="#000000" points="744.8906,-85.5 744.8906,-121.5 930.4697,-121.5 930.4697,-85.5 744.8906,-85.5"/>
<text text-anchor="start" x="752.8906" y="-106.3" font-family="Helvetica,sans-Serif" font-size="14.00" fill="#000000">mfem::DGElasticityDirichlet</text>
<text text-anchor="middle" x="837.6802" y="-92.3" font-family="Helvetica,sans-Serif" font-size="14.00" fill="#000000">LFIntegrator</text>
</g>
<!-- Node3 -->
<g id="node2" class="node">
<title>Node3</title>
<g id="a_node2"><a xlink:href="classmfem_1_1LinearFormIntegrator.html" target="_top" xlink:title="Abstract base class LinearFormIntegrator. ">
<polygon fill="#ffffff" stroke="#000000" points="445.4297,-242.5 445.4297,-264.5 635.7119,-264.5 635.7119,-242.5 445.4297,-242.5"/>
<text text-anchor="middle" x="540.5708" y="-249.3" font-family="Helvetica,sans-Serif" font-size="14.00" fill="#000000">mfem::LinearFormIntegrator</text>
</a>
</g>
</g>
<!-- Node3&#45;&gt;Node2 -->
<g id="edge1" class="edge">
<title>Node3&#45;&gt;Node2</title>
<path fill="none" stroke="#191970" d="M646.1374,-258.0671C673.6585,-255.5329 702.4319,-249.3463 726.8906,-236.5 776.6429,-210.369 812.8258,-151.447 828.7163,-121.5827"/>
<polygon fill="#191970" stroke="#191970" points="645.7675,-254.5851 636.0651,-258.841 646.3039,-261.5645 645.7675,-254.5851"/>
</g>
<!-- Node4 -->
<g id="node3" class="node">
<title>Node4</title>
<g id="a_node3"><a xlink:href="classmfem_1_1IntegrationRule.html" target="_top" xlink:title="Class for an integration rule &#45; an Array of IntegrationPoint. ">
<polygon fill="#ffffff" stroke="#000000" points="207.4512,-242.5 207.4512,-264.5 361.1816,-264.5 361.1816,-242.5 207.4512,-242.5"/>
<text text-anchor="middle" x="284.3164" y="-249.3" font-family="Helvetica,sans-Serif" font-size="14.00" fill="#000000">mfem::IntegrationRule</text>
</a>
</g>
</g>
<!-- Node4&#45;&gt;Node3 -->
<g id="edge2" class="edge">
<title>Node4&#45;&gt;Node3</title>
<path fill="none" stroke="#9a32cd" stroke-dasharray="5,2" d="M371.2488,-253.5C395.0213,-253.5 420.9112,-253.5 445.1312,-253.5"/>
<polygon fill="#9a32cd" stroke="#9a32cd" points="371.2012,-250.0001 361.2012,-253.5 371.2011,-257.0001 371.2012,-250.0001"/>
<text text-anchor="middle" x="403.3057" y="-256.3" font-family="Helvetica,sans-Serif" font-size="14.00" fill="#000000"> IntRule</text>
</g>
<!-- Node5 -->
<g id="node4" class="node">
<title>Node5</title>
<g id="a_node4"><a xlink:href="classmfem_1_1Array.html" target="_top" xlink:title="mfem::Array\&lt; Integration\lPoint \&gt;">
<polygon fill="#ffffff" stroke="#ff0000" points="0,-235.5 0,-271.5 170.4512,-271.5 170.4512,-235.5 0,-235.5"/>
<text text-anchor="start" x="8" y="-256.3" font-family="Helvetica,sans-Serif" font-size="14.00" fill="#000000">mfem::Array&lt; Integration</text>
<text text-anchor="middle" x="85.2256" y="-242.3" font-family="Helvetica,sans-Serif" font-size="14.00" fill="#000000">Point &gt;</text>
</a>
</g>
</g>
<!-- Node5&#45;&gt;Node4 -->
<g id="edge3" class="edge">
<title>Node5&#45;&gt;Node4</title>
<path fill="none" stroke="#191970" d="M180.6175,-253.5C189.5878,-253.5 198.6032,-253.5 207.3716,-253.5"/>
<polygon fill="#191970" stroke="#191970" points="180.5244,-250.0001 170.5244,-253.5 180.5244,-257.0001 180.5244,-250.0001"/>
</g>
<!-- Node7 -->
<g id="node5" class="node">
<title>Node7</title>
<g id="a_node5"><a xlink:href="classmfem_1_1DenseMatrix.html" target="_top" xlink:title="Data type dense matrix using column&#45;major storage. ">
<polygon fill="#ffffff" stroke="#000000" points="471.8916,-185.5 471.8916,-207.5 609.25,-207.5 609.25,-185.5 471.8916,-185.5"/>
<text text-anchor="middle" x="540.5708" y="-192.3" font-family="Helvetica,sans-Serif" font-size="14.00" fill="#000000">mfem::DenseMatrix</text>
</a>
</g>
</g>
<!-- Node7&#45;&gt;Node2 -->
<g id="edge4" class="edge">
<title>Node7&#45;&gt;Node2</title>
<path fill="none" stroke="#9a32cd" stroke-dasharray="5,2" d="M619.82,-195.017C653.6126,-192.3929 692.9848,-186.6361 726.8906,-174.5 760.6594,-162.413 794.6782,-138.4474 815.9394,-121.7191"/>
<polygon fill="#9a32cd" stroke="#9a32cd" points="619.2565,-191.5477 609.524,-195.7344 619.7431,-198.5308 619.2565,-191.5477"/>
<text text-anchor="middle" x="690.3013" y="-221.3" font-family="Helvetica,sans-Serif" font-size="14.00" fill="#000000"> dshape_ps</text>
<text text-anchor="middle" x="690.3013" y="-207.3" font-family="Helvetica,sans-Serif" font-size="14.00" fill="#000000">adjJ</text>
<text text-anchor="middle" x="690.3013" y="-193.3" font-family="Helvetica,sans-Serif" font-size="14.00" fill="#000000">dshape</text>
</g>
<!-- Node8 -->
<g id="node6" class="node">
<title>Node8</title>
<g id="a_node6"><a xlink:href="classmfem_1_1Matrix.html" target="_top" xlink:title="Abstract data type matrix. ">
<polygon fill="#ffffff" stroke="#000000" points="235.8716,-185.5 235.8716,-207.5 332.7612,-207.5 332.7612,-185.5 235.8716,-185.5"/>
<text text-anchor="middle" x="284.3164" y="-192.3" font-family="Helvetica,sans-Serif" font-size="14.00" fill="#000000">mfem::Matrix</text>
</a>
</g>
</g>
<!-- Node8&#45;&gt;Node7 -->
<g id="edge5" class="edge">
<title>Node8&#45;&gt;Node7</title>
<path fill="none" stroke="#191970" d="M343.2641,-196.5C381.4686,-196.5 431.3933,-196.5 471.4634,-196.5"/>
<polygon fill="#191970" stroke="#191970" points="342.8172,-193.0001 332.8172,-196.5 342.8171,-200.0001 342.8172,-193.0001"/>
</g>
<!-- Node9 -->
<g id="node7" class="node">
<title>Node9</title>
<g id="a_node7"><a xlink:href="classmfem_1_1Operator.html" target="_top" xlink:title="Abstract operator. ">
<polygon fill="#ffffff" stroke="#000000" points="28.2119,-185.5 28.2119,-207.5 142.2393,-207.5 142.2393,-185.5 28.2119,-185.5"/>
<text text-anchor="middle" x="85.2256" y="-192.3" font-family="Helvetica,sans-Serif" font-size="14.00" fill="#000000">mfem::Operator</text>
</a>
</g>
</g>
<!-- Node9&#45;&gt;Node8 -->
<g id="edge6" class="edge">
<title>Node9&#45;&gt;Node8</title>
<path fill="none" stroke="#191970" d="M152.5294,-196.5C179.7937,-196.5 210.6753,-196.5 235.6879,-196.5"/>
<polygon fill="#191970" stroke="#191970" points="152.2771,-193.0001 142.277,-196.5 152.277,-200.0001 152.2771,-193.0001"/>
</g>
<!-- Node10 -->
<g id="node8" class="node">
<title>Node10</title>
<g id="a_node8"><a xlink:href="classmfem_1_1Vector.html" target="_top" xlink:title="Vector data type. ">
<polygon fill="#ffffff" stroke="#000000" points="491.333,-92.5 491.333,-114.5 589.8086,-114.5 589.8086,-92.5 491.333,-92.5"/>
<text text-anchor="middle" x="540.5708" y="-99.3" font-family="Helvetica,sans-Serif" font-size="14.00" fill="#000000">mfem::Vector</text>
</a>
</g>
</g>
<!-- Node10&#45;&gt;Node2 -->
<g id="edge7" class="edge">
<title>Node10&#45;&gt;Node2</title>
<path fill="none" stroke="#9a32cd" stroke-dasharray="5,2" d="M600.1505,-103.5C641.4996,-103.5 697.4107,-103.5 744.6006,-103.5"/>
<polygon fill="#9a32cd" stroke="#9a32cd" points="599.9659,-100.0001 589.9659,-103.5 599.9659,-107.0001 599.9659,-100.0001"/>
<text text-anchor="middle" x="690.3013" y="-162.3" font-family="Helvetica,sans-Serif" font-size="14.00" fill="#000000"> dshape_dn</text>
<text text-anchor="middle" x="690.3013" y="-148.3" font-family="Helvetica,sans-Serif" font-size="14.00" fill="#000000">nor</text>
<text text-anchor="middle" x="690.3013" y="-134.3" font-family="Helvetica,sans-Serif" font-size="14.00" fill="#000000">u_dir</text>
<text text-anchor="middle" x="690.3013" y="-120.3" font-family="Helvetica,sans-Serif" font-size="14.00" fill="#000000">shape</text>
<text text-anchor="middle" x="690.3013" y="-106.3" font-family="Helvetica,sans-Serif" font-size="14.00" fill="#000000">dshape_du</text>
</g>
<!-- Node11 -->
<g id="node9" class="node">
<title>Node11</title>
<g id="a_node9"><a xlink:href="classmfem_1_1Coefficient.html" target="_top" xlink:title="Base class Coefficient that may optionally depend on time. ">
<polygon fill="#ffffff" stroke="#000000" points="478.1089,-41.5 478.1089,-63.5 603.0327,-63.5 603.0327,-41.5 478.1089,-41.5"/>
<text text-anchor="middle" x="540.5708" y="-48.3" font-family="Helvetica,sans-Serif" font-size="14.00" fill="#000000">mfem::Coefficient</text>
</a>
</g>
</g>
<!-- Node11&#45;&gt;Node2 -->
<g id="edge8" class="edge">
<title>Node11&#45;&gt;Node2</title>
<path fill="none" stroke="#9a32cd" stroke-dasharray="5,2" d="M613.1238,-56.8574C647.7752,-59.7116 689.7025,-64.2938 726.8906,-71.5 745.268,-75.0611 765.0002,-80.2896 782.646,-85.4925"/>
<polygon fill="#9a32cd" stroke="#9a32cd" points="613.3317,-53.363 603.0864,-56.0619 612.7786,-60.3411 613.3317,-53.363"/>
<text text-anchor="middle" x="690.3013" y="-88.3" font-family="Helvetica,sans-Serif" font-size="14.00" fill="#000000"> mu</text>
<text text-anchor="middle" x="690.3013" y="-74.3" font-family="Helvetica,sans-Serif" font-size="14.00" fill="#000000">lambda</text>
</g>
<!-- Node12 -->
<g id="node10" class="node">
<title>Node12</title>
<g id="a_node10"><a xlink:href="classmfem_1_1VectorCoefficient.html" target="_top" xlink:title="mfem::VectorCoefficient">
<polygon fill="#ffffff" stroke="#000000" points="458.2607,-.5 458.2607,-22.5 622.8809,-22.5 622.8809,-.5 458.2607,-.5"/>
<text text-anchor="middle" x="540.5708" y="-7.3" font-family="Helvetica,sans-Serif" font-size="14.00" fill="#000000">mfem::VectorCoefficient</text>
</a>
</g>
</g>
<!-- Node12&#45;&gt;Node2 -->
<g id="edge9" class="edge">
<title>Node12&#45;&gt;Node2</title>
<path fill="none" stroke="#9a32cd" stroke-dasharray="5,2" d="M633.3464,-21.3456C663.6925,-26.1645 697.2139,-33.2282 726.8906,-43.5 756.8631,-53.8742 788.4254,-71.7453 810.161,-85.2926"/>
<polygon fill="#9a32cd" stroke="#9a32cd" points="633.6004,-17.844 623.1869,-19.7961 632.5449,-24.764 633.6004,-17.844"/>
<text text-anchor="middle" x="690.3013" y="-46.3" font-family="Helvetica,sans-Serif" font-size="14.00" fill="#000000"> uD</text>
</g>
</g>
</svg>
        <g id="navigator" transform="translate(0 0)" fill="#404254">
                <rect fill="#f2f5e9" fill-opacity="0.5" stroke="#606060" stroke-width=".5" x="0" y="0" width="60" height="60"/>
                <use id="zoomplus" xlink:href="#zoomPlus" x="17" y="9" onmousedown="handleZoom(evt,'in')"/>
                <use id="zoomminus" xlink:href="#zoomMin" x="42" y="9" onmousedown="handleZoom(evt,'out')"/>
                <use id="reset" xlink:href="#resetDef" x="30" y="36" onmousedown="handleReset()"/>
                <g id="arrowUp" xlink:href="#dirArrow" transform="translate(30 24)" onmousedown="handlePan(0,-1)">
                  <use xlink:href="#rim" fill="#404040">
                        <set attributeName="fill" to="#808080" begin="arrowUp.mouseover" end="arrowUp.mouseout"/>
                  </use>
                  <path fill="none" stroke="white" stroke-width="1.5" d="M0,-3.0v7 M-2.5,-0.5L0,-3.0L2.5,-0.5"/>
                </g>
                <g id="arrowRight" xlink:href="#dirArrow" transform="rotate(90) translate(36 -43)" onmousedown="handlePan(1,0)">
                  <use xlink:href="#rim" fill="#404040">
                        <set attributeName="fill" to="#808080" begin="arrowRight.mouseover" end="arrowRight.mouseout"/>
                  </use>
                  <path fill="none" stroke="white" stroke-width="1.5" d="M0,-3.0v7 M-2.5,-0.5L0,-3.0L2.5,-0.5"/>
                </g>
                <g id="arrowDown" xlink:href="#dirArrow" transform="rotate(180) translate(-30 -48)" onmousedown="handlePan(0,1)">
                  <use xlink:href="#rim" fill="#404040">
                        <set attributeName="fill" to="#808080" begin="arrowDown.mouseover" end="arrowDown.mouseout"/>
                  </use>
                  <path fill="none" stroke="white" stroke-width="1.5" d="M0,-3.0v7 M-2.5,-0.5L0,-3.0L2.5,-0.5"/>
                </g>
                <g id="arrowLeft" xlink:href="#dirArrow" transform="rotate(270) translate(-36 17)" onmousedown="handlePan(-1,0)">
                  <use xlink:href="#rim" fill="#404040">
                        <set attributeName="fill" to="#808080" begin="arrowLeft.mouseover" end="arrowLeft.mouseout"/>
                  </use>
                  <path fill="none" stroke="white" stroke-width="1.5" d="M0,-3.0v7 M-2.5,-0.5L0,-3.0L2.5,-0.5"/>
                </g>
        </g>
        <svg viewBox="0 0 15 15" width="100%" height="30px" preserveAspectRatio="xMaxYMin meet">
         <g id="arrow_out" transform="scale(0.3 0.3)">
          <a xlink:href="classmfem_1_1DGElasticityDirichletLFIntegrator__coll__graph_org.svg" target="_base">
           <rect id="button" ry="5" rx="5" y="6" x="6" height="38" width="38"
                fill="#f2f5e9" fill-opacity="0.5" stroke="#606060" stroke-width="1.0"/>
           <path id="arrow"
             d="M 11.500037,31.436501 C 11.940474,20.09759 22.043105,11.32322 32.158766,21.979434 L 37.068811,17.246167 C 37.068811,17.246167 37.088388,32 37.088388,32 L 22.160133,31.978069 C 22.160133,31.978069 26.997745,27.140456 26.997745,27.140456 C 18.528582,18.264221 13.291696,25.230495 11.500037,31.436501 z"
             style="fill:#404040;"/>
          </a>
         </g>
        </svg>
</svg>
