<?xml version="1.0" encoding="UTF-8" standalone="no"?>
<!DOCTYPE svg PUBLIC "-//W3C//DTD SVG 1.1//EN"
 "http://www.w3.org/Graphics/SVG/1.1/DTD/svg11.dtd">
<!-- Generated by graphviz version 2.40.1 (20161225.0304)
 -->
<!-- Title: mfem::NodalTensorFiniteElement Pages: 1 -->
<svg width="1106pt" height="154pt"
 viewBox="0.00 0.00 1105.76 154.00" xmlns="http://www.w3.org/2000/svg" xmlns:xlink="http://www.w3.org/1999/xlink">
<g id="graph0" class="graph" transform="scale(1 1) rotate(0) translate(4 150)">
<title>mfem::NodalTensorFiniteElement</title>
<polygon fill="#ffffff" stroke="transparent" points="-4,4 -4,-150 1101.7627,-150 1101.7627,4 -4,4"/>
<!-- Node0 -->
<g id="node1" class="node">
<title>Node0</title>
<polygon fill="#bfbfbf" stroke="#000000" points="622.8193,-61.5 622.8193,-83.5 845.791,-83.5 845.791,-61.5 622.8193,-61.5"/>
<text text-anchor="middle" x="734.3052" y="-68.3" font-family="Helvetica,sans-Serif" font-size="14.00" fill="#000000">mfem::NodalTensorFiniteElement</text>
</g>
<!-- Node5 -->
<g id="node6" class="node">
<title>Node5</title>
<g id="a_node6"><a xlink:href="classmfem_1_1H1__HexahedronElement.html" target="_top" xlink:title="mfem::H1_HexahedronElement">
<polygon fill="#ffffff" stroke="#000000" points="883.729,-123.5 883.729,-145.5 1095.8247,-145.5 1095.8247,-123.5 883.729,-123.5"/>
<text text-anchor="middle" x="989.7769" y="-130.3" font-family="Helvetica,sans-Serif" font-size="14.00" fill="#000000">mfem::H1_HexahedronElement</text>
</a>
</g>
</g>
<!-- Node0&#45;&gt;Node5 -->
<g id="edge5" class="edge">
<title>Node0&#45;&gt;Node5</title>
<path fill="none" stroke="#191970" d="M779.3761,-86.5289C808.4315,-95.2758 847.1271,-106.3734 881.791,-114.5 895.6205,-117.7422 910.5461,-120.7911 924.7587,-123.4847"/>
<polygon fill="#191970" stroke="#191970" points="780.1086,-83.0938 769.5233,-83.5419 778.0777,-89.7927 780.1086,-83.0938"/>
</g>
<!-- Node6 -->
<g id="node7" class="node">
<title>Node6</title>
<g id="a_node7"><a xlink:href="classmfem_1_1H1__QuadrilateralElement.html" target="_top" xlink:title="mfem::H1_QuadrilateralElement">
<polygon fill="#ffffff" stroke="#000000" points="881.791,-82.5 881.791,-104.5 1097.7627,-104.5 1097.7627,-82.5 881.791,-82.5"/>
<text text-anchor="middle" x="989.7769" y="-89.3" font-family="Helvetica,sans-Serif" font-size="14.00" fill="#000000">mfem::H1_QuadrilateralElement</text>
</a>
</g>
</g>
<!-- Node0&#45;&gt;Node6 -->
<g id="edge6" class="edge">
<title>Node0&#45;&gt;Node6</title>
<path fill="none" stroke="#191970" d="M855.9913,-82.5027C864.5353,-83.205 873.1155,-83.9103 881.5785,-84.606"/>
<polygon fill="#191970" stroke="#191970" points="856.2403,-79.0115 845.9871,-81.6804 855.6667,-85.9879 856.2403,-79.0115"/>
</g>
<!-- Node7 -->
<g id="node8" class="node">
<title>Node7</title>
<g id="a_node8"><a xlink:href="classmfem_1_1H1__SegmentElement.html" target="_top" xlink:title="mfem::H1_SegmentElement">
<polygon fill="#ffffff" stroke="#000000" points="893.8496,-41.5 893.8496,-63.5 1085.7041,-63.5 1085.7041,-41.5 893.8496,-41.5"/>
<text text-anchor="middle" x="989.7769" y="-48.3" font-family="Helvetica,sans-Serif" font-size="14.00" fill="#000000">mfem::H1_SegmentElement</text>
</a>
</g>
</g>
<!-- Node0&#45;&gt;Node7 -->
<g id="edge7" class="edge">
<title>Node0&#45;&gt;Node7</title>
<path fill="none" stroke="#191970" d="M856.0483,-62.9692C868.626,-61.9845 881.2815,-60.9937 893.5253,-60.0352"/>
<polygon fill="#191970" stroke="#191970" points="855.6834,-59.4869 845.9871,-63.7568 856.2298,-66.4656 855.6834,-59.4869"/>
</g>
<!-- Node8 -->
<g id="node9" class="node">
<title>Node8</title>
<g id="a_node9"><a xlink:href="classmfem_1_1L2__HexahedronElement.html" target="_top" xlink:title="mfem::L2_HexahedronElement">
<polygon fill="#ffffff" stroke="#000000" points="884.8911,-.5 884.8911,-22.5 1094.6626,-22.5 1094.6626,-.5 884.8911,-.5"/>
<text text-anchor="middle" x="989.7769" y="-7.3" font-family="Helvetica,sans-Serif" font-size="14.00" fill="#000000">mfem::L2_HexahedronElement</text>
</a>
</g>
</g>
<!-- Node0&#45;&gt;Node8 -->
<g id="edge8" class="edge">
<title>Node0&#45;&gt;Node8</title>
<path fill="none" stroke="#191970" d="M780.2784,-58.5961C809.2419,-50.1167 847.5104,-39.4232 881.791,-31.5 895.7235,-28.2798 910.7609,-25.2298 925.06,-22.5267"/>
<polygon fill="#191970" stroke="#191970" points="779.046,-55.3104 770.4435,-61.4949 781.0251,-62.0248 779.046,-55.3104"/>
</g>
<!-- Node1 -->
<g id="node2" class="node">
<title>Node1</title>
<g id="a_node2"><a xlink:href="classmfem_1_1NodalFiniteElement.html" target="_top" xlink:title="mfem::NodalFiniteElement">
<polygon fill="#ffffff" stroke="#000000" points="403.1475,-82.5 403.1475,-104.5 584.0986,-104.5 584.0986,-82.5 403.1475,-82.5"/>
<text text-anchor="middle" x="493.623" y="-89.3" font-family="Helvetica,sans-Serif" font-size="14.00" fill="#000000">mfem::NodalFiniteElement</text>
</a>
</g>
</g>
<!-- Node1&#45;&gt;Node0 -->
<g id="edge1" class="edge">
<title>Node1&#45;&gt;Node0</title>
<path fill="none" stroke="#191970" d="M594.3391,-84.7123C603.6858,-83.8968 613.1948,-83.0671 622.6324,-82.2437"/>
<polygon fill="#191970" stroke="#191970" points="593.9296,-81.2347 584.2717,-85.5907 594.5381,-88.2082 593.9296,-81.2347"/>
</g>
<!-- Node2 -->
<g id="node3" class="node">
<title>Node2</title>
<g id="a_node3"><a xlink:href="classmfem_1_1ScalarFiniteElement.html" target="_top" xlink:title="mfem::ScalarFiniteElement">
<polygon fill="#ffffff" stroke="#000000" points="180.3721,-82.5 180.3721,-104.5 364.4268,-104.5 364.4268,-82.5 180.3721,-82.5"/>
<text text-anchor="middle" x="272.3994" y="-89.3" font-family="Helvetica,sans-Serif" font-size="14.00" fill="#000000">mfem::ScalarFiniteElement</text>
</a>
</g>
</g>
<!-- Node2&#45;&gt;Node1 -->
<g id="edge2" class="edge">
<title>Node2&#45;&gt;Node1</title>
<path fill="none" stroke="#191970" d="M374.7824,-93.5C384.1921,-93.5 393.6816,-93.5 402.9766,-93.5"/>
<polygon fill="#191970" stroke="#191970" points="374.6163,-90.0001 364.6162,-93.5 374.6162,-97.0001 374.6163,-90.0001"/>
</g>
<!-- Node3 -->
<g id="node4" class="node">
<title>Node3</title>
<g id="a_node4"><a xlink:href="classmfem_1_1FiniteElement.html" target="_top" xlink:title="Abstract class for Finite Elements. ">
<polygon fill="#ffffff" stroke="#000000" points="0,-82.5 0,-104.5 144.3721,-104.5 144.3721,-82.5 0,-82.5"/>
<text text-anchor="middle" x="72.186" y="-89.3" font-family="Helvetica,sans-Serif" font-size="14.00" fill="#000000">mfem::FiniteElement</text>
</a>
</g>
</g>
<!-- Node3&#45;&gt;Node2 -->
<g id="edge3" class="edge">
<title>Node3&#45;&gt;Node2</title>
<path fill="none" stroke="#191970" d="M154.6894,-93.5C163.1538,-93.5 171.7915,-93.5 180.3502,-93.5"/>
<polygon fill="#191970" stroke="#191970" points="154.4677,-90.0001 144.4677,-93.5 154.4676,-97.0001 154.4677,-90.0001"/>
</g>
<!-- Node4 -->
<g id="node5" class="node">
<title>Node4</title>
<g id="a_node5"><a xlink:href="classmfem_1_1TensorBasisElement.html" target="_top" xlink:title="mfem::TensorBasisElement">
<polygon fill="#ffffff" stroke="#000000" points="400.4268,-41.5 400.4268,-63.5 586.8193,-63.5 586.8193,-41.5 400.4268,-41.5"/>
<text text-anchor="middle" x="493.623" y="-48.3" font-family="Helvetica,sans-Serif" font-size="14.00" fill="#000000">mfem::TensorBasisElement</text>
</a>
</g>
</g>
<!-- Node4&#45;&gt;Node0 -->
<g id="edge4" class="edge">
<title>Node4&#45;&gt;Node0</title>
<path fill="none" stroke="#191970" d="M597.1827,-61.1055C605.5672,-61.8022 614.0627,-62.5082 622.5018,-63.2095"/>
<polygon fill="#191970" stroke="#191970" points="597.2771,-57.6014 587.0215,-60.2611 596.6973,-64.5773 597.2771,-57.6014"/>
</g>
</g>
</svg>
