<?xml version="1.0" encoding="UTF-8" standalone="no"?>
<!DOCTYPE svg PUBLIC "-//W3C//DTD SVG 1.1//EN"
 "http://www.w3.org/Graphics/SVG/1.1/DTD/svg11.dtd">
<!-- Generated by graphviz version 2.26.3 (20100126.1600)
 -->
<!-- Title: G Pages: 1 -->
<svg width="138pt" height="222pt"
 viewBox="0.00 0.00 138.00 222.00" xmlns="http://www.w3.org/2000/svg" xmlns:xlink="http://www.w3.org/1999/xlink">
<g id="graph1" class="graph" transform="scale(1 1) rotate(0) translate(4 218)">
<title>G</title>
<polygon fill="white" stroke="white" points="-4,5 -4,-218 135,-218 135,5 -4,5"/>
<!-- Node1 -->
<g id="node1" class="node"><title>Node1</title>
<polygon fill="#bfbfbf" stroke="black" points="-0.5,-0.5 -0.5,-19.5 130.5,-19.5 130.5,-0.5 -0.5,-0.5"/>
<text text-anchor="middle" x="65" y="-6.5" font-family="FreeSans" font-size="10.00">QuadPos1DFiniteElement</text>
</g>
<!-- Node2 -->
<g id="node2" class="node"><title>Node2</title>
<a xlink:href="classFiniteElement.html" target="_top" xlink:title="Abstract class for Finite Elements.">
<polygon fill="white" stroke="black" points="26,-58.5 26,-77.5 104,-77.5 104,-58.5 26,-58.5"/>
<text text-anchor="middle" x="65" y="-64.5" font-family="FreeSans" font-size="10.00">FiniteElement</text>
</a>
</g>
<!-- Node2&#45;&gt;Node1 -->
<g id="edge2" class="edge"><title>Node2&#45;&gt;Node1</title>
<path fill="none" stroke="midnightblue" d="M65,-48.153C65,-38.5796 65,-27.5235 65,-19.7856"/>
<polygon fill="midnightblue" stroke="midnightblue" points="61.5001,-48.4224 65,-58.4225 68.5001,-48.4225 61.5001,-48.4224"/>
</g>
<!-- Node3 -->
<g id="node4" class="node"><title>Node3</title>
<a xlink:href="classIntegrationRule.html" target="_top" xlink:title="Class for integration rule.">
<polygon fill="white" stroke="black" points="23,-126.5 23,-145.5 107,-145.5 107,-126.5 23,-126.5"/>
<text text-anchor="middle" x="65" y="-132.5" font-family="FreeSans" font-size="10.00">IntegrationRule</text>
</a>
</g>
<!-- Node3&#45;&gt;Node2 -->
<g id="edge4" class="edge"><title>Node3&#45;&gt;Node2</title>
<path fill="none" stroke="#9a32cd" stroke-dasharray="5,2" d="M65,-116.195C65,-103.551 65,-87.7157 65,-77.7247"/>
<polygon fill="#9a32cd" stroke="#9a32cd" points="61.5001,-116.257 65,-126.257 68.5001,-116.257 61.5001,-116.257"/>
<text text-anchor="middle" x="81.5" y="-98.5" font-family="FreeSans" font-size="10.00"> Nodes</text>
</g>
<!-- Node4 -->
<g id="node6" class="node"><title>Node4</title>
<a xlink:href="classIntegrationPoint.html" target="_top" xlink:title="Class for integration point with weight.">
<polygon fill="white" stroke="black" points="22,-194.5 22,-213.5 108,-213.5 108,-194.5 22,-194.5"/>
<text text-anchor="middle" x="65" y="-200.5" font-family="FreeSans" font-size="10.00">IntegrationPoint</text>
</a>
</g>
<!-- Node4&#45;&gt;Node3 -->
<g id="edge6" class="edge"><title>Node4&#45;&gt;Node3</title>
<path fill="none" stroke="#9a32cd" stroke-dasharray="5,2" d="M65,-184.195C65,-171.551 65,-155.716 65,-145.725"/>
<polygon fill="#9a32cd" stroke="#9a32cd" points="61.5001,-184.257 65,-194.257 68.5001,-184.257 61.5001,-184.257"/>
<text text-anchor="middle" x="86.5" y="-166.5" font-family="FreeSans" font-size="10.00"> IntPoints</text>
</g>
</g>
</svg>
