<?xml version="1.0" encoding="UTF-8" standalone="no"?>
<!DOCTYPE svg PUBLIC "-//W3C//DTD SVG 1.1//EN"
 "http://www.w3.org/Graphics/SVG/1.1/DTD/svg11.dtd">
<!-- Generated by graphviz version 2.26.3 (20100126.1600)
 -->
<!-- Title: mfem::Element Pages: 1 -->
<svg width="292pt" height="242pt"
 viewBox="0.00 0.00 292.00 242.00" xmlns="http://www.w3.org/2000/svg" xmlns:xlink="http://www.w3.org/1999/xlink">
<g id="graph1" class="graph" transform="scale(1 1) rotate(0) translate(4 238)">
<title>mfem::Element</title>
<polygon fill="white" stroke="white" points="-4,5 -4,-238 289,-238 289,5 -4,5"/>
<!-- Node1 -->
<g id="node1" class="node"><title>Node1</title>
<polygon fill="#bfbfbf" stroke="black" points="0,-105 0,-129 110,-129 110,-105 0,-105"/>
<text text-anchor="middle" x="55" y="-112.4" font-family="Helvetica,sans-Serif" font-size="14.00">mfem::Element</text>
</g>
<!-- Node2 -->
<g id="node3" class="node"><title>Node2</title>
<a xlink:href="classmfem_1_1Hexahedron.html" target="_top" xlink:title="Data type hexahedron element. ">
<polygon fill="white" stroke="black" points="148,-210 148,-234 282,-234 282,-210 148,-210"/>
<text text-anchor="middle" x="215" y="-217.4" font-family="Helvetica,sans-Serif" font-size="14.00">mfem::Hexahedron</text>
</a>
</g>
<!-- Node1&#45;&gt;Node2 -->
<g id="edge2" class="edge"><title>Node1&#45;&gt;Node2</title>
<path fill="none" stroke="midnightblue" d="M71.6664,-136.884C88.5815,-155.878 116.426,-184.05 146,-201 152.084,-204.487 158.808,-207.453 165.6,-209.96"/>
<polygon fill="midnightblue" stroke="midnightblue" points="74.112,-134.363 64.9049,-129.121 68.8334,-138.961 74.112,-134.363"/>
</g>
<!-- Node3 -->
<g id="node5" class="node"><title>Node3</title>
<a xlink:href="classmfem_1_1Point.html" target="_top" xlink:title="Data type point element. ">
<polygon fill="white" stroke="black" points="170,-168 170,-192 260,-192 260,-168 170,-168"/>
<text text-anchor="middle" x="215" y="-175.4" font-family="Helvetica,sans-Serif" font-size="14.00">mfem::Point</text>
</a>
</g>
<!-- Node1&#45;&gt;Node3 -->
<g id="edge4" class="edge"><title>Node1&#45;&gt;Node3</title>
<path fill="none" stroke="midnightblue" d="M87.96,-133.539C105.041,-141.769 126.381,-151.527 146,-159 154.308,-162.164 163.315,-165.189 171.995,-167.908"/>
<polygon fill="midnightblue" stroke="midnightblue" points="89.4699,-130.381 78.947,-129.149 86.4043,-136.675 89.4699,-130.381"/>
</g>
<!-- Node4 -->
<g id="node7" class="node"><title>Node4</title>
<a xlink:href="classmfem_1_1Quadrilateral.html" target="_top" xlink:title="Data type quadrilateral element. ">
<polygon fill="white" stroke="black" points="146,-126 146,-150 284,-150 284,-126 146,-126"/>
<text text-anchor="middle" x="215" y="-133.4" font-family="Helvetica,sans-Serif" font-size="14.00">mfem::Quadrilateral</text>
</a>
</g>
<!-- Node1&#45;&gt;Node4 -->
<g id="edge6" class="edge"><title>Node1&#45;&gt;Node4</title>
<path fill="none" stroke="midnightblue" d="M119.984,-125.529C128.55,-126.653 137.354,-127.809 145.985,-128.942"/>
<polygon fill="midnightblue" stroke="midnightblue" points="120.433,-122.058 110.063,-124.227 119.522,-128.999 120.433,-122.058"/>
</g>
<!-- Node5 -->
<g id="node9" class="node"><title>Node5</title>
<a xlink:href="classmfem_1_1Segment.html" target="_top" xlink:title="Data type line segment element. ">
<polygon fill="white" stroke="black" points="157.5,-84 157.5,-108 272.5,-108 272.5,-84 157.5,-84"/>
<text text-anchor="middle" x="215" y="-91.4" font-family="Helvetica,sans-Serif" font-size="14.00">mfem::Segment</text>
</a>
</g>
<!-- Node1&#45;&gt;Node5 -->
<g id="edge8" class="edge"><title>Node1&#45;&gt;Node5</title>
<path fill="none" stroke="midnightblue" d="M120.255,-108.435C132.555,-106.821 145.337,-105.143 157.383,-103.562"/>
<polygon fill="midnightblue" stroke="midnightblue" points="119.522,-105.001 110.063,-109.773 120.433,-111.942 119.522,-105.001"/>
</g>
<!-- Node6 -->
<g id="node11" class="node"><title>Node6</title>
<a xlink:href="classmfem_1_1Tetrahedron.html" target="_top" xlink:title="Data type tetrahedron element. ">
<polygon fill="white" stroke="black" points="148.5,-42 148.5,-66 281.5,-66 281.5,-42 148.5,-42"/>
<text text-anchor="middle" x="215" y="-49.4" font-family="Helvetica,sans-Serif" font-size="14.00">mfem::Tetrahedron</text>
</a>
</g>
<!-- Node1&#45;&gt;Node6 -->
<g id="edge10" class="edge"><title>Node1&#45;&gt;Node6</title>
<path fill="none" stroke="midnightblue" d="M87.96,-100.461C105.041,-92.2313 126.381,-82.4728 146,-75 154.308,-71.8355 163.315,-68.811 171.995,-66.0923"/>
<polygon fill="midnightblue" stroke="midnightblue" points="86.4043,-97.3255 78.947,-104.851 89.4699,-103.619 86.4043,-97.3255"/>
</g>
<!-- Node7 -->
<g id="node13" class="node"><title>Node7</title>
<a xlink:href="classmfem_1_1Triangle.html" target="_top" xlink:title="Data type triangle element. ">
<polygon fill="white" stroke="black" points="161,-0 161,-24 269,-24 269,-0 161,-0"/>
<text text-anchor="middle" x="215" y="-7.4" font-family="Helvetica,sans-Serif" font-size="14.00">mfem::Triangle</text>
</a>
</g>
<!-- Node1&#45;&gt;Node7 -->
<g id="edge12" class="edge"><title>Node1&#45;&gt;Node7</title>
<path fill="none" stroke="midnightblue" d="M71.6664,-97.1157C88.5815,-78.1217 116.426,-49.9497 146,-33 152.084,-29.5132 158.808,-26.547 165.6,-24.0404"/>
<polygon fill="midnightblue" stroke="midnightblue" points="68.8334,-95.0393 64.9049,-104.879 74.112,-99.6368 68.8334,-95.0393"/>
</g>
</g>
</svg>
