<?xml version="1.0" encoding="UTF-8" standalone="no"?>
<!DOCTYPE svg PUBLIC "-//W3C//DTD SVG 1.1//EN"
 "http://www.w3.org/Graphics/SVG/1.1/DTD/svg11.dtd">
<!-- Generated by graphviz version 2.30.1 (20140821.0912)
 -->
<!-- Title: mfem::RefinedLinear1DFiniteElement Pages: 1 -->
<svg width="202pt" height="228pt"
 viewBox="0.00 0.00 202.00 228.00" xmlns="http://www.w3.org/2000/svg" xmlns:xlink="http://www.w3.org/1999/xlink">
<g id="graph0" class="graph" transform="scale(1 1) rotate(0) translate(4 224)">
<title>mfem::RefinedLinear1DFiniteElement</title>
<polygon fill="white" stroke="white" points="-4,5 -4,-224 199,-224 199,5 -4,5"/>
<!-- Node1 -->
<g id="node1" class="node"><title>Node1</title>
<polygon fill="#bfbfbf" stroke="black" points="0,-1 0,-39 194,-39 194,-1 0,-1"/>
<text text-anchor="start" x="8" y="-23.8" font-family="Helvetica,sans-Serif" font-size="14.00">mfem::RefinedLinear1DFinite</text>
<text text-anchor="middle" x="97" y="-8.8" font-family="Helvetica,sans-Serif" font-size="14.00">Element</text>
</g>
<!-- Node2 -->
<g id="node2" class="node"><title>Node2</title>
<g id="a_node2"><a xlink:href="classmfem_1_1NodalFiniteElement.html" target="_top" xlink:title="mfem::NodalFiniteElement">
<polygon fill="white" stroke="black" points="8,-76.5 8,-99.5 186,-99.5 186,-76.5 8,-76.5"/>
<text text-anchor="middle" x="97" y="-84.3" font-family="Helvetica,sans-Serif" font-size="14.00">mfem::NodalFiniteElement</text>
</a>
</g>
</g>
<!-- Node2&#45;&gt;Node1 -->
<g id="edge1" class="edge"><title>Node2&#45;&gt;Node1</title>
<path fill="none" stroke="midnightblue" d="M97,-66.2742C97,-57.5413 97,-47.471 97,-39.0484"/>
<polygon fill="midnightblue" stroke="midnightblue" points="93.5001,-66.3959 97,-76.396 100.5,-66.396 93.5001,-66.3959"/>
</g>
<!-- Node3 -->
<g id="node3" class="node"><title>Node3</title>
<g id="a_node3"><a xlink:href="classmfem_1_1ScalarFiniteElement.html" target="_top" xlink:title="mfem::ScalarFiniteElement">
<polygon fill="white" stroke="black" points="6.5,-136.5 6.5,-159.5 187.5,-159.5 187.5,-136.5 6.5,-136.5"/>
<text text-anchor="middle" x="97" y="-144.3" font-family="Helvetica,sans-Serif" font-size="14.00">mfem::ScalarFiniteElement</text>
</a>
</g>
</g>
<!-- Node3&#45;&gt;Node2 -->
<g id="edge2" class="edge"><title>Node3&#45;&gt;Node2</title>
<path fill="none" stroke="midnightblue" d="M97,-126.191C97,-117.168 97,-106.994 97,-99.5707"/>
<polygon fill="midnightblue" stroke="midnightblue" points="93.5001,-126.362 97,-136.362 100.5,-126.362 93.5001,-126.362"/>
</g>
<!-- Node4 -->
<g id="node4" class="node"><title>Node4</title>
<g id="a_node4"><a xlink:href="classmfem_1_1FiniteElement.html" target="_top" xlink:title="Abstract class for Finite Elements. ">
<polygon fill="white" stroke="black" points="25.5,-196.5 25.5,-219.5 168.5,-219.5 168.5,-196.5 25.5,-196.5"/>
<text text-anchor="middle" x="97" y="-204.3" font-family="Helvetica,sans-Serif" font-size="14.00">mfem::FiniteElement</text>
</a>
</g>
</g>
<!-- Node4&#45;&gt;Node3 -->
<g id="edge3" class="edge"><title>Node4&#45;&gt;Node3</title>
<path fill="none" stroke="midnightblue" d="M97,-186.191C97,-177.168 97,-166.994 97,-159.571"/>
<polygon fill="midnightblue" stroke="midnightblue" points="93.5001,-186.362 97,-196.362 100.5,-186.362 93.5001,-186.362"/>
</g>
</g>
</svg>
