<?xml version="1.0" encoding="UTF-8" standalone="no"?>
<!DOCTYPE svg PUBLIC "-//W3C//DTD SVG 1.1//EN"
 "http://www.w3.org/Graphics/SVG/1.1/DTD/svg11.dtd">
<!-- Generated by graphviz version 2.30.1 (20140821.0912)
 -->
<!-- Title: mfem::DomainLFIntegrator Pages: 1 -->
<!--zoomable 338 -->
<svg id="main" version="1.1" xmlns="http://www.w3.org/2000/svg" xmlns:xlink="http://www.w3.org/1999/xlink" xml:space="preserve" onload="init(evt)">
<style type="text/css"><![CDATA[
.edge:hover path { stroke: red; }
.edge:hover polygon { stroke: red; fill: red; }
]]></style>
<script type="text/javascript"><![CDATA[
var edges = document.getElementsByTagName('g');
if (edges && edges.length) {
  for (var i=0;i<edges.length;i++) {
    if (edges[i].id.substr(0,4)=='edge') {
      edges[i].setAttribute('class','edge');
    }
  }
}
]]></script>
        <defs>
                <circle id="rim" cx="0" cy="0" r="7"/>
                <circle id="rim2" cx="0" cy="0" r="3.5"/>
                <g id="zoomPlus">
                        <use xlink:href="#rim" fill="#404040">
                                <set attributeName="fill" to="#808080" begin="zoomplus.mouseover" end="zoomplus.mouseout"/>
                        </use>
                        <path d="M-4,0h8M0,-4v8" fill="none" stroke="white" stroke-width="1.5" pointer-events="none"/>
                </g>
                <g id="zoomMin">
                        <use xlink:href="#rim" fill="#404040">
                                <set attributeName="fill" to="#808080" begin="zoomminus.mouseover" end="zoomminus.mouseout"/>
                        </use>
                        <path d="M-4,0h8" fill="none" stroke="white" stroke-width="1.5" pointer-events="none"/>
                </g>
                <g id="dirArrow">
                        <path fill="none" stroke="white" stroke-width="1.5" d="M0,-3.0v7 M-2.5,-0.5L0,-3.0L2.5,-0.5"/>
                </g>
               <g id="resetDef">
                       <use xlink:href="#rim2" fill="#404040">
                               <set attributeName="fill" to="#808080" begin="reset.mouseover" end="reset.mouseout"/>
                       </use>
               </g>
        </defs>

<script type="text/javascript">
var viewWidth = 636;
var viewHeight = 338;
var sectionId = 'dynsection-1';
</script>
<script xlink:href="svgpan.js"/>
<svg id="graph" class="graph">
<g id="viewport">
<title>mfem::DomainLFIntegrator</title>
<polygon fill="white" stroke="white" points="-4,5 -4,-334 633,-334 633,5 -4,5"/>
<!-- Node1 -->
<g id="node1" class="node"><title>Node1</title>
<polygon fill="#bfbfbf" stroke="black" points="160,-0.5 160,-23.5 340,-23.5 340,-0.5 160,-0.5"/>
<text text-anchor="middle" x="250" y="-8.3" font-family="Helvetica,sans-Serif" font-size="14.00">mfem::DomainLFIntegrator</text>
</g>
<!-- Node2 -->
<g id="node2" class="node"><title>Node2</title>
<g id="a_node2"><a xlink:href="classmfem_1_1DeltaLFIntegrator.html" target="_top" xlink:title="Abstract class for integrators that support delta coefficients. ">
<polygon fill="white" stroke="black" points="168,-62.5 168,-85.5 332,-85.5 332,-62.5 168,-62.5"/>
<text text-anchor="middle" x="250" y="-70.3" font-family="Helvetica,sans-Serif" font-size="14.00">mfem::DeltaLFIntegrator</text>
</a>
</g>
</g>
<!-- Node2&#45;&gt;Node1 -->
<g id="edge1" class="edge"><title>Node2&#45;&gt;Node1</title>
<path fill="none" stroke="midnightblue" d="M250,-52.2312C250,-42.5922 250,-31.5444 250,-23.6339"/>
<polygon fill="midnightblue" stroke="midnightblue" points="246.5,-52.2732 250,-62.2732 253.5,-52.2732 246.5,-52.2732"/>
</g>
<!-- Node3 -->
<g id="node3" class="node"><title>Node3</title>
<g id="a_node3"><a xlink:href="classmfem_1_1LinearFormIntegrator.html" target="_top" xlink:title="Abstract base class LinearFormIntegrator. ">
<polygon fill="white" stroke="black" points="8.5,-138.5 8.5,-161.5 195.5,-161.5 195.5,-138.5 8.5,-138.5"/>
<text text-anchor="middle" x="102" y="-146.3" font-family="Helvetica,sans-Serif" font-size="14.00">mfem::LinearFormIntegrator</text>
</a>
</g>
</g>
<!-- Node3&#45;&gt;Node2 -->
<g id="edge2" class="edge"><title>Node3&#45;&gt;Node2</title>
<path fill="none" stroke="midnightblue" d="M132.39,-133.805C161.151,-119.425 203.575,-98.2125 228.835,-85.5827"/>
<polygon fill="midnightblue" stroke="midnightblue" points="130.584,-130.795 123.205,-138.398 133.714,-137.056 130.584,-130.795"/>
</g>
<!-- Node4 -->
<g id="node4" class="node"><title>Node4</title>
<g id="a_node4"><a xlink:href="classmfem_1_1IntegrationRule.html" target="_top" xlink:title="Class for an integration rule &#45; an Array of IntegrationPoint. ">
<polygon fill="white" stroke="black" points="7.5,-214.5 7.5,-237.5 158.5,-237.5 158.5,-214.5 7.5,-214.5"/>
<text text-anchor="middle" x="83" y="-222.3" font-family="Helvetica,sans-Serif" font-size="14.00">mfem::IntegrationRule</text>
</a>
</g>
</g>
<!-- Node4&#45;&gt;Node3 -->
<g id="edge3" class="edge"><title>Node4&#45;&gt;Node3</title>
<path fill="none" stroke="#9a32cd" stroke-dasharray="5,2" d="M88.2151,-204.689C91.7968,-190.739 96.4066,-172.785 99.2828,-161.583"/>
<polygon fill="#9a32cd" stroke="#9a32cd" points="84.8192,-203.841 85.7222,-214.398 91.5993,-205.582 84.8192,-203.841"/>
<text text-anchor="middle" x="118.5" y="-184.3" font-family="Helvetica,sans-Serif" font-size="14.00"> IntRule</text>
</g>
<!-- Node5 -->
<g id="node5" class="node"><title>Node5</title>
<g id="a_node5"><a xlink:href="classmfem_1_1Array.html" target="_top" xlink:title="mfem::Array\&lt; Integration\lPoint \&gt;">
<polygon fill="white" stroke="red" points="-0.5,-291 -0.5,-329 166.5,-329 166.5,-291 -0.5,-291"/>
<text text-anchor="start" x="7.5" y="-313.8" font-family="Helvetica,sans-Serif" font-size="14.00">mfem::Array&lt; Integration</text>
<text text-anchor="middle" x="83" y="-298.8" font-family="Helvetica,sans-Serif" font-size="14.00">Point &gt;</text>
</a>
</g>
</g>
<!-- Node5&#45;&gt;Node4 -->
<g id="edge4" class="edge"><title>Node5&#45;&gt;Node4</title>
<path fill="none" stroke="midnightblue" d="M83,-280.616C83,-265.871 83,-248.714 83,-237.857"/>
<polygon fill="midnightblue" stroke="midnightblue" points="79.5001,-280.802 83,-290.802 86.5001,-280.802 79.5001,-280.802"/>
</g>
<!-- Node6 -->
<g id="node6" class="node"><title>Node6</title>
<g id="a_node6"><a xlink:href="classmfem_1_1VectorDeltaCoefficient.html" target="_top" xlink:title="VectorDeltaCoefficient: DeltaCoefficient with a direction. ">
<polygon fill="white" stroke="black" points="302,-138.5 302,-161.5 496,-161.5 496,-138.5 302,-138.5"/>
<text text-anchor="middle" x="399" y="-146.3" font-family="Helvetica,sans-Serif" font-size="14.00">mfem::VectorDeltaCoefficient</text>
</a>
</g>
</g>
<!-- Node6&#45;&gt;Node2 -->
<g id="edge5" class="edge"><title>Node6&#45;&gt;Node2</title>
<path fill="none" stroke="#9a32cd" stroke-dasharray="5,2" d="M368.405,-133.805C339.45,-119.425 296.739,-98.2125 271.308,-85.5827"/>
<polygon fill="#9a32cd" stroke="#9a32cd" points="367.139,-137.084 377.652,-138.398 370.253,-130.815 367.139,-137.084"/>
<text text-anchor="middle" x="369" y="-108.3" font-family="Helvetica,sans-Serif" font-size="14.00"> vec_delta</text>
</g>
<!-- Node7 -->
<g id="node7" class="node"><title>Node7</title>
<g id="a_node7"><a xlink:href="classmfem_1_1VectorCoefficient.html" target="_top" xlink:title="mfem::VectorCoefficient">
<polygon fill="white" stroke="black" points="466,-214.5 466,-237.5 628,-237.5 628,-214.5 466,-214.5"/>
<text text-anchor="middle" x="547" y="-222.3" font-family="Helvetica,sans-Serif" font-size="14.00">mfem::VectorCoefficient</text>
</a>
</g>
</g>
<!-- Node7&#45;&gt;Node6 -->
<g id="edge6" class="edge"><title>Node7&#45;&gt;Node6</title>
<path fill="none" stroke="midnightblue" d="M516.61,-209.805C487.849,-195.425 445.425,-174.212 420.165,-161.583"/>
<polygon fill="midnightblue" stroke="midnightblue" points="515.286,-213.056 525.795,-214.398 518.416,-206.795 515.286,-213.056"/>
</g>
<!-- Node8 -->
<g id="node8" class="node"><title>Node8</title>
<g id="a_node8"><a xlink:href="classmfem_1_1DeltaCoefficient.html" target="_top" xlink:title="Delta function coefficient. ">
<polygon fill="white" stroke="black" points="176.5,-214.5 176.5,-237.5 331.5,-237.5 331.5,-214.5 176.5,-214.5"/>
<text text-anchor="middle" x="254" y="-222.3" font-family="Helvetica,sans-Serif" font-size="14.00">mfem::DeltaCoefficient</text>
</a>
</g>
</g>
<!-- Node8&#45;&gt;Node6 -->
<g id="edge7" class="edge"><title>Node8&#45;&gt;Node6</title>
<path fill="none" stroke="#9a32cd" stroke-dasharray="5,2" d="M283.774,-209.805C311.952,-195.425 353.516,-174.212 378.264,-161.583"/>
<polygon fill="#9a32cd" stroke="#9a32cd" points="282.091,-206.734 274.775,-214.398 285.273,-212.969 282.091,-206.734"/>
<text text-anchor="middle" x="346" y="-184.3" font-family="Helvetica,sans-Serif" font-size="14.00"> d</text>
</g>
<!-- Node8&#45;&gt;Node2 -->
<g id="edge11" class="edge"><title>Node8&#45;&gt;Node2</title>
<path fill="none" stroke="#9a32cd" stroke-dasharray="5,2" d="M253.441,-204.041C252.576,-171.588 250.943,-110.351 250.285,-85.6899"/>
<polygon fill="#9a32cd" stroke="#9a32cd" points="249.947,-204.309 253.712,-214.212 256.944,-204.123 249.947,-204.309"/>
<text text-anchor="middle" x="270" y="-146.3" font-family="Helvetica,sans-Serif" font-size="14.00"> delta</text>
</g>
<!-- Node9 -->
<g id="node9" class="node"><title>Node9</title>
<g id="a_node9"><a xlink:href="classmfem_1_1Coefficient.html" target="_top" xlink:title="Base class Coefficient that may optionally depend on time. ">
<polygon fill="white" stroke="black" points="194.5,-298.5 194.5,-321.5 317.5,-321.5 317.5,-298.5 194.5,-298.5"/>
<text text-anchor="middle" x="256" y="-306.3" font-family="Helvetica,sans-Serif" font-size="14.00">mfem::Coefficient</text>
</a>
</g>
</g>
<!-- Node9&#45;&gt;Node8 -->
<g id="edge8" class="edge"><title>Node9&#45;&gt;Node8</title>
<path fill="none" stroke="midnightblue" d="M249.81,-288.809C247.494,-278.948 245.704,-266.89 247,-256 247.734,-249.828 249.318,-243.071 250.794,-237.632"/>
<polygon fill="midnightblue" stroke="midnightblue" points="246.435,-289.736 252.408,-298.486 253.195,-287.921 246.435,-289.736"/>
</g>
<!-- Node9&#45;&gt;Node8 -->
<g id="edge9" class="edge"><title>Node9&#45;&gt;Node8</title>
<path fill="none" stroke="#9a32cd" stroke-dasharray="5,2" d="M255.493,-288.203C255.1,-272.114 254.573,-250.493 254.262,-237.723"/>
<polygon fill="#9a32cd" stroke="#9a32cd" points="251.996,-288.368 255.739,-298.28 258.994,-288.198 251.996,-288.368"/>
<text text-anchor="middle" x="277.5" y="-260.3" font-family="Helvetica,sans-Serif" font-size="14.00"> weight</text>
</g>
<!-- Node10 -->
<g id="node10" class="node"><title>Node10</title>
<g id="a_node10"><a xlink:href="classmfem_1_1Vector.html" target="_top" xlink:title="Vector data type. ">
<polygon fill="white" stroke="black" points="350,-214.5 350,-237.5 448,-237.5 448,-214.5 350,-214.5"/>
<text text-anchor="middle" x="399" y="-222.3" font-family="Helvetica,sans-Serif" font-size="14.00">mfem::Vector</text>
</a>
</g>
</g>
<!-- Node10&#45;&gt;Node6 -->
<g id="edge10" class="edge"><title>Node10&#45;&gt;Node6</title>
<path fill="none" stroke="#9a32cd" stroke-dasharray="5,2" d="M399,-204.277C399,-190.387 399,-172.675 399,-161.583"/>
<polygon fill="#9a32cd" stroke="#9a32cd" points="395.5,-204.398 399,-214.398 402.5,-204.398 395.5,-204.398"/>
<text text-anchor="middle" x="408.5" y="-184.3" font-family="Helvetica,sans-Serif" font-size="14.00"> dir</text>
</g>
</g>
</svg>
        <g id="navigator" transform="translate(0 0)" fill="#404254">
                <rect fill="#f2f5e9" fill-opacity="0.5" stroke="#606060" stroke-width=".5" x="0" y="0" width="60" height="60"/>
                <use id="zoomplus" xlink:href="#zoomPlus" x="17" y="9" onmousedown="handleZoom(evt,'in')"/>
                <use id="zoomminus" xlink:href="#zoomMin" x="42" y="9" onmousedown="handleZoom(evt,'out')"/>
                <use id="reset" xlink:href="#resetDef" x="30" y="36" onmousedown="handleReset()"/>
                <g id="arrowUp" xlink:href="#dirArrow" transform="translate(30 24)" onmousedown="handlePan(0,-1)">
                  <use xlink:href="#rim" fill="#404040">
                        <set attributeName="fill" to="#808080" begin="arrowUp.mouseover" end="arrowUp.mouseout"/>
                  </use>
                  <path fill="none" stroke="white" stroke-width="1.5" d="M0,-3.0v7 M-2.5,-0.5L0,-3.0L2.5,-0.5"/>
                </g>
                <g id="arrowRight" xlink:href="#dirArrow" transform="rotate(90) translate(36 -43)" onmousedown="handlePan(1,0)">
                  <use xlink:href="#rim" fill="#404040">
                        <set attributeName="fill" to="#808080" begin="arrowRight.mouseover" end="arrowRight.mouseout"/>
                  </use>
                  <path fill="none" stroke="white" stroke-width="1.5" d="M0,-3.0v7 M-2.5,-0.5L0,-3.0L2.5,-0.5"/>
                </g>
                <g id="arrowDown" xlink:href="#dirArrow" transform="rotate(180) translate(-30 -48)" onmousedown="handlePan(0,1)">
                  <use xlink:href="#rim" fill="#404040">
                        <set attributeName="fill" to="#808080" begin="arrowDown.mouseover" end="arrowDown.mouseout"/>
                  </use>
                  <path fill="none" stroke="white" stroke-width="1.5" d="M0,-3.0v7 M-2.5,-0.5L0,-3.0L2.5,-0.5"/>
                </g>
                <g id="arrowLeft" xlink:href="#dirArrow" transform="rotate(270) translate(-36 17)" onmousedown="handlePan(-1,0)">
                  <use xlink:href="#rim" fill="#404040">
                        <set attributeName="fill" to="#808080" begin="arrowLeft.mouseover" end="arrowLeft.mouseout"/>
                  </use>
                  <path fill="none" stroke="white" stroke-width="1.5" d="M0,-3.0v7 M-2.5,-0.5L0,-3.0L2.5,-0.5"/>
                </g>
        </g>
        <svg viewBox="0 0 15 15" width="100%" height="30px" preserveAspectRatio="xMaxYMin meet">
         <g id="arrow_out" transform="scale(0.3 0.3)">
          <a xlink:href="classmfem_1_1DomainLFIntegrator__coll__graph_org.svg" target="_base">
           <rect id="button" ry="5" rx="5" y="6" x="6" height="38" width="38"
                fill="#f2f5e9" fill-opacity="0.5" stroke="#606060" stroke-width="1.0"/>
           <path id="arrow"
             d="M 11.500037,31.436501 C 11.940474,20.09759 22.043105,11.32322 32.158766,21.979434 L 37.068811,17.246167 C 37.068811,17.246167 37.088388,32 37.088388,32 L 22.160133,31.978069 C 22.160133,31.978069 26.997745,27.140456 26.997745,27.140456 C 18.528582,18.264221 13.291696,25.230495 11.500037,31.436501 z"
             style="fill:#404040;"/>
          </a>
         </g>
        </svg>
</svg>
