<?xml version="1.0" encoding="UTF-8" standalone="no"?>
<!DOCTYPE svg PUBLIC "-//W3C//DTD SVG 1.1//EN"
 "http://www.w3.org/Graphics/SVG/1.1/DTD/svg11.dtd">
<!-- Generated by graphviz version 2.40.1 (20161225.0304)
 -->
<!-- Title: mfem::VectorFEWeakDivergenceIntegrator Pages: 1 -->
<svg width="231pt" height="163pt"
 viewBox="0.00 0.00 230.72 163.00" xmlns="http://www.w3.org/2000/svg" xmlns:xlink="http://www.w3.org/1999/xlink">
<g id="graph0" class="graph" transform="scale(1 1) rotate(0) translate(4 159)">
<title>mfem::VectorFEWeakDivergenceIntegrator</title>
<polygon fill="#ffffff" stroke="transparent" points="-4,4 -4,-159 226.7188,-159 226.7188,4 -4,4"/>
<!-- Node0 -->
<g id="node1" class="node">
<title>Node0</title>
<polygon fill="#bfbfbf" stroke="#000000" points="0,-.5 0,-36.5 222.7188,-36.5 222.7188,-.5 0,-.5"/>
<text text-anchor="start" x="8" y="-21.3" font-family="Helvetica,sans-Serif" font-size="14.00" fill="#000000">mfem::VectorFEWeakDivergence</text>
<text text-anchor="middle" x="111.3594" y="-7.3" font-family="Helvetica,sans-Serif" font-size="14.00" fill="#000000">Integrator</text>
</g>
<!-- Node1 -->
<g id="node2" class="node">
<title>Node1</title>
<g id="a_node2"><a xlink:href="classmfem_1_1BilinearFormIntegrator.html" target="_top" xlink:title="Abstract base class BilinearFormIntegrator. ">
<polygon fill="#ffffff" stroke="#000000" points="12.332,-73.5 12.332,-95.5 210.3867,-95.5 210.3867,-73.5 12.332,-73.5"/>
<text text-anchor="middle" x="111.3594" y="-80.3" font-family="Helvetica,sans-Serif" font-size="14.00" fill="#000000">mfem::BilinearFormIntegrator</text>
</a>
</g>
</g>
<!-- Node1&#45;&gt;Node0 -->
<g id="edge1" class="edge">
<title>Node1&#45;&gt;Node0</title>
<path fill="none" stroke="#191970" d="M111.3594,-63.0379C111.3594,-54.5464 111.3594,-44.8888 111.3594,-36.7423"/>
<polygon fill="#191970" stroke="#191970" points="107.8595,-63.304 111.3594,-73.304 114.8595,-63.304 107.8595,-63.304"/>
</g>
<!-- Node2 -->
<g id="node3" class="node">
<title>Node2</title>
<g id="a_node3"><a xlink:href="classmfem_1_1NonlinearFormIntegrator.html" target="_top" xlink:title="mfem::NonlinearFormIntegrator">
<polygon fill="#ffffff" stroke="#000000" points="5.7148,-132.5 5.7148,-154.5 217.0039,-154.5 217.0039,-132.5 5.7148,-132.5"/>
<text text-anchor="middle" x="111.3594" y="-139.3" font-family="Helvetica,sans-Serif" font-size="14.00" fill="#000000">mfem::NonlinearFormIntegrator</text>
</a>
</g>
</g>
<!-- Node2&#45;&gt;Node1 -->
<g id="edge2" class="edge">
<title>Node2&#45;&gt;Node1</title>
<path fill="none" stroke="#191970" d="M111.3594,-122.198C111.3594,-113.1726 111.3594,-103.0351 111.3594,-95.5477"/>
<polygon fill="#191970" stroke="#191970" points="107.8595,-122.4025 111.3594,-132.4026 114.8595,-122.4026 107.8595,-122.4025"/>
</g>
</g>
</svg>
