<?xml version="1.0" encoding="UTF-8" standalone="no"?>
<!DOCTYPE svg PUBLIC "-//W3C//DTD SVG 1.1//EN"
 "http://www.w3.org/Graphics/SVG/1.1/DTD/svg11.dtd">
<!-- Generated by graphviz version 2.30.1 (20140821.0912)
 -->
<!-- Title: mfem::VectorFEDivergenceIntegrator Pages: 1 -->
<svg width="391pt" height="326pt"
 viewBox="0.00 0.00 391.00 326.00" xmlns="http://www.w3.org/2000/svg" xmlns:xlink="http://www.w3.org/1999/xlink">
<g id="graph0" class="graph" transform="scale(1 1) rotate(0) translate(4 322)">
<title>mfem::VectorFEDivergenceIntegrator</title>
<polygon fill="white" stroke="white" points="-4,5 -4,-322 388,-322 388,5 -4,5"/>
<!-- Node1 -->
<g id="node1" class="node"><title>Node1</title>
<polygon fill="#bfbfbf" stroke="black" points="68,-1 68,-39 252,-39 252,-1 68,-1"/>
<text text-anchor="start" x="76" y="-23.8" font-family="Helvetica,sans-Serif" font-size="14.00">mfem::VectorFEDivergence</text>
<text text-anchor="middle" x="160" y="-8.8" font-family="Helvetica,sans-Serif" font-size="14.00">Integrator</text>
</g>
<!-- Node2 -->
<g id="node2" class="node"><title>Node2</title>
<g id="a_node2"><a xlink:href="classmfem_1_1BilinearFormIntegrator.html" target="_top" xlink:title="Abstract base class BilinearFormIntegrator. ">
<polygon fill="white" stroke="black" points="63,-78.5 63,-101.5 257,-101.5 257,-78.5 63,-78.5"/>
<text text-anchor="middle" x="160" y="-86.3" font-family="Helvetica,sans-Serif" font-size="14.00">mfem::BilinearFormIntegrator</text>
</a>
</g>
</g>
<!-- Node2&#45;&gt;Node1 -->
<g id="edge1" class="edge"><title>Node2&#45;&gt;Node1</title>
<path fill="none" stroke="midnightblue" d="M160,-68.098C160,-58.8689 160,-48.1198 160,-39.2228"/>
<polygon fill="midnightblue" stroke="midnightblue" points="156.5,-68.375 160,-78.375 163.5,-68.375 156.5,-68.375"/>
</g>
<!-- Node3 -->
<g id="node3" class="node"><title>Node3</title>
<g id="a_node3"><a xlink:href="classmfem_1_1NonlinearFormIntegrator.html" target="_top" xlink:title="mfem::NonlinearFormIntegrator">
<polygon fill="white" stroke="black" points="-0.5,-154.5 -0.5,-177.5 206.5,-177.5 206.5,-154.5 -0.5,-154.5"/>
<text text-anchor="middle" x="103" y="-162.3" font-family="Helvetica,sans-Serif" font-size="14.00">mfem::NonlinearFormIntegrator</text>
</a>
</g>
</g>
<!-- Node3&#45;&gt;Node2 -->
<g id="edge2" class="edge"><title>Node3&#45;&gt;Node2</title>
<path fill="none" stroke="midnightblue" d="M117.396,-146.311C128.298,-132.157 142.881,-113.224 151.848,-101.583"/>
<polygon fill="midnightblue" stroke="midnightblue" points="114.496,-144.34 111.167,-154.398 120.042,-148.611 114.496,-144.34"/>
</g>
<!-- Node4 -->
<g id="node4" class="node"><title>Node4</title>
<g id="a_node4"><a xlink:href="classmfem_1_1IntegrationRule.html" target="_top" xlink:title="Class for an integration rule &#45; an Array of IntegrationPoint. ">
<polygon fill="white" stroke="black" points="224.5,-154.5 224.5,-177.5 375.5,-177.5 375.5,-154.5 224.5,-154.5"/>
<text text-anchor="middle" x="300" y="-162.3" font-family="Helvetica,sans-Serif" font-size="14.00">mfem::IntegrationRule</text>
</a>
</g>
</g>
<!-- Node4&#45;&gt;Node2 -->
<g id="edge3" class="edge"><title>Node4&#45;&gt;Node2</title>
<path fill="none" stroke="#9a32cd" stroke-dasharray="5,2" d="M270.897,-149.617C243.698,-135.24 203.812,-114.158 180.021,-101.583"/>
<polygon fill="#9a32cd" stroke="#9a32cd" points="269.465,-152.819 279.941,-154.398 272.736,-146.63 269.465,-152.819"/>
<text text-anchor="middle" x="265.5" y="-124.3" font-family="Helvetica,sans-Serif" font-size="14.00"> IntRule</text>
</g>
<!-- Node5 -->
<g id="node5" class="node"><title>Node5</title>
<g id="a_node5"><a xlink:href="classmfem_1_1Array.html" target="_top" xlink:title="mfem::Array\&lt; Integration\lPoint \&gt;">
<polygon fill="white" stroke="black" points="216.5,-217 216.5,-255 383.5,-255 383.5,-217 216.5,-217"/>
<text text-anchor="start" x="224.5" y="-239.8" font-family="Helvetica,sans-Serif" font-size="14.00">mfem::Array&lt; Integration</text>
<text text-anchor="middle" x="300" y="-224.8" font-family="Helvetica,sans-Serif" font-size="14.00">Point &gt;</text>
</a>
</g>
</g>
<!-- Node5&#45;&gt;Node4 -->
<g id="edge4" class="edge"><title>Node5&#45;&gt;Node4</title>
<path fill="none" stroke="midnightblue" d="M300,-206.599C300,-196.442 300,-185.6 300,-177.834"/>
<polygon fill="midnightblue" stroke="midnightblue" points="296.5,-206.777 300,-216.777 303.5,-206.777 296.5,-206.777"/>
</g>
<!-- Node6 -->
<g id="node6" class="node"><title>Node6</title>
<g id="a_node6"><a xlink:href="classmfem_1_1BaseArray.html" target="_top" xlink:title="Base class for array container. ">
<polygon fill="white" stroke="black" points="239,-294.5 239,-317.5 361,-317.5 361,-294.5 239,-294.5"/>
<text text-anchor="middle" x="300" y="-302.3" font-family="Helvetica,sans-Serif" font-size="14.00">mfem::BaseArray</text>
</a>
</g>
</g>
<!-- Node6&#45;&gt;Node5 -->
<g id="edge5" class="edge"><title>Node6&#45;&gt;Node5</title>
<path fill="none" stroke="midnightblue" d="M300,-284.098C300,-274.869 300,-264.12 300,-255.223"/>
<polygon fill="midnightblue" stroke="midnightblue" points="296.5,-284.375 300,-294.375 303.5,-284.375 296.5,-284.375"/>
</g>
</g>
</svg>
