<?xml version="1.0" encoding="UTF-8" standalone="no"?>
<!DOCTYPE svg PUBLIC "-//W3C//DTD SVG 1.1//EN"
 "http://www.w3.org/Graphics/SVG/1.1/DTD/svg11.dtd">
<!-- Generated by graphviz version 2.30.1 (20140821.0912)
 -->
<!-- Title: mfem::PetscBDDCSolverParams Pages: 1 -->
<!--zoomable 726 -->
<svg id="main" version="1.1" xmlns="http://www.w3.org/2000/svg" xmlns:xlink="http://www.w3.org/1999/xlink" xml:space="preserve" onload="init(evt)">
<style type="text/css"><![CDATA[
.edge:hover path { stroke: red; }
.edge:hover polygon { stroke: red; fill: red; }
]]></style>
<script type="text/javascript"><![CDATA[
var edges = document.getElementsByTagName('g');
if (edges && edges.length) {
  for (var i=0;i<edges.length;i++) {
    if (edges[i].id.substr(0,4)=='edge') {
      edges[i].setAttribute('class','edge');
    }
  }
}
]]></script>
        <defs>
                <circle id="rim" cx="0" cy="0" r="7"/>
                <circle id="rim2" cx="0" cy="0" r="3.5"/>
                <g id="zoomPlus">
                        <use xlink:href="#rim" fill="#404040">
                                <set attributeName="fill" to="#808080" begin="zoomplus.mouseover" end="zoomplus.mouseout"/>
                        </use>
                        <path d="M-4,0h8M0,-4v8" fill="none" stroke="white" stroke-width="1.5" pointer-events="none"/>
                </g>
                <g id="zoomMin">
                        <use xlink:href="#rim" fill="#404040">
                                <set attributeName="fill" to="#808080" begin="zoomminus.mouseover" end="zoomminus.mouseout"/>
                        </use>
                        <path d="M-4,0h8" fill="none" stroke="white" stroke-width="1.5" pointer-events="none"/>
                </g>
                <g id="dirArrow">
                        <path fill="none" stroke="white" stroke-width="1.5" d="M0,-3.0v7 M-2.5,-0.5L0,-3.0L2.5,-0.5"/>
                </g>
               <g id="resetDef">
                       <use xlink:href="#rim2" fill="#404040">
                               <set attributeName="fill" to="#808080" begin="reset.mouseover" end="reset.mouseout"/>
                       </use>
               </g>
        </defs>

<script type="text/javascript">
var viewWidth = 964;
var viewHeight = 726;
var sectionId = 'dynsection-0';
</script>
<script xlink:href="svgpan.js"/>
<svg id="graph" class="graph">
<g id="viewport">
<title>mfem::PetscBDDCSolverParams</title>
<polygon fill="white" stroke="white" points="-4,5 -4,-722 961,-722 961,5 -4,5"/>
<!-- Node1 -->
<g id="node1" class="node"><title>Node1</title>
<polygon fill="#bfbfbf" stroke="black" points="36.5,-0.5 36.5,-23.5 253.5,-23.5 253.5,-0.5 36.5,-0.5"/>
<text text-anchor="middle" x="145" y="-8.3" font-family="Helvetica,sans-Serif" font-size="14.00">mfem::PetscBDDCSolverParams</text>
</g>
<!-- Node2 -->
<g id="node2" class="node"><title>Node2</title>
<g id="a_node2"><a xlink:href="classmfem_1_1Array.html" target="_top" xlink:title="mfem::Array\&lt; int \&gt;">
<polygon fill="white" stroke="black" points="184,-632.5 184,-655.5 314,-655.5 314,-632.5 184,-632.5"/>
<text text-anchor="middle" x="249" y="-640.3" font-family="Helvetica,sans-Serif" font-size="14.00">mfem::Array&lt; int &gt;</text>
</a>
</g>
</g>
<!-- Node2&#45;&gt;Node1 -->
<g id="edge1" class="edge"><title>Node2&#45;&gt;Node1</title>
<path fill="none" stroke="#9a32cd" stroke-dasharray="5,2" d="M208.482,-628.882C137.938,-601.418 0,-533.693 0,-424 0,-424 0,-424 0,-87 0,-51.672 34.5707,-33.2011 69.9516,-23.548"/>
<polygon fill="#9a32cd" stroke="#9a32cd" points="207.376,-632.206 217.967,-632.49 209.865,-625.663 207.376,-632.206"/>
<text text-anchor="middle" x="26" y="-198.8" font-family="Helvetica,sans-Serif" font-size="14.00"> ess_dof</text>
<text text-anchor="middle" x="26" y="-183.8" font-family="Helvetica,sans-Serif" font-size="14.00">nat_dof</text>
</g>
<!-- Node6 -->
<g id="node6" class="node"><title>Node6</title>
<g id="a_node6"><a xlink:href="classmfem_1_1Mesh.html" target="_top" xlink:title="mfem::Mesh">
<polygon fill="white" stroke="red" points="365.5,-411.5 365.5,-434.5 458.5,-434.5 458.5,-411.5 365.5,-411.5"/>
<text text-anchor="middle" x="412" y="-419.3" font-family="Helvetica,sans-Serif" font-size="14.00">mfem::Mesh</text>
</a>
</g>
</g>
<!-- Node2&#45;&gt;Node6 -->
<g id="edge6" class="edge"><title>Node2&#45;&gt;Node6</title>
<path fill="none" stroke="#9a32cd" stroke-dasharray="5,2" d="M258.839,-623.147C260.274,-620.102 261.704,-616.98 263,-614 280.12,-574.644 267,-553.681 298,-524 315.969,-506.796 330.889,-520.642 351,-506 377.68,-486.575 397.792,-452.09 406.796,-434.683"/>
<polygon fill="#9a32cd" stroke="#9a32cd" points="255.591,-621.825 254.39,-632.351 261.893,-624.871 255.591,-621.825"/>
<text text-anchor="middle" x="339.5" y="-587.8" font-family="Helvetica,sans-Serif" font-size="14.00"> attributes</text>
<text text-anchor="middle" x="339.5" y="-572.8" font-family="Helvetica,sans-Serif" font-size="14.00">be_to_edge</text>
<text text-anchor="middle" x="339.5" y="-557.8" font-family="Helvetica,sans-Serif" font-size="14.00">be_to_face</text>
<text text-anchor="middle" x="339.5" y="-542.8" font-family="Helvetica,sans-Serif" font-size="14.00">bdr_attributes</text>
</g>
<!-- Node7 -->
<g id="node7" class="node"><title>Node7</title>
<g id="a_node7"><a xlink:href="classmfem_1_1NURBSExtension.html" target="_top" xlink:title="mfem::NURBSExtension">
<polygon fill="white" stroke="red" points="268,-239.5 268,-262.5 434,-262.5 434,-239.5 268,-239.5"/>
<text text-anchor="middle" x="351" y="-247.3" font-family="Helvetica,sans-Serif" font-size="14.00">mfem::NURBSExtension</text>
</a>
</g>
</g>
<!-- Node2&#45;&gt;Node7 -->
<g id="edge9" class="edge"><title>Node2&#45;&gt;Node7</title>
<path fill="none" stroke="#9a32cd" stroke-dasharray="5,2" d="M246.148,-622.067C240.078,-572.085 228.7,-442.324 258,-340 264.799,-316.257 268.743,-309.669 286,-292 298.036,-279.677 314.609,-269.555 328.009,-262.576"/>
<polygon fill="#9a32cd" stroke="#9a32cd" points="242.709,-622.768 247.448,-632.244 249.653,-621.881 242.709,-622.768"/>
<text text-anchor="middle" x="307" y="-494.3" font-family="Helvetica,sans-Serif" font-size="14.00"> v_spaceOffsets</text>
<text text-anchor="middle" x="307" y="-479.3" font-family="Helvetica,sans-Serif" font-size="14.00">p_meshOffsets</text>
<text text-anchor="middle" x="307" y="-464.3" font-family="Helvetica,sans-Serif" font-size="14.00">edge_to_knot</text>
<text text-anchor="middle" x="307" y="-449.3" font-family="Helvetica,sans-Serif" font-size="14.00">f_spaceOffsets</text>
<text text-anchor="middle" x="307" y="-434.3" font-family="Helvetica,sans-Serif" font-size="14.00">e_meshOffsets</text>
<text text-anchor="middle" x="307" y="-419.3" font-family="Helvetica,sans-Serif" font-size="14.00">el_to_patch</text>
<text text-anchor="middle" x="307" y="-404.3" font-family="Helvetica,sans-Serif" font-size="14.00">p_spaceOffsets</text>
<text text-anchor="middle" x="307" y="-389.3" font-family="Helvetica,sans-Serif" font-size="14.00">bel_to_patch</text>
<text text-anchor="middle" x="307" y="-374.3" font-family="Helvetica,sans-Serif" font-size="14.00">e_spaceOffsets</text>
<text text-anchor="middle" x="307" y="-359.3" font-family="Helvetica,sans-Serif" font-size="14.00">v_meshOffsets</text>
<text text-anchor="middle" x="307" y="-344.3" font-family="Helvetica,sans-Serif" font-size="14.00">...</text>
</g>
<!-- Node5 -->
<g id="node5" class="node"><title>Node5</title>
<g id="a_node5"><a xlink:href="classmfem_1_1FiniteElementSpace.html" target="_top" xlink:title="mfem::FiniteElementSpace">
<polygon fill="white" stroke="red" points="328.5,-138.5 328.5,-161.5 509.5,-161.5 509.5,-138.5 328.5,-138.5"/>
<text text-anchor="middle" x="419" y="-146.3" font-family="Helvetica,sans-Serif" font-size="14.00">mfem::FiniteElementSpace</text>
</a>
</g>
</g>
<!-- Node2&#45;&gt;Node5 -->
<g id="edge13" class="edge"><title>Node2&#45;&gt;Node5</title>
<path fill="none" stroke="#9a32cd" stroke-dasharray="5,2" d="M235.678,-623.869C199.307,-569.077 104.987,-408.053 166,-292 206.54,-214.89 308.083,-177.571 369.493,-161.502"/>
<polygon fill="#9a32cd" stroke="#9a32cd" points="232.866,-625.96 241.367,-632.283 238.665,-622.038 232.866,-625.96"/>
<text text-anchor="middle" x="213.5" y="-310.8" font-family="Helvetica,sans-Serif" font-size="14.00"> dof_ldof_array</text>
<text text-anchor="middle" x="213.5" y="-295.8" font-family="Helvetica,sans-Serif" font-size="14.00">dof_elem_array</text>
</g>
<!-- Node3 -->
<g id="node3" class="node"><title>Node3</title>
<g id="a_node3"><a xlink:href="classmfem_1_1BaseArray.html" target="_top" xlink:title="Base class for array container. ">
<polygon fill="white" stroke="black" points="522,-694.5 522,-717.5 644,-717.5 644,-694.5 522,-694.5"/>
<text text-anchor="middle" x="583" y="-702.3" font-family="Helvetica,sans-Serif" font-size="14.00">mfem::BaseArray</text>
</a>
</g>
</g>
<!-- Node3&#45;&gt;Node2 -->
<g id="edge2" class="edge"><title>Node3&#45;&gt;Node2</title>
<path fill="none" stroke="midnightblue" d="M514.517,-692.698C453.525,-681.741 365.244,-665.882 307.493,-655.508"/>
<polygon fill="midnightblue" stroke="midnightblue" points="513.978,-696.157 524.439,-694.48 515.216,-689.267 513.978,-696.157"/>
</g>
<!-- Node10 -->
<g id="node10" class="node"><title>Node10</title>
<g id="a_node10"><a xlink:href="classmfem_1_1Array.html" target="_top" xlink:title="mfem::Array\&lt; HYPRE\l_Int \&gt;">
<polygon fill="white" stroke="black" points="689,-550 689,-588 839,-588 839,-550 689,-550"/>
<text text-anchor="start" x="697" y="-572.8" font-family="Helvetica,sans-Serif" font-size="14.00">mfem::Array&lt; HYPRE</text>
<text text-anchor="middle" x="764" y="-557.8" font-family="Helvetica,sans-Serif" font-size="14.00">_Int &gt;</text>
</a>
</g>
</g>
<!-- Node3&#45;&gt;Node10 -->
<g id="edge17" class="edge"><title>Node3&#45;&gt;Node10</title>
<path fill="none" stroke="midnightblue" d="M605.607,-688.138C639.84,-662.605 704.558,-614.335 739.742,-588.093"/>
<polygon fill="midnightblue" stroke="midnightblue" points="603.126,-685.622 597.203,-694.407 607.311,-691.234 603.126,-685.622"/>
</g>
<!-- Node4 -->
<g id="node4" class="node"><title>Node4</title>
<g id="a_node4"><a xlink:href="classmfem_1_1ParFiniteElementSpace.html" target="_top" xlink:title="Abstract parallel finite element space. ">
<polygon fill="white" stroke="black" points="440,-76.5 440,-99.5 642,-99.5 642,-76.5 440,-76.5"/>
<text text-anchor="middle" x="541" y="-84.3" font-family="Helvetica,sans-Serif" font-size="14.00">mfem::ParFiniteElementSpace</text>
</a>
</g>
</g>
<!-- Node4&#45;&gt;Node1 -->
<g id="edge3" class="edge"><title>Node4&#45;&gt;Node1</title>
<path fill="none" stroke="#9a32cd" stroke-dasharray="5,2" d="M474.672,-74.6054C398.121,-60.3003 273.54,-37.02 201.443,-23.5473"/>
<polygon fill="#9a32cd" stroke="#9a32cd" points="474.211,-78.0797 484.683,-76.4762 475.496,-71.1988 474.211,-78.0797"/>
<text text-anchor="middle" x="405" y="-46.3" font-family="Helvetica,sans-Serif" font-size="14.00"> fespace</text>
</g>
<!-- Node5&#45;&gt;Node4 -->
<g id="edge4" class="edge"><title>Node5&#45;&gt;Node4</title>
<path fill="none" stroke="midnightblue" d="M449.657,-133.923C471.347,-123.255 499.906,-109.21 519.275,-99.6846"/>
<polygon fill="midnightblue" stroke="midnightblue" points="447.959,-130.857 440.53,-138.411 451.048,-137.139 447.959,-130.857"/>
</g>
<!-- Node6&#45;&gt;Node5 -->
<g id="edge5" class="edge"><title>Node6&#45;&gt;Node5</title>
<path fill="none" stroke="#9a32cd" stroke-dasharray="5,2" d="M421.39,-401.983C430.21,-382.156 442.934,-350.686 449,-322 459.319,-273.204 454.444,-259.851 456,-210 456.416,-196.673 461.836,-191.988 456,-180 452.356,-172.515 445.743,-166.391 439.104,-161.731"/>
<polygon fill="#9a32cd" stroke="#9a32cd" points="418.145,-400.663 417.189,-411.214 424.516,-403.562 418.145,-400.663"/>
<text text-anchor="middle" x="475" y="-247.3" font-family="Helvetica,sans-Serif" font-size="14.00"> mesh</text>
</g>
<!-- Node6&#45;&gt;Node7 -->
<g id="edge8" class="edge"><title>Node6&#45;&gt;Node7</title>
<path fill="none" stroke="#9a32cd" stroke-dasharray="5,2" d="M404.765,-401.836C391.742,-365.542 364.783,-290.412 354.814,-262.63"/>
<polygon fill="#9a32cd" stroke="#9a32cd" points="401.512,-403.135 408.184,-411.366 408.101,-400.771 401.512,-403.135"/>
<text text-anchor="middle" x="411" y="-303.3" font-family="Helvetica,sans-Serif" font-size="14.00"> patchTopo</text>
</g>
<!-- Node7&#45;&gt;Node6 -->
<g id="edge7" class="edge"><title>Node7&#45;&gt;Node6</title>
<path fill="none" stroke="#9a32cd" stroke-dasharray="5,2" d="M318.048,-267.941C308.905,-274.104 300.096,-282.098 295,-292 288.899,-303.856 287.146,-311.226 295,-322 310.4,-343.126 329.74,-324.787 351,-340 377.839,-359.205 397.879,-393.79 406.832,-411.268"/>
<polygon fill="#9a32cd" stroke="#9a32cd" points="320.096,-270.791 326.805,-262.591 316.447,-264.817 320.096,-270.791"/>
<text text-anchor="middle" x="330" y="-303.3" font-family="Helvetica,sans-Serif" font-size="14.00"> NURBSext</text>
</g>
<!-- Node7&#45;&gt;Node5 -->
<g id="edge14" class="edge"><title>Node7&#45;&gt;Node5</title>
<path fill="none" stroke="#9a32cd" stroke-dasharray="5,2" d="M358.681,-229.694C364.79,-215.042 374.252,-195.24 386,-180 391.308,-173.114 398.433,-166.61 404.704,-161.513"/>
<polygon fill="#9a32cd" stroke="#9a32cd" points="355.298,-228.728 354.84,-239.313 361.799,-231.324 355.298,-228.728"/>
<text text-anchor="middle" x="421" y="-191.3" font-family="Helvetica,sans-Serif" font-size="14.00"> NURBSext</text>
</g>
<!-- Node8 -->
<g id="node8" class="node"><title>Node8</title>
<g id="a_node8"><a xlink:href="classmfem_1_1Table.html" target="_top" xlink:title="mfem::Table">
<polygon fill="white" stroke="black" points="484.5,-632.5 484.5,-655.5 577.5,-655.5 577.5,-632.5 484.5,-632.5"/>
<text text-anchor="middle" x="531" y="-640.3" font-family="Helvetica,sans-Serif" font-size="14.00">mfem::Table</text>
</a>
</g>
</g>
<!-- Node8&#45;&gt;Node7 -->
<g id="edge10" class="edge"><title>Node8&#45;&gt;Node7</title>
<path fill="none" stroke="#9a32cd" stroke-dasharray="5,2" d="M527.418,-622.167C514.901,-550.367 472.595,-316.283 449,-292 435.298,-277.898 415.929,-268.596 398.025,-262.546"/>
<polygon fill="#9a32cd" stroke="#9a32cd" points="524.007,-622.984 529.164,-632.24 530.905,-621.789 524.007,-622.984"/>
<text text-anchor="middle" x="527.5" y="-426.8" font-family="Helvetica,sans-Serif" font-size="14.00"> el_dof</text>
<text text-anchor="middle" x="527.5" y="-411.8" font-family="Helvetica,sans-Serif" font-size="14.00">bel_dof</text>
</g>
<!-- Node8&#45;&gt;Node6 -->
<g id="edge11" class="edge"><title>Node8&#45;&gt;Node6</title>
<path fill="none" stroke="#9a32cd" stroke-dasharray="5,2" d="M474.183,-636.722C445.427,-632.251 414.771,-625.039 406,-614 362.886,-559.738 394.543,-466.646 407.312,-434.943"/>
<polygon fill="#9a32cd" stroke="#9a32cd" points="473.834,-640.209 484.235,-638.191 474.847,-633.282 473.834,-640.209"/>
<text text-anchor="middle" x="443.5" y="-602.8" font-family="Helvetica,sans-Serif" font-size="14.00"> el_to_face</text>
<text text-anchor="middle" x="443.5" y="-587.8" font-family="Helvetica,sans-Serif" font-size="14.00">el_to_edge</text>
<text text-anchor="middle" x="443.5" y="-572.8" font-family="Helvetica,sans-Serif" font-size="14.00">edge_vertex</text>
<text text-anchor="middle" x="443.5" y="-557.8" font-family="Helvetica,sans-Serif" font-size="14.00">face_edge</text>
<text text-anchor="middle" x="443.5" y="-542.8" font-family="Helvetica,sans-Serif" font-size="14.00">el_to_el</text>
<text text-anchor="middle" x="443.5" y="-527.8" font-family="Helvetica,sans-Serif" font-size="14.00">bel_to_edge</text>
</g>
<!-- Node8&#45;&gt;Node5 -->
<g id="edge15" class="edge"><title>Node8&#45;&gt;Node5</title>
<path fill="none" stroke="#9a32cd" stroke-dasharray="5,2" d="M538.493,-622.631C555.711,-572.467 593.676,-439.793 554,-340 549.935,-329.775 542.985,-331.234 537,-322 499.25,-263.755 520.975,-229.183 472,-180 464.451,-172.419 454.504,-166.275 445.268,-161.627"/>
<polygon fill="#9a32cd" stroke="#9a32cd" points="535.11,-621.7 535.077,-632.295 541.71,-624.033 535.11,-621.7"/>
<text text-anchor="middle" x="578" y="-310.8" font-family="Helvetica,sans-Serif" font-size="14.00"> bdrElem_dof</text>
<text text-anchor="middle" x="578" y="-295.8" font-family="Helvetica,sans-Serif" font-size="14.00">elem_dof</text>
</g>
<!-- Node8&#45;&gt;Node4 -->
<g id="edge18" class="edge"><title>Node8&#45;&gt;Node4</title>
<path fill="none" stroke="#9a32cd" stroke-dasharray="5,2" d="M556.05,-625.915C560.102,-622.333 563.959,-618.319 567,-614 618.467,-540.908 633,-513.394 633,-424 633,-424 633,-424 633,-149 633,-123.543 607.981,-108.32 584.037,-99.5805"/>
<polygon fill="#9a32cd" stroke="#9a32cd" points="553.786,-623.245 548.181,-632.235 558.169,-628.703 553.786,-623.245"/>
<text text-anchor="middle" x="701" y="-262.3" font-family="Helvetica,sans-Serif" font-size="14.00"> face_nbr_ldof</text>
<text text-anchor="middle" x="701" y="-247.3" font-family="Helvetica,sans-Serif" font-size="14.00">send_face_nbr_ldof</text>
<text text-anchor="middle" x="701" y="-232.3" font-family="Helvetica,sans-Serif" font-size="14.00">face_nbr_element_dof</text>
</g>
<!-- Node9 -->
<g id="node9" class="node"><title>Node9</title>
<g id="a_node9"><a xlink:href="classmfem_1_1SparseMatrix.html" target="_top" xlink:title="Data type sparse matrix. ">
<polygon fill="white" stroke="red" points="28,-239.5 28,-262.5 168,-262.5 168,-239.5 28,-239.5"/>
<text text-anchor="middle" x="98" y="-247.3" font-family="Helvetica,sans-Serif" font-size="14.00">mfem::SparseMatrix</text>
</a>
</g>
</g>
<!-- Node9&#45;&gt;Node5 -->
<g id="edge12" class="edge"><title>Node9&#45;&gt;Node5</title>
<path fill="none" stroke="#9a32cd" stroke-dasharray="5,2" d="M109.771,-230.401C120.8,-213.953 138.879,-191.375 161,-180 189.51,-165.34 265.997,-158.018 328.34,-154.405"/>
<polygon fill="#9a32cd" stroke="#9a32cd" points="106.554,-228.935 104.115,-239.246 112.451,-232.706 106.554,-228.935"/>
<text text-anchor="middle" x="171.5" y="-198.8" font-family="Helvetica,sans-Serif" font-size="14.00"> cR</text>
<text text-anchor="middle" x="171.5" y="-183.8" font-family="Helvetica,sans-Serif" font-size="14.00">cP</text>
</g>
<!-- Node10&#45;&gt;Node4 -->
<g id="edge16" class="edge"><title>Node10&#45;&gt;Node4</title>
<path fill="none" stroke="#9a32cd" stroke-dasharray="5,2" d="M771.355,-540.04C783.154,-492.655 805,-393.392 805,-308 805,-308 805,-308 805,-149 805,-114.218 716.764,-99.5993 642.314,-93.4548"/>
<polygon fill="#9a32cd" stroke="#9a32cd" points="767.927,-539.319 768.864,-549.872 774.713,-541.038 767.927,-539.319"/>
<text text-anchor="middle" x="880.5" y="-247.3" font-family="Helvetica,sans-Serif" font-size="14.00"> face_nbr_glob_dof_map</text>
</g>
</g>
</svg>
        <g id="navigator" transform="translate(0 0)" fill="#404254">
                <rect fill="#f2f5e9" fill-opacity="0.5" stroke="#606060" stroke-width=".5" x="0" y="0" width="60" height="60"/>
                <use id="zoomplus" xlink:href="#zoomPlus" x="17" y="9" onmousedown="handleZoom(evt,'in')"/>
                <use id="zoomminus" xlink:href="#zoomMin" x="42" y="9" onmousedown="handleZoom(evt,'out')"/>
                <use id="reset" xlink:href="#resetDef" x="30" y="36" onmousedown="handleReset()"/>
                <g id="arrowUp" xlink:href="#dirArrow" transform="translate(30 24)" onmousedown="handlePan(0,-1)">
                  <use xlink:href="#rim" fill="#404040">
                        <set attributeName="fill" to="#808080" begin="arrowUp.mouseover" end="arrowUp.mouseout"/>
                  </use>
                  <path fill="none" stroke="white" stroke-width="1.5" d="M0,-3.0v7 M-2.5,-0.5L0,-3.0L2.5,-0.5"/>
                </g>
                <g id="arrowRight" xlink:href="#dirArrow" transform="rotate(90) translate(36 -43)" onmousedown="handlePan(1,0)">
                  <use xlink:href="#rim" fill="#404040">
                        <set attributeName="fill" to="#808080" begin="arrowRight.mouseover" end="arrowRight.mouseout"/>
                  </use>
                  <path fill="none" stroke="white" stroke-width="1.5" d="M0,-3.0v7 M-2.5,-0.5L0,-3.0L2.5,-0.5"/>
                </g>
                <g id="arrowDown" xlink:href="#dirArrow" transform="rotate(180) translate(-30 -48)" onmousedown="handlePan(0,1)">
                  <use xlink:href="#rim" fill="#404040">
                        <set attributeName="fill" to="#808080" begin="arrowDown.mouseover" end="arrowDown.mouseout"/>
                  </use>
                  <path fill="none" stroke="white" stroke-width="1.5" d="M0,-3.0v7 M-2.5,-0.5L0,-3.0L2.5,-0.5"/>
                </g>
                <g id="arrowLeft" xlink:href="#dirArrow" transform="rotate(270) translate(-36 17)" onmousedown="handlePan(-1,0)">
                  <use xlink:href="#rim" fill="#404040">
                        <set attributeName="fill" to="#808080" begin="arrowLeft.mouseover" end="arrowLeft.mouseout"/>
                  </use>
                  <path fill="none" stroke="white" stroke-width="1.5" d="M0,-3.0v7 M-2.5,-0.5L0,-3.0L2.5,-0.5"/>
                </g>
        </g>
        <svg viewBox="0 0 15 15" width="100%" height="30px" preserveAspectRatio="xMaxYMin meet">
         <g id="arrow_out" transform="scale(0.3 0.3)">
          <a xlink:href="classmfem_1_1PetscBDDCSolverParams__coll__graph_org.svg" target="_base">
           <rect id="button" ry="5" rx="5" y="6" x="6" height="38" width="38"
                fill="#f2f5e9" fill-opacity="0.5" stroke="#606060" stroke-width="1.0"/>
           <path id="arrow"
             d="M 11.500037,31.436501 C 11.940474,20.09759 22.043105,11.32322 32.158766,21.979434 L 37.068811,17.246167 C 37.068811,17.246167 37.088388,32 37.088388,32 L 22.160133,31.978069 C 22.160133,31.978069 26.997745,27.140456 26.997745,27.140456 C 18.528582,18.264221 13.291696,25.230495 11.500037,31.436501 z"
             style="fill:#404040;"/>
          </a>
         </g>
        </svg>
</svg>
