<?xml version="1.0" encoding="UTF-8" standalone="no"?>
<!DOCTYPE svg PUBLIC "-//W3C//DTD SVG 1.1//EN"
 "http://www.w3.org/Graphics/SVG/1.1/DTD/svg11.dtd">
<!-- Generated by graphviz version 2.40.1 (20161225.0304)
 -->
<!-- Title: mfem::BiCGSTABSolver Pages: 1 -->
<svg width="309pt" height="335pt"
 viewBox="0.00 0.00 309.25 335.00" xmlns="http://www.w3.org/2000/svg" xmlns:xlink="http://www.w3.org/1999/xlink">
<g id="graph0" class="graph" transform="scale(1 1) rotate(0) translate(4 331)">
<title>mfem::BiCGSTABSolver</title>
<polygon fill="#ffffff" stroke="transparent" points="-4,4 -4,-331 305.2515,-331 305.2515,4 -4,4"/>
<!-- Node4 -->
<g id="node1" class="node">
<title>Node4</title>
<polygon fill="#bfbfbf" stroke="#000000" points="132.292,-.5 132.292,-22.5 299.7354,-22.5 299.7354,-.5 132.292,-.5"/>
<text text-anchor="middle" x="216.0137" y="-7.3" font-family="Helvetica,sans-Serif" font-size="14.00" fill="#000000">mfem::BiCGSTABSolver</text>
</g>
<!-- Node5 -->
<g id="node2" class="node">
<title>Node5</title>
<g id="a_node2"><a xlink:href="classmfem_1_1IterativeSolver.html" target="_top" xlink:title="Abstract base class for iterative solver. ">
<polygon fill="#ffffff" stroke="#000000" points="36.8828,-171.5 36.8828,-193.5 185.1445,-193.5 185.1445,-171.5 36.8828,-171.5"/>
<text text-anchor="middle" x="111.0137" y="-178.3" font-family="Helvetica,sans-Serif" font-size="14.00" fill="#000000">mfem::IterativeSolver</text>
</a>
</g>
</g>
<!-- Node5&#45;&gt;Node4 -->
<g id="edge1" class="edge">
<title>Node5&#45;&gt;Node4</title>
<path fill="none" stroke="#191970" d="M123.2499,-162.5725C145.4911,-126.351 191.8517,-50.8495 209.2355,-22.5388"/>
<polygon fill="#191970" stroke="#191970" points="120.1531,-160.927 117.903,-171.2802 126.1183,-164.5899 120.1531,-160.927"/>
</g>
<!-- Node6 -->
<g id="node3" class="node">
<title>Node6</title>
<g id="a_node3"><a xlink:href="classmfem_1_1Solver.html" target="_top" xlink:title="Base class for solvers. ">
<polygon fill="#ffffff" stroke="#000000" points="94.7827,-244.5 94.7827,-266.5 193.2446,-266.5 193.2446,-244.5 94.7827,-244.5"/>
<text text-anchor="middle" x="144.0137" y="-251.3" font-family="Helvetica,sans-Serif" font-size="14.00" fill="#000000">mfem::Solver</text>
</a>
</g>
</g>
<!-- Node6&#45;&gt;Node5 -->
<g id="edge2" class="edge">
<title>Node6&#45;&gt;Node5</title>
<path fill="none" stroke="#191970" d="M130.3854,-235.8821C128.4386,-232.6589 126.5715,-229.2939 125.0137,-226 119.9935,-215.3856 116.0987,-202.5052 113.706,-193.5264"/>
<polygon fill="#191970" stroke="#191970" points="127.5285,-237.9099 135.8924,-244.4134 133.4096,-234.1136 127.5285,-237.9099"/>
</g>
<!-- Node6&#45;&gt;Node5 -->
<g id="edge4" class="edge">
<title>Node6&#45;&gt;Node5</title>
<path fill="none" stroke="#9a32cd" stroke-dasharray="5,2" d="M134.7617,-235.0335C128.7092,-221.6446 121.0328,-204.6634 116.0728,-193.6915"/>
<polygon fill="#9a32cd" stroke="#9a32cd" points="131.6931,-236.7424 139.0017,-244.4129 138.0717,-233.8589 131.6931,-236.7424"/>
<text text-anchor="middle" x="146.5757" y="-214.8" font-family="Helvetica,sans-Serif" font-size="14.00" fill="#000000"> prec</text>
</g>
<!-- Node7 -->
<g id="node4" class="node">
<title>Node7</title>
<g id="a_node4"><a xlink:href="classmfem_1_1Operator.html" target="_top" xlink:title="Abstract operator. ">
<polygon fill="#ffffff" stroke="#000000" points="0,-304.5 0,-326.5 114.0273,-326.5 114.0273,-304.5 0,-304.5"/>
<text text-anchor="middle" x="57.0137" y="-311.3" font-family="Helvetica,sans-Serif" font-size="14.00" fill="#000000">mfem::Operator</text>
</a>
</g>
</g>
<!-- Node7&#45;&gt;Node5 -->
<g id="edge5" class="edge">
<title>Node7&#45;&gt;Node5</title>
<path fill="none" stroke="#9a32cd" stroke-dasharray="5,2" d="M51.7799,-294.314C49.1977,-279.6792 47.8209,-260.0394 54.1035,-244 62.3802,-222.8696 81.7026,-204.6546 95.5353,-193.6484"/>
<polygon fill="#9a32cd" stroke="#9a32cd" points="48.4129,-295.3134 53.8825,-304.3872 55.2652,-293.883 48.4129,-295.3134"/>
<text text-anchor="middle" x="70.9688" y="-251.3" font-family="Helvetica,sans-Serif" font-size="14.00" fill="#000000"> oper</text>
</g>
<!-- Node7&#45;&gt;Node6 -->
<g id="edge3" class="edge">
<title>Node7&#45;&gt;Node6</title>
<path fill="none" stroke="#191970" d="M81.2263,-298.8016C96.1087,-288.5379 114.7677,-275.6696 127.8631,-266.6383"/>
<polygon fill="#191970" stroke="#191970" points="79.2159,-295.9365 72.9708,-304.4951 83.19,-301.699 79.2159,-295.9365"/>
</g>
<!-- Node8 -->
<g id="node5" class="node">
<title>Node8</title>
<g id="a_node5"><a xlink:href="classmfem_1_1Vector.html" target="_top" xlink:title="Vector data type. ">
<polygon fill="#ffffff" stroke="#000000" points="202.7759,-171.5 202.7759,-193.5 301.2515,-193.5 301.2515,-171.5 202.7759,-171.5"/>
<text text-anchor="middle" x="252.0137" y="-178.3" font-family="Helvetica,sans-Serif" font-size="14.00" fill="#000000">mfem::Vector</text>
</a>
</g>
</g>
<!-- Node8&#45;&gt;Node4 -->
<g id="edge6" class="edge">
<title>Node8&#45;&gt;Node4</title>
<path fill="none" stroke="#9a32cd" stroke-dasharray="5,2" d="M247.5224,-161.1663C239.7886,-124.431 224.2217,-50.4881 218.3376,-22.5388"/>
<polygon fill="#9a32cd" stroke="#9a32cd" points="244.1665,-162.2158 249.6516,-171.2802 251.0164,-160.7736 244.1665,-162.2158"/>
<text text-anchor="middle" x="262.1309" y="-141.8" font-family="Helvetica,sans-Serif" font-size="14.00" fill="#000000"> rtilde</text>
<text text-anchor="middle" x="262.1309" y="-127.8" font-family="Helvetica,sans-Serif" font-size="14.00" fill="#000000">shat</text>
<text text-anchor="middle" x="262.1309" y="-113.8" font-family="Helvetica,sans-Serif" font-size="14.00" fill="#000000">p</text>
<text text-anchor="middle" x="262.1309" y="-99.8" font-family="Helvetica,sans-Serif" font-size="14.00" fill="#000000">phat</text>
<text text-anchor="middle" x="262.1309" y="-85.8" font-family="Helvetica,sans-Serif" font-size="14.00" fill="#000000">r</text>
<text text-anchor="middle" x="262.1309" y="-71.8" font-family="Helvetica,sans-Serif" font-size="14.00" fill="#000000">s</text>
<text text-anchor="middle" x="262.1309" y="-57.8" font-family="Helvetica,sans-Serif" font-size="14.00" fill="#000000">t</text>
<text text-anchor="middle" x="262.1309" y="-43.8" font-family="Helvetica,sans-Serif" font-size="14.00" fill="#000000">v</text>
</g>
</g>
</svg>
