<?xml version="1.0" encoding="UTF-8" standalone="no"?>
<!DOCTYPE svg PUBLIC "-//W3C//DTD SVG 1.1//EN"
 "http://www.w3.org/Graphics/SVG/1.1/DTD/svg11.dtd">
<!-- Generated by graphviz version 2.40.1 (20161225.0304)
 -->
<!-- Title: mfem::HypreIdentity Pages: 1 -->
<svg width="149pt" height="208pt"
 viewBox="0.00 0.00 149.26 208.00" xmlns="http://www.w3.org/2000/svg" xmlns:xlink="http://www.w3.org/1999/xlink">
<g id="graph0" class="graph" transform="scale(1 1) rotate(0) translate(4 204)">
<title>mfem::HypreIdentity</title>
<polygon fill="#ffffff" stroke="transparent" points="-4,4 -4,-204 145.2617,-204 145.2617,4 -4,4"/>
<!-- Node0 -->
<g id="node1" class="node">
<title>Node0</title>
<polygon fill="#bfbfbf" stroke="#000000" points="0,-.5 0,-22.5 141.2617,-22.5 141.2617,-.5 0,-.5"/>
<text text-anchor="middle" x="70.6309" y="-7.3" font-family="Helvetica,sans-Serif" font-size="14.00" fill="#000000">mfem::HypreIdentity</text>
</g>
<!-- Node1 -->
<g id="node2" class="node">
<title>Node1</title>
<g id="a_node2"><a xlink:href="classmfem_1_1HypreSolver.html" target="_top" xlink:title="Abstract class for hypre&#39;s solvers and preconditioners. ">
<polygon fill="#ffffff" stroke="#000000" points="2.7275,-59.5 2.7275,-81.5 138.5342,-81.5 138.5342,-59.5 2.7275,-59.5"/>
<text text-anchor="middle" x="70.6309" y="-66.3" font-family="Helvetica,sans-Serif" font-size="14.00" fill="#000000">mfem::HypreSolver</text>
</a>
</g>
</g>
<!-- Node1&#45;&gt;Node0 -->
<g id="edge1" class="edge">
<title>Node1&#45;&gt;Node0</title>
<path fill="none" stroke="#191970" d="M70.6309,-49.198C70.6309,-40.1726 70.6309,-30.0351 70.6309,-22.5477"/>
<polygon fill="#191970" stroke="#191970" points="67.131,-49.4025 70.6309,-59.4026 74.131,-49.4026 67.131,-49.4025"/>
</g>
<!-- Node2 -->
<g id="node3" class="node">
<title>Node2</title>
<g id="a_node3"><a xlink:href="classmfem_1_1Solver.html" target="_top" xlink:title="Base class for solvers. ">
<polygon fill="#ffffff" stroke="#000000" points="21.3999,-118.5 21.3999,-140.5 119.8618,-140.5 119.8618,-118.5 21.3999,-118.5"/>
<text text-anchor="middle" x="70.6309" y="-125.3" font-family="Helvetica,sans-Serif" font-size="14.00" fill="#000000">mfem::Solver</text>
</a>
</g>
</g>
<!-- Node2&#45;&gt;Node1 -->
<g id="edge2" class="edge">
<title>Node2&#45;&gt;Node1</title>
<path fill="none" stroke="#191970" d="M70.6309,-108.198C70.6309,-99.1726 70.6309,-89.0351 70.6309,-81.5477"/>
<polygon fill="#191970" stroke="#191970" points="67.131,-108.4025 70.6309,-118.4026 74.131,-108.4026 67.131,-108.4025"/>
</g>
<!-- Node3 -->
<g id="node4" class="node">
<title>Node3</title>
<g id="a_node4"><a xlink:href="classmfem_1_1Operator.html" target="_top" xlink:title="Abstract operator. ">
<polygon fill="#ffffff" stroke="#000000" points="13.6172,-177.5 13.6172,-199.5 127.6445,-199.5 127.6445,-177.5 13.6172,-177.5"/>
<text text-anchor="middle" x="70.6309" y="-184.3" font-family="Helvetica,sans-Serif" font-size="14.00" fill="#000000">mfem::Operator</text>
</a>
</g>
</g>
<!-- Node3&#45;&gt;Node2 -->
<g id="edge3" class="edge">
<title>Node3&#45;&gt;Node2</title>
<path fill="none" stroke="#191970" d="M70.6309,-167.198C70.6309,-158.1726 70.6309,-148.0351 70.6309,-140.5477"/>
<polygon fill="#191970" stroke="#191970" points="67.131,-167.4025 70.6309,-177.4026 74.131,-167.4026 67.131,-167.4025"/>
</g>
</g>
</svg>
