<?xml version="1.0" encoding="UTF-8" standalone="no"?>
<!DOCTYPE svg PUBLIC "-//W3C//DTD SVG 1.1//EN"
 "http://www.w3.org/Graphics/SVG/1.1/DTD/svg11.dtd">
<!-- Generated by graphviz version 2.40.1 (20161225.0304)
 -->
<!-- Title: mfem::H1_HexahedronElement Pages: 1 -->
<svg width="395pt" height="267pt"
 viewBox="0.00 0.00 395.22 267.00" xmlns="http://www.w3.org/2000/svg" xmlns:xlink="http://www.w3.org/1999/xlink">
<g id="graph0" class="graph" transform="scale(1 1) rotate(0) translate(4 263)">
<title>mfem::H1_HexahedronElement</title>
<polygon fill="#ffffff" stroke="transparent" points="-4,4 -4,-263 391.2236,-263 391.2236,4 -4,4"/>
<!-- Node0 -->
<g id="node1" class="node">
<title>Node0</title>
<polygon fill="#bfbfbf" stroke="#000000" points="86.9795,-.5 86.9795,-22.5 299.0752,-22.5 299.0752,-.5 86.9795,-.5"/>
<text text-anchor="middle" x="193.0273" y="-7.3" font-family="Helvetica,sans-Serif" font-size="14.00" fill="#000000">mfem::H1_HexahedronElement</text>
</g>
<!-- Node1 -->
<g id="node2" class="node">
<title>Node1</title>
<g id="a_node2"><a xlink:href="classmfem_1_1NodalTensorFiniteElement.html" target="_top" xlink:title="mfem::NodalTensorFiniteElement">
<polygon fill="#ffffff" stroke="#000000" points="81.5415,-59.5 81.5415,-81.5 304.5132,-81.5 304.5132,-59.5 81.5415,-59.5"/>
<text text-anchor="middle" x="193.0273" y="-66.3" font-family="Helvetica,sans-Serif" font-size="14.00" fill="#000000">mfem::NodalTensorFiniteElement</text>
</a>
</g>
</g>
<!-- Node1&#45;&gt;Node0 -->
<g id="edge1" class="edge">
<title>Node1&#45;&gt;Node0</title>
<path fill="none" stroke="#191970" d="M193.0273,-49.198C193.0273,-40.1726 193.0273,-30.0351 193.0273,-22.5477"/>
<polygon fill="#191970" stroke="#191970" points="189.5274,-49.4025 193.0273,-59.4026 196.5274,-49.4026 189.5274,-49.4025"/>
</g>
<!-- Node2 -->
<g id="node3" class="node">
<title>Node2</title>
<g id="a_node3"><a xlink:href="classmfem_1_1NodalFiniteElement.html" target="_top" xlink:title="mfem::NodalFiniteElement">
<polygon fill="#ffffff" stroke="#000000" points="1.5518,-118.5 1.5518,-140.5 182.5029,-140.5 182.5029,-118.5 1.5518,-118.5"/>
<text text-anchor="middle" x="92.0273" y="-125.3" font-family="Helvetica,sans-Serif" font-size="14.00" fill="#000000">mfem::NodalFiniteElement</text>
</a>
</g>
</g>
<!-- Node2&#45;&gt;Node1 -->
<g id="edge2" class="edge">
<title>Node2&#45;&gt;Node1</title>
<path fill="none" stroke="#191970" d="M120.0759,-113.1152C137.3016,-103.0527 158.9032,-90.4339 174.1152,-81.5477"/>
<polygon fill="#191970" stroke="#191970" points="117.8939,-110.3363 111.0247,-118.4026 121.4248,-116.3806 117.8939,-110.3363"/>
</g>
<!-- Node3 -->
<g id="node4" class="node">
<title>Node3</title>
<g id="a_node4"><a xlink:href="classmfem_1_1ScalarFiniteElement.html" target="_top" xlink:title="mfem::ScalarFiniteElement">
<polygon fill="#ffffff" stroke="#000000" points="0,-177.5 0,-199.5 184.0547,-199.5 184.0547,-177.5 0,-177.5"/>
<text text-anchor="middle" x="92.0273" y="-184.3" font-family="Helvetica,sans-Serif" font-size="14.00" fill="#000000">mfem::ScalarFiniteElement</text>
</a>
</g>
</g>
<!-- Node3&#45;&gt;Node2 -->
<g id="edge3" class="edge">
<title>Node3&#45;&gt;Node2</title>
<path fill="none" stroke="#191970" d="M92.0273,-167.198C92.0273,-158.1726 92.0273,-148.0351 92.0273,-140.5477"/>
<polygon fill="#191970" stroke="#191970" points="88.5274,-167.4025 92.0273,-177.4026 95.5274,-167.4026 88.5274,-167.4025"/>
</g>
<!-- Node4 -->
<g id="node5" class="node">
<title>Node4</title>
<g id="a_node5"><a xlink:href="classmfem_1_1FiniteElement.html" target="_top" xlink:title="Abstract class for Finite Elements. ">
<polygon fill="#ffffff" stroke="#000000" points="19.8413,-236.5 19.8413,-258.5 164.2134,-258.5 164.2134,-236.5 19.8413,-236.5"/>
<text text-anchor="middle" x="92.0273" y="-243.3" font-family="Helvetica,sans-Serif" font-size="14.00" fill="#000000">mfem::FiniteElement</text>
</a>
</g>
</g>
<!-- Node4&#45;&gt;Node3 -->
<g id="edge4" class="edge">
<title>Node4&#45;&gt;Node3</title>
<path fill="none" stroke="#191970" d="M92.0273,-226.198C92.0273,-217.1726 92.0273,-207.0351 92.0273,-199.5477"/>
<polygon fill="#191970" stroke="#191970" points="88.5274,-226.4025 92.0273,-236.4026 95.5274,-226.4026 88.5274,-226.4025"/>
</g>
<!-- Node5 -->
<g id="node6" class="node">
<title>Node5</title>
<g id="a_node6"><a xlink:href="classmfem_1_1TensorBasisElement.html" target="_top" xlink:title="mfem::TensorBasisElement">
<polygon fill="#ffffff" stroke="#000000" points="200.8311,-118.5 200.8311,-140.5 387.2236,-140.5 387.2236,-118.5 200.8311,-118.5"/>
<text text-anchor="middle" x="294.0273" y="-125.3" font-family="Helvetica,sans-Serif" font-size="14.00" fill="#000000">mfem::TensorBasisElement</text>
</a>
</g>
</g>
<!-- Node5&#45;&gt;Node1 -->
<g id="edge5" class="edge">
<title>Node5&#45;&gt;Node1</title>
<path fill="none" stroke="#191970" d="M265.9788,-113.1152C248.7531,-103.0527 227.1515,-90.4339 211.9395,-81.5477"/>
<polygon fill="#191970" stroke="#191970" points="264.6299,-116.3806 275.03,-118.4026 268.1607,-110.3363 264.6299,-116.3806"/>
</g>
</g>
</svg>
