<?xml version="1.0" encoding="UTF-8" standalone="no"?>
<!DOCTYPE svg PUBLIC "-//W3C//DTD SVG 1.1//EN"
 "http://www.w3.org/Graphics/SVG/1.1/DTD/svg11.dtd">
<!-- Generated by graphviz version 2.30.1 (20170916.1124)
 -->
<!-- Title: mfem::FiniteElementSpace Pages: 1 -->
<svg width="1150pt" height="642pt"
 viewBox="0.00 0.00 1150.00 642.00" xmlns="http://www.w3.org/2000/svg" xmlns:xlink="http://www.w3.org/1999/xlink">
<g id="graph0" class="graph" transform="scale(1 1) rotate(0) translate(4 638)">
<title>mfem::FiniteElementSpace</title>
<polygon fill="white" stroke="white" points="-4,5 -4,-638 1147,-638 1147,5 -4,5"/>
<!-- Node1 -->
<g id="node1" class="node"><title>Node1</title>
<polygon fill="#bfbfbf" stroke="black" points="932.5,-245.5 932.5,-268.5 1141.5,-268.5 1141.5,-245.5 932.5,-245.5"/>
<text text-anchor="middle" x="1037" y="-253.3" font-family="Helvetica,sans-Serif" font-size="14.00">mfem::FiniteElementSpace</text>
</g>
<!-- Node2 -->
<g id="node2" class="node"><title>Node2</title>
<g id="a_node2"><a xlink:href="classmfem_1_1Array.html" target="_top" xlink:title="mfem::Array\&lt; mfem::\lQuadratureInterpolator * \&gt;">
<polygon fill="white" stroke="red" points="573,-596 573,-634 785,-634 785,-596 573,-596"/>
<text text-anchor="start" x="581" y="-618.8" font-family="Helvetica,sans-Serif" font-size="14.00">mfem::Array&lt; mfem::</text>
<text text-anchor="middle" x="679" y="-603.8" font-family="Helvetica,sans-Serif" font-size="14.00">QuadratureInterpolator * &gt;</text>
</a>
</g>
</g>
<!-- Node2&#45;&gt;Node1 -->
<g id="edge1" class="edge"><title>Node2&#45;&gt;Node1</title>
<path fill="none" stroke="#9a32cd" stroke-dasharray="5,2" d="M795.253,-621.507C836.536,-618.234 880.979,-607.566 914,-581 1017.73,-497.547 1033.29,-315.951 1035.6,-268.52"/>
<polygon fill="#9a32cd" stroke="#9a32cd" points="794.864,-618.025 785.114,-622.171 795.321,-625.01 794.864,-618.025"/>
<text text-anchor="middle" x="867" y="-621.8" font-family="Helvetica,sans-Serif" font-size="14.00"> E2Q_array</text>
</g>
<!-- Node3 -->
<g id="node3" class="node"><title>Node3</title>
<g id="a_node3"><a xlink:href="classmfem_1_1Mesh.html" target="_top" xlink:title="mfem::Mesh">
<polygon fill="white" stroke="red" points="298,-515.5 298,-538.5 404,-538.5 404,-515.5 298,-515.5"/>
<text text-anchor="middle" x="351" y="-523.3" font-family="Helvetica,sans-Serif" font-size="14.00">mfem::Mesh</text>
</a>
</g>
</g>
<!-- Node3&#45;&gt;Node1 -->
<g id="edge2" class="edge"><title>Node3&#45;&gt;Node1</title>
<path fill="none" stroke="#9a32cd" stroke-dasharray="5,2" d="M414.248,-521.778C450.861,-517.605 497.727,-510.34 538,-498 735.907,-437.361 953.513,-308.036 1017.41,-268.634"/>
<polygon fill="#9a32cd" stroke="#9a32cd" points="413.768,-518.309 404.207,-522.874 414.528,-525.268 413.768,-518.309"/>
<text text-anchor="middle" x="679" y="-494.8" font-family="Helvetica,sans-Serif" font-size="14.00"> mesh</text>
</g>
<!-- Node5 -->
<g id="node5" class="node"><title>Node5</title>
<g id="a_node5"><a xlink:href="classmfem_1_1NURBSExtension.html" target="_top" xlink:title="mfem::NURBSExtension">
<polygon fill="white" stroke="red" points="585,-320.5 585,-343.5 773,-343.5 773,-320.5 585,-320.5"/>
<text text-anchor="middle" x="679" y="-328.3" font-family="Helvetica,sans-Serif" font-size="14.00">mfem::NURBSExtension</text>
</a>
</g>
</g>
<!-- Node3&#45;&gt;Node5 -->
<g id="edge5" class="edge"><title>Node3&#45;&gt;Node5</title>
<path fill="none" stroke="#9a32cd" stroke-dasharray="5,2" d="M389.431,-511.024C395.166,-508.002 400.876,-504.635 406,-501 415.227,-494.453 414.282,-488.794 424,-483 469.413,-455.924 491.424,-474.023 538,-449 592.413,-419.767 645.161,-367.184 667.21,-343.784"/>
<polygon fill="#9a32cd" stroke="#9a32cd" points="387.871,-507.891 380.478,-515.48 390.99,-514.158 387.871,-507.891"/>
<text text-anchor="middle" x="481" y="-486.8" font-family="Helvetica,sans-Serif" font-size="14.00"> patchTopo</text>
</g>
<!-- Node4 -->
<g id="node4" class="node"><title>Node4</title>
<g id="a_node4"><a xlink:href="classmfem_1_1Array.html" target="_top" xlink:title="mfem::Array\&lt; int \&gt;">
<polygon fill="white" stroke="red" points="0,-480.5 0,-503.5 158,-503.5 158,-480.5 0,-480.5"/>
<text text-anchor="middle" x="79" y="-488.3" font-family="Helvetica,sans-Serif" font-size="14.00">mfem::Array&lt; int &gt;</text>
</a>
</g>
</g>
<!-- Node4&#45;&gt;Node3 -->
<g id="edge3" class="edge"><title>Node4&#45;&gt;Node3</title>
<path fill="none" stroke="#9a32cd" stroke-dasharray="5,2" d="M168.536,-484.301C203.073,-483.406 242.759,-485.004 278,-493 280.595,-493.589 306.123,-505.773 326.054,-515.389"/>
<polygon fill="#9a32cd" stroke="#9a32cd" points="168.346,-480.805 158.467,-484.634 168.578,-487.801 168.346,-480.805"/>
<text text-anchor="middle" x="227" y="-541.8" font-family="Helvetica,sans-Serif" font-size="14.00"> attributes</text>
<text text-anchor="middle" x="227" y="-526.8" font-family="Helvetica,sans-Serif" font-size="14.00">be_to_edge</text>
<text text-anchor="middle" x="227" y="-511.8" font-family="Helvetica,sans-Serif" font-size="14.00">be_to_face</text>
<text text-anchor="middle" x="227" y="-496.8" font-family="Helvetica,sans-Serif" font-size="14.00">bdr_attributes</text>
</g>
<!-- Node4&#45;&gt;Node5 -->
<g id="edge6" class="edge"><title>Node4&#45;&gt;Node5</title>
<path fill="none" stroke="#9a32cd" stroke-dasharray="5,2" d="M131.4,-477.264C175.811,-462.089 238.848,-434.32 278,-390 293.36,-372.612 277.133,-354.502 296,-341 340.573,-309.101 486.774,-314.634 584.826,-322.565"/>
<polygon fill="#9a32cd" stroke="#9a32cd" points="130.052,-474.024 121.662,-480.493 132.255,-480.668 130.052,-474.024"/>
<text text-anchor="middle" x="351" y="-494.8" font-family="Helvetica,sans-Serif" font-size="14.00"> slave</text>
<text text-anchor="middle" x="351" y="-479.8" font-family="Helvetica,sans-Serif" font-size="14.00">master</text>
<text text-anchor="middle" x="351" y="-464.8" font-family="Helvetica,sans-Serif" font-size="14.00">v_spaceOffsets</text>
<text text-anchor="middle" x="351" y="-449.8" font-family="Helvetica,sans-Serif" font-size="14.00">p_meshOffsets</text>
<text text-anchor="middle" x="351" y="-434.8" font-family="Helvetica,sans-Serif" font-size="14.00">edge_to_knot</text>
<text text-anchor="middle" x="351" y="-419.8" font-family="Helvetica,sans-Serif" font-size="14.00">f_spaceOffsets</text>
<text text-anchor="middle" x="351" y="-404.8" font-family="Helvetica,sans-Serif" font-size="14.00">e_meshOffsets</text>
<text text-anchor="middle" x="351" y="-389.8" font-family="Helvetica,sans-Serif" font-size="14.00">el_to_patch</text>
<text text-anchor="middle" x="351" y="-374.8" font-family="Helvetica,sans-Serif" font-size="14.00">p_spaceOffsets</text>
<text text-anchor="middle" x="351" y="-359.8" font-family="Helvetica,sans-Serif" font-size="14.00">bel_to_patch</text>
<text text-anchor="middle" x="351" y="-344.8" font-family="Helvetica,sans-Serif" font-size="14.00">...</text>
</g>
<!-- Node4&#45;&gt;Node1 -->
<g id="edge11" class="edge"><title>Node4&#45;&gt;Node1</title>
<path fill="none" stroke="#9a32cd" stroke-dasharray="5,2" d="M100.975,-510.344C119.342,-525.105 147.484,-544.707 176,-553 219.53,-565.66 232.675,-553.885 278,-553 511.627,-548.439 592.621,-613.744 802,-510 918.603,-452.225 1005.98,-309.998 1029.63,-268.525"/>
<polygon fill="#9a32cd" stroke="#9a32cd" points="102.718,-507.243 92.7849,-503.558 98.2515,-512.633 102.718,-507.243"/>
<text text-anchor="middle" x="481" y="-586.8" font-family="Helvetica,sans-Serif" font-size="14.00"> dof_ldof_array</text>
<text text-anchor="middle" x="481" y="-571.8" font-family="Helvetica,sans-Serif" font-size="14.00">dof_elem_array</text>
</g>
<!-- Node5&#45;&gt;Node3 -->
<g id="edge4" class="edge"><title>Node5&#45;&gt;Node3</title>
<path fill="none" stroke="#9a32cd" stroke-dasharray="5,2" d="M593.552,-345.779C537.896,-359.15 467.51,-384.957 424,-434 403.537,-457.065 425.681,-477.264 406,-501 401.019,-507.007 394.322,-511.726 387.341,-515.396"/>
<polygon fill="#9a32cd" stroke="#9a32cd" points="594.452,-349.163 603.408,-343.502 592.877,-342.342 594.452,-349.163"/>
<text text-anchor="middle" x="481" y="-437.8" font-family="Helvetica,sans-Serif" font-size="14.00"> NURBSext</text>
</g>
<!-- Node5&#45;&gt;Node1 -->
<g id="edge12" class="edge"><title>Node5&#45;&gt;Node1</title>
<path fill="none" stroke="#9a32cd" stroke-dasharray="5,2" d="M744.975,-318.312C812.733,-304.037 917.76,-281.91 981.385,-268.506"/>
<polygon fill="#9a32cd" stroke="#9a32cd" points="743.908,-314.959 734.845,-320.446 745.352,-321.809 743.908,-314.959"/>
<text text-anchor="middle" x="867" y="-305.8" font-family="Helvetica,sans-Serif" font-size="14.00"> NURBSext</text>
</g>
<!-- Node6 -->
<g id="node6" class="node"><title>Node6</title>
<g id="a_node6"><a xlink:href="classmfem_1_1Table.html" target="_top" xlink:title="mfem::Table">
<polygon fill="white" stroke="red" points="26,-254.5 26,-277.5 132,-277.5 132,-254.5 26,-254.5"/>
<text text-anchor="middle" x="79" y="-262.3" font-family="Helvetica,sans-Serif" font-size="14.00">mfem::Table</text>
</a>
</g>
</g>
<!-- Node6&#45;&gt;Node5 -->
<g id="edge7" class="edge"><title>Node6&#45;&gt;Node5</title>
<path fill="none" stroke="#9a32cd" stroke-dasharray="5,2" d="M142.326,-265.98C208.094,-266.589 314.666,-269.366 406,-280 484.795,-289.174 575.013,-308.124 629.196,-320.437"/>
<polygon fill="#9a32cd" stroke="#9a32cd" points="142.157,-262.479 132.13,-265.9 142.102,-269.479 142.157,-262.479"/>
<text text-anchor="middle" x="351" y="-298.8" font-family="Helvetica,sans-Serif" font-size="14.00"> el_dof</text>
<text text-anchor="middle" x="351" y="-283.8" font-family="Helvetica,sans-Serif" font-size="14.00">bel_dof</text>
</g>
<!-- Node6&#45;&gt;Node3 -->
<g id="edge8" class="edge"><title>Node6&#45;&gt;Node3</title>
<path fill="none" stroke="#9a32cd" stroke-dasharray="5,2" d="M123.809,-281.186C170.012,-299.612 241.119,-335.309 278,-391 305.353,-432.303 266.331,-461.328 296,-501 300.549,-507.083 306.895,-511.811 313.642,-515.462"/>
<polygon fill="#9a32cd" stroke="#9a32cd" points="124.938,-277.87 114.349,-277.515 122.406,-284.396 124.938,-277.87"/>
<text text-anchor="middle" x="227" y="-469.8" font-family="Helvetica,sans-Serif" font-size="14.00"> el_to_face</text>
<text text-anchor="middle" x="227" y="-454.8" font-family="Helvetica,sans-Serif" font-size="14.00">el_to_edge</text>
<text text-anchor="middle" x="227" y="-439.8" font-family="Helvetica,sans-Serif" font-size="14.00">edge_vertex</text>
<text text-anchor="middle" x="227" y="-424.8" font-family="Helvetica,sans-Serif" font-size="14.00">face_edge</text>
<text text-anchor="middle" x="227" y="-409.8" font-family="Helvetica,sans-Serif" font-size="14.00">el_to_el</text>
<text text-anchor="middle" x="227" y="-394.8" font-family="Helvetica,sans-Serif" font-size="14.00">bel_to_edge</text>
</g>
<!-- Node6&#45;&gt;Node1 -->
<g id="edge15" class="edge"><title>Node6&#45;&gt;Node1</title>
<path fill="none" stroke="#9a32cd" stroke-dasharray="5,2" d="M142.373,-261.99C211.265,-257.778 325.493,-251.433 424,-249 602.594,-244.59 810.567,-249.423 932.303,-253.26"/>
<polygon fill="#9a32cd" stroke="#9a32cd" points="141.896,-258.513 132.13,-262.621 142.326,-265.5 141.896,-258.513"/>
<text text-anchor="middle" x="481" y="-267.8" font-family="Helvetica,sans-Serif" font-size="14.00"> bdrElem_dof</text>
<text text-anchor="middle" x="481" y="-252.8" font-family="Helvetica,sans-Serif" font-size="14.00">elem_dof</text>
</g>
<!-- Node7 -->
<g id="node7" class="node"><title>Node7</title>
<g id="a_node7"><a xlink:href="classmfem_1_1SparseMatrix.html" target="_top" xlink:title="Data type sparse matrix. ">
<polygon fill="white" stroke="red" points="598,-172.5 598,-195.5 760,-195.5 760,-172.5 598,-172.5"/>
<text text-anchor="middle" x="679" y="-180.3" font-family="Helvetica,sans-Serif" font-size="14.00">mfem::SparseMatrix</text>
</a>
</g>
</g>
<!-- Node7&#45;&gt;Node1 -->
<g id="edge9" class="edge"><title>Node7&#45;&gt;Node1</title>
<path fill="none" stroke="#9a32cd" stroke-dasharray="5,2" d="M770.185,-190.447C814.004,-194.776 867.183,-201.805 914,-213 947.724,-221.064 985.023,-235.349 1009.39,-245.452"/>
<polygon fill="#9a32cd" stroke="#9a32cd" points="770.411,-186.953 760.123,-189.484 769.744,-193.921 770.411,-186.953"/>
<text text-anchor="middle" x="867" y="-231.8" font-family="Helvetica,sans-Serif" font-size="14.00"> cR</text>
<text text-anchor="middle" x="867" y="-216.8" font-family="Helvetica,sans-Serif" font-size="14.00">cP</text>
</g>
<!-- Node7&#45;&gt;Node7 -->
<g id="edge10" class="edge"><title>Node7&#45;&gt;Node7</title>
<path fill="none" stroke="#9a32cd" stroke-dasharray="5,2" d="M644.338,-205.101C646.981,-210.208 658.535,-214 679,-214 710.945,-214 721.178,-204.76 709.697,-195.701"/>
<polygon fill="#9a32cd" stroke="#9a32cd" points="647.641,-206.276 648.303,-195.701 641.191,-203.555 647.641,-206.276"/>
<text text-anchor="middle" x="679" y="-217.8" font-family="Helvetica,sans-Serif" font-size="14.00"> At</text>
</g>
<!-- Node8 -->
<g id="node8" class="node"><title>Node8</title>
<g id="a_node8"><a xlink:href="classmfem_1_1Array.html" target="_top" xlink:title="mfem::Array\&lt; mfem::\lFaceQuadratureInterpolator * \&gt;">
<polygon fill="white" stroke="red" points="556.5,-115 556.5,-153 801.5,-153 801.5,-115 556.5,-115"/>
<text text-anchor="start" x="564.5" y="-137.8" font-family="Helvetica,sans-Serif" font-size="14.00">mfem::Array&lt; mfem::</text>
<text text-anchor="middle" x="679" y="-122.8" font-family="Helvetica,sans-Serif" font-size="14.00">FaceQuadratureInterpolator * &gt;</text>
</a>
</g>
</g>
<!-- Node8&#45;&gt;Node1 -->
<g id="edge13" class="edge"><title>Node8&#45;&gt;Node1</title>
<path fill="none" stroke="#9a32cd" stroke-dasharray="5,2" d="M811.648,-137.953C845.905,-142.281 882.123,-149.901 914,-163 960.99,-182.31 1005.43,-224.736 1025.22,-245.328"/>
<polygon fill="#9a32cd" stroke="#9a32cd" points="811.908,-134.459 801.567,-136.766 811.089,-141.411 811.908,-134.459"/>
<text text-anchor="middle" x="867" y="-181.8" font-family="Helvetica,sans-Serif" font-size="14.00"> E2IFQ_array</text>
<text text-anchor="middle" x="867" y="-166.8" font-family="Helvetica,sans-Serif" font-size="14.00">E2BFQ_array</text>
</g>
<!-- Node9 -->
<g id="node9" class="node"><title>Node9</title>
<polygon fill="white" stroke="#bfbfbf" points="573,-42.5 573,-95.5 785,-95.5 785,-42.5 573,-42.5"/>
<text text-anchor="start" x="581" y="-80.3" font-family="Helvetica,sans-Serif" font-size="14.00">std::unordered_map</text>
<text text-anchor="start" x="581" y="-65.3" font-family="Helvetica,sans-Serif" font-size="14.00">&lt; const key_face, Operator</text>
<text text-anchor="middle" x="679" y="-50.3" font-family="Helvetica,sans-Serif" font-size="14.00"> *, key_hash &gt;</text>
</g>
<!-- Node9&#45;&gt;Node1 -->
<g id="edge14" class="edge"><title>Node9&#45;&gt;Node1</title>
<path fill="none" stroke="#9a32cd" stroke-dasharray="5,2" d="M795.005,-80.0392C834.692,-87.5146 878.15,-100.036 914,-121 969.036,-153.183 1012.86,-218.669 1029.15,-245.321"/>
<polygon fill="#9a32cd" stroke="#9a32cd" points="795.464,-76.5657 785.003,-78.2453 794.228,-83.4558 795.464,-76.5657"/>
<text text-anchor="middle" x="867" y="-124.8" font-family="Helvetica,sans-Serif" font-size="14.00"> L2F</text>
</g>
<!-- Node10 -->
<g id="node10" class="node"><title>Node10</title>
<g id="a_node10"><a xlink:href="classmfem_1_1FiniteElementCollection.html" target="_top" xlink:title="mfem::FiniteElementCollection">
<polygon fill="white" stroke="black" points="561,-0.5 561,-23.5 797,-23.5 797,-0.5 561,-0.5"/>
<text text-anchor="middle" x="679" y="-8.3" font-family="Helvetica,sans-Serif" font-size="14.00">mfem::FiniteElementCollection</text>
</a>
</g>
</g>
<!-- Node10&#45;&gt;Node1 -->
<g id="edge16" class="edge"><title>Node10&#45;&gt;Node1</title>
<path fill="none" stroke="#9a32cd" stroke-dasharray="5,2" d="M807.087,-22.7899C844.372,-30.883 883.327,-44.6705 914,-68 978.968,-117.413 1019.17,-212.116 1031.74,-245.224"/>
<polygon fill="#9a32cd" stroke="#9a32cd" points="807.638,-19.3301 797.139,-20.754 806.234,-26.188 807.638,-19.3301"/>
<text text-anchor="middle" x="867" y="-71.8" font-family="Helvetica,sans-Serif" font-size="14.00"> fec</text>
</g>
</g>
</svg>
