<?xml version="1.0" encoding="UTF-8" standalone="no"?>
<!DOCTYPE svg PUBLIC "-//W3C//DTD SVG 1.1//EN"
 "http://www.w3.org/Graphics/SVG/1.1/DTD/svg11.dtd">
<!-- Generated by graphviz version 2.30.1 (20170916.1124)
 -->
<!-- Title: examples Pages: 1 -->
<svg width="344pt" height="76pt"
 viewBox="0.00 0.00 344.00 76.00" xmlns="http://www.w3.org/2000/svg" xmlns:xlink="http://www.w3.org/1999/xlink">
<g id="graph0" class="graph" transform="scale(1 1) rotate(0) translate(4 72)">
<title>examples</title>
<polygon fill="white" stroke="white" points="-4,5 -4,-72 341,-72 341,5 -4,5"/>
<g id="clust1" class="cluster"><title>clusterdir_d28a4824dc47e487b107a5db32ef43c4</title>
<g id="a_clust1"><a xlink:href="dir_d28a4824dc47e487b107a5db32ef43c4.html" target="_top">
<polygon fill="#eeeeff" stroke="black" points="8,-8 8,-60 328,-60 328,-8 8,-8"/>
</a>
</g>
</g>
<!-- dir_d28a4824dc47e487b107a5db32ef43c4 -->
<g id="node1" class="node"><title>dir_d28a4824dc47e487b107a5db32ef43c4</title>
<text text-anchor="middle" x="282" y="-30.3" font-family="Helvetica,sans-Serif" font-size="14.00">examples</text>
</g>
<!-- dir_3bc81c2db0f524697b90172834f63db0 -->
<g id="node2" class="node"><title>dir_3bc81c2db0f524697b90172834f63db0</title>
<g id="a_node2"><a xlink:href="dir_3bc81c2db0f524697b90172834f63db0.html" target="_top" xlink:title="petsc">
<polygon fill="white" stroke="black" points="226,-52 172,-52 172,-16 226,-16 226,-52"/>
<text text-anchor="middle" x="199" y="-30.3" font-family="Helvetica,sans-Serif" font-size="14.00">petsc</text>
</a>
</g>
</g>
<!-- dir_9ec2473642cc6e9348b874bc9a4590b8 -->
<g id="node3" class="node"><title>dir_9ec2473642cc6e9348b874bc9a4590b8</title>
<g id="a_node3"><a xlink:href="dir_9ec2473642cc6e9348b874bc9a4590b8.html" target="_top" xlink:title="pumi">
<polygon fill="white" stroke="black" points="154,-52 100,-52 100,-16 154,-16 154,-52"/>
<text text-anchor="middle" x="127" y="-30.3" font-family="Helvetica,sans-Serif" font-size="14.00">pumi</text>
</a>
</g>
</g>
<!-- dir_61cbd62da7690fb22720ccd1dfd5729d -->
<g id="node4" class="node"><title>dir_61cbd62da7690fb22720ccd1dfd5729d</title>
<g id="a_node4"><a xlink:href="dir_61cbd62da7690fb22720ccd1dfd5729d.html" target="_top" xlink:title="sundials">
<polygon fill="white" stroke="black" points="82,-52 16,-52 16,-16 82,-16 82,-52"/>
<text text-anchor="middle" x="49" y="-30.3" font-family="Helvetica,sans-Serif" font-size="14.00">sundials</text>
</a>
</g>
</g>
</g>
</svg>
