<?xml version="1.0" encoding="UTF-8" standalone="no"?>
<!DOCTYPE svg PUBLIC "-//W3C//DTD SVG 1.1//EN"
 "http://www.w3.org/Graphics/SVG/1.1/DTD/svg11.dtd">
<!-- Generated by graphviz version 2.26.3 (20100126.1600)
 -->
<!-- Title: Graph Legend Pages: 1 -->
<svg width="630pt" height="184pt"
 viewBox="0.00 0.00 630.00 184.00" xmlns="http://www.w3.org/2000/svg" xmlns:xlink="http://www.w3.org/1999/xlink">
<g id="graph1" class="graph" transform="scale(1 1) rotate(0) translate(4 180)">
<title>Graph Legend</title>
<polygon fill="white" stroke="white" points="-4,5 -4,-180 627,-180 627,5 -4,5"/>
<!-- Node9 -->
<g id="node1" class="node"><title>Node9</title>
<polygon fill="#bfbfbf" stroke="black" points="367,-24 297,-24 297,-7.10543e-15 367,-0 367,-24"/>
<text text-anchor="middle" x="332" y="-7.4" font-family="Helvetica,sans-Serif" font-size="14.00">Inherited</text>
</g>
<!-- Node10 -->
<g id="node2" class="node"><title>Node10</title>
<a xlink:href="$classPublicBase.html" xlink:title="PublicBase">
<polygon fill="none" stroke="black" points="86,-100 2.13163e-14,-100 0,-76 86,-76 86,-100"/>
<text text-anchor="middle" x="43" y="-83.4" font-family="Helvetica,sans-Serif" font-size="14.00">PublicBase</text>
</a>
</g>
<!-- Node10&#45;&gt;Node9 -->
<g id="edge2" class="edge"><title>Node10&#45;&gt;Node9</title>
<path fill="none" stroke="midnightblue" d="M96.0382,-74.0522C154.382,-58.7092 246.505,-34.4832 296.64,-21.2989"/>
<polygon fill="midnightblue" stroke="midnightblue" points="95.0472,-70.6938 86.2662,-76.622 96.8276,-77.4636 95.0472,-70.6938"/>
</g>
<!-- Node11 -->
<g id="node4" class="node"><title>Node11</title>
<a xlink:href="$classTruncated.html" xlink:title="Truncated">
<polygon fill="none" stroke="red" points="82,-176 4,-176 4,-152 82,-152 82,-176"/>
<text text-anchor="middle" x="43" y="-159.4" font-family="Helvetica,sans-Serif" font-size="14.00">Truncated</text>
</a>
</g>
<!-- Node11&#45;&gt;Node10 -->
<g id="edge4" class="edge"><title>Node11&#45;&gt;Node10</title>
<path fill="none" stroke="midnightblue" d="M43,-141.437C43,-128.024 43,-111.52 43,-100.433"/>
<polygon fill="midnightblue" stroke="midnightblue" points="39.5001,-141.789 43,-151.789 46.5001,-141.789 39.5001,-141.789"/>
</g>
<!-- Node13 -->
<g id="node6" class="node"><title>Node13</title>
<a xlink:href="$classProtectedBase.html" xlink:title="ProtectedBase">
<polygon fill="none" stroke="black" points="210,-100 104,-100 104,-76 210,-76 210,-100"/>
<text text-anchor="middle" x="157" y="-83.4" font-family="Helvetica,sans-Serif" font-size="14.00">ProtectedBase</text>
</a>
</g>
<!-- Node13&#45;&gt;Node9 -->
<g id="edge6" class="edge"><title>Node13&#45;&gt;Node9</title>
<path fill="none" stroke="darkgreen" d="M194.02,-71.9226C226.927,-57.6315 274.312,-37.0532 304.111,-24.1117"/>
<polygon fill="darkgreen" stroke="darkgreen" points="192.507,-68.7638 184.729,-75.9576 195.296,-75.1844 192.507,-68.7638"/>
</g>
<!-- Node14 -->
<g id="node8" class="node"><title>Node14</title>
<a xlink:href="$classPrivateBase.html" xlink:title="PrivateBase">
<polygon fill="none" stroke="black" points="318,-100 228,-100 228,-76 318,-76 318,-100"/>
<text text-anchor="middle" x="273" y="-83.4" font-family="Helvetica,sans-Serif" font-size="14.00">PrivateBase</text>
</a>
</g>
<!-- Node14&#45;&gt;Node9 -->
<g id="edge8" class="edge"><title>Node14&#45;&gt;Node9</title>
<path fill="none" stroke="#8b1a1a" d="M288.669,-67.8156C299.376,-54.024 313.224,-36.1856 322.348,-24.4329"/>
<polygon fill="#8b1a1a" stroke="#8b1a1a" points="285.847,-65.7439 282.479,-75.7893 291.376,-70.0364 285.847,-65.7439"/>
</g>
<!-- Node15 -->
<g id="node10" class="node"><title>Node15</title>
<polygon fill="none" stroke="#bfbfbf" points="446,-100 336,-100 336,-76 446,-76 446,-100"/>
<text text-anchor="middle" x="391" y="-83.4" font-family="Helvetica,sans-Serif" font-size="14.00">Undocumented</text>
</g>
<!-- Node15&#45;&gt;Node9 -->
<g id="edge10" class="edge"><title>Node15&#45;&gt;Node9</title>
<path fill="none" stroke="midnightblue" d="M375.331,-67.8156C364.624,-54.024 350.776,-36.1856 341.652,-24.4329"/>
<polygon fill="midnightblue" stroke="midnightblue" points="372.624,-70.0364 381.521,-75.7893 378.153,-65.7439 372.624,-70.0364"/>
</g>
<!-- Node16 -->
<g id="node12" class="node"><title>Node16</title>
<a xlink:href="$classTempl.html" xlink:title="Templ&lt; int &gt;">
<polygon fill="none" stroke="black" points="556,-100 464,-100 464,-76 556,-76 556,-100"/>
<text text-anchor="middle" x="510" y="-83.4" font-family="Helvetica,sans-Serif" font-size="14.00">Templ&lt; int &gt;</text>
</a>
</g>
<!-- Node16&#45;&gt;Node9 -->
<g id="edge12" class="edge"><title>Node16&#45;&gt;Node9</title>
<path fill="none" stroke="midnightblue" d="M472.345,-71.9226C438.874,-57.6315 390.677,-37.0532 360.367,-24.1117"/>
<polygon fill="midnightblue" stroke="midnightblue" points="471.224,-75.2497 481.795,-75.9576 473.973,-68.8119 471.224,-75.2497"/>
</g>
<!-- Node17 -->
<g id="node14" class="node"><title>Node17</title>
<a xlink:href="$classTempl.html" xlink:title="Templ&lt; T &gt;">
<polygon fill="none" stroke="black" points="553,-176 467,-176 467,-152 553,-152 553,-176"/>
<text text-anchor="middle" x="510" y="-159.4" font-family="Helvetica,sans-Serif" font-size="14.00">Templ&lt; T &gt;</text>
</a>
</g>
<!-- Node17&#45;&gt;Node16 -->
<g id="edge14" class="edge"><title>Node17&#45;&gt;Node16</title>
<path fill="none" stroke="orange" stroke-dasharray="5,2" d="M510,-141.437C510,-128.024 510,-111.52 510,-100.433"/>
<polygon fill="orange" stroke="orange" points="506.5,-141.789 510,-151.789 513.5,-141.789 506.5,-141.789"/>
<text text-anchor="middle" x="529.5" y="-121.4" font-family="Helvetica,sans-Serif" font-size="14.00">&lt; int &gt;</text>
</g>
<!-- Node18 -->
<g id="node16" class="node"><title>Node18</title>
<a xlink:href="$classUsed.html" xlink:title="Used">
<polygon fill="none" stroke="black" points="622,-100 574,-100 574,-76 622,-76 622,-100"/>
<text text-anchor="middle" x="598" y="-83.4" font-family="Helvetica,sans-Serif" font-size="14.00">Used</text>
</a>
</g>
<!-- Node18&#45;&gt;Node9 -->
<g id="edge16" class="edge"><title>Node18&#45;&gt;Node9</title>
<path fill="none" stroke="#9a32cd" stroke-dasharray="5,2" d="M564.277,-75.9235C488.956,-52.1562 411.398,-31.888 367.392,-20.7726"/>
<polygon fill="#9a32cd" stroke="#9a32cd" points="563.336,-79.2969 573.927,-78.9919 565.457,-72.626 563.336,-79.2969"/>
<text text-anchor="middle" x="543.5" y="-45.4" font-family="Helvetica,sans-Serif" font-size="14.00">m_usedClass</text>
</g>
</g>
</svg>
