<?xml version="1.0" encoding="UTF-8" standalone="no"?>
<!DOCTYPE svg PUBLIC "-//W3C//DTD SVG 1.1//EN"
 "http://www.w3.org/Graphics/SVG/1.1/DTD/svg11.dtd">
<!-- Generated by graphviz version 2.40.1 (20161225.0304)
 -->
<!-- Title: Graphical Class Hierarchy Pages: 1 -->
<svg width="368pt" height="128pt"
 viewBox="0.00 0.00 367.80 128.00" xmlns="http://www.w3.org/2000/svg" xmlns:xlink="http://www.w3.org/1999/xlink">
<g id="graph0" class="graph" transform="scale(1 1) rotate(0) translate(4 124)">
<title>Graphical Class Hierarchy</title>
<polygon fill="#ffffff" stroke="transparent" points="-4,4 -4,-124 363.7988,-124 363.7988,4 -4,4"/>
<!-- Node0 -->
<g id="node1" class="node">
<title>Node0</title>
<g id="a_node1"><a xlink:href="structmfem_1_1TVector.html" target="_top" xlink:title="mfem::TVector\&lt; N1 *N2\l *N3, complex_t, align \&gt;">
<polygon fill="#ffffff" stroke="#000000" points="0,-41.5 0,-77.5 164.2441,-77.5 164.2441,-41.5 0,-41.5"/>
<text text-anchor="start" x="8" y="-62.3" font-family="Helvetica,sans-Serif" font-size="14.00" fill="#000000">mfem::TVector&lt; N1 *N2</text>
<text text-anchor="middle" x="82.1221" y="-48.3" font-family="Helvetica,sans-Serif" font-size="14.00" fill="#000000"> *N3, complex_t, align &gt;</text>
</a>
</g>
</g>
<!-- Node1 -->
<g id="node2" class="node">
<title>Node1</title>
<g id="a_node2"><a xlink:href="structmfem_1_1TTensor3.html" target="_top" xlink:title="mfem::TTensor3\&lt; dofs,\l vdim, NE, complex_t,\l true \&gt;">
<polygon fill="#ffffff" stroke="#000000" points="200.2441,-69.5 200.2441,-119.5 359.7988,-119.5 359.7988,-69.5 200.2441,-69.5"/>
<text text-anchor="start" x="208.2441" y="-104.3" font-family="Helvetica,sans-Serif" font-size="14.00" fill="#000000">mfem::TTensor3&lt; dofs,</text>
<text text-anchor="start" x="208.2441" y="-90.3" font-family="Helvetica,sans-Serif" font-size="14.00" fill="#000000"> vdim, NE, complex_t,</text>
<text text-anchor="middle" x="280.0215" y="-76.3" font-family="Helvetica,sans-Serif" font-size="14.00" fill="#000000"> true &gt;</text>
</a>
</g>
</g>
<!-- Node0&#45;&gt;Node1 -->
<g id="edge1" class="edge">
<title>Node0&#45;&gt;Node1</title>
<path fill="none" stroke="#191970" d="M174.3379,-75.8091C182.9029,-77.3238 191.5354,-78.8506 199.9773,-80.3436"/>
<polygon fill="#191970" stroke="#191970" points="174.7867,-72.3342 164.33,-74.0391 173.5676,-79.2272 174.7867,-72.3342"/>
</g>
<!-- Node2 -->
<g id="node3" class="node">
<title>Node2</title>
<g id="a_node3"><a xlink:href="structmfem_1_1TTensor3.html" target="_top" xlink:title="mfem::TTensor3\&lt; qpts,\l vdim, NE, complex_t,\l true \&gt;">
<polygon fill="#ffffff" stroke="#000000" points="200.2441,-.5 200.2441,-50.5 359.7988,-50.5 359.7988,-.5 200.2441,-.5"/>
<text text-anchor="start" x="208.2441" y="-35.3" font-family="Helvetica,sans-Serif" font-size="14.00" fill="#000000">mfem::TTensor3&lt; qpts,</text>
<text text-anchor="start" x="208.2441" y="-21.3" font-family="Helvetica,sans-Serif" font-size="14.00" fill="#000000"> vdim, NE, complex_t,</text>
<text text-anchor="middle" x="280.0215" y="-7.3" font-family="Helvetica,sans-Serif" font-size="14.00" fill="#000000"> true &gt;</text>
</a>
</g>
</g>
<!-- Node0&#45;&gt;Node2 -->
<g id="edge2" class="edge">
<title>Node0&#45;&gt;Node2</title>
<path fill="none" stroke="#191970" d="M174.3379,-43.6569C182.9029,-42.1854 191.5354,-40.7023 199.9773,-39.252"/>
<polygon fill="#191970" stroke="#191970" points="173.5929,-40.2335 164.33,-45.3763 174.7782,-47.1325 173.5929,-40.2335"/>
</g>
</g>
</svg>
