<?xml version="1.0" encoding="UTF-8" standalone="no"?>
<!DOCTYPE svg PUBLIC "-//W3C//DTD SVG 1.1//EN"
 "http://www.w3.org/Graphics/SVG/1.1/DTD/svg11.dtd">
<!-- Generated by graphviz version 2.26.3 (20100126.1600)
 -->
<!-- Title: Graphical Class Hierarchy Pages: 1 -->
<svg width="442pt" height="64pt"
 viewBox="0.00 0.00 442.00 64.00" xmlns="http://www.w3.org/2000/svg" xmlns:xlink="http://www.w3.org/1999/xlink">
<g id="graph1" class="graph" transform="scale(1 1) rotate(0) translate(4 60)">
<title>Graphical Class Hierarchy</title>
<polygon fill="white" stroke="white" points="-4,5 -4,-60 439,-60 439,5 -4,5"/>
<!-- Node1 -->
<g id="node1" class="node"><title>Node1</title>
<a xlink:href="classmfem_1_1TFiniteElementSpace__simple.html" target="_top" xlink:title="mfem::TFiniteElementSpace\l_simple\&lt; FE, DGIndexer\l\&lt; FE \&gt; \&gt;">
<polygon fill="white" stroke="black" points="0,-0 0,-56 192,-56 192,-0 0,-0"/>
<text text-anchor="start" x="8" y="-39.4" font-family="Helvetica,sans-Serif" font-size="14.00">mfem::TFiniteElementSpace</text>
<text text-anchor="start" x="8" y="-23.4" font-family="Helvetica,sans-Serif" font-size="14.00">_simple&lt; FE, DGIndexer</text>
<text text-anchor="middle" x="96" y="-7.4" font-family="Helvetica,sans-Serif" font-size="14.00">&lt; FE &gt; &gt;</text>
</a>
</g>
<!-- Node2 -->
<g id="node3" class="node"><title>Node2</title>
<a xlink:href="classmfem_1_1L2__FiniteElementSpace.html" target="_top" xlink:title="mfem::L2_FiniteElementSpace\l\&lt; FE \&gt;">
<polygon fill="white" stroke="black" points="228,-8 228,-48 434,-48 434,-8 228,-8"/>
<text text-anchor="start" x="236" y="-31.4" font-family="Helvetica,sans-Serif" font-size="14.00">mfem::L2_FiniteElementSpace</text>
<text text-anchor="middle" x="331" y="-15.4" font-family="Helvetica,sans-Serif" font-size="14.00">&lt; FE &gt;</text>
</a>
</g>
<!-- Node1&#45;&gt;Node2 -->
<g id="edge2" class="edge"><title>Node1&#45;&gt;Node2</title>
<path fill="none" stroke="midnightblue" d="M202.435,-28C210.816,-28 219.272,-28 227.632,-28"/>
<polygon fill="midnightblue" stroke="midnightblue" points="202.262,-24.5001 192.262,-28 202.262,-31.5001 202.262,-24.5001"/>
</g>
</g>
</svg>
