<?xml version="1.0" encoding="UTF-8" standalone="no"?>
<!DOCTYPE svg PUBLIC "-//W3C//DTD SVG 1.1//EN"
 "http://www.w3.org/Graphics/SVG/1.1/DTD/svg11.dtd">
<!-- Generated by graphviz version 2.30.1 (20140821.0912)
 -->
<!-- Title: Graphical Class Hierarchy Pages: 1 -->
<svg width="372pt" height="74pt"
 viewBox="0.00 0.00 372.00 74.00" xmlns="http://www.w3.org/2000/svg" xmlns:xlink="http://www.w3.org/1999/xlink">
<g id="graph0" class="graph" transform="scale(1 1) rotate(0) translate(4 70)">
<title>Graphical Class Hierarchy</title>
<polygon fill="white" stroke="white" points="-4,5 -4,-70 369,-70 369,5 -4,5"/>
<!-- Node1 -->
<g id="node1" class="node"><title>Node1</title>
<g id="a_node1"><a xlink:href="classmfem_1_1DataCollection.html" target="_top" xlink:title="mfem::DataCollection">
<polygon fill="white" stroke="black" points="0.5,-21.5 0.5,-44.5 147.5,-44.5 147.5,-21.5 0.5,-21.5"/>
<text text-anchor="middle" x="74" y="-29.3" font-family="Helvetica,sans-Serif" font-size="14.00">mfem::DataCollection</text>
</a>
</g>
</g>
<!-- Node2 -->
<g id="node2" class="node"><title>Node2</title>
<g id="a_node2"><a xlink:href="classmfem_1_1SidreDataCollection.html" target="_top" xlink:title="Data collection with Sidre routines following the Conduit mesh blueprint specification. ">
<polygon fill="white" stroke="black" points="184.5,-42.5 184.5,-65.5 363.5,-65.5 363.5,-42.5 184.5,-42.5"/>
<text text-anchor="middle" x="274" y="-50.3" font-family="Helvetica,sans-Serif" font-size="14.00">mfem::SidreDataCollection</text>
</a>
</g>
</g>
<!-- Node1&#45;&gt;Node2 -->
<g id="edge1" class="edge"><title>Node1&#45;&gt;Node2</title>
<path fill="none" stroke="midnightblue" d="M157.775,-41.7791C166.521,-42.7068 175.442,-43.6529 184.253,-44.5874"/>
<polygon fill="midnightblue" stroke="midnightblue" points="157.917,-38.2747 147.604,-40.7004 157.179,-45.2356 157.917,-38.2747"/>
</g>
<!-- Node3 -->
<g id="node3" class="node"><title>Node3</title>
<g id="a_node3"><a xlink:href="classmfem_1_1VisItDataCollection.html" target="_top" xlink:title="Data collection with VisIt I/O routines. ">
<polygon fill="white" stroke="black" points="187.5,-0.5 187.5,-23.5 360.5,-23.5 360.5,-0.5 187.5,-0.5"/>
<text text-anchor="middle" x="274" y="-8.3" font-family="Helvetica,sans-Serif" font-size="14.00">mfem::VisItDataCollection</text>
</a>
</g>
</g>
<!-- Node1&#45;&gt;Node3 -->
<g id="edge2" class="edge"><title>Node1&#45;&gt;Node3</title>
<path fill="none" stroke="midnightblue" d="M157.703,-24.2284C167.487,-23.1908 177.489,-22.13 187.313,-21.0881"/>
<polygon fill="midnightblue" stroke="midnightblue" points="157.179,-20.7644 147.604,-25.2996 157.917,-27.7253 157.179,-20.7644"/>
</g>
</g>
</svg>
