<?xml version="1.0" encoding="UTF-8" standalone="no"?>
<!DOCTYPE svg PUBLIC "-//W3C//DTD SVG 1.1//EN"
 "http://www.w3.org/Graphics/SVG/1.1/DTD/svg11.dtd">
<!-- Generated by graphviz version 2.40.1 (20161225.0304)
 -->
<!-- Title: Graphical Class Hierarchy Pages: 1 -->
<svg width="368pt" height="59pt"
 viewBox="0.00 0.00 367.78 59.00" xmlns="http://www.w3.org/2000/svg" xmlns:xlink="http://www.w3.org/1999/xlink">
<g id="graph0" class="graph" transform="scale(1 1) rotate(0) translate(4 55)">
<title>Graphical Class Hierarchy</title>
<polygon fill="#ffffff" stroke="transparent" points="-4,4 -4,-55 363.7783,-55 363.7783,4 -4,4"/>
<!-- Node0 -->
<g id="node1" class="node">
<title>Node0</title>
<g id="a_node1"><a xlink:href="structmfem_1_1TVector.html" target="_top" xlink:title="mfem::TVector\&lt; N1 *N2\l *N3 *N4, real_t, align \&gt;">
<polygon fill="#ffffff" stroke="#000000" points="0,-7.5 0,-43.5 164.2236,-43.5 164.2236,-7.5 0,-7.5"/>
<text text-anchor="start" x="8" y="-28.3" font-family="Helvetica,sans-Serif" font-size="14.00" fill="#000000">mfem::TVector&lt; N1 *N2</text>
<text text-anchor="middle" x="82.1118" y="-14.3" font-family="Helvetica,sans-Serif" font-size="14.00" fill="#000000"> *N3 *N4, real_t, align &gt;</text>
</a>
</g>
</g>
<!-- Node1 -->
<g id="node2" class="node">
<title>Node1</title>
<g id="a_node2"><a xlink:href="structmfem_1_1TTensor4.html" target="_top" xlink:title="mfem::TTensor4\&lt; qpts,\l dim, sdim, NE, real\l_t, true \&gt;">
<polygon fill="#ffffff" stroke="#000000" points="200.2236,-.5 200.2236,-50.5 359.7783,-50.5 359.7783,-.5 200.2236,-.5"/>
<text text-anchor="start" x="208.2236" y="-35.3" font-family="Helvetica,sans-Serif" font-size="14.00" fill="#000000">mfem::TTensor4&lt; qpts,</text>
<text text-anchor="start" x="208.2236" y="-21.3" font-family="Helvetica,sans-Serif" font-size="14.00" fill="#000000"> dim, sdim, NE, real</text>
<text text-anchor="middle" x="280.001" y="-7.3" font-family="Helvetica,sans-Serif" font-size="14.00" fill="#000000">_t, true &gt;</text>
</a>
</g>
</g>
<!-- Node0&#45;&gt;Node1 -->
<g id="edge1" class="edge">
<title>Node0&#45;&gt;Node1</title>
<path fill="none" stroke="#191970" d="M174.3229,-25.5C182.8874,-25.5 191.5195,-25.5 199.9609,-25.5"/>
<polygon fill="#191970" stroke="#191970" points="174.3155,-22.0001 164.3155,-25.5 174.3154,-29.0001 174.3155,-22.0001"/>
</g>
</g>
</svg>
