<?xml version="1.0" encoding="UTF-8" standalone="no"?>
<!DOCTYPE svg PUBLIC "-//W3C//DTD SVG 1.1//EN"
 "http://www.w3.org/Graphics/SVG/1.1/DTD/svg11.dtd">
<!-- Generated by graphviz version 2.40.1 (20161225.0304)
 -->
<!-- Title: Graphical Class Hierarchy Pages: 1 -->
<svg width="473pt" height="72pt"
 viewBox="0.00 0.00 472.69 72.00" xmlns="http://www.w3.org/2000/svg" xmlns:xlink="http://www.w3.org/1999/xlink">
<g id="graph0" class="graph" transform="scale(1 1) rotate(0) translate(4 68)">
<title>Graphical Class Hierarchy</title>
<polygon fill="#ffffff" stroke="transparent" points="-4,4 -4,-68 468.6885,-68 468.6885,4 -4,4"/>
<!-- Node153 -->
<g id="node1" class="node">
<title>Node153</title>
<polygon fill="#ffffff" stroke="#bfbfbf" points="0,-20.5 0,-42.5 78.248,-42.5 78.248,-20.5 0,-20.5"/>
<text text-anchor="middle" x="39.124" y="-27.3" font-family="Helvetica,sans-Serif" font-size="14.00" fill="#000000">streambuf</text>
</g>
<!-- Node0 -->
<g id="node2" class="node">
<title>Node0</title>
<g id="a_node2"><a xlink:href="classmfem_1_1gzstreambuf.html" target="_top" xlink:title="mfem::gzstreambuf">
<polygon fill="#ffffff" stroke="#000000" points="114.248,-41.5 114.248,-63.5 250.0615,-63.5 250.0615,-41.5 114.248,-41.5"/>
<text text-anchor="middle" x="182.1548" y="-48.3" font-family="Helvetica,sans-Serif" font-size="14.00" fill="#000000">mfem::gzstreambuf</text>
</a>
</g>
</g>
<!-- Node153&#45;&gt;Node0 -->
<g id="edge1" class="edge">
<title>Node153&#45;&gt;Node0</title>
<path fill="none" stroke="#191970" d="M88.6815,-38.7761C96.8594,-39.9768 105.4615,-41.2398 113.9996,-42.4933"/>
<polygon fill="#191970" stroke="#191970" points="88.9888,-35.2838 78.5864,-37.2939 87.9719,-42.2095 88.9888,-35.2838"/>
</g>
<!-- Node155 -->
<g id="node3" class="node">
<title>Node155</title>
<g id="a_node3"><a xlink:href="classmfem_1_1socketbuf.html" target="_top" xlink:title="mfem::socketbuf">
<polygon fill="#ffffff" stroke="#000000" points="122.8032,-.5 122.8032,-22.5 241.5063,-22.5 241.5063,-.5 122.8032,-.5"/>
<text text-anchor="middle" x="182.1548" y="-7.3" font-family="Helvetica,sans-Serif" font-size="14.00" fill="#000000">mfem::socketbuf</text>
</a>
</g>
</g>
<!-- Node153&#45;&gt;Node155 -->
<g id="edge2" class="edge">
<title>Node153&#45;&gt;Node155</title>
<path fill="none" stroke="#191970" d="M88.8065,-24.5529C99.7469,-23.0231 111.4412,-21.3879 122.7225,-19.8104"/>
<polygon fill="#191970" stroke="#191970" points="88.0054,-21.1308 78.5864,-25.982 88.9748,-28.0633 88.0054,-21.1308"/>
</g>
<!-- Node156 -->
<g id="node4" class="node">
<title>Node156</title>
<g id="a_node4"><a xlink:href="classmfem_1_1GnuTLS__socketbuf.html" target="_top" xlink:title="mfem::GnuTLS_socketbuf">
<polygon fill="#ffffff" stroke="#000000" points="286.0615,-.5 286.0615,-22.5 464.6885,-22.5 464.6885,-.5 286.0615,-.5"/>
<text text-anchor="middle" x="375.375" y="-7.3" font-family="Helvetica,sans-Serif" font-size="14.00" fill="#000000">mfem::GnuTLS_socketbuf</text>
</a>
</g>
</g>
<!-- Node155&#45;&gt;Node156 -->
<g id="edge3" class="edge">
<title>Node155&#45;&gt;Node156</title>
<path fill="none" stroke="#191970" d="M251.7097,-11.5C262.7832,-11.5 274.3725,-11.5 285.8286,-11.5"/>
<polygon fill="#191970" stroke="#191970" points="251.7039,-8.0001 241.7038,-11.5 251.7038,-15.0001 251.7039,-8.0001"/>
</g>
</g>
</svg>
