<?xml version="1.0" encoding="UTF-8" standalone="no"?>
<!DOCTYPE svg PUBLIC "-//W3C//DTD SVG 1.1//EN"
 "http://www.w3.org/Graphics/SVG/1.1/DTD/svg11.dtd">
<!-- Generated by graphviz version 2.26.3 (20100126.1600)
 -->
<!-- Title: Graphical Class Hierarchy Pages: 1 -->
<svg width="916pt" height="246pt"
 viewBox="0.00 0.00 916.00 246.00" xmlns="http://www.w3.org/2000/svg" xmlns:xlink="http://www.w3.org/1999/xlink">
<g id="graph1" class="graph" transform="scale(1 1) rotate(0) translate(4 242)">
<title>Graphical Class Hierarchy</title>
<polygon fill="white" stroke="white" points="-4,5 -4,-242 913,-242 913,5 -4,5"/>
<!-- Node1 -->
<g id="node1" class="node"><title>Node1</title>
<a xlink:href="classmfem_1_1TProductIntegrationRule__base.html" target="_top" xlink:title="mfem::TProductIntegration\lRule_base\&lt; Dim, Q, real_t \&gt;">
<polygon fill="white" stroke="black" points="0,-116 0,-156 192,-156 192,-116 0,-116"/>
<text text-anchor="start" x="8" y="-139.4" font-family="Helvetica,sans-Serif" font-size="14.00">mfem::TProductIntegration</text>
<text text-anchor="middle" x="96" y="-123.4" font-family="Helvetica,sans-Serif" font-size="14.00">Rule_base&lt; Dim, Q, real_t &gt;</text>
</a>
</g>
<!-- Node2 -->
<g id="node3" class="node"><title>Node2</title>
<a xlink:href="classmfem_1_1TProductIntegrationRule.html" target="_top" xlink:title="mfem::TProductIntegration\lRule\&lt; Dim, Q, Order, real_t \&gt;">
<polygon fill="white" stroke="black" points="231,-145 231,-185 427,-185 427,-145 231,-145"/>
<text text-anchor="start" x="239" y="-168.4" font-family="Helvetica,sans-Serif" font-size="14.00">mfem::TProductIntegration</text>
<text text-anchor="middle" x="329" y="-152.4" font-family="Helvetica,sans-Serif" font-size="14.00">Rule&lt; Dim, Q, Order, real_t &gt;</text>
</a>
</g>
<!-- Node1&#45;&gt;Node2 -->
<g id="edge2" class="edge"><title>Node1&#45;&gt;Node2</title>
<path fill="none" stroke="midnightblue" d="M202.061,-149.201C211.649,-150.394 221.331,-151.599 230.847,-152.783"/>
<polygon fill="midnightblue" stroke="midnightblue" points="202.471,-145.725 192.115,-147.963 201.606,-152.671 202.471,-145.725"/>
</g>
<!-- Node3 -->
<g id="node5" class="node"><title>Node3</title>
<a xlink:href="classmfem_1_1TProductIntegrationRule.html" target="_top" xlink:title="mfem::TProductIntegration\lRule\&lt; Dim, Q, 2 *Q&#45;1, real_t \&gt;">
<polygon fill="white" stroke="black" points="228.5,-87 228.5,-127 429.5,-127 429.5,-87 228.5,-87"/>
<text text-anchor="start" x="236.5" y="-110.4" font-family="Helvetica,sans-Serif" font-size="14.00">mfem::TProductIntegration</text>
<text text-anchor="middle" x="329" y="-94.4" font-family="Helvetica,sans-Serif" font-size="14.00">Rule&lt; Dim, Q, 2 *Q&#45;1, real_t &gt;</text>
</a>
</g>
<!-- Node1&#45;&gt;Node3 -->
<g id="edge4" class="edge"><title>Node1&#45;&gt;Node3</title>
<path fill="none" stroke="midnightblue" d="M202.221,-122.779C210.87,-121.703 219.595,-120.617 228.203,-119.546"/>
<polygon fill="midnightblue" stroke="midnightblue" points="201.606,-119.329 192.115,-124.037 202.471,-126.275 201.606,-119.329"/>
</g>
<!-- Node4 -->
<g id="node7" class="node"><title>Node4</title>
<a xlink:href="classmfem_1_1GaussIntegrationRule.html" target="_top" xlink:title="mfem::GaussIntegrationRule\l\&lt; 1, Order/2+1, real_t \&gt;">
<polygon fill="white" stroke="black" points="466.5,-182 466.5,-222 659.5,-222 659.5,-182 466.5,-182"/>
<text text-anchor="start" x="474.5" y="-205.4" font-family="Helvetica,sans-Serif" font-size="14.00">mfem::GaussIntegrationRule</text>
<text text-anchor="middle" x="563" y="-189.4" font-family="Helvetica,sans-Serif" font-size="14.00">&lt; 1, Order/2+1, real_t &gt;</text>
</a>
</g>
<!-- Node3&#45;&gt;Node4 -->
<g id="edge6" class="edge"><title>Node3&#45;&gt;Node4</title>
<path fill="none" stroke="midnightblue" d="M419.167,-130.848C422.876,-132.468 426.502,-134.184 430,-136 448.235,-145.467 448.183,-154.769 466,-165 477.097,-171.373 489.5,-177.056 501.631,-181.943"/>
<polygon fill="midnightblue" stroke="midnightblue" points="420.386,-127.566 409.806,-127.018 417.735,-134.044 420.386,-127.566"/>
</g>
<!-- Node6 -->
<g id="node11" class="node"><title>Node6</title>
<a xlink:href="classmfem_1_1GaussIntegrationRule.html" target="_top" xlink:title="mfem::GaussIntegrationRule\l\&lt; 2, Order/2+1, real_t \&gt;">
<polygon fill="white" stroke="black" points="466.5,-116 466.5,-156 659.5,-156 659.5,-116 466.5,-116"/>
<text text-anchor="start" x="474.5" y="-139.4" font-family="Helvetica,sans-Serif" font-size="14.00">mfem::GaussIntegrationRule</text>
<text text-anchor="middle" x="563" y="-123.4" font-family="Helvetica,sans-Serif" font-size="14.00">&lt; 2, Order/2+1, real_t &gt;</text>
</a>
</g>
<!-- Node3&#45;&gt;Node6 -->
<g id="edge10" class="edge"><title>Node3&#45;&gt;Node6</title>
<path fill="none" stroke="midnightblue" d="M439.596,-120.706C448.482,-121.808 457.418,-122.915 466.198,-124.003"/>
<polygon fill="midnightblue" stroke="midnightblue" points="439.95,-117.223 429.595,-119.467 439.089,-124.17 439.95,-117.223"/>
</g>
<!-- Node8 -->
<g id="node15" class="node"><title>Node8</title>
<a xlink:href="classmfem_1_1GaussIntegrationRule.html" target="_top" xlink:title="mfem::GaussIntegrationRule\l\&lt; 3, Order/2+1, real_t \&gt;">
<polygon fill="white" stroke="black" points="466.5,-58 466.5,-98 659.5,-98 659.5,-58 466.5,-58"/>
<text text-anchor="start" x="474.5" y="-81.4" font-family="Helvetica,sans-Serif" font-size="14.00">mfem::GaussIntegrationRule</text>
<text text-anchor="middle" x="563" y="-65.4" font-family="Helvetica,sans-Serif" font-size="14.00">&lt; 3, Order/2+1, real_t &gt;</text>
</a>
</g>
<!-- Node3&#45;&gt;Node8 -->
<g id="edge14" class="edge"><title>Node3&#45;&gt;Node8</title>
<path fill="none" stroke="midnightblue" d="M439.596,-93.2936C448.482,-92.1923 457.418,-91.0849 466.198,-89.9969"/>
<polygon fill="midnightblue" stroke="midnightblue" points="439.089,-89.8297 429.595,-94.5331 439.95,-96.7765 439.089,-89.8297"/>
</g>
<!-- Node10 -->
<g id="node19" class="node"><title>Node10</title>
<a xlink:href="classmfem_1_1GaussIntegrationRule.html" target="_top" xlink:title="mfem::GaussIntegrationRule\l\&lt; Dim, Q, real_t \&gt;">
<polygon fill="white" stroke="black" points="466.5,-0 466.5,-40 659.5,-40 659.5,-0 466.5,-0"/>
<text text-anchor="start" x="474.5" y="-23.4" font-family="Helvetica,sans-Serif" font-size="14.00">mfem::GaussIntegrationRule</text>
<text text-anchor="middle" x="563" y="-7.4" font-family="Helvetica,sans-Serif" font-size="14.00">&lt; Dim, Q, real_t &gt;</text>
</a>
</g>
<!-- Node3&#45;&gt;Node10 -->
<g id="edge18" class="edge"><title>Node3&#45;&gt;Node10</title>
<path fill="none" stroke="midnightblue" d="M382.286,-82.8301C407.423,-71.8456 437.986,-59.0831 466,-49 474.517,-45.9344 483.533,-42.9286 492.502,-40.0826"/>
<polygon fill="midnightblue" stroke="midnightblue" points="380.679,-79.7134 372.935,-86.9436 383.498,-86.1208 380.679,-79.7134"/>
</g>
<!-- Node5 -->
<g id="node9" class="node"><title>Node5</title>
<a xlink:href="classmfem_1_1TIntegrationRule_3_01Geometry_1_1SEGMENT_00_01Order_00_01real__t_01_4.html" target="_top" xlink:title="mfem::TIntegrationRule\l\&lt; Geometry::SEGMENT, Order,\l real_t \&gt;">
<polygon fill="white" stroke="black" points="696.5,-182 696.5,-238 907.5,-238 907.5,-182 696.5,-182"/>
<text text-anchor="start" x="704.5" y="-221.4" font-family="Helvetica,sans-Serif" font-size="14.00">mfem::TIntegrationRule</text>
<text text-anchor="start" x="704.5" y="-205.4" font-family="Helvetica,sans-Serif" font-size="14.00">&lt; Geometry::SEGMENT, Order,</text>
<text text-anchor="middle" x="802" y="-189.4" font-family="Helvetica,sans-Serif" font-size="14.00"> real_t &gt;</text>
</a>
</g>
<!-- Node4&#45;&gt;Node5 -->
<g id="edge8" class="edge"><title>Node4&#45;&gt;Node5</title>
<path fill="none" stroke="midnightblue" d="M669.753,-205.573C678.514,-205.867 687.368,-206.163 696.123,-206.456"/>
<polygon fill="midnightblue" stroke="midnightblue" points="669.633,-202.067 659.522,-205.231 669.399,-209.064 669.633,-202.067"/>
</g>
<!-- Node7 -->
<g id="node13" class="node"><title>Node7</title>
<a xlink:href="classmfem_1_1TIntegrationRule_3_01Geometry_1_1SQUARE_00_01Order_00_01real__t_01_4.html" target="_top" xlink:title="mfem::TIntegrationRule\l\&lt; Geometry::SQUARE, Order,\l real_t \&gt;">
<polygon fill="white" stroke="black" points="701.5,-108 701.5,-164 902.5,-164 902.5,-108 701.5,-108"/>
<text text-anchor="start" x="709.5" y="-147.4" font-family="Helvetica,sans-Serif" font-size="14.00">mfem::TIntegrationRule</text>
<text text-anchor="start" x="709.5" y="-131.4" font-family="Helvetica,sans-Serif" font-size="14.00">&lt; Geometry::SQUARE, Order,</text>
<text text-anchor="middle" x="802" y="-115.4" font-family="Helvetica,sans-Serif" font-size="14.00"> real_t &gt;</text>
</a>
</g>
<!-- Node6&#45;&gt;Node7 -->
<g id="edge12" class="edge"><title>Node6&#45;&gt;Node7</title>
<path fill="none" stroke="midnightblue" d="M669.562,-136C680.09,-136 690.752,-136 701.219,-136"/>
<polygon fill="midnightblue" stroke="midnightblue" points="669.522,-132.5 659.522,-136 669.522,-139.5 669.522,-132.5"/>
</g>
<!-- Node9 -->
<g id="node17" class="node"><title>Node9</title>
<a xlink:href="classmfem_1_1TIntegrationRule_3_01Geometry_1_1CUBE_00_01Order_00_01real__t_01_4.html" target="_top" xlink:title="mfem::TIntegrationRule\l\&lt; Geometry::CUBE, Order,\l real_t \&gt;">
<polygon fill="white" stroke="black" points="711,-34 711,-90 893,-90 893,-34 711,-34"/>
<text text-anchor="start" x="719" y="-73.4" font-family="Helvetica,sans-Serif" font-size="14.00">mfem::TIntegrationRule</text>
<text text-anchor="start" x="719" y="-57.4" font-family="Helvetica,sans-Serif" font-size="14.00">&lt; Geometry::CUBE, Order,</text>
<text text-anchor="middle" x="802" y="-41.4" font-family="Helvetica,sans-Serif" font-size="14.00"> real_t &gt;</text>
</a>
</g>
<!-- Node8&#45;&gt;Node9 -->
<g id="edge16" class="edge"><title>Node8&#45;&gt;Node9</title>
<path fill="none" stroke="midnightblue" d="M669.529,-70.8684C683.343,-69.9436 697.392,-69.0031 710.924,-68.0971"/>
<polygon fill="midnightblue" stroke="midnightblue" points="669.265,-67.3781 659.522,-71.5383 669.733,-74.3624 669.265,-67.3781"/>
</g>
</g>
</svg>
