<?xml version="1.0" encoding="UTF-8" standalone="no"?>
<!DOCTYPE svg PUBLIC "-//W3C//DTD SVG 1.1//EN"
 "http://www.w3.org/Graphics/SVG/1.1/DTD/svg11.dtd">
<!-- Generated by graphviz version 2.30.1 (20170916.1124)
 -->
<!-- Title: Graphical Class Hierarchy Pages: 1 -->
<svg width="430pt" height="426pt"
 viewBox="0.00 0.00 430.00 426.00" xmlns="http://www.w3.org/2000/svg" xmlns:xlink="http://www.w3.org/1999/xlink">
<g id="graph0" class="graph" transform="scale(1 1) rotate(0) translate(4 422)">
<title>Graphical Class Hierarchy</title>
<polygon fill="white" stroke="white" points="-4,5 -4,-422 427,-422 427,5 -4,5"/>
<!-- Node1 -->
<g id="node1" class="node"><title>Node1</title>
<g id="a_node1"><a xlink:href="classmfem_1_1MatrixCoefficient.html" target="_top" xlink:title="mfem::MatrixCoefficient">
<polygon fill="white" stroke="black" points="0.5,-205.5 0.5,-228.5 161.5,-228.5 161.5,-205.5 0.5,-205.5"/>
<text text-anchor="middle" x="81" y="-213.3" font-family="Helvetica,sans-Serif" font-size="14.00">mfem::MatrixCoefficient</text>
</a>
</g>
</g>
<!-- Node2 -->
<g id="node2" class="node"><title>Node2</title>
<g id="a_node2"><a xlink:href="classmfem_1_1IdentityMatrixCoefficient.html" target="_top" xlink:title="Matrix coefficient defined as the identity of dimension d. ">
<polygon fill="white" stroke="black" points="208,-394.5 208,-417.5 412,-417.5 412,-394.5 208,-394.5"/>
<text text-anchor="middle" x="310" y="-402.3" font-family="Helvetica,sans-Serif" font-size="14.00">mfem::IdentityMatrixCoefficient</text>
</a>
</g>
</g>
<!-- Node1&#45;&gt;Node2 -->
<g id="edge1" class="edge"><title>Node1&#45;&gt;Node2</title>
<path fill="none" stroke="midnightblue" d="M90.2841,-238.338C105.611,-274.778 142.024,-348.587 198,-385 203.754,-388.743 210.01,-391.855 216.522,-394.439"/>
<polygon fill="midnightblue" stroke="midnightblue" points="93.3767,-236.652 86.363,-228.711 86.8938,-239.293 93.3767,-236.652"/>
</g>
<!-- Node3 -->
<g id="node3" class="node"><title>Node3</title>
<g id="a_node3"><a xlink:href="classmfem_1_1InverseMatrixCoefficient.html" target="_top" xlink:title="Matrix coefficient defined as the inverse a matrix. ">
<polygon fill="white" stroke="black" points="207.5,-352.5 207.5,-375.5 412.5,-375.5 412.5,-352.5 207.5,-352.5"/>
<text text-anchor="middle" x="310" y="-360.3" font-family="Helvetica,sans-Serif" font-size="14.00">mfem::InverseMatrixCoefficient</text>
</a>
</g>
</g>
<!-- Node1&#45;&gt;Node3 -->
<g id="edge2" class="edge"><title>Node1&#45;&gt;Node3</title>
<path fill="none" stroke="midnightblue" d="M94.6074,-237.429C113.385,-265.977 151.523,-317.195 198,-343 204.773,-346.761 212.099,-349.861 219.645,-352.414"/>
<polygon fill="midnightblue" stroke="midnightblue" points="97.3438,-235.213 88.9976,-228.686 91.4522,-238.993 97.3438,-235.213"/>
</g>
<!-- Node4 -->
<g id="node4" class="node"><title>Node4</title>
<g id="a_node4"><a xlink:href="classmfem_1_1MatrixArrayCoefficient.html" target="_top" xlink:title="mfem::MatrixArrayCoefficient">
<polygon fill="white" stroke="black" points="213.5,-310.5 213.5,-333.5 406.5,-333.5 406.5,-310.5 213.5,-310.5"/>
<text text-anchor="middle" x="310" y="-318.3" font-family="Helvetica,sans-Serif" font-size="14.00">mfem::MatrixArrayCoefficient</text>
</a>
</g>
</g>
<!-- Node1&#45;&gt;Node4 -->
<g id="edge3" class="edge"><title>Node1&#45;&gt;Node4</title>
<path fill="none" stroke="midnightblue" d="M101.65,-235.481C123.458,-254.912 160.541,-284.859 198,-301 206.826,-304.803 216.339,-307.92 225.955,-310.473"/>
<polygon fill="midnightblue" stroke="midnightblue" points="103.827,-232.73 94.0704,-228.599 99.1212,-237.913 103.827,-232.73"/>
</g>
<!-- Node5 -->
<g id="node5" class="node"><title>Node5</title>
<g id="a_node5"><a xlink:href="classmfem_1_1MatrixConstantCoefficient.html" target="_top" xlink:title="mfem::MatrixConstantCoefficient">
<polygon fill="white" stroke="black" points="202.5,-268.5 202.5,-291.5 417.5,-291.5 417.5,-268.5 202.5,-268.5"/>
<text text-anchor="middle" x="310" y="-276.3" font-family="Helvetica,sans-Serif" font-size="14.00">mfem::MatrixConstantCoefficient</text>
</a>
</g>
</g>
<!-- Node1&#45;&gt;Node5 -->
<g id="edge4" class="edge"><title>Node1&#45;&gt;Node5</title>
<path fill="none" stroke="midnightblue" d="M119.685,-232.384C142.139,-241.111 171.367,-251.71 198,-259 211.053,-262.573 225.133,-265.745 238.739,-268.474"/>
<polygon fill="midnightblue" stroke="midnightblue" points="120.779,-229.053 110.192,-228.65 118.217,-235.567 120.779,-229.053"/>
</g>
<!-- Node6 -->
<g id="node6" class="node"><title>Node6</title>
<g id="a_node6"><a xlink:href="classmfem_1_1MatrixFunctionCoefficient.html" target="_top" xlink:title="mfem::MatrixFunctionCoefficient">
<polygon fill="white" stroke="black" points="204,-226.5 204,-249.5 416,-249.5 416,-226.5 204,-226.5"/>
<text text-anchor="middle" x="310" y="-234.3" font-family="Helvetica,sans-Serif" font-size="14.00">mfem::MatrixFunctionCoefficient</text>
</a>
</g>
</g>
<!-- Node1&#45;&gt;Node6 -->
<g id="edge5" class="edge"><title>Node1&#45;&gt;Node6</title>
<path fill="none" stroke="midnightblue" d="M171.758,-225.304C182.341,-226.283 193.212,-227.288 203.981,-228.285"/>
<polygon fill="midnightblue" stroke="midnightblue" points="171.992,-221.81 161.713,-224.374 171.348,-228.781 171.992,-221.81"/>
</g>
<!-- Node7 -->
<g id="node7" class="node"><title>Node7</title>
<g id="a_node7"><a xlink:href="classmfem_1_1MatrixRestrictedCoefficient.html" target="_top" xlink:title="MatrixCoefficient defined on a subset of domain or boundary attributes. ">
<polygon fill="white" stroke="black" points="199.5,-184.5 199.5,-207.5 420.5,-207.5 420.5,-184.5 199.5,-184.5"/>
<text text-anchor="middle" x="310" y="-192.3" font-family="Helvetica,sans-Serif" font-size="14.00">mfem::MatrixRestrictedCoefficient</text>
</a>
</g>
</g>
<!-- Node1&#45;&gt;Node7 -->
<g id="edge6" class="edge"><title>Node1&#45;&gt;Node7</title>
<path fill="none" stroke="midnightblue" d="M171.782,-208.694C180.791,-207.861 190.009,-207.008 199.194,-206.158"/>
<polygon fill="midnightblue" stroke="midnightblue" points="171.348,-205.219 161.713,-209.626 171.992,-212.19 171.348,-205.219"/>
</g>
<!-- Node8 -->
<g id="node8" class="node"><title>Node8</title>
<g id="a_node8"><a xlink:href="classmfem_1_1MatrixSumCoefficient.html" target="_top" xlink:title="Matrix coefficient defined as the sum of two matrix coefficients. ">
<polygon fill="white" stroke="black" points="215.5,-142.5 215.5,-165.5 404.5,-165.5 404.5,-142.5 215.5,-142.5"/>
<text text-anchor="middle" x="310" y="-150.3" font-family="Helvetica,sans-Serif" font-size="14.00">mfem::MatrixSumCoefficient</text>
</a>
</g>
</g>
<!-- Node1&#45;&gt;Node8 -->
<g id="edge7" class="edge"><title>Node1&#45;&gt;Node8</title>
<path fill="none" stroke="midnightblue" d="M119.685,-201.616C142.139,-192.889 171.367,-182.29 198,-175 211.053,-171.427 225.133,-168.255 238.739,-165.526"/>
<polygon fill="midnightblue" stroke="midnightblue" points="118.217,-198.433 110.192,-205.35 120.779,-204.947 118.217,-198.433"/>
</g>
<!-- Node9 -->
<g id="node9" class="node"><title>Node9</title>
<g id="a_node9"><a xlink:href="classmfem_1_1OuterProductCoefficient.html" target="_top" xlink:title="Matrix coefficient defined as the outer product of two vectors. ">
<polygon fill="white" stroke="black" points="208,-100.5 208,-123.5 412,-123.5 412,-100.5 208,-100.5"/>
<text text-anchor="middle" x="310" y="-108.3" font-family="Helvetica,sans-Serif" font-size="14.00">mfem::OuterProductCoefficient</text>
</a>
</g>
</g>
<!-- Node1&#45;&gt;Node9 -->
<g id="edge8" class="edge"><title>Node1&#45;&gt;Node9</title>
<path fill="none" stroke="midnightblue" d="M101.65,-198.519C123.458,-179.088 160.541,-149.141 198,-133 206.826,-129.197 216.339,-126.08 225.955,-123.527"/>
<polygon fill="midnightblue" stroke="midnightblue" points="99.1212,-196.087 94.0704,-205.401 103.827,-201.27 99.1212,-196.087"/>
</g>
<!-- Node10 -->
<g id="node10" class="node"><title>Node10</title>
<g id="a_node10"><a xlink:href="classmfem_1_1ScalarMatrixProductCoefficient.html" target="_top" xlink:title="Matrix coefficient defined as a product of a scalar and a matrix. ">
<polygon fill="white" stroke="black" points="219,-43 219,-81 401,-81 401,-43 219,-43"/>
<text text-anchor="start" x="227" y="-65.8" font-family="Helvetica,sans-Serif" font-size="14.00">mfem::ScalarMatrixProduct</text>
<text text-anchor="middle" x="310" y="-50.8" font-family="Helvetica,sans-Serif" font-size="14.00">Coefficient</text>
</a>
</g>
</g>
<!-- Node1&#45;&gt;Node10 -->
<g id="edge9" class="edge"><title>Node1&#45;&gt;Node10</title>
<path fill="none" stroke="midnightblue" d="M95.1454,-196.577C114.322,-168.467 152.663,-118.245 198,-91 204.487,-87.1014 211.495,-83.7212 218.724,-80.7914"/>
<polygon fill="midnightblue" stroke="midnightblue" points="92.0326,-194.936 89.3943,-205.198 97.8557,-198.821 92.0326,-194.936"/>
</g>
<!-- Node11 -->
<g id="node11" class="node"><title>Node11</title>
<g id="a_node11"><a xlink:href="classmfem_1_1TransposeMatrixCoefficient.html" target="_top" xlink:title="Matrix coefficient defined as the transpose a matrix. ">
<polygon fill="white" stroke="black" points="198,-0.5 198,-23.5 422,-23.5 422,-0.5 198,-0.5"/>
<text text-anchor="middle" x="310" y="-8.3" font-family="Helvetica,sans-Serif" font-size="14.00">mfem::TransposeMatrixCoefficient</text>
</a>
</g>
</g>
<!-- Node1&#45;&gt;Node11 -->
<g id="edge10" class="edge"><title>Node1&#45;&gt;Node11</title>
<path fill="none" stroke="midnightblue" d="M89.1662,-195.476C103.317,-156.525 138.721,-74.6203 198,-34 204.158,-29.7801 210.934,-26.3283 218.008,-23.5094"/>
<polygon fill="midnightblue" stroke="midnightblue" points="85.7439,-194.659 85.7364,-205.254 92.3493,-196.976 85.7439,-194.659"/>
</g>
</g>
</svg>
