<?xml version="1.0" encoding="UTF-8" standalone="no"?>
<!DOCTYPE svg PUBLIC "-//W3C//DTD SVG 1.1//EN"
 "http://www.w3.org/Graphics/SVG/1.1/DTD/svg11.dtd">
<!-- Generated by graphviz version 2.30.1 (20140821.0912)
 -->
<!-- Title: Graphical Class Hierarchy Pages: 1 -->
<svg width="348pt" height="46pt"
 viewBox="0.00 0.00 348.00 46.00" xmlns="http://www.w3.org/2000/svg" xmlns:xlink="http://www.w3.org/1999/xlink">
<g id="graph0" class="graph" transform="scale(1 1) rotate(0) translate(4 42)">
<title>Graphical Class Hierarchy</title>
<polygon fill="white" stroke="white" points="-4,5 -4,-42 345,-42 345,5 -4,5"/>
<!-- Node1 -->
<g id="node1" class="node"><title>Node1</title>
<g id="a_node1"><a xlink:href="structmfem_1_1TVector.html" target="_top" xlink:title="mfem::TVector\&lt; N1 *N2,\l data_t, align \&gt;">
<polygon fill="white" stroke="black" points="0,-0 0,-38 166,-38 166,-0 0,-0"/>
<text text-anchor="start" x="8" y="-22.8" font-family="Helvetica,sans-Serif" font-size="14.00">mfem::TVector&lt; N1 *N2,</text>
<text text-anchor="middle" x="83" y="-7.8" font-family="Helvetica,sans-Serif" font-size="14.00"> data_t, align &gt;</text>
</a>
</g>
</g>
<!-- Node2 -->
<g id="node2" class="node"><title>Node2</title>
<g id="a_node2"><a xlink:href="structmfem_1_1TMatrix.html" target="_top" xlink:title="mfem::TMatrix\&lt; N1,\l N2, data_t, align \&gt;">
<polygon fill="white" stroke="black" points="202,-0 202,-38 340,-38 340,-0 202,-0"/>
<text text-anchor="start" x="210" y="-22.8" font-family="Helvetica,sans-Serif" font-size="14.00">mfem::TMatrix&lt; N1,</text>
<text text-anchor="middle" x="271" y="-7.8" font-family="Helvetica,sans-Serif" font-size="14.00"> N2, data_t, align &gt;</text>
</a>
</g>
</g>
<!-- Node1&#45;&gt;Node2 -->
<g id="edge1" class="edge"><title>Node1&#45;&gt;Node2</title>
<path fill="none" stroke="midnightblue" d="M176.263,-19C184.919,-19 193.584,-19 201.957,-19"/>
<polygon fill="midnightblue" stroke="midnightblue" points="176.124,-15.5001 166.124,-19 176.124,-22.5001 176.124,-15.5001"/>
</g>
</g>
</svg>
