<?xml version="1.0" encoding="UTF-8" standalone="no"?>
<!DOCTYPE svg PUBLIC "-//W3C//DTD SVG 1.1//EN"
 "http://www.w3.org/Graphics/SVG/1.1/DTD/svg11.dtd">
<!-- Generated by graphviz version 2.40.1 (20161225.0304)
 -->
<!-- Title: Graphical Class Hierarchy Pages: 1 -->
<svg width="360pt" height="59pt"
 viewBox="0.00 0.00 360.38 59.00" xmlns="http://www.w3.org/2000/svg" xmlns:xlink="http://www.w3.org/1999/xlink">
<g id="graph0" class="graph" transform="scale(1 1) rotate(0) translate(4 55)">
<title>Graphical Class Hierarchy</title>
<polygon fill="#ffffff" stroke="transparent" points="-4,4 -4,-55 356.3818,-55 356.3818,4 -4,4"/>
<!-- Node0 -->
<g id="node1" class="node">
<title>Node0</title>
<g id="a_node1"><a xlink:href="structmfem_1_1TVector.html" target="_top" xlink:title="mfem::TVector\&lt; N1 *N2,\l typename IR::real_type,\l false \&gt;">
<polygon fill="#ffffff" stroke="#000000" points="0,-.5 0,-50.5 168.5234,-50.5 168.5234,-.5 0,-.5"/>
<text text-anchor="start" x="8" y="-35.3" font-family="Helvetica,sans-Serif" font-size="14.00" fill="#000000">mfem::TVector&lt; N1 *N2,</text>
<text text-anchor="start" x="8" y="-21.3" font-family="Helvetica,sans-Serif" font-size="14.00" fill="#000000"> typename IR::real_type,</text>
<text text-anchor="middle" x="84.2617" y="-7.3" font-family="Helvetica,sans-Serif" font-size="14.00" fill="#000000"> false &gt;</text>
</a>
</g>
</g>
<!-- Node1 -->
<g id="node2" class="node">
<title>Node1</title>
<g id="a_node2"><a xlink:href="structmfem_1_1TMatrix.html" target="_top" xlink:title="mfem::TMatrix\&lt; qpts,\l 1, typename IR::real\l_type \&gt;">
<polygon fill="#ffffff" stroke="#000000" points="204.5234,-.5 204.5234,-50.5 352.3818,-50.5 352.3818,-.5 204.5234,-.5"/>
<text text-anchor="start" x="212.5234" y="-35.3" font-family="Helvetica,sans-Serif" font-size="14.00" fill="#000000">mfem::TMatrix&lt; qpts,</text>
<text text-anchor="start" x="212.5234" y="-21.3" font-family="Helvetica,sans-Serif" font-size="14.00" fill="#000000"> 1, typename IR::real</text>
<text text-anchor="middle" x="278.4526" y="-7.3" font-family="Helvetica,sans-Serif" font-size="14.00" fill="#000000">_type &gt;</text>
</a>
</g>
</g>
<!-- Node0&#45;&gt;Node1 -->
<g id="edge1" class="edge">
<title>Node0&#45;&gt;Node1</title>
<path fill="none" stroke="#191970" d="M178.653,-25.5C187.2504,-25.5 195.8762,-25.5 204.2603,-25.5"/>
<polygon fill="#191970" stroke="#191970" points="178.5895,-22.0001 168.5895,-25.5 178.5894,-29.0001 178.5895,-22.0001"/>
</g>
</g>
</svg>
