<?xml version="1.0" encoding="UTF-8" standalone="no"?>
<!DOCTYPE svg PUBLIC "-//W3C//DTD SVG 1.1//EN"
 "http://www.w3.org/Graphics/SVG/1.1/DTD/svg11.dtd">
<!-- Generated by graphviz version 2.26.3 (20100126.1600)
 -->
<!-- Title: Graphical Class Hierarchy Pages: 1 -->
<svg width="430pt" height="32pt"
 viewBox="0.00 0.00 430.00 32.00" xmlns="http://www.w3.org/2000/svg" xmlns:xlink="http://www.w3.org/1999/xlink">
<g id="graph1" class="graph" transform="scale(1 1) rotate(0) translate(4 28)">
<title>Graphical Class Hierarchy</title>
<polygon fill="white" stroke="white" points="-4,5 -4,-28 427,-28 427,5 -4,5"/>
<!-- Node1 -->
<g id="node1" class="node"><title>Node1</title>
<polygon fill="white" stroke="#bfbfbf" points="0,-0 0,-24 70,-24 70,-0 0,-0"/>
<text text-anchor="middle" x="35" y="-7.4" font-family="Helvetica,sans-Serif" font-size="14.00">iostream</text>
</g>
<!-- Node2 -->
<g id="node3" class="node"><title>Node2</title>
<a xlink:href="classmfem_1_1socketstream.html" target="_top" xlink:title="mfem::socketstream">
<polygon fill="white" stroke="black" points="106.5,-0 106.5,-24 247.5,-24 247.5,-0 106.5,-0"/>
<text text-anchor="middle" x="177" y="-7.4" font-family="Helvetica,sans-Serif" font-size="14.00">mfem::socketstream</text>
</a>
</g>
<!-- Node1&#45;&gt;Node2 -->
<g id="edge2" class="edge"><title>Node1&#45;&gt;Node2</title>
<path fill="none" stroke="midnightblue" d="M80.2746,-12C88.5673,-12 97.4014,-12 106.231,-12"/>
<polygon fill="midnightblue" stroke="midnightblue" points="80.1012,-8.5001 70.1011,-12 80.1011,-15.5001 80.1012,-8.5001"/>
</g>
<!-- Node3 -->
<g id="node5" class="node"><title>Node3</title>
<a xlink:href="classmfem_1_1osockstream.html" target="_top" xlink:title="mfem::osockstream">
<polygon fill="white" stroke="black" points="284,-0 284,-24 422,-24 422,-0 284,-0"/>
<text text-anchor="middle" x="353" y="-7.4" font-family="Helvetica,sans-Serif" font-size="14.00">mfem::osockstream</text>
</a>
</g>
<!-- Node2&#45;&gt;Node3 -->
<g id="edge4" class="edge"><title>Node2&#45;&gt;Node3</title>
<path fill="none" stroke="midnightblue" d="M257.744,-12C266.463,-12 275.279,-12 283.845,-12"/>
<polygon fill="midnightblue" stroke="midnightblue" points="257.572,-8.5001 247.572,-12 257.572,-15.5001 257.572,-8.5001"/>
</g>
</g>
</svg>
