<?xml version="1.0" encoding="UTF-8" standalone="no"?>
<!DOCTYPE svg PUBLIC "-//W3C//DTD SVG 1.1//EN"
 "http://www.w3.org/Graphics/SVG/1.1/DTD/svg11.dtd">
<!-- Generated by graphviz version 2.30.1 (20140821.0912)
 -->
<!-- Title: Graphical Class Hierarchy Pages: 1 -->
<svg width="568pt" height="441pt"
 viewBox="0.00 0.00 568.00 441.00" xmlns="http://www.w3.org/2000/svg" xmlns:xlink="http://www.w3.org/1999/xlink">
<g id="graph0" class="graph" transform="scale(1 1) rotate(0) translate(4 437)">
<title>Graphical Class Hierarchy</title>
<polygon fill="white" stroke="white" points="-4,5 -4,-437 565,-437 565,5 -4,5"/>
<!-- Node1 -->
<g id="node1" class="node"><title>Node1</title>
<g id="a_node1"><a xlink:href="classmfem_1_1Coefficient.html" target="_top" xlink:title="Base class Coefficient that may optionally depend on time. ">
<polygon fill="white" stroke="black" points="0.5,-189.5 0.5,-212.5 123.5,-212.5 123.5,-189.5 0.5,-189.5"/>
<text text-anchor="middle" x="62" y="-197.3" font-family="Helvetica,sans-Serif" font-size="14.00">mfem::Coefficient</text>
</a>
</g>
</g>
<!-- Node2 -->
<g id="node2" class="node"><title>Node2</title>
<g id="a_node2"><a xlink:href="classmfem_1_1ConstantCoefficient.html" target="_top" xlink:title="Subclass constant coefficient. ">
<polygon fill="white" stroke="black" points="172.5,-409.5 172.5,-432.5 349.5,-432.5 349.5,-409.5 172.5,-409.5"/>
<text text-anchor="middle" x="261" y="-417.3" font-family="Helvetica,sans-Serif" font-size="14.00">mfem::ConstantCoefficient</text>
</a>
</g>
</g>
<!-- Node1&#45;&gt;Node2 -->
<g id="edge1" class="edge"><title>Node1&#45;&gt;Node2</title>
<path fill="none" stroke="midnightblue" d="M67.0071,-222.494C75.8911,-263.803 101.287,-354.232 160,-400 164.757,-403.708 170.014,-406.802 175.555,-409.379"/>
<polygon fill="midnightblue" stroke="midnightblue" points="70.4308,-221.766 65.009,-212.663 63.571,-223.16 70.4308,-221.766"/>
</g>
<!-- Node3 -->
<g id="node3" class="node"><title>Node3</title>
<g id="a_node3"><a xlink:href="classmfem_1_1DeltaCoefficient.html" target="_top" xlink:title="Delta function coefficient. ">
<polygon fill="white" stroke="black" points="183.5,-367.5 183.5,-390.5 338.5,-390.5 338.5,-367.5 183.5,-367.5"/>
<text text-anchor="middle" x="261" y="-375.3" font-family="Helvetica,sans-Serif" font-size="14.00">mfem::DeltaCoefficient</text>
</a>
</g>
</g>
<!-- Node1&#45;&gt;Node3 -->
<g id="edge2" class="edge"><title>Node1&#45;&gt;Node3</title>
<path fill="none" stroke="midnightblue" d="M69.9715,-222.05C82.3768,-256.075 111.625,-322.79 160,-357 167.039,-361.978 175,-365.859 183.282,-368.881"/>
<polygon fill="midnightblue" stroke="midnightblue" points="73.2735,-220.89 66.6597,-212.613 66.6683,-223.207 73.2735,-220.89"/>
</g>
<!-- Node4 -->
<g id="node4" class="node"><title>Node4</title>
<g id="a_node4"><a xlink:href="classmfem_1_1electromagnetics_1_1JouleHeatingCoefficient.html" target="_top" xlink:title="mfem::electromagnetics\l::JouleHeatingCoefficient">
<polygon fill="white" stroke="black" points="177.5,-310 177.5,-348 344.5,-348 344.5,-310 177.5,-310"/>
<text text-anchor="start" x="185.5" y="-332.8" font-family="Helvetica,sans-Serif" font-size="14.00">mfem::electromagnetics</text>
<text text-anchor="middle" x="261" y="-317.8" font-family="Helvetica,sans-Serif" font-size="14.00">::JouleHeatingCoefficient</text>
</a>
</g>
</g>
<!-- Node1&#45;&gt;Node4 -->
<g id="edge3" class="edge"><title>Node1&#45;&gt;Node4</title>
<path fill="none" stroke="midnightblue" d="M77.288,-220.804C94.4705,-243.215 125.36,-279.286 160,-300 166.283,-303.757 173.081,-307.051 180.074,-309.935"/>
<polygon fill="midnightblue" stroke="midnightblue" points="79.9904,-218.574 71.1933,-212.669 74.3883,-222.771 79.9904,-218.574"/>
</g>
<!-- Node5 -->
<g id="node5" class="node"><title>Node5</title>
<g id="a_node5"><a xlink:href="classmfem_1_1electromagnetics_1_1MeshDependentCoefficient.html" target="_top" xlink:title="mfem::electromagnetics\l::MeshDependentCoefficient">
<polygon fill="white" stroke="black" points="167,-253 167,-291 355,-291 355,-253 167,-253"/>
<text text-anchor="start" x="175" y="-275.8" font-family="Helvetica,sans-Serif" font-size="14.00">mfem::electromagnetics</text>
<text text-anchor="middle" x="261" y="-260.8" font-family="Helvetica,sans-Serif" font-size="14.00">::MeshDependentCoefficient</text>
</a>
</g>
</g>
<!-- Node1&#45;&gt;Node5 -->
<g id="edge4" class="edge"><title>Node1&#45;&gt;Node5</title>
<path fill="none" stroke="midnightblue" d="M96.5485,-216.772C115.038,-225.147 138.532,-235.274 160,-243 169.695,-246.489 180.03,-249.862 190.24,-252.997"/>
<polygon fill="midnightblue" stroke="midnightblue" points="97.923,-213.552 87.3733,-212.574 95.0108,-219.917 97.923,-213.552"/>
</g>
<!-- Node6 -->
<g id="node6" class="node"><title>Node6</title>
<g id="a_node6"><a xlink:href="classmfem_1_1ExtrudeCoefficient.html" target="_top" xlink:title="Class used for extruding scalar GridFunctions. ">
<polygon fill="white" stroke="black" points="176,-210.5 176,-233.5 346,-233.5 346,-210.5 176,-210.5"/>
<text text-anchor="middle" x="261" y="-218.3" font-family="Helvetica,sans-Serif" font-size="14.00">mfem::ExtrudeCoefficient</text>
</a>
</g>
</g>
<!-- Node1&#45;&gt;Node6 -->
<g id="edge5" class="edge"><title>Node1&#45;&gt;Node6</title>
<path fill="none" stroke="midnightblue" d="M133.959,-208.564C147.577,-210.016 161.959,-211.549 175.943,-213.04"/>
<polygon fill="midnightblue" stroke="midnightblue" points="134.029,-205.052 123.714,-207.472 133.287,-212.012 134.029,-205.052"/>
</g>
<!-- Node7 -->
<g id="node7" class="node"><title>Node7</title>
<g id="a_node7"><a xlink:href="classmfem_1_1FunctionCoefficient.html" target="_top" xlink:title="class for C&#45;function coefficient ">
<polygon fill="white" stroke="black" points="173.5,-168.5 173.5,-191.5 348.5,-191.5 348.5,-168.5 173.5,-168.5"/>
<text text-anchor="middle" x="261" y="-176.3" font-family="Helvetica,sans-Serif" font-size="14.00">mfem::FunctionCoefficient</text>
</a>
</g>
</g>
<!-- Node1&#45;&gt;Node7 -->
<g id="edge6" class="edge"><title>Node1&#45;&gt;Node7</title>
<path fill="none" stroke="midnightblue" d="M133.842,-193.448C146.675,-192.08 160.19,-190.64 173.415,-189.23"/>
<polygon fill="midnightblue" stroke="midnightblue" points="133.287,-189.988 123.714,-194.528 134.029,-196.948 133.287,-189.988"/>
</g>
<!-- Node8 -->
<g id="node8" class="node"><title>Node8</title>
<g id="a_node8"><a xlink:href="classmfem_1_1GridFunctionCoefficient.html" target="_top" xlink:title="Coefficient defined by a GridFunction. This coefficient is mesh dependent. ">
<polygon fill="white" stroke="black" points="160.5,-126.5 160.5,-149.5 361.5,-149.5 361.5,-126.5 160.5,-126.5"/>
<text text-anchor="middle" x="261" y="-134.3" font-family="Helvetica,sans-Serif" font-size="14.00">mfem::GridFunctionCoefficient</text>
</a>
</g>
</g>
<!-- Node1&#45;&gt;Node8 -->
<g id="edge7" class="edge"><title>Node1&#45;&gt;Node8</title>
<path fill="none" stroke="midnightblue" d="M95.2006,-185.109C113.788,-176.434 137.81,-166.054 160,-159 171.327,-155.399 183.575,-152.245 195.485,-149.549"/>
<polygon fill="midnightblue" stroke="midnightblue" points="93.5515,-182.017 86.0147,-189.463 96.5501,-188.342 93.5515,-182.017"/>
</g>
<!-- Node10 -->
<g id="node10" class="node"><title>Node10</title>
<g id="a_node10"><a xlink:href="classmfem_1_1PWConstCoefficient.html" target="_top" xlink:title="class for piecewise constant coefficient ">
<polygon fill="white" stroke="black" points="170.5,-84.5 170.5,-107.5 351.5,-107.5 351.5,-84.5 170.5,-84.5"/>
<text text-anchor="middle" x="261" y="-92.3" font-family="Helvetica,sans-Serif" font-size="14.00">mfem::PWConstCoefficient</text>
</a>
</g>
</g>
<!-- Node1&#45;&gt;Node10 -->
<g id="edge9" class="edge"><title>Node1&#45;&gt;Node10</title>
<path fill="none" stroke="midnightblue" d="M79.594,-181.781C97.4591,-162.367 127.693,-133.02 160,-117 167.629,-113.217 175.912,-110.115 184.337,-107.57"/>
<polygon fill="midnightblue" stroke="midnightblue" points="76.8053,-179.648 72.7248,-189.425 82.012,-184.326 76.8053,-179.648"/>
</g>
<!-- Node11 -->
<g id="node11" class="node"><title>Node11</title>
<g id="a_node11"><a xlink:href="classmfem_1_1RestrictedCoefficient.html" target="_top" xlink:title="Coefficient defined on a subset of domain or boundary attributes. ">
<polygon fill="white" stroke="black" points="169,-42.5 169,-65.5 353,-65.5 353,-42.5 169,-42.5"/>
<text text-anchor="middle" x="261" y="-50.3" font-family="Helvetica,sans-Serif" font-size="14.00">mfem::RestrictedCoefficient</text>
</a>
</g>
</g>
<!-- Node1&#45;&gt;Node11 -->
<g id="edge10" class="edge"><title>Node1&#45;&gt;Node11</title>
<path fill="none" stroke="midnightblue" d="M72.9357,-180.322C87.7436,-151.85 118.386,-101.139 160,-75 166.009,-71.2256 172.581,-68.118 179.395,-65.561"/>
<polygon fill="midnightblue" stroke="midnightblue" points="69.7414,-178.883 68.3663,-189.388 75.9924,-182.033 69.7414,-178.883"/>
</g>
<!-- Node12 -->
<g id="node12" class="node"><title>Node12</title>
<g id="a_node12"><a xlink:href="classmfem_1_1TransformedCoefficient.html" target="_top" xlink:title="mfem::TransformedCoefficient">
<polygon fill="white" stroke="black" points="161,-0.5 161,-23.5 361,-23.5 361,-0.5 161,-0.5"/>
<text text-anchor="middle" x="261" y="-8.3" font-family="Helvetica,sans-Serif" font-size="14.00">mfem::TransformedCoefficient</text>
</a>
</g>
</g>
<!-- Node1&#45;&gt;Node12 -->
<g id="edge11" class="edge"><title>Node1&#45;&gt;Node12</title>
<path fill="none" stroke="midnightblue" d="M69.1179,-179.365C80.5722,-143.025 108.84,-70.0732 160,-33 165.171,-29.2526 170.866,-26.1439 176.834,-23.5683"/>
<polygon fill="midnightblue" stroke="midnightblue" points="65.6319,-178.803 66.0962,-189.388 72.3339,-180.824 65.6319,-178.803"/>
</g>
<!-- Node9 -->
<g id="node9" class="node"><title>Node9</title>
<g id="a_node9"><a xlink:href="classmfem_1_1electromagnetics_1_1ScaledGFCoefficient.html" target="_top" xlink:title="mfem::electromagnetics\l::ScaledGFCoefficient">
<polygon fill="white" stroke="black" points="398,-119 398,-157 560,-157 560,-119 398,-119"/>
<text text-anchor="start" x="406" y="-141.8" font-family="Helvetica,sans-Serif" font-size="14.00">mfem::electromagnetics</text>
<text text-anchor="middle" x="479" y="-126.8" font-family="Helvetica,sans-Serif" font-size="14.00">::ScaledGFCoefficient</text>
</a>
</g>
</g>
<!-- Node8&#45;&gt;Node9 -->
<g id="edge8" class="edge"><title>Node8&#45;&gt;Node9</title>
<path fill="none" stroke="midnightblue" d="M371.966,-138C380.647,-138 389.311,-138 397.734,-138"/>
<polygon fill="midnightblue" stroke="midnightblue" points="371.781,-134.5 361.781,-138 371.78,-141.5 371.781,-134.5"/>
</g>
</g>
</svg>
