<?xml version="1.0" encoding="UTF-8" standalone="no"?>
<!DOCTYPE svg PUBLIC "-//W3C//DTD SVG 1.1//EN"
 "http://www.w3.org/Graphics/SVG/1.1/DTD/svg11.dtd">
<!-- Generated by graphviz version 2.30.1 (20140821.0912)
 -->
<!-- Title: Graphical Class Hierarchy Pages: 1 -->
<svg width="364pt" height="134pt"
 viewBox="0.00 0.00 364.00 134.00" xmlns="http://www.w3.org/2000/svg" xmlns:xlink="http://www.w3.org/1999/xlink">
<g id="graph0" class="graph" transform="scale(1 1) rotate(0) translate(4 130)">
<title>Graphical Class Hierarchy</title>
<polygon fill="white" stroke="white" points="-4,5 -4,-130 361,-130 361,5 -4,5"/>
<!-- Node1 -->
<g id="node1" class="node"><title>Node1</title>
<g id="a_node1"><a xlink:href="structmfem_1_1TVector.html" target="_top" xlink:title="mfem::TVector\&lt; N1 *N2\l *N3, complex_t, align \&gt;">
<polygon fill="white" stroke="black" points="0,-44 0,-82 162,-82 162,-44 0,-44"/>
<text text-anchor="start" x="8" y="-66.8" font-family="Helvetica,sans-Serif" font-size="14.00">mfem::TVector&lt; N1 *N2</text>
<text text-anchor="middle" x="81" y="-51.8" font-family="Helvetica,sans-Serif" font-size="14.00"> *N3, complex_t, align &gt;</text>
</a>
</g>
</g>
<!-- Node2 -->
<g id="node2" class="node"><title>Node2</title>
<g id="a_node2"><a xlink:href="structmfem_1_1TTensor3.html" target="_top" xlink:title="mfem::TTensor3\&lt; dofs,\l vdim, NE, complex_t,\l true \&gt;">
<polygon fill="white" stroke="black" points="198,-72.5 198,-125.5 356,-125.5 356,-72.5 198,-72.5"/>
<text text-anchor="start" x="206" y="-110.3" font-family="Helvetica,sans-Serif" font-size="14.00">mfem::TTensor3&lt; dofs,</text>
<text text-anchor="start" x="206" y="-95.3" font-family="Helvetica,sans-Serif" font-size="14.00"> vdim, NE, complex_t,</text>
<text text-anchor="middle" x="277" y="-80.3" font-family="Helvetica,sans-Serif" font-size="14.00"> true &gt;</text>
</a>
</g>
</g>
<!-- Node1&#45;&gt;Node2 -->
<g id="edge1" class="edge"><title>Node1&#45;&gt;Node2</title>
<path fill="none" stroke="midnightblue" d="M172.045,-79.7093C180.62,-81.3006 189.268,-82.9055 197.72,-84.4737"/>
<polygon fill="midnightblue" stroke="midnightblue" points="172.498,-76.2338 162.027,-77.8504 171.221,-83.1163 172.498,-76.2338"/>
</g>
<!-- Node3 -->
<g id="node3" class="node"><title>Node3</title>
<g id="a_node3"><a xlink:href="structmfem_1_1TTensor3.html" target="_top" xlink:title="mfem::TTensor3\&lt; qpts,\l vdim, NE, complex_t,\l true \&gt;">
<polygon fill="white" stroke="black" points="198,-0.5 198,-53.5 356,-53.5 356,-0.5 198,-0.5"/>
<text text-anchor="start" x="206" y="-38.3" font-family="Helvetica,sans-Serif" font-size="14.00">mfem::TTensor3&lt; qpts,</text>
<text text-anchor="start" x="206" y="-23.3" font-family="Helvetica,sans-Serif" font-size="14.00"> vdim, NE, complex_t,</text>
<text text-anchor="middle" x="277" y="-8.3" font-family="Helvetica,sans-Serif" font-size="14.00"> true &gt;</text>
</a>
</g>
</g>
<!-- Node1&#45;&gt;Node3 -->
<g id="edge2" class="edge"><title>Node1&#45;&gt;Node3</title>
<path fill="none" stroke="midnightblue" d="M172.045,-46.2907C180.62,-44.6994 189.268,-43.0945 197.72,-41.5263"/>
<polygon fill="midnightblue" stroke="midnightblue" points="171.221,-42.8837 162.027,-48.1496 172.498,-49.7662 171.221,-42.8837"/>
</g>
</g>
</svg>
