<?xml version="1.0" encoding="UTF-8" standalone="no"?>
<!DOCTYPE svg PUBLIC "-//W3C//DTD SVG 1.1//EN"
 "http://www.w3.org/Graphics/SVG/1.1/DTD/svg11.dtd">
<!-- Generated by graphviz version 2.40.1 (20161225.0304)
 -->
<!-- Title: mfem::FieldEvaluator&lt; FESpace_t, VecLayout_t, IR, complex_t, real_t &gt;::AData&lt; 1, NE &gt; Pages: 1 -->
<!--zoomable 165 -->
<svg id="main" version="1.1" xmlns="http://www.w3.org/2000/svg" xmlns:xlink="http://www.w3.org/1999/xlink" xml:space="preserve" onload="init(evt)">
<style type="text/css"><![CDATA[
.edge:hover path { stroke: red; }
.edge:hover polygon { stroke: red; fill: red; }
]]></style>
<script type="text/javascript"><![CDATA[
var edges = document.getElementsByTagName('g');
if (edges && edges.length) {
  for (var i=0;i<edges.length;i++) {
    if (edges[i].id.substr(0,4)=='edge') {
      edges[i].setAttribute('class','edge');
    }
  }
}
]]></script>
        <defs>
                <circle id="rim" cx="0" cy="0" r="7"/>
                <circle id="rim2" cx="0" cy="0" r="3.5"/>
                <g id="zoomPlus">
                        <use xlink:href="#rim" fill="#404040">
                                <set attributeName="fill" to="#808080" begin="zoomplus.mouseover" end="zoomplus.mouseout"/>
                        </use>
                        <path d="M-4,0h8M0,-4v8" fill="none" stroke="white" stroke-width="1.5" pointer-events="none"/>
                </g>
                <g id="zoomMin">
                        <use xlink:href="#rim" fill="#404040">
                                <set attributeName="fill" to="#808080" begin="zoomminus.mouseover" end="zoomminus.mouseout"/>
                        </use>
                        <path d="M-4,0h8" fill="none" stroke="white" stroke-width="1.5" pointer-events="none"/>
                </g>
                <g id="dirArrow">
                        <path fill="none" stroke="white" stroke-width="1.5" d="M0,-3.0v7 M-2.5,-0.5L0,-3.0L2.5,-0.5"/>
                </g>
               <g id="resetDef">
                       <use xlink:href="#rim2" fill="#404040">
                               <set attributeName="fill" to="#808080" begin="reset.mouseover" end="reset.mouseout"/>
                       </use>
               </g>
        </defs>

<script type="text/javascript">
var viewWidth = 940;
var viewHeight = 165;
var sectionId = 'dynsection-0';
</script>
<script xlink:href="svgpan.js"/>
<svg id="graph" class="graph">
<g id="viewport">
<title>mfem::FieldEvaluator&lt; FESpace_t, VecLayout_t, IR, complex_t, real_t &gt;::AData&lt; 1, NE &gt;</title>
<polygon fill="#ffffff" stroke="transparent" points="-4,4 -4,-161 936.2725,-161 936.2725,4 -4,4"/>
<!-- Node1 -->
<g id="node1" class="node">
<title>Node1</title>
<polygon fill="#bfbfbf" stroke="#000000" points="761.7734,-32.5 761.7734,-96.5 932.2725,-96.5 932.2725,-32.5 761.7734,-32.5"/>
<text text-anchor="start" x="769.7734" y="-81.3" font-family="Helvetica,sans-Serif" font-size="14.00" fill="#000000">mfem::FieldEvaluator</text>
<text text-anchor="start" x="769.7734" y="-67.3" font-family="Helvetica,sans-Serif" font-size="14.00" fill="#000000">&lt; FESpace_t, VecLayout</text>
<text text-anchor="start" x="769.7734" y="-53.3" font-family="Helvetica,sans-Serif" font-size="14.00" fill="#000000">_t, IR, complex_t, real</text>
<text text-anchor="middle" x="847.0229" y="-39.3" font-family="Helvetica,sans-Serif" font-size="14.00" fill="#000000">_t &gt;::AData&lt; 1, NE &gt;</text>
</g>
<!-- Node2 -->
<g id="node2" class="node">
<title>Node2</title>
<g id="a_node2"><a xlink:href="structmfem_1_1TTensor3.html" target="_top" xlink:title="mfem::TTensor3\&lt; dofs,\l vdim, NE, complex_t,\l true \&gt;">
<polygon fill="#ffffff" stroke="#000000" points="509.7983,-9.5 509.7983,-59.5 669.353,-59.5 669.353,-9.5 509.7983,-9.5"/>
<text text-anchor="start" x="517.7983" y="-44.3" font-family="Helvetica,sans-Serif" font-size="14.00" fill="#000000">mfem::TTensor3&lt; dofs,</text>
<text text-anchor="start" x="517.7983" y="-30.3" font-family="Helvetica,sans-Serif" font-size="14.00" fill="#000000"> vdim, NE, complex_t,</text>
<text text-anchor="middle" x="589.5757" y="-16.3" font-family="Helvetica,sans-Serif" font-size="14.00" fill="#000000"> true &gt;</text>
</a>
</g>
</g>
<!-- Node2&#45;&gt;Node1 -->
<g id="edge1" class="edge">
<title>Node2&#45;&gt;Node1</title>
<path fill="none" stroke="#9a32cd" stroke-dasharray="5,2" d="M679.695,-45.0015C706.3147,-48.1034 735.3615,-51.4882 761.6711,-54.5541"/>
<polygon fill="#9a32cd" stroke="#9a32cd" points="679.9603,-41.5088 669.6224,-43.8277 679.15,-48.4618 679.9603,-41.5088"/>
<text text-anchor="middle" x="715.7563" y="-54.3" font-family="Helvetica,sans-Serif" font-size="14.00" fill="#000000"> val_dofs</text>
</g>
<!-- Node3 -->
<g id="node3" class="node">
<title>Node3</title>
<g id="a_node3"><a xlink:href="structmfem_1_1TVector.html" target="_top" xlink:title="mfem::TVector\&lt; N1 *N2\l *N3, complex_t, align \&gt;">
<polygon fill="#ffffff" stroke="#000000" points="254.1182,-65.5 254.1182,-101.5 418.3623,-101.5 418.3623,-65.5 254.1182,-65.5"/>
<text text-anchor="start" x="262.1182" y="-86.3" font-family="Helvetica,sans-Serif" font-size="14.00" fill="#000000">mfem::TVector&lt; N1 *N2</text>
<text text-anchor="middle" x="336.2402" y="-72.3" font-family="Helvetica,sans-Serif" font-size="14.00" fill="#000000"> *N3, complex_t, align &gt;</text>
</a>
</g>
</g>
<!-- Node3&#45;&gt;Node2 -->
<g id="edge2" class="edge">
<title>Node3&#45;&gt;Node2</title>
<path fill="none" stroke="#191970" d="M428.751,-81.4816C449.5368,-79.7741 471.3672,-76.9836 491.4121,-72.5 505.3226,-69.3885 519.8693,-64.6454 533.3733,-59.5537"/>
<polygon fill="#191970" stroke="#191970" points="428.3553,-78.0013 418.6434,-82.2356 428.8761,-84.982 428.3553,-78.0013"/>
</g>
<!-- Node4 -->
<g id="node4" class="node">
<title>Node4</title>
<g id="a_node4"><a xlink:href="structmfem_1_1StridedLayout1D.html" target="_top" xlink:title="mfem::StridedLayout1D\l\&lt; N1, S1 \&gt;">
<polygon fill="#ffffff" stroke="#000000" points="0,-84.5 0,-120.5 163.0684,-120.5 163.0684,-84.5 0,-84.5"/>
<text text-anchor="start" x="8" y="-105.3" font-family="Helvetica,sans-Serif" font-size="14.00" fill="#000000">mfem::StridedLayout1D</text>
<text text-anchor="middle" x="81.5342" y="-91.3" font-family="Helvetica,sans-Serif" font-size="14.00" fill="#000000">&lt; N1, S1 &gt;</text>
</a>
</g>
</g>
<!-- Node4&#45;&gt;Node3 -->
<g id="edge3" class="edge">
<title>Node4&#45;&gt;Node3</title>
<path fill="none" stroke="#9a32cd" stroke-dasharray="5,2" d="M173.4939,-95.6402C199.7217,-93.6837 228.125,-91.5649 253.7499,-89.6534"/>
<polygon fill="#9a32cd" stroke="#9a32cd" points="172.8877,-92.1756 163.1758,-96.4099 173.4084,-99.1562 172.8877,-92.1756"/>
<text text-anchor="middle" x="201.6924" y="-97.3" font-family="Helvetica,sans-Serif" font-size="14.00" fill="#000000"> layout</text>
</g>
<!-- Node8 -->
<g id="node8" class="node">
<title>Node8</title>
<g id="a_node8"><a xlink:href="structmfem_1_1TVector.html" target="_top" xlink:title="mfem::TVector\&lt; N1 *N2\l *N3, complex_t, false \&gt;">
<polygon fill="#ffffff" stroke="#000000" points="254.1216,-120.5 254.1216,-156.5 418.3589,-156.5 418.3589,-120.5 254.1216,-120.5"/>
<text text-anchor="start" x="262.1216" y="-141.3" font-family="Helvetica,sans-Serif" font-size="14.00" fill="#000000">mfem::TVector&lt; N1 *N2</text>
<text text-anchor="middle" x="336.2402" y="-127.3" font-family="Helvetica,sans-Serif" font-size="14.00" fill="#000000"> *N3, complex_t, false &gt;</text>
</a>
</g>
</g>
<!-- Node4&#45;&gt;Node8 -->
<g id="edge8" class="edge">
<title>Node4&#45;&gt;Node8</title>
<path fill="none" stroke="#9a32cd" stroke-dasharray="5,2" d="M173.1458,-115.4483C199.4702,-119.169 228.0116,-123.203 253.7499,-126.8409"/>
<polygon fill="#9a32cd" stroke="#9a32cd" points="173.5672,-111.9732 163.1758,-114.0392 172.5875,-118.9043 173.5672,-111.9732"/>
<text text-anchor="middle" x="201.6924" y="-124.3" font-family="Helvetica,sans-Serif" font-size="14.00" fill="#000000"> layout</text>
</g>
<!-- Node5 -->
<g id="node5" class="node">
<title>Node5</title>
<g id="a_node5"><a xlink:href="structmfem_1_1ColumnMajorLayout3D.html" target="_top" xlink:title="mfem::ColumnMajorLayout3\lD\&lt; N1, N2, N3 \&gt;">
<polygon fill="#ffffff" stroke="#000000" points="240.3164,-7.5 240.3164,-43.5 432.1641,-43.5 432.1641,-7.5 240.3164,-7.5"/>
<text text-anchor="start" x="248.3164" y="-28.3" font-family="Helvetica,sans-Serif" font-size="14.00" fill="#000000">mfem::ColumnMajorLayout3</text>
<text text-anchor="middle" x="336.2402" y="-14.3" font-family="Helvetica,sans-Serif" font-size="14.00" fill="#000000">D&lt; N1, N2, N3 &gt;</text>
</a>
</g>
</g>
<!-- Node5&#45;&gt;Node2 -->
<g id="edge4" class="edge">
<title>Node5&#45;&gt;Node2</title>
<path fill="none" stroke="#9a32cd" stroke-dasharray="5,2" d="M442.4698,-20.1805C458.8681,-20.1051 475.6016,-20.4576 491.4121,-21.5 497.3302,-21.8902 503.436,-22.4113 509.5714,-23.0209"/>
<polygon fill="#9a32cd" stroke="#9a32cd" points="442.2792,-16.6821 432.3141,-20.2804 442.3481,-23.6817 442.2792,-16.6821"/>
<text text-anchor="middle" x="470.7881" y="-24.3" font-family="Helvetica,sans-Serif" font-size="14.00" fill="#000000"> layout</text>
</g>
<!-- Node7 -->
<g id="node7" class="node">
<title>Node7</title>
<g id="a_node7"><a xlink:href="structmfem_1_1TTensor3.html" target="_top" xlink:title="mfem::TTensor3\&lt; qpts,\l vdim, NE, complex_t \&gt;">
<polygon fill="#ffffff" stroke="#000000" points="509.4121,-78.5 509.4121,-114.5 669.7393,-114.5 669.7393,-78.5 509.4121,-78.5"/>
<text text-anchor="start" x="517.4121" y="-99.3" font-family="Helvetica,sans-Serif" font-size="14.00" fill="#000000">mfem::TTensor3&lt; qpts,</text>
<text text-anchor="middle" x="589.5757" y="-85.3" font-family="Helvetica,sans-Serif" font-size="14.00" fill="#000000"> vdim, NE, complex_t &gt;</text>
</a>
</g>
</g>
<!-- Node5&#45;&gt;Node7 -->
<g id="edge9" class="edge">
<title>Node5&#45;&gt;Node7</title>
<path fill="none" stroke="#9a32cd" stroke-dasharray="5,2" d="M410.5309,-46.3208C446.8123,-56.489 490.0523,-68.6075 524.9494,-78.3878"/>
<polygon fill="#9a32cd" stroke="#9a32cd" points="411.0685,-42.8366 400.495,-43.5081 409.1794,-49.5769 411.0685,-42.8366"/>
<text text-anchor="middle" x="470.7881" y="-69.3" font-family="Helvetica,sans-Serif" font-size="14.00" fill="#000000"> layout</text>
</g>
<!-- Node6 -->
<g id="node6" class="node">
<title>Node6</title>
<g id="a_node6"><a xlink:href="structmfem_1_1StridedLayout3D.html" target="_top" xlink:title="mfem::StridedLayout3D\l\&lt; N1, 1, N2, N1, N3,\l N1 *N2 \&gt;">
<polygon fill="#ffffff" stroke="#000000" points="0,-.5 0,-50.5 163.0684,-50.5 163.0684,-.5 0,-.5"/>
<text text-anchor="start" x="8" y="-35.3" font-family="Helvetica,sans-Serif" font-size="14.00" fill="#000000">mfem::StridedLayout3D</text>
<text text-anchor="start" x="8" y="-21.3" font-family="Helvetica,sans-Serif" font-size="14.00" fill="#000000">&lt; N1, 1, N2, N1, N3,</text>
<text text-anchor="middle" x="81.5342" y="-7.3" font-family="Helvetica,sans-Serif" font-size="14.00" fill="#000000"> N1 *N2 &gt;</text>
</a>
</g>
</g>
<!-- Node6&#45;&gt;Node5 -->
<g id="edge5" class="edge">
<title>Node6&#45;&gt;Node5</title>
<path fill="none" stroke="#191970" d="M173.3364,-25.5C194.9814,-25.5 218.1158,-25.5 239.9525,-25.5"/>
<polygon fill="#191970" stroke="#191970" points="173.1758,-22.0001 163.1758,-25.5 173.1757,-29.0001 173.1758,-22.0001"/>
</g>
<!-- Node7&#45;&gt;Node1 -->
<g id="edge6" class="edge">
<title>Node7&#45;&gt;Node1</title>
<path fill="none" stroke="#9a32cd" stroke-dasharray="5,2" d="M679.9895,-85.2618C706.4513,-81.9727 735.2895,-78.3882 761.4414,-75.1376"/>
<polygon fill="#9a32cd" stroke="#9a32cd" points="679.4665,-81.7998 669.9746,-86.5066 680.33,-88.7463 679.4665,-81.7998"/>
<text text-anchor="middle" x="715.7563" y="-85.3" font-family="Helvetica,sans-Serif" font-size="14.00" fill="#000000"> val_qpts</text>
</g>
<!-- Node8&#45;&gt;Node7 -->
<g id="edge7" class="edge">
<title>Node8&#45;&gt;Node7</title>
<path fill="none" stroke="#191970" d="M428.4867,-123.2066C454.8706,-118.8325 483.4106,-114.1009 509.0339,-109.8529"/>
<polygon fill="#191970" stroke="#191970" points="427.7839,-119.7753 418.491,-124.8638 428.9288,-126.681 427.7839,-119.7753"/>
</g>
</g>
</svg>
        <g id="navigator" transform="translate(0 0)" fill="#404254">
                <rect fill="#f2f5e9" fill-opacity="0.5" stroke="#606060" stroke-width=".5" x="0" y="0" width="60" height="60"/>
                <use id="zoomplus" xlink:href="#zoomPlus" x="17" y="9" onmousedown="handleZoom(evt,'in')"/>
                <use id="zoomminus" xlink:href="#zoomMin" x="42" y="9" onmousedown="handleZoom(evt,'out')"/>
                <use id="reset" xlink:href="#resetDef" x="30" y="36" onmousedown="handleReset()"/>
                <g id="arrowUp" xlink:href="#dirArrow" transform="translate(30 24)" onmousedown="handlePan(0,-1)">
                  <use xlink:href="#rim" fill="#404040">
                        <set attributeName="fill" to="#808080" begin="arrowUp.mouseover" end="arrowUp.mouseout"/>
                  </use>
                  <path fill="none" stroke="white" stroke-width="1.5" d="M0,-3.0v7 M-2.5,-0.5L0,-3.0L2.5,-0.5"/>
                </g>
                <g id="arrowRight" xlink:href="#dirArrow" transform="rotate(90) translate(36 -43)" onmousedown="handlePan(1,0)">
                  <use xlink:href="#rim" fill="#404040">
                        <set attributeName="fill" to="#808080" begin="arrowRight.mouseover" end="arrowRight.mouseout"/>
                  </use>
                  <path fill="none" stroke="white" stroke-width="1.5" d="M0,-3.0v7 M-2.5,-0.5L0,-3.0L2.5,-0.5"/>
                </g>
                <g id="arrowDown" xlink:href="#dirArrow" transform="rotate(180) translate(-30 -48)" onmousedown="handlePan(0,1)">
                  <use xlink:href="#rim" fill="#404040">
                        <set attributeName="fill" to="#808080" begin="arrowDown.mouseover" end="arrowDown.mouseout"/>
                  </use>
                  <path fill="none" stroke="white" stroke-width="1.5" d="M0,-3.0v7 M-2.5,-0.5L0,-3.0L2.5,-0.5"/>
                </g>
                <g id="arrowLeft" xlink:href="#dirArrow" transform="rotate(270) translate(-36 17)" onmousedown="handlePan(-1,0)">
                  <use xlink:href="#rim" fill="#404040">
                        <set attributeName="fill" to="#808080" begin="arrowLeft.mouseover" end="arrowLeft.mouseout"/>
                  </use>
                  <path fill="none" stroke="white" stroke-width="1.5" d="M0,-3.0v7 M-2.5,-0.5L0,-3.0L2.5,-0.5"/>
                </g>
        </g>
        <svg viewBox="0 0 15 15" width="100%" height="30px" preserveAspectRatio="xMaxYMin meet">
         <g id="arrow_out" transform="scale(0.3 0.3)">
          <a xlink:href="structmfem_1_1FieldEvaluator_1_1AData_3_011_00_01NE_01_4__coll__graph_org.svg" target="_base">
           <rect id="button" ry="5" rx="5" y="6" x="6" height="38" width="38"
                fill="#f2f5e9" fill-opacity="0.5" stroke="#606060" stroke-width="1.0"/>
           <path id="arrow"
             d="M 11.500037,31.436501 C 11.940474,20.09759 22.043105,11.32322 32.158766,21.979434 L 37.068811,17.246167 C 37.068811,17.246167 37.088388,32 37.088388,32 L 22.160133,31.978069 C 22.160133,31.978069 26.997745,27.140456 26.997745,27.140456 C 18.528582,18.264221 13.291696,25.230495 11.500037,31.436501 z"
             style="fill:#404040;"/>
          </a>
         </g>
        </svg>
</svg>
