<?xml version="1.0" encoding="UTF-8" standalone="no"?>
<!DOCTYPE svg PUBLIC "-//W3C//DTD SVG 1.1//EN"
 "http://www.w3.org/Graphics/SVG/1.1/DTD/svg11.dtd">
<!-- Generated by graphviz version 2.26.3 (20100126.1600)
 -->
<!-- Title: mfem::VarMessage&lt; Tag &gt; Pages: 1 -->
<svg width="190pt" height="192pt"
 viewBox="0.00 0.00 190.00 192.00" xmlns="http://www.w3.org/2000/svg" xmlns:xlink="http://www.w3.org/1999/xlink">
<g id="graph1" class="graph" transform="scale(1 1) rotate(0) translate(4 188)">
<title>mfem::VarMessage&lt; Tag &gt;</title>
<polygon fill="white" stroke="white" points="-4,5 -4,-188 187,-188 187,5 -4,5"/>
<!-- Node1 -->
<g id="node1" class="node"><title>Node1</title>
<polygon fill="#bfbfbf" stroke="black" points="-0.5,-1 -0.5,-25 182.5,-25 182.5,-1 -0.5,-1"/>
<text text-anchor="middle" x="91" y="-8.4" font-family="Helvetica,sans-Serif" font-size="14.00">mfem::VarMessage&lt; Tag &gt;</text>
</g>
<!-- Node2 -->
<g id="node2" class="node"><title>Node2</title>
<a xlink:title="STL class. ">
<polygon fill="white" stroke="#bfbfbf" points="52.5,-79 52.5,-103 129.5,-103 129.5,-79 52.5,-79"/>
<text text-anchor="middle" x="91" y="-86.4" font-family="Helvetica,sans-Serif" font-size="14.00">std::string</text>
</a>
</g>
<!-- Node2&#45;&gt;Node1 -->
<g id="edge2" class="edge"><title>Node2&#45;&gt;Node1</title>
<path fill="none" stroke="#9a32cd" stroke-dasharray="5,2" d="M91,-68.4171C91,-54.2848 91,-36.6343 91,-25.1019"/>
<polygon fill="#9a32cd" stroke="#9a32cd" points="87.5001,-68.8125 91,-78.8125 94.5001,-68.8125 87.5001,-68.8125"/>
<text text-anchor="middle" x="107" y="-47.4" font-family="Helvetica,sans-Serif" font-size="14.00"> data</text>
</g>
<!-- Node3 -->
<g id="node4" class="node"><title>Node3</title>
<a xlink:title="STL class. ">
<polygon fill="white" stroke="#bfbfbf" points="28.5,-143 28.5,-183 153.5,-183 153.5,-143 28.5,-143"/>
<text text-anchor="start" x="36.5" y="-166.4" font-family="Helvetica,sans-Serif" font-size="14.00">std::basic_string&lt;</text>
<text text-anchor="middle" x="91" y="-150.4" font-family="Helvetica,sans-Serif" font-size="14.00"> char &gt;</text>
</a>
</g>
<!-- Node3&#45;&gt;Node2 -->
<g id="edge4" class="edge"><title>Node3&#45;&gt;Node2</title>
<path fill="none" stroke="midnightblue" d="M91,-132.835C91,-122.364 91,-111.216 91,-103.064"/>
<polygon fill="midnightblue" stroke="midnightblue" points="87.5001,-132.944 91,-142.944 94.5001,-132.944 87.5001,-132.944"/>
</g>
</g>
</svg>
