<?xml version="1.0" encoding="UTF-8" standalone="no"?>
<!DOCTYPE svg PUBLIC "-//W3C//DTD SVG 1.1//EN"
 "http://www.w3.org/Graphics/SVG/1.1/DTD/svg11.dtd">
<!-- Generated by graphviz version 2.26.3 (20100126.1600)
 -->
<!-- Title: mfem::FieldEvaluator&lt; FESpace_t, VecLayout_t, IR, complex_t, real_t &gt;::AData&lt; 1, NE &gt; Pages: 1 -->
<svg width="942pt" height="192pt"
 viewBox="0.00 0.00 942.00 192.00" xmlns="http://www.w3.org/2000/svg" xmlns:xlink="http://www.w3.org/1999/xlink">
<g id="graph1" class="graph" transform="scale(1 1) rotate(0) translate(4 188)">
<title>mfem::FieldEvaluator&lt; FESpace_t, VecLayout_t, IR, complex_t, real_t &gt;::AData&lt; 1, NE &gt;</title>
<polygon fill="white" stroke="white" points="-4,5 -4,-188 939,-188 939,5 -4,5"/>
<!-- Node1 -->
<g id="node1" class="node"><title>Node1</title>
<polygon fill="#bfbfbf" stroke="black" points="764.5,-47 764.5,-119 933.5,-119 933.5,-47 764.5,-47"/>
<text text-anchor="start" x="772.5" y="-102.4" font-family="Helvetica,sans-Serif" font-size="14.00">mfem::FieldEvaluator</text>
<text text-anchor="start" x="772.5" y="-86.4" font-family="Helvetica,sans-Serif" font-size="14.00">&lt; FESpace_t, VecLayout</text>
<text text-anchor="start" x="772.5" y="-70.4" font-family="Helvetica,sans-Serif" font-size="14.00">_t, IR, complex_t, real</text>
<text text-anchor="middle" x="849" y="-54.4" font-family="Helvetica,sans-Serif" font-size="14.00">_t &gt;::AData&lt; 1, NE &gt;</text>
</g>
<!-- Node2 -->
<g id="node2" class="node"><title>Node2</title>
<a xlink:href="structmfem_1_1TTensor3.html" target="_top" xlink:title="mfem::TTensor3\&lt; dofs,\l vdim, NE, complex_t,\l true \&gt;">
<polygon fill="white" stroke="black" points="509.5,-19 509.5,-75 668.5,-75 668.5,-19 509.5,-19"/>
<text text-anchor="start" x="517.5" y="-58.4" font-family="Helvetica,sans-Serif" font-size="14.00">mfem::TTensor3&lt; dofs,</text>
<text text-anchor="start" x="517.5" y="-42.4" font-family="Helvetica,sans-Serif" font-size="14.00"> vdim, NE, complex_t,</text>
<text text-anchor="middle" x="589" y="-26.4" font-family="Helvetica,sans-Serif" font-size="14.00"> true &gt;</text>
</a>
</g>
<!-- Node2&#45;&gt;Node1 -->
<g id="edge2" class="edge"><title>Node2&#45;&gt;Node1</title>
<path fill="none" stroke="#9a32cd" stroke-dasharray="5,2" d="M678.862,-59.4425C706.602,-63.2833 737.044,-67.4984 764.415,-71.2882"/>
<polygon fill="#9a32cd" stroke="#9a32cd" points="679.161,-55.9505 668.776,-58.0458 678.201,-62.8844 679.161,-55.9505"/>
<text text-anchor="middle" x="717" y="-71.4" font-family="Helvetica,sans-Serif" font-size="14.00"> val_dofs</text>
</g>
<!-- Node3 -->
<g id="node4" class="node"><title>Node3</title>
<a xlink:href="structmfem_1_1TVector.html" target="_top" xlink:title="mfem::TVector\&lt; N1 *N2\l *N3, complex_t,align \&gt;">
<polygon fill="white" stroke="black" points="253,-72 253,-112 417,-112 417,-72 253,-72"/>
<text text-anchor="start" x="261" y="-95.4" font-family="Helvetica,sans-Serif" font-size="14.00">mfem::TVector&lt; N1 *N2</text>
<text text-anchor="middle" x="335" y="-79.4" font-family="Helvetica,sans-Serif" font-size="14.00"> *N3, complex_t,align &gt;</text>
</a>
</g>
<!-- Node3&#45;&gt;Node2 -->
<g id="edge4" class="edge"><title>Node3&#45;&gt;Node2</title>
<path fill="none" stroke="midnightblue" d="M427.286,-89.4025C448.055,-87.7248 469.895,-85.0929 490,-81 497.835,-79.4049 505.902,-77.3537 513.889,-75.0504"/>
<polygon fill="midnightblue" stroke="midnightblue" points="426.902,-85.9213 417.189,-90.1517 427.42,-92.9021 426.902,-85.9213"/>
</g>
<!-- Node4 -->
<g id="node6" class="node"><title>Node4</title>
<a xlink:href="structmfem_1_1StridedLayout1D.html" target="_top" xlink:title="mfem::StridedLayout1D\l\&lt; N1, S1 \&gt;">
<polygon fill="white" stroke="black" points="0,-140 0,-180 162,-180 162,-140 0,-140"/>
<text text-anchor="start" x="8" y="-163.4" font-family="Helvetica,sans-Serif" font-size="14.00">mfem::StridedLayout1D</text>
<text text-anchor="middle" x="81" y="-147.4" font-family="Helvetica,sans-Serif" font-size="14.00">&lt; N1, S1 &gt;</text>
</a>
</g>
<!-- Node4&#45;&gt;Node3 -->
<g id="edge6" class="edge"><title>Node4&#45;&gt;Node3</title>
<path fill="none" stroke="#9a32cd" stroke-dasharray="5,2" d="M172.087,-142.804C188.849,-138.843 206.075,-134.23 222,-129 230.317,-126.268 231.798,-124.061 240,-121 248.32,-117.894 257.137,-114.865 265.915,-112.006"/>
<polygon fill="#9a32cd" stroke="#9a32cd" points="171.245,-139.407 162.285,-145.061 172.815,-146.228 171.245,-139.407"/>
<text text-anchor="middle" x="201" y="-143.4" font-family="Helvetica,sans-Serif" font-size="14.00"> layout</text>
</g>
<!-- Node9 -->
<g id="node16" class="node"><title>Node9</title>
<a xlink:href="structmfem_1_1TVector.html" target="_top" xlink:title="mfem::TVector\&lt; N1 *N2\l *N3, complex_t,false \&gt;">
<polygon fill="white" stroke="black" points="253,-130 253,-170 417,-170 417,-130 253,-130"/>
<text text-anchor="start" x="261" y="-153.4" font-family="Helvetica,sans-Serif" font-size="14.00">mfem::TVector&lt; N1 *N2</text>
<text text-anchor="middle" x="335" y="-137.4" font-family="Helvetica,sans-Serif" font-size="14.00"> *N3, complex_t,false &gt;</text>
</a>
</g>
<!-- Node4&#45;&gt;Node9 -->
<g id="edge18" class="edge"><title>Node4&#45;&gt;Node9</title>
<path fill="none" stroke="#9a32cd" stroke-dasharray="5,2" d="M172.215,-167.647C174.838,-167.778 177.437,-167.897 180,-168 198.651,-168.752 203.392,-169.473 222,-168 232.001,-167.208 242.453,-166.029 252.79,-164.645"/>
<polygon fill="#9a32cd" stroke="#9a32cd" points="172.188,-164.14 162.009,-167.081 171.8,-171.129 172.188,-164.14"/>
<text text-anchor="middle" x="201" y="-171.4" font-family="Helvetica,sans-Serif" font-size="14.00"> layout</text>
</g>
<!-- Node5 -->
<g id="node8" class="node"><title>Node5</title>
<polygon fill="white" stroke="#bfbfbf" points="53.5,-91 53.5,-115 108.5,-115 108.5,-91 53.5,-91"/>
<text text-anchor="middle" x="81" y="-98.4" font-family="Helvetica,sans-Serif" font-size="14.00">data_t</text>
</g>
<!-- Node5&#45;&gt;Node3 -->
<g id="edge8" class="edge"><title>Node5&#45;&gt;Node3</title>
<path fill="none" stroke="#9a32cd" stroke-dasharray="5,2" d="M118.388,-89.3102C136.689,-83.319 159.208,-76.9826 180,-74 203.598,-70.6148 229.288,-71.6839 252.843,-74.545"/>
<polygon fill="#9a32cd" stroke="#9a32cd" points="117.05,-86.0676 108.693,-92.5797 119.287,-92.7006 117.05,-86.0676"/>
<text text-anchor="middle" x="201" y="-77.4" font-family="Helvetica,sans-Serif" font-size="14.00"> data</text>
</g>
<!-- Node5&#45;&gt;Node9 -->
<g id="edge20" class="edge"><title>Node5&#45;&gt;Node9</title>
<path fill="none" stroke="#9a32cd" stroke-dasharray="5,2" d="M118.76,-102.156C147.477,-102.355 187.752,-104.455 222,-113 230.494,-115.119 231.798,-117.939 240,-121 248.32,-124.106 257.137,-127.135 265.915,-129.994"/>
<polygon fill="#9a32cd" stroke="#9a32cd" points="118.734,-98.6556 108.735,-102.16 118.737,-105.656 118.734,-98.6556"/>
<text text-anchor="middle" x="201" y="-116.4" font-family="Helvetica,sans-Serif" font-size="14.00"> data</text>
</g>
<!-- Node6 -->
<g id="node10" class="node"><title>Node6</title>
<a xlink:href="structmfem_1_1ColumnMajorLayout3D.html" target="_top" xlink:title="mfem::ColumnMajorLayout3\lD\&lt; N1, N2, N3 \&gt;">
<polygon fill="white" stroke="black" points="240,-8 240,-48 430,-48 430,-8 240,-8"/>
<text text-anchor="start" x="248" y="-31.4" font-family="Helvetica,sans-Serif" font-size="14.00">mfem::ColumnMajorLayout3</text>
<text text-anchor="middle" x="335" y="-15.4" font-family="Helvetica,sans-Serif" font-size="14.00">D&lt; N1, N2, N3 &gt;</text>
</a>
</g>
<!-- Node6&#45;&gt;Node2 -->
<g id="edge10" class="edge"><title>Node6&#45;&gt;Node2</title>
<path fill="none" stroke="#9a32cd" stroke-dasharray="5,2" d="M440.52,-23.3199C457.108,-23.5403 474.041,-24.326 490,-26 496.291,-26.6599 502.77,-27.5494 509.26,-28.591"/>
<polygon fill="#9a32cd" stroke="#9a32cd" points="440.271,-19.8183 430.248,-23.2529 440.225,-26.8182 440.271,-19.8183"/>
<text text-anchor="middle" x="469" y="-29.4" font-family="Helvetica,sans-Serif" font-size="14.00"> layout</text>
</g>
<!-- Node8 -->
<g id="node14" class="node"><title>Node8</title>
<a xlink:href="structmfem_1_1TTensor3.html" target="_top" xlink:title="mfem::TTensor3\&lt; qpts,\l vdim, NE, complex_t \&gt;">
<polygon fill="white" stroke="black" points="508.5,-93 508.5,-133 669.5,-133 669.5,-93 508.5,-93"/>
<text text-anchor="start" x="516.5" y="-116.4" font-family="Helvetica,sans-Serif" font-size="14.00">mfem::TTensor3&lt; qpts,</text>
<text text-anchor="middle" x="589" y="-100.4" font-family="Helvetica,sans-Serif" font-size="14.00"> vdim, NE, complex_t &gt;</text>
</a>
</g>
<!-- Node6&#45;&gt;Node8 -->
<g id="edge22" class="edge"><title>Node6&#45;&gt;Node8</title>
<path fill="none" stroke="#9a32cd" stroke-dasharray="5,2" d="M404.582,-51.2853C443.595,-64.3409 491.765,-80.4606 529.09,-92.9512"/>
<polygon fill="#9a32cd" stroke="#9a32cd" points="405.467,-47.8906 394.873,-48.0362 403.245,-54.5288 405.467,-47.8906"/>
<text text-anchor="middle" x="469" y="-81.4" font-family="Helvetica,sans-Serif" font-size="14.00"> layout</text>
</g>
<!-- Node7 -->
<g id="node12" class="node"><title>Node7</title>
<a xlink:href="structmfem_1_1StridedLayout3D.html" target="_top" xlink:title="mfem::StridedLayout3D\l\&lt; N1, 1, N2, N1, N3,\l N1 *N2 \&gt;">
<polygon fill="white" stroke="black" points="0,-0 0,-56 162,-56 162,-0 0,-0"/>
<text text-anchor="start" x="8" y="-39.4" font-family="Helvetica,sans-Serif" font-size="14.00">mfem::StridedLayout3D</text>
<text text-anchor="start" x="8" y="-23.4" font-family="Helvetica,sans-Serif" font-size="14.00">&lt; N1, 1, N2, N1, N3,</text>
<text text-anchor="middle" x="81" y="-7.4" font-family="Helvetica,sans-Serif" font-size="14.00"> N1 *N2 &gt;</text>
</a>
</g>
<!-- Node7&#45;&gt;Node6 -->
<g id="edge12" class="edge"><title>Node7&#45;&gt;Node6</title>
<path fill="none" stroke="midnightblue" d="M172.327,-28C194.193,-28 217.595,-28 239.638,-28"/>
<polygon fill="midnightblue" stroke="midnightblue" points="172.066,-24.5001 162.066,-28 172.066,-31.5001 172.066,-24.5001"/>
</g>
<!-- Node8&#45;&gt;Node1 -->
<g id="edge14" class="edge"><title>Node8&#45;&gt;Node1</title>
<path fill="none" stroke="#9a32cd" stroke-dasharray="5,2" d="M679.808,-102.522C707.207,-99.3607 737.167,-95.9038 764.161,-92.7891"/>
<polygon fill="#9a32cd" stroke="#9a32cd" points="679.373,-99.049 669.84,-103.672 680.176,-106.003 679.373,-99.049"/>
<text text-anchor="middle" x="717" y="-104.4" font-family="Helvetica,sans-Serif" font-size="14.00"> val_qpts</text>
</g>
<!-- Node9&#45;&gt;Node8 -->
<g id="edge16" class="edge"><title>Node9&#45;&gt;Node8</title>
<path fill="none" stroke="midnightblue" d="M427.196,-136.57C453.806,-132.694 482.626,-128.495 508.468,-124.731"/>
<polygon fill="midnightblue" stroke="midnightblue" points="426.507,-133.133 417.116,-138.038 427.516,-140.06 426.507,-133.133"/>
</g>
</g>
</svg>
