<?xml version="1.0" encoding="UTF-8" standalone="no"?>
<!DOCTYPE svg PUBLIC "-//W3C//DTD SVG 1.1//EN"
 "http://www.w3.org/Graphics/SVG/1.1/DTD/svg11.dtd">
<!-- Generated by graphviz version 2.26.3 (20100126.1600)
 -->
<!-- Title: mfem::CoarseFineTransformations Pages: 1 -->
<svg width="313pt" height="192pt"
 viewBox="0.00 0.00 313.00 192.00" xmlns="http://www.w3.org/2000/svg" xmlns:xlink="http://www.w3.org/1999/xlink">
<g id="graph1" class="graph" transform="scale(1 1) rotate(0) translate(4 188)">
<title>mfem::CoarseFineTransformations</title>
<polygon fill="white" stroke="white" points="-4,5 -4,-188 310,-188 310,5 -4,5"/>
<!-- Node1 -->
<g id="node1" class="node"><title>Node1</title>
<polygon fill="#bfbfbf" stroke="black" points="66,-1 66,-25 296,-25 296,-1 66,-1"/>
<text text-anchor="middle" x="181" y="-8.4" font-family="Helvetica,sans-Serif" font-size="14.00">mfem::CoarseFineTransformations</text>
</g>
<!-- Node2 -->
<g id="node2" class="node"><title>Node2</title>
<a xlink:href="classmfem_1_1Array.html" target="_top" xlink:title="mfem::Array\&lt; mfem::\lEmbedding \&gt;">
<polygon fill="white" stroke="black" points="0,-79 0,-119 146,-119 146,-79 0,-79"/>
<text text-anchor="start" x="8" y="-102.4" font-family="Helvetica,sans-Serif" font-size="14.00">mfem::Array&lt; mfem::</text>
<text text-anchor="middle" x="73" y="-86.4" font-family="Helvetica,sans-Serif" font-size="14.00">Embedding &gt;</text>
</a>
</g>
<!-- Node2&#45;&gt;Node1 -->
<g id="edge2" class="edge"><title>Node2&#45;&gt;Node1</title>
<path fill="none" stroke="#9a32cd" stroke-dasharray="5,2" d="M91.3326,-70.5032C98.2622,-61.2352 106.735,-51.433 116,-44 125.557,-36.3327 137.322,-29.9928 148.205,-25.0876"/>
<polygon fill="#9a32cd" stroke="#9a32cd" points="88.3849,-68.6086 85.4242,-78.7813 94.0825,-72.6752 88.3849,-68.6086"/>
<text text-anchor="middle" x="156.5" y="-47.4" font-family="Helvetica,sans-Serif" font-size="14.00"> embeddings</text>
</g>
<!-- Node3 -->
<g id="node4" class="node"><title>Node3</title>
<a xlink:href="classmfem_1_1BaseArray.html" target="_top" xlink:title="Base class for array container. ">
<polygon fill="white" stroke="black" points="11.5,-159 11.5,-183 134.5,-183 134.5,-159 11.5,-159"/>
<text text-anchor="middle" x="73" y="-166.4" font-family="Helvetica,sans-Serif" font-size="14.00">mfem::BaseArray</text>
</a>
</g>
<!-- Node3&#45;&gt;Node2 -->
<g id="edge4" class="edge"><title>Node3&#45;&gt;Node2</title>
<path fill="none" stroke="midnightblue" d="M73,-148.601C73,-139.195 73,-128.338 73,-119.183"/>
<polygon fill="midnightblue" stroke="midnightblue" points="69.5001,-148.786 73,-158.786 76.5001,-148.786 69.5001,-148.786"/>
</g>
<!-- Node4 -->
<g id="node6" class="node"><title>Node4</title>
<a xlink:href="classmfem_1_1DenseTensor.html" target="_top" xlink:title="Rank 3 tensor (array of matrices) ">
<polygon fill="white" stroke="black" points="163.5,-87 163.5,-111 304.5,-111 304.5,-87 163.5,-87"/>
<text text-anchor="middle" x="234" y="-94.4" font-family="Helvetica,sans-Serif" font-size="14.00">mfem::DenseTensor</text>
</a>
</g>
<!-- Node4&#45;&gt;Node1 -->
<g id="edge6" class="edge"><title>Node4&#45;&gt;Node1</title>
<path fill="none" stroke="#9a32cd" stroke-dasharray="5,2" d="M221.152,-78.1527C210.893,-61.5056 196.878,-38.7645 188.409,-25.0216"/>
<polygon fill="#9a32cd" stroke="#9a32cd" points="218.18,-80.0014 226.406,-86.6783 224.139,-76.3288 218.18,-80.0014"/>
<text text-anchor="middle" x="257" y="-47.4" font-family="Helvetica,sans-Serif" font-size="14.00"> point_matrices</text>
</g>
</g>
</svg>
