<?xml version="1.0" encoding="UTF-8" standalone="no"?>
<!DOCTYPE svg PUBLIC "-//W3C//DTD SVG 1.1//EN"
 "http://www.w3.org/Graphics/SVG/1.1/DTD/svg11.dtd">
<!-- Generated by graphviz version 2.40.1 (20161225.0304)
 -->
<!-- Title: mfem::VarMessage&lt; Tag &gt; Pages: 1 -->
<!--zoomable 265 -->
<svg id="main" version="1.1" xmlns="http://www.w3.org/2000/svg" xmlns:xlink="http://www.w3.org/1999/xlink" xml:space="preserve" onload="init(evt)">
<style type="text/css"><![CDATA[
.edge:hover path { stroke: red; }
.edge:hover polygon { stroke: red; fill: red; }
]]></style>
<script type="text/javascript"><![CDATA[
var edges = document.getElementsByTagName('g');
if (edges && edges.length) {
  for (var i=0;i<edges.length;i++) {
    if (edges[i].id.substr(0,4)=='edge') {
      edges[i].setAttribute('class','edge');
    }
  }
}
]]></script>
        <defs>
                <circle id="rim" cx="0" cy="0" r="7"/>
                <circle id="rim2" cx="0" cy="0" r="3.5"/>
                <g id="zoomPlus">
                        <use xlink:href="#rim" fill="#404040">
                                <set attributeName="fill" to="#808080" begin="zoomplus.mouseover" end="zoomplus.mouseout"/>
                        </use>
                        <path d="M-4,0h8M0,-4v8" fill="none" stroke="white" stroke-width="1.5" pointer-events="none"/>
                </g>
                <g id="zoomMin">
                        <use xlink:href="#rim" fill="#404040">
                                <set attributeName="fill" to="#808080" begin="zoomminus.mouseover" end="zoomminus.mouseout"/>
                        </use>
                        <path d="M-4,0h8" fill="none" stroke="white" stroke-width="1.5" pointer-events="none"/>
                </g>
                <g id="dirArrow">
                        <path fill="none" stroke="white" stroke-width="1.5" d="M0,-3.0v7 M-2.5,-0.5L0,-3.0L2.5,-0.5"/>
                </g>
               <g id="resetDef">
                       <use xlink:href="#rim2" fill="#404040">
                               <set attributeName="fill" to="#808080" begin="reset.mouseover" end="reset.mouseout"/>
                       </use>
               </g>
        </defs>

<script type="text/javascript">
var viewWidth = 657;
var viewHeight = 265;
var sectionId = 'dynsection-0';
</script>
<script xlink:href="svgpan.js"/>
<svg id="graph" class="graph">
<g id="viewport">
<title>mfem::VarMessage&lt; Tag &gt;</title>
<polygon fill="#ffffff" stroke="transparent" points="-4,4 -4,-261 652.5684,-261 652.5684,4 -4,4"/>
<!-- Node0 -->
<g id="node1" class="node">
<title>Node0</title>
<polygon fill="#bfbfbf" stroke="#000000" points="0,-117.5 0,-139.5 182.7969,-139.5 182.7969,-117.5 0,-117.5"/>
<text text-anchor="middle" x="91.3984" y="-124.3" font-family="Helvetica,sans-Serif" font-size="14.00" fill="#000000">mfem::VarMessage&lt; Tag &gt;</text>
</g>
<!-- Node1 -->
<g id="node2" class="node">
<title>Node1</title>
<g id="a_node2"><a xlink:href="classmfem_1_1ParNCMesh_1_1ElementValueMessage.html" target="_top" xlink:title="ElementValueMessage\l\&lt; char, false, 289 \&gt;">
<polygon fill="#ffffff" stroke="#000000" points="236.4063,-220.5 236.4063,-256.5 395.3457,-256.5 395.3457,-220.5 236.4063,-220.5"/>
<text text-anchor="start" x="244.4063" y="-241.3" font-family="Helvetica,sans-Serif" font-size="14.00" fill="#000000">ElementValueMessage</text>
<text text-anchor="middle" x="315.876" y="-227.3" font-family="Helvetica,sans-Serif" font-size="14.00" fill="#000000">&lt; char, false, 289 &gt;</text>
</a>
</g>
</g>
<!-- Node0&#45;&gt;Node1 -->
<g id="edge1" class="edge">
<title>Node0&#45;&gt;Node1</title>
<path fill="none" stroke="#191970" d="M113.7033,-146.0902C138.2188,-164.6696 179.3745,-193.689 218.7969,-211.5 226.1303,-214.8132 233.9627,-217.8075 241.878,-220.4905"/>
<polygon fill="#191970" stroke="#191970" points="115.5209,-143.073 105.4581,-139.7576 111.257,-148.6246 115.5209,-143.073"/>
</g>
<!-- Node3 -->
<g id="node4" class="node">
<title>Node3</title>
<g id="a_node4"><a xlink:href="classmfem_1_1ParNCMesh_1_1ElementValueMessage.html" target="_top" xlink:title="ElementValueMessage\l\&lt; int, false, 156 \&gt;">
<polygon fill="#ffffff" stroke="#000000" points="236.4063,-165.5 236.4063,-201.5 395.3457,-201.5 395.3457,-165.5 236.4063,-165.5"/>
<text text-anchor="start" x="244.4063" y="-186.3" font-family="Helvetica,sans-Serif" font-size="14.00" fill="#000000">ElementValueMessage</text>
<text text-anchor="middle" x="315.876" y="-172.3" font-family="Helvetica,sans-Serif" font-size="14.00" fill="#000000">&lt; int, false, 156 &gt;</text>
</a>
</g>
</g>
<!-- Node0&#45;&gt;Node3 -->
<g id="edge3" class="edge">
<title>Node0&#45;&gt;Node3</title>
<path fill="none" stroke="#191970" d="M146.4383,-141.9855C175.2417,-149.0427 210.9041,-157.7805 242.07,-165.4166"/>
<polygon fill="#191970" stroke="#191970" points="147.1004,-138.5443 136.5548,-139.5639 145.4346,-145.3432 147.1004,-138.5443"/>
</g>
<!-- Node5 -->
<g id="node6" class="node">
<title>Node5</title>
<g id="a_node6"><a xlink:href="classmfem_1_1ParNCMesh_1_1ElementValueMessage.html" target="_top" xlink:title="ElementValueMessage\l\&lt; int, false, 290 \&gt;">
<polygon fill="#ffffff" stroke="#000000" points="236.4063,-110.5 236.4063,-146.5 395.3457,-146.5 395.3457,-110.5 236.4063,-110.5"/>
<text text-anchor="start" x="244.4063" y="-131.3" font-family="Helvetica,sans-Serif" font-size="14.00" fill="#000000">ElementValueMessage</text>
<text text-anchor="middle" x="315.876" y="-117.3" font-family="Helvetica,sans-Serif" font-size="14.00" fill="#000000">&lt; int, false, 290 &gt;</text>
</a>
</g>
</g>
<!-- Node0&#45;&gt;Node5 -->
<g id="edge5" class="edge">
<title>Node0&#45;&gt;Node5</title>
<path fill="none" stroke="#191970" d="M193.3922,-128.5C207.7016,-128.5 222.235,-128.5 236.0515,-128.5"/>
<polygon fill="#191970" stroke="#191970" points="193.0258,-125.0001 183.0258,-128.5 193.0258,-132.0001 193.0258,-125.0001"/>
</g>
<!-- Node7 -->
<g id="node8" class="node">
<title>Node7</title>
<g id="a_node8"><a xlink:href="classmfem_1_1ParNCMesh_1_1ElementValueMessage.html" target="_top" xlink:title="ElementValueMessage\l\&lt; int, true, 157 \&gt;">
<polygon fill="#ffffff" stroke="#ff0000" points="236.4063,-55.5 236.4063,-91.5 395.3457,-91.5 395.3457,-55.5 236.4063,-55.5"/>
<text text-anchor="start" x="244.4063" y="-76.3" font-family="Helvetica,sans-Serif" font-size="14.00" fill="#000000">ElementValueMessage</text>
<text text-anchor="middle" x="315.876" y="-62.3" font-family="Helvetica,sans-Serif" font-size="14.00" fill="#000000">&lt; int, true, 157 &gt;</text>
</a>
</g>
</g>
<!-- Node0&#45;&gt;Node7 -->
<g id="edge7" class="edge">
<title>Node0&#45;&gt;Node7</title>
<path fill="none" stroke="#191970" d="M146.4383,-115.0145C175.2417,-107.9573 210.9041,-99.2195 242.07,-91.5834"/>
<polygon fill="#191970" stroke="#191970" points="145.4346,-111.6568 136.5548,-117.4361 147.1004,-118.4557 145.4346,-111.6568"/>
</g>
<!-- Node9 -->
<g id="node9" class="node">
<title>Node9</title>
<g id="a_node9"><a xlink:href="classmfem_1_1ParNCMesh_1_1ElementValueMessage.html" target="_top" xlink:title="mfem::ParNCMesh::Element\lValueMessage\&lt; Tag \&gt;">
<polygon fill="#ffffff" stroke="#000000" points="218.7969,-.5 218.7969,-36.5 412.9551,-36.5 412.9551,-.5 218.7969,-.5"/>
<text text-anchor="start" x="226.7969" y="-21.3" font-family="Helvetica,sans-Serif" font-size="14.00" fill="#000000">mfem::ParNCMesh::Element</text>
<text text-anchor="middle" x="315.876" y="-7.3" font-family="Helvetica,sans-Serif" font-size="14.00" fill="#000000">ValueMessage&lt; Tag &gt;</text>
</a>
</g>
</g>
<!-- Node0&#45;&gt;Node9 -->
<g id="edge8" class="edge">
<title>Node0&#45;&gt;Node9</title>
<path fill="none" stroke="#191970" d="M113.7719,-111.2109C138.3459,-92.9313 179.551,-64.3259 218.7969,-46.5 226.8621,-42.8367 235.5231,-39.5291 244.2309,-36.5794"/>
<polygon fill="#191970" stroke="#191970" points="111.3859,-108.6263 105.5052,-117.4392 115.5982,-114.2171 111.3859,-108.6263"/>
</g>
<!-- Node2 -->
<g id="node3" class="node">
<title>Node2</title>
<g id="a_node3"><a xlink:href="classmfem_1_1ParNCMesh_1_1NeighborRefinementMessage.html" target="_top" xlink:title="mfem::ParNCMesh::Neighbor\lRefinementMessage">
<polygon fill="#ffffff" stroke="#000000" points="448.9551,-220.5 448.9551,-256.5 648.5684,-256.5 648.5684,-220.5 448.9551,-220.5"/>
<text text-anchor="start" x="456.9551" y="-241.3" font-family="Helvetica,sans-Serif" font-size="14.00" fill="#000000">mfem::ParNCMesh::Neighbor</text>
<text text-anchor="middle" x="548.7617" y="-227.3" font-family="Helvetica,sans-Serif" font-size="14.00" fill="#000000">RefinementMessage</text>
</a>
</g>
</g>
<!-- Node1&#45;&gt;Node2 -->
<g id="edge2" class="edge">
<title>Node1&#45;&gt;Node2</title>
<path fill="none" stroke="#191970" d="M405.5312,-238.5C419.637,-238.5 434.2973,-238.5 448.6219,-238.5"/>
<polygon fill="#191970" stroke="#191970" points="405.3707,-235.0001 395.3707,-238.5 405.3706,-242.0001 405.3707,-235.0001"/>
</g>
<!-- Node4 -->
<g id="node5" class="node">
<title>Node4</title>
<g id="a_node5"><a xlink:href="classmfem_1_1ParNCMesh_1_1NeighborElementRankMessage.html" target="_top" xlink:title="mfem::ParNCMesh::Neighbor\lElementRankMessage">
<polygon fill="#ffffff" stroke="#000000" points="448.9551,-165.5 448.9551,-201.5 648.5684,-201.5 648.5684,-165.5 448.9551,-165.5"/>
<text text-anchor="start" x="456.9551" y="-186.3" font-family="Helvetica,sans-Serif" font-size="14.00" fill="#000000">mfem::ParNCMesh::Neighbor</text>
<text text-anchor="middle" x="548.7617" y="-172.3" font-family="Helvetica,sans-Serif" font-size="14.00" fill="#000000">ElementRankMessage</text>
</a>
</g>
</g>
<!-- Node3&#45;&gt;Node4 -->
<g id="edge4" class="edge">
<title>Node3&#45;&gt;Node4</title>
<path fill="none" stroke="#191970" d="M405.5312,-183.5C419.637,-183.5 434.2973,-183.5 448.6219,-183.5"/>
<polygon fill="#191970" stroke="#191970" points="405.3707,-180.0001 395.3707,-183.5 405.3706,-187.0001 405.3707,-180.0001"/>
</g>
<!-- Node6 -->
<g id="node7" class="node">
<title>Node6</title>
<g id="a_node7"><a xlink:href="classmfem_1_1ParNCMesh_1_1NeighborDerefinementMessage.html" target="_top" xlink:title="mfem::ParNCMesh::Neighbor\lDerefinementMessage">
<polygon fill="#ffffff" stroke="#000000" points="448.9551,-110.5 448.9551,-146.5 648.5684,-146.5 648.5684,-110.5 448.9551,-110.5"/>
<text text-anchor="start" x="456.9551" y="-131.3" font-family="Helvetica,sans-Serif" font-size="14.00" fill="#000000">mfem::ParNCMesh::Neighbor</text>
<text text-anchor="middle" x="548.7617" y="-117.3" font-family="Helvetica,sans-Serif" font-size="14.00" fill="#000000">DerefinementMessage</text>
</a>
</g>
</g>
<!-- Node5&#45;&gt;Node6 -->
<g id="edge6" class="edge">
<title>Node5&#45;&gt;Node6</title>
<path fill="none" stroke="#191970" d="M405.5312,-128.5C419.637,-128.5 434.2973,-128.5 448.6219,-128.5"/>
<polygon fill="#191970" stroke="#191970" points="405.3707,-125.0001 395.3707,-128.5 405.3706,-132.0001 405.3707,-125.0001"/>
</g>
</g>
</svg>
        <g id="navigator" transform="translate(0 0)" fill="#404254">
                <rect fill="#f2f5e9" fill-opacity="0.5" stroke="#606060" stroke-width=".5" x="0" y="0" width="60" height="60"/>
                <use id="zoomplus" xlink:href="#zoomPlus" x="17" y="9" onmousedown="handleZoom(evt,'in')"/>
                <use id="zoomminus" xlink:href="#zoomMin" x="42" y="9" onmousedown="handleZoom(evt,'out')"/>
                <use id="reset" xlink:href="#resetDef" x="30" y="36" onmousedown="handleReset()"/>
                <g id="arrowUp" xlink:href="#dirArrow" transform="translate(30 24)" onmousedown="handlePan(0,-1)">
                  <use xlink:href="#rim" fill="#404040">
                        <set attributeName="fill" to="#808080" begin="arrowUp.mouseover" end="arrowUp.mouseout"/>
                  </use>
                  <path fill="none" stroke="white" stroke-width="1.5" d="M0,-3.0v7 M-2.5,-0.5L0,-3.0L2.5,-0.5"/>
                </g>
                <g id="arrowRight" xlink:href="#dirArrow" transform="rotate(90) translate(36 -43)" onmousedown="handlePan(1,0)">
                  <use xlink:href="#rim" fill="#404040">
                        <set attributeName="fill" to="#808080" begin="arrowRight.mouseover" end="arrowRight.mouseout"/>
                  </use>
                  <path fill="none" stroke="white" stroke-width="1.5" d="M0,-3.0v7 M-2.5,-0.5L0,-3.0L2.5,-0.5"/>
                </g>
                <g id="arrowDown" xlink:href="#dirArrow" transform="rotate(180) translate(-30 -48)" onmousedown="handlePan(0,1)">
                  <use xlink:href="#rim" fill="#404040">
                        <set attributeName="fill" to="#808080" begin="arrowDown.mouseover" end="arrowDown.mouseout"/>
                  </use>
                  <path fill="none" stroke="white" stroke-width="1.5" d="M0,-3.0v7 M-2.5,-0.5L0,-3.0L2.5,-0.5"/>
                </g>
                <g id="arrowLeft" xlink:href="#dirArrow" transform="rotate(270) translate(-36 17)" onmousedown="handlePan(-1,0)">
                  <use xlink:href="#rim" fill="#404040">
                        <set attributeName="fill" to="#808080" begin="arrowLeft.mouseover" end="arrowLeft.mouseout"/>
                  </use>
                  <path fill="none" stroke="white" stroke-width="1.5" d="M0,-3.0v7 M-2.5,-0.5L0,-3.0L2.5,-0.5"/>
                </g>
        </g>
        <svg viewBox="0 0 15 15" width="100%" height="30px" preserveAspectRatio="xMaxYMin meet">
         <g id="arrow_out" transform="scale(0.3 0.3)">
          <a xlink:href="structmfem_1_1VarMessage__inherit__graph_org.svg" target="_base">
           <rect id="button" ry="5" rx="5" y="6" x="6" height="38" width="38"
                fill="#f2f5e9" fill-opacity="0.5" stroke="#606060" stroke-width="1.0"/>
           <path id="arrow"
             d="M 11.500037,31.436501 C 11.940474,20.09759 22.043105,11.32322 32.158766,21.979434 L 37.068811,17.246167 C 37.068811,17.246167 37.088388,32 37.088388,32 L 22.160133,31.978069 C 22.160133,31.978069 26.997745,27.140456 26.997745,27.140456 C 18.528582,18.264221 13.291696,25.230495 11.500037,31.436501 z"
             style="fill:#404040;"/>
          </a>
         </g>
        </svg>
</svg>
