<?xml version="1.0" encoding="UTF-8" standalone="no"?>
<!DOCTYPE svg PUBLIC "-//W3C//DTD SVG 1.1//EN"
 "http://www.w3.org/Graphics/SVG/1.1/DTD/svg11.dtd">
<!-- Generated by graphviz version 2.26.3 (20100126.1600)
 -->
<!-- Title: mfem::ColumnMajorLayout4D&lt; N1, N2, N3, N4 &gt; Pages: 1 -->
<svg width="198pt" height="144pt"
 viewBox="0.00 0.00 198.00 144.00" xmlns="http://www.w3.org/2000/svg" xmlns:xlink="http://www.w3.org/1999/xlink">
<g id="graph1" class="graph" transform="scale(1 1) rotate(0) translate(4 140)">
<title>mfem::ColumnMajorLayout4D&lt; N1, N2, N3, N4 &gt;</title>
<polygon fill="white" stroke="white" points="-4,5 -4,-140 195,-140 195,5 -4,5"/>
<!-- Node1 -->
<g id="node1" class="node"><title>Node1</title>
<polygon fill="#bfbfbf" stroke="black" points="0,-1 0,-41 190,-41 190,-1 0,-1"/>
<text text-anchor="start" x="8" y="-24.4" font-family="Helvetica,sans-Serif" font-size="14.00">mfem::ColumnMajorLayout4</text>
<text text-anchor="middle" x="95" y="-8.4" font-family="Helvetica,sans-Serif" font-size="14.00">D&lt; N1, N2, N3, N4 &gt;</text>
</g>
<!-- Node2 -->
<g id="node2" class="node"><title>Node2</title>
<a xlink:href="structmfem_1_1StridedLayout4D.html" target="_top" xlink:title="mfem::StridedLayout4D\l\&lt; N1, 1, N2, N1, N3,\l N1 *N2, N4, N1 *N2 *N3 \&gt;">
<polygon fill="white" stroke="black" points="3.5,-79 3.5,-135 186.5,-135 186.5,-79 3.5,-79"/>
<text text-anchor="start" x="11.5" y="-118.4" font-family="Helvetica,sans-Serif" font-size="14.00">mfem::StridedLayout4D</text>
<text text-anchor="start" x="11.5" y="-102.4" font-family="Helvetica,sans-Serif" font-size="14.00">&lt; N1, 1, N2, N1, N3,</text>
<text text-anchor="middle" x="95" y="-86.4" font-family="Helvetica,sans-Serif" font-size="14.00"> N1 *N2, N4, N1 *N2 *N3 &gt;</text>
</a>
</g>
<!-- Node2&#45;&gt;Node1 -->
<g id="edge2" class="edge"><title>Node2&#45;&gt;Node1</title>
<path fill="none" stroke="midnightblue" d="M95,-68.6999C95,-59.1585 95,-49.3046 95,-41.0479"/>
<polygon fill="midnightblue" stroke="midnightblue" points="91.5001,-68.8403 95,-78.8404 98.5001,-68.8404 91.5001,-68.8403"/>
</g>
</g>
</svg>
