<?xml version="1.0" encoding="UTF-8" standalone="no"?>
<!DOCTYPE svg PUBLIC "-//W3C//DTD SVG 1.1//EN"
 "http://www.w3.org/Graphics/SVG/1.1/DTD/svg11.dtd">
<!-- Generated by graphviz version 2.26.3 (20100126.1600)
 -->
<!-- Title: mfem::NCMesh::Face Pages: 1 -->
<svg width="498pt" height="410pt"
 viewBox="0.00 0.00 498.00 410.00" xmlns="http://www.w3.org/2000/svg" xmlns:xlink="http://www.w3.org/1999/xlink">
<g id="graph1" class="graph" transform="scale(1 1) rotate(0) translate(4 406)">
<title>mfem::NCMesh::Face</title>
<polygon fill="white" stroke="white" points="-4,5 -4,-406 495,-406 495,5 -4,5"/>
<!-- Node1 -->
<g id="node1" class="node"><title>Node1</title>
<polygon fill="#bfbfbf" stroke="black" points="8,-79 8,-103 160,-103 160,-79 8,-79"/>
<text text-anchor="middle" x="84" y="-86.4" font-family="Helvetica,sans-Serif" font-size="14.00">mfem::NCMesh::Face</text>
</g>
<!-- Node3 -->
<g id="node4" class="node"><title>Node3</title>
<a xlink:href="structmfem_1_1Hashed4.html" target="_top" xlink:title="mfem::Hashed4\&lt; Face \&gt;">
<polygon fill="white" stroke="black" points="-0.5,-1 -0.5,-25 168.5,-25 168.5,-1 -0.5,-1"/>
<text text-anchor="middle" x="84" y="-8.4" font-family="Helvetica,sans-Serif" font-size="14.00">mfem::Hashed4&lt; Face &gt;</text>
</a>
</g>
<!-- Node1&#45;&gt;Node3 -->
<g id="edge6" class="edge"><title>Node1&#45;&gt;Node3</title>
<path fill="none" stroke="#9a32cd" stroke-dasharray="5,2" d="M63.895,-70.918C61.4871,-67.5096 59.3922,-63.8265 58,-60 55.5686,-53.3175 55.5686,-50.6825 58,-44 60.5458,-37.003 65.441,-30.4855 70.3035,-25.2501"/>
<polygon fill="#9a32cd" stroke="#9a32cd" points="61.262,-73.2271 70.3035,-78.7499 66.6796,-68.7941 61.262,-73.2271"/>
<text text-anchor="middle" x="73.5" y="-47.4" font-family="Helvetica,sans-Serif" font-size="14.00"> next</text>
</g>
<!-- Node2 -->
<g id="node2" class="node"><title>Node2</title>
<a xlink:href="structmfem_1_1NCMesh_1_1RefCount.html" target="_top" xlink:title="mfem::NCMesh::RefCount">
<polygon fill="white" stroke="black" points="78.5,-377 78.5,-401 257.5,-401 257.5,-377 78.5,-377"/>
<text text-anchor="middle" x="168" y="-384.4" font-family="Helvetica,sans-Serif" font-size="14.00">mfem::NCMesh::RefCount</text>
</a>
</g>
<!-- Node2&#45;&gt;Node1 -->
<g id="edge2" class="edge"><title>Node2&#45;&gt;Node1</title>
<path fill="none" stroke="midnightblue" d="M89.6426,-373.395C66.8691,-363.992 48,-348.969 48,-325 48,-325 48,-325 48,-169 48,-143.795 63.689,-117.875 74.3527,-103.169"/>
<polygon fill="midnightblue" stroke="midnightblue" points="88.6462,-376.759 99.2389,-376.97 91.0901,-370.199 88.6462,-376.759"/>
</g>
<!-- Node7 -->
<g id="node15" class="node"><title>Node7</title>
<a xlink:href="structmfem_1_1NCMesh_1_1Edge.html" target="_top" xlink:title="mfem::NCMesh::Edge">
<polygon fill="white" stroke="black" points="91.5,-313 91.5,-337 244.5,-337 244.5,-313 91.5,-313"/>
<text text-anchor="middle" x="168" y="-320.4" font-family="Helvetica,sans-Serif" font-size="14.00">mfem::NCMesh::Edge</text>
</a>
</g>
<!-- Node2&#45;&gt;Node7 -->
<g id="edge20" class="edge"><title>Node2&#45;&gt;Node7</title>
<path fill="none" stroke="midnightblue" d="M168,-366.679C168,-356.868 168,-345.718 168,-337.42"/>
<polygon fill="midnightblue" stroke="midnightblue" points="164.5,-366.962 168,-376.962 171.5,-366.962 164.5,-366.962"/>
</g>
<!-- Node8 -->
<g id="node18" class="node"><title>Node8</title>
<a xlink:href="structmfem_1_1NCMesh_1_1Vertex.html" target="_top" xlink:title="mfem::NCMesh::Vertex">
<polygon fill="white" stroke="black" points="262,-313 262,-337 422,-337 422,-313 262,-313"/>
<text text-anchor="middle" x="342" y="-320.4" font-family="Helvetica,sans-Serif" font-size="14.00">mfem::NCMesh::Vertex</text>
</a>
</g>
<!-- Node2&#45;&gt;Node8 -->
<g id="edge24" class="edge"><title>Node2&#45;&gt;Node8</title>
<path fill="none" stroke="midnightblue" d="M210.223,-373.47C240.641,-362.282 281.098,-347.401 309.123,-337.093"/>
<polygon fill="midnightblue" stroke="midnightblue" points="208.905,-370.225 200.728,-376.962 211.322,-376.795 208.905,-370.225"/>
</g>
<!-- Node3&#45;&gt;Node1 -->
<g id="edge4" class="edge"><title>Node3&#45;&gt;Node1</title>
<path fill="none" stroke="midnightblue" d="M91.1952,-34.9428C91.9405,-37.9573 92.5783,-41.0351 93,-44 94.0013,-51.0403 94.0013,-52.9597 93,-60 92.1004,-66.3251 90.2173,-73.1643 88.405,-78.8055"/>
<polygon fill="midnightblue" stroke="midnightblue" points="94.5217,-33.8453 88.405,-25.1945 87.792,-35.7716 94.5217,-33.8453"/>
</g>
<!-- Node4 -->
<g id="node7" class="node"><title>Node4</title>
<a xlink:href="structmfem_1_1NCMesh_1_1Element.html" target="_top" xlink:title="mfem::NCMesh::Element">
<polygon fill="white" stroke="black" points="76,-157 76,-181 248,-181 248,-157 76,-157"/>
<text text-anchor="middle" x="162" y="-164.4" font-family="Helvetica,sans-Serif" font-size="14.00">mfem::NCMesh::Element</text>
</a>
</g>
<!-- Node4&#45;&gt;Node1 -->
<g id="edge8" class="edge"><title>Node4&#45;&gt;Node1</title>
<path fill="none" stroke="#9a32cd" stroke-dasharray="5,2" d="M142.704,-149.704C128.119,-135.119 108.548,-115.548 96.1019,-103.102"/>
<polygon fill="#9a32cd" stroke="#9a32cd" points="140.267,-152.216 149.812,-156.812 145.216,-147.267 140.267,-152.216"/>
<text text-anchor="middle" x="148" y="-125.4" font-family="Helvetica,sans-Serif" font-size="14.00"> elem</text>
</g>
<!-- Node4&#45;&gt;Node4 -->
<g id="edge10" class="edge"><title>Node4&#45;&gt;Node4</title>
<path fill="none" stroke="#9a32cd" stroke-dasharray="5,2" d="M258.14,-173.648C263.081,-172.499 266,-170.949 266,-169 266,-165.957 258.886,-163.889 248.077,-162.795"/>
<polygon fill="#9a32cd" stroke="#9a32cd" points="257.424,-170.217 248.077,-175.205 258.495,-177.135 257.424,-170.217"/>
<text text-anchor="middle" x="283" y="-164.4" font-family="Helvetica,sans-Serif" font-size="14.00"> child</text>
</g>
<!-- Node5 -->
<g id="node10" class="node"><title>Node5</title>
<a xlink:href="structmfem_1_1NCMesh_1_1Node.html" target="_top" xlink:title="mfem::NCMesh::Node">
<polygon fill="white" stroke="black" points="265,-235 265,-259 419,-259 419,-235 265,-235"/>
<text text-anchor="middle" x="342" y="-242.4" font-family="Helvetica,sans-Serif" font-size="14.00">mfem::NCMesh::Node</text>
</a>
</g>
<!-- Node5&#45;&gt;Node4 -->
<g id="edge12" class="edge"><title>Node5&#45;&gt;Node4</title>
<path fill="none" stroke="#9a32cd" stroke-dasharray="5,2" d="M305.068,-230.996C270.844,-216.166 220.694,-194.434 189.762,-181.03"/>
<polygon fill="#9a32cd" stroke="#9a32cd" points="303.702,-234.219 314.269,-234.983 306.486,-227.796 303.702,-234.219"/>
<text text-anchor="middle" x="286" y="-203.4" font-family="Helvetica,sans-Serif" font-size="14.00"> node</text>
</g>
<!-- Node6 -->
<g id="node12" class="node"><title>Node6</title>
<a xlink:href="structmfem_1_1Hashed2.html" target="_top" xlink:title="mfem::Hashed2\&lt; Node \&gt;">
<polygon fill="white" stroke="black" points="318,-157 318,-181 490,-181 490,-157 318,-157"/>
<text text-anchor="middle" x="404" y="-164.4" font-family="Helvetica,sans-Serif" font-size="14.00">mfem::Hashed2&lt; Node &gt;</text>
</a>
</g>
<!-- Node5&#45;&gt;Node6 -->
<g id="edge16" class="edge"><title>Node5&#45;&gt;Node6</title>
<path fill="none" stroke="#9a32cd" stroke-dasharray="5,2" d="M339.6,-224.561C339.768,-216.255 341.302,-207.133 346,-200 351.401,-191.8 359.719,-185.611 368.384,-181.007"/>
<polygon fill="#9a32cd" stroke="#9a32cd" points="336.112,-224.925 340.014,-234.775 343.106,-224.642 336.112,-224.925"/>
<text text-anchor="middle" x="361.5" y="-203.4" font-family="Helvetica,sans-Serif" font-size="14.00"> next</text>
</g>
<!-- Node6&#45;&gt;Node5 -->
<g id="edge14" class="edge"><title>Node6&#45;&gt;Node5</title>
<path fill="none" stroke="midnightblue" d="M395.971,-190.34C392.184,-198.827 387.137,-208.367 381,-216 375.255,-223.145 367.582,-229.688 360.561,-234.903"/>
<polygon fill="midnightblue" stroke="midnightblue" points="399.23,-191.617 399.827,-181.039 392.764,-188.936 399.23,-191.617"/>
</g>
<!-- Node7&#45;&gt;Node5 -->
<g id="edge18" class="edge"><title>Node7&#45;&gt;Node5</title>
<path fill="none" stroke="#9a32cd" stroke-dasharray="5,2" d="M204.126,-308.806C237.198,-293.98 285.391,-272.377 315.163,-259.03"/>
<polygon fill="#9a32cd" stroke="#9a32cd" points="202.5,-305.699 194.806,-312.983 205.363,-312.087 202.5,-305.699"/>
<text text-anchor="middle" x="288" y="-281.4" font-family="Helvetica,sans-Serif" font-size="14.00"> edge</text>
</g>
<!-- Node8&#45;&gt;Node5 -->
<g id="edge22" class="edge"><title>Node8&#45;&gt;Node5</title>
<path fill="none" stroke="#9a32cd" stroke-dasharray="5,2" d="M342,-302.417C342,-288.285 342,-270.634 342,-259.102"/>
<polygon fill="#9a32cd" stroke="#9a32cd" points="338.5,-302.812 342,-312.812 345.5,-302.813 338.5,-302.812"/>
<text text-anchor="middle" x="363.5" y="-281.4" font-family="Helvetica,sans-Serif" font-size="14.00"> vertex</text>
</g>
</g>
</svg>
