<?xml version="1.0" encoding="UTF-8" standalone="no"?>
<!DOCTYPE svg PUBLIC "-//W3C//DTD SVG 1.1//EN"
 "http://www.w3.org/Graphics/SVG/1.1/DTD/svg11.dtd">
<!-- Generated by graphviz version 2.30.1 (20170916.1124)
 -->
<!-- Title: mfem::TVector&lt; S, data_t, align &gt; Pages: 1 -->
<svg width="240pt" height="140pt"
 viewBox="0.00 0.00 240.00 140.00" xmlns="http://www.w3.org/2000/svg" xmlns:xlink="http://www.w3.org/1999/xlink">
<g id="graph0" class="graph" transform="scale(1 1) rotate(0) translate(4 136)">
<title>mfem::TVector&lt; S, data_t, align &gt;</title>
<polygon fill="white" stroke="white" points="-4,5 -4,-136 237,-136 237,5 -4,5"/>
<!-- Node1 -->
<g id="node1" class="node"><title>Node1</title>
<polygon fill="#bfbfbf" stroke="black" points="61.5,-1 61.5,-39 222.5,-39 222.5,-1 61.5,-1"/>
<text text-anchor="start" x="69.5" y="-23.8" font-family="Helvetica,sans-Serif" font-size="14.00">mfem::TVector&lt; S, data</text>
<text text-anchor="middle" x="142" y="-8.8" font-family="Helvetica,sans-Serif" font-size="14.00">_t, align &gt;</text>
</g>
<!-- Node2 -->
<g id="node2" class="node"><title>Node2</title>
<g id="a_node2"><a xlink:href="structmfem_1_1StridedLayout1D.html" target="_top" xlink:title="mfem::StridedLayout1D\l\&lt; N1, S1 \&gt;">
<polygon fill="white" stroke="black" points="0,-93 0,-131 160,-131 160,-93 0,-93"/>
<text text-anchor="start" x="8" y="-115.8" font-family="Helvetica,sans-Serif" font-size="14.00">mfem::StridedLayout1D</text>
<text text-anchor="middle" x="80" y="-100.8" font-family="Helvetica,sans-Serif" font-size="14.00">&lt; N1, S1 &gt;</text>
</a>
</g>
</g>
<!-- Node2&#45;&gt;Node1 -->
<g id="edge1" class="edge"><title>Node2&#45;&gt;Node1</title>
<path fill="none" stroke="#9a32cd" stroke-dasharray="5,2" d="M98.4587,-84.205C108.465,-69.6795 120.569,-52.1101 129.472,-39.1858"/>
<polygon fill="#9a32cd" stroke="#9a32cd" points="95.3374,-82.5665 92.5466,-92.7872 101.102,-86.5376 95.3374,-82.5665"/>
<text text-anchor="middle" x="135" y="-62.3" font-family="Helvetica,sans-Serif" font-size="14.00"> layout</text>
</g>
<!-- Node3 -->
<g id="node3" class="node"><title>Node3</title>
<polygon fill="white" stroke="#bfbfbf" points="178,-100.5 178,-123.5 232,-123.5 232,-100.5 178,-100.5"/>
<text text-anchor="middle" x="205" y="-108.3" font-family="Helvetica,sans-Serif" font-size="14.00">data_t</text>
</g>
<!-- Node3&#45;&gt;Node1 -->
<g id="edge2" class="edge"><title>Node3&#45;&gt;Node1</title>
<path fill="none" stroke="#9a32cd" stroke-dasharray="5,2" d="M191.68,-91.9714C180.767,-76.3814 165.428,-54.468 154.69,-39.1282"/>
<polygon fill="#9a32cd" stroke="#9a32cd" points="188.924,-94.1372 197.526,-100.322 194.658,-90.1229 188.924,-94.1372"/>
<text text-anchor="middle" x="192.5" y="-62.3" font-family="Helvetica,sans-Serif" font-size="14.00"> data</text>
</g>
</g>
</svg>
