<?xml version="1.0" encoding="UTF-8" standalone="no"?>
<!DOCTYPE svg PUBLIC "-//W3C//DTD SVG 1.1//EN"
 "http://www.w3.org/Graphics/SVG/1.1/DTD/svg11.dtd">
<!-- Generated by graphviz version 2.40.1 (20161225.0304)
 -->
<!-- Title: mfem::IntRuleCoefficient&lt; IR, coeff_t, NE &gt;::Aux&lt; false, dummy &gt; Pages: 1 -->
<!--zoomable 169 -->
<svg id="main" version="1.1" xmlns="http://www.w3.org/2000/svg" xmlns:xlink="http://www.w3.org/1999/xlink" xml:space="preserve" onload="init(evt)">
<style type="text/css"><![CDATA[
.edge:hover path { stroke: red; }
.edge:hover polygon { stroke: red; fill: red; }
]]></style>
<script type="text/javascript"><![CDATA[
var edges = document.getElementsByTagName('g');
if (edges && edges.length) {
  for (var i=0;i<edges.length;i++) {
    if (edges[i].id.substr(0,4)=='edge') {
      edges[i].setAttribute('class','edge');
    }
  }
}
]]></script>
        <defs>
                <circle id="rim" cx="0" cy="0" r="7"/>
                <circle id="rim2" cx="0" cy="0" r="3.5"/>
                <g id="zoomPlus">
                        <use xlink:href="#rim" fill="#404040">
                                <set attributeName="fill" to="#808080" begin="zoomplus.mouseover" end="zoomplus.mouseout"/>
                        </use>
                        <path d="M-4,0h8M0,-4v8" fill="none" stroke="white" stroke-width="1.5" pointer-events="none"/>
                </g>
                <g id="zoomMin">
                        <use xlink:href="#rim" fill="#404040">
                                <set attributeName="fill" to="#808080" begin="zoomminus.mouseover" end="zoomminus.mouseout"/>
                        </use>
                        <path d="M-4,0h8" fill="none" stroke="white" stroke-width="1.5" pointer-events="none"/>
                </g>
                <g id="dirArrow">
                        <path fill="none" stroke="white" stroke-width="1.5" d="M0,-3.0v7 M-2.5,-0.5L0,-3.0L2.5,-0.5"/>
                </g>
               <g id="resetDef">
                       <use xlink:href="#rim2" fill="#404040">
                               <set attributeName="fill" to="#808080" begin="reset.mouseover" end="reset.mouseout"/>
                       </use>
               </g>
        </defs>

<script type="text/javascript">
var viewWidth = 926;
var viewHeight = 169;
var sectionId = 'dynsection-0';
</script>
<script xlink:href="svgpan.js"/>
<svg id="graph" class="graph">
<g id="viewport">
<title>mfem::IntRuleCoefficient&lt; IR, coeff_t, NE &gt;::Aux&lt; false, dummy &gt;</title>
<polygon fill="#ffffff" stroke="transparent" points="-4,4 -4,-165 922.2041,-165 922.2041,4 -4,4"/>
<!-- Node1 -->
<g id="node1" class="node">
<title>Node1</title>
<polygon fill="#bfbfbf" stroke="#000000" points="748.9219,-23.5 748.9219,-73.5 918.2041,-73.5 918.2041,-23.5 748.9219,-23.5"/>
<text text-anchor="start" x="756.9219" y="-58.3" font-family="Helvetica,sans-Serif" font-size="14.00" fill="#000000">mfem::IntRuleCoefficient</text>
<text text-anchor="start" x="756.9219" y="-44.3" font-family="Helvetica,sans-Serif" font-size="14.00" fill="#000000">&lt; IR, coeff_t, NE &gt;::Aux</text>
<text text-anchor="middle" x="833.563" y="-30.3" font-family="Helvetica,sans-Serif" font-size="14.00" fill="#000000">&lt; false, dummy &gt;</text>
</g>
<!-- Node2 -->
<g id="node2" class="node">
<title>Node2</title>
<g id="a_node2"><a xlink:href="structmfem_1_1TMatrix.html" target="_top" xlink:title="mfem::TMatrix\&lt; qpts,\l 1, typename IR::real\l_type \&gt;">
<polygon fill="#ffffff" stroke="#000000" points="530.2378,-55.5 530.2378,-105.5 678.0962,-105.5 678.0962,-55.5 530.2378,-55.5"/>
<text text-anchor="start" x="538.2378" y="-90.3" font-family="Helvetica,sans-Serif" font-size="14.00" fill="#000000">mfem::TMatrix&lt; qpts,</text>
<text text-anchor="start" x="538.2378" y="-76.3" font-family="Helvetica,sans-Serif" font-size="14.00" fill="#000000"> 1, typename IR::real</text>
<text text-anchor="middle" x="604.167" y="-62.3" font-family="Helvetica,sans-Serif" font-size="14.00" fill="#000000">_type &gt;</text>
</a>
</g>
</g>
<!-- Node2&#45;&gt;Node1 -->
<g id="edge1" class="edge">
<title>Node2&#45;&gt;Node1</title>
<path fill="none" stroke="#9a32cd" stroke-dasharray="5,2" d="M688.4992,-68.7359C708.1989,-65.9879 729.1864,-63.0602 748.9004,-60.3102"/>
<polygon fill="#9a32cd" stroke="#9a32cd" points="687.749,-65.3066 678.3285,-70.1547 688.7162,-72.2395 687.749,-65.3066"/>
<text text-anchor="middle" x="723.9219" y="-67.3" font-family="Helvetica,sans-Serif" font-size="14.00" fill="#000000"> w</text>
</g>
<!-- Node3 -->
<g id="node3" class="node">
<title>Node3</title>
<g id="a_node3"><a xlink:href="structmfem_1_1TVector.html" target="_top" xlink:title="mfem::TVector\&lt; N1 *N2,\l typename IR::real_type,\l false \&gt;">
<polygon fill="#ffffff" stroke="#000000" points="251.9785,-110.5 251.9785,-160.5 420.502,-160.5 420.502,-110.5 251.9785,-110.5"/>
<text text-anchor="start" x="259.9785" y="-145.3" font-family="Helvetica,sans-Serif" font-size="14.00" fill="#000000">mfem::TVector&lt; N1 *N2,</text>
<text text-anchor="start" x="259.9785" y="-131.3" font-family="Helvetica,sans-Serif" font-size="14.00" fill="#000000"> typename IR::real_type,</text>
<text text-anchor="middle" x="336.2402" y="-117.3" font-family="Helvetica,sans-Serif" font-size="14.00" fill="#000000"> false &gt;</text>
</a>
</g>
</g>
<!-- Node3&#45;&gt;Node2 -->
<g id="edge2" class="edge">
<title>Node3&#45;&gt;Node2</title>
<path fill="none" stroke="#191970" d="M430.6552,-116.1185C463.2934,-109.4185 499.3721,-102.0123 530.1381,-95.6967"/>
<polygon fill="#191970" stroke="#191970" points="429.7381,-112.7337 420.6462,-118.1731 431.1458,-119.5907 429.7381,-112.7337"/>
</g>
<!-- Node4 -->
<g id="node4" class="node">
<title>Node4</title>
<g id="a_node4"><a xlink:href="structmfem_1_1StridedLayout1D.html" target="_top" xlink:title="mfem::StridedLayout1D\l\&lt; N1, S1 \&gt;">
<polygon fill="#ffffff" stroke="#000000" points="0,-117.5 0,-153.5 163.0684,-153.5 163.0684,-117.5 0,-117.5"/>
<text text-anchor="start" x="8" y="-138.3" font-family="Helvetica,sans-Serif" font-size="14.00" fill="#000000">mfem::StridedLayout1D</text>
<text text-anchor="middle" x="81.5342" y="-124.3" font-family="Helvetica,sans-Serif" font-size="14.00" fill="#000000">&lt; N1, S1 &gt;</text>
</a>
</g>
</g>
<!-- Node4&#45;&gt;Node3 -->
<g id="edge3" class="edge">
<title>Node4&#45;&gt;Node3</title>
<path fill="none" stroke="#9a32cd" stroke-dasharray="5,2" d="M173.2315,-135.5C198.7861,-135.5 226.424,-135.5 251.5554,-135.5"/>
<polygon fill="#9a32cd" stroke="#9a32cd" points="173.1758,-132.0001 163.1758,-135.5 173.1757,-139.0001 173.1758,-132.0001"/>
<text text-anchor="middle" x="201.6924" y="-138.3" font-family="Helvetica,sans-Serif" font-size="14.00" fill="#000000"> layout</text>
</g>
<!-- Node5 -->
<g id="node5" class="node">
<title>Node5</title>
<g id="a_node5"><a xlink:href="structmfem_1_1ColumnMajorLayout2D.html" target="_top" xlink:title="mfem::ColumnMajorLayout2\lD\&lt; N1, N2 \&gt;">
<polygon fill="#ffffff" stroke="#000000" points="240.3164,-55.5 240.3164,-91.5 432.1641,-91.5 432.1641,-55.5 240.3164,-55.5"/>
<text text-anchor="start" x="248.3164" y="-76.3" font-family="Helvetica,sans-Serif" font-size="14.00" fill="#000000">mfem::ColumnMajorLayout2</text>
<text text-anchor="middle" x="336.2402" y="-62.3" font-family="Helvetica,sans-Serif" font-size="14.00" fill="#000000">D&lt; N1, N2 &gt;</text>
</a>
</g>
</g>
<!-- Node5&#45;&gt;Node2 -->
<g id="edge4" class="edge">
<title>Node5&#45;&gt;Node2</title>
<path fill="none" stroke="#9a32cd" stroke-dasharray="5,2" d="M442.4746,-76.2755C471.7361,-77.04 502.8435,-77.8528 529.8764,-78.559"/>
<polygon fill="#9a32cd" stroke="#9a32cd" points="442.2992,-72.7699 432.2112,-76.0074 442.1163,-79.7675 442.2992,-72.7699"/>
<text text-anchor="middle" x="470.7881" y="-79.3" font-family="Helvetica,sans-Serif" font-size="14.00" fill="#000000"> layout</text>
</g>
<!-- Node6 -->
<g id="node6" class="node">
<title>Node6</title>
<g id="a_node6"><a xlink:href="structmfem_1_1StridedLayout2D.html" target="_top" xlink:title="mfem::StridedLayout2D\l\&lt; N1, 1, N2, N1 \&gt;">
<polygon fill="#ffffff" stroke="#000000" points="0,-55.5 0,-91.5 163.0684,-91.5 163.0684,-55.5 0,-55.5"/>
<text text-anchor="start" x="8" y="-76.3" font-family="Helvetica,sans-Serif" font-size="14.00" fill="#000000">mfem::StridedLayout2D</text>
<text text-anchor="middle" x="81.5342" y="-62.3" font-family="Helvetica,sans-Serif" font-size="14.00" fill="#000000">&lt; N1, 1, N2, N1 &gt;</text>
</a>
</g>
</g>
<!-- Node6&#45;&gt;Node5 -->
<g id="edge5" class="edge">
<title>Node6&#45;&gt;Node5</title>
<path fill="none" stroke="#191970" d="M173.3364,-73.5C194.9814,-73.5 218.1158,-73.5 239.9525,-73.5"/>
<polygon fill="#191970" stroke="#191970" points="173.1758,-70.0001 163.1758,-73.5 173.1757,-77.0001 173.1758,-70.0001"/>
</g>
<!-- Node7 -->
<g id="node7" class="node">
<title>Node7</title>
<g id="a_node7"><a xlink:href="classmfem_1_1TConstantCoefficient.html" target="_top" xlink:title="mfem::TConstantCoefficient\l\&lt; complex_t \&gt;">
<polygon fill="#ffffff" stroke="#000000" points="509.4121,-.5 509.4121,-36.5 698.9219,-36.5 698.9219,-.5 509.4121,-.5"/>
<text text-anchor="start" x="517.4121" y="-21.3" font-family="Helvetica,sans-Serif" font-size="14.00" fill="#000000">mfem::TConstantCoefficient</text>
<text text-anchor="middle" x="604.167" y="-7.3" font-family="Helvetica,sans-Serif" font-size="14.00" fill="#000000">&lt; complex_t &gt;</text>
</a>
</g>
</g>
<!-- Node7&#45;&gt;Node1 -->
<g id="edge6" class="edge">
<title>Node7&#45;&gt;Node1</title>
<path fill="none" stroke="#9a32cd" stroke-dasharray="5,2" d="M709.1737,-32.2326C722.3709,-33.9585 735.7404,-35.7069 748.5767,-37.3856"/>
<polygon fill="#9a32cd" stroke="#9a32cd" points="709.4965,-28.7451 699.127,-30.9187 708.5887,-35.686 709.4965,-28.7451"/>
<text text-anchor="middle" x="723.9219" y="-37.3" font-family="Helvetica,sans-Serif" font-size="14.00" fill="#000000"> c</text>
</g>
<!-- Node8 -->
<g id="node8" class="node">
<title>Node8</title>
<g id="a_node8"><a xlink:href="classmfem_1_1TCoefficient.html" target="_top" xlink:title="mfem::TCoefficient">
<polygon fill="#ffffff" stroke="#000000" points="269.5024,-7.5 269.5024,-29.5 402.978,-29.5 402.978,-7.5 269.5024,-7.5"/>
<text text-anchor="middle" x="336.2402" y="-14.3" font-family="Helvetica,sans-Serif" font-size="14.00" fill="#000000">mfem::TCoefficient</text>
</a>
</g>
</g>
<!-- Node8&#45;&gt;Node7 -->
<g id="edge7" class="edge">
<title>Node8&#45;&gt;Node7</title>
<path fill="none" stroke="#191970" d="M413.528,-18.5C443.4249,-18.5 477.9391,-18.5 509.3157,-18.5"/>
<polygon fill="#191970" stroke="#191970" points="413.1584,-15.0001 403.1583,-18.5 413.1583,-22.0001 413.1584,-15.0001"/>
</g>
</g>
</svg>
        <g id="navigator" transform="translate(0 0)" fill="#404254">
                <rect fill="#f2f5e9" fill-opacity="0.5" stroke="#606060" stroke-width=".5" x="0" y="0" width="60" height="60"/>
                <use id="zoomplus" xlink:href="#zoomPlus" x="17" y="9" onmousedown="handleZoom(evt,'in')"/>
                <use id="zoomminus" xlink:href="#zoomMin" x="42" y="9" onmousedown="handleZoom(evt,'out')"/>
                <use id="reset" xlink:href="#resetDef" x="30" y="36" onmousedown="handleReset()"/>
                <g id="arrowUp" xlink:href="#dirArrow" transform="translate(30 24)" onmousedown="handlePan(0,-1)">
                  <use xlink:href="#rim" fill="#404040">
                        <set attributeName="fill" to="#808080" begin="arrowUp.mouseover" end="arrowUp.mouseout"/>
                  </use>
                  <path fill="none" stroke="white" stroke-width="1.5" d="M0,-3.0v7 M-2.5,-0.5L0,-3.0L2.5,-0.5"/>
                </g>
                <g id="arrowRight" xlink:href="#dirArrow" transform="rotate(90) translate(36 -43)" onmousedown="handlePan(1,0)">
                  <use xlink:href="#rim" fill="#404040">
                        <set attributeName="fill" to="#808080" begin="arrowRight.mouseover" end="arrowRight.mouseout"/>
                  </use>
                  <path fill="none" stroke="white" stroke-width="1.5" d="M0,-3.0v7 M-2.5,-0.5L0,-3.0L2.5,-0.5"/>
                </g>
                <g id="arrowDown" xlink:href="#dirArrow" transform="rotate(180) translate(-30 -48)" onmousedown="handlePan(0,1)">
                  <use xlink:href="#rim" fill="#404040">
                        <set attributeName="fill" to="#808080" begin="arrowDown.mouseover" end="arrowDown.mouseout"/>
                  </use>
                  <path fill="none" stroke="white" stroke-width="1.5" d="M0,-3.0v7 M-2.5,-0.5L0,-3.0L2.5,-0.5"/>
                </g>
                <g id="arrowLeft" xlink:href="#dirArrow" transform="rotate(270) translate(-36 17)" onmousedown="handlePan(-1,0)">
                  <use xlink:href="#rim" fill="#404040">
                        <set attributeName="fill" to="#808080" begin="arrowLeft.mouseover" end="arrowLeft.mouseout"/>
                  </use>
                  <path fill="none" stroke="white" stroke-width="1.5" d="M0,-3.0v7 M-2.5,-0.5L0,-3.0L2.5,-0.5"/>
                </g>
        </g>
        <svg viewBox="0 0 15 15" width="100%" height="30px" preserveAspectRatio="xMaxYMin meet">
         <g id="arrow_out" transform="scale(0.3 0.3)">
          <a xlink:href="structmfem_1_1IntRuleCoefficient_1_1Aux_3_01false_00_01dummy_01_4__coll__graph_org.svg" target="_base">
           <rect id="button" ry="5" rx="5" y="6" x="6" height="38" width="38"
                fill="#f2f5e9" fill-opacity="0.5" stroke="#606060" stroke-width="1.0"/>
           <path id="arrow"
             d="M 11.500037,31.436501 C 11.940474,20.09759 22.043105,11.32322 32.158766,21.979434 L 37.068811,17.246167 C 37.068811,17.246167 37.088388,32 37.088388,32 L 22.160133,31.978069 C 22.160133,31.978069 26.997745,27.140456 26.997745,27.140456 C 18.528582,18.264221 13.291696,25.230495 11.500037,31.436501 z"
             style="fill:#404040;"/>
          </a>
         </g>
        </svg>
</svg>
