<?xml version="1.0" encoding="UTF-8" standalone="no"?>
<!DOCTYPE svg PUBLIC "-//W3C//DTD SVG 1.1//EN"
 "http://www.w3.org/Graphics/SVG/1.1/DTD/svg11.dtd">
<!-- Generated by graphviz version 2.40.1 (20161225.0304)
 -->
<!-- Title: mfem::TElementTransformation&lt; Mesh_t, IR, real_t &gt;::Result&lt; 10, NE &gt; Pages: 1 -->
<svg width="1014pt" height="224pt"
 viewBox="0.00 0.00 1014.41 224.00" xmlns="http://www.w3.org/2000/svg" xmlns:xlink="http://www.w3.org/1999/xlink">
<g id="graph0" class="graph" transform="scale(1 1) rotate(0) translate(4 220)">
<title>mfem::TElementTransformation&lt; Mesh_t, IR, real_t &gt;::Result&lt; 10, NE &gt;</title>
<polygon fill="#ffffff" stroke="transparent" points="-4,4 -4,-220 1010.4082,-220 1010.4082,4 -4,4"/>
<!-- Node1 -->
<g id="node1" class="node">
<title>Node1</title>
<polygon fill="#bfbfbf" stroke="#000000" points="794.0869,-81.5 794.0869,-131.5 1006.4082,-131.5 1006.4082,-81.5 794.0869,-81.5"/>
<text text-anchor="start" x="802.0869" y="-116.3" font-family="Helvetica,sans-Serif" font-size="14.00" fill="#000000">mfem::TElementTransformation</text>
<text text-anchor="start" x="802.0869" y="-102.3" font-family="Helvetica,sans-Serif" font-size="14.00" fill="#000000">&lt; Mesh_t, IR, real_t &gt;::Result</text>
<text text-anchor="middle" x="900.2476" y="-88.3" font-family="Helvetica,sans-Serif" font-size="14.00" fill="#000000">&lt; 10, NE &gt;</text>
</g>
<!-- Node2 -->
<g id="node2" class="node">
<title>Node2</title>
<g id="a_node2"><a xlink:href="structmfem_1_1TTensor4.html" target="_top" xlink:title="mfem::TTensor4\&lt; qpts,\l dim, sdim, NE, real\l_t, true \&gt;">
<polygon fill="#ffffff" stroke="#000000" points="529.25,-113.5 529.25,-163.5 688.8047,-163.5 688.8047,-113.5 529.25,-113.5"/>
<text text-anchor="start" x="537.25" y="-148.3" font-family="Helvetica,sans-Serif" font-size="14.00" fill="#000000">mfem::TTensor4&lt; qpts,</text>
<text text-anchor="start" x="537.25" y="-134.3" font-family="Helvetica,sans-Serif" font-size="14.00" fill="#000000"> dim, sdim, NE, real</text>
<text text-anchor="middle" x="609.0273" y="-120.3" font-family="Helvetica,sans-Serif" font-size="14.00" fill="#000000">_t, true &gt;</text>
</a>
</g>
</g>
<!-- Node2&#45;&gt;Node1 -->
<g id="edge1" class="edge">
<title>Node2&#45;&gt;Node1</title>
<path fill="none" stroke="#9a32cd" stroke-dasharray="5,2" d="M699.0266,-128.6107C729.0696,-125.3095 762.8294,-121.5998 793.9898,-118.1759"/>
<polygon fill="#9a32cd" stroke="#9a32cd" points="698.5476,-125.1421 688.9897,-129.7135 699.3122,-132.1003 698.5476,-125.1421"/>
<text text-anchor="middle" x="741.4458" y="-129.3" font-family="Helvetica,sans-Serif" font-size="14.00" fill="#000000"> Jt</text>
</g>
<!-- Node3 -->
<g id="node3" class="node">
<title>Node3</title>
<g id="a_node3"><a xlink:href="structmfem_1_1TVector.html" target="_top" xlink:title="mfem::TVector\&lt; N1 *N2\l *N3 *N4, real_t, align \&gt;">
<polygon fill="#ffffff" stroke="#000000" points="273.9663,-117.5 273.9663,-153.5 438.1899,-153.5 438.1899,-117.5 273.9663,-117.5"/>
<text text-anchor="start" x="281.9663" y="-138.3" font-family="Helvetica,sans-Serif" font-size="14.00" fill="#000000">mfem::TVector&lt; N1 *N2</text>
<text text-anchor="middle" x="356.0781" y="-124.3" font-family="Helvetica,sans-Serif" font-size="14.00" fill="#000000"> *N3 *N4, real_t, align &gt;</text>
</a>
</g>
</g>
<!-- Node3&#45;&gt;Node2 -->
<g id="edge2" class="edge">
<title>Node3&#45;&gt;Node2</title>
<path fill="none" stroke="#191970" d="M448.2342,-136.593C474.7117,-136.907 503.3602,-137.2468 529.0388,-137.5513"/>
<polygon fill="#191970" stroke="#191970" points="448.2443,-133.093 438.2035,-136.474 448.1612,-140.0925 448.2443,-133.093"/>
</g>
<!-- Node4 -->
<g id="node4" class="node">
<title>Node4</title>
<g id="a_node4"><a xlink:href="structmfem_1_1StridedLayout1D.html" target="_top" xlink:title="mfem::StridedLayout1D\l\&lt; N1, S1 \&gt;">
<polygon fill="#ffffff" stroke="#000000" points="9.9189,-103.5 9.9189,-139.5 172.9873,-139.5 172.9873,-103.5 9.9189,-103.5"/>
<text text-anchor="start" x="17.9189" y="-124.3" font-family="Helvetica,sans-Serif" font-size="14.00" fill="#000000">mfem::StridedLayout1D</text>
<text text-anchor="middle" x="91.4531" y="-110.3" font-family="Helvetica,sans-Serif" font-size="14.00" fill="#000000">&lt; N1, S1 &gt;</text>
</a>
</g>
</g>
<!-- Node4&#45;&gt;Node3 -->
<g id="edge3" class="edge">
<title>Node4&#45;&gt;Node3</title>
<path fill="none" stroke="#9a32cd" stroke-dasharray="5,2" d="M183.2925,-126.3588C212.7465,-127.917 245.1614,-129.6319 273.8803,-131.1513"/>
<polygon fill="#9a32cd" stroke="#9a32cd" points="183.1796,-122.848 173.0086,-125.8147 182.8097,-129.8382 183.1796,-122.848"/>
<text text-anchor="middle" x="221.5303" y="-131.3" font-family="Helvetica,sans-Serif" font-size="14.00" fill="#000000"> layout</text>
</g>
<!-- Node8 -->
<g id="node8" class="node">
<title>Node8</title>
<g id="a_node8"><a xlink:href="structmfem_1_1TVector.html" target="_top" xlink:title="mfem::TVector\&lt; N1 *N2\l *N3, real_t, false \&gt;">
<polygon fill="#ffffff" stroke="#000000" points="273.9663,-62.5 273.9663,-98.5 438.1899,-98.5 438.1899,-62.5 273.9663,-62.5"/>
<text text-anchor="start" x="281.9663" y="-83.3" font-family="Helvetica,sans-Serif" font-size="14.00" fill="#000000">mfem::TVector&lt; N1 *N2</text>
<text text-anchor="middle" x="356.0781" y="-69.3" font-family="Helvetica,sans-Serif" font-size="14.00" fill="#000000"> *N3, real_t, false &gt;</text>
</a>
</g>
</g>
<!-- Node4&#45;&gt;Node8 -->
<g id="edge8" class="edge">
<title>Node4&#45;&gt;Node8</title>
<path fill="none" stroke="#9a32cd" stroke-dasharray="5,2" d="M182.9068,-107.3305C212.4633,-102.7511 245.036,-97.7044 273.8803,-93.2354"/>
<polygon fill="#9a32cd" stroke="#9a32cd" points="182.3548,-103.8742 173.0086,-108.8641 183.4266,-110.7917 182.3548,-103.8742"/>
<text text-anchor="middle" x="221.5303" y="-105.3" font-family="Helvetica,sans-Serif" font-size="14.00" fill="#000000"> layout</text>
</g>
<!-- Node5 -->
<g id="node5" class="node">
<title>Node5</title>
<g id="a_node5"><a xlink:href="structmfem_1_1ColumnMajorLayout4D.html" target="_top" xlink:title="mfem::ColumnMajorLayout4\lD\&lt; N1, N2, N3, N4 \&gt;">
<polygon fill="#ffffff" stroke="#000000" points="260.1543,-172.5 260.1543,-208.5 452.002,-208.5 452.002,-172.5 260.1543,-172.5"/>
<text text-anchor="start" x="268.1543" y="-193.3" font-family="Helvetica,sans-Serif" font-size="14.00" fill="#000000">mfem::ColumnMajorLayout4</text>
<text text-anchor="middle" x="356.0781" y="-179.3" font-family="Helvetica,sans-Serif" font-size="14.00" fill="#000000">D&lt; N1, N2, N3, N4 &gt;</text>
</a>
</g>
</g>
<!-- Node5&#45;&gt;Node2 -->
<g id="edge4" class="edge">
<title>Node5&#45;&gt;Node2</title>
<path fill="none" stroke="#9a32cd" stroke-dasharray="5,2" d="M453.6726,-170.437C478.604,-165.3118 505.1171,-159.8613 529.0496,-154.9414"/>
<polygon fill="#9a32cd" stroke="#9a32cd" points="452.928,-167.0168 443.8376,-172.4589 454.3376,-173.8734 452.928,-167.0168"/>
<text text-anchor="middle" x="490.626" y="-168.3" font-family="Helvetica,sans-Serif" font-size="14.00" fill="#000000"> layout</text>
</g>
<!-- Node6 -->
<g id="node6" class="node">
<title>Node6</title>
<g id="a_node6"><a xlink:href="structmfem_1_1StridedLayout4D.html" target="_top" xlink:title="mfem::StridedLayout4D\l\&lt; N1, 1, N2, N1, N3,\l N1 *N2, N4, N1 *N2 *N3 \&gt;">
<polygon fill="#ffffff" stroke="#000000" points="0,-165.5 0,-215.5 182.9063,-215.5 182.9063,-165.5 0,-165.5"/>
<text text-anchor="start" x="8" y="-200.3" font-family="Helvetica,sans-Serif" font-size="14.00" fill="#000000">mfem::StridedLayout4D</text>
<text text-anchor="start" x="8" y="-186.3" font-family="Helvetica,sans-Serif" font-size="14.00" fill="#000000">&lt; N1, 1, N2, N1, N3,</text>
<text text-anchor="middle" x="91.4531" y="-172.3" font-family="Helvetica,sans-Serif" font-size="14.00" fill="#000000"> N1 *N2, N4, N1 *N2 *N3 &gt;</text>
</a>
</g>
</g>
<!-- Node6&#45;&gt;Node5 -->
<g id="edge5" class="edge">
<title>Node6&#45;&gt;Node5</title>
<path fill="none" stroke="#191970" d="M193.5346,-190.5C215.3579,-190.5 238.3405,-190.5 259.9314,-190.5"/>
<polygon fill="#191970" stroke="#191970" points="193.2635,-187.0001 183.2634,-190.5 193.2634,-194.0001 193.2635,-187.0001"/>
</g>
<!-- Node7 -->
<g id="node7" class="node">
<title>Node7</title>
<g id="a_node7"><a xlink:href="structmfem_1_1TTensor3.html" target="_top" xlink:title="mfem::TTensor3\&lt; dofs,\l sdim, NE, real_t \&gt;">
<polygon fill="#ffffff" stroke="#000000" points="529.25,-58.5 529.25,-94.5 688.8047,-94.5 688.8047,-58.5 529.25,-58.5"/>
<text text-anchor="start" x="537.25" y="-79.3" font-family="Helvetica,sans-Serif" font-size="14.00" fill="#000000">mfem::TTensor3&lt; dofs,</text>
<text text-anchor="middle" x="609.0273" y="-65.3" font-family="Helvetica,sans-Serif" font-size="14.00" fill="#000000"> sdim, NE, real_t &gt;</text>
</a>
</g>
</g>
<!-- Node7&#45;&gt;Node1 -->
<g id="edge6" class="edge">
<title>Node7&#45;&gt;Node1</title>
<path fill="none" stroke="#9a32cd" stroke-dasharray="5,2" d="M699.0266,-85.7713C729.0696,-88.8661 762.8294,-92.3439 793.9898,-95.5539"/>
<polygon fill="#9a32cd" stroke="#9a32cd" points="699.2958,-82.2806 688.9897,-84.7373 698.5784,-89.2437 699.2958,-82.2806"/>
<text text-anchor="middle" x="741.4458" y="-95.3" font-family="Helvetica,sans-Serif" font-size="14.00" fill="#000000"> nodes_dof</text>
</g>
<!-- Node8&#45;&gt;Node7 -->
<g id="edge7" class="edge">
<title>Node8&#45;&gt;Node7</title>
<path fill="none" stroke="#191970" d="M448.2342,-79.0427C474.7117,-78.624 503.3602,-78.171 529.0388,-77.7649"/>
<polygon fill="#191970" stroke="#191970" points="448.1469,-75.5435 438.2035,-79.2013 448.2576,-82.5427 448.1469,-75.5435"/>
</g>
<!-- Node9 -->
<g id="node9" class="node">
<title>Node9</title>
<g id="a_node9"><a xlink:href="structmfem_1_1ColumnMajorLayout3D.html" target="_top" xlink:title="mfem::ColumnMajorLayout3\lD\&lt; N1, N2, N3 \&gt;">
<polygon fill="#ffffff" stroke="#000000" points="260.1543,-7.5 260.1543,-43.5 452.002,-43.5 452.002,-7.5 260.1543,-7.5"/>
<text text-anchor="start" x="268.1543" y="-28.3" font-family="Helvetica,sans-Serif" font-size="14.00" fill="#000000">mfem::ColumnMajorLayout3</text>
<text text-anchor="middle" x="356.0781" y="-14.3" font-family="Helvetica,sans-Serif" font-size="14.00" fill="#000000">D&lt; N1, N2, N3 &gt;</text>
</a>
</g>
</g>
<!-- Node9&#45;&gt;Node7 -->
<g id="edge9" class="edge">
<title>Node9&#45;&gt;Node7</title>
<path fill="none" stroke="#9a32cd" stroke-dasharray="5,2" d="M455.5753,-45.5608C479.8902,-50.4632 505.6005,-55.6469 528.8807,-60.3407"/>
<polygon fill="#9a32cd" stroke="#9a32cd" points="456.109,-42.098 445.6145,-43.5525 454.7255,-48.9599 456.109,-42.098"/>
<text text-anchor="middle" x="490.626" y="-59.3" font-family="Helvetica,sans-Serif" font-size="14.00" fill="#000000"> layout</text>
</g>
<!-- Node10 -->
<g id="node10" class="node">
<title>Node10</title>
<g id="a_node10"><a xlink:href="structmfem_1_1StridedLayout3D.html" target="_top" xlink:title="mfem::StridedLayout3D\l\&lt; N1, 1, N2, N1, N3,\l N1 *N2 \&gt;">
<polygon fill="#ffffff" stroke="#000000" points="9.9189,-.5 9.9189,-50.5 172.9873,-50.5 172.9873,-.5 9.9189,-.5"/>
<text text-anchor="start" x="17.9189" y="-35.3" font-family="Helvetica,sans-Serif" font-size="14.00" fill="#000000">mfem::StridedLayout3D</text>
<text text-anchor="start" x="17.9189" y="-21.3" font-family="Helvetica,sans-Serif" font-size="14.00" fill="#000000">&lt; N1, 1, N2, N1, N3,</text>
<text text-anchor="middle" x="91.4531" y="-7.3" font-family="Helvetica,sans-Serif" font-size="14.00" fill="#000000"> N1 *N2 &gt;</text>
</a>
</g>
</g>
<!-- Node10&#45;&gt;Node9 -->
<g id="edge10" class="edge">
<title>Node10&#45;&gt;Node9</title>
<path fill="none" stroke="#191970" d="M183.1352,-25.5C207.9512,-25.5 234.879,-25.5 259.9328,-25.5"/>
<polygon fill="#191970" stroke="#191970" points="183.0086,-22.0001 173.0086,-25.5 183.0086,-29.0001 183.0086,-22.0001"/>
</g>
</g>
</svg>
