<?xml version="1.0" encoding="UTF-8" standalone="no"?>
<!DOCTYPE svg PUBLIC "-//W3C//DTD SVG 1.1//EN"
 "http://www.w3.org/Graphics/SVG/1.1/DTD/svg11.dtd">
<!-- Generated by graphviz version 2.40.1 (20161225.0304)
 -->
<!-- Title: mfem::CoarseFineTransformations Pages: 1 -->
<svg width="314pt" height="178pt"
 viewBox="0.00 0.00 314.17 178.00" xmlns="http://www.w3.org/2000/svg" xmlns:xlink="http://www.w3.org/1999/xlink">
<g id="graph0" class="graph" transform="scale(1 1) rotate(0) translate(4 174)">
<title>mfem::CoarseFineTransformations</title>
<polygon fill="#ffffff" stroke="transparent" points="-4,4 -4,-174 310.1704,-174 310.1704,4 -4,4"/>
<!-- Node1 -->
<g id="node1" class="node">
<title>Node1</title>
<polygon fill="#bfbfbf" stroke="#000000" points="67.6479,-.5 67.6479,-22.5 299.4243,-22.5 299.4243,-.5 67.6479,-.5"/>
<text text-anchor="middle" x="183.5361" y="-7.3" font-family="Helvetica,sans-Serif" font-size="14.00" fill="#000000">mfem::CoarseFineTransformations</text>
</g>
<!-- Node2 -->
<g id="node2" class="node">
<title>Node2</title>
<g id="a_node2"><a xlink:href="classmfem_1_1Array.html" target="_top" xlink:title="mfem::Array\&lt; mfem::\lEmbedding \&gt;">
<polygon fill="#ffffff" stroke="#000000" points="0,-73.5 0,-109.5 147.0723,-109.5 147.0723,-73.5 0,-73.5"/>
<text text-anchor="start" x="8" y="-94.3" font-family="Helvetica,sans-Serif" font-size="14.00" fill="#000000">mfem::Array&lt; mfem::</text>
<text text-anchor="middle" x="73.5361" y="-80.3" font-family="Helvetica,sans-Serif" font-size="14.00" fill="#000000">Embedding &gt;</text>
</a>
</g>
</g>
<!-- Node2&#45;&gt;Node1 -->
<g id="edge1" class="edge">
<title>Node2&#45;&gt;Node1</title>
<path fill="none" stroke="#9a32cd" stroke-dasharray="5,2" d="M93.0048,-65.4574C100.2902,-56.9072 109.0719,-47.8505 118.3711,-41 128.5695,-33.487 140.9862,-27.2777 152.2344,-22.526"/>
<polygon fill="#9a32cd" stroke="#9a32cd" points="90.1239,-63.4519 86.5103,-73.4114 95.546,-67.8791 90.1239,-63.4519"/>
<text text-anchor="middle" x="158.6187" y="-43.8" font-family="Helvetica,sans-Serif" font-size="14.00" fill="#000000"> embeddings</text>
</g>
<!-- Node3 -->
<g id="node3" class="node">
<title>Node3</title>
<g id="a_node3"><a xlink:href="classmfem_1_1BaseArray.html" target="_top" xlink:title="Base class for array container. ">
<polygon fill="#ffffff" stroke="#000000" points="11.4673,-147.5 11.4673,-169.5 135.605,-169.5 135.605,-147.5 11.4673,-147.5"/>
<text text-anchor="middle" x="73.5361" y="-154.3" font-family="Helvetica,sans-Serif" font-size="14.00" fill="#000000">mfem::BaseArray</text>
</a>
</g>
</g>
<!-- Node3&#45;&gt;Node2 -->
<g id="edge2" class="edge">
<title>Node3&#45;&gt;Node2</title>
<path fill="none" stroke="#191970" d="M73.5361,-137.151C73.5361,-128.3013 73.5361,-118.1428 73.5361,-109.6588"/>
<polygon fill="#191970" stroke="#191970" points="70.0362,-137.4363 73.5361,-147.4363 77.0362,-137.4363 70.0362,-137.4363"/>
</g>
<!-- Node4 -->
<g id="node4" class="node">
<title>Node4</title>
<g id="a_node4"><a xlink:href="classmfem_1_1DenseTensor.html" target="_top" xlink:title="Rank 3 tensor (array of matrices) ">
<polygon fill="#ffffff" stroke="#000000" points="164.9019,-80.5 164.9019,-102.5 306.1704,-102.5 306.1704,-80.5 164.9019,-80.5"/>
<text text-anchor="middle" x="235.5361" y="-87.3" font-family="Helvetica,sans-Serif" font-size="14.00" fill="#000000">mfem::DenseTensor</text>
</a>
</g>
</g>
<!-- Node4&#45;&gt;Node1 -->
<g id="edge3" class="edge">
<title>Node4&#45;&gt;Node1</title>
<path fill="none" stroke="#9a32cd" stroke-dasharray="5,2" d="M222.8531,-71.9877C212.7539,-56.4505 198.9829,-35.2642 190.7051,-22.5292"/>
<polygon fill="#9a32cd" stroke="#9a32cd" points="219.9213,-73.8994 228.3058,-80.3763 225.7904,-70.0844 219.9213,-73.8994"/>
<text text-anchor="middle" x="258.0015" y="-43.8" font-family="Helvetica,sans-Serif" font-size="14.00" fill="#000000"> point_matrices</text>
</g>
</g>
</svg>
