<?xml version="1.0" encoding="UTF-8" standalone="no"?>
<!DOCTYPE svg PUBLIC "-//W3C//DTD SVG 1.1//EN"
 "http://www.w3.org/Graphics/SVG/1.1/DTD/svg11.dtd">
<!-- Generated by graphviz version 2.30.1 (20200304.1809)
 -->
<!-- Title: mfem::DiscreteLinearOperator Pages: 1 -->
<!--zoomable 213 -->
<svg id="main" version="1.1" xmlns="http://www.w3.org/2000/svg" xmlns:xlink="http://www.w3.org/1999/xlink" xml:space="preserve" onload="init(evt)">
<style type="text/css"><![CDATA[
.edge:hover path { stroke: red; }
.edge:hover polygon { stroke: red; fill: red; }
]]></style>
<script type="text/javascript"><![CDATA[
var edges = document.getElementsByTagName('g');
if (edges && edges.length) {
  for (var i=0;i<edges.length;i++) {
    if (edges[i].id.substr(0,4)=='edge') {
      edges[i].setAttribute('class','edge');
    }
  }
}
]]></script>
        <defs>
                <circle id="rim" cx="0" cy="0" r="7"/>
                <circle id="rim2" cx="0" cy="0" r="3.5"/>
                <g id="zoomPlus">
                        <use xlink:href="#rim" fill="#404040">
                                <set attributeName="fill" to="#808080" begin="zoomplus.mouseover" end="zoomplus.mouseout"/>
                        </use>
                        <path d="M-4,0h8M0,-4v8" fill="none" stroke="white" stroke-width="1.5" pointer-events="none"/>
                </g>
                <g id="zoomMin">
                        <use xlink:href="#rim" fill="#404040">
                                <set attributeName="fill" to="#808080" begin="zoomminus.mouseover" end="zoomminus.mouseout"/>
                        </use>
                        <path d="M-4,0h8" fill="none" stroke="white" stroke-width="1.5" pointer-events="none"/>
                </g>
                <g id="dirArrow">
                        <path fill="none" stroke="white" stroke-width="1.5" d="M0,-3.0v7 M-2.5,-0.5L0,-3.0L2.5,-0.5"/>
                </g>
               <g id="resetDef">
                       <use xlink:href="#rim2" fill="#404040">
                               <set attributeName="fill" to="#808080" begin="reset.mouseover" end="reset.mouseout"/>
                       </use>
               </g>
        </defs>

<script type="text/javascript">
var viewWidth = 1704;
var viewHeight = 213;
var sectionId = 'dynsection-1';
</script>
<script xlink:href="svgpan.js"/>
<svg id="graph" class="graph">
<g id="viewport">
<title>mfem::DiscreteLinearOperator</title>
<polygon fill="white" stroke="white" points="-4,5 -4,-209 1701,-209 1701,5 -4,5"/>
<!-- Node1 -->
<g id="node1" class="node"><title>Node1</title>
<polygon fill="#bfbfbf" stroke="black" points="1458.5,-86.5 1458.5,-109.5 1695.5,-109.5 1695.5,-86.5 1458.5,-86.5"/>
<text text-anchor="middle" x="1577" y="-94.3" font-family="Helvetica,sans-Serif" font-size="14.00">mfem::DiscreteLinearOperator</text>
</g>
<!-- Node2 -->
<g id="node2" class="node"><title>Node2</title>
<g id="a_node2"><a xlink:href="classmfem_1_1MixedBilinearForm.html" target="_top" xlink:title="mfem::MixedBilinearForm">
<polygon fill="white" stroke="black" points="1220,-86.5 1220,-109.5 1420,-109.5 1420,-86.5 1220,-86.5"/>
<text text-anchor="middle" x="1320" y="-94.3" font-family="Helvetica,sans-Serif" font-size="14.00">mfem::MixedBilinearForm</text>
</a>
</g>
</g>
<!-- Node2&#45;&gt;Node1 -->
<g id="edge1" class="edge"><title>Node2&#45;&gt;Node1</title>
<path fill="none" stroke="midnightblue" d="M1430.6,-98C1439.77,-98 1449.06,-98 1458.28,-98"/>
<polygon fill="midnightblue" stroke="midnightblue" points="1430.32,-94.5001 1420.32,-98 1430.32,-101.5 1430.32,-94.5001"/>
</g>
<!-- Node3 -->
<g id="node3" class="node"><title>Node3</title>
<g id="a_node3"><a xlink:href="classmfem_1_1Matrix.html" target="_top" xlink:title="Abstract data type matrix. ">
<polygon fill="white" stroke="black" points="172.5,-162.5 172.5,-185.5 285.5,-185.5 285.5,-162.5 172.5,-162.5"/>
<text text-anchor="middle" x="229" y="-170.3" font-family="Helvetica,sans-Serif" font-size="14.00">mfem::Matrix</text>
</a>
</g>
</g>
<!-- Node3&#45;&gt;Node2 -->
<g id="edge2" class="edge"><title>Node3&#45;&gt;Node2</title>
<path fill="none" stroke="midnightblue" d="M288.313,-187.637C328.92,-195.955 384.463,-205 434,-205 434,-205 434,-205 1018,-205 1130.86,-205 1254.49,-137.387 1300.45,-109.655"/>
<polygon fill="midnightblue" stroke="midnightblue" points="288.829,-184.169 278.324,-185.543 287.393,-191.02 288.829,-184.169"/>
</g>
<!-- Node6 -->
<g id="node6" class="node"><title>Node6</title>
<g id="a_node6"><a xlink:href="classmfem_1_1AbstractSparseMatrix.html" target="_top" xlink:title="Abstract data type for sparse matrices. ">
<polygon fill="white" stroke="black" points="324.5,-95.5 324.5,-118.5 545.5,-118.5 545.5,-95.5 324.5,-95.5"/>
<text text-anchor="middle" x="435" y="-103.3" font-family="Helvetica,sans-Serif" font-size="14.00">mfem::AbstractSparseMatrix</text>
</a>
</g>
</g>
<!-- Node3&#45;&gt;Node6 -->
<g id="edge6" class="edge"><title>Node3&#45;&gt;Node6</title>
<path fill="none" stroke="midnightblue" d="M258.787,-157.416C276.971,-147.578 301.25,-135.586 324,-128 335.158,-124.279 347.186,-121.144 359.05,-118.526"/>
<polygon fill="midnightblue" stroke="midnightblue" points="256.942,-154.437 249.874,-162.329 260.322,-160.567 256.942,-154.437"/>
</g>
<!-- Node4 -->
<g id="node4" class="node"><title>Node4</title>
<g id="a_node4"><a xlink:href="classmfem_1_1Operator.html" target="_top" xlink:title="Abstract operator. ">
<polygon fill="white" stroke="black" points="0.5,-162.5 0.5,-185.5 133.5,-185.5 133.5,-162.5 0.5,-162.5"/>
<text text-anchor="middle" x="67" y="-170.3" font-family="Helvetica,sans-Serif" font-size="14.00">mfem::Operator</text>
</a>
</g>
</g>
<!-- Node4&#45;&gt;Node3 -->
<g id="edge3" class="edge"><title>Node4&#45;&gt;Node3</title>
<path fill="none" stroke="midnightblue" d="M143.564,-174C153.237,-174 162.996,-174 172.274,-174"/>
<polygon fill="midnightblue" stroke="midnightblue" points="143.54,-170.5 133.54,-174 143.54,-177.5 143.54,-170.5"/>
</g>
<!-- Node5 -->
<g id="node5" class="node"><title>Node5</title>
<g id="a_node5"><a xlink:href="classmfem_1_1SparseMatrix.html" target="_top" xlink:title="Data type sparse matrix. ">
<polygon fill="white" stroke="black" points="668,-98.5 668,-121.5 830,-121.5 830,-98.5 668,-98.5"/>
<text text-anchor="middle" x="749" y="-106.3" font-family="Helvetica,sans-Serif" font-size="14.00">mfem::SparseMatrix</text>
</a>
</g>
</g>
<!-- Node5&#45;&gt;Node2 -->
<g id="edge4" class="edge"><title>Node5&#45;&gt;Node2</title>
<path fill="none" stroke="#9a32cd" stroke-dasharray="5,2" d="M829.789,-96.9866C855.913,-93.3096 885.125,-89.8165 912,-88 1016.9,-80.9098 1137.31,-85.4354 1219.78,-90.4719"/>
<polygon fill="#9a32cd" stroke="#9a32cd" points="828.962,-93.5695 819.562,-98.4571 829.958,-100.498 828.962,-93.5695"/>
<text text-anchor="middle" x="1017" y="-91.8" font-family="Helvetica,sans-Serif" font-size="14.00"> mat</text>
</g>
<!-- Node8 -->
<g id="node8" class="node"><title>Node8</title>
<g id="a_node8"><a xlink:href="classmfem_1_1FiniteElementSpace.html" target="_top" xlink:title="Class FiniteElementSpace &#45; responsible for providing FEM view of the mesh, mainly managing the set of...">
<polygon fill="white" stroke="red" points="912.5,-112.5 912.5,-135.5 1121.5,-135.5 1121.5,-112.5 912.5,-112.5"/>
<text text-anchor="middle" x="1017" y="-120.3" font-family="Helvetica,sans-Serif" font-size="14.00">mfem::FiniteElementSpace</text>
</a>
</g>
</g>
<!-- Node5&#45;&gt;Node8 -->
<g id="edge10" class="edge"><title>Node5&#45;&gt;Node8</title>
<path fill="none" stroke="#9a32cd" stroke-dasharray="5,2" d="M840.385,-110.928C858.167,-111.38 876.677,-112.04 894,-113 899.945,-113.33 906.05,-113.719 912.207,-114.15"/>
<polygon fill="#9a32cd" stroke="#9a32cd" points="840.093,-107.42 830.014,-110.685 839.929,-114.418 840.093,-107.42"/>
<text text-anchor="middle" x="871" y="-131.8" font-family="Helvetica,sans-Serif" font-size="14.00"> cR</text>
<text text-anchor="middle" x="871" y="-116.8" font-family="Helvetica,sans-Serif" font-size="14.00">cP</text>
</g>
<!-- Node6&#45;&gt;Node5 -->
<g id="edge5" class="edge"><title>Node6&#45;&gt;Node5</title>
<path fill="none" stroke="midnightblue" d="M556.02,-108.154C593.403,-108.513 633.702,-108.901 667.68,-109.228"/>
<polygon fill="midnightblue" stroke="midnightblue" points="555.594,-104.65 545.561,-108.053 555.527,-111.65 555.594,-104.65"/>
</g>
<!-- Node7 -->
<g id="node7" class="node"><title>Node7</title>
<g id="a_node7"><a xlink:href="classmfem_1_1MemAlloc.html" target="_top" xlink:title="mfem::MemAlloc\&lt; Elem,\l Num \&gt;">
<polygon fill="white" stroke="black" points="338,-138 338,-176 532,-176 532,-138 338,-138"/>
<text text-anchor="start" x="346" y="-160.8" font-family="Helvetica,sans-Serif" font-size="14.00">mfem::MemAlloc&lt; Elem,</text>
<text text-anchor="middle" x="435" y="-145.8" font-family="Helvetica,sans-Serif" font-size="14.00"> Num &gt;</text>
</a>
</g>
</g>
<!-- Node7&#45;&gt;Node5 -->
<g id="edge7" class="edge"><title>Node7&#45;&gt;Node5</title>
<path fill="none" stroke="#9a32cd" stroke-dasharray="5,2" d="M542.243,-140.995C584.655,-134.606 632.547,-127.392 671.448,-121.532"/>
<polygon fill="#9a32cd" stroke="#9a32cd" points="541.523,-137.564 532.156,-142.515 542.566,-144.486 541.523,-137.564"/>
<text text-anchor="middle" x="607" y="-141.8" font-family="Helvetica,sans-Serif" font-size="14.00"> NodesMem</text>
</g>
<!-- Node8&#45;&gt;Node2 -->
<g id="edge8" class="edge"><title>Node8&#45;&gt;Node2</title>
<path fill="none" stroke="#9a32cd" stroke-dasharray="5,2" d="M1131.74,-114.175C1160.71,-111.673 1191.62,-109.003 1219.79,-106.569"/>
<polygon fill="#9a32cd" stroke="#9a32cd" points="1131.25,-110.705 1121.59,-115.052 1131.85,-117.679 1131.25,-110.705"/>
<text text-anchor="middle" x="1171" y="-132.8" font-family="Helvetica,sans-Serif" font-size="14.00"> trial_fes</text>
<text text-anchor="middle" x="1171" y="-117.8" font-family="Helvetica,sans-Serif" font-size="14.00">test_fes</text>
</g>
<!-- Node9 -->
<g id="node9" class="node"><title>Node9</title>
<g id="a_node9"><a xlink:href="classmfem_1_1Mesh.html" target="_top" xlink:title="mfem::Mesh">
<polygon fill="white" stroke="red" points="696,-153.5 696,-176.5 802,-176.5 802,-153.5 696,-153.5"/>
<text text-anchor="middle" x="749" y="-161.3" font-family="Helvetica,sans-Serif" font-size="14.00">mfem::Mesh</text>
</a>
</g>
</g>
<!-- Node9&#45;&gt;Node8 -->
<g id="edge9" class="edge"><title>Node9&#45;&gt;Node8</title>
<path fill="none" stroke="#9a32cd" stroke-dasharray="5,2" d="M812.532,-155.487C837.829,-151.628 867.309,-147.117 894,-143 909.571,-140.598 926.258,-138.009 942.136,-135.539"/>
<polygon fill="#9a32cd" stroke="#9a32cd" points="811.69,-152.075 802.332,-157.042 812.745,-158.995 811.69,-152.075"/>
<text text-anchor="middle" x="871" y="-153.8" font-family="Helvetica,sans-Serif" font-size="14.00"> mesh</text>
</g>
<!-- Node10 -->
<g id="node10" class="node"><title>Node10</title>
<g id="a_node10"><a xlink:href="classmfem_1_1Array.html" target="_top" xlink:title="mfem::Array\&lt; mfem::\lBilinearFormIntegrator * \&gt;">
<polygon fill="white" stroke="red" points="913,-0 913,-38 1121,-38 1121,-0 913,-0"/>
<text text-anchor="start" x="921" y="-22.8" font-family="Helvetica,sans-Serif" font-size="14.00">mfem::Array&lt; mfem::</text>
<text text-anchor="middle" x="1017" y="-7.8" font-family="Helvetica,sans-Serif" font-size="14.00">BilinearFormIntegrator * &gt;</text>
</a>
</g>
</g>
<!-- Node10&#45;&gt;Node2 -->
<g id="edge11" class="edge"><title>Node10&#45;&gt;Node2</title>
<path fill="none" stroke="#9a32cd" stroke-dasharray="5,2" d="M1131.4,-9.3478C1155.11,-10.1655 1179.68,-13.1758 1202,-20 1245.19,-33.205 1287.06,-68.0588 1306.96,-86.376"/>
<polygon fill="#9a32cd" stroke="#9a32cd" points="1131.37,-5.84646 1121.3,-9.1269 1131.22,-12.8448 1131.37,-5.84646"/>
<text text-anchor="middle" x="1171" y="-53.8" font-family="Helvetica,sans-Serif" font-size="14.00"> skt</text>
<text text-anchor="middle" x="1171" y="-38.8" font-family="Helvetica,sans-Serif" font-size="14.00">bdr</text>
<text text-anchor="middle" x="1171" y="-23.8" font-family="Helvetica,sans-Serif" font-size="14.00">dom</text>
</g>
</g>
</svg>
        <g id="navigator" transform="translate(0 0)" fill="#404254">
                <rect fill="#f2f5e9" fill-opacity="0.5" stroke="#606060" stroke-width=".5" x="0" y="0" width="60" height="60"/>
                <use id="zoomplus" xlink:href="#zoomPlus" x="17" y="9" onmousedown="handleZoom(evt,'in')"/>
                <use id="zoomminus" xlink:href="#zoomMin" x="42" y="9" onmousedown="handleZoom(evt,'out')"/>
                <use id="reset" xlink:href="#resetDef" x="30" y="36" onmousedown="handleReset()"/>
                <g id="arrowUp" xlink:href="#dirArrow" transform="translate(30 24)" onmousedown="handlePan(0,-1)">
                  <use xlink:href="#rim" fill="#404040">
                        <set attributeName="fill" to="#808080" begin="arrowUp.mouseover" end="arrowUp.mouseout"/>
                  </use>
                  <path fill="none" stroke="white" stroke-width="1.5" d="M0,-3.0v7 M-2.5,-0.5L0,-3.0L2.5,-0.5"/>
                </g>
                <g id="arrowRight" xlink:href="#dirArrow" transform="rotate(90) translate(36 -43)" onmousedown="handlePan(1,0)">
                  <use xlink:href="#rim" fill="#404040">
                        <set attributeName="fill" to="#808080" begin="arrowRight.mouseover" end="arrowRight.mouseout"/>
                  </use>
                  <path fill="none" stroke="white" stroke-width="1.5" d="M0,-3.0v7 M-2.5,-0.5L0,-3.0L2.5,-0.5"/>
                </g>
                <g id="arrowDown" xlink:href="#dirArrow" transform="rotate(180) translate(-30 -48)" onmousedown="handlePan(0,1)">
                  <use xlink:href="#rim" fill="#404040">
                        <set attributeName="fill" to="#808080" begin="arrowDown.mouseover" end="arrowDown.mouseout"/>
                  </use>
                  <path fill="none" stroke="white" stroke-width="1.5" d="M0,-3.0v7 M-2.5,-0.5L0,-3.0L2.5,-0.5"/>
                </g>
                <g id="arrowLeft" xlink:href="#dirArrow" transform="rotate(270) translate(-36 17)" onmousedown="handlePan(-1,0)">
                  <use xlink:href="#rim" fill="#404040">
                        <set attributeName="fill" to="#808080" begin="arrowLeft.mouseover" end="arrowLeft.mouseout"/>
                  </use>
                  <path fill="none" stroke="white" stroke-width="1.5" d="M0,-3.0v7 M-2.5,-0.5L0,-3.0L2.5,-0.5"/>
                </g>
        </g>
        <svg viewBox="0 0 15 15" width="100%" height="30px" preserveAspectRatio="xMaxYMin meet">
         <g id="arrow_out" transform="scale(0.3 0.3)">
          <a xlink:href="classmfem_1_1DiscreteLinearOperator__coll__graph_org.svg" target="_base">
           <rect id="button" ry="5" rx="5" y="6" x="6" height="38" width="38"
                fill="#f2f5e9" fill-opacity="0.5" stroke="#606060" stroke-width="1.0"/>
           <path id="arrow"
             d="M 11.500037,31.436501 C 11.940474,20.09759 22.043105,11.32322 32.158766,21.979434 L 37.068811,17.246167 C 37.068811,17.246167 37.088388,32 37.088388,32 L 22.160133,31.978069 C 22.160133,31.978069 26.997745,27.140456 26.997745,27.140456 C 18.528582,18.264221 13.291696,25.230495 11.500037,31.436501 z"
             style="fill:#404040;"/>
          </a>
         </g>
        </svg>
</svg>
