<?xml version="1.0" encoding="UTF-8" standalone="no"?>
<!DOCTYPE svg PUBLIC "-//W3C//DTD SVG 1.1//EN"
 "http://www.w3.org/Graphics/SVG/1.1/DTD/svg11.dtd">
<!-- Generated by graphviz version 2.30.1 (20200304.1809)
 -->
<!-- Title: mfem::SIASolver Pages: 1 -->
<svg width="445pt" height="184pt"
 viewBox="0.00 0.00 445.00 184.00" xmlns="http://www.w3.org/2000/svg" xmlns:xlink="http://www.w3.org/1999/xlink">
<g id="graph0" class="graph" transform="scale(1 1) rotate(0) translate(4 180)">
<title>mfem::SIASolver</title>
<polygon fill="white" stroke="white" points="-4,5 -4,-180 442,-180 442,5 -4,5"/>
<!-- Node1 -->
<g id="node1" class="node"><title>Node1</title>
<polygon fill="#bfbfbf" stroke="black" points="215.5,-0.5 215.5,-23.5 352.5,-23.5 352.5,-0.5 215.5,-0.5"/>
<text text-anchor="middle" x="284" y="-8.3" font-family="Helvetica,sans-Serif" font-size="14.00">mfem::SIASolver</text>
</g>
<!-- Node2 -->
<g id="node2" class="node"><title>Node2</title>
<g id="a_node2"><a xlink:href="classmfem_1_1TimeDependentOperator.html" target="_top" xlink:title="Base abstract class for time dependent operators. ">
<polygon fill="white" stroke="black" points="0,-90.5 0,-113.5 248,-113.5 248,-90.5 0,-90.5"/>
<text text-anchor="middle" x="124" y="-98.3" font-family="Helvetica,sans-Serif" font-size="14.00">mfem::TimeDependentOperator</text>
</a>
</g>
</g>
<!-- Node2&#45;&gt;Node1 -->
<g id="edge1" class="edge"><title>Node2&#45;&gt;Node1</title>
<path fill="none" stroke="#9a32cd" stroke-dasharray="5,2" d="M152.249,-85.4628C184.561,-67.6915 236.603,-39.0684 264.632,-23.6525"/>
<polygon fill="#9a32cd" stroke="#9a32cd" points="150.375,-82.4991 143.3,-90.3851 153.749,-88.6327 150.375,-82.4991"/>
<text text-anchor="middle" x="238.5" y="-53.3" font-family="Helvetica,sans-Serif" font-size="14.00"> F_</text>
</g>
<!-- Node3 -->
<g id="node3" class="node"><title>Node3</title>
<g id="a_node3"><a xlink:href="classmfem_1_1Operator.html" target="_top" xlink:title="Abstract operator. ">
<polygon fill="white" stroke="black" points="171.5,-152.5 171.5,-175.5 304.5,-175.5 304.5,-152.5 171.5,-152.5"/>
<text text-anchor="middle" x="238" y="-160.3" font-family="Helvetica,sans-Serif" font-size="14.00">mfem::Operator</text>
</a>
</g>
</g>
<!-- Node3&#45;&gt;Node2 -->
<g id="edge2" class="edge"><title>Node3&#45;&gt;Node2</title>
<path fill="none" stroke="midnightblue" d="M208.807,-147.635C188.607,-137.004 162.237,-123.125 144.301,-113.685"/>
<polygon fill="midnightblue" stroke="midnightblue" points="207.402,-150.851 217.882,-152.411 210.662,-144.657 207.402,-150.851"/>
</g>
<!-- Node3&#45;&gt;Node1 -->
<g id="edge4" class="edge"><title>Node3&#45;&gt;Node1</title>
<path fill="none" stroke="#9a32cd" stroke-dasharray="5,2" d="M246.386,-142.84C249.89,-134.059 253.866,-123.601 257,-114 267.59,-81.5621 277.187,-42.2974 281.539,-23.7267"/>
<polygon fill="#9a32cd" stroke="#9a32cd" points="243.095,-141.642 242.568,-152.224 249.579,-144.28 243.095,-141.642"/>
<text text-anchor="middle" x="275.5" y="-98.3" font-family="Helvetica,sans-Serif" font-size="14.00"> P_</text>
</g>
<!-- Node4 -->
<g id="node4" class="node"><title>Node4</title>
<g id="a_node4"><a xlink:href="classmfem_1_1Vector.html" target="_top" xlink:title="Vector data type. ">
<polygon fill="white" stroke="black" points="323,-90.5 323,-113.5 437,-113.5 437,-90.5 323,-90.5"/>
<text text-anchor="middle" x="380" y="-98.3" font-family="Helvetica,sans-Serif" font-size="14.00">mfem::Vector</text>
</a>
</g>
</g>
<!-- Node4&#45;&gt;Node1 -->
<g id="edge3" class="edge"><title>Node4&#45;&gt;Node1</title>
<path fill="none" stroke="#9a32cd" stroke-dasharray="5,2" d="M360.803,-83.4026C341.303,-65.5273 311.738,-38.4266 295.568,-23.6039"/>
<polygon fill="#9a32cd" stroke="#9a32cd" points="358.492,-86.0322 368.229,-90.2095 363.222,-80.8721 358.492,-86.0322"/>
<text text-anchor="middle" x="361.5" y="-60.8" font-family="Helvetica,sans-Serif" font-size="14.00"> dq_</text>
<text text-anchor="middle" x="361.5" y="-45.8" font-family="Helvetica,sans-Serif" font-size="14.00">dp_</text>
</g>
</g>
</svg>
