<?xml version="1.0" encoding="UTF-8" standalone="no"?>
<!DOCTYPE svg PUBLIC "-//W3C//DTD SVG 1.1//EN"
 "http://www.w3.org/Graphics/SVG/1.1/DTD/svg11.dtd">
<!-- Generated by graphviz version 2.30.1 (20200304.1809)
 -->
<!-- Title: mfem::MixedScalarVectorIntegrator Pages: 1 -->
<svg width="280pt" height="372pt"
 viewBox="0.00 0.00 280.00 372.00" xmlns="http://www.w3.org/2000/svg" xmlns:xlink="http://www.w3.org/1999/xlink">
<g id="graph0" class="graph" transform="scale(1 1) rotate(0) translate(4 368)">
<title>mfem::MixedScalarVectorIntegrator</title>
<polygon fill="white" stroke="white" points="-4,5 -4,-368 277,-368 277,5 -4,5"/>
<!-- Node1 -->
<g id="node1" class="node"><title>Node1</title>
<polygon fill="#bfbfbf" stroke="black" points="0,-0.5 0,-23.5 272,-23.5 272,-0.5 0,-0.5"/>
<text text-anchor="middle" x="136" y="-8.3" font-family="Helvetica,sans-Serif" font-size="14.00">mfem::MixedScalarVectorIntegrator</text>
</g>
<!-- Node2 -->
<g id="node2" class="node"><title>Node2</title>
<g id="a_node2"><a xlink:href="classmfem_1_1BilinearFormIntegrator.html" target="_top" xlink:title="Abstract base class BilinearFormIntegrator. ">
<polygon fill="white" stroke="black" points="20.5,-62.5 20.5,-85.5 251.5,-85.5 251.5,-62.5 20.5,-62.5"/>
<text text-anchor="middle" x="136" y="-70.3" font-family="Helvetica,sans-Serif" font-size="14.00">mfem::BilinearFormIntegrator</text>
</a>
</g>
</g>
<!-- Node2&#45;&gt;Node1 -->
<g id="edge1" class="edge"><title>Node2&#45;&gt;Node1</title>
<path fill="none" stroke="midnightblue" d="M136,-52.2312C136,-42.5922 136,-31.5444 136,-23.6339"/>
<polygon fill="midnightblue" stroke="midnightblue" points="132.5,-52.2732 136,-62.2732 139.5,-52.2732 132.5,-52.2732"/>
</g>
<!-- Node3 -->
<g id="node3" class="node"><title>Node3</title>
<g id="a_node3"><a xlink:href="classmfem_1_1NonlinearFormIntegrator.html" target="_top" xlink:title="mfem::NonlinearFormIntegrator">
<polygon fill="white" stroke="black" points="13,-124.5 13,-147.5 259,-147.5 259,-124.5 13,-124.5"/>
<text text-anchor="middle" x="136" y="-132.3" font-family="Helvetica,sans-Serif" font-size="14.00">mfem::NonlinearFormIntegrator</text>
</a>
</g>
</g>
<!-- Node3&#45;&gt;Node2 -->
<g id="edge2" class="edge"><title>Node3&#45;&gt;Node2</title>
<path fill="none" stroke="midnightblue" d="M136,-114.231C136,-104.592 136,-93.5444 136,-85.6339"/>
<polygon fill="midnightblue" stroke="midnightblue" points="132.5,-114.273 136,-124.273 139.5,-114.273 132.5,-114.273"/>
</g>
<!-- Node4 -->
<g id="node4" class="node"><title>Node4</title>
<g id="a_node4"><a xlink:href="classmfem_1_1IntegrationRule.html" target="_top" xlink:title="Class for an integration rule &#45; an Array of IntegrationPoint. ">
<polygon fill="white" stroke="black" points="47,-200.5 47,-223.5 225,-223.5 225,-200.5 47,-200.5"/>
<text text-anchor="middle" x="136" y="-208.3" font-family="Helvetica,sans-Serif" font-size="14.00">mfem::IntegrationRule</text>
</a>
</g>
</g>
<!-- Node4&#45;&gt;Node3 -->
<g id="edge3" class="edge"><title>Node4&#45;&gt;Node3</title>
<path fill="none" stroke="#9a32cd" stroke-dasharray="5,2" d="M136,-190.277C136,-176.387 136,-158.675 136,-147.583"/>
<polygon fill="#9a32cd" stroke="#9a32cd" points="132.5,-190.398 136,-200.398 139.5,-190.398 132.5,-190.398"/>
<text text-anchor="middle" x="163.5" y="-170.3" font-family="Helvetica,sans-Serif" font-size="14.00"> IntRule</text>
</g>
<!-- Node5 -->
<g id="node5" class="node"><title>Node5</title>
<g id="a_node5"><a xlink:href="classmfem_1_1Array.html" target="_top" xlink:title="mfem::Array\&lt; Integration\lPoint \&gt;">
<polygon fill="white" stroke="black" points="34.5,-263 34.5,-301 237.5,-301 237.5,-263 34.5,-263"/>
<text text-anchor="start" x="42.5" y="-285.8" font-family="Helvetica,sans-Serif" font-size="14.00">mfem::Array&lt; Integration</text>
<text text-anchor="middle" x="136" y="-270.8" font-family="Helvetica,sans-Serif" font-size="14.00">Point &gt;</text>
</a>
</g>
</g>
<!-- Node5&#45;&gt;Node4 -->
<g id="edge4" class="edge"><title>Node5&#45;&gt;Node4</title>
<path fill="none" stroke="midnightblue" d="M136,-252.599C136,-242.442 136,-231.6 136,-223.834"/>
<polygon fill="midnightblue" stroke="midnightblue" points="132.5,-252.777 136,-262.777 139.5,-252.777 132.5,-252.777"/>
</g>
<!-- Node6 -->
<g id="node6" class="node"><title>Node6</title>
<g id="a_node6"><a xlink:href="classmfem_1_1BaseArray.html" target="_top" xlink:title="Base class for array container. ">
<polygon fill="white" stroke="black" points="64.5,-340.5 64.5,-363.5 207.5,-363.5 207.5,-340.5 64.5,-340.5"/>
<text text-anchor="middle" x="136" y="-348.3" font-family="Helvetica,sans-Serif" font-size="14.00">mfem::BaseArray</text>
</a>
</g>
</g>
<!-- Node6&#45;&gt;Node5 -->
<g id="edge5" class="edge"><title>Node6&#45;&gt;Node5</title>
<path fill="none" stroke="midnightblue" d="M136,-330.098C136,-320.869 136,-310.12 136,-301.223"/>
<polygon fill="midnightblue" stroke="midnightblue" points="132.5,-330.375 136,-340.375 139.5,-330.375 132.5,-330.375"/>
</g>
</g>
</svg>
