<?xml version="1.0" encoding="UTF-8" standalone="no"?>
<!DOCTYPE svg PUBLIC "-//W3C//DTD SVG 1.1//EN"
 "http://www.w3.org/Graphics/SVG/1.1/DTD/svg11.dtd">
<!-- Generated by graphviz version 2.30.1 (20200304.1809)
 -->
<!-- Title: mfem::L2_FiniteElement&lt; Geometry::TRIANGLE, P &gt; Pages: 1 -->
<!--zoomable 93 -->
<svg id="main" version="1.1" xmlns="http://www.w3.org/2000/svg" xmlns:xlink="http://www.w3.org/1999/xlink" xml:space="preserve" onload="init(evt)">
<style type="text/css"><![CDATA[
.edge:hover path { stroke: red; }
.edge:hover polygon { stroke: red; fill: red; }
]]></style>
<script type="text/javascript"><![CDATA[
var edges = document.getElementsByTagName('g');
if (edges && edges.length) {
  for (var i=0;i<edges.length;i++) {
    if (edges[i].id.substr(0,4)=='edge') {
      edges[i].setAttribute('class','edge');
    }
  }
}
]]></script>
        <defs>
                <circle id="rim" cx="0" cy="0" r="7"/>
                <circle id="rim2" cx="0" cy="0" r="3.5"/>
                <g id="zoomPlus">
                        <use xlink:href="#rim" fill="#404040">
                                <set attributeName="fill" to="#808080" begin="zoomplus.mouseover" end="zoomplus.mouseout"/>
                        </use>
                        <path d="M-4,0h8M0,-4v8" fill="none" stroke="white" stroke-width="1.5" pointer-events="none"/>
                </g>
                <g id="zoomMin">
                        <use xlink:href="#rim" fill="#404040">
                                <set attributeName="fill" to="#808080" begin="zoomminus.mouseover" end="zoomminus.mouseout"/>
                        </use>
                        <path d="M-4,0h8" fill="none" stroke="white" stroke-width="1.5" pointer-events="none"/>
                </g>
                <g id="dirArrow">
                        <path fill="none" stroke="white" stroke-width="1.5" d="M0,-3.0v7 M-2.5,-0.5L0,-3.0L2.5,-0.5"/>
                </g>
               <g id="resetDef">
                       <use xlink:href="#rim2" fill="#404040">
                               <set attributeName="fill" to="#808080" begin="reset.mouseover" end="reset.mouseout"/>
                       </use>
               </g>
        </defs>

<script type="text/javascript">
var viewWidth = 1476;
var viewHeight = 93;
var sectionId = 'dynsection-1';
</script>
<script xlink:href="svgpan.js"/>
<svg id="graph" class="graph">
<g id="viewport">
<title>mfem::L2_FiniteElement&lt; Geometry::TRIANGLE, P &gt;</title>
<polygon fill="white" stroke="white" points="-4,5 -4,-89 1473,-89 1473,5 -4,5"/>
<!-- Node1 -->
<g id="node1" class="node"><title>Node1</title>
<polygon fill="#bfbfbf" stroke="black" points="1248.5,-23 1248.5,-61 1467.5,-61 1467.5,-23 1248.5,-23"/>
<text text-anchor="start" x="1256.5" y="-45.8" font-family="Helvetica,sans-Serif" font-size="14.00">mfem::L2_FiniteElement</text>
<text text-anchor="middle" x="1358" y="-30.8" font-family="Helvetica,sans-Serif" font-size="14.00">&lt; Geometry::TRIANGLE, P &gt;</text>
</g>
<!-- Node2 -->
<g id="node2" class="node"><title>Node2</title>
<g id="a_node2"><a xlink:href="classmfem_1_1L2__FiniteElement__base.html" target="_top" xlink:title="mfem::L2_FiniteElement\l_base\&lt; Geometry::TRIANGLE,\l P, L2_TriangleElement, L2Pos\l_TriangleElement,((P+1)*(P+2)\l)/2, false \&gt;">
<polygon fill="white" stroke="black" points="974,-0.5 974,-83.5 1210,-83.5 1210,-0.5 974,-0.5"/>
<text text-anchor="start" x="982" y="-68.3" font-family="Helvetica,sans-Serif" font-size="14.00">mfem::L2_FiniteElement</text>
<text text-anchor="start" x="982" y="-53.3" font-family="Helvetica,sans-Serif" font-size="14.00">_base&lt; Geometry::TRIANGLE,</text>
<text text-anchor="start" x="982" y="-38.3" font-family="Helvetica,sans-Serif" font-size="14.00"> P, L2_TriangleElement, L2Pos</text>
<text text-anchor="start" x="982" y="-23.3" font-family="Helvetica,sans-Serif" font-size="14.00">_TriangleElement,((P+1)*(P+2)</text>
<text text-anchor="middle" x="1092" y="-8.3" font-family="Helvetica,sans-Serif" font-size="14.00">)/2, false &gt;</text>
</a>
</g>
</g>
<!-- Node2&#45;&gt;Node1 -->
<g id="edge1" class="edge"><title>Node2&#45;&gt;Node1</title>
<path fill="none" stroke="midnightblue" d="M1220.46,-42C1229.81,-42 1239.19,-42 1248.41,-42"/>
<polygon fill="midnightblue" stroke="midnightblue" points="1220.33,-38.5001 1210.33,-42 1220.33,-45.5001 1220.33,-38.5001"/>
</g>
<!-- Node3 -->
<g id="node3" class="node"><title>Node3</title>
<g id="a_node3"><a xlink:href="classmfem_1_1FiniteElement.html" target="_top" xlink:title="Abstract class for Finite Elements. ">
<polygon fill="white" stroke="black" points="696,-30.5 696,-53.5 862,-53.5 862,-30.5 696,-30.5"/>
<text text-anchor="middle" x="779" y="-38.3" font-family="Helvetica,sans-Serif" font-size="14.00">mfem::FiniteElement</text>
</a>
</g>
</g>
<!-- Node3&#45;&gt;Node2 -->
<g id="edge2" class="edge"><title>Node3&#45;&gt;Node2</title>
<path fill="none" stroke="#9a32cd" stroke-dasharray="5,2" d="M872.303,-42C904.159,-42 940.28,-42 973.855,-42"/>
<polygon fill="#9a32cd" stroke="#9a32cd" points="872.118,-38.5001 862.118,-42 872.118,-45.5001 872.118,-38.5001"/>
<text text-anchor="middle" x="918" y="-60.8" font-family="Helvetica,sans-Serif" font-size="14.00"> my_fe_1d</text>
<text text-anchor="middle" x="918" y="-45.8" font-family="Helvetica,sans-Serif" font-size="14.00">my_fe</text>
</g>
<!-- Node4 -->
<g id="node4" class="node"><title>Node4</title>
<g id="a_node4"><a xlink:href="classmfem_1_1IntegrationRule.html" target="_top" xlink:title="Class for an integration rule &#45; an Array of IntegrationPoint. ">
<polygon fill="white" stroke="black" points="424,-51.5 424,-74.5 602,-74.5 602,-51.5 424,-51.5"/>
<text text-anchor="middle" x="513" y="-59.3" font-family="Helvetica,sans-Serif" font-size="14.00">mfem::IntegrationRule</text>
</a>
</g>
</g>
<!-- Node4&#45;&gt;Node3 -->
<g id="edge3" class="edge"><title>Node4&#45;&gt;Node3</title>
<path fill="none" stroke="#9a32cd" stroke-dasharray="5,2" d="M612.275,-55.1827C639.698,-53.0013 669.202,-50.6544 695.608,-48.5539"/>
<polygon fill="#9a32cd" stroke="#9a32cd" points="611.966,-51.6961 602.275,-55.9781 612.521,-58.674 611.966,-51.6961"/>
<text text-anchor="middle" x="649" y="-57.8" font-family="Helvetica,sans-Serif" font-size="14.00"> Nodes</text>
</g>
<!-- Node5 -->
<g id="node5" class="node"><title>Node5</title>
<g id="a_node5"><a xlink:href="classmfem_1_1Array.html" target="_top" xlink:title="mfem::Array\&lt; Integration\lPoint \&gt;">
<polygon fill="white" stroke="black" points="182.5,-47 182.5,-85 385.5,-85 385.5,-47 182.5,-47"/>
<text text-anchor="start" x="190.5" y="-69.8" font-family="Helvetica,sans-Serif" font-size="14.00">mfem::Array&lt; Integration</text>
<text text-anchor="middle" x="284" y="-54.8" font-family="Helvetica,sans-Serif" font-size="14.00">Point &gt;</text>
</a>
</g>
</g>
<!-- Node5&#45;&gt;Node4 -->
<g id="edge4" class="edge"><title>Node5&#45;&gt;Node4</title>
<path fill="none" stroke="midnightblue" d="M395.798,-64.5357C405.256,-64.4107 414.739,-64.2854 423.985,-64.1632"/>
<polygon fill="midnightblue" stroke="midnightblue" points="395.51,-61.0391 385.557,-64.6711 395.602,-68.0385 395.51,-61.0391"/>
</g>
<!-- Node6 -->
<g id="node6" class="node"><title>Node6</title>
<g id="a_node6"><a xlink:href="classmfem_1_1BaseArray.html" target="_top" xlink:title="Base class for array container. ">
<polygon fill="white" stroke="black" points="0.5,-54.5 0.5,-77.5 143.5,-77.5 143.5,-54.5 0.5,-54.5"/>
<text text-anchor="middle" x="72" y="-62.3" font-family="Helvetica,sans-Serif" font-size="14.00">mfem::BaseArray</text>
</a>
</g>
</g>
<!-- Node6&#45;&gt;Node5 -->
<g id="edge5" class="edge"><title>Node6&#45;&gt;Node5</title>
<path fill="none" stroke="midnightblue" d="M153.621,-66C163.053,-66 172.762,-66 182.422,-66"/>
<polygon fill="midnightblue" stroke="midnightblue" points="153.511,-62.5001 143.511,-66 153.511,-69.5001 153.511,-62.5001"/>
</g>
<!-- Node7 -->
<g id="node7" class="node"><title>Node7</title>
<g id="a_node7"><a xlink:href="classmfem_1_1DenseMatrix.html" target="_top" xlink:title="Data type dense matrix using column&#45;major storage. ">
<polygon fill="white" stroke="black" points="434,-9.5 434,-32.5 592,-32.5 592,-9.5 434,-9.5"/>
<text text-anchor="middle" x="513" y="-17.3" font-family="Helvetica,sans-Serif" font-size="14.00">mfem::DenseMatrix</text>
</a>
</g>
</g>
<!-- Node7&#45;&gt;Node3 -->
<g id="edge6" class="edge"><title>Node7&#45;&gt;Node3</title>
<path fill="none" stroke="#9a32cd" stroke-dasharray="5,2" d="M602.069,-26.3752C626.658,-28.0206 653.381,-29.944 678,-32 683.825,-32.4864 689.837,-33.0168 695.889,-33.5713"/>
<polygon fill="#9a32cd" stroke="#9a32cd" points="602.248,-22.8795 592.039,-25.7114 601.786,-29.8642 602.248,-22.8795"/>
<text text-anchor="middle" x="649" y="-35.8" font-family="Helvetica,sans-Serif" font-size="14.00"> vshape</text>
</g>
<!-- Node8 -->
<g id="node8" class="node"><title>Node8</title>
<g id="a_node8"><a xlink:href="classmfem_1_1Matrix.html" target="_top" xlink:title="Abstract data type matrix. ">
<polygon fill="white" stroke="black" points="227.5,-4.5 227.5,-27.5 340.5,-27.5 340.5,-4.5 227.5,-4.5"/>
<text text-anchor="middle" x="284" y="-12.3" font-family="Helvetica,sans-Serif" font-size="14.00">mfem::Matrix</text>
</a>
</g>
</g>
<!-- Node8&#45;&gt;Node7 -->
<g id="edge7" class="edge"><title>Node8&#45;&gt;Node7</title>
<path fill="none" stroke="midnightblue" d="M350.656,-17.4462C376.667,-18.0191 406.783,-18.6824 433.902,-19.2798"/>
<polygon fill="midnightblue" stroke="midnightblue" points="350.605,-13.9443 340.53,-17.2231 350.451,-20.9426 350.605,-13.9443"/>
</g>
<!-- Node9 -->
<g id="node9" class="node"><title>Node9</title>
<g id="a_node9"><a xlink:href="classmfem_1_1Operator.html" target="_top" xlink:title="Abstract operator. ">
<polygon fill="white" stroke="black" points="5.5,-4.5 5.5,-27.5 138.5,-27.5 138.5,-4.5 5.5,-4.5"/>
<text text-anchor="middle" x="72" y="-12.3" font-family="Helvetica,sans-Serif" font-size="14.00">mfem::Operator</text>
</a>
</g>
</g>
<!-- Node9&#45;&gt;Node8 -->
<g id="edge8" class="edge"><title>Node9&#45;&gt;Node8</title>
<path fill="none" stroke="midnightblue" d="M148.779,-16C174.773,-16 203.362,-16 227.451,-16"/>
<polygon fill="midnightblue" stroke="midnightblue" points="148.582,-12.5001 138.582,-16 148.581,-19.5001 148.582,-12.5001"/>
</g>
</g>
</svg>
        <g id="navigator" transform="translate(0 0)" fill="#404254">
                <rect fill="#f2f5e9" fill-opacity="0.5" stroke="#606060" stroke-width=".5" x="0" y="0" width="60" height="60"/>
                <use id="zoomplus" xlink:href="#zoomPlus" x="17" y="9" onmousedown="handleZoom(evt,'in')"/>
                <use id="zoomminus" xlink:href="#zoomMin" x="42" y="9" onmousedown="handleZoom(evt,'out')"/>
                <use id="reset" xlink:href="#resetDef" x="30" y="36" onmousedown="handleReset()"/>
                <g id="arrowUp" xlink:href="#dirArrow" transform="translate(30 24)" onmousedown="handlePan(0,-1)">
                  <use xlink:href="#rim" fill="#404040">
                        <set attributeName="fill" to="#808080" begin="arrowUp.mouseover" end="arrowUp.mouseout"/>
                  </use>
                  <path fill="none" stroke="white" stroke-width="1.5" d="M0,-3.0v7 M-2.5,-0.5L0,-3.0L2.5,-0.5"/>
                </g>
                <g id="arrowRight" xlink:href="#dirArrow" transform="rotate(90) translate(36 -43)" onmousedown="handlePan(1,0)">
                  <use xlink:href="#rim" fill="#404040">
                        <set attributeName="fill" to="#808080" begin="arrowRight.mouseover" end="arrowRight.mouseout"/>
                  </use>
                  <path fill="none" stroke="white" stroke-width="1.5" d="M0,-3.0v7 M-2.5,-0.5L0,-3.0L2.5,-0.5"/>
                </g>
                <g id="arrowDown" xlink:href="#dirArrow" transform="rotate(180) translate(-30 -48)" onmousedown="handlePan(0,1)">
                  <use xlink:href="#rim" fill="#404040">
                        <set attributeName="fill" to="#808080" begin="arrowDown.mouseover" end="arrowDown.mouseout"/>
                  </use>
                  <path fill="none" stroke="white" stroke-width="1.5" d="M0,-3.0v7 M-2.5,-0.5L0,-3.0L2.5,-0.5"/>
                </g>
                <g id="arrowLeft" xlink:href="#dirArrow" transform="rotate(270) translate(-36 17)" onmousedown="handlePan(-1,0)">
                  <use xlink:href="#rim" fill="#404040">
                        <set attributeName="fill" to="#808080" begin="arrowLeft.mouseover" end="arrowLeft.mouseout"/>
                  </use>
                  <path fill="none" stroke="white" stroke-width="1.5" d="M0,-3.0v7 M-2.5,-0.5L0,-3.0L2.5,-0.5"/>
                </g>
        </g>
        <svg viewBox="0 0 15 15" width="100%" height="30px" preserveAspectRatio="xMaxYMin meet">
         <g id="arrow_out" transform="scale(0.3 0.3)">
          <a xlink:href="classmfem_1_1L2__FiniteElement_3_01Geometry_1_1TRIANGLE_00_01P_01_4__coll__graph_org.svg" target="_base">
           <rect id="button" ry="5" rx="5" y="6" x="6" height="38" width="38"
                fill="#f2f5e9" fill-opacity="0.5" stroke="#606060" stroke-width="1.0"/>
           <path id="arrow"
             d="M 11.500037,31.436501 C 11.940474,20.09759 22.043105,11.32322 32.158766,21.979434 L 37.068811,17.246167 C 37.068811,17.246167 37.088388,32 37.088388,32 L 22.160133,31.978069 C 22.160133,31.978069 26.997745,27.140456 26.997745,27.140456 C 18.528582,18.264221 13.291696,25.230495 11.500037,31.436501 z"
             style="fill:#404040;"/>
          </a>
         </g>
        </svg>
</svg>
