<?xml version="1.0" encoding="UTF-8" standalone="no"?>
<!DOCTYPE svg PUBLIC "-//W3C//DTD SVG 1.1//EN"
 "http://www.w3.org/Graphics/SVG/1.1/DTD/svg11.dtd">
<!-- Generated by graphviz version 2.30.1 (20200304.1809)
 -->
<!-- Title: mfem::ParNCMesh Pages: 1 -->
<svg width="884pt" height="580pt"
 viewBox="0.00 0.00 884.00 579.91" xmlns="http://www.w3.org/2000/svg" xmlns:xlink="http://www.w3.org/1999/xlink">
<g id="graph0" class="graph" transform="scale(1 1) rotate(0) translate(4 575.911)">
<title>mfem::ParNCMesh</title>
<polygon fill="white" stroke="white" points="-4,5 -4,-575.911 881,-575.911 881,5 -4,5"/>
<!-- Node1 -->
<g id="node1" class="node"><title>Node1</title>
<polygon fill="#bfbfbf" stroke="black" points="726.5,-201.411 726.5,-224.411 875.5,-224.411 875.5,-201.411 726.5,-201.411"/>
<text text-anchor="middle" x="801" y="-209.211" font-family="Helvetica,sans-Serif" font-size="14.00">mfem::ParNCMesh</text>
</g>
<!-- Node2 -->
<g id="node2" class="node"><title>Node2</title>
<g id="a_node2"><a xlink:href="classmfem_1_1NCMesh.html" target="_top" xlink:title="A class for non&#45;conforming AMR on higher&#45;order hexahedral, quadrilateral or triangular meshes...">
<polygon fill="white" stroke="red" points="364,-513.411 364,-536.411 490,-536.411 490,-513.411 364,-513.411"/>
<text text-anchor="middle" x="427" y="-521.211" font-family="Helvetica,sans-Serif" font-size="14.00">mfem::NCMesh</text>
</a>
</g>
</g>
<!-- Node2&#45;&gt;Node1 -->
<g id="edge1" class="edge"><title>Node2&#45;&gt;Node1</title>
<path fill="none" stroke="midnightblue" d="M500.229,-518.975C562.776,-510.165 651.798,-488.279 708,-433.911 771.474,-372.506 792.962,-260.767 798.432,-224.566"/>
<polygon fill="midnightblue" stroke="midnightblue" points="499.492,-515.542 490.04,-520.328 500.414,-522.481 499.492,-515.542"/>
</g>
<!-- Node3 -->
<g id="node3" class="node"><title>Node3</title>
<g id="a_node3"><a xlink:href="classmfem_1_1Array.html" target="_top" xlink:title="mfem::Array\&lt; int \&gt;">
<polygon fill="white" stroke="red" points="0,-442.411 0,-465.411 158,-465.411 158,-442.411 0,-442.411"/>
<text text-anchor="middle" x="79" y="-450.211" font-family="Helvetica,sans-Serif" font-size="14.00">mfem::Array&lt; int &gt;</text>
</a>
</g>
</g>
<!-- Node3&#45;&gt;Node2 -->
<g id="edge2" class="edge"><title>Node3&#45;&gt;Node2</title>
<path fill="none" stroke="#9a32cd" stroke-dasharray="5,2" d="M146.479,-467.552C211.341,-480.862 308.909,-500.883 369.95,-513.409"/>
<polygon fill="#9a32cd" stroke="#9a32cd" points="146.86,-464.058 136.361,-465.476 145.453,-470.915 146.86,-464.058"/>
<text text-anchor="middle" x="238" y="-560.711" font-family="Helvetica,sans-Serif" font-size="14.00"> vertex_nodeId</text>
<text text-anchor="middle" x="238" y="-545.711" font-family="Helvetica,sans-Serif" font-size="14.00">coarse_elements</text>
<text text-anchor="middle" x="238" y="-530.711" font-family="Helvetica,sans-Serif" font-size="14.00">leaf_elements</text>
<text text-anchor="middle" x="238" y="-515.711" font-family="Helvetica,sans-Serif" font-size="14.00">boundary_faces</text>
<text text-anchor="middle" x="238" y="-500.711" font-family="Helvetica,sans-Serif" font-size="14.00">free_element_ids</text>
</g>
<!-- Node3&#45;&gt;Node1 -->
<g id="edge4" class="edge"><title>Node3&#45;&gt;Node1</title>
<path fill="none" stroke="#9a32cd" stroke-dasharray="5,2" d="M168.182,-444.056C213.016,-439.196 268.378,-433.424 318,-428.911 361.283,-424.973 671.986,-423.239 708,-398.911 770.691,-356.561 792.437,-258.529 798.229,-224.667"/>
<polygon fill="#9a32cd" stroke="#9a32cd" points="167.76,-440.581 158.197,-445.142 168.517,-447.54 167.76,-440.581"/>
<text text-anchor="middle" x="427" y="-492.711" font-family="Helvetica,sans-Serif" font-size="14.00"> ghost_layer</text>
<text text-anchor="middle" x="427" y="-477.711" font-family="Helvetica,sans-Serif" font-size="14.00">tmp_owner</text>
<text text-anchor="middle" x="427" y="-462.711" font-family="Helvetica,sans-Serif" font-size="14.00">tmp_neighbors</text>
<text text-anchor="middle" x="427" y="-447.711" font-family="Helvetica,sans-Serif" font-size="14.00">boundary_layer</text>
<text text-anchor="middle" x="427" y="-432.711" font-family="Helvetica,sans-Serif" font-size="14.00">old_index_or_rank</text>
</g>
<!-- Node4 -->
<g id="node4" class="node"><title>Node4</title>
<polygon fill="white" stroke="#bfbfbf" points="328.5,-344.911 328.5,-382.911 525.5,-382.911 525.5,-344.911 328.5,-344.911"/>
<text text-anchor="start" x="336.5" y="-367.711" font-family="Helvetica,sans-Serif" font-size="14.00">std::map&lt; int, Rebalance</text>
<text text-anchor="middle" x="427" y="-352.711" font-family="Helvetica,sans-Serif" font-size="14.00">DofMessage &gt;</text>
</g>
<!-- Node4&#45;&gt;Node1 -->
<g id="edge3" class="edge"><title>Node4&#45;&gt;Node1</title>
<path fill="none" stroke="#9a32cd" stroke-dasharray="5,2" d="M535.843,-364.703C601.901,-363.427 679.137,-358.239 708,-341.911 756.123,-314.685 785.393,-250.688 795.749,-224.445"/>
<polygon fill="#9a32cd" stroke="#9a32cd" points="535.707,-361.205 525.766,-364.87 535.823,-368.204 535.707,-361.205"/>
<text text-anchor="middle" x="631" y="-383.711" font-family="Helvetica,sans-Serif" font-size="14.00"> recv_rebalance_dofs</text>
<text text-anchor="middle" x="631" y="-368.711" font-family="Helvetica,sans-Serif" font-size="14.00">send_rebalance_dofs</text>
</g>
<!-- Node5 -->
<g id="node5" class="node"><title>Node5</title>
<g id="a_node5"><a xlink:href="classmfem_1_1Array.html" target="_top" xlink:title="mfem::Array\&lt; mfem::\lDenseMatrix * \&gt;">
<polygon fill="white" stroke="red" points="339,-287.911 339,-325.911 515,-325.911 515,-287.911 339,-287.911"/>
<text text-anchor="start" x="347" y="-310.711" font-family="Helvetica,sans-Serif" font-size="14.00">mfem::Array&lt; mfem::</text>
<text text-anchor="middle" x="427" y="-295.711" font-family="Helvetica,sans-Serif" font-size="14.00">DenseMatrix * &gt;</text>
</a>
</g>
</g>
<!-- Node5&#45;&gt;Node1 -->
<g id="edge5" class="edge"><title>Node5&#45;&gt;Node1</title>
<path fill="none" stroke="#9a32cd" stroke-dasharray="5,2" d="M525.504,-323.437C581.054,-328.619 650.771,-327.792 708,-303.911 747.393,-287.472 778.989,-245.308 792.663,-224.66"/>
<polygon fill="#9a32cd" stroke="#9a32cd" points="525.604,-319.929 515.302,-322.404 524.899,-326.894 525.604,-319.929"/>
<text text-anchor="middle" x="631" y="-330.711" font-family="Helvetica,sans-Serif" font-size="14.00"> aux_pm_store</text>
</g>
<!-- Node6 -->
<g id="node6" class="node"><title>Node6</title>
<g id="a_node6"><a xlink:href="classmfem_1_1Array.html" target="_top" xlink:title="mfem::Array\&lt; GroupId \&gt;">
<polygon fill="white" stroke="red" points="328,-205.411 328,-228.411 526,-228.411 526,-205.411 328,-205.411"/>
<text text-anchor="middle" x="427" y="-213.211" font-family="Helvetica,sans-Serif" font-size="14.00">mfem::Array&lt; GroupId &gt;</text>
</a>
</g>
</g>
<!-- Node6&#45;&gt;Node1 -->
<g id="edge6" class="edge"><title>Node6&#45;&gt;Node1</title>
<path fill="none" stroke="#9a32cd" stroke-dasharray="5,2" d="M536.191,-214.196C542.216,-214.088 548.183,-213.992 554,-213.911 611.865,-213.104 677.392,-212.871 726.26,-212.831"/>
<polygon fill="#9a32cd" stroke="#9a32cd" points="535.948,-210.7 526.016,-214.388 536.08,-217.699 535.948,-210.7"/>
<text text-anchor="middle" x="631" y="-292.711" font-family="Helvetica,sans-Serif" font-size="14.00"> face_owner</text>
<text text-anchor="middle" x="631" y="-277.711" font-family="Helvetica,sans-Serif" font-size="14.00">edge_group</text>
<text text-anchor="middle" x="631" y="-262.711" font-family="Helvetica,sans-Serif" font-size="14.00">vertex_owner</text>
<text text-anchor="middle" x="631" y="-247.711" font-family="Helvetica,sans-Serif" font-size="14.00">face_group</text>
<text text-anchor="middle" x="631" y="-232.711" font-family="Helvetica,sans-Serif" font-size="14.00">edge_owner</text>
<text text-anchor="middle" x="631" y="-217.711" font-family="Helvetica,sans-Serif" font-size="14.00">vertex_group</text>
</g>
<!-- Node7 -->
<g id="node7" class="node"><title>Node7</title>
<polygon fill="white" stroke="#bfbfbf" points="318.5,-163.411 318.5,-186.411 535.5,-186.411 535.5,-163.411 318.5,-163.411"/>
<text text-anchor="middle" x="427" y="-171.211" font-family="Helvetica,sans-Serif" font-size="14.00">std::vector&lt; CommGroup &gt;</text>
</g>
<!-- Node7&#45;&gt;Node1 -->
<g id="edge7" class="edge"><title>Node7&#45;&gt;Node1</title>
<path fill="none" stroke="#9a32cd" stroke-dasharray="5,2" d="M545.942,-179.35C596.064,-182.157 655.046,-186.68 708,-193.911 721.735,-195.786 736.492,-198.511 750.078,-201.314"/>
<polygon fill="#9a32cd" stroke="#9a32cd" points="545.889,-175.842 535.713,-178.793 545.509,-182.831 545.889,-175.842"/>
<text text-anchor="middle" x="631" y="-197.711" font-family="Helvetica,sans-Serif" font-size="14.00"> groups</text>
</g>
<!-- Node8 -->
<g id="node8" class="node"><title>Node8</title>
<polygon fill="white" stroke="#bfbfbf" points="331,-105.911 331,-143.911 523,-143.911 523,-105.911 331,-105.911"/>
<text text-anchor="start" x="339" y="-128.711" font-family="Helvetica,sans-Serif" font-size="14.00">std::map&lt; CommGroup,</text>
<text text-anchor="middle" x="427" y="-113.711" font-family="Helvetica,sans-Serif" font-size="14.00"> GroupId &gt;</text>
</g>
<!-- Node8&#45;&gt;Node1 -->
<g id="edge8" class="edge"><title>Node8&#45;&gt;Node1</title>
<path fill="none" stroke="#9a32cd" stroke-dasharray="5,2" d="M533.466,-129.5C586.837,-134.149 652.008,-143.431 708,-161.911 736.268,-171.24 765.836,-189.365 783.589,-201.303"/>
<polygon fill="#9a32cd" stroke="#9a32cd" points="533.554,-125.995 523.299,-128.658 532.976,-132.972 533.554,-125.995"/>
<text text-anchor="middle" x="631" y="-165.711" font-family="Helvetica,sans-Serif" font-size="14.00"> group_id</text>
</g>
<!-- Node9 -->
<g id="node9" class="node"><title>Node9</title>
<g id="a_node9"><a xlink:href="classmfem_1_1Array.html" target="_top" xlink:title="mfem::Array\&lt; mfem::\lConnection \&gt;">
<polygon fill="white" stroke="red" points="339,-48.9106 339,-86.9106 515,-86.9106 515,-48.9106 339,-48.9106"/>
<text text-anchor="start" x="347" y="-71.7106" font-family="Helvetica,sans-Serif" font-size="14.00">mfem::Array&lt; mfem::</text>
<text text-anchor="middle" x="427" y="-56.7106" font-family="Helvetica,sans-Serif" font-size="14.00">Connection &gt;</text>
</a>
</g>
</g>
<!-- Node9&#45;&gt;Node1 -->
<g id="edge9" class="edge"><title>Node9&#45;&gt;Node1</title>
<path fill="none" stroke="#9a32cd" stroke-dasharray="5,2" d="M525.049,-67.9452C581.39,-71.6484 652.054,-82.8397 708,-112.911 747.896,-134.355 779.698,-179.883 793.106,-201.306"/>
<polygon fill="#9a32cd" stroke="#9a32cd" points="525.25,-64.4511 515.062,-67.3566 524.838,-71.4389 525.25,-64.4511"/>
<text text-anchor="middle" x="631" y="-116.711" font-family="Helvetica,sans-Serif" font-size="14.00"> index_rank</text>
</g>
<!-- Node10 -->
<g id="node10" class="node"><title>Node10</title>
<g id="a_node10"><a xlink:href="classmfem_1_1Array.html" target="_top" xlink:title="mfem::Array\&lt; char \&gt;">
<polygon fill="white" stroke="red" points="341,-5.41058 341,-28.4106 513,-28.4106 513,-5.41058 341,-5.41058"/>
<text text-anchor="middle" x="427" y="-13.2106" font-family="Helvetica,sans-Serif" font-size="14.00">mfem::Array&lt; char &gt;</text>
</a>
</g>
</g>
<!-- Node10&#45;&gt;Node1 -->
<g id="edge10" class="edge"><title>Node10&#45;&gt;Node1</title>
<path fill="none" stroke="#9a32cd" stroke-dasharray="5,2" d="M497.897,-4.08565C558.457,3.13203 645.87,3.81442 708,-36.9106 768.267,-76.4143 791.449,-168.723 797.93,-201.286"/>
<polygon fill="#9a32cd" stroke="#9a32cd" points="497.14,-0.653948 487.666,-5.39717 498.03,-7.59713 497.14,-0.653948"/>
<text text-anchor="middle" x="631" y="-55.7106" font-family="Helvetica,sans-Serif" font-size="14.00"> element_type</text>
<text text-anchor="middle" x="631" y="-40.7106" font-family="Helvetica,sans-Serif" font-size="14.00">face_orient</text>
</g>
</g>
</svg>
