<?xml version="1.0" encoding="UTF-8" standalone="no"?>
<!DOCTYPE svg PUBLIC "-//W3C//DTD SVG 1.1//EN"
 "http://www.w3.org/Graphics/SVG/1.1/DTD/svg11.dtd">
<!-- Generated by graphviz version 2.30.1 (20200304.1809)
 -->
<!-- Title: mfem::L2Pos_HexahedronElement Pages: 1 -->
<!--zoomable 324 -->
<svg id="main" version="1.1" xmlns="http://www.w3.org/2000/svg" xmlns:xlink="http://www.w3.org/1999/xlink" xml:space="preserve" onload="init(evt)">
<style type="text/css"><![CDATA[
.edge:hover path { stroke: red; }
.edge:hover polygon { stroke: red; fill: red; }
]]></style>
<script type="text/javascript"><![CDATA[
var edges = document.getElementsByTagName('g');
if (edges && edges.length) {
  for (var i=0;i<edges.length;i++) {
    if (edges[i].id.substr(0,4)=='edge') {
      edges[i].setAttribute('class','edge');
    }
  }
}
]]></script>
        <defs>
                <circle id="rim" cx="0" cy="0" r="7"/>
                <circle id="rim2" cx="0" cy="0" r="3.5"/>
                <g id="zoomPlus">
                        <use xlink:href="#rim" fill="#404040">
                                <set attributeName="fill" to="#808080" begin="zoomplus.mouseover" end="zoomplus.mouseout"/>
                        </use>
                        <path d="M-4,0h8M0,-4v8" fill="none" stroke="white" stroke-width="1.5" pointer-events="none"/>
                </g>
                <g id="zoomMin">
                        <use xlink:href="#rim" fill="#404040">
                                <set attributeName="fill" to="#808080" begin="zoomminus.mouseover" end="zoomminus.mouseout"/>
                        </use>
                        <path d="M-4,0h8" fill="none" stroke="white" stroke-width="1.5" pointer-events="none"/>
                </g>
                <g id="dirArrow">
                        <path fill="none" stroke="white" stroke-width="1.5" d="M0,-3.0v7 M-2.5,-0.5L0,-3.0L2.5,-0.5"/>
                </g>
               <g id="resetDef">
                       <use xlink:href="#rim2" fill="#404040">
                               <set attributeName="fill" to="#808080" begin="reset.mouseover" end="reset.mouseout"/>
                       </use>
               </g>
        </defs>

<script type="text/javascript">
var viewWidth = 699;
var viewHeight = 324;
var sectionId = 'dynsection-1';
</script>
<script xlink:href="svgpan.js"/>
<svg id="graph" class="graph">
<g id="viewport">
<title>mfem::L2Pos_HexahedronElement</title>
<polygon fill="white" stroke="white" points="-4,5 -4,-320 696,-320 696,5 -4,5"/>
<!-- Node1 -->
<g id="node1" class="node"><title>Node1</title>
<polygon fill="#bfbfbf" stroke="black" points="215,-0.5 215,-23.5 479,-23.5 479,-0.5 215,-0.5"/>
<text text-anchor="middle" x="347" y="-8.3" font-family="Helvetica,sans-Serif" font-size="14.00">mfem::L2Pos_HexahedronElement</text>
</g>
<!-- Node2 -->
<g id="node2" class="node"><title>Node2</title>
<g id="a_node2"><a xlink:href="classmfem_1_1PositiveTensorFiniteElement.html" target="_top" xlink:title="mfem::PositiveTensorFinite\lElement">
<polygon fill="white" stroke="black" points="243,-63 243,-101 451,-101 451,-63 243,-63"/>
<text text-anchor="start" x="251" y="-85.8" font-family="Helvetica,sans-Serif" font-size="14.00">mfem::PositiveTensorFinite</text>
<text text-anchor="middle" x="347" y="-70.8" font-family="Helvetica,sans-Serif" font-size="14.00">Element</text>
</a>
</g>
</g>
<!-- Node2&#45;&gt;Node1 -->
<g id="edge1" class="edge"><title>Node2&#45;&gt;Node1</title>
<path fill="none" stroke="midnightblue" d="M347,-52.5988C347,-42.4422 347,-31.6002 347,-23.8335"/>
<polygon fill="midnightblue" stroke="midnightblue" points="343.5,-52.7772 347,-62.7772 350.5,-52.7773 343.5,-52.7772"/>
</g>
<!-- Node3 -->
<g id="node3" class="node"><title>Node3</title>
<g id="a_node3"><a xlink:href="classmfem_1_1PositiveFiniteElement.html" target="_top" xlink:title="mfem::PositiveFiniteElement">
<polygon fill="white" stroke="black" points="95,-140.5 95,-163.5 315,-163.5 315,-140.5 95,-140.5"/>
<text text-anchor="middle" x="205" y="-148.3" font-family="Helvetica,sans-Serif" font-size="14.00">mfem::PositiveFiniteElement</text>
</a>
</g>
</g>
<!-- Node3&#45;&gt;Node2 -->
<g id="edge2" class="edge"><title>Node3&#45;&gt;Node2</title>
<path fill="none" stroke="midnightblue" d="M236.221,-136.049C257.729,-125.749 286.428,-112.006 309.226,-101.089"/>
<polygon fill="midnightblue" stroke="midnightblue" points="234.695,-132.899 227.188,-140.375 237.718,-139.213 234.695,-132.899"/>
</g>
<!-- Node4 -->
<g id="node4" class="node"><title>Node4</title>
<g id="a_node4"><a xlink:href="classmfem_1_1ScalarFiniteElement.html" target="_top" xlink:title="mfem::ScalarFiniteElement">
<polygon fill="white" stroke="black" points="100,-216.5 100,-239.5 310,-239.5 310,-216.5 100,-216.5"/>
<text text-anchor="middle" x="205" y="-224.3" font-family="Helvetica,sans-Serif" font-size="14.00">mfem::ScalarFiniteElement</text>
</a>
</g>
</g>
<!-- Node4&#45;&gt;Node3 -->
<g id="edge3" class="edge"><title>Node4&#45;&gt;Node3</title>
<path fill="none" stroke="midnightblue" d="M205,-206.277C205,-192.387 205,-174.675 205,-163.583"/>
<polygon fill="midnightblue" stroke="midnightblue" points="201.5,-206.398 205,-216.398 208.5,-206.398 201.5,-206.398"/>
</g>
<!-- Node5 -->
<g id="node5" class="node"><title>Node5</title>
<g id="a_node5"><a xlink:href="classmfem_1_1FiniteElement.html" target="_top" xlink:title="Abstract class for Finite Elements. ">
<polygon fill="white" stroke="red" points="0,-292.5 0,-315.5 166,-315.5 166,-292.5 0,-292.5"/>
<text text-anchor="middle" x="83" y="-300.3" font-family="Helvetica,sans-Serif" font-size="14.00">mfem::FiniteElement</text>
</a>
</g>
</g>
<!-- Node5&#45;&gt;Node4 -->
<g id="edge4" class="edge"><title>Node5&#45;&gt;Node4</title>
<path fill="none" stroke="midnightblue" d="M109.298,-287.049C132.971,-272.69 167.093,-251.993 187.553,-239.583"/>
<polygon fill="midnightblue" stroke="midnightblue" points="107.215,-284.219 100.48,-292.398 110.845,-290.204 107.215,-284.219"/>
</g>
<!-- Node6 -->
<g id="node6" class="node"><title>Node6</title>
<g id="a_node6"><a xlink:href="classmfem_1_1Vector.html" target="_top" xlink:title="Vector data type. ">
<polygon fill="white" stroke="black" points="184,-292.5 184,-315.5 298,-315.5 298,-292.5 184,-292.5"/>
<text text-anchor="middle" x="241" y="-300.3" font-family="Helvetica,sans-Serif" font-size="14.00">mfem::Vector</text>
</a>
</g>
</g>
<!-- Node6&#45;&gt;Node4 -->
<g id="edge5" class="edge"><title>Node6&#45;&gt;Node4</title>
<path fill="none" stroke="#9a32cd" stroke-dasharray="5,2" d="M231.318,-283.098C224.504,-269.091 215.651,-250.895 210.148,-239.583"/>
<polygon fill="#9a32cd" stroke="#9a32cd" points="228.32,-284.936 235.842,-292.398 234.615,-281.874 228.32,-284.936"/>
<text text-anchor="middle" x="259" y="-262.3" font-family="Helvetica,sans-Serif" font-size="14.00"> c_shape</text>
</g>
<!-- Node7 -->
<g id="node7" class="node"><title>Node7</title>
<g id="a_node7"><a xlink:href="classmfem_1_1TensorBasisElement.html" target="_top" xlink:title="mfem::TensorBasisElement">
<polygon fill="white" stroke="black" points="333,-140.5 333,-163.5 545,-163.5 545,-140.5 333,-140.5"/>
<text text-anchor="middle" x="439" y="-148.3" font-family="Helvetica,sans-Serif" font-size="14.00">mfem::TensorBasisElement</text>
</a>
</g>
</g>
<!-- Node7&#45;&gt;Node2 -->
<g id="edge6" class="edge"><title>Node7&#45;&gt;Node2</title>
<path fill="none" stroke="midnightblue" d="M416.321,-134.237C402.768,-124.22 385.543,-111.489 371.654,-101.223"/>
<polygon fill="midnightblue" stroke="midnightblue" points="414.503,-137.246 424.625,-140.375 418.664,-131.616 414.503,-137.246"/>
</g>
<!-- Node8 -->
<g id="node8" class="node"><title>Node8</title>
<g id="a_node8"><a xlink:href="classmfem_1_1Array.html" target="_top" xlink:title="mfem::Array\&lt; int \&gt;">
<polygon fill="white" stroke="black" points="344,-216.5 344,-239.5 502,-239.5 502,-216.5 344,-216.5"/>
<text text-anchor="middle" x="423" y="-224.3" font-family="Helvetica,sans-Serif" font-size="14.00">mfem::Array&lt; int &gt;</text>
</a>
</g>
</g>
<!-- Node8&#45;&gt;Node7 -->
<g id="edge7" class="edge"><title>Node8&#45;&gt;Node7</title>
<path fill="none" stroke="#9a32cd" stroke-dasharray="5,2" d="M427.481,-206.277C430.484,-192.387 434.314,-174.675 436.712,-163.583"/>
<polygon fill="#9a32cd" stroke="#9a32cd" points="423.985,-205.884 425.292,-216.398 430.827,-207.363 423.985,-205.884"/>
<text text-anchor="middle" x="467" y="-186.3" font-family="Helvetica,sans-Serif" font-size="14.00"> dof_map</text>
</g>
<!-- Node9 -->
<g id="node9" class="node"><title>Node9</title>
<g id="a_node9"><a xlink:href="classmfem_1_1BaseArray.html" target="_top" xlink:title="Base class for array container. ">
<polygon fill="white" stroke="black" points="351.5,-292.5 351.5,-315.5 494.5,-315.5 494.5,-292.5 351.5,-292.5"/>
<text text-anchor="middle" x="423" y="-300.3" font-family="Helvetica,sans-Serif" font-size="14.00">mfem::BaseArray</text>
</a>
</g>
</g>
<!-- Node9&#45;&gt;Node8 -->
<g id="edge8" class="edge"><title>Node9&#45;&gt;Node8</title>
<path fill="none" stroke="midnightblue" d="M423,-282.277C423,-268.387 423,-250.675 423,-239.583"/>
<polygon fill="midnightblue" stroke="midnightblue" points="419.5,-282.398 423,-292.398 426.5,-282.398 419.5,-282.398"/>
</g>
<!-- Node10 -->
<g id="node10" class="node"><title>Node10</title>
<g id="a_node10"><a xlink:href="classmfem_1_1Poly__1D_1_1Basis.html" target="_top" xlink:title="mfem::Poly_1D::Basis">
<polygon fill="white" stroke="black" points="520.5,-216.5 520.5,-239.5 691.5,-239.5 691.5,-216.5 520.5,-216.5"/>
<text text-anchor="middle" x="606" y="-224.3" font-family="Helvetica,sans-Serif" font-size="14.00">mfem::Poly_1D::Basis</text>
</a>
</g>
</g>
<!-- Node10&#45;&gt;Node7 -->
<g id="edge9" class="edge"><title>Node10&#45;&gt;Node7</title>
<path fill="none" stroke="#9a32cd" stroke-dasharray="5,2" d="M573.162,-212.318C553.417,-203.503 527.78,-192.079 505,-182 491.151,-175.872 475.649,-169.059 463.151,-163.576"/>
<polygon fill="#9a32cd" stroke="#9a32cd" points="571.785,-215.536 582.343,-216.418 574.639,-209.145 571.785,-215.536"/>
<text text-anchor="middle" x="569" y="-186.3" font-family="Helvetica,sans-Serif" font-size="14.00"> basis1d</text>
</g>
</g>
</svg>
        <g id="navigator" transform="translate(0 0)" fill="#404254">
                <rect fill="#f2f5e9" fill-opacity="0.5" stroke="#606060" stroke-width=".5" x="0" y="0" width="60" height="60"/>
                <use id="zoomplus" xlink:href="#zoomPlus" x="17" y="9" onmousedown="handleZoom(evt,'in')"/>
                <use id="zoomminus" xlink:href="#zoomMin" x="42" y="9" onmousedown="handleZoom(evt,'out')"/>
                <use id="reset" xlink:href="#resetDef" x="30" y="36" onmousedown="handleReset()"/>
                <g id="arrowUp" xlink:href="#dirArrow" transform="translate(30 24)" onmousedown="handlePan(0,-1)">
                  <use xlink:href="#rim" fill="#404040">
                        <set attributeName="fill" to="#808080" begin="arrowUp.mouseover" end="arrowUp.mouseout"/>
                  </use>
                  <path fill="none" stroke="white" stroke-width="1.5" d="M0,-3.0v7 M-2.5,-0.5L0,-3.0L2.5,-0.5"/>
                </g>
                <g id="arrowRight" xlink:href="#dirArrow" transform="rotate(90) translate(36 -43)" onmousedown="handlePan(1,0)">
                  <use xlink:href="#rim" fill="#404040">
                        <set attributeName="fill" to="#808080" begin="arrowRight.mouseover" end="arrowRight.mouseout"/>
                  </use>
                  <path fill="none" stroke="white" stroke-width="1.5" d="M0,-3.0v7 M-2.5,-0.5L0,-3.0L2.5,-0.5"/>
                </g>
                <g id="arrowDown" xlink:href="#dirArrow" transform="rotate(180) translate(-30 -48)" onmousedown="handlePan(0,1)">
                  <use xlink:href="#rim" fill="#404040">
                        <set attributeName="fill" to="#808080" begin="arrowDown.mouseover" end="arrowDown.mouseout"/>
                  </use>
                  <path fill="none" stroke="white" stroke-width="1.5" d="M0,-3.0v7 M-2.5,-0.5L0,-3.0L2.5,-0.5"/>
                </g>
                <g id="arrowLeft" xlink:href="#dirArrow" transform="rotate(270) translate(-36 17)" onmousedown="handlePan(-1,0)">
                  <use xlink:href="#rim" fill="#404040">
                        <set attributeName="fill" to="#808080" begin="arrowLeft.mouseover" end="arrowLeft.mouseout"/>
                  </use>
                  <path fill="none" stroke="white" stroke-width="1.5" d="M0,-3.0v7 M-2.5,-0.5L0,-3.0L2.5,-0.5"/>
                </g>
        </g>
        <svg viewBox="0 0 15 15" width="100%" height="30px" preserveAspectRatio="xMaxYMin meet">
         <g id="arrow_out" transform="scale(0.3 0.3)">
          <a xlink:href="classmfem_1_1L2Pos__HexahedronElement__coll__graph_org.svg" target="_base">
           <rect id="button" ry="5" rx="5" y="6" x="6" height="38" width="38"
                fill="#f2f5e9" fill-opacity="0.5" stroke="#606060" stroke-width="1.0"/>
           <path id="arrow"
             d="M 11.500037,31.436501 C 11.940474,20.09759 22.043105,11.32322 32.158766,21.979434 L 37.068811,17.246167 C 37.068811,17.246167 37.088388,32 37.088388,32 L 22.160133,31.978069 C 22.160133,31.978069 26.997745,27.140456 26.997745,27.140456 C 18.528582,18.264221 13.291696,25.230495 11.500037,31.436501 z"
             style="fill:#404040;"/>
          </a>
         </g>
        </svg>
</svg>
