<?xml version="1.0" encoding="UTF-8" standalone="no"?>
<!DOCTYPE svg PUBLIC "-//W3C//DTD SVG 1.1//EN"
 "http://www.w3.org/Graphics/SVG/1.1/DTD/svg11.dtd">
<!-- Generated by graphviz version 2.30.1 (20200304.1809)
 -->
<!-- Title: mfem::DGDiffusionIntegrator Pages: 1 -->
<svg width="1136pt" height="345pt"
 viewBox="0.00 0.00 1136.00 345.00" xmlns="http://www.w3.org/2000/svg" xmlns:xlink="http://www.w3.org/1999/xlink">
<g id="graph0" class="graph" transform="scale(1 1) rotate(0) translate(4 341)">
<title>mfem::DGDiffusionIntegrator</title>
<polygon fill="white" stroke="white" points="-4,5 -4,-341 1133,-341 1133,5 -4,5"/>
<!-- Node1 -->
<g id="node1" class="node"><title>Node1</title>
<polygon fill="#bfbfbf" stroke="black" points="902,-170.5 902,-193.5 1128,-193.5 1128,-170.5 902,-170.5"/>
<text text-anchor="middle" x="1015" y="-178.3" font-family="Helvetica,sans-Serif" font-size="14.00">mfem::DGDiffusionIntegrator</text>
</g>
<!-- Node2 -->
<g id="node2" class="node"><title>Node2</title>
<g id="a_node2"><a xlink:href="classmfem_1_1BilinearFormIntegrator.html" target="_top" xlink:title="Abstract base class BilinearFormIntegrator. ">
<polygon fill="white" stroke="black" points="554.5,-310.5 554.5,-333.5 785.5,-333.5 785.5,-310.5 554.5,-310.5"/>
<text text-anchor="middle" x="670" y="-318.3" font-family="Helvetica,sans-Serif" font-size="14.00">mfem::BilinearFormIntegrator</text>
</a>
</g>
</g>
<!-- Node2&#45;&gt;Node1 -->
<g id="edge1" class="edge"><title>Node2&#45;&gt;Node1</title>
<path fill="none" stroke="midnightblue" d="M795.753,-317.059C825.588,-312.644 856.688,-305.23 884,-293 937.088,-269.227 985.089,-216.79 1004.67,-193.516"/>
<polygon fill="midnightblue" stroke="midnightblue" points="795.12,-313.613 785.691,-318.444 796.074,-320.547 795.12,-313.613"/>
</g>
<!-- Node3 -->
<g id="node3" class="node"><title>Node3</title>
<g id="a_node3"><a xlink:href="classmfem_1_1NonlinearFormIntegrator.html" target="_top" xlink:title="mfem::NonlinearFormIntegrator">
<polygon fill="white" stroke="black" points="270,-310.5 270,-333.5 516,-333.5 516,-310.5 270,-310.5"/>
<text text-anchor="middle" x="393" y="-318.3" font-family="Helvetica,sans-Serif" font-size="14.00">mfem::NonlinearFormIntegrator</text>
</a>
</g>
</g>
<!-- Node3&#45;&gt;Node2 -->
<g id="edge2" class="edge"><title>Node3&#45;&gt;Node2</title>
<path fill="none" stroke="midnightblue" d="M526.309,-322C535.624,-322 544.972,-322 554.18,-322"/>
<polygon fill="midnightblue" stroke="midnightblue" points="526.221,-318.5 516.22,-322 526.22,-325.5 526.221,-318.5"/>
</g>
<!-- Node4 -->
<g id="node4" class="node"><title>Node4</title>
<g id="a_node4"><a xlink:href="classmfem_1_1IntegrationRule.html" target="_top" xlink:title="Class for an integration rule &#45; an Array of IntegrationPoint. ">
<polygon fill="white" stroke="red" points="0,-310.5 0,-333.5 178,-333.5 178,-310.5 0,-310.5"/>
<text text-anchor="middle" x="89" y="-318.3" font-family="Helvetica,sans-Serif" font-size="14.00">mfem::IntegrationRule</text>
</a>
</g>
</g>
<!-- Node4&#45;&gt;Node3 -->
<g id="edge3" class="edge"><title>Node4&#45;&gt;Node3</title>
<path fill="none" stroke="#9a32cd" stroke-dasharray="5,2" d="M188.374,-322C214.352,-322 242.706,-322 269.778,-322"/>
<polygon fill="#9a32cd" stroke="#9a32cd" points="188.163,-318.5 178.163,-322 188.163,-325.5 188.163,-318.5"/>
<text text-anchor="middle" x="224" y="-325.8" font-family="Helvetica,sans-Serif" font-size="14.00"> IntRule</text>
</g>
<!-- Node5 -->
<g id="node5" class="node"><title>Node5</title>
<g id="a_node5"><a xlink:href="classmfem_1_1MatrixCoefficient.html" target="_top" xlink:title="mfem::MatrixCoefficient">
<polygon fill="white" stroke="black" points="576,-268.5 576,-291.5 764,-291.5 764,-268.5 576,-268.5"/>
<text text-anchor="middle" x="670" y="-276.3" font-family="Helvetica,sans-Serif" font-size="14.00">mfem::MatrixCoefficient</text>
</a>
</g>
</g>
<!-- Node5&#45;&gt;Node1 -->
<g id="edge4" class="edge"><title>Node5&#45;&gt;Node1</title>
<path fill="none" stroke="#9a32cd" stroke-dasharray="5,2" d="M774.608,-278.147C809.985,-275.207 849.347,-269.329 884,-258 929.225,-243.215 975.852,-211.039 999.029,-193.673"/>
<polygon fill="#9a32cd" stroke="#9a32cd" points="773.963,-274.686 764.257,-278.935 774.493,-281.666 773.963,-274.686"/>
<text text-anchor="middle" x="844" y="-277.8" font-family="Helvetica,sans-Serif" font-size="14.00"> MQ</text>
</g>
<!-- Node6 -->
<g id="node6" class="node"><title>Node6</title>
<g id="a_node6"><a xlink:href="classmfem_1_1DenseMatrix.html" target="_top" xlink:title="Data type dense matrix using column&#45;major storage. ">
<polygon fill="white" stroke="black" points="591,-170.5 591,-193.5 749,-193.5 749,-170.5 591,-170.5"/>
<text text-anchor="middle" x="670" y="-178.3" font-family="Helvetica,sans-Serif" font-size="14.00">mfem::DenseMatrix</text>
</a>
</g>
</g>
<!-- Node6&#45;&gt;Node1 -->
<g id="edge5" class="edge"><title>Node6&#45;&gt;Node1</title>
<path fill="none" stroke="#9a32cd" stroke-dasharray="5,2" d="M759.517,-182C802.946,-182 855.727,-182 901.939,-182"/>
<polygon fill="#9a32cd" stroke="#9a32cd" points="759.261,-178.5 749.261,-182 759.261,-185.5 759.261,-178.5"/>
<text text-anchor="middle" x="844" y="-245.8" font-family="Helvetica,sans-Serif" font-size="14.00"> dshape1</text>
<text text-anchor="middle" x="844" y="-230.8" font-family="Helvetica,sans-Serif" font-size="14.00">dshape2</text>
<text text-anchor="middle" x="844" y="-215.8" font-family="Helvetica,sans-Serif" font-size="14.00">mq</text>
<text text-anchor="middle" x="844" y="-200.8" font-family="Helvetica,sans-Serif" font-size="14.00">adjJ</text>
<text text-anchor="middle" x="844" y="-185.8" font-family="Helvetica,sans-Serif" font-size="14.00">jmat</text>
</g>
<!-- Node7 -->
<g id="node7" class="node"><title>Node7</title>
<g id="a_node7"><a xlink:href="classmfem_1_1Matrix.html" target="_top" xlink:title="Abstract data type matrix. ">
<polygon fill="white" stroke="black" points="336.5,-170.5 336.5,-193.5 449.5,-193.5 449.5,-170.5 336.5,-170.5"/>
<text text-anchor="middle" x="393" y="-178.3" font-family="Helvetica,sans-Serif" font-size="14.00">mfem::Matrix</text>
</a>
</g>
</g>
<!-- Node7&#45;&gt;Node6 -->
<g id="edge6" class="edge"><title>Node7&#45;&gt;Node6</title>
<path fill="none" stroke="midnightblue" d="M459.671,-182C499.045,-182 549.344,-182 590.768,-182"/>
<polygon fill="midnightblue" stroke="midnightblue" points="459.65,-178.5 449.65,-182 459.65,-185.5 459.65,-178.5"/>
</g>
<!-- Node8 -->
<g id="node8" class="node"><title>Node8</title>
<g id="a_node8"><a xlink:href="classmfem_1_1Operator.html" target="_top" xlink:title="Abstract operator. ">
<polygon fill="white" stroke="black" points="22.5,-170.5 22.5,-193.5 155.5,-193.5 155.5,-170.5 22.5,-170.5"/>
<text text-anchor="middle" x="89" y="-178.3" font-family="Helvetica,sans-Serif" font-size="14.00">mfem::Operator</text>
</a>
</g>
</g>
<!-- Node8&#45;&gt;Node7 -->
<g id="edge7" class="edge"><title>Node8&#45;&gt;Node7</title>
<path fill="none" stroke="midnightblue" d="M165.558,-182C218.553,-182 288.232,-182 336.226,-182"/>
<polygon fill="midnightblue" stroke="midnightblue" points="165.53,-178.5 155.53,-182 165.529,-185.5 165.53,-178.5"/>
</g>
<!-- Node9 -->
<g id="node9" class="node"><title>Node9</title>
<g id="a_node9"><a xlink:href="classmfem_1_1Vector.html" target="_top" xlink:title="Vector data type. ">
<polygon fill="white" stroke="black" points="613,-42.5 613,-65.5 727,-65.5 727,-42.5 613,-42.5"/>
<text text-anchor="middle" x="670" y="-50.3" font-family="Helvetica,sans-Serif" font-size="14.00">mfem::Vector</text>
</a>
</g>
</g>
<!-- Node9&#45;&gt;Node1 -->
<g id="edge8" class="edge"><title>Node9&#45;&gt;Node1</title>
<path fill="none" stroke="#9a32cd" stroke-dasharray="5,2" d="M737.589,-49.8472C780.868,-49.5458 837.652,-53.7658 884,-73 937.319,-95.1269 985.197,-147.266 1004.71,-170.49"/>
<polygon fill="#9a32cd" stroke="#9a32cd" points="737.399,-46.3496 727.453,-50.0015 737.505,-53.3488 737.399,-46.3496"/>
<text text-anchor="middle" x="844" y="-166.8" font-family="Helvetica,sans-Serif" font-size="14.00"> shape1</text>
<text text-anchor="middle" x="844" y="-151.8" font-family="Helvetica,sans-Serif" font-size="14.00">dshape1dn</text>
<text text-anchor="middle" x="844" y="-136.8" font-family="Helvetica,sans-Serif" font-size="14.00">shape2</text>
<text text-anchor="middle" x="844" y="-121.8" font-family="Helvetica,sans-Serif" font-size="14.00">nh</text>
<text text-anchor="middle" x="844" y="-106.8" font-family="Helvetica,sans-Serif" font-size="14.00">nor</text>
<text text-anchor="middle" x="844" y="-91.8" font-family="Helvetica,sans-Serif" font-size="14.00">ni</text>
<text text-anchor="middle" x="844" y="-76.8" font-family="Helvetica,sans-Serif" font-size="14.00">dshape2dn</text>
</g>
<!-- Node10 -->
<g id="node10" class="node"><title>Node10</title>
<g id="a_node10"><a xlink:href="classmfem_1_1Coefficient.html" target="_top" xlink:title="Base class Coefficient that may optionally depend on time. ">
<polygon fill="white" stroke="black" points="598,-0.5 598,-23.5 742,-23.5 742,-0.5 598,-0.5"/>
<text text-anchor="middle" x="670" y="-8.3" font-family="Helvetica,sans-Serif" font-size="14.00">mfem::Coefficient</text>
</a>
</g>
</g>
<!-- Node10&#45;&gt;Node1 -->
<g id="edge9" class="edge"><title>Node10&#45;&gt;Node1</title>
<path fill="none" stroke="#9a32cd" stroke-dasharray="5,2" d="M752.379,-7.18986C793.852,-8.01397 843.862,-14.2498 884,-35 945.739,-66.9168 991.633,-141.313 1007.73,-170.219"/>
<polygon fill="#9a32cd" stroke="#9a32cd" points="752.339,-3.68939 742.305,-7.09128 752.27,-10.6891 752.339,-3.68939"/>
<text text-anchor="middle" x="844" y="-38.8" font-family="Helvetica,sans-Serif" font-size="14.00"> Q</text>
</g>
</g>
</svg>
