<?xml version="1.0" encoding="UTF-8" standalone="no"?>
<!DOCTYPE svg PUBLIC "-//W3C//DTD SVG 1.1//EN"
 "http://www.w3.org/Graphics/SVG/1.1/DTD/svg11.dtd">
<!-- Generated by graphviz version 2.30.1 (20200304.1809)
 -->
<!-- Title: mfem::L2_HexahedronElement Pages: 1 -->
<svg width="698pt" height="308pt"
 viewBox="0.00 0.00 698.00 308.00" xmlns="http://www.w3.org/2000/svg" xmlns:xlink="http://www.w3.org/1999/xlink">
<g id="graph0" class="graph" transform="scale(1 1) rotate(0) translate(4 304)">
<title>mfem::L2_HexahedronElement</title>
<polygon fill="white" stroke="white" points="-4,5 -4,-304 695,-304 695,5 -4,5"/>
<!-- Node1 -->
<g id="node1" class="node"><title>Node1</title>
<polygon fill="#bfbfbf" stroke="black" points="226,-0.5 226,-23.5 466,-23.5 466,-0.5 226,-0.5"/>
<text text-anchor="middle" x="346" y="-8.3" font-family="Helvetica,sans-Serif" font-size="14.00">mfem::L2_HexahedronElement</text>
</g>
<!-- Node2 -->
<g id="node2" class="node"><title>Node2</title>
<g id="a_node2"><a xlink:href="classmfem_1_1NodalTensorFiniteElement.html" target="_top" xlink:title="mfem::NodalTensorFiniteElement">
<polygon fill="white" stroke="black" points="219,-62.5 219,-85.5 473,-85.5 473,-62.5 219,-62.5"/>
<text text-anchor="middle" x="346" y="-70.3" font-family="Helvetica,sans-Serif" font-size="14.00">mfem::NodalTensorFiniteElement</text>
</a>
</g>
</g>
<!-- Node2&#45;&gt;Node1 -->
<g id="edge1" class="edge"><title>Node2&#45;&gt;Node1</title>
<path fill="none" stroke="midnightblue" d="M346,-52.2312C346,-42.5922 346,-31.5444 346,-23.6339"/>
<polygon fill="midnightblue" stroke="midnightblue" points="342.5,-52.2732 346,-62.2732 349.5,-52.2732 342.5,-52.2732"/>
</g>
<!-- Node3 -->
<g id="node3" class="node"><title>Node3</title>
<g id="a_node3"><a xlink:href="classmfem_1_1NodalFiniteElement.html" target="_top" xlink:title="mfem::NodalFiniteElement">
<polygon fill="white" stroke="black" points="103.5,-124.5 103.5,-147.5 310.5,-147.5 310.5,-124.5 103.5,-124.5"/>
<text text-anchor="middle" x="207" y="-132.3" font-family="Helvetica,sans-Serif" font-size="14.00">mfem::NodalFiniteElement</text>
</a>
</g>
</g>
<!-- Node3&#45;&gt;Node2 -->
<g id="edge2" class="edge"><title>Node3&#45;&gt;Node2</title>
<path fill="none" stroke="midnightblue" d="M240.935,-120.352C265.764,-109.634 298.883,-95.3383 321.247,-85.6846"/>
<polygon fill="midnightblue" stroke="midnightblue" points="239.325,-117.235 231.53,-124.411 242.099,-123.662 239.325,-117.235"/>
</g>
<!-- Node4 -->
<g id="node4" class="node"><title>Node4</title>
<g id="a_node4"><a xlink:href="classmfem_1_1ScalarFiniteElement.html" target="_top" xlink:title="mfem::ScalarFiniteElement">
<polygon fill="white" stroke="black" points="102,-200.5 102,-223.5 312,-223.5 312,-200.5 102,-200.5"/>
<text text-anchor="middle" x="207" y="-208.3" font-family="Helvetica,sans-Serif" font-size="14.00">mfem::ScalarFiniteElement</text>
</a>
</g>
</g>
<!-- Node4&#45;&gt;Node3 -->
<g id="edge3" class="edge"><title>Node4&#45;&gt;Node3</title>
<path fill="none" stroke="midnightblue" d="M207,-190.277C207,-176.387 207,-158.675 207,-147.583"/>
<polygon fill="midnightblue" stroke="midnightblue" points="203.5,-190.398 207,-200.398 210.5,-190.398 203.5,-190.398"/>
</g>
<!-- Node5 -->
<g id="node5" class="node"><title>Node5</title>
<g id="a_node5"><a xlink:href="classmfem_1_1FiniteElement.html" target="_top" xlink:title="Abstract class for Finite Elements. ">
<polygon fill="white" stroke="red" points="0,-276.5 0,-299.5 166,-299.5 166,-276.5 0,-276.5"/>
<text text-anchor="middle" x="83" y="-284.3" font-family="Helvetica,sans-Serif" font-size="14.00">mfem::FiniteElement</text>
</a>
</g>
</g>
<!-- Node5&#45;&gt;Node4 -->
<g id="edge4" class="edge"><title>Node5&#45;&gt;Node4</title>
<path fill="none" stroke="midnightblue" d="M109.411,-271.239C133.483,-256.873 168.379,-236.048 189.267,-223.583"/>
<polygon fill="midnightblue" stroke="midnightblue" points="107.56,-268.267 100.766,-276.398 111.147,-274.278 107.56,-268.267"/>
</g>
<!-- Node6 -->
<g id="node6" class="node"><title>Node6</title>
<g id="a_node6"><a xlink:href="classmfem_1_1Vector.html" target="_top" xlink:title="Vector data type. ">
<polygon fill="white" stroke="black" points="184,-276.5 184,-299.5 298,-299.5 298,-276.5 184,-276.5"/>
<text text-anchor="middle" x="241" y="-284.3" font-family="Helvetica,sans-Serif" font-size="14.00">mfem::Vector</text>
</a>
</g>
</g>
<!-- Node6&#45;&gt;Node4 -->
<g id="edge5" class="edge"><title>Node6&#45;&gt;Node4</title>
<path fill="none" stroke="#9a32cd" stroke-dasharray="5,2" d="M231.856,-267.098C225.42,-253.091 217.06,-234.895 211.862,-223.583"/>
<polygon fill="#9a32cd" stroke="#9a32cd" points="228.773,-268.772 236.129,-276.398 235.134,-265.85 228.773,-268.772"/>
<text text-anchor="middle" x="260" y="-246.3" font-family="Helvetica,sans-Serif" font-size="14.00"> c_shape</text>
</g>
<!-- Node7 -->
<g id="node7" class="node"><title>Node7</title>
<g id="a_node7"><a xlink:href="classmfem_1_1TensorBasisElement.html" target="_top" xlink:title="mfem::TensorBasisElement">
<polygon fill="white" stroke="black" points="329,-124.5 329,-147.5 541,-147.5 541,-124.5 329,-124.5"/>
<text text-anchor="middle" x="435" y="-132.3" font-family="Helvetica,sans-Serif" font-size="14.00">mfem::TensorBasisElement</text>
</a>
</g>
</g>
<!-- Node7&#45;&gt;Node2 -->
<g id="edge6" class="edge"><title>Node7&#45;&gt;Node2</title>
<path fill="none" stroke="midnightblue" d="M410.485,-118.473C394.934,-107.989 375.274,-94.7352 361.774,-85.6339"/>
<polygon fill="midnightblue" stroke="midnightblue" points="408.84,-121.585 419.089,-124.273 412.753,-115.781 408.84,-121.585"/>
</g>
<!-- Node8 -->
<g id="node8" class="node"><title>Node8</title>
<g id="a_node8"><a xlink:href="classmfem_1_1Array.html" target="_top" xlink:title="mfem::Array\&lt; int \&gt;">
<polygon fill="white" stroke="black" points="343,-200.5 343,-223.5 501,-223.5 501,-200.5 343,-200.5"/>
<text text-anchor="middle" x="422" y="-208.3" font-family="Helvetica,sans-Serif" font-size="14.00">mfem::Array&lt; int &gt;</text>
</a>
</g>
</g>
<!-- Node8&#45;&gt;Node7 -->
<g id="edge7" class="edge"><title>Node8&#45;&gt;Node7</title>
<path fill="none" stroke="#9a32cd" stroke-dasharray="5,2" d="M425.641,-190.277C428.081,-176.387 431.192,-158.675 433.141,-147.583"/>
<polygon fill="#9a32cd" stroke="#9a32cd" points="422.146,-189.943 423.863,-200.398 429.04,-191.154 422.146,-189.943"/>
<text text-anchor="middle" x="464" y="-170.3" font-family="Helvetica,sans-Serif" font-size="14.00"> dof_map</text>
</g>
<!-- Node9 -->
<g id="node9" class="node"><title>Node9</title>
<g id="a_node9"><a xlink:href="classmfem_1_1BaseArray.html" target="_top" xlink:title="Base class for array container. ">
<polygon fill="white" stroke="black" points="350.5,-276.5 350.5,-299.5 493.5,-299.5 493.5,-276.5 350.5,-276.5"/>
<text text-anchor="middle" x="422" y="-284.3" font-family="Helvetica,sans-Serif" font-size="14.00">mfem::BaseArray</text>
</a>
</g>
</g>
<!-- Node9&#45;&gt;Node8 -->
<g id="edge8" class="edge"><title>Node9&#45;&gt;Node8</title>
<path fill="none" stroke="midnightblue" d="M422,-266.277C422,-252.387 422,-234.675 422,-223.583"/>
<polygon fill="midnightblue" stroke="midnightblue" points="418.5,-266.398 422,-276.398 425.5,-266.398 418.5,-266.398"/>
</g>
<!-- Node10 -->
<g id="node10" class="node"><title>Node10</title>
<g id="a_node10"><a xlink:href="classmfem_1_1Poly__1D_1_1Basis.html" target="_top" xlink:title="mfem::Poly_1D::Basis">
<polygon fill="white" stroke="black" points="519.5,-200.5 519.5,-223.5 690.5,-223.5 690.5,-200.5 519.5,-200.5"/>
<text text-anchor="middle" x="605" y="-208.3" font-family="Helvetica,sans-Serif" font-size="14.00">mfem::Poly_1D::Basis</text>
</a>
</g>
</g>
<!-- Node10&#45;&gt;Node7 -->
<g id="edge9" class="edge"><title>Node10&#45;&gt;Node7</title>
<path fill="none" stroke="#9a32cd" stroke-dasharray="5,2" d="M571.505,-196.332C551.367,-187.522 525.222,-176.098 502,-166 487.936,-159.884 472.199,-153.071 459.512,-147.586"/>
<polygon fill="#9a32cd" stroke="#9a32cd" points="570.305,-199.627 580.869,-200.43 573.111,-193.214 570.305,-199.627"/>
<text text-anchor="middle" x="567" y="-170.3" font-family="Helvetica,sans-Serif" font-size="14.00"> basis1d</text>
</g>
</g>
</svg>
