<?xml version="1.0" encoding="UTF-8" standalone="no"?>
<!DOCTYPE svg PUBLIC "-//W3C//DTD SVG 1.1//EN"
 "http://www.w3.org/Graphics/SVG/1.1/DTD/svg11.dtd">
<!-- Generated by graphviz version 2.30.1 (20200304.1809)
 -->
<!-- Title: Graphical Class Hierarchy Pages: 1 -->
<svg width="334pt" height="242pt"
 viewBox="0.00 0.00 334.00 242.00" xmlns="http://www.w3.org/2000/svg" xmlns:xlink="http://www.w3.org/1999/xlink">
<g id="graph0" class="graph" transform="scale(1 1) rotate(0) translate(4 238)">
<title>Graphical Class Hierarchy</title>
<polygon fill="white" stroke="white" points="-4,5 -4,-238 331,-238 331,5 -4,5"/>
<!-- Node1 -->
<g id="node1" class="node"><title>Node1</title>
<g id="a_node1"><a xlink:href="classmfem_1_1Element.html" target="_top" xlink:title="Abstract data type element. ">
<polygon fill="white" stroke="black" points="0,-105.5 0,-128.5 128,-128.5 128,-105.5 0,-105.5"/>
<text text-anchor="middle" x="64" y="-113.3" font-family="Helvetica,sans-Serif" font-size="14.00">mfem::Element</text>
</a>
</g>
</g>
<!-- Node2 -->
<g id="node2" class="node"><title>Node2</title>
<g id="a_node2"><a xlink:href="classmfem_1_1Hexahedron.html" target="_top" xlink:title="Data type hexahedron element. ">
<polygon fill="white" stroke="black" points="167,-210.5 167,-233.5 323,-233.5 323,-210.5 167,-210.5"/>
<text text-anchor="middle" x="245" y="-218.3" font-family="Helvetica,sans-Serif" font-size="14.00">mfem::Hexahedron</text>
</a>
</g>
</g>
<!-- Node1&#45;&gt;Node2 -->
<g id="edge1" class="edge"><title>Node1&#45;&gt;Node2</title>
<path fill="none" stroke="midnightblue" d="M82.2375,-135.936C100.679,-155.076 131.669,-184.162 164,-201 171.132,-204.714 178.972,-207.809 186.869,-210.376"/>
<polygon fill="midnightblue" stroke="midnightblue" points="84.7686,-133.519 75.359,-128.65 79.6783,-138.324 84.7686,-133.519"/>
</g>
<!-- Node3 -->
<g id="node3" class="node"><title>Node3</title>
<g id="a_node3"><a xlink:href="classmfem_1_1Point.html" target="_top" xlink:title="Data type point element. ">
<polygon fill="white" stroke="black" points="193.5,-168.5 193.5,-191.5 296.5,-191.5 296.5,-168.5 193.5,-168.5"/>
<text text-anchor="middle" x="245" y="-176.3" font-family="Helvetica,sans-Serif" font-size="14.00">mfem::Point</text>
</a>
</g>
</g>
<!-- Node1&#45;&gt;Node3 -->
<g id="edge2" class="edge"><title>Node1&#45;&gt;Node3</title>
<path fill="none" stroke="midnightblue" d="M98.5481,-132.662C117.502,-141.147 141.78,-151.415 164,-159 174.056,-162.433 184.983,-165.636 195.437,-168.455"/>
<polygon fill="midnightblue" stroke="midnightblue" points="99.9867,-129.472 89.4333,-128.536 97.0999,-135.849 99.9867,-129.472"/>
</g>
<!-- Node4 -->
<g id="node4" class="node"><title>Node4</title>
<g id="a_node4"><a xlink:href="classmfem_1_1Quadrilateral.html" target="_top" xlink:title="Data type quadrilateral element. ">
<polygon fill="white" stroke="black" points="164,-126.5 164,-149.5 326,-149.5 326,-126.5 164,-126.5"/>
<text text-anchor="middle" x="245" y="-134.3" font-family="Helvetica,sans-Serif" font-size="14.00">mfem::Quadrilateral</text>
</a>
</g>
</g>
<!-- Node1&#45;&gt;Node4 -->
<g id="edge3" class="edge"><title>Node1&#45;&gt;Node4</title>
<path fill="none" stroke="midnightblue" d="M138.288,-125.598C146.731,-126.589 155.373,-127.602 163.9,-128.603"/>
<polygon fill="midnightblue" stroke="midnightblue" points="138.448,-122.093 128.109,-124.404 137.633,-129.045 138.448,-122.093"/>
</g>
<!-- Node5 -->
<g id="node5" class="node"><title>Node5</title>
<g id="a_node5"><a xlink:href="classmfem_1_1Segment.html" target="_top" xlink:title="Data type line segment element. ">
<polygon fill="white" stroke="black" points="178.5,-84.5 178.5,-107.5 311.5,-107.5 311.5,-84.5 178.5,-84.5"/>
<text text-anchor="middle" x="245" y="-92.3" font-family="Helvetica,sans-Serif" font-size="14.00">mfem::Segment</text>
</a>
</g>
</g>
<!-- Node1&#45;&gt;Node5 -->
<g id="edge4" class="edge"><title>Node1&#45;&gt;Node5</title>
<path fill="none" stroke="midnightblue" d="M138.184,-108.414C151.513,-106.85 165.341,-105.228 178.433,-103.692"/>
<polygon fill="midnightblue" stroke="midnightblue" points="137.633,-104.955 128.109,-109.596 138.448,-111.907 137.633,-104.955"/>
</g>
<!-- Node6 -->
<g id="node6" class="node"><title>Node6</title>
<g id="a_node6"><a xlink:href="classmfem_1_1Tetrahedron.html" target="_top" xlink:title="Data type tetrahedron element. ">
<polygon fill="white" stroke="black" points="167.5,-42.5 167.5,-65.5 322.5,-65.5 322.5,-42.5 167.5,-42.5"/>
<text text-anchor="middle" x="245" y="-50.3" font-family="Helvetica,sans-Serif" font-size="14.00">mfem::Tetrahedron</text>
</a>
</g>
</g>
<!-- Node1&#45;&gt;Node6 -->
<g id="edge5" class="edge"><title>Node1&#45;&gt;Node6</title>
<path fill="none" stroke="midnightblue" d="M98.5481,-101.338C117.502,-92.853 141.78,-82.5852 164,-75 174.056,-71.5671 184.983,-68.3641 195.437,-65.545"/>
<polygon fill="midnightblue" stroke="midnightblue" points="97.0999,-98.1512 89.4333,-105.464 99.9867,-104.528 97.0999,-98.1512"/>
</g>
<!-- Node7 -->
<g id="node7" class="node"><title>Node7</title>
<g id="a_node7"><a xlink:href="classmfem_1_1Triangle.html" target="_top" xlink:title="Data type triangle element. ">
<polygon fill="white" stroke="black" points="182.5,-0.5 182.5,-23.5 307.5,-23.5 307.5,-0.5 182.5,-0.5"/>
<text text-anchor="middle" x="245" y="-8.3" font-family="Helvetica,sans-Serif" font-size="14.00">mfem::Triangle</text>
</a>
</g>
</g>
<!-- Node1&#45;&gt;Node7 -->
<g id="edge6" class="edge"><title>Node1&#45;&gt;Node7</title>
<path fill="none" stroke="midnightblue" d="M82.2375,-98.0636C100.679,-78.9238 131.669,-49.8382 164,-33 171.132,-29.2856 178.972,-26.1913 186.869,-23.6236"/>
<polygon fill="midnightblue" stroke="midnightblue" points="79.6783,-95.6759 75.359,-105.35 84.7686,-100.481 79.6783,-95.6759"/>
</g>
</g>
</svg>
