<?xml version="1.0" encoding="UTF-8" standalone="no"?>
<!DOCTYPE svg PUBLIC "-//W3C//DTD SVG 1.1//EN"
 "http://www.w3.org/Graphics/SVG/1.1/DTD/svg11.dtd">
<!-- Generated by graphviz version 2.30.1 (20200304.1809)
 -->
<!-- Title: mfem::NodalFiniteElement Pages: 1 -->
<svg width="970pt" height="2106pt"
 viewBox="0.00 0.00 970.00 2106.00" xmlns="http://www.w3.org/2000/svg" xmlns:xlink="http://www.w3.org/1999/xlink">
<g id="graph0" class="graph" transform="scale(1 1) rotate(0) translate(4 2102)">
<title>mfem::NodalFiniteElement</title>
<polygon fill="white" stroke="white" points="-4,5 -4,-2102 967,-2102 967,5 -4,5"/>
<!-- Node1 -->
<g id="node1" class="node"><title>Node1</title>
<polygon fill="#bfbfbf" stroke="black" points="448.5,-1048.5 448.5,-1071.5 655.5,-1071.5 655.5,-1048.5 448.5,-1048.5"/>
<text text-anchor="middle" x="552" y="-1056.3" font-family="Helvetica,sans-Serif" font-size="14.00">mfem::NodalFiniteElement</text>
</g>
<!-- Node4 -->
<g id="node4" class="node"><title>Node4</title>
<g id="a_node4"><a xlink:href="classmfem_1_1BiCubic2DFiniteElement.html" target="_top" xlink:title="A 2D bi&#45;cubic element on a square with uniformly spaces nodes. ">
<polygon fill="white" stroke="black" points="707.5,-2074.5 707.5,-2097.5 946.5,-2097.5 946.5,-2074.5 707.5,-2074.5"/>
<text text-anchor="middle" x="827" y="-2082.3" font-family="Helvetica,sans-Serif" font-size="14.00">mfem::BiCubic2DFiniteElement</text>
</a>
</g>
</g>
<!-- Node1&#45;&gt;Node4 -->
<g id="edge3" class="edge"><title>Node1&#45;&gt;Node4</title>
<path fill="none" stroke="midnightblue" d="M552.65,-1081.85C550.988,-1215.3 549.136,-1919.54 692,-2065 696.62,-2069.7 701.832,-2073.63 707.452,-2076.89"/>
<polygon fill="midnightblue" stroke="midnightblue" points="556.152,-1081.71 552.792,-1071.67 549.153,-1081.62 556.152,-1081.71"/>
</g>
<!-- Node5 -->
<g id="node5" class="node"><title>Node5</title>
<g id="a_node5"><a xlink:href="classmfem_1_1BiLinear2DFiniteElement.html" target="_top" xlink:title="A 2D bi&#45;linear element on a square with nodes at the vertices of the square. ">
<polygon fill="white" stroke="black" points="704.5,-2032.5 704.5,-2055.5 949.5,-2055.5 949.5,-2032.5 704.5,-2032.5"/>
<text text-anchor="middle" x="827" y="-2040.3" font-family="Helvetica,sans-Serif" font-size="14.00">mfem::BiLinear2DFiniteElement</text>
</a>
</g>
</g>
<!-- Node1&#45;&gt;Node5 -->
<g id="edge4" class="edge"><title>Node1&#45;&gt;Node5</title>
<path fill="none" stroke="midnightblue" d="M552.793,-1082.15C552.047,-1213.05 555.007,-1884.34 692,-2023 695.724,-2026.77 699.828,-2030.04 704.217,-2032.87"/>
<polygon fill="midnightblue" stroke="midnightblue" points="556.295,-1081.83 552.867,-1071.81 549.295,-1081.78 556.295,-1081.83"/>
</g>
<!-- Node6 -->
<g id="node6" class="node"><title>Node6</title>
<g id="a_node6"><a xlink:href="classmfem_1_1BiQuad2DFiniteElement.html" target="_top" xlink:title="A 2D bi&#45;quadratic element on a square with uniformly spaced nodes. ">
<polygon fill="white" stroke="black" points="708,-1990.5 708,-2013.5 946,-2013.5 946,-1990.5 708,-1990.5"/>
<text text-anchor="middle" x="827" y="-1998.3" font-family="Helvetica,sans-Serif" font-size="14.00">mfem::BiQuad2DFiniteElement</text>
</a>
</g>
</g>
<!-- Node1&#45;&gt;Node6 -->
<g id="edge5" class="edge"><title>Node1&#45;&gt;Node6</title>
<path fill="none" stroke="midnightblue" d="M552.97,-1081.94C553.268,-1208.81 561.31,-1847.63 692,-1980 696.721,-1984.78 702.051,-1988.77 707.797,-1992.09"/>
<polygon fill="midnightblue" stroke="midnightblue" points="556.47,-1081.58 552.961,-1071.58 549.47,-1081.58 556.47,-1081.58"/>
</g>
<!-- Node7 -->
<g id="node7" class="node"><title>Node7</title>
<g id="a_node7"><a xlink:href="classmfem_1_1CrouzeixRaviartFiniteElement.html" target="_top" xlink:title="A 2D Crouzeix&#45;Raviart element on triangle. ">
<polygon fill="white" stroke="black" points="717,-1933 717,-1971 937,-1971 937,-1933 717,-1933"/>
<text text-anchor="start" x="725" y="-1955.8" font-family="Helvetica,sans-Serif" font-size="14.00">mfem::CrouzeixRaviartFinite</text>
<text text-anchor="middle" x="827" y="-1940.8" font-family="Helvetica,sans-Serif" font-size="14.00">Element</text>
</a>
</g>
</g>
<!-- Node1&#45;&gt;Node7 -->
<g id="edge6" class="edge"><title>Node1&#45;&gt;Node7</title>
<path fill="none" stroke="midnightblue" d="M553.313,-1082C555.507,-1204.02 572.274,-1796.7 692,-1923 699.041,-1930.43 707.498,-1936.18 716.695,-1940.61"/>
<polygon fill="midnightblue" stroke="midnightblue" points="556.808,-1081.63 553.143,-1071.69 549.808,-1081.75 556.808,-1081.63"/>
</g>
<!-- Node8 -->
<g id="node8" class="node"><title>Node8</title>
<g id="a_node8"><a xlink:href="classmfem_1_1CrouzeixRaviartQuadFiniteElement.html" target="_top" xlink:title="A 2D Crouzeix&#45;Raviart finite element on square. ">
<polygon fill="white" stroke="black" points="717,-1876 717,-1914 937,-1914 937,-1876 717,-1876"/>
<text text-anchor="start" x="725" y="-1898.8" font-family="Helvetica,sans-Serif" font-size="14.00">mfem::CrouzeixRaviartQuad</text>
<text text-anchor="middle" x="827" y="-1883.8" font-family="Helvetica,sans-Serif" font-size="14.00">FiniteElement</text>
</a>
</g>
</g>
<!-- Node1&#45;&gt;Node8 -->
<g id="edge7" class="edge"><title>Node1&#45;&gt;Node8</title>
<path fill="none" stroke="midnightblue" d="M553.586,-1082.01C557.162,-1199.21 579.792,-1748.94 692,-1866 699.082,-1873.39 707.566,-1879.11 716.781,-1883.53"/>
<polygon fill="midnightblue" stroke="midnightblue" points="557.078,-1081.67 553.29,-1071.77 550.081,-1081.87 557.078,-1081.67"/>
</g>
<!-- Node9 -->
<g id="node9" class="node"><title>Node9</title>
<g id="a_node9"><a xlink:href="classmfem_1_1Cubic1DFiniteElement.html" target="_top" xlink:title="A 1D cubic element with uniformly spaced nodes. ">
<polygon fill="white" stroke="black" points="714.5,-1833.5 714.5,-1856.5 939.5,-1856.5 939.5,-1833.5 714.5,-1833.5"/>
<text text-anchor="middle" x="827" y="-1841.3" font-family="Helvetica,sans-Serif" font-size="14.00">mfem::Cubic1DFiniteElement</text>
</a>
</g>
</g>
<!-- Node1&#45;&gt;Node9 -->
<g id="edge8" class="edge"><title>Node1&#45;&gt;Node9</title>
<path fill="none" stroke="midnightblue" d="M553.681,-1081.68C557.698,-1194.86 582.038,-1716.7 692,-1824 698.489,-1830.33 706.056,-1835.23 714.232,-1838.99"/>
<polygon fill="midnightblue" stroke="midnightblue" points="557.173,-1081.38 553.337,-1071.5 550.177,-1081.61 557.173,-1081.38"/>
</g>
<!-- Node10 -->
<g id="node10" class="node"><title>Node10</title>
<g id="a_node10"><a xlink:href="classmfem_1_1Cubic2DFiniteElement.html" target="_top" xlink:title="A 2D cubic element on a triangle with uniformly spaced nodes. ">
<polygon fill="white" stroke="black" points="714.5,-1791.5 714.5,-1814.5 939.5,-1814.5 939.5,-1791.5 714.5,-1791.5"/>
<text text-anchor="middle" x="827" y="-1799.3" font-family="Helvetica,sans-Serif" font-size="14.00">mfem::Cubic2DFiniteElement</text>
</a>
</g>
</g>
<!-- Node1&#45;&gt;Node10 -->
<g id="edge9" class="edge"><title>Node1&#45;&gt;Node10</title>
<path fill="none" stroke="midnightblue" d="M553.937,-1081.87C559.106,-1191.65 587.804,-1681.36 692,-1782 698.521,-1788.3 706.111,-1793.18 714.302,-1796.92"/>
<polygon fill="midnightblue" stroke="midnightblue" points="557.425,-1081.51 553.475,-1071.67 550.432,-1081.82 557.425,-1081.51"/>
</g>
<!-- Node11 -->
<g id="node11" class="node"><title>Node11</title>
<g id="a_node11"><a xlink:href="classmfem_1_1Cubic3DFiniteElement.html" target="_top" xlink:title="mfem::Cubic3DFiniteElement">
<polygon fill="white" stroke="black" points="714.5,-1749.5 714.5,-1772.5 939.5,-1772.5 939.5,-1749.5 714.5,-1749.5"/>
<text text-anchor="middle" x="827" y="-1757.3" font-family="Helvetica,sans-Serif" font-size="14.00">mfem::Cubic3DFiniteElement</text>
</a>
</g>
</g>
<!-- Node1&#45;&gt;Node11 -->
<g id="edge10" class="edge"><title>Node1&#45;&gt;Node11</title>
<path fill="none" stroke="midnightblue" d="M554.24,-1081.89C560.694,-1187.67 593.983,-1644.75 692,-1739 698.543,-1745.29 706.148,-1750.19 714.349,-1753.97"/>
<polygon fill="midnightblue" stroke="midnightblue" points="557.725,-1081.53 553.64,-1071.76 550.738,-1081.95 557.725,-1081.53"/>
</g>
<!-- Node12 -->
<g id="node12" class="node"><title>Node12</title>
<g id="a_node12"><a xlink:href="classmfem_1_1GaussBiLinear2DFiniteElement.html" target="_top" xlink:title="A 2D bi&#45;linear element on a square with nodes at the &quot;Gaussian&quot; points. ">
<polygon fill="white" stroke="black" points="712,-1692 712,-1730 942,-1730 942,-1692 712,-1692"/>
<text text-anchor="start" x="720" y="-1714.8" font-family="Helvetica,sans-Serif" font-size="14.00">mfem::GaussBiLinear2DFinite</text>
<text text-anchor="middle" x="827" y="-1699.8" font-family="Helvetica,sans-Serif" font-size="14.00">Element</text>
</a>
</g>
</g>
<!-- Node1&#45;&gt;Node12 -->
<g id="edge11" class="edge"><title>Node1&#45;&gt;Node12</title>
<path fill="none" stroke="midnightblue" d="M554.782,-1081.83C563.383,-1181.77 603.842,-1594.43 692,-1682 697.826,-1687.79 704.516,-1692.54 711.73,-1696.44"/>
<polygon fill="midnightblue" stroke="midnightblue" points="558.257,-1081.38 553.929,-1071.71 551.281,-1081.97 558.257,-1081.38"/>
</g>
<!-- Node13 -->
<g id="node13" class="node"><title>Node13</title>
<g id="a_node13"><a xlink:href="classmfem_1_1GaussBiQuad2DFiniteElement.html" target="_top" xlink:title="A 2D bi&#45;quadratic element on a square with nodes at the 9 &quot;Gaussian&quot; points. ">
<polygon fill="white" stroke="black" points="715.5,-1635 715.5,-1673 938.5,-1673 938.5,-1635 715.5,-1635"/>
<text text-anchor="start" x="723.5" y="-1657.8" font-family="Helvetica,sans-Serif" font-size="14.00">mfem::GaussBiQuad2DFinite</text>
<text text-anchor="middle" x="827" y="-1642.8" font-family="Helvetica,sans-Serif" font-size="14.00">Element</text>
</a>
</g>
</g>
<!-- Node1&#45;&gt;Node13 -->
<g id="edge12" class="edge"><title>Node1&#45;&gt;Node13</title>
<path fill="none" stroke="midnightblue" d="M555.317,-1081.91C565.732,-1176.24 611.269,-1546.51 692,-1625 698.826,-1631.64 706.791,-1636.91 715.371,-1641.08"/>
<polygon fill="midnightblue" stroke="midnightblue" points="558.78,-1081.38 554.221,-1071.81 551.82,-1082.13 558.78,-1081.38"/>
</g>
<!-- Node14 -->
<g id="node14" class="node"><title>Node14</title>
<g id="a_node14"><a xlink:href="classmfem_1_1GaussLinear2DFiniteElement.html" target="_top" xlink:title="A linear element on a triangle with nodes at the 3 &quot;Gaussian&quot; points. ">
<polygon fill="white" stroke="black" points="719,-1578 719,-1616 935,-1616 935,-1578 719,-1578"/>
<text text-anchor="start" x="727" y="-1600.8" font-family="Helvetica,sans-Serif" font-size="14.00">mfem::GaussLinear2DFinite</text>
<text text-anchor="middle" x="827" y="-1585.8" font-family="Helvetica,sans-Serif" font-size="14.00">Element</text>
</a>
</g>
</g>
<!-- Node1&#45;&gt;Node14 -->
<g id="edge13" class="edge"><title>Node1&#45;&gt;Node14</title>
<path fill="none" stroke="midnightblue" d="M555.921,-1081.63C568.218,-1169.52 618.555,-1498.41 692,-1568 699.775,-1575.37 708.958,-1581.04 718.812,-1585.39"/>
<polygon fill="midnightblue" stroke="midnightblue" points="559.358,-1080.94 554.525,-1071.51 552.424,-1081.89 559.358,-1080.94"/>
</g>
<!-- Node15 -->
<g id="node15" class="node"><title>Node15</title>
<g id="a_node15"><a xlink:href="classmfem_1_1GaussQuad2DFiniteElement.html" target="_top" xlink:title="A quadratic element on triangle with nodes at the &quot;Gaussian&quot; points. ">
<polygon fill="white" stroke="black" points="692.5,-1535.5 692.5,-1558.5 961.5,-1558.5 961.5,-1535.5 692.5,-1535.5"/>
<text text-anchor="middle" x="827" y="-1543.3" font-family="Helvetica,sans-Serif" font-size="14.00">mfem::GaussQuad2DFiniteElement</text>
</a>
</g>
</g>
<!-- Node1&#45;&gt;Node15 -->
<g id="edge14" class="edge"><title>Node1&#45;&gt;Node15</title>
<path fill="none" stroke="midnightblue" d="M556.391,-1081.84C569.849,-1165.65 622.185,-1464.99 692,-1526 696.078,-1529.56 700.505,-1532.66 705.186,-1535.33"/>
<polygon fill="midnightblue" stroke="midnightblue" points="559.837,-1081.23 554.815,-1071.9 552.923,-1082.32 559.837,-1081.23"/>
</g>
<!-- Node16 -->
<g id="node16" class="node"><title>Node16</title>
<g id="a_node16"><a xlink:href="classmfem_1_1H1__TetrahedronElement.html" target="_top" xlink:title="Arbitrary order H1 elements in 3D on a tetrahedron. ">
<polygon fill="white" stroke="black" points="706,-1493.5 706,-1516.5 948,-1516.5 948,-1493.5 706,-1493.5"/>
<text text-anchor="middle" x="827" y="-1501.3" font-family="Helvetica,sans-Serif" font-size="14.00">mfem::H1_TetrahedronElement</text>
</a>
</g>
</g>
<!-- Node1&#45;&gt;Node16 -->
<g id="edge15" class="edge"><title>Node1&#45;&gt;Node16</title>
<path fill="none" stroke="midnightblue" d="M552.803,-1082.21C553.476,-1153.29 565.945,-1376.8 692,-1484 696.305,-1487.66 700.981,-1490.82 705.92,-1493.54"/>
<polygon fill="midnightblue" stroke="midnightblue" points="556.302,-1081.8 552.782,-1071.8 549.302,-1081.81 556.302,-1081.8"/>
</g>
<!-- Node17 -->
<g id="node17" class="node"><title>Node17</title>
<g id="a_node17"><a xlink:href="classmfem_1_1H1__TriangleElement.html" target="_top" xlink:title="Arbitrary order H1 elements in 2D on a triangle. ">
<polygon fill="white" stroke="black" points="721.5,-1451.5 721.5,-1474.5 932.5,-1474.5 932.5,-1451.5 721.5,-1451.5"/>
<text text-anchor="middle" x="827" y="-1459.3" font-family="Helvetica,sans-Serif" font-size="14.00">mfem::H1_TriangleElement</text>
</a>
</g>
</g>
<!-- Node1&#45;&gt;Node17 -->
<g id="edge16" class="edge"><title>Node1&#45;&gt;Node17</title>
<path fill="none" stroke="midnightblue" d="M553.681,-1081.78C557.011,-1147.82 576.616,-1347.03 692,-1442 700.636,-1449.11 710.681,-1454.3 721.314,-1458.05"/>
<polygon fill="midnightblue" stroke="midnightblue" points="557.174,-1081.55 553.251,-1071.7 550.181,-1081.85 557.174,-1081.55"/>
</g>
<!-- Node18 -->
<g id="node18" class="node"><title>Node18</title>
<g id="a_node18"><a xlink:href="classmfem_1_1H1__WedgeElement.html" target="_top" xlink:title="Arbitrary order H1 elements in 3D on a wedge. ">
<polygon fill="white" stroke="red" points="725,-1409.5 725,-1432.5 929,-1432.5 929,-1409.5 725,-1409.5"/>
<text text-anchor="middle" x="827" y="-1417.3" font-family="Helvetica,sans-Serif" font-size="14.00">mfem::H1_WedgeElement</text>
</a>
</g>
</g>
<!-- Node1&#45;&gt;Node18 -->
<g id="edge17" class="edge"><title>Node1&#45;&gt;Node18</title>
<path fill="none" stroke="midnightblue" d="M554.765,-1081.82C560.969,-1143.04 587.46,-1317.33 692,-1400 701.697,-1407.67 713.053,-1413.07 724.978,-1416.82"/>
<polygon fill="midnightblue" stroke="midnightblue" points="558.239,-1081.38 553.828,-1071.75 551.269,-1082.03 558.239,-1081.38"/>
</g>
<!-- Node19 -->
<g id="node19" class="node"><title>Node19</title>
<g id="a_node19"><a xlink:href="classmfem_1_1L2__TetrahedronElement.html" target="_top" xlink:title="Arbitrary order L2 elements in 3D on a tetrahedron. ">
<polygon fill="white" stroke="black" points="707.5,-1367.5 707.5,-1390.5 946.5,-1390.5 946.5,-1367.5 707.5,-1367.5"/>
<text text-anchor="middle" x="827" y="-1375.3" font-family="Helvetica,sans-Serif" font-size="14.00">mfem::L2_TetrahedronElement</text>
</a>
</g>
</g>
<!-- Node1&#45;&gt;Node19 -->
<g id="edge18" class="edge"><title>Node1&#45;&gt;Node19</title>
<path fill="none" stroke="midnightblue" d="M556.105,-1081.72C565.34,-1137.69 598.101,-1287.37 692,-1358 696.799,-1361.61 701.971,-1364.71 707.395,-1367.36"/>
<polygon fill="midnightblue" stroke="midnightblue" points="559.517,-1080.88 554.519,-1071.54 552.601,-1081.96 559.517,-1080.88"/>
</g>
<!-- Node20 -->
<g id="node20" class="node"><title>Node20</title>
<g id="a_node20"><a xlink:href="classmfem_1_1L2__TriangleElement.html" target="_top" xlink:title="Arbitrary order L2 elements in 2D on a triangle. ">
<polygon fill="white" stroke="black" points="722.5,-1325.5 722.5,-1348.5 931.5,-1348.5 931.5,-1325.5 722.5,-1325.5"/>
<text text-anchor="middle" x="827" y="-1333.3" font-family="Helvetica,sans-Serif" font-size="14.00">mfem::L2_TriangleElement</text>
</a>
</g>
</g>
<!-- Node1&#45;&gt;Node20 -->
<g id="edge19" class="edge"><title>Node1&#45;&gt;Node20</title>
<path fill="none" stroke="midnightblue" d="M557.772,-1081.38C570.177,-1131.56 608.457,-1257.06 692,-1316 701.14,-1322.45 711.501,-1327.23 722.316,-1330.73"/>
<polygon fill="midnightblue" stroke="midnightblue" points="561.167,-1080.53 555.451,-1071.61 554.356,-1082.15 561.167,-1080.53"/>
</g>
<!-- Node21 -->
<g id="node21" class="node"><title>Node21</title>
<g id="a_node21"><a xlink:href="classmfem_1_1L2__WedgeElement.html" target="_top" xlink:title="Arbitrary order L2 elements in 3D on a wedge. ">
<polygon fill="white" stroke="red" points="726,-1283.5 726,-1306.5 928,-1306.5 928,-1283.5 726,-1283.5"/>
<text text-anchor="middle" x="827" y="-1291.3" font-family="Helvetica,sans-Serif" font-size="14.00">mfem::L2_WedgeElement</text>
</a>
</g>
</g>
<!-- Node1&#45;&gt;Node21 -->
<g id="edge20" class="edge"><title>Node1&#45;&gt;Node21</title>
<path fill="none" stroke="midnightblue" d="M560.131,-1081.45C576.028,-1125.62 618.848,-1226.58 692,-1274 702.275,-1280.66 713.905,-1285.48 725.915,-1288.94"/>
<polygon fill="midnightblue" stroke="midnightblue" points="563.343,-1080.03 556.745,-1071.74 556.733,-1082.34 563.343,-1080.03"/>
</g>
<!-- Node22 -->
<g id="node22" class="node"><title>Node22</title>
<g id="a_node22"><a xlink:href="classmfem_1_1Lagrange1DFiniteElement.html" target="_top" xlink:title="A 1D element with uniform nodes. ">
<polygon fill="white" stroke="black" points="700,-1241.5 700,-1264.5 954,-1264.5 954,-1241.5 700,-1241.5"/>
<text text-anchor="middle" x="827" y="-1249.3" font-family="Helvetica,sans-Serif" font-size="14.00">mfem::Lagrange1DFiniteElement</text>
</a>
</g>
</g>
<!-- Node1&#45;&gt;Node22 -->
<g id="edge21" class="edge"><title>Node1&#45;&gt;Node22</title>
<path fill="none" stroke="midnightblue" d="M563.067,-1080.58C582.4,-1117.7 628.503,-1195.37 692,-1232 698.425,-1235.71 705.298,-1238.82 712.411,-1241.43"/>
<polygon fill="midnightblue" stroke="midnightblue" points="566.184,-1078.99 558.532,-1071.66 559.944,-1082.16 566.184,-1078.99"/>
</g>
<!-- Node23 -->
<g id="node23" class="node"><title>Node23</title>
<g id="a_node23"><a xlink:href="classmfem_1_1LagrangeHexFiniteElement.html" target="_top" xlink:title="Tensor products of 1D Lagrange1DFiniteElement (only degree 2 is functional) ">
<polygon fill="white" stroke="black" points="696,-1199.5 696,-1222.5 958,-1222.5 958,-1199.5 696,-1199.5"/>
<text text-anchor="middle" x="827" y="-1207.3" font-family="Helvetica,sans-Serif" font-size="14.00">mfem::LagrangeHexFiniteElement</text>
</a>
</g>
</g>
<!-- Node1&#45;&gt;Node23 -->
<g id="edge22" class="edge"><title>Node1&#45;&gt;Node23</title>
<path fill="none" stroke="midnightblue" d="M567.864,-1080.06C590.888,-1109.51 638.171,-1163.75 692,-1190 699.725,-1193.77 707.972,-1196.89 716.434,-1199.47"/>
<polygon fill="midnightblue" stroke="midnightblue" points="570.378,-1077.59 561.517,-1071.78 564.822,-1081.85 570.378,-1077.59"/>
</g>
<!-- Node24 -->
<g id="node24" class="node"><title>Node24</title>
<g id="a_node24"><a xlink:href="classmfem_1_1Linear1DFiniteElement.html" target="_top" xlink:title="A 1D linear element with nodes on the endpoints. ">
<polygon fill="white" stroke="black" points="711.5,-1157.5 711.5,-1180.5 942.5,-1180.5 942.5,-1157.5 711.5,-1157.5"/>
<text text-anchor="middle" x="827" y="-1165.3" font-family="Helvetica,sans-Serif" font-size="14.00">mfem::Linear1DFiniteElement</text>
</a>
</g>
</g>
<!-- Node1&#45;&gt;Node24 -->
<g id="edge23" class="edge"><title>Node1&#45;&gt;Node24</title>
<path fill="none" stroke="midnightblue" d="M575.059,-1078.05C601.259,-1098.48 647.089,-1131.1 692,-1148 702.138,-1151.82 712.959,-1154.94 723.891,-1157.49"/>
<polygon fill="midnightblue" stroke="midnightblue" points="576.968,-1075.1 566.956,-1071.63 572.621,-1080.59 576.968,-1075.1"/>
</g>
<!-- Node25 -->
<g id="node25" class="node"><title>Node25</title>
<g id="a_node25"><a xlink:href="classmfem_1_1Linear2DFiniteElement.html" target="_top" xlink:title="A 2D linear element on triangle with nodes at the vertices of the triangle. ">
<polygon fill="white" stroke="black" points="711.5,-1115.5 711.5,-1138.5 942.5,-1138.5 942.5,-1115.5 711.5,-1115.5"/>
<text text-anchor="middle" x="827" y="-1123.3" font-family="Helvetica,sans-Serif" font-size="14.00">mfem::Linear2DFiniteElement</text>
</a>
</g>
</g>
<!-- Node1&#45;&gt;Node25 -->
<g id="edge24" class="edge"><title>Node1&#45;&gt;Node25</title>
<path fill="none" stroke="midnightblue" d="M592.613,-1075.04C620.153,-1085.02 657.895,-1097.74 692,-1106 706.991,-1109.63 723.083,-1112.78 738.731,-1115.45"/>
<polygon fill="midnightblue" stroke="midnightblue" points="593.548,-1071.65 582.954,-1071.5 591.141,-1078.23 593.548,-1071.65"/>
</g>
<!-- Node26 -->
<g id="node26" class="node"><title>Node26</title>
<g id="a_node26"><a xlink:href="classmfem_1_1Linear3DFiniteElement.html" target="_top" xlink:title="A 3D linear element on a tetrahedron with nodes at the vertices of the tetrahedron. ">
<polygon fill="white" stroke="black" points="711.5,-1073.5 711.5,-1096.5 942.5,-1096.5 942.5,-1073.5 711.5,-1073.5"/>
<text text-anchor="middle" x="827" y="-1081.3" font-family="Helvetica,sans-Serif" font-size="14.00">mfem::Linear3DFiniteElement</text>
</a>
</g>
</g>
<!-- Node1&#45;&gt;Node26 -->
<g id="edge25" class="edge"><title>Node1&#45;&gt;Node26</title>
<path fill="none" stroke="midnightblue" d="M666.103,-1070.36C681.058,-1071.73 696.399,-1073.13 711.379,-1074.5"/>
<polygon fill="midnightblue" stroke="midnightblue" points="666.098,-1066.84 655.821,-1069.42 665.46,-1073.81 666.098,-1066.84"/>
</g>
<!-- Node27 -->
<g id="node27" class="node"><title>Node27</title>
<g id="a_node27"><a xlink:href="classmfem_1_1LinearPyramidFiniteElement.html" target="_top" xlink:title="A linear element defined on a square pyramid. ">
<polygon fill="white" stroke="black" points="722,-1016 722,-1054 932,-1054 932,-1016 722,-1016"/>
<text text-anchor="start" x="730" y="-1038.8" font-family="Helvetica,sans-Serif" font-size="14.00">mfem::LinearPyramidFinite</text>
<text text-anchor="middle" x="827" y="-1023.8" font-family="Helvetica,sans-Serif" font-size="14.00">Element</text>
</a>
</g>
</g>
<!-- Node1&#45;&gt;Node27 -->
<g id="edge26" class="edge"><title>Node1&#45;&gt;Node27</title>
<path fill="none" stroke="midnightblue" d="M666.031,-1049.65C684.536,-1047.95 703.635,-1046.21 721.91,-1044.53"/>
<polygon fill="midnightblue" stroke="midnightblue" points="665.46,-1046.19 655.821,-1050.58 666.098,-1053.16 665.46,-1046.19"/>
</g>
<!-- Node28 -->
<g id="node28" class="node"><title>Node28</title>
<g id="a_node28"><a xlink:href="classmfem_1_1LinearWedgeFiniteElement.html" target="_top" xlink:title="A linear element defined on a triangular prism. ">
<polygon fill="white" stroke="black" points="697,-973.5 697,-996.5 957,-996.5 957,-973.5 697,-973.5"/>
<text text-anchor="middle" x="827" y="-981.3" font-family="Helvetica,sans-Serif" font-size="14.00">mfem::LinearWedgeFiniteElement</text>
</a>
</g>
</g>
<!-- Node1&#45;&gt;Node28 -->
<g id="edge27" class="edge"><title>Node1&#45;&gt;Node28</title>
<path fill="none" stroke="midnightblue" d="M587.321,-1044.28C615.038,-1032.16 655.326,-1015.87 692,-1006 705.757,-1002.3 720.495,-999.17 734.983,-996.556"/>
<polygon fill="midnightblue" stroke="midnightblue" points="585.798,-1041.12 578.068,-1048.37 588.629,-1047.52 585.798,-1041.12"/>
</g>
<!-- Node29 -->
<g id="node29" class="node"><title>Node29</title>
<g id="a_node29"><a xlink:href="classmfem_1_1NodalTensorFiniteElement.html" target="_top" xlink:title="mfem::NodalTensorFiniteElement">
<polygon fill="white" stroke="red" points="700,-931.5 700,-954.5 954,-954.5 954,-931.5 700,-931.5"/>
<text text-anchor="middle" x="827" y="-939.3" font-family="Helvetica,sans-Serif" font-size="14.00">mfem::NodalTensorFiniteElement</text>
</a>
</g>
</g>
<!-- Node1&#45;&gt;Node29 -->
<g id="edge28" class="edge"><title>Node1&#45;&gt;Node29</title>
<path fill="none" stroke="midnightblue" d="M573.192,-1041.6C598.811,-1019.38 645.304,-982.647 692,-964 701.513,-960.201 711.662,-957.087 721.956,-954.534"/>
<polygon fill="midnightblue" stroke="midnightblue" points="570.819,-1039.03 565.634,-1048.27 575.449,-1044.28 570.819,-1039.03"/>
</g>
<!-- Node30 -->
<g id="node30" class="node"><title>Node30</title>
<g id="a_node30"><a xlink:href="classmfem_1_1P0HexFiniteElement.html" target="_top" xlink:title="A 3D constant element on a cube. ">
<polygon fill="white" stroke="black" points="721.5,-889.5 721.5,-912.5 932.5,-912.5 932.5,-889.5 721.5,-889.5"/>
<text text-anchor="middle" x="827" y="-897.3" font-family="Helvetica,sans-Serif" font-size="14.00">mfem::P0HexFiniteElement</text>
</a>
</g>
</g>
<!-- Node1&#45;&gt;Node30 -->
<g id="edge29" class="edge"><title>Node1&#45;&gt;Node30</title>
<path fill="none" stroke="midnightblue" d="M566.607,-1040.02C588.868,-1009.09 636.221,-950.237 692,-922 701.139,-917.374 711.041,-913.713 721.183,-910.824"/>
<polygon fill="midnightblue" stroke="midnightblue" points="563.666,-1038.12 560.764,-1048.31 569.387,-1042.15 563.666,-1038.12"/>
</g>
<!-- Node31 -->
<g id="node31" class="node"><title>Node31</title>
<g id="a_node31"><a xlink:href="classmfem_1_1P0PyrFiniteElement.html" target="_top" xlink:title="A 3D constant element on a pyramid. ">
<polygon fill="white" stroke="black" points="724,-847.5 724,-870.5 930,-870.5 930,-847.5 724,-847.5"/>
<text text-anchor="middle" x="827" y="-855.3" font-family="Helvetica,sans-Serif" font-size="14.00">mfem::P0PyrFiniteElement</text>
</a>
</g>
</g>
<!-- Node1&#45;&gt;Node31 -->
<g id="edge30" class="edge"><title>Node1&#45;&gt;Node31</title>
<path fill="none" stroke="midnightblue" d="M562.528,-1039.03C581.261,-1000.43 626.809,-918.578 692,-880 701.829,-874.184 712.743,-869.818 723.978,-866.561"/>
<polygon fill="midnightblue" stroke="midnightblue" points="559.266,-1037.74 558.154,-1048.28 565.594,-1040.73 559.266,-1037.74"/>
</g>
<!-- Node32 -->
<g id="node32" class="node"><title>Node32</title>
<g id="a_node32"><a xlink:href="classmfem_1_1P0QuadFiniteElement.html" target="_top" xlink:title="A 2D constant element on a square. ">
<polygon fill="white" stroke="black" points="716.5,-805.5 716.5,-828.5 937.5,-828.5 937.5,-805.5 716.5,-805.5"/>
<text text-anchor="middle" x="827" y="-813.3" font-family="Helvetica,sans-Serif" font-size="14.00">mfem::P0QuadFiniteElement</text>
</a>
</g>
</g>
<!-- Node1&#45;&gt;Node32 -->
<g id="edge31" class="edge"><title>Node1&#45;&gt;Node32</title>
<path fill="none" stroke="midnightblue" d="M559.573,-1038.7C574.75,-993.402 616.812,-887.629 692,-838 699.468,-833.071 707.671,-829.142 716.227,-826.025"/>
<polygon fill="midnightblue" stroke="midnightblue" points="556.194,-1037.77 556.438,-1048.36 562.853,-1039.93 556.194,-1037.77"/>
</g>
<!-- Node33 -->
<g id="node33" class="node"><title>Node33</title>
<g id="a_node33"><a xlink:href="classmfem_1_1P0SegmentFiniteElement.html" target="_top" xlink:title="A 1D constant element on a segment. ">
<polygon fill="white" stroke="black" points="703,-763.5 703,-786.5 951,-786.5 951,-763.5 703,-763.5"/>
<text text-anchor="middle" x="827" y="-771.3" font-family="Helvetica,sans-Serif" font-size="14.00">mfem::P0SegmentFiniteElement</text>
</a>
</g>
</g>
<!-- Node1&#45;&gt;Node33 -->
<g id="edge32" class="edge"><title>Node1&#45;&gt;Node33</title>
<path fill="none" stroke="midnightblue" d="M557.473,-1038.32C569.317,-986.857 606.625,-857.054 692,-796 697.076,-792.37 702.537,-789.267 708.248,-786.62"/>
<polygon fill="midnightblue" stroke="midnightblue" points="554.002,-1037.81 555.268,-1048.33 560.838,-1039.32 554.002,-1037.81"/>
</g>
<!-- Node34 -->
<g id="node34" class="node"><title>Node34</title>
<g id="a_node34"><a xlink:href="classmfem_1_1P0TetFiniteElement.html" target="_top" xlink:title="A 3D constant element on a tetrahedron. ">
<polygon fill="white" stroke="black" points="725,-721.5 725,-744.5 929,-744.5 929,-721.5 725,-721.5"/>
<text text-anchor="middle" x="827" y="-729.3" font-family="Helvetica,sans-Serif" font-size="14.00">mfem::P0TetFiniteElement</text>
</a>
</g>
</g>
<!-- Node1&#45;&gt;Node34 -->
<g id="edge33" class="edge"><title>Node1&#45;&gt;Node34</title>
<path fill="none" stroke="midnightblue" d="M555.794,-1038.46C564.394,-981.629 595.973,-826.99 692,-754 701.748,-746.59 713.065,-741.324 724.911,-737.637"/>
<polygon fill="midnightblue" stroke="midnightblue" points="552.314,-1038.08 554.368,-1048.47 559.244,-1039.06 552.314,-1038.08"/>
</g>
<!-- Node35 -->
<g id="node35" class="node"><title>Node35</title>
<g id="a_node35"><a xlink:href="classmfem_1_1P0TriangleFiniteElement.html" target="_top" xlink:title="A 2D constant element on a triangle. ">
<polygon fill="white" stroke="black" points="707.5,-679.5 707.5,-702.5 946.5,-702.5 946.5,-679.5 707.5,-679.5"/>
<text text-anchor="middle" x="827" y="-687.3" font-family="Helvetica,sans-Serif" font-size="14.00">mfem::P0TriangleFiniteElement</text>
</a>
</g>
</g>
<!-- Node1&#45;&gt;Node35 -->
<g id="edge34" class="edge"><title>Node1&#45;&gt;Node35</title>
<path fill="none" stroke="midnightblue" d="M554.547,-1038.1C560.205,-975.865 585.451,-796.956 692,-712 696.787,-708.183 701.984,-704.925 707.458,-702.151"/>
<polygon fill="midnightblue" stroke="midnightblue" points="551.039,-1038.06 553.703,-1048.32 558.015,-1038.64 551.039,-1038.06"/>
</g>
<!-- Node36 -->
<g id="node36" class="node"><title>Node36</title>
<g id="a_node36"><a xlink:href="classmfem_1_1P0WdgFiniteElement.html" target="_top" xlink:title="A 3D constant element on a wedge. ">
<polygon fill="white" stroke="black" points="719.5,-637.5 719.5,-660.5 934.5,-660.5 934.5,-637.5 719.5,-637.5"/>
<text text-anchor="middle" x="827" y="-645.3" font-family="Helvetica,sans-Serif" font-size="14.00">mfem::P0WdgFiniteElement</text>
</a>
</g>
</g>
<!-- Node1&#45;&gt;Node36 -->
<g id="edge35" class="edge"><title>Node1&#45;&gt;Node36</title>
<path fill="none" stroke="midnightblue" d="M553.499,-1038.22C556.301,-971.308 574.538,-767.329 692,-670 700.069,-663.314 709.381,-658.318 719.262,-654.627"/>
<polygon fill="midnightblue" stroke="midnightblue" points="549.995,-1038.3 553.152,-1048.42 556.991,-1038.54 549.995,-1038.3"/>
</g>
<!-- Node37 -->
<g id="node37" class="node"><title>Node37</title>
<g id="a_node37"><a xlink:href="classmfem_1_1P1OnQuadFiniteElement.html" target="_top" xlink:title="A 2D linear element on a square with 3 nodes at the vertices of the lower left triangle. ">
<polygon fill="white" stroke="black" points="706,-595.5 706,-618.5 948,-618.5 948,-595.5 706,-595.5"/>
<text text-anchor="middle" x="827" y="-603.3" font-family="Helvetica,sans-Serif" font-size="14.00">mfem::P1OnQuadFiniteElement</text>
</a>
</g>
</g>
<!-- Node1&#45;&gt;Node37 -->
<g id="edge36" class="edge"><title>Node1&#45;&gt;Node37</title>
<path fill="none" stroke="midnightblue" d="M552.648,-1038.31C552.769,-966.951 563.547,-737.846 692,-628 696.295,-624.327 700.963,-621.158 705.895,-618.431"/>
<polygon fill="midnightblue" stroke="midnightblue" points="549.149,-1038.38 552.704,-1048.36 556.148,-1038.34 549.149,-1038.38"/>
</g>
<!-- Node38 -->
<g id="node38" class="node"><title>Node38</title>
<g id="a_node38"><a xlink:href="classmfem_1_1P1SegmentFiniteElement.html" target="_top" xlink:title="A 1D linear element with nodes at 1/3 and 2/3 (trace of RT1) ">
<polygon fill="white" stroke="black" points="703,-553.5 703,-576.5 951,-576.5 951,-553.5 703,-553.5"/>
<text text-anchor="middle" x="827" y="-561.3" font-family="Helvetica,sans-Serif" font-size="14.00">mfem::P1SegmentFiniteElement</text>
</a>
</g>
</g>
<!-- Node1&#45;&gt;Node38 -->
<g id="edge37" class="edge"><title>Node1&#45;&gt;Node38</title>
<path fill="none" stroke="midnightblue" d="M556.247,-1038.34C569.352,-953.891 621.073,-648.27 692,-586 696.07,-582.427 700.49,-579.326 705.165,-576.642"/>
<polygon fill="midnightblue" stroke="midnightblue" points="552.77,-1037.92 554.717,-1048.34 559.69,-1038.98 552.77,-1037.92"/>
</g>
<!-- Node39 -->
<g id="node39" class="node"><title>Node39</title>
<g id="a_node39"><a xlink:href="classmfem_1_1P1TetNonConfFiniteElement.html" target="_top" xlink:title="A 3D Crouzeix&#45;Raviart element on the tetrahedron. ">
<polygon fill="white" stroke="black" points="724,-496 724,-534 930,-534 930,-496 724,-496"/>
<text text-anchor="start" x="732" y="-518.8" font-family="Helvetica,sans-Serif" font-size="14.00">mfem::P1TetNonConfFinite</text>
<text text-anchor="middle" x="827" y="-503.8" font-family="Helvetica,sans-Serif" font-size="14.00">Element</text>
</a>
</g>
</g>
<!-- Node1&#45;&gt;Node39 -->
<g id="edge38" class="edge"><title>Node1&#45;&gt;Node39</title>
<path fill="none" stroke="midnightblue" d="M555.833,-1038.3C567.863,-949.457 617.542,-614.825 692,-544 701.054,-535.387 712.031,-529.088 723.76,-524.514"/>
<polygon fill="midnightblue" stroke="midnightblue" points="552.35,-1037.94 554.497,-1048.31 559.289,-1038.86 552.35,-1037.94"/>
</g>
<!-- Node40 -->
<g id="node40" class="node"><title>Node40</title>
<g id="a_node40"><a xlink:href="classmfem_1_1P2SegmentFiniteElement.html" target="_top" xlink:title="A 1D quadratic element with nodes at the Gaussian points (trace of RT2) ">
<polygon fill="white" stroke="black" points="703,-453.5 703,-476.5 951,-476.5 951,-453.5 703,-453.5"/>
<text text-anchor="middle" x="827" y="-461.3" font-family="Helvetica,sans-Serif" font-size="14.00">mfem::P2SegmentFiniteElement</text>
</a>
</g>
</g>
<!-- Node1&#45;&gt;Node40 -->
<g id="edge39" class="edge"><title>Node1&#45;&gt;Node40</title>
<path fill="none" stroke="midnightblue" d="M555.088,-1038.24C564.685,-942.94 607.752,-563.598 692,-486 695.897,-482.411 700.144,-479.29 704.65,-476.583"/>
<polygon fill="midnightblue" stroke="midnightblue" points="551.583,-1038.12 554.083,-1048.42 558.549,-1038.81 551.583,-1038.12"/>
</g>
<!-- Node41 -->
<g id="node41" class="node"><title>Node41</title>
<g id="a_node41"><a xlink:href="classmfem_1_1PointFiniteElement.html" target="_top" xlink:title="A 0D point finite element. ">
<polygon fill="white" stroke="black" points="727,-411.5 727,-434.5 927,-434.5 927,-411.5 727,-411.5"/>
<text text-anchor="middle" x="827" y="-419.3" font-family="Helvetica,sans-Serif" font-size="14.00">mfem::PointFiniteElement</text>
</a>
</g>
</g>
<!-- Node1&#45;&gt;Node41 -->
<g id="edge40" class="edge"><title>Node1&#45;&gt;Node41</title>
<path fill="none" stroke="midnightblue" d="M554.73,-1037.94C563.039,-937.889 602.196,-528.024 692,-444 701.801,-434.83 713.881,-428.702 726.739,-424.716"/>
<polygon fill="midnightblue" stroke="midnightblue" points="551.227,-1037.84 553.906,-1048.09 558.204,-1038.41 551.227,-1037.84"/>
</g>
<!-- Node42 -->
<g id="node42" class="node"><title>Node42</title>
<g id="a_node42"><a xlink:href="classmfem_1_1Quad1DFiniteElement.html" target="_top" xlink:title="A 1D quadratic finite element with uniformly spaced nodes. ">
<polygon fill="white" stroke="black" points="715,-369.5 715,-392.5 939,-392.5 939,-369.5 715,-369.5"/>
<text text-anchor="middle" x="827" y="-377.3" font-family="Helvetica,sans-Serif" font-size="14.00">mfem::Quad1DFiniteElement</text>
</a>
</g>
</g>
<!-- Node1&#45;&gt;Node42 -->
<g id="edge41" class="edge"><title>Node1&#45;&gt;Node42</title>
<path fill="none" stroke="midnightblue" d="M554.378,-1038.13C561.376,-934.315 596.473,-492.618 692,-402 698.663,-395.68 706.405,-390.798 714.744,-387.062"/>
<polygon fill="midnightblue" stroke="midnightblue" points="550.87,-1038.13 553.707,-1048.34 557.855,-1038.59 550.87,-1038.13"/>
</g>
<!-- Node43 -->
<g id="node43" class="node"><title>Node43</title>
<g id="a_node43"><a xlink:href="classmfem_1_1Quad2DFiniteElement.html" target="_top" xlink:title="A 2D quadratic element on triangle with nodes at the vertices and midpoints of the triangle...">
<polygon fill="white" stroke="black" points="715,-327.5 715,-350.5 939,-350.5 939,-327.5 715,-327.5"/>
<text text-anchor="middle" x="827" y="-335.3" font-family="Helvetica,sans-Serif" font-size="14.00">mfem::Quad2DFiniteElement</text>
</a>
</g>
</g>
<!-- Node1&#45;&gt;Node43 -->
<g id="edge42" class="edge"><title>Node1&#45;&gt;Node43</title>
<path fill="none" stroke="midnightblue" d="M554.08,-1038.12C559.864,-930.353 590.79,-457.185 692,-360 698.709,-353.558 706.538,-348.603 714.982,-344.831"/>
<polygon fill="midnightblue" stroke="midnightblue" points="550.569,-1038.25 553.546,-1048.41 557.56,-1038.61 550.569,-1038.25"/>
</g>
<!-- Node44 -->
<g id="node44" class="node"><title>Node44</title>
<g id="a_node44"><a xlink:href="classmfem_1_1Quadratic3DFiniteElement.html" target="_top" xlink:title="A 3D quadratic element on a tetrahedron with uniformly spaced nodes. ">
<polygon fill="white" stroke="black" points="699,-285.5 699,-308.5 955,-308.5 955,-285.5 699,-285.5"/>
<text text-anchor="middle" x="827" y="-293.3" font-family="Helvetica,sans-Serif" font-size="14.00">mfem::Quadratic3DFiniteElement</text>
</a>
</g>
</g>
<!-- Node1&#45;&gt;Node44 -->
<g id="edge43" class="edge"><title>Node1&#45;&gt;Node44</title>
<path fill="none" stroke="midnightblue" d="M553.811,-1038.23C558.423,-926.834 585.057,-421.81 692,-318 695.717,-314.392 699.785,-311.248 704.116,-308.517"/>
<polygon fill="midnightblue" stroke="midnightblue" points="550.311,-1038.15 553.411,-1048.28 557.306,-1038.43 550.311,-1038.15"/>
</g>
<!-- Node45 -->
<g id="node45" class="node"><title>Node45</title>
<g id="a_node45"><a xlink:href="classmfem_1_1RefinedBiLinear2DFiniteElement.html" target="_top" xlink:title="A 2D refined bi&#45;linear FE on a square. ">
<polygon fill="white" stroke="black" points="707.5,-228 707.5,-266 946.5,-266 946.5,-228 707.5,-228"/>
<text text-anchor="start" x="715.5" y="-250.8" font-family="Helvetica,sans-Serif" font-size="14.00">mfem::RefinedBiLinear2DFinite</text>
<text text-anchor="middle" x="827" y="-235.8" font-family="Helvetica,sans-Serif" font-size="14.00">Element</text>
</a>
</g>
</g>
<!-- Node1&#45;&gt;Node45 -->
<g id="edge44" class="edge"><title>Node1&#45;&gt;Node45</title>
<path fill="none" stroke="midnightblue" d="M553.693,-1038.22C557.798,-923.423 582.614,-389.585 692,-276 696.623,-271.199 701.838,-267.102 707.46,-263.612"/>
<polygon fill="midnightblue" stroke="midnightblue" points="550.194,-1038.15 553.35,-1048.26 557.19,-1038.39 550.194,-1038.15"/>
</g>
<!-- Node46 -->
<g id="node46" class="node"><title>Node46</title>
<g id="a_node46"><a xlink:href="classmfem_1_1RefinedLinear1DFiniteElement.html" target="_top" xlink:title="A 1D refined linear element. ">
<polygon fill="white" stroke="black" points="714,-171 714,-209 940,-209 940,-171 714,-171"/>
<text text-anchor="start" x="722" y="-193.8" font-family="Helvetica,sans-Serif" font-size="14.00">mfem::RefinedLinear1DFinite</text>
<text text-anchor="middle" x="827" y="-178.8" font-family="Helvetica,sans-Serif" font-size="14.00">Element</text>
</a>
</g>
</g>
<!-- Node1&#45;&gt;Node46 -->
<g id="edge45" class="edge"><title>Node1&#45;&gt;Node46</title>
<path fill="none" stroke="midnightblue" d="M553.391,-1038.14C555.995,-918.142 574.558,-340.529 692,-218 698.332,-211.394 705.789,-206.142 713.892,-201.986"/>
<polygon fill="midnightblue" stroke="midnightblue" points="549.889,-1038.22 553.186,-1048.29 556.888,-1038.36 549.889,-1038.22"/>
</g>
<!-- Node47 -->
<g id="node47" class="node"><title>Node47</title>
<g id="a_node47"><a xlink:href="classmfem_1_1RefinedLinear2DFiniteElement.html" target="_top" xlink:title="A 2D refined linear element on a triangle. ">
<polygon fill="white" stroke="black" points="714,-114 714,-152 940,-152 940,-114 714,-114"/>
<text text-anchor="start" x="722" y="-136.8" font-family="Helvetica,sans-Serif" font-size="14.00">mfem::RefinedLinear2DFinite</text>
<text text-anchor="middle" x="827" y="-121.8" font-family="Helvetica,sans-Serif" font-size="14.00">Element</text>
</a>
</g>
</g>
<!-- Node1&#45;&gt;Node47 -->
<g id="edge46" class="edge"><title>Node1&#45;&gt;Node47</title>
<path fill="none" stroke="midnightblue" d="M553.141,-1038.25C554.402,-913.792 566.959,-292.796 692,-161 698.298,-154.362 705.732,-149.087 713.818,-144.916"/>
<polygon fill="midnightblue" stroke="midnightblue" points="549.639,-1038.4 553.053,-1048.43 556.639,-1038.46 549.639,-1038.4"/>
</g>
<!-- Node48 -->
<g id="node48" class="node"><title>Node48</title>
<g id="a_node48"><a xlink:href="classmfem_1_1RefinedLinear3DFiniteElement.html" target="_top" xlink:title="A 2D refined linear element on a tetrahedron. ">
<polygon fill="white" stroke="black" points="714,-57 714,-95 940,-95 940,-57 714,-57"/>
<text text-anchor="start" x="722" y="-79.8" font-family="Helvetica,sans-Serif" font-size="14.00">mfem::RefinedLinear3DFinite</text>
<text text-anchor="middle" x="827" y="-64.8" font-family="Helvetica,sans-Serif" font-size="14.00">Element</text>
</a>
</g>
</g>
<!-- Node1&#45;&gt;Node48 -->
<g id="edge47" class="edge"><title>Node1&#45;&gt;Node48</title>
<path fill="none" stroke="midnightblue" d="M552.922,-1038.11C552.918,-908.724 559.431,-244.998 692,-104 698.268,-97.3337 705.681,-92.0393 713.753,-87.8548"/>
<polygon fill="midnightblue" stroke="midnightblue" points="549.422,-1038.34 552.936,-1048.33 556.422,-1038.33 549.422,-1038.34"/>
</g>
<!-- Node49 -->
<g id="node49" class="node"><title>Node49</title>
<g id="a_node49"><a xlink:href="classmfem_1_1RefinedTriLinear3DFiniteElement.html" target="_top" xlink:title="A 3D refined tri&#45;linear element on a cube. ">
<polygon fill="white" stroke="black" points="706,-0 706,-38 948,-38 948,-0 706,-0"/>
<text text-anchor="start" x="714" y="-22.8" font-family="Helvetica,sans-Serif" font-size="14.00">mfem::RefinedTriLinear3DFinite</text>
<text text-anchor="middle" x="827" y="-7.8" font-family="Helvetica,sans-Serif" font-size="14.00">Element</text>
</a>
</g>
</g>
<!-- Node1&#45;&gt;Node49 -->
<g id="edge48" class="edge"><title>Node1&#45;&gt;Node49</title>
<path fill="none" stroke="midnightblue" d="M552.725,-1038.07C551.507,-904.161 551.851,-197.263 692,-47 696.134,-42.5681 700.773,-38.7413 705.777,-35.443"/>
<polygon fill="midnightblue" stroke="midnightblue" points="549.227,-1038.33 552.832,-1048.3 556.227,-1038.26 549.227,-1038.33"/>
</g>
<!-- Node2 -->
<g id="node2" class="node"><title>Node2</title>
<g id="a_node2"><a xlink:href="classmfem_1_1ScalarFiniteElement.html" target="_top" xlink:title="Class for finite elements with basis functions that return scalar values. ">
<polygon fill="white" stroke="black" points="202,-1048.5 202,-1071.5 412,-1071.5 412,-1048.5 202,-1048.5"/>
<text text-anchor="middle" x="307" y="-1056.3" font-family="Helvetica,sans-Serif" font-size="14.00">mfem::ScalarFiniteElement</text>
</a>
</g>
</g>
<!-- Node2&#45;&gt;Node1 -->
<g id="edge1" class="edge"><title>Node2&#45;&gt;Node1</title>
<path fill="none" stroke="midnightblue" d="M422.263,-1060C430.94,-1060 439.666,-1060 448.263,-1060"/>
<polygon fill="midnightblue" stroke="midnightblue" points="422.111,-1056.5 412.111,-1060 422.111,-1063.5 422.111,-1056.5"/>
</g>
<!-- Node3 -->
<g id="node3" class="node"><title>Node3</title>
<g id="a_node3"><a xlink:href="classmfem_1_1FiniteElement.html" target="_top" xlink:title="Abstract class for all finite elements. ">
<polygon fill="white" stroke="black" points="0,-1048.5 0,-1071.5 166,-1071.5 166,-1048.5 0,-1048.5"/>
<text text-anchor="middle" x="83" y="-1056.3" font-family="Helvetica,sans-Serif" font-size="14.00">mfem::FiniteElement</text>
</a>
</g>
</g>
<!-- Node3&#45;&gt;Node2 -->
<g id="edge2" class="edge"><title>Node3&#45;&gt;Node2</title>
<path fill="none" stroke="midnightblue" d="M176.203,-1060C184.611,-1060 193.167,-1060 201.671,-1060"/>
<polygon fill="midnightblue" stroke="midnightblue" points="176.034,-1056.5 166.034,-1060 176.034,-1063.5 176.034,-1056.5"/>
</g>
</g>
</svg>
