<?xml version="1.0" encoding="UTF-8" standalone="no"?>
<!DOCTYPE svg PUBLIC "-//W3C//DTD SVG 1.1//EN"
 "http://www.w3.org/Graphics/SVG/1.1/DTD/svg11.dtd">
<!-- Generated by graphviz version 2.30.1 (20200304.1809)
 -->
<!-- Title: mfem::MixedCrossGradCurlIntegrator Pages: 1 -->
<svg width="254pt" height="228pt"
 viewBox="0.00 0.00 254.00 228.00" xmlns="http://www.w3.org/2000/svg" xmlns:xlink="http://www.w3.org/1999/xlink">
<g id="graph0" class="graph" transform="scale(1 1) rotate(0) translate(4 224)">
<title>mfem::MixedCrossGradCurlIntegrator</title>
<polygon fill="white" stroke="white" points="-4,5 -4,-224 251,-224 251,5 -4,5"/>
<!-- Node1 -->
<g id="node1" class="node"><title>Node1</title>
<polygon fill="#bfbfbf" stroke="black" points="16.5,-1 16.5,-39 229.5,-39 229.5,-1 16.5,-1"/>
<text text-anchor="start" x="24.5" y="-23.8" font-family="Helvetica,sans-Serif" font-size="14.00">mfem::MixedCrossGradCurl</text>
<text text-anchor="middle" x="123" y="-8.8" font-family="Helvetica,sans-Serif" font-size="14.00">Integrator</text>
</g>
<!-- Node2 -->
<g id="node2" class="node"><title>Node2</title>
<g id="a_node2"><a xlink:href="classmfem_1_1MixedVectorIntegrator.html" target="_top" xlink:title="mfem::MixedVectorIntegrator">
<polygon fill="white" stroke="black" points="9.5,-76.5 9.5,-99.5 236.5,-99.5 236.5,-76.5 9.5,-76.5"/>
<text text-anchor="middle" x="123" y="-84.3" font-family="Helvetica,sans-Serif" font-size="14.00">mfem::MixedVectorIntegrator</text>
</a>
</g>
</g>
<!-- Node2&#45;&gt;Node1 -->
<g id="edge1" class="edge"><title>Node2&#45;&gt;Node1</title>
<path fill="none" stroke="midnightblue" d="M123,-66.2742C123,-57.5413 123,-47.471 123,-39.0484"/>
<polygon fill="midnightblue" stroke="midnightblue" points="119.5,-66.3959 123,-76.396 126.5,-66.396 119.5,-66.3959"/>
</g>
<!-- Node3 -->
<g id="node3" class="node"><title>Node3</title>
<g id="a_node3"><a xlink:href="classmfem_1_1BilinearFormIntegrator.html" target="_top" xlink:title="Abstract base class BilinearFormIntegrator. ">
<polygon fill="white" stroke="black" points="7.5,-136.5 7.5,-159.5 238.5,-159.5 238.5,-136.5 7.5,-136.5"/>
<text text-anchor="middle" x="123" y="-144.3" font-family="Helvetica,sans-Serif" font-size="14.00">mfem::BilinearFormIntegrator</text>
</a>
</g>
</g>
<!-- Node3&#45;&gt;Node2 -->
<g id="edge2" class="edge"><title>Node3&#45;&gt;Node2</title>
<path fill="none" stroke="midnightblue" d="M123,-126.191C123,-117.168 123,-106.994 123,-99.5707"/>
<polygon fill="midnightblue" stroke="midnightblue" points="119.5,-126.362 123,-136.362 126.5,-126.362 119.5,-126.362"/>
</g>
<!-- Node4 -->
<g id="node4" class="node"><title>Node4</title>
<g id="a_node4"><a xlink:href="classmfem_1_1NonlinearFormIntegrator.html" target="_top" xlink:title="This class is used to express the local action of a general nonlinear finite element operator...">
<polygon fill="white" stroke="black" points="0,-196.5 0,-219.5 246,-219.5 246,-196.5 0,-196.5"/>
<text text-anchor="middle" x="123" y="-204.3" font-family="Helvetica,sans-Serif" font-size="14.00">mfem::NonlinearFormIntegrator</text>
</a>
</g>
</g>
<!-- Node4&#45;&gt;Node3 -->
<g id="edge3" class="edge"><title>Node4&#45;&gt;Node3</title>
<path fill="none" stroke="midnightblue" d="M123,-186.191C123,-177.168 123,-166.994 123,-159.571"/>
<polygon fill="midnightblue" stroke="midnightblue" points="119.5,-186.362 123,-196.362 126.5,-186.362 119.5,-186.362"/>
</g>
</g>
</svg>
