<?xml version="1.0" encoding="UTF-8" standalone="no"?>
<!DOCTYPE svg PUBLIC "-//W3C//DTD SVG 1.1//EN"
 "http://www.w3.org/Graphics/SVG/1.1/DTD/svg11.dtd">
<!-- Generated by graphviz version 2.30.1 (20200304.1809)
 -->
<!-- Title: mfem::AbstractErrorEstimator Pages: 1 -->
<svg width="1038pt" height="221pt"
 viewBox="0.00 0.00 1038.00 221.00" xmlns="http://www.w3.org/2000/svg" xmlns:xlink="http://www.w3.org/1999/xlink">
<g id="graph0" class="graph" transform="scale(1 1) rotate(0) translate(4 217)">
<title>mfem::AbstractErrorEstimator</title>
<polygon fill="white" stroke="white" points="-4,5 -4,-217 1035,-217 1035,5 -4,5"/>
<!-- Node1 -->
<g id="node1" class="node"><title>Node1</title>
<polygon fill="#bfbfbf" stroke="black" points="0.5,-84.5 0.5,-107.5 233.5,-107.5 233.5,-84.5 0.5,-84.5"/>
<text text-anchor="middle" x="117" y="-92.3" font-family="Helvetica,sans-Serif" font-size="14.00">mfem::AbstractErrorEstimator</text>
</g>
<!-- Node2 -->
<g id="node2" class="node"><title>Node2</title>
<g id="a_node2"><a xlink:href="classmfem_1_1ErrorEstimator.html" target="_top" xlink:title="Base class for all element based error estimators. ">
<polygon fill="white" stroke="black" points="270.5,-84.5 270.5,-107.5 443.5,-107.5 443.5,-84.5 270.5,-84.5"/>
<text text-anchor="middle" x="357" y="-92.3" font-family="Helvetica,sans-Serif" font-size="14.00">mfem::ErrorEstimator</text>
</a>
</g>
</g>
<!-- Node1&#45;&gt;Node2 -->
<g id="edge1" class="edge"><title>Node1&#45;&gt;Node2</title>
<path fill="none" stroke="midnightblue" d="M243.716,-96C252.742,-96 261.716,-96 270.43,-96"/>
<polygon fill="midnightblue" stroke="midnightblue" points="243.514,-92.5001 233.514,-96 243.514,-99.5001 243.514,-92.5001"/>
</g>
<!-- Node3 -->
<g id="node3" class="node"><title>Node3</title>
<g id="a_node3"><a xlink:href="classmfem_1_1AnisotropicErrorEstimator.html" target="_top" xlink:title="The AnisotropicErrorEstimator class is the base class for all error estimators that compute one non&#45;n...">
<polygon fill="white" stroke="black" points="486.5,-168.5 486.5,-191.5 739.5,-191.5 739.5,-168.5 486.5,-168.5"/>
<text text-anchor="middle" x="613" y="-176.3" font-family="Helvetica,sans-Serif" font-size="14.00">mfem::AnisotropicErrorEstimator</text>
</a>
</g>
</g>
<!-- Node2&#45;&gt;Node3 -->
<g id="edge2" class="edge"><title>Node2&#45;&gt;Node3</title>
<path fill="none" stroke="midnightblue" d="M384.338,-112.75C408.345,-127.235 445.257,-147.593 480,-159 491.575,-162.8 503.954,-165.925 516.32,-168.491"/>
<polygon fill="midnightblue" stroke="midnightblue" points="386.156,-109.759 375.801,-107.516 382.498,-115.727 386.156,-109.759"/>
</g>
<!-- Node6 -->
<g id="node6" class="node"><title>Node6</title>
<g id="a_node6"><a xlink:href="classmfem_1_1KellyErrorEstimator.html" target="_top" xlink:title="The KellyErrorEstimator class provides a fast error indication strategy for smooth scalar parallel pr...">
<polygon fill="white" stroke="black" points="510,-126.5 510,-149.5 716,-149.5 716,-126.5 510,-126.5"/>
<text text-anchor="middle" x="613" y="-134.3" font-family="Helvetica,sans-Serif" font-size="14.00">mfem::KellyErrorEstimator</text>
</a>
</g>
</g>
<!-- Node2&#45;&gt;Node6 -->
<g id="edge5" class="edge"><title>Node2&#45;&gt;Node6</title>
<path fill="none" stroke="midnightblue" d="M434.029,-109.24C449.249,-111.848 465.129,-114.537 480,-117 498.887,-120.128 519.309,-123.42 538.316,-126.447"/>
<polygon fill="midnightblue" stroke="midnightblue" points="434.588,-105.785 424.14,-107.542 433.403,-112.684 434.588,-105.785"/>
</g>
<!-- Node7 -->
<g id="node7" class="node"><title>Node7</title>
<g id="a_node7"><a xlink:href="classmfem_1_1L2ZienkiewiczZhuEstimator.html" target="_top" xlink:title="The L2ZienkiewiczZhuEstimator class implements the Zienkiewicz&#45;Zhu error estimation procedure where t...">
<polygon fill="white" stroke="black" points="480,-84.5 480,-107.5 746,-107.5 746,-84.5 480,-84.5"/>
<text text-anchor="middle" x="613" y="-92.3" font-family="Helvetica,sans-Serif" font-size="14.00">mfem::L2ZienkiewiczZhuEstimator</text>
</a>
</g>
</g>
<!-- Node2&#45;&gt;Node7 -->
<g id="edge6" class="edge"><title>Node2&#45;&gt;Node7</title>
<path fill="none" stroke="midnightblue" d="M453.875,-96C462.356,-96 471.035,-96 479.747,-96"/>
<polygon fill="midnightblue" stroke="midnightblue" points="453.639,-92.5001 443.639,-96 453.639,-99.5001 453.639,-92.5001"/>
</g>
<!-- Node8 -->
<g id="node8" class="node"><title>Node8</title>
<g id="a_node8"><a xlink:href="classmfem_1_1LpErrorEstimator.html" target="_top" xlink:title="The LpErrorEstimator class compares the solution to a known coefficient. ">
<polygon fill="white" stroke="black" points="517.5,-42.5 517.5,-65.5 708.5,-65.5 708.5,-42.5 517.5,-42.5"/>
<text text-anchor="middle" x="613" y="-50.3" font-family="Helvetica,sans-Serif" font-size="14.00">mfem::LpErrorEstimator</text>
</a>
</g>
</g>
<!-- Node2&#45;&gt;Node8 -->
<g id="edge7" class="edge"><title>Node2&#45;&gt;Node8</title>
<path fill="none" stroke="midnightblue" d="M434.029,-82.7596C449.249,-80.1523 465.129,-77.4627 480,-75 498.887,-71.8723 519.309,-68.5795 538.316,-65.5529"/>
<polygon fill="midnightblue" stroke="midnightblue" points="433.403,-79.3157 424.14,-84.4578 434.588,-86.2147 433.403,-79.3157"/>
</g>
<!-- Node9 -->
<g id="node9" class="node"><title>Node9</title>
<g id="a_node9"><a xlink:href="classmfem_1_1TMOPDeRefinerEstimator.html" target="_top" xlink:title="mfem::TMOPDeRefinerEstimator">
<polygon fill="white" stroke="black" points="488.5,-0.5 488.5,-23.5 737.5,-23.5 737.5,-0.5 488.5,-0.5"/>
<text text-anchor="middle" x="613" y="-8.3" font-family="Helvetica,sans-Serif" font-size="14.00">mfem::TMOPDeRefinerEstimator</text>
</a>
</g>
</g>
<!-- Node2&#45;&gt;Node9 -->
<g id="edge8" class="edge"><title>Node2&#45;&gt;Node9</title>
<path fill="none" stroke="midnightblue" d="M384.338,-79.2502C408.345,-64.7645 445.257,-44.4066 480,-33 491.575,-29.1999 503.954,-26.0753 516.32,-23.5088"/>
<polygon fill="midnightblue" stroke="midnightblue" points="382.498,-76.2734 375.801,-84.4836 386.156,-82.2413 382.498,-76.2734"/>
</g>
<!-- Node4 -->
<g id="node4" class="node"><title>Node4</title>
<g id="a_node4"><a xlink:href="classmfem_1_1TMOPRefinerEstimator.html" target="_top" xlink:title="mfem::TMOPRefinerEstimator">
<polygon fill="white" stroke="black" points="791.5,-189.5 791.5,-212.5 1020.5,-212.5 1020.5,-189.5 791.5,-189.5"/>
<text text-anchor="middle" x="906" y="-197.3" font-family="Helvetica,sans-Serif" font-size="14.00">mfem::TMOPRefinerEstimator</text>
</a>
</g>
</g>
<!-- Node3&#45;&gt;Node4 -->
<g id="edge3" class="edge"><title>Node3&#45;&gt;Node4</title>
<path fill="none" stroke="midnightblue" d="M749.653,-189.789C763.606,-190.796 777.68,-191.812 791.359,-192.799"/>
<polygon fill="midnightblue" stroke="midnightblue" points="749.748,-186.287 739.522,-189.058 749.244,-193.269 749.748,-186.287"/>
</g>
<!-- Node5 -->
<g id="node5" class="node"><title>Node5</title>
<g id="a_node5"><a xlink:href="classmfem_1_1ZienkiewiczZhuEstimator.html" target="_top" xlink:title="The ZienkiewiczZhuEstimator class implements the Zienkiewicz&#45;Zhu error estimation procedure...">
<polygon fill="white" stroke="black" points="782,-147.5 782,-170.5 1030,-170.5 1030,-147.5 782,-147.5"/>
<text text-anchor="middle" x="906" y="-155.3" font-family="Helvetica,sans-Serif" font-size="14.00">mfem::ZienkiewiczZhuEstimator</text>
</a>
</g>
</g>
<!-- Node3&#45;&gt;Node5 -->
<g id="edge4" class="edge"><title>Node3&#45;&gt;Node5</title>
<path fill="none" stroke="midnightblue" d="M749.729,-170.205C760.406,-169.435 771.153,-168.659 781.739,-167.895"/>
<polygon fill="midnightblue" stroke="midnightblue" points="749.244,-166.731 739.522,-170.942 749.748,-173.713 749.244,-166.731"/>
</g>
</g>
</svg>
