<?xml version="1.0" encoding="UTF-8" standalone="no"?>
<!DOCTYPE svg PUBLIC "-//W3C//DTD SVG 1.1//EN"
 "http://www.w3.org/Graphics/SVG/1.1/DTD/svg11.dtd">
<!-- Generated by graphviz version 2.30.1 (20200304.1809)
 -->
<!-- Title: mfem::DomainLFGradIntegrator Pages: 1 -->
<svg width="759pt" height="506pt"
 viewBox="0.00 0.00 759.00 506.00" xmlns="http://www.w3.org/2000/svg" xmlns:xlink="http://www.w3.org/1999/xlink">
<g id="graph0" class="graph" transform="scale(1 1) rotate(0) translate(4 502)">
<title>mfem::DomainLFGradIntegrator</title>
<polygon fill="white" stroke="white" points="-4,5 -4,-502 756,-502 756,5 -4,5"/>
<!-- Node1 -->
<g id="node1" class="node"><title>Node1</title>
<polygon fill="#bfbfbf" stroke="black" points="359,-0.5 359,-23.5 607,-23.5 607,-0.5 359,-0.5"/>
<text text-anchor="middle" x="483" y="-8.3" font-family="Helvetica,sans-Serif" font-size="14.00">mfem::DomainLFGradIntegrator</text>
</g>
<!-- Node2 -->
<g id="node2" class="node"><title>Node2</title>
<g id="a_node2"><a xlink:href="classmfem_1_1DeltaLFIntegrator.html" target="_top" xlink:title="Abstract class for integrators that support delta coefficients. ">
<polygon fill="white" stroke="black" points="385.5,-62.5 385.5,-85.5 580.5,-85.5 580.5,-62.5 385.5,-62.5"/>
<text text-anchor="middle" x="483" y="-70.3" font-family="Helvetica,sans-Serif" font-size="14.00">mfem::DeltaLFIntegrator</text>
</a>
</g>
</g>
<!-- Node2&#45;&gt;Node1 -->
<g id="edge1" class="edge"><title>Node2&#45;&gt;Node1</title>
<path fill="none" stroke="midnightblue" d="M483,-52.2312C483,-42.5922 483,-31.5444 483,-23.6339"/>
<polygon fill="midnightblue" stroke="midnightblue" points="479.5,-52.2732 483,-62.2732 486.5,-52.2732 479.5,-52.2732"/>
</g>
<!-- Node3 -->
<g id="node3" class="node"><title>Node3</title>
<g id="a_node3"><a xlink:href="classmfem_1_1LinearFormIntegrator.html" target="_top" xlink:title="Abstract base class LinearFormIntegrator. ">
<polygon fill="white" stroke="black" points="97,-138.5 97,-161.5 319,-161.5 319,-138.5 97,-138.5"/>
<text text-anchor="middle" x="208" y="-146.3" font-family="Helvetica,sans-Serif" font-size="14.00">mfem::LinearFormIntegrator</text>
</a>
</g>
</g>
<!-- Node3&#45;&gt;Node2 -->
<g id="edge2" class="edge"><title>Node3&#45;&gt;Node2</title>
<path fill="none" stroke="midnightblue" d="M257.009,-135.812C310.292,-121.474 394.397,-98.8422 443.581,-85.6073"/>
<polygon fill="midnightblue" stroke="midnightblue" points="255.856,-132.498 247.109,-138.476 257.675,-139.257 255.856,-132.498"/>
</g>
<!-- Node4 -->
<g id="node4" class="node"><title>Node4</title>
<g id="a_node4"><a xlink:href="classmfem_1_1IntegrationRule.html" target="_top" xlink:title="Class for an integration rule &#45; an Array of IntegrationPoint. ">
<polygon fill="white" stroke="black" points="22,-214.5 22,-237.5 200,-237.5 200,-214.5 22,-214.5"/>
<text text-anchor="middle" x="111" y="-222.3" font-family="Helvetica,sans-Serif" font-size="14.00">mfem::IntegrationRule</text>
</a>
</g>
</g>
<!-- Node4&#45;&gt;Node3 -->
<g id="edge3" class="edge"><title>Node4&#45;&gt;Node3</title>
<path fill="none" stroke="#9a32cd" stroke-dasharray="5,2" d="M132.916,-208.28C151.688,-193.959 178.149,-173.773 194.128,-161.583"/>
<polygon fill="#9a32cd" stroke="#9a32cd" points="130.725,-205.549 124.898,-214.398 134.971,-211.115 130.725,-205.549"/>
<text text-anchor="middle" x="196.5" y="-184.3" font-family="Helvetica,sans-Serif" font-size="14.00"> IntRule</text>
</g>
<!-- Node5 -->
<g id="node5" class="node"><title>Node5</title>
<g id="a_node5"><a xlink:href="classmfem_1_1Array.html" target="_top" xlink:title="mfem::Array\&lt; Integration\lPoint \&gt;">
<polygon fill="white" stroke="black" points="9.5,-291 9.5,-329 212.5,-329 212.5,-291 9.5,-291"/>
<text text-anchor="start" x="17.5" y="-313.8" font-family="Helvetica,sans-Serif" font-size="14.00">mfem::Array&lt; Integration</text>
<text text-anchor="middle" x="111" y="-298.8" font-family="Helvetica,sans-Serif" font-size="14.00">Point &gt;</text>
</a>
</g>
</g>
<!-- Node5&#45;&gt;Node4 -->
<g id="edge4" class="edge"><title>Node5&#45;&gt;Node4</title>
<path fill="none" stroke="midnightblue" d="M111,-280.616C111,-265.871 111,-248.714 111,-237.857"/>
<polygon fill="midnightblue" stroke="midnightblue" points="107.5,-280.802 111,-290.802 114.5,-280.802 107.5,-280.802"/>
</g>
<!-- Node6 -->
<g id="node6" class="node"><title>Node6</title>
<g id="a_node6"><a xlink:href="classmfem_1_1Memory.html" target="_top" xlink:title="mfem::Memory\&lt; Integration\lPoint \&gt;">
<polygon fill="white" stroke="black" points="0,-383 0,-421 222,-421 222,-383 0,-383"/>
<text text-anchor="start" x="8" y="-405.8" font-family="Helvetica,sans-Serif" font-size="14.00">mfem::Memory&lt; Integration</text>
<text text-anchor="middle" x="111" y="-390.8" font-family="Helvetica,sans-Serif" font-size="14.00">Point &gt;</text>
</a>
</g>
</g>
<!-- Node6&#45;&gt;Node5 -->
<g id="edge5" class="edge"><title>Node6&#45;&gt;Node5</title>
<path fill="none" stroke="#9a32cd" stroke-dasharray="5,2" d="M111,-372.548C111,-358.36 111,-341.622 111,-329.186"/>
<polygon fill="#9a32cd" stroke="#9a32cd" points="107.5,-372.787 111,-382.787 114.5,-372.787 107.5,-372.787"/>
<text text-anchor="middle" x="129.5" y="-352.3" font-family="Helvetica,sans-Serif" font-size="14.00"> data</text>
</g>
<!-- Node7 -->
<g id="node7" class="node"><title>Node7</title>
<g id="a_node7"><a xlink:href="classmfem_1_1IntegrationPoint.html" target="_top" xlink:title="Class for integration point with weight. ">
<polygon fill="white" stroke="black" points="20,-474.5 20,-497.5 202,-497.5 202,-474.5 20,-474.5"/>
<text text-anchor="middle" x="111" y="-482.3" font-family="Helvetica,sans-Serif" font-size="14.00">mfem::IntegrationPoint</text>
</a>
</g>
</g>
<!-- Node7&#45;&gt;Node6 -->
<g id="edge6" class="edge"><title>Node7&#45;&gt;Node6</title>
<path fill="none" stroke="#9a32cd" stroke-dasharray="5,2" d="M111,-464.213C111,-450.967 111,-433.968 111,-421.246"/>
<polygon fill="#9a32cd" stroke="#9a32cd" points="107.5,-464.28 111,-474.28 114.5,-464.28 107.5,-464.28"/>
<text text-anchor="middle" x="132" y="-444.3" font-family="Helvetica,sans-Serif" font-size="14.00"> h_ptr</text>
</g>
<!-- Node8 -->
<g id="node8" class="node"><title>Node8</title>
<g id="a_node8"><a xlink:href="classmfem_1_1VectorDeltaCoefficient.html" target="_top" xlink:title="Vector coefficient defined by a scalar DeltaCoefficient and a constant vector direction. ">
<polygon fill="white" stroke="black" points="369,-138.5 369,-161.5 597,-161.5 597,-138.5 369,-138.5"/>
<text text-anchor="middle" x="483" y="-146.3" font-family="Helvetica,sans-Serif" font-size="14.00">mfem::VectorDeltaCoefficient</text>
</a>
</g>
</g>
<!-- Node8&#45;&gt;Node2 -->
<g id="edge7" class="edge"><title>Node8&#45;&gt;Node2</title>
<path fill="none" stroke="#9a32cd" stroke-dasharray="5,2" d="M483,-128.277C483,-114.387 483,-96.675 483,-85.5827"/>
<polygon fill="#9a32cd" stroke="#9a32cd" points="479.5,-128.398 483,-138.398 486.5,-128.398 479.5,-128.398"/>
<text text-anchor="middle" x="519.5" y="-108.3" font-family="Helvetica,sans-Serif" font-size="14.00"> vec_delta</text>
</g>
<!-- Node9 -->
<g id="node9" class="node"><title>Node9</title>
<g id="a_node9"><a xlink:href="classmfem_1_1VectorCoefficient.html" target="_top" xlink:title="Base class for vector Coefficients that optionally depend on time and space. ">
<polygon fill="white" stroke="black" points="218,-214.5 218,-237.5 408,-237.5 408,-214.5 218,-214.5"/>
<text text-anchor="middle" x="313" y="-222.3" font-family="Helvetica,sans-Serif" font-size="14.00">mfem::VectorCoefficient</text>
</a>
</g>
</g>
<!-- Node9&#45;&gt;Node8 -->
<g id="edge8" class="edge"><title>Node9&#45;&gt;Node8</title>
<path fill="none" stroke="midnightblue" d="M346.623,-210.364C379.669,-195.98 429.296,-174.377 458.688,-161.583"/>
<polygon fill="midnightblue" stroke="midnightblue" points="345.129,-207.197 337.357,-214.398 347.923,-213.615 345.129,-207.197"/>
</g>
<!-- Node10 -->
<g id="node10" class="node"><title>Node10</title>
<g id="a_node10"><a xlink:href="classmfem_1_1DeltaCoefficient.html" target="_top" xlink:title="Delta function coefficient optionally multiplied by a weight coefficient and a scaled time dependent ...">
<polygon fill="white" stroke="black" points="558,-214.5 558,-237.5 740,-237.5 740,-214.5 558,-214.5"/>
<text text-anchor="middle" x="649" y="-222.3" font-family="Helvetica,sans-Serif" font-size="14.00">mfem::DeltaCoefficient</text>
</a>
</g>
</g>
<!-- Node10&#45;&gt;Node8 -->
<g id="edge9" class="edge"><title>Node10&#45;&gt;Node8</title>
<path fill="none" stroke="#9a32cd" stroke-dasharray="5,2" d="M615.752,-210.179C583.484,-195.794 535.318,-174.322 506.74,-161.583"/>
<polygon fill="#9a32cd" stroke="#9a32cd" points="614.658,-213.523 625.216,-214.398 617.508,-207.129 614.658,-213.523"/>
<text text-anchor="middle" x="588" y="-184.3" font-family="Helvetica,sans-Serif" font-size="14.00"> d</text>
</g>
<!-- Node10&#45;&gt;Node2 -->
<g id="edge14" class="edge"><title>Node10&#45;&gt;Node2</title>
<path fill="none" stroke="#9a32cd" stroke-dasharray="5,2" d="M642.191,-204.85C635.177,-186.131 622.888,-158.186 606,-138 583.908,-111.593 547.935,-94.9957 520.585,-85.5075"/>
<polygon fill="#9a32cd" stroke="#9a32cd" points="638.957,-206.2 645.624,-214.434 645.547,-203.84 638.957,-206.2"/>
<text text-anchor="middle" x="642.5" y="-146.3" font-family="Helvetica,sans-Serif" font-size="14.00"> delta</text>
</g>
<!-- Node11 -->
<g id="node11" class="node"><title>Node11</title>
<g id="a_node11"><a xlink:href="classmfem_1_1Coefficient.html" target="_top" xlink:title="Base class Coefficients that optionally depend on space and time. These are used by the BilinearFormI...">
<polygon fill="white" stroke="black" points="607,-298.5 607,-321.5 751,-321.5 751,-298.5 607,-298.5"/>
<text text-anchor="middle" x="679" y="-306.3" font-family="Helvetica,sans-Serif" font-size="14.00">mfem::Coefficient</text>
</a>
</g>
</g>
<!-- Node11&#45;&gt;Node10 -->
<g id="edge10" class="edge"><title>Node11&#45;&gt;Node10</title>
<path fill="none" stroke="midnightblue" d="M669.292,-289.308C666.748,-283.779 664.125,-277.715 662,-272 657.692,-260.414 653.917,-246.722 651.561,-237.51"/>
<polygon fill="midnightblue" stroke="midnightblue" points="666.204,-290.965 673.661,-298.492 672.525,-287.958 666.204,-290.965"/>
</g>
<!-- Node11&#45;&gt;Node10 -->
<g id="edge11" class="edge"><title>Node11&#45;&gt;Node10</title>
<path fill="none" stroke="#9a32cd" stroke-dasharray="5,2" d="M671.56,-288.665C665.658,-272.531 657.64,-250.615 652.923,-237.723"/>
<polygon fill="#9a32cd" stroke="#9a32cd" points="668.355,-290.091 675.078,-298.28 674.929,-287.686 668.355,-290.091"/>
<text text-anchor="middle" x="690.5" y="-260.3" font-family="Helvetica,sans-Serif" font-size="14.00"> weight</text>
</g>
<!-- Node12 -->
<g id="node12" class="node"><title>Node12</title>
<g id="a_node12"><a xlink:href="classmfem_1_1Vector.html" target="_top" xlink:title="Vector data type. ">
<polygon fill="white" stroke="black" points="426,-214.5 426,-237.5 540,-237.5 540,-214.5 426,-214.5"/>
<text text-anchor="middle" x="483" y="-222.3" font-family="Helvetica,sans-Serif" font-size="14.00">mfem::Vector</text>
</a>
</g>
</g>
<!-- Node12&#45;&gt;Node8 -->
<g id="edge12" class="edge"><title>Node12&#45;&gt;Node8</title>
<path fill="none" stroke="#9a32cd" stroke-dasharray="5,2" d="M483,-204.277C483,-190.387 483,-172.675 483,-161.583"/>
<polygon fill="#9a32cd" stroke="#9a32cd" points="479.5,-204.398 483,-214.398 486.5,-204.398 479.5,-204.398"/>
<text text-anchor="middle" x="495" y="-184.3" font-family="Helvetica,sans-Serif" font-size="14.00"> dir</text>
</g>
<!-- Node13 -->
<g id="node13" class="node"><title>Node13</title>
<g id="a_node13"><a xlink:href="classmfem_1_1Memory.html" target="_top" xlink:title="mfem::Memory\&lt; double \&gt;">
<polygon fill="white" stroke="black" points="378.5,-298.5 378.5,-321.5 587.5,-321.5 587.5,-298.5 378.5,-298.5"/>
<text text-anchor="middle" x="483" y="-306.3" font-family="Helvetica,sans-Serif" font-size="14.00">mfem::Memory&lt; double &gt;</text>
</a>
</g>
</g>
<!-- Node13&#45;&gt;Node12 -->
<g id="edge13" class="edge"><title>Node13&#45;&gt;Node12</title>
<path fill="none" stroke="#9a32cd" stroke-dasharray="5,2" d="M483,-288.203C483,-272.114 483,-250.493 483,-237.723"/>
<polygon fill="#9a32cd" stroke="#9a32cd" points="479.5,-288.28 483,-298.28 486.5,-288.28 479.5,-288.28"/>
<text text-anchor="middle" x="501.5" y="-260.3" font-family="Helvetica,sans-Serif" font-size="14.00"> data</text>
</g>
</g>
</svg>
