<?xml version="1.0" encoding="UTF-8" standalone="no"?>
<!DOCTYPE svg PUBLIC "-//W3C//DTD SVG 1.1//EN"
 "http://www.w3.org/Graphics/SVG/1.1/DTD/svg11.dtd">
<!-- Generated by graphviz version 2.30.1 (20200304.1809)
 -->
<!-- Title: mfem::LinearNonConf3DFECollection Pages: 1 -->
<svg width="628pt" height="216pt"
 viewBox="0.00 0.00 628.00 216.00" xmlns="http://www.w3.org/2000/svg" xmlns:xlink="http://www.w3.org/1999/xlink">
<g id="graph0" class="graph" transform="scale(1 1) rotate(0) translate(4 212)">
<title>mfem::LinearNonConf3DFECollection</title>
<polygon fill="white" stroke="white" points="-4,5 -4,-212 625,-212 625,5 -4,5"/>
<!-- Node1 -->
<g id="node1" class="node"><title>Node1</title>
<polygon fill="#bfbfbf" stroke="black" points="0,-100.5 0,-123.5 282,-123.5 282,-100.5 0,-100.5"/>
<text text-anchor="middle" x="141" y="-108.3" font-family="Helvetica,sans-Serif" font-size="14.00">mfem::LinearNonConf3DFECollection</text>
</g>
<!-- Node2 -->
<g id="node2" class="node"><title>Node2</title>
<g id="a_node2"><a xlink:href="classmfem_1_1FiniteElementCollection.html" target="_top" xlink:title="Collection of finite elements from the same family in multiple dimensions. This class is used to matc...">
<polygon fill="white" stroke="black" points="293,-184.5 293,-207.5 529,-207.5 529,-184.5 293,-184.5"/>
<text text-anchor="middle" x="411" y="-192.3" font-family="Helvetica,sans-Serif" font-size="14.00">mfem::FiniteElementCollection</text>
</a>
</g>
</g>
<!-- Node2&#45;&gt;Node1 -->
<g id="edge1" class="edge"><title>Node2&#45;&gt;Node1</title>
<path fill="none" stroke="midnightblue" d="M366.361,-181.443C312.827,-165.185 224.243,-138.281 175.612,-123.512"/>
<polygon fill="midnightblue" stroke="midnightblue" points="365.669,-184.891 376.255,-184.448 367.704,-178.193 365.669,-184.891"/>
</g>
<!-- Node4 -->
<g id="node4" class="node"><title>Node4</title>
<g id="a_node4"><a xlink:href="classmfem_1_1Memory.html" target="_top" xlink:title="mfem::Memory\&lt; mfem\l::FiniteElementCollection * \&gt;">
<polygon fill="white" stroke="black" points="300.5,-93 300.5,-131 521.5,-131 521.5,-93 300.5,-93"/>
<text text-anchor="start" x="308.5" y="-115.8" font-family="Helvetica,sans-Serif" font-size="14.00">mfem::Memory&lt; mfem</text>
<text text-anchor="middle" x="411" y="-100.8" font-family="Helvetica,sans-Serif" font-size="14.00">::FiniteElementCollection * &gt;</text>
</a>
</g>
</g>
<!-- Node2&#45;&gt;Node4 -->
<g id="edge4" class="edge"><title>Node2&#45;&gt;Node4</title>
<path fill="none" stroke="#9a32cd" stroke-dasharray="5,2" d="M411,-174.213C411,-160.967 411,-143.968 411,-131.246"/>
<polygon fill="#9a32cd" stroke="#9a32cd" points="407.5,-174.28 411,-184.28 414.5,-174.28 407.5,-174.28"/>
<text text-anchor="middle" x="432" y="-154.3" font-family="Helvetica,sans-Serif" font-size="14.00"> h_ptr</text>
</g>
<!-- Node3 -->
<g id="node3" class="node"><title>Node3</title>
<g id="a_node3"><a xlink:href="classmfem_1_1Array.html" target="_top" xlink:title="mfem::Array\&lt; mfem::\lFiniteElementCollection * \&gt;">
<polygon fill="white" stroke="black" points="402,-1 402,-39 614,-39 614,-1 402,-1"/>
<text text-anchor="start" x="410" y="-23.8" font-family="Helvetica,sans-Serif" font-size="14.00">mfem::Array&lt; mfem::</text>
<text text-anchor="middle" x="508" y="-8.8" font-family="Helvetica,sans-Serif" font-size="14.00">FiniteElementCollection * &gt;</text>
</a>
</g>
</g>
<!-- Node3&#45;&gt;Node2 -->
<g id="edge2" class="edge"><title>Node3&#45;&gt;Node2</title>
<path fill="none" stroke="#9a32cd" stroke-dasharray="5,2" d="M523.557,-48.3835C534.752,-72.0595 545.408,-106.409 530,-132 513.602,-159.236 481.042,-175.314 454.12,-184.403"/>
<polygon fill="#9a32cd" stroke="#9a32cd" points="526.587,-46.617 518.967,-39.2561 520.333,-49.7624 526.587,-46.617"/>
<text text-anchor="middle" x="579" y="-108.3" font-family="Helvetica,sans-Serif" font-size="14.00"> var_orders</text>
</g>
<!-- Node4&#45;&gt;Node3 -->
<g id="edge3" class="edge"><title>Node4&#45;&gt;Node3</title>
<path fill="none" stroke="#9a32cd" stroke-dasharray="5,2" d="M438.121,-85.836C454.098,-71.0121 473.945,-52.5978 488.4,-39.1858"/>
<polygon fill="#9a32cd" stroke="#9a32cd" points="435.579,-83.4198 430.629,-92.7872 440.341,-88.5512 435.579,-83.4198"/>
<text text-anchor="middle" x="484.5" y="-62.3" font-family="Helvetica,sans-Serif" font-size="14.00"> data</text>
</g>
</g>
</svg>
