<?xml version="1.0" encoding="UTF-8" standalone="no"?>
<!DOCTYPE svg PUBLIC "-//W3C//DTD SVG 1.1//EN"
 "http://www.w3.org/Graphics/SVG/1.1/DTD/svg11.dtd">
<!-- Generated by graphviz version 2.30.1 (20200304.1809)
 -->
<!-- Title: mfem::PetscParMatrix Pages: 1 -->
<svg width="374pt" height="274pt"
 viewBox="0.00 0.00 374.00 274.00" xmlns="http://www.w3.org/2000/svg" xmlns:xlink="http://www.w3.org/1999/xlink">
<g id="graph0" class="graph" transform="scale(1 1) rotate(0) translate(4 270)">
<title>mfem::PetscParMatrix</title>
<polygon fill="white" stroke="white" points="-4,5 -4,-270 371,-270 371,5 -4,5"/>
<!-- Node1 -->
<g id="node1" class="node"><title>Node1</title>
<polygon fill="#bfbfbf" stroke="black" points="31,-0.5 31,-23.5 203,-23.5 203,-0.5 31,-0.5"/>
<text text-anchor="middle" x="117" y="-8.3" font-family="Helvetica,sans-Serif" font-size="14.00">mfem::PetscParMatrix</text>
</g>
<!-- Node2 -->
<g id="node2" class="node"><title>Node2</title>
<g id="a_node2"><a xlink:href="classmfem_1_1Operator.html" target="_top" xlink:title="Abstract operator. ">
<polygon fill="white" stroke="black" points="-0.5,-90.5 -0.5,-113.5 132.5,-113.5 132.5,-90.5 -0.5,-90.5"/>
<text text-anchor="middle" x="66" y="-98.3" font-family="Helvetica,sans-Serif" font-size="14.00">mfem::Operator</text>
</a>
</g>
</g>
<!-- Node2&#45;&gt;Node1 -->
<g id="edge1" class="edge"><title>Node2&#45;&gt;Node1</title>
<path fill="none" stroke="midnightblue" d="M77.4665,-81.2147C87.8031,-63.3789 102.608,-37.8337 110.855,-23.6039"/>
<polygon fill="midnightblue" stroke="midnightblue" points="74.2397,-79.8024 72.2536,-90.2095 80.2961,-83.3124 74.2397,-79.8024"/>
</g>
<!-- Node3 -->
<g id="node3" class="node"><title>Node3</title>
<g id="a_node3"><a xlink:href="classmfem_1_1PetscParVector.html" target="_top" xlink:title="mfem::PetscParVector">
<polygon fill="white" stroke="black" points="150.5,-90.5 150.5,-113.5 323.5,-113.5 323.5,-90.5 150.5,-90.5"/>
<text text-anchor="middle" x="237" y="-98.3" font-family="Helvetica,sans-Serif" font-size="14.00">mfem::PetscParVector</text>
</a>
</g>
</g>
<!-- Node3&#45;&gt;Node1 -->
<g id="edge2" class="edge"><title>Node3&#45;&gt;Node1</title>
<path fill="none" stroke="#9a32cd" stroke-dasharray="5,2" d="M213.972,-84.1127C189.617,-66.2522 151.942,-38.6243 131.46,-23.6039"/>
<polygon fill="#9a32cd" stroke="#9a32cd" points="212.152,-87.1182 222.286,-90.2095 216.291,-81.4734 212.152,-87.1182"/>
<text text-anchor="middle" x="201.5" y="-60.8" font-family="Helvetica,sans-Serif" font-size="14.00"> X</text>
<text text-anchor="middle" x="201.5" y="-45.8" font-family="Helvetica,sans-Serif" font-size="14.00">Y</text>
</g>
<!-- Node4 -->
<g id="node4" class="node"><title>Node4</title>
<g id="a_node4"><a xlink:href="classmfem_1_1Vector.html" target="_top" xlink:title="Vector data type. ">
<polygon fill="white" stroke="black" points="70,-166.5 70,-189.5 184,-189.5 184,-166.5 70,-166.5"/>
<text text-anchor="middle" x="127" y="-174.3" font-family="Helvetica,sans-Serif" font-size="14.00">mfem::Vector</text>
</a>
</g>
</g>
<!-- Node4&#45;&gt;Node3 -->
<g id="edge3" class="edge"><title>Node4&#45;&gt;Node3</title>
<path fill="none" stroke="midnightblue" d="M151.28,-160.666C172.6,-146.324 202.985,-125.883 221.269,-113.583"/>
<polygon fill="midnightblue" stroke="midnightblue" points="149.104,-157.912 142.76,-166.398 153.011,-163.72 149.104,-157.912"/>
</g>
<!-- Node5 -->
<g id="node5" class="node"><title>Node5</title>
<g id="a_node5"><a xlink:href="classmfem_1_1Memory.html" target="_top" xlink:title="mfem::Memory\&lt; double \&gt;">
<polygon fill="white" stroke="black" points="113.5,-242.5 113.5,-265.5 322.5,-265.5 322.5,-242.5 113.5,-242.5"/>
<text text-anchor="middle" x="218" y="-250.3" font-family="Helvetica,sans-Serif" font-size="14.00">mfem::Memory&lt; double &gt;</text>
</a>
</g>
</g>
<!-- Node5&#45;&gt;Node4 -->
<g id="edge4" class="edge"><title>Node5&#45;&gt;Node4</title>
<path fill="none" stroke="#9a32cd" stroke-dasharray="5,2" d="M196.962,-235.892C179.382,-221.596 154.87,-201.663 140.014,-189.583"/>
<polygon fill="#9a32cd" stroke="#9a32cd" points="194.995,-238.804 204.962,-242.398 199.412,-233.373 194.995,-238.804"/>
<text text-anchor="middle" x="198.5" y="-212.3" font-family="Helvetica,sans-Serif" font-size="14.00"> data</text>
</g>
<!-- Node6 -->
<g id="node6" class="node"><title>Node6</title>
<g id="a_node6"><a xlink:href="classmfem_1_1PetscMemory.html" target="_top" xlink:title="Wrapper for synching PETSc&#39;s vector memory. ">
<polygon fill="white" stroke="black" points="202,-166.5 202,-189.5 366,-189.5 366,-166.5 202,-166.5"/>
<text text-anchor="middle" x="284" y="-174.3" font-family="Helvetica,sans-Serif" font-size="14.00">mfem::PetscMemory</text>
</a>
</g>
</g>
<!-- Node5&#45;&gt;Node6 -->
<g id="edge6" class="edge"><title>Node5&#45;&gt;Node6</title>
<path fill="none" stroke="midnightblue" d="M234.313,-234.71C246.973,-220.515 264.081,-201.334 274.561,-189.583"/>
<polygon fill="midnightblue" stroke="midnightblue" points="231.5,-232.605 227.456,-242.398 236.724,-237.264 231.5,-232.605"/>
</g>
<!-- Node6&#45;&gt;Node3 -->
<g id="edge5" class="edge"><title>Node6&#45;&gt;Node3</title>
<path fill="none" stroke="#9a32cd" stroke-dasharray="5,2" d="M271.874,-157.909C262.914,-143.801 251.046,-125.114 243.721,-113.583"/>
<polygon fill="#9a32cd" stroke="#9a32cd" points="268.95,-159.833 277.266,-166.398 274.859,-156.08 268.95,-159.833"/>
<text text-anchor="middle" x="287" y="-136.3" font-family="Helvetica,sans-Serif" font-size="14.00"> pdata</text>
</g>
</g>
</svg>
