<?xml version="1.0" encoding="UTF-8" standalone="no"?>
<!DOCTYPE svg PUBLIC "-//W3C//DTD SVG 1.1//EN"
 "http://www.w3.org/Graphics/SVG/1.1/DTD/svg11.dtd">
<!-- Generated by graphviz version 2.30.1 (20200304.1809)
 -->
<!-- Title: mfem::HyperelasticModel Pages: 1 -->
<!--zoomable 1392 -->
<svg id="main" version="1.1" xmlns="http://www.w3.org/2000/svg" xmlns:xlink="http://www.w3.org/1999/xlink" xml:space="preserve" onload="init(evt)">
<style type="text/css"><![CDATA[
.edge:hover path { stroke: red; }
.edge:hover polygon { stroke: red; fill: red; }
]]></style>
<script type="text/javascript"><![CDATA[
var edges = document.getElementsByTagName('g');
if (edges && edges.length) {
  for (var i=0;i<edges.length;i++) {
    if (edges[i].id.substr(0,4)=='edge') {
      edges[i].setAttribute('class','edge');
    }
  }
}
]]></script>
        <defs>
                <circle id="rim" cx="0" cy="0" r="7"/>
                <circle id="rim2" cx="0" cy="0" r="3.5"/>
                <g id="zoomPlus">
                        <use xlink:href="#rim" fill="#404040">
                                <set attributeName="fill" to="#808080" begin="zoomplus.mouseover" end="zoomplus.mouseout"/>
                        </use>
                        <path d="M-4,0h8M0,-4v8" fill="none" stroke="white" stroke-width="1.5" pointer-events="none"/>
                </g>
                <g id="zoomMin">
                        <use xlink:href="#rim" fill="#404040">
                                <set attributeName="fill" to="#808080" begin="zoomminus.mouseover" end="zoomminus.mouseout"/>
                        </use>
                        <path d="M-4,0h8" fill="none" stroke="white" stroke-width="1.5" pointer-events="none"/>
                </g>
                <g id="dirArrow">
                        <path fill="none" stroke="white" stroke-width="1.5" d="M0,-3.0v7 M-2.5,-0.5L0,-3.0L2.5,-0.5"/>
                </g>
               <g id="resetDef">
                       <use xlink:href="#rim2" fill="#404040">
                               <set attributeName="fill" to="#808080" begin="reset.mouseover" end="reset.mouseout"/>
                       </use>
               </g>
        </defs>

<script type="text/javascript">
var viewWidth = 1000;
var viewHeight = 1392;
var sectionId = 'dynsection-0';
</script>
<script xlink:href="svgpan.js"/>
<svg id="graph" class="graph">
<g id="viewport">
<title>mfem::HyperelasticModel</title>
<polygon fill="white" stroke="white" points="-4,5 -4,-1388 997,-1388 997,5 -4,5"/>
<!-- Node1 -->
<g id="node1" class="node"><title>Node1</title>
<polygon fill="#bfbfbf" stroke="black" points="0,-714.5 0,-737.5 200,-737.5 200,-714.5 0,-714.5"/>
<text text-anchor="middle" x="100" y="-722.3" font-family="Helvetica,sans-Serif" font-size="14.00">mfem::HyperelasticModel</text>
</g>
<!-- Node2 -->
<g id="node2" class="node"><title>Node2</title>
<g id="a_node2"><a xlink:href="classmfem_1_1InverseHarmonicModel.html" target="_top" xlink:title="mfem::InverseHarmonicModel">
<polygon fill="white" stroke="black" points="236.5,-756.5 236.5,-779.5 469.5,-779.5 469.5,-756.5 236.5,-756.5"/>
<text text-anchor="middle" x="353" y="-764.3" font-family="Helvetica,sans-Serif" font-size="14.00">mfem::InverseHarmonicModel</text>
</a>
</g>
</g>
<!-- Node1&#45;&gt;Node2 -->
<g id="edge1" class="edge"><title>Node1&#45;&gt;Node2</title>
<path fill="none" stroke="midnightblue" d="M180.024,-739.223C213.145,-744.765 251.295,-751.149 283.235,-756.493"/>
<polygon fill="midnightblue" stroke="midnightblue" points="180.359,-735.731 169.919,-737.532 179.204,-742.635 180.359,-735.731"/>
</g>
<!-- Node3 -->
<g id="node3" class="node"><title>Node3</title>
<g id="a_node3"><a xlink:href="classmfem_1_1NeoHookeanModel.html" target="_top" xlink:title="mfem::NeoHookeanModel">
<polygon fill="white" stroke="black" points="251.5,-714.5 251.5,-737.5 454.5,-737.5 454.5,-714.5 251.5,-714.5"/>
<text text-anchor="middle" x="353" y="-722.3" font-family="Helvetica,sans-Serif" font-size="14.00">mfem::NeoHookeanModel</text>
</a>
</g>
</g>
<!-- Node1&#45;&gt;Node3 -->
<g id="edge2" class="edge"><title>Node1&#45;&gt;Node3</title>
<path fill="none" stroke="midnightblue" d="M210.544,-726C224.147,-726 238.004,-726 251.462,-726"/>
<polygon fill="midnightblue" stroke="midnightblue" points="210.202,-722.5 200.202,-726 210.202,-729.5 210.202,-722.5"/>
</g>
<!-- Node4 -->
<g id="node4" class="node"><title>Node4</title>
<g id="a_node4"><a xlink:href="classmfem_1_1TMOP__QualityMetric.html" target="_top" xlink:title="Abstract class for local mesh quality metrics in the target&#45;matrix optimization paradigm (TMOP) by P...">
<polygon fill="white" stroke="black" points="248,-672.5 248,-695.5 458,-695.5 458,-672.5 248,-672.5"/>
<text text-anchor="middle" x="353" y="-680.3" font-family="Helvetica,sans-Serif" font-size="14.00">mfem::TMOP_QualityMetric</text>
</a>
</g>
</g>
<!-- Node1&#45;&gt;Node4 -->
<g id="edge3" class="edge"><title>Node1&#45;&gt;Node4</title>
<path fill="none" stroke="midnightblue" d="M180.024,-712.777C213.145,-707.235 251.295,-700.851 283.235,-695.507"/>
<polygon fill="midnightblue" stroke="midnightblue" points="179.204,-709.365 169.919,-714.468 180.359,-716.269 179.204,-709.365"/>
</g>
<!-- Node5 -->
<g id="node5" class="node"><title>Node5</title>
<g id="a_node5"><a xlink:href="classmfem_1_1TMOP__AMetric__011.html" target="_top" xlink:title="mfem::TMOP_AMetric_011">
<polygon fill="white" stroke="black" points="527,-1360.5 527,-1383.5 731,-1383.5 731,-1360.5 527,-1360.5"/>
<text text-anchor="middle" x="629" y="-1368.3" font-family="Helvetica,sans-Serif" font-size="14.00">mfem::TMOP_AMetric_011</text>
</a>
</g>
</g>
<!-- Node4&#45;&gt;Node5 -->
<g id="edge4" class="edge"><title>Node4&#45;&gt;Node5</title>
<path fill="none" stroke="midnightblue" d="M466.201,-701.095C467.521,-702.329 468.789,-703.629 470,-705 565.203,-812.743 410.333,-1243.67 506,-1351 511.863,-1357.58 518.978,-1362.59 526.792,-1366.36"/>
<polygon fill="midnightblue" stroke="midnightblue" points="468.145,-698.17 458.121,-694.738 463.816,-703.672 468.145,-698.17"/>
</g>
<!-- Node6 -->
<g id="node6" class="node"><title>Node6</title>
<g id="a_node6"><a xlink:href="classmfem_1_1TMOP__AMetric__014a.html" target="_top" xlink:title="2D barrier Size (V) metric (polyconvex). ">
<polygon fill="white" stroke="black" points="522.5,-1318.5 522.5,-1341.5 735.5,-1341.5 735.5,-1318.5 522.5,-1318.5"/>
<text text-anchor="middle" x="629" y="-1326.3" font-family="Helvetica,sans-Serif" font-size="14.00">mfem::TMOP_AMetric_014a</text>
</a>
</g>
</g>
<!-- Node4&#45;&gt;Node6 -->
<g id="edge5" class="edge"><title>Node4&#45;&gt;Node6</title>
<path fill="none" stroke="midnightblue" d="M466.194,-701.101C467.516,-702.333 468.786,-703.632 470,-705 559.228,-805.589 416.339,-1208.8 506,-1309 510.729,-1314.29 516.267,-1318.56 522.325,-1321.99"/>
<polygon fill="midnightblue" stroke="midnightblue" points="468.131,-698.172 458.103,-694.754 463.811,-703.68 468.131,-698.172"/>
</g>
<!-- Node7 -->
<g id="node7" class="node"><title>Node7</title>
<g id="a_node7"><a xlink:href="classmfem_1_1TMOP__AMetric__036.html" target="_top" xlink:title="2D barrier Shape+Size+Orientation (VOS) metric (polyconvex). ">
<polygon fill="white" stroke="black" points="527,-1276.5 527,-1299.5 731,-1299.5 731,-1276.5 527,-1276.5"/>
<text text-anchor="middle" x="629" y="-1284.3" font-family="Helvetica,sans-Serif" font-size="14.00">mfem::TMOP_AMetric_036</text>
</a>
</g>
</g>
<!-- Node4&#45;&gt;Node7 -->
<g id="edge6" class="edge"><title>Node4&#45;&gt;Node7</title>
<path fill="none" stroke="midnightblue" d="M466.186,-701.109C467.51,-702.338 468.783,-703.634 470,-705 553.253,-798.435 422.344,-1173.93 506,-1267 511.89,-1273.55 519.023,-1278.55 526.85,-1282.31"/>
<polygon fill="midnightblue" stroke="midnightblue" points="468.115,-698.175 458.081,-694.773 463.804,-703.69 468.115,-698.175"/>
</g>
<!-- Node8 -->
<g id="node8" class="node"><title>Node8</title>
<g id="a_node8"><a xlink:href="classmfem_1_1TMOP__AMetric__107a.html" target="_top" xlink:title="2D barrier Shape+Orientation (OS) metric (polyconvex). ">
<polygon fill="white" stroke="black" points="522.5,-1234.5 522.5,-1257.5 735.5,-1257.5 735.5,-1234.5 522.5,-1234.5"/>
<text text-anchor="middle" x="629" y="-1242.3" font-family="Helvetica,sans-Serif" font-size="14.00">mfem::TMOP_AMetric_107a</text>
</a>
</g>
</g>
<!-- Node4&#45;&gt;Node8 -->
<g id="edge7" class="edge"><title>Node4&#45;&gt;Node8</title>
<path fill="none" stroke="midnightblue" d="M466.175,-701.118C467.503,-702.345 468.78,-703.638 470,-705 547.138,-791.113 428.832,-1137.91 506,-1224 510.741,-1229.29 516.286,-1233.58 522.351,-1237.04"/>
<polygon fill="midnightblue" stroke="midnightblue" points="468.096,-698.178 458.056,-694.796 463.796,-703.701 468.096,-698.178"/>
</g>
<!-- Node9 -->
<g id="node9" class="node"><title>Node9</title>
<g id="a_node9"><a xlink:href="classmfem_1_1TMOP__Combo__QualityMetric.html" target="_top" xlink:title="Abstract class used to define combination of metrics with constant coefficients. ">
<polygon fill="white" stroke="black" points="516.5,-1177 516.5,-1215 741.5,-1215 741.5,-1177 516.5,-1177"/>
<text text-anchor="start" x="524.5" y="-1199.8" font-family="Helvetica,sans-Serif" font-size="14.00">mfem::TMOP_Combo_Quality</text>
<text text-anchor="middle" x="629" y="-1184.8" font-family="Helvetica,sans-Serif" font-size="14.00">Metric</text>
</a>
</g>
</g>
<!-- Node4&#45;&gt;Node9 -->
<g id="edge8" class="edge"><title>Node4&#45;&gt;Node9</title>
<path fill="none" stroke="midnightblue" d="M466.159,-701.133C467.492,-702.355 468.774,-703.643 470,-705 539.035,-781.411 439.064,-1088.74 506,-1167 509.184,-1170.72 512.751,-1174.01 516.608,-1176.92"/>
<polygon fill="midnightblue" stroke="midnightblue" points="468.066,-698.183 458.015,-694.833 463.783,-703.72 468.066,-698.183"/>
</g>
<!-- Node16 -->
<g id="node16" class="node"><title>Node16</title>
<g id="a_node16"><a xlink:href="classmfem_1_1TMOP__Metric__001.html" target="_top" xlink:title="2D non&#45;barrier metric without a type. ">
<polygon fill="white" stroke="black" points="532,-1134.5 532,-1157.5 726,-1157.5 726,-1134.5 532,-1134.5"/>
<text text-anchor="middle" x="629" y="-1142.3" font-family="Helvetica,sans-Serif" font-size="14.00">mfem::TMOP_Metric_001</text>
</a>
</g>
</g>
<!-- Node4&#45;&gt;Node16 -->
<g id="edge15" class="edge"><title>Node4&#45;&gt;Node16</title>
<path fill="none" stroke="midnightblue" d="M466.222,-701.216C467.531,-702.413 468.792,-703.674 470,-705 533.068,-774.265 442.634,-1056.01 506,-1125 513.196,-1132.84 522.171,-1138.43 531.967,-1142.35"/>
<polygon fill="midnightblue" stroke="midnightblue" points="468.281,-698.384 458.231,-695.031 463.997,-703.92 468.281,-698.384"/>
</g>
<!-- Node17 -->
<g id="node17" class="node"><title>Node17</title>
<g id="a_node17"><a xlink:href="classmfem_1_1TMOP__Metric__002.html" target="_top" xlink:title="2D barrier shape (S) metric (polyconvex). ">
<polygon fill="white" stroke="black" points="532,-1092.5 532,-1115.5 726,-1115.5 726,-1092.5 532,-1092.5"/>
<text text-anchor="middle" x="629" y="-1100.3" font-family="Helvetica,sans-Serif" font-size="14.00">mfem::TMOP_Metric_002</text>
</a>
</g>
</g>
<!-- Node4&#45;&gt;Node17 -->
<g id="edge16" class="edge"><title>Node4&#45;&gt;Node17</title>
<path fill="none" stroke="midnightblue" d="M466.204,-701.232C467.519,-702.424 468.786,-703.679 470,-705 527.103,-767.122 448.629,-1021.12 506,-1083 513.16,-1090.72 522.049,-1096.26 531.742,-1100.16"/>
<polygon fill="midnightblue" stroke="midnightblue" points="468.249,-698.389 458.187,-695.072 463.984,-703.94 468.249,-698.389"/>
</g>
<!-- Node18 -->
<g id="node18" class="node"><title>Node18</title>
<g id="a_node18"><a xlink:href="classmfem_1_1TMOP__Metric__007.html" target="_top" xlink:title="2D barrier Shape+Size (VS) metric (not polyconvex). ">
<polygon fill="white" stroke="black" points="532,-1050.5 532,-1073.5 726,-1073.5 726,-1050.5 532,-1050.5"/>
<text text-anchor="middle" x="629" y="-1058.3" font-family="Helvetica,sans-Serif" font-size="14.00">mfem::TMOP_Metric_007</text>
</a>
</g>
</g>
<!-- Node4&#45;&gt;Node18 -->
<g id="edge17" class="edge"><title>Node4&#45;&gt;Node18</title>
<path fill="none" stroke="midnightblue" d="M466.183,-701.252C467.504,-702.438 468.778,-703.686 470,-705 572.288,-814.971 403.238,-931.472 506,-1041 513.206,-1048.68 522.122,-1054.19 531.831,-1058.08"/>
<polygon fill="midnightblue" stroke="midnightblue" points="468.208,-698.396 458.132,-695.122 463.968,-703.965 468.208,-698.396"/>
</g>
<!-- Node19 -->
<g id="node19" class="node"><title>Node19</title>
<g id="a_node19"><a xlink:href="classmfem_1_1TMOP__Metric__009.html" target="_top" xlink:title="2D barrier Shape+Size (VS) metric (not polyconvex). ">
<polygon fill="white" stroke="black" points="532,-1008.5 532,-1031.5 726,-1031.5 726,-1008.5 532,-1008.5"/>
<text text-anchor="middle" x="629" y="-1016.3" font-family="Helvetica,sans-Serif" font-size="14.00">mfem::TMOP_Metric_009</text>
</a>
</g>
</g>
<!-- Node4&#45;&gt;Node19 -->
<g id="edge18" class="edge"><title>Node4&#45;&gt;Node19</title>
<path fill="none" stroke="midnightblue" d="M466.155,-701.278C467.485,-702.456 468.768,-703.696 470,-705 560.383,-800.712 415.205,-903.68 506,-999 513.263,-1006.63 522.216,-1012.1 531.945,-1015.97"/>
<polygon fill="midnightblue" stroke="midnightblue" points="468.157,-698.404 458.062,-695.188 463.948,-703.997 468.157,-698.404"/>
</g>
<!-- Node20 -->
<g id="node20" class="node"><title>Node20</title>
<g id="a_node20"><a xlink:href="classmfem_1_1TMOP__Metric__014.html" target="_top" xlink:title="2D non&#45;barrier Shape+Size+Orientation (VOS) metric (polyconvex). ">
<polygon fill="white" stroke="black" points="532,-966.5 532,-989.5 726,-989.5 726,-966.5 532,-966.5"/>
<text text-anchor="middle" x="629" y="-974.3" font-family="Helvetica,sans-Serif" font-size="14.00">mfem::TMOP_Metric_014</text>
</a>
</g>
</g>
<!-- Node4&#45;&gt;Node20 -->
<g id="edge19" class="edge"><title>Node4&#45;&gt;Node20</title>
<path fill="none" stroke="midnightblue" d="M466.554,-701.696C467.741,-702.748 468.891,-703.849 470,-705 548.498,-786.474 427.151,-875.866 506,-957 513.265,-964.475 522.156,-969.872 531.796,-973.709"/>
<polygon fill="midnightblue" stroke="midnightblue" points="468.323,-698.647 458.226,-695.438 464.118,-704.243 468.323,-698.647"/>
</g>
<!-- Node21 -->
<g id="node21" class="node"><title>Node21</title>
<g id="a_node21"><a xlink:href="classmfem_1_1TMOP__Metric__022.html" target="_top" xlink:title="2D Shifted barrier form of shape metric (mu_2). ">
<polygon fill="white" stroke="black" points="532,-924.5 532,-947.5 726,-947.5 726,-924.5 532,-924.5"/>
<text text-anchor="middle" x="629" y="-932.3" font-family="Helvetica,sans-Serif" font-size="14.00">mfem::TMOP_Metric_022</text>
</a>
</g>
</g>
<!-- Node4&#45;&gt;Node21 -->
<g id="edge20" class="edge"><title>Node4&#45;&gt;Node21</title>
<path fill="none" stroke="midnightblue" d="M466.509,-701.74C467.71,-702.778 468.875,-703.864 470,-705 536.647,-772.271 439.063,-848.018 506,-915 513.368,-922.373 522.323,-927.706 532,-931.508"/>
<polygon fill="midnightblue" stroke="midnightblue" points="468.232,-698.662 458.101,-695.56 464.086,-704.302 468.232,-698.662"/>
</g>
<!-- Node22 -->
<g id="node22" class="node"><title>Node22</title>
<g id="a_node22"><a xlink:href="classmfem_1_1TMOP__Metric__050.html" target="_top" xlink:title="2D barrier (not a shape) metric (polyconvex). ">
<polygon fill="white" stroke="black" points="532,-882.5 532,-905.5 726,-905.5 726,-882.5 532,-882.5"/>
<text text-anchor="middle" x="629" y="-890.3" font-family="Helvetica,sans-Serif" font-size="14.00">mfem::TMOP_Metric_050</text>
</a>
</g>
</g>
<!-- Node4&#45;&gt;Node22 -->
<g id="edge21" class="edge"><title>Node4&#45;&gt;Node22</title>
<path fill="none" stroke="midnightblue" d="M465.995,-701.436C467.375,-702.565 468.711,-703.752 470,-705 524.853,-758.125 450.918,-820.112 506,-873 513.441,-880.145 522.381,-885.349 531.996,-889.088"/>
<polygon fill="midnightblue" stroke="midnightblue" points="467.855,-698.465 457.659,-695.586 463.834,-704.195 467.855,-698.465"/>
</g>
<!-- Node23 -->
<g id="node23" class="node"><title>Node23</title>
<g id="a_node23"><a xlink:href="classmfem_1_1TMOP__Metric__055.html" target="_top" xlink:title="2D non&#45;barrier size (V) metric (not polyconvex). ">
<polygon fill="white" stroke="black" points="532,-840.5 532,-863.5 726,-863.5 726,-840.5 532,-840.5"/>
<text text-anchor="middle" x="629" y="-848.3" font-family="Helvetica,sans-Serif" font-size="14.00">mfem::TMOP_Metric_055</text>
</a>
</g>
</g>
<!-- Node4&#45;&gt;Node23 -->
<g id="edge22" class="edge"><title>Node4&#45;&gt;Node23</title>
<path fill="none" stroke="midnightblue" d="M465.31,-701.124C466.927,-702.344 468.492,-703.635 470,-705 513.174,-744.09 462.658,-792.097 506,-831 513.517,-837.747 522.386,-842.725 531.858,-846.355"/>
<polygon fill="midnightblue" stroke="midnightblue" points="467.123,-698.127 456.835,-695.595 463.298,-703.99 467.123,-698.127"/>
</g>
<!-- Node24 -->
<g id="node24" class="node"><title>Node24</title>
<g id="a_node24"><a xlink:href="classmfem_1_1TMOP__Metric__056.html" target="_top" xlink:title="2D barrier size (V) metric (polyconvex). ">
<polygon fill="white" stroke="black" points="532,-798.5 532,-821.5 726,-821.5 726,-798.5 532,-798.5"/>
<text text-anchor="middle" x="629" y="-806.3" font-family="Helvetica,sans-Serif" font-size="14.00">mfem::TMOP_Metric_056</text>
</a>
</g>
</g>
<!-- Node4&#45;&gt;Node24 -->
<g id="edge23" class="edge"><title>Node4&#45;&gt;Node24</title>
<path fill="none" stroke="midnightblue" d="M463.669,-700.467C465.854,-701.874 467.969,-703.382 470,-705 501.774,-730.302 474.117,-763.835 506,-789 513.676,-795.059 522.477,-799.627 531.761,-803.043"/>
<polygon fill="midnightblue" stroke="midnightblue" points="465.349,-697.396 454.92,-695.531 461.91,-703.493 465.349,-697.396"/>
</g>
<!-- Node25 -->
<g id="node25" class="node"><title>Node25</title>
<g id="a_node25"><a xlink:href="classmfem_1_1TMOP__Metric__058.html" target="_top" xlink:title="2D barrier shape (S) metric (not polyconvex). ">
<polygon fill="white" stroke="black" points="532,-756.5 532,-779.5 726,-779.5 726,-756.5 532,-756.5"/>
<text text-anchor="middle" x="629" y="-764.3" font-family="Helvetica,sans-Serif" font-size="14.00">mfem::TMOP_Metric_058</text>
</a>
</g>
</g>
<!-- Node4&#45;&gt;Node25 -->
<g id="edge24" class="edge"><title>Node4&#45;&gt;Node25</title>
<path fill="none" stroke="midnightblue" d="M458.468,-699.241C462.444,-700.968 466.305,-702.881 470,-705 491.328,-717.23 484.619,-734.863 506,-747 514.037,-751.562 522.816,-755.185 531.861,-758.054"/>
<polygon fill="midnightblue" stroke="midnightblue" points="459.596,-695.924 449.008,-695.541 457.046,-702.443 459.596,-695.924"/>
</g>
<!-- Node26 -->
<g id="node26" class="node"><title>Node26</title>
<g id="a_node26"><a xlink:href="classmfem_1_1TMOP__Metric__077.html" target="_top" xlink:title="2D barrier size (V) metric (polyconvex). ">
<polygon fill="white" stroke="black" points="532,-714.5 532,-737.5 726,-737.5 726,-714.5 532,-714.5"/>
<text text-anchor="middle" x="629" y="-722.3" font-family="Helvetica,sans-Serif" font-size="14.00">mfem::TMOP_Metric_077</text>
</a>
</g>
</g>
<!-- Node4&#45;&gt;Node26 -->
<g id="edge25" class="edge"><title>Node4&#45;&gt;Node26</title>
<path fill="none" stroke="midnightblue" d="M439.331,-697.08C475.702,-702.655 517.766,-709.103 552.934,-714.493"/>
<polygon fill="midnightblue" stroke="midnightblue" points="439.649,-693.588 429.234,-695.532 438.588,-700.507 439.649,-693.588"/>
</g>
<!-- Node27 -->
<g id="node27" class="node"><title>Node27</title>
<g id="a_node27"><a xlink:href="classmfem_1_1TMOP__Metric__085.html" target="_top" xlink:title="2D barrier Shape+Orientation (OS) metric (polyconvex). ">
<polygon fill="white" stroke="black" points="532,-672.5 532,-695.5 726,-695.5 726,-672.5 532,-672.5"/>
<text text-anchor="middle" x="629" y="-680.3" font-family="Helvetica,sans-Serif" font-size="14.00">mfem::TMOP_Metric_085</text>
</a>
</g>
</g>
<!-- Node4&#45;&gt;Node27 -->
<g id="edge26" class="edge"><title>Node4&#45;&gt;Node27</title>
<path fill="none" stroke="midnightblue" d="M468.589,-684C489.544,-684 511.218,-684 531.577,-684"/>
<polygon fill="midnightblue" stroke="midnightblue" points="468.369,-680.5 458.369,-684 468.369,-687.5 468.369,-680.5"/>
</g>
<!-- Node28 -->
<g id="node28" class="node"><title>Node28</title>
<g id="a_node28"><a xlink:href="classmfem_1_1TMOP__Metric__098.html" target="_top" xlink:title="2D barrier Shape+Size+Orientation (VOS) metric (polyconvex). ">
<polygon fill="white" stroke="black" points="532,-630.5 532,-653.5 726,-653.5 726,-630.5 532,-630.5"/>
<text text-anchor="middle" x="629" y="-638.3" font-family="Helvetica,sans-Serif" font-size="14.00">mfem::TMOP_Metric_098</text>
</a>
</g>
</g>
<!-- Node4&#45;&gt;Node28 -->
<g id="edge27" class="edge"><title>Node4&#45;&gt;Node28</title>
<path fill="none" stroke="midnightblue" d="M439.331,-670.92C475.702,-665.345 517.766,-658.897 552.934,-653.507"/>
<polygon fill="midnightblue" stroke="midnightblue" points="438.588,-667.493 429.234,-672.468 439.649,-674.412 438.588,-667.493"/>
</g>
<!-- Node29 -->
<g id="node29" class="node"><title>Node29</title>
<g id="a_node29"><a xlink:href="classmfem_1_1TMOP__Metric__211.html" target="_top" xlink:title="2D untangling metric. ">
<polygon fill="white" stroke="black" points="532,-588.5 532,-611.5 726,-611.5 726,-588.5 532,-588.5"/>
<text text-anchor="middle" x="629" y="-596.3" font-family="Helvetica,sans-Serif" font-size="14.00">mfem::TMOP_Metric_211</text>
</a>
</g>
</g>
<!-- Node4&#45;&gt;Node29 -->
<g id="edge28" class="edge"><title>Node4&#45;&gt;Node29</title>
<path fill="none" stroke="midnightblue" d="M386.594,-667.998C416.867,-653.742 463.536,-633.288 506,-621 518.8,-617.296 532.556,-614.154 546.054,-611.52"/>
<polygon fill="midnightblue" stroke="midnightblue" points="384.892,-664.932 377.368,-672.391 387.901,-671.252 384.892,-664.932"/>
</g>
<!-- Node30 -->
<g id="node30" class="node"><title>Node30</title>
<g id="a_node30"><a xlink:href="classmfem_1_1TMOP__Metric__252.html" target="_top" xlink:title="Shifted barrier form of metric 56 (area, ideal barrier metric), 2D. ">
<polygon fill="white" stroke="black" points="532,-546.5 532,-569.5 726,-569.5 726,-546.5 532,-546.5"/>
<text text-anchor="middle" x="629" y="-554.3" font-family="Helvetica,sans-Serif" font-size="14.00">mfem::TMOP_Metric_252</text>
</a>
</g>
</g>
<!-- Node4&#45;&gt;Node30 -->
<g id="edge29" class="edge"><title>Node4&#45;&gt;Node30</title>
<path fill="none" stroke="midnightblue" d="M374.459,-665.448C402.141,-641.443 454.061,-600.197 506,-579 515.352,-575.183 525.383,-572.06 535.527,-569.504"/>
<polygon fill="midnightblue" stroke="midnightblue" points="371.866,-663.067 366.673,-672.302 376.491,-668.321 371.866,-663.067"/>
</g>
<!-- Node31 -->
<g id="node31" class="node"><title>Node31</title>
<g id="a_node31"><a xlink:href="classmfem_1_1TMOP__Metric__301.html" target="_top" xlink:title="3D barrier Shape (S) metric. ">
<polygon fill="white" stroke="black" points="532,-504.5 532,-527.5 726,-527.5 726,-504.5 532,-504.5"/>
<text text-anchor="middle" x="629" y="-512.3" font-family="Helvetica,sans-Serif" font-size="14.00">mfem::TMOP_Metric_301</text>
</a>
</g>
</g>
<!-- Node4&#45;&gt;Node31 -->
<g id="edge30" class="edge"><title>Node4&#45;&gt;Node31</title>
<path fill="none" stroke="midnightblue" d="M368.038,-664.213C392.195,-631.818 444.955,-567.976 506,-537 514.145,-532.867 522.949,-529.527 531.967,-526.832"/>
<polygon fill="midnightblue" stroke="midnightblue" points="365.082,-662.326 362,-672.463 370.731,-666.461 365.082,-662.326"/>
</g>
<!-- Node32 -->
<g id="node32" class="node"><title>Node32</title>
<g id="a_node32"><a xlink:href="classmfem_1_1TMOP__Metric__302.html" target="_top" xlink:title="3D barrier Shape (S) metric. ">
<polygon fill="white" stroke="black" points="532,-462.5 532,-485.5 726,-485.5 726,-462.5 532,-462.5"/>
<text text-anchor="middle" x="629" y="-470.3" font-family="Helvetica,sans-Serif" font-size="14.00">mfem::TMOP_Metric_302</text>
</a>
</g>
</g>
<!-- Node4&#45;&gt;Node32 -->
<g id="edge31" class="edge"><title>Node4&#45;&gt;Node32</title>
<path fill="none" stroke="midnightblue" d="M364.17,-663.153C384.823,-623.244 435.748,-536.348 506,-495 513.964,-490.312 522.695,-486.607 531.711,-483.686"/>
<polygon fill="midnightblue" stroke="midnightblue" points="360.969,-661.727 359.578,-672.23 367.215,-664.887 360.969,-661.727"/>
</g>
<!-- Node33 -->
<g id="node33" class="node"><title>Node33</title>
<g id="a_node33"><a xlink:href="classmfem_1_1TMOP__Metric__303.html" target="_top" xlink:title="3D barrier Shape (S) metric. ">
<polygon fill="white" stroke="black" points="532,-420.5 532,-443.5 726,-443.5 726,-420.5 532,-420.5"/>
<text text-anchor="middle" x="629" y="-428.3" font-family="Helvetica,sans-Serif" font-size="14.00">mfem::TMOP_Metric_303</text>
</a>
</g>
</g>
<!-- Node4&#45;&gt;Node33 -->
<g id="edge32" class="edge"><title>Node4&#45;&gt;Node33</title>
<path fill="none" stroke="midnightblue" d="M361.244,-662.85C378.337,-616.401 425.884,-505.448 506,-453 513.912,-447.82 522.708,-443.801 531.851,-440.696"/>
<polygon fill="midnightblue" stroke="midnightblue" points="357.874,-661.878 357.802,-672.473 364.465,-664.235 357.874,-661.878"/>
</g>
<!-- Node34 -->
<g id="node34" class="node"><title>Node34</title>
<g id="a_node34"><a xlink:href="classmfem_1_1TMOP__Metric__311.html" target="_top" xlink:title="3D Size (V) untangling metric. ">
<polygon fill="white" stroke="black" points="532,-378.5 532,-401.5 726,-401.5 726,-378.5 532,-378.5"/>
<text text-anchor="middle" x="629" y="-386.3" font-family="Helvetica,sans-Serif" font-size="14.00">mfem::TMOP_Metric_311</text>
</a>
</g>
</g>
<!-- Node4&#45;&gt;Node34 -->
<g id="edge33" class="edge"><title>Node4&#45;&gt;Node34</title>
<path fill="none" stroke="midnightblue" d="M359.188,-662.337C373.001,-609.723 415.927,-474.845 506,-411 513.803,-405.469 522.579,-401.227 531.755,-397.992"/>
<polygon fill="midnightblue" stroke="midnightblue" points="355.737,-661.707 356.676,-672.261 362.523,-663.425 355.737,-661.707"/>
</g>
<!-- Node35 -->
<g id="node35" class="node"><title>Node35</title>
<g id="a_node35"><a xlink:href="classmfem_1_1TMOP__Metric__313.html" target="_top" xlink:title="3D Shape (S) metric, untangling version of 303. ">
<polygon fill="white" stroke="black" points="532,-336.5 532,-359.5 726,-359.5 726,-336.5 532,-336.5"/>
<text text-anchor="middle" x="629" y="-344.3" font-family="Helvetica,sans-Serif" font-size="14.00">mfem::TMOP_Metric_313</text>
</a>
</g>
</g>
<!-- Node4&#45;&gt;Node35 -->
<g id="edge34" class="edge"><title>Node4&#45;&gt;Node35</title>
<path fill="none" stroke="midnightblue" d="M357.513,-662.269C368.125,-604.203 405.531,-444.719 506,-369 513.724,-363.179 522.501,-358.756 531.724,-355.418"/>
<polygon fill="midnightblue" stroke="midnightblue" points="354.003,-662.023 355.737,-672.475 360.9,-663.223 354.003,-662.023"/>
</g>
<!-- Node36 -->
<g id="node36" class="node"><title>Node36</title>
<g id="a_node36"><a xlink:href="classmfem_1_1TMOP__Metric__315.html" target="_top" xlink:title="3D non&#45;barrier Size (V) metric. ">
<polygon fill="white" stroke="black" points="532,-294.5 532,-317.5 726,-317.5 726,-294.5 532,-294.5"/>
<text text-anchor="middle" x="629" y="-302.3" font-family="Helvetica,sans-Serif" font-size="14.00">mfem::TMOP_Metric_315</text>
</a>
</g>
</g>
<!-- Node4&#45;&gt;Node36 -->
<g id="edge35" class="edge"><title>Node4&#45;&gt;Node36</title>
<path fill="none" stroke="midnightblue" d="M356.174,-662.397C363.74,-599.421 394.868,-414.93 506,-327 513.669,-320.932 522.465,-316.358 531.747,-312.938"/>
<polygon fill="midnightblue" stroke="midnightblue" points="352.691,-662.051 355.053,-672.379 359.647,-662.832 352.691,-662.051"/>
</g>
<!-- Node37 -->
<g id="node37" class="node"><title>Node37</title>
<g id="a_node37"><a xlink:href="classmfem_1_1TMOP__Metric__316.html" target="_top" xlink:title="3D barrier Size (V) metric. ">
<polygon fill="white" stroke="black" points="532,-252.5 532,-275.5 726,-275.5 726,-252.5 532,-252.5"/>
<text text-anchor="middle" x="629" y="-260.3" font-family="Helvetica,sans-Serif" font-size="14.00">mfem::TMOP_Metric_316</text>
</a>
</g>
</g>
<!-- Node4&#45;&gt;Node37 -->
<g id="edge36" class="edge"><title>Node4&#45;&gt;Node37</title>
<path fill="none" stroke="midnightblue" d="M355.129,-662.179C359.898,-594.259 384.285,-385.178 506,-285 513.633,-278.717 522.463,-274.015 531.811,-270.527"/>
<polygon fill="midnightblue" stroke="midnightblue" points="351.635,-661.967 354.501,-672.167 358.622,-662.406 351.635,-661.967"/>
</g>
<!-- Node38 -->
<g id="node38" class="node"><title>Node38</title>
<g id="a_node38"><a xlink:href="classmfem_1_1TMOP__Metric__321.html" target="_top" xlink:title="3D barrier Shape+Size (VS) metric. ">
<polygon fill="white" stroke="black" points="532,-210.5 532,-233.5 726,-233.5 726,-210.5 532,-210.5"/>
<text text-anchor="middle" x="629" y="-218.3" font-family="Helvetica,sans-Serif" font-size="14.00">mfem::TMOP_Metric_321</text>
</a>
</g>
</g>
<!-- Node4&#45;&gt;Node38 -->
<g id="edge37" class="edge"><title>Node4&#45;&gt;Node38</title>
<path fill="none" stroke="midnightblue" d="M354.255,-661.885C356.377,-589.142 373.65,-355.537 506,-243 513.614,-236.526 522.486,-231.711 531.91,-228.166"/>
<polygon fill="midnightblue" stroke="midnightblue" points="350.75,-662.06 354.029,-672.135 357.748,-662.215 350.75,-662.06"/>
</g>
<!-- Node39 -->
<g id="node39" class="node"><title>Node39</title>
<g id="a_node39"><a xlink:href="classmfem_1_1TMOP__Metric__352.html" target="_top" xlink:title="Shifted barrier form of 3D metric 16 (volume, ideal barrier metric), 3D. ">
<polygon fill="white" stroke="black" points="532,-168.5 532,-191.5 726,-191.5 726,-168.5 532,-168.5"/>
<text text-anchor="middle" x="629" y="-176.3" font-family="Helvetica,sans-Serif" font-size="14.00">mfem::TMOP_Metric_352</text>
</a>
</g>
</g>
<!-- Node4&#45;&gt;Node39 -->
<g id="edge38" class="edge"><title>Node4&#45;&gt;Node39</title>
<path fill="none" stroke="midnightblue" d="M353.503,-661.88C353.072,-584.836 362.759,-326.173 506,-201 513.525,-194.424 522.342,-189.544 531.733,-185.961"/>
<polygon fill="midnightblue" stroke="midnightblue" points="350.008,-662.312 353.633,-672.267 357.008,-662.224 350.008,-662.312"/>
</g>
<!-- Node40 -->
<g id="node40" class="node"><title>Node40</title>
<g id="a_node40"><a xlink:href="classmfem_1_1TMOP__Metric__aspratio2D.html" target="_top" xlink:title="2D non&#45;barrier Aspect ratio metric. ">
<polygon fill="white" stroke="black" points="506,-126.5 506,-149.5 752,-149.5 752,-126.5 506,-126.5"/>
<text text-anchor="middle" x="629" y="-134.3" font-family="Helvetica,sans-Serif" font-size="14.00">mfem::TMOP_Metric_aspratio2D</text>
</a>
</g>
</g>
<!-- Node4&#45;&gt;Node40 -->
<g id="edge39" class="edge"><title>Node4&#45;&gt;Node40</title>
<path fill="none" stroke="midnightblue" d="M357.223,-662.09C370.968,-571.689 427.581,-229.139 506,-159 510.085,-155.346 514.567,-152.212 519.325,-149.53"/>
<polygon fill="midnightblue" stroke="midnightblue" points="353.752,-661.639 355.728,-672.048 360.674,-662.678 353.752,-661.639"/>
</g>
<!-- Node41 -->
<g id="node41" class="node"><title>Node41</title>
<g id="a_node41"><a xlink:href="classmfem_1_1TMOP__Metric__aspratio3D.html" target="_top" xlink:title="3D non&#45;barrier Aspect ratio metric. ">
<polygon fill="white" stroke="black" points="506,-84.5 506,-107.5 752,-107.5 752,-84.5 506,-84.5"/>
<text text-anchor="middle" x="629" y="-92.3" font-family="Helvetica,sans-Serif" font-size="14.00">mfem::TMOP_Metric_aspratio3D</text>
</a>
</g>
</g>
<!-- Node4&#45;&gt;Node41 -->
<g id="edge40" class="edge"><title>Node4&#45;&gt;Node41</title>
<path fill="none" stroke="midnightblue" d="M356.752,-661.902C369.051,-566.78 422.084,-193.572 506,-117 509.969,-113.378 514.326,-110.264 518.958,-107.592"/>
<polygon fill="midnightblue" stroke="midnightblue" points="353.247,-661.723 355.455,-672.085 360.19,-662.608 353.247,-661.723"/>
</g>
<!-- Node42 -->
<g id="node42" class="node"><title>Node42</title>
<g id="a_node42"><a xlink:href="classmfem_1_1TMOP__Metric__skew2D.html" target="_top" xlink:title="2D non&#45;barrier Skew metric. ">
<polygon fill="white" stroke="black" points="517,-42.5 517,-65.5 741,-65.5 741,-42.5 517,-42.5"/>
<text text-anchor="middle" x="629" y="-50.3" font-family="Helvetica,sans-Serif" font-size="14.00">mfem::TMOP_Metric_skew2D</text>
</a>
</g>
</g>
<!-- Node4&#45;&gt;Node42 -->
<g id="edge41" class="edge"><title>Node4&#45;&gt;Node42</title>
<path fill="none" stroke="midnightblue" d="M356.287,-662.194C367.109,-563.303 416.418,-158.176 506,-75 509.937,-71.3441 514.269,-68.202 518.881,-65.5082"/>
<polygon fill="midnightblue" stroke="midnightblue" points="352.798,-661.911 355.207,-672.228 359.758,-662.66 352.798,-661.911"/>
</g>
<!-- Node43 -->
<g id="node43" class="node"><title>Node43</title>
<g id="a_node43"><a xlink:href="classmfem_1_1TMOP__Metric__skew3D.html" target="_top" xlink:title="3D non&#45;barrier Skew metric. ">
<polygon fill="white" stroke="black" points="517,-0.5 517,-23.5 741,-23.5 741,-0.5 517,-0.5"/>
<text text-anchor="middle" x="629" y="-8.3" font-family="Helvetica,sans-Serif" font-size="14.00">mfem::TMOP_Metric_skew3D</text>
</a>
</g>
</g>
<!-- Node4&#45;&gt;Node43 -->
<g id="edge42" class="edge"><title>Node4&#45;&gt;Node43</title>
<path fill="none" stroke="midnightblue" d="M355.898,-662.364C365.355,-559.683 410.765,-122.783 506,-33 509.831,-29.388 514.047,-26.275 518.538,-23.5986"/>
<polygon fill="midnightblue" stroke="midnightblue" points="352.4,-662.192 354.986,-672.467 359.371,-662.822 352.4,-662.192"/>
</g>
<!-- Node10 -->
<g id="node10" class="node"><title>Node10</title>
<g id="a_node10"><a xlink:href="classmfem_1_1TMOP__AMetric__126.html" target="_top" xlink:title="2D barrier Shape+Size (VS) metric (polyconvex). ">
<polygon fill="white" stroke="black" points="788,-1289.5 788,-1312.5 992,-1312.5 992,-1289.5 788,-1289.5"/>
<text text-anchor="middle" x="890" y="-1297.3" font-family="Helvetica,sans-Serif" font-size="14.00">mfem::TMOP_AMetric_126</text>
</a>
</g>
</g>
<!-- Node9&#45;&gt;Node10 -->
<g id="edge9" class="edge"><title>Node9&#45;&gt;Node10</title>
<path fill="none" stroke="midnightblue" d="M743.956,-1219.88C746.723,-1221.48 749.411,-1223.18 752,-1225 775.908,-1241.79 763.857,-1263.55 788,-1280 793.55,-1283.78 799.642,-1286.91 805.997,-1289.48"/>
<polygon fill="midnightblue" stroke="midnightblue" points="745.353,-1216.66 734.87,-1215.12 742.107,-1222.86 745.353,-1216.66"/>
</g>
<!-- Node11 -->
<g id="node11" class="node"><title>Node11</title>
<g id="a_node11"><a xlink:href="classmfem_1_1TMOP__Metric__080.html" target="_top" xlink:title="2D barrier Shape+Size (VS) metric (polyconvex). ">
<polygon fill="white" stroke="black" points="793,-1247.5 793,-1270.5 987,-1270.5 987,-1247.5 793,-1247.5"/>
<text text-anchor="middle" x="890" y="-1255.3" font-family="Helvetica,sans-Serif" font-size="14.00">mfem::TMOP_Metric_080</text>
</a>
</g>
</g>
<!-- Node9&#45;&gt;Node11 -->
<g id="edge10" class="edge"><title>Node9&#45;&gt;Node11</title>
<path fill="none" stroke="midnightblue" d="M725.433,-1217.58C734.449,-1219.95 743.421,-1222.44 752,-1225 768.301,-1229.86 771.632,-1233.37 788,-1238 800.408,-1241.51 813.825,-1244.71 826.703,-1247.49"/>
<polygon fill="midnightblue" stroke="midnightblue" points="726.206,-1214.17 715.649,-1215.06 724.458,-1220.95 726.206,-1214.17"/>
</g>
<!-- Node12 -->
<g id="node12" class="node"><title>Node12</title>
<g id="a_node12"><a xlink:href="classmfem_1_1TMOP__Metric__328.html" target="_top" xlink:title="3D barrier Shape+Size (VS) metric (polyconvex). ">
<polygon fill="white" stroke="black" points="793,-1205.5 793,-1228.5 987,-1228.5 987,-1205.5 793,-1205.5"/>
<text text-anchor="middle" x="890" y="-1213.3" font-family="Helvetica,sans-Serif" font-size="14.00">mfem::TMOP_Metric_328</text>
</a>
</g>
</g>
<!-- Node9&#45;&gt;Node12 -->
<g id="edge11" class="edge"><title>Node9&#45;&gt;Node12</title>
<path fill="none" stroke="midnightblue" d="M751.705,-1205.87C765.46,-1206.98 779.332,-1208.11 792.699,-1209.19"/>
<polygon fill="midnightblue" stroke="midnightblue" points="751.969,-1202.38 741.719,-1205.06 751.403,-1209.36 751.969,-1202.38"/>
</g>
<!-- Node13 -->
<g id="node13" class="node"><title>Node13</title>
<g id="a_node13"><a xlink:href="classmfem_1_1TMOP__Metric__332.html" target="_top" xlink:title="3D barrier Shape+Size (VS) metric (polyconvex). ">
<polygon fill="white" stroke="black" points="793,-1163.5 793,-1186.5 987,-1186.5 987,-1163.5 793,-1163.5"/>
<text text-anchor="middle" x="890" y="-1171.3" font-family="Helvetica,sans-Serif" font-size="14.00">mfem::TMOP_Metric_332</text>
</a>
</g>
</g>
<!-- Node9&#45;&gt;Node13 -->
<g id="edge12" class="edge"><title>Node9&#45;&gt;Node13</title>
<path fill="none" stroke="midnightblue" d="M751.705,-1186.13C765.46,-1185.02 779.332,-1183.89 792.699,-1182.81"/>
<polygon fill="midnightblue" stroke="midnightblue" points="751.403,-1182.64 741.719,-1186.94 751.969,-1189.62 751.403,-1182.64"/>
</g>
<!-- Node14 -->
<g id="node14" class="node"><title>Node14</title>
<g id="a_node14"><a xlink:href="classmfem_1_1TMOP__Metric__333.html" target="_top" xlink:title="3D barrier Shape+Size (VS) metric (polyconvex). ">
<polygon fill="white" stroke="black" points="793,-1121.5 793,-1144.5 987,-1144.5 987,-1121.5 793,-1121.5"/>
<text text-anchor="middle" x="890" y="-1129.3" font-family="Helvetica,sans-Serif" font-size="14.00">mfem::TMOP_Metric_333</text>
</a>
</g>
</g>
<!-- Node9&#45;&gt;Node14 -->
<g id="edge13" class="edge"><title>Node9&#45;&gt;Node14</title>
<path fill="none" stroke="midnightblue" d="M725.433,-1174.42C734.449,-1172.05 743.421,-1169.56 752,-1167 768.301,-1162.14 771.632,-1158.63 788,-1154 800.408,-1150.49 813.825,-1147.29 826.703,-1144.51"/>
<polygon fill="midnightblue" stroke="midnightblue" points="724.458,-1171.05 715.649,-1176.94 726.206,-1177.83 724.458,-1171.05"/>
</g>
<!-- Node15 -->
<g id="node15" class="node"><title>Node15</title>
<g id="a_node15"><a xlink:href="classmfem_1_1TMOP__Metric__334.html" target="_top" xlink:title="3D barrier Shape+Size (VS) metric (polyconvex). ">
<polygon fill="white" stroke="black" points="793,-1079.5 793,-1102.5 987,-1102.5 987,-1079.5 793,-1079.5"/>
<text text-anchor="middle" x="890" y="-1087.3" font-family="Helvetica,sans-Serif" font-size="14.00">mfem::TMOP_Metric_334</text>
</a>
</g>
</g>
<!-- Node9&#45;&gt;Node15 -->
<g id="edge14" class="edge"><title>Node9&#45;&gt;Node15</title>
<path fill="none" stroke="midnightblue" d="M743.956,-1172.12C746.723,-1170.52 749.411,-1168.82 752,-1167 775.908,-1150.21 763.857,-1128.45 788,-1112 793.55,-1108.22 799.642,-1105.09 805.997,-1102.52"/>
<polygon fill="midnightblue" stroke="midnightblue" points="742.107,-1169.14 734.87,-1176.88 745.353,-1175.34 742.107,-1169.14"/>
</g>
</g>
</svg>
        <g id="navigator" transform="translate(0 0)" fill="#404254">
                <rect fill="#f2f5e9" fill-opacity="0.5" stroke="#606060" stroke-width=".5" x="0" y="0" width="60" height="60"/>
                <use id="zoomplus" xlink:href="#zoomPlus" x="17" y="9" onmousedown="handleZoom(evt,'in')"/>
                <use id="zoomminus" xlink:href="#zoomMin" x="42" y="9" onmousedown="handleZoom(evt,'out')"/>
                <use id="reset" xlink:href="#resetDef" x="30" y="36" onmousedown="handleReset()"/>
                <g id="arrowUp" xlink:href="#dirArrow" transform="translate(30 24)" onmousedown="handlePan(0,-1)">
                  <use xlink:href="#rim" fill="#404040">
                        <set attributeName="fill" to="#808080" begin="arrowUp.mouseover" end="arrowUp.mouseout"/>
                  </use>
                  <path fill="none" stroke="white" stroke-width="1.5" d="M0,-3.0v7 M-2.5,-0.5L0,-3.0L2.5,-0.5"/>
                </g>
                <g id="arrowRight" xlink:href="#dirArrow" transform="rotate(90) translate(36 -43)" onmousedown="handlePan(1,0)">
                  <use xlink:href="#rim" fill="#404040">
                        <set attributeName="fill" to="#808080" begin="arrowRight.mouseover" end="arrowRight.mouseout"/>
                  </use>
                  <path fill="none" stroke="white" stroke-width="1.5" d="M0,-3.0v7 M-2.5,-0.5L0,-3.0L2.5,-0.5"/>
                </g>
                <g id="arrowDown" xlink:href="#dirArrow" transform="rotate(180) translate(-30 -48)" onmousedown="handlePan(0,1)">
                  <use xlink:href="#rim" fill="#404040">
                        <set attributeName="fill" to="#808080" begin="arrowDown.mouseover" end="arrowDown.mouseout"/>
                  </use>
                  <path fill="none" stroke="white" stroke-width="1.5" d="M0,-3.0v7 M-2.5,-0.5L0,-3.0L2.5,-0.5"/>
                </g>
                <g id="arrowLeft" xlink:href="#dirArrow" transform="rotate(270) translate(-36 17)" onmousedown="handlePan(-1,0)">
                  <use xlink:href="#rim" fill="#404040">
                        <set attributeName="fill" to="#808080" begin="arrowLeft.mouseover" end="arrowLeft.mouseout"/>
                  </use>
                  <path fill="none" stroke="white" stroke-width="1.5" d="M0,-3.0v7 M-2.5,-0.5L0,-3.0L2.5,-0.5"/>
                </g>
        </g>
        <svg viewBox="0 0 15 15" width="100%" height="30px" preserveAspectRatio="xMaxYMin meet">
         <g id="arrow_out" transform="scale(0.3 0.3)">
          <a xlink:href="classmfem_1_1HyperelasticModel__inherit__graph_org.svg" target="_base">
           <rect id="button" ry="5" rx="5" y="6" x="6" height="38" width="38"
                fill="#f2f5e9" fill-opacity="0.5" stroke="#606060" stroke-width="1.0"/>
           <path id="arrow"
             d="M 11.500037,31.436501 C 11.940474,20.09759 22.043105,11.32322 32.158766,21.979434 L 37.068811,17.246167 C 37.068811,17.246167 37.088388,32 37.088388,32 L 22.160133,31.978069 C 22.160133,31.978069 26.997745,27.140456 26.997745,27.140456 C 18.528582,18.264221 13.291696,25.230495 11.500037,31.436501 z"
             style="fill:#404040;"/>
          </a>
         </g>
        </svg>
</svg>
