<?xml version="1.0" encoding="UTF-8" standalone="no"?>
<!DOCTYPE svg PUBLIC "-//W3C//DTD SVG 1.1//EN"
 "http://www.w3.org/Graphics/SVG/1.1/DTD/svg11.dtd">
<!-- Generated by graphviz version 2.30.1 (20200304.1809)
 -->
<!-- Title: mfem::SchurConstrainedHypreSolver Pages: 1 -->
<svg width="1954pt" height="465pt"
 viewBox="0.00 0.00 1954.00 465.29" xmlns="http://www.w3.org/2000/svg" xmlns:xlink="http://www.w3.org/1999/xlink">
<g id="graph0" class="graph" transform="scale(1 1) rotate(0) translate(4 461.293)">
<title>mfem::SchurConstrainedHypreSolver</title>
<polygon fill="white" stroke="white" points="-4,5 -4,-461.293 1951,-461.293 1951,5 -4,5"/>
<!-- Node1 -->
<g id="node1" class="node"><title>Node1</title>
<polygon fill="#bfbfbf" stroke="black" points="1708,-182.293 1708,-220.293 1946,-220.293 1946,-182.293 1708,-182.293"/>
<text text-anchor="start" x="1716" y="-205.093" font-family="Helvetica,sans-Serif" font-size="14.00">mfem::SchurConstrainedHypre</text>
<text text-anchor="middle" x="1827" y="-190.093" font-family="Helvetica,sans-Serif" font-size="14.00">Solver</text>
</g>
<!-- Node2 -->
<g id="node2" class="node"><title>Node2</title>
<g id="a_node2"><a xlink:href="classmfem_1_1SchurConstrainedSolver.html" target="_top" xlink:title="Solve constrained system by solving original mixed system; see ConstrainedSolver. ...">
<polygon fill="white" stroke="black" points="1430,-189.793 1430,-212.793 1670,-212.793 1670,-189.793 1430,-189.793"/>
<text text-anchor="middle" x="1550" y="-197.593" font-family="Helvetica,sans-Serif" font-size="14.00">mfem::SchurConstrainedSolver</text>
</a>
</g>
</g>
<!-- Node2&#45;&gt;Node1 -->
<g id="edge1" class="edge"><title>Node2&#45;&gt;Node1</title>
<path fill="none" stroke="midnightblue" d="M1680.3,-201.293C1689.43,-201.293 1698.61,-201.293 1707.67,-201.293"/>
<polygon fill="midnightblue" stroke="midnightblue" points="1680.02,-197.793 1670.02,-201.293 1680.02,-204.793 1680.02,-197.793"/>
</g>
<!-- Node3 -->
<g id="node3" class="node"><title>Node3</title>
<g id="a_node3"><a xlink:href="classmfem_1_1ConstrainedSolver.html" target="_top" xlink:title="An abstract class to solve the constrained system &#160;subject to the constraint . ">
<polygon fill="white" stroke="black" points="1126,-212.793 1126,-235.793 1326,-235.793 1326,-212.793 1126,-212.793"/>
<text text-anchor="middle" x="1226" y="-220.593" font-family="Helvetica,sans-Serif" font-size="14.00">mfem::ConstrainedSolver</text>
</a>
</g>
</g>
<!-- Node3&#45;&gt;Node2 -->
<g id="edge2" class="edge"><title>Node3&#45;&gt;Node2</title>
<path fill="none" stroke="midnightblue" d="M1336.35,-216.482C1366.49,-214.329 1399.33,-211.983 1429.99,-209.793"/>
<polygon fill="midnightblue" stroke="midnightblue" points="1335.96,-213.001 1326.24,-217.204 1336.46,-219.983 1335.96,-213.001"/>
</g>
<!-- Node4 -->
<g id="node4" class="node"><title>Node4</title>
<g id="a_node4"><a xlink:href="classmfem_1_1IterativeSolver.html" target="_top" xlink:title="Abstract base class for iterative solver. ">
<polygon fill="white" stroke="black" points="626.5,-264.793 626.5,-287.793 799.5,-287.793 799.5,-264.793 626.5,-264.793"/>
<text text-anchor="middle" x="713" y="-272.593" font-family="Helvetica,sans-Serif" font-size="14.00">mfem::IterativeSolver</text>
</a>
</g>
</g>
<!-- Node4&#45;&gt;Node3 -->
<g id="edge3" class="edge"><title>Node4&#45;&gt;Node3</title>
<path fill="none" stroke="midnightblue" d="M809.748,-266.549C899.879,-257.378 1034.3,-243.698 1125.61,-234.407"/>
<polygon fill="midnightblue" stroke="midnightblue" points="809.124,-263.095 799.53,-267.589 809.833,-270.059 809.124,-263.095"/>
</g>
<!-- Node8 -->
<g id="node8" class="node"><title>Node8</title>
<g id="a_node8"><a xlink:href="classmfem_1_1IterativeSolverMonitor.html" target="_top" xlink:title="Abstract base class for an iterative solver monitor. ">
<polygon fill="white" stroke="black" points="1112.5,-271.793 1112.5,-294.793 1339.5,-294.793 1339.5,-271.793 1112.5,-271.793"/>
<text text-anchor="middle" x="1226" y="-279.593" font-family="Helvetica,sans-Serif" font-size="14.00">mfem::IterativeSolverMonitor</text>
</a>
</g>
</g>
<!-- Node4&#45;&gt;Node8 -->
<g id="edge9" class="edge"><title>Node4&#45;&gt;Node8</title>
<path fill="none" stroke="#9a32cd" stroke-dasharray="5,2" d="M789.984,-289.164C800.051,-290.457 810.256,-291.562 820,-292.293 918.536,-299.688 1030.9,-296.255 1112.24,-291.652"/>
<polygon fill="#9a32cd" stroke="#9a32cd" points="790.362,-285.683 779.984,-287.814 789.426,-292.621 790.362,-285.683"/>
<text text-anchor="middle" x="957" y="-301.093" font-family="Helvetica,sans-Serif" font-size="14.00"> iter_solver</text>
</g>
<!-- Node5 -->
<g id="node5" class="node"><title>Node5</title>
<g id="a_node5"><a xlink:href="classmfem_1_1Solver.html" target="_top" xlink:title="Base class for solvers. ">
<polygon fill="white" stroke="black" points="220.5,-319.793 220.5,-342.793 333.5,-342.793 333.5,-319.793 220.5,-319.793"/>
<text text-anchor="middle" x="277" y="-327.593" font-family="Helvetica,sans-Serif" font-size="14.00">mfem::Solver</text>
</a>
</g>
</g>
<!-- Node5&#45;&gt;Node4 -->
<g id="edge4" class="edge"><title>Node5&#45;&gt;Node4</title>
<path fill="none" stroke="midnightblue" d="M343.895,-334.721C410.685,-336.744 516.631,-335.955 606,-317.293 635.552,-311.122 667.642,-297.682 688.681,-287.866"/>
<polygon fill="midnightblue" stroke="midnightblue" points="343.632,-331.21 333.52,-334.374 343.398,-338.206 343.632,-331.21"/>
</g>
<!-- Node5&#45;&gt;Node4 -->
<g id="edge6" class="edge"><title>Node5&#45;&gt;Node4</title>
<path fill="none" stroke="#9a32cd" stroke-dasharray="5,2" d="M323.107,-316.848C345.921,-310.119 374.18,-302.653 400,-298.293 441.898,-291.218 549.17,-284.571 626.228,-280.473"/>
<polygon fill="#9a32cd" stroke="#9a32cd" points="321.934,-313.546 313.363,-319.775 323.947,-320.251 321.934,-313.546"/>
<text text-anchor="middle" x="503" y="-302.093" font-family="Helvetica,sans-Serif" font-size="14.00"> prec</text>
</g>
<!-- Node13 -->
<g id="node13" class="node"><title>Node13</title>
<g id="a_node13"><a xlink:href="classmfem_1_1BlockDiagonalPreconditioner.html" target="_top" xlink:title="A class to handle Block diagonal preconditioners in a matrix&#45;free implementation. ...">
<polygon fill="white" stroke="black" points="820,-342.793 820,-365.793 1094,-365.793 1094,-342.793 820,-342.793"/>
<text text-anchor="middle" x="957" y="-350.593" font-family="Helvetica,sans-Serif" font-size="14.00">mfem::BlockDiagonalPreconditioner</text>
</a>
</g>
</g>
<!-- Node5&#45;&gt;Node13 -->
<g id="edge17" class="edge"><title>Node5&#45;&gt;Node13</title>
<path fill="none" stroke="midnightblue" d="M343.494,-337.37C361.769,-338.872 381.646,-340.327 400,-341.293 543.185,-348.829 707.342,-351.996 819.959,-353.327"/>
<polygon fill="midnightblue" stroke="midnightblue" points="343.783,-333.882 333.525,-336.532 343.197,-340.857 343.783,-333.882"/>
</g>
<!-- Node5&#45;&gt;Node2 -->
<g id="edge18" class="edge"><title>Node5&#45;&gt;Node2</title>
<path fill="none" stroke="#9a32cd" stroke-dasharray="5,2" d="M328.001,-345.484C483.741,-387.082 971.717,-497.658 1340,-364.293 1429.99,-331.704 1511.72,-244.467 1539.2,-212.898"/>
<polygon fill="#9a32cd" stroke="#9a32cd" points="328.794,-342.073 318.228,-342.847 326.971,-348.831 328.794,-342.073"/>
<text text-anchor="middle" x="957" y="-446.093" font-family="Helvetica,sans-Serif" font-size="14.00"> primal_pc</text>
<text text-anchor="middle" x="957" y="-431.093" font-family="Helvetica,sans-Serif" font-size="14.00">dual_pc</text>
</g>
<!-- Node6 -->
<g id="node6" class="node"><title>Node6</title>
<g id="a_node6"><a xlink:href="classmfem_1_1Operator.html" target="_top" xlink:title="Abstract operator. ">
<polygon fill="white" stroke="black" points="0.5,-161.793 0.5,-184.793 133.5,-184.793 133.5,-161.793 0.5,-161.793"/>
<text text-anchor="middle" x="67" y="-169.593" font-family="Helvetica,sans-Serif" font-size="14.00">mfem::Operator</text>
</a>
</g>
</g>
<!-- Node6&#45;&gt;Node5 -->
<g id="edge5" class="edge"><title>Node6&#45;&gt;Node5</title>
<path fill="none" stroke="midnightblue" d="M77.5143,-193.992C90.6402,-220.324 116.74,-265.471 152,-291.293 171.983,-305.927 197.558,-315.361 220.285,-321.365"/>
<polygon fill="midnightblue" stroke="midnightblue" points="80.6254,-192.386 73.1268,-184.901 74.3212,-195.429 80.6254,-192.386"/>
</g>
<!-- Node6&#45;&gt;Node4 -->
<g id="edge10" class="edge"><title>Node6&#45;&gt;Node4</title>
<path fill="none" stroke="#9a32cd" stroke-dasharray="5,2" d="M86.3736,-192.01C105.743,-210.362 138.097,-237.28 172,-249.293 253.233,-278.076 495.761,-279.459 626.4,-277.941"/>
<polygon fill="#9a32cd" stroke="#9a32cd" points="88.7467,-189.436 79.1372,-184.974 83.8668,-194.455 88.7467,-189.436"/>
<text text-anchor="middle" x="277" y="-279.093" font-family="Helvetica,sans-Serif" font-size="14.00"> oper</text>
</g>
<!-- Node6&#45;&gt;Node3 -->
<g id="edge13" class="edge"><title>Node6&#45;&gt;Node3</title>
<path fill="none" stroke="#9a32cd" stroke-dasharray="5,2" d="M143.926,-161.342C250.379,-147.628 448.599,-133.288 606,-186.293 615.352,-189.442 614.676,-196.062 624,-199.293 713.795,-230.404 979.677,-229.915 1125.89,-227.033"/>
<polygon fill="#9a32cd" stroke="#9a32cd" points="143.37,-157.885 133.915,-162.665 144.287,-164.825 143.37,-157.885"/>
<text text-anchor="middle" x="503" y="-205.093" font-family="Helvetica,sans-Serif" font-size="14.00"> A</text>
<text text-anchor="middle" x="503" y="-190.093" font-family="Helvetica,sans-Serif" font-size="14.00">B</text>
</g>
<!-- Node14 -->
<g id="node14" class="node"><title>Node14</title>
<g id="a_node14"><a xlink:href="classmfem_1_1TransposeOperator.html" target="_top" xlink:title="The transpose of a given operator. Switches the roles of the methods Mult() and MultTranspose(). ">
<polygon fill="white" stroke="black" points="400,-55.7929 400,-78.7929 606,-78.7929 606,-55.7929 400,-55.7929"/>
<text text-anchor="middle" x="503" y="-63.5929" font-family="Helvetica,sans-Serif" font-size="14.00">mfem::TransposeOperator</text>
</a>
</g>
</g>
<!-- Node6&#45;&gt;Node14 -->
<g id="edge20" class="edge"><title>Node6&#45;&gt;Node14</title>
<path fill="none" stroke="midnightblue" d="M84.0633,-153.918C102.738,-132.978 135.675,-100.678 172,-86.2929 244.429,-57.6095 332.837,-54.0036 399.91,-56.9448"/>
<polygon fill="midnightblue" stroke="midnightblue" points="81.3178,-151.742 77.406,-161.588 86.6042,-156.33 81.3178,-151.742"/>
</g>
<!-- Node15 -->
<g id="node15" class="node"><title>Node15</title>
<g id="a_node15"><a xlink:href="classmfem_1_1BlockOperator.html" target="_top" xlink:title="A class to handle Block systems in a matrix&#45;free implementation. ">
<polygon fill="white" stroke="black" points="417.5,-17.7929 417.5,-40.7929 588.5,-40.7929 588.5,-17.7929 417.5,-17.7929"/>
<text text-anchor="middle" x="503" y="-25.5929" font-family="Helvetica,sans-Serif" font-size="14.00">mfem::BlockOperator</text>
</a>
</g>
</g>
<!-- Node6&#45;&gt;Node15 -->
<g id="edge22" class="edge"><title>Node6&#45;&gt;Node15</title>
<path fill="none" stroke="midnightblue" d="M78.8051,-152.605C94.8628,-124.277 127.931,-74.413 172,-52.2929 248.478,-13.9055 347.722,-12.4119 417.323,-17.8696"/>
<polygon fill="midnightblue" stroke="midnightblue" points="75.5863,-151.195 73.8446,-161.646 81.7233,-154.562 75.5863,-151.195"/>
</g>
<!-- Node7 -->
<g id="node7" class="node"><title>Node7</title>
<g id="a_node7"><a xlink:href="structmfem_1_1IterativeSolver_1_1PrintLevel.html" target="_top" xlink:title="Settings for the output behavior of the IterativeSolver. ">
<polygon fill="white" stroke="black" points="190.5,-202.293 190.5,-240.293 363.5,-240.293 363.5,-202.293 190.5,-202.293"/>
<text text-anchor="start" x="198.5" y="-225.093" font-family="Helvetica,sans-Serif" font-size="14.00">mfem::IterativeSolver</text>
<text text-anchor="middle" x="277" y="-210.093" font-family="Helvetica,sans-Serif" font-size="14.00">::PrintLevel</text>
</a>
</g>
</g>
<!-- Node7&#45;&gt;Node4 -->
<g id="edge7" class="edge"><title>Node7&#45;&gt;Node4</title>
<path fill="none" stroke="#9a32cd" stroke-dasharray="5,2" d="M374.132,-219.508C439.984,-220.002 528.998,-224.058 606,-239.293 633.917,-244.816 664.468,-256.074 685.569,-264.729"/>
<polygon fill="#9a32cd" stroke="#9a32cd" points="373.784,-216.006 363.767,-219.458 373.75,-223.006 373.784,-216.006"/>
<text text-anchor="middle" x="503" y="-243.093" font-family="Helvetica,sans-Serif" font-size="14.00"> print_options</text>
</g>
<!-- Node8&#45;&gt;Node4 -->
<g id="edge8" class="edge"><title>Node8&#45;&gt;Node4</title>
<path fill="none" stroke="#9a32cd" stroke-dasharray="5,2" d="M1102.29,-277.512C1099.5,-277.432 1096.73,-277.359 1094,-277.293 992.927,-274.846 876.688,-274.971 799.661,-275.464"/>
<polygon fill="#9a32cd" stroke="#9a32cd" points="1102.36,-281.015 1112.46,-277.824 1102.58,-274.019 1102.36,-281.015"/>
<text text-anchor="middle" x="957" y="-281.093" font-family="Helvetica,sans-Serif" font-size="14.00"> monitor</text>
</g>
<!-- Node9 -->
<g id="node9" class="node"><title>Node9</title>
<g id="a_node9"><a xlink:href="classmfem_1_1Vector.html" target="_top" xlink:title="Vector data type. ">
<polygon fill="white" stroke="black" points="656,-95.7929 656,-118.793 770,-118.793 770,-95.7929 656,-95.7929"/>
<text text-anchor="middle" x="713" y="-103.593" font-family="Helvetica,sans-Serif" font-size="14.00">mfem::Vector</text>
</a>
</g>
</g>
<!-- Node9&#45;&gt;Node3 -->
<g id="edge11" class="edge"><title>Node9&#45;&gt;Node3</title>
<path fill="none" stroke="#9a32cd" stroke-dasharray="5,2" d="M780.304,-99.169C876.428,-88.9362 1048.04,-76.9658 1094,-115.293 1124.66,-140.859 1083.52,-175.32 1112,-203.293 1116.13,-207.348 1120.77,-210.753 1125.76,-213.605"/>
<polygon fill="#9a32cd" stroke="#9a32cd" points="779.67,-95.7172 770.107,-100.278 780.427,-102.676 779.67,-95.7172"/>
<text text-anchor="middle" x="957" y="-164.093" font-family="Helvetica,sans-Serif" font-size="14.00"> constraint_rhs</text>
<text text-anchor="middle" x="957" y="-149.093" font-family="Helvetica,sans-Serif" font-size="14.00">workb</text>
<text text-anchor="middle" x="957" y="-134.093" font-family="Helvetica,sans-Serif" font-size="14.00">workx</text>
<text text-anchor="middle" x="957" y="-119.093" font-family="Helvetica,sans-Serif" font-size="14.00">multiplier_sol</text>
</g>
<!-- Node10 -->
<g id="node10" class="node"><title>Node10</title>
<g id="a_node10"><a xlink:href="classmfem_1_1Memory.html" target="_top" xlink:title="mfem::Memory\&lt; double \&gt;">
<polygon fill="white" stroke="black" points="172.5,-95.7929 172.5,-118.793 381.5,-118.793 381.5,-95.7929 172.5,-95.7929"/>
<text text-anchor="middle" x="277" y="-103.593" font-family="Helvetica,sans-Serif" font-size="14.00">mfem::Memory&lt; double &gt;</text>
</a>
</g>
</g>
<!-- Node10&#45;&gt;Node9 -->
<g id="edge12" class="edge"><title>Node10&#45;&gt;Node9</title>
<path fill="none" stroke="#9a32cd" stroke-dasharray="5,2" d="M391.903,-107.293C476.906,-107.293 589.405,-107.293 655.903,-107.293"/>
<polygon fill="#9a32cd" stroke="#9a32cd" points="391.678,-103.793 381.678,-107.293 391.678,-110.793 391.678,-103.793"/>
<text text-anchor="middle" x="503" y="-111.093" font-family="Helvetica,sans-Serif" font-size="14.00"> data</text>
</g>
<!-- Node11 -->
<g id="node11" class="node"><title>Node11</title>
<g id="a_node11"><a xlink:href="classmfem_1_1Array.html" target="_top" xlink:title="mfem::Array\&lt; int \&gt;">
<polygon fill="white" stroke="black" points="1147,-170.793 1147,-193.793 1305,-193.793 1305,-170.793 1147,-170.793"/>
<text text-anchor="middle" x="1226" y="-178.593" font-family="Helvetica,sans-Serif" font-size="14.00">mfem::Array&lt; int &gt;</text>
</a>
</g>
</g>
<!-- Node11&#45;&gt;Node2 -->
<g id="edge14" class="edge"><title>Node11&#45;&gt;Node2</title>
<path fill="none" stroke="#9a32cd" stroke-dasharray="5,2" d="M1315.57,-184.752C1346.13,-185.837 1380.59,-187.324 1412,-189.293 1417.84,-189.659 1423.81,-190.065 1429.85,-190.499"/>
<polygon fill="#9a32cd" stroke="#9a32cd" points="1315.47,-181.246 1305.36,-184.399 1315.23,-188.242 1315.47,-181.246"/>
<text text-anchor="middle" x="1385" y="-193.093" font-family="Helvetica,sans-Serif" font-size="14.00"> offsets</text>
</g>
<!-- Node12 -->
<g id="node12" class="node"><title>Node12</title>
<g id="a_node12"><a xlink:href="classmfem_1_1Memory.html" target="_top" xlink:title="mfem::Memory\&lt; int \&gt;">
<polygon fill="white" stroke="black" points="624,-166.793 624,-189.793 802,-189.793 802,-166.793 624,-166.793"/>
<text text-anchor="middle" x="713" y="-174.593" font-family="Helvetica,sans-Serif" font-size="14.00">mfem::Memory&lt; int &gt;</text>
</a>
</g>
</g>
<!-- Node12&#45;&gt;Node11 -->
<g id="edge15" class="edge"><title>Node12&#45;&gt;Node11</title>
<path fill="none" stroke="#9a32cd" stroke-dasharray="5,2" d="M812.285,-179.062C909.705,-179.825 1057.01,-180.978 1146.76,-181.68"/>
<polygon fill="#9a32cd" stroke="#9a32cd" points="812.162,-175.561 802.135,-178.983 812.107,-182.561 812.162,-175.561"/>
<text text-anchor="middle" x="957" y="-185.093" font-family="Helvetica,sans-Serif" font-size="14.00"> data</text>
</g>
<!-- Node13&#45;&gt;Node2 -->
<g id="edge16" class="edge"><title>Node13&#45;&gt;Node2</title>
<path fill="none" stroke="#9a32cd" stroke-dasharray="5,2" d="M1104.27,-346.422C1176.41,-339.716 1264.03,-327.295 1340,-304.293 1414.72,-281.668 1495.57,-234.614 1530.83,-212.826"/>
<polygon fill="#9a32cd" stroke="#9a32cd" points="1103.84,-342.947 1094.19,-347.331 1104.46,-349.919 1103.84,-342.947"/>
<text text-anchor="middle" x="1226" y="-349.093" font-family="Helvetica,sans-Serif" font-size="14.00"> block_pc</text>
</g>
<!-- Node14&#45;&gt;Node2 -->
<g id="edge19" class="edge"><title>Node14&#45;&gt;Node2</title>
<path fill="none" stroke="#9a32cd" stroke-dasharray="5,2" d="M616.389,-58.7446C735.6,-51.8 929.103,-46.5999 1094,-70.2929 1258.97,-93.9965 1448.03,-162.324 1519.54,-189.724"/>
<polygon fill="#9a32cd" stroke="#9a32cd" points="615.931,-55.2656 606.157,-59.3556 616.348,-62.2532 615.931,-55.2656"/>
<text text-anchor="middle" x="957" y="-74.0929" font-family="Helvetica,sans-Serif" font-size="14.00"> tr_B</text>
</g>
<!-- Node15&#45;&gt;Node2 -->
<g id="edge21" class="edge"><title>Node15&#45;&gt;Node2</title>
<path fill="none" stroke="#9a32cd" stroke-dasharray="5,2" d="M594.438,-16.572C751.655,1.8521 1083.12,24.2326 1340,-70.2929 1420.38,-99.8699 1502.73,-163.189 1534.91,-189.476"/>
<polygon fill="#9a32cd" stroke="#9a32cd" points="593.851,-13.1171 584.337,-17.7785 594.681,-20.0677 593.851,-13.1171"/>
<text text-anchor="middle" x="957" y="-17.0929" font-family="Helvetica,sans-Serif" font-size="14.00"> block_op</text>
</g>
</g>
</svg>
