<?xml version="1.0" encoding="UTF-8" standalone="no"?>
<!DOCTYPE svg PUBLIC "-//W3C//DTD SVG 1.1//EN"
 "http://www.w3.org/Graphics/SVG/1.1/DTD/svg11.dtd">
<!-- Generated by graphviz version 2.30.1 (20200304.1809)
 -->
<!-- Title: mfem::Mesh::FaceInformation Pages: 1 -->
<svg width="238pt" height="232pt"
 viewBox="0.00 0.00 238.00 232.00" xmlns="http://www.w3.org/2000/svg" xmlns:xlink="http://www.w3.org/1999/xlink">
<g id="graph0" class="graph" transform="scale(1 1) rotate(0) translate(4 228)">
<title>mfem::Mesh::FaceInformation</title>
<polygon fill="white" stroke="white" points="-4,5 -4,-228 235,-228 235,5 -4,5"/>
<!-- Node1 -->
<g id="node1" class="node"><title>Node1</title>
<polygon fill="#bfbfbf" stroke="black" points="-0.5,-0.5 -0.5,-23.5 230.5,-23.5 230.5,-0.5 -0.5,-0.5"/>
<text text-anchor="middle" x="115" y="-8.3" font-family="Helvetica,sans-Serif" font-size="14.00">mfem::Mesh::FaceInformation</text>
</g>
<!-- Node2 -->
<g id="node2" class="node"><title>Node2</title>
<g id="a_node2"><a xlink:href="classmfem_1_1DenseMatrix.html" target="_top" xlink:title="Data type dense matrix using column&#45;major storage. ">
<polygon fill="white" stroke="black" points="36,-76.5 36,-99.5 194,-99.5 194,-76.5 36,-76.5"/>
<text text-anchor="middle" x="115" y="-84.3" font-family="Helvetica,sans-Serif" font-size="14.00">mfem::DenseMatrix</text>
</a>
</g>
</g>
<!-- Node2&#45;&gt;Node1 -->
<g id="edge1" class="edge"><title>Node2&#45;&gt;Node1</title>
<path fill="none" stroke="#9a32cd" stroke-dasharray="5,2" d="M115,-66.2771C115,-52.3872 115,-34.675 115,-23.5827"/>
<polygon fill="#9a32cd" stroke="#9a32cd" points="111.5,-66.3976 115,-76.3976 118.5,-66.3976 111.5,-66.3976"/>
<text text-anchor="middle" x="162.5" y="-46.3" font-family="Helvetica,sans-Serif" font-size="14.00"> point_matrix</text>
</g>
<!-- Node3 -->
<g id="node3" class="node"><title>Node3</title>
<g id="a_node3"><a xlink:href="classmfem_1_1Matrix.html" target="_top" xlink:title="Abstract data type matrix. ">
<polygon fill="white" stroke="black" points="58.5,-138.5 58.5,-161.5 171.5,-161.5 171.5,-138.5 58.5,-138.5"/>
<text text-anchor="middle" x="115" y="-146.3" font-family="Helvetica,sans-Serif" font-size="14.00">mfem::Matrix</text>
</a>
</g>
</g>
<!-- Node3&#45;&gt;Node2 -->
<g id="edge2" class="edge"><title>Node3&#45;&gt;Node2</title>
<path fill="none" stroke="midnightblue" d="M115,-128.231C115,-118.592 115,-107.544 115,-99.6339"/>
<polygon fill="midnightblue" stroke="midnightblue" points="111.5,-128.273 115,-138.273 118.5,-128.273 111.5,-128.273"/>
</g>
<!-- Node4 -->
<g id="node4" class="node"><title>Node4</title>
<g id="a_node4"><a xlink:href="classmfem_1_1Operator.html" target="_top" xlink:title="Abstract operator. ">
<polygon fill="white" stroke="black" points="48.5,-200.5 48.5,-223.5 181.5,-223.5 181.5,-200.5 48.5,-200.5"/>
<text text-anchor="middle" x="115" y="-208.3" font-family="Helvetica,sans-Serif" font-size="14.00">mfem::Operator</text>
</a>
</g>
</g>
<!-- Node4&#45;&gt;Node3 -->
<g id="edge3" class="edge"><title>Node4&#45;&gt;Node3</title>
<path fill="none" stroke="midnightblue" d="M115,-190.231C115,-180.592 115,-169.544 115,-161.634"/>
<polygon fill="midnightblue" stroke="midnightblue" points="111.5,-190.273 115,-200.273 118.5,-190.273 111.5,-190.273"/>
</g>
</g>
</svg>
