<?xml version="1.0" encoding="UTF-8" standalone="no"?>
<!DOCTYPE svg PUBLIC "-//W3C//DTD SVG 1.1//EN"
 "http://www.w3.org/Graphics/SVG/1.1/DTD/svg11.dtd">
<!-- Generated by graphviz version 2.30.1 (20200304.1809)
 -->
<!-- Title: mfem::FiniteElementSpace Pages: 1 -->
<!--zoomable 713 -->
<svg id="main" version="1.1" xmlns="http://www.w3.org/2000/svg" xmlns:xlink="http://www.w3.org/1999/xlink" xml:space="preserve" onload="init(evt)">
<style type="text/css"><![CDATA[
.edge:hover path { stroke: red; }
.edge:hover polygon { stroke: red; fill: red; }
]]></style>
<script type="text/javascript"><![CDATA[
var edges = document.getElementsByTagName('g');
if (edges && edges.length) {
  for (var i=0;i<edges.length;i++) {
    if (edges[i].id.substr(0,4)=='edge') {
      edges[i].setAttribute('class','edge');
    }
  }
}
]]></script>
        <defs>
                <circle id="rim" cx="0" cy="0" r="7"/>
                <circle id="rim2" cx="0" cy="0" r="3.5"/>
                <g id="zoomPlus">
                        <use xlink:href="#rim" fill="#404040">
                                <set attributeName="fill" to="#808080" begin="zoomplus.mouseover" end="zoomplus.mouseout"/>
                        </use>
                        <path d="M-4,0h8M0,-4v8" fill="none" stroke="white" stroke-width="1.5" pointer-events="none"/>
                </g>
                <g id="zoomMin">
                        <use xlink:href="#rim" fill="#404040">
                                <set attributeName="fill" to="#808080" begin="zoomminus.mouseover" end="zoomminus.mouseout"/>
                        </use>
                        <path d="M-4,0h8" fill="none" stroke="white" stroke-width="1.5" pointer-events="none"/>
                </g>
                <g id="dirArrow">
                        <path fill="none" stroke="white" stroke-width="1.5" d="M0,-3.0v7 M-2.5,-0.5L0,-3.0L2.5,-0.5"/>
                </g>
               <g id="resetDef">
                       <use xlink:href="#rim2" fill="#404040">
                               <set attributeName="fill" to="#808080" begin="reset.mouseover" end="reset.mouseout"/>
                       </use>
               </g>
        </defs>

<script type="text/javascript">
var viewWidth = 1570;
var viewHeight = 713;
var sectionId = 'dynsection-1';
</script>
<script xlink:href="svgpan.js"/>
<svg id="graph" class="graph">
<g id="viewport">
<title>mfem::FiniteElementSpace</title>
<polygon fill="white" stroke="white" points="-4,5 -4,-709 1567,-709 1567,5 -4,5"/>
<!-- Node1 -->
<g id="node1" class="node"><title>Node1</title>
<polygon fill="#bfbfbf" stroke="black" points="1352.5,-142.5 1352.5,-165.5 1561.5,-165.5 1561.5,-142.5 1352.5,-142.5"/>
<text text-anchor="middle" x="1457" y="-150.3" font-family="Helvetica,sans-Serif" font-size="14.00">mfem::FiniteElementSpace</text>
</g>
<!-- Node2 -->
<g id="node2" class="node"><title>Node2</title>
<g id="a_node2"><a xlink:href="classmfem_1_1Mesh.html" target="_top" xlink:title="mfem::Mesh">
<polygon fill="white" stroke="red" points="776,-360.5 776,-383.5 882,-383.5 882,-360.5 776,-360.5"/>
<text text-anchor="middle" x="829" y="-368.3" font-family="Helvetica,sans-Serif" font-size="14.00">mfem::Mesh</text>
</a>
</g>
</g>
<!-- Node2&#45;&gt;Node1 -->
<g id="edge1" class="edge"><title>Node2&#45;&gt;Node1</title>
<path fill="none" stroke="#9a32cd" stroke-dasharray="5,2" d="M892.415,-368.654C920.541,-366.55 954.085,-363.21 984,-358 1145.45,-329.881 1194.51,-328.009 1334,-242 1374.46,-217.054 1419.05,-183.1 1441.45,-165.555"/>
<polygon fill="#9a32cd" stroke="#9a32cd" points="892.041,-365.172 882.315,-369.374 892.539,-372.154 892.041,-365.172"/>
<text text-anchor="middle" x="1120" y="-358.8" font-family="Helvetica,sans-Serif" font-size="14.00"> mesh</text>
</g>
<!-- Node2&#45;&gt;Node2 -->
<g id="edge2" class="edge"><title>Node2&#45;&gt;Node2</title>
<path fill="none" stroke="#9a32cd" stroke-dasharray="5,2" d="M808.108,-393.472C809.929,-398.391 816.893,-402 829,-402 848.371,-402 854.576,-392.76 847.614,-383.701"/>
<polygon fill="#9a32cd" stroke="#9a32cd" points="811.524,-394.235 810.386,-383.701 804.707,-392.646 811.524,-394.235"/>
<text text-anchor="middle" x="829" y="-405.8" font-family="Helvetica,sans-Serif" font-size="14.00"> nc_coarse_level</text>
</g>
<!-- Node7 -->
<g id="node7" class="node"><title>Node7</title>
<g id="a_node7"><a xlink:href="classmfem_1_1NURBSExtension.html" target="_top" xlink:title="mfem::NURBSExtension">
<polygon fill="white" stroke="red" points="1026,-259.5 1026,-282.5 1214,-282.5 1214,-259.5 1026,-259.5"/>
<text text-anchor="middle" x="1120" y="-267.3" font-family="Helvetica,sans-Serif" font-size="14.00">mfem::NURBSExtension</text>
</a>
</g>
</g>
<!-- Node2&#45;&gt;Node7 -->
<g id="edge9" class="edge"><title>Node2&#45;&gt;Node7</title>
<path fill="none" stroke="#9a32cd" stroke-dasharray="5,2" d="M867.324,-356.588C878.986,-351.985 891.952,-347.083 904,-343 939.039,-331.127 948.814,-331.429 984,-320 1020.4,-308.176 1061.69,-292.915 1088.91,-282.589"/>
<polygon fill="#9a32cd" stroke="#9a32cd" points="865.872,-353.4 857.884,-360.36 868.469,-359.9 865.872,-353.4"/>
<text text-anchor="middle" x="944" y="-346.8" font-family="Helvetica,sans-Serif" font-size="14.00"> patchTopo</text>
</g>
<!-- Node3 -->
<g id="node3" class="node"><title>Node3</title>
<g id="a_node3"><a xlink:href="classmfem_1_1IsoparametricTransformation.html" target="_top" xlink:title="mfem::IsoparametricTransformation">
<polygon fill="white" stroke="red" points="312.5,-459.5 312.5,-482.5 589.5,-482.5 589.5,-459.5 312.5,-459.5"/>
<text text-anchor="middle" x="451" y="-467.3" font-family="Helvetica,sans-Serif" font-size="14.00">mfem::IsoparametricTransformation</text>
</a>
</g>
</g>
<!-- Node3&#45;&gt;Node2 -->
<g id="edge3" class="edge"><title>Node3&#45;&gt;Node2</title>
<path fill="none" stroke="#9a32cd" stroke-dasharray="5,2" d="M597.902,-458.504C667.553,-451.819 739.024,-443.624 754,-437 781.523,-424.827 806.179,-398.669 818.9,-383.509"/>
<polygon fill="#9a32cd" stroke="#9a32cd" points="597.269,-455.048 587.645,-459.479 597.932,-462.017 597.269,-455.048"/>
<text text-anchor="middle" x="681" y="-506.8" font-family="Helvetica,sans-Serif" font-size="14.00"> FaceTransformation</text>
<text text-anchor="middle" x="681" y="-491.8" font-family="Helvetica,sans-Serif" font-size="14.00">Transformation2</text>
<text text-anchor="middle" x="681" y="-476.8" font-family="Helvetica,sans-Serif" font-size="14.00">Transformation</text>
<text text-anchor="middle" x="681" y="-461.8" font-family="Helvetica,sans-Serif" font-size="14.00">EdgeTransformation</text>
</g>
<!-- Node4 -->
<g id="node4" class="node"><title>Node4</title>
<g id="a_node4"><a xlink:href="classmfem_1_1Array.html" target="_top" xlink:title="mfem::Array\&lt; int \&gt;">
<polygon fill="white" stroke="red" points="0,-540.5 0,-563.5 158,-563.5 158,-540.5 0,-540.5"/>
<text text-anchor="middle" x="79" y="-548.3" font-family="Helvetica,sans-Serif" font-size="14.00">mfem::Array&lt; int &gt;</text>
</a>
</g>
</g>
<!-- Node4&#45;&gt;Node2 -->
<g id="edge4" class="edge"><title>Node4&#45;&gt;Node2</title>
<path fill="none" stroke="#9a32cd" stroke-dasharray="5,2" d="M168.229,-558.012C340.016,-568.926 706.775,-588.058 754,-556 813.823,-515.39 825.295,-417.59 827.485,-383.754"/>
<polygon fill="#9a32cd" stroke="#9a32cd" points="168.402,-554.516 158.199,-557.37 167.955,-561.501 168.402,-554.516"/>
<text text-anchor="middle" x="451" y="-637.8" font-family="Helvetica,sans-Serif" font-size="14.00"> fc_be_to_edge</text>
<text text-anchor="middle" x="451" y="-622.8" font-family="Helvetica,sans-Serif" font-size="14.00">attributes</text>
<text text-anchor="middle" x="451" y="-607.8" font-family="Helvetica,sans-Serif" font-size="14.00">be_to_edge</text>
<text text-anchor="middle" x="451" y="-592.8" font-family="Helvetica,sans-Serif" font-size="14.00">be_to_face</text>
<text text-anchor="middle" x="451" y="-577.8" font-family="Helvetica,sans-Serif" font-size="14.00">bdr_attributes</text>
</g>
<!-- Node5 -->
<g id="node5" class="node"><title>Node5</title>
<g id="a_node5"><a xlink:href="classmfem_1_1NCMesh.html" target="_top" xlink:title="A class for non&#45;conforming AMR on higher&#45;order hexahedral, quadrilateral or triangular meshes...">
<polygon fill="white" stroke="red" points="388,-512.5 388,-535.5 514,-535.5 514,-512.5 388,-512.5"/>
<text text-anchor="middle" x="451" y="-520.3" font-family="Helvetica,sans-Serif" font-size="14.00">mfem::NCMesh</text>
</a>
</g>
</g>
<!-- Node4&#45;&gt;Node5 -->
<g id="edge6" class="edge"><title>Node4&#45;&gt;Node5</title>
<path fill="none" stroke="#9a32cd" stroke-dasharray="5,2" d="M168.236,-543.645C170.853,-543.424 173.445,-543.208 176,-543 248.715,-537.071 332.384,-531.443 387.94,-527.873"/>
<polygon fill="#9a32cd" stroke="#9a32cd" points="167.714,-540.177 158.052,-544.523 168.315,-547.151 167.714,-540.177"/>
<text text-anchor="middle" x="235" y="-546.8" font-family="Helvetica,sans-Serif" font-size="14.00"> vertex_nodeId</text>
</g>
<!-- Node4&#45;&gt;Node7 -->
<g id="edge10" class="edge"><title>Node4&#45;&gt;Node7</title>
<path fill="none" stroke="#9a32cd" stroke-dasharray="5,2" d="M110.701,-535.814C154.315,-513.45 237.234,-473.234 312,-450 432.115,-412.673 503.299,-488.125 590,-397 629.903,-355.061 564.33,-306 608,-268 671.58,-212.675 922.264,-241.126 1047.3,-259.473"/>
<polygon fill="#9a32cd" stroke="#9a32cd" points="109.033,-532.737 101.754,-540.435 112.245,-538.956 109.033,-532.737"/>
<text text-anchor="middle" x="681" y="-421.8" font-family="Helvetica,sans-Serif" font-size="14.00"> v_spaceOffsets</text>
<text text-anchor="middle" x="681" y="-406.8" font-family="Helvetica,sans-Serif" font-size="14.00">p_meshOffsets</text>
<text text-anchor="middle" x="681" y="-391.8" font-family="Helvetica,sans-Serif" font-size="14.00">edge_to_knot</text>
<text text-anchor="middle" x="681" y="-376.8" font-family="Helvetica,sans-Serif" font-size="14.00">f_spaceOffsets</text>
<text text-anchor="middle" x="681" y="-361.8" font-family="Helvetica,sans-Serif" font-size="14.00">e_meshOffsets</text>
<text text-anchor="middle" x="681" y="-346.8" font-family="Helvetica,sans-Serif" font-size="14.00">el_to_patch</text>
<text text-anchor="middle" x="681" y="-331.8" font-family="Helvetica,sans-Serif" font-size="14.00">p_spaceOffsets</text>
<text text-anchor="middle" x="681" y="-316.8" font-family="Helvetica,sans-Serif" font-size="14.00">bel_to_patch</text>
<text text-anchor="middle" x="681" y="-301.8" font-family="Helvetica,sans-Serif" font-size="14.00">e_spaceOffsets</text>
<text text-anchor="middle" x="681" y="-286.8" font-family="Helvetica,sans-Serif" font-size="14.00">v_meshOffsets</text>
<text text-anchor="middle" x="681" y="-271.8" font-family="Helvetica,sans-Serif" font-size="14.00">...</text>
</g>
<!-- Node4&#45;&gt;Node1 -->
<g id="edge14" class="edge"><title>Node4&#45;&gt;Node1</title>
<path fill="none" stroke="#9a32cd" stroke-dasharray="5,2" d="M108.685,-568.607C169.481,-602.19 316.671,-675 450,-675 450,-675 450,-675 1121,-675 1371.56,-675 1443.53,-243.412 1454.44,-165.861"/>
<polygon fill="#9a32cd" stroke="#9a32cd" points="110.12,-565.4 99.6841,-563.572 106.702,-571.509 110.12,-565.4"/>
<text text-anchor="middle" x="829" y="-693.8" font-family="Helvetica,sans-Serif" font-size="14.00"> dof_ldof_array</text>
<text text-anchor="middle" x="829" y="-678.8" font-family="Helvetica,sans-Serif" font-size="14.00">dof_elem_array</text>
</g>
<!-- Node5&#45;&gt;Node2 -->
<g id="edge5" class="edge"><title>Node5&#45;&gt;Node2</title>
<path fill="none" stroke="#9a32cd" stroke-dasharray="5,2" d="M524.333,-531.462C601.366,-537.954 717.174,-543.098 754,-520 803.889,-488.708 821.33,-412.627 826.299,-383.555"/>
<polygon fill="#9a32cd" stroke="#9a32cd" points="524.468,-527.96 514.203,-530.582 523.862,-534.934 524.468,-527.96"/>
<text text-anchor="middle" x="681" y="-540.8" font-family="Helvetica,sans-Serif" font-size="14.00"> ncmesh</text>
</g>
<!-- Node6 -->
<g id="node6" class="node"><title>Node6</title>
<g id="a_node6"><a xlink:href="classmfem_1_1Table.html" target="_top" xlink:title="mfem::Table">
<polygon fill="white" stroke="black" points="26,-203.5 26,-226.5 132,-226.5 132,-203.5 26,-203.5"/>
<text text-anchor="middle" x="79" y="-211.3" font-family="Helvetica,sans-Serif" font-size="14.00">mfem::Table</text>
</a>
</g>
</g>
<!-- Node6&#45;&gt;Node5 -->
<g id="edge7" class="edge"><title>Node6&#45;&gt;Node5</title>
<path fill="none" stroke="#9a32cd" stroke-dasharray="5,2" d="M90.9906,-235.74C119.729,-287.828 202.524,-424.772 312,-492 334.634,-505.9 362.732,-513.767 387.655,-518.217"/>
<polygon fill="#9a32cd" stroke="#9a32cd" points="93.965,-233.883 86.115,-226.768 87.8145,-237.225 93.965,-233.883"/>
<text text-anchor="middle" x="235" y="-479.8" font-family="Helvetica,sans-Serif" font-size="14.00"> element_vertex</text>
</g>
<!-- Node6&#45;&gt;Node7 -->
<g id="edge11" class="edge"><title>Node6&#45;&gt;Node7</title>
<path fill="none" stroke="#9a32cd" stroke-dasharray="5,2" d="M142.203,-207.892C261.303,-195.466 529.657,-173.189 754,-196 872.584,-208.057 1009.54,-241.609 1077,-259.469"/>
<polygon fill="#9a32cd" stroke="#9a32cd" points="141.751,-204.42 132.175,-208.952 142.487,-211.381 141.751,-204.42"/>
<text text-anchor="middle" x="681" y="-214.8" font-family="Helvetica,sans-Serif" font-size="14.00"> el_dof</text>
<text text-anchor="middle" x="681" y="-199.8" font-family="Helvetica,sans-Serif" font-size="14.00">bel_dof</text>
</g>
<!-- Node6&#45;&gt;Node2 -->
<g id="edge12" class="edge"><title>Node6&#45;&gt;Node2</title>
<path fill="none" stroke="#9a32cd" stroke-dasharray="5,2" d="M142.512,-215.16C299.641,-216.021 702.277,-221.239 754,-252 795.653,-276.772 817.141,-335.009 824.74,-360.127"/>
<polygon fill="#9a32cd" stroke="#9a32cd" points="142.094,-211.658 132.077,-215.107 142.059,-218.658 142.094,-211.658"/>
<text text-anchor="middle" x="451" y="-381.8" font-family="Helvetica,sans-Serif" font-size="14.00"> el_to_face</text>
<text text-anchor="middle" x="451" y="-366.8" font-family="Helvetica,sans-Serif" font-size="14.00">el_to_edge</text>
<text text-anchor="middle" x="451" y="-351.8" font-family="Helvetica,sans-Serif" font-size="14.00">c_bel_to_edge</text>
<text text-anchor="middle" x="451" y="-336.8" font-family="Helvetica,sans-Serif" font-size="14.00">edge_vertex</text>
<text text-anchor="middle" x="451" y="-321.8" font-family="Helvetica,sans-Serif" font-size="14.00">face_edge</text>
<text text-anchor="middle" x="451" y="-306.8" font-family="Helvetica,sans-Serif" font-size="14.00">el_to_el</text>
<text text-anchor="middle" x="451" y="-291.8" font-family="Helvetica,sans-Serif" font-size="14.00">c_el_to_face</text>
<text text-anchor="middle" x="451" y="-276.8" font-family="Helvetica,sans-Serif" font-size="14.00">f_bel_to_edge</text>
<text text-anchor="middle" x="451" y="-261.8" font-family="Helvetica,sans-Serif" font-size="14.00">c_el_to_edge</text>
<text text-anchor="middle" x="451" y="-246.8" font-family="Helvetica,sans-Serif" font-size="14.00">f_el_to_face</text>
<text text-anchor="middle" x="451" y="-231.8" font-family="Helvetica,sans-Serif" font-size="14.00">...</text>
</g>
<!-- Node6&#45;&gt;Node1 -->
<g id="edge17" class="edge"><title>Node6&#45;&gt;Node1</title>
<path fill="none" stroke="#9a32cd" stroke-dasharray="5,2" d="M132.137,-200.88C203.369,-182.861 335.36,-154 450,-154 450,-154 450,-154 1121,-154 1198.5,-154 1286.08,-154 1352.25,-154"/>
<polygon fill="#9a32cd" stroke="#9a32cd" points="130.898,-197.584 122.078,-203.455 132.634,-204.365 130.898,-197.584"/>
<text text-anchor="middle" x="829" y="-172.8" font-family="Helvetica,sans-Serif" font-size="14.00"> bdrElem_dof</text>
<text text-anchor="middle" x="829" y="-157.8" font-family="Helvetica,sans-Serif" font-size="14.00">elem_dof</text>
</g>
<!-- Node7&#45;&gt;Node2 -->
<g id="edge8" class="edge"><title>Node7&#45;&gt;Node2</title>
<path fill="none" stroke="#9a32cd" stroke-dasharray="5,2" d="M1015.74,-281.691C970.862,-287.485 924.005,-295.427 904,-305 876.486,-318.166 851.827,-344.897 839.102,-360.318"/>
<polygon fill="#9a32cd" stroke="#9a32cd" points="1016.39,-285.136 1025.88,-280.413 1015.52,-278.191 1016.39,-285.136"/>
<text text-anchor="middle" x="944" y="-308.8" font-family="Helvetica,sans-Serif" font-size="14.00"> NURBSext</text>
</g>
<!-- Node7&#45;&gt;Node1 -->
<g id="edge16" class="edge"><title>Node7&#45;&gt;Node1</title>
<path fill="none" stroke="#9a32cd" stroke-dasharray="5,2" d="M1163.53,-256.146C1231.08,-232.555 1361.48,-187.011 1422.71,-165.625"/>
<polygon fill="#9a32cd" stroke="#9a32cd" points="1162.32,-252.86 1154.04,-259.461 1164.63,-259.468 1162.32,-252.86"/>
<text text-anchor="middle" x="1295" y="-226.8" font-family="Helvetica,sans-Serif" font-size="14.00"> NURBSext</text>
</g>
<!-- Node8 -->
<g id="node8" class="node"><title>Node8</title>
<g id="a_node8"><a xlink:href="classmfem_1_1SparseMatrix.html" target="_top" xlink:title="Data type sparse matrix. ">
<polygon fill="white" stroke="red" points="1039,-100.5 1039,-123.5 1201,-123.5 1201,-100.5 1039,-100.5"/>
<text text-anchor="middle" x="1120" y="-108.3" font-family="Helvetica,sans-Serif" font-size="14.00">mfem::SparseMatrix</text>
</a>
</g>
</g>
<!-- Node8&#45;&gt;Node1 -->
<g id="edge13" class="edge"><title>Node8&#45;&gt;Node1</title>
<path fill="none" stroke="#9a32cd" stroke-dasharray="5,2" d="M1211.27,-103.932C1249.4,-102.385 1294.12,-103.029 1334,-110 1369.27,-116.165 1407.79,-131.645 1431.92,-142.491"/>
<polygon fill="#9a32cd" stroke="#9a32cd" points="1211.04,-100.439 1201.22,-104.397 1211.37,-107.432 1211.04,-100.439"/>
<text text-anchor="middle" x="1295" y="-128.8" font-family="Helvetica,sans-Serif" font-size="14.00"> cR</text>
<text text-anchor="middle" x="1295" y="-113.8" font-family="Helvetica,sans-Serif" font-size="14.00">cP</text>
</g>
<!-- Node9 -->
<g id="node9" class="node"><title>Node9</title>
<g id="a_node9"><a xlink:href="classmfem_1_1Array.html" target="_top" xlink:title="mfem::Array\&lt; mfem::\lRefinementData * \&gt;">
<polygon fill="white" stroke="red" points="1032,-43 1032,-81 1208,-81 1208,-43 1032,-43"/>
<text text-anchor="start" x="1040" y="-65.8" font-family="Helvetica,sans-Serif" font-size="14.00">mfem::Array&lt; mfem::</text>
<text text-anchor="middle" x="1120" y="-50.8" font-family="Helvetica,sans-Serif" font-size="14.00">RefinementData * &gt;</text>
</a>
</g>
</g>
<!-- Node9&#45;&gt;Node1 -->
<g id="edge15" class="edge"><title>Node9&#45;&gt;Node1</title>
<path fill="none" stroke="#9a32cd" stroke-dasharray="5,2" d="M1218.43,-64.1936C1255.32,-67.1707 1297.27,-73.1866 1334,-85 1375.23,-98.2603 1418.11,-126.439 1440.41,-142.38"/>
<polygon fill="#9a32cd" stroke="#9a32cd" points="1218.39,-60.6817 1208.16,-63.4322 1217.88,-67.6625 1218.39,-60.6817"/>
<text text-anchor="middle" x="1295" y="-88.8" font-family="Helvetica,sans-Serif" font-size="14.00"> RefData</text>
</g>
<!-- Node10 -->
<g id="node10" class="node"><title>Node10</title>
<g id="a_node10"><a xlink:href="classmfem_1_1FiniteElementCollection.html" target="_top" xlink:title="mfem::FiniteElementCollection">
<polygon fill="white" stroke="black" points="1002,-0.5 1002,-23.5 1238,-23.5 1238,-0.5 1002,-0.5"/>
<text text-anchor="middle" x="1120" y="-8.3" font-family="Helvetica,sans-Serif" font-size="14.00">mfem::FiniteElementCollection</text>
</a>
</g>
</g>
<!-- Node10&#45;&gt;Node1 -->
<g id="edge18" class="edge"><title>Node10&#45;&gt;Node1</title>
<path fill="none" stroke="#9a32cd" stroke-dasharray="5,2" d="M1247.87,-23.3346C1277.08,-28.9885 1307.37,-37.4253 1334,-50 1382.57,-72.9396 1427.25,-120.402 1446.3,-142.372"/>
<polygon fill="#9a32cd" stroke="#9a32cd" points="1248.48,-19.8879 1238.01,-21.5219 1247.21,-26.7725 1248.48,-19.8879"/>
<text text-anchor="middle" x="1295" y="-53.8" font-family="Helvetica,sans-Serif" font-size="14.00"> fec</text>
</g>
</g>
</svg>
        <g id="navigator" transform="translate(0 0)" fill="#404254">
                <rect fill="#f2f5e9" fill-opacity="0.5" stroke="#606060" stroke-width=".5" x="0" y="0" width="60" height="60"/>
                <use id="zoomplus" xlink:href="#zoomPlus" x="17" y="9" onmousedown="handleZoom(evt,'in')"/>
                <use id="zoomminus" xlink:href="#zoomMin" x="42" y="9" onmousedown="handleZoom(evt,'out')"/>
                <use id="reset" xlink:href="#resetDef" x="30" y="36" onmousedown="handleReset()"/>
                <g id="arrowUp" xlink:href="#dirArrow" transform="translate(30 24)" onmousedown="handlePan(0,-1)">
                  <use xlink:href="#rim" fill="#404040">
                        <set attributeName="fill" to="#808080" begin="arrowUp.mouseover" end="arrowUp.mouseout"/>
                  </use>
                  <path fill="none" stroke="white" stroke-width="1.5" d="M0,-3.0v7 M-2.5,-0.5L0,-3.0L2.5,-0.5"/>
                </g>
                <g id="arrowRight" xlink:href="#dirArrow" transform="rotate(90) translate(36 -43)" onmousedown="handlePan(1,0)">
                  <use xlink:href="#rim" fill="#404040">
                        <set attributeName="fill" to="#808080" begin="arrowRight.mouseover" end="arrowRight.mouseout"/>
                  </use>
                  <path fill="none" stroke="white" stroke-width="1.5" d="M0,-3.0v7 M-2.5,-0.5L0,-3.0L2.5,-0.5"/>
                </g>
                <g id="arrowDown" xlink:href="#dirArrow" transform="rotate(180) translate(-30 -48)" onmousedown="handlePan(0,1)">
                  <use xlink:href="#rim" fill="#404040">
                        <set attributeName="fill" to="#808080" begin="arrowDown.mouseover" end="arrowDown.mouseout"/>
                  </use>
                  <path fill="none" stroke="white" stroke-width="1.5" d="M0,-3.0v7 M-2.5,-0.5L0,-3.0L2.5,-0.5"/>
                </g>
                <g id="arrowLeft" xlink:href="#dirArrow" transform="rotate(270) translate(-36 17)" onmousedown="handlePan(-1,0)">
                  <use xlink:href="#rim" fill="#404040">
                        <set attributeName="fill" to="#808080" begin="arrowLeft.mouseover" end="arrowLeft.mouseout"/>
                  </use>
                  <path fill="none" stroke="white" stroke-width="1.5" d="M0,-3.0v7 M-2.5,-0.5L0,-3.0L2.5,-0.5"/>
                </g>
        </g>
        <svg viewBox="0 0 15 15" width="100%" height="30px" preserveAspectRatio="xMaxYMin meet">
         <g id="arrow_out" transform="scale(0.3 0.3)">
          <a xlink:href="classmfem_1_1FiniteElementSpace__coll__graph_org.svg" target="_base">
           <rect id="button" ry="5" rx="5" y="6" x="6" height="38" width="38"
                fill="#f2f5e9" fill-opacity="0.5" stroke="#606060" stroke-width="1.0"/>
           <path id="arrow"
             d="M 11.500037,31.436501 C 11.940474,20.09759 22.043105,11.32322 32.158766,21.979434 L 37.068811,17.246167 C 37.068811,17.246167 37.088388,32 37.088388,32 L 22.160133,31.978069 C 22.160133,31.978069 26.997745,27.140456 26.997745,27.140456 C 18.528582,18.264221 13.291696,25.230495 11.500037,31.436501 z"
             style="fill:#404040;"/>
          </a>
         </g>
        </svg>
</svg>
