<?xml version="1.0" encoding="UTF-8" standalone="no"?>
<!DOCTYPE svg PUBLIC "-//W3C//DTD SVG 1.1//EN"
 "http://www.w3.org/Graphics/SVG/1.1/DTD/svg11.dtd">
<!-- Generated by graphviz version 2.30.1 (20200304.1809)
 -->
<!-- Title: mfem::DiscreteLinearOperator Pages: 1 -->
<!--zoomable 278 -->
<svg id="main" version="1.1" xmlns="http://www.w3.org/2000/svg" xmlns:xlink="http://www.w3.org/1999/xlink" xml:space="preserve" onload="init(evt)">
<style type="text/css"><![CDATA[
.edge:hover path { stroke: red; }
.edge:hover polygon { stroke: red; fill: red; }
]]></style>
<script type="text/javascript"><![CDATA[
var edges = document.getElementsByTagName('g');
if (edges && edges.length) {
  for (var i=0;i<edges.length;i++) {
    if (edges[i].id.substr(0,4)=='edge') {
      edges[i].setAttribute('class','edge');
    }
  }
}
]]></script>
        <defs>
                <circle id="rim" cx="0" cy="0" r="7"/>
                <circle id="rim2" cx="0" cy="0" r="3.5"/>
                <g id="zoomPlus">
                        <use xlink:href="#rim" fill="#404040">
                                <set attributeName="fill" to="#808080" begin="zoomplus.mouseover" end="zoomplus.mouseout"/>
                        </use>
                        <path d="M-4,0h8M0,-4v8" fill="none" stroke="white" stroke-width="1.5" pointer-events="none"/>
                </g>
                <g id="zoomMin">
                        <use xlink:href="#rim" fill="#404040">
                                <set attributeName="fill" to="#808080" begin="zoomminus.mouseover" end="zoomminus.mouseout"/>
                        </use>
                        <path d="M-4,0h8" fill="none" stroke="white" stroke-width="1.5" pointer-events="none"/>
                </g>
                <g id="dirArrow">
                        <path fill="none" stroke="white" stroke-width="1.5" d="M0,-3.0v7 M-2.5,-0.5L0,-3.0L2.5,-0.5"/>
                </g>
               <g id="resetDef">
                       <use xlink:href="#rim2" fill="#404040">
                               <set attributeName="fill" to="#808080" begin="reset.mouseover" end="reset.mouseout"/>
                       </use>
               </g>
        </defs>

<script type="text/javascript">
var viewWidth = 1728;
var viewHeight = 278;
var sectionId = 'dynsection-1';
</script>
<script xlink:href="svgpan.js"/>
<svg id="graph" class="graph">
<g id="viewport">
<title>mfem::DiscreteLinearOperator</title>
<polygon fill="white" stroke="white" points="-4,5 -4,-274 1725,-274 1725,5 -4,5"/>
<!-- Node1 -->
<g id="node1" class="node"><title>Node1</title>
<polygon fill="#bfbfbf" stroke="black" points="1482.5,-90.5 1482.5,-113.5 1719.5,-113.5 1719.5,-90.5 1482.5,-90.5"/>
<text text-anchor="middle" x="1601" y="-98.3" font-family="Helvetica,sans-Serif" font-size="14.00">mfem::DiscreteLinearOperator</text>
</g>
<!-- Node2 -->
<g id="node2" class="node"><title>Node2</title>
<g id="a_node2"><a xlink:href="classmfem_1_1MixedBilinearForm.html" target="_top" xlink:title="mfem::MixedBilinearForm">
<polygon fill="white" stroke="black" points="1244,-90.5 1244,-113.5 1444,-113.5 1444,-90.5 1244,-90.5"/>
<text text-anchor="middle" x="1344" y="-98.3" font-family="Helvetica,sans-Serif" font-size="14.00">mfem::MixedBilinearForm</text>
</a>
</g>
</g>
<!-- Node2&#45;&gt;Node1 -->
<g id="edge1" class="edge"><title>Node2&#45;&gt;Node1</title>
<path fill="none" stroke="midnightblue" d="M1454.6,-102C1463.77,-102 1473.06,-102 1482.28,-102"/>
<polygon fill="midnightblue" stroke="midnightblue" points="1454.32,-98.5001 1444.32,-102 1454.32,-105.5 1454.32,-98.5001"/>
</g>
<!-- Node3 -->
<g id="node3" class="node"><title>Node3</title>
<g id="a_node3"><a xlink:href="classmfem_1_1Matrix.html" target="_top" xlink:title="Abstract data type matrix. ">
<polygon fill="white" stroke="black" points="172.5,-83.5 172.5,-106.5 285.5,-106.5 285.5,-83.5 172.5,-83.5"/>
<text text-anchor="middle" x="229" y="-91.3" font-family="Helvetica,sans-Serif" font-size="14.00">mfem::Matrix</text>
</a>
</g>
</g>
<!-- Node3&#45;&gt;Node2 -->
<g id="edge2" class="edge"><title>Node3&#45;&gt;Node2</title>
<path fill="none" stroke="midnightblue" d="M295.891,-87.2033C335.797,-83.1367 387.757,-79 434,-79 434,-79 434,-79 1042,-79 1109.48,-79 1185.22,-84.8176 1243.84,-90.6011"/>
<polygon fill="midnightblue" stroke="midnightblue" points="295.338,-83.7419 285.755,-88.2609 296.064,-90.7041 295.338,-83.7419"/>
</g>
<!-- Node6 -->
<g id="node6" class="node"><title>Node6</title>
<g id="a_node6"><a xlink:href="classmfem_1_1AbstractSparseMatrix.html" target="_top" xlink:title="Abstract data type for sparse matrices. ">
<polygon fill="white" stroke="black" points="324.5,-108.5 324.5,-131.5 545.5,-131.5 545.5,-108.5 324.5,-108.5"/>
<text text-anchor="middle" x="435" y="-116.3" font-family="Helvetica,sans-Serif" font-size="14.00">mfem::AbstractSparseMatrix</text>
</a>
</g>
</g>
<!-- Node3&#45;&gt;Node6 -->
<g id="edge6" class="edge"><title>Node3&#45;&gt;Node6</title>
<path fill="none" stroke="midnightblue" d="M295.783,-103.062C309.851,-104.786 324.975,-106.639 339.875,-108.465"/>
<polygon fill="midnightblue" stroke="midnightblue" points="296.095,-99.5738 285.744,-101.831 295.244,-106.522 296.095,-99.5738"/>
</g>
<!-- Node4 -->
<g id="node4" class="node"><title>Node4</title>
<g id="a_node4"><a xlink:href="classmfem_1_1Operator.html" target="_top" xlink:title="Abstract operator. ">
<polygon fill="white" stroke="black" points="0.5,-83.5 0.5,-106.5 133.5,-106.5 133.5,-83.5 0.5,-83.5"/>
<text text-anchor="middle" x="67" y="-91.3" font-family="Helvetica,sans-Serif" font-size="14.00">mfem::Operator</text>
</a>
</g>
</g>
<!-- Node4&#45;&gt;Node3 -->
<g id="edge3" class="edge"><title>Node4&#45;&gt;Node3</title>
<path fill="none" stroke="midnightblue" d="M143.564,-95C153.237,-95 162.996,-95 172.274,-95"/>
<polygon fill="midnightblue" stroke="midnightblue" points="143.54,-91.5001 133.54,-95 143.54,-98.5001 143.54,-91.5001"/>
</g>
<!-- Node5 -->
<g id="node5" class="node"><title>Node5</title>
<g id="a_node5"><a xlink:href="classmfem_1_1SparseMatrix.html" target="_top" xlink:title="Data type sparse matrix. ">
<polygon fill="white" stroke="black" points="692,-113.5 692,-136.5 854,-136.5 854,-113.5 692,-113.5"/>
<text text-anchor="middle" x="773" y="-121.3" font-family="Helvetica,sans-Serif" font-size="14.00">mfem::SparseMatrix</text>
</a>
</g>
</g>
<!-- Node5&#45;&gt;Node2 -->
<g id="edge4" class="edge"><title>Node5&#45;&gt;Node2</title>
<path fill="none" stroke="#9a32cd" stroke-dasharray="5,2" d="M864.129,-121.357C967.588,-117.175 1136.76,-110.337 1243.86,-106.007"/>
<polygon fill="#9a32cd" stroke="#9a32cd" points="863.867,-117.864 854.016,-121.766 864.15,-124.859 863.867,-117.864"/>
<text text-anchor="middle" x="1041" y="-122.8" font-family="Helvetica,sans-Serif" font-size="14.00"> mat</text>
</g>
<!-- Node7 -->
<g id="node7" class="node"><title>Node7</title>
<g id="a_node7"><a xlink:href="classmfem_1_1FiniteElementSpace.html" target="_top" xlink:title="Abstract finite element space. ">
<polygon fill="white" stroke="red" points="936.5,-178.5 936.5,-201.5 1145.5,-201.5 1145.5,-178.5 936.5,-178.5"/>
<text text-anchor="middle" x="1041" y="-186.3" font-family="Helvetica,sans-Serif" font-size="14.00">mfem::FiniteElementSpace</text>
</a>
</g>
</g>
<!-- Node5&#45;&gt;Node7 -->
<g id="edge11" class="edge"><title>Node5&#45;&gt;Node7</title>
<path fill="none" stroke="#9a32cd" stroke-dasharray="5,2" d="M844.365,-138.575C867.865,-143.396 894.139,-149.1 918,-155 946.557,-162.061 978.507,-171.275 1002.55,-178.477"/>
<polygon fill="#9a32cd" stroke="#9a32cd" points="844.976,-135.127 834.479,-136.564 843.581,-141.987 844.976,-135.127"/>
<text text-anchor="middle" x="895" y="-173.8" font-family="Helvetica,sans-Serif" font-size="14.00"> cR</text>
<text text-anchor="middle" x="895" y="-158.8" font-family="Helvetica,sans-Serif" font-size="14.00">cP</text>
</g>
<!-- Node6&#45;&gt;Node5 -->
<g id="edge5" class="edge"><title>Node6&#45;&gt;Node5</title>
<path fill="none" stroke="midnightblue" d="M555.713,-121.781C600.899,-122.454 651.179,-123.202 691.881,-123.808"/>
<polygon fill="midnightblue" stroke="midnightblue" points="555.605,-118.28 545.554,-121.63 555.501,-125.279 555.605,-118.28"/>
</g>
<!-- Node7&#45;&gt;Node2 -->
<g id="edge7" class="edge"><title>Node7&#45;&gt;Node2</title>
<path fill="none" stroke="#9a32cd" stroke-dasharray="5,2" d="M1095.27,-175.778C1132.08,-165.817 1182.14,-152.01 1226,-139 1253.57,-130.822 1284.6,-120.98 1307.77,-113.503"/>
<polygon fill="#9a32cd" stroke="#9a32cd" points="1093.99,-172.497 1085.25,-178.482 1095.82,-179.255 1093.99,-172.497"/>
<text text-anchor="middle" x="1195" y="-175.8" font-family="Helvetica,sans-Serif" font-size="14.00"> trial_fes</text>
<text text-anchor="middle" x="1195" y="-160.8" font-family="Helvetica,sans-Serif" font-size="14.00">test_fes</text>
</g>
<!-- Node8 -->
<g id="node8" class="node"><title>Node8</title>
<g id="a_node8"><a xlink:href="classmfem_1_1Mesh.html" target="_top" xlink:title="mfem::Mesh">
<polygon fill="white" stroke="red" points="720,-156.5 720,-179.5 826,-179.5 826,-156.5 720,-156.5"/>
<text text-anchor="middle" x="773" y="-164.3" font-family="Helvetica,sans-Serif" font-size="14.00">mfem::Mesh</text>
</a>
</g>
</g>
<!-- Node8&#45;&gt;Node7 -->
<g id="edge8" class="edge"><title>Node8&#45;&gt;Node7</title>
<path fill="none" stroke="#9a32cd" stroke-dasharray="5,2" d="M828.579,-181.766C842.635,-184.739 857.802,-187.453 872,-189 892.732,-191.259 914.988,-192.334 936.3,-192.71"/>
<polygon fill="#9a32cd" stroke="#9a32cd" points="829.088,-178.295 818.57,-179.568 827.586,-185.132 829.088,-178.295"/>
<text text-anchor="middle" x="895" y="-196.8" font-family="Helvetica,sans-Serif" font-size="14.00"> mesh</text>
</g>
<!-- Node8&#45;&gt;Node8 -->
<g id="edge9" class="edge"><title>Node8&#45;&gt;Node8</title>
<path fill="none" stroke="#9a32cd" stroke-dasharray="5,2" d="M750.642,-189.472C752.591,-194.391 760.043,-198 773,-198 793.73,-198 800.371,-188.76 792.921,-179.701"/>
<polygon fill="#9a32cd" stroke="#9a32cd" points="754.055,-190.251 753.079,-179.701 747.263,-188.557 754.055,-190.251"/>
<text text-anchor="middle" x="773" y="-201.8" font-family="Helvetica,sans-Serif" font-size="14.00"> nc_coarse_level</text>
</g>
<!-- Node9 -->
<g id="node9" class="node"><title>Node9</title>
<g id="a_node9"><a xlink:href="classmfem_1_1Array.html" target="_top" xlink:title="mfem::Array\&lt; int \&gt;">
<polygon fill="white" stroke="red" points="356,-194.5 356,-217.5 514,-217.5 514,-194.5 356,-194.5"/>
<text text-anchor="middle" x="435" y="-202.3" font-family="Helvetica,sans-Serif" font-size="14.00">mfem::Array&lt; int &gt;</text>
</a>
</g>
</g>
<!-- Node9&#45;&gt;Node8 -->
<g id="edge10" class="edge"><title>Node9&#45;&gt;Node8</title>
<path fill="none" stroke="#9a32cd" stroke-dasharray="5,2" d="M470.329,-190.355C495.629,-179.718 531.202,-166.597 564,-161 612.192,-152.775 625.142,-159.257 674,-161 688.916,-161.532 705.084,-162.518 719.906,-163.586"/>
<polygon fill="#9a32cd" stroke="#9a32cd" points="468.633,-187.274 460.827,-194.437 471.396,-193.706 468.633,-187.274"/>
<text text-anchor="middle" x="619" y="-224.8" font-family="Helvetica,sans-Serif" font-size="14.00"> fc_be_to_edge</text>
<text text-anchor="middle" x="619" y="-209.8" font-family="Helvetica,sans-Serif" font-size="14.00">attributes</text>
<text text-anchor="middle" x="619" y="-194.8" font-family="Helvetica,sans-Serif" font-size="14.00">be_to_edge</text>
<text text-anchor="middle" x="619" y="-179.8" font-family="Helvetica,sans-Serif" font-size="14.00">be_to_face</text>
<text text-anchor="middle" x="619" y="-164.8" font-family="Helvetica,sans-Serif" font-size="14.00">bdr_attributes</text>
</g>
<!-- Node9&#45;&gt;Node7 -->
<g id="edge12" class="edge"><title>Node9&#45;&gt;Node7</title>
<path fill="none" stroke="#9a32cd" stroke-dasharray="5,2" d="M484.615,-220.176C508.332,-226.375 537.415,-232.926 564,-236 719.877,-254.023 905.04,-220.361 991.284,-201.507"/>
<polygon fill="#9a32cd" stroke="#9a32cd" points="485.367,-216.755 474.803,-217.553 483.559,-223.517 485.367,-216.755"/>
<text text-anchor="middle" x="773" y="-258.8" font-family="Helvetica,sans-Serif" font-size="14.00"> dof_ldof_array</text>
<text text-anchor="middle" x="773" y="-243.8" font-family="Helvetica,sans-Serif" font-size="14.00">dof_elem_array</text>
</g>
<!-- Node10 -->
<g id="node10" class="node"><title>Node10</title>
<g id="a_node10"><a xlink:href="classmfem_1_1Array.html" target="_top" xlink:title="mfem::Array\&lt; mfem::\lBilinearFormIntegrator * \&gt;">
<polygon fill="white" stroke="red" points="937,-0 937,-38 1145,-38 1145,-0 937,-0"/>
<text text-anchor="start" x="945" y="-22.8" font-family="Helvetica,sans-Serif" font-size="14.00">mfem::Array&lt; mfem::</text>
<text text-anchor="middle" x="1041" y="-7.8" font-family="Helvetica,sans-Serif" font-size="14.00">BilinearFormIntegrator * &gt;</text>
</a>
</g>
</g>
<!-- Node10&#45;&gt;Node2 -->
<g id="edge13" class="edge"><title>Node10&#45;&gt;Node2</title>
<path fill="none" stroke="#9a32cd" stroke-dasharray="5,2" d="M1155.52,-8.95022C1179.23,-9.79455 1203.76,-12.9163 1226,-20 1270.2,-34.0778 1312.25,-71.3428 1331.71,-90.4082"/>
<polygon fill="#9a32cd" stroke="#9a32cd" points="1155.5,-5.44891 1145.42,-8.72289 1155.34,-12.4471 1155.5,-5.44891"/>
<text text-anchor="middle" x="1195" y="-53.8" font-family="Helvetica,sans-Serif" font-size="14.00"> skt</text>
<text text-anchor="middle" x="1195" y="-38.8" font-family="Helvetica,sans-Serif" font-size="14.00">bdr</text>
<text text-anchor="middle" x="1195" y="-23.8" font-family="Helvetica,sans-Serif" font-size="14.00">dom</text>
</g>
</g>
</svg>
        <g id="navigator" transform="translate(0 0)" fill="#404254">
                <rect fill="#f2f5e9" fill-opacity="0.5" stroke="#606060" stroke-width=".5" x="0" y="0" width="60" height="60"/>
                <use id="zoomplus" xlink:href="#zoomPlus" x="17" y="9" onmousedown="handleZoom(evt,'in')"/>
                <use id="zoomminus" xlink:href="#zoomMin" x="42" y="9" onmousedown="handleZoom(evt,'out')"/>
                <use id="reset" xlink:href="#resetDef" x="30" y="36" onmousedown="handleReset()"/>
                <g id="arrowUp" xlink:href="#dirArrow" transform="translate(30 24)" onmousedown="handlePan(0,-1)">
                  <use xlink:href="#rim" fill="#404040">
                        <set attributeName="fill" to="#808080" begin="arrowUp.mouseover" end="arrowUp.mouseout"/>
                  </use>
                  <path fill="none" stroke="white" stroke-width="1.5" d="M0,-3.0v7 M-2.5,-0.5L0,-3.0L2.5,-0.5"/>
                </g>
                <g id="arrowRight" xlink:href="#dirArrow" transform="rotate(90) translate(36 -43)" onmousedown="handlePan(1,0)">
                  <use xlink:href="#rim" fill="#404040">
                        <set attributeName="fill" to="#808080" begin="arrowRight.mouseover" end="arrowRight.mouseout"/>
                  </use>
                  <path fill="none" stroke="white" stroke-width="1.5" d="M0,-3.0v7 M-2.5,-0.5L0,-3.0L2.5,-0.5"/>
                </g>
                <g id="arrowDown" xlink:href="#dirArrow" transform="rotate(180) translate(-30 -48)" onmousedown="handlePan(0,1)">
                  <use xlink:href="#rim" fill="#404040">
                        <set attributeName="fill" to="#808080" begin="arrowDown.mouseover" end="arrowDown.mouseout"/>
                  </use>
                  <path fill="none" stroke="white" stroke-width="1.5" d="M0,-3.0v7 M-2.5,-0.5L0,-3.0L2.5,-0.5"/>
                </g>
                <g id="arrowLeft" xlink:href="#dirArrow" transform="rotate(270) translate(-36 17)" onmousedown="handlePan(-1,0)">
                  <use xlink:href="#rim" fill="#404040">
                        <set attributeName="fill" to="#808080" begin="arrowLeft.mouseover" end="arrowLeft.mouseout"/>
                  </use>
                  <path fill="none" stroke="white" stroke-width="1.5" d="M0,-3.0v7 M-2.5,-0.5L0,-3.0L2.5,-0.5"/>
                </g>
        </g>
        <svg viewBox="0 0 15 15" width="100%" height="30px" preserveAspectRatio="xMaxYMin meet">
         <g id="arrow_out" transform="scale(0.3 0.3)">
          <a xlink:href="classmfem_1_1DiscreteLinearOperator__coll__graph_org.svg" target="_base">
           <rect id="button" ry="5" rx="5" y="6" x="6" height="38" width="38"
                fill="#f2f5e9" fill-opacity="0.5" stroke="#606060" stroke-width="1.0"/>
           <path id="arrow"
             d="M 11.500037,31.436501 C 11.940474,20.09759 22.043105,11.32322 32.158766,21.979434 L 37.068811,17.246167 C 37.068811,17.246167 37.088388,32 37.088388,32 L 22.160133,31.978069 C 22.160133,31.978069 26.997745,27.140456 26.997745,27.140456 C 18.528582,18.264221 13.291696,25.230495 11.500037,31.436501 z"
             style="fill:#404040;"/>
          </a>
         </g>
        </svg>
</svg>
