<?xml version="1.0" encoding="UTF-8" standalone="no"?>
<!DOCTYPE svg PUBLIC "-//W3C//DTD SVG 1.1//EN"
 "http://www.w3.org/Graphics/SVG/1.1/DTD/svg11.dtd">
<!-- Generated by graphviz version 2.30.1 (20200304.1809)
 -->
<!-- Title: mfem::Mesh Pages: 1 -->
<svg width="1180pt" height="653pt"
 viewBox="0.00 0.00 1180.00 652.95" xmlns="http://www.w3.org/2000/svg" xmlns:xlink="http://www.w3.org/1999/xlink">
<g id="graph0" class="graph" transform="scale(1 1) rotate(0) translate(4 648.949)">
<title>mfem::Mesh</title>
<polygon fill="white" stroke="white" points="-4,5 -4,-648.949 1177,-648.949 1177,5 -4,5"/>
<!-- Node1 -->
<g id="node1" class="node"><title>Node1</title>
<polygon fill="#bfbfbf" stroke="black" points="762,-218.449 762,-241.449 868,-241.449 868,-218.449 762,-218.449"/>
<text text-anchor="middle" x="815" y="-226.249" font-family="Helvetica,sans-Serif" font-size="14.00">mfem::Mesh</text>
</g>
<!-- Node1&#45;&gt;Node1 -->
<g id="edge1" class="edge"><title>Node1&#45;&gt;Node1</title>
<path fill="none" stroke="#9a32cd" stroke-dasharray="5,2" d="M794.841,-251.421C796.598,-256.34 803.318,-259.949 815,-259.949 833.691,-259.949 839.678,-250.71 832.961,-241.65"/>
<polygon fill="#9a32cd" stroke="#9a32cd" points="798.259,-252.175 797.039,-241.65 791.43,-250.639 798.259,-252.175"/>
<text text-anchor="middle" x="815" y="-263.749" font-family="Helvetica,sans-Serif" font-size="14.00"> nc_coarse_level</text>
</g>
<!-- Node7 -->
<g id="node7" class="node"><title>Node7</title>
<g id="a_node7"><a xlink:href="classmfem_1_1NURBSExtension.html" target="_top" xlink:title="mfem::NURBSExtension">
<polygon fill="white" stroke="red" points="984,-256.449 984,-279.449 1172,-279.449 1172,-256.449 984,-256.449"/>
<text text-anchor="middle" x="1078" y="-264.249" font-family="Helvetica,sans-Serif" font-size="14.00">mfem::NURBSExtension</text>
</a>
</g>
</g>
<!-- Node1&#45;&gt;Node7 -->
<g id="edge9" class="edge"><title>Node1&#45;&gt;Node7</title>
<path fill="none" stroke="#9a32cd" stroke-dasharray="5,2" d="M878.373,-227.14C880.949,-227.067 883.499,-227.003 886,-226.949 921.547,-226.188 930.999,-220.692 966,-226.949 997.143,-232.517 1030.99,-246.223 1053.01,-256.261"/>
<polygon fill="#9a32cd" stroke="#9a32cd" points="878.242,-223.642 868.359,-227.46 878.466,-230.639 878.242,-223.642"/>
<text text-anchor="middle" x="926" y="-230.749" font-family="Helvetica,sans-Serif" font-size="14.00"> patchTopo</text>
</g>
<!-- Node2 -->
<g id="node2" class="node"><title>Node2</title>
<g id="a_node2"><a xlink:href="classmfem_1_1IsoparametricTransformation.html" target="_top" xlink:title="mfem::IsoparametricTransformation">
<polygon fill="white" stroke="red" points="302.5,-227.449 302.5,-250.449 579.5,-250.449 579.5,-227.449 302.5,-227.449"/>
<text text-anchor="middle" x="441" y="-235.249" font-family="Helvetica,sans-Serif" font-size="14.00">mfem::IsoparametricTransformation</text>
</a>
</g>
</g>
<!-- Node2&#45;&gt;Node1 -->
<g id="edge2" class="edge"><title>Node2&#45;&gt;Node1</title>
<path fill="none" stroke="#9a32cd" stroke-dasharray="5,2" d="M589.821,-231.194C592.569,-231.106 595.298,-231.025 598,-230.949 653.854,-229.388 717.863,-229.306 761.612,-229.509"/>
<polygon fill="#9a32cd" stroke="#9a32cd" points="589.669,-227.697 579.793,-231.534 589.906,-234.693 589.669,-227.697"/>
<text text-anchor="middle" x="671" y="-279.749" font-family="Helvetica,sans-Serif" font-size="14.00"> FaceTransformation</text>
<text text-anchor="middle" x="671" y="-264.749" font-family="Helvetica,sans-Serif" font-size="14.00">Transformation2</text>
<text text-anchor="middle" x="671" y="-249.749" font-family="Helvetica,sans-Serif" font-size="14.00">Transformation</text>
<text text-anchor="middle" x="671" y="-234.749" font-family="Helvetica,sans-Serif" font-size="14.00">EdgeTransformation</text>
</g>
<!-- Node3 -->
<g id="node3" class="node"><title>Node3</title>
<g id="a_node3"><a xlink:href="classmfem_1_1Array.html" target="_top" xlink:title="mfem::Array\&lt; int \&gt;">
<polygon fill="white" stroke="red" points="0,-387.449 0,-410.449 158,-410.449 158,-387.449 0,-387.449"/>
<text text-anchor="middle" x="79" y="-395.249" font-family="Helvetica,sans-Serif" font-size="14.00">mfem::Array&lt; int &gt;</text>
</a>
</g>
</g>
<!-- Node3&#45;&gt;Node1 -->
<g id="edge3" class="edge"><title>Node3&#45;&gt;Node1</title>
<path fill="none" stroke="#9a32cd" stroke-dasharray="5,2" d="M168.372,-401.666C338.106,-406.146 697.148,-411.773 744,-380.949 793.486,-348.392 808.605,-271.148 812.664,-241.664"/>
<polygon fill="#9a32cd" stroke="#9a32cd" points="168.302,-398.163 158.211,-401.393 168.114,-405.16 168.302,-398.163"/>
<text text-anchor="middle" x="441" y="-469.749" font-family="Helvetica,sans-Serif" font-size="14.00"> fc_be_to_edge</text>
<text text-anchor="middle" x="441" y="-454.749" font-family="Helvetica,sans-Serif" font-size="14.00">attributes</text>
<text text-anchor="middle" x="441" y="-439.749" font-family="Helvetica,sans-Serif" font-size="14.00">be_to_edge</text>
<text text-anchor="middle" x="441" y="-424.749" font-family="Helvetica,sans-Serif" font-size="14.00">be_to_face</text>
<text text-anchor="middle" x="441" y="-409.749" font-family="Helvetica,sans-Serif" font-size="14.00">bdr_attributes</text>
</g>
<!-- Node4 -->
<g id="node4" class="node"><title>Node4</title>
<g id="a_node4"><a xlink:href="classmfem_1_1NCMesh.html" target="_top" xlink:title="A class for non&#45;conforming AMR on higher&#45;order hexahedral, quadrilateral or triangular meshes...">
<polygon fill="white" stroke="red" points="378,-339.449 378,-362.449 504,-362.449 504,-339.449 378,-339.449"/>
<text text-anchor="middle" x="441" y="-347.249" font-family="Helvetica,sans-Serif" font-size="14.00">mfem::NCMesh</text>
</a>
</g>
</g>
<!-- Node3&#45;&gt;Node4 -->
<g id="edge5" class="edge"><title>Node3&#45;&gt;Node4</title>
<path fill="none" stroke="#9a32cd" stroke-dasharray="5,2" d="M121.953,-384.074C138.579,-378.762 157.993,-373.274 176,-369.949 244.347,-357.328 324.086,-352.988 377.899,-351.55"/>
<polygon fill="#9a32cd" stroke="#9a32cd" points="120.411,-380.896 111.999,-387.338 122.592,-387.548 120.411,-380.896"/>
<text text-anchor="middle" x="230" y="-373.749" font-family="Helvetica,sans-Serif" font-size="14.00"> vertex_nodeId</text>
</g>
<!-- Node3&#45;&gt;Node7 -->
<g id="edge10" class="edge"><title>Node3&#45;&gt;Node7</title>
<path fill="none" stroke="#9a32cd" stroke-dasharray="5,2" d="M111.011,-415.215C152.963,-436.213 230.761,-471.633 302,-484.949 423.452,-507.652 459.053,-510.202 580,-484.949 778.151,-443.577 994.023,-318.639 1058.09,-279.681"/>
<polygon fill="#9a32cd" stroke="#9a32cd" points="112.382,-411.986 101.88,-410.588 109.218,-418.23 112.382,-411.986"/>
<text text-anchor="middle" x="671" y="-633.749" font-family="Helvetica,sans-Serif" font-size="14.00"> v_spaceOffsets</text>
<text text-anchor="middle" x="671" y="-618.749" font-family="Helvetica,sans-Serif" font-size="14.00">p_meshOffsets</text>
<text text-anchor="middle" x="671" y="-603.749" font-family="Helvetica,sans-Serif" font-size="14.00">edge_to_knot</text>
<text text-anchor="middle" x="671" y="-588.749" font-family="Helvetica,sans-Serif" font-size="14.00">f_spaceOffsets</text>
<text text-anchor="middle" x="671" y="-573.749" font-family="Helvetica,sans-Serif" font-size="14.00">e_meshOffsets</text>
<text text-anchor="middle" x="671" y="-558.749" font-family="Helvetica,sans-Serif" font-size="14.00">el_to_patch</text>
<text text-anchor="middle" x="671" y="-543.749" font-family="Helvetica,sans-Serif" font-size="14.00">p_spaceOffsets</text>
<text text-anchor="middle" x="671" y="-528.749" font-family="Helvetica,sans-Serif" font-size="14.00">bel_to_patch</text>
<text text-anchor="middle" x="671" y="-513.749" font-family="Helvetica,sans-Serif" font-size="14.00">e_spaceOffsets</text>
<text text-anchor="middle" x="671" y="-498.749" font-family="Helvetica,sans-Serif" font-size="14.00">v_meshOffsets</text>
<text text-anchor="middle" x="671" y="-483.749" font-family="Helvetica,sans-Serif" font-size="14.00">...</text>
</g>
<!-- Node4&#45;&gt;Node1 -->
<g id="edge4" class="edge"><title>Node4&#45;&gt;Node1</title>
<path fill="none" stroke="#9a32cd" stroke-dasharray="5,2" d="M514.24,-360.748C578.656,-365.927 673.408,-364.512 744,-324.949 778.135,-305.819 800.3,-262.352 809.355,-241.512"/>
<polygon fill="#9a32cd" stroke="#9a32cd" points="514.438,-357.252 504.17,-359.865 513.826,-364.226 514.438,-357.252"/>
<text text-anchor="middle" x="671" y="-365.749" font-family="Helvetica,sans-Serif" font-size="14.00"> ncmesh</text>
</g>
<!-- Node5 -->
<g id="node5" class="node"><title>Node5</title>
<g id="a_node5"><a xlink:href="classmfem_1_1MemAlloc.html" target="_top" xlink:title="mfem::MemAlloc\&lt; mfem\l::BisectedElement, 1024 \&gt;">
<polygon fill="white" stroke="black" points="337.5,-169.949 337.5,-207.949 544.5,-207.949 544.5,-169.949 337.5,-169.949"/>
<text text-anchor="start" x="345.5" y="-192.749" font-family="Helvetica,sans-Serif" font-size="14.00">mfem::MemAlloc&lt; mfem</text>
<text text-anchor="middle" x="441" y="-177.749" font-family="Helvetica,sans-Serif" font-size="14.00">::BisectedElement, 1024 &gt;</text>
</a>
</g>
</g>
<!-- Node5&#45;&gt;Node1 -->
<g id="edge6" class="edge"><title>Node5&#45;&gt;Node1</title>
<path fill="none" stroke="#9a32cd" stroke-dasharray="5,2" d="M554.762,-192.015C611.796,-194.867 681.914,-200.363 744,-210.949 754.8,-212.79 766.343,-215.575 776.878,-218.448"/>
<polygon fill="#9a32cd" stroke="#9a32cd" points="554.791,-188.513 544.635,-191.53 554.456,-195.505 554.791,-188.513"/>
<text text-anchor="middle" x="671" y="-214.749" font-family="Helvetica,sans-Serif" font-size="14.00"> BEMemory</text>
</g>
<!-- Node6 -->
<g id="node6" class="node"><title>Node6</title>
<g id="a_node6"><a xlink:href="classmfem_1_1Array.html" target="_top" xlink:title="mfem::Array\&lt; mfem::\lElement * \&gt;">
<polygon fill="white" stroke="red" points="353,-107.949 353,-145.949 529,-145.949 529,-107.949 353,-107.949"/>
<text text-anchor="start" x="361" y="-130.749" font-family="Helvetica,sans-Serif" font-size="14.00">mfem::Array&lt; mfem::</text>
<text text-anchor="middle" x="441" y="-115.749" font-family="Helvetica,sans-Serif" font-size="14.00">Element * &gt;</text>
</a>
</g>
</g>
<!-- Node6&#45;&gt;Node1 -->
<g id="edge7" class="edge"><title>Node6&#45;&gt;Node1</title>
<path fill="none" stroke="#9a32cd" stroke-dasharray="5,2" d="M539.199,-114.62C601.039,-111.171 681.036,-115.112 744,-146.949 775.289,-162.77 798.064,-199.416 808.179,-218.274"/>
<polygon fill="#9a32cd" stroke="#9a32cd" points="538.805,-111.138 529.046,-115.262 539.247,-118.124 538.805,-111.138"/>
<text text-anchor="middle" x="671" y="-180.749" font-family="Helvetica,sans-Serif" font-size="14.00"> boundary</text>
<text text-anchor="middle" x="671" y="-165.749" font-family="Helvetica,sans-Serif" font-size="14.00">elements</text>
<text text-anchor="middle" x="671" y="-150.749" font-family="Helvetica,sans-Serif" font-size="14.00">faces</text>
</g>
<!-- Node7&#45;&gt;Node1 -->
<g id="edge8" class="edge"><title>Node7&#45;&gt;Node1</title>
<path fill="none" stroke="#9a32cd" stroke-dasharray="5,2" d="M973.934,-258.179C945.364,-254.901 914.4,-250.815 886,-245.949 878.628,-244.686 870.866,-243.136 863.302,-241.503"/>
<polygon fill="#9a32cd" stroke="#9a32cd" points="973.602,-261.664 983.931,-259.305 974.386,-254.708 973.602,-261.664"/>
<text text-anchor="middle" x="926" y="-261.749" font-family="Helvetica,sans-Serif" font-size="14.00"> NURBSext</text>
</g>
<!-- Node8 -->
<g id="node8" class="node"><title>Node8</title>
<g id="a_node8"><a xlink:href="classmfem_1_1FaceElementTransformations.html" target="_top" xlink:title="mfem::FaceElementTransformations">
<polygon fill="white" stroke="red" points="303,-65.449 303,-88.449 579,-88.449 579,-65.449 303,-65.449"/>
<text text-anchor="middle" x="441" y="-73.249" font-family="Helvetica,sans-Serif" font-size="14.00">mfem::FaceElementTransformations</text>
</a>
</g>
</g>
<!-- Node8&#45;&gt;Node1 -->
<g id="edge11" class="edge"><title>Node8&#45;&gt;Node1</title>
<path fill="none" stroke="#9a32cd" stroke-dasharray="5,2" d="M506.439,-63.844C571.747,-54.2436 673.015,-49.8351 744,-95.949 788.461,-124.832 806.34,-191.565 811.905,-218.433"/>
<polygon fill="#9a32cd" stroke="#9a32cd" points="505.62,-60.4291 496.276,-65.4225 506.695,-67.3462 505.62,-60.4291"/>
<text text-anchor="middle" x="671" y="-99.749" font-family="Helvetica,sans-Serif" font-size="14.00"> FaceElemTr</text>
</g>
<!-- Node9 -->
<g id="node9" class="node"><title>Node9</title>
<g id="a_node9"><a xlink:href="classmfem_1_1MemAlloc.html" target="_top" xlink:title="mfem::MemAlloc\&lt; mfem\l::Tetrahedron, 1024 \&gt;">
<polygon fill="white" stroke="black" points="342.5,-7.94902 342.5,-45.949 539.5,-45.949 539.5,-7.94902 342.5,-7.94902"/>
<text text-anchor="start" x="350.5" y="-30.749" font-family="Helvetica,sans-Serif" font-size="14.00">mfem::MemAlloc&lt; mfem</text>
<text text-anchor="middle" x="441" y="-15.749" font-family="Helvetica,sans-Serif" font-size="14.00">::Tetrahedron, 1024 &gt;</text>
</a>
</g>
</g>
<!-- Node9&#45;&gt;Node1 -->
<g id="edge12" class="edge"><title>Node9&#45;&gt;Node1</title>
<path fill="none" stroke="#9a32cd" stroke-dasharray="5,2" d="M530.029,-6.24143C595.244,3.78275 683.01,5.48294 744,-38.949 804.23,-82.8273 812.728,-184.128 813.855,-218.386"/>
<polygon fill="#9a32cd" stroke="#9a32cd" points="529.07,-2.85156 519.764,-7.91593 530.197,-9.76025 529.07,-2.85156"/>
<text text-anchor="middle" x="671" y="-42.749" font-family="Helvetica,sans-Serif" font-size="14.00"> TetMemory</text>
</g>
<!-- Node10 -->
<g id="node10" class="node"><title>Node10</title>
<g id="a_node10"><a xlink:href="classmfem_1_1Array.html" target="_top" xlink:title="mfem::Array\&lt; mfem::\lVertex \&gt;">
<polygon fill="white" stroke="red" points="353,-281.949 353,-319.949 529,-319.949 529,-281.949 353,-281.949"/>
<text text-anchor="start" x="361" y="-304.749" font-family="Helvetica,sans-Serif" font-size="14.00">mfem::Array&lt; mfem::</text>
<text text-anchor="middle" x="441" y="-289.749" font-family="Helvetica,sans-Serif" font-size="14.00">Vertex &gt;</text>
</a>
</g>
</g>
<!-- Node10&#45;&gt;Node1 -->
<g id="edge13" class="edge"><title>Node10&#45;&gt;Node1</title>
<path fill="none" stroke="#9a32cd" stroke-dasharray="5,2" d="M539.63,-304.724C613.458,-306.276 708.043,-305.101 744,-290.949 770.1,-280.677 793.058,-256.188 805.088,-241.554"/>
<polygon fill="#9a32cd" stroke="#9a32cd" points="539.436,-301.219 529.358,-304.488 539.275,-308.217 539.436,-301.219"/>
<text text-anchor="middle" x="671" y="-309.749" font-family="Helvetica,sans-Serif" font-size="14.00"> vertices</text>
</g>
</g>
</svg>
