<?xml version="1.0" encoding="UTF-8" standalone="no"?>
<!DOCTYPE svg PUBLIC "-//W3C//DTD SVG 1.1//EN"
 "http://www.w3.org/Graphics/SVG/1.1/DTD/svg11.dtd">
<!-- Generated by graphviz version 2.30.1 (20200304.1809)
 -->
<!-- Title: mfem::MINRESSolver Pages: 1 -->
<svg width="316pt" height="320pt"
 viewBox="0.00 0.00 316.00 320.00" xmlns="http://www.w3.org/2000/svg" xmlns:xlink="http://www.w3.org/1999/xlink">
<g id="graph0" class="graph" transform="scale(1 1) rotate(0) translate(4 316)">
<title>mfem::MINRESSolver</title>
<polygon fill="white" stroke="white" points="-4,5 -4,-316 313,-316 313,5 -4,5"/>
<!-- Node1 -->
<g id="node1" class="node"><title>Node1</title>
<polygon fill="#bfbfbf" stroke="black" points="126,-0.5 126,-23.5 294,-23.5 294,-0.5 126,-0.5"/>
<text text-anchor="middle" x="210" y="-8.3" font-family="Helvetica,sans-Serif" font-size="14.00">mfem::MINRESSolver</text>
</g>
<!-- Node2 -->
<g id="node2" class="node"><title>Node2</title>
<g id="a_node2"><a xlink:href="classmfem_1_1IterativeSolver.html" target="_top" xlink:title="Abstract base class for iterative solver. ">
<polygon fill="white" stroke="black" points="2.5,-150.5 2.5,-173.5 175.5,-173.5 175.5,-150.5 2.5,-150.5"/>
<text text-anchor="middle" x="89" y="-158.3" font-family="Helvetica,sans-Serif" font-size="14.00">mfem::IterativeSolver</text>
</a>
</g>
</g>
<!-- Node2&#45;&gt;Node1 -->
<g id="edge1" class="edge"><title>Node2&#45;&gt;Node1</title>
<path fill="none" stroke="midnightblue" d="M104.226,-142.376C129.915,-110.955 181.049,-48.4106 201.377,-23.5474"/>
<polygon fill="midnightblue" stroke="midnightblue" points="101.322,-140.399 97.702,-150.356 106.741,-144.83 101.322,-140.399"/>
</g>
<!-- Node3 -->
<g id="node3" class="node"><title>Node3</title>
<g id="a_node3"><a xlink:href="classmfem_1_1Solver.html" target="_top" xlink:title="Base class for solvers. ">
<polygon fill="white" stroke="black" points="-0.5,-226.5 -0.5,-249.5 112.5,-249.5 112.5,-226.5 -0.5,-226.5"/>
<text text-anchor="middle" x="56" y="-234.3" font-family="Helvetica,sans-Serif" font-size="14.00">mfem::Solver</text>
</a>
</g>
</g>
<!-- Node3&#45;&gt;Node2 -->
<g id="edge2" class="edge"><title>Node3&#45;&gt;Node2</title>
<path fill="none" stroke="midnightblue" d="M61.0732,-216.498C63.3493,-208.651 66.3519,-199.733 70,-192 73.0304,-185.576 77.304,-178.913 81.0308,-173.596"/>
<polygon fill="midnightblue" stroke="midnightblue" points="57.6481,-215.757 58.4271,-226.323 64.4073,-217.577 57.6481,-215.757"/>
</g>
<!-- Node3&#45;&gt;Node2 -->
<g id="edge4" class="edge"><title>Node3&#45;&gt;Node2</title>
<path fill="none" stroke="#9a32cd" stroke-dasharray="5,2" d="M64.8754,-217.098C71.1215,-203.091 79.2362,-184.895 84.2807,-173.583"/>
<polygon fill="#9a32cd" stroke="#9a32cd" points="61.6044,-215.839 60.7281,-226.398 67.9975,-218.69 61.6044,-215.839"/>
<text text-anchor="middle" x="94.5" y="-196.3" font-family="Helvetica,sans-Serif" font-size="14.00"> prec</text>
</g>
<!-- Node4 -->
<g id="node4" class="node"><title>Node4</title>
<g id="a_node4"><a xlink:href="classmfem_1_1Operator.html" target="_top" xlink:title="Abstract operator. ">
<polygon fill="white" stroke="black" points="52.5,-288.5 52.5,-311.5 185.5,-311.5 185.5,-288.5 52.5,-288.5"/>
<text text-anchor="middle" x="119" y="-296.3" font-family="Helvetica,sans-Serif" font-size="14.00">mfem::Operator</text>
</a>
</g>
</g>
<!-- Node4&#45;&gt;Node3 -->
<g id="edge3" class="edge"><title>Node4&#45;&gt;Node3</title>
<path fill="none" stroke="midnightblue" d="M100.4,-281.286C89.6045,-271.004 76.3647,-258.395 67.1656,-249.634"/>
<polygon fill="midnightblue" stroke="midnightblue" points="98.0817,-283.911 107.737,-288.273 102.909,-278.842 98.0817,-283.911"/>
</g>
<!-- Node4&#45;&gt;Node2 -->
<g id="edge5" class="edge"><title>Node4&#45;&gt;Node2</title>
<path fill="none" stroke="#9a32cd" stroke-dasharray="5,2" d="M123.449,-278.247C127.19,-255.815 130.067,-219.578 117,-192 113.704,-185.043 108.07,-178.71 102.717,-173.75"/>
<polygon fill="#9a32cd" stroke="#9a32cd" points="119.962,-277.851 121.551,-288.326 126.841,-279.146 119.962,-277.851"/>
<text text-anchor="middle" x="146" y="-234.3" font-family="Helvetica,sans-Serif" font-size="14.00"> oper</text>
</g>
<!-- Node5 -->
<g id="node5" class="node"><title>Node5</title>
<g id="a_node5"><a xlink:href="classmfem_1_1Vector.html" target="_top" xlink:title="Vector data type. ">
<polygon fill="white" stroke="black" points="194,-150.5 194,-173.5 308,-173.5 308,-150.5 194,-150.5"/>
<text text-anchor="middle" x="251" y="-158.3" font-family="Helvetica,sans-Serif" font-size="14.00">mfem::Vector</text>
</a>
</g>
</g>
<!-- Node5&#45;&gt;Node1 -->
<g id="edge6" class="edge"><title>Node5&#45;&gt;Node1</title>
<path fill="none" stroke="#9a32cd" stroke-dasharray="5,2" d="M245.271,-140.32C236.401,-108.3 219.663,-47.8794 212.922,-23.5474"/>
<polygon fill="#9a32cd" stroke="#9a32cd" points="242.009,-141.654 248.051,-150.356 248.755,-139.785 242.009,-141.654"/>
<text text-anchor="middle" x="254.5" y="-120.8" font-family="Helvetica,sans-Serif" font-size="14.00"> u1</text>
<text text-anchor="middle" x="254.5" y="-105.8" font-family="Helvetica,sans-Serif" font-size="14.00">q</text>
<text text-anchor="middle" x="254.5" y="-90.8" font-family="Helvetica,sans-Serif" font-size="14.00">w0</text>
<text text-anchor="middle" x="254.5" y="-75.8" font-family="Helvetica,sans-Serif" font-size="14.00">w1</text>
<text text-anchor="middle" x="254.5" y="-60.8" font-family="Helvetica,sans-Serif" font-size="14.00">v0</text>
<text text-anchor="middle" x="254.5" y="-45.8" font-family="Helvetica,sans-Serif" font-size="14.00">v1</text>
</g>
</g>
</svg>
