<?xml version="1.0" encoding="UTF-8" standalone="no"?>
<!DOCTYPE svg PUBLIC "-//W3C//DTD SVG 1.1//EN"
 "http://www.w3.org/Graphics/SVG/1.1/DTD/svg11.dtd">
<!-- Generated by graphviz version 2.30.1 (20200304.1809)
 -->
<!-- Title: mfem::NURBS2DFiniteElement Pages: 1 -->
<!--zoomable 476 -->
<svg id="main" version="1.1" xmlns="http://www.w3.org/2000/svg" xmlns:xlink="http://www.w3.org/1999/xlink" xml:space="preserve" onload="init(evt)">
<style type="text/css"><![CDATA[
.edge:hover path { stroke: red; }
.edge:hover polygon { stroke: red; fill: red; }
]]></style>
<script type="text/javascript"><![CDATA[
var edges = document.getElementsByTagName('g');
if (edges && edges.length) {
  for (var i=0;i<edges.length;i++) {
    if (edges[i].id.substr(0,4)=='edge') {
      edges[i].setAttribute('class','edge');
    }
  }
}
]]></script>
        <defs>
                <circle id="rim" cx="0" cy="0" r="7"/>
                <circle id="rim2" cx="0" cy="0" r="3.5"/>
                <g id="zoomPlus">
                        <use xlink:href="#rim" fill="#404040">
                                <set attributeName="fill" to="#808080" begin="zoomplus.mouseover" end="zoomplus.mouseout"/>
                        </use>
                        <path d="M-4,0h8M0,-4v8" fill="none" stroke="white" stroke-width="1.5" pointer-events="none"/>
                </g>
                <g id="zoomMin">
                        <use xlink:href="#rim" fill="#404040">
                                <set attributeName="fill" to="#808080" begin="zoomminus.mouseover" end="zoomminus.mouseout"/>
                        </use>
                        <path d="M-4,0h8" fill="none" stroke="white" stroke-width="1.5" pointer-events="none"/>
                </g>
                <g id="dirArrow">
                        <path fill="none" stroke="white" stroke-width="1.5" d="M0,-3.0v7 M-2.5,-0.5L0,-3.0L2.5,-0.5"/>
                </g>
               <g id="resetDef">
                       <use xlink:href="#rim2" fill="#404040">
                               <set attributeName="fill" to="#808080" begin="reset.mouseover" end="reset.mouseout"/>
                       </use>
               </g>
        </defs>

<script type="text/javascript">
var viewWidth = 453;
var viewHeight = 476;
var sectionId = 'dynsection-1';
</script>
<script xlink:href="svgpan.js"/>
<svg id="graph" class="graph">
<g id="viewport">
<title>mfem::NURBS2DFiniteElement</title>
<polygon fill="white" stroke="white" points="-4,5 -4,-472 450,-472 450,5 -4,5"/>
<!-- Node1 -->
<g id="node1" class="node"><title>Node1</title>
<polygon fill="#bfbfbf" stroke="black" points="209,-0.5 209,-23.5 445,-23.5 445,-0.5 209,-0.5"/>
<text text-anchor="middle" x="327" y="-8.3" font-family="Helvetica,sans-Serif" font-size="14.00">mfem::NURBS2DFiniteElement</text>
</g>
<!-- Node2 -->
<g id="node2" class="node"><title>Node2</title>
<g id="a_node2"><a xlink:href="classmfem_1_1NURBSFiniteElement.html" target="_top" xlink:title="mfem::NURBSFiniteElement">
<polygon fill="white" stroke="black" points="111.5,-88.5 111.5,-111.5 326.5,-111.5 326.5,-88.5 111.5,-88.5"/>
<text text-anchor="middle" x="219" y="-96.3" font-family="Helvetica,sans-Serif" font-size="14.00">mfem::NURBSFiniteElement</text>
</a>
</g>
</g>
<!-- Node2&#45;&gt;Node1 -->
<g id="edge1" class="edge"><title>Node2&#45;&gt;Node1</title>
<path fill="none" stroke="midnightblue" d="M240.258,-82.0725C262.056,-64.7143 295.291,-38.2498 313.649,-23.6315"/>
<polygon fill="midnightblue" stroke="midnightblue" points="237.885,-79.4874 232.243,-88.4547 242.246,-84.9634 237.885,-79.4874"/>
</g>
<!-- Node3 -->
<g id="node3" class="node"><title>Node3</title>
<g id="a_node3"><a xlink:href="classmfem_1_1FiniteElement.html" target="_top" xlink:title="Abstract class for Finite Elements. ">
<polygon fill="white" stroke="black" points="26,-190.5 26,-213.5 192,-213.5 192,-190.5 26,-190.5"/>
<text text-anchor="middle" x="109" y="-198.3" font-family="Helvetica,sans-Serif" font-size="14.00">mfem::FiniteElement</text>
</a>
</g>
</g>
<!-- Node3&#45;&gt;Node2 -->
<g id="edge2" class="edge"><title>Node3&#45;&gt;Node2</title>
<path fill="none" stroke="midnightblue" d="M128.187,-183.557C151.022,-162.798 188.429,-128.792 207.313,-111.625"/>
<polygon fill="midnightblue" stroke="midnightblue" points="125.817,-180.982 120.772,-190.298 130.526,-186.161 125.817,-180.982"/>
</g>
<!-- Node4 -->
<g id="node4" class="node"><title>Node4</title>
<g id="a_node4"><a xlink:href="classmfem_1_1IntegrationRule.html" target="_top" xlink:title="Class for integration rule. ">
<polygon fill="white" stroke="black" points="16,-266.5 16,-289.5 194,-289.5 194,-266.5 16,-266.5"/>
<text text-anchor="middle" x="105" y="-274.3" font-family="Helvetica,sans-Serif" font-size="14.00">mfem::IntegrationRule</text>
</a>
</g>
</g>
<!-- Node4&#45;&gt;Node3 -->
<g id="edge3" class="edge"><title>Node4&#45;&gt;Node3</title>
<path fill="none" stroke="#9a32cd" stroke-dasharray="5,2" d="M106.12,-256.277C106.871,-242.387 107.828,-224.675 108.428,-213.583"/>
<polygon fill="#9a32cd" stroke="#9a32cd" points="102.618,-256.223 105.573,-266.398 109.608,-256.601 102.618,-256.223"/>
<text text-anchor="middle" x="133" y="-236.3" font-family="Helvetica,sans-Serif" font-size="14.00"> Nodes</text>
</g>
<!-- Node5 -->
<g id="node5" class="node"><title>Node5</title>
<g id="a_node5"><a xlink:href="classmfem_1_1Array.html" target="_top" xlink:title="mfem::Array\&lt; Integration\lPoint \&gt;">
<polygon fill="white" stroke="black" points="-0.5,-367 -0.5,-405 202.5,-405 202.5,-367 -0.5,-367"/>
<text text-anchor="start" x="7.5" y="-389.8" font-family="Helvetica,sans-Serif" font-size="14.00">mfem::Array&lt; Integration</text>
<text text-anchor="middle" x="101" y="-374.8" font-family="Helvetica,sans-Serif" font-size="14.00">Point &gt;</text>
</a>
</g>
</g>
<!-- Node5&#45;&gt;Node4 -->
<g id="edge4" class="edge"><title>Node5&#45;&gt;Node4</title>
<path fill="none" stroke="midnightblue" d="M102.081,-356.362C102.914,-334.268 104.021,-304.954 104.603,-289.527"/>
<polygon fill="midnightblue" stroke="midnightblue" points="98.5764,-356.411 101.697,-366.536 105.571,-356.675 98.5764,-356.411"/>
</g>
<!-- Node6 -->
<g id="node6" class="node"><title>Node6</title>
<g id="a_node6"><a xlink:href="classmfem_1_1BaseArray.html" target="_top" xlink:title="Base class for array container. ">
<polygon fill="white" stroke="black" points="120.5,-444.5 120.5,-467.5 263.5,-467.5 263.5,-444.5 120.5,-444.5"/>
<text text-anchor="middle" x="192" y="-452.3" font-family="Helvetica,sans-Serif" font-size="14.00">mfem::BaseArray</text>
</a>
</g>
</g>
<!-- Node6&#45;&gt;Node5 -->
<g id="edge5" class="edge"><title>Node6&#45;&gt;Node5</title>
<path fill="none" stroke="midnightblue" d="M169.568,-438.237C156.162,-428.22 139.124,-415.489 125.386,-405.223"/>
<polygon fill="midnightblue" stroke="midnightblue" points="167.676,-441.193 177.781,-444.375 171.866,-435.585 167.676,-441.193"/>
</g>
<!-- Node8 -->
<g id="node8" class="node"><title>Node8</title>
<g id="a_node8"><a xlink:href="classmfem_1_1Array.html" target="_top" xlink:title="mfem::Array\&lt; mfem::\lKnotVector * \&gt;">
<polygon fill="white" stroke="black" points="142,-309 142,-347 318,-347 318,-309 142,-309"/>
<text text-anchor="start" x="150" y="-331.8" font-family="Helvetica,sans-Serif" font-size="14.00">mfem::Array&lt; mfem::</text>
<text text-anchor="middle" x="230" y="-316.8" font-family="Helvetica,sans-Serif" font-size="14.00">KnotVector * &gt;</text>
</a>
</g>
</g>
<!-- Node6&#45;&gt;Node8 -->
<g id="edge8" class="edge"><title>Node6&#45;&gt;Node8</title>
<path fill="none" stroke="midnightblue" d="M200.476,-434.868C203.995,-426.093 207.958,-415.63 211,-406 217.262,-386.174 222.747,-362.947 226.193,-347.229"/>
<polygon fill="midnightblue" stroke="midnightblue" points="197.187,-433.663 196.63,-444.243 203.663,-436.32 197.187,-433.663"/>
</g>
<!-- Node7 -->
<g id="node7" class="node"><title>Node7</title>
<g id="a_node7"><a xlink:href="classmfem_1_1Vector.html" target="_top" xlink:title="Vector data type. ">
<polygon fill="white" stroke="black" points="281,-190.5 281,-213.5 395,-213.5 395,-190.5 281,-190.5"/>
<text text-anchor="middle" x="338" y="-198.3" font-family="Helvetica,sans-Serif" font-size="14.00">mfem::Vector</text>
</a>
</g>
</g>
<!-- Node7&#45;&gt;Node2 -->
<g id="edge6" class="edge"><title>Node7&#45;&gt;Node2</title>
<path fill="none" stroke="#9a32cd" stroke-dasharray="5,2" d="M307.784,-185.265C301.042,-181.271 294.092,-176.754 288,-172 263.879,-153.178 239.943,-126.205 227.596,-111.515"/>
<polygon fill="#9a32cd" stroke="#9a32cd" points="306.324,-188.461 316.748,-190.359 309.783,-182.375 306.324,-188.461"/>
<text text-anchor="middle" x="318.5" y="-160.3" font-family="Helvetica,sans-Serif" font-size="14.00"> weights</text>
</g>
<!-- Node7&#45;&gt;Node1 -->
<g id="edge9" class="edge"><title>Node7&#45;&gt;Node1</title>
<path fill="none" stroke="#9a32cd" stroke-dasharray="5,2" d="M346.691,-180.878C347.645,-177.947 348.463,-174.93 349,-172 350.282,-165.005 349.525,-163.092 349,-156 345.308,-106.151 334.062,-47.3919 329.237,-23.6971"/>
<polygon fill="#9a32cd" stroke="#9a32cd" points="343.41,-179.661 343.145,-190.253 349.957,-182.138 343.41,-179.661"/>
<text text-anchor="middle" x="384.5" y="-126.3" font-family="Helvetica,sans-Serif" font-size="14.00"> dshape_x</text>
<text text-anchor="middle" x="384.5" y="-111.3" font-family="Helvetica,sans-Serif" font-size="14.00">dshape_y</text>
<text text-anchor="middle" x="384.5" y="-96.3" font-family="Helvetica,sans-Serif" font-size="14.00">shape_x</text>
<text text-anchor="middle" x="384.5" y="-81.3" font-family="Helvetica,sans-Serif" font-size="14.00">u</text>
<text text-anchor="middle" x="384.5" y="-66.3" font-family="Helvetica,sans-Serif" font-size="14.00">shape_y</text>
</g>
<!-- Node8&#45;&gt;Node2 -->
<g id="edge7" class="edge"><title>Node8&#45;&gt;Node2</title>
<path fill="none" stroke="#9a32cd" stroke-dasharray="5,2" d="M228.622,-298.678C226.165,-248.199 221.134,-144.848 219.515,-111.573"/>
<polygon fill="#9a32cd" stroke="#9a32cd" points="225.136,-299.07 229.118,-308.888 232.128,-298.729 225.136,-299.07"/>
<text text-anchor="middle" x="238" y="-236.3" font-family="Helvetica,sans-Serif" font-size="14.00"> kv</text>
</g>
</g>
</svg>
        <g id="navigator" transform="translate(0 0)" fill="#404254">
                <rect fill="#f2f5e9" fill-opacity="0.5" stroke="#606060" stroke-width=".5" x="0" y="0" width="60" height="60"/>
                <use id="zoomplus" xlink:href="#zoomPlus" x="17" y="9" onmousedown="handleZoom(evt,'in')"/>
                <use id="zoomminus" xlink:href="#zoomMin" x="42" y="9" onmousedown="handleZoom(evt,'out')"/>
                <use id="reset" xlink:href="#resetDef" x="30" y="36" onmousedown="handleReset()"/>
                <g id="arrowUp" xlink:href="#dirArrow" transform="translate(30 24)" onmousedown="handlePan(0,-1)">
                  <use xlink:href="#rim" fill="#404040">
                        <set attributeName="fill" to="#808080" begin="arrowUp.mouseover" end="arrowUp.mouseout"/>
                  </use>
                  <path fill="none" stroke="white" stroke-width="1.5" d="M0,-3.0v7 M-2.5,-0.5L0,-3.0L2.5,-0.5"/>
                </g>
                <g id="arrowRight" xlink:href="#dirArrow" transform="rotate(90) translate(36 -43)" onmousedown="handlePan(1,0)">
                  <use xlink:href="#rim" fill="#404040">
                        <set attributeName="fill" to="#808080" begin="arrowRight.mouseover" end="arrowRight.mouseout"/>
                  </use>
                  <path fill="none" stroke="white" stroke-width="1.5" d="M0,-3.0v7 M-2.5,-0.5L0,-3.0L2.5,-0.5"/>
                </g>
                <g id="arrowDown" xlink:href="#dirArrow" transform="rotate(180) translate(-30 -48)" onmousedown="handlePan(0,1)">
                  <use xlink:href="#rim" fill="#404040">
                        <set attributeName="fill" to="#808080" begin="arrowDown.mouseover" end="arrowDown.mouseout"/>
                  </use>
                  <path fill="none" stroke="white" stroke-width="1.5" d="M0,-3.0v7 M-2.5,-0.5L0,-3.0L2.5,-0.5"/>
                </g>
                <g id="arrowLeft" xlink:href="#dirArrow" transform="rotate(270) translate(-36 17)" onmousedown="handlePan(-1,0)">
                  <use xlink:href="#rim" fill="#404040">
                        <set attributeName="fill" to="#808080" begin="arrowLeft.mouseover" end="arrowLeft.mouseout"/>
                  </use>
                  <path fill="none" stroke="white" stroke-width="1.5" d="M0,-3.0v7 M-2.5,-0.5L0,-3.0L2.5,-0.5"/>
                </g>
        </g>
        <svg viewBox="0 0 15 15" width="100%" height="30px" preserveAspectRatio="xMaxYMin meet">
         <g id="arrow_out" transform="scale(0.3 0.3)">
          <a xlink:href="classmfem_1_1NURBS2DFiniteElement__coll__graph_org.svg" target="_base">
           <rect id="button" ry="5" rx="5" y="6" x="6" height="38" width="38"
                fill="#f2f5e9" fill-opacity="0.5" stroke="#606060" stroke-width="1.0"/>
           <path id="arrow"
             d="M 11.500037,31.436501 C 11.940474,20.09759 22.043105,11.32322 32.158766,21.979434 L 37.068811,17.246167 C 37.068811,17.246167 37.088388,32 37.088388,32 L 22.160133,31.978069 C 22.160133,31.978069 26.997745,27.140456 26.997745,27.140456 C 18.528582,18.264221 13.291696,25.230495 11.500037,31.436501 z"
             style="fill:#404040;"/>
          </a>
         </g>
        </svg>
</svg>
