<?xml version="1.0" encoding="UTF-8" standalone="no"?>
<!DOCTYPE svg PUBLIC "-//W3C//DTD SVG 1.1//EN"
 "http://www.w3.org/Graphics/SVG/1.1/DTD/svg11.dtd">
<!-- Generated by graphviz version 2.30.1 (20200304.1809)
 -->
<!-- Title: mfem::RefinedGeometry Pages: 1 -->
<svg width="360pt" height="276pt"
 viewBox="0.00 0.00 360.00 276.00" xmlns="http://www.w3.org/2000/svg" xmlns:xlink="http://www.w3.org/1999/xlink">
<g id="graph0" class="graph" transform="scale(1 1) rotate(0) translate(4 272)">
<title>mfem::RefinedGeometry</title>
<polygon fill="white" stroke="white" points="-4,5 -4,-272 357,-272 357,5 -4,5"/>
<!-- Node1 -->
<g id="node1" class="node"><title>Node1</title>
<polygon fill="#bfbfbf" stroke="black" points="0,-0.5 0,-23.5 194,-23.5 194,-0.5 0,-0.5"/>
<text text-anchor="middle" x="97" y="-8.3" font-family="Helvetica,sans-Serif" font-size="14.00">mfem::RefinedGeometry</text>
</g>
<!-- Node2 -->
<g id="node2" class="node"><title>Node2</title>
<g id="a_node2"><a xlink:href="classmfem_1_1Array.html" target="_top" xlink:title="mfem::Array\&lt; int \&gt;">
<polygon fill="white" stroke="black" points="28,-124.5 28,-147.5 186,-147.5 186,-124.5 28,-124.5"/>
<text text-anchor="middle" x="107" y="-132.3" font-family="Helvetica,sans-Serif" font-size="14.00">mfem::Array&lt; int &gt;</text>
</a>
</g>
</g>
<!-- Node2&#45;&gt;Node1 -->
<g id="edge1" class="edge"><title>Node2&#45;&gt;Node1</title>
<path fill="none" stroke="#9a32cd" stroke-dasharray="5,2" d="M93.8141,-115.654C92.2445,-112.542 90.8869,-109.267 90,-106 82.1092,-76.9359 89.3799,-41.0115 93.9461,-23.5384"/>
<polygon fill="#9a32cd" stroke="#9a32cd" points="90.8228,-117.472 98.8996,-124.329 96.8617,-113.932 90.8228,-117.472"/>
<text text-anchor="middle" x="127.5" y="-94.8" font-family="Helvetica,sans-Serif" font-size="14.00"> RefEdges</text>
<text text-anchor="middle" x="127.5" y="-79.8" font-family="Helvetica,sans-Serif" font-size="14.00">RefGeoms</text>
</g>
<!-- Node3 -->
<g id="node3" class="node"><title>Node3</title>
<g id="a_node3"><a xlink:href="classmfem_1_1BaseArray.html" target="_top" xlink:title="Base class for array container. ">
<polygon fill="white" stroke="black" points="80.5,-244.5 80.5,-267.5 223.5,-267.5 223.5,-244.5 80.5,-244.5"/>
<text text-anchor="middle" x="152" y="-252.3" font-family="Helvetica,sans-Serif" font-size="14.00">mfem::BaseArray</text>
</a>
</g>
</g>
<!-- Node3&#45;&gt;Node2 -->
<g id="edge2" class="edge"><title>Node3&#45;&gt;Node2</title>
<path fill="none" stroke="midnightblue" d="M144.268,-234.725C134.619,-209.423 118.479,-167.101 111.013,-147.524"/>
<polygon fill="midnightblue" stroke="midnightblue" points="141.014,-236.014 147.847,-244.11 147.554,-233.52 141.014,-236.014"/>
</g>
<!-- Node5 -->
<g id="node5" class="node"><title>Node5</title>
<g id="a_node5"><a xlink:href="classmfem_1_1Array.html" target="_top" xlink:title="mfem::Array\&lt; Integration\lPoint \&gt;">
<polygon fill="white" stroke="black" points="144.5,-167 144.5,-205 347.5,-205 347.5,-167 144.5,-167"/>
<text text-anchor="start" x="152.5" y="-189.8" font-family="Helvetica,sans-Serif" font-size="14.00">mfem::Array&lt; Integration</text>
<text text-anchor="middle" x="246" y="-174.8" font-family="Helvetica,sans-Serif" font-size="14.00">Point &gt;</text>
</a>
</g>
</g>
<!-- Node3&#45;&gt;Node5 -->
<g id="edge5" class="edge"><title>Node3&#45;&gt;Node5</title>
<path fill="none" stroke="midnightblue" d="M175.172,-238.237C189.019,-228.22 206.619,-215.489 220.81,-205.223"/>
<polygon fill="midnightblue" stroke="midnightblue" points="172.738,-235.678 166.688,-244.375 176.841,-241.35 172.738,-235.678"/>
</g>
<!-- Node4 -->
<g id="node4" class="node"><title>Node4</title>
<g id="a_node4"><a xlink:href="classmfem_1_1IntegrationRule.html" target="_top" xlink:title="Class for integration rule. ">
<polygon fill="white" stroke="black" points="174,-79.5 174,-102.5 352,-102.5 352,-79.5 174,-79.5"/>
<text text-anchor="middle" x="263" y="-87.3" font-family="Helvetica,sans-Serif" font-size="14.00">mfem::IntegrationRule</text>
</a>
</g>
</g>
<!-- Node4&#45;&gt;Node1 -->
<g id="edge3" class="edge"><title>Node4&#45;&gt;Node1</title>
<path fill="none" stroke="#9a32cd" stroke-dasharray="5,2" d="M231.143,-75.223C198.503,-60.0829 148.572,-36.9221 119.725,-23.541"/>
<polygon fill="#9a32cd" stroke="#9a32cd" points="229.722,-78.422 240.266,-79.4549 232.668,-72.0719 229.722,-78.422"/>
<text text-anchor="middle" x="214.5" y="-46.3" font-family="Helvetica,sans-Serif" font-size="14.00"> RefPts</text>
</g>
<!-- Node5&#45;&gt;Node4 -->
<g id="edge4" class="edge"><title>Node5&#45;&gt;Node4</title>
<path fill="none" stroke="midnightblue" d="M251.167,-156.732C254.516,-138.41 258.686,-115.6 261.075,-102.528"/>
<polygon fill="midnightblue" stroke="midnightblue" points="247.714,-156.16 249.359,-166.626 254.6,-157.419 247.714,-156.16"/>
</g>
</g>
</svg>
