<?xml version="1.0" encoding="UTF-8" standalone="no"?>
<!DOCTYPE svg PUBLIC "-//W3C//DTD SVG 1.1//EN"
 "http://www.w3.org/Graphics/SVG/1.1/DTD/svg11.dtd">
<!-- Generated by graphviz version 2.30.1 (20200304.1809)
 -->
<!-- Title: mfem::NCMesh::Element Pages: 1 -->
<svg width="556pt" height="252pt"
 viewBox="0.00 0.00 556.00 252.00" xmlns="http://www.w3.org/2000/svg" xmlns:xlink="http://www.w3.org/1999/xlink">
<g id="graph0" class="graph" transform="scale(1 1) rotate(0) translate(4 248)">
<title>mfem::NCMesh::Element</title>
<polygon fill="white" stroke="white" points="-4,5 -4,-248 553,-248 553,5 -4,5"/>
<!-- Node1 -->
<g id="node1" class="node"><title>Node1</title>
<polygon fill="#bfbfbf" stroke="black" points="0,-3.5 0,-26.5 194,-26.5 194,-3.5 0,-3.5"/>
<text text-anchor="middle" x="97" y="-11.3" font-family="Helvetica,sans-Serif" font-size="14.00">mfem::NCMesh::Element</text>
</g>
<!-- Node1&#45;&gt;Node1 -->
<g id="edge1" class="edge"><title>Node1&#45;&gt;Node1</title>
<path fill="none" stroke="#9a32cd" stroke-dasharray="5,2" d="M204.283,-19.6668C209.153,-18.4825 212,-16.9269 212,-15 212,-11.9922 205.064,-9.88907 194.321,-8.69064"/>
<polygon fill="#9a32cd" stroke="#9a32cd" points="203.619,-16.229 194.321,-21.3094 204.758,-23.1357 203.619,-16.229"/>
<text text-anchor="middle" x="236" y="-18.8" font-family="Helvetica,sans-Serif" font-size="14.00"> child</text>
<text text-anchor="middle" x="236" y="-3.8" font-family="Helvetica,sans-Serif" font-size="14.00">parent</text>
</g>
<!-- Node2 -->
<g id="node2" class="node"><title>Node2</title>
<g id="a_node2"><a xlink:href="structmfem_1_1NCMesh_1_1Node.html" target="_top" xlink:title="mfem::NCMesh::Node">
<polygon fill="white" stroke="black" points="240.5,-82.5 240.5,-105.5 413.5,-105.5 413.5,-82.5 240.5,-82.5"/>
<text text-anchor="middle" x="327" y="-90.3" font-family="Helvetica,sans-Serif" font-size="14.00">mfem::NCMesh::Node</text>
</a>
</g>
</g>
<!-- Node2&#45;&gt;Node1 -->
<g id="edge2" class="edge"><title>Node2&#45;&gt;Node1</title>
<path fill="none" stroke="#9a32cd" stroke-dasharray="5,2" d="M285.739,-79.1864C240.62,-64.0815 169.313,-40.2093 128.486,-26.541"/>
<polygon fill="#9a32cd" stroke="#9a32cd" points="284.908,-82.5992 295.502,-82.4549 287.13,-75.9613 284.908,-82.5992"/>
<text text-anchor="middle" x="260.5" y="-52.3" font-family="Helvetica,sans-Serif" font-size="14.00"> node</text>
</g>
<!-- Node3 -->
<g id="node3" class="node"><title>Node3</title>
<g id="a_node3"><a xlink:href="structmfem_1_1Hashed2.html" target="_top" xlink:title="mfem::Hashed2\&lt; Node \&gt;">
<polygon fill="white" stroke="black" points="278,-3.5 278,-26.5 480,-26.5 480,-3.5 278,-3.5"/>
<text text-anchor="middle" x="379" y="-11.3" font-family="Helvetica,sans-Serif" font-size="14.00">mfem::Hashed2&lt; Node &gt;</text>
</a>
</g>
</g>
<!-- Node2&#45;&gt;Node3 -->
<g id="edge4" class="edge"><title>Node2&#45;&gt;Node3</title>
<path fill="none" stroke="#9a32cd" stroke-dasharray="5,2" d="M320.892,-72.411C319.662,-64.3286 319.82,-55.2678 324,-48 329.453,-38.5194 338.913,-31.5858 348.466,-26.6471"/>
<polygon fill="#9a32cd" stroke="#9a32cd" points="317.492,-73.243 323.088,-82.2393 324.323,-71.7167 317.492,-73.243"/>
<text text-anchor="middle" x="342.5" y="-52.3" font-family="Helvetica,sans-Serif" font-size="14.00"> next</text>
</g>
<!-- Node3&#45;&gt;Node2 -->
<g id="edge3" class="edge"><title>Node3&#45;&gt;Node2</title>
<path fill="none" stroke="midnightblue" d="M375.933,-36.7886C373.887,-45.7341 370.517,-55.9599 365,-64 360.023,-71.2536 352.653,-77.4723 345.724,-82.2695"/>
<polygon fill="midnightblue" stroke="midnightblue" points="379.414,-37.2205 377.827,-26.7451 372.535,-35.9233 379.414,-37.2205"/>
</g>
<!-- Node4 -->
<g id="node4" class="node"><title>Node4</title>
<g id="a_node4"><a xlink:href="structmfem_1_1NCMesh_1_1Edge.html" target="_top" xlink:title="mfem::NCMesh::Edge">
<polygon fill="white" stroke="black" points="176.5,-158.5 176.5,-181.5 347.5,-181.5 347.5,-158.5 176.5,-158.5"/>
<text text-anchor="middle" x="262" y="-166.3" font-family="Helvetica,sans-Serif" font-size="14.00">mfem::NCMesh::Edge</text>
</a>
</g>
</g>
<!-- Node4&#45;&gt;Node2 -->
<g id="edge5" class="edge"><title>Node4&#45;&gt;Node2</title>
<path fill="none" stroke="#9a32cd" stroke-dasharray="5,2" d="M278.066,-150.71C290.534,-136.515 307.382,-117.334 317.704,-105.583"/>
<polygon fill="#9a32cd" stroke="#9a32cd" points="275.283,-148.575 271.313,-158.398 280.542,-153.194 275.283,-148.575"/>
<text text-anchor="middle" x="321.5" y="-128.3" font-family="Helvetica,sans-Serif" font-size="14.00"> edge</text>
</g>
<!-- Node5 -->
<g id="node5" class="node"><title>Node5</title>
<g id="a_node5"><a xlink:href="structmfem_1_1NCMesh_1_1RefCount.html" target="_top" xlink:title="mfem::NCMesh::RefCount">
<polygon fill="white" stroke="black" points="280,-220.5 280,-243.5 480,-243.5 480,-220.5 280,-220.5"/>
<text text-anchor="middle" x="380" y="-228.3" font-family="Helvetica,sans-Serif" font-size="14.00">mfem::NCMesh::RefCount</text>
</a>
</g>
</g>
<!-- Node5&#45;&gt;Node4 -->
<g id="edge6" class="edge"><title>Node5&#45;&gt;Node4</title>
<path fill="none" stroke="midnightblue" d="M350.066,-215.779C329.121,-205.13 301.663,-191.167 283.013,-181.685"/>
<polygon fill="midnightblue" stroke="midnightblue" points="348.675,-218.999 359.176,-220.411 351.848,-212.759 348.675,-218.999"/>
</g>
<!-- Node6 -->
<g id="node6" class="node"><title>Node6</title>
<g id="a_node6"><a xlink:href="structmfem_1_1NCMesh_1_1Vertex.html" target="_top" xlink:title="mfem::NCMesh::Vertex">
<polygon fill="white" stroke="black" points="366,-158.5 366,-181.5 548,-181.5 548,-158.5 366,-158.5"/>
<text text-anchor="middle" x="457" y="-166.3" font-family="Helvetica,sans-Serif" font-size="14.00">mfem::NCMesh::Vertex</text>
</a>
</g>
</g>
<!-- Node5&#45;&gt;Node6 -->
<g id="edge8" class="edge"><title>Node5&#45;&gt;Node6</title>
<path fill="none" stroke="midnightblue" d="M401.968,-213.882C415.298,-203.495 431.891,-190.565 443.353,-181.634"/>
<polygon fill="midnightblue" stroke="midnightblue" points="399.503,-211.366 393.766,-220.273 403.805,-216.887 399.503,-211.366"/>
</g>
<!-- Node6&#45;&gt;Node2 -->
<g id="edge7" class="edge"><title>Node6&#45;&gt;Node2</title>
<path fill="none" stroke="#9a32cd" stroke-dasharray="5,2" d="M429.644,-153.428C404.397,-139.056 367.586,-118.103 345.591,-105.583"/>
<polygon fill="#9a32cd" stroke="#9a32cd" points="427.952,-156.492 438.374,-158.398 431.415,-150.409 427.952,-156.492"/>
<text text-anchor="middle" x="429.5" y="-128.3" font-family="Helvetica,sans-Serif" font-size="14.00"> vertex</text>
</g>
</g>
</svg>
