<?xml version="1.0" encoding="UTF-8" standalone="no"?>
<!DOCTYPE svg PUBLIC "-//W3C//DTD SVG 1.1//EN"
 "http://www.w3.org/Graphics/SVG/1.1/DTD/svg11.dtd">
<!-- Generated by graphviz version 2.30.1 (20200304.1809)
 -->
<!-- Title: mfem::MixedVectorGradientIntegrator Pages: 1 -->
<!--zoomable 196 -->
<svg id="main" version="1.1" xmlns="http://www.w3.org/2000/svg" xmlns:xlink="http://www.w3.org/1999/xlink" xml:space="preserve" onload="init(evt)">
<style type="text/css"><![CDATA[
.edge:hover path { stroke: red; }
.edge:hover polygon { stroke: red; fill: red; }
]]></style>
<script type="text/javascript"><![CDATA[
var edges = document.getElementsByTagName('g');
if (edges && edges.length) {
  for (var i=0;i<edges.length;i++) {
    if (edges[i].id.substr(0,4)=='edge') {
      edges[i].setAttribute('class','edge');
    }
  }
}
]]></script>
        <defs>
                <circle id="rim" cx="0" cy="0" r="7"/>
                <circle id="rim2" cx="0" cy="0" r="3.5"/>
                <g id="zoomPlus">
                        <use xlink:href="#rim" fill="#404040">
                                <set attributeName="fill" to="#808080" begin="zoomplus.mouseover" end="zoomplus.mouseout"/>
                        </use>
                        <path d="M-4,0h8M0,-4v8" fill="none" stroke="white" stroke-width="1.5" pointer-events="none"/>
                </g>
                <g id="zoomMin">
                        <use xlink:href="#rim" fill="#404040">
                                <set attributeName="fill" to="#808080" begin="zoomminus.mouseover" end="zoomminus.mouseout"/>
                        </use>
                        <path d="M-4,0h8" fill="none" stroke="white" stroke-width="1.5" pointer-events="none"/>
                </g>
                <g id="dirArrow">
                        <path fill="none" stroke="white" stroke-width="1.5" d="M0,-3.0v7 M-2.5,-0.5L0,-3.0L2.5,-0.5"/>
                </g>
               <g id="resetDef">
                       <use xlink:href="#rim2" fill="#404040">
                               <set attributeName="fill" to="#808080" begin="reset.mouseover" end="reset.mouseout"/>
                       </use>
               </g>
        </defs>

<script type="text/javascript">
var viewWidth = 2144;
var viewHeight = 196;
var sectionId = 'dynsection-1';
</script>
<script xlink:href="svgpan.js"/>
<svg id="graph" class="graph">
<g id="viewport">
<title>mfem::MixedVectorGradientIntegrator</title>
<polygon fill="white" stroke="white" points="-4,5 -4,-192 2141,-192 2141,5 -4,5"/>
<!-- Node4 -->
<g id="node1" class="node"><title>Node4</title>
<polygon fill="#bfbfbf" stroke="black" points="1918,-61 1918,-99 2136,-99 2136,-61 1918,-61"/>
<text text-anchor="start" x="1926" y="-83.8" font-family="Helvetica,sans-Serif" font-size="14.00">mfem::MixedVectorGradient</text>
<text text-anchor="middle" x="2027" y="-68.8" font-family="Helvetica,sans-Serif" font-size="14.00">Integrator</text>
</g>
<!-- Node5 -->
<g id="node2" class="node"><title>Node5</title>
<g id="a_node2"><a xlink:href="classmfem_1_1MixedVectorIntegrator.html" target="_top" xlink:title="mfem::MixedVectorIntegrator">
<polygon fill="white" stroke="black" points="1652.5,-68.5 1652.5,-91.5 1879.5,-91.5 1879.5,-68.5 1652.5,-68.5"/>
<text text-anchor="middle" x="1766" y="-76.3" font-family="Helvetica,sans-Serif" font-size="14.00">mfem::MixedVectorIntegrator</text>
</a>
</g>
</g>
<!-- Node5&#45;&gt;Node4 -->
<g id="edge1" class="edge"><title>Node5&#45;&gt;Node4</title>
<path fill="none" stroke="midnightblue" d="M1889.88,-80C1899.15,-80 1908.46,-80 1917.63,-80"/>
<polygon fill="midnightblue" stroke="midnightblue" points="1889.85,-76.5001 1879.85,-80 1889.85,-83.5001 1889.85,-76.5001"/>
</g>
<!-- Node6 -->
<g id="node3" class="node"><title>Node6</title>
<g id="a_node3"><a xlink:href="classmfem_1_1BilinearFormIntegrator.html" target="_top" xlink:title="Abstract base class BilinearFormIntegrator. ">
<polygon fill="white" stroke="black" points="1356.5,-137.5 1356.5,-160.5 1587.5,-160.5 1587.5,-137.5 1356.5,-137.5"/>
<text text-anchor="middle" x="1472" y="-145.3" font-family="Helvetica,sans-Serif" font-size="14.00">mfem::BilinearFormIntegrator</text>
</a>
</g>
</g>
<!-- Node6&#45;&gt;Node5 -->
<g id="edge2" class="edge"><title>Node6&#45;&gt;Node5</title>
<path fill="none" stroke="midnightblue" d="M1551.75,-135.529C1563.92,-133.185 1576.32,-130.644 1588,-128 1635.98,-117.135 1690.51,-101.901 1726.22,-91.5292"/>
<polygon fill="midnightblue" stroke="midnightblue" points="1550.78,-132.151 1541.6,-137.45 1552.08,-139.029 1550.78,-132.151"/>
</g>
<!-- Node7 -->
<g id="node4" class="node"><title>Node7</title>
<g id="a_node4"><a xlink:href="classmfem_1_1NonlinearFormIntegrator.html" target="_top" xlink:title="This class is used to express the local action of a general nonlinear finite element operator...">
<polygon fill="white" stroke="black" points="1072,-137.5 1072,-160.5 1318,-160.5 1318,-137.5 1072,-137.5"/>
<text text-anchor="middle" x="1195" y="-145.3" font-family="Helvetica,sans-Serif" font-size="14.00">mfem::NonlinearFormIntegrator</text>
</a>
</g>
</g>
<!-- Node7&#45;&gt;Node6 -->
<g id="edge3" class="edge"><title>Node7&#45;&gt;Node6</title>
<path fill="none" stroke="midnightblue" d="M1328.31,-149C1337.62,-149 1346.97,-149 1356.18,-149"/>
<polygon fill="midnightblue" stroke="midnightblue" points="1328.22,-145.5 1318.22,-149 1328.22,-152.5 1328.22,-145.5"/>
</g>
<!-- Node8 -->
<g id="node5" class="node"><title>Node8</title>
<g id="a_node5"><a xlink:href="classmfem_1_1ceed_1_1Operator.html" target="_top" xlink:title="mfem::ceed::Operator">
<polygon fill="white" stroke="black" points="799,-163.5 799,-186.5 975,-186.5 975,-163.5 799,-163.5"/>
<text text-anchor="middle" x="887" y="-171.3" font-family="Helvetica,sans-Serif" font-size="14.00">mfem::ceed::Operator</text>
</a>
</g>
</g>
<!-- Node8&#45;&gt;Node7 -->
<g id="edge4" class="edge"><title>Node8&#45;&gt;Node7</title>
<path fill="none" stroke="#9a32cd" stroke-dasharray="5,2" d="M985.273,-166.735C1012.77,-164.399 1043.04,-161.827 1071.8,-159.383"/>
<polygon fill="#9a32cd" stroke="#9a32cd" points="984.946,-163.25 975.278,-167.584 985.538,-170.225 984.946,-163.25"/>
<text text-anchor="middle" x="1024" y="-169.8" font-family="Helvetica,sans-Serif" font-size="14.00"> ceedOp</text>
</g>
<!-- Node9 -->
<g id="node6" class="node"><title>Node9</title>
<g id="a_node6"><a xlink:href="classmfem_1_1Operator.html" target="_top" xlink:title="Abstract operator. ">
<polygon fill="white" stroke="black" points="591.5,-164.5 591.5,-187.5 724.5,-187.5 724.5,-164.5 591.5,-164.5"/>
<text text-anchor="middle" x="658" y="-172.3" font-family="Helvetica,sans-Serif" font-size="14.00">mfem::Operator</text>
</a>
</g>
</g>
<!-- Node9&#45;&gt;Node8 -->
<g id="edge5" class="edge"><title>Node9&#45;&gt;Node8</title>
<path fill="none" stroke="midnightblue" d="M734.896,-175.666C755.439,-175.575 777.834,-175.477 798.938,-175.384"/>
<polygon fill="midnightblue" stroke="midnightblue" points="734.642,-172.167 724.658,-175.711 734.673,-179.167 734.642,-172.167"/>
</g>
<!-- Node10 -->
<g id="node7" class="node"><title>Node10</title>
<g id="a_node7"><a xlink:href="classmfem_1_1IntegrationRule.html" target="_top" xlink:title="Class for an integration rule &#45; an Array of IntegrationPoint. ">
<polygon fill="white" stroke="black" points="798,-115.5 798,-138.5 976,-138.5 976,-115.5 798,-115.5"/>
<text text-anchor="middle" x="887" y="-123.3" font-family="Helvetica,sans-Serif" font-size="14.00">mfem::IntegrationRule</text>
</a>
</g>
</g>
<!-- Node10&#45;&gt;Node7 -->
<g id="edge6" class="edge"><title>Node10&#45;&gt;Node7</title>
<path fill="none" stroke="#9a32cd" stroke-dasharray="5,2" d="M986.444,-132.517C1008.67,-133.878 1032.15,-135.406 1054,-137 1059.84,-137.426 1065.81,-137.878 1071.85,-138.346"/>
<polygon fill="#9a32cd" stroke="#9a32cd" points="986.525,-129.016 976.331,-131.904 986.101,-136.003 986.525,-129.016"/>
<text text-anchor="middle" x="1024" y="-140.8" font-family="Helvetica,sans-Serif" font-size="14.00"> IntRule</text>
</g>
<!-- Node11 -->
<g id="node8" class="node"><title>Node11</title>
<g id="a_node8"><a xlink:href="classmfem_1_1Array.html" target="_top" xlink:title="mfem::Array\&lt; Integration\lPoint \&gt;">
<polygon fill="white" stroke="black" points="556.5,-107 556.5,-145 759.5,-145 759.5,-107 556.5,-107"/>
<text text-anchor="start" x="564.5" y="-129.8" font-family="Helvetica,sans-Serif" font-size="14.00">mfem::Array&lt; Integration</text>
<text text-anchor="middle" x="658" y="-114.8" font-family="Helvetica,sans-Serif" font-size="14.00">Point &gt;</text>
</a>
</g>
</g>
<!-- Node11&#45;&gt;Node10 -->
<g id="edge7" class="edge"><title>Node11&#45;&gt;Node10</title>
<path fill="none" stroke="midnightblue" d="M769.798,-126.488C779.256,-126.53 788.739,-126.572 797.985,-126.612"/>
<polygon fill="midnightblue" stroke="midnightblue" points="769.572,-122.987 759.557,-126.443 769.541,-129.987 769.572,-122.987"/>
</g>
<!-- Node12 -->
<g id="node9" class="node"><title>Node12</title>
<g id="a_node9"><a xlink:href="classmfem_1_1Memory.html" target="_top" xlink:title="mfem::Memory\&lt; Integration\lPoint \&gt;">
<polygon fill="white" stroke="black" points="260,-107 260,-145 482,-145 482,-107 260,-107"/>
<text text-anchor="start" x="268" y="-129.8" font-family="Helvetica,sans-Serif" font-size="14.00">mfem::Memory&lt; Integration</text>
<text text-anchor="middle" x="371" y="-114.8" font-family="Helvetica,sans-Serif" font-size="14.00">Point &gt;</text>
</a>
</g>
</g>
<!-- Node12&#45;&gt;Node11 -->
<g id="edge8" class="edge"><title>Node12&#45;&gt;Node11</title>
<path fill="none" stroke="#9a32cd" stroke-dasharray="5,2" d="M492.278,-126C513.639,-126 535.683,-126 556.426,-126"/>
<polygon fill="#9a32cd" stroke="#9a32cd" points="492.188,-122.5 482.188,-126 492.188,-129.5 492.188,-122.5"/>
<text text-anchor="middle" x="519" y="-129.8" font-family="Helvetica,sans-Serif" font-size="14.00"> data</text>
</g>
<!-- Node13 -->
<g id="node10" class="node"><title>Node13</title>
<g id="a_node10"><a xlink:href="classmfem_1_1IntegrationPoint.html" target="_top" xlink:title="Class for integration point with weight. ">
<polygon fill="white" stroke="black" points="0,-114.5 0,-137.5 182,-137.5 182,-114.5 0,-114.5"/>
<text text-anchor="middle" x="91" y="-122.3" font-family="Helvetica,sans-Serif" font-size="14.00">mfem::IntegrationPoint</text>
</a>
</g>
</g>
<!-- Node13&#45;&gt;Node12 -->
<g id="edge9" class="edge"><title>Node13&#45;&gt;Node12</title>
<path fill="none" stroke="#9a32cd" stroke-dasharray="5,2" d="M192.526,-126C214.373,-126 237.597,-126 259.796,-126"/>
<polygon fill="#9a32cd" stroke="#9a32cd" points="192.259,-122.5 182.259,-126 192.259,-129.5 192.259,-122.5"/>
<text text-anchor="middle" x="221" y="-129.8" font-family="Helvetica,sans-Serif" font-size="14.00"> h_ptr</text>
</g>
<!-- Node14 -->
<g id="node11" class="node"><title>Node14</title>
<g id="a_node11"><a xlink:href="classmfem_1_1MatrixCoefficient.html" target="_top" xlink:title="Base class for Matrix Coefficients that optionally depend on time and space. ">
<polygon fill="white" stroke="black" points="1378,-95.5 1378,-118.5 1566,-118.5 1566,-95.5 1378,-95.5"/>
<text text-anchor="middle" x="1472" y="-103.3" font-family="Helvetica,sans-Serif" font-size="14.00">mfem::MatrixCoefficient</text>
</a>
</g>
</g>
<!-- Node14&#45;&gt;Node5 -->
<g id="edge10" class="edge"><title>Node14&#45;&gt;Node5</title>
<path fill="none" stroke="#9a32cd" stroke-dasharray="5,2" d="M1576.26,-97.4524C1600.86,-95.1771 1627.25,-92.7375 1652.26,-90.425"/>
<polygon fill="#9a32cd" stroke="#9a32cd" points="1575.83,-93.9768 1566.19,-98.3828 1576.47,-100.947 1575.83,-93.9768"/>
<text text-anchor="middle" x="1620" y="-98.8" font-family="Helvetica,sans-Serif" font-size="14.00"> MQ</text>
</g>
<!-- Node15 -->
<g id="node12" class="node"><title>Node15</title>
<g id="a_node12"><a xlink:href="classmfem_1_1VectorCoefficient.html" target="_top" xlink:title="Base class for vector Coefficients that optionally depend on time and space. ">
<polygon fill="white" stroke="black" points="1377,-42.5 1377,-65.5 1567,-65.5 1567,-42.5 1377,-42.5"/>
<text text-anchor="middle" x="1472" y="-50.3" font-family="Helvetica,sans-Serif" font-size="14.00">mfem::VectorCoefficient</text>
</a>
</g>
</g>
<!-- Node15&#45;&gt;Node5 -->
<g id="edge11" class="edge"><title>Node15&#45;&gt;Node5</title>
<path fill="none" stroke="#9a32cd" stroke-dasharray="5,2" d="M1577.34,-51.8761C1596.23,-52.2795 1615.72,-53.2145 1634,-55 1661.42,-57.6792 1691.66,-63.2695 1716.16,-68.4857"/>
<polygon fill="#9a32cd" stroke="#9a32cd" points="1577.28,-48.3747 1567.22,-51.7082 1577.16,-55.3737 1577.28,-48.3747"/>
<text text-anchor="middle" x="1620" y="-73.8" font-family="Helvetica,sans-Serif" font-size="14.00"> VQ</text>
<text text-anchor="middle" x="1620" y="-58.8" font-family="Helvetica,sans-Serif" font-size="14.00">DQ</text>
</g>
<!-- Node16 -->
<g id="node13" class="node"><title>Node16</title>
<g id="a_node13"><a xlink:href="classmfem_1_1Coefficient.html" target="_top" xlink:title="Base class Coefficients that optionally depend on space and time. These are used by the BilinearFormI...">
<polygon fill="white" stroke="black" points="1400,-0.5 1400,-23.5 1544,-23.5 1544,-0.5 1400,-0.5"/>
<text text-anchor="middle" x="1472" y="-8.3" font-family="Helvetica,sans-Serif" font-size="14.00">mfem::Coefficient</text>
</a>
</g>
</g>
<!-- Node16&#45;&gt;Node5 -->
<g id="edge12" class="edge"><title>Node16&#45;&gt;Node5</title>
<path fill="none" stroke="#9a32cd" stroke-dasharray="5,2" d="M1554.17,-20.5545C1579.89,-24.0748 1608.31,-28.8121 1634,-35 1670.12,-43.7011 1710.36,-58.2901 1736.58,-68.4909"/>
<polygon fill="#9a32cd" stroke="#9a32cd" points="1554.45,-17.0617 1544.08,-19.2163 1553.53,-24.0009 1554.45,-17.0617"/>
<text text-anchor="middle" x="1620" y="-38.8" font-family="Helvetica,sans-Serif" font-size="14.00"> Q</text>
</g>
</g>
</svg>
        <g id="navigator" transform="translate(0 0)" fill="#404254">
                <rect fill="#f2f5e9" fill-opacity="0.5" stroke="#606060" stroke-width=".5" x="0" y="0" width="60" height="60"/>
                <use id="zoomplus" xlink:href="#zoomPlus" x="17" y="9" onmousedown="handleZoom(evt,'in')"/>
                <use id="zoomminus" xlink:href="#zoomMin" x="42" y="9" onmousedown="handleZoom(evt,'out')"/>
                <use id="reset" xlink:href="#resetDef" x="30" y="36" onmousedown="handleReset()"/>
                <g id="arrowUp" xlink:href="#dirArrow" transform="translate(30 24)" onmousedown="handlePan(0,-1)">
                  <use xlink:href="#rim" fill="#404040">
                        <set attributeName="fill" to="#808080" begin="arrowUp.mouseover" end="arrowUp.mouseout"/>
                  </use>
                  <path fill="none" stroke="white" stroke-width="1.5" d="M0,-3.0v7 M-2.5,-0.5L0,-3.0L2.5,-0.5"/>
                </g>
                <g id="arrowRight" xlink:href="#dirArrow" transform="rotate(90) translate(36 -43)" onmousedown="handlePan(1,0)">
                  <use xlink:href="#rim" fill="#404040">
                        <set attributeName="fill" to="#808080" begin="arrowRight.mouseover" end="arrowRight.mouseout"/>
                  </use>
                  <path fill="none" stroke="white" stroke-width="1.5" d="M0,-3.0v7 M-2.5,-0.5L0,-3.0L2.5,-0.5"/>
                </g>
                <g id="arrowDown" xlink:href="#dirArrow" transform="rotate(180) translate(-30 -48)" onmousedown="handlePan(0,1)">
                  <use xlink:href="#rim" fill="#404040">
                        <set attributeName="fill" to="#808080" begin="arrowDown.mouseover" end="arrowDown.mouseout"/>
                  </use>
                  <path fill="none" stroke="white" stroke-width="1.5" d="M0,-3.0v7 M-2.5,-0.5L0,-3.0L2.5,-0.5"/>
                </g>
                <g id="arrowLeft" xlink:href="#dirArrow" transform="rotate(270) translate(-36 17)" onmousedown="handlePan(-1,0)">
                  <use xlink:href="#rim" fill="#404040">
                        <set attributeName="fill" to="#808080" begin="arrowLeft.mouseover" end="arrowLeft.mouseout"/>
                  </use>
                  <path fill="none" stroke="white" stroke-width="1.5" d="M0,-3.0v7 M-2.5,-0.5L0,-3.0L2.5,-0.5"/>
                </g>
        </g>
        <svg viewBox="0 0 15 15" width="100%" height="30px" preserveAspectRatio="xMaxYMin meet">
         <g id="arrow_out" transform="scale(0.3 0.3)">
          <a xlink:href="classmfem_1_1MixedVectorGradientIntegrator__coll__graph_org.svg" target="_base">
           <rect id="button" ry="5" rx="5" y="6" x="6" height="38" width="38"
                fill="#f2f5e9" fill-opacity="0.5" stroke="#606060" stroke-width="1.0"/>
           <path id="arrow"
             d="M 11.500037,31.436501 C 11.940474,20.09759 22.043105,11.32322 32.158766,21.979434 L 37.068811,17.246167 C 37.068811,17.246167 37.088388,32 37.088388,32 L 22.160133,31.978069 C 22.160133,31.978069 26.997745,27.140456 26.997745,27.140456 C 18.528582,18.264221 13.291696,25.230495 11.500037,31.436501 z"
             style="fill:#404040;"/>
          </a>
         </g>
        </svg>
</svg>
