<?xml version="1.0" encoding="UTF-8" standalone="no"?>
<!DOCTYPE svg PUBLIC "-//W3C//DTD SVG 1.1//EN"
 "http://www.w3.org/Graphics/SVG/1.1/DTD/svg11.dtd">
<!-- Generated by graphviz version 2.30.1 (20200304.1809)
 -->
<!-- Title: mfem::ceed::PAConvectionIntegrator Pages: 1 -->
<svg width="390pt" height="248pt"
 viewBox="0.00 0.00 390.00 248.00" xmlns="http://www.w3.org/2000/svg" xmlns:xlink="http://www.w3.org/1999/xlink">
<g id="graph0" class="graph" transform="scale(1 1) rotate(0) translate(4 244)">
<title>mfem::ceed::PAConvectionIntegrator</title>
<polygon fill="white" stroke="white" points="-4,5 -4,-244 387,-244 387,5 -4,5"/>
<!-- Node4 -->
<g id="node1" class="node"><title>Node4</title>
<polygon fill="#bfbfbf" stroke="black" points="133.5,-1 133.5,-39 342.5,-39 342.5,-1 133.5,-1"/>
<text text-anchor="start" x="141.5" y="-23.8" font-family="Helvetica,sans-Serif" font-size="14.00">mfem::ceed::PAConvection</text>
<text text-anchor="middle" x="238" y="-8.8" font-family="Helvetica,sans-Serif" font-size="14.00">Integrator</text>
</g>
<!-- Node5 -->
<g id="node2" class="node"><title>Node5</title>
<g id="a_node2"><a xlink:href="classmfem_1_1ceed_1_1PAIntegrator.html" target="_top" xlink:title="mfem::ceed::PAIntegrator">
<polygon fill="white" stroke="black" points="137.5,-78.5 137.5,-101.5 338.5,-101.5 338.5,-78.5 137.5,-78.5"/>
<text text-anchor="middle" x="238" y="-86.3" font-family="Helvetica,sans-Serif" font-size="14.00">mfem::ceed::PAIntegrator</text>
</a>
</g>
</g>
<!-- Node5&#45;&gt;Node4 -->
<g id="edge1" class="edge"><title>Node5&#45;&gt;Node4</title>
<path fill="none" stroke="midnightblue" d="M238,-68.098C238,-58.8689 238,-48.1198 238,-39.2228"/>
<polygon fill="midnightblue" stroke="midnightblue" points="234.5,-68.375 238,-78.375 241.5,-68.375 234.5,-68.375"/>
</g>
<!-- Node6 -->
<g id="node3" class="node"><title>Node6</title>
<g id="a_node3"><a xlink:href="classmfem_1_1ceed_1_1Operator.html" target="_top" xlink:title="mfem::ceed::Operator">
<polygon fill="white" stroke="black" points="0,-154.5 0,-177.5 176,-177.5 176,-154.5 0,-154.5"/>
<text text-anchor="middle" x="88" y="-162.3" font-family="Helvetica,sans-Serif" font-size="14.00">mfem::ceed::Operator</text>
</a>
</g>
</g>
<!-- Node6&#45;&gt;Node5 -->
<g id="edge2" class="edge"><title>Node6&#45;&gt;Node5</title>
<path fill="none" stroke="midnightblue" d="M118.801,-149.805C147.95,-135.425 190.948,-114.212 216.549,-101.583"/>
<polygon fill="midnightblue" stroke="midnightblue" points="116.911,-146.834 109.491,-154.398 120.008,-153.112 116.911,-146.834"/>
</g>
<!-- Node7 -->
<g id="node4" class="node"><title>Node7</title>
<g id="a_node4"><a xlink:href="classmfem_1_1Operator.html" target="_top" xlink:title="Abstract operator. ">
<polygon fill="white" stroke="black" points="21.5,-216.5 21.5,-239.5 154.5,-239.5 154.5,-216.5 21.5,-216.5"/>
<text text-anchor="middle" x="88" y="-224.3" font-family="Helvetica,sans-Serif" font-size="14.00">mfem::Operator</text>
</a>
</g>
</g>
<!-- Node7&#45;&gt;Node6 -->
<g id="edge3" class="edge"><title>Node7&#45;&gt;Node6</title>
<path fill="none" stroke="midnightblue" d="M88,-206.231C88,-196.592 88,-185.544 88,-177.634"/>
<polygon fill="midnightblue" stroke="midnightblue" points="84.5001,-206.273 88,-216.273 91.5001,-206.273 84.5001,-206.273"/>
</g>
<!-- Node8 -->
<g id="node5" class="node"><title>Node8</title>
<g id="a_node5"><a xlink:href="structmfem_1_1ceed_1_1Coefficient.html" target="_top" xlink:title="mfem::ceed::Coefficient">
<polygon fill="white" stroke="black" points="194,-154.5 194,-177.5 382,-177.5 382,-154.5 194,-154.5"/>
<text text-anchor="middle" x="288" y="-162.3" font-family="Helvetica,sans-Serif" font-size="14.00">mfem::ceed::Coefficient</text>
</a>
</g>
</g>
<!-- Node8&#45;&gt;Node5 -->
<g id="edge4" class="edge"><title>Node8&#45;&gt;Node5</title>
<path fill="none" stroke="#9a32cd" stroke-dasharray="5,2" d="M275.101,-145.909C265.568,-131.801 252.942,-113.114 245.15,-101.583"/>
<polygon fill="#9a32cd" stroke="#9a32cd" points="272.338,-148.071 280.836,-154.398 278.138,-144.152 272.338,-148.071"/>
<text text-anchor="middle" x="287" y="-124.3" font-family="Helvetica,sans-Serif" font-size="14.00"> coeff</text>
</g>
</g>
</svg>
