<?xml version="1.0" encoding="UTF-8" standalone="no"?>
<!DOCTYPE svg PUBLIC "-//W3C//DTD SVG 1.1//EN"
 "http://www.w3.org/Graphics/SVG/1.1/DTD/svg11.dtd">
<!-- Generated by graphviz version 2.30.1 (20200304.1809)
 -->
<!-- Title: mfem::HypreTriSolve Pages: 1 -->
<svg width="174pt" height="212pt"
 viewBox="0.00 0.00 174.00 212.00" xmlns="http://www.w3.org/2000/svg" xmlns:xlink="http://www.w3.org/1999/xlink">
<g id="graph0" class="graph" transform="scale(1 1) rotate(0) translate(4 208)">
<title>mfem::HypreTriSolve</title>
<polygon fill="white" stroke="white" points="-4,5 -4,-208 171,-208 171,5 -4,5"/>
<!-- Node0 -->
<g id="node1" class="node"><title>Node0</title>
<polygon fill="#bfbfbf" stroke="black" points="-0.5,-0.5 -0.5,-23.5 166.5,-23.5 166.5,-0.5 -0.5,-0.5"/>
<text text-anchor="middle" x="83" y="-8.3" font-family="Helvetica,sans-Serif" font-size="14.00">mfem::HypreTriSolve</text>
</g>
<!-- Node1 -->
<g id="node2" class="node"><title>Node1</title>
<g id="a_node2"><a xlink:href="classmfem_1_1HypreSolver.html" target="_top" xlink:title="Abstract class for hypre&#39;s solvers and preconditioners. ">
<polygon fill="white" stroke="black" points="5,-60.5 5,-83.5 161,-83.5 161,-60.5 5,-60.5"/>
<text text-anchor="middle" x="83" y="-68.3" font-family="Helvetica,sans-Serif" font-size="14.00">mfem::HypreSolver</text>
</a>
</g>
</g>
<!-- Node1&#45;&gt;Node0 -->
<g id="edge1" class="edge"><title>Node1&#45;&gt;Node0</title>
<path fill="none" stroke="midnightblue" d="M83,-50.1906C83,-41.1684 83,-30.9941 83,-23.5707"/>
<polygon fill="midnightblue" stroke="midnightblue" points="79.5001,-50.3619 83,-60.3619 86.5001,-50.3619 79.5001,-50.3619"/>
</g>
<!-- Node2 -->
<g id="node3" class="node"><title>Node2</title>
<g id="a_node3"><a xlink:href="classmfem_1_1Solver.html" target="_top" xlink:title="Base class for solvers. ">
<polygon fill="white" stroke="black" points="26.5,-120.5 26.5,-143.5 139.5,-143.5 139.5,-120.5 26.5,-120.5"/>
<text text-anchor="middle" x="83" y="-128.3" font-family="Helvetica,sans-Serif" font-size="14.00">mfem::Solver</text>
</a>
</g>
</g>
<!-- Node2&#45;&gt;Node1 -->
<g id="edge2" class="edge"><title>Node2&#45;&gt;Node1</title>
<path fill="none" stroke="midnightblue" d="M83,-110.191C83,-101.168 83,-90.9941 83,-83.5707"/>
<polygon fill="midnightblue" stroke="midnightblue" points="79.5001,-110.362 83,-120.362 86.5001,-110.362 79.5001,-110.362"/>
</g>
<!-- Node3 -->
<g id="node4" class="node"><title>Node3</title>
<g id="a_node4"><a xlink:href="classmfem_1_1Operator.html" target="_top" xlink:title="Abstract operator. ">
<polygon fill="white" stroke="black" points="16.5,-180.5 16.5,-203.5 149.5,-203.5 149.5,-180.5 16.5,-180.5"/>
<text text-anchor="middle" x="83" y="-188.3" font-family="Helvetica,sans-Serif" font-size="14.00">mfem::Operator</text>
</a>
</g>
</g>
<!-- Node3&#45;&gt;Node2 -->
<g id="edge3" class="edge"><title>Node3&#45;&gt;Node2</title>
<path fill="none" stroke="midnightblue" d="M83,-170.191C83,-161.168 83,-150.994 83,-143.571"/>
<polygon fill="midnightblue" stroke="midnightblue" points="79.5001,-170.362 83,-180.362 86.5001,-170.362 79.5001,-170.362"/>
</g>
</g>
</svg>
