<?xml version="1.0" encoding="UTF-8" standalone="no"?>
<!DOCTYPE svg PUBLIC "-//W3C//DTD SVG 1.1//EN"
 "http://www.w3.org/Graphics/SVG/1.1/DTD/svg11.dtd">
<!-- Generated by graphviz version 2.30.1 (20200304.1809)
 -->
<!-- Title: mfem::DeltaLFIntegrator Pages: 1 -->
<svg width="774pt" height="331pt"
 viewBox="0.00 0.00 774.00 331.00" xmlns="http://www.w3.org/2000/svg" xmlns:xlink="http://www.w3.org/1999/xlink">
<g id="graph0" class="graph" transform="scale(1 1) rotate(0) translate(4 327)">
<title>mfem::DeltaLFIntegrator</title>
<polygon fill="white" stroke="white" points="-4,5 -4,-327 771,-327 771,5 -4,5"/>
<!-- Node0 -->
<g id="node1" class="node"><title>Node0</title>
<polygon fill="#bfbfbf" stroke="black" points="258.5,-157.5 258.5,-180.5 453.5,-180.5 453.5,-157.5 258.5,-157.5"/>
<text text-anchor="middle" x="356" y="-165.3" font-family="Helvetica,sans-Serif" font-size="14.00">mfem::DeltaLFIntegrator</text>
</g>
<!-- Node2 -->
<g id="node3" class="node"><title>Node2</title>
<g id="a_node3"><a xlink:href="classmfem_1_1DomainLFGradIntegrator.html" target="_top" xlink:title="Class for domain integrator L(v) := (f, grad v) ">
<polygon fill="white" stroke="black" points="504,-299.5 504,-322.5 752,-322.5 752,-299.5 504,-299.5"/>
<text text-anchor="middle" x="628" y="-307.3" font-family="Helvetica,sans-Serif" font-size="14.00">mfem::DomainLFGradIntegrator</text>
</a>
</g>
</g>
<!-- Node0&#45;&gt;Node2 -->
<g id="edge2" class="edge"><title>Node0&#45;&gt;Node2</title>
<path fill="none" stroke="midnightblue" d="M372.298,-188.881C394.806,-216.555 439.663,-265.985 490,-290 497.927,-293.782 506.378,-296.912 515.044,-299.5"/>
<polygon fill="midnightblue" stroke="midnightblue" points="374.766,-186.361 365.797,-180.72 369.29,-190.723 374.766,-186.361"/>
</g>
<!-- Node3 -->
<g id="node4" class="node"><title>Node3</title>
<g id="a_node4"><a xlink:href="classmfem_1_1DomainLFIntegrator.html" target="_top" xlink:title="Class for domain integration L(v) := (f, v) ">
<polygon fill="white" stroke="black" points="521.5,-257.5 521.5,-280.5 734.5,-280.5 734.5,-257.5 521.5,-257.5"/>
<text text-anchor="middle" x="628" y="-265.3" font-family="Helvetica,sans-Serif" font-size="14.00">mfem::DomainLFIntegrator</text>
</a>
</g>
</g>
<!-- Node0&#45;&gt;Node3 -->
<g id="edge3" class="edge"><title>Node0&#45;&gt;Node3</title>
<path fill="none" stroke="midnightblue" d="M380.738,-186.628C406.347,-204.728 448.985,-232.269 490,-247 501.789,-251.234 514.442,-254.656 527.12,-257.421"/>
<polygon fill="midnightblue" stroke="midnightblue" points="382.586,-183.646 372.421,-180.656 378.503,-189.332 382.586,-183.646"/>
</g>
<!-- Node4 -->
<g id="node5" class="node"><title>Node4</title>
<g id="a_node5"><a xlink:href="classmfem_1_1VectorDomainLFGradIntegrator.html" target="_top" xlink:title="mfem::VectorDomainLFGrad\lIntegrator">
<polygon fill="white" stroke="black" points="517,-200 517,-238 739,-238 739,-200 517,-200"/>
<text text-anchor="start" x="525" y="-222.8" font-family="Helvetica,sans-Serif" font-size="14.00">mfem::VectorDomainLFGrad</text>
<text text-anchor="middle" x="628" y="-207.8" font-family="Helvetica,sans-Serif" font-size="14.00">Integrator</text>
</a>
</g>
</g>
<!-- Node0&#45;&gt;Node4 -->
<g id="edge4" class="edge"><title>Node0&#45;&gt;Node4</title>
<path fill="none" stroke="midnightblue" d="M429.371,-182.402C458.518,-187.8 492.669,-194.124 524.305,-199.982"/>
<polygon fill="midnightblue" stroke="midnightblue" points="429.753,-178.913 419.282,-180.534 428.478,-185.796 429.753,-178.913"/>
</g>
<!-- Node5 -->
<g id="node6" class="node"><title>Node5</title>
<g id="a_node6"><a xlink:href="classmfem_1_1VectorDomainLFIntegrator.html" target="_top" xlink:title="mfem::VectorDomainLFIntegrator">
<polygon fill="white" stroke="black" points="498.5,-157.5 498.5,-180.5 757.5,-180.5 757.5,-157.5 498.5,-157.5"/>
<text text-anchor="middle" x="628" y="-165.3" font-family="Helvetica,sans-Serif" font-size="14.00">mfem::VectorDomainLFIntegrator</text>
</a>
</g>
</g>
<!-- Node0&#45;&gt;Node5 -->
<g id="edge5" class="edge"><title>Node0&#45;&gt;Node5</title>
<path fill="none" stroke="midnightblue" d="M464.024,-169C475.345,-169 486.941,-169 498.474,-169"/>
<polygon fill="midnightblue" stroke="midnightblue" points="463.714,-165.5 453.714,-169 463.714,-172.5 463.714,-165.5"/>
</g>
<!-- Node6 -->
<g id="node7" class="node"><title>Node6</title>
<g id="a_node7"><a xlink:href="classmfem_1_1VectorFEDomainLFCurlIntegrator.html" target="_top" xlink:title=" for Nedelec Elements) ">
<polygon fill="white" stroke="black" points="511.5,-100 511.5,-138 744.5,-138 744.5,-100 511.5,-100"/>
<text text-anchor="start" x="519.5" y="-122.8" font-family="Helvetica,sans-Serif" font-size="14.00">mfem::VectorFEDomainLFCurl</text>
<text text-anchor="middle" x="628" y="-107.8" font-family="Helvetica,sans-Serif" font-size="14.00">Integrator</text>
</a>
</g>
</g>
<!-- Node0&#45;&gt;Node6 -->
<g id="edge6" class="edge"><title>Node0&#45;&gt;Node6</title>
<path fill="none" stroke="midnightblue" d="M429.371,-155.598C458.518,-150.2 492.669,-143.876 524.305,-138.018"/>
<polygon fill="midnightblue" stroke="midnightblue" points="428.478,-152.204 419.282,-157.466 429.753,-159.087 428.478,-152.204"/>
</g>
<!-- Node7 -->
<g id="node8" class="node"><title>Node7</title>
<g id="a_node8"><a xlink:href="classmfem_1_1VectorFEDomainLFDivIntegrator.html" target="_top" xlink:title=" for RT Elements) ">
<polygon fill="white" stroke="black" points="514.5,-43 514.5,-81 741.5,-81 741.5,-43 514.5,-43"/>
<text text-anchor="start" x="522.5" y="-65.8" font-family="Helvetica,sans-Serif" font-size="14.00">mfem::VectorFEDomainLFDiv</text>
<text text-anchor="middle" x="628" y="-50.8" font-family="Helvetica,sans-Serif" font-size="14.00">Integrator</text>
</a>
</g>
</g>
<!-- Node0&#45;&gt;Node7 -->
<g id="edge7" class="edge"><title>Node0&#45;&gt;Node7</title>
<path fill="none" stroke="midnightblue" d="M380.83,-151.48C406.515,-133.427 449.216,-105.762 490,-90 498.605,-86.6745 507.674,-83.7192 516.879,-81.0977"/>
<polygon fill="midnightblue" stroke="midnightblue" points="378.596,-148.775 372.486,-157.43 382.66,-154.474 378.596,-148.775"/>
</g>
<!-- Node8 -->
<g id="node9" class="node"><title>Node8</title>
<g id="a_node9"><a xlink:href="classmfem_1_1VectorFEDomainLFIntegrator.html" target="_top" xlink:title=" for VectorFiniteElements (Nedelec, Raviart&#45;Thomas) ">
<polygon fill="white" stroke="black" points="490,-0.5 490,-23.5 766,-23.5 766,-0.5 490,-0.5"/>
<text text-anchor="middle" x="628" y="-8.3" font-family="Helvetica,sans-Serif" font-size="14.00">mfem::VectorFEDomainLFIntegrator</text>
</a>
</g>
</g>
<!-- Node0&#45;&gt;Node8 -->
<g id="edge8" class="edge"><title>Node0&#45;&gt;Node8</title>
<path fill="none" stroke="midnightblue" d="M370.14,-148.896C391.344,-118.278 436.218,-60.6127 490,-33 497.278,-29.2633 505.039,-26.1487 513.027,-23.557"/>
<polygon fill="midnightblue" stroke="midnightblue" points="367.045,-147.224 364.335,-157.466 372.841,-151.149 367.045,-147.224"/>
</g>
<!-- Node1 -->
<g id="node2" class="node"><title>Node1</title>
<g id="a_node2"><a xlink:href="classmfem_1_1LinearFormIntegrator.html" target="_top" xlink:title="Abstract base class LinearFormIntegrator. ">
<polygon fill="white" stroke="black" points="0,-157.5 0,-180.5 222,-180.5 222,-157.5 0,-157.5"/>
<text text-anchor="middle" x="111" y="-165.3" font-family="Helvetica,sans-Serif" font-size="14.00">mfem::LinearFormIntegrator</text>
</a>
</g>
</g>
<!-- Node1&#45;&gt;Node0 -->
<g id="edge1" class="edge"><title>Node1&#45;&gt;Node0</title>
<path fill="none" stroke="midnightblue" d="M232.321,-169C241.019,-169 249.726,-169 258.262,-169"/>
<polygon fill="midnightblue" stroke="midnightblue" points="232.124,-165.5 222.124,-169 232.124,-172.5 232.124,-165.5"/>
</g>
</g>
</svg>
