<?xml version="1.0" encoding="UTF-8" standalone="no"?>
<!DOCTYPE svg PUBLIC "-//W3C//DTD SVG 1.1//EN"
 "http://www.w3.org/Graphics/SVG/1.1/DTD/svg11.dtd">
<!-- Generated by graphviz version 2.30.1 (20200304.1809)
 -->
<!-- Title: mfem::RT_R1D_SegmentElement Pages: 1 -->
<!--zoomable 680 -->
<svg id="main" version="1.1" xmlns="http://www.w3.org/2000/svg" xmlns:xlink="http://www.w3.org/1999/xlink" xml:space="preserve" onload="init(evt)">
<style type="text/css"><![CDATA[
.edge:hover path { stroke: red; }
.edge:hover polygon { stroke: red; fill: red; }
]]></style>
<script type="text/javascript"><![CDATA[
var edges = document.getElementsByTagName('g');
if (edges && edges.length) {
  for (var i=0;i<edges.length;i++) {
    if (edges[i].id.substr(0,4)=='edge') {
      edges[i].setAttribute('class','edge');
    }
  }
}
]]></script>
        <defs>
                <circle id="rim" cx="0" cy="0" r="7"/>
                <circle id="rim2" cx="0" cy="0" r="3.5"/>
                <g id="zoomPlus">
                        <use xlink:href="#rim" fill="#404040">
                                <set attributeName="fill" to="#808080" begin="zoomplus.mouseover" end="zoomplus.mouseout"/>
                        </use>
                        <path d="M-4,0h8M0,-4v8" fill="none" stroke="white" stroke-width="1.5" pointer-events="none"/>
                </g>
                <g id="zoomMin">
                        <use xlink:href="#rim" fill="#404040">
                                <set attributeName="fill" to="#808080" begin="zoomminus.mouseover" end="zoomminus.mouseout"/>
                        </use>
                        <path d="M-4,0h8" fill="none" stroke="white" stroke-width="1.5" pointer-events="none"/>
                </g>
                <g id="dirArrow">
                        <path fill="none" stroke="white" stroke-width="1.5" d="M0,-3.0v7 M-2.5,-0.5L0,-3.0L2.5,-0.5"/>
                </g>
               <g id="resetDef">
                       <use xlink:href="#rim2" fill="#404040">
                               <set attributeName="fill" to="#808080" begin="reset.mouseover" end="reset.mouseout"/>
                       </use>
               </g>
        </defs>

<script type="text/javascript">
var viewWidth = 647;
var viewHeight = 680;
var sectionId = 'dynsection-1';
</script>
<script xlink:href="svgpan.js"/>
<svg id="graph" class="graph">
<g id="viewport">
<title>mfem::RT_R1D_SegmentElement</title>
<polygon fill="white" stroke="white" points="-4,5 -4,-676 644,-676 644,5 -4,5"/>
<!-- Node3 -->
<g id="node1" class="node"><title>Node3</title>
<polygon fill="#bfbfbf" stroke="black" points="384.5,-100.5 384.5,-123.5 639.5,-123.5 639.5,-100.5 384.5,-100.5"/>
<text text-anchor="middle" x="512" y="-108.3" font-family="Helvetica,sans-Serif" font-size="14.00">mfem::RT_R1D_SegmentElement</text>
</g>
<!-- Node4 -->
<g id="node2" class="node"><title>Node4</title>
<g id="a_node2"><a xlink:href="classmfem_1_1VectorFiniteElement.html" target="_top" xlink:title="Intermediate class for finite elements whose basis functions return vector values. ">
<polygon fill="white" stroke="black" points="405,-184.5 405,-207.5 617,-207.5 617,-184.5 405,-184.5"/>
<text text-anchor="middle" x="511" y="-192.3" font-family="Helvetica,sans-Serif" font-size="14.00">mfem::VectorFiniteElement</text>
</a>
</g>
</g>
<!-- Node4&#45;&gt;Node3 -->
<g id="edge1" class="edge"><title>Node4&#45;&gt;Node3</title>
<path fill="none" stroke="midnightblue" d="M511.254,-174.203C511.45,-158.114 511.714,-136.493 511.869,-123.723"/>
<polygon fill="midnightblue" stroke="midnightblue" points="507.753,-174.238 511.131,-184.28 514.753,-174.323 507.753,-174.238"/>
</g>
<!-- Node5 -->
<g id="node3" class="node"><title>Node5</title>
<g id="a_node3"><a xlink:href="classmfem_1_1FiniteElement.html" target="_top" xlink:title="Abstract class for all finite elements. ">
<polygon fill="white" stroke="black" points="308,-315.5 308,-338.5 474,-338.5 474,-315.5 308,-315.5"/>
<text text-anchor="middle" x="391" y="-323.3" font-family="Helvetica,sans-Serif" font-size="14.00">mfem::FiniteElement</text>
</a>
</g>
</g>
<!-- Node5&#45;&gt;Node4 -->
<g id="edge2" class="edge"><title>Node5&#45;&gt;Node4</title>
<path fill="none" stroke="midnightblue" d="M407.954,-307.774C433.366,-280.456 480.533,-229.752 501.044,-207.702"/>
<polygon fill="midnightblue" stroke="midnightblue" points="405.069,-305.738 400.82,-315.443 410.194,-310.505 405.069,-305.738"/>
</g>
<!-- Node8 -->
<g id="node6" class="node"><title>Node8</title>
<g id="a_node6"><a xlink:href="classmfem_1_1DofToQuad.html" target="_top" xlink:title="Structure representing the matrices/tensors needed to evaluate (in reference space) the values...">
<polygon fill="white" stroke="black" points="161,-184.5 161,-207.5 309,-207.5 309,-184.5 161,-184.5"/>
<text text-anchor="middle" x="235" y="-192.3" font-family="Helvetica,sans-Serif" font-size="14.00">mfem::DofToQuad</text>
</a>
</g>
</g>
<!-- Node5&#45;&gt;Node8 -->
<g id="edge12" class="edge"><title>Node5&#45;&gt;Node8</title>
<path fill="none" stroke="#9a32cd" stroke-dasharray="5,2" d="M359.568,-310.872C346.756,-304.062 332.135,-295.432 320,-286 288.454,-261.48 257.64,-225.293 243.321,-207.568"/>
<polygon fill="#9a32cd" stroke="#9a32cd" points="358.025,-314.014 368.516,-315.495 361.238,-307.795 358.025,-314.014"/>
<text text-anchor="middle" x="331" y="-252.3" font-family="Helvetica,sans-Serif" font-size="14.00"> FE</text>
</g>
<!-- Node6 -->
<g id="node4" class="node"><title>Node6</title>
<g id="a_node4"><a xlink:href="classmfem_1_1Array.html" target="_top" xlink:title="mfem::Array\&lt; mfem::\lDofToQuad *\&gt;">
<polygon fill="white" stroke="black" points="225,-1 225,-39 401,-39 401,-1 225,-1"/>
<text text-anchor="start" x="233" y="-23.8" font-family="Helvetica,sans-Serif" font-size="14.00">mfem::Array&lt; mfem::</text>
<text text-anchor="middle" x="313" y="-8.8" font-family="Helvetica,sans-Serif" font-size="14.00">DofToQuad *&gt;</text>
</a>
</g>
</g>
<!-- Node6&#45;&gt;Node5 -->
<g id="edge3" class="edge"><title>Node6&#45;&gt;Node5</title>
<path fill="none" stroke="#9a32cd" stroke-dasharray="5,2" d="M323.175,-48.9879C327.713,-61.9758 332.938,-77.6779 337,-92 361.119,-177.034 382.324,-281.706 388.9,-315.174"/>
<polygon fill="#9a32cd" stroke="#9a32cd" points="326.358,-47.4895 319.72,-39.2321 319.76,-49.8269 326.358,-47.4895"/>
<text text-anchor="middle" x="416.5" y="-154.3" font-family="Helvetica,sans-Serif" font-size="14.00"> dof2quad_array</text>
</g>
<!-- Node7 -->
<g id="node5" class="node"><title>Node7</title>
<g id="a_node5"><a xlink:href="classmfem_1_1Memory.html" target="_top" xlink:title="mfem::Memory\&lt; mfem\l::DofToQuad *\&gt;">
<polygon fill="white" stroke="black" points="142,-93 142,-131 328,-131 328,-93 142,-93"/>
<text text-anchor="start" x="150" y="-115.8" font-family="Helvetica,sans-Serif" font-size="14.00">mfem::Memory&lt; mfem</text>
<text text-anchor="middle" x="235" y="-100.8" font-family="Helvetica,sans-Serif" font-size="14.00">::DofToQuad *&gt;</text>
</a>
</g>
</g>
<!-- Node7&#45;&gt;Node6 -->
<g id="edge4" class="edge"><title>Node7&#45;&gt;Node6</title>
<path fill="none" stroke="#9a32cd" stroke-dasharray="5,2" d="M257.513,-85.0239C270.235,-70.3442 285.827,-52.354 297.239,-39.1858"/>
<polygon fill="#9a32cd" stroke="#9a32cd" points="254.689,-82.938 250.784,-92.7872 259.979,-87.5225 254.689,-82.938"/>
<text text-anchor="middle" x="297.5" y="-62.3" font-family="Helvetica,sans-Serif" font-size="14.00"> data</text>
</g>
<!-- Node8&#45;&gt;Node7 -->
<g id="edge5" class="edge"><title>Node8&#45;&gt;Node7</title>
<path fill="none" stroke="#9a32cd" stroke-dasharray="5,2" d="M235,-174.213C235,-160.967 235,-143.968 235,-131.246"/>
<polygon fill="#9a32cd" stroke="#9a32cd" points="231.5,-174.28 235,-184.28 238.5,-174.28 231.5,-174.28"/>
<text text-anchor="middle" x="256" y="-154.3" font-family="Helvetica,sans-Serif" font-size="14.00"> h_ptr</text>
</g>
<!-- Node9 -->
<g id="node7" class="node"><title>Node9</title>
<g id="a_node7"><a xlink:href="classmfem_1_1IntegrationRule.html" target="_top" xlink:title="Class for an integration rule &#45; an Array of IntegrationPoint. ">
<polygon fill="white" stroke="black" points="227,-402.5 227,-425.5 405,-425.5 405,-402.5 227,-402.5"/>
<text text-anchor="middle" x="316" y="-410.3" font-family="Helvetica,sans-Serif" font-size="14.00">mfem::IntegrationRule</text>
</a>
</g>
</g>
<!-- Node9&#45;&gt;Node8 -->
<g id="edge6" class="edge"><title>Node9&#45;&gt;Node8</title>
<path fill="none" stroke="#9a32cd" stroke-dasharray="5,2" d="M288.337,-396.741C272.376,-385.733 253.615,-369.635 244,-350 220.245,-301.489 228.505,-233.707 232.943,-207.72"/>
<polygon fill="#9a32cd" stroke="#9a32cd" points="286.56,-399.762 296.84,-402.324 290.402,-393.91 286.56,-399.762"/>
<text text-anchor="middle" x="271.5" y="-323.3" font-family="Helvetica,sans-Serif" font-size="14.00"> IntRule</text>
</g>
<!-- Node9&#45;&gt;Node5 -->
<g id="edge13" class="edge"><title>Node9&#45;&gt;Node5</title>
<path fill="none" stroke="#9a32cd" stroke-dasharray="5,2" d="M325.881,-393.367C330.505,-385.108 336.44,-375.659 343,-368 352.597,-356.795 365.544,-346.206 375.573,-338.741"/>
<polygon fill="#9a32cd" stroke="#9a32cd" points="322.715,-391.866 321.097,-402.336 328.891,-395.161 322.715,-391.866"/>
<text text-anchor="middle" x="368" y="-372.3" font-family="Helvetica,sans-Serif" font-size="14.00"> Nodes</text>
</g>
<!-- Node10 -->
<g id="node8" class="node"><title>Node10</title>
<g id="a_node8"><a xlink:href="classmfem_1_1Array.html" target="_top" xlink:title="mfem::Array\&lt; Integration\lPoint \&gt;">
<polygon fill="white" stroke="black" points="214.5,-465 214.5,-503 417.5,-503 417.5,-465 214.5,-465"/>
<text text-anchor="start" x="222.5" y="-487.8" font-family="Helvetica,sans-Serif" font-size="14.00">mfem::Array&lt; Integration</text>
<text text-anchor="middle" x="316" y="-472.8" font-family="Helvetica,sans-Serif" font-size="14.00">Point &gt;</text>
</a>
</g>
</g>
<!-- Node10&#45;&gt;Node9 -->
<g id="edge7" class="edge"><title>Node10&#45;&gt;Node9</title>
<path fill="none" stroke="midnightblue" d="M316,-454.599C316,-444.442 316,-433.6 316,-425.834"/>
<polygon fill="midnightblue" stroke="midnightblue" points="312.5,-454.777 316,-464.777 319.5,-454.777 312.5,-454.777"/>
</g>
<!-- Node11 -->
<g id="node9" class="node"><title>Node11</title>
<g id="a_node9"><a xlink:href="classmfem_1_1Memory.html" target="_top" xlink:title="mfem::Memory\&lt; Integration\lPoint \&gt;">
<polygon fill="white" stroke="black" points="204,-557 204,-595 426,-595 426,-557 204,-557"/>
<text text-anchor="start" x="212" y="-579.8" font-family="Helvetica,sans-Serif" font-size="14.00">mfem::Memory&lt; Integration</text>
<text text-anchor="middle" x="315" y="-564.8" font-family="Helvetica,sans-Serif" font-size="14.00">Point &gt;</text>
</a>
</g>
</g>
<!-- Node11&#45;&gt;Node10 -->
<g id="edge8" class="edge"><title>Node11&#45;&gt;Node10</title>
<path fill="none" stroke="#9a32cd" stroke-dasharray="5,2" d="M315.316,-546.548C315.474,-532.36 315.66,-515.622 315.798,-503.186"/>
<polygon fill="#9a32cd" stroke="#9a32cd" points="311.814,-546.749 315.202,-556.787 318.813,-546.827 311.814,-546.749"/>
<text text-anchor="middle" x="334.5" y="-526.3" font-family="Helvetica,sans-Serif" font-size="14.00"> data</text>
</g>
<!-- Node12 -->
<g id="node10" class="node"><title>Node12</title>
<g id="a_node10"><a xlink:href="classmfem_1_1IntegrationPoint.html" target="_top" xlink:title="Class for integration point with weight. ">
<polygon fill="white" stroke="black" points="224,-648.5 224,-671.5 406,-671.5 406,-648.5 224,-648.5"/>
<text text-anchor="middle" x="315" y="-656.3" font-family="Helvetica,sans-Serif" font-size="14.00">mfem::IntegrationPoint</text>
</a>
</g>
</g>
<!-- Node12&#45;&gt;Node11 -->
<g id="edge9" class="edge"><title>Node12&#45;&gt;Node11</title>
<path fill="none" stroke="#9a32cd" stroke-dasharray="5,2" d="M315,-638.213C315,-624.967 315,-607.968 315,-595.246"/>
<polygon fill="#9a32cd" stroke="#9a32cd" points="311.5,-638.28 315,-648.28 318.5,-638.28 311.5,-638.28"/>
<text text-anchor="middle" x="336" y="-618.3" font-family="Helvetica,sans-Serif" font-size="14.00"> h_ptr</text>
</g>
<!-- Node13 -->
<g id="node11" class="node"><title>Node13</title>
<g id="a_node11"><a xlink:href="classmfem_1_1Array.html" target="_top" xlink:title="mfem::Array\&lt; double \&gt;">
<polygon fill="white" stroke="black" points="9.5,-315.5 9.5,-338.5 198.5,-338.5 198.5,-315.5 9.5,-315.5"/>
<text text-anchor="middle" x="104" y="-323.3" font-family="Helvetica,sans-Serif" font-size="14.00">mfem::Array&lt; double &gt;</text>
</a>
</g>
</g>
<!-- Node13&#45;&gt;Node8 -->
<g id="edge10" class="edge"><title>Node13&#45;&gt;Node8</title>
<path fill="none" stroke="#9a32cd" stroke-dasharray="5,2" d="M121.537,-308.107C141.367,-287.958 174.71,-254.33 204,-226 210.357,-219.852 217.566,-213.095 223.431,-207.652"/>
<polygon fill="#9a32cd" stroke="#9a32cd" points="118.908,-305.788 114.396,-315.374 123.901,-310.694 118.908,-305.788"/>
<text text-anchor="middle" x="212.5" y="-274.8" font-family="Helvetica,sans-Serif" font-size="14.00"> G</text>
<text text-anchor="middle" x="212.5" y="-259.8" font-family="Helvetica,sans-Serif" font-size="14.00">Gt</text>
<text text-anchor="middle" x="212.5" y="-244.8" font-family="Helvetica,sans-Serif" font-size="14.00">B</text>
<text text-anchor="middle" x="212.5" y="-229.8" font-family="Helvetica,sans-Serif" font-size="14.00">Bt</text>
</g>
<!-- Node14 -->
<g id="node12" class="node"><title>Node14</title>
<g id="a_node12"><a xlink:href="classmfem_1_1Memory.html" target="_top" xlink:title="mfem::Memory\&lt; double \&gt;">
<polygon fill="white" stroke="black" points="-0.5,-402.5 -0.5,-425.5 208.5,-425.5 208.5,-402.5 -0.5,-402.5"/>
<text text-anchor="middle" x="104" y="-410.3" font-family="Helvetica,sans-Serif" font-size="14.00">mfem::Memory&lt; double &gt;</text>
</a>
</g>
</g>
<!-- Node14&#45;&gt;Node13 -->
<g id="edge11" class="edge"><title>Node14&#45;&gt;Node13</title>
<path fill="none" stroke="#9a32cd" stroke-dasharray="5,2" d="M104,-392.18C104,-375.249 104,-352.047 104,-338.678"/>
<polygon fill="#9a32cd" stroke="#9a32cd" points="100.5,-392.235 104,-402.235 107.5,-392.235 100.5,-392.235"/>
<text text-anchor="middle" x="122.5" y="-372.3" font-family="Helvetica,sans-Serif" font-size="14.00"> data</text>
</g>
<!-- Node15 -->
<g id="node13" class="node"><title>Node15</title>
<g id="a_node13"><a xlink:href="classmfem_1_1DenseMatrix.html" target="_top" xlink:title="Data type dense matrix using column&#45;major storage. ">
<polygon fill="white" stroke="black" points="432,-402.5 432,-425.5 590,-425.5 590,-402.5 432,-402.5"/>
<text text-anchor="middle" x="511" y="-410.3" font-family="Helvetica,sans-Serif" font-size="14.00">mfem::DenseMatrix</text>
</a>
</g>
</g>
<!-- Node15&#45;&gt;Node5 -->
<g id="edge14" class="edge"><title>Node15&#45;&gt;Node5</title>
<path fill="none" stroke="#9a32cd" stroke-dasharray="5,2" d="M466.61,-398.583C457.391,-394.59 448.044,-389.741 440,-384 422.335,-371.392 406.752,-351.215 398.127,-338.833"/>
<polygon fill="#9a32cd" stroke="#9a32cd" points="465.528,-401.921 476.111,-402.435 468.159,-395.434 465.528,-401.921"/>
<text text-anchor="middle" x="468.5" y="-372.3" font-family="Helvetica,sans-Serif" font-size="14.00"> vshape</text>
</g>
<!-- Node15&#45;&gt;Node4 -->
<g id="edge17" class="edge"><title>Node15&#45;&gt;Node4</title>
<path fill="none" stroke="#9a32cd" stroke-dasharray="5,2" d="M511,-392.21C511,-347.142 511,-241.768 511,-207.776"/>
<polygon fill="#9a32cd" stroke="#9a32cd" points="507.5,-392.288 511,-402.289 514.5,-392.289 507.5,-392.288"/>
<text text-anchor="middle" x="552" y="-338.3" font-family="Helvetica,sans-Serif" font-size="14.00"> curlshape</text>
<text text-anchor="middle" x="552" y="-323.3" font-family="Helvetica,sans-Serif" font-size="14.00">curlshape_J</text>
<text text-anchor="middle" x="552" y="-308.3" font-family="Helvetica,sans-Serif" font-size="14.00">JtJ</text>
</g>
<!-- Node16 -->
<g id="node14" class="node"><title>Node16</title>
<g id="a_node14"><a xlink:href="classmfem_1_1Matrix.html" target="_top" xlink:title="Abstract data type matrix. ">
<polygon fill="white" stroke="black" points="454.5,-472.5 454.5,-495.5 567.5,-495.5 567.5,-472.5 454.5,-472.5"/>
<text text-anchor="middle" x="511" y="-480.3" font-family="Helvetica,sans-Serif" font-size="14.00">mfem::Matrix</text>
</a>
</g>
</g>
<!-- Node16&#45;&gt;Node15 -->
<g id="edge15" class="edge"><title>Node16&#45;&gt;Node15</title>
<path fill="none" stroke="midnightblue" d="M511,-462.272C511,-450.228 511,-435.549 511,-425.775"/>
<polygon fill="midnightblue" stroke="midnightblue" points="507.5,-462.375 511,-472.375 514.5,-462.375 507.5,-462.375"/>
</g>
<!-- Node17 -->
<g id="node15" class="node"><title>Node17</title>
<g id="a_node15"><a xlink:href="classmfem_1_1Operator.html" target="_top" xlink:title="Abstract operator. ">
<polygon fill="white" stroke="black" points="444.5,-564.5 444.5,-587.5 577.5,-587.5 577.5,-564.5 444.5,-564.5"/>
<text text-anchor="middle" x="511" y="-572.3" font-family="Helvetica,sans-Serif" font-size="14.00">mfem::Operator</text>
</a>
</g>
</g>
<!-- Node17&#45;&gt;Node16 -->
<g id="edge16" class="edge"><title>Node17&#45;&gt;Node16</title>
<path fill="none" stroke="midnightblue" d="M511,-554.08C511,-535.799 511,-510.001 511,-495.664"/>
<polygon fill="midnightblue" stroke="midnightblue" points="507.5,-554.322 511,-564.322 514.5,-554.322 507.5,-554.322"/>
</g>
</g>
</svg>
        <g id="navigator" transform="translate(0 0)" fill="#404254">
                <rect fill="#f2f5e9" fill-opacity="0.5" stroke="#606060" stroke-width=".5" x="0" y="0" width="60" height="60"/>
                <use id="zoomplus" xlink:href="#zoomPlus" x="17" y="9" onmousedown="handleZoom(evt,'in')"/>
                <use id="zoomminus" xlink:href="#zoomMin" x="42" y="9" onmousedown="handleZoom(evt,'out')"/>
                <use id="reset" xlink:href="#resetDef" x="30" y="36" onmousedown="handleReset()"/>
                <g id="arrowUp" xlink:href="#dirArrow" transform="translate(30 24)" onmousedown="handlePan(0,-1)">
                  <use xlink:href="#rim" fill="#404040">
                        <set attributeName="fill" to="#808080" begin="arrowUp.mouseover" end="arrowUp.mouseout"/>
                  </use>
                  <path fill="none" stroke="white" stroke-width="1.5" d="M0,-3.0v7 M-2.5,-0.5L0,-3.0L2.5,-0.5"/>
                </g>
                <g id="arrowRight" xlink:href="#dirArrow" transform="rotate(90) translate(36 -43)" onmousedown="handlePan(1,0)">
                  <use xlink:href="#rim" fill="#404040">
                        <set attributeName="fill" to="#808080" begin="arrowRight.mouseover" end="arrowRight.mouseout"/>
                  </use>
                  <path fill="none" stroke="white" stroke-width="1.5" d="M0,-3.0v7 M-2.5,-0.5L0,-3.0L2.5,-0.5"/>
                </g>
                <g id="arrowDown" xlink:href="#dirArrow" transform="rotate(180) translate(-30 -48)" onmousedown="handlePan(0,1)">
                  <use xlink:href="#rim" fill="#404040">
                        <set attributeName="fill" to="#808080" begin="arrowDown.mouseover" end="arrowDown.mouseout"/>
                  </use>
                  <path fill="none" stroke="white" stroke-width="1.5" d="M0,-3.0v7 M-2.5,-0.5L0,-3.0L2.5,-0.5"/>
                </g>
                <g id="arrowLeft" xlink:href="#dirArrow" transform="rotate(270) translate(-36 17)" onmousedown="handlePan(-1,0)">
                  <use xlink:href="#rim" fill="#404040">
                        <set attributeName="fill" to="#808080" begin="arrowLeft.mouseover" end="arrowLeft.mouseout"/>
                  </use>
                  <path fill="none" stroke="white" stroke-width="1.5" d="M0,-3.0v7 M-2.5,-0.5L0,-3.0L2.5,-0.5"/>
                </g>
        </g>
        <svg viewBox="0 0 15 15" width="100%" height="30px" preserveAspectRatio="xMaxYMin meet">
         <g id="arrow_out" transform="scale(0.3 0.3)">
          <a xlink:href="classmfem_1_1RT__R1D__SegmentElement__coll__graph_org.svg" target="_base">
           <rect id="button" ry="5" rx="5" y="6" x="6" height="38" width="38"
                fill="#f2f5e9" fill-opacity="0.5" stroke="#606060" stroke-width="1.0"/>
           <path id="arrow"
             d="M 11.500037,31.436501 C 11.940474,20.09759 22.043105,11.32322 32.158766,21.979434 L 37.068811,17.246167 C 37.068811,17.246167 37.088388,32 37.088388,32 L 22.160133,31.978069 C 22.160133,31.978069 26.997745,27.140456 26.997745,27.140456 C 18.528582,18.264221 13.291696,25.230495 11.500037,31.436501 z"
             style="fill:#404040;"/>
          </a>
         </g>
        </svg>
</svg>
