<?xml version="1.0" encoding="UTF-8" standalone="no"?>
<!DOCTYPE svg PUBLIC "-//W3C//DTD SVG 1.1//EN"
 "http://www.w3.org/Graphics/SVG/1.1/DTD/svg11.dtd">
<!-- Generated by graphviz version 2.30.1 (20200304.1809)
 -->
<!-- Title: mfem::RT_R2D_FiniteElement Pages: 1 -->
<svg width="497pt" height="228pt"
 viewBox="0.00 0.00 497.00 228.00" xmlns="http://www.w3.org/2000/svg" xmlns:xlink="http://www.w3.org/1999/xlink">
<g id="graph0" class="graph" transform="scale(1 1) rotate(0) translate(4 224)">
<title>mfem::RT_R2D_FiniteElement</title>
<polygon fill="white" stroke="white" points="-4,5 -4,-224 494,-224 494,5 -4,5"/>
<!-- Node0 -->
<g id="node1" class="node"><title>Node0</title>
<polygon fill="#bfbfbf" stroke="black" points="124.5,-76.5 124.5,-99.5 353.5,-99.5 353.5,-76.5 124.5,-76.5"/>
<text text-anchor="middle" x="239" y="-84.3" font-family="Helvetica,sans-Serif" font-size="14.00">mfem::RT_R2D_FiniteElement</text>
</g>
<!-- Node3 -->
<g id="node4" class="node"><title>Node3</title>
<g id="a_node4"><a xlink:href="classmfem_1_1RT__R2D__QuadrilateralElement.html" target="_top" xlink:title="Arbitrary order Raviart&#45;Thomas 3D elements in 2D on a square. ">
<polygon fill="white" stroke="black" points="-0.5,-1 -0.5,-39 224.5,-39 224.5,-1 -0.5,-1"/>
<text text-anchor="start" x="7.5" y="-23.8" font-family="Helvetica,sans-Serif" font-size="14.00">mfem::RT_R2D_Quadrilateral</text>
<text text-anchor="middle" x="112" y="-8.8" font-family="Helvetica,sans-Serif" font-size="14.00">Element</text>
</a>
</g>
</g>
<!-- Node0&#45;&gt;Node3 -->
<g id="edge3" class="edge"><title>Node0&#45;&gt;Node3</title>
<path fill="none" stroke="midnightblue" d="M209.62,-71.7319C190.86,-61.9824 166.448,-49.2958 146.73,-39.0484"/>
<polygon fill="midnightblue" stroke="midnightblue" points="208.108,-74.8902 218.595,-76.396 211.336,-68.6789 208.108,-74.8902"/>
</g>
<!-- Node4 -->
<g id="node5" class="node"><title>Node4</title>
<g id="a_node5"><a xlink:href="classmfem_1_1RT__R2D__TriangleElement.html" target="_top" xlink:title="Arbitrary order Raviart&#45;Thomas 3D elements in 2D on a triangle. ">
<polygon fill="white" stroke="black" points="242.5,-8.5 242.5,-31.5 489.5,-31.5 489.5,-8.5 242.5,-8.5"/>
<text text-anchor="middle" x="366" y="-16.3" font-family="Helvetica,sans-Serif" font-size="14.00">mfem::RT_R2D_TriangleElement</text>
</a>
</g>
</g>
<!-- Node0&#45;&gt;Node4 -->
<g id="edge4" class="edge"><title>Node0&#45;&gt;Node4</title>
<path fill="none" stroke="midnightblue" d="M268.313,-71.7667C292.004,-59.4544 324.743,-42.4408 345.646,-31.5777"/>
<polygon fill="midnightblue" stroke="midnightblue" points="266.664,-68.6789 259.405,-76.396 269.892,-74.8902 266.664,-68.6789"/>
</g>
<!-- Node1 -->
<g id="node2" class="node"><title>Node1</title>
<g id="a_node2"><a xlink:href="classmfem_1_1VectorFiniteElement.html" target="_top" xlink:title="Intermediate class for finite elements whose basis functions return vector values. ">
<polygon fill="white" stroke="black" points="133,-136.5 133,-159.5 345,-159.5 345,-136.5 133,-136.5"/>
<text text-anchor="middle" x="239" y="-144.3" font-family="Helvetica,sans-Serif" font-size="14.00">mfem::VectorFiniteElement</text>
</a>
</g>
</g>
<!-- Node1&#45;&gt;Node0 -->
<g id="edge1" class="edge"><title>Node1&#45;&gt;Node0</title>
<path fill="none" stroke="midnightblue" d="M239,-126.191C239,-117.168 239,-106.994 239,-99.5707"/>
<polygon fill="midnightblue" stroke="midnightblue" points="235.5,-126.362 239,-136.362 242.5,-126.362 235.5,-126.362"/>
</g>
<!-- Node2 -->
<g id="node3" class="node"><title>Node2</title>
<g id="a_node3"><a xlink:href="classmfem_1_1FiniteElement.html" target="_top" xlink:title="Abstract class for all finite elements. ">
<polygon fill="white" stroke="black" points="156,-196.5 156,-219.5 322,-219.5 322,-196.5 156,-196.5"/>
<text text-anchor="middle" x="239" y="-204.3" font-family="Helvetica,sans-Serif" font-size="14.00">mfem::FiniteElement</text>
</a>
</g>
</g>
<!-- Node2&#45;&gt;Node1 -->
<g id="edge2" class="edge"><title>Node2&#45;&gt;Node1</title>
<path fill="none" stroke="midnightblue" d="M239,-186.191C239,-177.168 239,-166.994 239,-159.571"/>
<polygon fill="midnightblue" stroke="midnightblue" points="235.5,-186.362 239,-196.362 242.5,-186.362 235.5,-186.362"/>
</g>
</g>
</svg>
