<?xml version="1.0" encoding="UTF-8" standalone="no"?>
<!DOCTYPE svg PUBLIC "-//W3C//DTD SVG 1.1//EN"
 "http://www.w3.org/Graphics/SVG/1.1/DTD/svg11.dtd">
<!-- Generated by graphviz version 2.30.1 (20200304.1809)
 -->
<!-- Title: mfem::BiQuadratic3DFiniteElement Pages: 1 -->
<!--zoomable 736 -->
<svg id="main" version="1.1" xmlns="http://www.w3.org/2000/svg" xmlns:xlink="http://www.w3.org/1999/xlink" xml:space="preserve" onload="init(evt)">
<style type="text/css"><![CDATA[
.edge:hover path { stroke: red; }
.edge:hover polygon { stroke: red; fill: red; }
]]></style>
<script type="text/javascript"><![CDATA[
var edges = document.getElementsByTagName('g');
if (edges && edges.length) {
  for (var i=0;i<edges.length;i++) {
    if (edges[i].id.substr(0,4)=='edge') {
      edges[i].setAttribute('class','edge');
    }
  }
}
]]></script>
        <defs>
                <circle id="rim" cx="0" cy="0" r="7"/>
                <circle id="rim2" cx="0" cy="0" r="3.5"/>
                <g id="zoomPlus">
                        <use xlink:href="#rim" fill="#404040">
                                <set attributeName="fill" to="#808080" begin="zoomplus.mouseover" end="zoomplus.mouseout"/>
                        </use>
                        <path d="M-4,0h8M0,-4v8" fill="none" stroke="white" stroke-width="1.5" pointer-events="none"/>
                </g>
                <g id="zoomMin">
                        <use xlink:href="#rim" fill="#404040">
                                <set attributeName="fill" to="#808080" begin="zoomminus.mouseover" end="zoomminus.mouseout"/>
                        </use>
                        <path d="M-4,0h8" fill="none" stroke="white" stroke-width="1.5" pointer-events="none"/>
                </g>
                <g id="dirArrow">
                        <path fill="none" stroke="white" stroke-width="1.5" d="M0,-3.0v7 M-2.5,-0.5L0,-3.0L2.5,-0.5"/>
                </g>
               <g id="resetDef">
                       <use xlink:href="#rim2" fill="#404040">
                               <set attributeName="fill" to="#808080" begin="reset.mouseover" end="reset.mouseout"/>
                       </use>
               </g>
        </defs>

<script type="text/javascript">
var viewWidth = 856;
var viewHeight = 736;
var sectionId = 'dynsection-1';
</script>
<script xlink:href="svgpan.js"/>
<svg id="graph" class="graph">
<g id="viewport">
<title>mfem::BiQuadratic3DFiniteElement</title>
<polygon fill="white" stroke="white" points="-4,5 -4,-732 853,-732 853,5 -4,5"/>
<!-- Node5 -->
<g id="node1" class="node"><title>Node5</title>
<polygon fill="#bfbfbf" stroke="black" points="77,-1 77,-39 287,-39 287,-1 77,-1"/>
<text text-anchor="start" x="85" y="-23.8" font-family="Helvetica,sans-Serif" font-size="14.00">mfem::BiQuadratic3DFinite</text>
<text text-anchor="middle" x="182" y="-8.8" font-family="Helvetica,sans-Serif" font-size="14.00">Element</text>
</g>
<!-- Node6 -->
<g id="node2" class="node"><title>Node6</title>
<g id="a_node2"><a xlink:href="classmfem_1_1H1__WedgeElement.html" target="_top" xlink:title="Arbitrary order H1 elements in 3D on a wedge. ">
<polygon fill="white" stroke="black" points="80,-86.5 80,-109.5 284,-109.5 284,-86.5 80,-86.5"/>
<text text-anchor="middle" x="182" y="-94.3" font-family="Helvetica,sans-Serif" font-size="14.00">mfem::H1_WedgeElement</text>
</a>
</g>
</g>
<!-- Node6&#45;&gt;Node5 -->
<g id="edge1" class="edge"><title>Node6&#45;&gt;Node5</title>
<path fill="none" stroke="midnightblue" d="M182,-76.3075C182,-64.6623 182,-50.2595 182,-39.0712"/>
<polygon fill="midnightblue" stroke="midnightblue" points="178.5,-76.4325 182,-86.4325 185.5,-76.4326 178.5,-76.4325"/>
</g>
<!-- Node7 -->
<g id="node3" class="node"><title>Node7</title>
<g id="a_node3"><a xlink:href="classmfem_1_1NodalFiniteElement.html" target="_top" xlink:title="Class for standard nodal finite elements. ">
<polygon fill="white" stroke="black" points="78.5,-178.5 78.5,-201.5 285.5,-201.5 285.5,-178.5 78.5,-178.5"/>
<text text-anchor="middle" x="182" y="-186.3" font-family="Helvetica,sans-Serif" font-size="14.00">mfem::NodalFiniteElement</text>
</a>
</g>
</g>
<!-- Node7&#45;&gt;Node6 -->
<g id="edge2" class="edge"><title>Node7&#45;&gt;Node6</title>
<path fill="none" stroke="midnightblue" d="M182,-168.08C182,-149.799 182,-124.001 182,-109.664"/>
<polygon fill="midnightblue" stroke="midnightblue" points="178.5,-168.322 182,-178.322 185.5,-168.322 178.5,-168.322"/>
</g>
<!-- Node8 -->
<g id="node4" class="node"><title>Node8</title>
<g id="a_node4"><a xlink:href="classmfem_1_1ScalarFiniteElement.html" target="_top" xlink:title="Class for finite elements with basis functions that return scalar values. ">
<polygon fill="white" stroke="black" points="186,-262.5 186,-285.5 396,-285.5 396,-262.5 186,-262.5"/>
<text text-anchor="middle" x="291" y="-270.3" font-family="Helvetica,sans-Serif" font-size="14.00">mfem::ScalarFiniteElement</text>
</a>
</g>
</g>
<!-- Node8&#45;&gt;Node7 -->
<g id="edge3" class="edge"><title>Node8&#45;&gt;Node7</title>
<path fill="none" stroke="midnightblue" d="M271.076,-255.563C261.051,-247.006 248.594,-236.695 237,-228 224.479,-218.61 209.739,-208.754 198.671,-201.578"/>
<polygon fill="midnightblue" stroke="midnightblue" points="268.992,-258.387 278.852,-262.264 273.562,-253.085 268.992,-258.387"/>
</g>
<!-- Node9 -->
<g id="node5" class="node"><title>Node9</title>
<g id="a_node5"><a xlink:href="classmfem_1_1FiniteElement.html" target="_top" xlink:title="Abstract class for all finite elements. ">
<polygon fill="white" stroke="black" points="341,-382.5 341,-405.5 507,-405.5 507,-382.5 341,-382.5"/>
<text text-anchor="middle" x="424" y="-390.3" font-family="Helvetica,sans-Serif" font-size="14.00">mfem::FiniteElement</text>
</a>
</g>
</g>
<!-- Node9&#45;&gt;Node8 -->
<g id="edge4" class="edge"><title>Node9&#45;&gt;Node8</title>
<path fill="none" stroke="midnightblue" d="M404.115,-375.358C376.054,-350.461 325.712,-305.797 302.861,-285.524"/>
<polygon fill="midnightblue" stroke="midnightblue" points="401.923,-378.092 411.726,-382.11 406.569,-372.856 401.923,-378.092"/>
</g>
<!-- Node12 -->
<g id="node8" class="node"><title>Node12</title>
<g id="a_node8"><a xlink:href="classmfem_1_1DofToQuad.html" target="_top" xlink:title="Structure representing the matrices/tensors needed to evaluate (in reference space) the values...">
<polygon fill="white" stroke="black" points="486,-262.5 486,-285.5 634,-285.5 634,-262.5 486,-262.5"/>
<text text-anchor="middle" x="560" y="-270.3" font-family="Helvetica,sans-Serif" font-size="14.00">mfem::DofToQuad</text>
</a>
</g>
</g>
<!-- Node9&#45;&gt;Node12 -->
<g id="edge14" class="edge"><title>Node9&#45;&gt;Node12</title>
<path fill="none" stroke="#9a32cd" stroke-dasharray="5,2" d="M441.317,-375.044C459.634,-356.431 489.74,-326.909 518,-304 525.985,-297.527 535.357,-290.966 543.22,-285.726"/>
<polygon fill="#9a32cd" stroke="#9a32cd" points="438.711,-372.702 434.228,-382.301 443.719,-377.593 438.711,-372.702"/>
<text text-anchor="middle" x="529" y="-330.3" font-family="Helvetica,sans-Serif" font-size="14.00"> FE</text>
</g>
<!-- Node10 -->
<g id="node6" class="node"><title>Node10</title>
<g id="a_node6"><a xlink:href="classmfem_1_1Array.html" target="_top" xlink:title="mfem::Array\&lt; mfem::\lDofToQuad *\&gt;">
<polygon fill="white" stroke="black" points="358,-79 358,-117 534,-117 534,-79 358,-79"/>
<text text-anchor="start" x="366" y="-101.8" font-family="Helvetica,sans-Serif" font-size="14.00">mfem::Array&lt; mfem::</text>
<text text-anchor="middle" x="446" y="-86.8" font-family="Helvetica,sans-Serif" font-size="14.00">DofToQuad *&gt;</text>
</a>
</g>
</g>
<!-- Node10&#45;&gt;Node9 -->
<g id="edge5" class="edge"><title>Node10&#45;&gt;Node9</title>
<path fill="none" stroke="#9a32cd" stroke-dasharray="5,2" d="M443.101,-127.32C440.49,-153.442 436.664,-193.309 434,-228 429.539,-286.087 425.865,-355.803 424.535,-382.181"/>
<polygon fill="#9a32cd" stroke="#9a32cd" points="446.585,-127.656 444.105,-117.356 439.62,-126.955 446.585,-127.656"/>
<text text-anchor="middle" x="493.5" y="-232.3" font-family="Helvetica,sans-Serif" font-size="14.00"> dof2quad_array</text>
</g>
<!-- Node11 -->
<g id="node7" class="node"><title>Node11</title>
<g id="a_node7"><a xlink:href="classmfem_1_1Memory.html" target="_top" xlink:title="mfem::Memory\&lt; mfem\l::DofToQuad *\&gt;">
<polygon fill="white" stroke="black" points="462,-171 462,-209 648,-209 648,-171 462,-171"/>
<text text-anchor="start" x="470" y="-193.8" font-family="Helvetica,sans-Serif" font-size="14.00">mfem::Memory&lt; mfem</text>
<text text-anchor="middle" x="555" y="-178.8" font-family="Helvetica,sans-Serif" font-size="14.00">::DofToQuad *&gt;</text>
</a>
</g>
</g>
<!-- Node11&#45;&gt;Node10 -->
<g id="edge6" class="edge"><title>Node11&#45;&gt;Node10</title>
<path fill="none" stroke="#9a32cd" stroke-dasharray="5,2" d="M525.012,-164.239C506.976,-149.347 484.416,-130.72 468.025,-117.186"/>
<polygon fill="#9a32cd" stroke="#9a32cd" points="523.003,-167.119 532.942,-170.787 527.46,-161.721 523.003,-167.119"/>
<text text-anchor="middle" x="525.5" y="-140.3" font-family="Helvetica,sans-Serif" font-size="14.00"> data</text>
</g>
<!-- Node12&#45;&gt;Node11 -->
<g id="edge7" class="edge"><title>Node12&#45;&gt;Node11</title>
<path fill="none" stroke="#9a32cd" stroke-dasharray="5,2" d="M558.732,-252.213C557.925,-238.967 556.888,-221.968 556.113,-209.246"/>
<polygon fill="#9a32cd" stroke="#9a32cd" points="555.244,-252.512 559.346,-262.28 562.231,-252.085 555.244,-252.512"/>
<text text-anchor="middle" x="579" y="-232.3" font-family="Helvetica,sans-Serif" font-size="14.00"> h_ptr</text>
</g>
<!-- Node13 -->
<g id="node9" class="node"><title>Node13</title>
<g id="a_node9"><a xlink:href="classmfem_1_1IntegrationRule.html" target="_top" xlink:title="Class for an integration rule &#45; an Array of IntegrationPoint. ">
<polygon fill="white" stroke="black" points="443,-458.5 443,-481.5 621,-481.5 621,-458.5 443,-458.5"/>
<text text-anchor="middle" x="532" y="-466.3" font-family="Helvetica,sans-Serif" font-size="14.00">mfem::IntegrationRule</text>
</a>
</g>
</g>
<!-- Node13&#45;&gt;Node12 -->
<g id="edge8" class="edge"><title>Node13&#45;&gt;Node12</title>
<path fill="none" stroke="#9a32cd" stroke-dasharray="5,2" d="M538.047,-448.554C538.773,-445.697 539.45,-442.786 540,-440 551.4,-382.249 557.331,-311.762 559.271,-285.51"/>
<polygon fill="#9a32cd" stroke="#9a32cd" points="534.631,-447.778 535.347,-458.348 541.379,-449.638 534.631,-447.778"/>
<text text-anchor="middle" x="576.5" y="-390.3" font-family="Helvetica,sans-Serif" font-size="14.00"> IntRule</text>
</g>
<!-- Node13&#45;&gt;Node9 -->
<g id="edge15" class="edge"><title>Node13&#45;&gt;Node9</title>
<path fill="none" stroke="#9a32cd" stroke-dasharray="5,2" d="M508.161,-452.666C487.229,-438.324 457.397,-417.883 439.445,-405.583"/>
<polygon fill="#9a32cd" stroke="#9a32cd" points="506.299,-455.633 516.526,-458.398 510.255,-449.858 506.299,-455.633"/>
<text text-anchor="middle" x="512" y="-428.3" font-family="Helvetica,sans-Serif" font-size="14.00"> Nodes</text>
</g>
<!-- Node14 -->
<g id="node10" class="node"><title>Node14</title>
<g id="a_node10"><a xlink:href="classmfem_1_1Array.html" target="_top" xlink:title="mfem::Array\&lt; Integration\lPoint \&gt;">
<polygon fill="white" stroke="black" points="432.5,-521 432.5,-559 635.5,-559 635.5,-521 432.5,-521"/>
<text text-anchor="start" x="440.5" y="-543.8" font-family="Helvetica,sans-Serif" font-size="14.00">mfem::Array&lt; Integration</text>
<text text-anchor="middle" x="534" y="-528.8" font-family="Helvetica,sans-Serif" font-size="14.00">Point &gt;</text>
</a>
</g>
</g>
<!-- Node14&#45;&gt;Node13 -->
<g id="edge9" class="edge"><title>Node14&#45;&gt;Node13</title>
<path fill="none" stroke="midnightblue" d="M533.165,-510.599C532.866,-500.442 532.547,-489.6 532.319,-481.834"/>
<polygon fill="midnightblue" stroke="midnightblue" points="529.671,-510.885 533.464,-520.777 536.668,-510.679 529.671,-510.885"/>
</g>
<!-- Node15 -->
<g id="node11" class="node"><title>Node15</title>
<g id="a_node11"><a xlink:href="classmfem_1_1Memory.html" target="_top" xlink:title="mfem::Memory\&lt; Integration\lPoint \&gt;">
<polygon fill="white" stroke="black" points="424,-613 424,-651 646,-651 646,-613 424,-613"/>
<text text-anchor="start" x="432" y="-635.8" font-family="Helvetica,sans-Serif" font-size="14.00">mfem::Memory&lt; Integration</text>
<text text-anchor="middle" x="535" y="-620.8" font-family="Helvetica,sans-Serif" font-size="14.00">Point &gt;</text>
</a>
</g>
</g>
<!-- Node15&#45;&gt;Node14 -->
<g id="edge10" class="edge"><title>Node15&#45;&gt;Node14</title>
<path fill="none" stroke="#9a32cd" stroke-dasharray="5,2" d="M534.684,-602.548C534.526,-588.36 534.34,-571.622 534.202,-559.186"/>
<polygon fill="#9a32cd" stroke="#9a32cd" points="531.187,-602.827 534.798,-612.787 538.186,-602.749 531.187,-602.827"/>
<text text-anchor="middle" x="552.5" y="-582.3" font-family="Helvetica,sans-Serif" font-size="14.00"> data</text>
</g>
<!-- Node16 -->
<g id="node12" class="node"><title>Node16</title>
<g id="a_node12"><a xlink:href="classmfem_1_1IntegrationPoint.html" target="_top" xlink:title="Class for integration point with weight. ">
<polygon fill="white" stroke="black" points="444,-704.5 444,-727.5 626,-727.5 626,-704.5 444,-704.5"/>
<text text-anchor="middle" x="535" y="-712.3" font-family="Helvetica,sans-Serif" font-size="14.00">mfem::IntegrationPoint</text>
</a>
</g>
</g>
<!-- Node16&#45;&gt;Node15 -->
<g id="edge11" class="edge"><title>Node16&#45;&gt;Node15</title>
<path fill="none" stroke="#9a32cd" stroke-dasharray="5,2" d="M535,-694.213C535,-680.967 535,-663.968 535,-651.246"/>
<polygon fill="#9a32cd" stroke="#9a32cd" points="531.5,-694.28 535,-704.28 538.5,-694.28 531.5,-694.28"/>
<text text-anchor="middle" x="556" y="-674.3" font-family="Helvetica,sans-Serif" font-size="14.00"> h_ptr</text>
</g>
<!-- Node17 -->
<g id="node13" class="node"><title>Node17</title>
<g id="a_node13"><a xlink:href="classmfem_1_1Array.html" target="_top" xlink:title="mfem::Array\&lt; double \&gt;">
<polygon fill="white" stroke="black" points="638.5,-382.5 638.5,-405.5 827.5,-405.5 827.5,-382.5 638.5,-382.5"/>
<text text-anchor="middle" x="733" y="-390.3" font-family="Helvetica,sans-Serif" font-size="14.00">mfem::Array&lt; double &gt;</text>
</a>
</g>
</g>
<!-- Node17&#45;&gt;Node12 -->
<g id="edge12" class="edge"><title>Node17&#45;&gt;Node12</title>
<path fill="none" stroke="#9a32cd" stroke-dasharray="5,2" d="M708.873,-376.544C672.777,-351.923 605.732,-306.193 575.498,-285.571"/>
<polygon fill="#9a32cd" stroke="#9a32cd" points="707.109,-379.577 717.342,-382.32 711.053,-373.794 707.109,-379.577"/>
<text text-anchor="middle" x="694.5" y="-352.8" font-family="Helvetica,sans-Serif" font-size="14.00"> G</text>
<text text-anchor="middle" x="694.5" y="-337.8" font-family="Helvetica,sans-Serif" font-size="14.00">Gt</text>
<text text-anchor="middle" x="694.5" y="-322.8" font-family="Helvetica,sans-Serif" font-size="14.00">B</text>
<text text-anchor="middle" x="694.5" y="-307.8" font-family="Helvetica,sans-Serif" font-size="14.00">Bt</text>
</g>
<!-- Node18 -->
<g id="node14" class="node"><title>Node18</title>
<g id="a_node14"><a xlink:href="classmfem_1_1Memory.html" target="_top" xlink:title="mfem::Memory\&lt; double \&gt;">
<polygon fill="white" stroke="black" points="639.5,-458.5 639.5,-481.5 848.5,-481.5 848.5,-458.5 639.5,-458.5"/>
<text text-anchor="middle" x="744" y="-466.3" font-family="Helvetica,sans-Serif" font-size="14.00">mfem::Memory&lt; double &gt;</text>
</a>
</g>
</g>
<!-- Node18&#45;&gt;Node17 -->
<g id="edge13" class="edge"><title>Node18&#45;&gt;Node17</title>
<path fill="none" stroke="#9a32cd" stroke-dasharray="5,2" d="M740.92,-448.277C738.855,-434.387 736.222,-416.675 734.573,-405.583"/>
<polygon fill="#9a32cd" stroke="#9a32cd" points="737.492,-449.021 742.424,-458.398 744.416,-447.992 737.492,-449.021"/>
<text text-anchor="middle" x="757.5" y="-428.3" font-family="Helvetica,sans-Serif" font-size="14.00"> data</text>
</g>
<!-- Node19 -->
<g id="node15" class="node"><title>Node19</title>
<g id="a_node15"><a xlink:href="classmfem_1_1DenseMatrix.html" target="_top" xlink:title="Data type dense matrix using column&#45;major storage. ">
<polygon fill="white" stroke="black" points="262,-458.5 262,-481.5 420,-481.5 420,-458.5 262,-458.5"/>
<text text-anchor="middle" x="341" y="-466.3" font-family="Helvetica,sans-Serif" font-size="14.00">mfem::DenseMatrix</text>
</a>
</g>
</g>
<!-- Node19&#45;&gt;Node9 -->
<g id="edge16" class="edge"><title>Node19&#45;&gt;Node9</title>
<path fill="none" stroke="#9a32cd" stroke-dasharray="5,2" d="M354.758,-450.26C361.527,-441.718 370.129,-431.796 379,-424 386.819,-417.128 396.41,-410.719 404.725,-405.682"/>
<polygon fill="#9a32cd" stroke="#9a32cd" points="351.967,-448.147 348.657,-458.212 357.521,-452.408 351.967,-448.147"/>
<text text-anchor="middle" x="407.5" y="-428.3" font-family="Helvetica,sans-Serif" font-size="14.00"> vshape</text>
</g>
<!-- Node20 -->
<g id="node16" class="node"><title>Node20</title>
<g id="a_node16"><a xlink:href="classmfem_1_1Matrix.html" target="_top" xlink:title="Abstract data type matrix. ">
<polygon fill="white" stroke="black" points="282.5,-528.5 282.5,-551.5 395.5,-551.5 395.5,-528.5 282.5,-528.5"/>
<text text-anchor="middle" x="339" y="-536.3" font-family="Helvetica,sans-Serif" font-size="14.00">mfem::Matrix</text>
</a>
</g>
</g>
<!-- Node20&#45;&gt;Node19 -->
<g id="edge17" class="edge"><title>Node20&#45;&gt;Node19</title>
<path fill="none" stroke="midnightblue" d="M339.61,-518.272C339.964,-506.228 340.396,-491.549 340.683,-481.775"/>
<polygon fill="midnightblue" stroke="midnightblue" points="336.108,-518.276 339.312,-528.375 343.105,-518.482 336.108,-518.276"/>
</g>
<!-- Node21 -->
<g id="node17" class="node"><title>Node21</title>
<g id="a_node17"><a xlink:href="classmfem_1_1Operator.html" target="_top" xlink:title="Abstract operator. ">
<polygon fill="white" stroke="black" points="272.5,-620.5 272.5,-643.5 405.5,-643.5 405.5,-620.5 272.5,-620.5"/>
<text text-anchor="middle" x="339" y="-628.3" font-family="Helvetica,sans-Serif" font-size="14.00">mfem::Operator</text>
</a>
</g>
</g>
<!-- Node21&#45;&gt;Node20 -->
<g id="edge18" class="edge"><title>Node21&#45;&gt;Node20</title>
<path fill="none" stroke="midnightblue" d="M339,-610.08C339,-591.799 339,-566.001 339,-551.664"/>
<polygon fill="midnightblue" stroke="midnightblue" points="335.5,-610.322 339,-620.322 342.5,-610.322 335.5,-610.322"/>
</g>
<!-- Node22 -->
<g id="node18" class="node"><title>Node22</title>
<g id="a_node18"><a xlink:href="classmfem_1_1Array.html" target="_top" xlink:title="mfem::Array\&lt; int \&gt;">
<polygon fill="white" stroke="black" points="10,-262.5 10,-285.5 168,-285.5 168,-262.5 10,-262.5"/>
<text text-anchor="middle" x="89" y="-270.3" font-family="Helvetica,sans-Serif" font-size="14.00">mfem::Array&lt; int &gt;</text>
</a>
</g>
</g>
<!-- Node22&#45;&gt;Node7 -->
<g id="edge19" class="edge"><title>Node22&#45;&gt;Node7</title>
<path fill="none" stroke="#9a32cd" stroke-dasharray="5,2" d="M108.744,-255.592C127.245,-239.279 154.312,-215.413 169.839,-201.723"/>
<polygon fill="#9a32cd" stroke="#9a32cd" points="106.344,-253.041 101.158,-262.28 110.974,-258.292 106.344,-253.041"/>
<text text-anchor="middle" x="186" y="-232.3" font-family="Helvetica,sans-Serif" font-size="14.00"> lex_ordering</text>
</g>
<!-- Node23 -->
<g id="node19" class="node"><title>Node23</title>
<g id="a_node19"><a xlink:href="classmfem_1_1Memory.html" target="_top" xlink:title="mfem::Memory\&lt; int \&gt;">
<polygon fill="white" stroke="black" points="0,-382.5 0,-405.5 178,-405.5 178,-382.5 0,-382.5"/>
<text text-anchor="middle" x="89" y="-390.3" font-family="Helvetica,sans-Serif" font-size="14.00">mfem::Memory&lt; int &gt;</text>
</a>
</g>
</g>
<!-- Node23&#45;&gt;Node22 -->
<g id="edge20" class="edge"><title>Node23&#45;&gt;Node22</title>
<path fill="none" stroke="#9a32cd" stroke-dasharray="5,2" d="M89,-372.047C89,-346.672 89,-304.927 89,-285.524"/>
<polygon fill="#9a32cd" stroke="#9a32cd" points="85.5001,-372.11 89,-382.11 92.5001,-372.11 85.5001,-372.11"/>
<text text-anchor="middle" x="107.5" y="-330.3" font-family="Helvetica,sans-Serif" font-size="14.00"> data</text>
</g>
</g>
</svg>
        <g id="navigator" transform="translate(0 0)" fill="#404254">
                <rect fill="#f2f5e9" fill-opacity="0.5" stroke="#606060" stroke-width=".5" x="0" y="0" width="60" height="60"/>
                <use id="zoomplus" xlink:href="#zoomPlus" x="17" y="9" onmousedown="handleZoom(evt,'in')"/>
                <use id="zoomminus" xlink:href="#zoomMin" x="42" y="9" onmousedown="handleZoom(evt,'out')"/>
                <use id="reset" xlink:href="#resetDef" x="30" y="36" onmousedown="handleReset()"/>
                <g id="arrowUp" xlink:href="#dirArrow" transform="translate(30 24)" onmousedown="handlePan(0,-1)">
                  <use xlink:href="#rim" fill="#404040">
                        <set attributeName="fill" to="#808080" begin="arrowUp.mouseover" end="arrowUp.mouseout"/>
                  </use>
                  <path fill="none" stroke="white" stroke-width="1.5" d="M0,-3.0v7 M-2.5,-0.5L0,-3.0L2.5,-0.5"/>
                </g>
                <g id="arrowRight" xlink:href="#dirArrow" transform="rotate(90) translate(36 -43)" onmousedown="handlePan(1,0)">
                  <use xlink:href="#rim" fill="#404040">
                        <set attributeName="fill" to="#808080" begin="arrowRight.mouseover" end="arrowRight.mouseout"/>
                  </use>
                  <path fill="none" stroke="white" stroke-width="1.5" d="M0,-3.0v7 M-2.5,-0.5L0,-3.0L2.5,-0.5"/>
                </g>
                <g id="arrowDown" xlink:href="#dirArrow" transform="rotate(180) translate(-30 -48)" onmousedown="handlePan(0,1)">
                  <use xlink:href="#rim" fill="#404040">
                        <set attributeName="fill" to="#808080" begin="arrowDown.mouseover" end="arrowDown.mouseout"/>
                  </use>
                  <path fill="none" stroke="white" stroke-width="1.5" d="M0,-3.0v7 M-2.5,-0.5L0,-3.0L2.5,-0.5"/>
                </g>
                <g id="arrowLeft" xlink:href="#dirArrow" transform="rotate(270) translate(-36 17)" onmousedown="handlePan(-1,0)">
                  <use xlink:href="#rim" fill="#404040">
                        <set attributeName="fill" to="#808080" begin="arrowLeft.mouseover" end="arrowLeft.mouseout"/>
                  </use>
                  <path fill="none" stroke="white" stroke-width="1.5" d="M0,-3.0v7 M-2.5,-0.5L0,-3.0L2.5,-0.5"/>
                </g>
        </g>
        <svg viewBox="0 0 15 15" width="100%" height="30px" preserveAspectRatio="xMaxYMin meet">
         <g id="arrow_out" transform="scale(0.3 0.3)">
          <a xlink:href="classmfem_1_1BiQuadratic3DFiniteElement__coll__graph_org.svg" target="_base">
           <rect id="button" ry="5" rx="5" y="6" x="6" height="38" width="38"
                fill="#f2f5e9" fill-opacity="0.5" stroke="#606060" stroke-width="1.0"/>
           <path id="arrow"
             d="M 11.500037,31.436501 C 11.940474,20.09759 22.043105,11.32322 32.158766,21.979434 L 37.068811,17.246167 C 37.068811,17.246167 37.088388,32 37.088388,32 L 22.160133,31.978069 C 22.160133,31.978069 26.997745,27.140456 26.997745,27.140456 C 18.528582,18.264221 13.291696,25.230495 11.500037,31.436501 z"
             style="fill:#404040;"/>
          </a>
         </g>
        </svg>
</svg>
