<?xml version="1.0" encoding="UTF-8" standalone="no"?>
<!DOCTYPE svg PUBLIC "-//W3C//DTD SVG 1.1//EN"
 "http://www.w3.org/Graphics/SVG/1.1/DTD/svg11.dtd">
<!-- Generated by graphviz version 2.30.1 (20200304.1809)
 -->
<!-- Title: mfem::L2_HexahedronElement Pages: 1 -->
<svg width="1004pt" height="734pt"
 viewBox="0.00 0.00 1004.00 734.00" xmlns="http://www.w3.org/2000/svg" xmlns:xlink="http://www.w3.org/1999/xlink">
<g id="graph0" class="graph" transform="scale(1 1) rotate(0) translate(4 730)">
<title>mfem::L2_HexahedronElement</title>
<polygon fill="white" stroke="white" points="-4,5 -4,-730 1001,-730 1001,5 -4,5"/>
<!-- Node6 -->
<g id="node1" class="node"><title>Node6</title>
<polygon fill="#bfbfbf" stroke="black" points="444,-0.5 444,-23.5 684,-23.5 684,-0.5 444,-0.5"/>
<text text-anchor="middle" x="564" y="-8.3" font-family="Helvetica,sans-Serif" font-size="14.00">mfem::L2_HexahedronElement</text>
</g>
<!-- Node7 -->
<g id="node2" class="node"><title>Node7</title>
<g id="a_node2"><a xlink:href="classmfem_1_1NodalTensorFiniteElement.html" target="_top" xlink:title="mfem::NodalTensorFiniteElement">
<polygon fill="white" stroke="black" points="437,-70.5 437,-93.5 691,-93.5 691,-70.5 437,-70.5"/>
<text text-anchor="middle" x="564" y="-78.3" font-family="Helvetica,sans-Serif" font-size="14.00">mfem::NodalTensorFiniteElement</text>
</a>
</g>
</g>
<!-- Node7&#45;&gt;Node6 -->
<g id="edge1" class="edge"><title>Node7&#45;&gt;Node6</title>
<path fill="none" stroke="midnightblue" d="M564,-60.2717C564,-48.2279 564,-33.5488 564,-23.7748"/>
<polygon fill="midnightblue" stroke="midnightblue" points="560.5,-60.375 564,-70.375 567.5,-60.375 560.5,-60.375"/>
</g>
<!-- Node8 -->
<g id="node3" class="node"><title>Node8</title>
<g id="a_node3"><a xlink:href="classmfem_1_1NodalFiniteElement.html" target="_top" xlink:title="Class for standard nodal finite elements. ">
<polygon fill="white" stroke="black" points="438.5,-162.5 438.5,-185.5 645.5,-185.5 645.5,-162.5 438.5,-162.5"/>
<text text-anchor="middle" x="542" y="-170.3" font-family="Helvetica,sans-Serif" font-size="14.00">mfem::NodalFiniteElement</text>
</a>
</g>
</g>
<!-- Node8&#45;&gt;Node7 -->
<g id="edge2" class="edge"><title>Node8&#45;&gt;Node7</title>
<path fill="none" stroke="midnightblue" d="M546.988,-152.596C551.463,-134.286 557.856,-108.136 561.393,-93.6637"/>
<polygon fill="midnightblue" stroke="midnightblue" points="543.585,-151.777 544.61,-162.322 550.385,-153.44 543.585,-151.777"/>
</g>
<!-- Node9 -->
<g id="node4" class="node"><title>Node9</title>
<g id="a_node4"><a xlink:href="classmfem_1_1ScalarFiniteElement.html" target="_top" xlink:title="Class for finite elements with basis functions that return scalar values. ">
<polygon fill="white" stroke="black" points="420,-260.5 420,-283.5 630,-283.5 630,-260.5 420,-260.5"/>
<text text-anchor="middle" x="525" y="-268.3" font-family="Helvetica,sans-Serif" font-size="14.00">mfem::ScalarFiniteElement</text>
</a>
</g>
</g>
<!-- Node9&#45;&gt;Node8 -->
<g id="edge3" class="edge"><title>Node9&#45;&gt;Node8</title>
<path fill="none" stroke="midnightblue" d="M528.64,-250.445C532.157,-230.585 537.345,-201.286 540.107,-185.688"/>
<polygon fill="midnightblue" stroke="midnightblue" points="525.182,-249.902 526.884,-260.36 532.074,-251.123 525.182,-249.902"/>
</g>
<!-- Node10 -->
<g id="node5" class="node"><title>Node10</title>
<g id="a_node5"><a xlink:href="classmfem_1_1FiniteElement.html" target="_top" xlink:title="Abstract class for all finite elements. ">
<polygon fill="white" stroke="black" points="344,-380.5 344,-403.5 510,-403.5 510,-380.5 344,-380.5"/>
<text text-anchor="middle" x="427" y="-388.3" font-family="Helvetica,sans-Serif" font-size="14.00">mfem::FiniteElement</text>
</a>
</g>
</g>
<!-- Node10&#45;&gt;Node9 -->
<g id="edge4" class="edge"><title>Node10&#45;&gt;Node9</title>
<path fill="none" stroke="midnightblue" d="M442.459,-372.386C463.281,-347.315 499.639,-303.536 516.26,-283.524"/>
<polygon fill="midnightblue" stroke="midnightblue" points="439.74,-370.181 436.044,-380.11 445.126,-374.654 439.74,-370.181"/>
</g>
<!-- Node13 -->
<g id="node8" class="node"><title>Node13</title>
<g id="a_node8"><a xlink:href="classmfem_1_1DofToQuad.html" target="_top" xlink:title="Structure representing the matrices/tensors needed to evaluate (in reference space) the values...">
<polygon fill="white" stroke="black" points="197,-260.5 197,-283.5 345,-283.5 345,-260.5 197,-260.5"/>
<text text-anchor="middle" x="271" y="-268.3" font-family="Helvetica,sans-Serif" font-size="14.00">mfem::DofToQuad</text>
</a>
</g>
</g>
<!-- Node10&#45;&gt;Node13 -->
<g id="edge14" class="edge"><title>Node10&#45;&gt;Node13</title>
<path fill="none" stroke="#9a32cd" stroke-dasharray="5,2" d="M383.647,-376.68C374.145,-372.632 364.418,-367.735 356,-362 322.804,-339.383 292.524,-301.986 278.779,-283.715"/>
<polygon fill="#9a32cd" stroke="#9a32cd" points="382.433,-379.965 393.017,-380.445 385.043,-373.469 382.433,-379.965"/>
<text text-anchor="middle" x="367" y="-328.3" font-family="Helvetica,sans-Serif" font-size="14.00"> FE</text>
</g>
<!-- Node11 -->
<g id="node6" class="node"><title>Node11</title>
<g id="a_node6"><a xlink:href="classmfem_1_1Array.html" target="_top" xlink:title="mfem::Array\&lt; mfem::\lDofToQuad *\&gt;">
<polygon fill="white" stroke="black" points="228,-63 228,-101 404,-101 404,-63 228,-63"/>
<text text-anchor="start" x="236" y="-85.8" font-family="Helvetica,sans-Serif" font-size="14.00">mfem::Array&lt; mfem::</text>
<text text-anchor="middle" x="316" y="-70.8" font-family="Helvetica,sans-Serif" font-size="14.00">DofToQuad *&gt;</text>
</a>
</g>
</g>
<!-- Node11&#45;&gt;Node10 -->
<g id="edge5" class="edge"><title>Node11&#45;&gt;Node10</title>
<path fill="none" stroke="#9a32cd" stroke-dasharray="5,2" d="M341.355,-108.686C352.582,-121.383 365.025,-137.5 373,-154 393.155,-195.699 418.447,-340.127 425.249,-380.463"/>
<polygon fill="#9a32cd" stroke="#9a32cd" points="343.897,-106.279 334.572,-101.25 338.725,-110.996 343.897,-106.279"/>
<text text-anchor="middle" x="458.5" y="-223.3" font-family="Helvetica,sans-Serif" font-size="14.00"> dof2quad_array</text>
</g>
<!-- Node12 -->
<g id="node7" class="node"><title>Node12</title>
<g id="a_node7"><a xlink:href="classmfem_1_1Memory.html" target="_top" xlink:title="mfem::Memory\&lt; mfem\l::DofToQuad *\&gt;">
<polygon fill="white" stroke="black" points="178,-155 178,-193 364,-193 364,-155 178,-155"/>
<text text-anchor="start" x="186" y="-177.8" font-family="Helvetica,sans-Serif" font-size="14.00">mfem::Memory&lt; mfem</text>
<text text-anchor="middle" x="271" y="-162.8" font-family="Helvetica,sans-Serif" font-size="14.00">::DofToQuad *&gt;</text>
</a>
</g>
</g>
<!-- Node12&#45;&gt;Node11 -->
<g id="edge6" class="edge"><title>Node12&#45;&gt;Node11</title>
<path fill="none" stroke="#9a32cd" stroke-dasharray="5,2" d="M284.603,-145.793C291.826,-131.348 300.506,-113.988 306.907,-101.186"/>
<polygon fill="#9a32cd" stroke="#9a32cd" points="281.448,-144.278 280.106,-154.787 287.709,-147.408 281.448,-144.278"/>
<text text-anchor="middle" x="315.5" y="-124.3" font-family="Helvetica,sans-Serif" font-size="14.00"> data</text>
</g>
<!-- Node13&#45;&gt;Node12 -->
<g id="edge7" class="edge"><title>Node13&#45;&gt;Node12</title>
<path fill="none" stroke="#9a32cd" stroke-dasharray="5,2" d="M271,-250.334C271,-233.345 271,-209.506 271,-193.223"/>
<polygon fill="#9a32cd" stroke="#9a32cd" points="267.5,-250.359 271,-260.36 274.5,-250.36 267.5,-250.359"/>
<text text-anchor="middle" x="292" y="-223.3" font-family="Helvetica,sans-Serif" font-size="14.00"> h_ptr</text>
</g>
<!-- Node14 -->
<g id="node9" class="node"><title>Node14</title>
<g id="a_node9"><a xlink:href="classmfem_1_1IntegrationRule.html" target="_top" xlink:title="Class for an integration rule &#45; an Array of IntegrationPoint. ">
<polygon fill="white" stroke="black" points="227,-456.5 227,-479.5 405,-479.5 405,-456.5 227,-456.5"/>
<text text-anchor="middle" x="316" y="-464.3" font-family="Helvetica,sans-Serif" font-size="14.00">mfem::IntegrationRule</text>
</a>
</g>
</g>
<!-- Node14&#45;&gt;Node13 -->
<g id="edge8" class="edge"><title>Node14&#45;&gt;Node13</title>
<path fill="none" stroke="#9a32cd" stroke-dasharray="5,2" d="M301.995,-447.819C294.05,-435.845 284.769,-419.757 280,-404 266.992,-361.016 268.674,-306.612 270.141,-283.818"/>
<polygon fill="#9a32cd" stroke="#9a32cd" points="299.15,-449.859 307.712,-456.1 304.911,-445.882 299.15,-449.859"/>
<text text-anchor="middle" x="307.5" y="-388.3" font-family="Helvetica,sans-Serif" font-size="14.00"> IntRule</text>
</g>
<!-- Node14&#45;&gt;Node10 -->
<g id="edge15" class="edge"><title>Node14&#45;&gt;Node10</title>
<path fill="none" stroke="#9a32cd" stroke-dasharray="5,2" d="M340.501,-450.666C362.014,-436.324 392.675,-415.883 411.126,-403.583"/>
<polygon fill="#9a32cd" stroke="#9a32cd" points="338.283,-447.938 331.904,-456.398 342.166,-453.763 338.283,-447.938"/>
<text text-anchor="middle" x="407" y="-426.3" font-family="Helvetica,sans-Serif" font-size="14.00"> Nodes</text>
</g>
<!-- Node15 -->
<g id="node10" class="node"><title>Node15</title>
<g id="a_node10"><a xlink:href="classmfem_1_1Array.html" target="_top" xlink:title="mfem::Array\&lt; Integration\lPoint \&gt;">
<polygon fill="white" stroke="black" points="208.5,-519 208.5,-557 411.5,-557 411.5,-519 208.5,-519"/>
<text text-anchor="start" x="216.5" y="-541.8" font-family="Helvetica,sans-Serif" font-size="14.00">mfem::Array&lt; Integration</text>
<text text-anchor="middle" x="310" y="-526.8" font-family="Helvetica,sans-Serif" font-size="14.00">Point &gt;</text>
</a>
</g>
</g>
<!-- Node15&#45;&gt;Node14 -->
<g id="edge9" class="edge"><title>Node15&#45;&gt;Node14</title>
<path fill="none" stroke="midnightblue" d="M312.506,-508.599C313.402,-498.442 314.359,-487.6 315.044,-479.834"/>
<polygon fill="midnightblue" stroke="midnightblue" points="309,-508.508 311.608,-518.777 315.973,-509.124 309,-508.508"/>
</g>
<!-- Node16 -->
<g id="node11" class="node"><title>Node16</title>
<g id="a_node11"><a xlink:href="classmfem_1_1Memory.html" target="_top" xlink:title="mfem::Memory\&lt; Integration\lPoint \&gt;">
<polygon fill="white" stroke="black" points="199,-611 199,-649 421,-649 421,-611 199,-611"/>
<text text-anchor="start" x="207" y="-633.8" font-family="Helvetica,sans-Serif" font-size="14.00">mfem::Memory&lt; Integration</text>
<text text-anchor="middle" x="310" y="-618.8" font-family="Helvetica,sans-Serif" font-size="14.00">Point &gt;</text>
</a>
</g>
</g>
<!-- Node16&#45;&gt;Node15 -->
<g id="edge10" class="edge"><title>Node16&#45;&gt;Node15</title>
<path fill="none" stroke="#9a32cd" stroke-dasharray="5,2" d="M310,-600.548C310,-586.36 310,-569.622 310,-557.186"/>
<polygon fill="#9a32cd" stroke="#9a32cd" points="306.5,-600.787 310,-610.787 313.5,-600.787 306.5,-600.787"/>
<text text-anchor="middle" x="328.5" y="-580.3" font-family="Helvetica,sans-Serif" font-size="14.00"> data</text>
</g>
<!-- Node17 -->
<g id="node12" class="node"><title>Node17</title>
<g id="a_node12"><a xlink:href="classmfem_1_1IntegrationPoint.html" target="_top" xlink:title="Class for integration point with weight. ">
<polygon fill="white" stroke="black" points="219,-702.5 219,-725.5 401,-725.5 401,-702.5 219,-702.5"/>
<text text-anchor="middle" x="310" y="-710.3" font-family="Helvetica,sans-Serif" font-size="14.00">mfem::IntegrationPoint</text>
</a>
</g>
</g>
<!-- Node17&#45;&gt;Node16 -->
<g id="edge11" class="edge"><title>Node17&#45;&gt;Node16</title>
<path fill="none" stroke="#9a32cd" stroke-dasharray="5,2" d="M310,-692.213C310,-678.967 310,-661.968 310,-649.246"/>
<polygon fill="#9a32cd" stroke="#9a32cd" points="306.5,-692.28 310,-702.28 313.5,-692.28 306.5,-692.28"/>
<text text-anchor="middle" x="331" y="-672.3" font-family="Helvetica,sans-Serif" font-size="14.00"> h_ptr</text>
</g>
<!-- Node18 -->
<g id="node13" class="node"><title>Node18</title>
<g id="a_node13"><a xlink:href="classmfem_1_1Array.html" target="_top" xlink:title="mfem::Array\&lt; double \&gt;">
<polygon fill="white" stroke="black" points="21.5,-380.5 21.5,-403.5 210.5,-403.5 210.5,-380.5 21.5,-380.5"/>
<text text-anchor="middle" x="116" y="-388.3" font-family="Helvetica,sans-Serif" font-size="14.00">mfem::Array&lt; double &gt;</text>
</a>
</g>
</g>
<!-- Node18&#45;&gt;Node13 -->
<g id="edge12" class="edge"><title>Node18&#45;&gt;Node13</title>
<path fill="none" stroke="#9a32cd" stroke-dasharray="5,2" d="M138.029,-374.23C170.465,-349.536 230.141,-304.106 257.115,-283.571"/>
<polygon fill="#9a32cd" stroke="#9a32cd" points="135.865,-371.478 130.029,-380.32 140.105,-377.048 135.865,-371.478"/>
<text text-anchor="middle" x="238.5" y="-350.8" font-family="Helvetica,sans-Serif" font-size="14.00"> G</text>
<text text-anchor="middle" x="238.5" y="-335.8" font-family="Helvetica,sans-Serif" font-size="14.00">Gt</text>
<text text-anchor="middle" x="238.5" y="-320.8" font-family="Helvetica,sans-Serif" font-size="14.00">B</text>
<text text-anchor="middle" x="238.5" y="-305.8" font-family="Helvetica,sans-Serif" font-size="14.00">Bt</text>
</g>
<!-- Node19 -->
<g id="node14" class="node"><title>Node19</title>
<g id="a_node14"><a xlink:href="classmfem_1_1Memory.html" target="_top" xlink:title="mfem::Memory\&lt; double \&gt;">
<polygon fill="white" stroke="black" points="-0.5,-456.5 -0.5,-479.5 208.5,-479.5 208.5,-456.5 -0.5,-456.5"/>
<text text-anchor="middle" x="104" y="-464.3" font-family="Helvetica,sans-Serif" font-size="14.00">mfem::Memory&lt; double &gt;</text>
</a>
</g>
</g>
<!-- Node19&#45;&gt;Node18 -->
<g id="edge13" class="edge"><title>Node19&#45;&gt;Node18</title>
<path fill="none" stroke="#9a32cd" stroke-dasharray="5,2" d="M107.36,-446.277C109.613,-432.387 112.485,-414.675 114.284,-403.583"/>
<polygon fill="#9a32cd" stroke="#9a32cd" points="103.865,-445.966 105.719,-456.398 110.775,-447.087 103.865,-445.966"/>
<text text-anchor="middle" x="130.5" y="-426.3" font-family="Helvetica,sans-Serif" font-size="14.00"> data</text>
</g>
<!-- Node20 -->
<g id="node15" class="node"><title>Node20</title>
<g id="a_node15"><a xlink:href="classmfem_1_1DenseMatrix.html" target="_top" xlink:title="Data type dense matrix using column&#45;major storage. ">
<polygon fill="white" stroke="black" points="424,-456.5 424,-479.5 582,-479.5 582,-456.5 424,-456.5"/>
<text text-anchor="middle" x="503" y="-464.3" font-family="Helvetica,sans-Serif" font-size="14.00">mfem::DenseMatrix</text>
</a>
</g>
</g>
<!-- Node20&#45;&gt;Node10 -->
<g id="edge16" class="edge"><title>Node20&#45;&gt;Node10</title>
<path fill="none" stroke="#9a32cd" stroke-dasharray="5,2" d="M484.623,-449.107C470.006,-434.874 450.05,-415.444 437.869,-403.583"/>
<polygon fill="#9a32cd" stroke="#9a32cd" points="482.505,-451.929 492.111,-456.398 487.388,-446.914 482.505,-451.929"/>
<text text-anchor="middle" x="500.5" y="-426.3" font-family="Helvetica,sans-Serif" font-size="14.00"> vshape</text>
</g>
<!-- Node21 -->
<g id="node16" class="node"><title>Node21</title>
<g id="a_node16"><a xlink:href="classmfem_1_1Matrix.html" target="_top" xlink:title="Abstract data type matrix. ">
<polygon fill="white" stroke="black" points="449.5,-526.5 449.5,-549.5 562.5,-549.5 562.5,-526.5 449.5,-526.5"/>
<text text-anchor="middle" x="506" y="-534.3" font-family="Helvetica,sans-Serif" font-size="14.00">mfem::Matrix</text>
</a>
</g>
</g>
<!-- Node21&#45;&gt;Node20 -->
<g id="edge17" class="edge"><title>Node21&#45;&gt;Node20</title>
<path fill="none" stroke="midnightblue" d="M505.086,-516.272C504.554,-504.228 503.907,-489.549 503.475,-479.775"/>
<polygon fill="midnightblue" stroke="midnightblue" points="501.594,-516.539 505.531,-526.375 508.587,-516.23 501.594,-516.539"/>
</g>
<!-- Node22 -->
<g id="node17" class="node"><title>Node22</title>
<g id="a_node17"><a xlink:href="classmfem_1_1Operator.html" target="_top" xlink:title="Abstract operator. ">
<polygon fill="white" stroke="black" points="439.5,-618.5 439.5,-641.5 572.5,-641.5 572.5,-618.5 439.5,-618.5"/>
<text text-anchor="middle" x="506" y="-626.3" font-family="Helvetica,sans-Serif" font-size="14.00">mfem::Operator</text>
</a>
</g>
</g>
<!-- Node22&#45;&gt;Node21 -->
<g id="edge18" class="edge"><title>Node22&#45;&gt;Node21</title>
<path fill="none" stroke="midnightblue" d="M506,-608.08C506,-589.799 506,-564.001 506,-549.664"/>
<polygon fill="midnightblue" stroke="midnightblue" points="502.5,-608.322 506,-618.322 509.5,-608.322 502.5,-608.322"/>
</g>
<!-- Node23 -->
<g id="node18" class="node"><title>Node23</title>
<g id="a_node18"><a xlink:href="classmfem_1_1Array.html" target="_top" xlink:title="mfem::Array\&lt; int \&gt;">
<polygon fill="white" stroke="black" points="648,-260.5 648,-283.5 806,-283.5 806,-260.5 648,-260.5"/>
<text text-anchor="middle" x="727" y="-268.3" font-family="Helvetica,sans-Serif" font-size="14.00">mfem::Array&lt; int &gt;</text>
</a>
</g>
</g>
<!-- Node23&#45;&gt;Node8 -->
<g id="edge19" class="edge"><title>Node23&#45;&gt;Node8</title>
<path fill="none" stroke="#9a32cd" stroke-dasharray="5,2" d="M680.118,-257.16C667.789,-252.891 654.677,-247.772 643,-242 609.8,-225.59 574.512,-200.076 555.699,-185.732"/>
<polygon fill="#9a32cd" stroke="#9a32cd" points="679.203,-260.544 689.797,-260.398 681.423,-253.906 679.203,-260.544"/>
<text text-anchor="middle" x="690" y="-223.3" font-family="Helvetica,sans-Serif" font-size="14.00"> lex_ordering</text>
</g>
<!-- Node25 -->
<g id="node20" class="node"><title>Node25</title>
<g id="a_node20"><a xlink:href="classmfem_1_1TensorBasisElement.html" target="_top" xlink:title="mfem::TensorBasisElement">
<polygon fill="white" stroke="black" points="664,-162.5 664,-185.5 876,-185.5 876,-162.5 664,-162.5"/>
<text text-anchor="middle" x="770" y="-170.3" font-family="Helvetica,sans-Serif" font-size="14.00">mfem::TensorBasisElement</text>
</a>
</g>
</g>
<!-- Node23&#45;&gt;Node25 -->
<g id="edge22" class="edge"><title>Node23&#45;&gt;Node25</title>
<path fill="none" stroke="#9a32cd" stroke-dasharray="5,2" d="M735.961,-250.994C744.859,-231.129 758.161,-201.43 765.213,-185.688"/>
<polygon fill="#9a32cd" stroke="#9a32cd" points="732.66,-249.802 731.766,-260.36 739.048,-252.664 732.66,-249.802"/>
<text text-anchor="middle" x="799" y="-230.8" font-family="Helvetica,sans-Serif" font-size="14.00"> dof_map</text>
<text text-anchor="middle" x="799" y="-215.8" font-family="Helvetica,sans-Serif" font-size="14.00">inv_dof_map</text>
</g>
<!-- Node24 -->
<g id="node19" class="node"><title>Node24</title>
<g id="a_node19"><a xlink:href="classmfem_1_1Memory.html" target="_top" xlink:title="mfem::Memory\&lt; int \&gt;">
<polygon fill="white" stroke="black" points="638,-380.5 638,-403.5 816,-403.5 816,-380.5 638,-380.5"/>
<text text-anchor="middle" x="727" y="-388.3" font-family="Helvetica,sans-Serif" font-size="14.00">mfem::Memory&lt; int &gt;</text>
</a>
</g>
</g>
<!-- Node24&#45;&gt;Node23 -->
<g id="edge20" class="edge"><title>Node24&#45;&gt;Node23</title>
<path fill="none" stroke="#9a32cd" stroke-dasharray="5,2" d="M727,-370.047C727,-344.672 727,-302.927 727,-283.524"/>
<polygon fill="#9a32cd" stroke="#9a32cd" points="723.5,-370.11 727,-380.11 730.5,-370.11 723.5,-370.11"/>
<text text-anchor="middle" x="745.5" y="-328.3" font-family="Helvetica,sans-Serif" font-size="14.00"> data</text>
</g>
<!-- Node25&#45;&gt;Node7 -->
<g id="edge21" class="edge"><title>Node25&#45;&gt;Node7</title>
<path fill="none" stroke="midnightblue" d="M736.541,-158.382C694.942,-140.208 624.949,-109.628 588.199,-93.5725"/>
<polygon fill="midnightblue" stroke="midnightblue" points="735.401,-161.703 745.966,-162.5 738.204,-155.289 735.401,-161.703"/>
</g>
<!-- Node26 -->
<g id="node21" class="node"><title>Node26</title>
<g id="a_node21"><a xlink:href="classmfem_1_1Poly__1D_1_1Basis.html" target="_top" xlink:title="Class for evaluating 1D nodal, positive (Bernstein), or integrated (Gerritsma) bases. ">
<polygon fill="white" stroke="black" points="824.5,-260.5 824.5,-283.5 995.5,-283.5 995.5,-260.5 824.5,-260.5"/>
<text text-anchor="middle" x="910" y="-268.3" font-family="Helvetica,sans-Serif" font-size="14.00">mfem::Poly_1D::Basis</text>
</a>
</g>
</g>
<!-- Node26&#45;&gt;Node25 -->
<g id="edge23" class="edge"><title>Node26&#45;&gt;Node25</title>
<path fill="none" stroke="#9a32cd" stroke-dasharray="5,2" d="M894.102,-252.698C882.506,-240.123 865.918,-223.658 849,-212 833.287,-201.172 813.904,-192.04 798.27,-185.557"/>
<polygon fill="#9a32cd" stroke="#9a32cd" points="891.664,-255.22 900.956,-260.31 896.866,-250.536 891.664,-255.22"/>
<text text-anchor="middle" x="913" y="-223.3" font-family="Helvetica,sans-Serif" font-size="14.00"> basis1d</text>
</g>
</g>
</svg>
