<?xml version="1.0" encoding="UTF-8" standalone="no"?>
<!DOCTYPE svg PUBLIC "-//W3C//DTD SVG 1.1//EN"
 "http://www.w3.org/Graphics/SVG/1.1/DTD/svg11.dtd">
<!-- Generated by graphviz version 2.30.1 (20200304.1809)
 -->
<!-- Title: mfem::L2Pos_TriangleElement Pages: 1 -->
<!--zoomable 658 -->
<svg id="main" version="1.1" xmlns="http://www.w3.org/2000/svg" xmlns:xlink="http://www.w3.org/1999/xlink" xml:space="preserve" onload="init(evt)">
<style type="text/css"><![CDATA[
.edge:hover path { stroke: red; }
.edge:hover polygon { stroke: red; fill: red; }
]]></style>
<script type="text/javascript"><![CDATA[
var edges = document.getElementsByTagName('g');
if (edges && edges.length) {
  for (var i=0;i<edges.length;i++) {
    if (edges[i].id.substr(0,4)=='edge') {
      edges[i].setAttribute('class','edge');
    }
  }
}
]]></script>
        <defs>
                <circle id="rim" cx="0" cy="0" r="7"/>
                <circle id="rim2" cx="0" cy="0" r="3.5"/>
                <g id="zoomPlus">
                        <use xlink:href="#rim" fill="#404040">
                                <set attributeName="fill" to="#808080" begin="zoomplus.mouseover" end="zoomplus.mouseout"/>
                        </use>
                        <path d="M-4,0h8M0,-4v8" fill="none" stroke="white" stroke-width="1.5" pointer-events="none"/>
                </g>
                <g id="zoomMin">
                        <use xlink:href="#rim" fill="#404040">
                                <set attributeName="fill" to="#808080" begin="zoomminus.mouseover" end="zoomminus.mouseout"/>
                        </use>
                        <path d="M-4,0h8" fill="none" stroke="white" stroke-width="1.5" pointer-events="none"/>
                </g>
                <g id="dirArrow">
                        <path fill="none" stroke="white" stroke-width="1.5" d="M0,-3.0v7 M-2.5,-0.5L0,-3.0L2.5,-0.5"/>
                </g>
               <g id="resetDef">
                       <use xlink:href="#rim2" fill="#404040">
                               <set attributeName="fill" to="#808080" begin="reset.mouseover" end="reset.mouseout"/>
                       </use>
               </g>
        </defs>

<script type="text/javascript">
var viewWidth = 697;
var viewHeight = 658;
var sectionId = 'dynsection-1';
</script>
<script xlink:href="svgpan.js"/>
<svg id="graph" class="graph">
<g id="viewport">
<title>mfem::L2Pos_TriangleElement</title>
<polygon fill="white" stroke="white" points="-4,5 -4,-654 694,-654 694,5 -4,5"/>
<!-- Node4 -->
<g id="node1" class="node"><title>Node4</title>
<polygon fill="#bfbfbf" stroke="black" points="-0.5,-8.5 -0.5,-31.5 232.5,-31.5 232.5,-8.5 -0.5,-8.5"/>
<text text-anchor="middle" x="116" y="-16.3" font-family="Helvetica,sans-Serif" font-size="14.00">mfem::L2Pos_TriangleElement</text>
</g>
<!-- Node5 -->
<g id="node2" class="node"><title>Node5</title>
<g id="a_node2"><a xlink:href="classmfem_1_1PositiveFiniteElement.html" target="_top" xlink:title="Class for finite elements utilizing the always positive Bernstein basis. ">
<polygon fill="white" stroke="black" points="6,-100.5 6,-123.5 226,-123.5 226,-100.5 6,-100.5"/>
<text text-anchor="middle" x="116" y="-108.3" font-family="Helvetica,sans-Serif" font-size="14.00">mfem::PositiveFiniteElement</text>
</a>
</g>
</g>
<!-- Node5&#45;&gt;Node4 -->
<g id="edge1" class="edge"><title>Node5&#45;&gt;Node4</title>
<path fill="none" stroke="midnightblue" d="M116,-90.0804C116,-71.7987 116,-46.0005 116,-31.6637"/>
<polygon fill="midnightblue" stroke="midnightblue" points="112.5,-90.3224 116,-100.322 119.5,-90.3224 112.5,-90.3224"/>
</g>
<!-- Node6 -->
<g id="node3" class="node"><title>Node6</title>
<g id="a_node3"><a xlink:href="classmfem_1_1ScalarFiniteElement.html" target="_top" xlink:title="Class for finite elements with basis functions that return scalar values. ">
<polygon fill="white" stroke="black" points="14,-184.5 14,-207.5 224,-207.5 224,-184.5 14,-184.5"/>
<text text-anchor="middle" x="119" y="-192.3" font-family="Helvetica,sans-Serif" font-size="14.00">mfem::ScalarFiniteElement</text>
</a>
</g>
</g>
<!-- Node6&#45;&gt;Node5 -->
<g id="edge2" class="edge"><title>Node6&#45;&gt;Node5</title>
<path fill="none" stroke="midnightblue" d="M118.239,-174.203C117.651,-158.114 116.859,-136.493 116.392,-123.723"/>
<polygon fill="midnightblue" stroke="midnightblue" points="114.744,-174.415 118.608,-184.28 121.74,-174.159 114.744,-174.415"/>
</g>
<!-- Node7 -->
<g id="node4" class="node"><title>Node7</title>
<g id="a_node4"><a xlink:href="classmfem_1_1FiniteElement.html" target="_top" xlink:title="Abstract class for all finite elements. ">
<polygon fill="white" stroke="black" points="171,-304.5 171,-327.5 337,-327.5 337,-304.5 171,-304.5"/>
<text text-anchor="middle" x="254" y="-312.3" font-family="Helvetica,sans-Serif" font-size="14.00">mfem::FiniteElement</text>
</a>
</g>
</g>
<!-- Node7&#45;&gt;Node6 -->
<g id="edge3" class="edge"><title>Node7&#45;&gt;Node6</title>
<path fill="none" stroke="midnightblue" d="M233.816,-297.358C205.333,-272.461 154.234,-227.797 131.04,-207.524"/>
<polygon fill="midnightblue" stroke="midnightblue" points="231.709,-300.164 241.542,-304.11 236.316,-294.894 231.709,-300.164"/>
</g>
<!-- Node10 -->
<g id="node7" class="node"><title>Node10</title>
<g id="a_node7"><a xlink:href="classmfem_1_1DofToQuad.html" target="_top" xlink:title="Structure representing the matrices/tensors needed to evaluate (in reference space) the values...">
<polygon fill="white" stroke="black" points="316,-184.5 316,-207.5 464,-207.5 464,-184.5 316,-184.5"/>
<text text-anchor="middle" x="390" y="-192.3" font-family="Helvetica,sans-Serif" font-size="14.00">mfem::DofToQuad</text>
</a>
</g>
</g>
<!-- Node7&#45;&gt;Node10 -->
<g id="edge13" class="edge"><title>Node7&#45;&gt;Node10</title>
<path fill="none" stroke="#9a32cd" stroke-dasharray="5,2" d="M271.317,-297.044C289.634,-278.431 319.74,-248.909 348,-226 355.985,-219.527 365.357,-212.966 373.22,-207.726"/>
<polygon fill="#9a32cd" stroke="#9a32cd" points="268.711,-294.702 264.228,-304.301 273.719,-299.593 268.711,-294.702"/>
<text text-anchor="middle" x="359" y="-252.3" font-family="Helvetica,sans-Serif" font-size="14.00"> FE</text>
</g>
<!-- Node8 -->
<g id="node5" class="node"><title>Node8</title>
<g id="a_node5"><a xlink:href="classmfem_1_1Array.html" target="_top" xlink:title="mfem::Array\&lt; mfem::\lDofToQuad *\&gt;">
<polygon fill="white" stroke="black" points="262,-1 262,-39 438,-39 438,-1 262,-1"/>
<text text-anchor="start" x="270" y="-23.8" font-family="Helvetica,sans-Serif" font-size="14.00">mfem::Array&lt; mfem::</text>
<text text-anchor="middle" x="350" y="-8.8" font-family="Helvetica,sans-Serif" font-size="14.00">DofToQuad *&gt;</text>
</a>
</g>
</g>
<!-- Node8&#45;&gt;Node7 -->
<g id="edge4" class="edge"><title>Node8&#45;&gt;Node7</title>
<path fill="none" stroke="#9a32cd" stroke-dasharray="5,2" d="M320.885,-46.2528C307.797,-58.8857 293.066,-75.0737 283,-92 240.496,-163.475 248.645,-270.389 252.582,-304.288"/>
<polygon fill="#9a32cd" stroke="#9a32cd" points="323.454,-48.6412 328.353,-39.2469 318.665,-43.5359 323.454,-48.6412"/>
<text text-anchor="middle" x="319.5" y="-154.3" font-family="Helvetica,sans-Serif" font-size="14.00"> dof2quad_array</text>
</g>
<!-- Node9 -->
<g id="node6" class="node"><title>Node9</title>
<g id="a_node6"><a xlink:href="classmfem_1_1Memory.html" target="_top" xlink:title="mfem::Memory\&lt; mfem\l::DofToQuad *\&gt;">
<polygon fill="white" stroke="black" points="292,-93 292,-131 478,-131 478,-93 292,-93"/>
<text text-anchor="start" x="300" y="-115.8" font-family="Helvetica,sans-Serif" font-size="14.00">mfem::Memory&lt; mfem</text>
<text text-anchor="middle" x="385" y="-100.8" font-family="Helvetica,sans-Serif" font-size="14.00">::DofToQuad *&gt;</text>
</a>
</g>
</g>
<!-- Node9&#45;&gt;Node8 -->
<g id="edge5" class="edge"><title>Node9&#45;&gt;Node8</title>
<path fill="none" stroke="#9a32cd" stroke-dasharray="5,2" d="M374.259,-83.3796C368.674,-69.0182 362.004,-51.8663 357.072,-39.1858"/>
<polygon fill="#9a32cd" stroke="#9a32cd" points="371.031,-84.7357 377.917,-92.7872 377.555,-82.1985 371.031,-84.7357"/>
<text text-anchor="middle" x="388.5" y="-62.3" font-family="Helvetica,sans-Serif" font-size="14.00"> data</text>
</g>
<!-- Node10&#45;&gt;Node9 -->
<g id="edge6" class="edge"><title>Node10&#45;&gt;Node9</title>
<path fill="none" stroke="#9a32cd" stroke-dasharray="5,2" d="M388.732,-174.213C387.925,-160.967 386.888,-143.968 386.113,-131.246"/>
<polygon fill="#9a32cd" stroke="#9a32cd" points="385.244,-174.512 389.346,-184.28 392.231,-174.085 385.244,-174.512"/>
<text text-anchor="middle" x="409" y="-154.3" font-family="Helvetica,sans-Serif" font-size="14.00"> h_ptr</text>
</g>
<!-- Node11 -->
<g id="node8" class="node"><title>Node11</title>
<g id="a_node8"><a xlink:href="classmfem_1_1IntegrationRule.html" target="_top" xlink:title="Class for an integration rule &#45; an Array of IntegrationPoint. ">
<polygon fill="white" stroke="black" points="284,-380.5 284,-403.5 462,-403.5 462,-380.5 284,-380.5"/>
<text text-anchor="middle" x="373" y="-388.3" font-family="Helvetica,sans-Serif" font-size="14.00">mfem::IntegrationRule</text>
</a>
</g>
</g>
<!-- Node11&#45;&gt;Node10 -->
<g id="edge7" class="edge"><title>Node11&#45;&gt;Node10</title>
<path fill="none" stroke="#9a32cd" stroke-dasharray="5,2" d="M374.832,-370.095C378.431,-329.027 386.311,-239.104 389.044,-207.913"/>
<polygon fill="#9a32cd" stroke="#9a32cd" points="371.325,-370.026 373.938,-380.293 378.298,-370.637 371.325,-370.026"/>
<text text-anchor="middle" x="407.5" y="-312.3" font-family="Helvetica,sans-Serif" font-size="14.00"> IntRule</text>
</g>
<!-- Node11&#45;&gt;Node7 -->
<g id="edge14" class="edge"><title>Node11&#45;&gt;Node7</title>
<path fill="none" stroke="#9a32cd" stroke-dasharray="5,2" d="M343.774,-375.673C335.963,-371.397 327.586,-366.646 320,-362 301.906,-350.918 281.865,-337.008 268.668,-327.61"/>
<polygon fill="#9a32cd" stroke="#9a32cd" points="342.14,-378.768 352.602,-380.44 345.466,-372.609 342.14,-378.768"/>
<text text-anchor="middle" x="345" y="-350.3" font-family="Helvetica,sans-Serif" font-size="14.00"> Nodes</text>
</g>
<!-- Node12 -->
<g id="node9" class="node"><title>Node12</title>
<g id="a_node9"><a xlink:href="classmfem_1_1Array.html" target="_top" xlink:title="mfem::Array\&lt; Integration\lPoint \&gt;">
<polygon fill="white" stroke="black" points="272.5,-443 272.5,-481 475.5,-481 475.5,-443 272.5,-443"/>
<text text-anchor="start" x="280.5" y="-465.8" font-family="Helvetica,sans-Serif" font-size="14.00">mfem::Array&lt; Integration</text>
<text text-anchor="middle" x="374" y="-450.8" font-family="Helvetica,sans-Serif" font-size="14.00">Point &gt;</text>
</a>
</g>
</g>
<!-- Node12&#45;&gt;Node11 -->
<g id="edge8" class="edge"><title>Node12&#45;&gt;Node11</title>
<path fill="none" stroke="midnightblue" d="M373.582,-432.599C373.433,-422.442 373.274,-411.6 373.159,-403.834"/>
<polygon fill="midnightblue" stroke="midnightblue" points="370.085,-432.83 373.732,-442.777 377.085,-432.727 370.085,-432.83"/>
</g>
<!-- Node13 -->
<g id="node10" class="node"><title>Node13</title>
<g id="a_node10"><a xlink:href="classmfem_1_1Memory.html" target="_top" xlink:title="mfem::Memory\&lt; Integration\lPoint \&gt;">
<polygon fill="white" stroke="black" points="269,-535 269,-573 491,-573 491,-535 269,-535"/>
<text text-anchor="start" x="277" y="-557.8" font-family="Helvetica,sans-Serif" font-size="14.00">mfem::Memory&lt; Integration</text>
<text text-anchor="middle" x="380" y="-542.8" font-family="Helvetica,sans-Serif" font-size="14.00">Point &gt;</text>
</a>
</g>
</g>
<!-- Node13&#45;&gt;Node12 -->
<g id="edge9" class="edge"><title>Node13&#45;&gt;Node12</title>
<path fill="none" stroke="#9a32cd" stroke-dasharray="5,2" d="M378.103,-524.548C377.157,-510.36 376.041,-493.622 375.212,-481.186"/>
<polygon fill="#9a32cd" stroke="#9a32cd" points="374.628,-525.042 378.786,-534.787 381.613,-524.576 374.628,-525.042"/>
<text text-anchor="middle" x="396.5" y="-504.3" font-family="Helvetica,sans-Serif" font-size="14.00"> data</text>
</g>
<!-- Node14 -->
<g id="node11" class="node"><title>Node14</title>
<g id="a_node11"><a xlink:href="classmfem_1_1IntegrationPoint.html" target="_top" xlink:title="Class for integration point with weight. ">
<polygon fill="white" stroke="black" points="289,-626.5 289,-649.5 471,-649.5 471,-626.5 289,-626.5"/>
<text text-anchor="middle" x="380" y="-634.3" font-family="Helvetica,sans-Serif" font-size="14.00">mfem::IntegrationPoint</text>
</a>
</g>
</g>
<!-- Node14&#45;&gt;Node13 -->
<g id="edge10" class="edge"><title>Node14&#45;&gt;Node13</title>
<path fill="none" stroke="#9a32cd" stroke-dasharray="5,2" d="M380,-616.213C380,-602.967 380,-585.968 380,-573.246"/>
<polygon fill="#9a32cd" stroke="#9a32cd" points="376.5,-616.28 380,-626.28 383.5,-616.28 376.5,-616.28"/>
<text text-anchor="middle" x="401" y="-596.3" font-family="Helvetica,sans-Serif" font-size="14.00"> h_ptr</text>
</g>
<!-- Node15 -->
<g id="node12" class="node"><title>Node15</title>
<g id="a_node12"><a xlink:href="classmfem_1_1Array.html" target="_top" xlink:title="mfem::Array\&lt; double \&gt;">
<polygon fill="white" stroke="black" points="468.5,-304.5 468.5,-327.5 657.5,-327.5 657.5,-304.5 468.5,-304.5"/>
<text text-anchor="middle" x="563" y="-312.3" font-family="Helvetica,sans-Serif" font-size="14.00">mfem::Array&lt; double &gt;</text>
</a>
</g>
</g>
<!-- Node15&#45;&gt;Node10 -->
<g id="edge11" class="edge"><title>Node15&#45;&gt;Node10</title>
<path fill="none" stroke="#9a32cd" stroke-dasharray="5,2" d="M538.873,-298.544C502.777,-273.923 435.732,-228.193 405.498,-207.571"/>
<polygon fill="#9a32cd" stroke="#9a32cd" points="537.109,-301.577 547.342,-304.32 541.053,-295.794 537.109,-301.577"/>
<text text-anchor="middle" x="524.5" y="-274.8" font-family="Helvetica,sans-Serif" font-size="14.00"> G</text>
<text text-anchor="middle" x="524.5" y="-259.8" font-family="Helvetica,sans-Serif" font-size="14.00">Gt</text>
<text text-anchor="middle" x="524.5" y="-244.8" font-family="Helvetica,sans-Serif" font-size="14.00">B</text>
<text text-anchor="middle" x="524.5" y="-229.8" font-family="Helvetica,sans-Serif" font-size="14.00">Bt</text>
</g>
<!-- Node16 -->
<g id="node13" class="node"><title>Node16</title>
<g id="a_node13"><a xlink:href="classmfem_1_1Memory.html" target="_top" xlink:title="mfem::Memory\&lt; double \&gt;">
<polygon fill="white" stroke="black" points="480.5,-380.5 480.5,-403.5 689.5,-403.5 689.5,-380.5 480.5,-380.5"/>
<text text-anchor="middle" x="585" y="-388.3" font-family="Helvetica,sans-Serif" font-size="14.00">mfem::Memory&lt; double &gt;</text>
</a>
</g>
</g>
<!-- Node16&#45;&gt;Node15 -->
<g id="edge12" class="edge"><title>Node16&#45;&gt;Node15</title>
<path fill="none" stroke="#9a32cd" stroke-dasharray="5,2" d="M578.961,-370.689C574.814,-356.739 569.477,-338.785 566.146,-327.583"/>
<polygon fill="#9a32cd" stroke="#9a32cd" points="575.643,-371.81 581.848,-380.398 582.353,-369.815 575.643,-371.81"/>
<text text-anchor="middle" x="593.5" y="-350.3" font-family="Helvetica,sans-Serif" font-size="14.00"> data</text>
</g>
<!-- Node17 -->
<g id="node14" class="node"><title>Node17</title>
<g id="a_node14"><a xlink:href="classmfem_1_1DenseMatrix.html" target="_top" xlink:title="Data type dense matrix using column&#45;major storage. ">
<polygon fill="white" stroke="black" points="108,-380.5 108,-403.5 266,-403.5 266,-380.5 108,-380.5"/>
<text text-anchor="middle" x="187" y="-388.3" font-family="Helvetica,sans-Serif" font-size="14.00">mfem::DenseMatrix</text>
</a>
</g>
</g>
<!-- Node17&#45;&gt;Node7 -->
<g id="edge15" class="edge"><title>Node17&#45;&gt;Node7</title>
<path fill="none" stroke="#9a32cd" stroke-dasharray="5,2" d="M196.115,-371.095C200.498,-362.789 206.269,-353.378 213,-346 219.464,-338.915 227.942,-332.564 235.511,-327.625"/>
<polygon fill="#9a32cd" stroke="#9a32cd" points="192.933,-369.635 191.634,-380.15 199.206,-372.74 192.933,-369.635"/>
<text text-anchor="middle" x="241.5" y="-350.3" font-family="Helvetica,sans-Serif" font-size="14.00"> vshape</text>
</g>
<!-- Node18 -->
<g id="node15" class="node"><title>Node18</title>
<g id="a_node15"><a xlink:href="classmfem_1_1Matrix.html" target="_top" xlink:title="Abstract data type matrix. ">
<polygon fill="white" stroke="black" points="129.5,-450.5 129.5,-473.5 242.5,-473.5 242.5,-450.5 129.5,-450.5"/>
<text text-anchor="middle" x="186" y="-458.3" font-family="Helvetica,sans-Serif" font-size="14.00">mfem::Matrix</text>
</a>
</g>
</g>
<!-- Node18&#45;&gt;Node17 -->
<g id="edge16" class="edge"><title>Node18&#45;&gt;Node17</title>
<path fill="none" stroke="midnightblue" d="M186.305,-440.272C186.482,-428.228 186.698,-413.549 186.842,-403.775"/>
<polygon fill="midnightblue" stroke="midnightblue" points="182.804,-440.325 186.156,-450.375 189.803,-440.428 182.804,-440.325"/>
</g>
<!-- Node19 -->
<g id="node16" class="node"><title>Node19</title>
<g id="a_node16"><a xlink:href="classmfem_1_1Operator.html" target="_top" xlink:title="Abstract operator. ">
<polygon fill="white" stroke="black" points="117.5,-542.5 117.5,-565.5 250.5,-565.5 250.5,-542.5 117.5,-542.5"/>
<text text-anchor="middle" x="184" y="-550.3" font-family="Helvetica,sans-Serif" font-size="14.00">mfem::Operator</text>
</a>
</g>
</g>
<!-- Node19&#45;&gt;Node18 -->
<g id="edge17" class="edge"><title>Node19&#45;&gt;Node18</title>
<path fill="none" stroke="midnightblue" d="M184.465,-532.08C184.871,-513.799 185.444,-488.001 185.763,-473.664"/>
<polygon fill="midnightblue" stroke="midnightblue" points="180.96,-532.247 184.237,-542.322 187.959,-532.403 180.96,-532.247"/>
</g>
</g>
</svg>
        <g id="navigator" transform="translate(0 0)" fill="#404254">
                <rect fill="#f2f5e9" fill-opacity="0.5" stroke="#606060" stroke-width=".5" x="0" y="0" width="60" height="60"/>
                <use id="zoomplus" xlink:href="#zoomPlus" x="17" y="9" onmousedown="handleZoom(evt,'in')"/>
                <use id="zoomminus" xlink:href="#zoomMin" x="42" y="9" onmousedown="handleZoom(evt,'out')"/>
                <use id="reset" xlink:href="#resetDef" x="30" y="36" onmousedown="handleReset()"/>
                <g id="arrowUp" xlink:href="#dirArrow" transform="translate(30 24)" onmousedown="handlePan(0,-1)">
                  <use xlink:href="#rim" fill="#404040">
                        <set attributeName="fill" to="#808080" begin="arrowUp.mouseover" end="arrowUp.mouseout"/>
                  </use>
                  <path fill="none" stroke="white" stroke-width="1.5" d="M0,-3.0v7 M-2.5,-0.5L0,-3.0L2.5,-0.5"/>
                </g>
                <g id="arrowRight" xlink:href="#dirArrow" transform="rotate(90) translate(36 -43)" onmousedown="handlePan(1,0)">
                  <use xlink:href="#rim" fill="#404040">
                        <set attributeName="fill" to="#808080" begin="arrowRight.mouseover" end="arrowRight.mouseout"/>
                  </use>
                  <path fill="none" stroke="white" stroke-width="1.5" d="M0,-3.0v7 M-2.5,-0.5L0,-3.0L2.5,-0.5"/>
                </g>
                <g id="arrowDown" xlink:href="#dirArrow" transform="rotate(180) translate(-30 -48)" onmousedown="handlePan(0,1)">
                  <use xlink:href="#rim" fill="#404040">
                        <set attributeName="fill" to="#808080" begin="arrowDown.mouseover" end="arrowDown.mouseout"/>
                  </use>
                  <path fill="none" stroke="white" stroke-width="1.5" d="M0,-3.0v7 M-2.5,-0.5L0,-3.0L2.5,-0.5"/>
                </g>
                <g id="arrowLeft" xlink:href="#dirArrow" transform="rotate(270) translate(-36 17)" onmousedown="handlePan(-1,0)">
                  <use xlink:href="#rim" fill="#404040">
                        <set attributeName="fill" to="#808080" begin="arrowLeft.mouseover" end="arrowLeft.mouseout"/>
                  </use>
                  <path fill="none" stroke="white" stroke-width="1.5" d="M0,-3.0v7 M-2.5,-0.5L0,-3.0L2.5,-0.5"/>
                </g>
        </g>
        <svg viewBox="0 0 15 15" width="100%" height="30px" preserveAspectRatio="xMaxYMin meet">
         <g id="arrow_out" transform="scale(0.3 0.3)">
          <a xlink:href="classmfem_1_1L2Pos__TriangleElement__coll__graph_org.svg" target="_base">
           <rect id="button" ry="5" rx="5" y="6" x="6" height="38" width="38"
                fill="#f2f5e9" fill-opacity="0.5" stroke="#606060" stroke-width="1.0"/>
           <path id="arrow"
             d="M 11.500037,31.436501 C 11.940474,20.09759 22.043105,11.32322 32.158766,21.979434 L 37.068811,17.246167 C 37.068811,17.246167 37.088388,32 37.088388,32 L 22.160133,31.978069 C 22.160133,31.978069 26.997745,27.140456 26.997745,27.140456 C 18.528582,18.264221 13.291696,25.230495 11.500037,31.436501 z"
             style="fill:#404040;"/>
          </a>
         </g>
        </svg>
</svg>
