<?xml version="1.0" encoding="UTF-8" standalone="no"?>
<!DOCTYPE svg PUBLIC "-//W3C//DTD SVG 1.1//EN"
 "http://www.w3.org/Graphics/SVG/1.1/DTD/svg11.dtd">
<!-- Generated by graphviz version 2.30.1 (20200304.1809)
 -->
<!-- Title: Graphical Class Hierarchy Pages: 1 -->
<svg width="684pt" height="1202pt"
 viewBox="0.00 0.00 684.00 1202.00" xmlns="http://www.w3.org/2000/svg" xmlns:xlink="http://www.w3.org/1999/xlink">
<g id="graph0" class="graph" transform="scale(1 1) rotate(0) translate(4 1198)">
<title>Graphical Class Hierarchy</title>
<polygon fill="white" stroke="white" points="-4,5 -4,-1198 681,-1198 681,5 -4,5"/>
<!-- Node0 -->
<g id="node1" class="node"><title>Node0</title>
<g id="a_node1"><a xlink:href="classmfem_1_1Coefficient.html" target="_top" xlink:title="Base class Coefficients that optionally depend on space and time. These are used by the BilinearFormI...">
<polygon fill="white" stroke="black" points="0,-578.5 0,-601.5 144,-601.5 144,-578.5 0,-578.5"/>
<text text-anchor="middle" x="72" y="-586.3" font-family="Helvetica,sans-Serif" font-size="14.00">mfem::Coefficient</text>
</a>
</g>
</g>
<!-- Node1 -->
<g id="node2" class="node"><title>Node1</title>
<g id="a_node2"><a xlink:href="classCombo__Level__Set__Coefficient.html" target="_top" xlink:title="Combination of level sets: +1 inside the true domain, &#45;1 outside. ">
<polygon fill="white" stroke="black" points="200.5,-1170.5 200.5,-1193.5 427.5,-1193.5 427.5,-1170.5 200.5,-1170.5"/>
<text text-anchor="middle" x="314" y="-1178.3" font-family="Helvetica,sans-Serif" font-size="14.00">Combo_Level_Set_Coefficient</text>
</a>
</g>
</g>
<!-- Node0&#45;&gt;Node1 -->
<g id="edge1" class="edge"><title>Node0&#45;&gt;Node1</title>
<path fill="none" stroke="midnightblue" d="M73.8587,-612.192C78.0276,-707.728 99.3736,-1082.65 180,-1161 185.951,-1166.78 192.81,-1171.37 200.209,-1174.97"/>
<polygon fill="midnightblue" stroke="midnightblue" points="77.346,-611.81 73.4326,-601.965 70.352,-612.102 77.346,-611.81"/>
</g>
<!-- Node2 -->
<g id="node3" class="node"><title>Node2</title>
<g id="a_node3"><a xlink:href="classDist__Level__Set__Coefficient.html" target="_top" xlink:title="Level set coefficient: +1 inside the true domain, &#45;1 outside. ">
<polygon fill="white" stroke="black" points="212,-1128.5 212,-1151.5 416,-1151.5 416,-1128.5 212,-1128.5"/>
<text text-anchor="middle" x="314" y="-1136.3" font-family="Helvetica,sans-Serif" font-size="14.00">Dist_Level_Set_Coefficient</text>
</a>
</g>
</g>
<!-- Node0&#45;&gt;Node2 -->
<g id="edge2" class="edge"><title>Node0&#45;&gt;Node2</title>
<path fill="none" stroke="midnightblue" d="M74.186,-611.702C79.583,-702.058 104.891,-1047.05 180,-1119 189.031,-1127.65 200.096,-1133.6 211.951,-1137.61"/>
<polygon fill="midnightblue" stroke="midnightblue" points="77.6704,-611.328 73.6004,-601.547 70.682,-611.732 77.6704,-611.328"/>
</g>
<!-- Node3 -->
<g id="node4" class="node"><title>Node3</title>
<g id="a_node4"><a xlink:href="classmfem_1_1ConstantCoefficient.html" target="_top" xlink:title="A coefficient that is constant across space and time. ">
<polygon fill="white" stroke="black" points="210,-1086.5 210,-1109.5 418,-1109.5 418,-1086.5 210,-1086.5"/>
<text text-anchor="middle" x="314" y="-1094.3" font-family="Helvetica,sans-Serif" font-size="14.00">mfem::ConstantCoefficient</text>
</a>
</g>
</g>
<!-- Node0&#45;&gt;Node3 -->
<g id="edge3" class="edge"><title>Node0&#45;&gt;Node3</title>
<path fill="none" stroke="midnightblue" d="M74.6299,-612.171C81.453,-698.641 110.652,-1011.67 180,-1077 188.508,-1085.01 198.766,-1090.7 209.765,-1094.66"/>
<polygon fill="midnightblue" stroke="midnightblue" points="78.0996,-611.64 73.8446,-601.937 71.1201,-612.176 78.0996,-611.64"/>
</g>
<!-- Node4 -->
<g id="node5" class="node"><title>Node4</title>
<g id="a_node5"><a xlink:href="classmfem_1_1DeltaCoefficient.html" target="_top" xlink:title="Delta function coefficient optionally multiplied by a weight coefficient and a scaled time dependent ...">
<polygon fill="white" stroke="black" points="223,-1044.5 223,-1067.5 405,-1067.5 405,-1044.5 223,-1044.5"/>
<text text-anchor="middle" x="314" y="-1052.3" font-family="Helvetica,sans-Serif" font-size="14.00">mfem::DeltaCoefficient</text>
</a>
</g>
</g>
<!-- Node0&#45;&gt;Node4 -->
<g id="edge4" class="edge"><title>Node0&#45;&gt;Node4</title>
<path fill="none" stroke="midnightblue" d="M75.0861,-611.819C83.305,-693.016 116.168,-976.043 180,-1035 191.849,-1045.94 206.973,-1052.51 222.745,-1056.27"/>
<polygon fill="midnightblue" stroke="midnightblue" points="78.5571,-611.353 74.0893,-601.746 71.5912,-612.042 78.5571,-611.353"/>
</g>
<!-- Node5 -->
<g id="node6" class="node"><title>Node5</title>
<g id="a_node6"><a xlink:href="classmfem_1_1DeterminantCoefficient.html" target="_top" xlink:title="Scalar coefficient defined as the determinant of a matrix coefficient. ">
<polygon fill="white" stroke="black" points="196.5,-1002.5 196.5,-1025.5 431.5,-1025.5 431.5,-1002.5 196.5,-1002.5"/>
<text text-anchor="middle" x="314" y="-1010.3" font-family="Helvetica,sans-Serif" font-size="14.00">mfem::DeterminantCoefficient</text>
</a>
</g>
</g>
<!-- Node0&#45;&gt;Node5 -->
<g id="edge5" class="edge"><title>Node0&#45;&gt;Node5</title>
<path fill="none" stroke="midnightblue" d="M75.7373,-612.119C85.6486,-688.516 122.153,-939.467 180,-992 184.938,-996.484 190.425,-1000.24 196.277,-1003.38"/>
<polygon fill="midnightblue" stroke="midnightblue" points="79.1566,-611.262 74.4219,-601.784 72.2126,-612.146 79.1566,-611.262"/>
</g>
<!-- Node6 -->
<g id="node7" class="node"><title>Node6</title>
<g id="a_node7"><a xlink:href="classmfem_1_1DivergenceGridFunctionCoefficient.html" target="_top" xlink:title="Scalar coefficient defined as the Divergence of a vector GridFunction. ">
<polygon fill="white" stroke="black" points="194,-945 194,-983 434,-983 434,-945 194,-945"/>
<text text-anchor="start" x="202" y="-967.8" font-family="Helvetica,sans-Serif" font-size="14.00">mfem::DivergenceGridFunction</text>
<text text-anchor="middle" x="314" y="-952.8" font-family="Helvetica,sans-Serif" font-size="14.00">Coefficient</text>
</a>
</g>
</g>
<!-- Node0&#45;&gt;Node6 -->
<g id="edge6" class="edge"><title>Node0&#45;&gt;Node6</title>
<path fill="none" stroke="midnightblue" d="M72.7297,-611.664C73.2212,-672.529 83.4263,-846.399 180,-935 184.266,-938.914 188.935,-942.345 193.888,-945.349"/>
<polygon fill="midnightblue" stroke="midnightblue" points="76.2296,-611.661 72.7323,-601.66 69.2296,-611.659 76.2296,-611.661"/>
</g>
<!-- Node7 -->
<g id="node8" class="node"><title>Node7</title>
<g id="a_node8"><a xlink:href="classmfem_1_1electromagnetics_1_1JouleHeatingCoefficient.html" target="_top" xlink:title="mfem::electromagnetics\l::JouleHeatingCoefficient">
<polygon fill="white" stroke="black" points="218,-888 218,-926 410,-926 410,-888 218,-888"/>
<text text-anchor="start" x="226" y="-910.8" font-family="Helvetica,sans-Serif" font-size="14.00">mfem::electromagnetics</text>
<text text-anchor="middle" x="314" y="-895.8" font-family="Helvetica,sans-Serif" font-size="14.00">::JouleHeatingCoefficient</text>
</a>
</g>
</g>
<!-- Node0&#45;&gt;Node7 -->
<g id="edge7" class="edge"><title>Node0&#45;&gt;Node7</title>
<path fill="none" stroke="midnightblue" d="M74.2504,-611.629C78.5861,-665.51 97.6439,-806.511 180,-878 190.797,-887.373 203.919,-893.935 217.664,-898.492"/>
<polygon fill="midnightblue" stroke="midnightblue" points="77.7314,-611.237 73.5312,-601.511 70.7491,-611.734 77.7314,-611.237"/>
</g>
<!-- Node8 -->
<g id="node9" class="node"><title>Node8</title>
<g id="a_node9"><a xlink:href="classmfem_1_1electromagnetics_1_1MeshDependentCoefficient.html" target="_top" xlink:title="mfem::electromagnetics\l::MeshDependentCoefficient">
<polygon fill="white" stroke="black" points="205,-831 205,-869 423,-869 423,-831 205,-831"/>
<text text-anchor="start" x="213" y="-853.8" font-family="Helvetica,sans-Serif" font-size="14.00">mfem::electromagnetics</text>
<text text-anchor="middle" x="314" y="-838.8" font-family="Helvetica,sans-Serif" font-size="14.00">::MeshDependentCoefficient</text>
</a>
</g>
</g>
<!-- Node0&#45;&gt;Node8 -->
<g id="edge8" class="edge"><title>Node0&#45;&gt;Node8</title>
<path fill="none" stroke="midnightblue" d="M76.4538,-611.656C85.0119,-657.833 111.67,-766.212 180,-821 187.467,-826.987 195.901,-831.806 204.807,-835.676"/>
<polygon fill="midnightblue" stroke="midnightblue" points="79.8603,-610.817 74.6929,-601.568 72.9646,-612.021 79.8603,-610.817"/>
</g>
<!-- Node9 -->
<g id="node10" class="node"><title>Node9</title>
<g id="a_node10"><a xlink:href="classmfem_1_1ExtrudeCoefficient.html" target="_top" xlink:title="Class used for extruding scalar GridFunctions. ">
<polygon fill="white" stroke="black" points="214,-788.5 214,-811.5 414,-811.5 414,-788.5 214,-788.5"/>
<text text-anchor="middle" x="314" y="-796.3" font-family="Helvetica,sans-Serif" font-size="14.00">mfem::ExtrudeCoefficient</text>
</a>
</g>
</g>
<!-- Node0&#45;&gt;Node9 -->
<g id="edge9" class="edge"><title>Node0&#45;&gt;Node9</title>
<path fill="none" stroke="midnightblue" d="M78.4976,-611.57C89.9479,-651.742 120.388,-737.679 180,-779 190.182,-786.058 201.849,-791.094 213.95,-794.642"/>
<polygon fill="midnightblue" stroke="midnightblue" points="81.826,-610.472 75.8192,-601.745 75.0725,-612.313 81.826,-610.472"/>
</g>
<!-- Node10 -->
<g id="node11" class="node"><title>Node10</title>
<g id="a_node11"><a xlink:href="classmfem_1_1FunctionCoefficient.html" target="_top" xlink:title="A general function coefficient. ">
<polygon fill="white" stroke="black" points="212,-746.5 212,-769.5 416,-769.5 416,-746.5 212,-746.5"/>
<text text-anchor="middle" x="314" y="-754.3" font-family="Helvetica,sans-Serif" font-size="14.00">mfem::FunctionCoefficient</text>
</a>
</g>
</g>
<!-- Node0&#45;&gt;Node10 -->
<g id="edge10" class="edge"><title>Node0&#45;&gt;Node10</title>
<path fill="none" stroke="midnightblue" d="M81.8549,-611.108C96.8273,-643.955 130.436,-706.674 180,-737 189.771,-742.978 200.673,-747.437 211.917,-750.74"/>
<polygon fill="midnightblue" stroke="midnightblue" points="84.8878,-609.311 77.6519,-601.572 78.4823,-612.134 84.8878,-609.311"/>
</g>
<!-- Node11 -->
<g id="node12" class="node"><title>Node11</title>
<g id="a_node12"><a xlink:href="classmfem_1_1GradComponentCoeff.html" target="_top" xlink:title="mfem::GradComponentCoeff">
<polygon fill="white" stroke="black" points="202,-704.5 202,-727.5 426,-727.5 426,-704.5 202,-704.5"/>
<text text-anchor="middle" x="314" y="-712.3" font-family="Helvetica,sans-Serif" font-size="14.00">mfem::GradComponentCoeff</text>
</a>
</g>
</g>
<!-- Node0&#45;&gt;Node11 -->
<g id="edge11" class="edge"><title>Node0&#45;&gt;Node11</title>
<path fill="none" stroke="midnightblue" d="M87.12,-610.042C105.501,-634.446 140.039,-674.887 180,-695 187.413,-698.731 195.327,-701.831 203.462,-704.403"/>
<polygon fill="midnightblue" stroke="midnightblue" points="89.8395,-607.832 81.0989,-601.844 84.1977,-611.976 89.8395,-607.832"/>
</g>
<!-- Node12 -->
<g id="node13" class="node"><title>Node12</title>
<g id="a_node13"><a xlink:href="classmfem_1_1GridFunctionCoefficient.html" target="_top" xlink:title="Coefficient defined by a GridFunction. This coefficient is mesh dependent. ">
<polygon fill="white" stroke="black" points="197,-662.5 197,-685.5 431,-685.5 431,-662.5 197,-662.5"/>
<text text-anchor="middle" x="314" y="-670.3" font-family="Helvetica,sans-Serif" font-size="14.00">mfem::GridFunctionCoefficient</text>
</a>
</g>
</g>
<!-- Node0&#45;&gt;Node12 -->
<g id="edge12" class="edge"><title>Node0&#45;&gt;Node12</title>
<path fill="none" stroke="midnightblue" d="M96.6164,-607.447C117.481,-621.967 149.284,-641.983 180,-653 190.562,-656.788 201.839,-659.894 213.191,-662.44"/>
<polygon fill="midnightblue" stroke="midnightblue" points="98.5602,-604.535 88.3792,-601.603 94.5096,-610.244 98.5602,-604.535"/>
</g>
<!-- Node14 -->
<g id="node15" class="node"><title>Node14</title>
<g id="a_node15"><a xlink:href="classmfem_1_1InnerProductCoefficient.html" target="_top" xlink:title="Scalar coefficient defined as the inner product of two vector coefficients. ">
<polygon fill="white" stroke="black" points="196,-620.5 196,-643.5 432,-643.5 432,-620.5 196,-620.5"/>
<text text-anchor="middle" x="314" y="-628.3" font-family="Helvetica,sans-Serif" font-size="14.00">mfem::InnerProductCoefficient</text>
</a>
</g>
</g>
<!-- Node0&#45;&gt;Node14 -->
<g id="edge14" class="edge"><title>Node0&#45;&gt;Node14</title>
<path fill="none" stroke="midnightblue" d="M139.638,-603.476C152.989,-606.064 166.928,-608.686 180,-611 198.415,-614.26 218.309,-617.533 236.959,-620.493"/>
<polygon fill="midnightblue" stroke="midnightblue" points="140.053,-599.991 129.568,-601.51 138.712,-606.862 140.053,-599.991"/>
</g>
<!-- Node15 -->
<g id="node16" class="node"><title>Node15</title>
<g id="a_node16"><a xlink:href="classmfem_1_1NormalGradCoeff.html" target="_top" xlink:title="mfem::NormalGradCoeff">
<polygon fill="white" stroke="black" points="217,-578.5 217,-601.5 411,-601.5 411,-578.5 217,-578.5"/>
<text text-anchor="middle" x="314" y="-586.3" font-family="Helvetica,sans-Serif" font-size="14.00">mfem::NormalGradCoeff</text>
</a>
</g>
</g>
<!-- Node0&#45;&gt;Node15 -->
<g id="edge15" class="edge"><title>Node0&#45;&gt;Node15</title>
<path fill="none" stroke="midnightblue" d="M154.088,-590C174.228,-590 196.008,-590 216.795,-590"/>
<polygon fill="midnightblue" stroke="midnightblue" points="154.034,-586.5 144.034,-590 154.034,-593.5 154.034,-586.5"/>
</g>
<!-- Node16 -->
<g id="node17" class="node"><title>Node16</title>
<g id="a_node17"><a xlink:href="classmfem_1_1NormalGradComponentCoeff.html" target="_top" xlink:title="mfem::NormalGradComponent\lCoeff">
<polygon fill="white" stroke="black" points="194.5,-521 194.5,-559 433.5,-559 433.5,-521 194.5,-521"/>
<text text-anchor="start" x="202.5" y="-543.8" font-family="Helvetica,sans-Serif" font-size="14.00">mfem::NormalGradComponent</text>
<text text-anchor="middle" x="314" y="-528.8" font-family="Helvetica,sans-Serif" font-size="14.00">Coeff</text>
</a>
</g>
</g>
<!-- Node0&#45;&gt;Node16 -->
<g id="edge16" class="edge"><title>Node0&#45;&gt;Node16</title>
<path fill="none" stroke="midnightblue" d="M138.35,-576.385C164.033,-571.035 193.963,-564.799 221.715,-559.018"/>
<polygon fill="midnightblue" stroke="midnightblue" points="137.438,-573 128.362,-578.466 138.866,-579.853 137.438,-573"/>
</g>
<!-- Node17 -->
<g id="node18" class="node"><title>Node17</title>
<g id="a_node18"><a xlink:href="classmfem_1_1PowerCoefficient.html" target="_top" xlink:title="Scalar coefficient defined as a scalar raised to a power. ">
<polygon fill="white" stroke="black" points="220,-478.5 220,-501.5 408,-501.5 408,-478.5 220,-478.5"/>
<text text-anchor="middle" x="314" y="-486.3" font-family="Helvetica,sans-Serif" font-size="14.00">mfem::PowerCoefficient</text>
</a>
</g>
</g>
<!-- Node0&#45;&gt;Node17 -->
<g id="edge17" class="edge"><title>Node0&#45;&gt;Node17</title>
<path fill="none" stroke="midnightblue" d="M92.5596,-571.306C112.778,-553.12 146.087,-526.215 180,-512 192.519,-506.752 206.192,-502.753 219.854,-499.707"/>
<polygon fill="midnightblue" stroke="midnightblue" points="89.9758,-568.926 84.9807,-578.27 94.7122,-574.081 89.9758,-568.926"/>
</g>
<!-- Node18 -->
<g id="node19" class="node"><title>Node18</title>
<g id="a_node19"><a xlink:href="classmfem_1_1PProductCoefficient.html" target="_top" xlink:title="mfem::PProductCoefficient">
<polygon fill="white" stroke="black" points="211,-436.5 211,-459.5 417,-459.5 417,-436.5 211,-436.5"/>
<text text-anchor="middle" x="314" y="-444.3" font-family="Helvetica,sans-Serif" font-size="14.00">mfem::PProductCoefficient</text>
</a>
</g>
</g>
<!-- Node0&#45;&gt;Node18 -->
<g id="edge18" class="edge"><title>Node0&#45;&gt;Node18</title>
<path fill="none" stroke="midnightblue" d="M84.8129,-569.417C101.944,-541.639 136.452,-492.884 180,-469 189.531,-463.773 199.987,-459.752 210.719,-456.671"/>
<polygon fill="midnightblue" stroke="midnightblue" points="81.6319,-567.917 79.4917,-578.293 87.6356,-571.516 81.6319,-567.917"/>
</g>
<!-- Node19 -->
<g id="node20" class="node"><title>Node19</title>
<g id="a_node20"><a xlink:href="classmfem_1_1ProductCoefficient.html" target="_top" xlink:title="Scalar coefficient defined as the product of two scalar coefficients or a scalar and a scalar coeffic...">
<polygon fill="white" stroke="black" points="215,-394.5 215,-417.5 413,-417.5 413,-394.5 215,-394.5"/>
<text text-anchor="middle" x="314" y="-402.3" font-family="Helvetica,sans-Serif" font-size="14.00">mfem::ProductCoefficient</text>
</a>
</g>
</g>
<!-- Node0&#45;&gt;Node19 -->
<g id="edge19" class="edge"><title>Node0&#45;&gt;Node19</title>
<path fill="none" stroke="midnightblue" d="M80.4311,-568.624C94.0666,-532.857 126.678,-461.423 180,-427 190.507,-420.217 202.431,-415.352 214.721,-411.899"/>
<polygon fill="midnightblue" stroke="midnightblue" points="77.1117,-567.51 76.9462,-578.103 83.6818,-569.925 77.1117,-567.51"/>
</g>
<!-- Node20 -->
<g id="node21" class="node"><title>Node20</title>
<g id="a_node21"><a xlink:href="classmfem_1_1PWCoefficient.html" target="_top" xlink:title="A piecewise coefficient with the pieces keyed off the element attribute numbers. ">
<polygon fill="white" stroke="black" points="230.5,-352.5 230.5,-375.5 397.5,-375.5 397.5,-352.5 230.5,-352.5"/>
<text text-anchor="middle" x="314" y="-360.3" font-family="Helvetica,sans-Serif" font-size="14.00">mfem::PWCoefficient</text>
</a>
</g>
</g>
<!-- Node0&#45;&gt;Node20 -->
<g id="edge20" class="edge"><title>Node0&#45;&gt;Node20</title>
<path fill="none" stroke="midnightblue" d="M77.4986,-568.426C87.6147,-525.741 116.422,-430.694 180,-385 194.616,-374.495 212.473,-368.41 230.297,-365.036"/>
<polygon fill="midnightblue" stroke="midnightblue" points="74.054,-567.791 75.2711,-578.316 80.8829,-569.33 74.054,-567.791"/>
</g>
<!-- Node21 -->
<g id="node22" class="node"><title>Node21</title>
<g id="a_node22"><a xlink:href="classmfem_1_1PWConstCoefficient.html" target="_top" xlink:title="A piecewise constant coefficient with the constants keyed off the element attribute numbers...">
<polygon fill="white" stroke="black" points="210.5,-310.5 210.5,-333.5 417.5,-333.5 417.5,-310.5 210.5,-310.5"/>
<text text-anchor="middle" x="314" y="-318.3" font-family="Helvetica,sans-Serif" font-size="14.00">mfem::PWConstCoefficient</text>
</a>
</g>
</g>
<!-- Node0&#45;&gt;Node21 -->
<g id="edge21" class="edge"><title>Node0&#45;&gt;Node21</title>
<path fill="none" stroke="midnightblue" d="M75.4749,-568.219C82.2787,-519.269 105.979,-400.365 180,-343 188.961,-336.055 199.301,-330.988 210.175,-327.336"/>
<polygon fill="midnightblue" stroke="midnightblue" points="71.9798,-567.958 74.1768,-578.322 78.9227,-568.85 71.9798,-567.958"/>
</g>
<!-- Node22 -->
<g id="node23" class="node"><title>Node22</title>
<g id="a_node23"><a xlink:href="classmfem_1_1QuadratureFunctionCoefficient.html" target="_top" xlink:title="Quadrature function coefficient which requires that the quadrature rules used for this coefficient be...">
<polygon fill="white" stroke="black" points="208.5,-253 208.5,-291 419.5,-291 419.5,-253 208.5,-253"/>
<text text-anchor="start" x="216.5" y="-275.8" font-family="Helvetica,sans-Serif" font-size="14.00">mfem::QuadratureFunction</text>
<text text-anchor="middle" x="314" y="-260.8" font-family="Helvetica,sans-Serif" font-size="14.00">Coefficient</text>
</a>
</g>
</g>
<!-- Node0&#45;&gt;Node22 -->
<g id="edge22" class="edge"><title>Node0&#45;&gt;Node22</title>
<path fill="none" stroke="midnightblue" d="M74.2248,-568.298C78.5012,-514.235 97.4331,-372.754 180,-301 188.295,-293.792 197.964,-288.245 208.235,-283.994"/>
<polygon fill="midnightblue" stroke="midnightblue" points="70.721,-568.231 73.517,-578.451 77.704,-568.718 70.721,-568.231"/>
</g>
<!-- Node23 -->
<g id="node24" class="node"><title>Node23</title>
<g id="a_node24"><a xlink:href="classmfem_1_1RatioCoefficient.html" target="_top" xlink:title="Scalar coefficient defined as the ratio of two scalars where one or both scalars are scalar coefficie...">
<polygon fill="white" stroke="black" points="223.5,-210.5 223.5,-233.5 404.5,-233.5 404.5,-210.5 223.5,-210.5"/>
<text text-anchor="middle" x="314" y="-218.3" font-family="Helvetica,sans-Serif" font-size="14.00">mfem::RatioCoefficient</text>
</a>
</g>
</g>
<!-- Node0&#45;&gt;Node23 -->
<g id="edge23" class="edge"><title>Node0&#45;&gt;Node23</title>
<path fill="none" stroke="midnightblue" d="M72.4826,-568.024C72.324,-506.325 80.9832,-330.39 180,-244 192.168,-233.383 207.439,-226.891 223.256,-223.072"/>
<polygon fill="midnightblue" stroke="midnightblue" points="68.9843,-568.207 72.595,-578.168 75.9839,-568.13 68.9843,-568.207"/>
</g>
<!-- Node24 -->
<g id="node25" class="node"><title>Node24</title>
<g id="a_node25"><a xlink:href="classmfem_1_1RestrictedCoefficient.html" target="_top" xlink:title="Derived coefficient that takes the value of the parent coefficient for the active attributes and is z...">
<polygon fill="white" stroke="black" points="206.5,-168.5 206.5,-191.5 421.5,-191.5 421.5,-168.5 206.5,-168.5"/>
<text text-anchor="middle" x="314" y="-176.3" font-family="Helvetica,sans-Serif" font-size="14.00">mfem::RestrictedCoefficient</text>
</a>
</g>
</g>
<!-- Node0&#45;&gt;Node24 -->
<g id="edge24" class="edge"><title>Node0&#45;&gt;Node24</title>
<path fill="none" stroke="midnightblue" d="M75.9021,-568.082C86.2306,-493.502 123.626,-251.398 180,-201 187.668,-194.145 196.629,-189.026 206.212,-185.248"/>
<polygon fill="midnightblue" stroke="midnightblue" points="72.4063,-567.815 74.5265,-578.195 79.3425,-568.758 72.4063,-567.815"/>
</g>
<!-- Node25 -->
<g id="node26" class="node"><title>Node25</title>
<g id="a_node26"><a xlink:href="classmfem_1_1ShiftedFunctionCoefficient.html" target="_top" xlink:title="mfem::ShiftedFunctionCoefficient">
<polygon fill="white" stroke="black" points="187,-126.5 187,-149.5 441,-149.5 441,-126.5 187,-126.5"/>
<text text-anchor="middle" x="314" y="-134.3" font-family="Helvetica,sans-Serif" font-size="14.00">mfem::ShiftedFunctionCoefficient</text>
</a>
</g>
</g>
<!-- Node0&#45;&gt;Node25 -->
<g id="edge25" class="edge"><title>Node0&#45;&gt;Node25</title>
<path fill="none" stroke="midnightblue" d="M75.3038,-567.852C84.0845,-487.876 118.117,-215.736 180,-159 183.877,-155.446 188.1,-152.354 192.578,-149.671"/>
<polygon fill="midnightblue" stroke="midnightblue" points="71.7794,-567.892 74.1912,-578.209 78.7394,-568.64 71.7794,-567.892"/>
</g>
<!-- Node26 -->
<g id="node27" class="node"><title>Node26</title>
<g id="a_node27"><a xlink:href="classmfem_1_1SumCoefficient.html" target="_top" xlink:title="Scalar coefficient defined as the linear combination of two scalar coefficients or a scalar and a sca...">
<polygon fill="white" stroke="black" points="226,-84.5 226,-107.5 402,-107.5 402,-84.5 226,-84.5"/>
<text text-anchor="middle" x="314" y="-92.3" font-family="Helvetica,sans-Serif" font-size="14.00">mfem::SumCoefficient</text>
</a>
</g>
</g>
<!-- Node0&#45;&gt;Node26 -->
<g id="edge26" class="edge"><title>Node0&#45;&gt;Node26</title>
<path fill="none" stroke="midnightblue" d="M74.7525,-568.201C81.9929,-483.828 112.425,-180.264 180,-117 192.543,-105.257 208.847,-98.5266 225.718,-94.8976"/>
<polygon fill="midnightblue" stroke="midnightblue" points="71.245,-568.145 73.8997,-578.402 78.2207,-568.728 71.245,-568.145"/>
</g>
<!-- Node27 -->
<g id="node28" class="node"><title>Node27</title>
<g id="a_node28"><a xlink:href="classmfem_1_1TransformedCoefficient.html" target="_top" xlink:title="A coefficient that depends on 1 or 2 parent coefficients and a transformation rule represented by a C...">
<polygon fill="white" stroke="black" points="196.5,-42.5 196.5,-65.5 431.5,-65.5 431.5,-42.5 196.5,-42.5"/>
<text text-anchor="middle" x="314" y="-50.3" font-family="Helvetica,sans-Serif" font-size="14.00">mfem::TransformedCoefficient</text>
</a>
</g>
</g>
<!-- Node0&#45;&gt;Node27 -->
<g id="edge27" class="edge"><title>Node0&#45;&gt;Node27</title>
<path fill="none" stroke="midnightblue" d="M74.3148,-568.293C80.1558,-479.426 106.773,-144.776 180,-75 184.908,-70.3235 190.41,-66.437 196.31,-63.2215"/>
<polygon fill="midnightblue" stroke="midnightblue" points="70.8198,-568.104 73.6774,-578.307 77.8057,-568.549 70.8198,-568.104"/>
</g>
<!-- Node28 -->
<g id="node29" class="node"><title>Node28</title>
<g id="a_node29"><a xlink:href="classmfem_1_1VectorRotProductCoefficient.html" target="_top" xlink:title="Scalar coefficient defined as a cross product of two vectors in the xy&#45;plane. ">
<polygon fill="white" stroke="black" points="180.5,-0.5 180.5,-23.5 447.5,-23.5 447.5,-0.5 180.5,-0.5"/>
<text text-anchor="middle" x="314" y="-8.3" font-family="Helvetica,sans-Serif" font-size="14.00">mfem::VectorRotProductCoefficient</text>
</a>
</g>
</g>
<!-- Node0&#45;&gt;Node28 -->
<g id="edge28" class="edge"><title>Node0&#45;&gt;Node28</title>
<path fill="none" stroke="midnightblue" d="M73.9594,-568.062C78.5219,-474.386 101.189,-109.238 180,-33 183.696,-29.4243 187.74,-26.3081 192.043,-23.5989"/>
<polygon fill="midnightblue" stroke="midnightblue" points="70.4505,-568.173 73.4803,-578.325 77.4429,-568.5 70.4505,-568.173"/>
</g>
<!-- Node13 -->
<g id="node14" class="node"><title>Node13</title>
<g id="a_node14"><a xlink:href="classmfem_1_1electromagnetics_1_1ScaledGFCoefficient.html" target="_top" xlink:title="mfem::electromagnetics\l::ScaledGFCoefficient">
<polygon fill="white" stroke="black" points="484,-655 484,-693 676,-693 676,-655 484,-655"/>
<text text-anchor="start" x="492" y="-677.8" font-family="Helvetica,sans-Serif" font-size="14.00">mfem::electromagnetics</text>
<text text-anchor="middle" x="580" y="-662.8" font-family="Helvetica,sans-Serif" font-size="14.00">::ScaledGFCoefficient</text>
</a>
</g>
</g>
<!-- Node12&#45;&gt;Node13 -->
<g id="edge13" class="edge"><title>Node12&#45;&gt;Node13</title>
<path fill="none" stroke="midnightblue" d="M441.507,-674C455.724,-674 470.027,-674 483.753,-674"/>
<polygon fill="midnightblue" stroke="midnightblue" points="441.178,-670.5 431.178,-674 441.178,-677.5 441.178,-670.5"/>
</g>
</g>
</svg>
