<?xml version="1.0" encoding="UTF-8" standalone="no"?>
<!DOCTYPE svg PUBLIC "-//W3C//DTD SVG 1.1//EN"
 "http://www.w3.org/Graphics/SVG/1.1/DTD/svg11.dtd">
<!-- Generated by graphviz version 2.30.1 (20200304.1809)
 -->
<!-- Title: Graphical Class Hierarchy Pages: 1 -->
<svg width="450pt" height="132pt"
 viewBox="0.00 0.00 450.00 132.00" xmlns="http://www.w3.org/2000/svg" xmlns:xlink="http://www.w3.org/1999/xlink">
<g id="graph0" class="graph" transform="scale(1 1) rotate(0) translate(4 128)">
<title>Graphical Class Hierarchy</title>
<polygon fill="white" stroke="white" points="-4,5 -4,-128 447,-128 447,5 -4,5"/>
<!-- Node0 -->
<g id="node1" class="node"><title>Node0</title>
<g id="a_node1"><a xlink:href="classmfem_1_1DistanceSolver.html" target="_top" xlink:title="mfem::DistanceSolver">
<polygon fill="white" stroke="black" points="0,-50.5 0,-73.5 176,-73.5 176,-50.5 0,-50.5"/>
<text text-anchor="middle" x="88" y="-58.3" font-family="Helvetica,sans-Serif" font-size="14.00">mfem::DistanceSolver</text>
</a>
</g>
</g>
<!-- Node1 -->
<g id="node2" class="node"><title>Node1</title>
<g id="a_node2"><a xlink:href="classmfem_1_1HeatDistanceSolver.html" target="_top" xlink:title="mfem::HeatDistanceSolver">
<polygon fill="white" stroke="black" points="222.5,-100.5 222.5,-123.5 431.5,-123.5 431.5,-100.5 222.5,-100.5"/>
<text text-anchor="middle" x="327" y="-108.3" font-family="Helvetica,sans-Serif" font-size="14.00">mfem::HeatDistanceSolver</text>
</a>
</g>
</g>
<!-- Node0&#45;&gt;Node1 -->
<g id="edge1" class="edge"><title>Node0&#45;&gt;Node1</title>
<path fill="none" stroke="midnightblue" d="M147.743,-75.7898C168.064,-80.449 191.003,-85.5854 212,-90 228.964,-93.5667 247.396,-97.2198 264.394,-100.499"/>
<polygon fill="midnightblue" stroke="midnightblue" points="148.528,-72.3791 137.998,-73.5461 146.957,-79.2006 148.528,-72.3791"/>
</g>
<!-- Node2 -->
<g id="node3" class="node"><title>Node2</title>
<g id="a_node3"><a xlink:href="classmfem_1_1NormalizationDistanceSolver.html" target="_top" xlink:title="mfem::NormalizationDistance\lSolver">
<polygon fill="white" stroke="black" points="212,-43 212,-81 442,-81 442,-43 212,-43"/>
<text text-anchor="start" x="220" y="-65.8" font-family="Helvetica,sans-Serif" font-size="14.00">mfem::NormalizationDistance</text>
<text text-anchor="middle" x="327" y="-50.8" font-family="Helvetica,sans-Serif" font-size="14.00">Solver</text>
</a>
</g>
</g>
<!-- Node0&#45;&gt;Node2 -->
<g id="edge2" class="edge"><title>Node0&#45;&gt;Node2</title>
<path fill="none" stroke="midnightblue" d="M186.409,-62C194.814,-62 203.366,-62 211.888,-62"/>
<polygon fill="midnightblue" stroke="midnightblue" points="186.24,-58.5001 176.24,-62 186.24,-65.5001 186.24,-58.5001"/>
</g>
<!-- Node3 -->
<g id="node4" class="node"><title>Node3</title>
<g id="a_node4"><a xlink:href="classmfem_1_1PLapDistanceSolver.html" target="_top" xlink:title="mfem::PLapDistanceSolver">
<polygon fill="white" stroke="black" points="222,-0.5 222,-23.5 432,-23.5 432,-0.5 222,-0.5"/>
<text text-anchor="middle" x="327" y="-8.3" font-family="Helvetica,sans-Serif" font-size="14.00">mfem::PLapDistanceSolver</text>
</a>
</g>
</g>
<!-- Node0&#45;&gt;Node3 -->
<g id="edge3" class="edge"><title>Node0&#45;&gt;Node3</title>
<path fill="none" stroke="midnightblue" d="M147.743,-48.2102C168.064,-43.551 191.003,-38.4146 212,-34 228.964,-30.4333 247.396,-26.7802 264.394,-23.5012"/>
<polygon fill="midnightblue" stroke="midnightblue" points="146.957,-44.7994 137.998,-50.4539 148.528,-51.6209 146.957,-44.7994"/>
</g>
</g>
</svg>
