<?xml version="1.0" encoding="UTF-8" standalone="no"?>
<!DOCTYPE svg PUBLIC "-//W3C//DTD SVG 1.1//EN"
 "http://www.w3.org/Graphics/SVG/1.1/DTD/svg11.dtd">
<!-- Generated by graphviz version 2.30.1 (20200304.1809)
 -->
<!-- Title: mfem::ParMesh Pages: 1 -->
<svg width="1200pt" height="687pt"
 viewBox="0.00 0.00 1200.00 687.00" xmlns="http://www.w3.org/2000/svg" xmlns:xlink="http://www.w3.org/1999/xlink">
<g id="graph0" class="graph" transform="scale(1 1) rotate(0) translate(4 683)">
<title>mfem::ParMesh</title>
<polygon fill="white" stroke="white" points="-4,5 -4,-683 1197,-683 1197,5 -4,5"/>
<!-- Node1 -->
<g id="node1" class="node"><title>Node1</title>
<polygon fill="#bfbfbf" stroke="black" points="1064,-186.5 1064,-209.5 1192,-209.5 1192,-186.5 1064,-186.5"/>
<text text-anchor="middle" x="1128" y="-194.3" font-family="Helvetica,sans-Serif" font-size="14.00">mfem::ParMesh</text>
</g>
<!-- Node2 -->
<g id="node2" class="node"><title>Node2</title>
<g id="a_node2"><a xlink:href="classmfem_1_1Mesh.html" target="_top" xlink:title="mfem::Mesh">
<polygon fill="white" stroke="red" points="839,-419.5 839,-442.5 945,-442.5 945,-419.5 839,-419.5"/>
<text text-anchor="middle" x="892" y="-427.3" font-family="Helvetica,sans-Serif" font-size="14.00">mfem::Mesh</text>
</a>
</g>
</g>
<!-- Node2&#45;&gt;Node1 -->
<g id="edge1" class="edge"><title>Node2&#45;&gt;Node1</title>
<path fill="none" stroke="midnightblue" d="M911.928,-412.153C958.492,-365.788 1077.57,-247.224 1115.33,-209.624"/>
<polygon fill="midnightblue" stroke="midnightblue" points="909.221,-409.909 904.604,-419.445 914.16,-414.87 909.221,-409.909"/>
</g>
<!-- Node2&#45;&gt;Node2 -->
<g id="edge2" class="edge"><title>Node2&#45;&gt;Node2</title>
<path fill="none" stroke="#9a32cd" stroke-dasharray="5,2" d="M868.176,-452.472C870.253,-457.391 878.194,-461 892,-461 914.09,-461 921.165,-451.76 913.227,-442.701"/>
<polygon fill="#9a32cd" stroke="#9a32cd" points="871.587,-453.265 870.773,-442.701 864.822,-451.467 871.587,-453.265"/>
<text text-anchor="middle" x="892" y="-464.8" font-family="Helvetica,sans-Serif" font-size="14.00"> nc_coarse_level</text>
</g>
<!-- Node3 -->
<g id="node3" class="node"><title>Node3</title>
<g id="a_node3"><a xlink:href="classmfem_1_1IsoparametricTransformation.html" target="_top" xlink:title="mfem::IsoparametricTransformation">
<polygon fill="white" stroke="red" points="302.5,-321.5 302.5,-344.5 579.5,-344.5 579.5,-321.5 302.5,-321.5"/>
<text text-anchor="middle" x="441" y="-329.3" font-family="Helvetica,sans-Serif" font-size="14.00">mfem::IsoparametricTransformation</text>
</a>
</g>
</g>
<!-- Node3&#45;&gt;Node2 -->
<g id="edge3" class="edge"><title>Node3&#45;&gt;Node2</title>
<path fill="none" stroke="#9a32cd" stroke-dasharray="5,2" d="M589.928,-321.364C665.693,-317.542 749.179,-317.261 784,-331 829.885,-349.104 867.673,-397.197 883.286,-419.43"/>
<polygon fill="#9a32cd" stroke="#9a32cd" points="589.577,-317.877 579.775,-321.899 589.945,-324.868 589.577,-317.877"/>
<text text-anchor="middle" x="691" y="-379.8" font-family="Helvetica,sans-Serif" font-size="14.00"> FaceTransformation</text>
<text text-anchor="middle" x="691" y="-364.8" font-family="Helvetica,sans-Serif" font-size="14.00">Transformation2</text>
<text text-anchor="middle" x="691" y="-349.8" font-family="Helvetica,sans-Serif" font-size="14.00">Transformation</text>
<text text-anchor="middle" x="691" y="-334.8" font-family="Helvetica,sans-Serif" font-size="14.00">EdgeTransformation</text>
</g>
<!-- Node4 -->
<g id="node4" class="node"><title>Node4</title>
<g id="a_node4"><a xlink:href="classmfem_1_1Array.html" target="_top" xlink:title="mfem::Array\&lt; int \&gt;">
<polygon fill="white" stroke="red" points="0,-363.5 0,-386.5 158,-386.5 158,-363.5 0,-363.5"/>
<text text-anchor="middle" x="79" y="-371.3" font-family="Helvetica,sans-Serif" font-size="14.00">mfem::Array&lt; int &gt;</text>
</a>
</g>
</g>
<!-- Node4&#45;&gt;Node2 -->
<g id="edge4" class="edge"><title>Node4&#45;&gt;Node2</title>
<path fill="none" stroke="#9a32cd" stroke-dasharray="5,2" d="M142.873,-388.43C153.88,-390.499 165.249,-392.456 176,-394 362.403,-420.762 409.875,-423.547 598,-432 680.583,-435.711 701.334,-432.386 784,-432 801.834,-431.917 821.339,-431.755 838.755,-431.586"/>
<polygon fill="#9a32cd" stroke="#9a32cd" points="143.376,-384.963 132.895,-386.508 142.052,-391.837 143.376,-384.963"/>
<text text-anchor="middle" x="441" y="-495.8" font-family="Helvetica,sans-Serif" font-size="14.00"> fc_be_to_edge</text>
<text text-anchor="middle" x="441" y="-480.8" font-family="Helvetica,sans-Serif" font-size="14.00">attributes</text>
<text text-anchor="middle" x="441" y="-465.8" font-family="Helvetica,sans-Serif" font-size="14.00">be_to_edge</text>
<text text-anchor="middle" x="441" y="-450.8" font-family="Helvetica,sans-Serif" font-size="14.00">be_to_face</text>
<text text-anchor="middle" x="441" y="-435.8" font-family="Helvetica,sans-Serif" font-size="14.00">bdr_attributes</text>
</g>
<!-- Node5 -->
<g id="node5" class="node"><title>Node5</title>
<g id="a_node5"><a xlink:href="classmfem_1_1NCMesh.html" target="_top" xlink:title="A class for non&#45;conforming AMR on higher&#45;order hexahedral, quadrilateral or triangular meshes...">
<polygon fill="white" stroke="red" points="378,-363.5 378,-386.5 504,-386.5 504,-363.5 378,-363.5"/>
<text text-anchor="middle" x="441" y="-371.3" font-family="Helvetica,sans-Serif" font-size="14.00">mfem::NCMesh</text>
</a>
</g>
</g>
<!-- Node4&#45;&gt;Node5 -->
<g id="edge6" class="edge"><title>Node4&#45;&gt;Node5</title>
<path fill="none" stroke="#9a32cd" stroke-dasharray="5,2" d="M168.351,-375C233.341,-375 320.072,-375 377.869,-375"/>
<polygon fill="#9a32cd" stroke="#9a32cd" points="168.115,-371.5 158.115,-375 168.115,-378.5 168.115,-371.5"/>
<text text-anchor="middle" x="230" y="-378.8" font-family="Helvetica,sans-Serif" font-size="14.00"> vertex_nodeId</text>
</g>
<!-- Node4&#45;&gt;Node1 -->
<g id="edge11" class="edge"><title>Node4&#45;&gt;Node1</title>
<path fill="none" stroke="#9a32cd" stroke-dasharray="5,2" d="M90.056,-354.28C116.48,-302.374 193.402,-166.731 302,-108 567.919,35.8132 698.983,-18.7141 982,-125 1028.7,-142.538 1080.14,-170.722 1107.44,-186.446"/>
<polygon fill="#9a32cd" stroke="#9a32cd" points="86.9229,-352.72 85.5812,-363.23 93.1839,-355.851 86.9229,-352.72"/>
<text text-anchor="middle" x="691" y="-87.8" font-family="Helvetica,sans-Serif" font-size="14.00"> face_nbr_vertices_offset</text>
<text text-anchor="middle" x="691" y="-72.8" font-family="Helvetica,sans-Serif" font-size="14.00">face_nbr_elements_offset</text>
<text text-anchor="middle" x="691" y="-57.8" font-family="Helvetica,sans-Serif" font-size="14.00">face_nbr_group</text>
</g>
<!-- Node5&#45;&gt;Node2 -->
<g id="edge5" class="edge"><title>Node5&#45;&gt;Node2</title>
<path fill="none" stroke="#9a32cd" stroke-dasharray="5,2" d="M514.292,-383.81C598.778,-394.118 733.459,-410.59 784,-417 801.842,-419.263 821.35,-421.797 838.765,-424.081"/>
<polygon fill="#9a32cd" stroke="#9a32cd" points="514.597,-380.321 504.247,-382.584 513.75,-387.27 514.597,-380.321"/>
<text text-anchor="middle" x="691" y="-420.8" font-family="Helvetica,sans-Serif" font-size="14.00"> ncmesh</text>
</g>
<!-- Node6 -->
<g id="node6" class="node"><title>Node6</title>
<g id="a_node6"><a xlink:href="classmfem_1_1MemAlloc.html" target="_top" xlink:title="mfem::MemAlloc\&lt; mfem\l::BisectedElement, 1024 \&gt;">
<polygon fill="white" stroke="black" points="337.5,-517 337.5,-555 544.5,-555 544.5,-517 337.5,-517"/>
<text text-anchor="start" x="345.5" y="-539.8" font-family="Helvetica,sans-Serif" font-size="14.00">mfem::MemAlloc&lt; mfem</text>
<text text-anchor="middle" x="441" y="-524.8" font-family="Helvetica,sans-Serif" font-size="14.00">::BisectedElement, 1024 &gt;</text>
</a>
</g>
</g>
<!-- Node6&#45;&gt;Node2 -->
<g id="edge7" class="edge"><title>Node6&#45;&gt;Node2</title>
<path fill="none" stroke="#9a32cd" stroke-dasharray="5,2" d="M547.816,-513.959C558.866,-510.47 569.782,-506.499 580,-502 588.8,-498.125 589.05,-493.512 598,-490 675.948,-459.411 702.145,-477.643 784,-460 806.766,-455.093 831.915,-448.346 852.108,-442.595"/>
<polygon fill="#9a32cd" stroke="#9a32cd" points="546.645,-510.656 538.086,-516.902 548.671,-517.357 546.645,-510.656"/>
<text text-anchor="middle" x="691" y="-493.8" font-family="Helvetica,sans-Serif" font-size="14.00"> BEMemory</text>
</g>
<!-- Node7 -->
<g id="node7" class="node"><title>Node7</title>
<g id="a_node7"><a xlink:href="classmfem_1_1Array.html" target="_top" xlink:title="mfem::Array\&lt; mfem::\lElement * \&gt;">
<polygon fill="white" stroke="red" points="353,-574 353,-612 529,-612 529,-574 353,-574"/>
<text text-anchor="start" x="361" y="-596.8" font-family="Helvetica,sans-Serif" font-size="14.00">mfem::Array&lt; mfem::</text>
<text text-anchor="middle" x="441" y="-581.8" font-family="Helvetica,sans-Serif" font-size="14.00">Element * &gt;</text>
</a>
</g>
</g>
<!-- Node7&#45;&gt;Node2 -->
<g id="edge8" class="edge"><title>Node7&#45;&gt;Node2</title>
<path fill="none" stroke="#9a32cd" stroke-dasharray="5,2" d="M538.981,-584.239C553.722,-579.74 567.995,-573.262 580,-564 594.163,-553.073 583.39,-538.322 598,-528 666.03,-479.935 706.163,-534.658 784,-505 822.202,-490.444 859.872,-459.479 878.666,-442.585"/>
<polygon fill="#9a32cd" stroke="#9a32cd" points="537.958,-580.89 529.245,-586.919 539.815,-587.639 537.958,-580.89"/>
<text text-anchor="middle" x="691" y="-561.8" font-family="Helvetica,sans-Serif" font-size="14.00"> boundary</text>
<text text-anchor="middle" x="691" y="-546.8" font-family="Helvetica,sans-Serif" font-size="14.00">elements</text>
<text text-anchor="middle" x="691" y="-531.8" font-family="Helvetica,sans-Serif" font-size="14.00">faces</text>
</g>
<!-- Node7&#45;&gt;Node1 -->
<g id="edge13" class="edge"><title>Node7&#45;&gt;Node1</title>
<path fill="none" stroke="#9a32cd" stroke-dasharray="5,2" d="M539.375,-596.511C608.564,-596.788 703.161,-592.639 784,-573 877.578,-550.267 912.238,-551.385 982,-485 1070.16,-401.107 1113.32,-251.974 1124.19,-209.548"/>
<polygon fill="#9a32cd" stroke="#9a32cd" points="539.38,-593.011 529.356,-596.439 539.33,-600.011 539.38,-593.011"/>
<text text-anchor="middle" x="892" y="-571.8" font-family="Helvetica,sans-Serif" font-size="14.00"> face_nbr_elements</text>
</g>
<!-- Node8 -->
<g id="node8" class="node"><title>Node8</title>
<g id="a_node8"><a xlink:href="classmfem_1_1Array.html" target="_top" xlink:title="mfem::Array\&lt; mfem::\lVertex \&gt;">
<polygon fill="white" stroke="red" points="353,-631 353,-669 529,-669 529,-631 353,-631"/>
<text text-anchor="start" x="361" y="-653.8" font-family="Helvetica,sans-Serif" font-size="14.00">mfem::Array&lt; mfem::</text>
<text text-anchor="middle" x="441" y="-638.8" font-family="Helvetica,sans-Serif" font-size="14.00">Vertex &gt;</text>
</a>
</g>
</g>
<!-- Node8&#45;&gt;Node2 -->
<g id="edge9" class="edge"><title>Node8&#45;&gt;Node2</title>
<path fill="none" stroke="#9a32cd" stroke-dasharray="5,2" d="M538.944,-631.071C636.352,-611.783 773.566,-583.767 784,-577 837.522,-542.286 873.443,-470.821 886.022,-442.719"/>
<polygon fill="#9a32cd" stroke="#9a32cd" points="538.187,-627.653 529.055,-633.026 539.544,-634.52 538.187,-627.653"/>
<text text-anchor="middle" x="691" y="-620.8" font-family="Helvetica,sans-Serif" font-size="14.00"> vertices</text>
</g>
<!-- Node8&#45;&gt;Node1 -->
<g id="edge14" class="edge"><title>Node8&#45;&gt;Node1</title>
<path fill="none" stroke="#9a32cd" stroke-dasharray="5,2" d="M539.343,-667.666C657.769,-683.279 857.289,-689.839 982,-587 1106.84,-484.057 1124.23,-262.507 1126.62,-209.544"/>
<polygon fill="#9a32cd" stroke="#9a32cd" points="539.58,-664.166 529.198,-666.281 538.633,-671.102 539.58,-664.166"/>
<text text-anchor="middle" x="892" y="-667.8" font-family="Helvetica,sans-Serif" font-size="14.00"> face_nbr_vertices</text>
</g>
<!-- Node9 -->
<g id="node9" class="node"><title>Node9</title>
<g id="a_node9"><a xlink:href="classmfem_1_1Table.html" target="_top" xlink:title="mfem::Table">
<polygon fill="white" stroke="black" points="388,-117.5 388,-140.5 494,-140.5 494,-117.5 388,-117.5"/>
<text text-anchor="middle" x="441" y="-125.3" font-family="Helvetica,sans-Serif" font-size="14.00">mfem::Table</text>
</a>
</g>
</g>
<!-- Node9&#45;&gt;Node2 -->
<g id="edge10" class="edge"><title>Node9&#45;&gt;Node2</title>
<path fill="none" stroke="#9a32cd" stroke-dasharray="5,2" d="M504.263,-125.215C590.644,-121.247 741.078,-119.375 784,-151 875.751,-218.603 888.827,-375.453 890.69,-419.38"/>
<polygon fill="#9a32cd" stroke="#9a32cd" points="503.877,-121.729 494.057,-125.707 504.214,-128.721 503.877,-121.729"/>
<text text-anchor="middle" x="691" y="-304.8" font-family="Helvetica,sans-Serif" font-size="14.00"> el_to_face</text>
<text text-anchor="middle" x="691" y="-289.8" font-family="Helvetica,sans-Serif" font-size="14.00">el_to_edge</text>
<text text-anchor="middle" x="691" y="-274.8" font-family="Helvetica,sans-Serif" font-size="14.00">c_bel_to_edge</text>
<text text-anchor="middle" x="691" y="-259.8" font-family="Helvetica,sans-Serif" font-size="14.00">edge_vertex</text>
<text text-anchor="middle" x="691" y="-244.8" font-family="Helvetica,sans-Serif" font-size="14.00">face_edge</text>
<text text-anchor="middle" x="691" y="-229.8" font-family="Helvetica,sans-Serif" font-size="14.00">el_to_el</text>
<text text-anchor="middle" x="691" y="-214.8" font-family="Helvetica,sans-Serif" font-size="14.00">c_el_to_face</text>
<text text-anchor="middle" x="691" y="-199.8" font-family="Helvetica,sans-Serif" font-size="14.00">f_bel_to_edge</text>
<text text-anchor="middle" x="691" y="-184.8" font-family="Helvetica,sans-Serif" font-size="14.00">c_el_to_edge</text>
<text text-anchor="middle" x="691" y="-169.8" font-family="Helvetica,sans-Serif" font-size="14.00">f_el_to_face</text>
<text text-anchor="middle" x="691" y="-154.8" font-family="Helvetica,sans-Serif" font-size="14.00">...</text>
</g>
<!-- Node9&#45;&gt;Node1 -->
<g id="edge15" class="edge"><title>Node9&#45;&gt;Node1</title>
<path fill="none" stroke="#9a32cd" stroke-dasharray="5,2" d="M504.578,-127.522C533.076,-126.919 567.241,-126.296 598,-126 680.663,-125.205 701.775,-117.463 784,-126 894.451,-137.468 1021.74,-169.176 1085.73,-186.439"/>
<polygon fill="#9a32cd" stroke="#9a32cd" points="504.274,-124.027 494.352,-127.742 504.425,-131.026 504.274,-124.027"/>
<text text-anchor="middle" x="892" y="-179.8" font-family="Helvetica,sans-Serif" font-size="14.00"> send_face_nbr_vertices</text>
<text text-anchor="middle" x="892" y="-164.8" font-family="Helvetica,sans-Serif" font-size="14.00">send_face_nbr_elements</text>
</g>
<!-- Node10 -->
<g id="node10" class="node"><title>Node10</title>
<g id="a_node10"><a xlink:href="classmfem_1_1GroupTopology.html" target="_top" xlink:title="mfem::GroupTopology">
<polygon fill="white" stroke="black" points="804,-0.5 804,-23.5 980,-23.5 980,-0.5 804,-0.5"/>
<text text-anchor="middle" x="892" y="-8.3" font-family="Helvetica,sans-Serif" font-size="14.00">mfem::GroupTopology</text>
</a>
</g>
</g>
<!-- Node10&#45;&gt;Node1 -->
<g id="edge12" class="edge"><title>Node10&#45;&gt;Node1</title>
<path fill="none" stroke="#9a32cd" stroke-dasharray="5,2" d="M990.112,-3.74934C1009.94,-6.08957 1029.69,-11.7345 1046,-23 1103.57,-62.7698 1121.13,-154.244 1125.63,-186.491"/>
<polygon fill="#9a32cd" stroke="#9a32cd" points="990.352,-0.256784 980.076,-2.83502 989.717,-7.22792 990.352,-0.256784"/>
<text text-anchor="middle" x="1023" y="-26.8" font-family="Helvetica,sans-Serif" font-size="14.00"> gtopo</text>
</g>
</g>
</svg>
