<?xml version="1.0" encoding="UTF-8" standalone="no"?>
<!DOCTYPE svg PUBLIC "-//W3C//DTD SVG 1.1//EN"
 "http://www.w3.org/Graphics/SVG/1.1/DTD/svg11.dtd">
<!-- Generated by graphviz version 2.30.1 (20200304.1809)
 -->
<!-- Title: mfem::NCMesh::RefStackItem Pages: 1 -->
<!--zoomable 322 -->
<svg id="main" version="1.1" xmlns="http://www.w3.org/2000/svg" xmlns:xlink="http://www.w3.org/1999/xlink" xml:space="preserve" onload="init(evt)">
<style type="text/css"><![CDATA[
.edge:hover path { stroke: red; }
.edge:hover polygon { stroke: red; fill: red; }
]]></style>
<script type="text/javascript"><![CDATA[
var edges = document.getElementsByTagName('g');
if (edges && edges.length) {
  for (var i=0;i<edges.length;i++) {
    if (edges[i].id.substr(0,4)=='edge') {
      edges[i].setAttribute('class','edge');
    }
  }
}
]]></script>
        <defs>
                <circle id="rim" cx="0" cy="0" r="7"/>
                <circle id="rim2" cx="0" cy="0" r="3.5"/>
                <g id="zoomPlus">
                        <use xlink:href="#rim" fill="#404040">
                                <set attributeName="fill" to="#808080" begin="zoomplus.mouseover" end="zoomplus.mouseout"/>
                        </use>
                        <path d="M-4,0h8M0,-4v8" fill="none" stroke="white" stroke-width="1.5" pointer-events="none"/>
                </g>
                <g id="zoomMin">
                        <use xlink:href="#rim" fill="#404040">
                                <set attributeName="fill" to="#808080" begin="zoomminus.mouseover" end="zoomminus.mouseout"/>
                        </use>
                        <path d="M-4,0h8" fill="none" stroke="white" stroke-width="1.5" pointer-events="none"/>
                </g>
                <g id="dirArrow">
                        <path fill="none" stroke="white" stroke-width="1.5" d="M0,-3.0v7 M-2.5,-0.5L0,-3.0L2.5,-0.5"/>
                </g>
               <g id="resetDef">
                       <use xlink:href="#rim2" fill="#404040">
                               <set attributeName="fill" to="#808080" begin="reset.mouseover" end="reset.mouseout"/>
                       </use>
               </g>
        </defs>

<script type="text/javascript">
var viewWidth = 564;
var viewHeight = 322;
var sectionId = 'dynsection-0';
</script>
<script xlink:href="svgpan.js"/>
<svg id="graph" class="graph">
<g id="viewport">
<title>mfem::NCMesh::RefStackItem</title>
<polygon fill="white" stroke="white" points="-4,5 -4,-318 561,-318 561,5 -4,5"/>
<!-- Node1 -->
<g id="node1" class="node"><title>Node1</title>
<polygon fill="#bfbfbf" stroke="black" points="0,-0.5 0,-23.5 230,-23.5 230,-0.5 0,-0.5"/>
<text text-anchor="middle" x="115" y="-8.3" font-family="Helvetica,sans-Serif" font-size="14.00">mfem::NCMesh::RefStackItem</text>
</g>
<!-- Node2 -->
<g id="node2" class="node"><title>Node2</title>
<g id="a_node2"><a xlink:href="structmfem_1_1NCMesh_1_1Element.html" target="_top" xlink:title="mfem::NCMesh::Element">
<polygon fill="white" stroke="black" points="18,-76.5 18,-99.5 212,-99.5 212,-76.5 18,-76.5"/>
<text text-anchor="middle" x="115" y="-84.3" font-family="Helvetica,sans-Serif" font-size="14.00">mfem::NCMesh::Element</text>
</a>
</g>
</g>
<!-- Node2&#45;&gt;Node1 -->
<g id="edge1" class="edge"><title>Node2&#45;&gt;Node1</title>
<path fill="none" stroke="#9a32cd" stroke-dasharray="5,2" d="M115,-66.2771C115,-52.3872 115,-34.675 115,-23.5827"/>
<polygon fill="#9a32cd" stroke="#9a32cd" points="111.5,-66.3976 115,-76.3976 118.5,-66.3976 111.5,-66.3976"/>
<text text-anchor="middle" x="135.5" y="-46.3" font-family="Helvetica,sans-Serif" font-size="14.00"> elem</text>
</g>
<!-- Node2&#45;&gt;Node2 -->
<g id="edge2" class="edge"><title>Node2&#45;&gt;Node2</title>
<path fill="none" stroke="#9a32cd" stroke-dasharray="5,2" d="M222.283,-92.4334C227.153,-91.3083 230,-89.8305 230,-88 230,-85.1426 223.064,-83.1446 212.321,-82.0061"/>
<polygon fill="#9a32cd" stroke="#9a32cd" points="221.659,-88.9884 212.321,-93.9939 222.743,-95.9041 221.659,-88.9884"/>
<text text-anchor="middle" x="249" y="-84.3" font-family="Helvetica,sans-Serif" font-size="14.00"> child</text>
</g>
<!-- Node3 -->
<g id="node3" class="node"><title>Node3</title>
<g id="a_node3"><a xlink:href="structmfem_1_1NCMesh_1_1Node.html" target="_top" xlink:title="mfem::NCMesh::Node">
<polygon fill="white" stroke="black" points="248.5,-152.5 248.5,-175.5 421.5,-175.5 421.5,-152.5 248.5,-152.5"/>
<text text-anchor="middle" x="335" y="-160.3" font-family="Helvetica,sans-Serif" font-size="14.00">mfem::NCMesh::Node</text>
</a>
</g>
</g>
<!-- Node3&#45;&gt;Node2 -->
<g id="edge3" class="edge"><title>Node3&#45;&gt;Node2</title>
<path fill="none" stroke="#9a32cd" stroke-dasharray="5,2" d="M293.942,-149.189C251.213,-134.817 185.235,-112.624 146.462,-99.5827"/>
<polygon fill="#9a32cd" stroke="#9a32cd" points="292.885,-152.527 303.479,-152.398 295.117,-145.892 292.885,-152.527"/>
<text text-anchor="middle" x="265.5" y="-122.3" font-family="Helvetica,sans-Serif" font-size="14.00"> node</text>
</g>
<!-- Node4 -->
<g id="node4" class="node"><title>Node4</title>
<g id="a_node4"><a xlink:href="structmfem_1_1Hashed2.html" target="_top" xlink:title="mfem::Hashed2\&lt; Node \&gt;">
<polygon fill="white" stroke="black" points="286,-76.5 286,-99.5 488,-99.5 488,-76.5 286,-76.5"/>
<text text-anchor="middle" x="387" y="-84.3" font-family="Helvetica,sans-Serif" font-size="14.00">mfem::Hashed2&lt; Node &gt;</text>
</a>
</g>
</g>
<!-- Node3&#45;&gt;Node4 -->
<g id="edge5" class="edge"><title>Node3&#45;&gt;Node4</title>
<path fill="none" stroke="#9a32cd" stroke-dasharray="5,2" d="M328.739,-142.321C327.486,-134.225 327.669,-125.179 332,-118 336.907,-109.866 344.939,-103.897 353.368,-99.5666"/>
<polygon fill="#9a32cd" stroke="#9a32cd" points="325.351,-143.206 330.985,-152.178 332.176,-141.651 325.351,-143.206"/>
<text text-anchor="middle" x="350.5" y="-122.3" font-family="Helvetica,sans-Serif" font-size="14.00"> next</text>
</g>
<!-- Node4&#45;&gt;Node3 -->
<g id="edge4" class="edge"><title>Node4&#45;&gt;Node3</title>
<path fill="none" stroke="midnightblue" d="M383.396,-109.679C381.291,-117.774 378.021,-126.82 373,-134 367.863,-141.345 360.298,-147.654 353.267,-152.494"/>
<polygon fill="midnightblue" stroke="midnightblue" points="386.835,-110.337 385.543,-99.8212 379.995,-108.848 386.835,-110.337"/>
</g>
<!-- Node5 -->
<g id="node5" class="node"><title>Node5</title>
<g id="a_node5"><a xlink:href="structmfem_1_1NCMesh_1_1Edge.html" target="_top" xlink:title="mfem::NCMesh::Edge">
<polygon fill="white" stroke="black" points="184.5,-228.5 184.5,-251.5 355.5,-251.5 355.5,-228.5 184.5,-228.5"/>
<text text-anchor="middle" x="270" y="-236.3" font-family="Helvetica,sans-Serif" font-size="14.00">mfem::NCMesh::Edge</text>
</a>
</g>
</g>
<!-- Node5&#45;&gt;Node3 -->
<g id="edge6" class="edge"><title>Node5&#45;&gt;Node3</title>
<path fill="none" stroke="#9a32cd" stroke-dasharray="5,2" d="M286.066,-220.71C298.534,-206.515 315.382,-187.334 325.704,-175.583"/>
<polygon fill="#9a32cd" stroke="#9a32cd" points="283.283,-218.575 279.313,-228.398 288.542,-223.194 283.283,-218.575"/>
<text text-anchor="middle" x="329.5" y="-198.3" font-family="Helvetica,sans-Serif" font-size="14.00"> edge</text>
</g>
<!-- Node6 -->
<g id="node6" class="node"><title>Node6</title>
<g id="a_node6"><a xlink:href="structmfem_1_1NCMesh_1_1RefCount.html" target="_top" xlink:title="mfem::NCMesh::RefCount">
<polygon fill="white" stroke="black" points="288,-290.5 288,-313.5 488,-313.5 488,-290.5 288,-290.5"/>
<text text-anchor="middle" x="388" y="-298.3" font-family="Helvetica,sans-Serif" font-size="14.00">mfem::NCMesh::RefCount</text>
</a>
</g>
</g>
<!-- Node6&#45;&gt;Node5 -->
<g id="edge7" class="edge"><title>Node6&#45;&gt;Node5</title>
<path fill="none" stroke="midnightblue" d="M358.066,-285.779C337.121,-275.13 309.663,-261.167 291.013,-251.685"/>
<polygon fill="midnightblue" stroke="midnightblue" points="356.675,-288.999 367.176,-290.411 359.848,-282.759 356.675,-288.999"/>
</g>
<!-- Node7 -->
<g id="node7" class="node"><title>Node7</title>
<g id="a_node7"><a xlink:href="structmfem_1_1NCMesh_1_1Vertex.html" target="_top" xlink:title="mfem::NCMesh::Vertex">
<polygon fill="white" stroke="black" points="374,-228.5 374,-251.5 556,-251.5 556,-228.5 374,-228.5"/>
<text text-anchor="middle" x="465" y="-236.3" font-family="Helvetica,sans-Serif" font-size="14.00">mfem::NCMesh::Vertex</text>
</a>
</g>
</g>
<!-- Node6&#45;&gt;Node7 -->
<g id="edge9" class="edge"><title>Node6&#45;&gt;Node7</title>
<path fill="none" stroke="midnightblue" d="M409.968,-283.882C423.298,-273.495 439.891,-260.565 451.353,-251.634"/>
<polygon fill="midnightblue" stroke="midnightblue" points="407.503,-281.366 401.766,-290.273 411.805,-286.887 407.503,-281.366"/>
</g>
<!-- Node7&#45;&gt;Node3 -->
<g id="edge8" class="edge"><title>Node7&#45;&gt;Node3</title>
<path fill="none" stroke="#9a32cd" stroke-dasharray="5,2" d="M437.644,-223.428C412.397,-209.056 375.586,-188.103 353.591,-175.583"/>
<polygon fill="#9a32cd" stroke="#9a32cd" points="435.952,-226.492 446.374,-228.398 439.415,-220.409 435.952,-226.492"/>
<text text-anchor="middle" x="437.5" y="-198.3" font-family="Helvetica,sans-Serif" font-size="14.00"> vertex</text>
</g>
</g>
</svg>
        <g id="navigator" transform="translate(0 0)" fill="#404254">
                <rect fill="#f2f5e9" fill-opacity="0.5" stroke="#606060" stroke-width=".5" x="0" y="0" width="60" height="60"/>
                <use id="zoomplus" xlink:href="#zoomPlus" x="17" y="9" onmousedown="handleZoom(evt,'in')"/>
                <use id="zoomminus" xlink:href="#zoomMin" x="42" y="9" onmousedown="handleZoom(evt,'out')"/>
                <use id="reset" xlink:href="#resetDef" x="30" y="36" onmousedown="handleReset()"/>
                <g id="arrowUp" xlink:href="#dirArrow" transform="translate(30 24)" onmousedown="handlePan(0,-1)">
                  <use xlink:href="#rim" fill="#404040">
                        <set attributeName="fill" to="#808080" begin="arrowUp.mouseover" end="arrowUp.mouseout"/>
                  </use>
                  <path fill="none" stroke="white" stroke-width="1.5" d="M0,-3.0v7 M-2.5,-0.5L0,-3.0L2.5,-0.5"/>
                </g>
                <g id="arrowRight" xlink:href="#dirArrow" transform="rotate(90) translate(36 -43)" onmousedown="handlePan(1,0)">
                  <use xlink:href="#rim" fill="#404040">
                        <set attributeName="fill" to="#808080" begin="arrowRight.mouseover" end="arrowRight.mouseout"/>
                  </use>
                  <path fill="none" stroke="white" stroke-width="1.5" d="M0,-3.0v7 M-2.5,-0.5L0,-3.0L2.5,-0.5"/>
                </g>
                <g id="arrowDown" xlink:href="#dirArrow" transform="rotate(180) translate(-30 -48)" onmousedown="handlePan(0,1)">
                  <use xlink:href="#rim" fill="#404040">
                        <set attributeName="fill" to="#808080" begin="arrowDown.mouseover" end="arrowDown.mouseout"/>
                  </use>
                  <path fill="none" stroke="white" stroke-width="1.5" d="M0,-3.0v7 M-2.5,-0.5L0,-3.0L2.5,-0.5"/>
                </g>
                <g id="arrowLeft" xlink:href="#dirArrow" transform="rotate(270) translate(-36 17)" onmousedown="handlePan(-1,0)">
                  <use xlink:href="#rim" fill="#404040">
                        <set attributeName="fill" to="#808080" begin="arrowLeft.mouseover" end="arrowLeft.mouseout"/>
                  </use>
                  <path fill="none" stroke="white" stroke-width="1.5" d="M0,-3.0v7 M-2.5,-0.5L0,-3.0L2.5,-0.5"/>
                </g>
        </g>
        <svg viewBox="0 0 15 15" width="100%" height="30px" preserveAspectRatio="xMaxYMin meet">
         <g id="arrow_out" transform="scale(0.3 0.3)">
          <a xlink:href="structmfem_1_1NCMesh_1_1RefStackItem__coll__graph_org.svg" target="_base">
           <rect id="button" ry="5" rx="5" y="6" x="6" height="38" width="38"
                fill="#f2f5e9" fill-opacity="0.5" stroke="#606060" stroke-width="1.0"/>
           <path id="arrow"
             d="M 11.500037,31.436501 C 11.940474,20.09759 22.043105,11.32322 32.158766,21.979434 L 37.068811,17.246167 C 37.068811,17.246167 37.088388,32 37.088388,32 L 22.160133,31.978069 C 22.160133,31.978069 26.997745,27.140456 26.997745,27.140456 C 18.528582,18.264221 13.291696,25.230495 11.500037,31.436501 z"
             style="fill:#404040;"/>
          </a>
         </g>
        </svg>
</svg>
